<?xml version="1.0" encoding="UTF-8" standalone="no"?>
<!DOCTYPE svg PUBLIC "-//W3C//DTD SVG 1.1//EN"
 "http://www.w3.org/Graphics/SVG/1.1/DTD/svg11.dtd">
<!-- Generated by graphviz version 2.36.0 (20140111.2315)
 -->
<!-- Title: set_target_altitude_proportion Pages: 1 -->
<svg width="404pt" height="202pt"
 viewBox="0.00 0.00 404.00 202.00" xmlns="http://www.w3.org/2000/svg" xmlns:xlink="http://www.w3.org/1999/xlink">
<g id="graph0" class="graph" transform="scale(1 1) rotate(0) translate(4 198)">
<title>set_target_altitude_proportion</title>
<polygon fill="white" stroke="none" points="-4,4 -4,-198 400,-198 400,4 -4,4"/>
<!-- Node1 -->
<g id="node1" class="node"><title>Node1</title>
<polygon fill="#bfbfbf" stroke="black" points="0.5,-82 0.5,-112 97.5,-112 97.5,-82 0.5,-82"/>
<text text-anchor="start" x="8.5" y="-100" font-family="Helvetica,sans-Serif" font-size="10.00">set_target_altitude</text>
<text text-anchor="middle" x="49" y="-89" font-family="Helvetica,sans-Serif" font-size="10.00">_proportion</text>
</g>
<!-- Node2 -->
<g id="node2" class="node"><title>Node2</title>
<g id="a_node2"><a xlink:href="altitude_8pde.html#a6357f669f6ecbbb7cfde5ba94be1e19c" target="_top" xlink:title="set_target_altitude\l_location">
<polygon fill="white" stroke="black" points="143.5,-164 143.5,-194 240.5,-194 240.5,-164 143.5,-164"/>
<text text-anchor="start" x="151.5" y="-182" font-family="Helvetica,sans-Serif" font-size="10.00">set_target_altitude</text>
<text text-anchor="middle" x="192" y="-171" font-family="Helvetica,sans-Serif" font-size="10.00">_location</text>
</a>
</g>
</g>
<!-- Node1&#45;&gt;Node2 -->
<g id="edge1" class="edge"><title>Node1&#45;&gt;Node2</title>
<path fill="none" stroke="midnightblue" d="M70.0464,-112.14C86.6616,-124.306 111.17,-141.386 134,-154 137.466,-155.915 141.107,-157.793 144.802,-159.607"/>
<polygon fill="midnightblue" stroke="midnightblue" points="143.494,-162.86 154.031,-163.966 146.484,-156.531 143.494,-162.86"/>
</g>
<!-- Node3 -->
<g id="node3" class="node"><title>Node3</title>
<g id="a_node3"><a doxygen="/home/ac1054/Documents/JSBSim/ardupilot/docs/tags/libraries:../libraries/" xlink:href="../libraries/AP__Math_8cpp.html#a08eedb329d8162ddbd344d4f6c8cde20" target="_top" xlink:title="constrain_float">
<polygon fill="white" stroke="black" points="152,-125.5 152,-144.5 232,-144.5 232,-125.5 152,-125.5"/>
<text text-anchor="middle" x="192" y="-132.5" font-family="Helvetica,sans-Serif" font-size="10.00">constrain_float</text>
</a>
</g>
</g>
<!-- Node1&#45;&gt;Node3 -->
<g id="edge2" class="edge"><title>Node1&#45;&gt;Node3</title>
<path fill="none" stroke="midnightblue" d="M97.7362,-109.865C113.203,-114.033 130.307,-118.643 145.599,-122.764"/>
<polygon fill="midnightblue" stroke="midnightblue" points="144.785,-126.17 155.351,-125.393 146.607,-119.411 144.785,-126.17"/>
</g>
<!-- Node4 -->
<g id="node4" class="node"><title>Node4</title>
<g id="a_node4"><a xlink:href="altitude_8pde.html#ab8083dab6dcaeff9d8150fe04c47185d" target="_top" xlink:title="change_target_altitude">
<polygon fill="white" stroke="black" points="134.5,-87.5 134.5,-106.5 249.5,-106.5 249.5,-87.5 134.5,-87.5"/>
<text text-anchor="middle" x="192" y="-94.5" font-family="Helvetica,sans-Serif" font-size="10.00">change_target_altitude</text>
</a>
</g>
</g>
<!-- Node1&#45;&gt;Node4 -->
<g id="edge3" class="edge"><title>Node1&#45;&gt;Node4</title>
<path fill="none" stroke="midnightblue" d="M97.7362,-97C106.12,-97 114.985,-97 123.781,-97"/>
<polygon fill="midnightblue" stroke="midnightblue" points="124.044,-100.5 134.044,-97 124.044,-93.5001 124.044,-100.5"/>
</g>
<!-- Node5 -->
<g id="node5" class="node"><title>Node5</title>
<g id="a_node5"><a xlink:href="altitude_8pde.html#a26e99e43b17681e3716fef6a71de06b7" target="_top" xlink:title="calc_altitude_error_cm">
<polygon fill="white" stroke="black" points="134.5,-49.5 134.5,-68.5 249.5,-68.5 249.5,-49.5 134.5,-49.5"/>
<text text-anchor="middle" x="192" y="-56.5" font-family="Helvetica,sans-Serif" font-size="10.00">calc_altitude_error_cm</text>
</a>
</g>
</g>
<!-- Node1&#45;&gt;Node5 -->
<g id="edge4" class="edge"><title>Node1&#45;&gt;Node5</title>
<path fill="none" stroke="midnightblue" d="M97.7362,-84.1349C113.203,-79.9666 130.307,-75.3569 145.599,-71.2356"/>
<polygon fill="midnightblue" stroke="midnightblue" points="146.607,-74.5891 155.351,-68.6074 144.785,-67.8303 146.607,-74.5891"/>
</g>
<!-- Node7 -->
<g id="node7" class="node"><title>Node7</title>
<g id="a_node7"><a xlink:href="altitude_8pde.html#a9a2ab83d5bfa356d6e99cc7f6c7869cd" target="_top" xlink:title="set_offset_altitude\l_location">
<polygon fill="white" stroke="black" points="143.5,-0 143.5,-30 240.5,-30 240.5,-0 143.5,-0"/>
<text text-anchor="start" x="151.5" y="-18" font-family="Helvetica,sans-Serif" font-size="10.00">set_offset_altitude</text>
<text text-anchor="middle" x="192" y="-7" font-family="Helvetica,sans-Serif" font-size="10.00">_location</text>
</a>
</g>
</g>
<!-- Node1&#45;&gt;Node7 -->
<g id="edge6" class="edge"><title>Node1&#45;&gt;Node7</title>
<path fill="none" stroke="midnightblue" d="M70.0464,-81.8604C86.6616,-69.694 111.17,-52.6139 134,-40 137.466,-38.0853 141.107,-36.2065 144.802,-34.3926"/>
<polygon fill="midnightblue" stroke="midnightblue" points="146.484,-37.4693 154.031,-30.034 143.494,-31.1397 146.484,-37.4693"/>
</g>
<!-- Node6 -->
<g id="node6" class="node"><title>Node6</title>
<g id="a_node6"><a xlink:href="altitude_8pde.html#aad5da768a7e757989110fe2d704427b9" target="_top" xlink:title="adjusted_altitude_cm">
<polygon fill="white" stroke="black" points="286.5,-49.5 286.5,-68.5 395.5,-68.5 395.5,-49.5 286.5,-49.5"/>
<text text-anchor="middle" x="341" y="-56.5" font-family="Helvetica,sans-Serif" font-size="10.00">adjusted_altitude_cm</text>
</a>
</g>
</g>
<!-- Node5&#45;&gt;Node6 -->
<g id="edge5" class="edge"><title>Node5&#45;&gt;Node6</title>
<path fill="none" stroke="midnightblue" d="M249.834,-59C258.428,-59 267.344,-59 276.075,-59"/>
<polygon fill="midnightblue" stroke="midnightblue" points="276.211,-62.5001 286.211,-59 276.211,-55.5001 276.211,-62.5001"/>
</g>
</g>
</svg>
