<?xml version="1.0" encoding="UTF-8" standalone="no"?>
<!DOCTYPE svg PUBLIC "-//W3C//DTD SVG 1.1//EN"
 "http://www.w3.org/Graphics/SVG/1.1/DTD/svg11.dtd">
<!-- Generated by graphviz version 2.36.0 (20140111.2315)
 -->
<!-- Title: setup_terrain_target_alt Pages: 1 -->
<!--zoomable 477 -->
<svg id="main" version="1.1" xmlns="http://www.w3.org/2000/svg" xmlns:xlink="http://www.w3.org/1999/xlink" xml:space="preserve" onload="init(evt)">
<style type="text/css"><![CDATA[
.edge:hover path { stroke: red; }
.edge:hover polygon { stroke: red; fill: red; }
]]></style>
<script type="text/javascript"><![CDATA[
var edges = document.getElementsByTagName('g');
if (edges && edges.length) {
  for (var i=0;i<edges.length;i++) {
    if (edges[i].id.substr(0,4)=='edge') {
      edges[i].setAttribute('class','edge');
    }
  }
}
]]></script>
        <defs>
                <circle id="rim" cx="0" cy="0" r="7"/>
                <circle id="rim2" cx="0" cy="0" r="3.5"/>
                <g id="zoomPlus">
                        <use xlink:href="#rim" fill="#404040">
                                <set attributeName="fill" to="#808080" begin="zoomplus.mouseover" end="zoomplus.mouseout"/>
                        </use>
                        <path d="M-4,0h8M0,-4v8" fill="none" stroke="white" stroke-width="1.5" pointer-events="none"/>
                </g>
                <g id="zoomMin">
                        <use xlink:href="#rim" fill="#404040">
                                <set attributeName="fill" to="#808080" begin="zoomminus.mouseover" end="zoomminus.mouseout"/>
                        </use>
                        <path d="M-4,0h8" fill="none" stroke="white" stroke-width="1.5" pointer-events="none"/>
                </g>
                <g id="dirArrow">
                        <path fill="none" stroke="white" stroke-width="1.5" d="M0,-3.0v7 M-2.5,-0.5L0,-3.0L2.5,-0.5"/>
                </g>
               <g id="resetDef">
                       <use xlink:href="#rim2" fill="#404040">
                               <set attributeName="fill" to="#808080" begin="reset.mouseover" end="reset.mouseout"/>
                       </use>
               </g>
        </defs>

<script type="text/javascript">
var viewWidth = 830;
var viewHeight = 477;
var sectionId = 'dynsection-34';
</script>
<script xlink:href="svgpan.js"/>
<svg id="graph" class="graph">
<g id="viewport">
<title>setup_terrain_target_alt</title>
<polygon fill="white" stroke="none" points="-4,4 -4,-473 826,-473 826,4 -4,4"/>
<!-- Node1 -->
<g id="node1" class="node"><title>Node1</title>
<polygon fill="#bfbfbf" stroke="black" points="0.5,-221.5 0.5,-240.5 119.5,-240.5 119.5,-221.5 0.5,-221.5"/>
<text text-anchor="middle" x="60" y="-228.5" font-family="Helvetica,sans-Serif" font-size="10.00">setup_terrain_target_alt</text>
</g>
<!-- Node2 -->
<g id="node2" class="node"><title>Node2</title>
<g id="a_node2"><a xlink:href="commands__logic_8pde.html#a764b8431dbf1d572bff1ee7413bed3e2" target="_top" xlink:title="do_RTL">
<polygon fill="white" stroke="black" points="156.5,-221.5 156.5,-240.5 207.5,-240.5 207.5,-221.5 156.5,-221.5"/>
<text text-anchor="middle" x="182" y="-228.5" font-family="Helvetica,sans-Serif" font-size="10.00">do_RTL</text>
</a>
</g>
</g>
<!-- Node1&#45;&gt;Node2 -->
<g id="edge1" class="edge"><title>Node1&#45;&gt;Node2</title>
<path fill="none" stroke="midnightblue" d="M129.601,-231C139.141,-231 148.385,-231 156.34,-231"/>
<polygon fill="midnightblue" stroke="midnightblue" points="129.594,-227.5 119.594,-231 129.594,-234.5 129.594,-227.5"/>
</g>
<!-- Node6 -->
<g id="node6" class="node"><title>Node6</title>
<g id="a_node6"><a xlink:href="commands__logic_8pde.html#a8cc2b5f231ed49f1dd33e7500f0351c0" target="_top" xlink:title="exit_mission_callback">
<polygon fill="white" stroke="black" points="516.5,-449.5 516.5,-468.5 629.5,-468.5 629.5,-449.5 516.5,-449.5"/>
<text text-anchor="middle" x="573" y="-456.5" font-family="Helvetica,sans-Serif" font-size="10.00">exit_mission_callback</text>
</a>
</g>
</g>
<!-- Node1&#45;&gt;Node6 -->
<g id="edge28" class="edge"><title>Node1&#45;&gt;Node6</title>
<path fill="none" stroke="midnightblue" d="M76.8951,-248.295C116.531,-290.093 224.871,-396.36 340,-440 397.25,-461.701 467.991,-464.371 516.205,-462.935"/>
<polygon fill="midnightblue" stroke="midnightblue" points="79.2941,-245.737 69.9024,-240.833 74.1862,-250.523 79.2941,-245.737"/>
</g>
<!-- Node18 -->
<g id="node18" class="node"><title>Node18</title>
<g id="a_node18"><a xlink:href="geofence_8pde.html#a131efdc9e7e9c64e4909789780279a66" target="_top" xlink:title="geofence_check">
<polygon fill="white" stroke="black" points="363,-19.5 363,-38.5 451,-38.5 451,-19.5 363,-19.5"/>
<text text-anchor="middle" x="407" y="-26.5" font-family="Helvetica,sans-Serif" font-size="10.00">geofence_check</text>
</a>
</g>
</g>
<!-- Node1&#45;&gt;Node18 -->
<g id="edge29" class="edge"><title>Node1&#45;&gt;Node18</title>
<path fill="none" stroke="midnightblue" d="M80.6097,-215.092C124.516,-180.183 235.123,-96.1508 340,-48 348.019,-44.3184 356.916,-41.1777 365.515,-38.5727"/>
<polygon fill="midnightblue" stroke="midnightblue" points="78.358,-212.411 72.7393,-221.393 82.7331,-217.875 78.358,-212.411"/>
</g>
<!-- Node3 -->
<g id="node3" class="node"><title>Node3</title>
<g id="a_node3"><a xlink:href="system_8pde.html#afe59c30399d04a968780503b2fc09ff7" target="_top" xlink:title="set_mode">
<polygon fill="white" stroke="black" points="244.5,-221.5 244.5,-240.5 303.5,-240.5 303.5,-221.5 244.5,-221.5"/>
<text text-anchor="middle" x="274" y="-228.5" font-family="Helvetica,sans-Serif" font-size="10.00">set_mode</text>
</a>
</g>
</g>
<!-- Node2&#45;&gt;Node3 -->
<g id="edge2" class="edge"><title>Node2&#45;&gt;Node3</title>
<path fill="none" stroke="midnightblue" d="M217.6,-231C226.419,-231 235.802,-231 244.291,-231"/>
<polygon fill="midnightblue" stroke="midnightblue" points="217.593,-227.5 207.593,-231 217.593,-234.5 217.593,-227.5"/>
</g>
<!-- Node4 -->
<g id="node4" class="node"><title>Node4</title>
<g id="a_node4"><a xlink:href="commands__logic_8pde.html#a1a8c657acb9efa7a54b0b2a74025ec11" target="_top" xlink:title="start_command">
<polygon fill="white" stroke="black" points="365,-411.5 365,-430.5 449,-430.5 449,-411.5 365,-411.5"/>
<text text-anchor="middle" x="407" y="-418.5" font-family="Helvetica,sans-Serif" font-size="10.00">start_command</text>
</a>
</g>
</g>
<!-- Node3&#45;&gt;Node4 -->
<g id="edge3" class="edge"><title>Node3&#45;&gt;Node4</title>
<path fill="none" stroke="midnightblue" d="M276.852,-250.867C281.241,-286.427 295.506,-361.051 340,-402 346.931,-408.379 355.87,-412.63 364.917,-415.459"/>
<polygon fill="midnightblue" stroke="midnightblue" points="280.316,-250.347 275.748,-240.787 273.358,-251.109 280.316,-250.347"/>
</g>
<!-- Node7 -->
<g id="node7" class="node"><title>Node7</title>
<g id="a_node7"><a xlink:href="control__modes_8pde.html#a795c2818aac0b7d2f673b178d181116d" target="_top" xlink:title="&#45;*&#45; tab&#45;width: 4; Mode: C++; c&#45;basic&#45;offset: 4; indent&#45;tabs&#45;mode: nil &#45;*&#45; ">
<polygon fill="white" stroke="black" points="355,-145.5 355,-164.5 459,-164.5 459,-145.5 355,-145.5"/>
<text text-anchor="middle" x="407" y="-152.5" font-family="Helvetica,sans-Serif" font-size="10.00">read_control_switch</text>
</a>
</g>
</g>
<!-- Node3&#45;&gt;Node7 -->
<g id="edge6" class="edge"><title>Node3&#45;&gt;Node7</title>
<path fill="none" stroke="midnightblue" d="M292.224,-214.617C304.713,-203.417 322.429,-188.869 340,-179 350.311,-173.208 362.284,-168.36 373.179,-164.572"/>
<polygon fill="midnightblue" stroke="midnightblue" points="289.824,-212.069 284.826,-221.411 294.559,-217.225 289.824,-212.069"/>
</g>
<!-- Node9 -->
<g id="node9" class="node"><title>Node9</title>
<g id="a_node9"><a xlink:href="system_8pde.html#adf8053623ae608c96db339992ed2528c" target="_top" xlink:title="init_ardupilot">
<polygon fill="white" stroke="black" points="672.5,-183.5 672.5,-202.5 743.5,-202.5 743.5,-183.5 672.5,-183.5"/>
<text text-anchor="middle" x="708" y="-190.5" font-family="Helvetica,sans-Serif" font-size="10.00">init_ardupilot</text>
</a>
</g>
</g>
<!-- Node3&#45;&gt;Node9 -->
<g id="edge24" class="edge"><title>Node3&#45;&gt;Node9</title>
<path fill="none" stroke="midnightblue" d="M313.757,-227.591C397.232,-220.248 592.884,-203.038 672.441,-196.04"/>
<polygon fill="midnightblue" stroke="midnightblue" points="313.334,-224.114 303.679,-228.477 313.948,-231.087 313.334,-224.114"/>
</g>
<!-- Node11 -->
<g id="node11" class="node"><title>Node11</title>
<g id="a_node11"><a xlink:href="events_8pde.html#a6cc4db2101a0b686b4594a14ac4de049" target="_top" xlink:title="failsafe_short_on_event">
<polygon fill="white" stroke="black" points="347,-107.5 347,-126.5 467,-126.5 467,-107.5 347,-107.5"/>
<text text-anchor="middle" x="407" y="-114.5" font-family="Helvetica,sans-Serif" font-size="10.00">failsafe_short_on_event</text>
</a>
</g>
</g>
<!-- Node3&#45;&gt;Node11 -->
<g id="edge10" class="edge"><title>Node3&#45;&gt;Node11</title>
<path fill="none" stroke="midnightblue" d="M283.052,-212.14C293.217,-190.569 312.728,-155.698 340,-136 345.413,-132.09 351.616,-128.982 358.004,-126.511"/>
<polygon fill="midnightblue" stroke="midnightblue" points="279.853,-210.721 278.932,-221.275 286.234,-213.598 279.853,-210.721"/>
</g>
<!-- Node13 -->
<g id="node13" class="node"><title>Node13</title>
<g id="a_node13"><a xlink:href="events_8pde.html#a3f3b6c96711997a5a63eaa4436ea097c" target="_top" xlink:title="failsafe_long_on_event">
<polygon fill="white" stroke="black" points="349,-373.5 349,-392.5 465,-392.5 465,-373.5 349,-373.5"/>
<text text-anchor="middle" x="407" y="-380.5" font-family="Helvetica,sans-Serif" font-size="10.00">failsafe_long_on_event</text>
</a>
</g>
</g>
<!-- Node3&#45;&gt;Node13 -->
<g id="edge12" class="edge"><title>Node3&#45;&gt;Node13</title>
<path fill="none" stroke="midnightblue" d="M279.199,-250.483C286.477,-279.526 304.216,-333.966 340,-364 344.658,-367.909 350.079,-371.015 355.775,-373.483"/>
<polygon fill="midnightblue" stroke="midnightblue" points="282.596,-249.637 276.906,-240.7 275.781,-251.234 282.596,-249.637"/>
</g>
<!-- Node15 -->
<g id="node15" class="node"><title>Node15</title>
<g id="a_node15"><a xlink:href="events_8pde.html#afd1ed491d5988a9aafccf86d9c95c0ce" target="_top" xlink:title="failsafe_short_off\l_event">
<polygon fill="white" stroke="black" points="361,-58 361,-88 453,-88 453,-58 361,-58"/>
<text text-anchor="start" x="369" y="-76" font-family="Helvetica,sans-Serif" font-size="10.00">failsafe_short_off</text>
<text text-anchor="middle" x="407" y="-65" font-family="Helvetica,sans-Serif" font-size="10.00">_event</text>
</a>
</g>
</g>
<!-- Node3&#45;&gt;Node15 -->
<g id="edge14" class="edge"><title>Node3&#45;&gt;Node15</title>
<path fill="none" stroke="midnightblue" d="M279.619,-211.5C287.368,-182.833 305.626,-129.333 340,-98 345.977,-92.5522 353.258,-88.2518 360.775,-84.8691"/>
<polygon fill="midnightblue" stroke="midnightblue" points="276.15,-210.939 277.075,-221.493 282.934,-212.666 276.15,-210.939"/>
</g>
<!-- Node16 -->
<g id="node16" class="node"><title>Node16</title>
<g id="a_node16"><a xlink:href="events_8pde.html#a8c50f18e2cc2e6ec43f90c1a0b880e99" target="_top" xlink:title="low_battery_event">
<polygon fill="white" stroke="black" points="359,-335.5 359,-354.5 455,-354.5 455,-335.5 359,-335.5"/>
<text text-anchor="middle" x="407" y="-342.5" font-family="Helvetica,sans-Serif" font-size="10.00">low_battery_event</text>
</a>
</g>
</g>
<!-- Node3&#45;&gt;Node16 -->
<g id="edge16" class="edge"><title>Node3&#45;&gt;Node16</title>
<path fill="none" stroke="midnightblue" d="M283.052,-249.86C293.217,-271.431 312.728,-306.302 340,-326 345.606,-330.049 352.06,-333.239 358.689,-335.751"/>
<polygon fill="midnightblue" stroke="midnightblue" points="286.234,-248.402 278.932,-240.725 279.853,-251.279 286.234,-248.402"/>
</g>
<!-- Node3&#45;&gt;Node18 -->
<g id="edge18" class="edge"><title>Node3&#45;&gt;Node18</title>
<path fill="none" stroke="midnightblue" d="M280.737,-211.776C294.193,-167.199 327.58,-59.6851 340,-48 346.34,-42.0357 354.43,-37.9279 362.758,-35.1029"/>
<polygon fill="midnightblue" stroke="midnightblue" points="277.362,-210.845 277.838,-221.429 284.067,-212.859 277.362,-210.845"/>
</g>
<!-- Node21 -->
<g id="node21" class="node"><title>Node21</title>
<g id="a_node21"><a xlink:href="landing_8pde.html#a53286296e984291837fff41ec8c10038" target="_top" xlink:title="jump_to_landing_sequence">
<polygon fill="white" stroke="black" points="340,-297.5 340,-316.5 474,-316.5 474,-297.5 340,-297.5"/>
<text text-anchor="middle" x="407" y="-304.5" font-family="Helvetica,sans-Serif" font-size="10.00">jump_to_landing_sequence</text>
</a>
</g>
</g>
<!-- Node3&#45;&gt;Node21 -->
<g id="edge21" class="edge"><title>Node3&#45;&gt;Node21</title>
<path fill="none" stroke="midnightblue" d="M290.451,-248.134C302.743,-260.809 320.984,-277.609 340,-288 347.01,-291.831 354.872,-294.958 362.659,-297.487"/>
<polygon fill="midnightblue" stroke="midnightblue" points="292.684,-245.399 283.284,-240.509 287.583,-250.193 292.684,-245.399"/>
</g>
<!-- Node24 -->
<g id="node24" class="node"><title>Node24</title>
<g id="a_node24"><a xlink:href="system_8pde.html#ae45d741f1c48b956c06322f8c4db6c70" target="_top" xlink:title="startup_ground">
<polygon fill="white" stroke="black" points="532.5,-221.5 532.5,-240.5 613.5,-240.5 613.5,-221.5 532.5,-221.5"/>
<text text-anchor="middle" x="573" y="-228.5" font-family="Helvetica,sans-Serif" font-size="10.00">startup_ground</text>
</a>
</g>
</g>
<!-- Node3&#45;&gt;Node24 -->
<g id="edge25" class="edge"><title>Node3&#45;&gt;Node24</title>
<path fill="none" stroke="midnightblue" d="M314.1,-231C370.861,-231 475.509,-231 532.497,-231"/>
<polygon fill="midnightblue" stroke="midnightblue" points="313.748,-227.5 303.747,-231 313.747,-234.5 313.748,-227.5"/>
</g>
<!-- Node25 -->
<g id="node25" class="node"><title>Node25</title>
<g id="a_node25"><a xlink:href="system_8pde.html#af51c9dc9104bacb7e0e05b366b43f66c" target="_top" xlink:title="mavlink_set_mode">
<polygon fill="white" stroke="black" points="358,-259.5 358,-278.5 456,-278.5 456,-259.5 358,-259.5"/>
<text text-anchor="middle" x="407" y="-266.5" font-family="Helvetica,sans-Serif" font-size="10.00">mavlink_set_mode</text>
</a>
</g>
</g>
<!-- Node3&#45;&gt;Node25 -->
<g id="edge27" class="edge"><title>Node3&#45;&gt;Node25</title>
<path fill="none" stroke="midnightblue" d="M313.558,-242.185C332.493,-247.677 355.065,-254.225 373.165,-259.475"/>
<polygon fill="midnightblue" stroke="midnightblue" points="314.328,-238.764 303.749,-239.339 312.378,-245.487 314.328,-238.764"/>
</g>
<!-- Node5 -->
<g id="node5" class="node"><title>Node5</title>
<g id="a_node5"><a xlink:href="commands__logic_8pde.html#a0430a022cdb46cf93cef509c17cd6b1f" target="_top" xlink:title="start_command_callback">
<polygon fill="white" stroke="black" points="510.5,-411.5 510.5,-430.5 635.5,-430.5 635.5,-411.5 510.5,-411.5"/>
<text text-anchor="middle" x="573" y="-418.5" font-family="Helvetica,sans-Serif" font-size="10.00">start_command_callback</text>
</a>
</g>
</g>
<!-- Node4&#45;&gt;Node5 -->
<g id="edge4" class="edge"><title>Node4&#45;&gt;Node5</title>
<path fill="none" stroke="midnightblue" d="M459.684,-421C475.806,-421 493.747,-421 510.473,-421"/>
<polygon fill="midnightblue" stroke="midnightblue" points="459.384,-417.5 449.384,-421 459.384,-424.5 459.384,-417.5"/>
</g>
<!-- Node4&#45;&gt;Node6 -->
<g id="edge5" class="edge"><title>Node4&#45;&gt;Node6</title>
<path fill="none" stroke="midnightblue" d="M459.341,-432.896C482.393,-438.237 509.221,-444.454 530.913,-449.48"/>
<polygon fill="midnightblue" stroke="midnightblue" points="459.916,-429.437 449.384,-430.589 458.336,-436.256 459.916,-429.437"/>
</g>
<!-- Node8 -->
<g id="node8" class="node"><title>Node8</title>
<g id="a_node8"><a xlink:href="control__modes_8pde.html#a1a85d98dee38cd7a939181118d483622" target="_top" xlink:title="reset_control_switch">
<polygon fill="white" stroke="black" points="519.5,-145.5 519.5,-164.5 626.5,-164.5 626.5,-145.5 519.5,-145.5"/>
<text text-anchor="middle" x="573" y="-152.5" font-family="Helvetica,sans-Serif" font-size="10.00">reset_control_switch</text>
</a>
</g>
</g>
<!-- Node7&#45;&gt;Node8 -->
<g id="edge7" class="edge"><title>Node7&#45;&gt;Node8</title>
<path fill="none" stroke="midnightblue" d="M469.476,-155C485.877,-155 503.448,-155 519.329,-155"/>
<polygon fill="midnightblue" stroke="midnightblue" points="469.441,-151.5 459.441,-155 469.441,-158.5 469.441,-151.5"/>
</g>
<!-- Node8&#45;&gt;Node9 -->
<g id="edge8" class="edge"><title>Node8&#45;&gt;Node9</title>
<path fill="none" stroke="midnightblue" d="M617.367,-167.391C635.581,-172.594 656.439,-178.554 673.449,-183.414"/>
<polygon fill="midnightblue" stroke="midnightblue" points="618.138,-163.971 607.562,-164.589 616.215,-170.702 618.138,-163.971"/>
</g>
<!-- Node10 -->
<g id="node10" class="node"><title>Node10</title>
<g id="a_node10"><a xlink:href="ArduPlane_8pde.html#a4fc01d736fe50cf5b977f755b675f11d" target="_top" xlink:title="setup">
<polygon fill="white" stroke="black" points="780.5,-183.5 780.5,-202.5 821.5,-202.5 821.5,-183.5 780.5,-183.5"/>
<text text-anchor="middle" x="801" y="-190.5" font-family="Helvetica,sans-Serif" font-size="10.00">setup</text>
</a>
</g>
</g>
<!-- Node9&#45;&gt;Node10 -->
<g id="edge9" class="edge"><title>Node9&#45;&gt;Node10</title>
<path fill="none" stroke="midnightblue" d="M753.757,-193C763.144,-193 772.574,-193 780.447,-193"/>
<polygon fill="midnightblue" stroke="midnightblue" points="753.663,-189.5 743.663,-193 753.663,-196.5 753.663,-189.5"/>
</g>
<!-- Node12 -->
<g id="node12" class="node"><title>Node12</title>
<g id="a_node12"><a xlink:href="system_8pde.html#a298557d3029fc5e0db868e570ddd065c" target="_top" xlink:title="check_short_failsafe">
<polygon fill="white" stroke="black" points="519.5,-82.5 519.5,-101.5 626.5,-101.5 626.5,-82.5 519.5,-82.5"/>
<text text-anchor="middle" x="573" y="-89.5" font-family="Helvetica,sans-Serif" font-size="10.00">check_short_failsafe</text>
</a>
</g>
</g>
<!-- Node11&#45;&gt;Node12 -->
<g id="edge11" class="edge"><title>Node11&#45;&gt;Node12</title>
<path fill="none" stroke="midnightblue" d="M477.346,-106.429C491.427,-104.282 506.018,-102.058 519.404,-100.018"/>
<polygon fill="midnightblue" stroke="midnightblue" points="476.566,-103.007 467.208,-107.974 477.621,-109.927 476.566,-103.007"/>
</g>
<!-- Node14 -->
<g id="node14" class="node"><title>Node14</title>
<g id="a_node14"><a xlink:href="system_8pde.html#ac712a358c5e71bb976fd5c39f844190f" target="_top" xlink:title="check_long_failsafe">
<polygon fill="white" stroke="black" points="521.5,-373.5 521.5,-392.5 624.5,-392.5 624.5,-373.5 521.5,-373.5"/>
<text text-anchor="middle" x="573" y="-380.5" font-family="Helvetica,sans-Serif" font-size="10.00">check_long_failsafe</text>
</a>
</g>
</g>
<!-- Node13&#45;&gt;Node14 -->
<g id="edge13" class="edge"><title>Node13&#45;&gt;Node14</title>
<path fill="none" stroke="midnightblue" d="M475.756,-383C490.969,-383 506.856,-383 521.236,-383"/>
<polygon fill="midnightblue" stroke="midnightblue" points="475.359,-379.5 465.359,-383 475.359,-386.5 475.359,-379.5"/>
</g>
<!-- Node15&#45;&gt;Node12 -->
<g id="edge15" class="edge"><title>Node15&#45;&gt;Node12</title>
<path fill="none" stroke="midnightblue" d="M463.356,-79.4132C481.444,-81.5087 501.472,-83.8291 519.355,-85.9009"/>
<polygon fill="midnightblue" stroke="midnightblue" points="463.584,-75.9163 453.248,-78.2421 462.779,-82.8698 463.584,-75.9163"/>
</g>
<!-- Node17 -->
<g id="node17" class="node"><title>Node17</title>
<g id="a_node17"><a xlink:href="sensors_8pde.html#af836fb7da62a6fb918d166aa9835ad91" target="_top" xlink:title="read_battery">
<polygon fill="white" stroke="black" points="537.5,-335.5 537.5,-354.5 608.5,-354.5 608.5,-335.5 537.5,-335.5"/>
<text text-anchor="middle" x="573" y="-342.5" font-family="Helvetica,sans-Serif" font-size="10.00">read_battery</text>
</a>
</g>
</g>
<!-- Node16&#45;&gt;Node17 -->
<g id="edge17" class="edge"><title>Node16&#45;&gt;Node17</title>
<path fill="none" stroke="midnightblue" d="M465.505,-345C489.505,-345 516.587,-345 537.434,-345"/>
<polygon fill="midnightblue" stroke="midnightblue" points="465.436,-341.5 455.436,-345 465.436,-348.5 465.436,-341.5"/>
</g>
<!-- Node19 -->
<g id="node19" class="node"><title>Node19</title>
<g id="a_node19"><a xlink:href="ArduPlane_8pde.html#a952c65073f8556020619eca374f08067" target="_top" xlink:title="update_GPS_10Hz">
<polygon fill="white" stroke="black" points="522.5,-0.5 522.5,-19.5 623.5,-19.5 623.5,-0.5 522.5,-0.5"/>
<text text-anchor="middle" x="573" y="-7.5" font-family="Helvetica,sans-Serif" font-size="10.00">update_GPS_10Hz</text>
</a>
</g>
</g>
<!-- Node18&#45;&gt;Node19 -->
<g id="edge19" class="edge"><title>Node18&#45;&gt;Node19</title>
<path fill="none" stroke="midnightblue" d="M461.097,-22.8485C480.732,-20.5737 502.902,-18.0052 522.231,-15.7659"/>
<polygon fill="midnightblue" stroke="midnightblue" points="460.62,-19.3803 451.089,-24.008 461.425,-26.3338 460.62,-19.3803"/>
</g>
<!-- Node20 -->
<g id="node20" class="node"><title>Node20</title>
<g id="a_node20"><a xlink:href="ArduPlane_8pde.html#a6fba8fd13515c54a77e9434c4784c3c9" target="_top" xlink:title="update_alt">
<polygon fill="white" stroke="black" points="542,-38.5 542,-57.5 604,-57.5 604,-38.5 542,-38.5"/>
<text text-anchor="middle" x="573" y="-45.5" font-family="Helvetica,sans-Serif" font-size="10.00">update_alt</text>
</a>
</g>
</g>
<!-- Node18&#45;&gt;Node20 -->
<g id="edge20" class="edge"><title>Node18&#45;&gt;Node20</title>
<path fill="none" stroke="midnightblue" d="M461.084,-35.15C487.84,-38.2497 519.306,-41.8952 541.875,-44.5099"/>
<polygon fill="midnightblue" stroke="midnightblue" points="461.425,-31.6662 451.089,-33.992 460.62,-38.6197 461.425,-31.6662"/>
</g>
<!-- Node22 -->
<g id="node22" class="node"><title>Node22</title>
<g id="a_node22"><a xlink:href="ArduPlane_8pde.html#a281c9fecc7781fe8c291fbbca573fa5a" target="_top" xlink:title="update_navigation">
<polygon fill="white" stroke="black" points="525.5,-297.5 525.5,-316.5 620.5,-316.5 620.5,-297.5 525.5,-297.5"/>
<text text-anchor="middle" x="573" y="-304.5" font-family="Helvetica,sans-Serif" font-size="10.00">update_navigation</text>
</a>
</g>
</g>
<!-- Node21&#45;&gt;Node22 -->
<g id="edge22" class="edge"><title>Node21&#45;&gt;Node22</title>
<path fill="none" stroke="midnightblue" d="M484.319,-307C498.256,-307 512.413,-307 525.169,-307"/>
<polygon fill="midnightblue" stroke="midnightblue" points="484.232,-303.5 474.232,-307 484.232,-310.5 484.232,-303.5"/>
</g>
<!-- Node23 -->
<g id="node23" class="node"><title>Node23</title>
<g id="a_node23"><a xlink:href="navigation_8pde.html#a5573c39eb2cddb37f77c17128c88eb54" target="_top" xlink:title="navigate">
<polygon fill="white" stroke="black" points="681.5,-297.5 681.5,-316.5 734.5,-316.5 734.5,-297.5 681.5,-297.5"/>
<text text-anchor="middle" x="708" y="-304.5" font-family="Helvetica,sans-Serif" font-size="10.00">navigate</text>
</a>
</g>
</g>
<!-- Node22&#45;&gt;Node23 -->
<g id="edge23" class="edge"><title>Node22&#45;&gt;Node23</title>
<path fill="none" stroke="midnightblue" d="M630.73,-307C648.324,-307 666.85,-307 681.238,-307"/>
<polygon fill="midnightblue" stroke="midnightblue" points="630.517,-303.5 620.517,-307 630.517,-310.5 630.517,-303.5"/>
</g>
<!-- Node24&#45;&gt;Node9 -->
<g id="edge26" class="edge"><title>Node24&#45;&gt;Node9</title>
<path fill="none" stroke="midnightblue" d="M617.367,-218.609C635.581,-213.406 656.439,-207.446 673.449,-202.586"/>
<polygon fill="midnightblue" stroke="midnightblue" points="616.215,-215.298 607.562,-221.411 618.138,-222.029 616.215,-215.298"/>
</g>
</g>
</svg>
        <g id="navigator" transform="translate(0 0)" fill="#404254">
                <rect fill="#f2f5e9" fill-opacity="0.5" stroke="#606060" stroke-width=".5" x="0" y="0" width="60" height="60"/>
                <use id="zoomplus" xlink:href="#zoomPlus" x="17" y="9" onmousedown="handleZoom(evt,'in')"/>
                <use id="zoomminus" xlink:href="#zoomMin" x="42" y="9" onmousedown="handleZoom(evt,'out')"/>
                <use id="reset" xlink:href="#resetDef" x="30" y="36" onmousedown="handleReset()"/>
                <g id="arrowUp" xlink:href="#dirArrow" transform="translate(30 24)" onmousedown="handlePan(0,-1)">
                  <use xlink:href="#rim" fill="#404040">
                        <set attributeName="fill" to="#808080" begin="arrowUp.mouseover" end="arrowUp.mouseout"/>
                  </use>
                  <path fill="none" stroke="white" stroke-width="1.5" d="M0,-3.0v7 M-2.5,-0.5L0,-3.0L2.5,-0.5"/>
                </g>
                <g id="arrowRight" xlink:href="#dirArrow" transform="rotate(90) translate(36 -43)" onmousedown="handlePan(1,0)">
                  <use xlink:href="#rim" fill="#404040">
                        <set attributeName="fill" to="#808080" begin="arrowRight.mouseover" end="arrowRight.mouseout"/>
                  </use>
                  <path fill="none" stroke="white" stroke-width="1.5" d="M0,-3.0v7 M-2.5,-0.5L0,-3.0L2.5,-0.5"/>
                </g>
                <g id="arrowDown" xlink:href="#dirArrow" transform="rotate(180) translate(-30 -48)" onmousedown="handlePan(0,1)">
                  <use xlink:href="#rim" fill="#404040">
                        <set attributeName="fill" to="#808080" begin="arrowDown.mouseover" end="arrowDown.mouseout"/>
                  </use>
                  <path fill="none" stroke="white" stroke-width="1.5" d="M0,-3.0v7 M-2.5,-0.5L0,-3.0L2.5,-0.5"/>
                </g>
                <g id="arrowLeft" xlink:href="#dirArrow" transform="rotate(270) translate(-36 17)" onmousedown="handlePan(-1,0)">
                  <use xlink:href="#rim" fill="#404040">
                        <set attributeName="fill" to="#808080" begin="arrowLeft.mouseover" end="arrowLeft.mouseout"/>
                  </use>
                  <path fill="none" stroke="white" stroke-width="1.5" d="M0,-3.0v7 M-2.5,-0.5L0,-3.0L2.5,-0.5"/>
                </g>
        </g>
        <svg viewBox="0 0 15 15" width="100%" height="30px" preserveAspectRatio="xMaxYMin meet">
         <g id="arrow_out" transform="scale(0.3 0.3)">
          <a xlink:href="altitude_8pde_ac1b2d2d2287b59b318d2e66e28da1d8c_icgraph_org.svg" target="_base">
           <rect id="button" ry="5" rx="5" y="6" x="6" height="38" width="38"
                fill="#f2f5e9" fill-opacity="0.5" stroke="#606060" stroke-width="1.0"/>
           <path id="arrow"
             d="M 11.500037,31.436501 C 11.940474,20.09759 22.043105,11.32322 32.158766,21.979434 L 37.068811,17.246167 C 37.068811,17.246167 37.088388,32 37.088388,32 L 22.160133,31.978069 C 22.160133,31.978069 26.997745,27.140456 26.997745,27.140456 C 18.528582,18.264221 13.291696,25.230495 11.500037,31.436501 z"
             style="fill:#404040;"/>
          </a>
         </g>
        </svg>
</svg>
