<?xml version="1.0" encoding="UTF-8" standalone="no"?>
<!DOCTYPE svg PUBLIC "-//W3C//DTD SVG 1.1//EN"
 "http://www.w3.org/Graphics/SVG/1.1/DTD/svg11.dtd">
<!-- Generated by graphviz version 2.36.0 (20140111.2315)
 -->
<!-- Title: rangefinder_height_update Pages: 1 -->
<svg width="276pt" height="154pt"
 viewBox="0.00 0.00 276.00 154.00" xmlns="http://www.w3.org/2000/svg" xmlns:xlink="http://www.w3.org/1999/xlink">
<g id="graph0" class="graph" transform="scale(1 1) rotate(0) translate(4 150)">
<title>rangefinder_height_update</title>
<polygon fill="white" stroke="none" points="-4,4 -4,-150 272,-150 272,4 -4,4"/>
<!-- Node1 -->
<g id="node1" class="node"><title>Node1</title>
<polygon fill="#bfbfbf" stroke="black" points="0,-61 0,-91 96,-91 96,-61 0,-61"/>
<text text-anchor="start" x="8" y="-79" font-family="Helvetica,sans-Serif" font-size="10.00">rangefinder_height</text>
<text text-anchor="middle" x="48" y="-68" font-family="Helvetica,sans-Serif" font-size="10.00">_update</text>
</g>
<!-- Node2 -->
<g id="node2" class="node"><title>Node2</title>
<g id="a_node2"><a doxygen="/home/ac1054/Documents/JSBSim/ardupilot/docs/tags/libraries:../libraries/" xlink:href="../libraries/classRangeFinder.html#a451a7507d534024c72faa2d1b734cb3c" target="_top" xlink:title="RangeFinder::distance_cm">
<polygon fill="white" stroke="black" points="133,-126.5 133,-145.5 267,-145.5 267,-126.5 133,-126.5"/>
<text text-anchor="middle" x="200" y="-133.5" font-family="Helvetica,sans-Serif" font-size="10.00">RangeFinder::distance_cm</text>
</a>
</g>
</g>
<!-- Node1&#45;&gt;Node2 -->
<g id="edge1" class="edge"><title>Node1&#45;&gt;Node2</title>
<path fill="none" stroke="midnightblue" d="M76.4763,-91.1528C92.3762,-99.5174 112.952,-109.665 132,-117 137.998,-119.31 144.393,-121.479 150.763,-123.467"/>
<polygon fill="midnightblue" stroke="midnightblue" points="150.107,-126.924 160.69,-126.436 152.113,-120.218 150.107,-126.924"/>
</g>
<!-- Node3 -->
<g id="node3" class="node"><title>Node3</title>
<g id="a_node3"><a doxygen="/home/ac1054/Documents/JSBSim/ardupilot/docs/tags/libraries:../libraries/" xlink:href="../libraries/classRangeFinder.html#a5452cf4387ba889dd206b12375d2e059" target="_top" xlink:title="RangeFinder::status">
<polygon fill="white" stroke="black" points="147.5,-88.5 147.5,-107.5 252.5,-107.5 252.5,-88.5 147.5,-88.5"/>
<text text-anchor="middle" x="200" y="-95.5" font-family="Helvetica,sans-Serif" font-size="10.00">RangeFinder::status</text>
</a>
</g>
</g>
<!-- Node1&#45;&gt;Node3 -->
<g id="edge2" class="edge"><title>Node1&#45;&gt;Node3</title>
<path fill="none" stroke="midnightblue" d="M96.0494,-82.9006C109.185,-84.8272 123.656,-86.9496 137.494,-88.9791"/>
<polygon fill="midnightblue" stroke="midnightblue" points="137.027,-92.448 147.429,-90.4363 138.043,-85.5221 137.027,-92.448"/>
</g>
<!-- Node4 -->
<g id="node4" class="node"><title>Node4</title>
<g id="a_node4"><a doxygen="/home/ac1054/Documents/JSBSim/ardupilot/docs/tags/libraries:../libraries/" xlink:href="../libraries/classAP__AHRS__DCM.html#ace965389535aa2f3599f21b9f825d2b7" target="_top" xlink:title="AP_AHRS_DCM::get_dcm\l_matrix">
<polygon fill="white" stroke="black" points="132,-39 132,-69 268,-69 268,-39 132,-39"/>
<text text-anchor="start" x="140" y="-57" font-family="Helvetica,sans-Serif" font-size="10.00">AP_AHRS_DCM::get_dcm</text>
<text text-anchor="middle" x="200" y="-46" font-family="Helvetica,sans-Serif" font-size="10.00">_matrix</text>
</a>
</g>
</g>
<!-- Node1&#45;&gt;Node4 -->
<g id="edge3" class="edge"><title>Node1&#45;&gt;Node4</title>
<path fill="none" stroke="midnightblue" d="M96.0494,-69.0994C104.289,-67.8909 113.055,-66.6053 121.86,-65.3139"/>
<polygon fill="midnightblue" stroke="midnightblue" points="122.405,-68.7715 131.791,-63.8573 121.389,-61.8456 122.405,-68.7715"/>
</g>
<!-- Node5 -->
<g id="node5" class="node"><title>Node5</title>
<g id="a_node5"><a xlink:href="altitude_8pde.html#aca1d34c92891d51ed07e6d136b5ea532" target="_top" xlink:title="relative_altitude">
<polygon fill="white" stroke="black" points="157.5,-0.5 157.5,-19.5 242.5,-19.5 242.5,-0.5 157.5,-0.5"/>
<text text-anchor="middle" x="200" y="-7.5" font-family="Helvetica,sans-Serif" font-size="10.00">relative_altitude</text>
</a>
</g>
</g>
<!-- Node1&#45;&gt;Node5 -->
<g id="edge4" class="edge"><title>Node1&#45;&gt;Node5</title>
<path fill="none" stroke="midnightblue" d="M72.9999,-60.8788C89.2123,-51.1251 111.346,-38.6856 132,-30 138.315,-27.3442 145.102,-24.8873 151.846,-22.6708"/>
<polygon fill="midnightblue" stroke="midnightblue" points="153.142,-25.9326 161.636,-19.6001 151.047,-19.2534 153.142,-25.9326"/>
</g>
</g>
</svg>
