<?xml version="1.0" encoding="UTF-8" standalone="no"?>
<!DOCTYPE svg PUBLIC "-//W3C//DTD SVG 1.1//EN"
 "http://www.w3.org/Graphics/SVG/1.1/DTD/svg11.dtd">
<!-- Generated by graphviz version 2.36.0 (20140111.2315)
 -->
<!-- Title: update_flight_stage Pages: 1 -->
<!--zoomable 604 -->
<svg id="main" version="1.1" xmlns="http://www.w3.org/2000/svg" xmlns:xlink="http://www.w3.org/1999/xlink" xml:space="preserve" onload="init(evt)">
<style type="text/css"><![CDATA[
.edge:hover path { stroke: red; }
.edge:hover polygon { stroke: red; fill: red; }
]]></style>
<script type="text/javascript"><![CDATA[
var edges = document.getElementsByTagName('g');
if (edges && edges.length) {
  for (var i=0;i<edges.length;i++) {
    if (edges[i].id.substr(0,4)=='edge') {
      edges[i].setAttribute('class','edge');
    }
  }
}
]]></script>
        <defs>
                <circle id="rim" cx="0" cy="0" r="7"/>
                <circle id="rim2" cx="0" cy="0" r="3.5"/>
                <g id="zoomPlus">
                        <use xlink:href="#rim" fill="#404040">
                                <set attributeName="fill" to="#808080" begin="zoomplus.mouseover" end="zoomplus.mouseout"/>
                        </use>
                        <path d="M-4,0h8M0,-4v8" fill="none" stroke="white" stroke-width="1.5" pointer-events="none"/>
                </g>
                <g id="zoomMin">
                        <use xlink:href="#rim" fill="#404040">
                                <set attributeName="fill" to="#808080" begin="zoomminus.mouseover" end="zoomminus.mouseout"/>
                        </use>
                        <path d="M-4,0h8" fill="none" stroke="white" stroke-width="1.5" pointer-events="none"/>
                </g>
                <g id="dirArrow">
                        <path fill="none" stroke="white" stroke-width="1.5" d="M0,-3.0v7 M-2.5,-0.5L0,-3.0L2.5,-0.5"/>
                </g>
               <g id="resetDef">
                       <use xlink:href="#rim2" fill="#404040">
                               <set attributeName="fill" to="#808080" begin="reset.mouseover" end="reset.mouseout"/>
                       </use>
               </g>
        </defs>

<script type="text/javascript">
var viewWidth = 1118;
var viewHeight = 604;
var sectionId = 'dynsection-30';
</script>
<script xlink:href="svgpan.js"/>
<svg id="graph" class="graph">
<g id="viewport">
<title>update_flight_stage</title>
<polygon fill="white" stroke="none" points="-4,4 -4,-600 1114,-600 1114,4 -4,4"/>
<!-- Node1 -->
<g id="node1" class="node"><title>Node1</title>
<polygon fill="#bfbfbf" stroke="black" points="0.5,-171.5 0.5,-190.5 101.5,-190.5 101.5,-171.5 0.5,-171.5"/>
<text text-anchor="middle" x="51" y="-178.5" font-family="Helvetica,sans-Serif" font-size="10.00">update_flight_stage</text>
</g>
<!-- Node2 -->
<g id="node2" class="node"><title>Node2</title>
<g id="a_node2"><a xlink:href="ArduPlane_8pde.html#ada22738485f281e943b57758acf306fd" target="_top" xlink:title="set_flight_stage">
<polygon fill="white" stroke="black" points="167,-393.5 167,-412.5 253,-412.5 253,-393.5 167,-393.5"/>
<text text-anchor="middle" x="210" y="-400.5" font-family="Helvetica,sans-Serif" font-size="10.00">set_flight_stage</text>
</a>
</g>
</g>
<!-- Node1&#45;&gt;Node2 -->
<g id="edge1" class="edge"><title>Node1&#45;&gt;Node2</title>
<path fill="none" stroke="midnightblue" d="M54.7845,-190.75C63.2565,-219.057 91.0491,-302.62 138,-356 149.693,-369.294 165.985,-380.436 180.013,-388.53"/>
<polygon fill="midnightblue" stroke="midnightblue" points="178.388,-391.631 188.834,-393.401 181.772,-385.503 178.388,-391.631"/>
</g>
<!-- Node16 -->
<g id="node16" class="node"><title>Node16</title>
<g id="a_node16"><a xlink:href="ArduPlane_8pde.html#a4ca9908869f03c8499bb30e8cae3ccc0" target="_top" xlink:title="mission">
<polygon fill="white" stroke="black" points="185,-327.5 185,-346.5 235,-346.5 235,-327.5 185,-327.5"/>
<text text-anchor="middle" x="210" y="-334.5" font-family="Helvetica,sans-Serif" font-size="10.00">mission</text>
</a>
</g>
</g>
<!-- Node1&#45;&gt;Node16 -->
<g id="edge18" class="edge"><title>Node1&#45;&gt;Node16</title>
<path fill="none" stroke="midnightblue" d="M55.2809,-190.6C64.2924,-215.499 91.8671,-282.598 138,-317 148.587,-324.895 162.166,-329.674 174.608,-332.568"/>
<polygon fill="midnightblue" stroke="midnightblue" points="174.21,-336.057 184.702,-334.581 175.58,-329.192 174.21,-336.057"/>
</g>
<!-- Node17 -->
<g id="node17" class="node"><title>Node17</title>
<g id="a_node17"><a doxygen="/home/ac1054/Documents/JSBSim/ardupilot/docs/tags/libraries:../libraries/" xlink:href="../libraries/classAP__Mission.html#ae6d739c048b1f5abb99bd4839243ac7a" target="_top" xlink:title="AP_Mission::get_current\l_nav_cmd">
<polygon fill="white" stroke="black" points="148,-278 148,-308 272,-308 272,-278 148,-278"/>
<text text-anchor="start" x="156" y="-296" font-family="Helvetica,sans-Serif" font-size="10.00">AP_Mission::get_current</text>
<text text-anchor="middle" x="210" y="-285" font-family="Helvetica,sans-Serif" font-size="10.00">_nav_cmd</text>
</a>
</g>
</g>
<!-- Node1&#45;&gt;Node17 -->
<g id="edge19" class="edge"><title>Node1&#45;&gt;Node17</title>
<path fill="none" stroke="midnightblue" d="M58.9795,-190.501C72.4036,-208.148 103.557,-246.172 138,-268 141.167,-270.007 144.515,-271.878 147.965,-273.618"/>
<polygon fill="midnightblue" stroke="midnightblue" points="146.733,-276.904 157.278,-277.924 149.67,-270.55 146.733,-276.904"/>
</g>
<!-- Node18 -->
<g id="node18" class="node"><title>Node18</title>
<g id="a_node18"><a doxygen="/home/ac1054/Documents/JSBSim/ardupilot/docs/tags/libraries:../libraries/" xlink:href="../libraries/classAP__SpdHgtControl.html#ac4c2434628f79df702554b8f6f2711f9" target="_top" xlink:title="AP_SpdHgtControl::update\l_pitch_throttle">
<polygon fill="white" stroke="black" points="142.5,-229 142.5,-259 277.5,-259 277.5,-229 142.5,-229"/>
<text text-anchor="start" x="150.5" y="-247" font-family="Helvetica,sans-Serif" font-size="10.00">AP_SpdHgtControl::update</text>
<text text-anchor="middle" x="210" y="-236" font-family="Helvetica,sans-Serif" font-size="10.00">_pitch_throttle</text>
</a>
</g>
</g>
<!-- Node1&#45;&gt;Node18 -->
<g id="edge20" class="edge"><title>Node1&#45;&gt;Node18</title>
<path fill="none" stroke="midnightblue" d="M72.3155,-190.51C89.6241,-198.483 115.238,-209.979 138,-219 143.448,-221.159 149.166,-223.329 154.892,-225.439"/>
<polygon fill="midnightblue" stroke="midnightblue" points="153.896,-228.801 164.491,-228.923 156.285,-222.221 153.896,-228.801"/>
</g>
<!-- Node19 -->
<g id="node19" class="node"><title>Node19</title>
<g id="a_node19"><a xlink:href="altitude_8pde.html#a596322acd1cd4b54ffd5bf689318cdbb" target="_top" xlink:title="relative_target_altitude_cm">
<polygon fill="white" stroke="black" points="143,-190.5 143,-209.5 277,-209.5 277,-190.5 143,-190.5"/>
<text text-anchor="middle" x="210" y="-197.5" font-family="Helvetica,sans-Serif" font-size="10.00">relative_target_altitude_cm</text>
</a>
</g>
</g>
<!-- Node1&#45;&gt;Node19 -->
<g id="edge21" class="edge"><title>Node1&#45;&gt;Node19</title>
<path fill="none" stroke="midnightblue" d="M101.676,-187.012C111.615,-188.215 122.271,-189.504 132.869,-190.787"/>
<polygon fill="midnightblue" stroke="midnightblue" points="132.639,-194.284 142.987,-192.011 133.48,-187.335 132.639,-194.284"/>
</g>
<!-- Node27 -->
<g id="node27" class="node"><title>Node27</title>
<g id="a_node27"><a xlink:href="landing_8pde.html#a35e1e6d17726c2d04e346bec271f9564" target="_top" xlink:title="tecs_hgt_afe">
<polygon fill="white" stroke="black" points="173.5,-152.5 173.5,-171.5 246.5,-171.5 246.5,-152.5 173.5,-152.5"/>
<text text-anchor="middle" x="210" y="-159.5" font-family="Helvetica,sans-Serif" font-size="10.00">tecs_hgt_afe</text>
</a>
</g>
</g>
<!-- Node1&#45;&gt;Node27 -->
<g id="edge29" class="edge"><title>Node1&#45;&gt;Node27</title>
<path fill="none" stroke="midnightblue" d="M101.676,-174.988C121.323,-172.611 143.767,-169.894 163.034,-167.563"/>
<polygon fill="midnightblue" stroke="midnightblue" points="163.572,-171.023 173.079,-166.347 162.731,-164.074 163.572,-171.023"/>
</g>
<!-- Node32 -->
<g id="node32" class="node"><title>Node32</title>
<g id="a_node32"><a xlink:href="system_8pde.html#aca07afa008c681903526cfdc27045584" target="_top" xlink:title="should_log">
<polygon fill="white" stroke="black" points="178.5,-114.5 178.5,-133.5 241.5,-133.5 241.5,-114.5 178.5,-114.5"/>
<text text-anchor="middle" x="210" y="-121.5" font-family="Helvetica,sans-Serif" font-size="10.00">should_log</text>
</a>
</g>
</g>
<!-- Node1&#45;&gt;Node32 -->
<g id="edge35" class="edge"><title>Node1&#45;&gt;Node32</title>
<path fill="none" stroke="midnightblue" d="M71.4617,-171.364C88.6683,-163.096 114.599,-151.245 138,-143 147.748,-139.565 158.436,-136.402 168.492,-133.682"/>
<polygon fill="midnightblue" stroke="midnightblue" points="169.494,-137.038 178.28,-131.116 167.719,-130.266 169.494,-137.038"/>
</g>
<!-- Node34 -->
<g id="node34" class="node"><title>Node34</title>
<g id="a_node34"><a xlink:href="Log_8pde.html#a4405146dbffe967c9fbef9aa82b531fb" target="_top" xlink:title="Log_Write_TECS_Tuning">
<polygon fill="white" stroke="black" points="146,-76.5 146,-95.5 274,-95.5 274,-76.5 146,-76.5"/>
<text text-anchor="middle" x="210" y="-83.5" font-family="Helvetica,sans-Serif" font-size="10.00">Log_Write_TECS_Tuning</text>
</a>
</g>
</g>
<!-- Node1&#45;&gt;Node34 -->
<g id="edge37" class="edge"><title>Node1&#45;&gt;Node34</title>
<path fill="none" stroke="midnightblue" d="M60.2201,-171.253C74.4143,-155.052 105.17,-122.621 138,-105 142.272,-102.707 146.841,-100.676 151.523,-98.8796"/>
<polygon fill="midnightblue" stroke="midnightblue" points="152.933,-102.095 161.236,-95.5138 150.641,-95.481 152.933,-102.095"/>
</g>
<!-- Node36 -->
<g id="node36" class="node"><title>Node36</title>
<g id="a_node36"><a doxygen="/home/ac1054/Documents/JSBSim/ardupilot/docs/tags/libraries:../libraries/" xlink:href="../libraries/classAP__Airspeed.html#a19e386630394a8634e061d82fc527382" target="_top" xlink:title="AP_Airspeed::set_EAS2TAS">
<polygon fill="white" stroke="black" points="138.5,-38.5 138.5,-57.5 281.5,-57.5 281.5,-38.5 138.5,-38.5"/>
<text text-anchor="middle" x="210" y="-45.5" font-family="Helvetica,sans-Serif" font-size="10.00">AP_Airspeed::set_EAS2TAS</text>
</a>
</g>
</g>
<!-- Node1&#45;&gt;Node36 -->
<g id="edge39" class="edge"><title>Node1&#45;&gt;Node36</title>
<path fill="none" stroke="midnightblue" d="M56.4808,-171.331C67.2271,-149.243 96.676,-94.8478 138,-67 140.946,-65.0145 144.092,-63.2361 147.358,-61.6433"/>
<polygon fill="midnightblue" stroke="midnightblue" points="148.98,-64.757 156.818,-57.628 146.245,-58.3135 148.98,-64.757"/>
</g>
<!-- Node37 -->
<g id="node37" class="node"><title>Node37</title>
<g id="a_node37"><a doxygen="/home/ac1054/Documents/JSBSim/ardupilot/docs/tags/libraries:../libraries/" xlink:href="../libraries/classAP__Baro.html#a0115c37618652051c1f6efd072fcc74b" target="_top" xlink:title="AP_Baro::get_EAS2TAS">
<polygon fill="white" stroke="black" points="147.5,-0.5 147.5,-19.5 272.5,-19.5 272.5,-0.5 147.5,-0.5"/>
<text text-anchor="middle" x="210" y="-7.5" font-family="Helvetica,sans-Serif" font-size="10.00">AP_Baro::get_EAS2TAS</text>
</a>
</g>
</g>
<!-- Node1&#45;&gt;Node37 -->
<g id="edge40" class="edge"><title>Node1&#45;&gt;Node37</title>
<path fill="none" stroke="midnightblue" d="M54.5647,-171.433C62.2791,-144.553 87.8887,-67.787 138,-29 140.444,-27.1084 143.061,-25.4047 145.796,-23.8703"/>
<polygon fill="midnightblue" stroke="midnightblue" points="147.363,-27.0007 154.868,-19.5227 144.338,-20.6881 147.363,-27.0007"/>
</g>
<!-- Node3 -->
<g id="node3" class="node"><title>Node3</title>
<g id="a_node3"><a xlink:href="geofence_8pde.html#a1b52d18e33a42f78d722b05c44863a52" target="_top" xlink:title="geofence_set_enabled">
<polygon fill="white" stroke="black" points="333,-450.5 333,-469.5 447,-469.5 447,-450.5 333,-450.5"/>
<text text-anchor="middle" x="390" y="-457.5" font-family="Helvetica,sans-Serif" font-size="10.00">geofence_set_enabled</text>
</a>
</g>
</g>
<!-- Node2&#45;&gt;Node3 -->
<g id="edge2" class="edge"><title>Node2&#45;&gt;Node3</title>
<path fill="none" stroke="midnightblue" d="M240.793,-412.541C270.571,-422.076 316.531,-436.794 349.371,-447.31"/>
<polygon fill="midnightblue" stroke="midnightblue" points="348.519,-450.712 359.11,-450.428 350.653,-444.045 348.519,-450.712"/>
</g>
<!-- Node11 -->
<g id="node11" class="node"><title>Node11</title>
<g id="a_node11"><a xlink:href="GCS__Mavlink_8pde.html#a6bb153355507cf625bc0de5dfa76c137" target="_top" xlink:title="gcs_send_text_P">
<polygon fill="white" stroke="black" points="669,-374.5 669,-393.5 761,-393.5 761,-374.5 669,-374.5"/>
<text text-anchor="middle" x="715" y="-381.5" font-family="Helvetica,sans-Serif" font-size="10.00">gcs_send_text_P</text>
</a>
</g>
</g>
<!-- Node2&#45;&gt;Node11 -->
<g id="edge16" class="edge"><title>Node2&#45;&gt;Node11</title>
<path fill="none" stroke="midnightblue" d="M253.02,-401.413C343.646,-397.99 557.453,-389.913 658.828,-386.084"/>
<polygon fill="midnightblue" stroke="midnightblue" points="659.005,-389.58 668.866,-385.705 658.741,-382.585 659.005,-389.58"/>
</g>
<!-- Node15 -->
<g id="node15" class="node"><title>Node15</title>
<g id="a_node15"><a xlink:href="geofence_8pde.html#ae06c98e94b21cb602b1e605df91c6205" target="_top" xlink:title="geofence_set_floor\l_enabled">
<polygon fill="white" stroke="black" points="511.5,-413 511.5,-443 610.5,-443 610.5,-413 511.5,-413"/>
<text text-anchor="start" x="519.5" y="-431" font-family="Helvetica,sans-Serif" font-size="10.00">geofence_set_floor</text>
<text text-anchor="middle" x="561" y="-420" font-family="Helvetica,sans-Serif" font-size="10.00">_enabled</text>
</a>
</g>
</g>
<!-- Node2&#45;&gt;Node15 -->
<g id="edge17" class="edge"><title>Node2&#45;&gt;Node15</title>
<path fill="none" stroke="midnightblue" d="M253.098,-406.016C315.045,-410.453 430.999,-418.759 501.284,-423.794"/>
<polygon fill="midnightblue" stroke="midnightblue" points="501.086,-427.289 511.31,-424.512 501.586,-420.307 501.086,-427.289"/>
</g>
<!-- Node4 -->
<g id="node4" class="node"><title>Node4</title>
<g id="a_node4"><a xlink:href="geofence_8pde.html#a4d7f03c5f25503d2aeb4ccfcc794e990" target="_top" xlink:title="geofence_load">
<polygon fill="white" stroke="black" points="521,-462.5 521,-481.5 601,-481.5 601,-462.5 521,-462.5"/>
<text text-anchor="middle" x="561" y="-469.5" font-family="Helvetica,sans-Serif" font-size="10.00">geofence_load</text>
</a>
</g>
</g>
<!-- Node3&#45;&gt;Node4 -->
<g id="edge3" class="edge"><title>Node3&#45;&gt;Node4</title>
<path fill="none" stroke="midnightblue" d="M447.275,-463.996C467.798,-465.453 490.831,-467.089 510.702,-468.5"/>
<polygon fill="midnightblue" stroke="midnightblue" points="510.552,-471.998 520.775,-469.215 511.048,-465.015 510.552,-471.998"/>
</g>
<!-- Node3&#45;&gt;Node15 -->
<g id="edge15" class="edge"><title>Node3&#45;&gt;Node15</title>
<path fill="none" stroke="midnightblue" d="M441.248,-450.486C460.139,-446.909 481.779,-442.811 501.367,-439.102"/>
<polygon fill="midnightblue" stroke="midnightblue" points="502.224,-442.502 511.398,-437.203 500.921,-435.624 502.224,-442.502"/>
</g>
<!-- Node5 -->
<g id="node5" class="node"><title>Node5</title>
<g id="a_node5"><a xlink:href="geofence_8pde.html#a353df7cd0eaf06539b323d6db073a81a" target="_top" xlink:title="max_fencepoints">
<polygon fill="white" stroke="black" points="840.5,-538.5 840.5,-557.5 931.5,-557.5 931.5,-538.5 840.5,-538.5"/>
<text text-anchor="middle" x="886" y="-545.5" font-family="Helvetica,sans-Serif" font-size="10.00">max_fencepoints</text>
</a>
</g>
</g>
<!-- Node4&#45;&gt;Node5 -->
<g id="edge4" class="edge"><title>Node4&#45;&gt;Node5</title>
<path fill="none" stroke="midnightblue" d="M574.48,-481.521C592.34,-494.566 626.718,-517.562 660,-528 716.183,-545.62 783.86,-549.451 830.222,-549.607"/>
<polygon fill="midnightblue" stroke="midnightblue" points="830.369,-553.107 840.361,-549.584 830.353,-546.107 830.369,-553.107"/>
</g>
<!-- Node7 -->
<g id="node7" class="node"><title>Node7</title>
<g id="a_node7"><a xlink:href="geofence_8pde.html#acac3851672433298cd94a37fa363bc75" target="_top" xlink:title="get_fence_point_with\l_index">
<polygon fill="white" stroke="black" points="660.5,-489 660.5,-519 769.5,-519 769.5,-489 660.5,-489"/>
<text text-anchor="start" x="668.5" y="-507" font-family="Helvetica,sans-Serif" font-size="10.00">get_fence_point_with</text>
<text text-anchor="middle" x="715" y="-496" font-family="Helvetica,sans-Serif" font-size="10.00">_index</text>
</a>
</g>
</g>
<!-- Node4&#45;&gt;Node7 -->
<g id="edge6" class="edge"><title>Node4&#45;&gt;Node7</title>
<path fill="none" stroke="midnightblue" d="M601.144,-480.241C616.077,-483.385 633.514,-487.056 650.154,-490.559"/>
<polygon fill="midnightblue" stroke="midnightblue" points="649.876,-494.077 660.382,-492.712 651.318,-487.227 649.876,-494.077"/>
</g>
<!-- Node9 -->
<g id="node9" class="node"><title>Node9</title>
<g id="a_node9"><a doxygen="/home/ac1054/Documents/JSBSim/ardupilot/docs/tags/libraries:../libraries/" xlink:href="../libraries/polygon_8cpp.html#a44581f526f8df1f0bc8e3eb4f530e960" target="_top" xlink:title="Polygon_complete">
<polygon fill="white" stroke="black" points="666.5,-450.5 666.5,-469.5 763.5,-469.5 763.5,-450.5 666.5,-450.5"/>
<text text-anchor="middle" x="715" y="-457.5" font-family="Helvetica,sans-Serif" font-size="10.00">Polygon_complete</text>
</a>
</g>
</g>
<!-- Node4&#45;&gt;Node9 -->
<g id="edge9" class="edge"><title>Node4&#45;&gt;Node9</title>
<path fill="none" stroke="midnightblue" d="M601.144,-468.91C617.917,-467.585 637.85,-466.012 656.264,-464.558"/>
<polygon fill="midnightblue" stroke="midnightblue" points="656.614,-468.041 666.307,-463.765 656.063,-461.063 656.614,-468.041"/>
</g>
<!-- Node10 -->
<g id="node10" class="node"><title>Node10</title>
<g id="a_node10"><a doxygen="/home/ac1054/Documents/JSBSim/ardupilot/docs/tags/libraries:../libraries/" xlink:href="../libraries/polygon_8cpp.html#a53235dca2c01737b9221be463ae1f3d3" target="_top" xlink:title="Polygon_outside">
<polygon fill="white" stroke="black" points="670.5,-412.5 670.5,-431.5 759.5,-431.5 759.5,-412.5 670.5,-412.5"/>
<text text-anchor="middle" x="715" y="-419.5" font-family="Helvetica,sans-Serif" font-size="10.00">Polygon_outside</text>
</a>
</g>
</g>
<!-- Node4&#45;&gt;Node10 -->
<g id="edge10" class="edge"><title>Node4&#45;&gt;Node10</title>
<path fill="none" stroke="midnightblue" d="M591.663,-462.496C601.914,-459.194 613.468,-455.454 624,-452 641.108,-446.39 660.015,-440.101 676.066,-434.735"/>
<polygon fill="midnightblue" stroke="midnightblue" points="677.277,-438.021 685.649,-431.529 675.055,-431.383 677.277,-438.021"/>
</g>
<!-- Node4&#45;&gt;Node11 -->
<g id="edge11" class="edge"><title>Node4&#45;&gt;Node11</title>
<path fill="none" stroke="midnightblue" d="M601.159,-463.468C609.166,-460.63 617.211,-456.894 624,-452 645.921,-436.197 638.288,-419.089 660,-403 662.514,-401.137 665.226,-399.445 668.05,-397.91"/>
<polygon fill="midnightblue" stroke="midnightblue" points="669.794,-400.957 677.343,-393.524 666.806,-394.627 669.794,-400.957"/>
</g>
<!-- Node13 -->
<g id="node13" class="node"><title>Node13</title>
<g id="a_node13"><a xlink:href="GCS__Mavlink_8pde.html#a52733528836bdd250b5ead3d6e8370b9" target="_top" xlink:title="gcs_send_message">
<polygon fill="white" stroke="black" points="663,-576.5 663,-595.5 767,-595.5 767,-576.5 663,-576.5"/>
<text text-anchor="middle" x="715" y="-583.5" font-family="Helvetica,sans-Serif" font-size="10.00">gcs_send_message</text>
</a>
</g>
</g>
<!-- Node4&#45;&gt;Node13 -->
<g id="edge13" class="edge"><title>Node4&#45;&gt;Node13</title>
<path fill="none" stroke="midnightblue" d="M570.359,-481.501C586.332,-499.212 622.914,-537.674 660,-562 665.764,-565.781 672.221,-569.23 678.612,-572.261"/>
<polygon fill="midnightblue" stroke="midnightblue" points="677.281,-575.5 687.838,-576.394 680.143,-569.112 677.281,-575.5"/>
</g>
<!-- Node6 -->
<g id="node6" class="node"><title>Node6</title>
<g id="a_node6"><a doxygen="/home/ac1054/Documents/JSBSim/ardupilot/docs/tags/libraries:../libraries/" xlink:href="../libraries/classStorageAccess.html#a82088aa568b13d18acc9e41a01fd1f19" target="_top" xlink:title="StorageAccess::size">
<polygon fill="white" stroke="black" points="1002.5,-538.5 1002.5,-557.5 1109.5,-557.5 1109.5,-538.5 1002.5,-538.5"/>
<text text-anchor="middle" x="1056" y="-545.5" font-family="Helvetica,sans-Serif" font-size="10.00">StorageAccess::size</text>
</a>
</g>
</g>
<!-- Node5&#45;&gt;Node6 -->
<g id="edge5" class="edge"><title>Node5&#45;&gt;Node6</title>
<path fill="none" stroke="midnightblue" d="M931.58,-548C950.207,-548 972.18,-548 992.384,-548"/>
<polygon fill="midnightblue" stroke="midnightblue" points="992.449,-551.5 1002.45,-548 992.449,-544.5 992.449,-551.5"/>
</g>
<!-- Node7&#45;&gt;Node5 -->
<g id="edge7" class="edge"><title>Node7&#45;&gt;Node5</title>
<path fill="none" stroke="midnightblue" d="M769.748,-518.452C781.677,-521.626 794.262,-524.949 806,-528 815.962,-530.589 826.641,-533.322 836.827,-535.907"/>
<polygon fill="midnightblue" stroke="midnightblue" points="836.249,-539.372 846.802,-538.433 837.967,-532.586 836.249,-539.372"/>
</g>
<!-- Node8 -->
<g id="node8" class="node"><title>Node8</title>
<g id="a_node8"><a doxygen="/home/ac1054/Documents/JSBSim/ardupilot/docs/tags/libraries:../libraries/" xlink:href="../libraries/classStorageAccess.html#af10e9fa6cda0cb973243e4852c9d16c6" target="_top" xlink:title="StorageAccess::read\l_uint32">
<polygon fill="white" stroke="black" points="832,-489 832,-519 940,-519 940,-489 832,-489"/>
<text text-anchor="start" x="840" y="-507" font-family="Helvetica,sans-Serif" font-size="10.00">StorageAccess::read</text>
<text text-anchor="middle" x="886" y="-496" font-family="Helvetica,sans-Serif" font-size="10.00">_uint32</text>
</a>
</g>
</g>
<!-- Node7&#45;&gt;Node8 -->
<g id="edge8" class="edge"><title>Node7&#45;&gt;Node8</title>
<path fill="none" stroke="midnightblue" d="M769.937,-504C786.337,-504 804.511,-504 821.48,-504"/>
<polygon fill="midnightblue" stroke="midnightblue" points="821.863,-507.5 831.863,-504 821.863,-500.5 821.863,-507.5"/>
</g>
<!-- Node12 -->
<g id="node12" class="node"><title>Node12</title>
<g id="a_node12"><a doxygen="/home/ac1054/Documents/JSBSim/ardupilot/docs/tags/libraries:../libraries/" xlink:href="../libraries/classGCS__MAVLINK.html#a06e50860e622dcb7f8c492a4a70a0daa" target="_top" xlink:title="GCS_MAVLINK::send_text_P">
<polygon fill="white" stroke="black" points="811.5,-374.5 811.5,-393.5 960.5,-393.5 960.5,-374.5 811.5,-374.5"/>
<text text-anchor="middle" x="886" y="-381.5" font-family="Helvetica,sans-Serif" font-size="10.00">GCS_MAVLINK::send_text_P</text>
</a>
</g>
</g>
<!-- Node11&#45;&gt;Node12 -->
<g id="edge12" class="edge"><title>Node11&#45;&gt;Node12</title>
<path fill="none" stroke="midnightblue" d="M761.289,-384C773.521,-384 787.162,-384 800.793,-384"/>
<polygon fill="midnightblue" stroke="midnightblue" points="801.191,-387.5 811.191,-384 801.191,-380.5 801.191,-387.5"/>
</g>
<!-- Node14 -->
<g id="node14" class="node"><title>Node14</title>
<g id="a_node14"><a doxygen="/home/ac1054/Documents/JSBSim/ardupilot/docs/tags/libraries:../libraries/" xlink:href="../libraries/classGCS__MAVLINK.html#a4902306dab46ff02b2296f99eb1f1c9c" target="_top" xlink:title="GCS_MAVLINK::send_message">
<polygon fill="white" stroke="black" points="806,-576.5 806,-595.5 966,-595.5 966,-576.5 806,-576.5"/>
<text text-anchor="middle" x="886" y="-583.5" font-family="Helvetica,sans-Serif" font-size="10.00">GCS_MAVLINK::send_message</text>
</a>
</g>
</g>
<!-- Node13&#45;&gt;Node14 -->
<g id="edge14" class="edge"><title>Node13&#45;&gt;Node14</title>
<path fill="none" stroke="midnightblue" d="M767.164,-586C776.249,-586 785.947,-586 795.73,-586"/>
<polygon fill="midnightblue" stroke="midnightblue" points="795.933,-589.5 805.933,-586 795.933,-582.5 795.933,-589.5"/>
</g>
<!-- Node20 -->
<g id="node20" class="node"><title>Node20</title>
<g id="a_node20"><a xlink:href="altitude_8pde.html#a520fe1941d80add19689bc004dcefc2c" target="_top" xlink:title="lookahead_adjustment">
<polygon fill="white" stroke="black" points="333,-234.5 333,-253.5 447,-253.5 447,-234.5 333,-234.5"/>
<text text-anchor="middle" x="390" y="-241.5" font-family="Helvetica,sans-Serif" font-size="10.00">lookahead_adjustment</text>
</a>
</g>
</g>
<!-- Node19&#45;&gt;Node20 -->
<g id="edge22" class="edge"><title>Node19&#45;&gt;Node20</title>
<path fill="none" stroke="midnightblue" d="M249.623,-209.547C276.331,-216.149 312.063,-224.982 340.661,-232.051"/>
<polygon fill="midnightblue" stroke="midnightblue" points="339.904,-235.469 350.452,-234.471 341.584,-228.674 339.904,-235.469"/>
</g>
<!-- Node26 -->
<g id="node26" class="node"><title>Node26</title>
<g id="a_node26"><a xlink:href="altitude_8pde.html#a7211323b4aa90b65767c2b0df3f2871e" target="_top" xlink:title="rangefinder_correction">
<polygon fill="white" stroke="black" points="333.5,-190.5 333.5,-209.5 446.5,-209.5 446.5,-190.5 333.5,-190.5"/>
<text text-anchor="middle" x="390" y="-197.5" font-family="Helvetica,sans-Serif" font-size="10.00">rangefinder_correction</text>
</a>
</g>
</g>
<!-- Node19&#45;&gt;Node26 -->
<g id="edge28" class="edge"><title>Node19&#45;&gt;Node26</title>
<path fill="none" stroke="midnightblue" d="M277.028,-200C292.06,-200 308.031,-200 323.06,-200"/>
<polygon fill="midnightblue" stroke="midnightblue" points="323.291,-203.5 333.291,-200 323.291,-196.5 323.291,-203.5"/>
</g>
<!-- Node21 -->
<g id="node21" class="node"><title>Node21</title>
<g id="a_node21"><a doxygen="/home/ac1054/Documents/JSBSim/ardupilot/docs/tags/libraries:../libraries/" xlink:href="../libraries/classAP__Navigation.html#a49641d53f16e6b2c4474f86faaa63c46" target="_top" xlink:title="AP_Navigation::reached\l_loiter_target">
<polygon fill="white" stroke="black" points="500,-325 500,-355 622,-355 622,-325 500,-325"/>
<text text-anchor="start" x="508" y="-343" font-family="Helvetica,sans-Serif" font-size="10.00">AP_Navigation::reached</text>
<text text-anchor="middle" x="561" y="-332" font-family="Helvetica,sans-Serif" font-size="10.00">_loiter_target</text>
</a>
</g>
</g>
<!-- Node20&#45;&gt;Node21 -->
<g id="edge23" class="edge"><title>Node20&#45;&gt;Node21</title>
<path fill="none" stroke="midnightblue" d="M403.653,-253.63C423.162,-268.187 462.096,-296.099 498,-315 501.755,-316.977 505.702,-318.899 509.71,-320.741"/>
<polygon fill="midnightblue" stroke="midnightblue" points="508.547,-324.054 519.109,-324.885 511.371,-317.649 508.547,-324.054"/>
</g>
<!-- Node22 -->
<g id="node22" class="node"><title>Node22</title>
<g id="a_node22"><a doxygen="/home/ac1054/Documents/JSBSim/ardupilot/docs/tags/libraries:../libraries/" xlink:href="../libraries/classAP__Navigation.html#acdb9c5a037fe8707d45ae91138de43eb" target="_top" xlink:title="AP_Navigation::target\l_bearing_cd">
<polygon fill="white" stroke="black" points="504.5,-276 504.5,-306 617.5,-306 617.5,-276 504.5,-276"/>
<text text-anchor="start" x="512.5" y="-294" font-family="Helvetica,sans-Serif" font-size="10.00">AP_Navigation::target</text>
<text text-anchor="middle" x="561" y="-283" font-family="Helvetica,sans-Serif" font-size="10.00">_bearing_cd</text>
</a>
</g>
</g>
<!-- Node20&#45;&gt;Node22 -->
<g id="edge24" class="edge"><title>Node20&#45;&gt;Node22</title>
<path fill="none" stroke="midnightblue" d="M425.2,-253.511C445.545,-259.169 472.006,-266.528 496.091,-273.226"/>
<polygon fill="midnightblue" stroke="midnightblue" points="495.316,-276.644 505.888,-275.951 497.192,-269.9 495.316,-276.644"/>
</g>
<!-- Node23 -->
<g id="node23" class="node"><title>Node23</title>
<g id="a_node23"><a doxygen="/home/ac1054/Documents/JSBSim/ardupilot/docs/tags/libraries:../libraries/" xlink:href="../libraries/AP__Math_8cpp.html#a08eedb329d8162ddbd344d4f6c8cde20" target="_top" xlink:title="constrain_float">
<polygon fill="white" stroke="black" points="521,-237.5 521,-256.5 601,-256.5 601,-237.5 521,-237.5"/>
<text text-anchor="middle" x="561" y="-244.5" font-family="Helvetica,sans-Serif" font-size="10.00">constrain_float</text>
</a>
</g>
</g>
<!-- Node20&#45;&gt;Node23 -->
<g id="edge25" class="edge"><title>Node20&#45;&gt;Node23</title>
<path fill="none" stroke="midnightblue" d="M447.275,-244.999C467.798,-245.363 490.831,-245.772 510.702,-246.125"/>
<polygon fill="midnightblue" stroke="midnightblue" points="510.714,-249.626 520.775,-246.304 510.839,-242.627 510.714,-249.626"/>
</g>
<!-- Node24 -->
<g id="node24" class="node"><title>Node24</title>
<g id="a_node24"><a doxygen="/home/ac1054/Documents/JSBSim/ardupilot/docs/tags/libraries:../libraries/" xlink:href="../libraries/classAP__AHRS.html#a4fe7afbe3deb970c4708f4821b029842" target="_top" xlink:title="AP_AHRS::groundspeed">
<polygon fill="white" stroke="black" points="498.5,-199.5 498.5,-218.5 623.5,-218.5 623.5,-199.5 498.5,-199.5"/>
<text text-anchor="middle" x="561" y="-206.5" font-family="Helvetica,sans-Serif" font-size="10.00">AP_AHRS::groundspeed</text>
</a>
</g>
</g>
<!-- Node20&#45;&gt;Node24 -->
<g id="edge26" class="edge"><title>Node20&#45;&gt;Node24</title>
<path fill="none" stroke="midnightblue" d="M437.18,-234.436C457.766,-230.173 482.201,-225.112 503.835,-220.632"/>
<polygon fill="midnightblue" stroke="midnightblue" points="504.793,-224.008 513.876,-218.552 503.374,-217.153 504.793,-224.008"/>
</g>
<!-- Node25 -->
<g id="node25" class="node"><title>Node25</title>
<g id="a_node25"><a doxygen="/home/ac1054/Documents/JSBSim/ardupilot/docs/tags/libraries:../libraries/" xlink:href="../libraries/classAP__SpdHgtControl.html#a49c7bfd4a089b707c32fd174190c349a" target="_top" xlink:title="AP_SpdHgtControl::get\l_max_climbrate">
<polygon fill="white" stroke="black" points="501.5,-150 501.5,-180 620.5,-180 620.5,-150 501.5,-150"/>
<text text-anchor="start" x="509.5" y="-168" font-family="Helvetica,sans-Serif" font-size="10.00">AP_SpdHgtControl::get</text>
<text text-anchor="middle" x="561" y="-157" font-family="Helvetica,sans-Serif" font-size="10.00">_max_climbrate</text>
</a>
</g>
</g>
<!-- Node20&#45;&gt;Node25 -->
<g id="edge27" class="edge"><title>Node20&#45;&gt;Node25</title>
<path fill="none" stroke="midnightblue" d="M425.606,-234.43C437.52,-230.462 450.698,-225.297 462,-219 479.948,-209 480.28,-200.399 498,-190 501.394,-188.008 504.976,-186.106 508.638,-184.303"/>
<polygon fill="midnightblue" stroke="midnightblue" points="510.24,-187.418 517.84,-180.037 507.296,-181.068 510.24,-187.418"/>
</g>
<!-- Node27&#45;&gt;Node26 -->
<g id="edge33" class="edge"><title>Node27&#45;&gt;Node26</title>
<path fill="none" stroke="midnightblue" d="M246.593,-169.599C271.732,-174.965 305.892,-182.258 334.454,-188.355"/>
<polygon fill="midnightblue" stroke="midnightblue" points="333.789,-191.792 344.299,-190.457 335.251,-184.946 333.789,-191.792"/>
</g>
<!-- Node28 -->
<g id="node28" class="node"><title>Node28</title>
<g id="a_node28"><a xlink:href="altitude_8pde.html#a617593e837e2b32ef1cfe5ffb7323742" target="_top" xlink:title="height_above_target">
<polygon fill="white" stroke="black" points="338,-114.5 338,-133.5 442,-133.5 442,-114.5 338,-114.5"/>
<text text-anchor="middle" x="390" y="-121.5" font-family="Helvetica,sans-Serif" font-size="10.00">height_above_target</text>
</a>
</g>
</g>
<!-- Node27&#45;&gt;Node28 -->
<g id="edge30" class="edge"><title>Node27&#45;&gt;Node28</title>
<path fill="none" stroke="midnightblue" d="M246.593,-154.401C271.732,-149.035 305.892,-141.742 334.454,-135.645"/>
<polygon fill="midnightblue" stroke="midnightblue" points="335.251,-139.054 344.299,-133.543 333.789,-132.208 335.251,-139.054"/>
</g>
<!-- Node31 -->
<g id="node31" class="node"><title>Node31</title>
<g id="a_node31"><a xlink:href="altitude_8pde.html#aca1d34c92891d51ed07e6d136b5ea532" target="_top" xlink:title="relative_altitude">
<polygon fill="white" stroke="black" points="347.5,-152.5 347.5,-171.5 432.5,-171.5 432.5,-152.5 347.5,-152.5"/>
<text text-anchor="middle" x="390" y="-159.5" font-family="Helvetica,sans-Serif" font-size="10.00">relative_altitude</text>
</a>
</g>
</g>
<!-- Node27&#45;&gt;Node31 -->
<g id="edge34" class="edge"><title>Node27&#45;&gt;Node31</title>
<path fill="none" stroke="midnightblue" d="M246.593,-162C272.436,-162 307.811,-162 336.838,-162"/>
<polygon fill="midnightblue" stroke="midnightblue" points="337.216,-165.5 347.216,-162 337.216,-158.5 337.216,-165.5"/>
</g>
<!-- Node29 -->
<g id="node29" class="node"><title>Node29</title>
<g id="a_node29"><a doxygen="/home/ac1054/Documents/JSBSim/ardupilot/docs/tags/libraries:../libraries/" xlink:href="../libraries/classAP__AHRS.html#aea45b16e6469a3b392b8bf52fb864732" target="_top" xlink:title="AP_AHRS::get_home">
<polygon fill="white" stroke="black" points="504.5,-111.5 504.5,-130.5 617.5,-130.5 617.5,-111.5 504.5,-111.5"/>
<text text-anchor="middle" x="561" y="-118.5" font-family="Helvetica,sans-Serif" font-size="10.00">AP_AHRS::get_home</text>
</a>
</g>
</g>
<!-- Node28&#45;&gt;Node29 -->
<g id="edge31" class="edge"><title>Node28&#45;&gt;Node29</title>
<path fill="none" stroke="midnightblue" d="M442.164,-123.092C458.569,-122.801 476.97,-122.474 494.266,-122.167"/>
<polygon fill="midnightblue" stroke="midnightblue" points="494.363,-125.666 504.299,-121.989 494.238,-118.667 494.363,-125.666"/>
</g>
<!-- Node30 -->
<g id="node30" class="node"><title>Node30</title>
<g id="a_node30"><a xlink:href="altitude_8pde.html#aad5da768a7e757989110fe2d704427b9" target="_top" xlink:title="adjusted_altitude_cm">
<polygon fill="white" stroke="black" points="506.5,-73.5 506.5,-92.5 615.5,-92.5 615.5,-73.5 506.5,-73.5"/>
<text text-anchor="middle" x="561" y="-80.5" font-family="Helvetica,sans-Serif" font-size="10.00">adjusted_altitude_cm</text>
</a>
</g>
</g>
<!-- Node28&#45;&gt;Node30 -->
<g id="edge32" class="edge"><title>Node28&#45;&gt;Node30</title>
<path fill="none" stroke="midnightblue" d="M430.197,-114.491C454.214,-108.664 485.163,-101.156 510.816,-94.9322"/>
<polygon fill="midnightblue" stroke="midnightblue" points="511.831,-98.2877 520.723,-92.5286 510.18,-91.485 511.831,-98.2877"/>
</g>
<!-- Node33 -->
<g id="node33" class="node"><title>Node33</title>
<g id="a_node33"><a xlink:href="Log_8pde.html#a05e0c1cc917db97ee71cc05c205c2095" target="_top" xlink:title="start_logging">
<polygon fill="white" stroke="black" points="354,-76.5 354,-95.5 426,-95.5 426,-76.5 354,-76.5"/>
<text text-anchor="middle" x="390" y="-83.5" font-family="Helvetica,sans-Serif" font-size="10.00">start_logging</text>
</a>
</g>
</g>
<!-- Node32&#45;&gt;Node33 -->
<g id="edge36" class="edge"><title>Node32&#45;&gt;Node33</title>
<path fill="none" stroke="midnightblue" d="M241.599,-117.468C269.763,-111.455 311.896,-102.46 343.912,-95.6255"/>
<polygon fill="midnightblue" stroke="midnightblue" points="344.872,-98.9995 353.921,-93.4888 343.411,-92.1538 344.872,-98.9995"/>
</g>
<!-- Node35 -->
<g id="node35" class="node"><title>Node35</title>
<g id="a_node35"><a doxygen="/home/ac1054/Documents/JSBSim/ardupilot/docs/tags/libraries:../libraries/" xlink:href="../libraries/classAP__SpdHgtControl.html#a358e10eeb8ee6ab4566ae2b8bf325c8e" target="_top" xlink:title="AP_SpdHgtControl::log_data">
<polygon fill="white" stroke="black" points="318.5,-38.5 318.5,-57.5 461.5,-57.5 461.5,-38.5 318.5,-38.5"/>
<text text-anchor="middle" x="390" y="-45.5" font-family="Helvetica,sans-Serif" font-size="10.00">AP_SpdHgtControl::log_data</text>
</a>
</g>
</g>
<!-- Node34&#45;&gt;Node35 -->
<g id="edge38" class="edge"><title>Node34&#45;&gt;Node35</title>
<path fill="none" stroke="midnightblue" d="M255.917,-76.411C279.829,-71.3061 309.421,-64.9887 334.625,-59.6082"/>
<polygon fill="midnightblue" stroke="midnightblue" points="335.357,-63.0308 344.406,-57.5201 333.896,-56.185 335.357,-63.0308"/>
</g>
</g>
</svg>
        <g id="navigator" transform="translate(0 0)" fill="#404254">
                <rect fill="#f2f5e9" fill-opacity="0.5" stroke="#606060" stroke-width=".5" x="0" y="0" width="60" height="60"/>
                <use id="zoomplus" xlink:href="#zoomPlus" x="17" y="9" onmousedown="handleZoom(evt,'in')"/>
                <use id="zoomminus" xlink:href="#zoomMin" x="42" y="9" onmousedown="handleZoom(evt,'out')"/>
                <use id="reset" xlink:href="#resetDef" x="30" y="36" onmousedown="handleReset()"/>
                <g id="arrowUp" xlink:href="#dirArrow" transform="translate(30 24)" onmousedown="handlePan(0,-1)">
                  <use xlink:href="#rim" fill="#404040">
                        <set attributeName="fill" to="#808080" begin="arrowUp.mouseover" end="arrowUp.mouseout"/>
                  </use>
                  <path fill="none" stroke="white" stroke-width="1.5" d="M0,-3.0v7 M-2.5,-0.5L0,-3.0L2.5,-0.5"/>
                </g>
                <g id="arrowRight" xlink:href="#dirArrow" transform="rotate(90) translate(36 -43)" onmousedown="handlePan(1,0)">
                  <use xlink:href="#rim" fill="#404040">
                        <set attributeName="fill" to="#808080" begin="arrowRight.mouseover" end="arrowRight.mouseout"/>
                  </use>
                  <path fill="none" stroke="white" stroke-width="1.5" d="M0,-3.0v7 M-2.5,-0.5L0,-3.0L2.5,-0.5"/>
                </g>
                <g id="arrowDown" xlink:href="#dirArrow" transform="rotate(180) translate(-30 -48)" onmousedown="handlePan(0,1)">
                  <use xlink:href="#rim" fill="#404040">
                        <set attributeName="fill" to="#808080" begin="arrowDown.mouseover" end="arrowDown.mouseout"/>
                  </use>
                  <path fill="none" stroke="white" stroke-width="1.5" d="M0,-3.0v7 M-2.5,-0.5L0,-3.0L2.5,-0.5"/>
                </g>
                <g id="arrowLeft" xlink:href="#dirArrow" transform="rotate(270) translate(-36 17)" onmousedown="handlePan(-1,0)">
                  <use xlink:href="#rim" fill="#404040">
                        <set attributeName="fill" to="#808080" begin="arrowLeft.mouseover" end="arrowLeft.mouseout"/>
                  </use>
                  <path fill="none" stroke="white" stroke-width="1.5" d="M0,-3.0v7 M-2.5,-0.5L0,-3.0L2.5,-0.5"/>
                </g>
        </g>
        <svg viewBox="0 0 15 15" width="100%" height="30px" preserveAspectRatio="xMaxYMin meet">
         <g id="arrow_out" transform="scale(0.3 0.3)">
          <a xlink:href="ArduPlane_8pde_aa93cec6a7662f3d2e08aaa245f0ea19c_cgraph_org.svg" target="_base">
           <rect id="button" ry="5" rx="5" y="6" x="6" height="38" width="38"
                fill="#f2f5e9" fill-opacity="0.5" stroke="#606060" stroke-width="1.0"/>
           <path id="arrow"
             d="M 11.500037,31.436501 C 11.940474,20.09759 22.043105,11.32322 32.158766,21.979434 L 37.068811,17.246167 C 37.068811,17.246167 37.088388,32 37.088388,32 L 22.160133,31.978069 C 22.160133,31.978069 26.997745,27.140456 26.997745,27.140456 C 18.528582,18.264221 13.291696,25.230495 11.500037,31.436501 z"
             style="fill:#404040;"/>
          </a>
         </g>
        </svg>
</svg>
