<?xml version="1.0" encoding="UTF-8" standalone="no"?>
<!DOCTYPE svg PUBLIC "-//W3C//DTD SVG 1.1//EN"
 "http://www.w3.org/Graphics/SVG/1.1/DTD/svg11.dtd">
<!-- Generated by graphviz version 2.36.0 (20140111.2315)
 -->
<!-- Title: log_perf_info Pages: 1 -->
<svg width="434pt" height="279pt"
 viewBox="0.00 0.00 434.00 279.00" xmlns="http://www.w3.org/2000/svg" xmlns:xlink="http://www.w3.org/1999/xlink">
<g id="graph0" class="graph" transform="scale(1 1) rotate(0) translate(4 275)">
<title>log_perf_info</title>
<polygon fill="white" stroke="none" points="-4,4 -4,-275 430,-275 430,4 -4,4"/>
<!-- Node1 -->
<g id="node1" class="node"><title>Node1</title>
<polygon fill="#bfbfbf" stroke="black" points="0,-175.5 0,-194.5 72,-194.5 72,-175.5 0,-175.5"/>
<text text-anchor="middle" x="36" y="-182.5" font-family="Helvetica,sans-Serif" font-size="10.00">log_perf_info</text>
</g>
<!-- Node2 -->
<g id="node2" class="node"><title>Node2</title>
<g id="a_node2"><a doxygen="/home/ac1054/Documents/JSBSim/ardupilot/docs/tags/libraries:../libraries/" xlink:href="../libraries/classAP__Scheduler.html#ac30c9fd71e00fc44e09b0b3932b6b975" target="_top" xlink:title="AP_Scheduler::debug">
<polygon fill="white" stroke="black" points="113.5,-251.5 113.5,-270.5 224.5,-270.5 224.5,-251.5 113.5,-251.5"/>
<text text-anchor="middle" x="169" y="-258.5" font-family="Helvetica,sans-Serif" font-size="10.00">AP_Scheduler::debug</text>
</a>
</g>
</g>
<!-- Node1&#45;&gt;Node2 -->
<g id="edge1" class="edge"><title>Node1&#45;&gt;Node2</title>
<path fill="none" stroke="midnightblue" d="M46.7236,-194.802C59.666,-207.351 83.7522,-229.018 108,-242 112.01,-244.147 116.302,-246.098 120.678,-247.86"/>
<polygon fill="midnightblue" stroke="midnightblue" points="119.724,-251.238 130.317,-251.418 122.148,-244.672 119.724,-251.238"/>
</g>
<!-- Node3 -->
<g id="node3" class="node"><title>Node3</title>
<g id="a_node3"><a xlink:href="ArduPlane_8pde.html#a7df79fd15233ca04f776c27b69d2e184" target="_top" xlink:title="gcs_send_text_fmt">
<polygon fill="white" stroke="black" points="119,-213.5 119,-232.5 219,-232.5 219,-213.5 119,-213.5"/>
<text text-anchor="middle" x="169" y="-220.5" font-family="Helvetica,sans-Serif" font-size="10.00">gcs_send_text_fmt</text>
</a>
</g>
</g>
<!-- Node1&#45;&gt;Node3 -->
<g id="edge2" class="edge"><title>Node1&#45;&gt;Node3</title>
<path fill="none" stroke="midnightblue" d="M70.0568,-194.589C86.8125,-199.449 107.358,-205.409 125.297,-210.613"/>
<polygon fill="midnightblue" stroke="midnightblue" points="124.375,-213.99 134.954,-213.414 126.325,-207.267 124.375,-213.99"/>
</g>
<!-- Node5 -->
<g id="node5" class="node"><title>Node5</title>
<g id="a_node5"><a xlink:href="system_8pde.html#aca07afa008c681903526cfdc27045584" target="_top" xlink:title="should_log">
<polygon fill="white" stroke="black" points="137.5,-175.5 137.5,-194.5 200.5,-194.5 200.5,-175.5 137.5,-175.5"/>
<text text-anchor="middle" x="169" y="-182.5" font-family="Helvetica,sans-Serif" font-size="10.00">should_log</text>
</a>
</g>
</g>
<!-- Node1&#45;&gt;Node5 -->
<g id="edge4" class="edge"><title>Node1&#45;&gt;Node5</title>
<path fill="none" stroke="midnightblue" d="M72.1056,-185C89.0846,-185 109.565,-185 127.231,-185"/>
<polygon fill="midnightblue" stroke="midnightblue" points="127.26,-188.5 137.26,-185 127.26,-181.5 127.26,-188.5"/>
</g>
<!-- Node7 -->
<g id="node7" class="node"><title>Node7</title>
<g id="a_node7"><a xlink:href="Log_8pde.html#a816cf7680f6a35521c87d7b0e6c77dc1" target="_top" xlink:title="Log_Write_Performance">
<polygon fill="white" stroke="black" points="108,-93.5 108,-112.5 230,-112.5 230,-93.5 108,-93.5"/>
<text text-anchor="middle" x="169" y="-100.5" font-family="Helvetica,sans-Serif" font-size="10.00">Log_Write_Performance</text>
</a>
</g>
</g>
<!-- Node1&#45;&gt;Node7 -->
<g id="edge6" class="edge"><title>Node1&#45;&gt;Node7</title>
<path fill="none" stroke="midnightblue" d="M47.3644,-175.099C60.6059,-162.837 84.6193,-141.876 108,-128 115.244,-123.701 123.365,-119.783 131.236,-116.39"/>
<polygon fill="midnightblue" stroke="midnightblue" points="132.721,-119.564 140.636,-112.521 130.057,-113.09 132.721,-119.564"/>
</g>
<!-- Node12 -->
<g id="node12" class="node"><title>Node12</title>
<g id="a_node12"><a xlink:href="system_8pde.html#a197e7d56c67eeb13b2cb7c534fdf6a28" target="_top" xlink:title="resetPerfData">
<polygon fill="white" stroke="black" points="130.5,-137.5 130.5,-156.5 207.5,-156.5 207.5,-137.5 130.5,-137.5"/>
<text text-anchor="middle" x="169" y="-144.5" font-family="Helvetica,sans-Serif" font-size="10.00">resetPerfData</text>
</a>
</g>
</g>
<!-- Node1&#45;&gt;Node12 -->
<g id="edge11" class="edge"><title>Node1&#45;&gt;Node12</title>
<path fill="none" stroke="midnightblue" d="M70.0568,-175.411C86.8125,-170.551 107.358,-164.591 125.297,-159.387"/>
<polygon fill="midnightblue" stroke="midnightblue" points="126.325,-162.733 134.954,-156.586 124.375,-156.01 126.325,-162.733"/>
</g>
<!-- Node4 -->
<g id="node4" class="node"><title>Node4</title>
<g id="a_node4"><a doxygen="/home/ac1054/Documents/JSBSim/ardupilot/docs/tags/libraries:../libraries/" xlink:href="../libraries/classGCS__MAVLINK.html#a4902306dab46ff02b2296f99eb1f1c9c" target="_top" xlink:title="GCS_MAVLINK::send_message">
<polygon fill="white" stroke="black" points="266,-213.5 266,-232.5 426,-232.5 426,-213.5 266,-213.5"/>
<text text-anchor="middle" x="346" y="-220.5" font-family="Helvetica,sans-Serif" font-size="10.00">GCS_MAVLINK::send_message</text>
</a>
</g>
</g>
<!-- Node3&#45;&gt;Node4 -->
<g id="edge3" class="edge"><title>Node3&#45;&gt;Node4</title>
<path fill="none" stroke="midnightblue" d="M219.213,-223C230.62,-223 243.109,-223 255.648,-223"/>
<polygon fill="midnightblue" stroke="midnightblue" points="255.695,-226.5 265.695,-223 255.695,-219.5 255.695,-226.5"/>
</g>
<!-- Node6 -->
<g id="node6" class="node"><title>Node6</title>
<g id="a_node6"><a xlink:href="Log_8pde.html#a05e0c1cc917db97ee71cc05c205c2095" target="_top" xlink:title="start_logging">
<polygon fill="white" stroke="black" points="310,-175.5 310,-194.5 382,-194.5 382,-175.5 310,-175.5"/>
<text text-anchor="middle" x="346" y="-182.5" font-family="Helvetica,sans-Serif" font-size="10.00">start_logging</text>
</a>
</g>
</g>
<!-- Node5&#45;&gt;Node6 -->
<g id="edge5" class="edge"><title>Node5&#45;&gt;Node6</title>
<path fill="none" stroke="midnightblue" d="M200.884,-185C228.301,-185 268.714,-185 299.773,-185"/>
<polygon fill="midnightblue" stroke="midnightblue" points="299.916,-188.5 309.916,-185 299.916,-181.5 299.916,-188.5"/>
</g>
<!-- Node8 -->
<g id="node8" class="node"><title>Node8</title>
<g id="a_node8"><a xlink:href="compat_8pde.html#a5229e8911d1f7eed10eb978ff088e551" target="_top" xlink:title="millis">
<polygon fill="white" stroke="black" points="326.5,-137.5 326.5,-156.5 365.5,-156.5 365.5,-137.5 326.5,-137.5"/>
<text text-anchor="middle" x="346" y="-144.5" font-family="Helvetica,sans-Serif" font-size="10.00">millis</text>
</a>
</g>
</g>
<!-- Node7&#45;&gt;Node8 -->
<g id="edge7" class="edge"><title>Node7&#45;&gt;Node8</title>
<path fill="none" stroke="midnightblue" d="M207.972,-112.547C240.561,-120.741 286.818,-132.371 316.368,-139.801"/>
<polygon fill="midnightblue" stroke="midnightblue" points="315.891,-143.29 326.443,-142.334 317.598,-136.501 315.891,-143.29"/>
</g>
<!-- Node9 -->
<g id="node9" class="node"><title>Node9</title>
<g id="a_node9"><a doxygen="/home/ac1054/Documents/JSBSim/ardupilot/docs/tags/libraries:../libraries/" xlink:href="../libraries/classAP__AHRS__DCM.html#aae50da7cce5916330892d39844532a05" target="_top" xlink:title="AP_AHRS_DCM::get_gyro\l_drift">
<polygon fill="white" stroke="black" points="278,-88 278,-118 414,-118 414,-88 278,-88"/>
<text text-anchor="start" x="286" y="-106" font-family="Helvetica,sans-Serif" font-size="10.00">AP_AHRS_DCM::get_gyro</text>
<text text-anchor="middle" x="346" y="-95" font-family="Helvetica,sans-Serif" font-size="10.00">_drift</text>
</a>
</g>
</g>
<!-- Node7&#45;&gt;Node9 -->
<g id="edge8" class="edge"><title>Node7&#45;&gt;Node9</title>
<path fill="none" stroke="midnightblue" d="M230.225,-103C242.317,-103 255.182,-103 267.759,-103"/>
<polygon fill="midnightblue" stroke="midnightblue" points="267.765,-106.5 277.765,-103 267.765,-99.5001 267.765,-106.5"/>
</g>
<!-- Node10 -->
<g id="node10" class="node"><title>Node10</title>
<g id="a_node10"><a doxygen="/home/ac1054/Documents/JSBSim/ardupilot/docs/tags/libraries:../libraries/" xlink:href="../libraries/classAP__InertialSensor.html#ab7872a9240b939fc7c02320aebcbeeaa" target="_top" xlink:title="AP_InertialSensor::\lerror_count">
<polygon fill="white" stroke="black" points="295.5,-39 295.5,-69 396.5,-69 396.5,-39 295.5,-39"/>
<text text-anchor="start" x="303.5" y="-57" font-family="Helvetica,sans-Serif" font-size="10.00">AP_InertialSensor::</text>
<text text-anchor="middle" x="346" y="-46" font-family="Helvetica,sans-Serif" font-size="10.00">error_count</text>
</a>
</g>
</g>
<!-- Node7&#45;&gt;Node10 -->
<g id="edge9" class="edge"><title>Node7&#45;&gt;Node10</title>
<path fill="none" stroke="midnightblue" d="M204.157,-93.436C227.279,-86.9619 258.437,-78.2376 285.568,-70.6409"/>
<polygon fill="midnightblue" stroke="midnightblue" points="286.673,-73.9661 295.359,-67.8994 284.786,-67.2254 286.673,-73.9661"/>
</g>
<!-- Node11 -->
<g id="node11" class="node"><title>Node11</title>
<g id="a_node11"><a doxygen="/home/ac1054/Documents/JSBSim/ardupilot/docs/tags/libraries:../libraries/" xlink:href="../libraries/classDataFlash__Class.html#af5e6aefb8f2136e9104be836dac88625" target="_top" xlink:title="DataFlash_Class::WriteBlock">
<polygon fill="white" stroke="black" points="273,-0.5 273,-19.5 419,-19.5 419,-0.5 273,-0.5"/>
<text text-anchor="middle" x="346" y="-7.5" font-family="Helvetica,sans-Serif" font-size="10.00">DataFlash_Class::WriteBlock</text>
</a>
</g>
</g>
<!-- Node7&#45;&gt;Node11 -->
<g id="edge10" class="edge"><title>Node7&#45;&gt;Node11</title>
<path fill="none" stroke="midnightblue" d="M179.427,-93.4726C195.641,-77.6426 230.504,-45.9875 266,-29 271.01,-26.6022 276.348,-24.4926 281.794,-22.6391"/>
<polygon fill="midnightblue" stroke="midnightblue" points="283.155,-25.8814 291.667,-19.5728 281.079,-19.1964 283.155,-25.8814"/>
</g>
<!-- Node12&#45;&gt;Node8 -->
<g id="edge12" class="edge"><title>Node12&#45;&gt;Node8</title>
<path fill="none" stroke="midnightblue" d="M207.542,-147C240.1,-147 286.537,-147 316.224,-147"/>
<polygon fill="midnightblue" stroke="midnightblue" points="316.347,-150.5 326.347,-147 316.347,-143.5 316.347,-150.5"/>
</g>
</g>
</svg>
