<?xml version="1.0" encoding="UTF-8" standalone="no"?>
<!DOCTYPE svg PUBLIC "-//W3C//DTD SVG 1.1//EN"
 "http://www.w3.org/Graphics/SVG/1.1/DTD/svg11.dtd">
<!-- Generated by graphviz version 2.36.0 (20140111.2315)
 -->
<!-- Title: stabilize_yaw Pages: 1 -->
<svg width="300pt" height="47pt"
 viewBox="0.00 0.00 300.00 47.00" xmlns="http://www.w3.org/2000/svg" xmlns:xlink="http://www.w3.org/1999/xlink">
<g id="graph0" class="graph" transform="scale(1 1) rotate(0) translate(4 43)">
<title>stabilize_yaw</title>
<polygon fill="white" stroke="none" points="-4,4 -4,-43 296,-43 296,4 -4,4"/>
<!-- Node1 -->
<g id="node1" class="node"><title>Node1</title>
<polygon fill="#bfbfbf" stroke="black" points="0,-19.5 0,-38.5 76,-38.5 76,-19.5 0,-19.5"/>
<text text-anchor="middle" x="38" y="-26.5" font-family="Helvetica,sans-Serif" font-size="10.00">stabilize_yaw</text>
</g>
<!-- Node2 -->
<g id="node2" class="node"><title>Node2</title>
<g id="a_node2"><a xlink:href="Attitude_8pde.html#a5915bf02c3bd19b57c717c8234369fdd" target="_top" xlink:title="stabilize">
<polygon fill="white" stroke="black" points="238.5,-19.5 238.5,-38.5 291.5,-38.5 291.5,-19.5 238.5,-19.5"/>
<text text-anchor="middle" x="265" y="-26.5" font-family="Helvetica,sans-Serif" font-size="10.00">stabilize</text>
</a>
</g>
</g>
<!-- Node1&#45;&gt;Node2 -->
<g id="edge1" class="edge"><title>Node1&#45;&gt;Node2</title>
<path fill="none" stroke="midnightblue" d="M86.2507,-29C132.559,-29 201.409,-29 238.357,-29"/>
<polygon fill="midnightblue" stroke="midnightblue" points="86.1542,-25.5001 76.1542,-29 86.1541,-32.5001 86.1542,-25.5001"/>
</g>
<!-- Node3 -->
<g id="node3" class="node"><title>Node3</title>
<g id="a_node3"><a xlink:href="Attitude_8pde.html#aede80974c348fcf7fd493d948cd080df" target="_top" xlink:title="stabilize_training">
<polygon fill="white" stroke="black" points="112.5,-0.5 112.5,-19.5 201.5,-19.5 201.5,-0.5 112.5,-0.5"/>
<text text-anchor="middle" x="157" y="-7.5" font-family="Helvetica,sans-Serif" font-size="10.00">stabilize_training</text>
</a>
</g>
</g>
<!-- Node1&#45;&gt;Node3 -->
<g id="edge2" class="edge"><title>Node1&#45;&gt;Node3</title>
<path fill="none" stroke="midnightblue" d="M85.9932,-21.3686C94.6678,-19.9599 103.694,-18.4942 112.267,-17.1019"/>
<polygon fill="midnightblue" stroke="midnightblue" points="85.3292,-17.9305 76.0195,-22.9883 86.4513,-24.84 85.3292,-17.9305"/>
</g>
<!-- Node3&#45;&gt;Node2 -->
<g id="edge3" class="edge"><title>Node3&#45;&gt;Node2</title>
<path fill="none" stroke="midnightblue" d="M211.729,-19.6306C220.985,-21.2897 230.212,-22.9436 238.279,-24.3896"/>
<polygon fill="midnightblue" stroke="midnightblue" points="212.187,-16.157 201.726,-17.8377 210.952,-23.0472 212.187,-16.157"/>
</g>
</g>
</svg>
