<?xml version="1.0" encoding="UTF-8" standalone="no"?>
<!DOCTYPE svg PUBLIC "-//W3C//DTD SVG 1.1//EN"
 "http://www.w3.org/Graphics/SVG/1.1/DTD/svg11.dtd">
<!-- Generated by graphviz version 2.36.0 (20140111.2315)
 -->
<!-- Title: calc_nav_yaw_coordinated Pages: 1 -->
<svg width="470pt" height="47pt"
 viewBox="0.00 0.00 470.00 47.00" xmlns="http://www.w3.org/2000/svg" xmlns:xlink="http://www.w3.org/1999/xlink">
<g id="graph0" class="graph" transform="scale(1 1) rotate(0) translate(4 43)">
<title>calc_nav_yaw_coordinated</title>
<polygon fill="white" stroke="none" points="-4,4 -4,-43 466,-43 466,4 -4,4"/>
<!-- Node1 -->
<g id="node1" class="node"><title>Node1</title>
<polygon fill="#bfbfbf" stroke="black" points="0,-0.5 0,-19.5 134,-19.5 134,-0.5 0,-0.5"/>
<text text-anchor="middle" x="67" y="-7.5" font-family="Helvetica,sans-Serif" font-size="10.00">calc_nav_yaw_coordinated</text>
</g>
<!-- Node2 -->
<g id="node2" class="node"><title>Node2</title>
<g id="a_node2"><a xlink:href="Attitude_8pde.html#a2ee107cf7f9cd5f573d492d760751ddb" target="_top" xlink:title="stabilize_yaw">
<polygon fill="white" stroke="black" points="170,-0.5 170,-19.5 246,-19.5 246,-0.5 170,-0.5"/>
<text text-anchor="middle" x="208" y="-7.5" font-family="Helvetica,sans-Serif" font-size="10.00">stabilize_yaw</text>
</a>
</g>
</g>
<!-- Node1&#45;&gt;Node2 -->
<g id="edge1" class="edge"><title>Node1&#45;&gt;Node2</title>
<path fill="none" stroke="midnightblue" d="M144.507,-10C153.221,-10 161.786,-10 169.648,-10"/>
<polygon fill="midnightblue" stroke="midnightblue" points="144.243,-6.5001 134.243,-10 144.243,-13.5001 144.243,-6.5001"/>
</g>
<!-- Node3 -->
<g id="node3" class="node"><title>Node3</title>
<g id="a_node3"><a xlink:href="Attitude_8pde.html#aede80974c348fcf7fd493d948cd080df" target="_top" xlink:title="stabilize_training">
<polygon fill="white" stroke="black" points="282.5,-19.5 282.5,-38.5 371.5,-38.5 371.5,-19.5 282.5,-19.5"/>
<text text-anchor="middle" x="327" y="-26.5" font-family="Helvetica,sans-Serif" font-size="10.00">stabilize_training</text>
</a>
</g>
</g>
<!-- Node2&#45;&gt;Node3 -->
<g id="edge2" class="edge"><title>Node2&#45;&gt;Node3</title>
<path fill="none" stroke="midnightblue" d="M255.993,-17.6314C264.668,-19.0401 273.694,-20.5058 282.267,-21.8981"/>
<polygon fill="midnightblue" stroke="midnightblue" points="256.451,-14.16 246.02,-16.0117 255.329,-21.0695 256.451,-14.16"/>
</g>
<!-- Node4 -->
<g id="node4" class="node"><title>Node4</title>
<g id="a_node4"><a xlink:href="Attitude_8pde.html#a5915bf02c3bd19b57c717c8234369fdd" target="_top" xlink:title="stabilize">
<polygon fill="white" stroke="black" points="408.5,-0.5 408.5,-19.5 461.5,-19.5 461.5,-0.5 408.5,-0.5"/>
<text text-anchor="middle" x="435" y="-7.5" font-family="Helvetica,sans-Serif" font-size="10.00">stabilize</text>
</a>
</g>
</g>
<!-- Node2&#45;&gt;Node4 -->
<g id="edge4" class="edge"><title>Node2&#45;&gt;Node4</title>
<path fill="none" stroke="midnightblue" d="M256.251,-10C302.559,-10 371.409,-10 408.357,-10"/>
<polygon fill="midnightblue" stroke="midnightblue" points="256.154,-6.5001 246.154,-10 256.154,-13.5001 256.154,-6.5001"/>
</g>
<!-- Node3&#45;&gt;Node4 -->
<g id="edge3" class="edge"><title>Node3&#45;&gt;Node4</title>
<path fill="none" stroke="midnightblue" d="M381.729,-19.3694C390.985,-17.7103 400.212,-16.0564 408.279,-14.6104"/>
<polygon fill="midnightblue" stroke="midnightblue" points="380.952,-15.9528 371.726,-21.1623 382.187,-22.843 380.952,-15.9528"/>
</g>
</g>
</svg>
