<?xml version="1.0" encoding="UTF-8" standalone="no"?>
<!DOCTYPE svg PUBLIC "-//W3C//DTD SVG 1.1//EN"
 "http://www.w3.org/Graphics/SVG/1.1/DTD/svg11.dtd">
<!-- Generated by graphviz version 2.36.0 (20140111.2315)
 -->
<!-- Title: calc_nav_yaw_ground Pages: 1 -->
<svg width="306pt" height="165pt"
 viewBox="0.00 0.00 306.00 165.00" xmlns="http://www.w3.org/2000/svg" xmlns:xlink="http://www.w3.org/1999/xlink">
<g id="graph0" class="graph" transform="scale(1 1) rotate(0) translate(4 161)">
<title>calc_nav_yaw_ground</title>
<polygon fill="white" stroke="none" points="-4,4 -4,-161 302,-161 302,4 -4,4"/>
<!-- Node1 -->
<g id="node1" class="node"><title>Node1</title>
<polygon fill="#bfbfbf" stroke="black" points="0.5,-68.5 0.5,-87.5 113.5,-87.5 113.5,-68.5 0.5,-68.5"/>
<text text-anchor="middle" x="57" y="-75.5" font-family="Helvetica,sans-Serif" font-size="10.00">calc_nav_yaw_ground</text>
</g>
<!-- Node2 -->
<g id="node2" class="node"><title>Node2</title>
<g id="a_node2"><a doxygen="/home/ac1054/Documents/JSBSim/ardupilot/docs/tags/libraries:../libraries/" xlink:href="../libraries/classAP__GPS.html#a426041563da447ec6e9cde1926a88fdb" target="_top" xlink:title="AP_GPS::ground_speed">
<polygon fill="white" stroke="black" points="162.5,-137.5 162.5,-156.5 285.5,-156.5 285.5,-137.5 162.5,-137.5"/>
<text text-anchor="middle" x="224" y="-144.5" font-family="Helvetica,sans-Serif" font-size="10.00">AP_GPS::ground_speed</text>
</a>
</g>
</g>
<!-- Node1&#45;&gt;Node2 -->
<g id="edge1" class="edge"><title>Node1&#45;&gt;Node2</title>
<path fill="none" stroke="midnightblue" d="M73.4444,-87.601C91.3227,-98.385 121.917,-115.835 150,-127 157.047,-129.802 164.627,-132.357 172.141,-134.634"/>
<polygon fill="midnightblue" stroke="midnightblue" points="171.352,-138.049 181.931,-137.464 173.296,-131.324 171.352,-138.049"/>
</g>
<!-- Node3 -->
<g id="node3" class="node"><title>Node3</title>
<g id="a_node3"><a doxygen="/home/ac1054/Documents/JSBSim/ardupilot/docs/tags/libraries:../libraries/" xlink:href="../libraries/classAP__SteerController.html#aaf42965b867c847976199bb550f7a529" target="_top" xlink:title="AP_SteerController\l::get_steering_out_rate">
<polygon fill="white" stroke="black" points="166,-88 166,-118 282,-118 282,-88 166,-88"/>
<text text-anchor="start" x="174" y="-106" font-family="Helvetica,sans-Serif" font-size="10.00">AP_SteerController</text>
<text text-anchor="middle" x="224" y="-95" font-family="Helvetica,sans-Serif" font-size="10.00">::get_steering_out_rate</text>
</a>
</g>
</g>
<!-- Node1&#45;&gt;Node3 -->
<g id="edge2" class="edge"><title>Node1&#45;&gt;Node3</title>
<path fill="none" stroke="midnightblue" d="M113.861,-86.4639C127.328,-88.5042 141.855,-90.7053 155.781,-92.8152"/>
<polygon fill="midnightblue" stroke="midnightblue" points="155.379,-96.2942 165.79,-94.3319 156.427,-89.3732 155.379,-96.2942"/>
</g>
<!-- Node4 -->
<g id="node4" class="node"><title>Node4</title>
<g id="a_node4"><a doxygen="/home/ac1054/Documents/JSBSim/ardupilot/docs/tags/libraries:../libraries/" xlink:href="../libraries/classAP__SteerController.html#a58fa2b841c4507318c4560ff237b4db9" target="_top" xlink:title="AP_SteerController\l::get_steering_out_angle_error">
<polygon fill="white" stroke="black" points="150,-39 150,-69 298,-69 298,-39 150,-39"/>
<text text-anchor="start" x="158" y="-57" font-family="Helvetica,sans-Serif" font-size="10.00">AP_SteerController</text>
<text text-anchor="middle" x="224" y="-46" font-family="Helvetica,sans-Serif" font-size="10.00">::get_steering_out_angle_error</text>
</a>
</g>
</g>
<!-- Node1&#45;&gt;Node4 -->
<g id="edge3" class="edge"><title>Node1&#45;&gt;Node4</title>
<path fill="none" stroke="midnightblue" d="M113.861,-69.8747C122.284,-68.6495 131.123,-67.364 139.969,-66.0773"/>
<polygon fill="midnightblue" stroke="midnightblue" points="140.546,-69.5302 149.938,-64.6272 139.538,-62.6031 140.546,-69.5302"/>
</g>
<!-- Node5 -->
<g id="node5" class="node"><title>Node5</title>
<g id="a_node5"><a doxygen="/home/ac1054/Documents/JSBSim/ardupilot/docs/tags/libraries:../libraries/" xlink:href="../libraries/AP__Math_8cpp.html#ac5d9502aca91c97f523fd9b35590215f" target="_top" xlink:title="constrain_int16">
<polygon fill="white" stroke="black" points="182.5,-0.5 182.5,-19.5 265.5,-19.5 265.5,-0.5 182.5,-0.5"/>
<text text-anchor="middle" x="224" y="-7.5" font-family="Helvetica,sans-Serif" font-size="10.00">constrain_int16</text>
</a>
</g>
</g>
<!-- Node1&#45;&gt;Node5 -->
<g id="edge4" class="edge"><title>Node1&#45;&gt;Node5</title>
<path fill="none" stroke="midnightblue" d="M73.7959,-68.4262C91.7439,-57.8677 122.163,-40.9299 150,-30 157.224,-27.1634 165.001,-24.5712 172.69,-22.2614"/>
<polygon fill="midnightblue" stroke="midnightblue" points="173.691,-25.6156 182.335,-19.4898 171.758,-18.8879 173.691,-25.6156"/>
</g>
</g>
</svg>
