<?xml version="1.0" encoding="UTF-8" standalone="no"?>
<!DOCTYPE svg PUBLIC "-//W3C//DTD SVG 1.1//EN"
 "http://www.w3.org/Graphics/SVG/1.1/DTD/svg11.dtd">
<!-- Generated by graphviz version 2.36.0 (20140111.2315)
 -->
<!-- Title: calc_nav_pitch Pages: 1 -->
<svg width="246pt" height="77pt"
 viewBox="0.00 0.00 246.00 77.00" xmlns="http://www.w3.org/2000/svg" xmlns:xlink="http://www.w3.org/1999/xlink">
<g id="graph0" class="graph" transform="scale(1 1) rotate(0) translate(4 73)">
<title>calc_nav_pitch</title>
<polygon fill="white" stroke="none" points="-4,4 -4,-73 242,-73 242,4 -4,4"/>
<!-- Node1 -->
<g id="node1" class="node"><title>Node1</title>
<polygon fill="#bfbfbf" stroke="black" points="0,-22.5 0,-41.5 82,-41.5 82,-22.5 0,-22.5"/>
<text text-anchor="middle" x="41" y="-29.5" font-family="Helvetica,sans-Serif" font-size="10.00">calc_nav_pitch</text>
</g>
<!-- Node2 -->
<g id="node2" class="node"><title>Node2</title>
<g id="a_node2"><a doxygen="/home/ac1054/Documents/JSBSim/ardupilot/docs/tags/libraries:../libraries/" xlink:href="../libraries/classAP__SpdHgtControl.html#a0ccc7a540e0a66e4294b0200c53099d3" target="_top" xlink:title="AP_SpdHgtControl::get\l_pitch_demand">
<polygon fill="white" stroke="black" points="118.5,-39 118.5,-69 237.5,-69 237.5,-39 118.5,-39"/>
<text text-anchor="start" x="126.5" y="-57" font-family="Helvetica,sans-Serif" font-size="10.00">AP_SpdHgtControl::get</text>
<text text-anchor="middle" x="178" y="-46" font-family="Helvetica,sans-Serif" font-size="10.00">_pitch_demand</text>
</a>
</g>
</g>
<!-- Node1&#45;&gt;Node2 -->
<g id="edge1" class="edge"><title>Node1&#45;&gt;Node2</title>
<path fill="none" stroke="midnightblue" d="M82.1389,-38.5412C90.3837,-39.8847 99.284,-41.3352 108.214,-42.7905"/>
<polygon fill="midnightblue" stroke="midnightblue" points="107.844,-46.2762 118.276,-44.4302 108.97,-39.3673 107.844,-46.2762"/>
</g>
<!-- Node3 -->
<g id="node3" class="node"><title>Node3</title>
<g id="a_node3"><a doxygen="/home/ac1054/Documents/JSBSim/ardupilot/docs/tags/libraries:../libraries/" xlink:href="../libraries/AP__Math_8cpp.html#af85c1f082ddabb5487c6f524d8b538ce" target="_top" xlink:title="constrain_int32">
<polygon fill="white" stroke="black" points="136.5,-0.5 136.5,-19.5 219.5,-19.5 219.5,-0.5 136.5,-0.5"/>
<text text-anchor="middle" x="178" y="-7.5" font-family="Helvetica,sans-Serif" font-size="10.00">constrain_int32</text>
</a>
</g>
</g>
<!-- Node1&#45;&gt;Node3 -->
<g id="edge2" class="edge"><title>Node1&#45;&gt;Node3</title>
<path fill="none" stroke="midnightblue" d="M82.1389,-25.4588C96.032,-23.1948 111.787,-20.6274 126.409,-18.2444"/>
<polygon fill="midnightblue" stroke="midnightblue" points="127.009,-21.693 136.315,-16.6301 125.883,-14.7842 127.009,-21.693"/>
</g>
</g>
</svg>
