<?xml version="1.0" encoding="UTF-8" standalone="no"?>
<!DOCTYPE svg PUBLIC "-//W3C//DTD SVG 1.1//EN"
 "http://www.w3.org/Graphics/SVG/1.1/DTD/svg11.dtd">
<!-- Generated by graphviz version 2.36.0 (20140111.2315)
 -->
<!-- Title: do_takeoff Pages: 1 -->
<svg width="352pt" height="66pt"
 viewBox="0.00 0.00 352.00 66.00" xmlns="http://www.w3.org/2000/svg" xmlns:xlink="http://www.w3.org/1999/xlink">
<g id="graph0" class="graph" transform="scale(1 1) rotate(0) translate(4 62)">
<title>do_takeoff</title>
<polygon fill="white" stroke="none" points="-4,4 -4,-62 348,-62 348,4 -4,4"/>
<!-- Node1 -->
<g id="node1" class="node"><title>Node1</title>
<polygon fill="#bfbfbf" stroke="black" points="0,-19.5 0,-38.5 62,-38.5 62,-19.5 0,-19.5"/>
<text text-anchor="middle" x="31" y="-26.5" font-family="Helvetica,sans-Serif" font-size="10.00">do_takeoff</text>
</g>
<!-- Node2 -->
<g id="node2" class="node"><title>Node2</title>
<g id="a_node2"><a xlink:href="commands__logic_8pde.html#a1a8c657acb9efa7a54b0b2a74025ec11" target="_top" xlink:title="start_command">
<polygon fill="white" stroke="black" points="98,-19.5 98,-38.5 182,-38.5 182,-19.5 98,-19.5"/>
<text text-anchor="middle" x="140" y="-26.5" font-family="Helvetica,sans-Serif" font-size="10.00">start_command</text>
</a>
</g>
</g>
<!-- Node1&#45;&gt;Node2 -->
<g id="edge1" class="edge"><title>Node1&#45;&gt;Node2</title>
<path fill="none" stroke="midnightblue" d="M72.0987,-29C80.5484,-29 89.4747,-29 97.9585,-29"/>
<polygon fill="midnightblue" stroke="midnightblue" points="72.0902,-25.5001 62.0902,-29 72.0902,-32.5001 72.0902,-25.5001"/>
</g>
<!-- Node3 -->
<g id="node3" class="node"><title>Node3</title>
<g id="a_node3"><a xlink:href="commands__logic_8pde.html#a0430a022cdb46cf93cef509c17cd6b1f" target="_top" xlink:title="start_command_callback">
<polygon fill="white" stroke="black" points="218.5,-38.5 218.5,-57.5 343.5,-57.5 343.5,-38.5 218.5,-38.5"/>
<text text-anchor="middle" x="281" y="-45.5" font-family="Helvetica,sans-Serif" font-size="10.00">start_command_callback</text>
</a>
</g>
</g>
<!-- Node2&#45;&gt;Node3 -->
<g id="edge2" class="edge"><title>Node2&#45;&gt;Node3</title>
<path fill="none" stroke="midnightblue" d="M192.376,-36.0226C200.798,-37.1738 209.602,-38.3773 218.244,-39.5586"/>
<polygon fill="midnightblue" stroke="midnightblue" points="192.71,-32.5358 182.328,-34.6492 191.762,-39.4713 192.71,-32.5358"/>
</g>
<!-- Node4 -->
<g id="node4" class="node"><title>Node4</title>
<g id="a_node4"><a xlink:href="commands__logic_8pde.html#a8cc2b5f231ed49f1dd33e7500f0351c0" target="_top" xlink:title="exit_mission_callback">
<polygon fill="white" stroke="black" points="224.5,-0.5 224.5,-19.5 337.5,-19.5 337.5,-0.5 224.5,-0.5"/>
<text text-anchor="middle" x="281" y="-7.5" font-family="Helvetica,sans-Serif" font-size="10.00">exit_mission_callback</text>
</a>
</g>
</g>
<!-- Node2&#45;&gt;Node4 -->
<g id="edge3" class="edge"><title>Node2&#45;&gt;Node4</title>
<path fill="none" stroke="midnightblue" d="M192.5,-21.9605C202.902,-20.5386 213.882,-19.0378 224.417,-17.5977"/>
<polygon fill="midnightblue" stroke="midnightblue" points="191.762,-18.5287 182.328,-23.3508 192.71,-25.4642 191.762,-18.5287"/>
</g>
</g>
</svg>
