<?xml version="1.0" encoding="UTF-8" standalone="no"?>
<!DOCTYPE svg PUBLIC "-//W3C//DTD SVG 1.1//EN"
 "http://www.w3.org/Graphics/SVG/1.1/DTD/svg11.dtd">
<!-- Generated by graphviz version 2.36.0 (20140111.2315)
 -->
<!-- Title: set_next_WP Pages: 1 -->
<svg width="566pt" height="454pt"
 viewBox="0.00 0.00 566.00 454.00" xmlns="http://www.w3.org/2000/svg" xmlns:xlink="http://www.w3.org/1999/xlink">
<g id="graph0" class="graph" transform="scale(1 1) rotate(0) translate(4 450)">
<title>set_next_WP</title>
<polygon fill="white" stroke="none" points="-4,4 -4,-450 562,-450 562,4 -4,4"/>
<!-- Node1 -->
<g id="node1" class="node"><title>Node1</title>
<polygon fill="#bfbfbf" stroke="black" points="0,-322.5 0,-341.5 76,-341.5 76,-322.5 0,-322.5"/>
<text text-anchor="middle" x="38" y="-329.5" font-family="Helvetica,sans-Serif" font-size="10.00">set_next_WP</text>
</g>
<!-- Node2 -->
<g id="node2" class="node"><title>Node2</title>
<g id="a_node2"><a doxygen="/home/ac1054/Documents/JSBSim/ardupilot/docs/tags/libraries:../libraries/" xlink:href="../libraries/AP__Math_8h.html#ab6cd880d070717b4c3cc7a7278768e72" target="_top" xlink:title="location_passed_point">
<polygon fill="white" stroke="black" points="112.5,-426.5 112.5,-445.5 225.5,-445.5 225.5,-426.5 112.5,-426.5"/>
<text text-anchor="middle" x="169" y="-433.5" font-family="Helvetica,sans-Serif" font-size="10.00">location_passed_point</text>
</a>
</g>
</g>
<!-- Node1&#45;&gt;Node2 -->
<g id="edge1" class="edge"><title>Node1&#45;&gt;Node2</title>
<path fill="none" stroke="midnightblue" d="M44.7745,-341.634C55.7304,-359.122 81.2135,-396.201 112,-417 114.895,-418.956 118.01,-420.727 121.235,-422.329"/>
<polygon fill="midnightblue" stroke="midnightblue" points="119.962,-425.593 130.526,-426.406 122.775,-419.183 119.962,-425.593"/>
</g>
<!-- Node3 -->
<g id="node3" class="node"><title>Node3</title>
<g id="a_node3"><a xlink:href="GCS__Mavlink_8pde.html#a6bb153355507cf625bc0de5dfa76c137" target="_top" xlink:title="gcs_send_text_P">
<polygon fill="white" stroke="black" points="123,-388.5 123,-407.5 215,-407.5 215,-388.5 123,-388.5"/>
<text text-anchor="middle" x="169" y="-395.5" font-family="Helvetica,sans-Serif" font-size="10.00">gcs_send_text_P</text>
</a>
</g>
</g>
<!-- Node1&#45;&gt;Node3 -->
<g id="edge2" class="edge"><title>Node1&#45;&gt;Node3</title>
<path fill="none" stroke="midnightblue" d="M52.2087,-341.573C66.451,-351.592 90.0418,-367.321 112,-378 117.048,-380.455 122.478,-382.77 127.9,-384.892"/>
<polygon fill="midnightblue" stroke="midnightblue" points="126.974,-388.282 137.567,-388.495 129.419,-381.723 126.974,-388.282"/>
</g>
<!-- Node5 -->
<g id="node5" class="node"><title>Node5</title>
<g id="a_node5"><a xlink:href="altitude_8pde.html#a6357f669f6ecbbb7cfde5ba94be1e19c" target="_top" xlink:title="set_target_altitude\l_location">
<polygon fill="white" stroke="black" points="120.5,-339 120.5,-369 217.5,-369 217.5,-339 120.5,-339"/>
<text text-anchor="start" x="128.5" y="-357" font-family="Helvetica,sans-Serif" font-size="10.00">set_target_altitude</text>
<text text-anchor="middle" x="169" y="-346" font-family="Helvetica,sans-Serif" font-size="10.00">_location</text>
</a>
</g>
</g>
<!-- Node1&#45;&gt;Node5 -->
<g id="edge4" class="edge"><title>Node1&#45;&gt;Node5</title>
<path fill="none" stroke="midnightblue" d="M76.3121,-338.363C86.9018,-340.169 98.6883,-342.179 110.188,-344.141"/>
<polygon fill="midnightblue" stroke="midnightblue" points="109.737,-347.614 120.183,-345.845 110.914,-340.714 109.737,-347.614"/>
</g>
<!-- Node6 -->
<g id="node6" class="node"><title>Node6</title>
<g id="a_node6"><a xlink:href="navigation_8pde.html#abb2020b166492828bc0fa1cbdb846588" target="_top" xlink:title="loiter_angle_reset">
<polygon fill="white" stroke="black" points="122.5,-300.5 122.5,-319.5 215.5,-319.5 215.5,-300.5 122.5,-300.5"/>
<text text-anchor="middle" x="169" y="-307.5" font-family="Helvetica,sans-Serif" font-size="10.00">loiter_angle_reset</text>
</a>
</g>
</g>
<!-- Node1&#45;&gt;Node6 -->
<g id="edge5" class="edge"><title>Node1&#45;&gt;Node6</title>
<path fill="none" stroke="midnightblue" d="M76.3121,-325.637C87.4738,-323.733 99.9651,-321.603 112.049,-319.542"/>
<polygon fill="midnightblue" stroke="midnightblue" points="112.796,-322.965 122.065,-317.834 111.619,-316.065 112.796,-322.965"/>
</g>
<!-- Node7 -->
<g id="node7" class="node"><title>Node7</title>
<g id="a_node7"><a xlink:href="altitude_8pde.html#ad9fa3dc23a80c3bbb3d9ddd221ad4386" target="_top" xlink:title="setup_glide_slope">
<polygon fill="white" stroke="black" points="121.5,-262.5 121.5,-281.5 216.5,-281.5 216.5,-262.5 121.5,-262.5"/>
<text text-anchor="middle" x="169" y="-269.5" font-family="Helvetica,sans-Serif" font-size="10.00">setup_glide_slope</text>
</a>
</g>
</g>
<!-- Node1&#45;&gt;Node7 -->
<g id="edge6" class="edge"><title>Node1&#45;&gt;Node7</title>
<path fill="none" stroke="midnightblue" d="M54.234,-322.346C68.7124,-313.439 91.2897,-300.234 112,-291 116.743,-288.885 121.797,-286.865 126.855,-284.983"/>
<polygon fill="midnightblue" stroke="midnightblue" points="128.258,-288.199 136.505,-281.549 125.911,-281.605 128.258,-288.199"/>
</g>
<!-- Node15 -->
<g id="node15" class="node"><title>Node15</title>
<g id="a_node15"><a xlink:href="navigation_8pde.html#a6409561aa9dd027ac95e7110aa5a3e15" target="_top" xlink:title="setup_turn_angle">
<polygon fill="white" stroke="black" points="123.5,-82.5 123.5,-101.5 214.5,-101.5 214.5,-82.5 123.5,-82.5"/>
<text text-anchor="middle" x="169" y="-89.5" font-family="Helvetica,sans-Serif" font-size="10.00">setup_turn_angle</text>
</a>
</g>
</g>
<!-- Node1&#45;&gt;Node15 -->
<g id="edge14" class="edge"><title>Node1&#45;&gt;Node15</title>
<path fill="none" stroke="midnightblue" d="M44.2167,-322.294C63.6675,-286.107 132.17,-158.66 158.023,-110.561"/>
<polygon fill="midnightblue" stroke="midnightblue" points="161.208,-112.029 162.86,-101.563 155.042,-108.715 161.208,-112.029"/>
</g>
<!-- Node4 -->
<g id="node4" class="node"><title>Node4</title>
<g id="a_node4"><a doxygen="/home/ac1054/Documents/JSBSim/ardupilot/docs/tags/libraries:../libraries/" xlink:href="../libraries/classGCS__MAVLINK.html#a06e50860e622dcb7f8c492a4a70a0daa" target="_top" xlink:title="GCS_MAVLINK::send_text_P">
<polygon fill="white" stroke="black" points="262.5,-404.5 262.5,-423.5 411.5,-423.5 411.5,-404.5 262.5,-404.5"/>
<text text-anchor="middle" x="337" y="-411.5" font-family="Helvetica,sans-Serif" font-size="10.00">GCS_MAVLINK::send_text_P</text>
</a>
</g>
</g>
<!-- Node3&#45;&gt;Node4 -->
<g id="edge3" class="edge"><title>Node3&#45;&gt;Node4</title>
<path fill="none" stroke="midnightblue" d="M215.36,-402.372C226.798,-403.474 239.445,-404.694 252.12,-405.915"/>
<polygon fill="midnightblue" stroke="midnightblue" points="251.979,-409.418 262.269,-406.893 252.651,-402.45 251.979,-409.418"/>
</g>
<!-- Node8 -->
<g id="node8" class="node"><title>Node8</title>
<g id="a_node8"><a doxygen="/home/ac1054/Documents/JSBSim/ardupilot/docs/tags/libraries:../libraries/" xlink:href="../libraries/AP__Math_8h.html#aa825a788804b8dd4cf1e3cfb42960a8b" target="_top" xlink:title="get_distance">
<polygon fill="white" stroke="black" points="301,-366.5 301,-385.5 373,-385.5 373,-366.5 301,-366.5"/>
<text text-anchor="middle" x="337" y="-373.5" font-family="Helvetica,sans-Serif" font-size="10.00">get_distance</text>
</a>
</g>
</g>
<!-- Node7&#45;&gt;Node8 -->
<g id="edge7" class="edge"><title>Node7&#45;&gt;Node8</title>
<path fill="none" stroke="midnightblue" d="M210.212,-281.511C215.891,-283.99 221.364,-287.101 226,-291 251.571,-312.507 235.632,-336.477 262,-357 270.408,-363.544 280.825,-367.852 291.163,-370.683"/>
<polygon fill="midnightblue" stroke="midnightblue" points="290.449,-374.11 300.982,-372.969 292.037,-367.293 290.449,-374.11"/>
</g>
<!-- Node9 -->
<g id="node9" class="node"><title>Node9</title>
<g id="a_node9"><a doxygen="/home/ac1054/Documents/JSBSim/ardupilot/docs/tags/libraries:../libraries/" xlink:href="../libraries/AP__Math_8h.html#ab0ccbafe7e2809759eea8d45d23e4ba0" target="_top" xlink:title="location_path_proportion">
<polygon fill="white" stroke="black" points="276,-328.5 276,-347.5 398,-347.5 398,-328.5 276,-328.5"/>
<text text-anchor="middle" x="337" y="-335.5" font-family="Helvetica,sans-Serif" font-size="10.00">location_path_proportion</text>
</a>
</g>
</g>
<!-- Node7&#45;&gt;Node9 -->
<g id="edge8" class="edge"><title>Node7&#45;&gt;Node9</title>
<path fill="none" stroke="midnightblue" d="M204.23,-281.587C211.607,-284.206 219.221,-287.349 226,-291 243.846,-300.612 243.803,-310.071 262,-319 266.837,-321.374 272.003,-323.473 277.271,-325.324"/>
<polygon fill="midnightblue" stroke="midnightblue" points="276.223,-328.664 286.815,-328.395 278.368,-322 276.223,-328.664"/>
</g>
<!-- Node10 -->
<g id="node10" class="node"><title>Node10</title>
<g id="a_node10"><a xlink:href="altitude_8pde.html#adad3de9d7894f9df95075219fef29534" target="_top" xlink:title="above_location_current">
<polygon fill="white" stroke="black" points="278.5,-290.5 278.5,-309.5 395.5,-309.5 395.5,-290.5 278.5,-290.5"/>
<text text-anchor="middle" x="337" y="-297.5" font-family="Helvetica,sans-Serif" font-size="10.00">above_location_current</text>
</a>
</g>
</g>
<!-- Node7&#45;&gt;Node10 -->
<g id="edge9" class="edge"><title>Node7&#45;&gt;Node10</title>
<path fill="none" stroke="midnightblue" d="M216.682,-279.874C233.035,-282.632 251.732,-285.786 269.396,-288.766"/>
<polygon fill="midnightblue" stroke="midnightblue" points="269.209,-292.283 279.652,-290.495 270.373,-285.381 269.209,-292.283"/>
</g>
<!-- Node11 -->
<g id="node11" class="node"><title>Node11</title>
<g id="a_node11"><a xlink:href="altitude_8pde.html#a9a2ab83d5bfa356d6e99cc7f6c7869cd" target="_top" xlink:title="set_offset_altitude\l_location">
<polygon fill="white" stroke="black" points="288.5,-241 288.5,-271 385.5,-271 385.5,-241 288.5,-241"/>
<text text-anchor="start" x="296.5" y="-259" font-family="Helvetica,sans-Serif" font-size="10.00">set_offset_altitude</text>
<text text-anchor="middle" x="337" y="-248" font-family="Helvetica,sans-Serif" font-size="10.00">_location</text>
</a>
</g>
</g>
<!-- Node7&#45;&gt;Node11 -->
<g id="edge10" class="edge"><title>Node7&#45;&gt;Node11</title>
<path fill="none" stroke="midnightblue" d="M216.682,-267.501C235.796,-265.658 258.112,-263.507 278.239,-261.567"/>
<polygon fill="midnightblue" stroke="midnightblue" points="278.609,-265.048 288.227,-260.605 277.937,-258.08 278.609,-265.048"/>
</g>
<!-- Node12 -->
<g id="node12" class="node"><title>Node12</title>
<g id="a_node12"><a xlink:href="altitude_8pde.html#a95be1c235684766d83ed35917071dcad" target="_top" xlink:title="reset_offset_altitude">
<polygon fill="white" stroke="black" points="284.5,-202.5 284.5,-221.5 389.5,-221.5 389.5,-202.5 284.5,-202.5"/>
<text text-anchor="middle" x="337" y="-209.5" font-family="Helvetica,sans-Serif" font-size="10.00">reset_offset_altitude</text>
</a>
</g>
</g>
<!-- Node7&#45;&gt;Node12 -->
<g id="edge11" class="edge"><title>Node7&#45;&gt;Node12</title>
<path fill="none" stroke="midnightblue" d="M189.764,-262.403C208.171,-253.708 236.523,-240.927 262,-232 269.944,-229.216 278.48,-226.587 286.83,-224.206"/>
<polygon fill="midnightblue" stroke="midnightblue" points="287.796,-227.571 296.5,-221.531 285.929,-220.824 287.796,-227.571"/>
</g>
<!-- Node13 -->
<g id="node13" class="node"><title>Node13</title>
<g id="a_node13"><a xlink:href="altitude_8pde.html#a9b319158d61a114fe14a8a17bd8203d4" target="_top" xlink:title="adjusted_relative_altitude_cm">
<polygon fill="white" stroke="black" points="264,-164.5 264,-183.5 410,-183.5 410,-164.5 264,-164.5"/>
<text text-anchor="middle" x="337" y="-171.5" font-family="Helvetica,sans-Serif" font-size="10.00">adjusted_relative_altitude_cm</text>
</a>
</g>
</g>
<!-- Node7&#45;&gt;Node13 -->
<g id="edge12" class="edge"><title>Node7&#45;&gt;Node13</title>
<path fill="none" stroke="midnightblue" d="M178.356,-262.378C193.385,-245.685 226.714,-211.389 262,-193 266.516,-190.647 271.341,-188.572 276.282,-186.745"/>
<polygon fill="midnightblue" stroke="midnightblue" points="277.506,-190.026 285.875,-183.529 275.281,-183.389 277.506,-190.026"/>
</g>
<!-- Node14 -->
<g id="node14" class="node"><title>Node14</title>
<g id="a_node14"><a xlink:href="altitude_8pde.html#aad5da768a7e757989110fe2d704427b9" target="_top" xlink:title="adjusted_altitude_cm">
<polygon fill="white" stroke="black" points="448.5,-164.5 448.5,-183.5 557.5,-183.5 557.5,-164.5 448.5,-164.5"/>
<text text-anchor="middle" x="503" y="-171.5" font-family="Helvetica,sans-Serif" font-size="10.00">adjusted_altitude_cm</text>
</a>
</g>
</g>
<!-- Node13&#45;&gt;Node14 -->
<g id="edge13" class="edge"><title>Node13&#45;&gt;Node14</title>
<path fill="none" stroke="midnightblue" d="M410.41,-174C419.637,-174 429.028,-174 438.108,-174"/>
<polygon fill="midnightblue" stroke="midnightblue" points="438.201,-177.5 448.201,-174 438.201,-170.5 438.201,-177.5"/>
</g>
<!-- Node16 -->
<g id="node16" class="node"><title>Node16</title>
<g id="a_node16"><a xlink:href="ArduPlane_8pde.html#a4ca9908869f03c8499bb30e8cae3ccc0" target="_top" xlink:title="mission">
<polygon fill="white" stroke="black" points="312,-126.5 312,-145.5 362,-145.5 362,-126.5 312,-126.5"/>
<text text-anchor="middle" x="337" y="-133.5" font-family="Helvetica,sans-Serif" font-size="10.00">mission</text>
</a>
</g>
</g>
<!-- Node15&#45;&gt;Node16 -->
<g id="edge15" class="edge"><title>Node15&#45;&gt;Node16</title>
<path fill="none" stroke="midnightblue" d="M206.02,-101.547C234.555,-109.111 274.136,-119.602 302.104,-127.015"/>
<polygon fill="midnightblue" stroke="midnightblue" points="301.277,-130.417 311.84,-129.596 303.071,-123.651 301.277,-130.417"/>
</g>
<!-- Node17 -->
<g id="node17" class="node"><title>Node17</title>
<g id="a_node17"><a doxygen="/home/ac1054/Documents/JSBSim/ardupilot/docs/tags/libraries:../libraries/" xlink:href="../libraries/classAP__Mission.html#a338b12fad6aa74b9c8a34d65850f6b40" target="_top" xlink:title="AP_Mission::get_next\l_ground_course_cd">
<polygon fill="white" stroke="black" points="280.5,-77 280.5,-107 393.5,-107 393.5,-77 280.5,-77"/>
<text text-anchor="start" x="288.5" y="-95" font-family="Helvetica,sans-Serif" font-size="10.00">AP_Mission::get_next</text>
<text text-anchor="middle" x="337" y="-84" font-family="Helvetica,sans-Serif" font-size="10.00">_ground_course_cd</text>
</a>
</g>
</g>
<!-- Node15&#45;&gt;Node17 -->
<g id="edge16" class="edge"><title>Node15&#45;&gt;Node17</title>
<path fill="none" stroke="midnightblue" d="M214.922,-92C231.935,-92 251.674,-92 270.214,-92"/>
<polygon fill="midnightblue" stroke="midnightblue" points="270.366,-95.5001 280.366,-92 270.365,-88.5001 270.366,-95.5001"/>
</g>
<!-- Node18 -->
<g id="node18" class="node"><title>Node18</title>
<g id="a_node18"><a doxygen="/home/ac1054/Documents/JSBSim/ardupilot/docs/tags/libraries:../libraries/" xlink:href="../libraries/AP__Math_8h.html#a224e7b94333df3a15a18499026474ac9" target="_top" xlink:title="get_bearing_cd">
<polygon fill="white" stroke="black" points="295.5,-38.5 295.5,-57.5 378.5,-57.5 378.5,-38.5 295.5,-38.5"/>
<text text-anchor="middle" x="337" y="-45.5" font-family="Helvetica,sans-Serif" font-size="10.00">get_bearing_cd</text>
</a>
</g>
</g>
<!-- Node15&#45;&gt;Node18 -->
<g id="edge17" class="edge"><title>Node15&#45;&gt;Node18</title>
<path fill="none" stroke="midnightblue" d="M204.918,-82.3877C222.096,-77.6908 243.117,-71.9894 262,-67 270.572,-64.735 279.713,-62.3575 288.541,-60.0806"/>
<polygon fill="midnightblue" stroke="midnightblue" points="289.514,-63.4441 298.328,-57.564 287.771,-56.6646 289.514,-63.4441"/>
</g>
<!-- Node19 -->
<g id="node19" class="node"><title>Node19</title>
<g id="a_node19"><a doxygen="/home/ac1054/Documents/JSBSim/ardupilot/docs/tags/libraries:../libraries/" xlink:href="../libraries/AP__Math_8h.html#a35821002985a8e3e526c8ccad9bb9934" target="_top" xlink:title="wrap_180_cd">
<polygon fill="white" stroke="black" points="300,-0.5 300,-19.5 374,-19.5 374,-0.5 300,-0.5"/>
<text text-anchor="middle" x="337" y="-7.5" font-family="Helvetica,sans-Serif" font-size="10.00">wrap_180_cd</text>
</a>
</g>
</g>
<!-- Node15&#45;&gt;Node19 -->
<g id="edge18" class="edge"><title>Node15&#45;&gt;Node19</title>
<path fill="none" stroke="midnightblue" d="M181.121,-82.4455C197.676,-68.6934 230.268,-43.3953 262,-29 270.786,-25.0144 280.553,-21.7598 290.034,-19.1426"/>
<polygon fill="midnightblue" stroke="midnightblue" points="290.945,-22.5223 299.758,-16.642 289.201,-15.7429 290.945,-22.5223"/>
</g>
</g>
</svg>
