<?xml version="1.0" encoding="UTF-8" standalone="no"?>
<!DOCTYPE svg PUBLIC "-//W3C//DTD SVG 1.1//EN"
 "http://www.w3.org/Graphics/SVG/1.1/DTD/svg11.dtd">
<!-- Generated by graphviz version 2.36.0 (20140111.2315)
 -->
<!-- Title: do_change_speed Pages: 1 -->
<svg width="436pt" height="28pt"
 viewBox="0.00 0.00 436.00 28.00" xmlns="http://www.w3.org/2000/svg" xmlns:xlink="http://www.w3.org/1999/xlink">
<g id="graph0" class="graph" transform="scale(1 1) rotate(0) translate(4 24)">
<title>do_change_speed</title>
<polygon fill="white" stroke="none" points="-4,4 -4,-24 432,-24 432,4 -4,4"/>
<!-- Node1 -->
<g id="node1" class="node"><title>Node1</title>
<polygon fill="#bfbfbf" stroke="black" points="0.5,-0.5 0.5,-19.5 95.5,-19.5 95.5,-0.5 0.5,-0.5"/>
<text text-anchor="middle" x="48" y="-7.5" font-family="Helvetica,sans-Serif" font-size="10.00">do_change_speed</text>
</g>
<!-- Node2 -->
<g id="node2" class="node"><title>Node2</title>
<g id="a_node2"><a xlink:href="ArduPlane_8pde.html#a7df79fd15233ca04f776c27b69d2e184" target="_top" xlink:title="gcs_send_text_fmt">
<polygon fill="white" stroke="black" points="132,-0.5 132,-19.5 232,-19.5 232,-0.5 132,-0.5"/>
<text text-anchor="middle" x="182" y="-7.5" font-family="Helvetica,sans-Serif" font-size="10.00">gcs_send_text_fmt</text>
</a>
</g>
</g>
<!-- Node1&#45;&gt;Node2 -->
<g id="edge1" class="edge"><title>Node1&#45;&gt;Node2</title>
<path fill="none" stroke="midnightblue" d="M95.5383,-10C103.968,-10 112.862,-10 121.6,-10"/>
<polygon fill="midnightblue" stroke="midnightblue" points="121.75,-13.5001 131.75,-10 121.75,-6.5001 121.75,-13.5001"/>
</g>
<!-- Node3 -->
<g id="node3" class="node"><title>Node3</title>
<g id="a_node3"><a doxygen="/home/ac1054/Documents/JSBSim/ardupilot/docs/tags/libraries:../libraries/" xlink:href="../libraries/classGCS__MAVLINK.html#a4902306dab46ff02b2296f99eb1f1c9c" target="_top" xlink:title="GCS_MAVLINK::send_message">
<polygon fill="white" stroke="black" points="268,-0.5 268,-19.5 428,-19.5 428,-0.5 268,-0.5"/>
<text text-anchor="middle" x="348" y="-7.5" font-family="Helvetica,sans-Serif" font-size="10.00">GCS_MAVLINK::send_message</text>
</a>
</g>
</g>
<!-- Node2&#45;&gt;Node3 -->
<g id="edge2" class="edge"><title>Node2&#45;&gt;Node3</title>
<path fill="none" stroke="midnightblue" d="M232.205,-10C240.275,-10 248.853,-10 257.542,-10"/>
<polygon fill="midnightblue" stroke="midnightblue" points="257.772,-13.5001 267.772,-10 257.772,-6.5001 257.772,-13.5001"/>
</g>
</g>
</svg>
