<?xml version="1.0" encoding="UTF-8" standalone="no"?>
<!DOCTYPE svg PUBLIC "-//W3C//DTD SVG 1.1//EN"
 "http://www.w3.org/Graphics/SVG/1.1/DTD/svg11.dtd">
<!-- Generated by graphviz version 2.36.0 (20140111.2315)
 -->
<!-- Title: do_nav_wp Pages: 1 -->
<!--zoomable 454 -->
<svg id="main" version="1.1" xmlns="http://www.w3.org/2000/svg" xmlns:xlink="http://www.w3.org/1999/xlink" xml:space="preserve" onload="init(evt)">
<style type="text/css"><![CDATA[
.edge:hover path { stroke: red; }
.edge:hover polygon { stroke: red; fill: red; }
]]></style>
<script type="text/javascript"><![CDATA[
var edges = document.getElementsByTagName('g');
if (edges && edges.length) {
  for (var i=0;i<edges.length;i++) {
    if (edges[i].id.substr(0,4)=='edge') {
      edges[i].setAttribute('class','edge');
    }
  }
}
]]></script>
        <defs>
                <circle id="rim" cx="0" cy="0" r="7"/>
                <circle id="rim2" cx="0" cy="0" r="3.5"/>
                <g id="zoomPlus">
                        <use xlink:href="#rim" fill="#404040">
                                <set attributeName="fill" to="#808080" begin="zoomplus.mouseover" end="zoomplus.mouseout"/>
                        </use>
                        <path d="M-4,0h8M0,-4v8" fill="none" stroke="white" stroke-width="1.5" pointer-events="none"/>
                </g>
                <g id="zoomMin">
                        <use xlink:href="#rim" fill="#404040">
                                <set attributeName="fill" to="#808080" begin="zoomminus.mouseover" end="zoomminus.mouseout"/>
                        </use>
                        <path d="M-4,0h8" fill="none" stroke="white" stroke-width="1.5" pointer-events="none"/>
                </g>
                <g id="dirArrow">
                        <path fill="none" stroke="white" stroke-width="1.5" d="M0,-3.0v7 M-2.5,-0.5L0,-3.0L2.5,-0.5"/>
                </g>
               <g id="resetDef">
                       <use xlink:href="#rim2" fill="#404040">
                               <set attributeName="fill" to="#808080" begin="reset.mouseover" end="reset.mouseout"/>
                       </use>
               </g>
        </defs>

<script type="text/javascript">
var viewWidth = 668;
var viewHeight = 454;
var sectionId = 'dynsection-21';
</script>
<script xlink:href="svgpan.js"/>
<svg id="graph" class="graph">
<g id="viewport">
<title>do_nav_wp</title>
<polygon fill="white" stroke="none" points="-4,4 -4,-450 664,-450 664,4 -4,4"/>
<!-- Node1 -->
<g id="node1" class="node"><title>Node1</title>
<polygon fill="#bfbfbf" stroke="black" points="0,-322.5 0,-341.5 66,-341.5 66,-322.5 0,-322.5"/>
<text text-anchor="middle" x="33" y="-329.5" font-family="Helvetica,sans-Serif" font-size="10.00">do_nav_wp</text>
</g>
<!-- Node2 -->
<g id="node2" class="node"><title>Node2</title>
<g id="a_node2"><a xlink:href="commands_8pde.html#a947d60d598982f6012289660b3fe8606" target="_top" xlink:title="set_next_WP">
<polygon fill="white" stroke="black" points="102,-322.5 102,-341.5 178,-341.5 178,-322.5 102,-322.5"/>
<text text-anchor="middle" x="140" y="-329.5" font-family="Helvetica,sans-Serif" font-size="10.00">set_next_WP</text>
</a>
</g>
</g>
<!-- Node1&#45;&gt;Node2 -->
<g id="edge1" class="edge"><title>Node1&#45;&gt;Node2</title>
<path fill="none" stroke="midnightblue" d="M66.074,-332C74.2233,-332 83.1506,-332 91.8776,-332"/>
<polygon fill="midnightblue" stroke="midnightblue" points="91.9717,-335.5 101.972,-332 91.9717,-328.5 91.9717,-335.5"/>
</g>
<!-- Node3 -->
<g id="node3" class="node"><title>Node3</title>
<g id="a_node3"><a doxygen="/home/ac1054/Documents/JSBSim/ardupilot/docs/tags/libraries:../libraries/" xlink:href="../libraries/AP__Math_8h.html#ab6cd880d070717b4c3cc7a7278768e72" target="_top" xlink:title="location_passed_point">
<polygon fill="white" stroke="black" points="214.5,-426.5 214.5,-445.5 327.5,-445.5 327.5,-426.5 214.5,-426.5"/>
<text text-anchor="middle" x="271" y="-433.5" font-family="Helvetica,sans-Serif" font-size="10.00">location_passed_point</text>
</a>
</g>
</g>
<!-- Node2&#45;&gt;Node3 -->
<g id="edge2" class="edge"><title>Node2&#45;&gt;Node3</title>
<path fill="none" stroke="midnightblue" d="M146.774,-341.634C157.73,-359.122 183.214,-396.201 214,-417 216.895,-418.956 220.01,-420.727 223.235,-422.329"/>
<polygon fill="midnightblue" stroke="midnightblue" points="221.962,-425.593 232.526,-426.406 224.775,-419.183 221.962,-425.593"/>
</g>
<!-- Node4 -->
<g id="node4" class="node"><title>Node4</title>
<g id="a_node4"><a xlink:href="GCS__Mavlink_8pde.html#a6bb153355507cf625bc0de5dfa76c137" target="_top" xlink:title="gcs_send_text_P">
<polygon fill="white" stroke="black" points="225,-388.5 225,-407.5 317,-407.5 317,-388.5 225,-388.5"/>
<text text-anchor="middle" x="271" y="-395.5" font-family="Helvetica,sans-Serif" font-size="10.00">gcs_send_text_P</text>
</a>
</g>
</g>
<!-- Node2&#45;&gt;Node4 -->
<g id="edge3" class="edge"><title>Node2&#45;&gt;Node4</title>
<path fill="none" stroke="midnightblue" d="M154.209,-341.573C168.451,-351.592 192.042,-367.321 214,-378 219.048,-380.455 224.478,-382.77 229.9,-384.892"/>
<polygon fill="midnightblue" stroke="midnightblue" points="228.974,-388.282 239.567,-388.495 231.419,-381.723 228.974,-388.282"/>
</g>
<!-- Node6 -->
<g id="node6" class="node"><title>Node6</title>
<g id="a_node6"><a xlink:href="altitude_8pde.html#a6357f669f6ecbbb7cfde5ba94be1e19c" target="_top" xlink:title="set_target_altitude\l_location">
<polygon fill="white" stroke="black" points="222.5,-339 222.5,-369 319.5,-369 319.5,-339 222.5,-339"/>
<text text-anchor="start" x="230.5" y="-357" font-family="Helvetica,sans-Serif" font-size="10.00">set_target_altitude</text>
<text text-anchor="middle" x="271" y="-346" font-family="Helvetica,sans-Serif" font-size="10.00">_location</text>
</a>
</g>
</g>
<!-- Node2&#45;&gt;Node6 -->
<g id="edge5" class="edge"><title>Node2&#45;&gt;Node6</title>
<path fill="none" stroke="midnightblue" d="M178.312,-338.363C188.902,-340.169 200.688,-342.179 212.188,-344.141"/>
<polygon fill="midnightblue" stroke="midnightblue" points="211.737,-347.614 222.183,-345.845 212.914,-340.714 211.737,-347.614"/>
</g>
<!-- Node7 -->
<g id="node7" class="node"><title>Node7</title>
<g id="a_node7"><a xlink:href="navigation_8pde.html#abb2020b166492828bc0fa1cbdb846588" target="_top" xlink:title="loiter_angle_reset">
<polygon fill="white" stroke="black" points="224.5,-300.5 224.5,-319.5 317.5,-319.5 317.5,-300.5 224.5,-300.5"/>
<text text-anchor="middle" x="271" y="-307.5" font-family="Helvetica,sans-Serif" font-size="10.00">loiter_angle_reset</text>
</a>
</g>
</g>
<!-- Node2&#45;&gt;Node7 -->
<g id="edge6" class="edge"><title>Node2&#45;&gt;Node7</title>
<path fill="none" stroke="midnightblue" d="M178.312,-325.637C189.474,-323.733 201.965,-321.603 214.049,-319.542"/>
<polygon fill="midnightblue" stroke="midnightblue" points="214.796,-322.965 224.065,-317.834 213.619,-316.065 214.796,-322.965"/>
</g>
<!-- Node8 -->
<g id="node8" class="node"><title>Node8</title>
<g id="a_node8"><a xlink:href="altitude_8pde.html#ad9fa3dc23a80c3bbb3d9ddd221ad4386" target="_top" xlink:title="setup_glide_slope">
<polygon fill="white" stroke="black" points="223.5,-262.5 223.5,-281.5 318.5,-281.5 318.5,-262.5 223.5,-262.5"/>
<text text-anchor="middle" x="271" y="-269.5" font-family="Helvetica,sans-Serif" font-size="10.00">setup_glide_slope</text>
</a>
</g>
</g>
<!-- Node2&#45;&gt;Node8 -->
<g id="edge7" class="edge"><title>Node2&#45;&gt;Node8</title>
<path fill="none" stroke="midnightblue" d="M156.234,-322.346C170.712,-313.439 193.29,-300.234 214,-291 218.743,-288.885 223.797,-286.865 228.855,-284.983"/>
<polygon fill="midnightblue" stroke="midnightblue" points="230.258,-288.199 238.505,-281.549 227.911,-281.605 230.258,-288.199"/>
</g>
<!-- Node16 -->
<g id="node16" class="node"><title>Node16</title>
<g id="a_node16"><a xlink:href="navigation_8pde.html#a6409561aa9dd027ac95e7110aa5a3e15" target="_top" xlink:title="setup_turn_angle">
<polygon fill="white" stroke="black" points="225.5,-82.5 225.5,-101.5 316.5,-101.5 316.5,-82.5 225.5,-82.5"/>
<text text-anchor="middle" x="271" y="-89.5" font-family="Helvetica,sans-Serif" font-size="10.00">setup_turn_angle</text>
</a>
</g>
</g>
<!-- Node2&#45;&gt;Node16 -->
<g id="edge15" class="edge"><title>Node2&#45;&gt;Node16</title>
<path fill="none" stroke="midnightblue" d="M146.217,-322.294C165.667,-286.107 234.17,-158.66 260.023,-110.561"/>
<polygon fill="midnightblue" stroke="midnightblue" points="263.208,-112.029 264.86,-101.563 257.042,-108.715 263.208,-112.029"/>
</g>
<!-- Node5 -->
<g id="node5" class="node"><title>Node5</title>
<g id="a_node5"><a doxygen="/home/ac1054/Documents/JSBSim/ardupilot/docs/tags/libraries:../libraries/" xlink:href="../libraries/classGCS__MAVLINK.html#a06e50860e622dcb7f8c492a4a70a0daa" target="_top" xlink:title="GCS_MAVLINK::send_text_P">
<polygon fill="white" stroke="black" points="364.5,-404.5 364.5,-423.5 513.5,-423.5 513.5,-404.5 364.5,-404.5"/>
<text text-anchor="middle" x="439" y="-411.5" font-family="Helvetica,sans-Serif" font-size="10.00">GCS_MAVLINK::send_text_P</text>
</a>
</g>
</g>
<!-- Node4&#45;&gt;Node5 -->
<g id="edge4" class="edge"><title>Node4&#45;&gt;Node5</title>
<path fill="none" stroke="midnightblue" d="M317.36,-402.372C328.798,-403.474 341.445,-404.694 354.12,-405.915"/>
<polygon fill="midnightblue" stroke="midnightblue" points="353.979,-409.418 364.269,-406.893 354.651,-402.45 353.979,-409.418"/>
</g>
<!-- Node9 -->
<g id="node9" class="node"><title>Node9</title>
<g id="a_node9"><a doxygen="/home/ac1054/Documents/JSBSim/ardupilot/docs/tags/libraries:../libraries/" xlink:href="../libraries/AP__Math_8h.html#aa825a788804b8dd4cf1e3cfb42960a8b" target="_top" xlink:title="get_distance">
<polygon fill="white" stroke="black" points="403,-366.5 403,-385.5 475,-385.5 475,-366.5 403,-366.5"/>
<text text-anchor="middle" x="439" y="-373.5" font-family="Helvetica,sans-Serif" font-size="10.00">get_distance</text>
</a>
</g>
</g>
<!-- Node8&#45;&gt;Node9 -->
<g id="edge8" class="edge"><title>Node8&#45;&gt;Node9</title>
<path fill="none" stroke="midnightblue" d="M312.212,-281.511C317.891,-283.99 323.364,-287.101 328,-291 353.571,-312.507 337.632,-336.477 364,-357 372.408,-363.544 382.825,-367.852 393.163,-370.683"/>
<polygon fill="midnightblue" stroke="midnightblue" points="392.449,-374.11 402.982,-372.969 394.037,-367.293 392.449,-374.11"/>
</g>
<!-- Node10 -->
<g id="node10" class="node"><title>Node10</title>
<g id="a_node10"><a doxygen="/home/ac1054/Documents/JSBSim/ardupilot/docs/tags/libraries:../libraries/" xlink:href="../libraries/AP__Math_8h.html#ab0ccbafe7e2809759eea8d45d23e4ba0" target="_top" xlink:title="location_path_proportion">
<polygon fill="white" stroke="black" points="378,-328.5 378,-347.5 500,-347.5 500,-328.5 378,-328.5"/>
<text text-anchor="middle" x="439" y="-335.5" font-family="Helvetica,sans-Serif" font-size="10.00">location_path_proportion</text>
</a>
</g>
</g>
<!-- Node8&#45;&gt;Node10 -->
<g id="edge9" class="edge"><title>Node8&#45;&gt;Node10</title>
<path fill="none" stroke="midnightblue" d="M306.23,-281.587C313.607,-284.206 321.221,-287.349 328,-291 345.846,-300.612 345.803,-310.071 364,-319 368.837,-321.374 374.003,-323.473 379.271,-325.324"/>
<polygon fill="midnightblue" stroke="midnightblue" points="378.223,-328.664 388.815,-328.395 380.368,-322 378.223,-328.664"/>
</g>
<!-- Node11 -->
<g id="node11" class="node"><title>Node11</title>
<g id="a_node11"><a xlink:href="altitude_8pde.html#adad3de9d7894f9df95075219fef29534" target="_top" xlink:title="above_location_current">
<polygon fill="white" stroke="black" points="380.5,-290.5 380.5,-309.5 497.5,-309.5 497.5,-290.5 380.5,-290.5"/>
<text text-anchor="middle" x="439" y="-297.5" font-family="Helvetica,sans-Serif" font-size="10.00">above_location_current</text>
</a>
</g>
</g>
<!-- Node8&#45;&gt;Node11 -->
<g id="edge10" class="edge"><title>Node8&#45;&gt;Node11</title>
<path fill="none" stroke="midnightblue" d="M318.682,-279.874C335.035,-282.632 353.732,-285.786 371.396,-288.766"/>
<polygon fill="midnightblue" stroke="midnightblue" points="371.209,-292.283 381.652,-290.495 372.373,-285.381 371.209,-292.283"/>
</g>
<!-- Node12 -->
<g id="node12" class="node"><title>Node12</title>
<g id="a_node12"><a xlink:href="altitude_8pde.html#a9a2ab83d5bfa356d6e99cc7f6c7869cd" target="_top" xlink:title="set_offset_altitude\l_location">
<polygon fill="white" stroke="black" points="390.5,-241 390.5,-271 487.5,-271 487.5,-241 390.5,-241"/>
<text text-anchor="start" x="398.5" y="-259" font-family="Helvetica,sans-Serif" font-size="10.00">set_offset_altitude</text>
<text text-anchor="middle" x="439" y="-248" font-family="Helvetica,sans-Serif" font-size="10.00">_location</text>
</a>
</g>
</g>
<!-- Node8&#45;&gt;Node12 -->
<g id="edge11" class="edge"><title>Node8&#45;&gt;Node12</title>
<path fill="none" stroke="midnightblue" d="M318.682,-267.501C337.796,-265.658 360.112,-263.507 380.239,-261.567"/>
<polygon fill="midnightblue" stroke="midnightblue" points="380.609,-265.048 390.227,-260.605 379.937,-258.08 380.609,-265.048"/>
</g>
<!-- Node13 -->
<g id="node13" class="node"><title>Node13</title>
<g id="a_node13"><a xlink:href="altitude_8pde.html#a95be1c235684766d83ed35917071dcad" target="_top" xlink:title="reset_offset_altitude">
<polygon fill="white" stroke="black" points="386.5,-202.5 386.5,-221.5 491.5,-221.5 491.5,-202.5 386.5,-202.5"/>
<text text-anchor="middle" x="439" y="-209.5" font-family="Helvetica,sans-Serif" font-size="10.00">reset_offset_altitude</text>
</a>
</g>
</g>
<!-- Node8&#45;&gt;Node13 -->
<g id="edge12" class="edge"><title>Node8&#45;&gt;Node13</title>
<path fill="none" stroke="midnightblue" d="M291.764,-262.403C310.171,-253.708 338.523,-240.927 364,-232 371.944,-229.216 380.48,-226.587 388.83,-224.206"/>
<polygon fill="midnightblue" stroke="midnightblue" points="389.796,-227.571 398.5,-221.531 387.929,-220.824 389.796,-227.571"/>
</g>
<!-- Node14 -->
<g id="node14" class="node"><title>Node14</title>
<g id="a_node14"><a xlink:href="altitude_8pde.html#a9b319158d61a114fe14a8a17bd8203d4" target="_top" xlink:title="adjusted_relative_altitude_cm">
<polygon fill="white" stroke="black" points="366,-164.5 366,-183.5 512,-183.5 512,-164.5 366,-164.5"/>
<text text-anchor="middle" x="439" y="-171.5" font-family="Helvetica,sans-Serif" font-size="10.00">adjusted_relative_altitude_cm</text>
</a>
</g>
</g>
<!-- Node8&#45;&gt;Node14 -->
<g id="edge13" class="edge"><title>Node8&#45;&gt;Node14</title>
<path fill="none" stroke="midnightblue" d="M280.356,-262.378C295.385,-245.685 328.714,-211.389 364,-193 368.516,-190.647 373.341,-188.572 378.282,-186.745"/>
<polygon fill="midnightblue" stroke="midnightblue" points="379.506,-190.026 387.875,-183.529 377.281,-183.389 379.506,-190.026"/>
</g>
<!-- Node15 -->
<g id="node15" class="node"><title>Node15</title>
<g id="a_node15"><a xlink:href="altitude_8pde.html#aad5da768a7e757989110fe2d704427b9" target="_top" xlink:title="adjusted_altitude_cm">
<polygon fill="white" stroke="black" points="550.5,-164.5 550.5,-183.5 659.5,-183.5 659.5,-164.5 550.5,-164.5"/>
<text text-anchor="middle" x="605" y="-171.5" font-family="Helvetica,sans-Serif" font-size="10.00">adjusted_altitude_cm</text>
</a>
</g>
</g>
<!-- Node14&#45;&gt;Node15 -->
<g id="edge14" class="edge"><title>Node14&#45;&gt;Node15</title>
<path fill="none" stroke="midnightblue" d="M512.41,-174C521.637,-174 531.028,-174 540.108,-174"/>
<polygon fill="midnightblue" stroke="midnightblue" points="540.201,-177.5 550.201,-174 540.201,-170.5 540.201,-177.5"/>
</g>
<!-- Node17 -->
<g id="node17" class="node"><title>Node17</title>
<g id="a_node17"><a xlink:href="ArduPlane_8pde.html#a4ca9908869f03c8499bb30e8cae3ccc0" target="_top" xlink:title="mission">
<polygon fill="white" stroke="black" points="414,-126.5 414,-145.5 464,-145.5 464,-126.5 414,-126.5"/>
<text text-anchor="middle" x="439" y="-133.5" font-family="Helvetica,sans-Serif" font-size="10.00">mission</text>
</a>
</g>
</g>
<!-- Node16&#45;&gt;Node17 -->
<g id="edge16" class="edge"><title>Node16&#45;&gt;Node17</title>
<path fill="none" stroke="midnightblue" d="M308.02,-101.547C336.555,-109.111 376.136,-119.602 404.104,-127.015"/>
<polygon fill="midnightblue" stroke="midnightblue" points="403.277,-130.417 413.84,-129.596 405.071,-123.651 403.277,-130.417"/>
</g>
<!-- Node18 -->
<g id="node18" class="node"><title>Node18</title>
<g id="a_node18"><a doxygen="/home/ac1054/Documents/JSBSim/ardupilot/docs/tags/libraries:../libraries/" xlink:href="../libraries/classAP__Mission.html#a338b12fad6aa74b9c8a34d65850f6b40" target="_top" xlink:title="AP_Mission::get_next\l_ground_course_cd">
<polygon fill="white" stroke="black" points="382.5,-77 382.5,-107 495.5,-107 495.5,-77 382.5,-77"/>
<text text-anchor="start" x="390.5" y="-95" font-family="Helvetica,sans-Serif" font-size="10.00">AP_Mission::get_next</text>
<text text-anchor="middle" x="439" y="-84" font-family="Helvetica,sans-Serif" font-size="10.00">_ground_course_cd</text>
</a>
</g>
</g>
<!-- Node16&#45;&gt;Node18 -->
<g id="edge17" class="edge"><title>Node16&#45;&gt;Node18</title>
<path fill="none" stroke="midnightblue" d="M316.922,-92C333.935,-92 353.674,-92 372.214,-92"/>
<polygon fill="midnightblue" stroke="midnightblue" points="372.366,-95.5001 382.366,-92 372.365,-88.5001 372.366,-95.5001"/>
</g>
<!-- Node19 -->
<g id="node19" class="node"><title>Node19</title>
<g id="a_node19"><a doxygen="/home/ac1054/Documents/JSBSim/ardupilot/docs/tags/libraries:../libraries/" xlink:href="../libraries/AP__Math_8h.html#a224e7b94333df3a15a18499026474ac9" target="_top" xlink:title="get_bearing_cd">
<polygon fill="white" stroke="black" points="397.5,-38.5 397.5,-57.5 480.5,-57.5 480.5,-38.5 397.5,-38.5"/>
<text text-anchor="middle" x="439" y="-45.5" font-family="Helvetica,sans-Serif" font-size="10.00">get_bearing_cd</text>
</a>
</g>
</g>
<!-- Node16&#45;&gt;Node19 -->
<g id="edge18" class="edge"><title>Node16&#45;&gt;Node19</title>
<path fill="none" stroke="midnightblue" d="M306.918,-82.3877C324.096,-77.6908 345.117,-71.9894 364,-67 372.572,-64.735 381.713,-62.3575 390.541,-60.0806"/>
<polygon fill="midnightblue" stroke="midnightblue" points="391.514,-63.4441 400.328,-57.564 389.771,-56.6646 391.514,-63.4441"/>
</g>
<!-- Node20 -->
<g id="node20" class="node"><title>Node20</title>
<g id="a_node20"><a doxygen="/home/ac1054/Documents/JSBSim/ardupilot/docs/tags/libraries:../libraries/" xlink:href="../libraries/AP__Math_8h.html#a35821002985a8e3e526c8ccad9bb9934" target="_top" xlink:title="wrap_180_cd">
<polygon fill="white" stroke="black" points="402,-0.5 402,-19.5 476,-19.5 476,-0.5 402,-0.5"/>
<text text-anchor="middle" x="439" y="-7.5" font-family="Helvetica,sans-Serif" font-size="10.00">wrap_180_cd</text>
</a>
</g>
</g>
<!-- Node16&#45;&gt;Node20 -->
<g id="edge19" class="edge"><title>Node16&#45;&gt;Node20</title>
<path fill="none" stroke="midnightblue" d="M283.121,-82.4455C299.676,-68.6934 332.268,-43.3953 364,-29 372.786,-25.0144 382.553,-21.7598 392.034,-19.1426"/>
<polygon fill="midnightblue" stroke="midnightblue" points="392.945,-22.5223 401.758,-16.642 391.201,-15.7429 392.945,-22.5223"/>
</g>
</g>
</svg>
        <g id="navigator" transform="translate(0 0)" fill="#404254">
                <rect fill="#f2f5e9" fill-opacity="0.5" stroke="#606060" stroke-width=".5" x="0" y="0" width="60" height="60"/>
                <use id="zoomplus" xlink:href="#zoomPlus" x="17" y="9" onmousedown="handleZoom(evt,'in')"/>
                <use id="zoomminus" xlink:href="#zoomMin" x="42" y="9" onmousedown="handleZoom(evt,'out')"/>
                <use id="reset" xlink:href="#resetDef" x="30" y="36" onmousedown="handleReset()"/>
                <g id="arrowUp" xlink:href="#dirArrow" transform="translate(30 24)" onmousedown="handlePan(0,-1)">
                  <use xlink:href="#rim" fill="#404040">
                        <set attributeName="fill" to="#808080" begin="arrowUp.mouseover" end="arrowUp.mouseout"/>
                  </use>
                  <path fill="none" stroke="white" stroke-width="1.5" d="M0,-3.0v7 M-2.5,-0.5L0,-3.0L2.5,-0.5"/>
                </g>
                <g id="arrowRight" xlink:href="#dirArrow" transform="rotate(90) translate(36 -43)" onmousedown="handlePan(1,0)">
                  <use xlink:href="#rim" fill="#404040">
                        <set attributeName="fill" to="#808080" begin="arrowRight.mouseover" end="arrowRight.mouseout"/>
                  </use>
                  <path fill="none" stroke="white" stroke-width="1.5" d="M0,-3.0v7 M-2.5,-0.5L0,-3.0L2.5,-0.5"/>
                </g>
                <g id="arrowDown" xlink:href="#dirArrow" transform="rotate(180) translate(-30 -48)" onmousedown="handlePan(0,1)">
                  <use xlink:href="#rim" fill="#404040">
                        <set attributeName="fill" to="#808080" begin="arrowDown.mouseover" end="arrowDown.mouseout"/>
                  </use>
                  <path fill="none" stroke="white" stroke-width="1.5" d="M0,-3.0v7 M-2.5,-0.5L0,-3.0L2.5,-0.5"/>
                </g>
                <g id="arrowLeft" xlink:href="#dirArrow" transform="rotate(270) translate(-36 17)" onmousedown="handlePan(-1,0)">
                  <use xlink:href="#rim" fill="#404040">
                        <set attributeName="fill" to="#808080" begin="arrowLeft.mouseover" end="arrowLeft.mouseout"/>
                  </use>
                  <path fill="none" stroke="white" stroke-width="1.5" d="M0,-3.0v7 M-2.5,-0.5L0,-3.0L2.5,-0.5"/>
                </g>
        </g>
        <svg viewBox="0 0 15 15" width="100%" height="30px" preserveAspectRatio="xMaxYMin meet">
         <g id="arrow_out" transform="scale(0.3 0.3)">
          <a xlink:href="commands__logic_8pde_a8f41aec400c2b3b0f4dc53aa8ea6ab21_cgraph_org.svg" target="_base">
           <rect id="button" ry="5" rx="5" y="6" x="6" height="38" width="38"
                fill="#f2f5e9" fill-opacity="0.5" stroke="#606060" stroke-width="1.0"/>
           <path id="arrow"
             d="M 11.500037,31.436501 C 11.940474,20.09759 22.043105,11.32322 32.158766,21.979434 L 37.068811,17.246167 C 37.068811,17.246167 37.088388,32 37.088388,32 L 22.160133,31.978069 C 22.160133,31.978069 26.997745,27.140456 26.997745,27.140456 C 18.528582,18.264221 13.291696,25.230495 11.500037,31.436501 z"
             style="fill:#404040;"/>
          </a>
         </g>
        </svg>
</svg>
