<?xml version="1.0" encoding="UTF-8" standalone="no"?>
<!DOCTYPE svg PUBLIC "-//W3C//DTD SVG 1.1//EN"
 "http://www.w3.org/Graphics/SVG/1.1/DTD/svg11.dtd">
<!-- Generated by graphviz version 2.36.0 (20140111.2315)
 -->
<!-- Title: do_loiter_to_alt Pages: 1 -->
<svg width="374pt" height="66pt"
 viewBox="0.00 0.00 374.00 66.00" xmlns="http://www.w3.org/2000/svg" xmlns:xlink="http://www.w3.org/1999/xlink">
<g id="graph0" class="graph" transform="scale(1 1) rotate(0) translate(4 62)">
<title>do_loiter_to_alt</title>
<polygon fill="white" stroke="none" points="-4,4 -4,-62 370,-62 370,4 -4,4"/>
<!-- Node1 -->
<g id="node1" class="node"><title>Node1</title>
<polygon fill="#bfbfbf" stroke="black" points="0.5,-19.5 0.5,-38.5 83.5,-38.5 83.5,-19.5 0.5,-19.5"/>
<text text-anchor="middle" x="42" y="-26.5" font-family="Helvetica,sans-Serif" font-size="10.00">do_loiter_to_alt</text>
</g>
<!-- Node2 -->
<g id="node2" class="node"><title>Node2</title>
<g id="a_node2"><a xlink:href="commands__logic_8pde.html#a1a8c657acb9efa7a54b0b2a74025ec11" target="_top" xlink:title="start_command">
<polygon fill="white" stroke="black" points="120,-19.5 120,-38.5 204,-38.5 204,-19.5 120,-19.5"/>
<text text-anchor="middle" x="162" y="-26.5" font-family="Helvetica,sans-Serif" font-size="10.00">start_command</text>
</a>
</g>
</g>
<!-- Node1&#45;&gt;Node2 -->
<g id="edge1" class="edge"><title>Node1&#45;&gt;Node2</title>
<path fill="none" stroke="midnightblue" d="M93.7174,-29C102.466,-29 111.462,-29 119.916,-29"/>
<polygon fill="midnightblue" stroke="midnightblue" points="93.6089,-25.5001 83.6089,-29 93.6089,-32.5001 93.6089,-25.5001"/>
</g>
<!-- Node3 -->
<g id="node3" class="node"><title>Node3</title>
<g id="a_node3"><a xlink:href="commands__logic_8pde.html#a0430a022cdb46cf93cef509c17cd6b1f" target="_top" xlink:title="start_command_callback">
<polygon fill="white" stroke="black" points="240.5,-38.5 240.5,-57.5 365.5,-57.5 365.5,-38.5 240.5,-38.5"/>
<text text-anchor="middle" x="303" y="-45.5" font-family="Helvetica,sans-Serif" font-size="10.00">start_command_callback</text>
</a>
</g>
</g>
<!-- Node2&#45;&gt;Node3 -->
<g id="edge2" class="edge"><title>Node2&#45;&gt;Node3</title>
<path fill="none" stroke="midnightblue" d="M214.376,-36.0226C222.798,-37.1738 231.602,-38.3773 240.244,-39.5586"/>
<polygon fill="midnightblue" stroke="midnightblue" points="214.71,-32.5358 204.328,-34.6492 213.762,-39.4713 214.71,-32.5358"/>
</g>
<!-- Node4 -->
<g id="node4" class="node"><title>Node4</title>
<g id="a_node4"><a xlink:href="commands__logic_8pde.html#a8cc2b5f231ed49f1dd33e7500f0351c0" target="_top" xlink:title="exit_mission_callback">
<polygon fill="white" stroke="black" points="246.5,-0.5 246.5,-19.5 359.5,-19.5 359.5,-0.5 246.5,-0.5"/>
<text text-anchor="middle" x="303" y="-7.5" font-family="Helvetica,sans-Serif" font-size="10.00">exit_mission_callback</text>
</a>
</g>
</g>
<!-- Node2&#45;&gt;Node4 -->
<g id="edge3" class="edge"><title>Node2&#45;&gt;Node4</title>
<path fill="none" stroke="midnightblue" d="M214.5,-21.9605C224.902,-20.5386 235.882,-19.0378 246.417,-17.5977"/>
<polygon fill="midnightblue" stroke="midnightblue" points="213.762,-18.5287 204.328,-23.3508 214.71,-25.4642 213.762,-18.5287"/>
</g>
</g>
</svg>
