<?xml version="1.0" encoding="UTF-8" standalone="no"?>
<!DOCTYPE svg PUBLIC "-//W3C//DTD SVG 1.1//EN"
 "http://www.w3.org/Graphics/SVG/1.1/DTD/svg11.dtd">
<!-- Generated by graphviz version 2.36.0 (20140111.2315)
 -->
<!-- Title: gcs_send_airspeed_calibration Pages: 1 -->
<svg width="352pt" height="66pt"
 viewBox="0.00 0.00 352.00 66.00" xmlns="http://www.w3.org/2000/svg" xmlns:xlink="http://www.w3.org/1999/xlink">
<g id="graph0" class="graph" transform="scale(1 1) rotate(0) translate(4 62)">
<title>gcs_send_airspeed_calibration</title>
<polygon fill="white" stroke="none" points="-4,4 -4,-62 348,-62 348,4 -4,4"/>
<!-- Node1 -->
<g id="node1" class="node"><title>Node1</title>
<polygon fill="#bfbfbf" stroke="black" points="0,-19.5 0,-38.5 150,-38.5 150,-19.5 0,-19.5"/>
<text text-anchor="middle" x="75" y="-26.5" font-family="Helvetica,sans-Serif" font-size="10.00">gcs_send_airspeed_calibration</text>
</g>
<!-- Node2 -->
<g id="node2" class="node"><title>Node2</title>
<g id="a_node2"><a doxygen="/home/ac1054/Documents/JSBSim/ardupilot/docs/tags/libraries:../libraries/" xlink:href="../libraries/GCS__MAVLink_8cpp.html#a2a0fd455fd37f642e9eb67373a14b7d9" target="_top" xlink:title="comm_get_txspace">
<polygon fill="white" stroke="black" points="214,-38.5 214,-57.5 316,-57.5 316,-38.5 214,-38.5"/>
<text text-anchor="middle" x="265" y="-45.5" font-family="Helvetica,sans-Serif" font-size="10.00">comm_get_txspace</text>
</a>
</g>
</g>
<!-- Node1&#45;&gt;Node2 -->
<g id="edge1" class="edge"><title>Node1&#45;&gt;Node2</title>
<path fill="none" stroke="midnightblue" d="M150.033,-36.482C167.732,-38.2708 186.421,-40.1596 203.431,-41.8787"/>
<polygon fill="midnightblue" stroke="midnightblue" points="203.48,-45.4014 213.782,-42.9247 204.184,-38.4369 203.48,-45.4014"/>
</g>
<!-- Node3 -->
<g id="node3" class="node"><title>Node3</title>
<g id="a_node3"><a doxygen="/home/ac1054/Documents/JSBSim/ardupilot/docs/tags/libraries:../libraries/" xlink:href="../libraries/classAP__Airspeed.html#af11fb91add08f3c0ed721fdb9d6bea17" target="_top" xlink:title="AP_Airspeed::log_mavlink_send">
<polygon fill="white" stroke="black" points="186,-0.5 186,-19.5 344,-19.5 344,-0.5 186,-0.5"/>
<text text-anchor="middle" x="265" y="-7.5" font-family="Helvetica,sans-Serif" font-size="10.00">AP_Airspeed::log_mavlink_send</text>
</a>
</g>
</g>
<!-- Node1&#45;&gt;Node3 -->
<g id="edge2" class="edge"><title>Node1&#45;&gt;Node3</title>
<path fill="none" stroke="midnightblue" d="M150.033,-21.518C158.452,-20.6671 167.095,-19.7936 175.675,-18.9264"/>
<polygon fill="midnightblue" stroke="midnightblue" points="176.104,-22.401 185.701,-17.9131 175.4,-15.4365 176.104,-22.401"/>
</g>
</g>
</svg>
