<?xml version="1.0" encoding="UTF-8" standalone="no"?>
<!DOCTYPE svg PUBLIC "-//W3C//DTD SVG 1.1//EN"
 "http://www.w3.org/Graphics/SVG/1.1/DTD/svg11.dtd">
<!-- Generated by graphviz version 2.36.0 (20140111.2315)
 -->
<!-- Title: send_wind Pages: 1 -->
<svg width="270pt" height="104pt"
 viewBox="0.00 0.00 270.00 104.00" xmlns="http://www.w3.org/2000/svg" xmlns:xlink="http://www.w3.org/1999/xlink">
<g id="graph0" class="graph" transform="scale(1 1) rotate(0) translate(4 100)">
<title>send_wind</title>
<polygon fill="white" stroke="none" points="-4,4 -4,-100 266,-100 266,4 -4,4"/>
<!-- Node1 -->
<g id="node1" class="node"><title>Node1</title>
<polygon fill="#bfbfbf" stroke="black" points="0.5,-38.5 0.5,-57.5 63.5,-57.5 63.5,-38.5 0.5,-38.5"/>
<text text-anchor="middle" x="32" y="-45.5" font-family="Helvetica,sans-Serif" font-size="10.00">send_wind</text>
</g>
<!-- Node2 -->
<g id="node2" class="node"><title>Node2</title>
<g id="a_node2"><a doxygen="/home/ac1054/Documents/JSBSim/ardupilot/docs/tags/libraries:../libraries/" xlink:href="../libraries/classAP__AHRS__DCM.html#a87c2d7092ed7dd44d043f629d74986b5" target="_top" xlink:title="AP_AHRS_DCM::wind_estimate">
<polygon fill="white" stroke="black" points="100.5,-76.5 100.5,-95.5 261.5,-95.5 261.5,-76.5 100.5,-76.5"/>
<text text-anchor="middle" x="181" y="-83.5" font-family="Helvetica,sans-Serif" font-size="10.00">AP_AHRS_DCM::wind_estimate</text>
</a>
</g>
</g>
<!-- Node1&#45;&gt;Node2 -->
<g id="edge1" class="edge"><title>Node1&#45;&gt;Node2</title>
<path fill="none" stroke="midnightblue" d="M63.6103,-56.9807C75.005,-60.2446 88.0656,-63.8921 100,-67 109.228,-69.403 119.086,-71.8455 128.619,-74.1434"/>
<polygon fill="midnightblue" stroke="midnightblue" points="127.855,-77.5592 138.394,-76.4779 129.481,-70.7507 127.855,-77.5592"/>
</g>
<!-- Node3 -->
<g id="node3" class="node"><title>Node3</title>
<g id="a_node3"><a doxygen="/home/ac1054/Documents/JSBSim/ardupilot/docs/tags/libraries:../libraries/" xlink:href="../libraries/AP__Math_8cpp.html#a08666a85f465dfe5701cc8c878e4b2c5" target="_top" xlink:title="degrees">
<polygon fill="white" stroke="black" points="155.5,-38.5 155.5,-57.5 206.5,-57.5 206.5,-38.5 155.5,-38.5"/>
<text text-anchor="middle" x="181" y="-45.5" font-family="Helvetica,sans-Serif" font-size="10.00">degrees</text>
</a>
</g>
</g>
<!-- Node1&#45;&gt;Node3 -->
<g id="edge2" class="edge"><title>Node1&#45;&gt;Node3</title>
<path fill="none" stroke="midnightblue" d="M63.816,-48C87.5365,-48 120.334,-48 145.035,-48"/>
<polygon fill="midnightblue" stroke="midnightblue" points="145.075,-51.5001 155.075,-48 145.075,-44.5001 145.075,-51.5001"/>
</g>
<!-- Node4 -->
<g id="node4" class="node"><title>Node4</title>
<g id="a_node4"><a doxygen="/home/ac1054/Documents/JSBSim/ardupilot/docs/tags/libraries:../libraries/" xlink:href="../libraries/classVector3.html#ac1fd5514e368a1e1c2d13f71eda18345" target="_top" xlink:title="Vector3::length">
<polygon fill="white" stroke="black" points="139.5,-0.5 139.5,-19.5 222.5,-19.5 222.5,-0.5 139.5,-0.5"/>
<text text-anchor="middle" x="181" y="-7.5" font-family="Helvetica,sans-Serif" font-size="10.00">Vector3::length</text>
</a>
</g>
</g>
<!-- Node1&#45;&gt;Node4 -->
<g id="edge3" class="edge"><title>Node1&#45;&gt;Node4</title>
<path fill="none" stroke="midnightblue" d="M63.6103,-39.0193C75.005,-35.7554 88.0656,-32.1079 100,-29 109.433,-26.5436 119.525,-24.0459 129.254,-21.7036"/>
<polygon fill="midnightblue" stroke="midnightblue" points="130.302,-25.0517 139.218,-19.3273 128.679,-18.2427 130.302,-25.0517"/>
</g>
</g>
</svg>
