<?xml version="1.0" encoding="UTF-8" standalone="no"?>
<!DOCTYPE svg PUBLIC "-//W3C//DTD SVG 1.1//EN"
 "http://www.w3.org/Graphics/SVG/1.1/DTD/svg11.dtd">
<!-- Generated by graphviz version 2.36.0 (20140111.2315)
 -->
<!-- Title: geofence_enabled Pages: 1 -->
<!--zoomable 230 -->
<svg id="main" version="1.1" xmlns="http://www.w3.org/2000/svg" xmlns:xlink="http://www.w3.org/1999/xlink" xml:space="preserve" onload="init(evt)">
<style type="text/css"><![CDATA[
.edge:hover path { stroke: red; }
.edge:hover polygon { stroke: red; fill: red; }
]]></style>
<script type="text/javascript"><![CDATA[
var edges = document.getElementsByTagName('g');
if (edges && edges.length) {
  for (var i=0;i<edges.length;i++) {
    if (edges[i].id.substr(0,4)=='edge') {
      edges[i].setAttribute('class','edge');
    }
  }
}
]]></script>
        <defs>
                <circle id="rim" cx="0" cy="0" r="7"/>
                <circle id="rim2" cx="0" cy="0" r="3.5"/>
                <g id="zoomPlus">
                        <use xlink:href="#rim" fill="#404040">
                                <set attributeName="fill" to="#808080" begin="zoomplus.mouseover" end="zoomplus.mouseout"/>
                        </use>
                        <path d="M-4,0h8M0,-4v8" fill="none" stroke="white" stroke-width="1.5" pointer-events="none"/>
                </g>
                <g id="zoomMin">
                        <use xlink:href="#rim" fill="#404040">
                                <set attributeName="fill" to="#808080" begin="zoomminus.mouseover" end="zoomminus.mouseout"/>
                        </use>
                        <path d="M-4,0h8" fill="none" stroke="white" stroke-width="1.5" pointer-events="none"/>
                </g>
                <g id="dirArrow">
                        <path fill="none" stroke="white" stroke-width="1.5" d="M0,-3.0v7 M-2.5,-0.5L0,-3.0L2.5,-0.5"/>
                </g>
               <g id="resetDef">
                       <use xlink:href="#rim2" fill="#404040">
                               <set attributeName="fill" to="#808080" begin="reset.mouseover" end="reset.mouseout"/>
                       </use>
               </g>
        </defs>

<script type="text/javascript">
var viewWidth = 1030;
var viewHeight = 230;
var sectionId = 'dynsection-7';
</script>
<script xlink:href="svgpan.js"/>
<svg id="graph" class="graph">
<g id="viewport">
<title>geofence_enabled</title>
<polygon fill="white" stroke="none" points="-4,4 -4,-226 1026,-226 1026,4 -4,4"/>
<!-- Node1 -->
<g id="node1" class="node"><title>Node1</title>
<polygon fill="#bfbfbf" stroke="black" points="0.5,-54.5 0.5,-73.5 95.5,-73.5 95.5,-54.5 0.5,-54.5"/>
<text text-anchor="middle" x="48" y="-61.5" font-family="Helvetica,sans-Serif" font-size="10.00">geofence_enabled</text>
</g>
<!-- Node2 -->
<g id="node2" class="node"><title>Node2</title>
<g id="a_node2"><a xlink:href="geofence_8pde.html#ab7e1468a4df2fd93b4d942d473293718" target="_top" xlink:title="geofence_update_pwm\l_enabled_state">
<polygon fill="white" stroke="black" points="132.5,-71 132.5,-101 249.5,-101 249.5,-71 132.5,-71"/>
<text text-anchor="start" x="140.5" y="-89" font-family="Helvetica,sans-Serif" font-size="10.00">geofence_update_pwm</text>
<text text-anchor="middle" x="191" y="-78" font-family="Helvetica,sans-Serif" font-size="10.00">_enabled_state</text>
</a>
</g>
</g>
<!-- Node1&#45;&gt;Node2 -->
<g id="edge1" class="edge"><title>Node1&#45;&gt;Node2</title>
<path fill="none" stroke="midnightblue" d="M95.5594,-71.2646C104.127,-72.6013 113.229,-74.0216 122.271,-75.4324"/>
<polygon fill="midnightblue" stroke="midnightblue" points="122.002,-78.9326 132.422,-77.0162 123.081,-72.0163 122.002,-78.9326"/>
</g>
<!-- Node16 -->
<g id="node16" class="node"><title>Node16</title>
<g id="a_node16"><a xlink:href="geofence_8pde.html#a20ede2fd434cc04b108b19036619b3b7" target="_top" xlink:title="geofence_present">
<polygon fill="white" stroke="black" points="144,-32.5 144,-51.5 238,-51.5 238,-32.5 144,-32.5"/>
<text text-anchor="middle" x="191" y="-39.5" font-family="Helvetica,sans-Serif" font-size="10.00">geofence_present</text>
</a>
</g>
</g>
<!-- Node1&#45;&gt;Node16 -->
<g id="edge17" class="edge"><title>Node1&#45;&gt;Node16</title>
<path fill="none" stroke="midnightblue" d="M95.5594,-56.7354C107.839,-54.8195 121.217,-52.732 133.94,-50.7469"/>
<polygon fill="midnightblue" stroke="midnightblue" points="134.629,-54.1819 143.97,-49.182 133.55,-47.2655 134.629,-54.1819"/>
</g>
<!-- Node3 -->
<g id="node3" class="node"><title>Node3</title>
<g id="a_node3"><a xlink:href="geofence_8pde.html#a4d7f03c5f25503d2aeb4ccfcc794e990" target="_top" xlink:title="geofence_load">
<polygon fill="white" stroke="black" points="446,-95.5 446,-114.5 526,-114.5 526,-95.5 446,-95.5"/>
<text text-anchor="middle" x="486" y="-102.5" font-family="Helvetica,sans-Serif" font-size="10.00">geofence_load</text>
</a>
</g>
</g>
<!-- Node2&#45;&gt;Node3 -->
<g id="edge2" class="edge"><title>Node2&#45;&gt;Node3</title>
<path fill="none" stroke="midnightblue" d="M249.538,-89.7311C303.797,-93.2496 384.259,-98.4673 435.661,-101.801"/>
<polygon fill="midnightblue" stroke="midnightblue" points="435.647,-105.307 445.853,-102.461 436.1,-98.3216 435.647,-105.307"/>
</g>
<!-- Node14 -->
<g id="node14" class="node"><title>Node14</title>
<g id="a_node14"><a xlink:href="geofence_8pde.html#a1b52d18e33a42f78d722b05c44863a52" target="_top" xlink:title="geofence_set_enabled">
<polygon fill="white" stroke="black" points="286,-57.5 286,-76.5 400,-76.5 400,-57.5 286,-57.5"/>
<text text-anchor="middle" x="343" y="-64.5" font-family="Helvetica,sans-Serif" font-size="10.00">geofence_set_enabled</text>
</a>
</g>
</g>
<!-- Node2&#45;&gt;Node14 -->
<g id="edge14" class="edge"><title>Node2&#45;&gt;Node14</title>
<path fill="none" stroke="midnightblue" d="M249.565,-78.7084C258.116,-77.6253 266.987,-76.5016 275.7,-75.3981"/>
<polygon fill="midnightblue" stroke="midnightblue" points="276.345,-78.8444 285.826,-74.1154 275.465,-71.8999 276.345,-78.8444"/>
</g>
<!-- Node4 -->
<g id="node4" class="node"><title>Node4</title>
<g id="a_node4"><a xlink:href="geofence_8pde.html#a353df7cd0eaf06539b323d6db073a81a" target="_top" xlink:title="max_fencepoints">
<polygon fill="white" stroke="black" points="752.5,-202.5 752.5,-221.5 843.5,-221.5 843.5,-202.5 752.5,-202.5"/>
<text text-anchor="middle" x="798" y="-209.5" font-family="Helvetica,sans-Serif" font-size="10.00">max_fencepoints</text>
</a>
</g>
</g>
<!-- Node3&#45;&gt;Node4 -->
<g id="edge3" class="edge"><title>Node3&#45;&gt;Node4</title>
<path fill="none" stroke="midnightblue" d="M493.029,-114.748C505.257,-133.535 534.986,-174.446 572,-192 625.809,-217.519 694.952,-219.8 742.303,-217.433"/>
<polygon fill="midnightblue" stroke="midnightblue" points="742.581,-220.923 752.36,-216.844 742.172,-213.935 742.581,-220.923"/>
</g>
<!-- Node6 -->
<g id="node6" class="node"><title>Node6</title>
<g id="a_node6"><a xlink:href="geofence_8pde.html#acac3851672433298cd94a37fa363bc75" target="_top" xlink:title="get_fence_point_with\l_index">
<polygon fill="white" stroke="black" points="572.5,-153 572.5,-183 681.5,-183 681.5,-153 572.5,-153"/>
<text text-anchor="start" x="580.5" y="-171" font-family="Helvetica,sans-Serif" font-size="10.00">get_fence_point_with</text>
<text text-anchor="middle" x="627" y="-160" font-family="Helvetica,sans-Serif" font-size="10.00">_index</text>
</a>
</g>
</g>
<!-- Node3&#45;&gt;Node6 -->
<g id="edge5" class="edge"><title>Node3&#45;&gt;Node6</title>
<path fill="none" stroke="midnightblue" d="M508.111,-114.568C528.045,-123.603 558.522,-137.416 583.494,-148.734"/>
<polygon fill="midnightblue" stroke="midnightblue" points="582.208,-151.995 592.761,-152.935 585.098,-145.619 582.208,-151.995"/>
</g>
<!-- Node8 -->
<g id="node8" class="node"><title>Node8</title>
<g id="a_node8"><a doxygen="/home/ac1054/Documents/JSBSim/ardupilot/docs/tags/libraries:../libraries/" xlink:href="../libraries/polygon_8cpp.html#a44581f526f8df1f0bc8e3eb4f530e960" target="_top" xlink:title="Polygon_complete">
<polygon fill="white" stroke="black" points="578.5,-114.5 578.5,-133.5 675.5,-133.5 675.5,-114.5 578.5,-114.5"/>
<text text-anchor="middle" x="627" y="-121.5" font-family="Helvetica,sans-Serif" font-size="10.00">Polygon_complete</text>
</a>
</g>
</g>
<!-- Node3&#45;&gt;Node8 -->
<g id="edge8" class="edge"><title>Node3&#45;&gt;Node8</title>
<path fill="none" stroke="midnightblue" d="M526.089,-110.343C539.141,-112.127 553.976,-114.155 568.146,-116.092"/>
<polygon fill="midnightblue" stroke="midnightblue" points="567.93,-119.595 578.311,-117.481 568.878,-112.659 567.93,-119.595"/>
</g>
<!-- Node9 -->
<g id="node9" class="node"><title>Node9</title>
<g id="a_node9"><a doxygen="/home/ac1054/Documents/JSBSim/ardupilot/docs/tags/libraries:../libraries/" xlink:href="../libraries/polygon_8cpp.html#a53235dca2c01737b9221be463ae1f3d3" target="_top" xlink:title="Polygon_outside">
<polygon fill="white" stroke="black" points="582.5,-76.5 582.5,-95.5 671.5,-95.5 671.5,-76.5 582.5,-76.5"/>
<text text-anchor="middle" x="627" y="-83.5" font-family="Helvetica,sans-Serif" font-size="10.00">Polygon_outside</text>
</a>
</g>
</g>
<!-- Node3&#45;&gt;Node9 -->
<g id="edge9" class="edge"><title>Node3&#45;&gt;Node9</title>
<path fill="none" stroke="midnightblue" d="M526.089,-99.6569C540.449,-97.6941 556.966,-95.4363 572.382,-93.3291"/>
<polygon fill="midnightblue" stroke="midnightblue" points="572.885,-96.7929 582.319,-91.9708 571.937,-89.8574 572.885,-96.7929"/>
</g>
<!-- Node10 -->
<g id="node10" class="node"><title>Node10</title>
<g id="a_node10"><a xlink:href="GCS__Mavlink_8pde.html#a6bb153355507cf625bc0de5dfa76c137" target="_top" xlink:title="gcs_send_text_P">
<polygon fill="white" stroke="black" points="581,-38.5 581,-57.5 673,-57.5 673,-38.5 581,-38.5"/>
<text text-anchor="middle" x="627" y="-45.5" font-family="Helvetica,sans-Serif" font-size="10.00">gcs_send_text_P</text>
</a>
</g>
</g>
<!-- Node3&#45;&gt;Node10 -->
<g id="edge10" class="edge"><title>Node3&#45;&gt;Node10</title>
<path fill="none" stroke="midnightblue" d="M511.331,-95.4946C519.252,-92.2871 528.05,-88.6037 536,-85 552.293,-77.6146 555.53,-73.9824 572,-67 576.795,-64.9671 581.89,-62.9702 586.961,-61.0799"/>
<polygon fill="midnightblue" stroke="midnightblue" points="588.385,-64.287 596.598,-57.5945 586.004,-57.7043 588.385,-64.287"/>
</g>
<!-- Node12 -->
<g id="node12" class="node"><title>Node12</title>
<g id="a_node12"><a xlink:href="GCS__Mavlink_8pde.html#a52733528836bdd250b5ead3d6e8370b9" target="_top" xlink:title="gcs_send_message">
<polygon fill="white" stroke="black" points="575,-0.5 575,-19.5 679,-19.5 679,-0.5 575,-0.5"/>
<text text-anchor="middle" x="627" y="-7.5" font-family="Helvetica,sans-Serif" font-size="10.00">gcs_send_message</text>
</a>
</g>
</g>
<!-- Node3&#45;&gt;Node12 -->
<g id="edge12" class="edge"><title>Node3&#45;&gt;Node12</title>
<path fill="none" stroke="midnightblue" d="M518.668,-95.4101C524.811,-92.661 530.913,-89.2288 536,-85 558.754,-66.0865 548.788,-47.3481 572,-29 574.266,-27.2089 576.713,-25.5796 579.272,-24.0984"/>
<polygon fill="midnightblue" stroke="midnightblue" points="580.899,-27.1983 588.296,-19.6135 577.783,-20.9298 580.899,-27.1983"/>
</g>
<!-- Node5 -->
<g id="node5" class="node"><title>Node5</title>
<g id="a_node5"><a doxygen="/home/ac1054/Documents/JSBSim/ardupilot/docs/tags/libraries:../libraries/" xlink:href="../libraries/classStorageAccess.html#a82088aa568b13d18acc9e41a01fd1f19" target="_top" xlink:title="StorageAccess::size">
<polygon fill="white" stroke="black" points="914.5,-202.5 914.5,-221.5 1021.5,-221.5 1021.5,-202.5 914.5,-202.5"/>
<text text-anchor="middle" x="968" y="-209.5" font-family="Helvetica,sans-Serif" font-size="10.00">StorageAccess::size</text>
</a>
</g>
</g>
<!-- Node4&#45;&gt;Node5 -->
<g id="edge4" class="edge"><title>Node4&#45;&gt;Node5</title>
<path fill="none" stroke="midnightblue" d="M843.58,-212C862.207,-212 884.18,-212 904.384,-212"/>
<polygon fill="midnightblue" stroke="midnightblue" points="904.449,-215.5 914.449,-212 904.449,-208.5 904.449,-215.5"/>
</g>
<!-- Node6&#45;&gt;Node4 -->
<g id="edge6" class="edge"><title>Node6&#45;&gt;Node4</title>
<path fill="none" stroke="midnightblue" d="M681.748,-182.452C693.677,-185.626 706.262,-188.949 718,-192 727.962,-194.589 738.641,-197.322 748.827,-199.907"/>
<polygon fill="midnightblue" stroke="midnightblue" points="748.249,-203.372 758.802,-202.433 749.967,-196.586 748.249,-203.372"/>
</g>
<!-- Node7 -->
<g id="node7" class="node"><title>Node7</title>
<g id="a_node7"><a doxygen="/home/ac1054/Documents/JSBSim/ardupilot/docs/tags/libraries:../libraries/" xlink:href="../libraries/classStorageAccess.html#af10e9fa6cda0cb973243e4852c9d16c6" target="_top" xlink:title="StorageAccess::read\l_uint32">
<polygon fill="white" stroke="black" points="744,-153 744,-183 852,-183 852,-153 744,-153"/>
<text text-anchor="start" x="752" y="-171" font-family="Helvetica,sans-Serif" font-size="10.00">StorageAccess::read</text>
<text text-anchor="middle" x="798" y="-160" font-family="Helvetica,sans-Serif" font-size="10.00">_uint32</text>
</a>
</g>
</g>
<!-- Node6&#45;&gt;Node7 -->
<g id="edge7" class="edge"><title>Node6&#45;&gt;Node7</title>
<path fill="none" stroke="midnightblue" d="M681.937,-168C698.337,-168 716.511,-168 733.48,-168"/>
<polygon fill="midnightblue" stroke="midnightblue" points="733.863,-171.5 743.863,-168 733.863,-164.5 733.863,-171.5"/>
</g>
<!-- Node11 -->
<g id="node11" class="node"><title>Node11</title>
<g id="a_node11"><a doxygen="/home/ac1054/Documents/JSBSim/ardupilot/docs/tags/libraries:../libraries/" xlink:href="../libraries/classGCS__MAVLINK.html#a06e50860e622dcb7f8c492a4a70a0daa" target="_top" xlink:title="GCS_MAVLINK::send_text_P">
<polygon fill="white" stroke="black" points="723.5,-38.5 723.5,-57.5 872.5,-57.5 872.5,-38.5 723.5,-38.5"/>
<text text-anchor="middle" x="798" y="-45.5" font-family="Helvetica,sans-Serif" font-size="10.00">GCS_MAVLINK::send_text_P</text>
</a>
</g>
</g>
<!-- Node10&#45;&gt;Node11 -->
<g id="edge11" class="edge"><title>Node10&#45;&gt;Node11</title>
<path fill="none" stroke="midnightblue" d="M673.289,-48C685.521,-48 699.162,-48 712.793,-48"/>
<polygon fill="midnightblue" stroke="midnightblue" points="713.191,-51.5001 723.191,-48 713.191,-44.5001 713.191,-51.5001"/>
</g>
<!-- Node13 -->
<g id="node13" class="node"><title>Node13</title>
<g id="a_node13"><a doxygen="/home/ac1054/Documents/JSBSim/ardupilot/docs/tags/libraries:../libraries/" xlink:href="../libraries/classGCS__MAVLINK.html#a4902306dab46ff02b2296f99eb1f1c9c" target="_top" xlink:title="GCS_MAVLINK::send_message">
<polygon fill="white" stroke="black" points="718,-0.5 718,-19.5 878,-19.5 878,-0.5 718,-0.5"/>
<text text-anchor="middle" x="798" y="-7.5" font-family="Helvetica,sans-Serif" font-size="10.00">GCS_MAVLINK::send_message</text>
</a>
</g>
</g>
<!-- Node12&#45;&gt;Node13 -->
<g id="edge13" class="edge"><title>Node12&#45;&gt;Node13</title>
<path fill="none" stroke="midnightblue" d="M679.164,-10C688.249,-10 697.947,-10 707.73,-10"/>
<polygon fill="midnightblue" stroke="midnightblue" points="707.933,-13.5001 717.933,-10 707.933,-6.5001 707.933,-13.5001"/>
</g>
<!-- Node14&#45;&gt;Node3 -->
<g id="edge15" class="edge"><title>Node14&#45;&gt;Node3</title>
<path fill="none" stroke="midnightblue" d="M379.58,-76.589C397.782,-81.4944 420.138,-87.5196 439.572,-92.7571"/>
<polygon fill="midnightblue" stroke="midnightblue" points="438.865,-96.1912 449.431,-95.4141 440.686,-89.4324 438.865,-96.1912"/>
</g>
<!-- Node15 -->
<g id="node15" class="node"><title>Node15</title>
<g id="a_node15"><a xlink:href="geofence_8pde.html#ae06c98e94b21cb602b1e605df91c6205" target="_top" xlink:title="geofence_set_floor\l_enabled">
<polygon fill="white" stroke="black" points="436.5,-46 436.5,-76 535.5,-76 535.5,-46 436.5,-46"/>
<text text-anchor="start" x="444.5" y="-64" font-family="Helvetica,sans-Serif" font-size="10.00">geofence_set_floor</text>
<text text-anchor="middle" x="486" y="-53" font-family="Helvetica,sans-Serif" font-size="10.00">_enabled</text>
</a>
</g>
</g>
<!-- Node14&#45;&gt;Node15 -->
<g id="edge16" class="edge"><title>Node14&#45;&gt;Node15</title>
<path fill="none" stroke="midnightblue" d="M400.132,-64.6114C408.743,-64.245 417.653,-63.8658 426.317,-63.4971"/>
<polygon fill="midnightblue" stroke="midnightblue" points="426.501,-66.9926 436.343,-63.0705 426.203,-59.9989 426.501,-66.9926"/>
</g>
</g>
</svg>
        <g id="navigator" transform="translate(0 0)" fill="#404254">
                <rect fill="#f2f5e9" fill-opacity="0.5" stroke="#606060" stroke-width=".5" x="0" y="0" width="60" height="60"/>
                <use id="zoomplus" xlink:href="#zoomPlus" x="17" y="9" onmousedown="handleZoom(evt,'in')"/>
                <use id="zoomminus" xlink:href="#zoomMin" x="42" y="9" onmousedown="handleZoom(evt,'out')"/>
                <use id="reset" xlink:href="#resetDef" x="30" y="36" onmousedown="handleReset()"/>
                <g id="arrowUp" xlink:href="#dirArrow" transform="translate(30 24)" onmousedown="handlePan(0,-1)">
                  <use xlink:href="#rim" fill="#404040">
                        <set attributeName="fill" to="#808080" begin="arrowUp.mouseover" end="arrowUp.mouseout"/>
                  </use>
                  <path fill="none" stroke="white" stroke-width="1.5" d="M0,-3.0v7 M-2.5,-0.5L0,-3.0L2.5,-0.5"/>
                </g>
                <g id="arrowRight" xlink:href="#dirArrow" transform="rotate(90) translate(36 -43)" onmousedown="handlePan(1,0)">
                  <use xlink:href="#rim" fill="#404040">
                        <set attributeName="fill" to="#808080" begin="arrowRight.mouseover" end="arrowRight.mouseout"/>
                  </use>
                  <path fill="none" stroke="white" stroke-width="1.5" d="M0,-3.0v7 M-2.5,-0.5L0,-3.0L2.5,-0.5"/>
                </g>
                <g id="arrowDown" xlink:href="#dirArrow" transform="rotate(180) translate(-30 -48)" onmousedown="handlePan(0,1)">
                  <use xlink:href="#rim" fill="#404040">
                        <set attributeName="fill" to="#808080" begin="arrowDown.mouseover" end="arrowDown.mouseout"/>
                  </use>
                  <path fill="none" stroke="white" stroke-width="1.5" d="M0,-3.0v7 M-2.5,-0.5L0,-3.0L2.5,-0.5"/>
                </g>
                <g id="arrowLeft" xlink:href="#dirArrow" transform="rotate(270) translate(-36 17)" onmousedown="handlePan(-1,0)">
                  <use xlink:href="#rim" fill="#404040">
                        <set attributeName="fill" to="#808080" begin="arrowLeft.mouseover" end="arrowLeft.mouseout"/>
                  </use>
                  <path fill="none" stroke="white" stroke-width="1.5" d="M0,-3.0v7 M-2.5,-0.5L0,-3.0L2.5,-0.5"/>
                </g>
        </g>
        <svg viewBox="0 0 15 15" width="100%" height="30px" preserveAspectRatio="xMaxYMin meet">
         <g id="arrow_out" transform="scale(0.3 0.3)">
          <a xlink:href="geofence_8pde_afa190055ae35b23bb4af7aab74f27b45_cgraph_org.svg" target="_base">
           <rect id="button" ry="5" rx="5" y="6" x="6" height="38" width="38"
                fill="#f2f5e9" fill-opacity="0.5" stroke="#606060" stroke-width="1.0"/>
           <path id="arrow"
             d="M 11.500037,31.436501 C 11.940474,20.09759 22.043105,11.32322 32.158766,21.979434 L 37.068811,17.246167 C 37.068811,17.246167 37.088388,32 37.088388,32 L 22.160133,31.978069 C 22.160133,31.978069 26.997745,27.140456 26.997745,27.140456 C 18.528582,18.264221 13.291696,25.230495 11.500037,31.436501 z"
             style="fill:#404040;"/>
          </a>
         </g>
        </svg>
</svg>
