<?xml version="1.0" encoding="UTF-8" standalone="no"?>
<!DOCTYPE svg PUBLIC "-//W3C//DTD SVG 1.1//EN"
 "http://www.w3.org/Graphics/SVG/1.1/DTD/svg11.dtd">
<!-- Generated by graphviz version 2.36.0 (20140111.2315)
 -->
<!-- Title: geofence_breached Pages: 1 -->
<svg width="266pt" height="66pt"
 viewBox="0.00 0.00 266.00 66.00" xmlns="http://www.w3.org/2000/svg" xmlns:xlink="http://www.w3.org/1999/xlink">
<g id="graph0" class="graph" transform="scale(1 1) rotate(0) translate(4 62)">
<title>geofence_breached</title>
<polygon fill="white" stroke="none" points="-4,4 -4,-62 262,-62 262,4 -4,4"/>
<!-- Node1 -->
<g id="node1" class="node"><title>Node1</title>
<polygon fill="#bfbfbf" stroke="black" points="0.5,-19.5 0.5,-38.5 101.5,-38.5 101.5,-19.5 0.5,-19.5"/>
<text text-anchor="middle" x="51" y="-26.5" font-family="Helvetica,sans-Serif" font-size="10.00">geofence_breached</text>
</g>
<!-- Node2 -->
<g id="node2" class="node"><title>Node2</title>
<g id="a_node2"><a xlink:href="ArduPlane_8pde.html#a339fe2f24cbb76edcfc01a0886d5f500" target="_top" xlink:title="obc_fs_check">
<polygon fill="white" stroke="black" points="159.5,-38.5 159.5,-57.5 236.5,-57.5 236.5,-38.5 159.5,-38.5"/>
<text text-anchor="middle" x="198" y="-45.5" font-family="Helvetica,sans-Serif" font-size="10.00">obc_fs_check</text>
</a>
</g>
</g>
<!-- Node1&#45;&gt;Node2 -->
<g id="edge1" class="edge"><title>Node1&#45;&gt;Node2</title>
<path fill="none" stroke="midnightblue" d="M112.243,-36.8939C128.212,-38.9863 144.997,-41.1858 159.379,-43.0703"/>
<polygon fill="midnightblue" stroke="midnightblue" points="112.271,-33.3677 101.901,-35.5387 111.361,-40.3084 112.271,-33.3677"/>
</g>
<!-- Node3 -->
<g id="node3" class="node"><title>Node3</title>
<g id="a_node3"><a xlink:href="GCS__Mavlink_8pde.html#a64efe705566865c689263aa128277c83" target="_top" xlink:title="send_extended_status1">
<polygon fill="white" stroke="black" points="138,-0.5 138,-19.5 258,-19.5 258,-0.5 138,-0.5"/>
<text text-anchor="middle" x="198" y="-7.5" font-family="Helvetica,sans-Serif" font-size="10.00">send_extended_status1</text>
</a>
</g>
</g>
<!-- Node1&#45;&gt;Node3 -->
<g id="edge2" class="edge"><title>Node1&#45;&gt;Node3</title>
<path fill="none" stroke="midnightblue" d="M111.819,-21.1617C120.388,-20.0388 129.202,-18.8839 137.76,-17.7625"/>
<polygon fill="midnightblue" stroke="midnightblue" points="111.361,-17.6916 101.901,-22.4613 112.271,-24.6323 111.361,-17.6916"/>
</g>
</g>
</svg>
