<?xml version="1.0" encoding="UTF-8" standalone="no"?>
<!DOCTYPE svg PUBLIC "-//W3C//DTD SVG 1.1//EN"
 "http://www.w3.org/Graphics/SVG/1.1/DTD/svg11.dtd">
<!-- Generated by graphviz version 2.36.0 (20140111.2315)
 -->
<!-- Title: get_fence_point_with_index Pages: 1 -->
<svg width="406pt" height="77pt"
 viewBox="0.00 0.00 406.00 77.00" xmlns="http://www.w3.org/2000/svg" xmlns:xlink="http://www.w3.org/1999/xlink">
<g id="graph0" class="graph" transform="scale(1 1) rotate(0) translate(4 73)">
<title>get_fence_point_with_index</title>
<polygon fill="white" stroke="none" points="-4,4 -4,-73 402,-73 402,4 -4,4"/>
<!-- Node1 -->
<g id="node1" class="node"><title>Node1</title>
<polygon fill="#bfbfbf" stroke="black" points="0.5,-22 0.5,-52 109.5,-52 109.5,-22 0.5,-22"/>
<text text-anchor="start" x="8.5" y="-40" font-family="Helvetica,sans-Serif" font-size="10.00">get_fence_point_with</text>
<text text-anchor="middle" x="55" y="-29" font-family="Helvetica,sans-Serif" font-size="10.00">_index</text>
</g>
<!-- Node2 -->
<g id="node2" class="node"><title>Node2</title>
<g id="a_node2"><a xlink:href="geofence_8pde.html#a353df7cd0eaf06539b323d6db073a81a" target="_top" xlink:title="max_fencepoints">
<polygon fill="white" stroke="black" points="154.5,-49.5 154.5,-68.5 245.5,-68.5 245.5,-49.5 154.5,-49.5"/>
<text text-anchor="middle" x="200" y="-56.5" font-family="Helvetica,sans-Serif" font-size="10.00">max_fencepoints</text>
</a>
</g>
</g>
<!-- Node1&#45;&gt;Node2 -->
<g id="edge1" class="edge"><title>Node1&#45;&gt;Node2</title>
<path fill="none" stroke="midnightblue" d="M109.655,-45.2546C120.941,-46.9909 132.86,-48.8247 144.188,-50.5674"/>
<polygon fill="midnightblue" stroke="midnightblue" points="143.974,-54.0755 154.39,-52.1368 145.038,-47.1569 143.974,-54.0755"/>
</g>
<!-- Node4 -->
<g id="node4" class="node"><title>Node4</title>
<g id="a_node4"><a doxygen="/home/ac1054/Documents/JSBSim/ardupilot/docs/tags/libraries:../libraries/" xlink:href="../libraries/classStorageAccess.html#af10e9fa6cda0cb973243e4852c9d16c6" target="_top" xlink:title="StorageAccess::read\l_uint32">
<polygon fill="white" stroke="black" points="146,-0 146,-30 254,-30 254,-0 146,-0"/>
<text text-anchor="start" x="154" y="-18" font-family="Helvetica,sans-Serif" font-size="10.00">StorageAccess::read</text>
<text text-anchor="middle" x="200" y="-7" font-family="Helvetica,sans-Serif" font-size="10.00">_uint32</text>
</a>
</g>
</g>
<!-- Node1&#45;&gt;Node4 -->
<g id="edge3" class="edge"><title>Node1&#45;&gt;Node4</title>
<path fill="none" stroke="midnightblue" d="M109.655,-28.7454C118.199,-27.4309 127.107,-26.0605 135.846,-24.7161"/>
<polygon fill="midnightblue" stroke="midnightblue" points="136.643,-28.1346 145.995,-23.1546 135.579,-21.216 136.643,-28.1346"/>
</g>
<!-- Node3 -->
<g id="node3" class="node"><title>Node3</title>
<g id="a_node3"><a doxygen="/home/ac1054/Documents/JSBSim/ardupilot/docs/tags/libraries:../libraries/" xlink:href="../libraries/classStorageAccess.html#a82088aa568b13d18acc9e41a01fd1f19" target="_top" xlink:title="StorageAccess::size">
<polygon fill="white" stroke="black" points="290.5,-49.5 290.5,-68.5 397.5,-68.5 397.5,-49.5 290.5,-49.5"/>
<text text-anchor="middle" x="344" y="-56.5" font-family="Helvetica,sans-Serif" font-size="10.00">StorageAccess::size</text>
</a>
</g>
</g>
<!-- Node2&#45;&gt;Node3 -->
<g id="edge2" class="edge"><title>Node2&#45;&gt;Node3</title>
<path fill="none" stroke="midnightblue" d="M245.54,-59C256.549,-59 268.548,-59 280.245,-59"/>
<polygon fill="midnightblue" stroke="midnightblue" points="280.414,-62.5001 290.414,-59 280.414,-55.5001 280.414,-62.5001"/>
</g>
</g>
</svg>
