<?xml version="1.0" encoding="UTF-8" standalone="no"?>
<!DOCTYPE svg PUBLIC "-//W3C//DTD SVG 1.1//EN"
 "http://www.w3.org/Graphics/SVG/1.1/DTD/svg11.dtd">
<!-- Generated by graphviz version 2.36.0 (20140111.2315)
 -->
<!-- Title: tecs_hgt_afe Pages: 1 -->
<svg width="964pt" height="496pt"
 viewBox="0.00 0.00 964.00 496.00" xmlns="http://www.w3.org/2000/svg" xmlns:xlink="http://www.w3.org/1999/xlink">
<g id="graph0" class="graph" transform="scale(1 1) rotate(0) translate(4 492)">
<title>tecs_hgt_afe</title>
<polygon fill="white" stroke="none" points="-4,4 -4,-492 960,-492 960,4 -4,4"/>
<!-- Node1 -->
<g id="node1" class="node"><title>Node1</title>
<polygon fill="#bfbfbf" stroke="black" points="0.5,-174.5 0.5,-193.5 73.5,-193.5 73.5,-174.5 0.5,-174.5"/>
<text text-anchor="middle" x="37" y="-181.5" font-family="Helvetica,sans-Serif" font-size="10.00">tecs_hgt_afe</text>
</g>
<!-- Node2 -->
<g id="node2" class="node"><title>Node2</title>
<g id="a_node2"><a xlink:href="ArduPlane_8pde.html#aa93cec6a7662f3d2e08aaa245f0ea19c" target="_top" xlink:title="update_flight_stage">
<polygon fill="white" stroke="black" points="114.5,-193.5 114.5,-212.5 215.5,-212.5 215.5,-193.5 114.5,-193.5"/>
<text text-anchor="middle" x="165" y="-200.5" font-family="Helvetica,sans-Serif" font-size="10.00">update_flight_stage</text>
</a>
</g>
</g>
<!-- Node1&#45;&gt;Node2 -->
<g id="edge1" class="edge"><title>Node1&#45;&gt;Node2</title>
<path fill="none" stroke="midnightblue" d="M83.7576,-190.9C93.5962,-192.384 104.043,-193.959 114.032,-195.465"/>
<polygon fill="midnightblue" stroke="midnightblue" points="84.1796,-187.424 73.7695,-189.394 83.1358,-194.346 84.1796,-187.424"/>
</g>
<!-- Node28 -->
<g id="node28" class="node"><title>Node28</title>
<g id="a_node28"><a xlink:href="ArduPlane_8pde.html#a64d25220c1b5361f85b68129e55b60b8" target="_top" xlink:title="update_speed_height">
<polygon fill="white" stroke="black" points="110.5,-155.5 110.5,-174.5 219.5,-174.5 219.5,-155.5 110.5,-155.5"/>
<text text-anchor="middle" x="165" y="-162.5" font-family="Helvetica,sans-Serif" font-size="10.00">update_speed_height</text>
</a>
</g>
</g>
<!-- Node1&#45;&gt;Node28 -->
<g id="edge34" class="edge"><title>Node1&#45;&gt;Node28</title>
<path fill="none" stroke="midnightblue" d="M83.9311,-177.074C92.4849,-175.784 101.493,-174.426 110.256,-173.104"/>
<polygon fill="midnightblue" stroke="midnightblue" points="83.1358,-173.654 73.7695,-178.606 84.1796,-180.576 83.1358,-173.654"/>
</g>
<!-- Node3 -->
<g id="node3" class="node"><title>Node3</title>
<g id="a_node3"><a xlink:href="commands__logic_8pde.html#a764b8431dbf1d572bff1ee7413bed3e2" target="_top" xlink:title="do_RTL">
<polygon fill="white" stroke="black" points="273.5,-212.5 273.5,-231.5 324.5,-231.5 324.5,-212.5 273.5,-212.5"/>
<text text-anchor="middle" x="299" y="-219.5" font-family="Helvetica,sans-Serif" font-size="10.00">do_RTL</text>
</a>
</g>
</g>
<!-- Node2&#45;&gt;Node3 -->
<g id="edge2" class="edge"><title>Node2&#45;&gt;Node3</title>
<path fill="none" stroke="midnightblue" d="M225.859,-211.616C242.626,-214.03 259.927,-216.52 273.381,-218.456"/>
<polygon fill="midnightblue" stroke="midnightblue" points="225.924,-208.089 215.527,-210.129 224.927,-215.018 225.924,-208.089"/>
</g>
<!-- Node6 -->
<g id="node6" class="node"><title>Node6</title>
<g id="a_node6"><a xlink:href="commands__logic_8pde.html#a8cc2b5f231ed49f1dd33e7500f0351c0" target="_top" xlink:title="exit_mission_callback">
<polygon fill="white" stroke="black" points="650.5,-468.5 650.5,-487.5 763.5,-487.5 763.5,-468.5 650.5,-468.5"/>
<text text-anchor="middle" x="707" y="-475.5" font-family="Helvetica,sans-Serif" font-size="10.00">exit_mission_callback</text>
</a>
</g>
</g>
<!-- Node2&#45;&gt;Node6 -->
<g id="edge29" class="edge"><title>Node2&#45;&gt;Node6</title>
<path fill="none" stroke="midnightblue" d="M180.001,-220.496C219.861,-268.825 339.767,-404.201 474,-459 530.871,-482.217 601.997,-484.562 650.4,-482.636"/>
<polygon fill="midnightblue" stroke="midnightblue" points="182.535,-218.065 173.505,-212.524 177.109,-222.487 182.535,-218.065"/>
</g>
<!-- Node20 -->
<g id="node20" class="node"><title>Node20</title>
<g id="a_node20"><a xlink:href="ArduPlane_8pde.html#a6fba8fd13515c54a77e9434c4784c3c9" target="_top" xlink:title="update_alt">
<polygon fill="white" stroke="black" points="676,-0.5 676,-19.5 738,-19.5 738,-0.5 676,-0.5"/>
<text text-anchor="middle" x="707" y="-7.5" font-family="Helvetica,sans-Serif" font-size="10.00">update_alt</text>
</a>
</g>
</g>
<!-- Node2&#45;&gt;Node20 -->
<g id="edge33" class="edge"><title>Node2&#45;&gt;Node20</title>
<path fill="none" stroke="midnightblue" d="M206.488,-189.885C211.108,-188.057 215.699,-186.085 220,-184 339.008,-126.322 347.697,-68.2072 474,-29 543.858,-7.31441 630.908,-6.79563 675.917,-8.35294"/>
<polygon fill="midnightblue" stroke="midnightblue" points="205.182,-186.636 197.047,-193.425 207.639,-193.191 205.182,-186.636"/>
</g>
<!-- Node27 -->
<g id="node27" class="node"><title>Node27</title>
<g id="a_node27"><a xlink:href="commands_8pde.html#a0514b3dcb890c7baa1c2a08bd4da693e" target="_top" xlink:title="set_guided_WP">
<polygon fill="white" stroke="black" points="256,-174.5 256,-193.5 342,-193.5 342,-174.5 256,-174.5"/>
<text text-anchor="middle" x="299" y="-181.5" font-family="Helvetica,sans-Serif" font-size="10.00">set_guided_WP</text>
</a>
</g>
</g>
<!-- Node2&#45;&gt;Node27 -->
<g id="edge30" class="edge"><title>Node2&#45;&gt;Node27</title>
<path fill="none" stroke="midnightblue" d="M225.655,-194.413C235.889,-192.94 246.327,-191.438 255.975,-190.049"/>
<polygon fill="midnightblue" stroke="midnightblue" points="224.927,-190.982 215.527,-195.871 225.924,-197.911 224.927,-190.982"/>
</g>
<!-- Node4 -->
<g id="node4" class="node"><title>Node4</title>
<g id="a_node4"><a xlink:href="system_8pde.html#afe59c30399d04a968780503b2fc09ff7" target="_top" xlink:title="set_mode">
<polygon fill="white" stroke="black" points="378.5,-212.5 378.5,-231.5 437.5,-231.5 437.5,-212.5 378.5,-212.5"/>
<text text-anchor="middle" x="408" y="-219.5" font-family="Helvetica,sans-Serif" font-size="10.00">set_mode</text>
</a>
</g>
</g>
<!-- Node3&#45;&gt;Node4 -->
<g id="edge3" class="edge"><title>Node3&#45;&gt;Node4</title>
<path fill="none" stroke="midnightblue" d="M334.862,-222C348.952,-222 365.013,-222 378.398,-222"/>
<polygon fill="midnightblue" stroke="midnightblue" points="334.548,-218.5 324.548,-222 334.548,-225.5 334.548,-218.5"/>
</g>
<!-- Node5 -->
<g id="node5" class="node"><title>Node5</title>
<g id="a_node5"><a xlink:href="commands__logic_8pde.html#a1a8c657acb9efa7a54b0b2a74025ec11" target="_top" xlink:title="start_command">
<polygon fill="white" stroke="black" points="499,-430.5 499,-449.5 583,-449.5 583,-430.5 499,-430.5"/>
<text text-anchor="middle" x="541" y="-437.5" font-family="Helvetica,sans-Serif" font-size="10.00">start_command</text>
</a>
</g>
</g>
<!-- Node4&#45;&gt;Node5 -->
<g id="edge4" class="edge"><title>Node4&#45;&gt;Node5</title>
<path fill="none" stroke="midnightblue" d="M410.13,-241.98C413.38,-280.744 425.913,-366.672 474,-416 480.809,-422.984 489.807,-427.947 498.962,-431.47"/>
<polygon fill="midnightblue" stroke="midnightblue" points="413.589,-241.284 409.39,-231.557 406.607,-241.78 413.589,-241.284"/>
</g>
<!-- Node8 -->
<g id="node8" class="node"><title>Node8</title>
<g id="a_node8"><a xlink:href="control__modes_8pde.html#a795c2818aac0b7d2f673b178d181116d" target="_top" xlink:title="&#45;*&#45; tab&#45;width: 4; Mode: C++; c&#45;basic&#45;offset: 4; indent&#45;tabs&#45;mode: nil &#45;*&#45; ">
<polygon fill="white" stroke="black" points="489,-354.5 489,-373.5 593,-373.5 593,-354.5 489,-354.5"/>
<text text-anchor="middle" x="541" y="-361.5" font-family="Helvetica,sans-Serif" font-size="10.00">read_control_switch</text>
</a>
</g>
</g>
<!-- Node4&#45;&gt;Node8 -->
<g id="edge7" class="edge"><title>Node4&#45;&gt;Node8</title>
<path fill="none" stroke="midnightblue" d="M414.933,-241.581C423.761,-267.56 442.752,-313.248 474,-340 481.317,-346.264 490.403,-350.948 499.47,-354.43"/>
<polygon fill="midnightblue" stroke="midnightblue" points="418.168,-240.208 411.767,-231.766 411.507,-242.358 418.168,-240.208"/>
</g>
<!-- Node10 -->
<g id="node10" class="node"><title>Node10</title>
<g id="a_node10"><a xlink:href="system_8pde.html#adf8053623ae608c96db339992ed2528c" target="_top" xlink:title="init_ardupilot">
<polygon fill="white" stroke="black" points="806.5,-354.5 806.5,-373.5 877.5,-373.5 877.5,-354.5 806.5,-354.5"/>
<text text-anchor="middle" x="842" y="-361.5" font-family="Helvetica,sans-Serif" font-size="10.00">init_ardupilot</text>
</a>
</g>
</g>
<!-- Node4&#45;&gt;Node10 -->
<g id="edge25" class="edge"><title>Node4&#45;&gt;Node10</title>
<path fill="none" stroke="midnightblue" d="M410.245,-241.977C413.662,-277.494 426.425,-350.901 474,-383 584.008,-457.222 757.53,-398.29 818.734,-373.582"/>
<polygon fill="midnightblue" stroke="midnightblue" points="413.723,-241.565 409.432,-231.878 406.746,-242.126 413.723,-241.565"/>
</g>
<!-- Node12 -->
<g id="node12" class="node"><title>Node12</title>
<g id="a_node12"><a xlink:href="events_8pde.html#a6cc4db2101a0b686b4594a14ac4de049" target="_top" xlink:title="failsafe_short_on_event">
<polygon fill="white" stroke="black" points="481,-278.5 481,-297.5 601,-297.5 601,-278.5 481,-278.5"/>
<text text-anchor="middle" x="541" y="-285.5" font-family="Helvetica,sans-Serif" font-size="10.00">failsafe_short_on_event</text>
</a>
</g>
</g>
<!-- Node4&#45;&gt;Node12 -->
<g id="edge11" class="edge"><title>Node4&#45;&gt;Node12</title>
<path fill="none" stroke="midnightblue" d="M428.089,-238.001C440.521,-247.773 457.453,-259.904 474,-268 482.389,-272.105 491.792,-275.565 500.814,-278.392"/>
<polygon fill="midnightblue" stroke="midnightblue" points="430.242,-235.242 420.26,-231.692 425.85,-240.692 430.242,-235.242"/>
</g>
<!-- Node14 -->
<g id="node14" class="node"><title>Node14</title>
<g id="a_node14"><a xlink:href="events_8pde.html#a3f3b6c96711997a5a63eaa4436ea097c" target="_top" xlink:title="failsafe_long_on_event">
<polygon fill="white" stroke="black" points="483,-190.5 483,-209.5 599,-209.5 599,-190.5 483,-190.5"/>
<text text-anchor="middle" x="541" y="-197.5" font-family="Helvetica,sans-Serif" font-size="10.00">failsafe_long_on_event</text>
</a>
</g>
</g>
<!-- Node4&#45;&gt;Node14 -->
<g id="edge13" class="edge"><title>Node4&#45;&gt;Node14</title>
<path fill="none" stroke="midnightblue" d="M447.627,-215.513C458.824,-213.633 471.289,-211.539 483.347,-209.514"/>
<polygon fill="midnightblue" stroke="midnightblue" points="447.031,-212.064 437.749,-217.172 448.19,-218.967 447.031,-212.064"/>
</g>
<!-- Node16 -->
<g id="node16" class="node"><title>Node16</title>
<g id="a_node16"><a xlink:href="events_8pde.html#afd1ed491d5988a9aafccf86d9c95c0ce" target="_top" xlink:title="failsafe_short_off\l_event">
<polygon fill="white" stroke="black" points="495,-229 495,-259 587,-259 587,-229 495,-229"/>
<text text-anchor="start" x="503" y="-247" font-family="Helvetica,sans-Serif" font-size="10.00">failsafe_short_off</text>
<text text-anchor="middle" x="541" y="-236" font-family="Helvetica,sans-Serif" font-size="10.00">_event</text>
</a>
</g>
</g>
<!-- Node4&#45;&gt;Node16 -->
<g id="edge15" class="edge"><title>Node4&#45;&gt;Node16</title>
<path fill="none" stroke="midnightblue" d="M448.032,-228.555C462.749,-231.027 479.61,-233.858 494.841,-236.416"/>
<polygon fill="midnightblue" stroke="midnightblue" points="448.19,-225.033 437.749,-226.828 447.031,-231.936 448.19,-225.033"/>
</g>
<!-- Node17 -->
<g id="node17" class="node"><title>Node17</title>
<g id="a_node17"><a xlink:href="events_8pde.html#a8c50f18e2cc2e6ec43f90c1a0b880e99" target="_top" xlink:title="low_battery_event">
<polygon fill="white" stroke="black" points="493,-152.5 493,-171.5 589,-171.5 589,-152.5 493,-152.5"/>
<text text-anchor="middle" x="541" y="-159.5" font-family="Helvetica,sans-Serif" font-size="10.00">low_battery_event</text>
</a>
</g>
</g>
<!-- Node4&#45;&gt;Node17 -->
<g id="edge17" class="edge"><title>Node4&#45;&gt;Node17</title>
<path fill="none" stroke="midnightblue" d="M430.062,-206.569C442.385,-198.1 458.522,-187.94 474,-181 482.16,-177.341 491.204,-174.195 499.913,-171.576"/>
<polygon fill="midnightblue" stroke="midnightblue" points="427.989,-203.748 421.827,-212.367 432.019,-209.472 427.989,-203.748"/>
</g>
<!-- Node19 -->
<g id="node19" class="node"><title>Node19</title>
<g id="a_node19"><a xlink:href="geofence_8pde.html#a131efdc9e7e9c64e4909789780279a66" target="_top" xlink:title="geofence_check">
<polygon fill="white" stroke="black" points="497,-38.5 497,-57.5 585,-57.5 585,-38.5 497,-38.5"/>
<text text-anchor="middle" x="541" y="-45.5" font-family="Helvetica,sans-Serif" font-size="10.00">geofence_check</text>
</a>
</g>
</g>
<!-- Node4&#45;&gt;Node19 -->
<g id="edge19" class="edge"><title>Node4&#45;&gt;Node19</title>
<path fill="none" stroke="midnightblue" d="M416.068,-202.584C430.578,-163.141 463.265,-76.5489 474,-67 480.414,-61.2941 488.441,-57.2948 496.667,-54.4935"/>
<polygon fill="midnightblue" stroke="midnightblue" points="412.717,-201.555 412.566,-212.148 419.291,-203.961 412.717,-201.555"/>
</g>
<!-- Node22 -->
<g id="node22" class="node"><title>Node22</title>
<g id="a_node22"><a xlink:href="landing_8pde.html#a53286296e984291837fff41ec8c10038" target="_top" xlink:title="jump_to_landing_sequence">
<polygon fill="white" stroke="black" points="474,-76.5 474,-95.5 608,-95.5 608,-76.5 474,-76.5"/>
<text text-anchor="middle" x="541" y="-83.5" font-family="Helvetica,sans-Serif" font-size="10.00">jump_to_landing_sequence</text>
</a>
</g>
</g>
<!-- Node4&#45;&gt;Node22 -->
<g id="edge22" class="edge"><title>Node4&#45;&gt;Node22</title>
<path fill="none" stroke="midnightblue" d="M414.59,-202.656C423.115,-176.604 441.859,-130.569 474,-105 478.852,-101.14 484.456,-98.0642 490.307,-95.6132"/>
<polygon fill="midnightblue" stroke="midnightblue" points="411.163,-201.892 411.553,-212.479 417.851,-203.959 411.163,-201.892"/>
</g>
<!-- Node25 -->
<g id="node25" class="node"><title>Node25</title>
<g id="a_node25"><a xlink:href="system_8pde.html#ae45d741f1c48b956c06322f8c4db6c70" target="_top" xlink:title="startup_ground">
<polygon fill="white" stroke="black" points="666.5,-316.5 666.5,-335.5 747.5,-335.5 747.5,-316.5 666.5,-316.5"/>
<text text-anchor="middle" x="707" y="-323.5" font-family="Helvetica,sans-Serif" font-size="10.00">startup_ground</text>
</a>
</g>
</g>
<!-- Node4&#45;&gt;Node25 -->
<g id="edge26" class="edge"><title>Node4&#45;&gt;Node25</title>
<path fill="none" stroke="midnightblue" d="M417.424,-240.664C427.648,-260.882 446.941,-292.223 474,-307 534.651,-340.121 617.791,-337.472 666.314,-332.061"/>
<polygon fill="midnightblue" stroke="midnightblue" points="420.509,-239.002 413.025,-231.503 414.199,-242.032 420.509,-239.002"/>
</g>
<!-- Node26 -->
<g id="node26" class="node"><title>Node26</title>
<g id="a_node26"><a xlink:href="system_8pde.html#af51c9dc9104bacb7e0e05b366b43f66c" target="_top" xlink:title="mavlink_set_mode">
<polygon fill="white" stroke="black" points="492,-114.5 492,-133.5 590,-133.5 590,-114.5 492,-114.5"/>
<text text-anchor="middle" x="541" y="-121.5" font-family="Helvetica,sans-Serif" font-size="10.00">mavlink_set_mode</text>
</a>
</g>
</g>
<!-- Node4&#45;&gt;Node26 -->
<g id="edge28" class="edge"><title>Node4&#45;&gt;Node26</title>
<path fill="none" stroke="midnightblue" d="M419.659,-203.407C430.926,-185.384 450.329,-158.553 474,-143 479.879,-139.137 486.554,-136.045 493.346,-133.575"/>
<polygon fill="midnightblue" stroke="midnightblue" points="416.414,-202.013 414.261,-212.387 422.413,-205.619 416.414,-202.013"/>
</g>
<!-- Node5&#45;&gt;Node6 -->
<g id="edge5" class="edge"><title>Node5&#45;&gt;Node6</title>
<path fill="none" stroke="midnightblue" d="M593.341,-451.896C616.393,-457.237 643.221,-463.454 664.913,-468.48"/>
<polygon fill="midnightblue" stroke="midnightblue" points="593.916,-448.437 583.384,-449.589 592.336,-455.256 593.916,-448.437"/>
</g>
<!-- Node7 -->
<g id="node7" class="node"><title>Node7</title>
<g id="a_node7"><a xlink:href="commands__logic_8pde.html#a0430a022cdb46cf93cef509c17cd6b1f" target="_top" xlink:title="start_command_callback">
<polygon fill="white" stroke="black" points="644.5,-430.5 644.5,-449.5 769.5,-449.5 769.5,-430.5 644.5,-430.5"/>
<text text-anchor="middle" x="707" y="-437.5" font-family="Helvetica,sans-Serif" font-size="10.00">start_command_callback</text>
</a>
</g>
</g>
<!-- Node5&#45;&gt;Node7 -->
<g id="edge6" class="edge"><title>Node5&#45;&gt;Node7</title>
<path fill="none" stroke="midnightblue" d="M593.684,-440C609.806,-440 627.747,-440 644.473,-440"/>
<polygon fill="midnightblue" stroke="midnightblue" points="593.384,-436.5 583.384,-440 593.384,-443.5 593.384,-436.5"/>
</g>
<!-- Node9 -->
<g id="node9" class="node"><title>Node9</title>
<g id="a_node9"><a xlink:href="control__modes_8pde.html#a1a85d98dee38cd7a939181118d483622" target="_top" xlink:title="reset_control_switch">
<polygon fill="white" stroke="black" points="653.5,-354.5 653.5,-373.5 760.5,-373.5 760.5,-354.5 653.5,-354.5"/>
<text text-anchor="middle" x="707" y="-361.5" font-family="Helvetica,sans-Serif" font-size="10.00">reset_control_switch</text>
</a>
</g>
</g>
<!-- Node8&#45;&gt;Node9 -->
<g id="edge8" class="edge"><title>Node8&#45;&gt;Node9</title>
<path fill="none" stroke="midnightblue" d="M603.476,-364C619.877,-364 637.448,-364 653.329,-364"/>
<polygon fill="midnightblue" stroke="midnightblue" points="603.441,-360.5 593.441,-364 603.441,-367.5 603.441,-360.5"/>
</g>
<!-- Node9&#45;&gt;Node10 -->
<g id="edge9" class="edge"><title>Node9&#45;&gt;Node10</title>
<path fill="none" stroke="midnightblue" d="M770.78,-364C783.031,-364 795.452,-364 806.371,-364"/>
<polygon fill="midnightblue" stroke="midnightblue" points="770.565,-360.5 760.565,-364 770.565,-367.5 770.565,-360.5"/>
</g>
<!-- Node11 -->
<g id="node11" class="node"><title>Node11</title>
<g id="a_node11"><a xlink:href="ArduPlane_8pde.html#a4fc01d736fe50cf5b977f755b675f11d" target="_top" xlink:title="setup">
<polygon fill="white" stroke="black" points="914.5,-354.5 914.5,-373.5 955.5,-373.5 955.5,-354.5 914.5,-354.5"/>
<text text-anchor="middle" x="935" y="-361.5" font-family="Helvetica,sans-Serif" font-size="10.00">setup</text>
</a>
</g>
</g>
<!-- Node10&#45;&gt;Node11 -->
<g id="edge10" class="edge"><title>Node10&#45;&gt;Node11</title>
<path fill="none" stroke="midnightblue" d="M887.757,-364C897.144,-364 906.574,-364 914.447,-364"/>
<polygon fill="midnightblue" stroke="midnightblue" points="887.663,-360.5 877.663,-364 887.663,-367.5 887.663,-360.5"/>
</g>
<!-- Node13 -->
<g id="node13" class="node"><title>Node13</title>
<g id="a_node13"><a xlink:href="system_8pde.html#a298557d3029fc5e0db868e570ddd065c" target="_top" xlink:title="check_short_failsafe">
<polygon fill="white" stroke="black" points="653.5,-256.5 653.5,-275.5 760.5,-275.5 760.5,-256.5 653.5,-256.5"/>
<text text-anchor="middle" x="707" y="-263.5" font-family="Helvetica,sans-Serif" font-size="10.00">check_short_failsafe</text>
</a>
</g>
</g>
<!-- Node12&#45;&gt;Node13 -->
<g id="edge12" class="edge"><title>Node12&#45;&gt;Node13</title>
<path fill="none" stroke="midnightblue" d="M611.346,-278.697C625.427,-276.809 640.018,-274.851 653.404,-273.056"/>
<polygon fill="midnightblue" stroke="midnightblue" points="610.654,-275.259 601.208,-280.057 611.584,-282.197 610.654,-275.259"/>
</g>
<!-- Node15 -->
<g id="node15" class="node"><title>Node15</title>
<g id="a_node15"><a xlink:href="system_8pde.html#ac712a358c5e71bb976fd5c39f844190f" target="_top" xlink:title="check_long_failsafe">
<polygon fill="white" stroke="black" points="655.5,-190.5 655.5,-209.5 758.5,-209.5 758.5,-190.5 655.5,-190.5"/>
<text text-anchor="middle" x="707" y="-197.5" font-family="Helvetica,sans-Serif" font-size="10.00">check_long_failsafe</text>
</a>
</g>
</g>
<!-- Node14&#45;&gt;Node15 -->
<g id="edge14" class="edge"><title>Node14&#45;&gt;Node15</title>
<path fill="none" stroke="midnightblue" d="M609.756,-200C624.969,-200 640.856,-200 655.236,-200"/>
<polygon fill="midnightblue" stroke="midnightblue" points="609.359,-196.5 599.359,-200 609.359,-203.5 609.359,-196.5"/>
</g>
<!-- Node16&#45;&gt;Node13 -->
<g id="edge16" class="edge"><title>Node16&#45;&gt;Node13</title>
<path fill="none" stroke="midnightblue" d="M597.356,-251.426C615.444,-253.852 635.472,-256.539 653.355,-258.938"/>
<polygon fill="midnightblue" stroke="midnightblue" points="597.624,-247.931 587.248,-250.07 596.694,-254.868 597.624,-247.931"/>
</g>
<!-- Node18 -->
<g id="node18" class="node"><title>Node18</title>
<g id="a_node18"><a xlink:href="sensors_8pde.html#af836fb7da62a6fb918d166aa9835ad91" target="_top" xlink:title="read_battery">
<polygon fill="white" stroke="black" points="671.5,-152.5 671.5,-171.5 742.5,-171.5 742.5,-152.5 671.5,-152.5"/>
<text text-anchor="middle" x="707" y="-159.5" font-family="Helvetica,sans-Serif" font-size="10.00">read_battery</text>
</a>
</g>
</g>
<!-- Node17&#45;&gt;Node18 -->
<g id="edge18" class="edge"><title>Node17&#45;&gt;Node18</title>
<path fill="none" stroke="midnightblue" d="M599.505,-162C623.505,-162 650.587,-162 671.434,-162"/>
<polygon fill="midnightblue" stroke="midnightblue" points="599.436,-158.5 589.436,-162 599.436,-165.5 599.436,-158.5"/>
</g>
<!-- Node19&#45;&gt;Node20 -->
<g id="edge20" class="edge"><title>Node19&#45;&gt;Node20</title>
<path fill="none" stroke="midnightblue" d="M593.468,-36.0744C620.519,-29.8066 652.741,-22.3406 675.759,-17.0071"/>
<polygon fill="midnightblue" stroke="midnightblue" points="592.336,-32.744 583.384,-38.411 593.916,-39.5633 592.336,-32.744"/>
</g>
<!-- Node21 -->
<g id="node21" class="node"><title>Node21</title>
<g id="a_node21"><a xlink:href="ArduPlane_8pde.html#a952c65073f8556020619eca374f08067" target="_top" xlink:title="update_GPS_10Hz">
<polygon fill="white" stroke="black" points="656.5,-38.5 656.5,-57.5 757.5,-57.5 757.5,-38.5 656.5,-38.5"/>
<text text-anchor="middle" x="707" y="-45.5" font-family="Helvetica,sans-Serif" font-size="10.00">update_GPS_10Hz</text>
</a>
</g>
</g>
<!-- Node19&#45;&gt;Node21 -->
<g id="edge21" class="edge"><title>Node19&#45;&gt;Node21</title>
<path fill="none" stroke="midnightblue" d="M595.097,-48C614.732,-48 636.902,-48 656.231,-48"/>
<polygon fill="midnightblue" stroke="midnightblue" points="595.089,-44.5001 585.089,-48 595.089,-51.5001 595.089,-44.5001"/>
</g>
<!-- Node23 -->
<g id="node23" class="node"><title>Node23</title>
<g id="a_node23"><a xlink:href="ArduPlane_8pde.html#a281c9fecc7781fe8c291fbbca573fa5a" target="_top" xlink:title="update_navigation">
<polygon fill="white" stroke="black" points="659.5,-76.5 659.5,-95.5 754.5,-95.5 754.5,-76.5 659.5,-76.5"/>
<text text-anchor="middle" x="707" y="-83.5" font-family="Helvetica,sans-Serif" font-size="10.00">update_navigation</text>
</a>
</g>
</g>
<!-- Node22&#45;&gt;Node23 -->
<g id="edge23" class="edge"><title>Node22&#45;&gt;Node23</title>
<path fill="none" stroke="midnightblue" d="M618.319,-86C632.256,-86 646.413,-86 659.169,-86"/>
<polygon fill="midnightblue" stroke="midnightblue" points="618.232,-82.5001 608.232,-86 618.232,-89.5001 618.232,-82.5001"/>
</g>
<!-- Node24 -->
<g id="node24" class="node"><title>Node24</title>
<g id="a_node24"><a xlink:href="navigation_8pde.html#a5573c39eb2cddb37f77c17128c88eb54" target="_top" xlink:title="navigate">
<polygon fill="white" stroke="black" points="815.5,-76.5 815.5,-95.5 868.5,-95.5 868.5,-76.5 815.5,-76.5"/>
<text text-anchor="middle" x="842" y="-83.5" font-family="Helvetica,sans-Serif" font-size="10.00">navigate</text>
</a>
</g>
</g>
<!-- Node23&#45;&gt;Node24 -->
<g id="edge24" class="edge"><title>Node23&#45;&gt;Node24</title>
<path fill="none" stroke="midnightblue" d="M764.73,-86C782.324,-86 800.85,-86 815.238,-86"/>
<polygon fill="midnightblue" stroke="midnightblue" points="764.517,-82.5001 754.517,-86 764.517,-89.5001 764.517,-82.5001"/>
</g>
<!-- Node25&#45;&gt;Node10 -->
<g id="edge27" class="edge"><title>Node25&#45;&gt;Node10</title>
<path fill="none" stroke="midnightblue" d="M751.367,-338.391C769.581,-343.594 790.439,-349.554 807.449,-354.414"/>
<polygon fill="midnightblue" stroke="midnightblue" points="752.138,-334.971 741.562,-335.589 750.215,-341.702 752.138,-334.971"/>
</g>
<!-- Node27&#45;&gt;Node4 -->
<g id="edge32" class="edge"><title>Node27&#45;&gt;Node4</title>
<path fill="none" stroke="midnightblue" d="M336.526,-196.972C350.781,-202.034 366.83,-207.734 380.008,-212.414"/>
<polygon fill="midnightblue" stroke="midnightblue" points="337.595,-193.638 327.001,-193.589 335.253,-200.234 337.595,-193.638"/>
</g>
<!-- Node27&#45;&gt;Node19 -->
<g id="edge31" class="edge"><title>Node27&#45;&gt;Node19</title>
<path fill="none" stroke="midnightblue" d="M319.28,-168.045C350.15,-143.216 413.38,-95.2532 474,-67 481.998,-63.2726 490.886,-60.1125 499.483,-57.5032"/>
<polygon fill="midnightblue" stroke="midnightblue" points="317.014,-165.377 311.46,-174.399 321.428,-170.809 317.014,-165.377"/>
</g>
</g>
</svg>
