<?xml version="1.0" encoding="UTF-8" standalone="no"?>
<!DOCTYPE svg PUBLIC "-//W3C//DTD SVG 1.1//EN"
 "http://www.w3.org/Graphics/SVG/1.1/DTD/svg11.dtd">
<!-- Generated by graphviz version 2.36.0 (20140111.2315)
 -->
<!-- Title: erase_logs Pages: 1 -->
<svg width="546pt" height="66pt"
 viewBox="0.00 0.00 546.00 66.00" xmlns="http://www.w3.org/2000/svg" xmlns:xlink="http://www.w3.org/1999/xlink">
<g id="graph0" class="graph" transform="scale(1 1) rotate(0) translate(4 62)">
<title>erase_logs</title>
<polygon fill="white" stroke="none" points="-4,4 -4,-62 542,-62 542,4 -4,4"/>
<!-- Node1 -->
<g id="node1" class="node"><title>Node1</title>
<polygon fill="#bfbfbf" stroke="black" points="0,-19.5 0,-38.5 64,-38.5 64,-19.5 0,-19.5"/>
<text text-anchor="middle" x="32" y="-26.5" font-family="Helvetica,sans-Serif" font-size="10.00">erase_logs</text>
</g>
<!-- Node2 -->
<g id="node2" class="node"><title>Node2</title>
<g id="a_node2"><a xlink:href="Log_8pde.html#a68203d3ae7907ad23bac9da5c5dccb4a" target="_top" xlink:title="do_erase_logs">
<polygon fill="white" stroke="black" points="100,-19.5 100,-38.5 180,-38.5 180,-19.5 100,-19.5"/>
<text text-anchor="middle" x="140" y="-26.5" font-family="Helvetica,sans-Serif" font-size="10.00">do_erase_logs</text>
</a>
</g>
</g>
<!-- Node1&#45;&gt;Node2 -->
<g id="edge1" class="edge"><title>Node1&#45;&gt;Node2</title>
<path fill="none" stroke="midnightblue" d="M64.2302,-29C72.2188,-29 81.006,-29 89.6624,-29"/>
<polygon fill="midnightblue" stroke="midnightblue" points="89.7084,-32.5001 99.7084,-29 89.7083,-25.5001 89.7084,-32.5001"/>
</g>
<!-- Node3 -->
<g id="node3" class="node"><title>Node3</title>
<g id="a_node3"><a xlink:href="GCS__Mavlink_8pde.html#a6bb153355507cf625bc0de5dfa76c137" target="_top" xlink:title="gcs_send_text_P">
<polygon fill="white" stroke="black" points="238,-38.5 238,-57.5 330,-57.5 330,-38.5 238,-38.5"/>
<text text-anchor="middle" x="284" y="-45.5" font-family="Helvetica,sans-Serif" font-size="10.00">gcs_send_text_P</text>
</a>
</g>
</g>
<!-- Node2&#45;&gt;Node3 -->
<g id="edge2" class="edge"><title>Node2&#45;&gt;Node3</title>
<path fill="none" stroke="midnightblue" d="M180.178,-34.2421C194.858,-36.2064 211.827,-38.4769 227.695,-40.6001"/>
<polygon fill="midnightblue" stroke="midnightblue" points="227.553,-44.1121 237.929,-41.9693 228.481,-37.1739 227.553,-44.1121"/>
</g>
<!-- Node5 -->
<g id="node5" class="node"><title>Node5</title>
<g id="a_node5"><a doxygen="/home/ac1054/Documents/JSBSim/ardupilot/docs/tags/libraries:../libraries/" xlink:href="../libraries/classDataFlash__Class.html#a8e4f6c9fc9e78712f446b94ffaa9cc69" target="_top" xlink:title="DataFlash_Class::EraseAll">
<polygon fill="white" stroke="black" points="216.5,-0.5 216.5,-19.5 351.5,-19.5 351.5,-0.5 216.5,-0.5"/>
<text text-anchor="middle" x="284" y="-7.5" font-family="Helvetica,sans-Serif" font-size="10.00">DataFlash_Class::EraseAll</text>
</a>
</g>
</g>
<!-- Node2&#45;&gt;Node5 -->
<g id="edge4" class="edge"><title>Node2&#45;&gt;Node5</title>
<path fill="none" stroke="midnightblue" d="M180.178,-23.7579C188.349,-22.6645 197.23,-21.4763 206.235,-20.2714"/>
<polygon fill="midnightblue" stroke="midnightblue" points="206.976,-23.7035 216.423,-18.9081 206.047,-16.7654 206.976,-23.7035"/>
</g>
<!-- Node4 -->
<g id="node4" class="node"><title>Node4</title>
<g id="a_node4"><a doxygen="/home/ac1054/Documents/JSBSim/ardupilot/docs/tags/libraries:../libraries/" xlink:href="../libraries/classGCS__MAVLINK.html#a06e50860e622dcb7f8c492a4a70a0daa" target="_top" xlink:title="GCS_MAVLINK::send_text_P">
<polygon fill="white" stroke="black" points="388.5,-38.5 388.5,-57.5 537.5,-57.5 537.5,-38.5 388.5,-38.5"/>
<text text-anchor="middle" x="463" y="-45.5" font-family="Helvetica,sans-Serif" font-size="10.00">GCS_MAVLINK::send_text_P</text>
</a>
</g>
</g>
<!-- Node3&#45;&gt;Node4 -->
<g id="edge3" class="edge"><title>Node3&#45;&gt;Node4</title>
<path fill="none" stroke="midnightblue" d="M330.123,-48C344.796,-48 361.584,-48 378.153,-48"/>
<polygon fill="midnightblue" stroke="midnightblue" points="378.421,-51.5001 388.421,-48 378.421,-44.5001 378.421,-51.5001"/>
</g>
</g>
</svg>
