<?xml version="1.0" encoding="UTF-8" standalone="no"?>
<!DOCTYPE svg PUBLIC "-//W3C//DTD SVG 1.1//EN"
 "http://www.w3.org/Graphics/SVG/1.1/DTD/svg11.dtd">
<!-- Generated by graphviz version 2.36.0 (20140111.2315)
 -->
<!-- Title: Log_Write_Control_Tuning Pages: 1 -->
<svg width="322pt" height="77pt"
 viewBox="0.00 0.00 322.00 77.00" xmlns="http://www.w3.org/2000/svg" xmlns:xlink="http://www.w3.org/1999/xlink">
<g id="graph0" class="graph" transform="scale(1 1) rotate(0) translate(4 73)">
<title>Log_Write_Control_Tuning</title>
<polygon fill="white" stroke="none" points="-4,4 -4,-73 318,-73 318,4 -4,4"/>
<!-- Node1 -->
<g id="node1" class="node"><title>Node1</title>
<polygon fill="#bfbfbf" stroke="black" points="0,-22.5 0,-41.5 132,-41.5 132,-22.5 0,-22.5"/>
<text text-anchor="middle" x="66" y="-29.5" font-family="Helvetica,sans-Serif" font-size="10.00">Log_Write_Control_Tuning</text>
</g>
<!-- Node2 -->
<g id="node2" class="node"><title>Node2</title>
<g id="a_node2"><a doxygen="/home/ac1054/Documents/JSBSim/ardupilot/docs/tags/libraries:../libraries/" xlink:href="../libraries/classAP__InertialSensor.html#a0f63a4a0e6fc84d6ab9519bc4b254055" target="_top" xlink:title="AP_InertialSensor::\lget_accel">
<polygon fill="white" stroke="black" points="190.5,-39 190.5,-69 291.5,-69 291.5,-39 190.5,-39"/>
<text text-anchor="start" x="198.5" y="-57" font-family="Helvetica,sans-Serif" font-size="10.00">AP_InertialSensor::</text>
<text text-anchor="middle" x="241" y="-46" font-family="Helvetica,sans-Serif" font-size="10.00">get_accel</text>
</a>
</g>
</g>
<!-- Node1&#45;&gt;Node2 -->
<g id="edge1" class="edge"><title>Node1&#45;&gt;Node2</title>
<path fill="none" stroke="midnightblue" d="M132.404,-40.3173C148.181,-42.3236 164.955,-44.4566 180.447,-46.4268"/>
<polygon fill="midnightblue" stroke="midnightblue" points="180.058,-49.9054 190.42,-47.695 180.941,-42.9614 180.058,-49.9054"/>
</g>
<!-- Node3 -->
<g id="node3" class="node"><title>Node3</title>
<g id="a_node3"><a doxygen="/home/ac1054/Documents/JSBSim/ardupilot/docs/tags/libraries:../libraries/" xlink:href="../libraries/classDataFlash__Class.html#af5e6aefb8f2136e9104be836dac88625" target="_top" xlink:title="DataFlash_Class::WriteBlock">
<polygon fill="white" stroke="black" points="168,-0.5 168,-19.5 314,-19.5 314,-0.5 168,-0.5"/>
<text text-anchor="middle" x="241" y="-7.5" font-family="Helvetica,sans-Serif" font-size="10.00">DataFlash_Class::WriteBlock</text>
</a>
</g>
</g>
<!-- Node1&#45;&gt;Node3 -->
<g id="edge2" class="edge"><title>Node1&#45;&gt;Node3</title>
<path fill="none" stroke="midnightblue" d="M132.404,-23.6827C140.725,-22.6245 149.324,-21.531 157.867,-20.4447"/>
<polygon fill="midnightblue" stroke="midnightblue" points="158.369,-23.909 167.848,-19.1754 157.486,-16.965 158.369,-23.909"/>
</g>
</g>
</svg>
