<?xml version="1.0" encoding="UTF-8" standalone="no"?>
<!DOCTYPE svg PUBLIC "-//W3C//DTD SVG 1.1//EN"
 "http://www.w3.org/Graphics/SVG/1.1/DTD/svg11.dtd">
<!-- Generated by graphviz version 2.36.0 (20140111.2315)
 -->
<!-- Title: Log_Write_EntireMission Pages: 1 -->
<svg width="472pt" height="159pt"
 viewBox="0.00 0.00 472.00 159.00" xmlns="http://www.w3.org/2000/svg" xmlns:xlink="http://www.w3.org/1999/xlink">
<g id="graph0" class="graph" transform="scale(1 1) rotate(0) translate(4 155)">
<title>Log_Write_EntireMission</title>
<polygon fill="white" stroke="none" points="-4,4 -4,-155 468,-155 468,4 -4,4"/>
<!-- Node1 -->
<g id="node1" class="node"><title>Node1</title>
<polygon fill="#bfbfbf" stroke="black" points="0.5,-68.5 0.5,-87.5 125.5,-87.5 125.5,-68.5 0.5,-68.5"/>
<text text-anchor="middle" x="63" y="-75.5" font-family="Helvetica,sans-Serif" font-size="10.00">Log_Write_EntireMission</text>
</g>
<!-- Node2 -->
<g id="node2" class="node"><title>Node2</title>
<g id="a_node2"><a xlink:href="ArduPlane_8pde.html#a4ca9908869f03c8499bb30e8cae3ccc0" target="_top" xlink:title="mission">
<polygon fill="white" stroke="black" points="365,-131.5 365,-150.5 415,-150.5 415,-131.5 365,-131.5"/>
<text text-anchor="middle" x="390" y="-138.5" font-family="Helvetica,sans-Serif" font-size="10.00">mission</text>
</a>
</g>
</g>
<!-- Node1&#45;&gt;Node2 -->
<g id="edge1" class="edge"><title>Node1&#45;&gt;Node2</title>
<path fill="none" stroke="midnightblue" d="M84.1466,-87.6006C103.616,-96.4448 134.17,-109.196 162,-116 229.032,-132.389 309.842,-138.049 354.713,-139.993"/>
<polygon fill="midnightblue" stroke="midnightblue" points="354.655,-143.493 364.786,-140.393 354.932,-136.499 354.655,-143.493"/>
</g>
<!-- Node3 -->
<g id="node3" class="node"><title>Node3</title>
<g id="a_node3"><a doxygen="/home/ac1054/Documents/JSBSim/ardupilot/docs/tags/libraries:../libraries/" xlink:href="../libraries/classAP__Mission.html#a3d45d873b8f9e2ebf0d020ce26db957d" target="_top" xlink:title="AP_Mission::num_commands">
<polygon fill="white" stroke="black" points="316.5,-43.5 316.5,-62.5 463.5,-62.5 463.5,-43.5 316.5,-43.5"/>
<text text-anchor="middle" x="390" y="-50.5" font-family="Helvetica,sans-Serif" font-size="10.00">AP_Mission::num_commands</text>
</a>
</g>
</g>
<!-- Node1&#45;&gt;Node3 -->
<g id="edge2" class="edge"><title>Node1&#45;&gt;Node3</title>
<path fill="none" stroke="midnightblue" d="M125.512,-73.2683C176.619,-69.337 249.805,-63.7073 306.081,-59.3783"/>
<polygon fill="midnightblue" stroke="midnightblue" points="306.682,-62.8426 316.384,-58.5859 306.145,-55.8632 306.682,-62.8426"/>
</g>
<!-- Node4 -->
<g id="node4" class="node"><title>Node4</title>
<g id="a_node4"><a doxygen="/home/ac1054/Documents/JSBSim/ardupilot/docs/tags/libraries:../libraries/" xlink:href="../libraries/classAP__Mission.html#afa29a34a739b0fc995194412dde6e532" target="_top" xlink:title="AP_Mission::read_cmd\l_from_storage">
<polygon fill="white" stroke="black" points="162,-0 162,-30 280,-30 280,-0 162,-0"/>
<text text-anchor="start" x="170" y="-18" font-family="Helvetica,sans-Serif" font-size="10.00">AP_Mission::read_cmd</text>
<text text-anchor="middle" x="221" y="-7" font-family="Helvetica,sans-Serif" font-size="10.00">_from_storage</text>
</a>
</g>
</g>
<!-- Node1&#45;&gt;Node4 -->
<g id="edge3" class="edge"><title>Node1&#45;&gt;Node4</title>
<path fill="none" stroke="midnightblue" d="M87.693,-68.4317C110.36,-59.2776 145.175,-45.2178 173.403,-33.8181"/>
<polygon fill="midnightblue" stroke="midnightblue" points="174.734,-37.0551 182.696,-30.065 172.113,-30.5644 174.734,-37.0551"/>
</g>
<!-- Node5 -->
<g id="node5" class="node"><title>Node5</title>
<g id="a_node5"><a xlink:href="Log_8pde.html#ac66fbc49dffb5480658885c0061e0fd5" target="_top" xlink:title="Log_Write_Cmd">
<polygon fill="white" stroke="black" points="177.5,-87.5 177.5,-106.5 264.5,-106.5 264.5,-87.5 177.5,-87.5"/>
<text text-anchor="middle" x="221" y="-94.5" font-family="Helvetica,sans-Serif" font-size="10.00">Log_Write_Cmd</text>
</a>
</g>
</g>
<!-- Node1&#45;&gt;Node5 -->
<g id="edge4" class="edge"><title>Node1&#45;&gt;Node5</title>
<path fill="none" stroke="midnightblue" d="M125.655,-85.5093C139.364,-87.179 153.779,-88.9346 167.1,-90.557"/>
<polygon fill="midnightblue" stroke="midnightblue" points="166.693,-94.0333 177.043,-91.7681 167.54,-87.0847 166.693,-94.0333"/>
</g>
<!-- Node5&#45;&gt;Node2 -->
<g id="edge6" class="edge"><title>Node5&#45;&gt;Node2</title>
<path fill="none" stroke="midnightblue" d="M258.237,-106.547C286.943,-114.111 326.763,-124.602 354.899,-132.015"/>
<polygon fill="midnightblue" stroke="midnightblue" points="354.133,-135.433 364.694,-134.596 355.916,-128.664 354.133,-135.433"/>
</g>
<!-- Node5&#45;&gt;Node3 -->
<g id="edge7" class="edge"><title>Node5&#45;&gt;Node3</title>
<path fill="none" stroke="midnightblue" d="M257.697,-87.4583C275.252,-82.778 296.73,-77.0703 316,-72 324.558,-69.7484 333.684,-67.3617 342.481,-65.0681"/>
<polygon fill="midnightblue" stroke="midnightblue" points="343.432,-68.4373 352.228,-62.5302 341.668,-61.6632 343.432,-68.4373"/>
</g>
<!-- Node6 -->
<g id="node6" class="node"><title>Node6</title>
<g id="a_node6"><a doxygen="/home/ac1054/Documents/JSBSim/ardupilot/docs/tags/libraries:../libraries/" xlink:href="../libraries/classAP__Mission.html#a47a4c5ef589ff9050cb9f80506ad9746" target="_top" xlink:title="AP_Mission::mission\l_cmd_to_mavlink">
<polygon fill="white" stroke="black" points="335.5,-82 335.5,-112 444.5,-112 444.5,-82 335.5,-82"/>
<text text-anchor="start" x="343.5" y="-100" font-family="Helvetica,sans-Serif" font-size="10.00">AP_Mission::mission</text>
<text text-anchor="middle" x="390" y="-89" font-family="Helvetica,sans-Serif" font-size="10.00">_cmd_to_mavlink</text>
</a>
</g>
</g>
<!-- Node5&#45;&gt;Node6 -->
<g id="edge5" class="edge"><title>Node5&#45;&gt;Node6</title>
<path fill="none" stroke="midnightblue" d="M264.573,-97C283.009,-97 304.98,-97 325.293,-97"/>
<polygon fill="midnightblue" stroke="midnightblue" points="325.422,-100.5 335.422,-97 325.422,-93.5001 325.422,-100.5"/>
</g>
</g>
</svg>
