<?xml version="1.0" encoding="UTF-8" standalone="no"?>
<!DOCTYPE svg PUBLIC "-//W3C//DTD SVG 1.1//EN"
 "http://www.w3.org/Graphics/SVG/1.1/DTD/svg11.dtd">
<!-- Generated by graphviz version 2.36.0 (20140111.2315)
 -->
<!-- Title: update_cruise Pages: 1 -->
<svg width="264pt" height="229pt"
 viewBox="0.00 0.00 264.00 229.00" xmlns="http://www.w3.org/2000/svg" xmlns:xlink="http://www.w3.org/1999/xlink">
<g id="graph0" class="graph" transform="scale(1 1) rotate(0) translate(4 225)">
<title>update_cruise</title>
<polygon fill="white" stroke="none" points="-4,4 -4,-225 260,-225 260,4 -4,4"/>
<!-- Node1 -->
<g id="node1" class="node"><title>Node1</title>
<polygon fill="#bfbfbf" stroke="black" points="0.5,-106.5 0.5,-125.5 77.5,-125.5 77.5,-106.5 0.5,-106.5"/>
<text text-anchor="middle" x="39" y="-113.5" font-family="Helvetica,sans-Serif" font-size="10.00">update_cruise</text>
</g>
<!-- Node2 -->
<g id="node2" class="node"><title>Node2</title>
<g id="a_node2"><a doxygen="/home/ac1054/Documents/JSBSim/ardupilot/docs/tags/libraries:../libraries/" xlink:href="../libraries/classAP__GPS.html#a9093c8cf1d5a78ccd8677229bb314d37" target="_top" xlink:title="AP_GPS::status">
<polygon fill="white" stroke="black" points="140.5,-201.5 140.5,-220.5 229.5,-220.5 229.5,-201.5 140.5,-201.5"/>
<text text-anchor="middle" x="185" y="-208.5" font-family="Helvetica,sans-Serif" font-size="10.00">AP_GPS::status</text>
</a>
</g>
</g>
<!-- Node1&#45;&gt;Node2 -->
<g id="edge1" class="edge"><title>Node1&#45;&gt;Node2</title>
<path fill="none" stroke="midnightblue" d="M46.5738,-125.522C58.2394,-141.685 84.1611,-174.441 114,-192 119.145,-195.028 124.785,-197.585 130.56,-199.744"/>
<polygon fill="midnightblue" stroke="midnightblue" points="129.749,-203.163 140.343,-203.011 131.967,-196.523 129.749,-203.163"/>
</g>
<!-- Node3 -->
<g id="node3" class="node"><title>Node3</title>
<g id="a_node3"><a doxygen="/home/ac1054/Documents/JSBSim/ardupilot/docs/tags/libraries:../libraries/" xlink:href="../libraries/classAP__GPS.html#a426041563da447ec6e9cde1926a88fdb" target="_top" xlink:title="AP_GPS::ground_speed">
<polygon fill="white" stroke="black" points="123.5,-163.5 123.5,-182.5 246.5,-182.5 246.5,-163.5 123.5,-163.5"/>
<text text-anchor="middle" x="185" y="-170.5" font-family="Helvetica,sans-Serif" font-size="10.00">AP_GPS::ground_speed</text>
</a>
</g>
</g>
<!-- Node1&#45;&gt;Node3 -->
<g id="edge2" class="edge"><title>Node1&#45;&gt;Node3</title>
<path fill="none" stroke="midnightblue" d="M56.2922,-125.627C70.9885,-134.002 93.3967,-146.015 114,-154 120.232,-156.415 126.889,-158.646 133.527,-160.664"/>
<polygon fill="midnightblue" stroke="midnightblue" points="132.608,-164.042 143.187,-163.467 134.558,-157.319 132.608,-164.042"/>
</g>
<!-- Node4 -->
<g id="node4" class="node"><title>Node4</title>
<g id="a_node4"><a doxygen="/home/ac1054/Documents/JSBSim/ardupilot/docs/tags/libraries:../libraries/" xlink:href="../libraries/classAP__GPS.html#a94caaa8676fecb6c0c4a8a58eea3b106" target="_top" xlink:title="AP_GPS::ground_course_cd">
<polygon fill="white" stroke="black" points="114,-125.5 114,-144.5 256,-144.5 256,-125.5 114,-125.5"/>
<text text-anchor="middle" x="185" y="-132.5" font-family="Helvetica,sans-Serif" font-size="10.00">AP_GPS::ground_course_cd</text>
</a>
</g>
</g>
<!-- Node1&#45;&gt;Node4 -->
<g id="edge3" class="edge"><title>Node1&#45;&gt;Node4</title>
<path fill="none" stroke="midnightblue" d="M77.8343,-120.992C85.8867,-122.054 94.6813,-123.215 103.651,-124.398"/>
<polygon fill="midnightblue" stroke="midnightblue" points="103.451,-127.902 113.822,-125.74 104.366,-120.962 103.451,-127.902"/>
</g>
<!-- Node5 -->
<g id="node5" class="node"><title>Node5</title>
<g id="a_node5"><a doxygen="/home/ac1054/Documents/JSBSim/ardupilot/docs/tags/libraries:../libraries/" xlink:href="../libraries/AP__Math_8h.html#ab0e06d28afb9d14043e1938af277396c" target="_top" xlink:title="location_update">
<polygon fill="white" stroke="black" points="142.5,-87.5 142.5,-106.5 227.5,-106.5 227.5,-87.5 142.5,-87.5"/>
<text text-anchor="middle" x="185" y="-94.5" font-family="Helvetica,sans-Serif" font-size="10.00">location_update</text>
</a>
</g>
</g>
<!-- Node1&#45;&gt;Node5 -->
<g id="edge4" class="edge"><title>Node1&#45;&gt;Node5</title>
<path fill="none" stroke="midnightblue" d="M77.8343,-111.008C94.4904,-108.81 114.322,-106.194 132.312,-103.82"/>
<polygon fill="midnightblue" stroke="midnightblue" points="132.911,-107.271 142.367,-102.493 131.995,-100.331 132.911,-107.271"/>
</g>
<!-- Node6 -->
<g id="node6" class="node"><title>Node6</title>
<g id="a_node6"><a doxygen="/home/ac1054/Documents/JSBSim/ardupilot/docs/tags/libraries:../libraries/" xlink:href="../libraries/AP__Math_8h.html#aa825a788804b8dd4cf1e3cfb42960a8b" target="_top" xlink:title="get_distance">
<polygon fill="white" stroke="black" points="149,-49.5 149,-68.5 221,-68.5 221,-49.5 149,-49.5"/>
<text text-anchor="middle" x="185" y="-56.5" font-family="Helvetica,sans-Serif" font-size="10.00">get_distance</text>
</a>
</g>
</g>
<!-- Node1&#45;&gt;Node6 -->
<g id="edge5" class="edge"><title>Node1&#45;&gt;Node6</title>
<path fill="none" stroke="midnightblue" d="M56.2922,-106.373C70.9885,-97.9985 93.3967,-85.9847 114,-78 121.933,-74.9257 130.554,-72.1507 138.948,-69.7312"/>
<polygon fill="midnightblue" stroke="midnightblue" points="139.933,-73.0903 148.642,-67.0575 138.071,-66.3423 139.933,-73.0903"/>
</g>
<!-- Node7 -->
<g id="node7" class="node"><title>Node7</title>
<g id="a_node7"><a doxygen="/home/ac1054/Documents/JSBSim/ardupilot/docs/tags/libraries:../libraries/" xlink:href="../libraries/classAP__Navigation.html#acbff1d37eab53cfb052773759a27148c" target="_top" xlink:title="AP_Navigation::update\l_waypoint">
<polygon fill="white" stroke="black" points="126.5,-0 126.5,-30 243.5,-30 243.5,-0 126.5,-0"/>
<text text-anchor="start" x="134.5" y="-18" font-family="Helvetica,sans-Serif" font-size="10.00">AP_Navigation::update</text>
<text text-anchor="middle" x="185" y="-7" font-family="Helvetica,sans-Serif" font-size="10.00">_waypoint</text>
</a>
</g>
</g>
<!-- Node1&#45;&gt;Node7 -->
<g id="edge6" class="edge"><title>Node1&#45;&gt;Node7</title>
<path fill="none" stroke="midnightblue" d="M46.9145,-106.468C58.8944,-90.5839 85.0232,-58.6091 114,-40 117.115,-37.9995 120.411,-36.1335 123.808,-34.3969"/>
<polygon fill="midnightblue" stroke="midnightblue" points="125.412,-37.5107 132.982,-30.0987 122.442,-31.1719 125.412,-37.5107"/>
</g>
</g>
</svg>
