<?xml version="1.0" encoding="UTF-8" standalone="no"?>
<!DOCTYPE svg PUBLIC "-//W3C//DTD SVG 1.1//EN"
 "http://www.w3.org/Graphics/SVG/1.1/DTD/svg11.dtd">
<!-- Generated by graphviz version 2.36.0 (20140111.2315)
 -->
<!-- Title: ArduPlane/px4_mixer.pde Pages: 1 -->
<svg width="636pt" height="84pt"
 viewBox="0.00 0.00 636.00 84.00" xmlns="http://www.w3.org/2000/svg" xmlns:xlink="http://www.w3.org/1999/xlink">
<g id="graph0" class="graph" transform="scale(1 1) rotate(0) translate(4 80)">
<title>ArduPlane/px4_mixer.pde</title>
<polygon fill="white" stroke="none" points="-4,4 -4,-80 632,-80 632,4 -4,4"/>
<!-- Node1 -->
<g id="node1" class="node"><title>Node1</title>
<polygon fill="#bfbfbf" stroke="black" points="188,-56.5 188,-75.5 316,-75.5 316,-56.5 188,-56.5"/>
<text text-anchor="middle" x="252" y="-63.5" font-family="Helvetica,sans-Serif" font-size="10.00">ArduPlane/px4_mixer.pde</text>
</g>
<!-- Node2 -->
<g id="node2" class="node"><title>Node2</title>
<polygon fill="white" stroke="#bfbfbf" points="0,-0.5 0,-19.5 68,-19.5 68,-0.5 0,-0.5"/>
<text text-anchor="middle" x="34" y="-7.5" font-family="Helvetica,sans-Serif" font-size="10.00">sys/types.h</text>
</g>
<!-- Node1&#45;&gt;Node2 -->
<g id="edge1" class="edge"><title>Node1&#45;&gt;Node2</title>
<path fill="none" stroke="midnightblue" d="M217.457,-56.4435C179.636,-47.0749 118.904,-32.0312 77.7728,-21.8428"/>
<polygon fill="midnightblue" stroke="midnightblue" points="78.5705,-18.4347 68.0223,-19.4275 76.8874,-25.2293 78.5705,-18.4347"/>
</g>
<!-- Node3 -->
<g id="node3" class="node"><title>Node3</title>
<polygon fill="white" stroke="#bfbfbf" points="86,-0.5 86,-19.5 146,-19.5 146,-0.5 86,-0.5"/>
<text text-anchor="middle" x="116" y="-7.5" font-family="Helvetica,sans-Serif" font-size="10.00">sys/stat.h</text>
</g>
<!-- Node1&#45;&gt;Node3 -->
<g id="edge2" class="edge"><title>Node1&#45;&gt;Node3</title>
<path fill="none" stroke="midnightblue" d="M230.45,-56.4435C207.969,-47.5171 172.512,-33.4387 147.02,-23.3168"/>
<polygon fill="midnightblue" stroke="midnightblue" points="148.035,-19.9539 137.449,-19.5164 145.451,-26.4598 148.035,-19.9539"/>
</g>
<!-- Node4 -->
<g id="node4" class="node"><title>Node4</title>
<polygon fill="white" stroke="#bfbfbf" points="164,-0.5 164,-19.5 208,-19.5 208,-0.5 164,-0.5"/>
<text text-anchor="middle" x="186" y="-7.5" font-family="Helvetica,sans-Serif" font-size="10.00">fcntl.h</text>
</g>
<!-- Node1&#45;&gt;Node4 -->
<g id="edge3" class="edge"><title>Node1&#45;&gt;Node4</title>
<path fill="none" stroke="midnightblue" d="M241.396,-56.324C231.544,-48.2631 216.649,-36.0765 204.785,-26.3695"/>
<polygon fill="midnightblue" stroke="midnightblue" points="206.753,-23.4575 196.797,-19.8339 202.32,-28.8752 206.753,-23.4575"/>
</g>
<!-- Node5 -->
<g id="node5" class="node"><title>Node5</title>
<polygon fill="white" stroke="#bfbfbf" points="226.5,-0.5 226.5,-19.5 277.5,-19.5 277.5,-0.5 226.5,-0.5"/>
<text text-anchor="middle" x="252" y="-7.5" font-family="Helvetica,sans-Serif" font-size="10.00">unistd.h</text>
</g>
<!-- Node1&#45;&gt;Node5 -->
<g id="edge4" class="edge"><title>Node1&#45;&gt;Node5</title>
<path fill="none" stroke="midnightblue" d="M252,-56.083C252,-49.0059 252,-38.8611 252,-29.9865"/>
<polygon fill="midnightblue" stroke="midnightblue" points="255.5,-29.751 252,-19.7511 248.5,-29.7511 255.5,-29.751"/>
</g>
<!-- Node6 -->
<g id="node6" class="node"><title>Node6</title>
<polygon fill="white" stroke="#bfbfbf" points="296,-0.5 296,-19.5 342,-19.5 342,-0.5 296,-0.5"/>
<text text-anchor="middle" x="319" y="-7.5" font-family="Helvetica,sans-Serif" font-size="10.00">stdio.h</text>
</g>
<!-- Node1&#45;&gt;Node6 -->
<g id="edge5" class="edge"><title>Node1&#45;&gt;Node6</title>
<path fill="none" stroke="midnightblue" d="M262.765,-56.324C272.766,-48.2631 287.887,-36.0765 299.93,-26.3695"/>
<polygon fill="midnightblue" stroke="midnightblue" points="302.45,-28.8343 308.039,-19.8339 298.057,-23.3841 302.45,-28.8343"/>
</g>
<!-- Node7 -->
<g id="node7" class="node"><title>Node7</title>
<polygon fill="white" stroke="#bfbfbf" points="360.5,-0.5 360.5,-19.5 489.5,-19.5 489.5,-0.5 360.5,-0.5"/>
<text text-anchor="middle" x="425" y="-7.5" font-family="Helvetica,sans-Serif" font-size="10.00">drivers/drv_pwm_output.h</text>
</g>
<!-- Node1&#45;&gt;Node7 -->
<g id="edge6" class="edge"><title>Node1&#45;&gt;Node7</title>
<path fill="none" stroke="midnightblue" d="M279.412,-56.4435C308.769,-47.2801 355.519,-32.6876 388.096,-22.5192"/>
<polygon fill="midnightblue" stroke="midnightblue" points="389.213,-25.8371 397.716,-19.5164 387.127,-19.1551 389.213,-25.8371"/>
</g>
<!-- Node8 -->
<g id="node8" class="node"><title>Node8</title>
<polygon fill="white" stroke="#bfbfbf" points="507.5,-0.5 507.5,-19.5 628.5,-19.5 628.5,-0.5 507.5,-0.5"/>
<text text-anchor="middle" x="568" y="-7.5" font-family="Helvetica,sans-Serif" font-size="10.00">systemlib/mixer/mixer.h</text>
</g>
<!-- Node1&#45;&gt;Node8 -->
<g id="edge7" class="edge"><title>Node1&#45;&gt;Node8</title>
<path fill="none" stroke="midnightblue" d="M302.071,-56.4435C358.006,-46.8851 448.508,-31.4195 508.137,-21.2298"/>
<polygon fill="midnightblue" stroke="midnightblue" points="508.896,-24.6509 518.163,-19.5164 507.716,-17.751 508.896,-24.6509"/>
</g>
</g>
</svg>
