<?xml version="1.0" encoding="UTF-8" standalone="no"?>
<!DOCTYPE svg PUBLIC "-//W3C//DTD SVG 1.1//EN"
 "http://www.w3.org/Graphics/SVG/1.1/DTD/svg11.dtd">
<!-- Generated by graphviz version 2.36.0 (20140111.2315)
 -->
<!-- Title: setup_failsafe_mixing Pages: 1 -->
<svg width="418pt" height="306pt"
 viewBox="0.00 0.00 418.00 306.00" xmlns="http://www.w3.org/2000/svg" xmlns:xlink="http://www.w3.org/1999/xlink">
<g id="graph0" class="graph" transform="scale(1 1) rotate(0) translate(4 302)">
<title>setup_failsafe_mixing</title>
<polygon fill="white" stroke="none" points="-4,4 -4,-302 414,-302 414,4 -4,4"/>
<!-- Node1 -->
<g id="node1" class="node"><title>Node1</title>
<polygon fill="#bfbfbf" stroke="black" points="0.5,-57.5 0.5,-76.5 111.5,-76.5 111.5,-57.5 0.5,-57.5"/>
<text text-anchor="middle" x="56" y="-64.5" font-family="Helvetica,sans-Serif" font-size="10.00">setup_failsafe_mixing</text>
</g>
<!-- Node2 -->
<g id="node2" class="node"><title>Node2</title>
<g id="a_node2"><a xlink:href="px4__mixer_8pde.html#aceeb68821a28b15ebc4e8317810a463d" target="_top" xlink:title="create_mixer_file">
<polygon fill="white" stroke="black" points="148.5,-133.5 148.5,-152.5 239.5,-152.5 239.5,-133.5 148.5,-133.5"/>
<text text-anchor="middle" x="194" y="-140.5" font-family="Helvetica,sans-Serif" font-size="10.00">create_mixer_file</text>
</a>
</g>
</g>
<!-- Node1&#45;&gt;Node2 -->
<g id="edge1" class="edge"><title>Node1&#45;&gt;Node2</title>
<path fill="none" stroke="midnightblue" d="M74.2245,-76.6255C97.6256,-89.7025 139.666,-113.196 166.939,-128.437"/>
<polygon fill="midnightblue" stroke="midnightblue" points="165.479,-131.63 175.915,-133.453 168.893,-125.519 165.479,-131.63"/>
</g>
<!-- Node7 -->
<g id="node7" class="node"><title>Node7</title>
<g id="a_node7"><a doxygen="/home/ac1054/Documents/JSBSim/ardupilot/docs/tags/libraries:../libraries/" xlink:href="../libraries/classRC__Channel.html#a9c60b41a2854338f60e26fdf95b4b044" target="_top" xlink:title="RC_Channel::rc_channel">
<polygon fill="white" stroke="black" points="280,-76.5 280,-95.5 406,-95.5 406,-76.5 280,-76.5"/>
<text text-anchor="middle" x="343" y="-83.5" font-family="Helvetica,sans-Serif" font-size="10.00">RC_Channel::rc_channel</text>
</a>
</g>
</g>
<!-- Node1&#45;&gt;Node7 -->
<g id="edge10" class="edge"><title>Node1&#45;&gt;Node7</title>
<path fill="none" stroke="midnightblue" d="M111.614,-70.6409C156.505,-73.6337 220.489,-77.8993 269.64,-81.176"/>
<polygon fill="midnightblue" stroke="midnightblue" points="269.68,-84.6864 279.891,-81.8594 270.146,-77.7019 269.68,-84.6864"/>
</g>
<!-- Node8 -->
<g id="node8" class="node"><title>Node8</title>
<g id="a_node8"><a doxygen="/home/ac1054/Documents/JSBSim/ardupilot/docs/tags/libraries:../libraries/" xlink:href="../libraries/classRCMapper.html#a869e1086eb9bdf12f46595e49c8f2915" target="_top" xlink:title="RCMapper::throttle">
<polygon fill="white" stroke="black" points="293,-38.5 293,-57.5 393,-57.5 393,-38.5 293,-38.5"/>
<text text-anchor="middle" x="343" y="-45.5" font-family="Helvetica,sans-Serif" font-size="10.00">RCMapper::throttle</text>
</a>
</g>
</g>
<!-- Node1&#45;&gt;Node8 -->
<g id="edge9" class="edge"><title>Node1&#45;&gt;Node8</title>
<path fill="none" stroke="midnightblue" d="M111.614,-63.3591C160.606,-60.0929 232.338,-55.3108 282.713,-51.9524"/>
<polygon fill="midnightblue" stroke="midnightblue" points="283.062,-55.4371 292.807,-51.2796 282.596,-48.4526 283.062,-55.4371"/>
</g>
<!-- Node10 -->
<g id="node10" class="node"><title>Node10</title>
<g id="a_node10"><a doxygen="/home/ac1054/Documents/JSBSim/ardupilot/docs/tags/libraries:../libraries/" xlink:href="../libraries/AP__Math_8cpp.html#ac5d9502aca91c97f523fd9b35590215f" target="_top" xlink:title="constrain_int16">
<polygon fill="white" stroke="black" points="152.5,-0.5 152.5,-19.5 235.5,-19.5 235.5,-0.5 152.5,-0.5"/>
<text text-anchor="middle" x="194" y="-7.5" font-family="Helvetica,sans-Serif" font-size="10.00">constrain_int16</text>
</a>
</g>
</g>
<!-- Node1&#45;&gt;Node10 -->
<g id="edge11" class="edge"><title>Node1&#45;&gt;Node10</title>
<path fill="none" stroke="midnightblue" d="M79.7633,-57.4595C101.926,-48.1706 135.822,-33.9642 160.755,-23.5143"/>
<polygon fill="midnightblue" stroke="midnightblue" points="162.293,-26.6651 170.162,-19.5716 159.587,-20.2092 162.293,-26.6651"/>
</g>
<!-- Node3 -->
<g id="node3" class="node"><title>Node3</title>
<g id="a_node3"><a doxygen="/home/ac1054/Documents/JSBSim/ardupilot/docs/tags/libraries:../libraries/" xlink:href="../libraries/classRC__Channel__aux.html#aaf15d56ff0c0d8f47ca0f97b155622f4" target="_top" xlink:title="RC_Channel_aux::channel\l_function">
<polygon fill="white" stroke="black" points="276,-229 276,-259 410,-259 410,-229 276,-229"/>
<text text-anchor="start" x="284" y="-247" font-family="Helvetica,sans-Serif" font-size="10.00">RC_Channel_aux::channel</text>
<text text-anchor="middle" x="343" y="-236" font-family="Helvetica,sans-Serif" font-size="10.00">_function</text>
</a>
</g>
</g>
<!-- Node2&#45;&gt;Node3 -->
<g id="edge2" class="edge"><title>Node2&#45;&gt;Node3</title>
<path fill="none" stroke="midnightblue" d="M203.031,-152.681C216.599,-168.497 245.57,-200.014 276,-219 279.148,-220.964 282.474,-222.813 285.893,-224.547"/>
<polygon fill="midnightblue" stroke="midnightblue" points="284.561,-227.788 295.1,-228.868 287.535,-221.451 284.561,-227.788"/>
</g>
<!-- Node4 -->
<g id="node4" class="node"><title>Node4</title>
<g id="a_node4"><a doxygen="/home/ac1054/Documents/JSBSim/ardupilot/docs/tags/libraries:../libraries/" xlink:href="../libraries/classRCMapper.html#ab0fcd136c54ad131dd3d40816264bcba" target="_top" xlink:title="RCMapper::pitch">
<polygon fill="white" stroke="black" points="297.5,-190.5 297.5,-209.5 388.5,-209.5 388.5,-190.5 297.5,-190.5"/>
<text text-anchor="middle" x="343" y="-197.5" font-family="Helvetica,sans-Serif" font-size="10.00">RCMapper::pitch</text>
</a>
</g>
</g>
<!-- Node2&#45;&gt;Node4 -->
<g id="edge3" class="edge"><title>Node2&#45;&gt;Node4</title>
<path fill="none" stroke="midnightblue" d="M213.3,-152.607C229.487,-160.855 253.899,-172.694 276,-181 282.08,-183.285 288.56,-185.457 294.995,-187.462"/>
<polygon fill="midnightblue" stroke="midnightblue" points="294.423,-190.944 305.007,-190.466 296.435,-184.24 294.423,-190.944"/>
</g>
<!-- Node5 -->
<g id="node5" class="node"><title>Node5</title>
<g id="a_node5"><a doxygen="/home/ac1054/Documents/JSBSim/ardupilot/docs/tags/libraries:../libraries/" xlink:href="../libraries/classRCMapper.html#a4cecd4df7849415b9d4afc63c1dc9919" target="_top" xlink:title="RCMapper::yaw">
<polygon fill="white" stroke="black" points="299,-152.5 299,-171.5 387,-171.5 387,-152.5 299,-152.5"/>
<text text-anchor="middle" x="343" y="-159.5" font-family="Helvetica,sans-Serif" font-size="10.00">RCMapper::yaw</text>
</a>
</g>
</g>
<!-- Node2&#45;&gt;Node5 -->
<g id="edge4" class="edge"><title>Node2&#45;&gt;Node5</title>
<path fill="none" stroke="midnightblue" d="M239.504,-148.752C254.962,-150.75 272.458,-153.012 288.563,-155.093"/>
<polygon fill="midnightblue" stroke="midnightblue" points="288.543,-158.62 298.909,-156.43 289.44,-151.677 288.543,-158.62"/>
</g>
<!-- Node6 -->
<g id="node6" class="node"><title>Node6</title>
<g id="a_node6"><a doxygen="/home/ac1054/Documents/JSBSim/ardupilot/docs/tags/libraries:../libraries/" xlink:href="../libraries/classRCMapper.html#af0d2e2d369f3574ed0a43bb80745572c" target="_top" xlink:title="RCMapper::roll">
<polygon fill="white" stroke="black" points="301.5,-114.5 301.5,-133.5 384.5,-133.5 384.5,-114.5 301.5,-114.5"/>
<text text-anchor="middle" x="343" y="-121.5" font-family="Helvetica,sans-Serif" font-size="10.00">RCMapper::roll</text>
</a>
</g>
</g>
<!-- Node2&#45;&gt;Node6 -->
<g id="edge5" class="edge"><title>Node2&#45;&gt;Node6</title>
<path fill="none" stroke="midnightblue" d="M239.504,-137.248C255.739,-135.149 274.222,-132.76 290.98,-130.594"/>
<polygon fill="midnightblue" stroke="midnightblue" points="291.687,-134.032 301.156,-129.279 290.79,-127.09 291.687,-134.032"/>
</g>
<!-- Node2&#45;&gt;Node7 -->
<g id="edge6" class="edge"><title>Node2&#45;&gt;Node7</title>
<path fill="none" stroke="midnightblue" d="M213.3,-133.393C229.487,-125.145 253.899,-113.306 276,-105 282.08,-102.715 288.56,-100.543 294.995,-98.5378"/>
<polygon fill="midnightblue" stroke="midnightblue" points="296.435,-101.76 305.007,-95.5336 294.423,-95.0555 296.435,-101.76"/>
</g>
<!-- Node2&#45;&gt;Node8 -->
<g id="edge7" class="edge"><title>Node2&#45;&gt;Node8</title>
<path fill="none" stroke="midnightblue" d="M202.649,-133.297C215.881,-117.159 244.652,-84.8213 276,-67 279.895,-64.7856 284.069,-62.8119 288.356,-61.0559"/>
<polygon fill="midnightblue" stroke="midnightblue" points="289.686,-64.2959 297.856,-57.5508 287.262,-57.7287 289.686,-64.2959"/>
</g>
<!-- Node9 -->
<g id="node9" class="node"><title>Node9</title>
<g id="a_node9"><a doxygen="/home/ac1054/Documents/JSBSim/ardupilot/docs/tags/libraries:../libraries/" xlink:href="../libraries/classRC__Channel.html#a34a93842b1cf847373104b682fa28cd5" target="_top" xlink:title="RC_Channel::get_reverse">
<polygon fill="white" stroke="black" points="278,-278.5 278,-297.5 408,-297.5 408,-278.5 278,-278.5"/>
<text text-anchor="middle" x="343" y="-285.5" font-family="Helvetica,sans-Serif" font-size="10.00">RC_Channel::get_reverse</text>
</a>
</g>
</g>
<!-- Node2&#45;&gt;Node9 -->
<g id="edge8" class="edge"><title>Node2&#45;&gt;Node9</title>
<path fill="none" stroke="midnightblue" d="M198.584,-152.797C207.698,-176.332 234.053,-236.439 276,-268 279.139,-270.362 282.558,-272.447 286.133,-274.287"/>
<polygon fill="midnightblue" stroke="midnightblue" points="284.714,-277.487 295.272,-278.376 287.573,-271.097 284.714,-277.487"/>
</g>
</g>
</svg>
