<?xml version="1.0" encoding="UTF-8" standalone="no"?>
<!DOCTYPE svg PUBLIC "-//W3C//DTD SVG 1.1//EN"
 "http://www.w3.org/Graphics/SVG/1.1/DTD/svg11.dtd">
<!-- Generated by graphviz version 2.36.0 (20140111.2315)
 -->
<!-- Title: report_ins Pages: 1 -->
<svg width="342pt" height="164pt"
 viewBox="0.00 0.00 342.00 164.00" xmlns="http://www.w3.org/2000/svg" xmlns:xlink="http://www.w3.org/1999/xlink">
<g id="graph0" class="graph" transform="scale(1 1) rotate(0) translate(4 160)">
<title>report_ins</title>
<polygon fill="white" stroke="none" points="-4,4 -4,-160 338,-160 338,4 -4,4"/>
<!-- Node1 -->
<g id="node1" class="node"><title>Node1</title>
<polygon fill="#bfbfbf" stroke="black" points="0.5,-76.5 0.5,-95.5 59.5,-95.5 59.5,-76.5 0.5,-76.5"/>
<text text-anchor="middle" x="30" y="-83.5" font-family="Helvetica,sans-Serif" font-size="10.00">report_ins</text>
</g>
<!-- Node2 -->
<g id="node2" class="node"><title>Node2</title>
<g id="a_node2"><a xlink:href="setup_8pde.html#a1fb1d3a7a299b220df395431b4241406" target="_top" xlink:title="print_divider">
<polygon fill="white" stroke="black" points="111.5,-136.5 111.5,-155.5 180.5,-155.5 180.5,-136.5 111.5,-136.5"/>
<text text-anchor="middle" x="146" y="-143.5" font-family="Helvetica,sans-Serif" font-size="10.00">print_divider</text>
</a>
</g>
</g>
<!-- Node1&#45;&gt;Node2 -->
<g id="edge1" class="edge"><title>Node1&#45;&gt;Node2</title>
<path fill="none" stroke="midnightblue" d="M44.4956,-95.597C57.3385,-104.464 77.4086,-117.642 96,-127 99.8508,-128.938 103.949,-130.808 108.073,-132.569"/>
<polygon fill="midnightblue" stroke="midnightblue" points="107.054,-135.933 117.636,-136.461 109.693,-129.45 107.054,-135.933"/>
</g>
<!-- Node3 -->
<g id="node3" class="node"><title>Node3</title>
<g id="a_node3"><a xlink:href="setup_8pde.html#a73ed1825f8510fd8ac4dc0eecd6b1dd4" target="_top" xlink:title="print_gyro_offsets">
<polygon fill="white" stroke="black" points="98.5,-98.5 98.5,-117.5 193.5,-117.5 193.5,-98.5 98.5,-98.5"/>
<text text-anchor="middle" x="146" y="-105.5" font-family="Helvetica,sans-Serif" font-size="10.00">print_gyro_offsets</text>
</a>
</g>
</g>
<!-- Node1&#45;&gt;Node3 -->
<g id="edge2" class="edge"><title>Node1&#45;&gt;Node3</title>
<path fill="none" stroke="midnightblue" d="M59.767,-91.5515C68.5727,-93.2509 78.581,-95.1823 88.5662,-97.1093"/>
<polygon fill="midnightblue" stroke="midnightblue" points="88.0162,-100.568 98.4982,-99.026 89.3426,-93.6944 88.0162,-100.568"/>
</g>
<!-- Node5 -->
<g id="node5" class="node"><title>Node5</title>
<g id="a_node5"><a xlink:href="setup_8pde.html#aef969cb1beb1bcf8c8cfd2965d48a7bd" target="_top" xlink:title="print_accel_offsets\l_and_scaling">
<polygon fill="white" stroke="black" points="96.5,-49 96.5,-79 195.5,-79 195.5,-49 96.5,-49"/>
<text text-anchor="start" x="104.5" y="-67" font-family="Helvetica,sans-Serif" font-size="10.00">print_accel_offsets</text>
<text text-anchor="middle" x="146" y="-56" font-family="Helvetica,sans-Serif" font-size="10.00">_and_scaling</text>
</a>
</g>
</g>
<!-- Node1&#45;&gt;Node5 -->
<g id="edge4" class="edge"><title>Node1&#45;&gt;Node5</title>
<path fill="none" stroke="midnightblue" d="M59.767,-80.4485C67.9048,-78.878 77.0698,-77.1093 86.2944,-75.3291"/>
<polygon fill="midnightblue" stroke="midnightblue" points="87.1261,-78.7333 96.2817,-73.4018 85.7996,-71.8601 87.1261,-78.7333"/>
</g>
<!-- Node8 -->
<g id="node8" class="node"><title>Node8</title>
<g id="a_node8"><a xlink:href="setup_8pde.html#a6e743a637a45663d659643a181a7290c" target="_top" xlink:title="print_blanks">
<polygon fill="white" stroke="black" points="111.5,-10.5 111.5,-29.5 180.5,-29.5 180.5,-10.5 111.5,-10.5"/>
<text text-anchor="middle" x="146" y="-17.5" font-family="Helvetica,sans-Serif" font-size="10.00">print_blanks</text>
</a>
</g>
</g>
<!-- Node1&#45;&gt;Node8 -->
<g id="edge7" class="edge"><title>Node1&#45;&gt;Node8</title>
<path fill="none" stroke="midnightblue" d="M42.3766,-76.3792C54.9026,-66.1294 75.9355,-49.9086 96,-39 99.5508,-37.0695 103.34,-35.2382 107.179,-33.5296"/>
<polygon fill="midnightblue" stroke="midnightblue" points="108.835,-36.6309 116.715,-29.5485 106.138,-30.1712 108.835,-36.6309"/>
</g>
<!-- Node4 -->
<g id="node4" class="node"><title>Node4</title>
<g id="a_node4"><a doxygen="/home/ac1054/Documents/JSBSim/ardupilot/docs/tags/libraries:../libraries/" xlink:href="../libraries/classAP__InertialSensor.html#a5b17cd4d4b6156fc012976bb5617aa9a" target="_top" xlink:title="AP_InertialSensor::\lget_gyro_offsets">
<polygon fill="white" stroke="black" points="232.5,-98 232.5,-128 333.5,-128 333.5,-98 232.5,-98"/>
<text text-anchor="start" x="240.5" y="-116" font-family="Helvetica,sans-Serif" font-size="10.00">AP_InertialSensor::</text>
<text text-anchor="middle" x="283" y="-105" font-family="Helvetica,sans-Serif" font-size="10.00">get_gyro_offsets</text>
</a>
</g>
</g>
<!-- Node3&#45;&gt;Node4 -->
<g id="edge3" class="edge"><title>Node3&#45;&gt;Node4</title>
<path fill="none" stroke="midnightblue" d="M193.838,-109.735C203.009,-110.074 212.745,-110.435 222.271,-110.788"/>
<polygon fill="midnightblue" stroke="midnightblue" points="222.366,-114.294 232.489,-111.166 222.625,-107.298 222.366,-114.294"/>
</g>
<!-- Node6 -->
<g id="node6" class="node"><title>Node6</title>
<g id="a_node6"><a doxygen="/home/ac1054/Documents/JSBSim/ardupilot/docs/tags/libraries:../libraries/" xlink:href="../libraries/classAP__InertialSensor.html#a676ecc5140643be71813993fa62bf6f0" target="_top" xlink:title="AP_InertialSensor::\lget_accel_offsets">
<polygon fill="white" stroke="black" points="232.5,-49 232.5,-79 333.5,-79 333.5,-49 232.5,-49"/>
<text text-anchor="start" x="240.5" y="-67" font-family="Helvetica,sans-Serif" font-size="10.00">AP_InertialSensor::</text>
<text text-anchor="middle" x="283" y="-56" font-family="Helvetica,sans-Serif" font-size="10.00">get_accel_offsets</text>
</a>
</g>
</g>
<!-- Node5&#45;&gt;Node6 -->
<g id="edge5" class="edge"><title>Node5&#45;&gt;Node6</title>
<path fill="none" stroke="midnightblue" d="M195.738,-64C204.315,-64 213.331,-64 222.169,-64"/>
<polygon fill="midnightblue" stroke="midnightblue" points="222.426,-67.5001 232.426,-64 222.426,-60.5001 222.426,-67.5001"/>
</g>
<!-- Node7 -->
<g id="node7" class="node"><title>Node7</title>
<g id="a_node7"><a doxygen="/home/ac1054/Documents/JSBSim/ardupilot/docs/tags/libraries:../libraries/" xlink:href="../libraries/classAP__InertialSensor.html#a7dcef05a1ae56c202b01254b1f223b02" target="_top" xlink:title="AP_InertialSensor::\lget_accel_scale">
<polygon fill="white" stroke="black" points="232.5,-0 232.5,-30 333.5,-30 333.5,-0 232.5,-0"/>
<text text-anchor="start" x="240.5" y="-18" font-family="Helvetica,sans-Serif" font-size="10.00">AP_InertialSensor::</text>
<text text-anchor="middle" x="283" y="-7" font-family="Helvetica,sans-Serif" font-size="10.00">get_accel_scale</text>
</a>
</g>
</g>
<!-- Node5&#45;&gt;Node7 -->
<g id="edge6" class="edge"><title>Node5&#45;&gt;Node7</title>
<path fill="none" stroke="midnightblue" d="M188.606,-48.8986C201.951,-44.0549 216.887,-38.6336 230.834,-33.5715"/>
<polygon fill="midnightblue" stroke="midnightblue" points="232.093,-36.8378 240.299,-30.1359 229.705,-30.2578 232.093,-36.8378"/>
</g>
</g>
</svg>
