<?xml version="1.0" encoding="UTF-8" standalone="no"?>
<!DOCTYPE svg PUBLIC "-//W3C//DTD SVG 1.1//EN"
 "http://www.w3.org/Graphics/SVG/1.1/DTD/svg11.dtd">
<!-- Generated by graphviz version 2.36.0 (20140111.2315)
 -->
<!-- Title: setup_show Pages: 1 -->
<svg width="222pt" height="104pt"
 viewBox="0.00 0.00 222.00 104.00" xmlns="http://www.w3.org/2000/svg" xmlns:xlink="http://www.w3.org/1999/xlink">
<g id="graph0" class="graph" transform="scale(1 1) rotate(0) translate(4 100)">
<title>setup_show</title>
<polygon fill="white" stroke="none" points="-4,4 -4,-100 218,-100 218,4 -4,4"/>
<!-- Node1 -->
<g id="node1" class="node"><title>Node1</title>
<polygon fill="#bfbfbf" stroke="black" points="0.5,-38.5 0.5,-57.5 69.5,-57.5 69.5,-38.5 0.5,-38.5"/>
<text text-anchor="middle" x="35" y="-45.5" font-family="Helvetica,sans-Serif" font-size="10.00">setup_show</text>
</g>
<!-- Node2 -->
<g id="node2" class="node"><title>Node2</title>
<g id="a_node2"><a doxygen="/home/ac1054/Documents/JSBSim/ardupilot/docs/tags/libraries:../libraries/" xlink:href="../libraries/classAP__Param.html#a3e646a4ec73842265e47d9ccfe0ced9d" target="_top" xlink:title="AP_Param::find">
<polygon fill="white" stroke="black" points="117,-76.5 117,-95.5 203,-95.5 203,-76.5 117,-76.5"/>
<text text-anchor="middle" x="160" y="-83.5" font-family="Helvetica,sans-Serif" font-size="10.00">AP_Param::find</text>
</a>
</g>
</g>
<!-- Node1&#45;&gt;Node2 -->
<g id="edge1" class="edge"><title>Node1&#45;&gt;Node2</title>
<path fill="none" stroke="midnightblue" d="M67.0381,-57.589C82.4792,-62.3594 101.348,-68.1888 117.966,-73.3229"/>
<polygon fill="midnightblue" stroke="midnightblue" points="117.384,-76.8063 127.972,-76.4141 119.451,-70.1182 117.384,-76.8063"/>
</g>
<!-- Node3 -->
<g id="node3" class="node"><title>Node3</title>
<g id="a_node3"><a doxygen="/home/ac1054/Documents/JSBSim/ardupilot/docs/tags/libraries:../libraries/" xlink:href="../libraries/classAP__Param.html#a8196ebda4b83b54e27106e85b8b3f49c" target="_top" xlink:title="AP_Param::show">
<polygon fill="white" stroke="black" points="113.5,-38.5 113.5,-57.5 206.5,-57.5 206.5,-38.5 113.5,-38.5"/>
<text text-anchor="middle" x="160" y="-45.5" font-family="Helvetica,sans-Serif" font-size="10.00">AP_Param::show</text>
</a>
</g>
</g>
<!-- Node1&#45;&gt;Node3 -->
<g id="edge2" class="edge"><title>Node1&#45;&gt;Node3</title>
<path fill="none" stroke="midnightblue" d="M69.6103,-48C80.0629,-48 91.8792,-48 103.415,-48"/>
<polygon fill="midnightblue" stroke="midnightblue" points="103.44,-51.5001 113.44,-48 103.44,-44.5001 103.44,-51.5001"/>
</g>
<!-- Node4 -->
<g id="node4" class="node"><title>Node4</title>
<g id="a_node4"><a doxygen="/home/ac1054/Documents/JSBSim/ardupilot/docs/tags/libraries:../libraries/" xlink:href="../libraries/classAP__Param.html#a091ba1553c935207c783991a72cf59f0" target="_top" xlink:title="AP_Param::show_all">
<polygon fill="white" stroke="black" points="106,-0.5 106,-19.5 214,-19.5 214,-0.5 106,-0.5"/>
<text text-anchor="middle" x="160" y="-7.5" font-family="Helvetica,sans-Serif" font-size="10.00">AP_Param::show_all</text>
</a>
</g>
</g>
<!-- Node1&#45;&gt;Node4 -->
<g id="edge3" class="edge"><title>Node1&#45;&gt;Node4</title>
<path fill="none" stroke="midnightblue" d="M67.0381,-38.411C82.4792,-33.6406 101.348,-27.8112 117.966,-22.6771"/>
<polygon fill="midnightblue" stroke="midnightblue" points="119.451,-25.8818 127.972,-19.5859 117.384,-19.1937 119.451,-25.8818"/>
</g>
</g>
</svg>
