<?xml version="1.0" encoding="UTF-8" standalone="no"?>
<!DOCTYPE svg PUBLIC "-//W3C//DTD SVG 1.1//EN"
 "http://www.w3.org/Graphics/SVG/1.1/DTD/svg11.dtd">
<!-- Generated by graphviz version 2.36.0 (20140111.2315)
 -->
<!-- Title: print_blanks Pages: 1 -->
<svg width="334pt" height="142pt"
 viewBox="0.00 0.00 334.00 142.00" xmlns="http://www.w3.org/2000/svg" xmlns:xlink="http://www.w3.org/1999/xlink">
<g id="graph0" class="graph" transform="scale(1 1) rotate(0) translate(4 138)">
<title>print_blanks</title>
<polygon fill="white" stroke="none" points="-4,4 -4,-138 330,-138 330,4 -4,4"/>
<!-- Node1 -->
<g id="node1" class="node"><title>Node1</title>
<polygon fill="#bfbfbf" stroke="black" points="0.5,-38.5 0.5,-57.5 69.5,-57.5 69.5,-38.5 0.5,-38.5"/>
<text text-anchor="middle" x="35" y="-45.5" font-family="Helvetica,sans-Serif" font-size="10.00">print_blanks</text>
</g>
<!-- Node2 -->
<g id="node2" class="node"><title>Node2</title>
<g id="a_node2"><a xlink:href="setup_8pde.html#afa7955d7bdbfeebe4e27bc388a2281b8" target="_top" xlink:title="report_compass">
<polygon fill="white" stroke="black" points="106,-76.5 106,-95.5 192,-95.5 192,-76.5 106,-76.5"/>
<text text-anchor="middle" x="149" y="-83.5" font-family="Helvetica,sans-Serif" font-size="10.00">report_compass</text>
</a>
</g>
</g>
<!-- Node1&#45;&gt;Node2 -->
<g id="edge1" class="edge"><title>Node1&#45;&gt;Node2</title>
<path fill="none" stroke="midnightblue" d="M73.8027,-60.8259C88.8308,-65.9247 105.82,-71.6891 119.747,-76.4141"/>
<polygon fill="midnightblue" stroke="midnightblue" points="74.8567,-57.4876 64.2623,-57.589 72.6076,-64.1165 74.8567,-57.4876"/>
</g>
<!-- Node5 -->
<g id="node5" class="node"><title>Node5</title>
<g id="a_node5"><a xlink:href="setup_8pde.html#a8ab04b308707332fe838099238ef003e" target="_top" xlink:title="report_ins">
<polygon fill="white" stroke="black" points="119.5,-38.5 119.5,-57.5 178.5,-57.5 178.5,-38.5 119.5,-38.5"/>
<text text-anchor="middle" x="149" y="-45.5" font-family="Helvetica,sans-Serif" font-size="10.00">report_ins</text>
</a>
</g>
</g>
<!-- Node1&#45;&gt;Node5 -->
<g id="edge4" class="edge"><title>Node1&#45;&gt;Node5</title>
<path fill="none" stroke="midnightblue" d="M79.9567,-48C93.1929,-48 107.371,-48 119.341,-48"/>
<polygon fill="midnightblue" stroke="midnightblue" points="79.6037,-44.5001 69.6037,-48 79.6037,-51.5001 79.6037,-44.5001"/>
</g>
<!-- Node7 -->
<g id="node7" class="node"><title>Node7</title>
<g id="a_node7"><a xlink:href="setup_8pde.html#a83b9b58203609bfef9631a9a6f8a8550" target="_top" xlink:title="report_radio">
<polygon fill="white" stroke="black" points="115,-0.5 115,-19.5 183,-19.5 183,-0.5 115,-0.5"/>
<text text-anchor="middle" x="149" y="-7.5" font-family="Helvetica,sans-Serif" font-size="10.00">report_radio</text>
</a>
</g>
</g>
<!-- Node1&#45;&gt;Node7 -->
<g id="edge6" class="edge"><title>Node1&#45;&gt;Node7</title>
<path fill="none" stroke="midnightblue" d="M73.8027,-35.1741C88.8308,-30.0753 105.82,-24.3109 119.747,-19.5859"/>
<polygon fill="midnightblue" stroke="midnightblue" points="72.6076,-31.8835 64.2623,-38.411 74.8567,-38.5124 72.6076,-31.8835"/>
</g>
<!-- Node3 -->
<g id="node3" class="node"><title>Node3</title>
<g id="a_node3"><a xlink:href="setup_8pde.html#a7afcc5db23b9bda4f2b5f16190435e9a" target="_top" xlink:title="setup_compass">
<polygon fill="white" stroke="black" points="234,-114.5 234,-133.5 320,-133.5 320,-114.5 234,-114.5"/>
<text text-anchor="middle" x="277" y="-121.5" font-family="Helvetica,sans-Serif" font-size="10.00">setup_compass</text>
</a>
</g>
</g>
<!-- Node2&#45;&gt;Node3 -->
<g id="edge2" class="edge"><title>Node2&#45;&gt;Node3</title>
<path fill="none" stroke="midnightblue" d="M191.564,-98.5353C208.705,-103.705 228.25,-109.599 244.215,-114.414"/>
<polygon fill="midnightblue" stroke="midnightblue" points="192.38,-95.1256 181.795,-95.589 190.359,-101.827 192.38,-95.1256"/>
</g>
<!-- Node4 -->
<g id="node4" class="node"><title>Node4</title>
<g id="a_node4"><a xlink:href="test_8pde.html#a5df620ce026d35d76972a50904d129ac" target="_top" xlink:title="test_mag">
<polygon fill="white" stroke="black" points="248.5,-76.5 248.5,-95.5 305.5,-95.5 305.5,-76.5 248.5,-76.5"/>
<text text-anchor="middle" x="277" y="-83.5" font-family="Helvetica,sans-Serif" font-size="10.00">test_mag</text>
</a>
</g>
</g>
<!-- Node2&#45;&gt;Node4 -->
<g id="edge3" class="edge"><title>Node2&#45;&gt;Node4</title>
<path fill="none" stroke="midnightblue" d="M202.465,-86C218.185,-86 234.807,-86 248.262,-86"/>
<polygon fill="midnightblue" stroke="midnightblue" points="202.307,-82.5001 192.307,-86 202.307,-89.5001 202.307,-82.5001"/>
</g>
<!-- Node6 -->
<g id="node6" class="node"><title>Node6</title>
<g id="a_node6"><a xlink:href="setup_8pde.html#a40e71bdd3cbd0d9cbfa15e392d10f87c" target="_top" xlink:title="setup_accel_scale">
<polygon fill="white" stroke="black" points="228,-38.5 228,-57.5 326,-57.5 326,-38.5 228,-38.5"/>
<text text-anchor="middle" x="277" y="-45.5" font-family="Helvetica,sans-Serif" font-size="10.00">setup_accel_scale</text>
</a>
</g>
</g>
<!-- Node5&#45;&gt;Node6 -->
<g id="edge5" class="edge"><title>Node5&#45;&gt;Node6</title>
<path fill="none" stroke="midnightblue" d="M188.946,-48C201.213,-48 214.912,-48 227.747,-48"/>
<polygon fill="midnightblue" stroke="midnightblue" points="188.591,-44.5001 178.591,-48 188.591,-51.5001 188.591,-44.5001"/>
</g>
<!-- Node8 -->
<g id="node8" class="node"><title>Node8</title>
<g id="a_node8"><a xlink:href="setup_8pde.html#ad54cec370c92deb89a727012fa605734" target="_top" xlink:title="setup_radio">
<polygon fill="white" stroke="black" points="243.5,-0.5 243.5,-19.5 310.5,-19.5 310.5,-0.5 243.5,-0.5"/>
<text text-anchor="middle" x="277" y="-7.5" font-family="Helvetica,sans-Serif" font-size="10.00">setup_radio</text>
</a>
</g>
</g>
<!-- Node7&#45;&gt;Node8 -->
<g id="edge7" class="edge"><title>Node7&#45;&gt;Node8</title>
<path fill="none" stroke="midnightblue" d="M193.471,-10C209.747,-10 227.953,-10 243.116,-10"/>
<polygon fill="midnightblue" stroke="midnightblue" points="193.105,-6.5001 183.105,-10 193.105,-13.5001 193.105,-6.5001"/>
</g>
</g>
</svg>
