<?xml version="1.0" encoding="UTF-8" standalone="no"?>
<!DOCTYPE svg PUBLIC "-//W3C//DTD SVG 1.1//EN"
 "http://www.w3.org/Graphics/SVG/1.1/DTD/svg11.dtd">
<!-- Generated by graphviz version 2.36.0 (20140111.2315)
 -->
<!-- Title: disarm_motors Pages: 1 -->
<svg width="616pt" height="38pt"
 viewBox="0.00 0.00 616.00 38.00" xmlns="http://www.w3.org/2000/svg" xmlns:xlink="http://www.w3.org/1999/xlink">
<g id="graph0" class="graph" transform="scale(1 1) rotate(0) translate(4 34)">
<title>disarm_motors</title>
<polygon fill="white" stroke="none" points="-4,4 -4,-34 612,-34 612,4 -4,4"/>
<!-- Node1 -->
<g id="node1" class="node"><title>Node1</title>
<polygon fill="#bfbfbf" stroke="black" points="0.5,-5.5 0.5,-24.5 81.5,-24.5 81.5,-5.5 0.5,-5.5"/>
<text text-anchor="middle" x="41" y="-12.5" font-family="Helvetica,sans-Serif" font-size="10.00">disarm_motors</text>
</g>
<!-- Node2 -->
<g id="node2" class="node"><title>Node2</title>
<g id="a_node2"><a xlink:href="landing_8pde.html#a1df24c8c6568cbc8c72b7406283bf068" target="_top" xlink:title="disarm_if_autoland\l_complete">
<polygon fill="white" stroke="black" points="118,-0 118,-30 216,-30 216,-0 118,-0"/>
<text text-anchor="start" x="126" y="-18" font-family="Helvetica,sans-Serif" font-size="10.00">disarm_if_autoland</text>
<text text-anchor="middle" x="167" y="-7" font-family="Helvetica,sans-Serif" font-size="10.00">_complete</text>
</a>
</g>
</g>
<!-- Node1&#45;&gt;Node2 -->
<g id="edge1" class="edge"><title>Node1&#45;&gt;Node2</title>
<path fill="none" stroke="midnightblue" d="M91.7839,-15C100.322,-15 109.181,-15 117.68,-15"/>
<polygon fill="midnightblue" stroke="midnightblue" points="91.5753,-11.5001 81.5753,-15 91.5753,-18.5001 91.5753,-11.5001"/>
</g>
<!-- Node3 -->
<g id="node3" class="node"><title>Node3</title>
<g id="a_node3"><a xlink:href="landing_8pde.html#a76d7ac00bf1a68b5db464de185d44847" target="_top" xlink:title="&#45;*&#45; tab&#45;width: 4; Mode: C++; c&#45;basic&#45;offset: 4; indent&#45;tabs&#45;mode: nil &#45;*&#45; ">
<polygon fill="white" stroke="black" points="252,-5.5 252,-24.5 316,-24.5 316,-5.5 252,-5.5"/>
<text text-anchor="middle" x="284" y="-12.5" font-family="Helvetica,sans-Serif" font-size="10.00">verify_land</text>
</a>
</g>
</g>
<!-- Node2&#45;&gt;Node3 -->
<g id="edge2" class="edge"><title>Node2&#45;&gt;Node3</title>
<path fill="none" stroke="midnightblue" d="M226.368,-15C235.143,-15 243.891,-15 251.794,-15"/>
<polygon fill="midnightblue" stroke="midnightblue" points="226.104,-11.5001 216.104,-15 226.104,-18.5001 226.104,-11.5001"/>
</g>
<!-- Node4 -->
<g id="node4" class="node"><title>Node4</title>
<g id="a_node4"><a xlink:href="commands__logic_8pde.html#a42358652e4033ff08d1056cc4d5bbab8" target="_top" xlink:title="verify_command">
<polygon fill="white" stroke="black" points="352.5,-5.5 352.5,-24.5 441.5,-24.5 441.5,-5.5 352.5,-5.5"/>
<text text-anchor="middle" x="397" y="-12.5" font-family="Helvetica,sans-Serif" font-size="10.00">verify_command</text>
</a>
</g>
</g>
<!-- Node3&#45;&gt;Node4 -->
<g id="edge3" class="edge"><title>Node3&#45;&gt;Node4</title>
<path fill="none" stroke="midnightblue" d="M326.242,-15C334.702,-15 343.636,-15 352.183,-15"/>
<polygon fill="midnightblue" stroke="midnightblue" points="326.215,-11.5001 316.215,-15 326.215,-18.5001 326.215,-11.5001"/>
</g>
<!-- Node5 -->
<g id="node5" class="node"><title>Node5</title>
<g id="a_node5"><a xlink:href="commands__logic_8pde.html#a072ff1b2f62a15fe354c2405089fd078" target="_top" xlink:title="verify_command_callback">
<polygon fill="white" stroke="black" points="478,-5.5 478,-24.5 608,-24.5 608,-5.5 478,-5.5"/>
<text text-anchor="middle" x="543" y="-12.5" font-family="Helvetica,sans-Serif" font-size="10.00">verify_command_callback</text>
</a>
</g>
</g>
<!-- Node4&#45;&gt;Node5 -->
<g id="edge4" class="edge"><title>Node4&#45;&gt;Node5</title>
<path fill="none" stroke="midnightblue" d="M451.752,-15C460.254,-15 469.121,-15 477.832,-15"/>
<polygon fill="midnightblue" stroke="midnightblue" points="451.596,-11.5001 441.596,-15 451.595,-18.5001 451.596,-11.5001"/>
</g>
</g>
</svg>
