<?xml version="1.0" encoding="UTF-8" standalone="no"?>
<!DOCTYPE svg PUBLIC "-//W3C//DTD SVG 1.1//EN"
 "http://www.w3.org/Graphics/SVG/1.1/DTD/svg11.dtd">
<!-- Generated by graphviz version 2.36.0 (20140111.2315)
 -->
<!-- Title: set_mode Pages: 1 -->
<!--zoomable 458 -->
<svg id="main" version="1.1" xmlns="http://www.w3.org/2000/svg" xmlns:xlink="http://www.w3.org/1999/xlink" xml:space="preserve" onload="init(evt)">
<style type="text/css"><![CDATA[
.edge:hover path { stroke: red; }
.edge:hover polygon { stroke: red; fill: red; }
]]></style>
<script type="text/javascript"><![CDATA[
var edges = document.getElementsByTagName('g');
if (edges && edges.length) {
  for (var i=0;i<edges.length;i++) {
    if (edges[i].id.substr(0,4)=='edge') {
      edges[i].setAttribute('class','edge');
    }
  }
}
]]></script>
        <defs>
                <circle id="rim" cx="0" cy="0" r="7"/>
                <circle id="rim2" cx="0" cy="0" r="3.5"/>
                <g id="zoomPlus">
                        <use xlink:href="#rim" fill="#404040">
                                <set attributeName="fill" to="#808080" begin="zoomplus.mouseover" end="zoomplus.mouseout"/>
                        </use>
                        <path d="M-4,0h8M0,-4v8" fill="none" stroke="white" stroke-width="1.5" pointer-events="none"/>
                </g>
                <g id="zoomMin">
                        <use xlink:href="#rim" fill="#404040">
                                <set attributeName="fill" to="#808080" begin="zoomminus.mouseover" end="zoomminus.mouseout"/>
                        </use>
                        <path d="M-4,0h8" fill="none" stroke="white" stroke-width="1.5" pointer-events="none"/>
                </g>
                <g id="dirArrow">
                        <path fill="none" stroke="white" stroke-width="1.5" d="M0,-3.0v7 M-2.5,-0.5L0,-3.0L2.5,-0.5"/>
                </g>
               <g id="resetDef">
                       <use xlink:href="#rim2" fill="#404040">
                               <set attributeName="fill" to="#808080" begin="reset.mouseover" end="reset.mouseout"/>
                       </use>
               </g>
        </defs>

<script type="text/javascript">
var viewWidth = 586;
var viewHeight = 458;
var sectionId = 'dynsection-24';
</script>
<script xlink:href="svgpan.js"/>
<svg id="graph" class="graph">
<g id="viewport">
<title>set_mode</title>
<polygon fill="white" stroke="none" points="-4,4 -4,-454 582,-454 582,4 -4,4"/>
<!-- Node1 -->
<g id="node1" class="node"><title>Node1</title>
<polygon fill="#bfbfbf" stroke="black" points="0.5,-228.5 0.5,-247.5 59.5,-247.5 59.5,-228.5 0.5,-228.5"/>
<text text-anchor="middle" x="30" y="-235.5" font-family="Helvetica,sans-Serif" font-size="10.00">set_mode</text>
</g>
<!-- Node2 -->
<g id="node2" class="node"><title>Node2</title>
<g id="a_node2"><a xlink:href="events_8pde.html#a3f3b6c96711997a5a63eaa4436ea097c" target="_top" xlink:title="failsafe_long_on_event">
<polygon fill="white" stroke="black" points="105,-430.5 105,-449.5 221,-449.5 221,-430.5 105,-430.5"/>
<text text-anchor="middle" x="163" y="-437.5" font-family="Helvetica,sans-Serif" font-size="10.00">failsafe_long_on_event</text>
</a>
</g>
</g>
<!-- Node1&#45;&gt;Node2 -->
<g id="edge1" class="edge"><title>Node1&#45;&gt;Node2</title>
<path fill="none" stroke="midnightblue" d="M32.2596,-257.675C35.725,-295.016 48.5987,-376.405 96,-421 100.082,-424.84 104.889,-427.911 110.019,-430.365"/>
<polygon fill="midnightblue" stroke="midnightblue" points="35.7395,-257.281 31.4585,-247.59 28.7615,-257.836 35.7395,-257.281"/>
</g>
<!-- Node4 -->
<g id="node4" class="node"><title>Node4</title>
<g id="a_node4"><a xlink:href="events_8pde.html#afd1ed491d5988a9aafccf86d9c95c0ce" target="_top" xlink:title="failsafe_short_off\l_event">
<polygon fill="white" stroke="black" points="117,-343 117,-373 209,-373 209,-343 117,-343"/>
<text text-anchor="start" x="125" y="-361" font-family="Helvetica,sans-Serif" font-size="10.00">failsafe_short_off</text>
<text text-anchor="middle" x="163" y="-350" font-family="Helvetica,sans-Serif" font-size="10.00">_event</text>
</a>
</g>
</g>
<!-- Node1&#45;&gt;Node4 -->
<g id="edge3" class="edge"><title>Node1&#45;&gt;Node4</title>
<path fill="none" stroke="midnightblue" d="M39.4854,-256.762C49.9629,-277.991 69.6762,-312.298 96,-333 102.164,-337.848 109.371,-341.834 116.714,-345.087"/>
<polygon fill="midnightblue" stroke="midnightblue" points="42.5437,-255.043 35.0954,-247.508 36.2192,-258.043 42.5437,-255.043"/>
</g>
<!-- Node6 -->
<g id="node6" class="node"><title>Node6</title>
<g id="a_node6"><a xlink:href="events_8pde.html#a6cc4db2101a0b686b4594a14ac4de049" target="_top" xlink:title="failsafe_short_on_event">
<polygon fill="white" stroke="black" points="103,-392.5 103,-411.5 223,-411.5 223,-392.5 103,-392.5"/>
<text text-anchor="middle" x="163" y="-399.5" font-family="Helvetica,sans-Serif" font-size="10.00">failsafe_short_on_event</text>
</a>
</g>
</g>
<!-- Node1&#45;&gt;Node6 -->
<g id="edge5" class="edge"><title>Node1&#45;&gt;Node6</title>
<path fill="none" stroke="midnightblue" d="M34.4943,-257.681C41.0212,-288.645 57.9999,-348.637 96,-382 100.948,-386.345 106.817,-389.746 112.982,-392.408"/>
<polygon fill="midnightblue" stroke="midnightblue" points="37.895,-256.834 32.543,-247.69 31.0248,-258.176 37.895,-256.834"/>
</g>
<!-- Node7 -->
<g id="node7" class="node"><title>Node7</title>
<g id="a_node7"><a xlink:href="geofence_8pde.html#a131efdc9e7e9c64e4909789780279a66" target="_top" xlink:title="geofence_check">
<polygon fill="white" stroke="black" points="119,-304.5 119,-323.5 207,-323.5 207,-304.5 119,-304.5"/>
<text text-anchor="middle" x="163" y="-311.5" font-family="Helvetica,sans-Serif" font-size="10.00">geofence_check</text>
</a>
</g>
</g>
<!-- Node1&#45;&gt;Node7 -->
<g id="edge7" class="edge"><title>Node1&#45;&gt;Node7</title>
<path fill="none" stroke="midnightblue" d="M46.4514,-255.134C58.7435,-267.809 76.9845,-284.609 96,-295 103.01,-298.831 110.872,-301.958 118.659,-304.487"/>
<polygon fill="midnightblue" stroke="midnightblue" points="48.6836,-252.399 39.2844,-247.509 43.583,-257.193 48.6836,-252.399"/>
</g>
<!-- Node10 -->
<g id="node10" class="node"><title>Node10</title>
<g id="a_node10"><a xlink:href="system_8pde.html#adf8053623ae608c96db339992ed2528c" target="_top" xlink:title="init_ardupilot">
<polygon fill="white" stroke="black" points="428.5,-114.5 428.5,-133.5 499.5,-133.5 499.5,-114.5 428.5,-114.5"/>
<text text-anchor="middle" x="464" y="-121.5" font-family="Helvetica,sans-Serif" font-size="10.00">init_ardupilot</text>
</a>
</g>
</g>
<!-- Node1&#45;&gt;Node10 -->
<g id="edge10" class="edge"><title>Node1&#45;&gt;Node10</title>
<path fill="none" stroke="midnightblue" d="M38.0356,-218.694C47.4144,-196.089 66.3592,-159.628 96,-143 152.2,-111.473 348.211,-117.87 428.402,-121.971"/>
<polygon fill="midnightblue" stroke="midnightblue" points="34.6782,-217.669 34.295,-228.257 41.1973,-220.219 34.6782,-217.669"/>
</g>
<!-- Node12 -->
<g id="node12" class="node"><title>Node12</title>
<g id="a_node12"><a xlink:href="landing_8pde.html#a53286296e984291837fff41ec8c10038" target="_top" xlink:title="jump_to_landing_sequence">
<polygon fill="white" stroke="black" points="96,-266.5 96,-285.5 230,-285.5 230,-266.5 96,-266.5"/>
<text text-anchor="middle" x="163" y="-273.5" font-family="Helvetica,sans-Serif" font-size="10.00">jump_to_landing_sequence</text>
</a>
</g>
</g>
<!-- Node1&#45;&gt;Node12 -->
<g id="edge12" class="edge"><title>Node1&#45;&gt;Node12</title>
<path fill="none" stroke="midnightblue" d="M69.6703,-249.332C78.3323,-251.862 87.4785,-254.528 96,-257 106.65,-260.089 118.272,-263.442 128.755,-266.458"/>
<polygon fill="midnightblue" stroke="midnightblue" points="70.3712,-245.89 59.7908,-246.443 68.4067,-252.609 70.3712,-245.89"/>
</g>
<!-- Node15 -->
<g id="node15" class="node"><title>Node15</title>
<g id="a_node15"><a xlink:href="events_8pde.html#a8c50f18e2cc2e6ec43f90c1a0b880e99" target="_top" xlink:title="low_battery_event">
<polygon fill="white" stroke="black" points="115,-190.5 115,-209.5 211,-209.5 211,-190.5 115,-190.5"/>
<text text-anchor="middle" x="163" y="-197.5" font-family="Helvetica,sans-Serif" font-size="10.00">low_battery_event</text>
</a>
</g>
</g>
<!-- Node1&#45;&gt;Node15 -->
<g id="edge15" class="edge"><title>Node1&#45;&gt;Node15</title>
<path fill="none" stroke="midnightblue" d="M69.6703,-226.668C78.3323,-224.138 87.4785,-221.472 96,-219 106.65,-215.911 118.272,-212.558 128.755,-209.542"/>
<polygon fill="midnightblue" stroke="midnightblue" points="68.4067,-223.391 59.7908,-229.557 70.3712,-230.11 68.4067,-223.391"/>
</g>
<!-- Node17 -->
<g id="node17" class="node"><title>Node17</title>
<g id="a_node17"><a xlink:href="system_8pde.html#af51c9dc9104bacb7e0e05b366b43f66c" target="_top" xlink:title="mavlink_set_mode">
<polygon fill="white" stroke="black" points="114,-152.5 114,-171.5 212,-171.5 212,-152.5 114,-152.5"/>
<text text-anchor="middle" x="163" y="-159.5" font-family="Helvetica,sans-Serif" font-size="10.00">mavlink_set_mode</text>
</a>
</g>
</g>
<!-- Node1&#45;&gt;Node17 -->
<g id="edge17" class="edge"><title>Node1&#45;&gt;Node17</title>
<path fill="none" stroke="midnightblue" d="M46.4514,-220.866C58.7435,-208.191 76.9845,-191.391 96,-181 103.01,-177.169 110.872,-174.042 118.659,-171.513"/>
<polygon fill="midnightblue" stroke="midnightblue" points="43.583,-218.807 39.2844,-228.491 48.6836,-223.601 43.583,-218.807"/>
</g>
<!-- Node18 -->
<g id="node18" class="node"><title>Node18</title>
<g id="a_node18"><a xlink:href="control__modes_8pde.html#a795c2818aac0b7d2f673b178d181116d" target="_top" xlink:title="&#45;*&#45; tab&#45;width: 4; Mode: C++; c&#45;basic&#45;offset: 4; indent&#45;tabs&#45;mode: nil &#45;*&#45; ">
<polygon fill="white" stroke="black" points="111,-228.5 111,-247.5 215,-247.5 215,-228.5 111,-228.5"/>
<text text-anchor="middle" x="163" y="-235.5" font-family="Helvetica,sans-Serif" font-size="10.00">read_control_switch</text>
</a>
</g>
</g>
<!-- Node1&#45;&gt;Node18 -->
<g id="edge18" class="edge"><title>Node1&#45;&gt;Node18</title>
<path fill="none" stroke="midnightblue" d="M70.0747,-238C82.8865,-238 97.3189,-238 110.885,-238"/>
<polygon fill="midnightblue" stroke="midnightblue" points="69.7485,-234.5 59.7485,-238 69.7485,-241.5 69.7485,-234.5"/>
</g>
<!-- Node20 -->
<g id="node20" class="node"><title>Node20</title>
<g id="a_node20"><a xlink:href="commands__logic_8pde.html#a1a8c657acb9efa7a54b0b2a74025ec11" target="_top" xlink:title="start_command">
<polygon fill="white" stroke="black" points="121,-76.5 121,-95.5 205,-95.5 205,-76.5 121,-76.5"/>
<text text-anchor="middle" x="163" y="-83.5" font-family="Helvetica,sans-Serif" font-size="10.00">start_command</text>
</a>
</g>
</g>
<!-- Node1&#45;&gt;Node20 -->
<g id="edge21" class="edge"><title>Node1&#45;&gt;Node20</title>
<path fill="none" stroke="midnightblue" d="M35.8926,-218.762C43.9054,-190.995 62.3987,-139.76 96,-110 103.119,-103.695 112.027,-99.0036 120.973,-95.5285"/>
<polygon fill="midnightblue" stroke="midnightblue" points="32.4984,-217.906 33.2449,-228.474 39.252,-219.747 32.4984,-217.906"/>
</g>
<!-- Node23 -->
<g id="node23" class="node"><title>Node23</title>
<g id="a_node23"><a xlink:href="system_8pde.html#ae45d741f1c48b956c06322f8c4db6c70" target="_top" xlink:title="startup_ground">
<polygon fill="white" stroke="black" points="288.5,-0.5 288.5,-19.5 369.5,-19.5 369.5,-0.5 288.5,-0.5"/>
<text text-anchor="middle" x="329" y="-7.5" font-family="Helvetica,sans-Serif" font-size="10.00">startup_ground</text>
</a>
</g>
</g>
<!-- Node1&#45;&gt;Node23 -->
<g id="edge24" class="edge"><title>Node1&#45;&gt;Node23</title>
<path fill="none" stroke="midnightblue" d="M32.695,-217.958C36.8324,-182.12 50.7081,-107.064 96,-67 150.054,-19.1846 237.807,-10.0357 288.477,-9.08052"/>
<polygon fill="midnightblue" stroke="midnightblue" points="29.1912,-217.821 31.6664,-228.122 36.1556,-218.525 29.1912,-217.821"/>
</g>
<!-- Node3 -->
<g id="node3" class="node"><title>Node3</title>
<g id="a_node3"><a xlink:href="system_8pde.html#ac712a358c5e71bb976fd5c39f844190f" target="_top" xlink:title="check_long_failsafe">
<polygon fill="white" stroke="black" points="277.5,-430.5 277.5,-449.5 380.5,-449.5 380.5,-430.5 277.5,-430.5"/>
<text text-anchor="middle" x="329" y="-437.5" font-family="Helvetica,sans-Serif" font-size="10.00">check_long_failsafe</text>
</a>
</g>
</g>
<!-- Node2&#45;&gt;Node3 -->
<g id="edge2" class="edge"><title>Node2&#45;&gt;Node3</title>
<path fill="none" stroke="midnightblue" d="M231.756,-440C246.969,-440 262.856,-440 277.236,-440"/>
<polygon fill="midnightblue" stroke="midnightblue" points="231.359,-436.5 221.359,-440 231.359,-443.5 231.359,-436.5"/>
</g>
<!-- Node5 -->
<g id="node5" class="node"><title>Node5</title>
<g id="a_node5"><a xlink:href="system_8pde.html#a298557d3029fc5e0db868e570ddd065c" target="_top" xlink:title="check_short_failsafe">
<polygon fill="white" stroke="black" points="275.5,-386.5 275.5,-405.5 382.5,-405.5 382.5,-386.5 275.5,-386.5"/>
<text text-anchor="middle" x="329" y="-393.5" font-family="Helvetica,sans-Serif" font-size="10.00">check_short_failsafe</text>
</a>
</g>
</g>
<!-- Node4&#45;&gt;Node5 -->
<g id="edge4" class="edge"><title>Node4&#45;&gt;Node5</title>
<path fill="none" stroke="midnightblue" d="M219.178,-370.785C241.298,-375.911 266.344,-381.714 286.828,-386.46"/>
<polygon fill="midnightblue" stroke="midnightblue" points="219.78,-367.332 209.248,-368.484 218.2,-374.151 219.78,-367.332"/>
</g>
<!-- Node6&#45;&gt;Node5 -->
<g id="edge6" class="edge"><title>Node6&#45;&gt;Node5</title>
<path fill="none" stroke="midnightblue" d="M233.346,-399.463C247.427,-398.948 262.018,-398.414 275.404,-397.924"/>
<polygon fill="midnightblue" stroke="midnightblue" points="233.073,-395.97 223.208,-399.834 233.329,-402.966 233.073,-395.97"/>
</g>
<!-- Node8 -->
<g id="node8" class="node"><title>Node8</title>
<g id="a_node8"><a xlink:href="ArduPlane_8pde.html#a6fba8fd13515c54a77e9434c4784c3c9" target="_top" xlink:title="update_alt">
<polygon fill="white" stroke="black" points="298,-304.5 298,-323.5 360,-323.5 360,-304.5 298,-304.5"/>
<text text-anchor="middle" x="329" y="-311.5" font-family="Helvetica,sans-Serif" font-size="10.00">update_alt</text>
</a>
</g>
</g>
<!-- Node7&#45;&gt;Node8 -->
<g id="edge8" class="edge"><title>Node7&#45;&gt;Node8</title>
<path fill="none" stroke="midnightblue" d="M217.438,-314C244.117,-314 275.405,-314 297.875,-314"/>
<polygon fill="midnightblue" stroke="midnightblue" points="217.089,-310.5 207.089,-314 217.089,-317.5 217.089,-310.5"/>
</g>
<!-- Node9 -->
<g id="node9" class="node"><title>Node9</title>
<g id="a_node9"><a xlink:href="ArduPlane_8pde.html#a952c65073f8556020619eca374f08067" target="_top" xlink:title="update_GPS_10Hz">
<polygon fill="white" stroke="black" points="278.5,-342.5 278.5,-361.5 379.5,-361.5 379.5,-342.5 278.5,-342.5"/>
<text text-anchor="middle" x="329" y="-349.5" font-family="Helvetica,sans-Serif" font-size="10.00">update_GPS_10Hz</text>
</a>
</g>
</g>
<!-- Node7&#45;&gt;Node9 -->
<g id="edge9" class="edge"><title>Node7&#45;&gt;Node9</title>
<path fill="none" stroke="midnightblue" d="M215.341,-325.896C238.393,-331.237 265.221,-337.454 286.913,-342.48"/>
<polygon fill="midnightblue" stroke="midnightblue" points="215.916,-322.437 205.384,-323.589 214.336,-329.256 215.916,-322.437"/>
</g>
<!-- Node11 -->
<g id="node11" class="node"><title>Node11</title>
<g id="a_node11"><a xlink:href="ArduPlane_8pde.html#a4fc01d736fe50cf5b977f755b675f11d" target="_top" xlink:title="setup">
<polygon fill="white" stroke="black" points="536.5,-114.5 536.5,-133.5 577.5,-133.5 577.5,-114.5 536.5,-114.5"/>
<text text-anchor="middle" x="557" y="-121.5" font-family="Helvetica,sans-Serif" font-size="10.00">setup</text>
</a>
</g>
</g>
<!-- Node10&#45;&gt;Node11 -->
<g id="edge11" class="edge"><title>Node10&#45;&gt;Node11</title>
<path fill="none" stroke="midnightblue" d="M509.757,-124C519.144,-124 528.574,-124 536.447,-124"/>
<polygon fill="midnightblue" stroke="midnightblue" points="509.663,-120.5 499.663,-124 509.663,-127.5 509.663,-120.5"/>
</g>
<!-- Node13 -->
<g id="node13" class="node"><title>Node13</title>
<g id="a_node13"><a xlink:href="ArduPlane_8pde.html#a281c9fecc7781fe8c291fbbca573fa5a" target="_top" xlink:title="update_navigation">
<polygon fill="white" stroke="black" points="281.5,-266.5 281.5,-285.5 376.5,-285.5 376.5,-266.5 281.5,-266.5"/>
<text text-anchor="middle" x="329" y="-273.5" font-family="Helvetica,sans-Serif" font-size="10.00">update_navigation</text>
</a>
</g>
</g>
<!-- Node12&#45;&gt;Node13 -->
<g id="edge13" class="edge"><title>Node12&#45;&gt;Node13</title>
<path fill="none" stroke="midnightblue" d="M240.319,-276C254.256,-276 268.413,-276 281.169,-276"/>
<polygon fill="midnightblue" stroke="midnightblue" points="240.232,-272.5 230.232,-276 240.232,-279.5 240.232,-272.5"/>
</g>
<!-- Node14 -->
<g id="node14" class="node"><title>Node14</title>
<g id="a_node14"><a xlink:href="navigation_8pde.html#a5573c39eb2cddb37f77c17128c88eb54" target="_top" xlink:title="navigate">
<polygon fill="white" stroke="black" points="437.5,-266.5 437.5,-285.5 490.5,-285.5 490.5,-266.5 437.5,-266.5"/>
<text text-anchor="middle" x="464" y="-273.5" font-family="Helvetica,sans-Serif" font-size="10.00">navigate</text>
</a>
</g>
</g>
<!-- Node13&#45;&gt;Node14 -->
<g id="edge14" class="edge"><title>Node13&#45;&gt;Node14</title>
<path fill="none" stroke="midnightblue" d="M386.73,-276C404.324,-276 422.85,-276 437.238,-276"/>
<polygon fill="midnightblue" stroke="midnightblue" points="386.517,-272.5 376.517,-276 386.517,-279.5 386.517,-272.5"/>
</g>
<!-- Node16 -->
<g id="node16" class="node"><title>Node16</title>
<g id="a_node16"><a xlink:href="sensors_8pde.html#af836fb7da62a6fb918d166aa9835ad91" target="_top" xlink:title="read_battery">
<polygon fill="white" stroke="black" points="293.5,-190.5 293.5,-209.5 364.5,-209.5 364.5,-190.5 293.5,-190.5"/>
<text text-anchor="middle" x="329" y="-197.5" font-family="Helvetica,sans-Serif" font-size="10.00">read_battery</text>
</a>
</g>
</g>
<!-- Node15&#45;&gt;Node16 -->
<g id="edge16" class="edge"><title>Node15&#45;&gt;Node16</title>
<path fill="none" stroke="midnightblue" d="M221.505,-200C245.505,-200 272.587,-200 293.434,-200"/>
<polygon fill="midnightblue" stroke="midnightblue" points="221.436,-196.5 211.436,-200 221.436,-203.5 221.436,-196.5"/>
</g>
<!-- Node19 -->
<g id="node19" class="node"><title>Node19</title>
<g id="a_node19"><a xlink:href="control__modes_8pde.html#a1a85d98dee38cd7a939181118d483622" target="_top" xlink:title="reset_control_switch">
<polygon fill="white" stroke="black" points="275.5,-228.5 275.5,-247.5 382.5,-247.5 382.5,-228.5 275.5,-228.5"/>
<text text-anchor="middle" x="329" y="-235.5" font-family="Helvetica,sans-Serif" font-size="10.00">reset_control_switch</text>
</a>
</g>
</g>
<!-- Node18&#45;&gt;Node19 -->
<g id="edge19" class="edge"><title>Node18&#45;&gt;Node19</title>
<path fill="none" stroke="midnightblue" d="M225.476,-238C241.877,-238 259.448,-238 275.329,-238"/>
<polygon fill="midnightblue" stroke="midnightblue" points="225.441,-234.5 215.441,-238 225.441,-241.5 225.441,-234.5"/>
</g>
<!-- Node19&#45;&gt;Node10 -->
<g id="edge20" class="edge"><title>Node19&#45;&gt;Node10</title>
<path fill="none" stroke="midnightblue" d="M382.898,-224.413C386.086,-222.802 389.152,-221.004 392,-219 424.837,-195.894 448.844,-152.868 458.421,-133.676"/>
<polygon fill="midnightblue" stroke="midnightblue" points="381.407,-221.245 373.665,-228.478 384.227,-227.652 381.407,-221.245"/>
</g>
<!-- Node21 -->
<g id="node21" class="node"><title>Node21</title>
<g id="a_node21"><a xlink:href="commands__logic_8pde.html#a8cc2b5f231ed49f1dd33e7500f0351c0" target="_top" xlink:title="exit_mission_callback">
<polygon fill="white" stroke="black" points="272.5,-38.5 272.5,-57.5 385.5,-57.5 385.5,-38.5 272.5,-38.5"/>
<text text-anchor="middle" x="329" y="-45.5" font-family="Helvetica,sans-Serif" font-size="10.00">exit_mission_callback</text>
</a>
</g>
</g>
<!-- Node20&#45;&gt;Node21 -->
<g id="edge22" class="edge"><title>Node20&#45;&gt;Node21</title>
<path fill="none" stroke="midnightblue" d="M215.341,-74.1039C238.393,-68.7626 265.221,-62.5463 286.913,-57.5201"/>
<polygon fill="midnightblue" stroke="midnightblue" points="214.336,-70.744 205.384,-76.411 215.916,-77.5633 214.336,-70.744"/>
</g>
<!-- Node22 -->
<g id="node22" class="node"><title>Node22</title>
<g id="a_node22"><a xlink:href="commands__logic_8pde.html#a0430a022cdb46cf93cef509c17cd6b1f" target="_top" xlink:title="start_command_callback">
<polygon fill="white" stroke="black" points="266.5,-76.5 266.5,-95.5 391.5,-95.5 391.5,-76.5 266.5,-76.5"/>
<text text-anchor="middle" x="329" y="-83.5" font-family="Helvetica,sans-Serif" font-size="10.00">start_command_callback</text>
</a>
</g>
</g>
<!-- Node20&#45;&gt;Node22 -->
<g id="edge23" class="edge"><title>Node20&#45;&gt;Node22</title>
<path fill="none" stroke="midnightblue" d="M215.684,-86C231.806,-86 249.747,-86 266.473,-86"/>
<polygon fill="midnightblue" stroke="midnightblue" points="215.384,-82.5001 205.384,-86 215.384,-89.5001 215.384,-82.5001"/>
</g>
<!-- Node23&#45;&gt;Node10 -->
<g id="edge25" class="edge"><title>Node23&#45;&gt;Node10</title>
<path fill="none" stroke="midnightblue" d="M379.197,-21.822C383.714,-23.856 388.064,-26.2304 392,-29 424.837,-52.1056 448.844,-95.1317 458.421,-114.324"/>
<polygon fill="midnightblue" stroke="midnightblue" points="380.359,-18.5179 369.772,-18.1074 377.792,-25.0304 380.359,-18.5179"/>
</g>
</g>
</svg>
        <g id="navigator" transform="translate(0 0)" fill="#404254">
                <rect fill="#f2f5e9" fill-opacity="0.5" stroke="#606060" stroke-width=".5" x="0" y="0" width="60" height="60"/>
                <use id="zoomplus" xlink:href="#zoomPlus" x="17" y="9" onmousedown="handleZoom(evt,'in')"/>
                <use id="zoomminus" xlink:href="#zoomMin" x="42" y="9" onmousedown="handleZoom(evt,'out')"/>
                <use id="reset" xlink:href="#resetDef" x="30" y="36" onmousedown="handleReset()"/>
                <g id="arrowUp" xlink:href="#dirArrow" transform="translate(30 24)" onmousedown="handlePan(0,-1)">
                  <use xlink:href="#rim" fill="#404040">
                        <set attributeName="fill" to="#808080" begin="arrowUp.mouseover" end="arrowUp.mouseout"/>
                  </use>
                  <path fill="none" stroke="white" stroke-width="1.5" d="M0,-3.0v7 M-2.5,-0.5L0,-3.0L2.5,-0.5"/>
                </g>
                <g id="arrowRight" xlink:href="#dirArrow" transform="rotate(90) translate(36 -43)" onmousedown="handlePan(1,0)">
                  <use xlink:href="#rim" fill="#404040">
                        <set attributeName="fill" to="#808080" begin="arrowRight.mouseover" end="arrowRight.mouseout"/>
                  </use>
                  <path fill="none" stroke="white" stroke-width="1.5" d="M0,-3.0v7 M-2.5,-0.5L0,-3.0L2.5,-0.5"/>
                </g>
                <g id="arrowDown" xlink:href="#dirArrow" transform="rotate(180) translate(-30 -48)" onmousedown="handlePan(0,1)">
                  <use xlink:href="#rim" fill="#404040">
                        <set attributeName="fill" to="#808080" begin="arrowDown.mouseover" end="arrowDown.mouseout"/>
                  </use>
                  <path fill="none" stroke="white" stroke-width="1.5" d="M0,-3.0v7 M-2.5,-0.5L0,-3.0L2.5,-0.5"/>
                </g>
                <g id="arrowLeft" xlink:href="#dirArrow" transform="rotate(270) translate(-36 17)" onmousedown="handlePan(-1,0)">
                  <use xlink:href="#rim" fill="#404040">
                        <set attributeName="fill" to="#808080" begin="arrowLeft.mouseover" end="arrowLeft.mouseout"/>
                  </use>
                  <path fill="none" stroke="white" stroke-width="1.5" d="M0,-3.0v7 M-2.5,-0.5L0,-3.0L2.5,-0.5"/>
                </g>
        </g>
        <svg viewBox="0 0 15 15" width="100%" height="30px" preserveAspectRatio="xMaxYMin meet">
         <g id="arrow_out" transform="scale(0.3 0.3)">
          <a xlink:href="system_8pde_afe59c30399d04a968780503b2fc09ff7_icgraph_org.svg" target="_base">
           <rect id="button" ry="5" rx="5" y="6" x="6" height="38" width="38"
                fill="#f2f5e9" fill-opacity="0.5" stroke="#606060" stroke-width="1.0"/>
           <path id="arrow"
             d="M 11.500037,31.436501 C 11.940474,20.09759 22.043105,11.32322 32.158766,21.979434 L 37.068811,17.246167 C 37.068811,17.246167 37.088388,32 37.088388,32 L 22.160133,31.978069 C 22.160133,31.978069 26.997745,27.140456 26.997745,27.140456 C 18.528582,18.264221 13.291696,25.230495 11.500037,31.436501 z"
             style="fill:#404040;"/>
          </a>
         </g>
        </svg>
</svg>
