<?xml version="1.0" encoding="UTF-8" standalone="no"?>
<!DOCTYPE svg PUBLIC "-//W3C//DTD SVG 1.1//EN"
 "http://www.w3.org/Graphics/SVG/1.1/DTD/svg11.dtd">
<!-- Generated by graphviz version 2.36.0 (20140111.2315)
 -->
<!-- Title: takeoff_calc_roll Pages: 1 -->
<svg width="368pt" height="28pt"
 viewBox="0.00 0.00 368.00 28.00" xmlns="http://www.w3.org/2000/svg" xmlns:xlink="http://www.w3.org/1999/xlink">
<g id="graph0" class="graph" transform="scale(1 1) rotate(0) translate(4 24)">
<title>takeoff_calc_roll</title>
<polygon fill="white" stroke="none" points="-4,4 -4,-24 364,-24 364,4 -4,4"/>
<!-- Node1 -->
<g id="node1" class="node"><title>Node1</title>
<polygon fill="#bfbfbf" stroke="black" points="0,-0.5 0,-19.5 88,-19.5 88,-0.5 0,-0.5"/>
<text text-anchor="middle" x="44" y="-7.5" font-family="Helvetica,sans-Serif" font-size="10.00">takeoff_calc_roll</text>
</g>
<!-- Node2 -->
<g id="node2" class="node"><title>Node2</title>
<g id="a_node2"><a xlink:href="ArduPlane_8pde.html#ab3877ebcfdd6fb99ff7500ad24f2ebd1" target="_top" xlink:title="handle_auto_mode">
<polygon fill="white" stroke="black" points="124,-0.5 124,-19.5 222,-19.5 222,-0.5 124,-0.5"/>
<text text-anchor="middle" x="173" y="-7.5" font-family="Helvetica,sans-Serif" font-size="10.00">handle_auto_mode</text>
</a>
</g>
</g>
<!-- Node1&#45;&gt;Node2 -->
<g id="edge1" class="edge"><title>Node1&#45;&gt;Node2</title>
<path fill="none" stroke="midnightblue" d="M98.3965,-10C106.763,-10 115.369,-10 123.615,-10"/>
<polygon fill="midnightblue" stroke="midnightblue" points="98.351,-6.5001 88.351,-10 98.351,-13.5001 98.351,-6.5001"/>
</g>
<!-- Node3 -->
<g id="node3" class="node"><title>Node3</title>
<g id="a_node3"><a xlink:href="ArduPlane_8pde.html#a1353a77e19a7028fda60ee8706f0879d" target="_top" xlink:title="update_flight_mode">
<polygon fill="white" stroke="black" points="258.5,-0.5 258.5,-19.5 359.5,-19.5 359.5,-0.5 258.5,-0.5"/>
<text text-anchor="middle" x="309" y="-7.5" font-family="Helvetica,sans-Serif" font-size="10.00">update_flight_mode</text>
</a>
</g>
</g>
<!-- Node2&#45;&gt;Node3 -->
<g id="edge2" class="edge"><title>Node2&#45;&gt;Node3</title>
<path fill="none" stroke="midnightblue" d="M232.404,-10C241.052,-10 249.894,-10 258.341,-10"/>
<polygon fill="midnightblue" stroke="midnightblue" points="232.377,-6.5001 222.377,-10 232.377,-13.5001 232.377,-6.5001"/>
</g>
</g>
</svg>
