<?xml version="1.0" encoding="UTF-8" standalone="no"?>
<!DOCTYPE svg PUBLIC "-//W3C//DTD SVG 1.1//EN"
 "http://www.w3.org/Graphics/SVG/1.1/DTD/svg11.dtd">
<!-- Generated by graphviz version 2.36.0 (20140111.2315)
 -->
<!-- Title: libraries/AP_Limits/AP_Limit_Module.h Pages: 1 -->
<svg width="1472pt" height="612pt"
 viewBox="0.00 0.00 1472.00 612.00" xmlns="http://www.w3.org/2000/svg" xmlns:xlink="http://www.w3.org/1999/xlink">
<g id="graph0" class="graph" transform="scale(1 1) rotate(0) translate(4 608)">
<title>libraries/AP_Limits/AP_Limit_Module.h</title>
<polygon fill="white" stroke="none" points="-4,4 -4,-608 1468,-608 1468,4 -4,4"/>
<!-- Node1 -->
<g id="node1" class="node"><title>Node1</title>
<polygon fill="#bfbfbf" stroke="black" points="128,-573 128,-603 232,-603 232,-573 128,-573"/>
<text text-anchor="start" x="136" y="-591" font-family="Helvetica,sans-Serif" font-size="10.00">libraries/AP_Limits</text>
<text text-anchor="middle" x="180" y="-580" font-family="Helvetica,sans-Serif" font-size="10.00">/AP_Limit_Module.h</text>
</g>
<!-- Node2 -->
<g id="node2" class="node"><title>Node2</title>
<g id="a_node2"><a xlink:href="$AP__Common_8h.html" xlink:title="Common definitions and utility routines for the ArduPilot libraries. ">
<polygon fill="white" stroke="black" points="2.5,-392.5 2.5,-411.5 85.5,-411.5 85.5,-392.5 2.5,-392.5"/>
<text text-anchor="middle" x="44" y="-399.5" font-family="Helvetica,sans-Serif" font-size="10.00">AP_Common.h</text>
</a>
</g>
</g>
<!-- Node1&#45;&gt;Node2 -->
<g id="edge1" class="edge"><title>Node1&#45;&gt;Node2</title>
<path fill="none" stroke="midnightblue" d="M169.329,-572.852C153.936,-552.414 124.641,-513.415 100,-480 84.7465,-459.315 67.3641,-435.352 56.0656,-419.724"/>
<polygon fill="midnightblue" stroke="midnightblue" points="58.8709,-417.63 50.1784,-411.573 53.1963,-421.729 58.8709,-417.63"/>
</g>
<!-- Node6 -->
<g id="node6" class="node"><title>Node6</title>
<g id="a_node6"><a xlink:href="$AP__Param_8h.html" xlink:title="A system for managing and storing variables that are of general interest to the system. ">
<polygon fill="white" stroke="black" points="264,-516.5 264,-535.5 336,-535.5 336,-516.5 264,-516.5"/>
<text text-anchor="middle" x="300" y="-523.5" font-family="Helvetica,sans-Serif" font-size="10.00">AP_Param.h</text>
</a>
</g>
</g>
<!-- Node1&#45;&gt;Node6 -->
<g id="edge5" class="edge"><title>Node1&#45;&gt;Node6</title>
<path fill="none" stroke="midnightblue" d="M208.135,-572.933C227.928,-563.036 254.239,-549.88 273.63,-540.185"/>
<polygon fill="midnightblue" stroke="midnightblue" points="275.421,-543.203 282.8,-535.6 272.29,-536.942 275.421,-543.203"/>
</g>
<!-- Node3 -->
<g id="node3" class="node"><title>Node3</title>
<polygon fill="white" stroke="#bfbfbf" points="495.5,-56.5 495.5,-75.5 544.5,-75.5 544.5,-56.5 495.5,-56.5"/>
<text text-anchor="middle" x="520" y="-63.5" font-family="Helvetica,sans-Serif" font-size="10.00">stdint.h</text>
</g>
<!-- Node2&#45;&gt;Node3 -->
<g id="edge2" class="edge"><title>Node2&#45;&gt;Node3</title>
<path fill="none" stroke="midnightblue" d="M54.2526,-392.472C80.3052,-369.781 147,-304.868 147,-235 147,-235 147,-235 147,-177 147,-146.205 146.913,-131.188 171,-112 218.976,-73.7822 406.419,-67.8327 485.016,-67.0438"/>
<polygon fill="midnightblue" stroke="midnightblue" points="485.386,-70.5411 495.358,-66.9639 485.331,-63.5414 485.386,-70.5411"/>
</g>
<!-- Node4 -->
<g id="node4" class="node"><title>Node4</title>
<polygon fill="white" stroke="#bfbfbf" points="0,-336.5 0,-355.5 48,-355.5 48,-336.5 0,-336.5"/>
<text text-anchor="middle" x="24" y="-343.5" font-family="Helvetica,sans-Serif" font-size="10.00">stdlib.h</text>
</g>
<!-- Node2&#45;&gt;Node4 -->
<g id="edge3" class="edge"><title>Node2&#45;&gt;Node4</title>
<path fill="none" stroke="midnightblue" d="M40.6974,-392.083C38.018,-384.849 34.1514,-374.409 30.8136,-365.397"/>
<polygon fill="midnightblue" stroke="midnightblue" points="33.9965,-363.913 27.2411,-355.751 27.4322,-366.344 33.9965,-363.913"/>
</g>
<!-- Node5 -->
<g id="node5" class="node"><title>Node5</title>
<polygon fill="white" stroke="#bfbfbf" points="213,-336.5 213,-355.5 269,-355.5 269,-336.5 213,-336.5"/>
<text text-anchor="middle" x="241" y="-343.5" font-family="Helvetica,sans-Serif" font-size="10.00">stdbool.h</text>
</g>
<!-- Node2&#45;&gt;Node5 -->
<g id="edge4" class="edge"><title>Node2&#45;&gt;Node5</title>
<path fill="none" stroke="midnightblue" d="M75.2152,-392.444C109.826,-382.956 165.666,-367.65 202.845,-357.459"/>
<polygon fill="midnightblue" stroke="midnightblue" points="204.084,-360.748 212.803,-354.729 202.234,-353.997 204.084,-360.748"/>
</g>
<!-- Node6&#45;&gt;Node3 -->
<g id="edge73" class="edge"><title>Node6&#45;&gt;Node3</title>
<path fill="none" stroke="midnightblue" d="M308.214,-516.213C320.773,-501.658 342.087,-471.791 330,-448 298.594,-386.181 243.85,-412.744 204,-356 186.702,-331.369 185,-321.098 185,-291 185,-291 185,-291 185,-177 185,-146.902 181.252,-131.708 204,-112 245.515,-76.0314 412.241,-68.7847 485.351,-67.3456"/>
<polygon fill="midnightblue" stroke="midnightblue" points="485.493,-70.8438 495.432,-67.1727 485.373,-63.8448 485.493,-70.8438"/>
</g>
<!-- Node7 -->
<g id="node7" class="node"><title>Node7</title>
<g id="a_node7"><a xlink:href="$AP__HAL_8h.html" xlink:title="AP_HAL.h">
<polygon fill="white" stroke="black" points="713.5,-392.5 713.5,-411.5 776.5,-411.5 776.5,-392.5 713.5,-392.5"/>
<text text-anchor="middle" x="745" y="-399.5" font-family="Helvetica,sans-Serif" font-size="10.00">AP_HAL.h</text>
</a>
</g>
</g>
<!-- Node6&#45;&gt;Node7 -->
<g id="edge6" class="edge"><title>Node6&#45;&gt;Node7</title>
<path fill="none" stroke="midnightblue" d="M331.292,-516.421C409.965,-494.852 616.005,-438.365 704.098,-414.214"/>
<polygon fill="midnightblue" stroke="midnightblue" points="705.024,-417.589 713.743,-411.569 703.173,-410.838 705.024,-417.589"/>
</g>
<!-- Node9 -->
<g id="node9" class="node"><title>Node9</title>
<polygon fill="white" stroke="#bfbfbf" points="521.5,-0.5 521.5,-19.5 570.5,-19.5 570.5,-0.5 521.5,-0.5"/>
<text text-anchor="middle" x="546" y="-7.5" font-family="Helvetica,sans-Serif" font-size="10.00">string.h</text>
</g>
<!-- Node6&#45;&gt;Node9 -->
<g id="edge72" class="edge"><title>Node6&#45;&gt;Node9</title>
<path fill="none" stroke="midnightblue" d="M263.631,-520.069C219.743,-513.325 149.736,-499.764 133,-480 62.2973,-396.503 109,-344.41 109,-235 109,-235 109,-235 109,-121 109,-38.2611 407.32,-17.1528 510.999,-12.3152"/>
<polygon fill="midnightblue" stroke="midnightblue" points="511.418,-15.8001 521.253,-11.8607 511.108,-8.80699 511.418,-15.8001"/>
</g>
<!-- Node19 -->
<g id="node19" class="node"><title>Node19</title>
<g id="a_node19"><a xlink:href="$AP__Progmem_8h.html" xlink:title="AP_Progmem.h">
<polygon fill="white" stroke="black" points="348,-168.5 348,-187.5 434,-187.5 434,-168.5 348,-168.5"/>
<text text-anchor="middle" x="391" y="-175.5" font-family="Helvetica,sans-Serif" font-size="10.00">AP_Progmem.h</text>
</a>
</g>
</g>
<!-- Node6&#45;&gt;Node19 -->
<g id="edge76" class="edge"><title>Node6&#45;&gt;Node19</title>
<path fill="none" stroke="midnightblue" d="M307.157,-516.218C313.93,-507.508 323.936,-493.54 330,-480 344.452,-447.731 350,-438.358 350,-403 350,-403 350,-403 350,-289 350,-254.515 367.911,-217.562 380.057,-196.468"/>
<polygon fill="midnightblue" stroke="midnightblue" points="383.165,-198.09 385.299,-187.712 377.159,-194.494 383.165,-198.09"/>
</g>
<!-- Node32 -->
<g id="node32" class="node"><title>Node32</title>
<polygon fill="white" stroke="#bfbfbf" points="142,-454.5 142,-473.5 194,-473.5 194,-454.5 142,-454.5"/>
<text text-anchor="middle" x="168" y="-461.5" font-family="Helvetica,sans-Serif" font-size="10.00">stddef.h</text>
</g>
<!-- Node6&#45;&gt;Node32 -->
<g id="edge71" class="edge"><title>Node6&#45;&gt;Node32</title>
<path fill="none" stroke="midnightblue" d="M281.088,-516.403C258.837,-506.29 221.688,-489.404 196.074,-477.761"/>
<polygon fill="midnightblue" stroke="midnightblue" points="197.429,-474.532 186.877,-473.581 194.533,-480.905 197.429,-474.532"/>
</g>
<!-- Node33 -->
<g id="node33" class="node"><title>Node33</title>
<polygon fill="white" stroke="#bfbfbf" points="212.5,-454.5 212.5,-473.5 259.5,-473.5 259.5,-454.5 212.5,-454.5"/>
<text text-anchor="middle" x="236" y="-461.5" font-family="Helvetica,sans-Serif" font-size="10.00">math.h</text>
</g>
<!-- Node6&#45;&gt;Node33 -->
<g id="edge74" class="edge"><title>Node6&#45;&gt;Node33</title>
<path fill="none" stroke="midnightblue" d="M290.83,-516.403C280.85,-507.047 264.688,-491.895 252.491,-480.46"/>
<polygon fill="midnightblue" stroke="midnightblue" points="254.842,-477.867 245.153,-473.581 250.054,-482.973 254.842,-477.867"/>
</g>
<!-- Node34 -->
<g id="node34" class="node"><title>Node34</title>
<polygon fill="white" stroke="#bfbfbf" points="278,-454.5 278,-473.5 322,-473.5 322,-454.5 278,-454.5"/>
<text text-anchor="middle" x="300" y="-461.5" font-family="Helvetica,sans-Serif" font-size="10.00">float.h</text>
</g>
<!-- Node6&#45;&gt;Node34 -->
<g id="edge75" class="edge"><title>Node6&#45;&gt;Node34</title>
<path fill="none" stroke="midnightblue" d="M300,-516.403C300,-507.938 300,-494.728 300,-483.82"/>
<polygon fill="midnightblue" stroke="midnightblue" points="303.5,-483.581 300,-473.581 296.5,-483.581 303.5,-483.581"/>
</g>
<!-- Node35 -->
<g id="node35" class="node"><title>Node35</title>
<g id="a_node35"><a xlink:href="$StorageManager_8h.html" xlink:title="../StorageManager/Storage\lManager.h">
<polygon fill="white" stroke="black" points="604,-449 604,-479 738,-479 738,-449 604,-449"/>
<text text-anchor="start" x="612" y="-467" font-family="Helvetica,sans-Serif" font-size="10.00">../StorageManager/Storage</text>
<text text-anchor="middle" x="671" y="-456" font-family="Helvetica,sans-Serif" font-size="10.00">Manager.h</text>
</a>
</g>
</g>
<!-- Node6&#45;&gt;Node35 -->
<g id="edge77" class="edge"><title>Node6&#45;&gt;Node35</title>
<path fill="none" stroke="midnightblue" d="M336.249,-519.138C395.611,-509.537 514.836,-490.256 593.788,-477.487"/>
<polygon fill="midnightblue" stroke="midnightblue" points="594.377,-480.937 603.69,-475.886 593.259,-474.027 594.377,-480.937"/>
</g>
<!-- Node7&#45;&gt;Node3 -->
<g id="edge7" class="edge"><title>Node7&#45;&gt;Node3</title>
<path fill="none" stroke="midnightblue" d="M713.176,-400.66C648.129,-399.221 503.496,-391.955 473,-356 455.354,-335.195 500.349,-146.074 515.34,-85.5431"/>
<polygon fill="midnightblue" stroke="midnightblue" points="518.815,-86.0714 517.839,-75.5216 512.023,-84.3773 518.815,-86.0714"/>
</g>
<!-- Node7&#45;&gt;Node5 -->
<g id="edge8" class="edge"><title>Node7&#45;&gt;Node5</title>
<path fill="none" stroke="midnightblue" d="M713.475,-399.173C638.513,-394.559 443.859,-380.986 283,-356 281.757,-355.807 280.494,-355.6 279.222,-355.382"/>
<polygon fill="midnightblue" stroke="midnightblue" points="279.858,-351.941 269.385,-353.541 278.57,-358.821 279.858,-351.941"/>
</g>
<!-- Node8 -->
<g id="node8" class="node"><title>Node8</title>
<g id="a_node8"><a xlink:href="$AP__HAL__Namespace_8h.html" xlink:title="AP_HAL_Namespace.h">
<polygon fill="white" stroke="black" points="955.5,-56.5 955.5,-75.5 1076.5,-75.5 1076.5,-56.5 955.5,-56.5"/>
<text text-anchor="middle" x="1016" y="-63.5" font-family="Helvetica,sans-Serif" font-size="10.00">AP_HAL_Namespace.h</text>
</a>
</g>
</g>
<!-- Node7&#45;&gt;Node8 -->
<g id="edge9" class="edge"><title>Node7&#45;&gt;Node8</title>
<path fill="none" stroke="midnightblue" d="M776.735,-400.238C883.67,-397.412 1230.09,-386.101 1337,-356 1398.03,-338.815 1464,-354.408 1464,-291 1464,-291 1464,-291 1464,-177 1464,-100.368 1213.65,-76.8371 1087.24,-69.8402"/>
<polygon fill="midnightblue" stroke="midnightblue" points="1087.06,-66.3254 1076.89,-69.2885 1086.69,-73.3155 1087.06,-66.3254"/>
</g>
<!-- Node11 -->
<g id="node11" class="node"><title>Node11</title>
<g id="a_node11"><a xlink:href="$AP__HAL__Boards_8h.html" xlink:title="AP_HAL_Boards.h">
<polygon fill="white" stroke="black" points="213.5,-112.5 213.5,-131.5 312.5,-131.5 312.5,-112.5 213.5,-112.5"/>
<text text-anchor="middle" x="263" y="-119.5" font-family="Helvetica,sans-Serif" font-size="10.00">AP_HAL_Boards.h</text>
</a>
</g>
</g>
<!-- Node7&#45;&gt;Node11 -->
<g id="edge12" class="edge"><title>Node7&#45;&gt;Node11</title>
<path fill="none" stroke="midnightblue" d="M713.331,-399.582C642.177,-395.922 472.038,-384.379 423,-356 336.104,-305.713 285.907,-186.98 269.252,-141.327"/>
<polygon fill="midnightblue" stroke="midnightblue" points="272.526,-140.089 265.891,-131.829 265.927,-142.424 272.526,-140.089"/>
</g>
<!-- Node12 -->
<g id="node12" class="node"><title>Node12</title>
<g id="a_node12"><a xlink:href="$AP__HAL__Macros_8h.html" xlink:title="AP_HAL_Macros.h">
<polygon fill="white" stroke="black" points="482.5,-336.5 482.5,-355.5 583.5,-355.5 583.5,-336.5 482.5,-336.5"/>
<text text-anchor="middle" x="533" y="-343.5" font-family="Helvetica,sans-Serif" font-size="10.00">AP_HAL_Macros.h</text>
</a>
</g>
</g>
<!-- Node7&#45;&gt;Node12 -->
<g id="edge13" class="edge"><title>Node7&#45;&gt;Node12</title>
<path fill="none" stroke="midnightblue" d="M713.261,-392.916C676.95,-383.666 617.274,-368.466 576.612,-358.109"/>
<polygon fill="midnightblue" stroke="midnightblue" points="577.265,-354.663 566.71,-355.587 575.537,-361.447 577.265,-354.663"/>
</g>
<!-- Node13 -->
<g id="node13" class="node"><title>Node13</title>
<g id="a_node13"><a xlink:href="$UARTDriver_8h.html" xlink:title="UARTDriver.h">
<polygon fill="white" stroke="black" points="792.5,-280.5 792.5,-299.5 871.5,-299.5 871.5,-280.5 792.5,-280.5"/>
<text text-anchor="middle" x="832" y="-287.5" font-family="Helvetica,sans-Serif" font-size="10.00">UARTDriver.h</text>
</a>
</g>
</g>
<!-- Node7&#45;&gt;Node13 -->
<g id="edge14" class="edge"><title>Node7&#45;&gt;Node13</title>
<path fill="none" stroke="midnightblue" d="M751.827,-392.368C766.248,-374.135 800.027,-331.426 818.811,-307.675"/>
<polygon fill="midnightblue" stroke="midnightblue" points="821.747,-309.606 825.205,-299.591 816.256,-305.264 821.747,-309.606"/>
</g>
<!-- Node14 -->
<g id="node14" class="node"><title>Node14</title>
<g id="a_node14"><a xlink:href="$BetterStream_8h.html" xlink:title="utility/BetterStream.h">
<polygon fill="white" stroke="black" points="762.5,-224.5 762.5,-243.5 871.5,-243.5 871.5,-224.5 762.5,-224.5"/>
<text text-anchor="middle" x="817" y="-231.5" font-family="Helvetica,sans-Serif" font-size="10.00">utility/BetterStream.h</text>
</a>
</g>
</g>
<!-- Node7&#45;&gt;Node14 -->
<g id="edge61" class="edge"><title>Node7&#45;&gt;Node14</title>
<path fill="none" stroke="midnightblue" d="M746.767,-392.42C751.161,-372.087 763.718,-319.703 784,-280 789.114,-269.989 796.371,-259.809 802.779,-251.669"/>
<polygon fill="midnightblue" stroke="midnightblue" points="805.639,-253.7 809.256,-243.742 800.218,-249.271 805.639,-253.7"/>
</g>
<!-- Node16 -->
<g id="node16" class="node"><title>Node16</title>
<g id="a_node16"><a xlink:href="$Stream_8h.html" xlink:title="Stream.h">
<polygon fill="white" stroke="black" points="894,-168.5 894,-187.5 950,-187.5 950,-168.5 894,-168.5"/>
<text text-anchor="middle" x="922" y="-175.5" font-family="Helvetica,sans-Serif" font-size="10.00">Stream.h</text>
</a>
</g>
</g>
<!-- Node7&#45;&gt;Node16 -->
<g id="edge60" class="edge"><title>Node7&#45;&gt;Node16</title>
<path fill="none" stroke="midnightblue" d="M762.554,-392.333C791.162,-377.353 847.868,-343.951 880,-300 903.103,-268.4 914.293,-223.043 919.029,-197.791"/>
<polygon fill="midnightblue" stroke="midnightblue" points="922.514,-198.176 920.77,-187.726 915.617,-196.983 922.514,-198.176"/>
</g>
<!-- Node17 -->
<g id="node17" class="node"><title>Node17</title>
<g id="a_node17"><a xlink:href="$Print_8h.html" xlink:title="Print.h">
<polygon fill="white" stroke="black" points="786.5,-112.5 786.5,-131.5 831.5,-131.5 831.5,-112.5 786.5,-112.5"/>
<text text-anchor="middle" x="809" y="-119.5" font-family="Helvetica,sans-Serif" font-size="10.00">Print.h</text>
</a>
</g>
</g>
<!-- Node7&#45;&gt;Node17 -->
<g id="edge59" class="edge"><title>Node7&#45;&gt;Node17</title>
<path fill="none" stroke="midnightblue" d="M735.236,-392.277C708.557,-367.336 637.674,-293.071 657,-224 664.846,-195.96 668.632,-186.64 691,-168 704.393,-156.84 746.679,-142.18 776.795,-132.676"/>
<polygon fill="midnightblue" stroke="midnightblue" points="777.973,-135.975 786.483,-129.662 775.894,-129.291 777.973,-135.975"/>
</g>
<!-- Node21 -->
<g id="node21" class="node"><title>Node21</title>
<g id="a_node21"><a xlink:href="$I2CDriver_8h.html" xlink:title="I2CDriver.h">
<polygon fill="white" stroke="black" points="662.5,-112.5 662.5,-131.5 729.5,-131.5 729.5,-112.5 662.5,-112.5"/>
<text text-anchor="middle" x="696" y="-119.5" font-family="Helvetica,sans-Serif" font-size="10.00">I2CDriver.h</text>
</a>
</g>
</g>
<!-- Node7&#45;&gt;Node21 -->
<g id="edge31" class="edge"><title>Node7&#45;&gt;Node21</title>
<path fill="none" stroke="midnightblue" d="M730.3,-392.336C696.938,-371.7 616.067,-315.945 586,-244 566.32,-196.911 628.52,-156.29 667.31,-136.272"/>
<polygon fill="midnightblue" stroke="midnightblue" points="669.218,-139.232 676.604,-131.636 666.093,-132.968 669.218,-139.232"/>
</g>
<!-- Node22 -->
<g id="node22" class="node"><title>Node22</title>
<g id="a_node22"><a xlink:href="$SPIDriver_8h.html" xlink:title="SPIDriver.h">
<polygon fill="white" stroke="black" points="1168,-280.5 1168,-299.5 1236,-299.5 1236,-280.5 1168,-280.5"/>
<text text-anchor="middle" x="1202" y="-287.5" font-family="Helvetica,sans-Serif" font-size="10.00">SPIDriver.h</text>
</a>
</g>
</g>
<!-- Node7&#45;&gt;Node22 -->
<g id="edge34" class="edge"><title>Node7&#45;&gt;Node22</title>
<path fill="none" stroke="midnightblue" d="M776.874,-401.808C840.973,-402.409 989.157,-398.595 1104,-356 1134.9,-344.539 1165.8,-321.685 1184.41,-306.364"/>
<polygon fill="midnightblue" stroke="midnightblue" points="1186.89,-308.85 1192.28,-299.727 1182.38,-303.499 1186.89,-308.85"/>
</g>
<!-- Node23 -->
<g id="node23" class="node"><title>Node23</title>
<g id="a_node23"><a xlink:href="$AnalogIn_8h.html" xlink:title="AnalogIn.h">
<polygon fill="white" stroke="black" points="1292.5,-280.5 1292.5,-299.5 1355.5,-299.5 1355.5,-280.5 1292.5,-280.5"/>
<text text-anchor="middle" x="1324" y="-287.5" font-family="Helvetica,sans-Serif" font-size="10.00">AnalogIn.h</text>
</a>
</g>
</g>
<!-- Node7&#45;&gt;Node23 -->
<g id="edge36" class="edge"><title>Node7&#45;&gt;Node23</title>
<path fill="none" stroke="midnightblue" d="M776.783,-399.871C884.947,-395.817 1234.47,-380.898 1278,-356 1296.33,-345.515 1309.16,-324.401 1316.53,-309.075"/>
<polygon fill="midnightblue" stroke="midnightblue" points="1319.89,-310.149 1320.76,-299.591 1313.49,-307.298 1319.89,-310.149"/>
</g>
<!-- Node24 -->
<g id="node24" class="node"><title>Node24</title>
<g id="a_node24"><a xlink:href="$Storage_8h.html" xlink:title="Storage.h">
<polygon fill="white" stroke="black" points="1004.5,-224.5 1004.5,-243.5 1063.5,-243.5 1063.5,-224.5 1004.5,-224.5"/>
<text text-anchor="middle" x="1034" y="-231.5" font-family="Helvetica,sans-Serif" font-size="10.00">Storage.h</text>
</a>
</g>
</g>
<!-- Node7&#45;&gt;Node24 -->
<g id="edge38" class="edge"><title>Node7&#45;&gt;Node24</title>
<path fill="none" stroke="midnightblue" d="M776.804,-397.59C812.272,-392.68 870.383,-381.257 914,-356 961.179,-328.68 1002.61,-277.996 1022.13,-251.739"/>
<polygon fill="midnightblue" stroke="midnightblue" points="1025.04,-253.694 1028.09,-243.549 1019.38,-249.574 1025.04,-253.694"/>
</g>
<!-- Node25 -->
<g id="node25" class="node"><title>Node25</title>
<g id="a_node25"><a xlink:href="$GPIO_8h.html" xlink:title="GPIO.h">
<polygon fill="white" stroke="black" points="788,-168.5 788,-187.5 838,-187.5 838,-168.5 788,-168.5"/>
<text text-anchor="middle" x="813" y="-175.5" font-family="Helvetica,sans-Serif" font-size="10.00">GPIO.h</text>
</a>
</g>
</g>
<!-- Node7&#45;&gt;Node25 -->
<g id="edge41" class="edge"><title>Node7&#45;&gt;Node25</title>
<path fill="none" stroke="midnightblue" d="M743.011,-392.225C737.374,-365.222 723.589,-281.707 754,-224 760.988,-210.741 773.81,-200.239 785.72,-192.727"/>
<polygon fill="midnightblue" stroke="midnightblue" points="787.674,-195.639 794.539,-187.569 784.14,-189.597 787.674,-195.639"/>
</g>
<!-- Node26 -->
<g id="node26" class="node"><title>Node26</title>
<g id="a_node26"><a xlink:href="$RCInput_8h.html" xlink:title="RCInput.h">
<polygon fill="white" stroke="black" points="1374,-280.5 1374,-299.5 1436,-299.5 1436,-280.5 1374,-280.5"/>
<text text-anchor="middle" x="1405" y="-287.5" font-family="Helvetica,sans-Serif" font-size="10.00">RCInput.h</text>
</a>
</g>
</g>
<!-- Node7&#45;&gt;Node26 -->
<g id="edge44" class="edge"><title>Node7&#45;&gt;Node26</title>
<path fill="none" stroke="midnightblue" d="M776.745,-400.422C879.704,-398.24 1203.41,-388.868 1302,-356 1334.7,-345.098 1367.53,-321.72 1387.05,-306.178"/>
<polygon fill="midnightblue" stroke="midnightblue" points="1389.51,-308.694 1395.04,-299.661 1385.08,-303.27 1389.51,-308.694"/>
</g>
<!-- Node27 -->
<g id="node27" class="node"><title>Node27</title>
<g id="a_node27"><a xlink:href="$RCOutput_8h.html" xlink:title="RCOutput.h">
<polygon fill="white" stroke="black" points="1080.5,-280.5 1080.5,-299.5 1149.5,-299.5 1149.5,-280.5 1080.5,-280.5"/>
<text text-anchor="middle" x="1115" y="-287.5" font-family="Helvetica,sans-Serif" font-size="10.00">RCOutput.h</text>
</a>
</g>
</g>
<!-- Node7&#45;&gt;Node27 -->
<g id="edge46" class="edge"><title>Node7&#45;&gt;Node27</title>
<path fill="none" stroke="midnightblue" d="M776.616,-400.455C850.762,-398.607 1033.25,-390.573 1082,-356 1097.45,-345.042 1106.11,-324.679 1110.65,-309.654"/>
<polygon fill="midnightblue" stroke="midnightblue" points="1114.06,-310.432 1113.25,-299.868 1107.3,-308.629 1114.06,-310.432"/>
</g>
<!-- Node28 -->
<g id="node28" class="node"><title>Node28</title>
<g id="a_node28"><a xlink:href="$Scheduler_8h.html" xlink:title="Scheduler.h">
<polygon fill="white" stroke="black" points="382,-224.5 382,-243.5 450,-243.5 450,-224.5 382,-224.5"/>
<text text-anchor="middle" x="416" y="-231.5" font-family="Helvetica,sans-Serif" font-size="10.00">Scheduler.h</text>
</a>
</g>
</g>
<!-- Node7&#45;&gt;Node28 -->
<g id="edge48" class="edge"><title>Node7&#45;&gt;Node28</title>
<path fill="none" stroke="midnightblue" d="M713.429,-400.784C643.53,-399.628 478.818,-392.949 440,-356 412.039,-329.385 411.555,-280.263 413.716,-253.522"/>
<polygon fill="midnightblue" stroke="midnightblue" points="417.199,-253.867 414.732,-243.563 410.235,-253.157 417.199,-253.867"/>
</g>
<!-- Node29 -->
<g id="node29" class="node"><title>Node29</title>
<g id="a_node29"><a xlink:href="$Semaphores_8h.html" xlink:title="Semaphores.h">
<polygon fill="white" stroke="black" points="1209,-224.5 1209,-243.5 1289,-243.5 1289,-224.5 1209,-224.5"/>
<text text-anchor="middle" x="1249" y="-231.5" font-family="Helvetica,sans-Serif" font-size="10.00">Semaphores.h</text>
</a>
</g>
</g>
<!-- Node7&#45;&gt;Node29 -->
<g id="edge53" class="edge"><title>Node7&#45;&gt;Node29</title>
<path fill="none" stroke="midnightblue" d="M776.691,-401.163C844.261,-400.691 1006.86,-395.183 1136,-356 1188.12,-340.186 1215.21,-345.592 1245,-300 1253.88,-286.408 1254.06,-267.611 1252.5,-253.725"/>
<polygon fill="midnightblue" stroke="midnightblue" points="1255.96,-253.204 1251.01,-243.836 1249.04,-254.245 1255.96,-253.204"/>
</g>
<!-- Node30 -->
<g id="node30" class="node"><title>Node30</title>
<g id="a_node30"><a xlink:href="$Util_8h.html" xlink:title="Util.h">
<polygon fill="white" stroke="black" points="666,-224.5 666,-243.5 706,-243.5 706,-224.5 666,-224.5"/>
<text text-anchor="middle" x="686" y="-231.5" font-family="Helvetica,sans-Serif" font-size="10.00">Util.h</text>
</a>
</g>
</g>
<!-- Node7&#45;&gt;Node30 -->
<g id="edge55" class="edge"><title>Node7&#45;&gt;Node30</title>
<path fill="none" stroke="midnightblue" d="M736.952,-392.404C729.373,-383.832 718.272,-369.963 712,-356 696.646,-321.822 690.146,-278.061 687.561,-253.633"/>
<polygon fill="midnightblue" stroke="midnightblue" points="691.038,-253.22 686.609,-243.595 684.069,-253.881 691.038,-253.22"/>
</g>
<!-- Node31 -->
<g id="node31" class="node"><title>Node31</title>
<g id="a_node31"><a xlink:href="$HAL_8h.html" xlink:title="HAL.h">
<polygon fill="white" stroke="black" points="1030,-336.5 1030,-355.5 1074,-355.5 1074,-336.5 1030,-336.5"/>
<text text-anchor="middle" x="1052" y="-343.5" font-family="Helvetica,sans-Serif" font-size="10.00">HAL.h</text>
</a>
</g>
</g>
<!-- Node7&#45;&gt;Node31 -->
<g id="edge62" class="edge"><title>Node7&#45;&gt;Node31</title>
<path fill="none" stroke="midnightblue" d="M776.698,-395.424C835.518,-385.078 960.935,-363.018 1019.99,-352.63"/>
<polygon fill="midnightblue" stroke="midnightblue" points="1020.64,-356.07 1029.88,-350.891 1019.43,-349.176 1020.64,-356.07"/>
</g>
<!-- Node8&#45;&gt;Node9 -->
<g id="edge10" class="edge"><title>Node8&#45;&gt;Node9</title>
<path fill="none" stroke="midnightblue" d="M955.038,-57.9958C855.286,-46.5349 660.353,-24.1384 580.933,-15.0135"/>
<polygon fill="midnightblue" stroke="midnightblue" points="580.849,-11.481 570.515,-13.8166 580.05,-18.4352 580.849,-11.481"/>
</g>
<!-- Node10 -->
<g id="node10" class="node"><title>Node10</title>
<g id="a_node10"><a xlink:href="$FastDelegate_8h.html" xlink:title="utility/FastDelegate.h">
<polygon fill="white" stroke="black" points="961,-0.5 961,-19.5 1071,-19.5 1071,-0.5 961,-0.5"/>
<text text-anchor="middle" x="1016" y="-7.5" font-family="Helvetica,sans-Serif" font-size="10.00">utility/FastDelegate.h</text>
</a>
</g>
</g>
<!-- Node8&#45;&gt;Node10 -->
<g id="edge11" class="edge"><title>Node8&#45;&gt;Node10</title>
<path fill="none" stroke="midnightblue" d="M1016,-56.083C1016,-49.0059 1016,-38.8611 1016,-29.9865"/>
<polygon fill="midnightblue" stroke="midnightblue" points="1019.5,-29.751 1016,-19.7511 1012.5,-29.7511 1019.5,-29.751"/>
</g>
<!-- Node13&#45;&gt;Node3 -->
<g id="edge15" class="edge"><title>Node13&#45;&gt;Node3</title>
<path fill="none" stroke="midnightblue" d="M792.188,-286.16C754.644,-281.861 698.146,-271.069 657,-244 593.475,-202.208 547.018,-120.887 528.653,-84.8871"/>
<polygon fill="midnightblue" stroke="midnightblue" points="531.635,-83.025 524.046,-75.6326 525.369,-86.1445 531.635,-83.025"/>
</g>
<!-- Node13&#45;&gt;Node8 -->
<g id="edge16" class="edge"><title>Node13&#45;&gt;Node8</title>
<path fill="none" stroke="midnightblue" d="M850.641,-280.431C881.087,-265.591 941.719,-232.386 978,-188 1002.65,-157.841 1011.38,-111.582 1014.42,-85.8769"/>
<polygon fill="midnightblue" stroke="midnightblue" points="1017.93,-85.9454 1015.45,-75.6443 1010.97,-85.2421 1017.93,-85.9454"/>
</g>
<!-- Node13&#45;&gt;Node14 -->
<g id="edge17" class="edge"><title>Node13&#45;&gt;Node14</title>
<path fill="none" stroke="midnightblue" d="M829.523,-280.083C827.514,-272.849 824.614,-262.409 822.11,-253.397"/>
<polygon fill="midnightblue" stroke="midnightblue" points="825.48,-252.449 819.431,-243.751 818.735,-254.323 825.48,-252.449"/>
</g>
<!-- Node14&#45;&gt;Node8 -->
<g id="edge19" class="edge"><title>Node14&#45;&gt;Node8</title>
<path fill="none" stroke="midnightblue" d="M871.637,-226.134C900.137,-220.134 933.969,-208.923 958,-188 974.43,-173.695 997.811,-115.707 1009.22,-85.5001"/>
<polygon fill="midnightblue" stroke="midnightblue" points="1012.63,-86.3534 1012.84,-75.7606 1006.07,-83.9115 1012.63,-86.3534"/>
</g>
<!-- Node15 -->
<g id="node15" class="node"><title>Node15</title>
<polygon fill="white" stroke="#bfbfbf" points="718,-168.5 718,-187.5 770,-187.5 770,-168.5 718,-168.5"/>
<text text-anchor="middle" x="744" y="-175.5" font-family="Helvetica,sans-Serif" font-size="10.00">stdarg.h</text>
</g>
<!-- Node14&#45;&gt;Node15 -->
<g id="edge18" class="edge"><title>Node14&#45;&gt;Node15</title>
<path fill="none" stroke="midnightblue" d="M805.271,-224.324C794.163,-216.107 777.258,-203.602 764.017,-193.807"/>
<polygon fill="midnightblue" stroke="midnightblue" points="766.063,-190.967 755.942,-187.834 761.9,-196.595 766.063,-190.967"/>
</g>
<!-- Node14&#45;&gt;Node16 -->
<g id="edge20" class="edge"><title>Node14&#45;&gt;Node16</title>
<path fill="none" stroke="midnightblue" d="M833.87,-224.324C850.709,-215.664 876.807,-202.242 896.238,-192.249"/>
<polygon fill="midnightblue" stroke="midnightblue" points="897.88,-195.341 905.172,-187.655 894.678,-189.116 897.88,-195.341"/>
</g>
<!-- Node14&#45;&gt;Node19 -->
<g id="edge26" class="edge"><title>Node14&#45;&gt;Node19</title>
<path fill="none" stroke="midnightblue" d="M762.18,-226.051C679.859,-215.616 525.32,-196.026 444.049,-185.724"/>
<polygon fill="midnightblue" stroke="midnightblue" points="444.395,-182.24 434.034,-184.455 443.515,-189.185 444.395,-182.24"/>
</g>
<!-- Node16&#45;&gt;Node8 -->
<g id="edge21" class="edge"><title>Node16&#45;&gt;Node8</title>
<path fill="none" stroke="midnightblue" d="M926.478,-168.472C933.498,-155.522 947.958,-130.455 964,-112 973.546,-101.018 985.788,-90.2937 995.996,-82.0704"/>
<polygon fill="midnightblue" stroke="midnightblue" points="998.281,-84.7265 1003.99,-75.8004 993.96,-79.219 998.281,-84.7265"/>
</g>
<!-- Node16&#45;&gt;Node17 -->
<g id="edge22" class="edge"><title>Node16&#45;&gt;Node17</title>
<path fill="none" stroke="midnightblue" d="M904.095,-168.444C885.746,-159.675 856.995,-145.935 835.906,-135.858"/>
<polygon fill="midnightblue" stroke="midnightblue" points="837.353,-132.67 826.821,-131.516 834.335,-138.986 837.353,-132.67"/>
</g>
<!-- Node17&#45;&gt;Node8 -->
<g id="edge23" class="edge"><title>Node17&#45;&gt;Node8</title>
<path fill="none" stroke="midnightblue" d="M831.547,-115.118C865.499,-106.261 930.353,-89.3427 973.397,-78.1138"/>
<polygon fill="midnightblue" stroke="midnightblue" points="974.509,-81.4409 983.302,-75.5299 972.742,-74.6676 974.509,-81.4409"/>
</g>
<!-- Node17&#45;&gt;Node9 -->
<g id="edge25" class="edge"><title>Node17&#45;&gt;Node9</title>
<path fill="none" stroke="midnightblue" d="M788.363,-112.368C742.08,-93.0105 629.836,-46.0645 575.904,-23.5074"/>
<polygon fill="midnightblue" stroke="midnightblue" points="577.117,-20.2211 566.541,-19.5914 574.416,-26.679 577.117,-20.2211"/>
</g>
<!-- Node18 -->
<g id="node18" class="node"><title>Node18</title>
<polygon fill="white" stroke="#bfbfbf" points="779.5,-56.5 779.5,-75.5 838.5,-75.5 838.5,-56.5 779.5,-56.5"/>
<text text-anchor="middle" x="809" y="-63.5" font-family="Helvetica,sans-Serif" font-size="10.00">inttypes.h</text>
</g>
<!-- Node17&#45;&gt;Node18 -->
<g id="edge24" class="edge"><title>Node17&#45;&gt;Node18</title>
<path fill="none" stroke="midnightblue" d="M809,-112.083C809,-105.006 809,-94.8611 809,-85.9865"/>
<polygon fill="midnightblue" stroke="midnightblue" points="812.5,-85.751 809,-75.7511 805.5,-85.7511 812.5,-85.751"/>
</g>
<!-- Node19&#45;&gt;Node11 -->
<g id="edge27" class="edge"><title>Node19&#45;&gt;Node11</title>
<path fill="none" stroke="midnightblue" d="M370.718,-168.444C349.653,-159.557 316.483,-145.563 292.514,-135.451"/>
<polygon fill="midnightblue" stroke="midnightblue" points="293.761,-132.179 283.187,-131.516 291.04,-138.628 293.761,-132.179"/>
</g>
<!-- Node20 -->
<g id="node20" class="node"><title>Node20</title>
<g id="a_node20"><a xlink:href="$AP__Progmem__Identity_8h.html" xlink:title="AP_Progmem_Identity.h">
<polygon fill="white" stroke="black" points="330.5,-112.5 330.5,-131.5 453.5,-131.5 453.5,-112.5 330.5,-112.5"/>
<text text-anchor="middle" x="392" y="-119.5" font-family="Helvetica,sans-Serif" font-size="10.00">AP_Progmem_Identity.h</text>
</a>
</g>
</g>
<!-- Node19&#45;&gt;Node20 -->
<g id="edge28" class="edge"><title>Node19&#45;&gt;Node20</title>
<path fill="none" stroke="midnightblue" d="M391.165,-168.083C391.296,-161.006 391.484,-150.861 391.648,-141.986"/>
<polygon fill="midnightblue" stroke="midnightblue" points="395.152,-141.814 391.838,-131.751 388.153,-141.685 395.152,-141.814"/>
</g>
<!-- Node20&#45;&gt;Node3 -->
<g id="edge30" class="edge"><title>Node20&#45;&gt;Node3</title>
<path fill="none" stroke="midnightblue" d="M412.282,-112.444C433.347,-103.557 466.517,-89.5632 490.486,-79.4514"/>
<polygon fill="midnightblue" stroke="midnightblue" points="491.96,-82.6283 499.813,-75.5164 489.239,-76.1787 491.96,-82.6283"/>
</g>
<!-- Node20&#45;&gt;Node9 -->
<g id="edge29" class="edge"><title>Node20&#45;&gt;Node9</title>
<path fill="none" stroke="midnightblue" d="M404.084,-112.368C430.398,-93.5728 493.124,-48.7684 525.653,-25.5334"/>
<polygon fill="midnightblue" stroke="midnightblue" points="527.869,-28.2519 533.972,-19.5914 523.8,-22.5558 527.869,-28.2519"/>
</g>
<!-- Node21&#45;&gt;Node3 -->
<g id="edge32" class="edge"><title>Node21&#45;&gt;Node3</title>
<path fill="none" stroke="midnightblue" d="M668.112,-112.444C637.28,-102.984 587.589,-87.7377 554.374,-77.5465"/>
<polygon fill="midnightblue" stroke="midnightblue" points="555.22,-74.1452 544.633,-74.558 553.167,-80.8373 555.22,-74.1452"/>
</g>
<!-- Node21&#45;&gt;Node8 -->
<g id="edge33" class="edge"><title>Node21&#45;&gt;Node8</title>
<path fill="none" stroke="midnightblue" d="M729.553,-114.614C734.397,-113.72 739.324,-112.825 744,-112 815.331,-99.4136 897.378,-85.9828 952.545,-77.1042"/>
<polygon fill="midnightblue" stroke="midnightblue" points="953.207,-80.5429 962.525,-75.5006 952.096,-73.6316 953.207,-80.5429"/>
</g>
<!-- Node22&#45;&gt;Node8 -->
<g id="edge35" class="edge"><title>Node22&#45;&gt;Node8</title>
<path fill="none" stroke="midnightblue" d="M1200.54,-280.332C1195.35,-252.19 1175.33,-162.297 1124,-112 1107.79,-96.1173 1085.16,-85.527 1064.8,-78.6346"/>
<polygon fill="midnightblue" stroke="midnightblue" points="1065.62,-75.2217 1055.03,-75.5412 1063.51,-81.8955 1065.62,-75.2217"/>
</g>
<!-- Node23&#45;&gt;Node8 -->
<g id="edge37" class="edge"><title>Node23&#45;&gt;Node8</title>
<path fill="none" stroke="midnightblue" d="M1321.31,-280.484C1311.57,-251.225 1275.15,-154.292 1208,-112 1171.7,-89.1379 1124.94,-77.8753 1086.65,-72.3343"/>
<polygon fill="midnightblue" stroke="midnightblue" points="1086.98,-68.8472 1076.6,-70.9817 1086.05,-75.7846 1086.98,-68.8472"/>
</g>
<!-- Node24&#45;&gt;Node3 -->
<g id="edge39" class="edge"><title>Node24&#45;&gt;Node3</title>
<path fill="none" stroke="midnightblue" d="M1004.3,-225.823C973.811,-218.041 925.257,-204.496 885,-188 867.34,-180.764 865.031,-174.256 847,-168 764.151,-139.253 735.688,-161.205 653,-132 635.374,-125.775 632.692,-120.415 616,-112 593.503,-100.658 567.619,-88.5807 548.402,-79.7962"/>
<polygon fill="midnightblue" stroke="midnightblue" points="549.832,-76.6018 539.28,-75.6452 546.932,-82.9731 549.832,-76.6018"/>
</g>
<!-- Node24&#45;&gt;Node8 -->
<g id="edge40" class="edge"><title>Node24&#45;&gt;Node8</title>
<path fill="none" stroke="midnightblue" d="M1034.5,-224.413C1035.49,-204.492 1037.04,-153.657 1030,-112 1028.48,-103.025 1025.64,-93.352 1022.91,-85.2829"/>
<polygon fill="midnightblue" stroke="midnightblue" points="1026.18,-84.0249 1019.51,-75.7927 1019.59,-86.3872 1026.18,-84.0249"/>
</g>
<!-- Node25&#45;&gt;Node3 -->
<g id="edge42" class="edge"><title>Node25&#45;&gt;Node3</title>
<path fill="none" stroke="midnightblue" d="M787.775,-170.214C784.821,-169.452 781.846,-168.699 779,-168 708.634,-150.727 686.749,-160.183 620,-132 589.231,-119.009 557.537,-96.5843 538.298,-81.771"/>
<polygon fill="midnightblue" stroke="midnightblue" points="540.411,-78.9803 530.383,-75.5617 536.091,-84.4878 540.411,-78.9803"/>
</g>
<!-- Node25&#45;&gt;Node8 -->
<g id="edge43" class="edge"><title>Node25&#45;&gt;Node8</title>
<path fill="none" stroke="midnightblue" d="M828.929,-168.368C864.209,-149.251 949.141,-103.229 991.343,-80.361"/>
<polygon fill="midnightblue" stroke="midnightblue" points="993.02,-83.433 1000.14,-75.5914 989.685,-77.2784 993.02,-83.433"/>
</g>
<!-- Node26&#45;&gt;Node8 -->
<g id="edge45" class="edge"><title>Node26&#45;&gt;Node8</title>
<path fill="none" stroke="midnightblue" d="M1399.44,-280.242C1380.39,-251.032 1314.48,-156.292 1234,-112 1188.77,-87.1081 1131.38,-75.9412 1086.84,-70.9532"/>
<polygon fill="midnightblue" stroke="midnightblue" points="1086.98,-67.4495 1076.67,-69.8965 1086.26,-74.412 1086.98,-67.4495"/>
</g>
<!-- Node27&#45;&gt;Node8 -->
<g id="edge47" class="edge"><title>Node27&#45;&gt;Node8</title>
<path fill="none" stroke="midnightblue" d="M1117.36,-280.339C1124.28,-252.961 1141.86,-166.857 1106,-112 1095.85,-96.4765 1078.64,-86.0892 1061.97,-79.2479"/>
<polygon fill="midnightblue" stroke="midnightblue" points="1062.87,-75.8469 1052.28,-75.6176 1060.42,-82.4023 1062.87,-75.8469"/>
</g>
<!-- Node28&#45;&gt;Node3 -->
<g id="edge51" class="edge"><title>Node28&#45;&gt;Node3</title>
<path fill="none" stroke="midnightblue" d="M421.591,-224.075C438.175,-197.606 487.291,-119.209 509.218,-84.2097"/>
<polygon fill="midnightblue" stroke="midnightblue" points="512.289,-85.9006 514.632,-75.5681 506.357,-82.1841 512.289,-85.9006"/>
</g>
<!-- Node28&#45;&gt;Node8 -->
<g id="edge49" class="edge"><title>Node28&#45;&gt;Node8</title>
<path fill="none" stroke="midnightblue" d="M445.359,-224.446C513.951,-204.356 683.063,-154.185 738,-132 756.43,-124.558 759.166,-118.352 778,-112 832.685,-93.5583 897.137,-81.9568 945.168,-75.1615"/>
<polygon fill="midnightblue" stroke="midnightblue" points="945.73,-78.6172 955.158,-73.7837 944.774,-71.6828 945.73,-78.6172"/>
</g>
<!-- Node28&#45;&gt;Node11 -->
<g id="edge50" class="edge"><title>Node28&#45;&gt;Node11</title>
<path fill="none" stroke="midnightblue" d="M399.552,-224.499C383.594,-215.997 358.936,-202.179 339,-188 317.273,-172.548 294.265,-152.245 279.331,-138.471"/>
<polygon fill="midnightblue" stroke="midnightblue" points="281.625,-135.824 271.925,-131.563 276.85,-140.943 281.625,-135.824"/>
</g>
<!-- Node28&#45;&gt;Node19 -->
<g id="edge52" class="edge"><title>Node28&#45;&gt;Node19</title>
<path fill="none" stroke="midnightblue" d="M411.872,-224.083C408.486,-216.77 403.584,-206.181 399.381,-197.103"/>
<polygon fill="midnightblue" stroke="midnightblue" points="402.429,-195.355 395.051,-187.751 396.077,-198.296 402.429,-195.355"/>
</g>
<!-- Node29&#45;&gt;Node8 -->
<g id="edge54" class="edge"><title>Node29&#45;&gt;Node8</title>
<path fill="none" stroke="midnightblue" d="M1247.01,-224.445C1241.4,-202.259 1223.3,-142.487 1185,-112 1157.23,-89.8949 1119.58,-78.5947 1086.86,-72.8407"/>
<polygon fill="midnightblue" stroke="midnightblue" points="1087.31,-69.3684 1076.88,-71.2272 1086.2,-76.2787 1087.31,-69.3684"/>
</g>
<!-- Node30&#45;&gt;Node8 -->
<g id="edge57" class="edge"><title>Node30&#45;&gt;Node8</title>
<path fill="none" stroke="midnightblue" d="M686.563,-224.48C687.945,-210.608 692.701,-183.168 709,-168 753.203,-126.867 782.641,-150.861 840,-132 863.523,-124.265 868.805,-120.668 892,-112 922.356,-100.655 957.039,-88.1033 981.992,-79.1447"/>
<polygon fill="midnightblue" stroke="midnightblue" points="983.482,-82.3285 991.714,-75.659 981.12,-75.7392 983.482,-82.3285"/>
</g>
<!-- Node30&#45;&gt;Node15 -->
<g id="edge56" class="edge"><title>Node30&#45;&gt;Node15</title>
<path fill="none" stroke="midnightblue" d="M695.319,-224.324C703.893,-216.341 716.812,-204.313 727.188,-194.653"/>
<polygon fill="midnightblue" stroke="midnightblue" points="729.578,-197.21 734.512,-187.834 724.808,-192.086 729.578,-197.21"/>
</g>
<!-- Node30&#45;&gt;Node19 -->
<g id="edge58" class="edge"><title>Node30&#45;&gt;Node19</title>
<path fill="none" stroke="midnightblue" d="M665.723,-229.288C620.53,-221.016 510.31,-200.84 444.03,-188.707"/>
<polygon fill="midnightblue" stroke="midnightblue" points="444.651,-185.263 434.184,-186.905 443.391,-192.148 444.651,-185.263"/>
</g>
<!-- Node31&#45;&gt;Node8 -->
<g id="edge63" class="edge"><title>Node31&#45;&gt;Node8</title>
<path fill="none" stroke="midnightblue" d="M1054.29,-336.438C1058.77,-319.134 1068.6,-278.69 1072,-244 1077.84,-184.404 1068.57,-167.049 1045,-112 1040.8,-102.192 1034.54,-92.131 1028.9,-84.0167"/>
<polygon fill="midnightblue" stroke="midnightblue" points="1031.65,-81.8478 1022.95,-75.7997 1025.98,-85.9524 1031.65,-81.8478"/>
</g>
<!-- Node31&#45;&gt;Node13 -->
<g id="edge64" class="edge"><title>Node31&#45;&gt;Node13</title>
<path fill="none" stroke="midnightblue" d="M1029.69,-339.525C993.973,-330.757 923.238,-313.395 876.786,-301.993"/>
<polygon fill="midnightblue" stroke="midnightblue" points="877.523,-298.57 866.976,-299.585 875.854,-305.368 877.523,-298.57"/>
</g>
<!-- Node31&#45;&gt;Node22 -->
<g id="edge65" class="edge"><title>Node31&#45;&gt;Node22</title>
<path fill="none" stroke="midnightblue" d="M1074.13,-337.032C1099.06,-328.057 1139.85,-313.373 1168.65,-303.006"/>
<polygon fill="midnightblue" stroke="midnightblue" points="1170.07,-306.216 1178.29,-299.536 1167.69,-299.63 1170.07,-306.216"/>
</g>
<!-- Node31&#45;&gt;Node23 -->
<g id="edge66" class="edge"><title>Node31&#45;&gt;Node23</title>
<path fill="none" stroke="midnightblue" d="M1074.26,-340.581C1119.74,-331.551 1223.96,-310.861 1282.37,-299.265"/>
<polygon fill="midnightblue" stroke="midnightblue" points="1283.25,-302.659 1292.37,-297.279 1281.88,-295.793 1283.25,-302.659"/>
</g>
<!-- Node31&#45;&gt;Node24 -->
<g id="edge67" class="edge"><title>Node31&#45;&gt;Node24</title>
<path fill="none" stroke="midnightblue" d="M1048.57,-336.194C1045.24,-327.235 1040.36,-312.876 1038,-300 1035.19,-284.691 1034.25,-267.049 1033.97,-254.011"/>
<polygon fill="midnightblue" stroke="midnightblue" points="1037.47,-253.879 1033.88,-243.913 1030.47,-253.946 1037.47,-253.879"/>
</g>
<!-- Node31&#45;&gt;Node25 -->
<g id="edge68" class="edge"><title>Node31&#45;&gt;Node25</title>
<path fill="none" stroke="midnightblue" d="M1039.97,-336.401C1012.02,-316.456 940.474,-265.573 880,-224 864.802,-213.552 847.52,-201.952 834.315,-193.146"/>
<polygon fill="midnightblue" stroke="midnightblue" points="836.164,-190.172 825.9,-187.545 832.285,-195.999 836.164,-190.172"/>
</g>
<!-- Node31&#45;&gt;Node26 -->
<g id="edge69" class="edge"><title>Node31&#45;&gt;Node26</title>
<path fill="none" stroke="midnightblue" d="M1074.03,-342.383C1123.71,-336.363 1248.43,-320.585 1363.66,-299.933"/>
<polygon fill="midnightblue" stroke="midnightblue" points="1364.49,-303.339 1373.71,-298.115 1363.24,-296.451 1364.49,-303.339"/>
</g>
<!-- Node31&#45;&gt;Node27 -->
<g id="edge70" class="edge"><title>Node31&#45;&gt;Node27</title>
<path fill="none" stroke="midnightblue" d="M1062.12,-336.324C1071.53,-328.263 1085.74,-316.077 1097.07,-306.369"/>
<polygon fill="midnightblue" stroke="midnightblue" points="1099.38,-308.999 1104.69,-299.834 1094.82,-303.684 1099.38,-308.999"/>
</g>
<!-- Node35&#45;&gt;Node7 -->
<g id="edge78" class="edge"><title>Node35&#45;&gt;Node7</title>
<path fill="none" stroke="midnightblue" d="M688.537,-448.781C699.955,-439.523 714.83,-427.462 726.446,-418.044"/>
<polygon fill="midnightblue" stroke="midnightblue" points="728.669,-420.747 734.232,-411.731 724.26,-415.31 728.669,-420.747"/>
</g>
</g>
</svg>
