<?xml version="1.0" encoding="UTF-8" standalone="no"?>
<!DOCTYPE svg PUBLIC "-//W3C//DTD SVG 1.1//EN"
 "http://www.w3.org/Graphics/SVG/1.1/DTD/svg11.dtd">
<!-- Generated by graphviz version 2.36.0 (20140111.2315)
 -->
<!-- Title: libraries/AP_HAL_FLYMAPLE/AP_HAL_FLYMAPLE.h Pages: 1 -->
<svg width="5549pt" height="322pt"
 viewBox="0.00 0.00 5549.00 322.00" xmlns="http://www.w3.org/2000/svg" xmlns:xlink="http://www.w3.org/1999/xlink">
<g id="graph0" class="graph" transform="scale(1 1) rotate(0) translate(4 318)">
<title>libraries/AP_HAL_FLYMAPLE/AP_HAL_FLYMAPLE.h</title>
<polygon fill="white" stroke="none" points="-4,4 -4,-318 5545,-318 5545,4 -4,4"/>
<!-- Node1 -->
<g id="node1" class="node"><title>Node1</title>
<polygon fill="#bfbfbf" stroke="black" points="2494.5,-283 2494.5,-313 2643.5,-313 2643.5,-283 2494.5,-283"/>
<text text-anchor="start" x="2502.5" y="-301" font-family="Helvetica,sans-Serif" font-size="10.00">libraries/AP_HAL_FLYMAPLE</text>
<text text-anchor="middle" x="2569" y="-290" font-family="Helvetica,sans-Serif" font-size="10.00">/AP_HAL_FLYMAPLE.h</text>
</g>
<!-- Node2 -->
<g id="node2" class="node"><title>Node2</title>
<g id="a_node2"><a xlink:href="$AC__PID__test_8pde.html" xlink:title="libraries/AC_PID/examples\l/AC_PID_test/AC_PID_test.pde">
<polygon fill="white" stroke="black" points="-1,-210 -1,-240 157,-240 157,-210 -1,-210"/>
<text text-anchor="start" x="7" y="-228" font-family="Helvetica,sans-Serif" font-size="10.00">libraries/AC_PID/examples</text>
<text text-anchor="middle" x="78" y="-217" font-family="Helvetica,sans-Serif" font-size="10.00">/AC_PID_test/AC_PID_test.pde</text>
</a>
</g>
</g>
<!-- Node1&#45;&gt;Node2 -->
<g id="edge1" class="edge"><title>Node1&#45;&gt;Node2</title>
<path fill="none" stroke="midnightblue" d="M2484.38,-296.22C2085.14,-292.402 399.414,-274.701 166,-246 154.804,-244.623 142.945,-242.439 131.681,-240.01"/>
<polygon fill="midnightblue" stroke="midnightblue" points="2484.38,-299.72 2494.42,-296.315 2484.45,-292.72 2484.38,-299.72"/>
</g>
<!-- Node3 -->
<g id="node3" class="node"><title>Node3</title>
<g id="a_node3"><a xlink:href="$BARO__generic_8pde.html" xlink:title="libraries/AP_Baro/examples\l/BARO_generic/BARO_generic.pde">
<polygon fill="white" stroke="black" points="175,-210 175,-240 347,-240 347,-210 175,-210"/>
<text text-anchor="start" x="183" y="-228" font-family="Helvetica,sans-Serif" font-size="10.00">libraries/AP_Baro/examples</text>
<text text-anchor="middle" x="261" y="-217" font-family="Helvetica,sans-Serif" font-size="10.00">/BARO_generic/BARO_generic.pde</text>
</a>
</g>
</g>
<!-- Node1&#45;&gt;Node3 -->
<g id="edge2" class="edge"><title>Node1&#45;&gt;Node3</title>
<path fill="none" stroke="midnightblue" d="M2484.13,-297.112C2131.45,-297.258 780.366,-294.57 357,-246 344.907,-244.613 332.08,-242.44 319.873,-240.029"/>
<polygon fill="midnightblue" stroke="midnightblue" points="2484.27,-300.612 2494.27,-297.107 2484.27,-293.612 2484.27,-300.612"/>
</g>
<!-- Node4 -->
<g id="node4" class="node"><title>Node4</title>
<g id="a_node4"><a xlink:href="$AP__Compass__test_8pde.html" xlink:title="libraries/AP_Compass\l/examples/AP_Compass\l_test/AP_Compass_test.pde">
<polygon fill="white" stroke="black" points="365.5,-204.5 365.5,-245.5 508.5,-245.5 508.5,-204.5 365.5,-204.5"/>
<text text-anchor="start" x="373.5" y="-233.5" font-family="Helvetica,sans-Serif" font-size="10.00">libraries/AP_Compass</text>
<text text-anchor="start" x="373.5" y="-222.5" font-family="Helvetica,sans-Serif" font-size="10.00">/examples/AP_Compass</text>
<text text-anchor="middle" x="437" y="-211.5" font-family="Helvetica,sans-Serif" font-size="10.00">_test/AP_Compass_test.pde</text>
</a>
</g>
</g>
<!-- Node1&#45;&gt;Node4 -->
<g id="edge3" class="edge"><title>Node1&#45;&gt;Node4</title>
<path fill="none" stroke="midnightblue" d="M2484.2,-297.344C2147.86,-298.329 907.252,-298.263 518,-246 514.985,-245.595 511.92,-245.122 508.833,-244.595"/>
<polygon fill="midnightblue" stroke="midnightblue" points="2484.37,-300.844 2494.36,-297.313 2484.35,-293.844 2484.37,-300.844"/>
</g>
<!-- Node5 -->
<g id="node5" class="node"><title>Node5</title>
<g id="a_node5"><a xlink:href="$FLYMAPLE_2AnalogIn_8h.html" xlink:title="libraries/AP_HAL_FLYMAPLE\l/AnalogIn.h">
<polygon fill="white" stroke="black" points="526.5,-210 526.5,-240 675.5,-240 675.5,-210 526.5,-210"/>
<text text-anchor="start" x="534.5" y="-228" font-family="Helvetica,sans-Serif" font-size="10.00">libraries/AP_HAL_FLYMAPLE</text>
<text text-anchor="middle" x="601" y="-217" font-family="Helvetica,sans-Serif" font-size="10.00">/AnalogIn.h</text>
</a>
</g>
</g>
<!-- Node1&#45;&gt;Node5 -->
<g id="edge4" class="edge"><title>Node1&#45;&gt;Node5</title>
<path fill="none" stroke="midnightblue" d="M2484.29,-297.031C2165.78,-296.788 1040.14,-292.576 685,-246 674.447,-244.616 663.286,-242.461 652.667,-240.07"/>
<polygon fill="midnightblue" stroke="midnightblue" points="2484.38,-300.531 2494.38,-297.038 2484.38,-293.531 2484.38,-300.531"/>
</g>
<!-- Node10 -->
<g id="node10" class="node"><title>Node10</title>
<g id="a_node10"><a xlink:href="$FLYMAPLE_2UARTDriver_8h.html" xlink:title="libraries/AP_HAL_FLYMAPLE\l/UARTDriver.h">
<polygon fill="white" stroke="black" points="1462.5,-210 1462.5,-240 1611.5,-240 1611.5,-210 1462.5,-210"/>
<text text-anchor="start" x="1470.5" y="-228" font-family="Helvetica,sans-Serif" font-size="10.00">libraries/AP_HAL_FLYMAPLE</text>
<text text-anchor="middle" x="1537" y="-217" font-family="Helvetica,sans-Serif" font-size="10.00">/UARTDriver.h</text>
</a>
</g>
</g>
<!-- Node1&#45;&gt;Node10 -->
<g id="edge9" class="edge"><title>Node1&#45;&gt;Node10</title>
<path fill="none" stroke="midnightblue" d="M2484.33,-297.535C2317.98,-297.464 1937.16,-291.761 1621,-246 1610.76,-244.518 1599.94,-242.382 1589.6,-240.052"/>
<polygon fill="midnightblue" stroke="midnightblue" points="2484.5,-301.035 2494.5,-297.532 2484.5,-294.035 2484.5,-301.035"/>
</g>
<!-- Node12 -->
<g id="node12" class="node"><title>Node12</title>
<g id="a_node12"><a xlink:href="$FLYMAPLE_2I2CDriver_8h.html" xlink:title="libraries/AP_HAL_FLYMAPLE\l/I2CDriver.h">
<polygon fill="white" stroke="black" points="924.5,-210 924.5,-240 1073.5,-240 1073.5,-210 924.5,-210"/>
<text text-anchor="start" x="932.5" y="-228" font-family="Helvetica,sans-Serif" font-size="10.00">libraries/AP_HAL_FLYMAPLE</text>
<text text-anchor="middle" x="999" y="-217" font-family="Helvetica,sans-Serif" font-size="10.00">/I2CDriver.h</text>
</a>
</g>
</g>
<!-- Node1&#45;&gt;Node12 -->
<g id="edge12" class="edge"><title>Node1&#45;&gt;Node12</title>
<path fill="none" stroke="midnightblue" d="M2484.23,-296.312C2211.21,-293.749 1356.73,-282.908 1083,-246 1072.45,-244.578 1061.29,-242.406 1050.67,-240.01"/>
<polygon fill="midnightblue" stroke="midnightblue" points="2484.44,-299.814 2494.47,-296.407 2484.5,-292.815 2484.44,-299.814"/>
</g>
<!-- Node14 -->
<g id="node14" class="node"><title>Node14</title>
<g id="a_node14"><a xlink:href="$FLYMAPLE_2SPIDriver_8h.html" xlink:title="libraries/AP_HAL_FLYMAPLE\l/SPIDriver.h">
<polygon fill="white" stroke="black" points="785.5,-137 785.5,-167 934.5,-167 934.5,-137 785.5,-137"/>
<text text-anchor="start" x="793.5" y="-155" font-family="Helvetica,sans-Serif" font-size="10.00">libraries/AP_HAL_FLYMAPLE</text>
<text text-anchor="middle" x="860" y="-144" font-family="Helvetica,sans-Serif" font-size="10.00">/SPIDriver.h</text>
</a>
</g>
</g>
<!-- Node1&#45;&gt;Node14 -->
<g id="edge15" class="edge"><title>Node1&#45;&gt;Node14</title>
<path fill="none" stroke="midnightblue" d="M2483.83,-296.624C2155.14,-294.881 984.108,-285.889 916,-246 886.239,-228.569 870.411,-188.536 863.804,-167.122"/>
<polygon fill="midnightblue" stroke="midnightblue" points="2484.22,-300.125 2494.24,-296.678 2484.26,-293.126 2484.22,-300.125"/>
</g>
<!-- Node16 -->
<g id="node16" class="node"><title>Node16</title>
<g id="a_node16"><a xlink:href="$FLYMAPLE_2Semaphores_8h.html" xlink:title="libraries/AP_HAL_FLYMAPLE\l/Semaphores.h">
<polygon fill="white" stroke="black" points="1091.5,-210 1091.5,-240 1240.5,-240 1240.5,-210 1091.5,-210"/>
<text text-anchor="start" x="1099.5" y="-228" font-family="Helvetica,sans-Serif" font-size="10.00">libraries/AP_HAL_FLYMAPLE</text>
<text text-anchor="middle" x="1166" y="-217" font-family="Helvetica,sans-Serif" font-size="10.00">/Semaphores.h</text>
</a>
</g>
</g>
<!-- Node1&#45;&gt;Node16 -->
<g id="edge18" class="edge"><title>Node1&#45;&gt;Node16</title>
<path fill="none" stroke="midnightblue" d="M2484.25,-295.759C2232.72,-291.752 1493.19,-277.544 1254,-246 1243.13,-244.566 1231.62,-242.421 1220.64,-240.061"/>
<polygon fill="midnightblue" stroke="midnightblue" points="2484.37,-299.261 2494.42,-295.92 2484.48,-292.262 2484.37,-299.261"/>
</g>
<!-- Node17 -->
<g id="node17" class="node"><title>Node17</title>
<g id="a_node17"><a xlink:href="$AP__HAL__FLYMAPLE_2Semaphores_8cpp.html" xlink:title="libraries/AP_HAL_FLYMAPLE\l/Semaphores.cpp">
<polygon fill="white" stroke="black" points="1193.5,-137 1193.5,-167 1342.5,-167 1342.5,-137 1193.5,-137"/>
<text text-anchor="start" x="1201.5" y="-155" font-family="Helvetica,sans-Serif" font-size="10.00">libraries/AP_HAL_FLYMAPLE</text>
<text text-anchor="middle" x="1268" y="-144" font-family="Helvetica,sans-Serif" font-size="10.00">/Semaphores.cpp</text>
</a>
</g>
</g>
<!-- Node1&#45;&gt;Node17 -->
<g id="edge52" class="edge"><title>Node1&#45;&gt;Node17</title>
<path fill="none" stroke="midnightblue" d="M2484.27,-296.477C2205.6,-294.388 1332.6,-284.765 1287,-246 1264.27,-226.682 1264.19,-188.191 1266.08,-167.295"/>
<polygon fill="midnightblue" stroke="midnightblue" points="2484.3,-299.977 2494.33,-296.551 2484.35,-292.977 2484.3,-299.977"/>
</g>
<!-- Node18 -->
<g id="node18" class="node"><title>Node18</title>
<g id="a_node18"><a xlink:href="$FLYMAPLE_2Storage_8h.html" xlink:title="libraries/AP_HAL_FLYMAPLE\l/Storage.h">
<polygon fill="white" stroke="black" points="693.5,-210 693.5,-240 842.5,-240 842.5,-210 693.5,-210"/>
<text text-anchor="start" x="701.5" y="-228" font-family="Helvetica,sans-Serif" font-size="10.00">libraries/AP_HAL_FLYMAPLE</text>
<text text-anchor="middle" x="768" y="-217" font-family="Helvetica,sans-Serif" font-size="10.00">/Storage.h</text>
</a>
</g>
</g>
<!-- Node1&#45;&gt;Node18 -->
<g id="edge22" class="edge"><title>Node1&#45;&gt;Node18</title>
<path fill="none" stroke="midnightblue" d="M2483.81,-296.405C2184.73,-294.011 1183.65,-283.333 865,-246 852.875,-244.579 840.014,-242.408 827.759,-240.013"/>
<polygon fill="midnightblue" stroke="midnightblue" points="2484.12,-299.907 2494.15,-296.487 2484.17,-292.908 2484.12,-299.907"/>
</g>
<!-- Node20 -->
<g id="node20" class="node"><title>Node20</title>
<g id="a_node20"><a xlink:href="$FLYMAPLE_2GPIO_8h.html" xlink:title="libraries/AP_HAL_FLYMAPLE\l/GPIO.h">
<polygon fill="white" stroke="black" points="1629.5,-210 1629.5,-240 1778.5,-240 1778.5,-210 1629.5,-210"/>
<text text-anchor="start" x="1637.5" y="-228" font-family="Helvetica,sans-Serif" font-size="10.00">libraries/AP_HAL_FLYMAPLE</text>
<text text-anchor="middle" x="1704" y="-217" font-family="Helvetica,sans-Serif" font-size="10.00">/GPIO.h</text>
</a>
</g>
</g>
<!-- Node1&#45;&gt;Node20 -->
<g id="edge25" class="edge"><title>Node1&#45;&gt;Node20</title>
<path fill="none" stroke="midnightblue" d="M2484.16,-296.13C2340.21,-293.612 2039.28,-283.842 1788,-246 1777.92,-244.482 1767.27,-242.359 1757.06,-240.06"/>
<polygon fill="midnightblue" stroke="midnightblue" points="2484.19,-299.63 2494.25,-296.299 2484.31,-292.631 2484.19,-299.63"/>
</g>
<!-- Node22 -->
<g id="node22" class="node"><title>Node22</title>
<g id="a_node22"><a xlink:href="$FLYMAPLE_2RCInput_8h.html" xlink:title="libraries/AP_HAL_FLYMAPLE\l/RCInput.h">
<polygon fill="white" stroke="black" points="1796.5,-210 1796.5,-240 1945.5,-240 1945.5,-210 1796.5,-210"/>
<text text-anchor="start" x="1804.5" y="-228" font-family="Helvetica,sans-Serif" font-size="10.00">libraries/AP_HAL_FLYMAPLE</text>
<text text-anchor="middle" x="1871" y="-217" font-family="Helvetica,sans-Serif" font-size="10.00">/RCInput.h</text>
</a>
</g>
</g>
<!-- Node1&#45;&gt;Node22 -->
<g id="edge28" class="edge"><title>Node1&#45;&gt;Node22</title>
<path fill="none" stroke="midnightblue" d="M2484.24,-294.004C2365.35,-288.885 2142.57,-275.944 1955,-246 1945.08,-244.417 1934.6,-242.292 1924.53,-240.018"/>
<polygon fill="midnightblue" stroke="midnightblue" points="2484.23,-297.507 2494.37,-294.432 2484.53,-290.513 2484.23,-297.507"/>
</g>
<!-- Node24 -->
<g id="node24" class="node"><title>Node24</title>
<g id="a_node24"><a xlink:href="$FLYMAPLE_2RCOutput_8h.html" xlink:title="libraries/AP_HAL_FLYMAPLE\l/RCOutput.h">
<polygon fill="white" stroke="black" points="1963.5,-210 1963.5,-240 2112.5,-240 2112.5,-210 1963.5,-210"/>
<text text-anchor="start" x="1971.5" y="-228" font-family="Helvetica,sans-Serif" font-size="10.00">libraries/AP_HAL_FLYMAPLE</text>
<text text-anchor="middle" x="2038" y="-217" font-family="Helvetica,sans-Serif" font-size="10.00">/RCOutput.h</text>
</a>
</g>
</g>
<!-- Node1&#45;&gt;Node24 -->
<g id="edge31" class="edge"><title>Node1&#45;&gt;Node24</title>
<path fill="none" stroke="midnightblue" d="M2484.08,-290.37C2393.84,-282.612 2247.19,-267.964 2122,-246 2112.55,-244.342 2102.58,-242.263 2092.93,-240.077"/>
<polygon fill="midnightblue" stroke="midnightblue" points="2484,-293.875 2494.26,-291.236 2484.59,-286.901 2484,-293.875"/>
</g>
<!-- Node26 -->
<g id="node26" class="node"><title>Node26</title>
<g id="a_node26"><a xlink:href="$FLYMAPLE_2Scheduler_8h.html" xlink:title="libraries/AP_HAL_FLYMAPLE\l/Scheduler.h">
<polygon fill="white" stroke="black" points="1295.5,-210 1295.5,-240 1444.5,-240 1444.5,-210 1295.5,-210"/>
<text text-anchor="start" x="1303.5" y="-228" font-family="Helvetica,sans-Serif" font-size="10.00">libraries/AP_HAL_FLYMAPLE</text>
<text text-anchor="middle" x="1370" y="-217" font-family="Helvetica,sans-Serif" font-size="10.00">/Scheduler.h</text>
</a>
</g>
</g>
<!-- Node1&#45;&gt;Node26 -->
<g id="edge34" class="edge"><title>Node1&#45;&gt;Node26</title>
<path fill="none" stroke="midnightblue" d="M2484.14,-295.185C2259.44,-290.048 1652.67,-273.942 1454,-246 1443.61,-244.539 1432.62,-242.381 1422.14,-240.017"/>
<polygon fill="midnightblue" stroke="midnightblue" points="2484.15,-298.686 2494.22,-295.414 2484.31,-291.688 2484.15,-298.686"/>
</g>
<!-- Node28 -->
<g id="node28" class="node"><title>Node28</title>
<g id="a_node28"><a xlink:href="$FLYMAPLE_2examples_2AnalogIn_2AnalogIn_8pde.html" xlink:title="libraries/AP_HAL_FLYMAPLE\l/examples/AnalogIn/AnalogIn.pde">
<polygon fill="white" stroke="black" points="2130.5,-210 2130.5,-240 2293.5,-240 2293.5,-210 2130.5,-210"/>
<text text-anchor="start" x="2138.5" y="-228" font-family="Helvetica,sans-Serif" font-size="10.00">libraries/AP_HAL_FLYMAPLE</text>
<text text-anchor="middle" x="2212" y="-217" font-family="Helvetica,sans-Serif" font-size="10.00">/examples/AnalogIn/AnalogIn.pde</text>
</a>
</g>
</g>
<!-- Node1&#45;&gt;Node28 -->
<g id="edge38" class="edge"><title>Node1&#45;&gt;Node28</title>
<path fill="none" stroke="midnightblue" d="M2484.46,-281.391C2432.12,-271.58 2363.58,-258.461 2303,-246 2293.97,-244.142 2284.45,-242.12 2275.1,-240.099"/>
<polygon fill="midnightblue" stroke="midnightblue" points="2483.89,-284.847 2494.37,-283.246 2485.18,-277.966 2483.89,-284.847"/>
</g>
<!-- Node29 -->
<g id="node29" class="node"><title>Node29</title>
<g id="a_node29"><a xlink:href="$AP__Baro__BMP085__test_8pde.html" xlink:title="libraries/AP_HAL_FLYMAPLE\l/examples/AP_Baro_BMP085\l_test/AP_Baro_BMP085_test.pde">
<polygon fill="white" stroke="black" points="2312,-204.5 2312,-245.5 2476,-245.5 2476,-204.5 2312,-204.5"/>
<text text-anchor="start" x="2320" y="-233.5" font-family="Helvetica,sans-Serif" font-size="10.00">libraries/AP_HAL_FLYMAPLE</text>
<text text-anchor="start" x="2320" y="-222.5" font-family="Helvetica,sans-Serif" font-size="10.00">/examples/AP_Baro_BMP085</text>
<text text-anchor="middle" x="2394" y="-211.5" font-family="Helvetica,sans-Serif" font-size="10.00">_test/AP_Baro_BMP085_test.pde</text>
</a>
</g>
</g>
<!-- Node1&#45;&gt;Node29 -->
<g id="edge39" class="edge"><title>Node1&#45;&gt;Node29</title>
<path fill="none" stroke="midnightblue" d="M2525.08,-279.183C2499.81,-268.929 2468.02,-256.033 2442.08,-245.507"/>
<polygon fill="midnightblue" stroke="midnightblue" points="2523.84,-282.456 2534.43,-282.973 2526.48,-275.97 2523.84,-282.456"/>
</g>
<!-- Node30 -->
<g id="node30" class="node"><title>Node30</title>
<g id="a_node30"><a xlink:href="$AP__HAL__FLYMAPLE_2examples_2Blink_2Blink_8pde.html" xlink:title="libraries/AP_HAL_FLYMAPLE\l/examples/Blink/Blink.pde">
<polygon fill="white" stroke="black" points="2494.5,-210 2494.5,-240 2643.5,-240 2643.5,-210 2494.5,-210"/>
<text text-anchor="start" x="2502.5" y="-228" font-family="Helvetica,sans-Serif" font-size="10.00">libraries/AP_HAL_FLYMAPLE</text>
<text text-anchor="middle" x="2569" y="-217" font-family="Helvetica,sans-Serif" font-size="10.00">/examples/Blink/Blink.pde</text>
</a>
</g>
</g>
<!-- Node1&#45;&gt;Node30 -->
<g id="edge40" class="edge"><title>Node1&#45;&gt;Node30</title>
<path fill="none" stroke="midnightblue" d="M2569,-272.898C2569,-262.131 2569,-249.801 2569,-240.486"/>
<polygon fill="midnightblue" stroke="midnightblue" points="2565.5,-272.973 2569,-282.973 2572.5,-272.973 2565.5,-272.973"/>
</g>
<!-- Node31 -->
<g id="node31" class="node"><title>Node31</title>
<g id="a_node31"><a xlink:href="$AP__HAL__FLYMAPLE_2examples_2Console_2Console_8pde.html" xlink:title="libraries/AP_HAL_FLYMAPLE\l/examples/Console/Console.pde">
<polygon fill="white" stroke="black" points="2661,-210 2661,-240 2819,-240 2819,-210 2661,-210"/>
<text text-anchor="start" x="2669" y="-228" font-family="Helvetica,sans-Serif" font-size="10.00">libraries/AP_HAL_FLYMAPLE</text>
<text text-anchor="middle" x="2740" y="-217" font-family="Helvetica,sans-Serif" font-size="10.00">/examples/Console/Console.pde</text>
</a>
</g>
</g>
<!-- Node1&#45;&gt;Node31 -->
<g id="edge41" class="edge"><title>Node1&#45;&gt;Node31</title>
<path fill="none" stroke="midnightblue" d="M2612.28,-279.031C2641.34,-266.965 2679.09,-251.291 2705.99,-240.12"/>
<polygon fill="midnightblue" stroke="midnightblue" points="2610.68,-275.906 2602.78,-282.973 2613.36,-282.37 2610.68,-275.906"/>
</g>
<!-- Node32 -->
<g id="node32" class="node"><title>Node32</title>
<g id="a_node32"><a xlink:href="$AP__HAL__FLYMAPLE_2examples_2empty__example_2empty__example_8pde.html" xlink:title="libraries/AP_HAL_FLYMAPLE\l/examples/empty_example\l/empty_example.pde">
<polygon fill="white" stroke="black" points="2836.5,-204.5 2836.5,-245.5 2985.5,-245.5 2985.5,-204.5 2836.5,-204.5"/>
<text text-anchor="start" x="2844.5" y="-233.5" font-family="Helvetica,sans-Serif" font-size="10.00">libraries/AP_HAL_FLYMAPLE</text>
<text text-anchor="start" x="2844.5" y="-222.5" font-family="Helvetica,sans-Serif" font-size="10.00">/examples/empty_example</text>
<text text-anchor="middle" x="2911" y="-211.5" font-family="Helvetica,sans-Serif" font-size="10.00">/empty_example.pde</text>
</a>
</g>
</g>
<!-- Node1&#45;&gt;Node32 -->
<g id="edge42" class="edge"><title>Node1&#45;&gt;Node32</title>
<path fill="none" stroke="midnightblue" d="M2653.56,-281.138C2704.01,-271.461 2769.28,-258.571 2827,-246 2830.08,-245.33 2833.21,-244.635 2836.38,-243.925"/>
<polygon fill="midnightblue" stroke="midnightblue" points="2652.84,-277.712 2643.67,-283.029 2654.15,-284.587 2652.84,-277.712"/>
</g>
<!-- Node33 -->
<g id="node33" class="node"><title>Node33</title>
<g id="a_node33"><a xlink:href="$AP__HAL__FLYMAPLE_2examples_2I2CDriver__HMC5883L_2I2CDriver__HMC5883L_8pde.html" xlink:title="libraries/AP_HAL_FLYMAPLE\l/examples/I2CDriver_HMC5883L\l/I2CDriver_HMC5883L.pde">
<polygon fill="white" stroke="black" points="3003.5,-204.5 3003.5,-245.5 3164.5,-245.5 3164.5,-204.5 3003.5,-204.5"/>
<text text-anchor="start" x="3011.5" y="-233.5" font-family="Helvetica,sans-Serif" font-size="10.00">libraries/AP_HAL_FLYMAPLE</text>
<text text-anchor="start" x="3011.5" y="-222.5" font-family="Helvetica,sans-Serif" font-size="10.00">/examples/I2CDriver_HMC5883L</text>
<text text-anchor="middle" x="3084" y="-211.5" font-family="Helvetica,sans-Serif" font-size="10.00">/I2CDriver_HMC5883L.pde</text>
</a>
</g>
</g>
<!-- Node1&#45;&gt;Node33 -->
<g id="edge43" class="edge"><title>Node1&#45;&gt;Node33</title>
<path fill="none" stroke="midnightblue" d="M2653.77,-289.328C2739.81,-280.955 2876.68,-266.025 2994,-246 2997,-245.488 3000.05,-244.942 3003.12,-244.37"/>
<polygon fill="midnightblue" stroke="midnightblue" points="2653.41,-285.846 2643.79,-290.291 2654.08,-292.814 2653.41,-285.846"/>
</g>
<!-- Node34 -->
<g id="node34" class="node"><title>Node34</title>
<g id="a_node34"><a xlink:href="$FLYMAPLE_2examples_2RCInput_2RCInput_8pde.html" xlink:title="libraries/AP_HAL_FLYMAPLE\l/examples/RCInput/RCInput.pde">
<polygon fill="white" stroke="black" points="3183,-210 3183,-240 3343,-240 3343,-210 3183,-210"/>
<text text-anchor="start" x="3191" y="-228" font-family="Helvetica,sans-Serif" font-size="10.00">libraries/AP_HAL_FLYMAPLE</text>
<text text-anchor="middle" x="3263" y="-217" font-family="Helvetica,sans-Serif" font-size="10.00">/examples/RCInput/RCInput.pde</text>
</a>
</g>
</g>
<!-- Node1&#45;&gt;Node34 -->
<g id="edge44" class="edge"><title>Node1&#45;&gt;Node34</title>
<path fill="none" stroke="midnightblue" d="M2653.76,-293.441C2771,-287.701 2989.03,-274.078 3173,-246 3183.44,-244.406 3194.48,-242.305 3205.12,-240.064"/>
<polygon fill="midnightblue" stroke="midnightblue" points="2653.59,-289.945 2643.77,-293.923 2653.92,-296.937 2653.59,-289.945"/>
</g>
<!-- Node35 -->
<g id="node35" class="node"><title>Node35</title>
<g id="a_node35"><a xlink:href="$AP__HAL__FLYMAPLE_2examples_2RCPassthroughTest_2RCPassthroughTest_8pde.html" xlink:title="libraries/AP_HAL_FLYMAPLE\l/examples/RCPassthroughTest\l/RCPassthroughTest.pde">
<polygon fill="white" stroke="black" points="3361,-204.5 3361,-245.5 3515,-245.5 3515,-204.5 3361,-204.5"/>
<text text-anchor="start" x="3369" y="-233.5" font-family="Helvetica,sans-Serif" font-size="10.00">libraries/AP_HAL_FLYMAPLE</text>
<text text-anchor="start" x="3369" y="-222.5" font-family="Helvetica,sans-Serif" font-size="10.00">/examples/RCPassthroughTest</text>
<text text-anchor="middle" x="3438" y="-211.5" font-family="Helvetica,sans-Serif" font-size="10.00">/RCPassthroughTest.pde</text>
</a>
</g>
</g>
<!-- Node1&#45;&gt;Node35 -->
<g id="edge45" class="edge"><title>Node1&#45;&gt;Node35</title>
<path fill="none" stroke="midnightblue" d="M2653.75,-296.007C2797.93,-293.31 3099.82,-283.281 3352,-246 3354.88,-245.574 3357.81,-245.101 3360.76,-244.591"/>
<polygon fill="midnightblue" stroke="midnightblue" points="2653.58,-292.51 2643.65,-296.189 2653.71,-299.509 2653.58,-292.51"/>
</g>
<!-- Node36 -->
<g id="node36" class="node"><title>Node36</title>
<g id="a_node36"><a xlink:href="$AP__HAL__FLYMAPLE_2examples_2Scheduler_2Scheduler_8pde.html" xlink:title="libraries/AP_HAL_FLYMAPLE\l/examples/Scheduler/Scheduler.pde">
<polygon fill="white" stroke="black" points="3533.5,-210 3533.5,-240 3706.5,-240 3706.5,-210 3533.5,-210"/>
<text text-anchor="start" x="3541.5" y="-228" font-family="Helvetica,sans-Serif" font-size="10.00">libraries/AP_HAL_FLYMAPLE</text>
<text text-anchor="middle" x="3620" y="-217" font-family="Helvetica,sans-Serif" font-size="10.00">/examples/Scheduler/Scheduler.pde</text>
</a>
</g>
</g>
<!-- Node1&#45;&gt;Node36 -->
<g id="edge46" class="edge"><title>Node1&#45;&gt;Node36</title>
<path fill="none" stroke="midnightblue" d="M2653.86,-296.786C2821.09,-295.412 3204.68,-287.543 3524,-246 3535.56,-244.495 3547.81,-242.364 3559.55,-240.049"/>
<polygon fill="midnightblue" stroke="midnightblue" points="2653.62,-293.288 2643.65,-296.864 2653.67,-300.287 2653.62,-293.288"/>
</g>
<!-- Node37 -->
<g id="node37" class="node"><title>Node37</title>
<g id="a_node37"><a xlink:href="$AP__HAL__FLYMAPLE_2examples_2Semaphore_2Semaphore_8pde.html" xlink:title="libraries/AP_HAL_FLYMAPLE\l/examples/Semaphore/Semaphore.pde">
<polygon fill="white" stroke="black" points="3724.5,-210 3724.5,-240 3909.5,-240 3909.5,-210 3724.5,-210"/>
<text text-anchor="start" x="3732.5" y="-228" font-family="Helvetica,sans-Serif" font-size="10.00">libraries/AP_HAL_FLYMAPLE</text>
<text text-anchor="middle" x="3817" y="-217" font-family="Helvetica,sans-Serif" font-size="10.00">/examples/Semaphore/Semaphore.pde</text>
</a>
</g>
</g>
<!-- Node1&#45;&gt;Node37 -->
<g id="edge47" class="edge"><title>Node1&#45;&gt;Node37</title>
<path fill="none" stroke="midnightblue" d="M2653.95,-297.539C2844.52,-297.805 3320.34,-293.206 3715,-246 3727.45,-244.51 3740.66,-242.356 3753.3,-240.007"/>
<polygon fill="midnightblue" stroke="midnightblue" points="2653.73,-294.039 2643.73,-297.52 2653.72,-301.039 2653.73,-294.039"/>
</g>
<!-- Node38 -->
<g id="node38" class="node"><title>Node38</title>
<g id="a_node38"><a xlink:href="$SPIDriver_8pde.html" xlink:title="libraries/AP_HAL_FLYMAPLE\l/examples/SPIDriver/SPIDriver.pde">
<polygon fill="white" stroke="black" points="3928,-210 3928,-240 4100,-240 4100,-210 3928,-210"/>
<text text-anchor="start" x="3936" y="-228" font-family="Helvetica,sans-Serif" font-size="10.00">libraries/AP_HAL_FLYMAPLE</text>
<text text-anchor="middle" x="4014" y="-217" font-family="Helvetica,sans-Serif" font-size="10.00">/examples/SPIDriver/SPIDriver.pde</text>
</a>
</g>
</g>
<!-- Node1&#45;&gt;Node38 -->
<g id="edge48" class="edge"><title>Node1&#45;&gt;Node38</title>
<path fill="none" stroke="midnightblue" d="M2654.12,-295.65C2910.33,-291.289 3671.76,-276.089 3918,-246 3929.83,-244.555 3942.37,-242.404 3954.34,-240.043"/>
<polygon fill="midnightblue" stroke="midnightblue" points="2653.7,-292.156 2643.76,-295.825 2653.82,-299.155 2653.7,-292.156"/>
</g>
<!-- Node39 -->
<g id="node39" class="node"><title>Node39</title>
<g id="a_node39"><a xlink:href="$AP__HAL__FLYMAPLE_2examples_2Storage_2Storage_8pde.html" xlink:title="libraries/AP_HAL_FLYMAPLE\l/examples/Storage/Storage.pde">
<polygon fill="white" stroke="black" points="4118,-210 4118,-240 4272,-240 4272,-210 4118,-210"/>
<text text-anchor="start" x="4126" y="-228" font-family="Helvetica,sans-Serif" font-size="10.00">libraries/AP_HAL_FLYMAPLE</text>
<text text-anchor="middle" x="4195" y="-217" font-family="Helvetica,sans-Serif" font-size="10.00">/examples/Storage/Storage.pde</text>
</a>
</g>
</g>
<!-- Node1&#45;&gt;Node39 -->
<g id="edge49" class="edge"><title>Node1&#45;&gt;Node39</title>
<path fill="none" stroke="midnightblue" d="M2654,-296.371C2933.77,-293.959 3824.26,-283.459 4109,-246 4119.79,-244.58 4131.21,-242.41 4142.08,-240.014"/>
<polygon fill="midnightblue" stroke="midnightblue" points="2653.88,-292.872 2643.91,-296.457 2653.94,-299.872 2653.88,-292.872"/>
</g>
<!-- Node40 -->
<g id="node40" class="node"><title>Node40</title>
<g id="a_node40"><a xlink:href="$AP__HAL__FLYMAPLE_2examples_2UARTDriver_2UARTDriver_8pde.html" xlink:title="libraries/AP_HAL_FLYMAPLE\l/examples/UARTDriver/UARTDriver.pde">
<polygon fill="white" stroke="black" points="4290,-210 4290,-240 4484,-240 4484,-210 4290,-210"/>
<text text-anchor="start" x="4298" y="-228" font-family="Helvetica,sans-Serif" font-size="10.00">libraries/AP_HAL_FLYMAPLE</text>
<text text-anchor="middle" x="4387" y="-217" font-family="Helvetica,sans-Serif" font-size="10.00">/examples/UARTDriver/UARTDriver.pde</text>
</a>
</g>
</g>
<!-- Node1&#45;&gt;Node40 -->
<g id="edge50" class="edge"><title>Node1&#45;&gt;Node40</title>
<path fill="none" stroke="midnightblue" d="M2654.06,-296.231C2953.84,-293.245 3960.36,-280.808 4281,-246 4294.13,-244.575 4308.06,-242.418 4321.36,-240.041"/>
<polygon fill="midnightblue" stroke="midnightblue" points="2653.66,-292.735 2643.7,-296.333 2653.73,-299.734 2653.66,-292.735"/>
</g>
<!-- Node41 -->
<g id="node41" class="node"><title>Node41</title>
<g id="a_node41"><a xlink:href="$AP__HAL__FLYMAPLE_2examples_2UtilityStringTest_2UtilityStringTest_8pde.html" xlink:title="libraries/AP_HAL_FLYMAPLE\l/examples/UtilityStringTest\l/UtilityStringTest.pde">
<polygon fill="white" stroke="black" points="4501.5,-204.5 4501.5,-245.5 4650.5,-245.5 4650.5,-204.5 4501.5,-204.5"/>
<text text-anchor="start" x="4509.5" y="-233.5" font-family="Helvetica,sans-Serif" font-size="10.00">libraries/AP_HAL_FLYMAPLE</text>
<text text-anchor="start" x="4509.5" y="-222.5" font-family="Helvetica,sans-Serif" font-size="10.00">/examples/UtilityStringTest</text>
<text text-anchor="middle" x="4576" y="-211.5" font-family="Helvetica,sans-Serif" font-size="10.00">/UtilityStringTest.pde</text>
</a>
</g>
</g>
<!-- Node1&#45;&gt;Node41 -->
<g id="edge51" class="edge"><title>Node1&#45;&gt;Node41</title>
<path fill="none" stroke="midnightblue" d="M2653.82,-297.086C2976.67,-297.05 4128.89,-293.52 4492,-246 4495.12,-245.591 4498.3,-245.115 4501.49,-244.586"/>
<polygon fill="midnightblue" stroke="midnightblue" points="2653.6,-293.586 2643.6,-297.086 2653.6,-300.586 2653.6,-293.586"/>
</g>
<!-- Node42 -->
<g id="node42" class="node"><title>Node42</title>
<g id="a_node42"><a xlink:href="$INS__generic_8pde.html" xlink:title="libraries/AP_InertialSensor\l/examples/INS_generic/INS\l_generic.pde">
<polygon fill="white" stroke="black" points="4668.5,-204.5 4668.5,-245.5 4807.5,-245.5 4807.5,-204.5 4668.5,-204.5"/>
<text text-anchor="start" x="4676.5" y="-233.5" font-family="Helvetica,sans-Serif" font-size="10.00">libraries/AP_InertialSensor</text>
<text text-anchor="start" x="4676.5" y="-222.5" font-family="Helvetica,sans-Serif" font-size="10.00">/examples/INS_generic/INS</text>
<text text-anchor="middle" x="4738" y="-211.5" font-family="Helvetica,sans-Serif" font-size="10.00">_generic.pde</text>
</a>
</g>
</g>
<!-- Node1&#45;&gt;Node42 -->
<g id="edge53" class="edge"><title>Node1&#45;&gt;Node42</title>
<path fill="none" stroke="midnightblue" d="M2653.74,-297.456C2994.01,-298.897 4261.84,-300.42 4659,-246 4662.08,-245.577 4665.22,-245.08 4668.38,-244.523"/>
<polygon fill="midnightblue" stroke="midnightblue" points="2653.72,-293.956 2643.7,-297.412 2653.68,-300.956 2653.72,-293.956"/>
</g>
<!-- Node43 -->
<g id="node43" class="node"><title>Node43</title>
<g id="a_node43"><a xlink:href="$ToshibaLED__test_8pde.html" xlink:title="libraries/AP_Notify\l/examples/ToshibaLED\l_test/ToshibaLED_test.pde">
<polygon fill="white" stroke="black" points="4826,-204.5 4826,-245.5 4962,-245.5 4962,-204.5 4826,-204.5"/>
<text text-anchor="start" x="4834" y="-233.5" font-family="Helvetica,sans-Serif" font-size="10.00">libraries/AP_Notify</text>
<text text-anchor="start" x="4834" y="-222.5" font-family="Helvetica,sans-Serif" font-size="10.00">/examples/ToshibaLED</text>
<text text-anchor="middle" x="4894" y="-211.5" font-family="Helvetica,sans-Serif" font-size="10.00">_test/ToshibaLED_test.pde</text>
</a>
</g>
</g>
<!-- Node1&#45;&gt;Node43 -->
<g id="edge54" class="edge"><title>Node1&#45;&gt;Node43</title>
<path fill="none" stroke="midnightblue" d="M2653.7,-296.222C3036.93,-292.549 4599.21,-275.854 4816,-246 4819.19,-245.561 4822.43,-245.04 4825.69,-244.455"/>
<polygon fill="midnightblue" stroke="midnightblue" points="2653.49,-292.724 2643.52,-296.319 2653.55,-299.724 2653.49,-292.724"/>
</g>
<!-- Node44 -->
<g id="node44" class="node"><title>Node44</title>
<g id="a_node44"><a xlink:href="$LowPassFilter2p_8pde.html" xlink:title="libraries/Filter/examples\l/LowPassFilter2p/LowPassFilter2p.pde">
<polygon fill="white" stroke="black" points="4980.5,-210 4980.5,-240 5167.5,-240 5167.5,-210 4980.5,-210"/>
<text text-anchor="start" x="4988.5" y="-228" font-family="Helvetica,sans-Serif" font-size="10.00">libraries/Filter/examples</text>
<text text-anchor="middle" x="5074" y="-217" font-family="Helvetica,sans-Serif" font-size="10.00">/LowPassFilter2p/LowPassFilter2p.pde</text>
</a>
</g>
</g>
<!-- Node1&#45;&gt;Node44 -->
<g id="edge55" class="edge"><title>Node1&#45;&gt;Node44</title>
<path fill="none" stroke="midnightblue" d="M2653.67,-297.139C3024.54,-297.452 4507.84,-295.518 4971,-246 4983.95,-244.615 4997.7,-242.444 5010.8,-240.034"/>
<polygon fill="midnightblue" stroke="midnightblue" points="2653.54,-293.639 2643.54,-297.13 2653.54,-300.639 2653.54,-293.639"/>
</g>
<!-- Node45 -->
<g id="node45" class="node"><title>Node45</title>
<g id="a_node45"><a xlink:href="$routing_8pde.html" xlink:title="libraries/GCS_MAVLink\l/examples/routing/routing.pde">
<polygon fill="white" stroke="black" points="5185.5,-210 5185.5,-240 5330.5,-240 5330.5,-210 5185.5,-210"/>
<text text-anchor="start" x="5193.5" y="-228" font-family="Helvetica,sans-Serif" font-size="10.00">libraries/GCS_MAVLink</text>
<text text-anchor="middle" x="5258" y="-217" font-family="Helvetica,sans-Serif" font-size="10.00">/examples/routing/routing.pde</text>
</a>
</g>
</g>
<!-- Node1&#45;&gt;Node45 -->
<g id="edge56" class="edge"><title>Node1&#45;&gt;Node45</title>
<path fill="none" stroke="midnightblue" d="M2653.83,-296.448C3073.94,-293.567 4921.62,-279.1 5176,-246 5186.46,-244.639 5197.53,-242.461 5208.02,-240.034"/>
<polygon fill="midnightblue" stroke="midnightblue" points="2653.56,-292.95 2643.58,-296.518 2653.61,-299.95 2653.56,-292.95"/>
</g>
<!-- Node46 -->
<g id="node46" class="node"><title>Node46</title>
<g id="a_node46"><a xlink:href="$StorageTest_8pde.html" xlink:title="libraries/StorageManager\l/examples/StorageTest/StorageTest.pde">
<polygon fill="white" stroke="black" points="5348.5,-210 5348.5,-240 5541.5,-240 5541.5,-210 5348.5,-210"/>
<text text-anchor="start" x="5356.5" y="-228" font-family="Helvetica,sans-Serif" font-size="10.00">libraries/StorageManager</text>
<text text-anchor="middle" x="5445" y="-217" font-family="Helvetica,sans-Serif" font-size="10.00">/examples/StorageTest/StorageTest.pde</text>
</a>
</g>
</g>
<!-- Node1&#45;&gt;Node46 -->
<g id="edge57" class="edge"><title>Node1&#45;&gt;Node46</title>
<path fill="none" stroke="midnightblue" d="M2653.98,-297.36C3059.36,-298.784 4799.25,-301.491 5339,-246 5352.41,-244.621 5366.67,-242.436 5380.23,-240.007"/>
<polygon fill="midnightblue" stroke="midnightblue" points="2653.81,-293.86 2643.8,-297.324 2653.78,-300.86 2653.81,-293.86"/>
</g>
<!-- Node6 -->
<g id="node6" class="node"><title>Node6</title>
<g id="a_node6"><a xlink:href="$AP__HAL__FLYMAPLE_2AnalogIn_8cpp.html" xlink:title="libraries/AP_HAL_FLYMAPLE\l/AnalogIn.cpp">
<polygon fill="white" stroke="black" points="210.5,-137 210.5,-167 359.5,-167 359.5,-137 210.5,-137"/>
<text text-anchor="start" x="218.5" y="-155" font-family="Helvetica,sans-Serif" font-size="10.00">libraries/AP_HAL_FLYMAPLE</text>
<text text-anchor="middle" x="285" y="-144" font-family="Helvetica,sans-Serif" font-size="10.00">/AnalogIn.cpp</text>
</a>
</g>
</g>
<!-- Node5&#45;&gt;Node6 -->
<g id="edge5" class="edge"><title>Node5&#45;&gt;Node6</title>
<path fill="none" stroke="midnightblue" d="M533.001,-207.704C527.59,-206.439 522.206,-205.192 517,-204 460.821,-191.138 396.841,-177.121 350.319,-167.042"/>
<polygon fill="midnightblue" stroke="midnightblue" points="532.203,-211.112 542.738,-209.99 533.803,-204.297 532.203,-211.112"/>
</g>
<!-- Node7 -->
<g id="node7" class="node"><title>Node7</title>
<g id="a_node7"><a xlink:href="$AnalogSource_8cpp.html" xlink:title="libraries/AP_HAL_FLYMAPLE\l/AnalogSource.cpp">
<polygon fill="white" stroke="black" points="377.5,-137 377.5,-167 526.5,-167 526.5,-137 377.5,-137"/>
<text text-anchor="start" x="385.5" y="-155" font-family="Helvetica,sans-Serif" font-size="10.00">libraries/AP_HAL_FLYMAPLE</text>
<text text-anchor="middle" x="452" y="-144" font-family="Helvetica,sans-Serif" font-size="10.00">/AnalogSource.cpp</text>
</a>
</g>
</g>
<!-- Node5&#45;&gt;Node7 -->
<g id="edge6" class="edge"><title>Node5&#45;&gt;Node7</title>
<path fill="none" stroke="midnightblue" d="M562.295,-205.557C537.112,-193.557 504.77,-178.145 481.631,-167.12"/>
<polygon fill="midnightblue" stroke="midnightblue" points="561.029,-208.831 571.562,-209.973 564.041,-202.511 561.029,-208.831"/>
</g>
<!-- Node8 -->
<g id="node8" class="node"><title>Node8</title>
<g id="a_node8"><a xlink:href="$AP__HAL__FLYMAPLE__Private_8h.html" xlink:title="libraries/AP_HAL_FLYMAPLE\l/AP_HAL_FLYMAPLE_Private.h">
<polygon fill="white" stroke="black" points="1188.5,-69 1188.5,-99 1347.5,-99 1347.5,-69 1188.5,-69"/>
<text text-anchor="start" x="1196.5" y="-87" font-family="Helvetica,sans-Serif" font-size="10.00">libraries/AP_HAL_FLYMAPLE</text>
<text text-anchor="middle" x="1268" y="-76" font-family="Helvetica,sans-Serif" font-size="10.00">/AP_HAL_FLYMAPLE_Private.h</text>
</a>
</g>
</g>
<!-- Node5&#45;&gt;Node8 -->
<g id="edge7" class="edge"><title>Node5&#45;&gt;Node8</title>
<path fill="none" stroke="midnightblue" d="M583.069,-201.642C569.65,-182.072 556.248,-154.026 573,-136 583.372,-124.839 1008,-99.6512 1188.32,-89.4326"/>
<polygon fill="midnightblue" stroke="midnightblue" points="580.415,-203.942 589.127,-209.97 586.075,-199.824 580.415,-203.942"/>
</g>
<!-- Node9 -->
<g id="node9" class="node"><title>Node9</title>
<g id="a_node9"><a xlink:href="$HAL__FLYMAPLE__Class_8cpp.html" xlink:title="libraries/AP_HAL_FLYMAPLE\l/HAL_FLYMAPLE_Class.cpp">
<polygon fill="white" stroke="black" points="1193.5,-1 1193.5,-31 1342.5,-31 1342.5,-1 1193.5,-1"/>
<text text-anchor="start" x="1201.5" y="-19" font-family="Helvetica,sans-Serif" font-size="10.00">libraries/AP_HAL_FLYMAPLE</text>
<text text-anchor="middle" x="1268" y="-8" font-family="Helvetica,sans-Serif" font-size="10.00">/HAL_FLYMAPLE_Class.cpp</text>
</a>
</g>
</g>
<!-- Node8&#45;&gt;Node9 -->
<g id="edge8" class="edge"><title>Node8&#45;&gt;Node9</title>
<path fill="none" stroke="midnightblue" d="M1268,-58.5322C1268,-49.3606 1268,-39.2449 1268,-31.2931"/>
<polygon fill="midnightblue" stroke="midnightblue" points="1264.5,-58.6789 1268,-68.679 1271.5,-58.679 1264.5,-58.6789"/>
</g>
<!-- Node10&#45;&gt;Node8 -->
<g id="edge10" class="edge"><title>Node10&#45;&gt;Node8</title>
<path fill="none" stroke="midnightblue" d="M1551.18,-200.937C1561.11,-181.512 1570.15,-154.078 1555,-136 1529,-104.969 1423.39,-92.8048 1347.84,-88.0455"/>
<polygon fill="midnightblue" stroke="midnightblue" points="1548.09,-199.303 1546.34,-209.753 1554.22,-202.675 1548.09,-199.303"/>
</g>
<!-- Node11 -->
<g id="node11" class="node"><title>Node11</title>
<g id="a_node11"><a xlink:href="$FLYMAPLE_2UARTDriver_8cpp.html" xlink:title="libraries/AP_HAL_FLYMAPLE\l/UARTDriver.cpp">
<polygon fill="white" stroke="black" points="1601.5,-137 1601.5,-167 1750.5,-167 1750.5,-137 1601.5,-137"/>
<text text-anchor="start" x="1609.5" y="-155" font-family="Helvetica,sans-Serif" font-size="10.00">libraries/AP_HAL_FLYMAPLE</text>
<text text-anchor="middle" x="1676" y="-144" font-family="Helvetica,sans-Serif" font-size="10.00">/UARTDriver.cpp</text>
</a>
</g>
</g>
<!-- Node10&#45;&gt;Node11 -->
<g id="edge11" class="edge"><title>Node10&#45;&gt;Node11</title>
<path fill="none" stroke="midnightblue" d="M1573.39,-205.414C1596.75,-193.478 1626.64,-178.215 1648.12,-167.241"/>
<polygon fill="midnightblue" stroke="midnightblue" points="1571.78,-202.307 1564.46,-209.973 1574.96,-208.541 1571.78,-202.307"/>
</g>
<!-- Node12&#45;&gt;Node8 -->
<g id="edge13" class="edge"><title>Node12&#45;&gt;Node8</title>
<path fill="none" stroke="midnightblue" d="M984.816,-200.937C974.886,-181.512 965.851,-154.078 981,-136 1007,-104.969 1112.61,-92.8048 1188.16,-88.0455"/>
<polygon fill="midnightblue" stroke="midnightblue" points="981.777,-202.675 989.661,-209.753 987.912,-199.303 981.777,-202.675"/>
</g>
<!-- Node13 -->
<g id="node13" class="node"><title>Node13</title>
<g id="a_node13"><a xlink:href="$AP__HAL__FLYMAPLE_2I2CDriver_8cpp.html" xlink:title="libraries/AP_HAL_FLYMAPLE\l/I2CDriver.cpp">
<polygon fill="white" stroke="black" points="989.5,-137 989.5,-167 1138.5,-167 1138.5,-137 989.5,-137"/>
<text text-anchor="start" x="997.5" y="-155" font-family="Helvetica,sans-Serif" font-size="10.00">libraries/AP_HAL_FLYMAPLE</text>
<text text-anchor="middle" x="1064" y="-144" font-family="Helvetica,sans-Serif" font-size="10.00">/I2CDriver.cpp</text>
</a>
</g>
</g>
<!-- Node12&#45;&gt;Node13 -->
<g id="edge14" class="edge"><title>Node12&#45;&gt;Node13</title>
<path fill="none" stroke="midnightblue" d="M1018.63,-202.554C1029.02,-191.207 1041.5,-177.577 1050.74,-167.486"/>
<polygon fill="midnightblue" stroke="midnightblue" points="1016.01,-200.233 1011.84,-209.973 1021.18,-204.96 1016.01,-200.233"/>
</g>
<!-- Node14&#45;&gt;Node8 -->
<g id="edge16" class="edge"><title>Node14&#45;&gt;Node8</title>
<path fill="none" stroke="midnightblue" d="M944.768,-136.534C945.852,-136.355 946.93,-136.177 948,-136 1029.87,-122.498 1123.63,-107.625 1188.4,-97.442"/>
<polygon fill="midnightblue" stroke="midnightblue" points="944.173,-133.085 934.883,-138.179 945.322,-139.99 944.173,-133.085"/>
</g>
<!-- Node15 -->
<g id="node15" class="node"><title>Node15</title>
<g id="a_node15"><a xlink:href="$AP__HAL__FLYMAPLE_2SPIDriver_8cpp.html" xlink:title="libraries/AP_HAL_FLYMAPLE\l/SPIDriver.cpp">
<polygon fill="white" stroke="black" points="785.5,-69 785.5,-99 934.5,-99 934.5,-69 785.5,-69"/>
<text text-anchor="start" x="793.5" y="-87" font-family="Helvetica,sans-Serif" font-size="10.00">libraries/AP_HAL_FLYMAPLE</text>
<text text-anchor="middle" x="860" y="-76" font-family="Helvetica,sans-Serif" font-size="10.00">/SPIDriver.cpp</text>
</a>
</g>
</g>
<!-- Node14&#45;&gt;Node15 -->
<g id="edge17" class="edge"><title>Node14&#45;&gt;Node15</title>
<path fill="none" stroke="midnightblue" d="M860,-126.532C860,-117.361 860,-107.245 860,-99.2931"/>
<polygon fill="midnightblue" stroke="midnightblue" points="856.5,-126.679 860,-136.679 863.5,-126.679 856.5,-126.679"/>
</g>
<!-- Node16&#45;&gt;Node8 -->
<g id="edge20" class="edge"><title>Node16&#45;&gt;Node8</title>
<path fill="none" stroke="midnightblue" d="M1166.2,-199.647C1167.47,-180.729 1171.79,-154.659 1185,-136 1196.63,-119.576 1215.38,-107.401 1232.12,-99.0738"/>
<polygon fill="midnightblue" stroke="midnightblue" points="1162.69,-199.707 1165.75,-209.849 1169.68,-200.01 1162.69,-199.707"/>
</g>
<!-- Node16&#45;&gt;Node14 -->
<g id="edge19" class="edge"><title>Node16&#45;&gt;Node14</title>
<path fill="none" stroke="midnightblue" d="M1097.31,-207.597C1092.13,-206.375 1086.98,-205.165 1082,-204 1027.9,-191.345 966.313,-177.219 921.754,-167.049"/>
<polygon fill="midnightblue" stroke="midnightblue" points="1096.73,-211.058 1107.27,-209.953 1098.34,-204.246 1096.73,-211.058"/>
</g>
<!-- Node16&#45;&gt;Node17 -->
<g id="edge21" class="edge"><title>Node16&#45;&gt;Node17</title>
<path fill="none" stroke="midnightblue" d="M1194.54,-204.134C1211.39,-192.403 1232.33,-177.826 1247.54,-167.241"/>
<polygon fill="midnightblue" stroke="midnightblue" points="1192.36,-201.387 1186.15,-209.973 1196.36,-207.132 1192.36,-201.387"/>
</g>
<!-- Node18&#45;&gt;Node8 -->
<g id="edge23" class="edge"><title>Node18&#45;&gt;Node8</title>
<path fill="none" stroke="midnightblue" d="M763.025,-199.967C760.428,-180.035 760.628,-152.398 777,-136 805.46,-107.495 1056.92,-93.3523 1188.5,-87.85"/>
<polygon fill="midnightblue" stroke="midnightblue" points="759.572,-200.542 764.618,-209.858 766.483,-199.428 759.572,-200.542"/>
</g>
<!-- Node19 -->
<g id="node19" class="node"><title>Node19</title>
<g id="a_node19"><a xlink:href="$AP__HAL__FLYMAPLE_2Storage_8cpp.html" xlink:title="libraries/AP_HAL_FLYMAPLE\l/Storage.cpp">
<polygon fill="white" stroke="black" points="581.5,-137 581.5,-167 730.5,-167 730.5,-137 581.5,-137"/>
<text text-anchor="start" x="589.5" y="-155" font-family="Helvetica,sans-Serif" font-size="10.00">libraries/AP_HAL_FLYMAPLE</text>
<text text-anchor="middle" x="656" y="-144" font-family="Helvetica,sans-Serif" font-size="10.00">/Storage.cpp</text>
</a>
</g>
</g>
<!-- Node18&#45;&gt;Node19 -->
<g id="edge24" class="edge"><title>Node18&#45;&gt;Node19</title>
<path fill="none" stroke="midnightblue" d="M737.423,-204.617C718.791,-192.805 695.392,-177.972 678.465,-167.241"/>
<polygon fill="midnightblue" stroke="midnightblue" points="735.553,-207.575 745.872,-209.973 739.3,-201.662 735.553,-207.575"/>
</g>
<!-- Node20&#45;&gt;Node8 -->
<g id="edge26" class="edge"><title>Node20&#45;&gt;Node8</title>
<path fill="none" stroke="midnightblue" d="M1731.67,-203.389C1753.6,-184.615 1777.69,-156.737 1759,-136 1732.01,-106.063 1479.54,-92.5839 1347.55,-87.5409"/>
<polygon fill="midnightblue" stroke="midnightblue" points="1729.29,-200.818 1723.77,-209.864 1733.73,-206.231 1729.29,-200.818"/>
</g>
<!-- Node21 -->
<g id="node21" class="node"><title>Node21</title>
<g id="a_node21"><a xlink:href="$AP__HAL__FLYMAPLE_2GPIO_8cpp.html" xlink:title="libraries/AP_HAL_FLYMAPLE\l/GPIO.cpp">
<polygon fill="white" stroke="black" points="1805.5,-137 1805.5,-167 1954.5,-167 1954.5,-137 1805.5,-137"/>
<text text-anchor="start" x="1813.5" y="-155" font-family="Helvetica,sans-Serif" font-size="10.00">libraries/AP_HAL_FLYMAPLE</text>
<text text-anchor="middle" x="1880" y="-144" font-family="Helvetica,sans-Serif" font-size="10.00">/GPIO.cpp</text>
</a>
</g>
</g>
<!-- Node20&#45;&gt;Node21 -->
<g id="edge27" class="edge"><title>Node20&#45;&gt;Node21</title>
<path fill="none" stroke="midnightblue" d="M1748.15,-206.188C1778.12,-194.101 1817.19,-178.34 1845,-167.12"/>
<polygon fill="midnightblue" stroke="midnightblue" points="1746.74,-202.986 1738.77,-209.973 1749.36,-209.477 1746.74,-202.986"/>
</g>
<!-- Node22&#45;&gt;Node8 -->
<g id="edge29" class="edge"><title>Node22&#45;&gt;Node8</title>
<path fill="none" stroke="midnightblue" d="M1913.46,-205.48C1947.61,-188.11 1986.34,-161.118 1963,-136 1921.85,-91.7158 1521.29,-85.4934 1347.63,-84.8935"/>
<polygon fill="midnightblue" stroke="midnightblue" points="1911.9,-202.348 1904.46,-209.898 1914.98,-208.632 1911.9,-202.348"/>
</g>
<!-- Node23 -->
<g id="node23" class="node"><title>Node23</title>
<g id="a_node23"><a xlink:href="$AP__HAL__FLYMAPLE_2RCInput_8cpp.html" xlink:title="libraries/AP_HAL_FLYMAPLE\l/RCInput.cpp">
<polygon fill="white" stroke="black" points="2009.5,-137 2009.5,-167 2158.5,-167 2158.5,-137 2009.5,-137"/>
<text text-anchor="start" x="2017.5" y="-155" font-family="Helvetica,sans-Serif" font-size="10.00">libraries/AP_HAL_FLYMAPLE</text>
<text text-anchor="middle" x="2084" y="-144" font-family="Helvetica,sans-Serif" font-size="10.00">/RCInput.cpp</text>
</a>
</g>
</g>
<!-- Node22&#45;&gt;Node23 -->
<g id="edge30" class="edge"><title>Node22&#45;&gt;Node23</title>
<path fill="none" stroke="midnightblue" d="M1923.03,-206.657C1959.47,-194.511 2007.54,-178.485 2041.64,-167.12"/>
<polygon fill="midnightblue" stroke="midnightblue" points="1921.46,-203.49 1913.08,-209.973 1923.68,-210.131 1921.46,-203.49"/>
</g>
<!-- Node24&#45;&gt;Node8 -->
<g id="edge32" class="edge"><title>Node24&#45;&gt;Node8</title>
<path fill="none" stroke="midnightblue" d="M2099.7,-206.679C2145.33,-190.95 2195.07,-165.711 2167,-136 2139.07,-106.439 1562.36,-91.2351 1347.63,-86.5823"/>
<polygon fill="midnightblue" stroke="midnightblue" points="2098.43,-203.41 2090.05,-209.889 2100.64,-210.052 2098.43,-203.41"/>
</g>
<!-- Node25 -->
<g id="node25" class="node"><title>Node25</title>
<g id="a_node25"><a xlink:href="$AP__HAL__FLYMAPLE_2RCOutput_8cpp.html" xlink:title="libraries/AP_HAL_FLYMAPLE\l/RCOutput.cpp">
<polygon fill="white" stroke="black" points="2213.5,-137 2213.5,-167 2362.5,-167 2362.5,-137 2213.5,-137"/>
<text text-anchor="start" x="2221.5" y="-155" font-family="Helvetica,sans-Serif" font-size="10.00">libraries/AP_HAL_FLYMAPLE</text>
<text text-anchor="middle" x="2288" y="-144" font-family="Helvetica,sans-Serif" font-size="10.00">/RCOutput.cpp</text>
</a>
</g>
</g>
<!-- Node24&#45;&gt;Node25 -->
<g id="edge33" class="edge"><title>Node24&#45;&gt;Node25</title>
<path fill="none" stroke="midnightblue" d="M2097.16,-207.199C2140.14,-194.992 2197.66,-178.655 2238.28,-167.12"/>
<polygon fill="midnightblue" stroke="midnightblue" points="2096.06,-203.874 2087.39,-209.973 2097.97,-210.608 2096.06,-203.874"/>
</g>
<!-- Node26&#45;&gt;Node8 -->
<g id="edge35" class="edge"><title>Node26&#45;&gt;Node8</title>
<path fill="none" stroke="midnightblue" d="M1369.8,-199.647C1368.53,-180.729 1364.21,-154.659 1351,-136 1339.37,-119.576 1320.62,-107.401 1303.88,-99.0738"/>
<polygon fill="midnightblue" stroke="midnightblue" points="1366.32,-200.01 1370.25,-209.849 1373.31,-199.707 1366.32,-200.01"/>
</g>
<!-- Node26&#45;&gt;Node17 -->
<g id="edge37" class="edge"><title>Node26&#45;&gt;Node17</title>
<path fill="none" stroke="midnightblue" d="M1341.46,-204.134C1324.61,-192.403 1303.67,-177.826 1288.46,-167.241"/>
<polygon fill="midnightblue" stroke="midnightblue" points="1339.64,-207.132 1349.85,-209.973 1343.64,-201.387 1339.64,-207.132"/>
</g>
<!-- Node27 -->
<g id="node27" class="node"><title>Node27</title>
<g id="a_node27"><a xlink:href="$AP__HAL__FLYMAPLE_2Scheduler_8cpp.html" xlink:title="libraries/AP_HAL_FLYMAPLE\l/Scheduler.cpp">
<polygon fill="white" stroke="black" points="1397.5,-137 1397.5,-167 1546.5,-167 1546.5,-137 1397.5,-137"/>
<text text-anchor="start" x="1405.5" y="-155" font-family="Helvetica,sans-Serif" font-size="10.00">libraries/AP_HAL_FLYMAPLE</text>
<text text-anchor="middle" x="1472" y="-144" font-family="Helvetica,sans-Serif" font-size="10.00">/Scheduler.cpp</text>
</a>
</g>
</g>
<!-- Node26&#45;&gt;Node27 -->
<g id="edge36" class="edge"><title>Node26&#45;&gt;Node27</title>
<path fill="none" stroke="midnightblue" d="M1398.54,-204.134C1415.39,-192.403 1436.33,-177.826 1451.54,-167.241"/>
<polygon fill="midnightblue" stroke="midnightblue" points="1396.36,-201.387 1390.15,-209.973 1400.36,-207.132 1396.36,-201.387"/>
</g>
</g>
</svg>
