<?xml version="1.0" encoding="UTF-8" standalone="no"?>
<!DOCTYPE svg PUBLIC "-//W3C//DTD SVG 1.1//EN"
 "http://www.w3.org/Graphics/SVG/1.1/DTD/svg11.dtd">
<!-- Generated by graphviz version 2.36.0 (20140111.2315)
 -->
<!-- Title: libraries/AP_Motors/AP_MotorsCoax.h Pages: 1 -->
<svg width="1237pt" height="402pt"
 viewBox="0.00 0.00 1237.00 402.00" xmlns="http://www.w3.org/2000/svg" xmlns:xlink="http://www.w3.org/1999/xlink">
<g id="graph0" class="graph" transform="scale(1 1) rotate(0) translate(4 398)">
<title>libraries/AP_Motors/AP_MotorsCoax.h</title>
<polygon fill="white" stroke="none" points="-4,4 -4,-398 1233,-398 1233,4 -4,4"/>
<!-- Node1 -->
<g id="node1" class="node"><title>Node1</title>
<polygon fill="#bfbfbf" stroke="black" points="721,-363 721,-393 823,-393 823,-363 721,-363"/>
<text text-anchor="start" x="729" y="-381" font-family="Helvetica,sans-Serif" font-size="10.00">libraries/AP_Motors</text>
<text text-anchor="middle" x="772" y="-370" font-family="Helvetica,sans-Serif" font-size="10.00">/AP_MotorsCoax.h</text>
</g>
<!-- Node2 -->
<g id="node2" class="node"><title>Node2</title>
<g id="a_node2"><a xlink:href="$AP__Motors_8h.html" xlink:title="libraries/AP_Motors\l/AP_Motors.h">
<polygon fill="white" stroke="black" points="721,-295 721,-325 823,-325 823,-295 721,-295"/>
<text text-anchor="start" x="729" y="-313" font-family="Helvetica,sans-Serif" font-size="10.00">libraries/AP_Motors</text>
<text text-anchor="middle" x="772" y="-302" font-family="Helvetica,sans-Serif" font-size="10.00">/AP_Motors.h</text>
</a>
</g>
</g>
<!-- Node1&#45;&gt;Node2 -->
<g id="edge1" class="edge"><title>Node1&#45;&gt;Node2</title>
<path fill="none" stroke="midnightblue" d="M765.455,-352.532C765.005,-343.361 765.296,-333.245 766.325,-325.293"/>
<polygon fill="midnightblue" stroke="midnightblue" points="761.983,-353.013 766.322,-362.679 768.958,-352.417 761.983,-353.013"/>
</g>
<!-- Node22 -->
<g id="node22" class="node"><title>Node22</title>
<g id="a_node22"><a xlink:href="$AP__MotorsCoax_8cpp.html" xlink:title="libraries/AP_Motors\l/AP_MotorsCoax.cpp">
<polygon fill="white" stroke="black" points="841,-295 841,-325 951,-325 951,-295 841,-295"/>
<text text-anchor="start" x="849" y="-313" font-family="Helvetica,sans-Serif" font-size="10.00">libraries/AP_Motors</text>
<text text-anchor="middle" x="896" y="-302" font-family="Helvetica,sans-Serif" font-size="10.00">/AP_MotorsCoax.cpp</text>
</a>
</g>
</g>
<!-- Node1&#45;&gt;Node22 -->
<g id="edge27" class="edge"><title>Node1&#45;&gt;Node22</title>
<path fill="none" stroke="midnightblue" d="M807.594,-358.055C827.304,-347.564 851.391,-334.743 869.443,-325.135"/>
<polygon fill="midnightblue" stroke="midnightblue" points="805.784,-355.053 798.601,-362.841 809.073,-361.232 805.784,-355.053"/>
</g>
<!-- Node2&#45;&gt;Node1 -->
<g id="edge24" class="edge"><title>Node2&#45;&gt;Node1</title>
<path fill="none" stroke="midnightblue" d="M778.544,-335.436C778.995,-344.605 778.706,-354.722 777.678,-362.679"/>
<polygon fill="midnightblue" stroke="midnightblue" points="782.016,-334.958 777.675,-325.293 775.041,-335.555 782.016,-334.958"/>
</g>
<!-- Node3 -->
<g id="node3" class="node"><title>Node3</title>
<g id="a_node3"><a xlink:href="$AC__AttitudeControl_8h.html" xlink:title="ArduCopter attitude control library. ">
<polygon fill="white" stroke="black" points="257,-216 257,-246 395,-246 395,-216 257,-216"/>
<text text-anchor="start" x="265" y="-234" font-family="Helvetica,sans-Serif" font-size="10.00">libraries/AC_AttitudeControl</text>
<text text-anchor="middle" x="326" y="-223" font-family="Helvetica,sans-Serif" font-size="10.00">/AC_AttitudeControl.h</text>
</a>
</g>
</g>
<!-- Node2&#45;&gt;Node3 -->
<g id="edge2" class="edge"><title>Node2&#45;&gt;Node3</title>
<path fill="none" stroke="midnightblue" d="M710.385,-303.454C637.723,-296.199 513.59,-281.561 409,-258 394.858,-254.814 379.651,-250.362 366.166,-246.04"/>
<polygon fill="midnightblue" stroke="midnightblue" points="710.429,-306.975 720.724,-304.471 711.115,-300.008 710.429,-306.975"/>
</g>
<!-- Node7 -->
<g id="node7" class="node"><title>Node7</title>
<g id="a_node7"><a xlink:href="$AC__PosControl_8h.html" xlink:title="libraries/AC_AttitudeControl\l/AC_PosControl.h">
<polygon fill="white" stroke="black" points="354,-137 354,-167 492,-167 492,-137 354,-137"/>
<text text-anchor="start" x="362" y="-155" font-family="Helvetica,sans-Serif" font-size="10.00">libraries/AC_AttitudeControl</text>
<text text-anchor="middle" x="423" y="-144" font-family="Helvetica,sans-Serif" font-size="10.00">/AC_PosControl.h</text>
</a>
</g>
</g>
<!-- Node2&#45;&gt;Node7 -->
<g id="edge13" class="edge"><title>Node2&#45;&gt;Node7</title>
<path fill="none" stroke="midnightblue" d="M710.784,-307.773C626.043,-304.744 479.201,-294.257 442,-258 417.457,-234.079 418.464,-189.897 420.91,-167.23"/>
<polygon fill="midnightblue" stroke="midnightblue" points="710.688,-311.272 720.799,-308.107 710.921,-304.276 710.688,-311.272"/>
</g>
<!-- Node13 -->
<g id="node13" class="node"><title>Node13</title>
<g id="a_node13"><a xlink:href="$ArduCopterLibs_8pde.html" xlink:title="libraries/AP_HAL_AVR\l/examples/ArduCopterLibs\l/ArduCopterLibs.pde">
<polygon fill="white" stroke="black" points="451,-210.5 451,-251.5 583,-251.5 583,-210.5 451,-210.5"/>
<text text-anchor="start" x="459" y="-239.5" font-family="Helvetica,sans-Serif" font-size="10.00">libraries/AP_HAL_AVR</text>
<text text-anchor="start" x="459" y="-228.5" font-family="Helvetica,sans-Serif" font-size="10.00">/examples/ArduCopterLibs</text>
<text text-anchor="middle" x="517" y="-217.5" font-family="Helvetica,sans-Serif" font-size="10.00">/ArduCopterLibs.pde</text>
</a>
</g>
</g>
<!-- Node2&#45;&gt;Node13 -->
<g id="edge14" class="edge"><title>Node2&#45;&gt;Node13</title>
<path fill="none" stroke="midnightblue" d="M710.891,-292.627C675.931,-283.025 631.337,-270.38 592,-258 585.559,-255.973 578.836,-253.769 572.174,-251.531"/>
<polygon fill="midnightblue" stroke="midnightblue" points="710.379,-296.115 720.948,-295.378 712.226,-289.363 710.379,-296.115"/>
</g>
<!-- Node14 -->
<g id="node14" class="node"><title>Node14</title>
<g id="a_node14"><a xlink:href="$AP__MotorsTri_8h.html" xlink:title="Motor control class for Tricopters. ">
<polygon fill="white" stroke="black" points="601,-216 601,-246 703,-246 703,-216 601,-216"/>
<text text-anchor="start" x="609" y="-234" font-family="Helvetica,sans-Serif" font-size="10.00">libraries/AP_Motors</text>
<text text-anchor="middle" x="652" y="-223" font-family="Helvetica,sans-Serif" font-size="10.00">/AP_MotorsTri.h</text>
</a>
</g>
</g>
<!-- Node2&#45;&gt;Node14 -->
<g id="edge15" class="edge"><title>Node2&#45;&gt;Node14</title>
<path fill="none" stroke="midnightblue" d="M736.014,-289.719C713.601,-276.14 685.948,-258.271 668.518,-246.033"/>
<polygon fill="midnightblue" stroke="midnightblue" points="734.249,-292.742 744.626,-294.877 737.845,-286.736 734.249,-292.742"/>
</g>
<!-- Node16 -->
<g id="node16" class="node"><title>Node16</title>
<g id="a_node16"><a xlink:href="$AP__MotorsHeli_8h.html" xlink:title="Motor control class for Traditional Heli. ">
<polygon fill="white" stroke="black" points="721,-216 721,-246 823,-246 823,-216 721,-216"/>
<text text-anchor="start" x="729" y="-234" font-family="Helvetica,sans-Serif" font-size="10.00">libraries/AP_Motors</text>
<text text-anchor="middle" x="772" y="-223" font-family="Helvetica,sans-Serif" font-size="10.00">/AP_MotorsHeli.h</text>
</a>
</g>
</g>
<!-- Node2&#45;&gt;Node16 -->
<g id="edge18" class="edge"><title>Node2&#45;&gt;Node16</title>
<path fill="none" stroke="midnightblue" d="M765.687,-284.878C764.875,-272.103 765.195,-256.863 766.648,-246.033"/>
<polygon fill="midnightblue" stroke="midnightblue" points="762.207,-285.252 766.636,-294.877 769.175,-284.591 762.207,-285.252"/>
</g>
<!-- Node18 -->
<g id="node18" class="node"><title>Node18</title>
<g id="a_node18"><a xlink:href="$AP__MotorsSingle_8h.html" xlink:title="Motor and Servo control class for Singlecopters. ">
<polygon fill="white" stroke="black" points="841,-216 841,-246 945,-246 945,-216 841,-216"/>
<text text-anchor="start" x="849" y="-234" font-family="Helvetica,sans-Serif" font-size="10.00">libraries/AP_Motors</text>
<text text-anchor="middle" x="893" y="-223" font-family="Helvetica,sans-Serif" font-size="10.00">/AP_MotorsSingle.h</text>
</a>
</g>
</g>
<!-- Node2&#45;&gt;Node18 -->
<g id="edge21" class="edge"><title>Node2&#45;&gt;Node18</title>
<path fill="none" stroke="midnightblue" d="M797.164,-289.176C817.196,-275.667 845,-258.109 865.595,-246.033"/>
<polygon fill="midnightblue" stroke="midnightblue" points="795.107,-286.343 788.829,-294.877 799.059,-292.12 795.107,-286.343"/>
</g>
<!-- Node20 -->
<g id="node20" class="node"><title>Node20</title>
<g id="a_node20"><a xlink:href="$AP__Motors__test_8pde.html" xlink:title="libraries/AP_Motors\l/examples/AP_Motors\l_test/AP_Motors_test.pde">
<polygon fill="white" stroke="black" points="963.5,-210.5 963.5,-251.5 1094.5,-251.5 1094.5,-210.5 963.5,-210.5"/>
<text text-anchor="start" x="971.5" y="-239.5" font-family="Helvetica,sans-Serif" font-size="10.00">libraries/AP_Motors</text>
<text text-anchor="start" x="971.5" y="-228.5" font-family="Helvetica,sans-Serif" font-size="10.00">/examples/AP_Motors</text>
<text text-anchor="middle" x="1029" y="-217.5" font-family="Helvetica,sans-Serif" font-size="10.00">_test/AP_Motors_test.pde</text>
</a>
</g>
</g>
<!-- Node2&#45;&gt;Node20 -->
<g id="edge25" class="edge"><title>Node2&#45;&gt;Node20</title>
<path fill="none" stroke="midnightblue" d="M832.964,-292.906C868.439,-283.295 913.927,-270.548 954,-258 960.444,-255.982 967.169,-253.784 973.831,-251.549"/>
<polygon fill="midnightblue" stroke="midnightblue" points="831.979,-289.547 823.236,-295.531 833.803,-296.305 831.979,-289.547"/>
</g>
<!-- Node21 -->
<g id="node21" class="node"><title>Node21</title>
<g id="a_node21"><a xlink:href="$AP__Motors__Time__test_8pde.html" xlink:title="libraries/AP_Motors\l/examples/AP_Motors\l_Time_test/AP_Motors\l_Time_test.pde">
<polygon fill="white" stroke="black" points="1112.5,-205 1112.5,-257 1229.5,-257 1229.5,-205 1112.5,-205"/>
<text text-anchor="start" x="1120.5" y="-245" font-family="Helvetica,sans-Serif" font-size="10.00">libraries/AP_Motors</text>
<text text-anchor="start" x="1120.5" y="-234" font-family="Helvetica,sans-Serif" font-size="10.00">/examples/AP_Motors</text>
<text text-anchor="start" x="1120.5" y="-223" font-family="Helvetica,sans-Serif" font-size="10.00">_Time_test/AP_Motors</text>
<text text-anchor="middle" x="1171" y="-212" font-family="Helvetica,sans-Serif" font-size="10.00">_Time_test.pde</text>
</a>
</g>
</g>
<!-- Node2&#45;&gt;Node21 -->
<g id="edge26" class="edge"><title>Node2&#45;&gt;Node21</title>
<path fill="none" stroke="midnightblue" d="M833.238,-293.913C953.195,-272.076 988.339,-287.111 1103,-258 1106.06,-257.222 1109.18,-256.349 1112.3,-255.405"/>
<polygon fill="midnightblue" stroke="midnightblue" points="832.489,-290.492 823.302,-295.77 833.775,-297.373 832.489,-290.492"/>
</g>
<!-- Node4 -->
<g id="node4" class="node"><title>Node4</title>
<g id="a_node4"><a xlink:href="$AC__AttitudeControl_8cpp.html" xlink:title="libraries/AC_AttitudeControl\l/AC_AttitudeControl.cpp">
<polygon fill="white" stroke="black" points="160,-137 160,-167 298,-167 298,-137 160,-137"/>
<text text-anchor="start" x="168" y="-155" font-family="Helvetica,sans-Serif" font-size="10.00">libraries/AC_AttitudeControl</text>
<text text-anchor="middle" x="229" y="-144" font-family="Helvetica,sans-Serif" font-size="10.00">/AC_AttitudeControl.cpp</text>
</a>
</g>
</g>
<!-- Node3&#45;&gt;Node4 -->
<g id="edge3" class="edge"><title>Node3&#45;&gt;Node4</title>
<path fill="none" stroke="midnightblue" d="M300.338,-209.629C283.415,-196.196 261.686,-178.946 246.679,-167.033"/>
<polygon fill="midnightblue" stroke="midnightblue" points="298.2,-212.401 308.209,-215.877 302.553,-206.918 298.2,-212.401"/>
</g>
<!-- Node5 -->
<g id="node5" class="node"><title>Node5</title>
<g id="a_node5"><a xlink:href="$AC__AttitudeControl__Heli_8h.html" xlink:title="ArduCopter attitude control library for traditional helicopters. ">
<polygon fill="white" stroke="black" points="4,-137 4,-167 142,-167 142,-137 4,-137"/>
<text text-anchor="start" x="12" y="-155" font-family="Helvetica,sans-Serif" font-size="10.00">libraries/AC_AttitudeControl</text>
<text text-anchor="middle" x="73" y="-144" font-family="Helvetica,sans-Serif" font-size="10.00">/AC_AttitudeControl_Heli.h</text>
</a>
</g>
</g>
<!-- Node3&#45;&gt;Node5 -->
<g id="edge4" class="edge"><title>Node3&#45;&gt;Node5</title>
<path fill="none" stroke="midnightblue" d="M270.218,-213.023C224.902,-199.231 161.747,-180.01 119.22,-167.067"/>
<polygon fill="midnightblue" stroke="midnightblue" points="269.304,-216.403 279.89,-215.967 271.342,-209.707 269.304,-216.403"/>
</g>
<!-- Node3&#45;&gt;Node7 -->
<g id="edge6" class="edge"><title>Node3&#45;&gt;Node7</title>
<path fill="none" stroke="midnightblue" d="M351.662,-209.629C368.585,-196.196 390.314,-178.946 405.321,-167.033"/>
<polygon fill="midnightblue" stroke="midnightblue" points="349.447,-206.918 343.791,-215.877 353.8,-212.401 349.447,-206.918"/>
</g>
<!-- Node11 -->
<g id="node11" class="node"><title>Node11</title>
<g id="a_node11"><a xlink:href="$AC__WPNav_8h.html" xlink:title="libraries/AC_WPNav\l/AC_WPNav.h">
<polygon fill="white" stroke="black" points="250.5,-69 250.5,-99 357.5,-99 357.5,-69 250.5,-69"/>
<text text-anchor="start" x="258.5" y="-87" font-family="Helvetica,sans-Serif" font-size="10.00">libraries/AC_WPNav</text>
<text text-anchor="middle" x="304" y="-76" font-family="Helvetica,sans-Serif" font-size="10.00">/AC_WPNav.h</text>
</a>
</g>
</g>
<!-- Node3&#45;&gt;Node11 -->
<g id="edge12" class="edge"><title>Node3&#45;&gt;Node11</title>
<path fill="none" stroke="midnightblue" d="M322.297,-205.597C317.658,-175.021 309.864,-123.651 306.126,-99.0112"/>
<polygon fill="midnightblue" stroke="midnightblue" points="318.89,-206.471 323.85,-215.833 325.811,-205.421 318.89,-206.471"/>
</g>
<!-- Node6 -->
<g id="node6" class="node"><title>Node6</title>
<g id="a_node6"><a xlink:href="$AC__AttitudeControl__Heli_8cpp.html" xlink:title="libraries/AC_AttitudeControl\l/AC_AttitudeControl_Heli.cpp">
<polygon fill="white" stroke="black" points="0,-69 0,-99 146,-99 146,-69 0,-69"/>
<text text-anchor="start" x="8" y="-87" font-family="Helvetica,sans-Serif" font-size="10.00">libraries/AC_AttitudeControl</text>
<text text-anchor="middle" x="73" y="-76" font-family="Helvetica,sans-Serif" font-size="10.00">/AC_AttitudeControl_Heli.cpp</text>
</a>
</g>
</g>
<!-- Node5&#45;&gt;Node6 -->
<g id="edge5" class="edge"><title>Node5&#45;&gt;Node6</title>
<path fill="none" stroke="midnightblue" d="M73,-126.532C73,-117.361 73,-107.245 73,-99.2931"/>
<polygon fill="midnightblue" stroke="midnightblue" points="69.5001,-126.679 73,-136.679 76.5001,-126.679 69.5001,-126.679"/>
</g>
<!-- Node8 -->
<g id="node8" class="node"><title>Node8</title>
<g id="a_node8"><a xlink:href="$AC__PosControl_8cpp.html" xlink:title="libraries/AC_AttitudeControl\l/AC_PosControl.cpp">
<polygon fill="white" stroke="black" points="376,-69 376,-99 514,-99 514,-69 376,-69"/>
<text text-anchor="start" x="384" y="-87" font-family="Helvetica,sans-Serif" font-size="10.00">libraries/AC_AttitudeControl</text>
<text text-anchor="middle" x="445" y="-76" font-family="Helvetica,sans-Serif" font-size="10.00">/AC_PosControl.cpp</text>
</a>
</g>
</g>
<!-- Node7&#45;&gt;Node8 -->
<g id="edge7" class="edge"><title>Node7&#45;&gt;Node8</title>
<path fill="none" stroke="midnightblue" d="M430.957,-127.129C434.066,-117.801 437.527,-107.418 440.236,-99.2931"/>
<polygon fill="midnightblue" stroke="midnightblue" points="427.616,-126.085 427.774,-136.679 434.256,-128.299 427.616,-126.085"/>
</g>
<!-- Node9 -->
<g id="node9" class="node"><title>Node9</title>
<g id="a_node9"><a xlink:href="$AC__Circle_8h.html" xlink:title="libraries/AC_WPNav\l/AC_Circle.h">
<polygon fill="white" stroke="black" points="532.5,-69 532.5,-99 639.5,-99 639.5,-69 532.5,-69"/>
<text text-anchor="start" x="540.5" y="-87" font-family="Helvetica,sans-Serif" font-size="10.00">libraries/AC_WPNav</text>
<text text-anchor="middle" x="586" y="-76" font-family="Helvetica,sans-Serif" font-size="10.00">/AC_Circle.h</text>
</a>
</g>
</g>
<!-- Node7&#45;&gt;Node9 -->
<g id="edge8" class="edge"><title>Node7&#45;&gt;Node9</title>
<path fill="none" stroke="midnightblue" d="M467.378,-133.031C493.812,-122.328 526.871,-108.942 551.37,-99.0218"/>
<polygon fill="midnightblue" stroke="midnightblue" points="465.923,-129.844 457.968,-136.841 468.55,-136.332 465.923,-129.844"/>
</g>
<!-- Node7&#45;&gt;Node11 -->
<g id="edge10" class="edge"><title>Node7&#45;&gt;Node11</title>
<path fill="none" stroke="midnightblue" d="M388.584,-131.912C369.717,-121.448 346.732,-108.7 329.486,-99.1352"/>
<polygon fill="midnightblue" stroke="midnightblue" points="387.029,-135.052 397.472,-136.841 390.424,-128.93 387.029,-135.052"/>
</g>
<!-- Node10 -->
<g id="node10" class="node"><title>Node10</title>
<g id="a_node10"><a xlink:href="$AC__Circle_8cpp.html" xlink:title="libraries/AC_WPNav\l/AC_Circle.cpp">
<polygon fill="white" stroke="black" points="532.5,-1 532.5,-31 639.5,-31 639.5,-1 532.5,-1"/>
<text text-anchor="start" x="540.5" y="-19" font-family="Helvetica,sans-Serif" font-size="10.00">libraries/AC_WPNav</text>
<text text-anchor="middle" x="586" y="-8" font-family="Helvetica,sans-Serif" font-size="10.00">/AC_Circle.cpp</text>
</a>
</g>
</g>
<!-- Node9&#45;&gt;Node10 -->
<g id="edge9" class="edge"><title>Node9&#45;&gt;Node10</title>
<path fill="none" stroke="midnightblue" d="M586,-58.5322C586,-49.3606 586,-39.2449 586,-31.2931"/>
<polygon fill="midnightblue" stroke="midnightblue" points="582.5,-58.6789 586,-68.679 589.5,-58.679 582.5,-58.6789"/>
</g>
<!-- Node12 -->
<g id="node12" class="node"><title>Node12</title>
<g id="a_node12"><a xlink:href="$AC__WPNav_8cpp.html" xlink:title="libraries/AC_WPNav\l/AC_WPNav.cpp">
<polygon fill="white" stroke="black" points="250.5,-1 250.5,-31 357.5,-31 357.5,-1 250.5,-1"/>
<text text-anchor="start" x="258.5" y="-19" font-family="Helvetica,sans-Serif" font-size="10.00">libraries/AC_WPNav</text>
<text text-anchor="middle" x="304" y="-8" font-family="Helvetica,sans-Serif" font-size="10.00">/AC_WPNav.cpp</text>
</a>
</g>
</g>
<!-- Node11&#45;&gt;Node12 -->
<g id="edge11" class="edge"><title>Node11&#45;&gt;Node12</title>
<path fill="none" stroke="midnightblue" d="M304,-58.5322C304,-49.3606 304,-39.2449 304,-31.2931"/>
<polygon fill="midnightblue" stroke="midnightblue" points="300.5,-58.6789 304,-68.679 307.5,-58.679 300.5,-58.6789"/>
</g>
<!-- Node14&#45;&gt;Node2 -->
<g id="edge16" class="edge"><title>Node14&#45;&gt;Node2</title>
<path fill="none" stroke="midnightblue" d="M687.823,-251.181C710.21,-264.739 737.875,-282.612 755.354,-294.877"/>
<polygon fill="midnightblue" stroke="midnightblue" points="689.6,-248.166 679.222,-246.033 686.005,-254.173 689.6,-248.166"/>
</g>
<!-- Node15 -->
<g id="node15" class="node"><title>Node15</title>
<g id="a_node15"><a xlink:href="$AP__MotorsTri_8cpp.html" xlink:title="libraries/AP_Motors\l/AP_MotorsTri.cpp">
<polygon fill="white" stroke="black" points="600,-137 600,-167 702,-167 702,-137 600,-137"/>
<text text-anchor="start" x="608" y="-155" font-family="Helvetica,sans-Serif" font-size="10.00">libraries/AP_Motors</text>
<text text-anchor="middle" x="651" y="-144" font-family="Helvetica,sans-Serif" font-size="10.00">/AP_MotorsTri.cpp</text>
</a>
</g>
</g>
<!-- Node14&#45;&gt;Node15 -->
<g id="edge17" class="edge"><title>Node14&#45;&gt;Node15</title>
<path fill="none" stroke="midnightblue" d="M651.687,-205.878C651.521,-193.103 651.323,-177.863 651.182,-167.033"/>
<polygon fill="midnightblue" stroke="midnightblue" points="648.187,-205.923 651.817,-215.877 655.186,-205.832 648.187,-205.923"/>
</g>
<!-- Node16&#45;&gt;Node2 -->
<g id="edge19" class="edge"><title>Node16&#45;&gt;Node2</title>
<path fill="none" stroke="midnightblue" d="M778.306,-256.017C779.125,-268.777 778.811,-284.023 777.364,-294.877"/>
<polygon fill="midnightblue" stroke="midnightblue" points="781.788,-255.655 777.352,-246.033 774.819,-256.321 781.788,-255.655"/>
</g>
<!-- Node17 -->
<g id="node17" class="node"><title>Node17</title>
<g id="a_node17"><a xlink:href="$AP__MotorsHeli_8cpp.html" xlink:title="libraries/AP_Motors\l/AP_MotorsHeli.cpp">
<polygon fill="white" stroke="black" points="720,-137 720,-167 824,-167 824,-137 720,-137"/>
<text text-anchor="start" x="728" y="-155" font-family="Helvetica,sans-Serif" font-size="10.00">libraries/AP_Motors</text>
<text text-anchor="middle" x="772" y="-144" font-family="Helvetica,sans-Serif" font-size="10.00">/AP_MotorsHeli.cpp</text>
</a>
</g>
</g>
<!-- Node16&#45;&gt;Node17 -->
<g id="edge20" class="edge"><title>Node16&#45;&gt;Node17</title>
<path fill="none" stroke="midnightblue" d="M772,-205.494C772,-192.799 772,-177.755 772,-167.033"/>
<polygon fill="midnightblue" stroke="midnightblue" points="768.5,-205.877 772,-215.877 775.5,-205.877 768.5,-205.877"/>
</g>
<!-- Node18&#45;&gt;Node2 -->
<g id="edge22" class="edge"><title>Node18&#45;&gt;Node2</title>
<path fill="none" stroke="midnightblue" d="M867.985,-251.724C847.99,-265.213 820.188,-282.775 799.557,-294.877"/>
<polygon fill="midnightblue" stroke="midnightblue" points="870.024,-254.569 876.3,-246.033 866.07,-248.793 870.024,-254.569"/>
</g>
<!-- Node19 -->
<g id="node19" class="node"><title>Node19</title>
<g id="a_node19"><a xlink:href="$AP__MotorsSingle_8cpp.html" xlink:title="libraries/AP_Motors\l/AP_MotorsSingle.cpp">
<polygon fill="white" stroke="black" points="842,-137 842,-167 956,-167 956,-137 842,-137"/>
<text text-anchor="start" x="850" y="-155" font-family="Helvetica,sans-Serif" font-size="10.00">libraries/AP_Motors</text>
<text text-anchor="middle" x="899" y="-144" font-family="Helvetica,sans-Serif" font-size="10.00">/AP_MotorsSingle.cpp</text>
</a>
</g>
</g>
<!-- Node18&#45;&gt;Node19 -->
<g id="edge23" class="edge"><title>Node18&#45;&gt;Node19</title>
<path fill="none" stroke="midnightblue" d="M894.88,-205.878C895.875,-193.103 897.063,-177.863 897.906,-167.033"/>
<polygon fill="midnightblue" stroke="midnightblue" points="891.388,-205.635 894.1,-215.877 898.367,-206.179 891.388,-205.635"/>
</g>
</g>
</svg>
