<?xml version="1.0" encoding="UTF-8" standalone="no"?>
<!DOCTYPE svg PUBLIC "-//W3C//DTD SVG 1.1//EN"
 "http://www.w3.org/Graphics/SVG/1.1/DTD/svg11.dtd">
<!-- Generated by graphviz version 2.36.0 (20140111.2315)
 -->
<!-- Title: get_bearing_cd Pages: 1 -->
<svg width="424pt" height="175pt"
 viewBox="0.00 0.00 424.00 175.00" xmlns="http://www.w3.org/2000/svg" xmlns:xlink="http://www.w3.org/1999/xlink">
<g id="graph0" class="graph" transform="scale(1 1) rotate(0) translate(4 171)">
<title>get_bearing_cd</title>
<polygon fill="white" stroke="none" points="-4,4 -4,-171 420,-171 420,4 -4,4"/>
<!-- Node1 -->
<g id="node1" class="node"><title>Node1</title>
<polygon fill="#bfbfbf" stroke="black" points="0.5,-76.5 0.5,-95.5 83.5,-95.5 83.5,-76.5 0.5,-76.5"/>
<text text-anchor="middle" x="42" y="-83.5" font-family="Helvetica,sans-Serif" font-size="10.00">get_bearing_cd</text>
</g>
<!-- Node2 -->
<g id="node2" class="node"><title>Node2</title>
<g id="a_node2"><a xlink:href="$classAP__Mission.html#a338b12fad6aa74b9c8a34d65850f6b40" xlink:title="AP_Mission::get_next\l_ground_course_cd">
<polygon fill="white" stroke="black" points="122.5,-137 122.5,-167 235.5,-167 235.5,-137 122.5,-137"/>
<text text-anchor="start" x="130.5" y="-155" font-family="Helvetica,sans-Serif" font-size="10.00">AP_Mission::get_next</text>
<text text-anchor="middle" x="179" y="-144" font-family="Helvetica,sans-Serif" font-size="10.00">_ground_course_cd</text>
</a>
</g>
</g>
<!-- Node1&#45;&gt;Node2 -->
<g id="edge1" class="edge"><title>Node1&#45;&gt;Node2</title>
<path fill="none" stroke="midnightblue" d="M68.9818,-100.521C83.7811,-108.618 102.757,-118.71 120,-127 127.016,-130.373 134.602,-133.798 141.902,-136.987"/>
<polygon fill="midnightblue" stroke="midnightblue" points="70.3672,-97.2881 59.9197,-95.527 66.9886,-103.419 70.3672,-97.2881"/>
</g>
<!-- Node3 -->
<g id="node3" class="node"><title>Node3</title>
<g id="a_node3"><a xlink:href="$location_8pde.html#af4c4a815e04b2917f9e189120d8b2ad1" xlink:title="test_one_offset">
<polygon fill="white" stroke="black" points="137,-98.5 137,-117.5 221,-117.5 221,-98.5 137,-98.5"/>
<text text-anchor="middle" x="179" y="-105.5" font-family="Helvetica,sans-Serif" font-size="10.00">test_one_offset</text>
</a>
</g>
</g>
<!-- Node1&#45;&gt;Node3 -->
<g id="edge2" class="edge"><title>Node1&#45;&gt;Node3</title>
<path fill="none" stroke="midnightblue" d="M93.5999,-94.2459C107.776,-96.5561 123.015,-99.0394 136.59,-101.252"/>
<polygon fill="midnightblue" stroke="midnightblue" points="93.9372,-90.7548 83.5045,-92.6007 92.8113,-97.6637 93.9372,-90.7548"/>
</g>
<!-- Node6 -->
<g id="node6" class="node"><title>Node6</title>
<g id="a_node6"><a xlink:href="$classAP__L1__Control.html#acc0860ec530ec9c9bec50a5701bb709e" xlink:title="AP_L1_Control::update\l_loiter">
<polygon fill="white" stroke="black" points="120,-49 120,-79 238,-79 238,-49 120,-49"/>
<text text-anchor="start" x="128" y="-67" font-family="Helvetica,sans-Serif" font-size="10.00">AP_L1_Control::update</text>
<text text-anchor="middle" x="179" y="-56" font-family="Helvetica,sans-Serif" font-size="10.00">_loiter</text>
</a>
</g>
</g>
<!-- Node1&#45;&gt;Node6 -->
<g id="edge5" class="edge"><title>Node1&#45;&gt;Node6</title>
<path fill="none" stroke="midnightblue" d="M93.6037,-77.7535C102.069,-76.3739 110.914,-74.9325 119.557,-73.5241"/>
<polygon fill="midnightblue" stroke="midnightblue" points="92.8113,-74.3363 83.5045,-79.3993 93.9372,-81.2452 92.8113,-74.3363"/>
</g>
<!-- Node7 -->
<g id="node7" class="node"><title>Node7</title>
<g id="a_node7"><a xlink:href="$classAP__L1__Control.html#a9052f01ea019fb51432d3104cce0b6e8" xlink:title="AP_L1_Control::update\l_waypoint">
<polygon fill="white" stroke="black" points="120,-0 120,-30 238,-30 238,-0 120,-0"/>
<text text-anchor="start" x="128" y="-18" font-family="Helvetica,sans-Serif" font-size="10.00">AP_L1_Control::update</text>
<text text-anchor="middle" x="179" y="-7" font-family="Helvetica,sans-Serif" font-size="10.00">_waypoint</text>
</a>
</g>
</g>
<!-- Node1&#45;&gt;Node7 -->
<g id="edge6" class="edge"><title>Node1&#45;&gt;Node7</title>
<path fill="none" stroke="midnightblue" d="M66.3642,-70.9473C81.3989,-61.5372 101.515,-49.4533 120,-40 126.736,-36.5551 134.055,-33.151 141.152,-30.016"/>
<polygon fill="midnightblue" stroke="midnightblue" points="64.3011,-68.1108 57.7197,-76.4135 68.0423,-74.0272 64.3011,-68.1108"/>
</g>
<!-- Node4 -->
<g id="node4" class="node"><title>Node4</title>
<g id="a_node4"><a xlink:href="$location_8pde.html#ac7efc0072d2ac5bca8b847032980a1dd" xlink:title="test_offset">
<polygon fill="white" stroke="black" points="274.5,-98.5 274.5,-117.5 337.5,-117.5 337.5,-98.5 274.5,-98.5"/>
<text text-anchor="middle" x="306" y="-105.5" font-family="Helvetica,sans-Serif" font-size="10.00">test_offset</text>
</a>
</g>
</g>
<!-- Node3&#45;&gt;Node4 -->
<g id="edge3" class="edge"><title>Node3&#45;&gt;Node4</title>
<path fill="none" stroke="midnightblue" d="M231.679,-108C246.227,-108 261.581,-108 274.459,-108"/>
<polygon fill="midnightblue" stroke="midnightblue" points="231.276,-104.5 221.276,-108 231.276,-111.5 231.276,-104.5"/>
</g>
<!-- Node5 -->
<g id="node5" class="node"><title>Node5</title>
<g id="a_node5"><a xlink:href="$location_8pde.html#a7dfd9b79bc5a37d7df40207afbc5431f" xlink:title="setup">
<polygon fill="white" stroke="black" points="374.5,-98.5 374.5,-117.5 415.5,-117.5 415.5,-98.5 374.5,-98.5"/>
<text text-anchor="middle" x="395" y="-105.5" font-family="Helvetica,sans-Serif" font-size="10.00">setup</text>
</a>
</g>
</g>
<!-- Node4&#45;&gt;Node5 -->
<g id="edge4" class="edge"><title>Node4&#45;&gt;Node5</title>
<path fill="none" stroke="midnightblue" d="M348.087,-108C357.224,-108 366.503,-108 374.306,-108"/>
<polygon fill="midnightblue" stroke="midnightblue" points="347.918,-104.5 337.918,-108 347.918,-111.5 347.918,-104.5"/>
</g>
</g>
</svg>
