<?xml version="1.0" encoding="UTF-8" standalone="no"?>
<!DOCTYPE svg PUBLIC "-//W3C//DTD SVG 1.1//EN"
 "http://www.w3.org/Graphics/SVG/1.1/DTD/svg11.dtd">
<!-- Generated by graphviz version 2.36.0 (20140111.2315)
 -->
<!-- Title: libraries/AP_Motors/AP_MotorsTri.h Pages: 1 -->
<svg width="1237pt" height="402pt"
 viewBox="0.00 0.00 1237.00 402.00" xmlns="http://www.w3.org/2000/svg" xmlns:xlink="http://www.w3.org/1999/xlink">
<g id="graph0" class="graph" transform="scale(1 1) rotate(0) translate(4 398)">
<title>libraries/AP_Motors/AP_MotorsTri.h</title>
<polygon fill="white" stroke="none" points="-4,4 -4,-398 1233,-398 1233,4 -4,4"/>
<!-- Node1 -->
<g id="node1" class="node"><title>Node1</title>
<polygon fill="#bfbfbf" stroke="black" points="722,-363 722,-393 824,-393 824,-363 722,-363"/>
<text text-anchor="start" x="730" y="-381" font-family="Helvetica,sans-Serif" font-size="10.00">libraries/AP_Motors</text>
<text text-anchor="middle" x="773" y="-370" font-family="Helvetica,sans-Serif" font-size="10.00">/AP_MotorsTri.h</text>
</g>
<!-- Node2 -->
<g id="node2" class="node"><title>Node2</title>
<g id="a_node2"><a xlink:href="$AP__Motors_8h.html" xlink:title="libraries/AP_Motors\l/AP_Motors.h">
<polygon fill="white" stroke="black" points="722,-295 722,-325 824,-325 824,-295 722,-295"/>
<text text-anchor="start" x="730" y="-313" font-family="Helvetica,sans-Serif" font-size="10.00">libraries/AP_Motors</text>
<text text-anchor="middle" x="773" y="-302" font-family="Helvetica,sans-Serif" font-size="10.00">/AP_Motors.h</text>
</a>
</g>
</g>
<!-- Node1&#45;&gt;Node2 -->
<g id="edge1" class="edge"><title>Node1&#45;&gt;Node2</title>
<path fill="none" stroke="midnightblue" d="M766.455,-352.532C766.005,-343.361 766.296,-333.245 767.325,-325.293"/>
<polygon fill="midnightblue" stroke="midnightblue" points="762.983,-353.013 767.322,-362.679 769.958,-352.417 762.983,-353.013"/>
</g>
<!-- Node22 -->
<g id="node22" class="node"><title>Node22</title>
<g id="a_node22"><a xlink:href="$AP__MotorsTri_8cpp.html" xlink:title="libraries/AP_Motors\l/AP_MotorsTri.cpp">
<polygon fill="white" stroke="black" points="842,-295 842,-325 944,-325 944,-295 842,-295"/>
<text text-anchor="start" x="850" y="-313" font-family="Helvetica,sans-Serif" font-size="10.00">libraries/AP_Motors</text>
<text text-anchor="middle" x="893" y="-302" font-family="Helvetica,sans-Serif" font-size="10.00">/AP_MotorsTri.cpp</text>
</a>
</g>
</g>
<!-- Node1&#45;&gt;Node22 -->
<g id="edge27" class="edge"><title>Node1&#45;&gt;Node22</title>
<path fill="none" stroke="midnightblue" d="M807.705,-357.912C826.731,-347.448 849.909,-334.7 867.3,-325.135"/>
<polygon fill="midnightblue" stroke="midnightblue" points="805.818,-354.955 798.743,-362.841 809.192,-361.089 805.818,-354.955"/>
</g>
<!-- Node2&#45;&gt;Node1 -->
<g id="edge15" class="edge"><title>Node2&#45;&gt;Node1</title>
<path fill="none" stroke="midnightblue" d="M779.544,-335.436C779.995,-344.605 779.706,-354.722 778.678,-362.679"/>
<polygon fill="midnightblue" stroke="midnightblue" points="783.016,-334.958 778.675,-325.293 776.041,-335.555 783.016,-334.958"/>
</g>
<!-- Node3 -->
<g id="node3" class="node"><title>Node3</title>
<g id="a_node3"><a xlink:href="$AC__AttitudeControl_8h.html" xlink:title="ArduCopter attitude control library. ">
<polygon fill="white" stroke="black" points="257,-216 257,-246 395,-246 395,-216 257,-216"/>
<text text-anchor="start" x="265" y="-234" font-family="Helvetica,sans-Serif" font-size="10.00">libraries/AC_AttitudeControl</text>
<text text-anchor="middle" x="326" y="-223" font-family="Helvetica,sans-Serif" font-size="10.00">/AC_AttitudeControl.h</text>
</a>
</g>
</g>
<!-- Node2&#45;&gt;Node3 -->
<g id="edge2" class="edge"><title>Node2&#45;&gt;Node3</title>
<path fill="none" stroke="midnightblue" d="M711.524,-303.5C638.704,-296.27 514.025,-281.639 409,-258 394.858,-254.817 379.65,-250.365 366.165,-246.043"/>
<polygon fill="midnightblue" stroke="midnightblue" points="711.59,-307.023 721.883,-304.513 712.271,-300.056 711.59,-307.023"/>
</g>
<!-- Node7 -->
<g id="node7" class="node"><title>Node7</title>
<g id="a_node7"><a xlink:href="$AC__PosControl_8h.html" xlink:title="libraries/AC_AttitudeControl\l/AC_PosControl.h">
<polygon fill="white" stroke="black" points="354,-137 354,-167 492,-167 492,-137 354,-137"/>
<text text-anchor="start" x="362" y="-155" font-family="Helvetica,sans-Serif" font-size="10.00">libraries/AC_AttitudeControl</text>
<text text-anchor="middle" x="423" y="-144" font-family="Helvetica,sans-Serif" font-size="10.00">/AC_PosControl.h</text>
</a>
</g>
</g>
<!-- Node2&#45;&gt;Node7 -->
<g id="edge13" class="edge"><title>Node2&#45;&gt;Node7</title>
<path fill="none" stroke="midnightblue" d="M711.942,-307.812C626.999,-304.832 479.369,-294.405 442,-258 417.452,-234.085 418.461,-189.9 420.909,-167.231"/>
<polygon fill="midnightblue" stroke="midnightblue" points="711.869,-311.312 721.978,-308.14 712.098,-304.315 711.869,-311.312"/>
</g>
<!-- Node13 -->
<g id="node13" class="node"><title>Node13</title>
<g id="a_node13"><a xlink:href="$ArduCopterLibs_8pde.html" xlink:title="libraries/AP_HAL_AVR\l/examples/ArduCopterLibs\l/ArduCopterLibs.pde">
<polygon fill="white" stroke="black" points="451,-210.5 451,-251.5 583,-251.5 583,-210.5 451,-210.5"/>
<text text-anchor="start" x="459" y="-239.5" font-family="Helvetica,sans-Serif" font-size="10.00">libraries/AP_HAL_AVR</text>
<text text-anchor="start" x="459" y="-228.5" font-family="Helvetica,sans-Serif" font-size="10.00">/examples/ArduCopterLibs</text>
<text text-anchor="middle" x="517" y="-217.5" font-family="Helvetica,sans-Serif" font-size="10.00">/ArduCopterLibs.pde</text>
</a>
</g>
</g>
<!-- Node2&#45;&gt;Node13 -->
<g id="edge14" class="edge"><title>Node2&#45;&gt;Node13</title>
<path fill="none" stroke="midnightblue" d="M711.998,-292.777C676.775,-283.169 631.718,-270.468 592,-258 585.557,-255.978 578.833,-253.777 572.171,-251.54"/>
<polygon fill="midnightblue" stroke="midnightblue" points="711.092,-296.157 721.66,-295.402 712.927,-289.402 711.092,-296.157"/>
</g>
<!-- Node14 -->
<g id="node14" class="node"><title>Node14</title>
<g id="a_node14"><a xlink:href="$AP__MotorsHeli_8h.html" xlink:title="Motor control class for Traditional Heli. ">
<polygon fill="white" stroke="black" points="601,-216 601,-246 703,-246 703,-216 601,-216"/>
<text text-anchor="start" x="609" y="-234" font-family="Helvetica,sans-Serif" font-size="10.00">libraries/AP_Motors</text>
<text text-anchor="middle" x="652" y="-223" font-family="Helvetica,sans-Serif" font-size="10.00">/AP_MotorsHeli.h</text>
</a>
</g>
</g>
<!-- Node2&#45;&gt;Node14 -->
<g id="edge16" class="edge"><title>Node2&#45;&gt;Node14</title>
<path fill="none" stroke="midnightblue" d="M736.763,-289.719C714.174,-276.14 686.289,-258.271 668.7,-246.033"/>
<polygon fill="midnightblue" stroke="midnightblue" points="735.058,-292.777 745.443,-294.877 738.634,-286.76 735.058,-292.777"/>
</g>
<!-- Node16 -->
<g id="node16" class="node"><title>Node16</title>
<g id="a_node16"><a xlink:href="$AP__MotorsSingle_8h.html" xlink:title="Motor and Servo control class for Singlecopters. ">
<polygon fill="white" stroke="black" points="721,-216 721,-246 825,-246 825,-216 721,-216"/>
<text text-anchor="start" x="729" y="-234" font-family="Helvetica,sans-Serif" font-size="10.00">libraries/AP_Motors</text>
<text text-anchor="middle" x="773" y="-223" font-family="Helvetica,sans-Serif" font-size="10.00">/AP_MotorsSingle.h</text>
</a>
</g>
</g>
<!-- Node2&#45;&gt;Node16 -->
<g id="edge19" class="edge"><title>Node2&#45;&gt;Node16</title>
<path fill="none" stroke="midnightblue" d="M766.687,-284.878C765.875,-272.103 766.195,-256.863 767.648,-246.033"/>
<polygon fill="midnightblue" stroke="midnightblue" points="763.207,-285.252 767.636,-294.877 770.175,-284.591 763.207,-285.252"/>
</g>
<!-- Node18 -->
<g id="node18" class="node"><title>Node18</title>
<g id="a_node18"><a xlink:href="$AP__MotorsCoax_8h.html" xlink:title="Motor and Servo control class for Co&#45;axial helicopters with two motors and two flaps. ">
<polygon fill="white" stroke="black" points="843,-216 843,-246 945,-246 945,-216 843,-216"/>
<text text-anchor="start" x="851" y="-234" font-family="Helvetica,sans-Serif" font-size="10.00">libraries/AP_Motors</text>
<text text-anchor="middle" x="894" y="-223" font-family="Helvetica,sans-Serif" font-size="10.00">/AP_MotorsCoax.h</text>
</a>
</g>
</g>
<!-- Node2&#45;&gt;Node18 -->
<g id="edge22" class="edge"><title>Node2&#45;&gt;Node18</title>
<path fill="none" stroke="midnightblue" d="M798.164,-289.176C818.196,-275.667 846,-258.109 866.595,-246.033"/>
<polygon fill="midnightblue" stroke="midnightblue" points="796.107,-286.343 789.829,-294.877 800.059,-292.12 796.107,-286.343"/>
</g>
<!-- Node20 -->
<g id="node20" class="node"><title>Node20</title>
<g id="a_node20"><a xlink:href="$AP__Motors__test_8pde.html" xlink:title="libraries/AP_Motors\l/examples/AP_Motors\l_test/AP_Motors_test.pde">
<polygon fill="white" stroke="black" points="963.5,-210.5 963.5,-251.5 1094.5,-251.5 1094.5,-210.5 963.5,-210.5"/>
<text text-anchor="start" x="971.5" y="-239.5" font-family="Helvetica,sans-Serif" font-size="10.00">libraries/AP_Motors</text>
<text text-anchor="start" x="971.5" y="-228.5" font-family="Helvetica,sans-Serif" font-size="10.00">/examples/AP_Motors</text>
<text text-anchor="middle" x="1029" y="-217.5" font-family="Helvetica,sans-Serif" font-size="10.00">_test/AP_Motors_test.pde</text>
</a>
</g>
</g>
<!-- Node2&#45;&gt;Node20 -->
<g id="edge25" class="edge"><title>Node2&#45;&gt;Node20</title>
<path fill="none" stroke="midnightblue" d="M834.09,-292.565C869.044,-282.944 913.638,-270.3 953,-258 959.522,-255.962 966.332,-253.752 973.08,-251.51"/>
<polygon fill="midnightblue" stroke="midnightblue" points="832.753,-289.303 824.034,-295.323 834.604,-296.054 832.753,-289.303"/>
</g>
<!-- Node21 -->
<g id="node21" class="node"><title>Node21</title>
<g id="a_node21"><a xlink:href="$AP__Motors__Time__test_8pde.html" xlink:title="libraries/AP_Motors\l/examples/AP_Motors\l_Time_test/AP_Motors\l_Time_test.pde">
<polygon fill="white" stroke="black" points="1112.5,-205 1112.5,-257 1229.5,-257 1229.5,-205 1112.5,-205"/>
<text text-anchor="start" x="1120.5" y="-245" font-family="Helvetica,sans-Serif" font-size="10.00">libraries/AP_Motors</text>
<text text-anchor="start" x="1120.5" y="-234" font-family="Helvetica,sans-Serif" font-size="10.00">/examples/AP_Motors</text>
<text text-anchor="start" x="1120.5" y="-223" font-family="Helvetica,sans-Serif" font-size="10.00">_Time_test/AP_Motors</text>
<text text-anchor="middle" x="1171" y="-212" font-family="Helvetica,sans-Serif" font-size="10.00">_Time_test.pde</text>
</a>
</g>
</g>
<!-- Node2&#45;&gt;Node21 -->
<g id="edge26" class="edge"><title>Node2&#45;&gt;Node21</title>
<path fill="none" stroke="midnightblue" d="M834.204,-293.918C953.75,-272.123 988.762,-287.033 1103,-258 1106.06,-257.222 1109.18,-256.347 1112.3,-255.403"/>
<polygon fill="midnightblue" stroke="midnightblue" points="833.488,-290.491 824.303,-295.771 834.776,-297.372 833.488,-290.491"/>
</g>
<!-- Node4 -->
<g id="node4" class="node"><title>Node4</title>
<g id="a_node4"><a xlink:href="$AC__AttitudeControl_8cpp.html" xlink:title="libraries/AC_AttitudeControl\l/AC_AttitudeControl.cpp">
<polygon fill="white" stroke="black" points="160,-137 160,-167 298,-167 298,-137 160,-137"/>
<text text-anchor="start" x="168" y="-155" font-family="Helvetica,sans-Serif" font-size="10.00">libraries/AC_AttitudeControl</text>
<text text-anchor="middle" x="229" y="-144" font-family="Helvetica,sans-Serif" font-size="10.00">/AC_AttitudeControl.cpp</text>
</a>
</g>
</g>
<!-- Node3&#45;&gt;Node4 -->
<g id="edge3" class="edge"><title>Node3&#45;&gt;Node4</title>
<path fill="none" stroke="midnightblue" d="M300.338,-209.629C283.415,-196.196 261.686,-178.946 246.679,-167.033"/>
<polygon fill="midnightblue" stroke="midnightblue" points="298.2,-212.401 308.209,-215.877 302.553,-206.918 298.2,-212.401"/>
</g>
<!-- Node5 -->
<g id="node5" class="node"><title>Node5</title>
<g id="a_node5"><a xlink:href="$AC__AttitudeControl__Heli_8h.html" xlink:title="ArduCopter attitude control library for traditional helicopters. ">
<polygon fill="white" stroke="black" points="4,-137 4,-167 142,-167 142,-137 4,-137"/>
<text text-anchor="start" x="12" y="-155" font-family="Helvetica,sans-Serif" font-size="10.00">libraries/AC_AttitudeControl</text>
<text text-anchor="middle" x="73" y="-144" font-family="Helvetica,sans-Serif" font-size="10.00">/AC_AttitudeControl_Heli.h</text>
</a>
</g>
</g>
<!-- Node3&#45;&gt;Node5 -->
<g id="edge4" class="edge"><title>Node3&#45;&gt;Node5</title>
<path fill="none" stroke="midnightblue" d="M270.218,-213.023C224.902,-199.231 161.747,-180.01 119.22,-167.067"/>
<polygon fill="midnightblue" stroke="midnightblue" points="269.304,-216.403 279.89,-215.967 271.342,-209.707 269.304,-216.403"/>
</g>
<!-- Node3&#45;&gt;Node7 -->
<g id="edge6" class="edge"><title>Node3&#45;&gt;Node7</title>
<path fill="none" stroke="midnightblue" d="M351.662,-209.629C368.585,-196.196 390.314,-178.946 405.321,-167.033"/>
<polygon fill="midnightblue" stroke="midnightblue" points="349.447,-206.918 343.791,-215.877 353.8,-212.401 349.447,-206.918"/>
</g>
<!-- Node11 -->
<g id="node11" class="node"><title>Node11</title>
<g id="a_node11"><a xlink:href="$AC__WPNav_8h.html" xlink:title="libraries/AC_WPNav\l/AC_WPNav.h">
<polygon fill="white" stroke="black" points="250.5,-69 250.5,-99 357.5,-99 357.5,-69 250.5,-69"/>
<text text-anchor="start" x="258.5" y="-87" font-family="Helvetica,sans-Serif" font-size="10.00">libraries/AC_WPNav</text>
<text text-anchor="middle" x="304" y="-76" font-family="Helvetica,sans-Serif" font-size="10.00">/AC_WPNav.h</text>
</a>
</g>
</g>
<!-- Node3&#45;&gt;Node11 -->
<g id="edge12" class="edge"><title>Node3&#45;&gt;Node11</title>
<path fill="none" stroke="midnightblue" d="M322.297,-205.597C317.658,-175.021 309.864,-123.651 306.126,-99.0112"/>
<polygon fill="midnightblue" stroke="midnightblue" points="318.89,-206.471 323.85,-215.833 325.811,-205.421 318.89,-206.471"/>
</g>
<!-- Node6 -->
<g id="node6" class="node"><title>Node6</title>
<g id="a_node6"><a xlink:href="$AC__AttitudeControl__Heli_8cpp.html" xlink:title="libraries/AC_AttitudeControl\l/AC_AttitudeControl_Heli.cpp">
<polygon fill="white" stroke="black" points="0,-69 0,-99 146,-99 146,-69 0,-69"/>
<text text-anchor="start" x="8" y="-87" font-family="Helvetica,sans-Serif" font-size="10.00">libraries/AC_AttitudeControl</text>
<text text-anchor="middle" x="73" y="-76" font-family="Helvetica,sans-Serif" font-size="10.00">/AC_AttitudeControl_Heli.cpp</text>
</a>
</g>
</g>
<!-- Node5&#45;&gt;Node6 -->
<g id="edge5" class="edge"><title>Node5&#45;&gt;Node6</title>
<path fill="none" stroke="midnightblue" d="M73,-126.532C73,-117.361 73,-107.245 73,-99.2931"/>
<polygon fill="midnightblue" stroke="midnightblue" points="69.5001,-126.679 73,-136.679 76.5001,-126.679 69.5001,-126.679"/>
</g>
<!-- Node8 -->
<g id="node8" class="node"><title>Node8</title>
<g id="a_node8"><a xlink:href="$AC__PosControl_8cpp.html" xlink:title="libraries/AC_AttitudeControl\l/AC_PosControl.cpp">
<polygon fill="white" stroke="black" points="376,-69 376,-99 514,-99 514,-69 376,-69"/>
<text text-anchor="start" x="384" y="-87" font-family="Helvetica,sans-Serif" font-size="10.00">libraries/AC_AttitudeControl</text>
<text text-anchor="middle" x="445" y="-76" font-family="Helvetica,sans-Serif" font-size="10.00">/AC_PosControl.cpp</text>
</a>
</g>
</g>
<!-- Node7&#45;&gt;Node8 -->
<g id="edge7" class="edge"><title>Node7&#45;&gt;Node8</title>
<path fill="none" stroke="midnightblue" d="M430.957,-127.129C434.066,-117.801 437.527,-107.418 440.236,-99.2931"/>
<polygon fill="midnightblue" stroke="midnightblue" points="427.616,-126.085 427.774,-136.679 434.256,-128.299 427.616,-126.085"/>
</g>
<!-- Node9 -->
<g id="node9" class="node"><title>Node9</title>
<g id="a_node9"><a xlink:href="$AC__Circle_8h.html" xlink:title="libraries/AC_WPNav\l/AC_Circle.h">
<polygon fill="white" stroke="black" points="532.5,-69 532.5,-99 639.5,-99 639.5,-69 532.5,-69"/>
<text text-anchor="start" x="540.5" y="-87" font-family="Helvetica,sans-Serif" font-size="10.00">libraries/AC_WPNav</text>
<text text-anchor="middle" x="586" y="-76" font-family="Helvetica,sans-Serif" font-size="10.00">/AC_Circle.h</text>
</a>
</g>
</g>
<!-- Node7&#45;&gt;Node9 -->
<g id="edge8" class="edge"><title>Node7&#45;&gt;Node9</title>
<path fill="none" stroke="midnightblue" d="M467.378,-133.031C493.812,-122.328 526.871,-108.942 551.37,-99.0218"/>
<polygon fill="midnightblue" stroke="midnightblue" points="465.923,-129.844 457.968,-136.841 468.55,-136.332 465.923,-129.844"/>
</g>
<!-- Node7&#45;&gt;Node11 -->
<g id="edge10" class="edge"><title>Node7&#45;&gt;Node11</title>
<path fill="none" stroke="midnightblue" d="M388.584,-131.912C369.717,-121.448 346.732,-108.7 329.486,-99.1352"/>
<polygon fill="midnightblue" stroke="midnightblue" points="387.029,-135.052 397.472,-136.841 390.424,-128.93 387.029,-135.052"/>
</g>
<!-- Node10 -->
<g id="node10" class="node"><title>Node10</title>
<g id="a_node10"><a xlink:href="$AC__Circle_8cpp.html" xlink:title="libraries/AC_WPNav\l/AC_Circle.cpp">
<polygon fill="white" stroke="black" points="532.5,-1 532.5,-31 639.5,-31 639.5,-1 532.5,-1"/>
<text text-anchor="start" x="540.5" y="-19" font-family="Helvetica,sans-Serif" font-size="10.00">libraries/AC_WPNav</text>
<text text-anchor="middle" x="586" y="-8" font-family="Helvetica,sans-Serif" font-size="10.00">/AC_Circle.cpp</text>
</a>
</g>
</g>
<!-- Node9&#45;&gt;Node10 -->
<g id="edge9" class="edge"><title>Node9&#45;&gt;Node10</title>
<path fill="none" stroke="midnightblue" d="M586,-58.5322C586,-49.3606 586,-39.2449 586,-31.2931"/>
<polygon fill="midnightblue" stroke="midnightblue" points="582.5,-58.6789 586,-68.679 589.5,-58.679 582.5,-58.6789"/>
</g>
<!-- Node12 -->
<g id="node12" class="node"><title>Node12</title>
<g id="a_node12"><a xlink:href="$AC__WPNav_8cpp.html" xlink:title="libraries/AC_WPNav\l/AC_WPNav.cpp">
<polygon fill="white" stroke="black" points="250.5,-1 250.5,-31 357.5,-31 357.5,-1 250.5,-1"/>
<text text-anchor="start" x="258.5" y="-19" font-family="Helvetica,sans-Serif" font-size="10.00">libraries/AC_WPNav</text>
<text text-anchor="middle" x="304" y="-8" font-family="Helvetica,sans-Serif" font-size="10.00">/AC_WPNav.cpp</text>
</a>
</g>
</g>
<!-- Node11&#45;&gt;Node12 -->
<g id="edge11" class="edge"><title>Node11&#45;&gt;Node12</title>
<path fill="none" stroke="midnightblue" d="M304,-58.5322C304,-49.3606 304,-39.2449 304,-31.2931"/>
<polygon fill="midnightblue" stroke="midnightblue" points="300.5,-58.6789 304,-68.679 307.5,-58.679 300.5,-58.6789"/>
</g>
<!-- Node14&#45;&gt;Node2 -->
<g id="edge17" class="edge"><title>Node14&#45;&gt;Node2</title>
<path fill="none" stroke="midnightblue" d="M688.072,-251.181C710.635,-264.739 738.532,-282.612 756.171,-294.877"/>
<polygon fill="midnightblue" stroke="midnightblue" points="689.79,-248.131 679.405,-246.033 686.215,-254.149 689.79,-248.131"/>
</g>
<!-- Node15 -->
<g id="node15" class="node"><title>Node15</title>
<g id="a_node15"><a xlink:href="$AP__MotorsHeli_8cpp.html" xlink:title="libraries/AP_Motors\l/AP_MotorsHeli.cpp">
<polygon fill="white" stroke="black" points="594,-137 594,-167 698,-167 698,-137 594,-137"/>
<text text-anchor="start" x="602" y="-155" font-family="Helvetica,sans-Serif" font-size="10.00">libraries/AP_Motors</text>
<text text-anchor="middle" x="646" y="-144" font-family="Helvetica,sans-Serif" font-size="10.00">/AP_MotorsHeli.cpp</text>
</a>
</g>
</g>
<!-- Node14&#45;&gt;Node15 -->
<g id="edge18" class="edge"><title>Node14&#45;&gt;Node15</title>
<path fill="none" stroke="midnightblue" d="M650.12,-205.878C649.125,-193.103 647.937,-177.863 647.094,-167.033"/>
<polygon fill="midnightblue" stroke="midnightblue" points="646.633,-206.179 650.9,-215.877 653.612,-205.635 646.633,-206.179"/>
</g>
<!-- Node16&#45;&gt;Node2 -->
<g id="edge20" class="edge"><title>Node16&#45;&gt;Node2</title>
<path fill="none" stroke="midnightblue" d="M779.306,-256.017C780.125,-268.777 779.811,-284.023 778.364,-294.877"/>
<polygon fill="midnightblue" stroke="midnightblue" points="782.788,-255.655 778.352,-246.033 775.819,-256.321 782.788,-255.655"/>
</g>
<!-- Node17 -->
<g id="node17" class="node"><title>Node17</title>
<g id="a_node17"><a xlink:href="$AP__MotorsSingle_8cpp.html" xlink:title="libraries/AP_Motors\l/AP_MotorsSingle.cpp">
<polygon fill="white" stroke="black" points="716,-137 716,-167 830,-167 830,-137 716,-137"/>
<text text-anchor="start" x="724" y="-155" font-family="Helvetica,sans-Serif" font-size="10.00">libraries/AP_Motors</text>
<text text-anchor="middle" x="773" y="-144" font-family="Helvetica,sans-Serif" font-size="10.00">/AP_MotorsSingle.cpp</text>
</a>
</g>
</g>
<!-- Node16&#45;&gt;Node17 -->
<g id="edge21" class="edge"><title>Node16&#45;&gt;Node17</title>
<path fill="none" stroke="midnightblue" d="M773,-205.494C773,-192.799 773,-177.755 773,-167.033"/>
<polygon fill="midnightblue" stroke="midnightblue" points="769.5,-205.877 773,-215.877 776.5,-205.877 769.5,-205.877"/>
</g>
<!-- Node18&#45;&gt;Node2 -->
<g id="edge23" class="edge"><title>Node18&#45;&gt;Node2</title>
<path fill="none" stroke="midnightblue" d="M868.985,-251.724C848.99,-265.213 821.188,-282.775 800.557,-294.877"/>
<polygon fill="midnightblue" stroke="midnightblue" points="871.024,-254.569 877.3,-246.033 867.07,-248.793 871.024,-254.569"/>
</g>
<!-- Node19 -->
<g id="node19" class="node"><title>Node19</title>
<g id="a_node19"><a xlink:href="$AP__MotorsCoax_8cpp.html" xlink:title="libraries/AP_Motors\l/AP_MotorsCoax.cpp">
<polygon fill="white" stroke="black" points="848,-137 848,-167 958,-167 958,-137 848,-137"/>
<text text-anchor="start" x="856" y="-155" font-family="Helvetica,sans-Serif" font-size="10.00">libraries/AP_Motors</text>
<text text-anchor="middle" x="903" y="-144" font-family="Helvetica,sans-Serif" font-size="10.00">/AP_MotorsCoax.cpp</text>
</a>
</g>
</g>
<!-- Node18&#45;&gt;Node19 -->
<g id="edge24" class="edge"><title>Node18&#45;&gt;Node19</title>
<path fill="none" stroke="midnightblue" d="M896.819,-205.878C898.313,-193.103 900.094,-177.863 901.36,-167.033"/>
<polygon fill="midnightblue" stroke="midnightblue" points="893.335,-205.538 895.651,-215.877 900.288,-206.351 893.335,-205.538"/>
</g>
</g>
</svg>
