<?xml version="1.0" encoding="UTF-8" standalone="no"?>
<!DOCTYPE svg PUBLIC "-//W3C//DTD SVG 1.1//EN"
 "http://www.w3.org/Graphics/SVG/1.1/DTD/svg11.dtd">
<!-- Generated by graphviz version 2.36.0 (20140111.2315)
 -->
<!-- Title: setup Pages: 1 -->
<svg width="636pt" height="66pt"
 viewBox="0.00 0.00 636.00 66.00" xmlns="http://www.w3.org/2000/svg" xmlns:xlink="http://www.w3.org/1999/xlink">
<g id="graph0" class="graph" transform="scale(1 1) rotate(0) translate(4 62)">
<title>setup</title>
<polygon fill="white" stroke="none" points="-4,4 -4,-62 632,-62 632,4 -4,4"/>
<!-- Node1 -->
<g id="node1" class="node"><title>Node1</title>
<polygon fill="#bfbfbf" stroke="black" points="0.5,-19.5 0.5,-38.5 41.5,-38.5 41.5,-19.5 0.5,-19.5"/>
<text text-anchor="middle" x="21" y="-26.5" font-family="Helvetica,sans-Serif" font-size="10.00">setup</text>
</g>
<!-- Node2 -->
<g id="node2" class="node"><title>Node2</title>
<g id="a_node2"><a xlink:href="$classAP__HAL_1_1Print.html#ad337ce3f7977411b7d34d47a51e5737e" xlink:title="AP_HAL::Print::println">
<polygon fill="white" stroke="black" points="78.5,-38.5 78.5,-57.5 191.5,-57.5 191.5,-38.5 78.5,-38.5"/>
<text text-anchor="middle" x="135" y="-45.5" font-family="Helvetica,sans-Serif" font-size="10.00">AP_HAL::Print::println</text>
</a>
</g>
</g>
<!-- Node1&#45;&gt;Node2 -->
<g id="edge1" class="edge"><title>Node1&#45;&gt;Node2</title>
<path fill="none" stroke="midnightblue" d="M41.5089,-32.3095C49.1374,-33.6037 58.3661,-35.1693 68.0031,-36.8041"/>
<polygon fill="midnightblue" stroke="midnightblue" points="67.699,-40.3024 78.1436,-38.5244 68.8698,-33.401 67.699,-40.3024"/>
</g>
<!-- Node6 -->
<g id="node6" class="node"><title>Node6</title>
<g id="a_node6"><a xlink:href="$AP__Common_8pde.html#ae18cf4b38593cd1912d6eefb508f51d5" xlink:title="test_high_low_byte">
<polygon fill="white" stroke="black" points="84.5,-0.5 84.5,-19.5 185.5,-19.5 185.5,-0.5 84.5,-0.5"/>
<text text-anchor="middle" x="135" y="-7.5" font-family="Helvetica,sans-Serif" font-size="10.00">test_high_low_byte</text>
</a>
</g>
</g>
<!-- Node1&#45;&gt;Node6 -->
<g id="edge6" class="edge"><title>Node1&#45;&gt;Node6</title>
<path fill="none" stroke="midnightblue" d="M41.5089,-25.6905C50.812,-24.1123 62.4949,-22.1303 74.3957,-20.1114"/>
<polygon fill="midnightblue" stroke="midnightblue" points="75.1225,-23.5382 84.3963,-18.4149 73.9517,-16.6368 75.1225,-23.5382"/>
</g>
<!-- Node3 -->
<g id="node3" class="node"><title>Node3</title>
<g id="a_node3"><a xlink:href="$classAP__HAL_1_1Print.html#acfe80773011eb17dfb52c2fba517a093" xlink:title="AP_HAL::Print::print">
<polygon fill="white" stroke="black" points="378,-38.5 378,-57.5 484,-57.5 484,-38.5 378,-38.5"/>
<text text-anchor="middle" x="431" y="-45.5" font-family="Helvetica,sans-Serif" font-size="10.00">AP_HAL::Print::print</text>
</a>
</g>
</g>
<!-- Node2&#45;&gt;Node3 -->
<g id="edge2" class="edge"><title>Node2&#45;&gt;Node3</title>
<path fill="none" stroke="midnightblue" d="M191.645,-48C241.742,-48 315.293,-48 367.42,-48"/>
<polygon fill="midnightblue" stroke="midnightblue" points="367.547,-51.5001 377.547,-48 367.547,-44.5001 367.547,-51.5001"/>
</g>
<!-- Node5 -->
<g id="node5" class="node"><title>Node5</title>
<g id="a_node5"><a xlink:href="$classAP__HAL_1_1Print.html#a169b128f9e22f0c15883768f580541a2" xlink:title="AP_HAL::Print::println">
<polygon fill="white" stroke="black" points="228.5,-19.5 228.5,-38.5 341.5,-38.5 341.5,-19.5 228.5,-19.5"/>
<text text-anchor="middle" x="285" y="-26.5" font-family="Helvetica,sans-Serif" font-size="10.00">AP_HAL::Print::println</text>
</a>
</g>
</g>
<!-- Node2&#45;&gt;Node5 -->
<g id="edge4" class="edge"><title>Node2&#45;&gt;Node5</title>
<path fill="none" stroke="midnightblue" d="M191.531,-40.871C200.232,-39.754 209.296,-38.5903 218.201,-37.4472"/>
<polygon fill="midnightblue" stroke="midnightblue" points="218.685,-40.9138 228.158,-36.1689 217.794,-33.9708 218.685,-40.9138"/>
</g>
<!-- Node4 -->
<g id="node4" class="node"><title>Node4</title>
<g id="a_node4"><a xlink:href="$classAP__HAL_1_1Print.html#acc65391952a43334f8f5c9bef341f501" xlink:title="AP_HAL::Print::write">
<polygon fill="white" stroke="black" points="520,-38.5 520,-57.5 628,-57.5 628,-38.5 520,-38.5"/>
<text text-anchor="middle" x="574" y="-45.5" font-family="Helvetica,sans-Serif" font-size="10.00">AP_HAL::Print::write</text>
</a>
</g>
</g>
<!-- Node3&#45;&gt;Node4 -->
<g id="edge3" class="edge"><title>Node3&#45;&gt;Node4</title>
<path fill="none" stroke="midnightblue" d="M484.103,-48C492.357,-48 500.973,-48 509.453,-48"/>
<polygon fill="midnightblue" stroke="midnightblue" points="509.697,-51.5001 519.697,-48 509.697,-44.5001 509.697,-51.5001"/>
</g>
<!-- Node5&#45;&gt;Node3 -->
<g id="edge5" class="edge"><title>Node5&#45;&gt;Node3</title>
<path fill="none" stroke="midnightblue" d="M341.674,-36.3459C350.207,-37.4717 359.062,-38.6402 367.727,-39.7834"/>
<polygon fill="midnightblue" stroke="midnightblue" points="367.407,-43.2714 377.779,-41.1097 368.323,-36.3316 367.407,-43.2714"/>
</g>
</g>
</svg>
