<?xml version="1.0" encoding="UTF-8" standalone="no"?>
<!DOCTYPE svg PUBLIC "-//W3C//DTD SVG 1.1//EN"
 "http://www.w3.org/Graphics/SVG/1.1/DTD/svg11.dtd">
<!-- Generated by graphviz version 2.36.0 (20140111.2315)
 -->
<!-- Title: spi Pages: 1 -->
<svg width="438pt" height="143pt"
 viewBox="0.00 0.00 438.00 143.00" xmlns="http://www.w3.org/2000/svg" xmlns:xlink="http://www.w3.org/1999/xlink">
<g id="graph0" class="graph" transform="scale(1 1) rotate(0) translate(4 139)">
<title>spi</title>
<polygon fill="white" stroke="none" points="-4,4 -4,-139 434,-139 434,4 -4,4"/>
<!-- Node1 -->
<g id="node1" class="node"><title>Node1</title>
<polygon fill="#bfbfbf" stroke="black" points="0.5,-60.5 0.5,-79.5 29.5,-79.5 29.5,-60.5 0.5,-60.5"/>
<text text-anchor="middle" x="15" y="-67.5" font-family="Helvetica,sans-Serif" font-size="10.00">spi</text>
</g>
<!-- Node2 -->
<g id="node2" class="node"><title>Node2</title>
<g id="a_node2"><a xlink:href="$classAP__HAL__FLYMAPLE__NS_1_1FLYMAPLESPIDeviceDriver.html#a593e874b567009040298877d2e01308c" xlink:title="AP_HAL_FLYMAPLE_NS\l::FLYMAPLESPIDeviceDriver::init">
<polygon fill="white" stroke="black" points="66.5,-99 66.5,-129 233.5,-129 233.5,-99 66.5,-99"/>
<text text-anchor="start" x="74.5" y="-117" font-family="Helvetica,sans-Serif" font-size="10.00">AP_HAL_FLYMAPLE_NS</text>
<text text-anchor="middle" x="150" y="-106" font-family="Helvetica,sans-Serif" font-size="10.00">::FLYMAPLESPIDeviceDriver::init</text>
</a>
</g>
</g>
<!-- Node1&#45;&gt;Node2 -->
<g id="edge1" class="edge"><title>Node1&#45;&gt;Node2</title>
<path fill="none" stroke="midnightblue" d="M39.3963,-79.2816C47.7455,-82.4897 57.2497,-86.0238 66,-89 75.9733,-92.3922 86.6982,-95.7985 97.018,-98.9576"/>
<polygon fill="midnightblue" stroke="midnightblue" points="40.5017,-75.9561 29.9133,-75.5893 37.9619,-82.4791 40.5017,-75.9561"/>
</g>
<!-- Node4 -->
<g id="node4" class="node"><title>Node4</title>
<g id="a_node4"><a xlink:href="$BusTest_8pde.html#a0b33edabd7f1c4e4a0bf32c67269be2f" xlink:title="loop">
<polygon fill="white" stroke="black" points="132.5,-60.5 132.5,-79.5 167.5,-79.5 167.5,-60.5 132.5,-60.5"/>
<text text-anchor="middle" x="150" y="-67.5" font-family="Helvetica,sans-Serif" font-size="10.00">loop</text>
</a>
</g>
</g>
<!-- Node1&#45;&gt;Node4 -->
<g id="edge3" class="edge"><title>Node1&#45;&gt;Node4</title>
<path fill="none" stroke="midnightblue" d="M39.7405,-70C66.3625,-70 108.859,-70 132.233,-70"/>
<polygon fill="midnightblue" stroke="midnightblue" points="39.7324,-66.5001 29.7324,-70 39.7324,-73.5001 39.7324,-66.5001"/>
</g>
<!-- Node5 -->
<g id="node5" class="node"><title>Node5</title>
<g id="a_node5"><a xlink:href="$classAP__HAL__FLYMAPLE__NS_1_1FLYMAPLESPIDeviceDriver.html#aed2da145041d7f61e2a49cac8f388940" xlink:title="AP_HAL_FLYMAPLE_NS\l::FLYMAPLESPIDeviceDriver\l::transfer">
<polygon fill="white" stroke="black" points="76,-0.5 76,-41.5 224,-41.5 224,-0.5 76,-0.5"/>
<text text-anchor="start" x="84" y="-29.5" font-family="Helvetica,sans-Serif" font-size="10.00">AP_HAL_FLYMAPLE_NS</text>
<text text-anchor="start" x="84" y="-18.5" font-family="Helvetica,sans-Serif" font-size="10.00">::FLYMAPLESPIDeviceDriver</text>
<text text-anchor="middle" x="150" y="-7.5" font-family="Helvetica,sans-Serif" font-size="10.00">::transfer</text>
</a>
</g>
</g>
<!-- Node1&#45;&gt;Node5 -->
<g id="edge4" class="edge"><title>Node1&#45;&gt;Node5</title>
<path fill="none" stroke="midnightblue" d="M39.1329,-61.1195C47.5769,-57.9017 57.2098,-54.2585 66,-51 74.3327,-47.9111 83.1501,-44.6819 91.8048,-41.5346"/>
<polygon fill="midnightblue" stroke="midnightblue" points="37.6503,-57.9391 29.5592,-64.7791 40.1498,-64.4777 37.6503,-57.9391"/>
</g>
<!-- Node3 -->
<g id="node3" class="node"><title>Node3</title>
<g id="a_node3"><a xlink:href="$classAP__HAL__FLYMAPLE__NS_1_1FLYMAPLESPIDeviceManager.html#a92557abcfd9713a2572d86bdcf2ee02e" xlink:title="AP_HAL_FLYMAPLE_NS\l::FLYMAPLESPIDeviceManager\l::device">
<polygon fill="white" stroke="black" points="270.5,-93.5 270.5,-134.5 429.5,-134.5 429.5,-93.5 270.5,-93.5"/>
<text text-anchor="start" x="278.5" y="-122.5" font-family="Helvetica,sans-Serif" font-size="10.00">AP_HAL_FLYMAPLE_NS</text>
<text text-anchor="start" x="278.5" y="-111.5" font-family="Helvetica,sans-Serif" font-size="10.00">::FLYMAPLESPIDeviceManager</text>
<text text-anchor="middle" x="350" y="-100.5" font-family="Helvetica,sans-Serif" font-size="10.00">::device</text>
</a>
</g>
</g>
<!-- Node2&#45;&gt;Node3 -->
<g id="edge2" class="edge"><title>Node2&#45;&gt;Node3</title>
<path fill="none" stroke="midnightblue" d="M243.607,-114C252.568,-114 261.599,-114 270.405,-114"/>
<polygon fill="midnightblue" stroke="midnightblue" points="243.536,-110.5 233.536,-114 243.536,-117.5 243.536,-110.5"/>
</g>
<!-- Node6 -->
<g id="node6" class="node"><title>Node6</title>
<g id="a_node6"><a xlink:href="$classAP__HAL__FLYMAPLE__NS_1_1FLYMAPLESPIDeviceDriver.html#aeaaff83f252cb6dd062dc2749b6d48a2" xlink:title="AP_HAL_FLYMAPLE_NS\l::FLYMAPLESPIDeviceDriver\l::transaction">
<polygon fill="white" stroke="black" points="276,-0.5 276,-41.5 424,-41.5 424,-0.5 276,-0.5"/>
<text text-anchor="start" x="284" y="-29.5" font-family="Helvetica,sans-Serif" font-size="10.00">AP_HAL_FLYMAPLE_NS</text>
<text text-anchor="start" x="284" y="-18.5" font-family="Helvetica,sans-Serif" font-size="10.00">::FLYMAPLESPIDeviceDriver</text>
<text text-anchor="middle" x="350" y="-7.5" font-family="Helvetica,sans-Serif" font-size="10.00">::transaction</text>
</a>
</g>
</g>
<!-- Node5&#45;&gt;Node6 -->
<g id="edge5" class="edge"><title>Node5&#45;&gt;Node6</title>
<path fill="none" stroke="midnightblue" d="M234.551,-21C248.259,-21 262.373,-21 275.805,-21"/>
<polygon fill="midnightblue" stroke="midnightblue" points="234.165,-17.5001 224.165,-21 234.165,-24.5001 234.165,-17.5001"/>
</g>
</g>
</svg>
