<?xml version="1.0" encoding="UTF-8" standalone="no"?>
<!DOCTYPE svg PUBLIC "-//W3C//DTD SVG 1.1//EN"
 "http://www.w3.org/Graphics/SVG/1.1/DTD/svg11.dtd">
<!-- Generated by graphviz version 2.36.0 (20140111.2315)
 -->
<!-- Title: libraries/AP_HAL_VRBRAIN/AP_HAL_VRBRAIN_Main.h Pages: 1 -->
<svg width="2330pt" height="264pt"
 viewBox="0.00 0.00 2330.00 264.00" xmlns="http://www.w3.org/2000/svg" xmlns:xlink="http://www.w3.org/1999/xlink">
<g id="graph0" class="graph" transform="scale(1 1) rotate(0) translate(4 260)">
<title>libraries/AP_HAL_VRBRAIN/AP_HAL_VRBRAIN_Main.h</title>
<polygon fill="white" stroke="none" points="-4,4 -4,-260 2326,-260 2326,4 -4,4"/>
<!-- Node1 -->
<g id="node1" class="node"><title>Node1</title>
<polygon fill="#bfbfbf" stroke="black" points="471.5,-225 471.5,-255 614.5,-255 614.5,-225 471.5,-225"/>
<text text-anchor="start" x="479.5" y="-243" font-family="Helvetica,sans-Serif" font-size="10.00">libraries/AP_HAL_VRBRAIN</text>
<text text-anchor="middle" x="543" y="-232" font-family="Helvetica,sans-Serif" font-size="10.00">/AP_HAL_VRBRAIN_Main.h</text>
</g>
<!-- Node2 -->
<g id="node2" class="node"><title>Node2</title>
<g id="a_node2"><a xlink:href="$AP__HAL__VRBRAIN_8h.html" xlink:title="libraries/AP_HAL_VRBRAIN\l/AP_HAL_VRBRAIN.h">
<polygon fill="white" stroke="black" points="471.5,-157 471.5,-187 614.5,-187 614.5,-157 471.5,-157"/>
<text text-anchor="start" x="479.5" y="-175" font-family="Helvetica,sans-Serif" font-size="10.00">libraries/AP_HAL_VRBRAIN</text>
<text text-anchor="middle" x="543" y="-164" font-family="Helvetica,sans-Serif" font-size="10.00">/AP_HAL_VRBRAIN.h</text>
</a>
</g>
</g>
<!-- Node1&#45;&gt;Node2 -->
<g id="edge1" class="edge"><title>Node1&#45;&gt;Node2</title>
<path fill="none" stroke="midnightblue" d="M543,-214.532C543,-205.361 543,-195.245 543,-187.293"/>
<polygon fill="midnightblue" stroke="midnightblue" points="539.5,-214.679 543,-224.679 546.5,-214.679 539.5,-214.679"/>
</g>
<!-- Node3 -->
<g id="node3" class="node"><title>Node3</title>
<g id="a_node3"><a xlink:href="$AP__Compass__test_8pde.html" xlink:title="libraries/AP_Compass\l/examples/AP_Compass\l_test/AP_Compass_test.pde">
<polygon fill="white" stroke="black" points="-0.5,-78.5 -0.5,-119.5 142.5,-119.5 142.5,-78.5 -0.5,-78.5"/>
<text text-anchor="start" x="7.5" y="-107.5" font-family="Helvetica,sans-Serif" font-size="10.00">libraries/AP_Compass</text>
<text text-anchor="start" x="7.5" y="-96.5" font-family="Helvetica,sans-Serif" font-size="10.00">/examples/AP_Compass</text>
<text text-anchor="middle" x="71" y="-85.5" font-family="Helvetica,sans-Serif" font-size="10.00">_test/AP_Compass_test.pde</text>
</a>
</g>
</g>
<!-- Node2&#45;&gt;Node3 -->
<g id="edge2" class="edge"><title>Node2&#45;&gt;Node3</title>
<path fill="none" stroke="midnightblue" d="M461.472,-163.171C381.879,-154.874 257.535,-140.177 151,-120 148.327,-119.494 145.611,-118.953 142.872,-118.384"/>
<polygon fill="midnightblue" stroke="midnightblue" points="461.128,-166.653 471.434,-164.2 461.847,-159.691 461.128,-166.653"/>
</g>
<!-- Node4 -->
<g id="node4" class="node"><title>Node4</title>
<g id="a_node4"><a xlink:href="$VRBRAIN_2AnalogIn_8h.html" xlink:title="libraries/AP_HAL_VRBRAIN\l/AnalogIn.h">
<polygon fill="white" stroke="black" points="521.5,-84 521.5,-114 664.5,-114 664.5,-84 521.5,-84"/>
<text text-anchor="start" x="529.5" y="-102" font-family="Helvetica,sans-Serif" font-size="10.00">libraries/AP_HAL_VRBRAIN</text>
<text text-anchor="middle" x="593" y="-91" font-family="Helvetica,sans-Serif" font-size="10.00">/AnalogIn.h</text>
</a>
</g>
</g>
<!-- Node2&#45;&gt;Node4 -->
<g id="edge3" class="edge"><title>Node2&#45;&gt;Node4</title>
<path fill="none" stroke="midnightblue" d="M558.798,-148.566C566.645,-137.424 575.897,-124.286 582.799,-114.486"/>
<polygon fill="midnightblue" stroke="midnightblue" points="555.775,-146.781 552.878,-156.973 561.498,-150.812 555.775,-146.781"/>
</g>
<!-- Node6 -->
<g id="node6" class="node"><title>Node6</title>
<g id="a_node6"><a xlink:href="$HAL__VRBRAIN__Class_8cpp.html" xlink:title="libraries/AP_HAL_VRBRAIN\l/HAL_VRBRAIN_Class.cpp">
<polygon fill="white" stroke="black" points="360.5,-6 360.5,-36 503.5,-36 503.5,-6 360.5,-6"/>
<text text-anchor="start" x="368.5" y="-24" font-family="Helvetica,sans-Serif" font-size="10.00">libraries/AP_HAL_VRBRAIN</text>
<text text-anchor="middle" x="432" y="-13" font-family="Helvetica,sans-Serif" font-size="10.00">/HAL_VRBRAIN_Class.cpp</text>
</a>
</g>
</g>
<!-- Node2&#45;&gt;Node6 -->
<g id="edge13" class="edge"><title>Node2&#45;&gt;Node6</title>
<path fill="none" stroke="midnightblue" d="M526.549,-148.917C503.398,-117.841 461.874,-62.101 442.496,-36.0889"/>
<polygon fill="midnightblue" stroke="midnightblue" points="523.776,-151.054 532.557,-156.982 529.39,-146.872 523.776,-151.054"/>
</g>
<!-- Node7 -->
<g id="node7" class="node"><title>Node7</title>
<g id="a_node7"><a xlink:href="$AP__HAL__VRBRAIN_2Scheduler_8cpp.html" xlink:title="libraries/AP_HAL_VRBRAIN\l/Scheduler.cpp">
<polygon fill="white" stroke="black" points="843.5,-6 843.5,-36 986.5,-36 986.5,-6 843.5,-6"/>
<text text-anchor="start" x="851.5" y="-24" font-family="Helvetica,sans-Serif" font-size="10.00">libraries/AP_HAL_VRBRAIN</text>
<text text-anchor="middle" x="915" y="-13" font-family="Helvetica,sans-Serif" font-size="10.00">/Scheduler.cpp</text>
</a>
</g>
</g>
<!-- Node2&#45;&gt;Node7 -->
<g id="edge32" class="edge"><title>Node2&#45;&gt;Node7</title>
<path fill="none" stroke="midnightblue" d="M624.745,-167.578C748.288,-161.557 970.818,-147.064 995,-120 1007.44,-106.08 1003.62,-94.5569 995,-78 985.213,-59.2032 965.91,-45.4112 948.718,-36.218"/>
<polygon fill="midnightblue" stroke="midnightblue" points="624.388,-164.091 614.567,-168.066 624.723,-171.083 624.388,-164.091"/>
</g>
<!-- Node8 -->
<g id="node8" class="node"><title>Node8</title>
<g id="a_node8"><a xlink:href="$HAL__VRBRAIN__Class_8h.html" xlink:title="libraries/AP_HAL_VRBRAIN\l/HAL_VRBRAIN_Class.h">
<polygon fill="white" stroke="black" points="321.5,-84 321.5,-114 464.5,-114 464.5,-84 321.5,-84"/>
<text text-anchor="start" x="329.5" y="-102" font-family="Helvetica,sans-Serif" font-size="10.00">libraries/AP_HAL_VRBRAIN</text>
<text text-anchor="middle" x="393" y="-91" font-family="Helvetica,sans-Serif" font-size="10.00">/HAL_VRBRAIN_Class.h</text>
</a>
</g>
</g>
<!-- Node2&#45;&gt;Node8 -->
<g id="edge7" class="edge"><title>Node2&#45;&gt;Node8</title>
<path fill="none" stroke="midnightblue" d="M498.414,-152.73C471.951,-140.749 439.489,-125.312 417.555,-114.241"/>
<polygon fill="midnightblue" stroke="midnightblue" points="497.305,-156.068 507.861,-156.973 500.173,-149.683 497.305,-156.068"/>
</g>
<!-- Node9 -->
<g id="node9" class="node"><title>Node9</title>
<g id="a_node9"><a xlink:href="$VRBRAIN_2GPIO_8h.html" xlink:title="libraries/AP_HAL_VRBRAIN\l/GPIO.h">
<polygon fill="white" stroke="black" points="160.5,-84 160.5,-114 303.5,-114 303.5,-84 160.5,-84"/>
<text text-anchor="start" x="168.5" y="-102" font-family="Helvetica,sans-Serif" font-size="10.00">libraries/AP_HAL_VRBRAIN</text>
<text text-anchor="middle" x="232" y="-91" font-family="Helvetica,sans-Serif" font-size="10.00">/GPIO.h</text>
</a>
</g>
</g>
<!-- Node2&#45;&gt;Node9 -->
<g id="edge10" class="edge"><title>Node2&#45;&gt;Node9</title>
<path fill="none" stroke="midnightblue" d="M467.168,-154.811C422.029,-145.037 363.662,-132.158 312,-120 304.057,-118.131 295.685,-116.102 287.468,-114.078"/>
<polygon fill="midnightblue" stroke="midnightblue" points="466.66,-158.282 477.173,-156.974 468.139,-151.44 466.66,-158.282"/>
</g>
<!-- Node11 -->
<g id="node11" class="node"><title>Node11</title>
<g id="a_node11"><a xlink:href="$VRBRAIN_2UARTDriver_8h.html" xlink:title="libraries/AP_HAL_VRBRAIN\l/UARTDriver.h">
<polygon fill="white" stroke="black" points="1401.5,-84 1401.5,-114 1544.5,-114 1544.5,-84 1401.5,-84"/>
<text text-anchor="start" x="1409.5" y="-102" font-family="Helvetica,sans-Serif" font-size="10.00">libraries/AP_HAL_VRBRAIN</text>
<text text-anchor="middle" x="1473" y="-91" font-family="Helvetica,sans-Serif" font-size="10.00">/UARTDriver.h</text>
</a>
</g>
</g>
<!-- Node2&#45;&gt;Node11 -->
<g id="edge14" class="edge"><title>Node2&#45;&gt;Node11</title>
<path fill="none" stroke="midnightblue" d="M625.009,-164.739C804.882,-151.007 1231.52,-118.435 1401.4,-105.466"/>
<polygon fill="midnightblue" stroke="midnightblue" points="624.521,-161.266 614.816,-165.517 625.054,-168.246 624.521,-161.266"/>
</g>
<!-- Node19 -->
<g id="node19" class="node"><title>Node19</title>
<g id="a_node19"><a xlink:href="$VRBRAIN_2RCInput_8h.html" xlink:title="libraries/AP_HAL_VRBRAIN\l/RCInput.h">
<polygon fill="white" stroke="black" points="682.5,-84 682.5,-114 825.5,-114 825.5,-84 682.5,-84"/>
<text text-anchor="start" x="690.5" y="-102" font-family="Helvetica,sans-Serif" font-size="10.00">libraries/AP_HAL_VRBRAIN</text>
<text text-anchor="middle" x="754" y="-91" font-family="Helvetica,sans-Serif" font-size="10.00">/RCInput.h</text>
</a>
</g>
</g>
<!-- Node2&#45;&gt;Node19 -->
<g id="edge24" class="edge"><title>Node2&#45;&gt;Node19</title>
<path fill="none" stroke="midnightblue" d="M594.541,-153.657C630.636,-141.511 678.262,-125.485 712.039,-114.12"/>
<polygon fill="midnightblue" stroke="midnightblue" points="593.048,-150.466 584.687,-156.973 595.281,-157.101 593.048,-150.466"/>
</g>
<!-- Node21 -->
<g id="node21" class="node"><title>Node21</title>
<g id="a_node21"><a xlink:href="$VRBRAIN_2RCOutput_8h.html" xlink:title="libraries/AP_HAL_VRBRAIN\l/RCOutput.h">
<polygon fill="white" stroke="black" points="843.5,-84 843.5,-114 986.5,-114 986.5,-84 843.5,-84"/>
<text text-anchor="start" x="851.5" y="-102" font-family="Helvetica,sans-Serif" font-size="10.00">libraries/AP_HAL_VRBRAIN</text>
<text text-anchor="middle" x="915" y="-91" font-family="Helvetica,sans-Serif" font-size="10.00">/RCOutput.h</text>
</a>
</g>
</g>
<!-- Node2&#45;&gt;Node21 -->
<g id="edge28" class="edge"><title>Node2&#45;&gt;Node21</title>
<path fill="none" stroke="midnightblue" d="M624.641,-158.229C683.131,-148.705 763.666,-134.828 834,-120 842.504,-118.207 851.471,-116.156 860.217,-114.066"/>
<polygon fill="midnightblue" stroke="midnightblue" points="624.029,-154.782 614.717,-159.837 625.149,-161.692 624.029,-154.782"/>
</g>
<!-- Node5 -->
<g id="node5" class="node"><title>Node5</title>
<g id="a_node5"><a xlink:href="$AP__HAL__VRBRAIN_2AnalogIn_8cpp.html" xlink:title="libraries/AP_HAL_VRBRAIN\l/AnalogIn.cpp">
<polygon fill="white" stroke="black" points="521.5,-6 521.5,-36 664.5,-36 664.5,-6 521.5,-6"/>
<text text-anchor="start" x="529.5" y="-24" font-family="Helvetica,sans-Serif" font-size="10.00">libraries/AP_HAL_VRBRAIN</text>
<text text-anchor="middle" x="593" y="-13" font-family="Helvetica,sans-Serif" font-size="10.00">/AnalogIn.cpp</text>
</a>
</g>
</g>
<!-- Node4&#45;&gt;Node5 -->
<g id="edge4" class="edge"><title>Node4&#45;&gt;Node5</title>
<path fill="none" stroke="midnightblue" d="M593,-73.5898C593,-61.2565 593,-46.7237 593,-36.2309"/>
<polygon fill="midnightblue" stroke="midnightblue" points="589.5,-73.7049 593,-83.705 596.5,-73.705 589.5,-73.7049"/>
</g>
<!-- Node4&#45;&gt;Node6 -->
<g id="edge5" class="edge"><title>Node4&#45;&gt;Node6</title>
<path fill="none" stroke="midnightblue" d="M553.861,-79.5244C525.478,-66.1265 487.678,-48.2827 461.745,-36.0413"/>
<polygon fill="midnightblue" stroke="midnightblue" points="552.557,-82.7793 563.094,-83.8831 555.545,-76.4492 552.557,-82.7793"/>
</g>
<!-- Node4&#45;&gt;Node7 -->
<g id="edge6" class="edge"><title>Node4&#45;&gt;Node7</title>
<path fill="none" stroke="midnightblue" d="M658.523,-81.4782C663.419,-80.287 668.285,-79.1163 673,-78 744.35,-61.107 762.626,-58.7893 834,-42 842.037,-40.1095 850.511,-38.0693 858.828,-36.0399"/>
<polygon fill="midnightblue" stroke="midnightblue" points="657.352,-78.1615 648.473,-83.9412 659.019,-84.9603 657.352,-78.1615"/>
</g>
<!-- Node8&#45;&gt;Node2 -->
<g id="edge8" class="edge"><title>Node8&#45;&gt;Node2</title>
<path fill="none" stroke="midnightblue" d="M437.49,-118.227C464.141,-130.291 496.904,-145.874 518.869,-156.973"/>
<polygon fill="midnightblue" stroke="midnightblue" points="438.902,-115.024 428.346,-114.12 436.034,-121.41 438.902,-115.024"/>
</g>
<!-- Node8&#45;&gt;Node6 -->
<g id="edge9" class="edge"><title>Node8&#45;&gt;Node6</title>
<path fill="none" stroke="midnightblue" d="M404.954,-74.7047C411.401,-62.141 419.15,-47.0416 424.697,-36.2309"/>
<polygon fill="midnightblue" stroke="midnightblue" points="401.787,-73.2101 400.336,-83.705 408.015,-76.406 401.787,-73.2101"/>
</g>
<!-- Node9&#45;&gt;Node6 -->
<g id="edge12" class="edge"><title>Node9&#45;&gt;Node6</title>
<path fill="none" stroke="midnightblue" d="M278.791,-80.2193C314.24,-66.7488 362.275,-48.4956 395.049,-36.0413"/>
<polygon fill="midnightblue" stroke="midnightblue" points="277.254,-77.0591 269.15,-83.8831 279.741,-83.6026 277.254,-77.0591"/>
</g>
<!-- Node10 -->
<g id="node10" class="node"><title>Node10</title>
<g id="a_node10"><a xlink:href="$AP__HAL__VRBRAIN_2GPIO_8cpp.html" xlink:title="libraries/AP_HAL_VRBRAIN\l/GPIO.cpp">
<polygon fill="white" stroke="black" points="160.5,-6 160.5,-36 303.5,-36 303.5,-6 160.5,-6"/>
<text text-anchor="start" x="168.5" y="-24" font-family="Helvetica,sans-Serif" font-size="10.00">libraries/AP_HAL_VRBRAIN</text>
<text text-anchor="middle" x="232" y="-13" font-family="Helvetica,sans-Serif" font-size="10.00">/GPIO.cpp</text>
</a>
</g>
</g>
<!-- Node9&#45;&gt;Node10 -->
<g id="edge11" class="edge"><title>Node9&#45;&gt;Node10</title>
<path fill="none" stroke="midnightblue" d="M232,-73.5898C232,-61.2565 232,-46.7237 232,-36.2309"/>
<polygon fill="midnightblue" stroke="midnightblue" points="228.5,-73.7049 232,-83.705 235.5,-73.705 228.5,-73.7049"/>
</g>
<!-- Node11&#45;&gt;Node6 -->
<g id="edge19" class="edge"><title>Node11&#45;&gt;Node6</title>
<path fill="none" stroke="midnightblue" d="M1391.3,-94.1164C1174.91,-83.7061 597.632,-55.0816 512,-42 502.235,-40.5083 491.922,-38.3677 482.066,-36.0365"/>
<polygon fill="midnightblue" stroke="midnightblue" points="1391.17,-97.6142 1401.33,-94.5982 1391.51,-90.6222 1391.17,-97.6142"/>
</g>
<!-- Node11&#45;&gt;Node7 -->
<g id="edge20" class="edge"><title>Node11&#45;&gt;Node7</title>
<path fill="none" stroke="midnightblue" d="M1391.13,-91.6284C1295.56,-83.4477 1132.99,-67.2234 995,-42 985.987,-40.3524 976.48,-38.2786 967.29,-36.0947"/>
<polygon fill="midnightblue" stroke="midnightblue" points="1391.05,-95.1337 1401.31,-92.4906 1391.64,-88.1587 1391.05,-95.1337"/>
</g>
<!-- Node12 -->
<g id="node12" class="node"><title>Node12</title>
<g id="a_node12"><a xlink:href="$examples_2RCInput_2RCInput_8pde.html" xlink:title="libraries/AP_HAL/examples\l/RCInput/RCInput.pde">
<polygon fill="white" stroke="black" points="1626.5,-6 1626.5,-36 1763.5,-36 1763.5,-6 1626.5,-6"/>
<text text-anchor="start" x="1634.5" y="-24" font-family="Helvetica,sans-Serif" font-size="10.00">libraries/AP_HAL/examples</text>
<text text-anchor="middle" x="1695" y="-13" font-family="Helvetica,sans-Serif" font-size="10.00">/RCInput/RCInput.pde</text>
</a>
</g>
</g>
<!-- Node11&#45;&gt;Node12 -->
<g id="edge15" class="edge"><title>Node11&#45;&gt;Node12</title>
<path fill="none" stroke="midnightblue" d="M1523.67,-80.6543C1563.1,-67.156 1617.12,-48.6631 1653.89,-36.0749"/>
<polygon fill="midnightblue" stroke="midnightblue" points="1522.3,-77.4216 1513.98,-83.9719 1524.57,-84.0442 1522.3,-77.4216"/>
</g>
<!-- Node13 -->
<g id="node13" class="node"><title>Node13</title>
<g id="a_node13"><a xlink:href="$RCInputToRCOutput_8pde.html" xlink:title="libraries/AP_HAL/examples\l/RCInputToRCOutput/RCInputToRCOutput.pde">
<polygon fill="white" stroke="black" points="1782,-6 1782,-36 2008,-36 2008,-6 1782,-6"/>
<text text-anchor="start" x="1790" y="-24" font-family="Helvetica,sans-Serif" font-size="10.00">libraries/AP_HAL/examples</text>
<text text-anchor="middle" x="1895" y="-13" font-family="Helvetica,sans-Serif" font-size="10.00">/RCInputToRCOutput/RCInputToRCOutput.pde</text>
</a>
</g>
</g>
<!-- Node11&#45;&gt;Node13 -->
<g id="edge16" class="edge"><title>Node11&#45;&gt;Node13</title>
<path fill="none" stroke="midnightblue" d="M1554.56,-83.3106C1630.32,-69.6667 1742.36,-49.4895 1816.97,-36.0534"/>
<polygon fill="midnightblue" stroke="midnightblue" points="1553.81,-79.8905 1544.59,-85.1076 1555.05,-86.7797 1553.81,-79.8905"/>
</g>
<!-- Node14 -->
<g id="node14" class="node"><title>Node14</title>
<g id="a_node14"><a xlink:href="$RCOutput_8pde.html" xlink:title="libraries/AP_HAL/examples\l/RCOutput/RCOutput.pde">
<polygon fill="white" stroke="black" points="2026.5,-6 2026.5,-36 2163.5,-36 2163.5,-6 2026.5,-6"/>
<text text-anchor="start" x="2034.5" y="-24" font-family="Helvetica,sans-Serif" font-size="10.00">libraries/AP_HAL/examples</text>
<text text-anchor="middle" x="2095" y="-13" font-family="Helvetica,sans-Serif" font-size="10.00">/RCOutput/RCOutput.pde</text>
</a>
</g>
</g>
<!-- Node11&#45;&gt;Node14 -->
<g id="edge17" class="edge"><title>Node11&#45;&gt;Node14</title>
<path fill="none" stroke="midnightblue" d="M1554.83,-93.3739C1661.75,-86.4641 1854.48,-71.0361 2017,-42 2026.08,-40.3773 2035.67,-38.262 2044.89,-36.0158"/>
<polygon fill="midnightblue" stroke="midnightblue" points="1554.51,-89.8869 1544.76,-94.0161 1554.96,-96.8727 1554.51,-89.8869"/>
</g>
<!-- Node15 -->
<g id="node15" class="node"><title>Node15</title>
<g id="a_node15"><a xlink:href="$UART__test_8pde.html" xlink:title="libraries/AP_HAL/examples\l/UART_test/UART_test.pde">
<polygon fill="white" stroke="black" points="2182,-6 2182,-36 2322,-36 2322,-6 2182,-6"/>
<text text-anchor="start" x="2190" y="-24" font-family="Helvetica,sans-Serif" font-size="10.00">libraries/AP_HAL/examples</text>
<text text-anchor="middle" x="2252" y="-13" font-family="Helvetica,sans-Serif" font-size="10.00">/UART_test/UART_test.pde</text>
</a>
</g>
</g>
<!-- Node11&#45;&gt;Node15 -->
<g id="edge18" class="edge"><title>Node11&#45;&gt;Node15</title>
<path fill="none" stroke="midnightblue" d="M1555.02,-95.8109C1686.15,-91.3302 1950.78,-78.2598 2172,-42 2181.47,-40.4485 2191.46,-38.3392 2201.05,-36.0703"/>
<polygon fill="midnightblue" stroke="midnightblue" points="1554.54,-92.3248 1544.66,-96.1563 1554.78,-99.3209 1554.54,-92.3248"/>
</g>
<!-- Node16 -->
<g id="node16" class="node"><title>Node16</title>
<g id="a_node16"><a xlink:href="$VRBRAIN_2UARTDriver_8cpp.html" xlink:title="libraries/AP_HAL_VRBRAIN\l/UARTDriver.cpp">
<polygon fill="white" stroke="black" points="1165.5,-6 1165.5,-36 1308.5,-36 1308.5,-6 1165.5,-6"/>
<text text-anchor="start" x="1173.5" y="-24" font-family="Helvetica,sans-Serif" font-size="10.00">libraries/AP_HAL_VRBRAIN</text>
<text text-anchor="middle" x="1237" y="-13" font-family="Helvetica,sans-Serif" font-size="10.00">/UARTDriver.cpp</text>
</a>
</g>
</g>
<!-- Node11&#45;&gt;Node16 -->
<g id="edge21" class="edge"><title>Node11&#45;&gt;Node16</title>
<path fill="none" stroke="midnightblue" d="M1419.67,-80.8256C1377.71,-67.3128 1319.96,-48.7164 1280.71,-36.0749"/>
<polygon fill="midnightblue" stroke="midnightblue" points="1418.85,-84.238 1429.44,-83.9719 1420.99,-77.575 1418.85,-84.238"/>
</g>
<!-- Node17 -->
<g id="node17" class="node"><title>Node17</title>
<g id="a_node17"><a xlink:href="$VRBRAIN_2Util_8cpp.html" xlink:title="libraries/AP_HAL_VRBRAIN\l/Util.cpp">
<polygon fill="white" stroke="black" points="1326.5,-6 1326.5,-36 1469.5,-36 1469.5,-6 1326.5,-6"/>
<text text-anchor="start" x="1334.5" y="-24" font-family="Helvetica,sans-Serif" font-size="10.00">libraries/AP_HAL_VRBRAIN</text>
<text text-anchor="middle" x="1398" y="-13" font-family="Helvetica,sans-Serif" font-size="10.00">/Util.cpp</text>
</a>
</g>
</g>
<!-- Node11&#45;&gt;Node17 -->
<g id="edge22" class="edge"><title>Node11&#45;&gt;Node17</title>
<path fill="none" stroke="midnightblue" d="M1451.82,-76.5332C1439.08,-63.6316 1423.24,-47.5716 1412.04,-36.2309"/>
<polygon fill="midnightblue" stroke="midnightblue" points="1449.38,-79.0457 1458.89,-83.705 1454.36,-74.1288 1449.38,-79.0457"/>
</g>
<!-- Node18 -->
<g id="node18" class="node"><title>Node18</title>
<g id="a_node18"><a xlink:href="$RC__Channel_8pde.html" xlink:title="libraries/RC_Channel\l/examples/RC_Channel\l/RC_Channel.pde">
<polygon fill="white" stroke="black" points="1487.5,-0.5 1487.5,-41.5 1608.5,-41.5 1608.5,-0.5 1487.5,-0.5"/>
<text text-anchor="start" x="1495.5" y="-29.5" font-family="Helvetica,sans-Serif" font-size="10.00">libraries/RC_Channel</text>
<text text-anchor="start" x="1495.5" y="-18.5" font-family="Helvetica,sans-Serif" font-size="10.00">/examples/RC_Channel</text>
<text text-anchor="middle" x="1548" y="-7.5" font-family="Helvetica,sans-Serif" font-size="10.00">/RC_Channel.pde</text>
</a>
</g>
</g>
<!-- Node11&#45;&gt;Node18 -->
<g id="edge23" class="edge"><title>Node11&#45;&gt;Node18</title>
<path fill="none" stroke="midnightblue" d="M1494.17,-76.547C1504.98,-65.5963 1518.03,-52.3674 1528.58,-41.68"/>
<polygon fill="midnightblue" stroke="midnightblue" points="1491.64,-74.1288 1487.11,-83.705 1496.62,-79.0457 1491.64,-74.1288"/>
</g>
<!-- Node19&#45;&gt;Node6 -->
<g id="edge25" class="edge"><title>Node19&#45;&gt;Node6</title>
<path fill="none" stroke="midnightblue" d="M688.045,-81.5865C682.957,-80.3596 677.898,-79.152 673,-78 601.626,-61.2107 583.35,-58.893 512,-42 504.059,-40.1199 495.689,-38.0856 487.473,-36.0588"/>
<polygon fill="midnightblue" stroke="midnightblue" points="687.285,-85.0036 697.828,-83.9601 688.935,-78.2009 687.285,-85.0036"/>
</g>
<!-- Node19&#45;&gt;Node7 -->
<g id="edge27" class="edge"><title>Node19&#45;&gt;Node7</title>
<path fill="none" stroke="midnightblue" d="M793.139,-79.5244C821.522,-66.1265 859.322,-48.2827 885.255,-36.0413"/>
<polygon fill="midnightblue" stroke="midnightblue" points="791.455,-76.4492 783.906,-83.8831 794.443,-82.7793 791.455,-76.4492"/>
</g>
<!-- Node20 -->
<g id="node20" class="node"><title>Node20</title>
<g id="a_node20"><a xlink:href="$AP__HAL__VRBRAIN_2RCInput_8cpp.html" xlink:title="libraries/AP_HAL_VRBRAIN\l/RCInput.cpp">
<polygon fill="white" stroke="black" points="682.5,-6 682.5,-36 825.5,-36 825.5,-6 682.5,-6"/>
<text text-anchor="start" x="690.5" y="-24" font-family="Helvetica,sans-Serif" font-size="10.00">libraries/AP_HAL_VRBRAIN</text>
<text text-anchor="middle" x="754" y="-13" font-family="Helvetica,sans-Serif" font-size="10.00">/RCInput.cpp</text>
</a>
</g>
</g>
<!-- Node19&#45;&gt;Node20 -->
<g id="edge26" class="edge"><title>Node19&#45;&gt;Node20</title>
<path fill="none" stroke="midnightblue" d="M754,-73.5898C754,-61.2565 754,-46.7237 754,-36.2309"/>
<polygon fill="midnightblue" stroke="midnightblue" points="750.5,-73.7049 754,-83.705 757.5,-73.705 750.5,-73.7049"/>
</g>
<!-- Node21&#45;&gt;Node6 -->
<g id="edge29" class="edge"><title>Node21&#45;&gt;Node6</title>
<path fill="none" stroke="midnightblue" d="M852.67,-81.7438C846.387,-80.3656 840.082,-79.0861 834,-78 692.24,-52.6862 653.723,-67.5198 512,-42 502.842,-40.3509 493.177,-38.2498 483.853,-36.0327"/>
<polygon fill="midnightblue" stroke="midnightblue" points="851.965,-85.1727 862.492,-83.9772 853.517,-78.347 851.965,-85.1727"/>
</g>
<!-- Node21&#45;&gt;Node7 -->
<g id="edge31" class="edge"><title>Node21&#45;&gt;Node7</title>
<path fill="none" stroke="midnightblue" d="M915,-73.5898C915,-61.2565 915,-46.7237 915,-36.2309"/>
<polygon fill="midnightblue" stroke="midnightblue" points="911.5,-73.7049 915,-83.705 918.5,-73.705 911.5,-73.7049"/>
</g>
<!-- Node22 -->
<g id="node22" class="node"><title>Node22</title>
<g id="a_node22"><a xlink:href="$AP__HAL__VRBRAIN_2RCOutput_8cpp.html" xlink:title="libraries/AP_HAL_VRBRAIN\l/RCOutput.cpp">
<polygon fill="white" stroke="black" points="1004.5,-6 1004.5,-36 1147.5,-36 1147.5,-6 1004.5,-6"/>
<text text-anchor="start" x="1012.5" y="-24" font-family="Helvetica,sans-Serif" font-size="10.00">libraries/AP_HAL_VRBRAIN</text>
<text text-anchor="middle" x="1076" y="-13" font-family="Helvetica,sans-Serif" font-size="10.00">/RCOutput.cpp</text>
</a>
</g>
</g>
<!-- Node21&#45;&gt;Node22 -->
<g id="edge30" class="edge"><title>Node21&#45;&gt;Node22</title>
<path fill="none" stroke="midnightblue" d="M954.139,-79.5244C982.522,-66.1265 1020.32,-48.2827 1046.25,-36.0413"/>
<polygon fill="midnightblue" stroke="midnightblue" points="952.455,-76.4492 944.906,-83.8831 955.443,-82.7793 952.455,-76.4492"/>
</g>
</g>
</svg>
