<?xml version="1.0" encoding="UTF-8" standalone="no"?>
<!DOCTYPE svg PUBLIC "-//W3C//DTD SVG 1.1//EN"
 "http://www.w3.org/Graphics/SVG/1.1/DTD/svg11.dtd">
<!-- Generated by graphviz version 2.36.0 (20140111.2315)
 -->
<!-- Title: libraries/AP_Airspeed/AP_Airspeed_I2C.h Pages: 1 -->
<svg width="1387pt" height="544pt"
 viewBox="0.00 0.00 1387.00 544.00" xmlns="http://www.w3.org/2000/svg" xmlns:xlink="http://www.w3.org/1999/xlink">
<g id="graph0" class="graph" transform="scale(1 1) rotate(0) translate(4 540)">
<title>libraries/AP_Airspeed/AP_Airspeed_I2C.h</title>
<polygon fill="white" stroke="none" points="-4,4 -4,-540 1383,-540 1383,4 -4,4"/>
<!-- Node1 -->
<g id="node1" class="node"><title>Node1</title>
<polygon fill="#bfbfbf" stroke="black" points="699,-505 699,-535 809,-535 809,-505 699,-505"/>
<text text-anchor="start" x="707" y="-523" font-family="Helvetica,sans-Serif" font-size="10.00">libraries/AP_Airspeed</text>
<text text-anchor="middle" x="754" y="-512" font-family="Helvetica,sans-Serif" font-size="10.00">/AP_Airspeed_I2C.h</text>
</g>
<!-- Node2 -->
<g id="node2" class="node"><title>Node2</title>
<g id="a_node2"><a xlink:href="$AP__HAL_8h.html" xlink:title="AP_HAL.h">
<polygon fill="white" stroke="black" points="677.5,-392.5 677.5,-411.5 740.5,-411.5 740.5,-392.5 677.5,-392.5"/>
<text text-anchor="middle" x="709" y="-399.5" font-family="Helvetica,sans-Serif" font-size="10.00">AP_HAL.h</text>
</a>
</g>
</g>
<!-- Node1&#45;&gt;Node2 -->
<g id="edge1" class="edge"><title>Node1&#45;&gt;Node2</title>
<path fill="none" stroke="midnightblue" d="M745.746,-504.607C740.221,-494.571 733.061,-480.747 728,-468 721.899,-452.633 716.768,-434.535 713.382,-421.344"/>
<polygon fill="midnightblue" stroke="midnightblue" points="716.766,-420.45 710.965,-411.584 709.971,-422.132 716.766,-420.45"/>
</g>
<!-- Node29 -->
<g id="node29" class="node"><title>Node29</title>
<g id="a_node29"><a xlink:href="$AP__Airspeed__Backend_8h.html" xlink:title="AP_Airspeed_Backend.h">
<polygon fill="white" stroke="black" points="737.5,-448.5 737.5,-467.5 862.5,-467.5 862.5,-448.5 737.5,-448.5"/>
<text text-anchor="middle" x="800" y="-455.5" font-family="Helvetica,sans-Serif" font-size="10.00">AP_Airspeed_Backend.h</text>
</a>
</g>
</g>
<!-- Node1&#45;&gt;Node29 -->
<g id="edge66" class="edge"><title>Node1&#45;&gt;Node29</title>
<path fill="none" stroke="midnightblue" d="M764.901,-504.781C771.586,-496.062 780.176,-484.857 787.185,-475.715"/>
<polygon fill="midnightblue" stroke="midnightblue" points="790,-477.796 793.307,-467.731 784.445,-473.537 790,-477.796"/>
</g>
<!-- Node3 -->
<g id="node3" class="node"><title>Node3</title>
<polygon fill="white" stroke="#bfbfbf" points="861.5,-56.5 861.5,-75.5 910.5,-75.5 910.5,-56.5 861.5,-56.5"/>
<text text-anchor="middle" x="886" y="-63.5" font-family="Helvetica,sans-Serif" font-size="10.00">stdint.h</text>
</g>
<!-- Node2&#45;&gt;Node3 -->
<g id="edge2" class="edge"><title>Node2&#45;&gt;Node3</title>
<path fill="none" stroke="midnightblue" d="M740.705,-397.39C795.238,-389.229 901,-363.991 901,-291 901,-291 901,-291 901,-233 901,-179.373 893.139,-116.395 888.799,-85.7087"/>
<polygon fill="midnightblue" stroke="midnightblue" points="892.234,-85.0082 887.331,-75.6159 885.306,-86.0154 892.234,-85.0082"/>
</g>
<!-- Node4 -->
<g id="node4" class="node"><title>Node4</title>
<polygon fill="white" stroke="#bfbfbf" points="1191,-336.5 1191,-355.5 1247,-355.5 1247,-336.5 1191,-336.5"/>
<text text-anchor="middle" x="1219" y="-343.5" font-family="Helvetica,sans-Serif" font-size="10.00">stdbool.h</text>
</g>
<!-- Node2&#45;&gt;Node4 -->
<g id="edge3" class="edge"><title>Node2&#45;&gt;Node4</title>
<path fill="none" stroke="midnightblue" d="M740.509,-398.061C812.785,-391.256 996.056,-373.65 1149,-356 1159.32,-354.81 1170.47,-353.421 1180.78,-352.096"/>
<polygon fill="midnightblue" stroke="midnightblue" points="1181.29,-355.56 1190.75,-350.802 1180.38,-348.619 1181.29,-355.56"/>
</g>
<!-- Node5 -->
<g id="node5" class="node"><title>Node5</title>
<g id="a_node5"><a xlink:href="$AP__HAL__Namespace_8h.html" xlink:title="AP_HAL_Namespace.h">
<polygon fill="white" stroke="black" points="416.5,-56.5 416.5,-75.5 537.5,-75.5 537.5,-56.5 416.5,-56.5"/>
<text text-anchor="middle" x="477" y="-63.5" font-family="Helvetica,sans-Serif" font-size="10.00">AP_HAL_Namespace.h</text>
</a>
</g>
</g>
<!-- Node2&#45;&gt;Node5 -->
<g id="edge4" class="edge"><title>Node2&#45;&gt;Node5</title>
<path fill="none" stroke="midnightblue" d="M677.259,-399.746C582.282,-395.739 301.485,-381.955 214,-356 154.723,-338.414 91,-352.831 91,-291 91,-291 91,-291 91,-177 91,-112.215 294.646,-83.5089 406.103,-72.6495"/>
<polygon fill="midnightblue" stroke="midnightblue" points="406.639,-76.1144 416.263,-71.684 405.977,-69.1458 406.639,-76.1144"/>
</g>
<!-- Node8 -->
<g id="node8" class="node"><title>Node8</title>
<g id="a_node8"><a xlink:href="$AP__HAL__Boards_8h.html" xlink:title="AP_HAL_Boards.h">
<polygon fill="white" stroke="black" points="1175.5,-112.5 1175.5,-131.5 1274.5,-131.5 1274.5,-112.5 1175.5,-112.5"/>
<text text-anchor="middle" x="1225" y="-119.5" font-family="Helvetica,sans-Serif" font-size="10.00">AP_HAL_Boards.h</text>
</a>
</g>
</g>
<!-- Node2&#45;&gt;Node8 -->
<g id="edge7" class="edge"><title>Node2&#45;&gt;Node8</title>
<path fill="none" stroke="midnightblue" d="M740.855,-399.672C787.438,-396.695 875.989,-387.069 944,-356 1063.43,-301.441 1173.6,-182.577 1211.27,-139.232"/>
<polygon fill="midnightblue" stroke="midnightblue" points="1213.96,-141.477 1217.82,-131.611 1208.65,-136.914 1213.96,-141.477"/>
</g>
<!-- Node9 -->
<g id="node9" class="node"><title>Node9</title>
<g id="a_node9"><a xlink:href="$AP__HAL__Macros_8h.html" xlink:title="AP_HAL_Macros.h">
<polygon fill="white" stroke="black" points="1005.5,-336.5 1005.5,-355.5 1106.5,-355.5 1106.5,-336.5 1005.5,-336.5"/>
<text text-anchor="middle" x="1056" y="-343.5" font-family="Helvetica,sans-Serif" font-size="10.00">AP_HAL_Macros.h</text>
</a>
</g>
</g>
<!-- Node2&#45;&gt;Node9 -->
<g id="edge8" class="edge"><title>Node2&#45;&gt;Node9</title>
<path fill="none" stroke="midnightblue" d="M740.714,-396.065C798.318,-387.1 921.026,-368.005 995.227,-356.457"/>
<polygon fill="midnightblue" stroke="midnightblue" points="996.021,-359.876 1005.36,-354.88 994.944,-352.959 996.021,-359.876"/>
</g>
<!-- Node10 -->
<g id="node10" class="node"><title>Node10</title>
<g id="a_node10"><a xlink:href="$UARTDriver_8h.html" xlink:title="UARTDriver.h">
<polygon fill="white" stroke="black" points="601.5,-280.5 601.5,-299.5 680.5,-299.5 680.5,-280.5 601.5,-280.5"/>
<text text-anchor="middle" x="641" y="-287.5" font-family="Helvetica,sans-Serif" font-size="10.00">UARTDriver.h</text>
</a>
</g>
</g>
<!-- Node2&#45;&gt;Node10 -->
<g id="edge9" class="edge"><title>Node2&#45;&gt;Node10</title>
<path fill="none" stroke="midnightblue" d="M703.664,-392.368C692.492,-374.296 666.455,-332.176 651.699,-308.307"/>
<polygon fill="midnightblue" stroke="midnightblue" points="654.546,-306.257 646.311,-299.591 648.592,-309.938 654.546,-306.257"/>
</g>
<!-- Node11 -->
<g id="node11" class="node"><title>Node11</title>
<g id="a_node11"><a xlink:href="$BetterStream_8h.html" xlink:title="utility/BetterStream.h">
<polygon fill="white" stroke="black" points="667.5,-224.5 667.5,-243.5 776.5,-243.5 776.5,-224.5 667.5,-224.5"/>
<text text-anchor="middle" x="722" y="-231.5" font-family="Helvetica,sans-Serif" font-size="10.00">utility/BetterStream.h</text>
</a>
</g>
</g>
<!-- Node2&#45;&gt;Node11 -->
<g id="edge56" class="edge"><title>Node2&#45;&gt;Node11</title>
<path fill="none" stroke="midnightblue" d="M712.6,-392.222C716.056,-383.285 721.033,-368.942 723,-356 728.452,-320.124 726.091,-277.574 723.979,-253.689"/>
<polygon fill="midnightblue" stroke="midnightblue" points="727.447,-253.19 722.997,-243.575 720.48,-253.866 727.447,-253.19"/>
</g>
<!-- Node13 -->
<g id="node13" class="node"><title>Node13</title>
<g id="a_node13"><a xlink:href="$Stream_8h.html" xlink:title="Stream.h">
<polygon fill="white" stroke="black" points="629,-168.5 629,-187.5 685,-187.5 685,-168.5 629,-168.5"/>
<text text-anchor="middle" x="657" y="-175.5" font-family="Helvetica,sans-Serif" font-size="10.00">Stream.h</text>
</a>
</g>
</g>
<!-- Node2&#45;&gt;Node13 -->
<g id="edge55" class="edge"><title>Node2&#45;&gt;Node13</title>
<path fill="none" stroke="midnightblue" d="M709.137,-392.32C709.138,-371.774 707.217,-318.961 689,-280 680.057,-260.873 665.5,-263.738 658,-244 652.419,-229.312 652.612,-211.376 653.95,-198.069"/>
<polygon fill="midnightblue" stroke="midnightblue" points="657.471,-198.135 655.304,-187.764 650.531,-197.223 657.471,-198.135"/>
</g>
<!-- Node14 -->
<g id="node14" class="node"><title>Node14</title>
<g id="a_node14"><a xlink:href="$Print_8h.html" xlink:title="Print.h">
<polygon fill="white" stroke="black" points="1112.5,-112.5 1112.5,-131.5 1157.5,-131.5 1157.5,-112.5 1112.5,-112.5"/>
<text text-anchor="middle" x="1135" y="-119.5" font-family="Helvetica,sans-Serif" font-size="10.00">Print.h</text>
</a>
</g>
</g>
<!-- Node2&#45;&gt;Node14 -->
<g id="edge54" class="edge"><title>Node2&#45;&gt;Node14</title>
<path fill="none" stroke="midnightblue" d="M740.514,-399.479C830.882,-394.848 1086.28,-379.766 1115,-356 1138.29,-336.729 1135,-321.225 1135,-291 1135,-291 1135,-291 1135,-233 1135,-200.948 1135,-163.643 1135,-141.749"/>
<polygon fill="midnightblue" stroke="midnightblue" points="1138.5,-141.558 1135,-131.558 1131.5,-141.558 1138.5,-141.558"/>
</g>
<!-- Node18 -->
<g id="node18" class="node"><title>Node18</title>
<g id="a_node18"><a xlink:href="$I2CDriver_8h.html" xlink:title="I2CDriver.h">
<polygon fill="white" stroke="black" points="771.5,-112.5 771.5,-131.5 838.5,-131.5 838.5,-112.5 771.5,-112.5"/>
<text text-anchor="middle" x="805" y="-119.5" font-family="Helvetica,sans-Serif" font-size="10.00">I2CDriver.h</text>
</a>
</g>
</g>
<!-- Node2&#45;&gt;Node18 -->
<g id="edge26" class="edge"><title>Node2&#45;&gt;Node18</title>
<path fill="none" stroke="midnightblue" d="M740.536,-393.626C785.591,-381.001 863,-350.634 863,-291 863,-291 863,-291 863,-233 863,-196.163 837.235,-159.565 820.05,-139.251"/>
<polygon fill="midnightblue" stroke="midnightblue" points="822.543,-136.786 813.31,-131.589 817.287,-141.41 822.543,-136.786"/>
</g>
<!-- Node19 -->
<g id="node19" class="node"><title>Node19</title>
<g id="a_node19"><a xlink:href="$SPIDriver_8h.html" xlink:title="SPIDriver.h">
<polygon fill="white" stroke="black" points="515,-280.5 515,-299.5 583,-299.5 583,-280.5 515,-280.5"/>
<text text-anchor="middle" x="549" y="-287.5" font-family="Helvetica,sans-Serif" font-size="10.00">SPIDriver.h</text>
</a>
</g>
</g>
<!-- Node2&#45;&gt;Node19 -->
<g id="edge29" class="edge"><title>Node2&#45;&gt;Node19</title>
<path fill="none" stroke="midnightblue" d="M696.445,-392.368C669.106,-373.573 603.936,-328.768 570.139,-305.533"/>
<polygon fill="midnightblue" stroke="midnightblue" points="571.72,-302.373 561.497,-299.591 567.754,-308.141 571.72,-302.373"/>
</g>
<!-- Node20 -->
<g id="node20" class="node"><title>Node20</title>
<g id="a_node20"><a xlink:href="$AnalogIn_8h.html" xlink:title="AnalogIn.h">
<polygon fill="white" stroke="black" points="-0.5,-280.5 -0.5,-299.5 62.5,-299.5 62.5,-280.5 -0.5,-280.5"/>
<text text-anchor="middle" x="31" y="-287.5" font-family="Helvetica,sans-Serif" font-size="10.00">AnalogIn.h</text>
</a>
</g>
</g>
<!-- Node2&#45;&gt;Node20 -->
<g id="edge31" class="edge"><title>Node2&#45;&gt;Node20</title>
<path fill="none" stroke="midnightblue" d="M677.328,-400.323C556.626,-397.531 129.592,-385.626 77,-356 58.6011,-345.636 45.7815,-324.498 38.4335,-309.133"/>
<polygon fill="midnightblue" stroke="midnightblue" points="41.4703,-307.347 34.2194,-299.622 35.0703,-310.183 41.4703,-307.347"/>
</g>
<!-- Node21 -->
<g id="node21" class="node"><title>Node21</title>
<g id="a_node21"><a xlink:href="$Storage_8h.html" xlink:title="Storage.h">
<polygon fill="white" stroke="black" points="323.5,-224.5 323.5,-243.5 382.5,-243.5 382.5,-224.5 323.5,-224.5"/>
<text text-anchor="middle" x="353" y="-231.5" font-family="Helvetica,sans-Serif" font-size="10.00">Storage.h</text>
</a>
</g>
</g>
<!-- Node2&#45;&gt;Node21 -->
<g id="edge33" class="edge"><title>Node2&#45;&gt;Node21</title>
<path fill="none" stroke="midnightblue" d="M677.255,-401.101C603.368,-400.659 422.91,-395.464 380,-356 351.444,-329.737 349.715,-280.471 351.192,-253.615"/>
<polygon fill="midnightblue" stroke="midnightblue" points="354.685,-253.846 351.953,-243.609 347.705,-253.315 354.685,-253.846"/>
</g>
<!-- Node22 -->
<g id="node22" class="node"><title>Node22</title>
<g id="a_node22"><a xlink:href="$GPIO_8h.html" xlink:title="GPIO.h">
<polygon fill="white" stroke="black" points="447,-168.5 447,-187.5 497,-187.5 497,-168.5 447,-168.5"/>
<text text-anchor="middle" x="472" y="-175.5" font-family="Helvetica,sans-Serif" font-size="10.00">GPIO.h</text>
</a>
</g>
</g>
<!-- Node2&#45;&gt;Node22 -->
<g id="edge36" class="edge"><title>Node2&#45;&gt;Node22</title>
<path fill="none" stroke="midnightblue" d="M677.315,-394.083C632.271,-382.562 550.286,-355.058 506,-300 481.806,-269.921 474.814,-223.632 472.803,-197.9"/>
<polygon fill="midnightblue" stroke="midnightblue" points="476.281,-197.427 472.185,-187.656 469.293,-197.848 476.281,-197.427"/>
</g>
<!-- Node23 -->
<g id="node23" class="node"><title>Node23</title>
<g id="a_node23"><a xlink:href="$RCInput_8h.html" xlink:title="RCInput.h">
<polygon fill="white" stroke="black" points="119,-280.5 119,-299.5 181,-299.5 181,-280.5 119,-280.5"/>
<text text-anchor="middle" x="150" y="-287.5" font-family="Helvetica,sans-Serif" font-size="10.00">RCInput.h</text>
</a>
</g>
</g>
<!-- Node2&#45;&gt;Node23 -->
<g id="edge39" class="edge"><title>Node2&#45;&gt;Node23</title>
<path fill="none" stroke="midnightblue" d="M677.189,-399.642C587.856,-395.541 336.131,-381.945 258,-356 223.988,-344.706 189.295,-321.262 168.711,-305.834"/>
<polygon fill="midnightblue" stroke="midnightblue" points="170.614,-302.883 160.547,-299.578 166.355,-308.439 170.614,-302.883"/>
</g>
<!-- Node24 -->
<g id="node24" class="node"><title>Node24</title>
<g id="a_node24"><a xlink:href="$RCOutput_8h.html" xlink:title="RCOutput.h">
<polygon fill="white" stroke="black" points="199.5,-280.5 199.5,-299.5 268.5,-299.5 268.5,-280.5 199.5,-280.5"/>
<text text-anchor="middle" x="234" y="-287.5" font-family="Helvetica,sans-Serif" font-size="10.00">RCOutput.h</text>
</a>
</g>
</g>
<!-- Node2&#45;&gt;Node24 -->
<g id="edge41" class="edge"><title>Node2&#45;&gt;Node24</title>
<path fill="none" stroke="midnightblue" d="M677.413,-400.871C590.619,-400.022 350.473,-394.189 283,-356 264.033,-345.265 250.136,-323.875 242.083,-308.563"/>
<polygon fill="midnightblue" stroke="midnightblue" points="245.202,-306.974 237.641,-299.552 238.923,-310.069 245.202,-306.974"/>
</g>
<!-- Node25 -->
<g id="node25" class="node"><title>Node25</title>
<g id="a_node25"><a xlink:href="$Scheduler_8h.html" xlink:title="Scheduler.h">
<polygon fill="white" stroke="black" points="1009,-224.5 1009,-243.5 1077,-243.5 1077,-224.5 1009,-224.5"/>
<text text-anchor="middle" x="1043" y="-231.5" font-family="Helvetica,sans-Serif" font-size="10.00">Scheduler.h</text>
</a>
</g>
</g>
<!-- Node2&#45;&gt;Node25 -->
<g id="edge43" class="edge"><title>Node2&#45;&gt;Node25</title>
<path fill="none" stroke="midnightblue" d="M740.808,-399.326C782.894,-395.971 858.361,-385.933 915,-356 965.038,-329.555 1009.63,-278.104 1030.49,-251.626"/>
<polygon fill="midnightblue" stroke="midnightblue" points="1033.29,-253.73 1036.63,-243.676 1027.75,-249.451 1033.29,-253.73"/>
</g>
<!-- Node26 -->
<g id="node26" class="node"><title>Node26</title>
<g id="a_node26"><a xlink:href="$Semaphores_8h.html" xlink:title="Semaphores.h">
<polygon fill="white" stroke="black" points="225,-224.5 225,-243.5 305,-243.5 305,-224.5 225,-224.5"/>
<text text-anchor="middle" x="265" y="-231.5" font-family="Helvetica,sans-Serif" font-size="10.00">Semaphores.h</text>
</a>
</g>
</g>
<!-- Node2&#45;&gt;Node26 -->
<g id="edge48" class="edge"><title>Node2&#45;&gt;Node26</title>
<path fill="none" stroke="midnightblue" d="M677.451,-399.897C602.45,-396.804 415.752,-386.208 362,-356 318.919,-331.788 287.75,-280.092 273.558,-252.771"/>
<polygon fill="midnightblue" stroke="midnightblue" points="276.571,-250.972 268.961,-243.601 270.314,-254.109 276.571,-250.972"/>
</g>
<!-- Node27 -->
<g id="node27" class="node"><title>Node27</title>
<g id="a_node27"><a xlink:href="$Util_8h.html" xlink:title="Util.h">
<polygon fill="white" stroke="black" points="795,-224.5 795,-243.5 835,-243.5 835,-224.5 795,-224.5"/>
<text text-anchor="middle" x="815" y="-231.5" font-family="Helvetica,sans-Serif" font-size="10.00">Util.h</text>
</a>
</g>
</g>
<!-- Node2&#45;&gt;Node27 -->
<g id="edge50" class="edge"><title>Node2&#45;&gt;Node27</title>
<path fill="none" stroke="midnightblue" d="M714.821,-392.419C720.917,-383.398 730.735,-368.77 739,-356 762.706,-319.373 789.71,-275.962 804.292,-252.376"/>
<polygon fill="midnightblue" stroke="midnightblue" points="807.46,-253.907 809.735,-243.559 801.504,-250.23 807.46,-253.907"/>
</g>
<!-- Node28 -->
<g id="node28" class="node"><title>Node28</title>
<g id="a_node28"><a xlink:href="$HAL_8h.html" xlink:title="HAL.h">
<polygon fill="white" stroke="black" points="389,-336.5 389,-355.5 433,-355.5 433,-336.5 389,-336.5"/>
<text text-anchor="middle" x="411" y="-343.5" font-family="Helvetica,sans-Serif" font-size="10.00">HAL.h</text>
</a>
</g>
</g>
<!-- Node2&#45;&gt;Node28 -->
<g id="edge57" class="edge"><title>Node2&#45;&gt;Node28</title>
<path fill="none" stroke="midnightblue" d="M677.391,-395.272C620.279,-384.923 500.505,-363.219 443.063,-352.81"/>
<polygon fill="midnightblue" stroke="midnightblue" points="443.556,-349.342 433.092,-351.003 442.308,-356.23 443.556,-349.342"/>
</g>
<!-- Node6 -->
<g id="node6" class="node"><title>Node6</title>
<polygon fill="white" stroke="#bfbfbf" points="1001.5,-0.5 1001.5,-19.5 1050.5,-19.5 1050.5,-0.5 1001.5,-0.5"/>
<text text-anchor="middle" x="1026" y="-7.5" font-family="Helvetica,sans-Serif" font-size="10.00">string.h</text>
</g>
<!-- Node5&#45;&gt;Node6 -->
<g id="edge5" class="edge"><title>Node5&#45;&gt;Node6</title>
<path fill="none" stroke="midnightblue" d="M537.586,-59.0407C652.796,-47.7086 900.091,-23.3845 991.292,-14.4139"/>
<polygon fill="midnightblue" stroke="midnightblue" points="991.763,-17.8845 1001.37,-13.4224 991.078,-10.9181 991.763,-17.8845"/>
</g>
<!-- Node7 -->
<g id="node7" class="node"><title>Node7</title>
<g id="a_node7"><a xlink:href="$FastDelegate_8h.html" xlink:title="utility/FastDelegate.h">
<polygon fill="white" stroke="black" points="422,-0.5 422,-19.5 532,-19.5 532,-0.5 422,-0.5"/>
<text text-anchor="middle" x="477" y="-7.5" font-family="Helvetica,sans-Serif" font-size="10.00">utility/FastDelegate.h</text>
</a>
</g>
</g>
<!-- Node5&#45;&gt;Node7 -->
<g id="edge6" class="edge"><title>Node5&#45;&gt;Node7</title>
<path fill="none" stroke="midnightblue" d="M477,-56.083C477,-49.0059 477,-38.8611 477,-29.9865"/>
<polygon fill="midnightblue" stroke="midnightblue" points="480.5,-29.751 477,-19.7511 473.5,-29.7511 480.5,-29.751"/>
</g>
<!-- Node10&#45;&gt;Node3 -->
<g id="edge10" class="edge"><title>Node10&#45;&gt;Node3</title>
<path fill="none" stroke="midnightblue" d="M635.452,-280.464C622.158,-258.835 591.617,-201.239 620,-168 686.333,-90.3181 762.338,-189.157 847,-132 863.325,-120.979 873.892,-100.626 879.854,-85.6211"/>
<polygon fill="midnightblue" stroke="midnightblue" points="883.278,-86.444 883.397,-75.8499 876.698,-84.0575 883.278,-86.444"/>
</g>
<!-- Node10&#45;&gt;Node5 -->
<g id="edge11" class="edge"><title>Node10&#45;&gt;Node5</title>
<path fill="none" stroke="midnightblue" d="M628.439,-280.339C616.815,-271.93 599.496,-258.362 587,-244 563.186,-216.632 509.179,-123.523 486.897,-84.4671"/>
<polygon fill="midnightblue" stroke="midnightblue" points="489.827,-82.5379 481.84,-75.5755 483.742,-85.9984 489.827,-82.5379"/>
</g>
<!-- Node10&#45;&gt;Node11 -->
<g id="edge12" class="edge"><title>Node10&#45;&gt;Node11</title>
<path fill="none" stroke="midnightblue" d="M654.014,-280.324C666.532,-271.979 685.682,-259.212 700.471,-249.352"/>
<polygon fill="midnightblue" stroke="midnightblue" points="702.639,-252.114 709.018,-243.655 698.756,-246.289 702.639,-252.114"/>
</g>
<!-- Node11&#45;&gt;Node5 -->
<g id="edge14" class="edge"><title>Node11&#45;&gt;Node5</title>
<path fill="none" stroke="midnightblue" d="M720.172,-224.333C716.903,-210.743 708.861,-184.291 693,-168 646.089,-119.817 571.739,-92.1149 523.662,-78.3025"/>
<polygon fill="midnightblue" stroke="midnightblue" points="524.394,-74.8731 513.821,-75.5636 522.517,-81.6168 524.394,-74.8731"/>
</g>
<!-- Node12 -->
<g id="node12" class="node"><title>Node12</title>
<polygon fill="white" stroke="#bfbfbf" points="741,-168.5 741,-187.5 793,-187.5 793,-168.5 741,-168.5"/>
<text text-anchor="middle" x="767" y="-175.5" font-family="Helvetica,sans-Serif" font-size="10.00">stdarg.h</text>
</g>
<!-- Node11&#45;&gt;Node12 -->
<g id="edge13" class="edge"><title>Node11&#45;&gt;Node12</title>
<path fill="none" stroke="midnightblue" d="M729.431,-224.083C735.853,-216.377 745.306,-205.033 753.122,-195.653"/>
<polygon fill="midnightblue" stroke="midnightblue" points="755.994,-197.674 759.707,-187.751 750.617,-193.193 755.994,-197.674"/>
</g>
<!-- Node11&#45;&gt;Node13 -->
<g id="edge15" class="edge"><title>Node11&#45;&gt;Node13</title>
<path fill="none" stroke="midnightblue" d="M711.557,-224.324C701.854,-216.263 687.185,-204.077 675.5,-194.369"/>
<polygon fill="midnightblue" stroke="midnightblue" points="677.562,-191.532 667.633,-187.834 673.089,-196.916 677.562,-191.532"/>
</g>
<!-- Node16 -->
<g id="node16" class="node"><title>Node16</title>
<g id="a_node16"><a xlink:href="$AP__Progmem_8h.html" xlink:title="AP_Progmem.h">
<polygon fill="white" stroke="black" points="929,-168.5 929,-187.5 1015,-187.5 1015,-168.5 929,-168.5"/>
<text text-anchor="middle" x="972" y="-175.5" font-family="Helvetica,sans-Serif" font-size="10.00">AP_Progmem.h</text>
</a>
</g>
</g>
<!-- Node11&#45;&gt;Node16 -->
<g id="edge21" class="edge"><title>Node11&#45;&gt;Node16</title>
<path fill="none" stroke="midnightblue" d="M761.613,-224.444C805.225,-215.023 875.4,-199.866 922.578,-189.675"/>
<polygon fill="midnightblue" stroke="midnightblue" points="923.536,-193.049 932.572,-187.516 922.059,-186.207 923.536,-193.049"/>
</g>
<!-- Node13&#45;&gt;Node5 -->
<g id="edge16" class="edge"><title>Node13&#45;&gt;Node5</title>
<path fill="none" stroke="midnightblue" d="M641.193,-168.498C624.931,-159.66 598.947,-145.287 577,-132 549.351,-115.261 518.241,-94.769 498.17,-81.324"/>
<polygon fill="midnightblue" stroke="midnightblue" points="500.029,-78.3562 489.777,-75.6812 496.123,-84.1653 500.029,-78.3562"/>
</g>
<!-- Node13&#45;&gt;Node14 -->
<g id="edge17" class="edge"><title>Node13&#45;&gt;Node14</title>
<path fill="none" stroke="midnightblue" d="M685.119,-173.473C699.188,-171.747 716.485,-169.683 732,-168 893.48,-150.479 938.433,-162.073 1102.45,-131.756"/>
<polygon fill="midnightblue" stroke="midnightblue" points="1103.21,-135.175 1112.39,-129.894 1101.92,-128.295 1103.21,-135.175"/>
</g>
<!-- Node14&#45;&gt;Node5 -->
<g id="edge18" class="edge"><title>Node14&#45;&gt;Node5</title>
<path fill="none" stroke="midnightblue" d="M1112.4,-114.034C1109.27,-113.247 1106.07,-112.536 1103,-112 903.996,-77.232 664.896,-69.2211 548.159,-67.4469"/>
<polygon fill="midnightblue" stroke="midnightblue" points="547.976,-63.9441 537.928,-67.3028 547.877,-70.9434 547.976,-63.9441"/>
</g>
<!-- Node14&#45;&gt;Node6 -->
<g id="edge20" class="edge"><title>Node14&#45;&gt;Node6</title>
<path fill="none" stroke="midnightblue" d="M1135.59,-112.422C1136.06,-98.9526 1135.07,-72.664 1122,-56 1106.87,-36.7049 1081.5,-25.306 1060.63,-18.8101"/>
<polygon fill="midnightblue" stroke="midnightblue" points="1061.39,-15.3877 1050.82,-16.0019 1059.47,-22.1177 1061.39,-15.3877"/>
</g>
<!-- Node15 -->
<g id="node15" class="node"><title>Node15</title>
<polygon fill="white" stroke="#bfbfbf" points="1054.5,-56.5 1054.5,-75.5 1113.5,-75.5 1113.5,-56.5 1054.5,-56.5"/>
<text text-anchor="middle" x="1084" y="-63.5" font-family="Helvetica,sans-Serif" font-size="10.00">inttypes.h</text>
</g>
<!-- Node14&#45;&gt;Node15 -->
<g id="edge19" class="edge"><title>Node14&#45;&gt;Node15</title>
<path fill="none" stroke="midnightblue" d="M1126.58,-112.083C1119.15,-104.22 1108.15,-92.5688 1099.19,-83.0813"/>
<polygon fill="midnightblue" stroke="midnightblue" points="1101.68,-80.618 1092.26,-75.7511 1096.59,-85.4244 1101.68,-80.618"/>
</g>
<!-- Node16&#45;&gt;Node8 -->
<g id="edge22" class="edge"><title>Node16&#45;&gt;Node8</title>
<path fill="none" stroke="midnightblue" d="M1012.09,-168.444C1056.32,-159.004 1127.54,-143.802 1175.28,-133.611"/>
<polygon fill="midnightblue" stroke="midnightblue" points="1176.05,-137.027 1185.1,-131.516 1174.59,-130.181 1176.05,-137.027"/>
</g>
<!-- Node17 -->
<g id="node17" class="node"><title>Node17</title>
<g id="a_node17"><a xlink:href="$AP__Progmem__Identity_8h.html" xlink:title="AP_Progmem_Identity.h">
<polygon fill="white" stroke="black" points="971.5,-112.5 971.5,-131.5 1094.5,-131.5 1094.5,-112.5 971.5,-112.5"/>
<text text-anchor="middle" x="1033" y="-119.5" font-family="Helvetica,sans-Serif" font-size="10.00">AP_Progmem_Identity.h</text>
</a>
</g>
</g>
<!-- Node16&#45;&gt;Node17 -->
<g id="edge23" class="edge"><title>Node16&#45;&gt;Node17</title>
<path fill="none" stroke="midnightblue" d="M981.801,-168.324C990.818,-160.341 1004.41,-148.313 1015.32,-138.653"/>
<polygon fill="midnightblue" stroke="midnightblue" points="1017.85,-141.083 1023.02,-131.834 1013.21,-135.842 1017.85,-141.083"/>
</g>
<!-- Node17&#45;&gt;Node3 -->
<g id="edge25" class="edge"><title>Node17&#45;&gt;Node3</title>
<path fill="none" stroke="midnightblue" d="M1009.71,-112.444C985.193,-103.438 946.404,-89.1891 918.8,-79.049"/>
<polygon fill="midnightblue" stroke="midnightblue" points="919.777,-75.6793 909.184,-75.5164 917.363,-82.25 919.777,-75.6793"/>
</g>
<!-- Node17&#45;&gt;Node6 -->
<g id="edge24" class="edge"><title>Node17&#45;&gt;Node6</title>
<path fill="none" stroke="midnightblue" d="M1032.45,-112.368C1031.32,-94.617 1028.72,-53.6664 1027.18,-29.5974"/>
<polygon fill="midnightblue" stroke="midnightblue" points="1030.67,-29.3489 1026.55,-19.5914 1023.69,-29.7935 1030.67,-29.3489"/>
</g>
<!-- Node18&#45;&gt;Node3 -->
<g id="edge27" class="edge"><title>Node18&#45;&gt;Node3</title>
<path fill="none" stroke="midnightblue" d="M818.014,-112.324C830.532,-103.979 849.682,-91.2122 864.471,-81.3524"/>
<polygon fill="midnightblue" stroke="midnightblue" points="866.639,-84.1137 873.018,-75.6545 862.756,-78.2894 866.639,-84.1137"/>
</g>
<!-- Node18&#45;&gt;Node5 -->
<g id="edge28" class="edge"><title>Node18&#45;&gt;Node5</title>
<path fill="none" stroke="midnightblue" d="M771.451,-114.595C766.606,-113.703 761.678,-112.814 757,-112 683.787,-99.2553 599.571,-85.8959 542.778,-77.0771"/>
<polygon fill="midnightblue" stroke="midnightblue" points="543.271,-73.6118 532.853,-75.5388 542.198,-80.5292 543.271,-73.6118"/>
</g>
<!-- Node19&#45;&gt;Node5 -->
<g id="edge30" class="edge"><title>Node19&#45;&gt;Node5</title>
<path fill="none" stroke="midnightblue" d="M546.178,-280.297C535.561,-247.563 497.878,-131.375 483.054,-85.6664"/>
<polygon fill="midnightblue" stroke="midnightblue" points="486.296,-84.3162 479.881,-75.8837 479.637,-86.4758 486.296,-84.3162"/>
</g>
<!-- Node20&#45;&gt;Node5 -->
<g id="edge32" class="edge"><title>Node20&#45;&gt;Node5</title>
<path fill="none" stroke="midnightblue" d="M30.1929,-280.275C28.0338,-251.168 25.4234,-156.717 77,-112 101.329,-90.9071 297.952,-76.8613 406.177,-70.6484"/>
<polygon fill="midnightblue" stroke="midnightblue" points="406.58,-74.1313 416.366,-70.0716 406.184,-67.1425 406.58,-74.1313"/>
</g>
<!-- Node21&#45;&gt;Node3 -->
<g id="edge34" class="edge"><title>Node21&#45;&gt;Node3</title>
<path fill="none" stroke="midnightblue" d="M362.12,-224.067C376.858,-210.111 407.367,-183.168 438,-168 580.624,-97.3806 773.207,-75.4834 851.127,-69.2633"/>
<polygon fill="midnightblue" stroke="midnightblue" points="851.638,-72.7346 861.343,-68.4862 851.107,-65.7547 851.638,-72.7346"/>
</g>
<!-- Node21&#45;&gt;Node5 -->
<g id="edge35" class="edge"><title>Node21&#45;&gt;Node5</title>
<path fill="none" stroke="midnightblue" d="M351.272,-224.306C347.52,-202.8 340.932,-146.374 367,-112 379.372,-95.6854 398.682,-85.2572 417.69,-78.6034"/>
<polygon fill="midnightblue" stroke="midnightblue" points="418.804,-81.9219 427.265,-75.544 416.674,-75.2541 418.804,-81.9219"/>
</g>
<!-- Node22&#45;&gt;Node3 -->
<g id="edge37" class="edge"><title>Node22&#45;&gt;Node3</title>
<path fill="none" stroke="midnightblue" d="M497.216,-170.398C530.58,-161.656 591.223,-145.738 643,-132 717.324,-112.28 804.366,-88.9368 851.469,-76.2838"/>
<polygon fill="midnightblue" stroke="midnightblue" points="852.423,-79.6518 861.172,-73.6768 850.606,-72.8916 852.423,-79.6518"/>
</g>
<!-- Node22&#45;&gt;Node5 -->
<g id="edge38" class="edge"><title>Node22&#45;&gt;Node5</title>
<path fill="none" stroke="midnightblue" d="M469.154,-168.158C465.495,-155.642 459.953,-132.048 463,-112 464.368,-103.001 467.19,-93.3251 469.945,-85.2601"/>
<polygon fill="midnightblue" stroke="midnightblue" points="473.265,-86.3722 473.4,-75.7782 466.688,-83.9759 473.265,-86.3722"/>
</g>
<!-- Node23&#45;&gt;Node5 -->
<g id="edge40" class="edge"><title>Node23&#45;&gt;Node5</title>
<path fill="none" stroke="midnightblue" d="M153.82,-280.323C167.453,-250.539 216.944,-152.097 292,-112 327.311,-93.1363 370.618,-82.0494 406.451,-75.603"/>
<polygon fill="midnightblue" stroke="midnightblue" points="407.083,-79.0458 416.347,-73.9052 405.9,-72.1466 407.083,-79.0458"/>
</g>
<!-- Node24&#45;&gt;Node5 -->
<g id="edge42" class="edge"><title>Node24&#45;&gt;Node5</title>
<path fill="none" stroke="midnightblue" d="M228.05,-280.364C220.11,-267.697 207.934,-243.473 216,-224 242.94,-158.962 267.597,-148.154 328,-112 355.378,-95.6132 389.199,-84.7694 417.695,-77.8416"/>
<polygon fill="midnightblue" stroke="midnightblue" points="418.587,-81.2276 427.533,-75.5518 417,-74.4099 418.587,-81.2276"/>
</g>
<!-- Node25&#45;&gt;Node3 -->
<g id="edge46" class="edge"><title>Node25&#45;&gt;Node3</title>
<path fill="none" stroke="midnightblue" d="M1048.83,-224.18C1056.82,-210.848 1068.94,-185.289 1057,-168 1031.35,-130.844 1000.85,-155.016 962,-132 938.81,-118.26 915.796,-97.2798 901.273,-82.8941"/>
<polygon fill="midnightblue" stroke="midnightblue" points="903.65,-80.3202 894.131,-75.6683 898.672,-85.241 903.65,-80.3202"/>
</g>
<!-- Node25&#45;&gt;Node5 -->
<g id="edge44" class="edge"><title>Node25&#45;&gt;Node5</title>
<path fill="none" stroke="midnightblue" d="M1043.23,-224.281C1043.09,-210.122 1040.56,-182.279 1024,-168 979.488,-129.626 819.384,-144.683 762,-132 732.487,-125.477 726.285,-119.482 697,-112 642.684,-98.1234 579.973,-85.6376 535.436,-77.3586"/>
<polygon fill="midnightblue" stroke="midnightblue" points="535.841,-73.8743 525.372,-75.5018 534.571,-80.7581 535.841,-73.8743"/>
</g>
<!-- Node25&#45;&gt;Node8 -->
<g id="edge45" class="edge"><title>Node25&#45;&gt;Node8</title>
<path fill="none" stroke="midnightblue" d="M1057.28,-224.368C1088.65,-205.412 1163.78,-160.001 1201.93,-136.942"/>
<polygon fill="midnightblue" stroke="midnightblue" points="1204.04,-139.759 1210.79,-131.591 1200.42,-133.769 1204.04,-139.759"/>
</g>
<!-- Node25&#45;&gt;Node16 -->
<g id="edge47" class="edge"><title>Node25&#45;&gt;Node16</title>
<path fill="none" stroke="midnightblue" d="M1031.59,-224.324C1020.89,-216.185 1004.66,-203.839 991.837,-194.087"/>
<polygon fill="midnightblue" stroke="midnightblue" points="993.693,-191.102 983.615,-187.834 989.456,-196.673 993.693,-191.102"/>
</g>
<!-- Node26&#45;&gt;Node5 -->
<g id="edge49" class="edge"><title>Node26&#45;&gt;Node5</title>
<path fill="none" stroke="midnightblue" d="M269.02,-224.319C279.617,-202.348 310.451,-144.016 353,-112 374.216,-96.036 401.648,-85.302 425.314,-78.3352"/>
<polygon fill="midnightblue" stroke="midnightblue" points="426.507,-81.6361 435.197,-75.5757 424.625,-74.894 426.507,-81.6361"/>
</g>
<!-- Node27&#45;&gt;Node5 -->
<g id="edge52" class="edge"><title>Node27&#45;&gt;Node5</title>
<path fill="none" stroke="midnightblue" d="M815.783,-224.266C816.514,-210.582 815.863,-184.006 802,-168 783.205,-146.3 605.633,-99.3368 521.197,-77.9758"/>
<polygon fill="midnightblue" stroke="midnightblue" points="521.931,-74.5513 511.378,-75.5011 520.22,-81.3391 521.931,-74.5513"/>
</g>
<!-- Node27&#45;&gt;Node12 -->
<g id="edge51" class="edge"><title>Node27&#45;&gt;Node12</title>
<path fill="none" stroke="midnightblue" d="M807.074,-224.083C800.154,-216.298 789.935,-204.801 781.548,-195.367"/>
<polygon fill="midnightblue" stroke="midnightblue" points="784.038,-192.9 774.779,-187.751 778.806,-197.55 784.038,-192.9"/>
</g>
<!-- Node27&#45;&gt;Node16 -->
<g id="edge53" class="edge"><title>Node27&#45;&gt;Node16</title>
<path fill="none" stroke="midnightblue" d="M835.204,-226.051C861.061,-217.158 906.249,-201.615 937.579,-190.839"/>
<polygon fill="midnightblue" stroke="midnightblue" points="938.904,-194.085 947.222,-187.522 936.627,-187.465 938.904,-194.085"/>
</g>
<!-- Node28&#45;&gt;Node5 -->
<g id="edge58" class="edge"><title>Node28&#45;&gt;Node5</title>
<path fill="none" stroke="midnightblue" d="M411.675,-336.399C413.84,-310.555 421.451,-231.466 438,-168 444.707,-142.279 449.397,-136.786 459,-112 462.463,-103.063 466.408,-93.1699 469.72,-84.941"/>
<polygon fill="midnightblue" stroke="midnightblue" points="472.991,-86.1878 473.494,-75.6048 466.501,-83.5645 472.991,-86.1878"/>
</g>
<!-- Node28&#45;&gt;Node10 -->
<g id="edge59" class="edge"><title>Node28&#45;&gt;Node10</title>
<path fill="none" stroke="midnightblue" d="M433.053,-339.822C470.185,-331.104 545.931,-313.321 595.029,-301.793"/>
<polygon fill="midnightblue" stroke="midnightblue" points="595.841,-305.198 604.776,-299.505 594.241,-298.383 595.841,-305.198"/>
</g>
<!-- Node28&#45;&gt;Node19 -->
<g id="edge60" class="edge"><title>Node28&#45;&gt;Node19</title>
<path fill="none" stroke="midnightblue" d="M432.867,-336.444C455.779,-327.478 491.975,-313.314 517.866,-303.183"/>
<polygon fill="midnightblue" stroke="midnightblue" points="519.199,-306.42 527.236,-299.516 516.648,-299.901 519.199,-306.42"/>
</g>
<!-- Node28&#45;&gt;Node20 -->
<g id="edge61" class="edge"><title>Node28&#45;&gt;Node20</title>
<path fill="none" stroke="midnightblue" d="M388.927,-341.863C327.455,-333.128 153.539,-308.413 72.9512,-296.961"/>
<polygon fill="midnightblue" stroke="midnightblue" points="73.0725,-293.444 62.6796,-295.502 72.0876,-300.374 73.0725,-293.444"/>
</g>
<!-- Node28&#45;&gt;Node21 -->
<g id="edge62" class="edge"><title>Node28&#45;&gt;Node21</title>
<path fill="none" stroke="midnightblue" d="M406.449,-336.368C396.962,-318.376 374.908,-276.55 362.294,-252.627"/>
<polygon fill="midnightblue" stroke="midnightblue" points="365.29,-250.805 357.53,-243.591 359.098,-254.07 365.29,-250.805"/>
</g>
<!-- Node28&#45;&gt;Node22 -->
<g id="edge63" class="edge"><title>Node28&#45;&gt;Node22</title>
<path fill="none" stroke="midnightblue" d="M414.28,-336.075C423.923,-309.832 452.324,-232.545 465.343,-197.117"/>
<polygon fill="midnightblue" stroke="midnightblue" points="468.687,-198.162 468.851,-187.568 462.117,-195.747 468.687,-198.162"/>
</g>
<!-- Node28&#45;&gt;Node23 -->
<g id="edge64" class="edge"><title>Node28&#45;&gt;Node23</title>
<path fill="none" stroke="midnightblue" d="M388.697,-340.615C350.426,-333.058 269.549,-316.941 191.434,-300.276"/>
<polygon fill="midnightblue" stroke="midnightblue" points="191.941,-296.805 181.43,-298.135 190.476,-303.65 191.941,-296.805"/>
</g>
<!-- Node28&#45;&gt;Node24 -->
<g id="edge65" class="edge"><title>Node28&#45;&gt;Node24</title>
<path fill="none" stroke="midnightblue" d="M388.941,-338.27C359.547,-329.303 307.11,-313.305 271.46,-302.429"/>
<polygon fill="midnightblue" stroke="midnightblue" points="272.47,-299.077 261.884,-299.507 270.427,-305.773 272.47,-299.077"/>
</g>
<!-- Node29&#45;&gt;Node2 -->
<g id="edge71" class="edge"><title>Node29&#45;&gt;Node2</title>
<path fill="none" stroke="midnightblue" d="M785.379,-448.324C771.051,-439.822 748.987,-426.729 732.251,-416.797"/>
<polygon fill="midnightblue" stroke="midnightblue" points="733.97,-413.748 723.584,-411.655 730.398,-419.768 733.97,-413.748"/>
</g>
<!-- Node30 -->
<g id="node30" class="node"><title>Node30</title>
<g id="a_node30"><a xlink:href="$AP__Common_8h.html" xlink:title="Common definitions and utility routines for the ArduPilot libraries. ">
<polygon fill="white" stroke="black" points="1205.5,-392.5 1205.5,-411.5 1288.5,-411.5 1288.5,-392.5 1205.5,-392.5"/>
<text text-anchor="middle" x="1247" y="-399.5" font-family="Helvetica,sans-Serif" font-size="10.00">AP_Common.h</text>
</a>
</g>
</g>
<!-- Node29&#45;&gt;Node30 -->
<g id="edge67" class="edge"><title>Node29&#45;&gt;Node30</title>
<path fill="none" stroke="midnightblue" d="M862.624,-449.435C951.566,-438.69 1112.82,-419.21 1195.33,-409.242"/>
<polygon fill="midnightblue" stroke="midnightblue" points="1195.96,-412.691 1205.47,-408.017 1195.12,-405.741 1195.96,-412.691"/>
</g>
<!-- Node30&#45;&gt;Node3 -->
<g id="edge68" class="edge"><title>Node30&#45;&gt;Node3</title>
<path fill="none" stroke="midnightblue" d="M1255.02,-392.358C1270.51,-374.738 1303,-332.788 1303,-291 1303,-291 1303,-291 1303,-177 1303,-146.775 1306.26,-131.3 1283,-112 1255.34,-89.0468 1012.17,-73.7604 920.641,-68.7744"/>
<polygon fill="midnightblue" stroke="midnightblue" points="920.678,-65.2715 910.505,-68.2308 920.303,-72.2614 920.678,-65.2715"/>
</g>
<!-- Node30&#45;&gt;Node4 -->
<g id="edge70" class="edge"><title>Node30&#45;&gt;Node4</title>
<path fill="none" stroke="midnightblue" d="M1242.38,-392.083C1238.54,-384.691 1232.98,-373.953 1228.24,-364.811"/>
<polygon fill="midnightblue" stroke="midnightblue" points="1231.25,-363.018 1223.54,-355.751 1225.03,-366.24 1231.25,-363.018"/>
</g>
<!-- Node31 -->
<g id="node31" class="node"><title>Node31</title>
<polygon fill="white" stroke="#bfbfbf" points="1331,-336.5 1331,-355.5 1379,-355.5 1379,-336.5 1331,-336.5"/>
<text text-anchor="middle" x="1355" y="-343.5" font-family="Helvetica,sans-Serif" font-size="10.00">stdlib.h</text>
</g>
<!-- Node30&#45;&gt;Node31 -->
<g id="edge69" class="edge"><title>Node30&#45;&gt;Node31</title>
<path fill="none" stroke="midnightblue" d="M1264.35,-392.324C1281.67,-383.664 1308.52,-370.242 1328.5,-360.249"/>
<polygon fill="midnightblue" stroke="midnightblue" points="1330.31,-363.257 1337.69,-355.655 1327.18,-356.996 1330.31,-363.257"/>
</g>
</g>
</svg>
