<?xml version="1.0" encoding="UTF-8" standalone="no"?>
<!DOCTYPE svg PUBLIC "-//W3C//DTD SVG 1.1//EN"
 "http://www.w3.org/Graphics/SVG/1.1/DTD/svg11.dtd">
<!-- Generated by graphviz version 2.36.0 (20140111.2315)
 -->
<!-- Title: libraries/AP_ADC/AP_ADC_HIL.h Pages: 1 -->
<svg width="1517pt" height="600pt"
 viewBox="0.00 0.00 1517.00 600.00" xmlns="http://www.w3.org/2000/svg" xmlns:xlink="http://www.w3.org/1999/xlink">
<g id="graph0" class="graph" transform="scale(1 1) rotate(0) translate(4 596)">
<title>libraries/AP_ADC/AP_ADC_HIL.h</title>
<polygon fill="white" stroke="none" points="-4,4 -4,-596 1513,-596 1513,4 -4,4"/>
<!-- Node1 -->
<g id="node1" class="node"><title>Node1</title>
<polygon fill="#bfbfbf" stroke="black" points="323,-561 323,-591 433,-591 433,-561 323,-561"/>
<text text-anchor="start" x="331" y="-579" font-family="Helvetica,sans-Serif" font-size="10.00">libraries/AP_ADC/AP</text>
<text text-anchor="middle" x="378" y="-568" font-family="Helvetica,sans-Serif" font-size="10.00">_ADC_HIL.h</text>
</g>
<!-- Node2 -->
<g id="node2" class="node"><title>Node2</title>
<polygon fill="white" stroke="#bfbfbf" points="27.5,-56.5 27.5,-75.5 86.5,-75.5 86.5,-56.5 27.5,-56.5"/>
<text text-anchor="middle" x="57" y="-63.5" font-family="Helvetica,sans-Serif" font-size="10.00">inttypes.h</text>
</g>
<!-- Node1&#45;&gt;Node2 -->
<g id="edge1" class="edge"><title>Node1&#45;&gt;Node2</title>
<path fill="none" stroke="midnightblue" d="M322.631,-569.646C217.638,-557.952 0,-525.672 0,-459 0,-459 0,-459 0,-177 0,-140.3 25.321,-103.657 42.2099,-83.2973"/>
<polygon fill="midnightblue" stroke="midnightblue" points="44.9535,-85.475 48.8333,-75.6161 39.6522,-80.9037 44.9535,-85.475"/>
</g>
<!-- Node3 -->
<g id="node3" class="node"><title>Node3</title>
<g id="a_node3"><a xlink:href="$AP__ADC_8h.html" xlink:title="AP_ADC.h">
<polygon fill="white" stroke="black" points="345.5,-504.5 345.5,-523.5 410.5,-523.5 410.5,-504.5 345.5,-504.5"/>
<text text-anchor="middle" x="378" y="-511.5" font-family="Helvetica,sans-Serif" font-size="10.00">AP_ADC.h</text>
</a>
</g>
</g>
<!-- Node1&#45;&gt;Node3 -->
<g id="edge2" class="edge"><title>Node1&#45;&gt;Node3</title>
<path fill="none" stroke="midnightblue" d="M372.16,-560.781C371.13,-552.691 370.974,-542.462 371.693,-533.725"/>
<polygon fill="midnightblue" stroke="midnightblue" points="375.172,-534.115 373.071,-523.731 368.238,-533.159 375.172,-534.115"/>
</g>
<!-- Node3&#45;&gt;Node1 -->
<g id="edge79" class="edge"><title>Node3&#45;&gt;Node1</title>
<path fill="none" stroke="midnightblue" d="M382.929,-523.731C384.435,-530.786 385.007,-541.074 384.645,-550.586"/>
<polygon fill="midnightblue" stroke="midnightblue" points="381.138,-550.536 383.84,-560.781 388.116,-551.087 381.138,-550.536"/>
</g>
<!-- Node4 -->
<g id="node4" class="node"><title>Node4</title>
<g id="a_node4"><a xlink:href="$AP__Common_8h.html" xlink:title="Common definitions and utility routines for the ArduPilot libraries. ">
<polygon fill="white" stroke="black" points="1363.5,-392.5 1363.5,-411.5 1446.5,-411.5 1446.5,-392.5 1363.5,-392.5"/>
<text text-anchor="middle" x="1405" y="-399.5" font-family="Helvetica,sans-Serif" font-size="10.00">AP_Common.h</text>
</a>
</g>
</g>
<!-- Node3&#45;&gt;Node4 -->
<g id="edge3" class="edge"><title>Node3&#45;&gt;Node4</title>
<path fill="none" stroke="midnightblue" d="M410.719,-509.496C559.236,-493.588 1170.58,-428.108 1353.23,-408.544"/>
<polygon fill="midnightblue" stroke="midnightblue" points="1353.81,-412.003 1363.38,-407.458 1353.07,-405.043 1353.81,-412.003"/>
</g>
<!-- Node8 -->
<g id="node8" class="node"><title>Node8</title>
<g id="a_node8"><a xlink:href="$AP__ADC__ADS7844_8h.html" xlink:title="AP_ADC_ADS7844.h">
<polygon fill="white" stroke="black" points="256.5,-448.5 256.5,-467.5 369.5,-467.5 369.5,-448.5 256.5,-448.5"/>
<text text-anchor="middle" x="313" y="-455.5" font-family="Helvetica,sans-Serif" font-size="10.00">AP_ADC_ADS7844.h</text>
</a>
</g>
</g>
<!-- Node3&#45;&gt;Node8 -->
<g id="edge7" class="edge"><title>Node3&#45;&gt;Node8</title>
<path fill="none" stroke="midnightblue" d="M362.442,-504.324C351.216,-496.42 336.558,-484.548 325.965,-474.938"/>
<polygon fill="midnightblue" stroke="midnightblue" points="328.146,-472.182 318.485,-467.834 323.326,-477.258 328.146,-472.182"/>
</g>
<!-- Node33 -->
<g id="node33" class="node"><title>Node33</title>
<g id="a_node33"><a xlink:href="$AP__ADC__ADS1115_8h.html" xlink:title="AP_ADC_ADS1115.h">
<polygon fill="white" stroke="black" points="387.5,-448.5 387.5,-467.5 500.5,-467.5 500.5,-448.5 387.5,-448.5"/>
<text text-anchor="middle" x="444" y="-455.5" font-family="Helvetica,sans-Serif" font-size="10.00">AP_ADC_ADS1115.h</text>
</a>
</g>
</g>
<!-- Node3&#45;&gt;Node33 -->
<g id="edge75" class="edge"><title>Node3&#45;&gt;Node33</title>
<path fill="none" stroke="midnightblue" d="M383.732,-504.083C392.132,-495.777 407.149,-483.246 420.214,-473.502"/>
<polygon fill="midnightblue" stroke="midnightblue" points="422.369,-476.264 428.429,-467.573 418.272,-470.587 422.369,-476.264"/>
</g>
<!-- Node5 -->
<g id="node5" class="node"><title>Node5</title>
<polygon fill="white" stroke="#bfbfbf" points="1123.5,-56.5 1123.5,-75.5 1172.5,-75.5 1172.5,-56.5 1123.5,-56.5"/>
<text text-anchor="middle" x="1148" y="-63.5" font-family="Helvetica,sans-Serif" font-size="10.00">stdint.h</text>
</g>
<!-- Node4&#45;&gt;Node5 -->
<g id="edge4" class="edge"><title>Node4&#45;&gt;Node5</title>
<path fill="none" stroke="midnightblue" d="M1408.78,-392.351C1416.42,-374.034 1433,-329.821 1433,-291 1433,-291 1433,-291 1433,-177 1433,-141.088 1415.4,-131.112 1385,-112 1351.79,-91.1224 1240.26,-76.7025 1182.83,-70.4693"/>
<polygon fill="midnightblue" stroke="midnightblue" points="1183.08,-66.9763 1172.77,-69.401 1182.34,-73.9371 1183.08,-66.9763"/>
</g>
<!-- Node6 -->
<g id="node6" class="node"><title>Node6</title>
<polygon fill="white" stroke="#bfbfbf" points="1461,-336.5 1461,-355.5 1509,-355.5 1509,-336.5 1461,-336.5"/>
<text text-anchor="middle" x="1485" y="-343.5" font-family="Helvetica,sans-Serif" font-size="10.00">stdlib.h</text>
</g>
<!-- Node4&#45;&gt;Node6 -->
<g id="edge5" class="edge"><title>Node4&#45;&gt;Node6</title>
<path fill="none" stroke="midnightblue" d="M1417.85,-392.324C1430.22,-383.979 1449.13,-371.212 1463.74,-361.352"/>
<polygon fill="midnightblue" stroke="midnightblue" points="1465.85,-364.15 1472.18,-355.655 1461.93,-358.348 1465.85,-364.15"/>
</g>
<!-- Node7 -->
<g id="node7" class="node"><title>Node7</title>
<polygon fill="white" stroke="#bfbfbf" points="1349,-336.5 1349,-355.5 1405,-355.5 1405,-336.5 1349,-336.5"/>
<text text-anchor="middle" x="1377" y="-343.5" font-family="Helvetica,sans-Serif" font-size="10.00">stdbool.h</text>
</g>
<!-- Node4&#45;&gt;Node7 -->
<g id="edge6" class="edge"><title>Node4&#45;&gt;Node7</title>
<path fill="none" stroke="midnightblue" d="M1400.38,-392.083C1396.54,-384.691 1390.98,-373.953 1386.24,-364.811"/>
<polygon fill="midnightblue" stroke="midnightblue" points="1389.25,-363.018 1381.54,-355.751 1383.03,-366.24 1389.25,-363.018"/>
</g>
<!-- Node8&#45;&gt;Node2 -->
<g id="edge8" class="edge"><title>Node8&#45;&gt;Node2</title>
<path fill="none" stroke="midnightblue" d="M256.247,-453.311C191.473,-448.008 90.7632,-436.092 62,-412 38.392,-392.226 38,-377.795 38,-347 38,-347 38,-347 38,-177 38,-144.489 46.159,-107.35 51.7838,-85.6103"/>
<polygon fill="midnightblue" stroke="midnightblue" points="55.218,-86.3175 54.4376,-75.7514 48.4586,-84.498 55.218,-86.3175"/>
</g>
<!-- Node8&#45;&gt;Node3 -->
<g id="edge9" class="edge"><title>Node8&#45;&gt;Node3</title>
<path fill="none" stroke="midnightblue" d="M328.665,-467.751C339.853,-475.639 354.414,-487.433 364.969,-497.002"/>
<polygon fill="midnightblue" stroke="midnightblue" points="362.769,-499.74 372.433,-504.083 367.587,-494.662 362.769,-499.74"/>
</g>
<!-- Node9 -->
<g id="node9" class="node"><title>Node9</title>
<g id="a_node9"><a xlink:href="$AP__HAL_8h.html" xlink:title="AP_HAL.h">
<polygon fill="white" stroke="black" points="639.5,-392.5 639.5,-411.5 702.5,-411.5 702.5,-392.5 639.5,-392.5"/>
<text text-anchor="middle" x="671" y="-399.5" font-family="Helvetica,sans-Serif" font-size="10.00">AP_HAL.h</text>
</a>
</g>
</g>
<!-- Node8&#45;&gt;Node9 -->
<g id="edge10" class="edge"><title>Node8&#45;&gt;Node9</title>
<path fill="none" stroke="midnightblue" d="M369.726,-448.444C441.817,-437.57 564.593,-419.05 628.894,-409.351"/>
<polygon fill="midnightblue" stroke="midnightblue" points="629.704,-412.769 639.07,-407.816 628.66,-405.847 629.704,-412.769"/>
</g>
<!-- Node9&#45;&gt;Node5 -->
<g id="edge11" class="edge"><title>Node9&#45;&gt;Node5</title>
<path fill="none" stroke="midnightblue" d="M702.513,-398.938C772.933,-393.954 940.885,-379.873 992,-356 1092.93,-308.861 1122.3,-284.468 1178,-188 1195.1,-158.386 1202.54,-143.814 1190,-112 1185.49,-100.548 1176.53,-90.291 1168.05,-82.4724"/>
<polygon fill="midnightblue" stroke="midnightblue" points="1170.09,-79.6113 1160.21,-75.7638 1165.53,-84.9275 1170.09,-79.6113"/>
</g>
<!-- Node9&#45;&gt;Node7 -->
<g id="edge12" class="edge"><title>Node9&#45;&gt;Node7</title>
<path fill="none" stroke="midnightblue" d="M702.617,-400.464C798.345,-398.498 1093.28,-389.91 1335,-356 1336.25,-355.825 1337.51,-355.634 1338.79,-355.43"/>
<polygon fill="midnightblue" stroke="midnightblue" points="1339.41,-358.874 1348.63,-353.655 1338.17,-351.985 1339.41,-358.874"/>
</g>
<!-- Node10 -->
<g id="node10" class="node"><title>Node10</title>
<g id="a_node10"><a xlink:href="$AP__HAL__Namespace_8h.html" xlink:title="AP_HAL_Namespace.h">
<polygon fill="white" stroke="black" points="479.5,-56.5 479.5,-75.5 600.5,-75.5 600.5,-56.5 479.5,-56.5"/>
<text text-anchor="middle" x="540" y="-63.5" font-family="Helvetica,sans-Serif" font-size="10.00">AP_HAL_Namespace.h</text>
</a>
</g>
</g>
<!-- Node9&#45;&gt;Node10 -->
<g id="edge13" class="edge"><title>Node9&#45;&gt;Node10</title>
<path fill="none" stroke="midnightblue" d="M639.494,-399.645C566.915,-396.065 390.239,-384.589 339,-356 310.873,-340.306 306.992,-329.011 293,-300 267.097,-246.292 246.181,-223.09 269,-168 282.47,-135.481 294.041,-128.747 325,-112 369.499,-87.9287 425.617,-76.721 469.361,-71.509"/>
<polygon fill="midnightblue" stroke="midnightblue" points="469.795,-74.9823 479.347,-70.3969 469.021,-68.0253 469.795,-74.9823"/>
</g>
<!-- Node13 -->
<g id="node13" class="node"><title>Node13</title>
<g id="a_node13"><a xlink:href="$AP__HAL__Boards_8h.html" xlink:title="AP_HAL_Boards.h">
<polygon fill="white" stroke="black" points="1259.5,-112.5 1259.5,-131.5 1358.5,-131.5 1358.5,-112.5 1259.5,-112.5"/>
<text text-anchor="middle" x="1309" y="-119.5" font-family="Helvetica,sans-Serif" font-size="10.00">AP_HAL_Boards.h</text>
</a>
</g>
</g>
<!-- Node9&#45;&gt;Node13 -->
<g id="edge16" class="edge"><title>Node9&#45;&gt;Node13</title>
<path fill="none" stroke="midnightblue" d="M702.668,-400.248C817.518,-397.292 1207.88,-385.17 1255,-356 1304.32,-325.469 1306.55,-299.91 1322,-244 1331.81,-208.503 1322.23,-165.249 1315.12,-141.258"/>
<polygon fill="midnightblue" stroke="midnightblue" points="1318.45,-140.174 1312.11,-131.687 1311.77,-142.277 1318.45,-140.174"/>
</g>
<!-- Node14 -->
<g id="node14" class="node"><title>Node14</title>
<g id="a_node14"><a xlink:href="$AP__HAL__Macros_8h.html" xlink:title="AP_HAL_Macros.h">
<polygon fill="white" stroke="black" points="817.5,-336.5 817.5,-355.5 918.5,-355.5 918.5,-336.5 817.5,-336.5"/>
<text text-anchor="middle" x="868" y="-343.5" font-family="Helvetica,sans-Serif" font-size="10.00">AP_HAL_Macros.h</text>
</a>
</g>
</g>
<!-- Node9&#45;&gt;Node14 -->
<g id="edge17" class="edge"><title>Node9&#45;&gt;Node14</title>
<path fill="none" stroke="midnightblue" d="M702.215,-392.444C735.933,-383.201 789.8,-368.436 826.932,-358.257"/>
<polygon fill="midnightblue" stroke="midnightblue" points="828.212,-361.536 836.931,-355.516 826.361,-354.785 828.212,-361.536"/>
</g>
<!-- Node15 -->
<g id="node15" class="node"><title>Node15</title>
<g id="a_node15"><a xlink:href="$UARTDriver_8h.html" xlink:title="UARTDriver.h">
<polygon fill="white" stroke="black" points="514.5,-280.5 514.5,-299.5 593.5,-299.5 593.5,-280.5 514.5,-280.5"/>
<text text-anchor="middle" x="554" y="-287.5" font-family="Helvetica,sans-Serif" font-size="10.00">UARTDriver.h</text>
</a>
</g>
</g>
<!-- Node9&#45;&gt;Node15 -->
<g id="edge18" class="edge"><title>Node9&#45;&gt;Node15</title>
<path fill="none" stroke="midnightblue" d="M661.819,-392.368C642.169,-373.894 595.793,-330.293 570.745,-306.744"/>
<polygon fill="midnightblue" stroke="midnightblue" points="572.821,-303.891 563.138,-299.591 568.026,-308.991 572.821,-303.891"/>
</g>
<!-- Node16 -->
<g id="node16" class="node"><title>Node16</title>
<g id="a_node16"><a xlink:href="$BetterStream_8h.html" xlink:title="utility/BetterStream.h">
<polygon fill="white" stroke="black" points="428.5,-224.5 428.5,-243.5 537.5,-243.5 537.5,-224.5 428.5,-224.5"/>
<text text-anchor="middle" x="483" y="-231.5" font-family="Helvetica,sans-Serif" font-size="10.00">utility/BetterStream.h</text>
</a>
</g>
</g>
<!-- Node9&#45;&gt;Node16 -->
<g id="edge65" class="edge"><title>Node9&#45;&gt;Node16</title>
<path fill="none" stroke="midnightblue" d="M646.731,-392.46C610.718,-378.584 543.275,-347.791 505,-300 494.305,-286.646 488.686,-267.819 485.814,-253.863"/>
<polygon fill="midnightblue" stroke="midnightblue" points="489.242,-253.149 484.054,-243.911 482.349,-254.368 489.242,-253.149"/>
</g>
<!-- Node18 -->
<g id="node18" class="node"><title>Node18</title>
<g id="a_node18"><a xlink:href="$Stream_8h.html" xlink:title="Stream.h">
<polygon fill="white" stroke="black" points="278,-168.5 278,-187.5 334,-187.5 334,-168.5 278,-168.5"/>
<text text-anchor="middle" x="306" y="-175.5" font-family="Helvetica,sans-Serif" font-size="10.00">Stream.h</text>
</a>
</g>
</g>
<!-- Node9&#45;&gt;Node18 -->
<g id="edge64" class="edge"><title>Node9&#45;&gt;Node18</title>
<path fill="none" stroke="midnightblue" d="M639.268,-399.007C588.822,-395.089 487.781,-384.163 407,-356 358.167,-338.975 331.338,-344.507 305,-300 286.081,-268.03 293.776,-222.493 300.344,-197.386"/>
<polygon fill="midnightblue" stroke="midnightblue" points="303.732,-198.268 303.096,-187.692 296.998,-196.356 303.732,-198.268"/>
</g>
<!-- Node19 -->
<g id="node19" class="node"><title>Node19</title>
<g id="a_node19"><a xlink:href="$Print_8h.html" xlink:title="Print.h">
<polygon fill="white" stroke="black" points="138.5,-112.5 138.5,-131.5 183.5,-131.5 183.5,-112.5 138.5,-112.5"/>
<text text-anchor="middle" x="161" y="-119.5" font-family="Helvetica,sans-Serif" font-size="10.00">Print.h</text>
</a>
</g>
</g>
<!-- Node9&#45;&gt;Node19 -->
<g id="edge63" class="edge"><title>Node9&#45;&gt;Node19</title>
<path fill="none" stroke="midnightblue" d="M639.457,-401.535C521.628,-402.7 114,-398.933 114,-291 114,-291 114,-291 114,-233 114,-197.702 134.718,-160.786 148.644,-139.96"/>
<polygon fill="midnightblue" stroke="midnightblue" points="151.63,-141.796 154.465,-131.587 145.883,-137.8 151.63,-141.796"/>
</g>
<!-- Node22 -->
<g id="node22" class="node"><title>Node22</title>
<g id="a_node22"><a xlink:href="$I2CDriver_8h.html" xlink:title="I2CDriver.h">
<polygon fill="white" stroke="black" points="917.5,-112.5 917.5,-131.5 984.5,-131.5 984.5,-112.5 917.5,-112.5"/>
<text text-anchor="middle" x="951" y="-119.5" font-family="Helvetica,sans-Serif" font-size="10.00">I2CDriver.h</text>
</a>
</g>
</g>
<!-- Node9&#45;&gt;Node22 -->
<g id="edge35" class="edge"><title>Node9&#45;&gt;Node22</title>
<path fill="none" stroke="midnightblue" d="M702.651,-400.081C770.693,-397.506 928.048,-388.144 969,-356 1034.57,-304.531 983.296,-185.594 960.494,-140.639"/>
<polygon fill="midnightblue" stroke="midnightblue" points="963.598,-139.021 955.872,-131.77 957.39,-142.256 963.598,-139.021"/>
</g>
<!-- Node23 -->
<g id="node23" class="node"><title>Node23</title>
<g id="a_node23"><a xlink:href="$SPIDriver_8h.html" xlink:title="SPIDriver.h">
<polygon fill="white" stroke="black" points="775,-280.5 775,-299.5 843,-299.5 843,-280.5 775,-280.5"/>
<text text-anchor="middle" x="809" y="-287.5" font-family="Helvetica,sans-Serif" font-size="10.00">SPIDriver.h</text>
</a>
</g>
</g>
<!-- Node9&#45;&gt;Node23 -->
<g id="edge38" class="edge"><title>Node9&#45;&gt;Node23</title>
<path fill="none" stroke="midnightblue" d="M681.829,-392.368C705.308,-373.653 761.138,-329.151 790.392,-305.832"/>
<polygon fill="midnightblue" stroke="midnightblue" points="792.584,-308.561 798.222,-299.591 788.22,-303.088 792.584,-308.561"/>
</g>
<!-- Node24 -->
<g id="node24" class="node"><title>Node24</title>
<g id="a_node24"><a xlink:href="$AnalogIn_8h.html" xlink:title="AnalogIn.h">
<polygon fill="white" stroke="black" points="314.5,-280.5 314.5,-299.5 377.5,-299.5 377.5,-280.5 314.5,-280.5"/>
<text text-anchor="middle" x="346" y="-287.5" font-family="Helvetica,sans-Serif" font-size="10.00">AnalogIn.h</text>
</a>
</g>
</g>
<!-- Node9&#45;&gt;Node24 -->
<g id="edge40" class="edge"><title>Node9&#45;&gt;Node24</title>
<path fill="none" stroke="midnightblue" d="M639.454,-398.232C595.457,-393.571 513.785,-381.987 449,-356 417.345,-343.303 384.691,-320.802 364.862,-305.892"/>
<polygon fill="midnightblue" stroke="midnightblue" points="366.77,-302.944 356.704,-299.638 362.511,-308.499 366.77,-302.944"/>
</g>
<!-- Node25 -->
<g id="node25" class="node"><title>Node25</title>
<g id="a_node25"><a xlink:href="$Storage_8h.html" xlink:title="Storage.h">
<polygon fill="white" stroke="black" points="888.5,-224.5 888.5,-243.5 947.5,-243.5 947.5,-224.5 888.5,-224.5"/>
<text text-anchor="middle" x="918" y="-231.5" font-family="Helvetica,sans-Serif" font-size="10.00">Storage.h</text>
</a>
</g>
</g>
<!-- Node9&#45;&gt;Node25 -->
<g id="edge42" class="edge"><title>Node9&#45;&gt;Node25</title>
<path fill="none" stroke="midnightblue" d="M702.86,-400.292C764.983,-398.168 898.71,-389.697 927,-356 951.404,-326.932 936.998,-278.843 926.324,-252.907"/>
<polygon fill="midnightblue" stroke="midnightblue" points="929.448,-251.316 922.235,-243.556 923.034,-254.12 929.448,-251.316"/>
</g>
<!-- Node26 -->
<g id="node26" class="node"><title>Node26</title>
<g id="a_node26"><a xlink:href="$GPIO_8h.html" xlink:title="GPIO.h">
<polygon fill="white" stroke="black" points="858,-168.5 858,-187.5 908,-187.5 908,-168.5 858,-168.5"/>
<text text-anchor="middle" x="883" y="-175.5" font-family="Helvetica,sans-Serif" font-size="10.00">GPIO.h</text>
</a>
</g>
</g>
<!-- Node9&#45;&gt;Node26 -->
<g id="edge45" class="edge"><title>Node9&#45;&gt;Node26</title>
<path fill="none" stroke="midnightblue" d="M702.536,-400.524C767.807,-398.829 914.352,-391.108 947,-356 987.044,-312.939 984.665,-275.343 956,-224 947.665,-209.071 932.117,-198.48 917.505,-191.34"/>
<polygon fill="midnightblue" stroke="midnightblue" points="918.681,-188.031 908.124,-187.135 915.818,-194.419 918.681,-188.031"/>
</g>
<!-- Node27 -->
<g id="node27" class="node"><title>Node27</title>
<g id="a_node27"><a xlink:href="$RCInput_8h.html" xlink:title="RCInput.h">
<polygon fill="white" stroke="black" points="396,-280.5 396,-299.5 458,-299.5 458,-280.5 396,-280.5"/>
<text text-anchor="middle" x="427" y="-287.5" font-family="Helvetica,sans-Serif" font-size="10.00">RCInput.h</text>
</a>
</g>
</g>
<!-- Node9&#45;&gt;Node27 -->
<g id="edge48" class="edge"><title>Node9&#45;&gt;Node27</title>
<path fill="none" stroke="midnightblue" d="M639.27,-400.752C597.504,-398.977 523.375,-390.683 472,-356 454.809,-344.394 442.232,-323.839 434.813,-308.945"/>
<polygon fill="midnightblue" stroke="midnightblue" points="437.908,-307.3 430.508,-299.718 431.565,-310.26 437.908,-307.3"/>
</g>
<!-- Node28 -->
<g id="node28" class="node"><title>Node28</title>
<g id="a_node28"><a xlink:href="$RCOutput_8h.html" xlink:title="RCOutput.h">
<polygon fill="white" stroke="black" points="611.5,-280.5 611.5,-299.5 680.5,-299.5 680.5,-280.5 611.5,-280.5"/>
<text text-anchor="middle" x="646" y="-287.5" font-family="Helvetica,sans-Serif" font-size="10.00">RCOutput.h</text>
</a>
</g>
</g>
<!-- Node9&#45;&gt;Node28 -->
<g id="edge50" class="edge"><title>Node9&#45;&gt;Node28</title>
<path fill="none" stroke="midnightblue" d="M669.038,-392.368C665.004,-374.617 655.697,-333.666 650.227,-309.597"/>
<polygon fill="midnightblue" stroke="midnightblue" points="653.582,-308.567 647.953,-299.591 646.756,-310.118 653.582,-308.567"/>
</g>
<!-- Node29 -->
<g id="node29" class="node"><title>Node29</title>
<g id="a_node29"><a xlink:href="$Scheduler_8h.html" xlink:title="Scheduler.h">
<polygon fill="white" stroke="black" points="1245,-224.5 1245,-243.5 1313,-243.5 1313,-224.5 1245,-224.5"/>
<text text-anchor="middle" x="1279" y="-231.5" font-family="Helvetica,sans-Serif" font-size="10.00">Scheduler.h</text>
</a>
</g>
</g>
<!-- Node9&#45;&gt;Node29 -->
<g id="edge52" class="edge"><title>Node9&#45;&gt;Node29</title>
<path fill="none" stroke="midnightblue" d="M702.68,-400.384C814.805,-397.942 1188.4,-387.494 1231,-356 1263.91,-331.664 1274.28,-281.194 1277.53,-253.753"/>
<polygon fill="midnightblue" stroke="midnightblue" points="1281.04,-253.839 1278.53,-243.545 1274.07,-253.156 1281.04,-253.839"/>
</g>
<!-- Node30 -->
<g id="node30" class="node"><title>Node30</title>
<g id="a_node30"><a xlink:href="$Semaphores_8h.html" xlink:title="Semaphores.h">
<polygon fill="white" stroke="black" points="142,-224.5 142,-243.5 222,-243.5 222,-224.5 142,-224.5"/>
<text text-anchor="middle" x="182" y="-231.5" font-family="Helvetica,sans-Serif" font-size="10.00">Semaphores.h</text>
</a>
</g>
</g>
<!-- Node9&#45;&gt;Node30 -->
<g id="edge57" class="edge"><title>Node9&#45;&gt;Node30</title>
<path fill="none" stroke="midnightblue" d="M639.26,-399.574C544.232,-395.053 266.534,-379.909 234,-356 200.629,-331.476 188.449,-281.084 184.179,-253.704"/>
<polygon fill="midnightblue" stroke="midnightblue" points="187.61,-252.959 182.794,-243.521 180.673,-253.902 187.61,-252.959"/>
</g>
<!-- Node31 -->
<g id="node31" class="node"><title>Node31</title>
<g id="a_node31"><a xlink:href="$Util_8h.html" xlink:title="Util.h">
<polygon fill="white" stroke="black" points="823,-224.5 823,-243.5 863,-243.5 863,-224.5 823,-224.5"/>
<text text-anchor="middle" x="843" y="-231.5" font-family="Helvetica,sans-Serif" font-size="10.00">Util.h</text>
</a>
</g>
</g>
<!-- Node9&#45;&gt;Node31 -->
<g id="edge59" class="edge"><title>Node9&#45;&gt;Node31</title>
<path fill="none" stroke="midnightblue" d="M688.586,-392.471C732.245,-371.122 842.743,-315.951 852,-300 860.293,-285.71 856.301,-266.749 851.282,-252.996"/>
<polygon fill="midnightblue" stroke="midnightblue" points="854.479,-251.568 847.43,-243.658 848.008,-254.237 854.479,-251.568"/>
</g>
<!-- Node32 -->
<g id="node32" class="node"><title>Node32</title>
<g id="a_node32"><a xlink:href="$HAL_8h.html" xlink:title="HAL.h">
<polygon fill="white" stroke="black" points="674,-336.5 674,-355.5 718,-355.5 718,-336.5 674,-336.5"/>
<text text-anchor="middle" x="696" y="-343.5" font-family="Helvetica,sans-Serif" font-size="10.00">HAL.h</text>
</a>
</g>
</g>
<!-- Node9&#45;&gt;Node32 -->
<g id="edge66" class="edge"><title>Node9&#45;&gt;Node32</title>
<path fill="none" stroke="midnightblue" d="M675.128,-392.083C678.514,-384.77 683.416,-374.181 687.619,-365.103"/>
<polygon fill="midnightblue" stroke="midnightblue" points="690.923,-366.296 691.949,-355.751 684.571,-363.355 690.923,-366.296"/>
</g>
<!-- Node11 -->
<g id="node11" class="node"><title>Node11</title>
<polygon fill="white" stroke="#bfbfbf" points="564.5,-0.5 564.5,-19.5 613.5,-19.5 613.5,-0.5 564.5,-0.5"/>
<text text-anchor="middle" x="589" y="-7.5" font-family="Helvetica,sans-Serif" font-size="10.00">string.h</text>
</g>
<!-- Node10&#45;&gt;Node11 -->
<g id="edge14" class="edge"><title>Node10&#45;&gt;Node11</title>
<path fill="none" stroke="midnightblue" d="M548.091,-56.083C555.155,-48.2982 565.588,-36.8015 574.149,-27.3665"/>
<polygon fill="midnightblue" stroke="midnightblue" points="576.931,-29.5087 581.059,-19.7511 571.747,-24.8047 576.931,-29.5087"/>
</g>
<!-- Node12 -->
<g id="node12" class="node"><title>Node12</title>
<g id="a_node12"><a xlink:href="$FastDelegate_8h.html" xlink:title="utility/FastDelegate.h">
<polygon fill="white" stroke="black" points="436,-0.5 436,-19.5 546,-19.5 546,-0.5 436,-0.5"/>
<text text-anchor="middle" x="491" y="-7.5" font-family="Helvetica,sans-Serif" font-size="10.00">utility/FastDelegate.h</text>
</a>
</g>
</g>
<!-- Node10&#45;&gt;Node12 -->
<g id="edge15" class="edge"><title>Node10&#45;&gt;Node12</title>
<path fill="none" stroke="midnightblue" d="M531.909,-56.083C524.845,-48.2982 514.412,-36.8015 505.851,-27.3665"/>
<polygon fill="midnightblue" stroke="midnightblue" points="508.253,-24.8047 498.941,-19.7511 503.069,-29.5087 508.253,-24.8047"/>
</g>
<!-- Node15&#45;&gt;Node5 -->
<g id="edge19" class="edge"><title>Node15&#45;&gt;Node5</title>
<path fill="none" stroke="midnightblue" d="M566.771,-280.356C610.033,-251.505 755.838,-157.769 890,-112 967.136,-85.6855 1062.74,-74.1592 1113.14,-69.6132"/>
<polygon fill="midnightblue" stroke="midnightblue" points="1113.52,-73.0934 1123.18,-68.7463 1112.92,-66.1193 1113.52,-73.0934"/>
</g>
<!-- Node15&#45;&gt;Node10 -->
<g id="edge20" class="edge"><title>Node15&#45;&gt;Node10</title>
<path fill="none" stroke="midnightblue" d="M553.091,-280.364C551.286,-262.927 547.233,-222.256 545,-188 542.638,-151.76 541.187,-109.336 540.493,-85.5735"/>
<polygon fill="midnightblue" stroke="midnightblue" points="543.99,-85.4144 540.213,-75.5159 536.993,-85.6097 543.99,-85.4144"/>
</g>
<!-- Node15&#45;&gt;Node16 -->
<g id="edge21" class="edge"><title>Node15&#45;&gt;Node16</title>
<path fill="none" stroke="midnightblue" d="M542.593,-280.324C531.891,-272.185 515.659,-259.839 502.837,-250.087"/>
<polygon fill="midnightblue" stroke="midnightblue" points="504.693,-247.102 494.615,-243.834 500.456,-252.673 504.693,-247.102"/>
</g>
<!-- Node16&#45;&gt;Node10 -->
<g id="edge23" class="edge"><title>Node16&#45;&gt;Node10</title>
<path fill="none" stroke="midnightblue" d="M483.429,-224.406C484.711,-204.044 489.586,-151.601 507,-112 511.525,-101.71 518.727,-91.5031 525.25,-83.4182"/>
<polygon fill="midnightblue" stroke="midnightblue" points="528.104,-85.4646 531.903,-75.5744 522.766,-80.9367 528.104,-85.4646"/>
</g>
<!-- Node17 -->
<g id="node17" class="node"><title>Node17</title>
<polygon fill="white" stroke="#bfbfbf" points="587,-168.5 587,-187.5 639,-187.5 639,-168.5 587,-168.5"/>
<text text-anchor="middle" x="613" y="-175.5" font-family="Helvetica,sans-Serif" font-size="10.00">stdarg.h</text>
</g>
<!-- Node16&#45;&gt;Node17 -->
<g id="edge22" class="edge"><title>Node16&#45;&gt;Node17</title>
<path fill="none" stroke="midnightblue" d="M503.599,-224.444C524.993,-215.557 558.681,-201.563 583.024,-191.451"/>
<polygon fill="midnightblue" stroke="midnightblue" points="584.605,-194.585 592.497,-187.516 581.92,-188.12 584.605,-194.585"/>
</g>
<!-- Node16&#45;&gt;Node18 -->
<g id="edge24" class="edge"><title>Node16&#45;&gt;Node18</title>
<path fill="none" stroke="midnightblue" d="M454.954,-224.444C424.918,-215.28 377.087,-200.688 343.757,-190.519"/>
<polygon fill="midnightblue" stroke="midnightblue" points="344.501,-187.087 333.915,-187.516 342.458,-193.782 344.501,-187.087"/>
</g>
<!-- Node20 -->
<g id="node20" class="node"><title>Node20</title>
<g id="a_node20"><a xlink:href="$AP__Progmem_8h.html" xlink:title="AP_Progmem.h">
<polygon fill="white" stroke="black" points="1060,-168.5 1060,-187.5 1146,-187.5 1146,-168.5 1060,-168.5"/>
<text text-anchor="middle" x="1103" y="-175.5" font-family="Helvetica,sans-Serif" font-size="10.00">AP_Progmem.h</text>
</a>
</g>
</g>
<!-- Node16&#45;&gt;Node20 -->
<g id="edge30" class="edge"><title>Node16&#45;&gt;Node20</title>
<path fill="none" stroke="midnightblue" d="M537.749,-228.232C655.812,-217.949 933.09,-193.799 1049.77,-183.636"/>
<polygon fill="midnightblue" stroke="midnightblue" points="1050.23,-187.109 1059.89,-182.755 1049.62,-180.136 1050.23,-187.109"/>
</g>
<!-- Node18&#45;&gt;Node10 -->
<g id="edge25" class="edge"><title>Node18&#45;&gt;Node10</title>
<path fill="none" stroke="midnightblue" d="M309.121,-168.306C314.656,-154.183 327.57,-126.391 348,-112 383.329,-87.1143 430.495,-75.8289 469.237,-70.7823"/>
<polygon fill="midnightblue" stroke="midnightblue" points="469.89,-74.2295 479.407,-69.5736 469.063,-67.2784 469.89,-74.2295"/>
</g>
<!-- Node18&#45;&gt;Node19 -->
<g id="edge26" class="edge"><title>Node18&#45;&gt;Node19</title>
<path fill="none" stroke="midnightblue" d="M283.024,-168.444C258.843,-159.438 220.582,-145.189 193.354,-135.049"/>
<polygon fill="midnightblue" stroke="midnightblue" points="194.461,-131.727 183.868,-131.516 192.018,-138.286 194.461,-131.727"/>
</g>
<!-- Node19&#45;&gt;Node2 -->
<g id="edge28" class="edge"><title>Node19&#45;&gt;Node2</title>
<path fill="none" stroke="midnightblue" d="M144.291,-112.324C127.688,-103.703 101.998,-90.3643 82.7795,-80.3855"/>
<polygon fill="midnightblue" stroke="midnightblue" points="84.1558,-77.1565 73.6679,-75.6545 80.93,-83.3689 84.1558,-77.1565"/>
</g>
<!-- Node19&#45;&gt;Node10 -->
<g id="edge27" class="edge"><title>Node19&#45;&gt;Node10</title>
<path fill="none" stroke="midnightblue" d="M183.615,-115.09C188.347,-113.969 193.321,-112.874 198,-112 291.28,-94.5707 400.114,-81.4772 469.509,-74.0296"/>
<polygon fill="midnightblue" stroke="midnightblue" points="469.881,-77.5099 479.455,-72.972 469.141,-70.5492 469.881,-77.5099"/>
</g>
<!-- Node19&#45;&gt;Node11 -->
<g id="edge29" class="edge"><title>Node19&#45;&gt;Node11</title>
<path fill="none" stroke="midnightblue" d="M183.668,-115.255C242.769,-100.263 406.644,-58.6041 554.76,-20.0468"/>
<polygon fill="midnightblue" stroke="midnightblue" points="555.697,-23.4196 564.492,-17.5119 553.933,-16.6456 555.697,-23.4196"/>
</g>
<!-- Node20&#45;&gt;Node13 -->
<g id="edge31" class="edge"><title>Node20&#45;&gt;Node13</title>
<path fill="none" stroke="midnightblue" d="M1135.64,-168.444C1171.05,-159.162 1227.71,-144.309 1266.55,-134.127"/>
<polygon fill="midnightblue" stroke="midnightblue" points="1267.73,-137.438 1276.51,-131.516 1265.95,-130.667 1267.73,-137.438"/>
</g>
<!-- Node21 -->
<g id="node21" class="node"><title>Node21</title>
<g id="a_node21"><a xlink:href="$AP__Progmem__Identity_8h.html" xlink:title="AP_Progmem_Identity.h">
<polygon fill="white" stroke="black" points="1041.5,-112.5 1041.5,-131.5 1164.5,-131.5 1164.5,-112.5 1041.5,-112.5"/>
<text text-anchor="middle" x="1103" y="-119.5" font-family="Helvetica,sans-Serif" font-size="10.00">AP_Progmem_Identity.h</text>
</a>
</g>
</g>
<!-- Node20&#45;&gt;Node21 -->
<g id="edge32" class="edge"><title>Node20&#45;&gt;Node21</title>
<path fill="none" stroke="midnightblue" d="M1103,-168.083C1103,-161.006 1103,-150.861 1103,-141.986"/>
<polygon fill="midnightblue" stroke="midnightblue" points="1106.5,-141.751 1103,-131.751 1099.5,-141.751 1106.5,-141.751"/>
</g>
<!-- Node21&#45;&gt;Node5 -->
<g id="edge34" class="edge"><title>Node21&#45;&gt;Node5</title>
<path fill="none" stroke="midnightblue" d="M1110.43,-112.083C1116.85,-104.377 1126.31,-93.0333 1134.12,-83.6531"/>
<polygon fill="midnightblue" stroke="midnightblue" points="1136.99,-85.674 1140.71,-75.7511 1131.62,-81.1927 1136.99,-85.674"/>
</g>
<!-- Node21&#45;&gt;Node11 -->
<g id="edge33" class="edge"><title>Node21&#45;&gt;Node11</title>
<path fill="none" stroke="midnightblue" d="M1063.09,-112.46C965.434,-91.5598 715.686,-38.1119 623.697,-18.4254"/>
<polygon fill="midnightblue" stroke="midnightblue" points="624.293,-14.9738 613.782,-16.3035 622.828,-21.8188 624.293,-14.9738"/>
</g>
<!-- Node22&#45;&gt;Node5 -->
<g id="edge36" class="edge"><title>Node22&#45;&gt;Node5</title>
<path fill="none" stroke="midnightblue" d="M982.215,-112.444C1018.02,-102.63 1076.53,-86.5905 1113.61,-76.4261"/>
<polygon fill="midnightblue" stroke="midnightblue" points="1114.75,-79.7442 1123.47,-73.7251 1112.9,-72.9933 1114.75,-79.7442"/>
</g>
<!-- Node22&#45;&gt;Node10 -->
<g id="edge37" class="edge"><title>Node22&#45;&gt;Node10</title>
<path fill="none" stroke="midnightblue" d="M917.366,-116.581C850.633,-107.813 700.218,-88.0506 610.749,-76.2954"/>
<polygon fill="midnightblue" stroke="midnightblue" points="611.055,-72.8057 600.684,-74.9731 610.143,-79.746 611.055,-72.8057"/>
</g>
<!-- Node23&#45;&gt;Node10 -->
<g id="edge39" class="edge"><title>Node23&#45;&gt;Node10</title>
<path fill="none" stroke="midnightblue" d="M804.349,-280.353C788.358,-251.491 732.546,-157.724 659,-112 635.201,-97.2039 605.762,-86.0207 582.12,-78.5036"/>
<polygon fill="midnightblue" stroke="midnightblue" points="582.963,-75.1011 572.376,-75.5066 580.905,-81.7918 582.963,-75.1011"/>
</g>
<!-- Node24&#45;&gt;Node10 -->
<g id="edge41" class="edge"><title>Node24&#45;&gt;Node10</title>
<path fill="none" stroke="midnightblue" d="M350.512,-280.402C365.083,-253.212 413.302,-167.603 471,-112 483.802,-99.6632 500.441,-88.6966 514.172,-80.6786"/>
<polygon fill="midnightblue" stroke="midnightblue" points="516.145,-83.5839 523.131,-75.6182 512.702,-77.4891 516.145,-83.5839"/>
</g>
<!-- Node25&#45;&gt;Node5 -->
<g id="edge43" class="edge"><title>Node25&#45;&gt;Node5</title>
<path fill="none" stroke="midnightblue" d="M947.613,-231.094C1004.15,-226.873 1124.56,-214.901 1155,-188 1181.01,-165.014 1181.71,-145.602 1173,-112 1170.45,-102.175 1165.25,-92.2118 1160.24,-84.166"/>
<polygon fill="midnightblue" stroke="midnightblue" points="1163.08,-82.1143 1154.63,-75.7252 1157.25,-85.9903 1163.08,-82.1143"/>
</g>
<!-- Node25&#45;&gt;Node10 -->
<g id="edge44" class="edge"><title>Node25&#45;&gt;Node10</title>
<path fill="none" stroke="midnightblue" d="M902.782,-224.441C888.327,-216.002 866.293,-202.322 849,-188 812.929,-158.125 817.17,-134.33 776,-112 724.997,-84.3373 659.74,-73.4505 610.779,-69.276"/>
<polygon fill="midnightblue" stroke="midnightblue" points="610.831,-65.7696 600.59,-68.4835 610.288,-72.7485 610.831,-65.7696"/>
</g>
<!-- Node26&#45;&gt;Node5 -->
<g id="edge46" class="edge"><title>Node26&#45;&gt;Node5</title>
<path fill="none" stroke="midnightblue" d="M883.709,-168.306C885.353,-154.184 890.72,-126.392 908,-112 938.665,-86.4588 1054.04,-74.1459 1112.94,-69.4189"/>
<polygon fill="midnightblue" stroke="midnightblue" points="1113.55,-72.8827 1123.25,-68.6231 1113.01,-65.9034 1113.55,-72.8827"/>
</g>
<!-- Node26&#45;&gt;Node10 -->
<g id="edge47" class="edge"><title>Node26&#45;&gt;Node10</title>
<path fill="none" stroke="midnightblue" d="M878.16,-168.099C869.803,-153.678 851.212,-125.467 827,-112 790.902,-91.9228 683.505,-79.1154 610.825,-72.4942"/>
<polygon fill="midnightblue" stroke="midnightblue" points="611.083,-69.0033 600.811,-71.6008 610.461,-75.9757 611.083,-69.0033"/>
</g>
<!-- Node27&#45;&gt;Node10 -->
<g id="edge49" class="edge"><title>Node27&#45;&gt;Node10</title>
<path fill="none" stroke="midnightblue" d="M423.683,-280.378C419.316,-267.729 412.871,-243.526 419,-224 438.136,-163.038 493.164,-107.918 521.954,-82.234"/>
<polygon fill="midnightblue" stroke="midnightblue" points="524.423,-84.7249 529.653,-75.5111 519.819,-79.4521 524.423,-84.7249"/>
</g>
<!-- Node28&#45;&gt;Node10 -->
<g id="edge51" class="edge"><title>Node28&#45;&gt;Node10</title>
<path fill="none" stroke="midnightblue" d="M638.886,-280.34C625.355,-263.5 595.688,-224.764 578,-188 561.353,-153.4 549.753,-109.792 544.048,-85.5039"/>
<polygon fill="midnightblue" stroke="midnightblue" points="547.411,-84.5077 541.785,-75.5302 540.585,-86.0569 547.411,-84.5077"/>
</g>
<!-- Node29&#45;&gt;Node5 -->
<g id="edge55" class="edge"><title>Node29&#45;&gt;Node5</title>
<path fill="none" stroke="midnightblue" d="M1294.01,-224.248C1326.93,-203.979 1399.99,-152.463 1367,-112 1344.19,-84.0219 1238.9,-72.9439 1183.04,-68.9777"/>
<polygon fill="midnightblue" stroke="midnightblue" points="1183.1,-65.4741 1172.89,-68.2969 1182.63,-72.4584 1183.1,-65.4741"/>
</g>
<!-- Node29&#45;&gt;Node10 -->
<g id="edge53" class="edge"><title>Node29&#45;&gt;Node10</title>
<path fill="none" stroke="midnightblue" d="M1244.98,-233.579C1197.89,-232.848 1111.79,-225.853 1051,-188 1014.93,-165.542 1030.1,-132.705 993,-112 960.434,-93.8277 729.634,-77.9898 610.619,-70.9226"/>
<polygon fill="midnightblue" stroke="midnightblue" points="610.694,-67.421 600.505,-70.3272 610.282,-74.4089 610.694,-67.421"/>
</g>
<!-- Node29&#45;&gt;Node13 -->
<g id="edge54" class="edge"><title>Node29&#45;&gt;Node13</title>
<path fill="none" stroke="midnightblue" d="M1281.35,-224.368C1286.22,-206.537 1297.46,-165.295 1304.02,-141.272"/>
<polygon fill="midnightblue" stroke="midnightblue" points="1307.4,-142.16 1306.66,-131.591 1300.65,-140.318 1307.4,-142.16"/>
</g>
<!-- Node29&#45;&gt;Node20 -->
<g id="edge56" class="edge"><title>Node29&#45;&gt;Node20</title>
<path fill="none" stroke="midnightblue" d="M1251.11,-224.444C1221.25,-215.28 1173.69,-200.688 1140.54,-190.519"/>
<polygon fill="midnightblue" stroke="midnightblue" points="1141.34,-187.104 1130.76,-187.516 1139.29,-193.796 1141.34,-187.104"/>
</g>
<!-- Node30&#45;&gt;Node10 -->
<g id="edge58" class="edge"><title>Node30&#45;&gt;Node10</title>
<path fill="none" stroke="midnightblue" d="M183.055,-224.233C186.286,-201.538 198.246,-140.641 236,-112 254.278,-98.1336 385.237,-82.5855 469.203,-73.8756"/>
<polygon fill="midnightblue" stroke="midnightblue" points="469.609,-77.3524 479.199,-72.8479 468.894,-70.3891 469.609,-77.3524"/>
</g>
<!-- Node31&#45;&gt;Node10 -->
<g id="edge61" class="edge"><title>Node31&#45;&gt;Node10</title>
<path fill="none" stroke="midnightblue" d="M835.206,-224.216C827.362,-215.275 815.025,-200.93 805,-188 779.611,-155.253 785.624,-134.763 751,-112 709.566,-84.7599 654.558,-73.6591 611.097,-69.29"/>
<polygon fill="midnightblue" stroke="midnightblue" points="611.154,-65.781 600.879,-68.3642 610.523,-72.7525 611.154,-65.781"/>
</g>
<!-- Node31&#45;&gt;Node17 -->
<g id="edge60" class="edge"><title>Node31&#45;&gt;Node17</title>
<path fill="none" stroke="midnightblue" d="M822.991,-228.302C784.116,-219.175 697.905,-198.934 648.892,-187.427"/>
<polygon fill="midnightblue" stroke="midnightblue" points="649.564,-183.989 639.028,-185.111 647.964,-190.804 649.564,-183.989"/>
</g>
<!-- Node31&#45;&gt;Node20 -->
<g id="edge62" class="edge"><title>Node31&#45;&gt;Node20</title>
<path fill="none" stroke="midnightblue" d="M863.143,-227.788C868.301,-226.502 873.846,-225.161 879,-224 937.279,-210.869 1004.52,-197.613 1050,-188.924"/>
<polygon fill="midnightblue" stroke="midnightblue" points="1050.76,-192.341 1059.93,-187.033 1049.45,-185.465 1050.76,-192.341"/>
</g>
<!-- Node32&#45;&gt;Node10 -->
<g id="edge67" class="edge"><title>Node32&#45;&gt;Node10</title>
<path fill="none" stroke="midnightblue" d="M695.742,-336.476C695.215,-323.948 693.64,-299.896 689,-280 676.962,-228.377 677.267,-212.197 648,-168 624.016,-131.78 584.55,-99.3133 560.549,-81.4636"/>
<polygon fill="midnightblue" stroke="midnightblue" points="562.607,-78.6319 552.464,-75.5689 558.483,-84.2883 562.607,-78.6319"/>
</g>
<!-- Node32&#45;&gt;Node15 -->
<g id="edge68" class="edge"><title>Node32&#45;&gt;Node15</title>
<path fill="none" stroke="midnightblue" d="M673.812,-336.562C650.296,-327.62 612.932,-313.411 586.182,-303.238"/>
<polygon fill="midnightblue" stroke="midnightblue" points="587.091,-299.84 576.5,-299.556 584.603,-306.382 587.091,-299.84"/>
</g>
<!-- Node32&#45;&gt;Node23 -->
<g id="edge69" class="edge"><title>Node32&#45;&gt;Node23</title>
<path fill="none" stroke="midnightblue" d="M713.905,-336.444C732.254,-327.675 761.005,-313.935 782.094,-303.858"/>
<polygon fill="midnightblue" stroke="midnightblue" points="783.665,-306.986 791.179,-299.516 780.647,-300.67 783.665,-306.986"/>
</g>
<!-- Node32&#45;&gt;Node24 -->
<g id="edge70" class="edge"><title>Node32&#45;&gt;Node24</title>
<path fill="none" stroke="midnightblue" d="M673.805,-342.321C624.349,-336.234 501.174,-320.427 387.639,-300"/>
<polygon fill="midnightblue" stroke="midnightblue" points="388.203,-296.545 377.739,-298.202 386.953,-303.432 388.203,-296.545"/>
</g>
<!-- Node32&#45;&gt;Node25 -->
<g id="edge71" class="edge"><title>Node32&#45;&gt;Node25</title>
<path fill="none" stroke="midnightblue" d="M718.029,-342.15C749.532,-337.327 808.449,-325.477 852,-300 873.584,-287.374 893.296,-266.107 905.448,-251.354"/>
<polygon fill="midnightblue" stroke="midnightblue" points="908.186,-253.534 911.686,-243.534 902.714,-249.169 908.186,-253.534"/>
</g>
<!-- Node32&#45;&gt;Node26 -->
<g id="edge72" class="edge"><title>Node32&#45;&gt;Node26</title>
<path fill="none" stroke="midnightblue" d="M703.162,-336.452C720.747,-315.745 767.982,-261.82 814,-224 828.094,-212.417 845.275,-201.204 858.966,-192.868"/>
<polygon fill="midnightblue" stroke="midnightblue" points="861.016,-195.721 867.807,-187.588 857.427,-189.711 861.016,-195.721"/>
</g>
<!-- Node32&#45;&gt;Node27 -->
<g id="edge73" class="edge"><title>Node32&#45;&gt;Node27</title>
<path fill="none" stroke="midnightblue" d="M673.987,-340.581C629.005,-331.551 525.936,-310.861 468.17,-299.265"/>
<polygon fill="midnightblue" stroke="midnightblue" points="468.77,-295.815 458.277,-297.279 467.392,-302.678 468.77,-295.815"/>
</g>
<!-- Node32&#45;&gt;Node28 -->
<g id="edge74" class="edge"><title>Node32&#45;&gt;Node28</title>
<path fill="none" stroke="midnightblue" d="M687.744,-336.083C680.535,-328.298 669.89,-316.801 661.154,-307.367"/>
<polygon fill="midnightblue" stroke="midnightblue" points="663.465,-304.711 654.103,-299.751 658.329,-309.467 663.465,-304.711"/>
</g>
<!-- Node33&#45;&gt;Node2 -->
<g id="edge76" class="edge"><title>Node33&#45;&gt;Node2</title>
<path fill="none" stroke="midnightblue" d="M399.611,-448.444C301.734,-428.967 76,-380.424 76,-347 76,-347 76,-347 76,-177 76,-144.489 67.841,-107.35 62.2162,-85.6103"/>
<polygon fill="midnightblue" stroke="midnightblue" points="65.5414,-84.498 59.5624,-75.7514 58.782,-86.3175 65.5414,-84.498"/>
</g>
<!-- Node33&#45;&gt;Node3 -->
<g id="edge77" class="edge"><title>Node33&#45;&gt;Node3</title>
<path fill="none" stroke="midnightblue" d="M438.352,-467.834C430.002,-476.106 415.015,-488.62 401.943,-498.38"/>
<polygon fill="midnightblue" stroke="midnightblue" points="399.774,-495.63 393.719,-504.324 403.874,-501.303 399.774,-495.63"/>
</g>
<!-- Node33&#45;&gt;Node9 -->
<g id="edge78" class="edge"><title>Node33&#45;&gt;Node9</title>
<path fill="none" stroke="midnightblue" d="M479.969,-448.444C520.592,-438.78 586.599,-423.078 629.406,-412.895"/>
<polygon fill="midnightblue" stroke="midnightblue" points="630.31,-416.277 639.228,-410.558 628.69,-409.467 630.31,-416.277"/>
</g>
</g>
</svg>
