<?xml version="1.0" encoding="UTF-8" standalone="no"?>
<!DOCTYPE svg PUBLIC "-//W3C//DTD SVG 1.1//EN"
 "http://www.w3.org/Graphics/SVG/1.1/DTD/svg11.dtd">
<!-- Generated by graphviz version 2.36.0 (20140111.2315)
 -->
<!-- Title: libraries/AP_Mount/AP_Mount.h Pages: 1 -->
<svg width="2560pt" height="274pt"
 viewBox="0.00 0.00 2560.00 274.00" xmlns="http://www.w3.org/2000/svg" xmlns:xlink="http://www.w3.org/1999/xlink">
<g id="graph0" class="graph" transform="scale(1 1) rotate(0) translate(4 270)">
<title>libraries/AP_Mount/AP_Mount.h</title>
<polygon fill="white" stroke="none" points="-4,4 -4,-270 2556,-270 2556,4 -4,4"/>
<!-- Node1 -->
<g id="node1" class="node"><title>Node1</title>
<polygon fill="#bfbfbf" stroke="black" points="1947.5,-235 1947.5,-265 2046.5,-265 2046.5,-235 1947.5,-235"/>
<text text-anchor="start" x="1955.5" y="-253" font-family="Helvetica,sans-Serif" font-size="10.00">libraries/AP_Mount</text>
<text text-anchor="middle" x="1997" y="-242" font-family="Helvetica,sans-Serif" font-size="10.00">/AP_Mount.h</text>
</g>
<!-- Node2 -->
<g id="node2" class="node"><title>Node2</title>
<g id="a_node2"><a xlink:href="$ArduCopterLibs_8pde.html" xlink:title="libraries/AP_HAL_AVR\l/examples/ArduCopterLibs\l/ArduCopterLibs.pde">
<polygon fill="white" stroke="black" points="0,-0.5 0,-41.5 132,-41.5 132,-0.5 0,-0.5"/>
<text text-anchor="start" x="8" y="-29.5" font-family="Helvetica,sans-Serif" font-size="10.00">libraries/AP_HAL_AVR</text>
<text text-anchor="start" x="8" y="-18.5" font-family="Helvetica,sans-Serif" font-size="10.00">/examples/ArduCopterLibs</text>
<text text-anchor="middle" x="66" y="-7.5" font-family="Helvetica,sans-Serif" font-size="10.00">/ArduCopterLibs.pde</text>
</a>
</g>
</g>
<!-- Node1&#45;&gt;Node2 -->
<g id="edge1" class="edge"><title>Node1&#45;&gt;Node2</title>
<path fill="none" stroke="midnightblue" d="M1936.72,-248.575C1643.63,-246.333 374.467,-234.575 202,-198 112.703,-179.063 62.8338,-195.819 12,-120 1.60491,-104.496 5.01363,-95.31 12,-78 17.712,-63.8474 28.9027,-51.2779 39.6226,-41.6514"/>
<polygon fill="midnightblue" stroke="midnightblue" points="1937.11,-252.078 1947.14,-248.653 1937.16,-245.078 1937.11,-252.078"/>
</g>
<!-- Node3 -->
<g id="node3" class="node"><title>Node3</title>
<g id="a_node3"><a xlink:href="$ArduPlaneLibs_8pde.html" xlink:title="libraries/AP_HAL_AVR\l/examples/ArduPlaneLibs\l/ArduPlaneLibs.pde">
<polygon fill="white" stroke="black" points="346,-0.5 346,-41.5 474,-41.5 474,-0.5 346,-0.5"/>
<text text-anchor="start" x="354" y="-29.5" font-family="Helvetica,sans-Serif" font-size="10.00">libraries/AP_HAL_AVR</text>
<text text-anchor="start" x="354" y="-18.5" font-family="Helvetica,sans-Serif" font-size="10.00">/examples/ArduPlaneLibs</text>
<text text-anchor="middle" x="410" y="-7.5" font-family="Helvetica,sans-Serif" font-size="10.00">/ArduPlaneLibs.pde</text>
</a>
</g>
</g>
<!-- Node1&#45;&gt;Node3 -->
<g id="edge2" class="edge"><title>Node1&#45;&gt;Node3</title>
<path fill="none" stroke="midnightblue" d="M1937.05,-247.379C1613.9,-238.355 91.5299,-192.106 25,-120 12.3418,-106.281 12.7875,-92.1174 25,-78 45.6587,-54.119 241.566,-35.2459 345.672,-26.807"/>
<polygon fill="midnightblue" stroke="midnightblue" points="1937.06,-250.88 1947.15,-247.66 1937.25,-243.883 1937.06,-250.88"/>
</g>
<!-- Node4 -->
<g id="node4" class="node"><title>Node4</title>
<g id="a_node4"><a xlink:href="$AP__Mount_8cpp.html" xlink:title="libraries/AP_Mount\l/AP_Mount.cpp">
<polygon fill="white" stroke="black" points="2075.5,-6 2075.5,-36 2174.5,-36 2174.5,-6 2075.5,-6"/>
<text text-anchor="start" x="2083.5" y="-24" font-family="Helvetica,sans-Serif" font-size="10.00">libraries/AP_Mount</text>
<text text-anchor="middle" x="2125" y="-13" font-family="Helvetica,sans-Serif" font-size="10.00">/AP_Mount.cpp</text>
</a>
</g>
</g>
<!-- Node1&#45;&gt;Node4 -->
<g id="edge3" class="edge"><title>Node1&#45;&gt;Node4</title>
<path fill="none" stroke="midnightblue" d="M2009.96,-226.007C2036.33,-179.259 2095.49,-74.3268 2117,-36.1945"/>
<polygon fill="midnightblue" stroke="midnightblue" points="2006.87,-224.37 2005.01,-234.8 2012.97,-227.809 2006.87,-224.37"/>
</g>
<!-- Node5 -->
<g id="node5" class="node"><title>Node5</title>
<g id="a_node5"><a xlink:href="$AP__Mount__Alexmos_8h.html" xlink:title="libraries/AP_Mount\l/AP_Mount_Alexmos.h">
<polygon fill="white" stroke="black" points="1938.5,-84 1938.5,-114 2055.5,-114 2055.5,-84 1938.5,-84"/>
<text text-anchor="start" x="1946.5" y="-102" font-family="Helvetica,sans-Serif" font-size="10.00">libraries/AP_Mount</text>
<text text-anchor="middle" x="1997" y="-91" font-family="Helvetica,sans-Serif" font-size="10.00">/AP_Mount_Alexmos.h</text>
</a>
</g>
</g>
<!-- Node1&#45;&gt;Node5 -->
<g id="edge4" class="edge"><title>Node1&#45;&gt;Node5</title>
<path fill="none" stroke="midnightblue" d="M1997,-224.891C1997,-193.472 1997,-139.545 1997,-114.089"/>
<polygon fill="midnightblue" stroke="midnightblue" points="1993.5,-224.982 1997,-234.982 2000.5,-224.982 1993.5,-224.982"/>
</g>
<!-- Node7 -->
<g id="node7" class="node"><title>Node7</title>
<g id="a_node7"><a xlink:href="$AP__Mount__Backend_8h.html" xlink:title="libraries/AP_Mount\l/AP_Mount_Backend.h">
<polygon fill="white" stroke="black" points="2112.5,-162 2112.5,-192 2229.5,-192 2229.5,-162 2112.5,-162"/>
<text text-anchor="start" x="2120.5" y="-180" font-family="Helvetica,sans-Serif" font-size="10.00">libraries/AP_Mount</text>
<text text-anchor="middle" x="2171" y="-169" font-family="Helvetica,sans-Serif" font-size="10.00">/AP_Mount_Backend.h</text>
</a>
</g>
</g>
<!-- Node1&#45;&gt;Node7 -->
<g id="edge7" class="edge"><title>Node1&#45;&gt;Node7</title>
<path fill="none" stroke="midnightblue" d="M2040.65,-231.188C2070.27,-219.101 2108.9,-203.34 2136.4,-192.12"/>
<polygon fill="midnightblue" stroke="midnightblue" points="2039.31,-227.954 2031.38,-234.973 2041.96,-234.435 2039.31,-227.954"/>
</g>
<!-- Node13 -->
<g id="node13" class="node"><title>Node13</title>
<g id="a_node13"><a xlink:href="$trivial__AP__Mount_8pde.html" xlink:title="libraries/AP_Mount\l/examples/trivial_AP\l_Mount/trivial_AP_Mount.pde">
<polygon fill="white" stroke="black" points="2247.5,-156.5 2247.5,-197.5 2392.5,-197.5 2392.5,-156.5 2247.5,-156.5"/>
<text text-anchor="start" x="2255.5" y="-185.5" font-family="Helvetica,sans-Serif" font-size="10.00">libraries/AP_Mount</text>
<text text-anchor="start" x="2255.5" y="-174.5" font-family="Helvetica,sans-Serif" font-size="10.00">/examples/trivial_AP</text>
<text text-anchor="middle" x="2320" y="-163.5" font-family="Helvetica,sans-Serif" font-size="10.00">_Mount/trivial_AP_Mount.pde</text>
</a>
</g>
</g>
<!-- Node1&#45;&gt;Node13 -->
<g id="edge17" class="edge"><title>Node1&#45;&gt;Node13</title>
<path fill="none" stroke="midnightblue" d="M2057.02,-236.831C2105.85,-226.804 2176.49,-212.006 2238,-198 2241,-197.317 2244.06,-196.611 2247.15,-195.891"/>
<polygon fill="midnightblue" stroke="midnightblue" points="2056.04,-233.46 2046.95,-238.896 2057.45,-240.317 2056.04,-233.46"/>
</g>
<!-- Node14 -->
<g id="node14" class="node"><title>Node14</title>
<g id="a_node14"><a xlink:href="$GCS_8h.html" xlink:title="Interface definition for the various Ground Control System. ">
<polygon fill="white" stroke="black" points="1002,-162 1002,-192 1122,-192 1122,-162 1002,-162"/>
<text text-anchor="start" x="1010" y="-180" font-family="Helvetica,sans-Serif" font-size="10.00">libraries/GCS_MAVLink</text>
<text text-anchor="middle" x="1062" y="-169" font-family="Helvetica,sans-Serif" font-size="10.00">/GCS.h</text>
</a>
</g>
</g>
<!-- Node1&#45;&gt;Node14 -->
<g id="edge18" class="edge"><title>Node1&#45;&gt;Node14</title>
<path fill="none" stroke="midnightblue" d="M1937.22,-244.46C1768.69,-231.663 1291.08,-195.395 1122.13,-182.566"/>
<polygon fill="midnightblue" stroke="midnightblue" points="1937.15,-247.966 1947.39,-245.233 1937.68,-240.986 1937.15,-247.966"/>
</g>
<!-- Node5&#45;&gt;Node4 -->
<g id="edge5" class="edge"><title>Node5&#45;&gt;Node4</title>
<path fill="none" stroke="midnightblue" d="M2029.6,-78.6444C2051.98,-65.3533 2081.18,-48.0166 2101.35,-36.0413"/>
<polygon fill="midnightblue" stroke="midnightblue" points="2027.59,-75.7682 2020.78,-83.8831 2031.16,-81.7872 2027.59,-75.7682"/>
</g>
<!-- Node6 -->
<g id="node6" class="node"><title>Node6</title>
<g id="a_node6"><a xlink:href="$AP__Mount__Alexmos_8cpp.html" xlink:title="libraries/AP_Mount\l/AP_Mount_Alexmos.cpp">
<polygon fill="white" stroke="black" points="1929,-6 1929,-36 2057,-36 2057,-6 1929,-6"/>
<text text-anchor="start" x="1937" y="-24" font-family="Helvetica,sans-Serif" font-size="10.00">libraries/AP_Mount</text>
<text text-anchor="middle" x="1993" y="-13" font-family="Helvetica,sans-Serif" font-size="10.00">/AP_Mount_Alexmos.cpp</text>
</a>
</g>
</g>
<!-- Node5&#45;&gt;Node6 -->
<g id="edge6" class="edge"><title>Node5&#45;&gt;Node6</title>
<path fill="none" stroke="midnightblue" d="M1995.72,-73.5898C1995.07,-61.2565 1994.3,-46.7237 1993.75,-36.2309"/>
<polygon fill="midnightblue" stroke="midnightblue" points="1992.23,-73.9028 1996.25,-83.705 1999.22,-73.5348 1992.23,-73.9028"/>
</g>
<!-- Node7&#45;&gt;Node4 -->
<g id="edge8" class="edge"><title>Node7&#45;&gt;Node4</title>
<path fill="none" stroke="midnightblue" d="M2156.52,-153.108C2150.88,-143.255 2144.86,-131.399 2141,-120 2131.26,-91.2651 2127.35,-55.7204 2125.86,-36.3111"/>
<polygon fill="midnightblue" stroke="midnightblue" points="2153.61,-155.053 2161.73,-161.86 2159.62,-151.476 2153.61,-155.053"/>
</g>
<!-- Node7&#45;&gt;Node5 -->
<g id="edge9" class="edge"><title>Node7&#45;&gt;Node5</title>
<path fill="none" stroke="midnightblue" d="M2129.5,-157.873C2098.74,-144.437 2057.42,-126.389 2029.15,-114.041"/>
<polygon fill="midnightblue" stroke="midnightblue" points="2128.11,-161.088 2138.68,-161.883 2130.92,-154.673 2128.11,-161.088"/>
</g>
<!-- Node8 -->
<g id="node8" class="node"><title>Node8</title>
<g id="a_node8"><a xlink:href="$AP__Mount__Backend_8cpp.html" xlink:title="libraries/AP_Mount\l/AP_Mount_Backend.cpp">
<polygon fill="white" stroke="black" points="2150,-84 2150,-114 2278,-114 2278,-84 2150,-84"/>
<text text-anchor="start" x="2158" y="-102" font-family="Helvetica,sans-Serif" font-size="10.00">libraries/AP_Mount</text>
<text text-anchor="middle" x="2214" y="-91" font-family="Helvetica,sans-Serif" font-size="10.00">/AP_Mount_Backend.cpp</text>
</a>
</g>
</g>
<!-- Node7&#45;&gt;Node8 -->
<g id="edge10" class="edge"><title>Node7&#45;&gt;Node8</title>
<path fill="none" stroke="midnightblue" d="M2184.18,-152.705C2191.29,-140.141 2199.83,-125.042 2205.95,-114.231"/>
<polygon fill="midnightblue" stroke="midnightblue" points="2180.97,-151.278 2179.09,-161.705 2187.06,-154.725 2180.97,-151.278"/>
</g>
<!-- Node9 -->
<g id="node9" class="node"><title>Node9</title>
<g id="a_node9"><a xlink:href="$AP__Mount__Servo_8h.html" xlink:title="libraries/AP_Mount\l/AP_Mount_Servo.h">
<polygon fill="white" stroke="black" points="2296,-84 2296,-114 2400,-114 2400,-84 2296,-84"/>
<text text-anchor="start" x="2304" y="-102" font-family="Helvetica,sans-Serif" font-size="10.00">libraries/AP_Mount</text>
<text text-anchor="middle" x="2348" y="-91" font-family="Helvetica,sans-Serif" font-size="10.00">/AP_Mount_Servo.h</text>
</a>
</g>
</g>
<!-- Node7&#45;&gt;Node9 -->
<g id="edge11" class="edge"><title>Node7&#45;&gt;Node9</title>
<path fill="none" stroke="midnightblue" d="M2213.22,-157.873C2244.51,-144.437 2286.54,-126.389 2315.3,-114.041"/>
<polygon fill="midnightblue" stroke="midnightblue" points="2211.69,-154.722 2203.88,-161.883 2214.45,-161.154 2211.69,-154.722"/>
</g>
<!-- Node11 -->
<g id="node11" class="node"><title>Node11</title>
<g id="a_node11"><a xlink:href="$AP__Mount__SToRM32_8h.html" xlink:title="libraries/AP_Mount\l/AP_Mount_SToRM32.h">
<polygon fill="white" stroke="black" points="2418.5,-84 2418.5,-114 2541.5,-114 2541.5,-84 2418.5,-84"/>
<text text-anchor="start" x="2426.5" y="-102" font-family="Helvetica,sans-Serif" font-size="10.00">libraries/AP_Mount</text>
<text text-anchor="middle" x="2480" y="-91" font-family="Helvetica,sans-Serif" font-size="10.00">/AP_Mount_SToRM32.h</text>
</a>
</g>
</g>
<!-- Node7&#45;&gt;Node11 -->
<g id="edge14" class="edge"><title>Node7&#45;&gt;Node11</title>
<path fill="none" stroke="midnightblue" d="M2226.18,-159.138C2230.17,-158.039 2234.14,-156.981 2238,-156 2313.27,-136.876 2333.58,-138.54 2409,-120 2416.34,-118.196 2424.06,-116.162 2431.61,-114.099"/>
<polygon fill="midnightblue" stroke="midnightblue" points="2224.94,-155.849 2216.27,-161.935 2226.84,-162.586 2224.94,-155.849"/>
</g>
<!-- Node9&#45;&gt;Node4 -->
<g id="edge12" class="edge"><title>Node9&#45;&gt;Node4</title>
<path fill="none" stroke="midnightblue" d="M2297.36,-80.7401C2257.73,-67.2344 2203.31,-48.6898 2166.3,-36.0749"/>
<polygon fill="midnightblue" stroke="midnightblue" points="2296.24,-84.0588 2306.84,-83.9719 2298.5,-77.433 2296.24,-84.0588"/>
</g>
<!-- Node10 -->
<g id="node10" class="node"><title>Node10</title>
<g id="a_node10"><a xlink:href="$AP__Mount__Servo_8cpp.html" xlink:title="libraries/AP_Mount\l/AP_Mount_Servo.cpp">
<polygon fill="white" stroke="black" points="2284.5,-6 2284.5,-36 2399.5,-36 2399.5,-6 2284.5,-6"/>
<text text-anchor="start" x="2292.5" y="-24" font-family="Helvetica,sans-Serif" font-size="10.00">libraries/AP_Mount</text>
<text text-anchor="middle" x="2342" y="-13" font-family="Helvetica,sans-Serif" font-size="10.00">/AP_Mount_Servo.cpp</text>
</a>
</g>
</g>
<!-- Node9&#45;&gt;Node10 -->
<g id="edge13" class="edge"><title>Node9&#45;&gt;Node10</title>
<path fill="none" stroke="midnightblue" d="M2346.07,-73.5898C2345.1,-61.2565 2343.95,-46.7237 2343.12,-36.2309"/>
<polygon fill="midnightblue" stroke="midnightblue" points="2342.6,-74.0115 2346.87,-83.705 2349.57,-73.4605 2342.6,-74.0115"/>
</g>
<!-- Node11&#45;&gt;Node4 -->
<g id="edge15" class="edge"><title>Node11&#45;&gt;Node4</title>
<path fill="none" stroke="midnightblue" d="M2422.24,-81.3175C2417.77,-80.1528 2413.32,-79.0327 2409,-78 2327.37,-58.4886 2231.39,-40.6026 2174.51,-30.5244"/>
<polygon fill="midnightblue" stroke="midnightblue" points="2421.45,-84.728 2432.01,-83.9222 2423.25,-77.9642 2421.45,-84.728"/>
</g>
<!-- Node12 -->
<g id="node12" class="node"><title>Node12</title>
<g id="a_node12"><a xlink:href="$AP__Mount__SToRM32_8cpp.html" xlink:title="libraries/AP_Mount\l/AP_Mount_SToRM32.cpp">
<polygon fill="white" stroke="black" points="2418,-6 2418,-36 2552,-36 2552,-6 2418,-6"/>
<text text-anchor="start" x="2426" y="-24" font-family="Helvetica,sans-Serif" font-size="10.00">libraries/AP_Mount</text>
<text text-anchor="middle" x="2485" y="-13" font-family="Helvetica,sans-Serif" font-size="10.00">/AP_Mount_SToRM32.cpp</text>
</a>
</g>
</g>
<!-- Node11&#45;&gt;Node12 -->
<g id="edge16" class="edge"><title>Node11&#45;&gt;Node12</title>
<path fill="none" stroke="midnightblue" d="M2481.61,-73.5898C2482.42,-61.2565 2483.37,-46.7237 2484.06,-36.2309"/>
<polygon fill="midnightblue" stroke="midnightblue" points="2478.1,-73.4968 2480.94,-83.705 2485.09,-73.9564 2478.1,-73.4968"/>
</g>
<!-- Node15 -->
<g id="node15" class="node"><title>Node15</title>
<g id="a_node15"><a xlink:href="$AP__Camera_8h.html" xlink:title="Photo or video camera manager, with EEPROM&#45;backed storage of constants. ">
<polygon fill="white" stroke="black" points="590.5,-84 590.5,-114 697.5,-114 697.5,-84 590.5,-84"/>
<text text-anchor="start" x="598.5" y="-102" font-family="Helvetica,sans-Serif" font-size="10.00">libraries/AP_Camera</text>
<text text-anchor="middle" x="644" y="-91" font-family="Helvetica,sans-Serif" font-size="10.00">/AP_Camera.h</text>
</a>
</g>
</g>
<!-- Node14&#45;&gt;Node15 -->
<g id="edge19" class="edge"><title>Node14&#45;&gt;Node15</title>
<path fill="none" stroke="midnightblue" d="M991.576,-168.213C919.299,-159.454 803.887,-143.336 706,-120 698.959,-118.321 691.563,-116.232 684.431,-114.042"/>
<polygon fill="midnightblue" stroke="midnightblue" points="991.574,-171.737 1001.92,-169.451 992.406,-164.787 991.574,-171.737"/>
</g>
<!-- Node17 -->
<g id="node17" class="node"><title>Node17</title>
<g id="a_node17"><a xlink:href="$AP__InertialSensor__UserInteract__MAVLink_8cpp.html" xlink:title="libraries/AP_InertialSensor\l/AP_InertialSensor_UserInteract\l_MAVLink.cpp">
<polygon fill="white" stroke="black" points="715,-78.5 715,-119.5 873,-119.5 873,-78.5 715,-78.5"/>
<text text-anchor="start" x="723" y="-107.5" font-family="Helvetica,sans-Serif" font-size="10.00">libraries/AP_InertialSensor</text>
<text text-anchor="start" x="723" y="-96.5" font-family="Helvetica,sans-Serif" font-size="10.00">/AP_InertialSensor_UserInteract</text>
<text text-anchor="middle" x="794" y="-85.5" font-family="Helvetica,sans-Serif" font-size="10.00">_MAVLink.cpp</text>
</a>
</g>
</g>
<!-- Node14&#45;&gt;Node17 -->
<g id="edge23" class="edge"><title>Node14&#45;&gt;Node17</title>
<path fill="none" stroke="midnightblue" d="M1002.87,-159.233C961.537,-147.51 906.199,-131.818 862.868,-119.53"/>
<polygon fill="midnightblue" stroke="midnightblue" points="1001.96,-162.611 1012.53,-161.972 1003.87,-155.876 1001.96,-162.611"/>
</g>
<!-- Node18 -->
<g id="node18" class="node"><title>Node18</title>
<g id="a_node18"><a xlink:href="$AP__Terrain_8cpp.html" xlink:title="libraries/AP_Terrain\l/AP_Terrain.cpp">
<polygon fill="white" stroke="black" points="891,-84 891,-114 993,-114 993,-84 891,-84"/>
<text text-anchor="start" x="899" y="-102" font-family="Helvetica,sans-Serif" font-size="10.00">libraries/AP_Terrain</text>
<text text-anchor="middle" x="942" y="-91" font-family="Helvetica,sans-Serif" font-size="10.00">/AP_Terrain.cpp</text>
</a>
</g>
</g>
<!-- Node14&#45;&gt;Node18 -->
<g id="edge24" class="edge"><title>Node14&#45;&gt;Node18</title>
<path fill="none" stroke="midnightblue" d="M1031.16,-156.467C1010.21,-143.199 982.995,-125.963 964.17,-114.041"/>
<polygon fill="midnightblue" stroke="midnightblue" points="1029.39,-159.489 1039.71,-161.883 1033.13,-153.576 1029.39,-159.489"/>
</g>
<!-- Node19 -->
<g id="node19" class="node"><title>Node19</title>
<g id="a_node19"><a xlink:href="$TerrainGCS_8cpp.html" xlink:title="libraries/AP_Terrain\l/TerrainGCS.cpp">
<polygon fill="white" stroke="black" points="1011,-84 1011,-114 1113,-114 1113,-84 1011,-84"/>
<text text-anchor="start" x="1019" y="-102" font-family="Helvetica,sans-Serif" font-size="10.00">libraries/AP_Terrain</text>
<text text-anchor="middle" x="1062" y="-91" font-family="Helvetica,sans-Serif" font-size="10.00">/TerrainGCS.cpp</text>
</a>
</g>
</g>
<!-- Node14&#45;&gt;Node19 -->
<g id="edge25" class="edge"><title>Node14&#45;&gt;Node19</title>
<path fill="none" stroke="midnightblue" d="M1062,-151.59C1062,-139.257 1062,-124.724 1062,-114.231"/>
<polygon fill="midnightblue" stroke="midnightblue" points="1058.5,-151.705 1062,-161.705 1065.5,-151.705 1058.5,-151.705"/>
</g>
<!-- Node20 -->
<g id="node20" class="node"><title>Node20</title>
<g id="a_node20"><a xlink:href="$TerrainIO_8cpp.html" xlink:title="libraries/AP_Terrain\l/TerrainIO.cpp">
<polygon fill="white" stroke="black" points="1131,-84 1131,-114 1233,-114 1233,-84 1131,-84"/>
<text text-anchor="start" x="1139" y="-102" font-family="Helvetica,sans-Serif" font-size="10.00">libraries/AP_Terrain</text>
<text text-anchor="middle" x="1182" y="-91" font-family="Helvetica,sans-Serif" font-size="10.00">/TerrainIO.cpp</text>
</a>
</g>
</g>
<!-- Node14&#45;&gt;Node20 -->
<g id="edge26" class="edge"><title>Node14&#45;&gt;Node20</title>
<path fill="none" stroke="midnightblue" d="M1092.84,-156.467C1113.79,-143.199 1141.01,-125.963 1159.83,-114.041"/>
<polygon fill="midnightblue" stroke="midnightblue" points="1090.87,-153.576 1084.29,-161.883 1094.61,-159.489 1090.87,-153.576"/>
</g>
<!-- Node21 -->
<g id="node21" class="node"><title>Node21</title>
<g id="a_node21"><a xlink:href="$TerrainMission_8cpp.html" xlink:title="libraries/AP_Terrain\l/TerrainMission.cpp">
<polygon fill="white" stroke="black" points="1251,-84 1251,-114 1353,-114 1353,-84 1251,-84"/>
<text text-anchor="start" x="1259" y="-102" font-family="Helvetica,sans-Serif" font-size="10.00">libraries/AP_Terrain</text>
<text text-anchor="middle" x="1302" y="-91" font-family="Helvetica,sans-Serif" font-size="10.00">/TerrainMission.cpp</text>
</a>
</g>
</g>
<!-- Node14&#45;&gt;Node21 -->
<g id="edge27" class="edge"><title>Node14&#45;&gt;Node21</title>
<path fill="none" stroke="midnightblue" d="M1117.33,-158.902C1152.74,-147.91 1199.62,-133.257 1241,-120 1246.94,-118.096 1253.21,-116.068 1259.36,-114.061"/>
<polygon fill="midnightblue" stroke="midnightblue" points="1116.18,-155.595 1107.67,-161.901 1118.26,-162.28 1116.18,-155.595"/>
</g>
<!-- Node22 -->
<g id="node22" class="node"><title>Node22</title>
<g id="a_node22"><a xlink:href="$TerrainUtil_8cpp.html" xlink:title="libraries/AP_Terrain\l/TerrainUtil.cpp">
<polygon fill="white" stroke="black" points="1371,-84 1371,-114 1473,-114 1473,-84 1371,-84"/>
<text text-anchor="start" x="1379" y="-102" font-family="Helvetica,sans-Serif" font-size="10.00">libraries/AP_Terrain</text>
<text text-anchor="middle" x="1422" y="-91" font-family="Helvetica,sans-Serif" font-size="10.00">/TerrainUtil.cpp</text>
</a>
</g>
</g>
<!-- Node14&#45;&gt;Node22 -->
<g id="edge28" class="edge"><title>Node14&#45;&gt;Node22</title>
<path fill="none" stroke="midnightblue" d="M1131.97,-165.57C1192.93,-155.849 1283.46,-139.88 1361,-120 1367.69,-118.284 1374.72,-116.226 1381.53,-114.092"/>
<polygon fill="midnightblue" stroke="midnightblue" points="1131.4,-162.116 1122.07,-167.135 1132.5,-169.03 1131.4,-162.116"/>
</g>
<!-- Node23 -->
<g id="node23" class="node"><title>Node23</title>
<g id="a_node23"><a xlink:href="$APM__OBC_8cpp.html" xlink:title="libraries/APM_OBC/APM\l_OBC.cpp">
<polygon fill="white" stroke="black" points="1491.5,-84 1491.5,-114 1618.5,-114 1618.5,-84 1491.5,-84"/>
<text text-anchor="start" x="1499.5" y="-102" font-family="Helvetica,sans-Serif" font-size="10.00">libraries/APM_OBC/APM</text>
<text text-anchor="middle" x="1555" y="-91" font-family="Helvetica,sans-Serif" font-size="10.00">_OBC.cpp</text>
</a>
</g>
</g>
<!-- Node14&#45;&gt;Node23 -->
<g id="edge29" class="edge"><title>Node14&#45;&gt;Node23</title>
<path fill="none" stroke="midnightblue" d="M1132.22,-169.457C1215.83,-161.013 1359.44,-144.441 1481,-120 1489.35,-118.321 1498.15,-116.232 1506.65,-114.042"/>
<polygon fill="midnightblue" stroke="midnightblue" points="1131.68,-165.993 1122.08,-170.471 1132.38,-172.958 1131.68,-165.993"/>
</g>
<!-- Node24 -->
<g id="node24" class="node"><title>Node24</title>
<g id="a_node24"><a xlink:href="$routing_8pde.html" xlink:title="libraries/GCS_MAVLink\l/examples/routing/routing.pde">
<polygon fill="white" stroke="black" points="1636.5,-84 1636.5,-114 1781.5,-114 1781.5,-84 1636.5,-84"/>
<text text-anchor="start" x="1644.5" y="-102" font-family="Helvetica,sans-Serif" font-size="10.00">libraries/GCS_MAVLink</text>
<text text-anchor="middle" x="1709" y="-91" font-family="Helvetica,sans-Serif" font-size="10.00">/examples/routing/routing.pde</text>
</a>
</g>
</g>
<!-- Node14&#45;&gt;Node24 -->
<g id="edge30" class="edge"><title>Node14&#45;&gt;Node24</title>
<path fill="none" stroke="midnightblue" d="M1132.21,-172.219C1239.47,-165.73 1450.27,-150.157 1627,-120 1636.53,-118.373 1646.6,-116.256 1656.29,-114.009"/>
<polygon fill="midnightblue" stroke="midnightblue" points="1131.94,-168.73 1122.16,-172.819 1132.35,-175.717 1131.94,-168.73"/>
</g>
<!-- Node25 -->
<g id="node25" class="node"><title>Node25</title>
<g id="a_node25"><a xlink:href="$GCS__Common_8cpp.html" xlink:title="libraries/GCS_MAVLink\l/GCS_Common.cpp">
<polygon fill="white" stroke="black" points="1800,-84 1800,-114 1920,-114 1920,-84 1800,-84"/>
<text text-anchor="start" x="1808" y="-102" font-family="Helvetica,sans-Serif" font-size="10.00">libraries/GCS_MAVLink</text>
<text text-anchor="middle" x="1860" y="-91" font-family="Helvetica,sans-Serif" font-size="10.00">/GCS_Common.cpp</text>
</a>
</g>
</g>
<!-- Node14&#45;&gt;Node25 -->
<g id="edge31" class="edge"><title>Node14&#45;&gt;Node25</title>
<path fill="none" stroke="midnightblue" d="M1132.72,-175.275C1263.51,-172.894 1551.6,-162.776 1790,-120 1798.46,-118.482 1807.36,-116.36 1815.88,-114.061"/>
<polygon fill="midnightblue" stroke="midnightblue" points="1132.38,-171.78 1122.44,-175.452 1132.5,-178.779 1132.38,-171.78"/>
</g>
<!-- Node26 -->
<g id="node26" class="node"><title>Node26</title>
<g id="a_node26"><a xlink:href="$GCS__Logs_8cpp.html" xlink:title="libraries/GCS_MAVLink\l/GCS_Logs.cpp">
<polygon fill="white" stroke="black" points="34,-84 34,-114 154,-114 154,-84 34,-84"/>
<text text-anchor="start" x="42" y="-102" font-family="Helvetica,sans-Serif" font-size="10.00">libraries/GCS_MAVLink</text>
<text text-anchor="middle" x="94" y="-91" font-family="Helvetica,sans-Serif" font-size="10.00">/GCS_Logs.cpp</text>
</a>
</g>
</g>
<!-- Node14&#45;&gt;Node26 -->
<g id="edge32" class="edge"><title>Node14&#45;&gt;Node26</title>
<path fill="none" stroke="midnightblue" d="M991.617,-176.847C839.29,-177.539 468.166,-173.065 163,-120 154.521,-118.526 145.601,-116.393 137.092,-114.064"/>
<polygon fill="midnightblue" stroke="midnightblue" points="991.787,-180.346 1001.77,-176.791 991.749,-173.346 991.787,-180.346"/>
</g>
<!-- Node27 -->
<g id="node27" class="node"><title>Node27</title>
<g id="a_node27"><a xlink:href="$GCS__MAVLink_8cpp.html" xlink:title="libraries/GCS_MAVLink\l/GCS_MAVLink.cpp">
<polygon fill="white" stroke="black" points="172,-84 172,-114 292,-114 292,-84 172,-84"/>
<text text-anchor="start" x="180" y="-102" font-family="Helvetica,sans-Serif" font-size="10.00">libraries/GCS_MAVLink</text>
<text text-anchor="middle" x="232" y="-91" font-family="Helvetica,sans-Serif" font-size="10.00">/GCS_MAVLink.cpp</text>
</a>
</g>
</g>
<!-- Node14&#45;&gt;Node27 -->
<g id="edge33" class="edge"><title>Node14&#45;&gt;Node27</title>
<path fill="none" stroke="midnightblue" d="M991.573,-175.703C856.535,-174.06 552.294,-165.154 301,-120 292.653,-118.5 283.871,-116.386 275.476,-114.09"/>
<polygon fill="midnightblue" stroke="midnightblue" points="991.74,-179.205 1001.78,-175.818 991.818,-172.206 991.74,-179.205"/>
</g>
<!-- Node28 -->
<g id="node28" class="node"><title>Node28</title>
<g id="a_node28"><a xlink:href="$GCS__serial__control_8cpp.html" xlink:title="libraries/GCS_MAVLink\l/GCS_serial_control.cpp">
<polygon fill="white" stroke="black" points="310.5,-84 310.5,-114 433.5,-114 433.5,-84 310.5,-84"/>
<text text-anchor="start" x="318.5" y="-102" font-family="Helvetica,sans-Serif" font-size="10.00">libraries/GCS_MAVLink</text>
<text text-anchor="middle" x="372" y="-91" font-family="Helvetica,sans-Serif" font-size="10.00">/GCS_serial_control.cpp</text>
</a>
</g>
</g>
<!-- Node14&#45;&gt;Node28 -->
<g id="edge34" class="edge"><title>Node14&#45;&gt;Node28</title>
<path fill="none" stroke="midnightblue" d="M991.628,-173.852C876.184,-169.387 639.74,-156.289 443,-120 434.562,-118.444 425.678,-116.332 417.159,-114.062"/>
<polygon fill="midnightblue" stroke="midnightblue" points="991.621,-177.354 1001.75,-174.233 991.885,-170.359 991.621,-177.354"/>
</g>
<!-- Node29 -->
<g id="node29" class="node"><title>Node29</title>
<g id="a_node29"><a xlink:href="$MAVLink__routing_8cpp.html" xlink:title="libraries/GCS_MAVLink\l/MAVLink_routing.cpp">
<polygon fill="white" stroke="black" points="452,-84 452,-114 572,-114 572,-84 452,-84"/>
<text text-anchor="start" x="460" y="-102" font-family="Helvetica,sans-Serif" font-size="10.00">libraries/GCS_MAVLink</text>
<text text-anchor="middle" x="512" y="-91" font-family="Helvetica,sans-Serif" font-size="10.00">/MAVLink_routing.cpp</text>
</a>
</g>
</g>
<!-- Node14&#45;&gt;Node29 -->
<g id="edge35" class="edge"><title>Node14&#45;&gt;Node29</title>
<path fill="none" stroke="midnightblue" d="M991.906,-171.507C897.744,-164.639 725.517,-149.147 581,-120 572.931,-118.373 564.436,-116.255 556.271,-114.008"/>
<polygon fill="midnightblue" stroke="midnightblue" points="991.658,-174.998 1001.88,-172.224 992.16,-168.016 991.658,-174.998"/>
</g>
<!-- Node15&#45;&gt;Node2 -->
<g id="edge21" class="edge"><title>Node15&#45;&gt;Node2</title>
<path fill="none" stroke="midnightblue" d="M593.49,-81.2252C588.957,-80.0212 584.414,-78.921 580,-78 496.083,-60.4902 251.265,-37.9356 132.353,-27.6109"/>
<polygon fill="midnightblue" stroke="midnightblue" points="592.767,-84.6576 603.341,-83.9977 594.664,-77.9194 592.767,-84.6576"/>
</g>
<!-- Node15&#45;&gt;Node3 -->
<g id="edge22" class="edge"><title>Node15&#45;&gt;Node3</title>
<path fill="none" stroke="midnightblue" d="M590.998,-80.7858C555.06,-69.1137 507.486,-53.6622 470.131,-41.5298"/>
<polygon fill="midnightblue" stroke="midnightblue" points="590.216,-84.2116 600.808,-83.9719 592.378,-77.5539 590.216,-84.2116"/>
</g>
<!-- Node16 -->
<g id="node16" class="node"><title>Node16</title>
<g id="a_node16"><a xlink:href="$AP__Camera_8cpp.html" xlink:title="libraries/AP_Camera\l/AP_Camera.cpp">
<polygon fill="white" stroke="black" points="590.5,-6 590.5,-36 697.5,-36 697.5,-6 590.5,-6"/>
<text text-anchor="start" x="598.5" y="-24" font-family="Helvetica,sans-Serif" font-size="10.00">libraries/AP_Camera</text>
<text text-anchor="middle" x="644" y="-13" font-family="Helvetica,sans-Serif" font-size="10.00">/AP_Camera.cpp</text>
</a>
</g>
</g>
<!-- Node15&#45;&gt;Node16 -->
<g id="edge20" class="edge"><title>Node15&#45;&gt;Node16</title>
<path fill="none" stroke="midnightblue" d="M644,-73.5898C644,-61.2565 644,-46.7237 644,-36.2309"/>
<polygon fill="midnightblue" stroke="midnightblue" points="640.5,-73.7049 644,-83.705 647.5,-73.705 640.5,-73.7049"/>
</g>
</g>
</svg>
