<?xml version="1.0" encoding="UTF-8" standalone="no"?>
<!DOCTYPE svg PUBLIC "-//W3C//DTD SVG 1.1//EN"
 "http://www.w3.org/Graphics/SVG/1.1/DTD/svg11.dtd">
<!-- Generated by graphviz version 2.36.0 (20140111.2315)
 -->
<!-- Title: wrap_360_cd_float Pages: 1 -->
<svg width="262pt" height="98pt"
 viewBox="0.00 0.00 262.00 98.00" xmlns="http://www.w3.org/2000/svg" xmlns:xlink="http://www.w3.org/1999/xlink">
<g id="graph0" class="graph" transform="scale(1 1) rotate(0) translate(4 94)">
<title>wrap_360_cd_float</title>
<polygon fill="white" stroke="none" points="-4,4 -4,-94 258,-94 258,4 -4,4"/>
<!-- Node1 -->
<g id="node1" class="node"><title>Node1</title>
<polygon fill="#bfbfbf" stroke="black" points="0,-32.5 0,-51.5 98,-51.5 98,-32.5 0,-32.5"/>
<text text-anchor="middle" x="49" y="-39.5" font-family="Helvetica,sans-Serif" font-size="10.00">wrap_360_cd_float</text>
</g>
<!-- Node2 -->
<g id="node2" class="node"><title>Node2</title>
<g id="a_node2"><a xlink:href="$classAC__AttitudeControl__Heli.html#adcf61fba6788547660fa2237e46a459e" xlink:title="AC_AttitudeControl\l_Heli::passthrough_bf\l_roll_pitch_rate_yaw">
<polygon fill="white" stroke="black" points="138,-48.5 138,-89.5 250,-89.5 250,-48.5 138,-48.5"/>
<text text-anchor="start" x="146" y="-77.5" font-family="Helvetica,sans-Serif" font-size="10.00">AC_AttitudeControl</text>
<text text-anchor="start" x="146" y="-66.5" font-family="Helvetica,sans-Serif" font-size="10.00">_Heli::passthrough_bf</text>
<text text-anchor="middle" x="194" y="-55.5" font-family="Helvetica,sans-Serif" font-size="10.00">_roll_pitch_rate_yaw</text>
</a>
</g>
</g>
<!-- Node1&#45;&gt;Node2 -->
<g id="edge1" class="edge"><title>Node1&#45;&gt;Node2</title>
<path fill="none" stroke="midnightblue" d="M108.123,-52.9743C117.977,-54.8348 128.182,-56.7617 137.954,-58.6067"/>
<polygon fill="midnightblue" stroke="midnightblue" points="108.491,-49.4819 98.0147,-51.0657 107.192,-56.3604 108.491,-49.4819"/>
</g>
<!-- Node3 -->
<g id="node3" class="node"><title>Node3</title>
<g id="a_node3"><a xlink:href="$classAC__AttitudeControl.html#a716b26f41dfc5cf956b360affd045946" xlink:title="AC_AttitudeControl\l::rate_bf_roll_pitch_yaw">
<polygon fill="white" stroke="black" points="134,-0 134,-30 254,-30 254,-0 134,-0"/>
<text text-anchor="start" x="142" y="-18" font-family="Helvetica,sans-Serif" font-size="10.00">AC_AttitudeControl</text>
<text text-anchor="middle" x="194" y="-7" font-family="Helvetica,sans-Serif" font-size="10.00">::rate_bf_roll_pitch_yaw</text>
</a>
</g>
</g>
<!-- Node1&#45;&gt;Node3 -->
<g id="edge2" class="edge"><title>Node1&#45;&gt;Node3</title>
<path fill="none" stroke="midnightblue" d="M107.922,-31.0636C116.494,-29.4451 125.337,-27.7756 133.932,-26.1528"/>
<polygon fill="midnightblue" stroke="midnightblue" points="107.192,-27.6396 98.0147,-32.9343 108.491,-34.5181 107.192,-27.6396"/>
</g>
</g>
</svg>
