<?xml version="1.0" encoding="UTF-8" standalone="no"?>
<!DOCTYPE svg PUBLIC "-//W3C//DTD SVG 1.1//EN"
 "http://www.w3.org/Graphics/SVG/1.1/DTD/svg11.dtd">
<!-- Generated by graphviz version 2.36.0 (20140111.2315)
 -->
<!-- Title: libraries/AP_Parachute/AP_Parachute.h Pages: 1 -->
<svg width="287pt" height="118pt"
 viewBox="0.00 0.00 287.00 118.00" xmlns="http://www.w3.org/2000/svg" xmlns:xlink="http://www.w3.org/1999/xlink">
<g id="graph0" class="graph" transform="scale(1 1) rotate(0) translate(4 114)">
<title>libraries/AP_Parachute/AP_Parachute.h</title>
<polygon fill="white" stroke="none" points="-4,4 -4,-114 283,-114 283,4 -4,4"/>
<!-- Node1 -->
<g id="node1" class="node"><title>Node1</title>
<polygon fill="#bfbfbf" stroke="black" points="74,-79 74,-109 190,-109 190,-79 74,-79"/>
<text text-anchor="start" x="82" y="-97" font-family="Helvetica,sans-Serif" font-size="10.00">libraries/AP_Parachute</text>
<text text-anchor="middle" x="132" y="-86" font-family="Helvetica,sans-Serif" font-size="10.00">/AP_Parachute.h</text>
</g>
<!-- Node2 -->
<g id="node2" class="node"><title>Node2</title>
<g id="a_node2"><a xlink:href="$AP__Parachute_8cpp.html" xlink:title="libraries/AP_Parachute\l/AP_Parachute.cpp">
<polygon fill="white" stroke="black" points="0,-6 0,-36 116,-36 116,-6 0,-6"/>
<text text-anchor="start" x="8" y="-24" font-family="Helvetica,sans-Serif" font-size="10.00">libraries/AP_Parachute</text>
<text text-anchor="middle" x="58" y="-13" font-family="Helvetica,sans-Serif" font-size="10.00">/AP_Parachute.cpp</text>
</a>
</g>
</g>
<!-- Node1&#45;&gt;Node2 -->
<g id="edge1" class="edge"><title>Node1&#45;&gt;Node2</title>
<path fill="none" stroke="midnightblue" d="M109.937,-71.8313C97.9586,-60.3386 83.4704,-46.4378 72.8429,-36.2412"/>
<polygon fill="midnightblue" stroke="midnightblue" points="107.741,-74.5749 117.38,-78.9727 112.587,-69.5238 107.741,-74.5749"/>
</g>
<!-- Node3 -->
<g id="node3" class="node"><title>Node3</title>
<g id="a_node3"><a xlink:href="$AP__Parachute__test_8pde.html" xlink:title="libraries/AP_Parachute\l/examples/AP_Parachute\l_test/AP_Parachute_test.pde">
<polygon fill="white" stroke="black" points="134.5,-0.5 134.5,-41.5 279.5,-41.5 279.5,-0.5 134.5,-0.5"/>
<text text-anchor="start" x="142.5" y="-29.5" font-family="Helvetica,sans-Serif" font-size="10.00">libraries/AP_Parachute</text>
<text text-anchor="start" x="142.5" y="-18.5" font-family="Helvetica,sans-Serif" font-size="10.00">/examples/AP_Parachute</text>
<text text-anchor="middle" x="207" y="-7.5" font-family="Helvetica,sans-Serif" font-size="10.00">_test/AP_Parachute_test.pde</text>
</a>
</g>
</g>
<!-- Node1&#45;&gt;Node3 -->
<g id="edge2" class="edge"><title>Node1&#45;&gt;Node3</title>
<path fill="none" stroke="midnightblue" d="M154.164,-72.0178C164.316,-62.4078 176.278,-51.0831 186.251,-41.642"/>
<polygon fill="midnightblue" stroke="midnightblue" points="151.674,-69.5562 146.818,-78.9727 156.486,-74.6396 151.674,-69.5562"/>
</g>
</g>
</svg>
