<?xml version="1.0" encoding="UTF-8" standalone="no"?>
<!DOCTYPE svg PUBLIC "-//W3C//DTD SVG 1.1//EN"
 "http://www.w3.org/Graphics/SVG/1.1/DTD/svg11.dtd">
<!-- Generated by graphviz version 2.36.0 (20140111.2315)
 -->
<!-- Title: libraries/AP_InertialNav/AP_InertialNav.h Pages: 1 -->
<svg width="912pt" height="254pt"
 viewBox="0.00 0.00 912.00 254.00" xmlns="http://www.w3.org/2000/svg" xmlns:xlink="http://www.w3.org/1999/xlink">
<g id="graph0" class="graph" transform="scale(1 1) rotate(0) translate(4 250)">
<title>libraries/AP_InertialNav/AP_InertialNav.h</title>
<polygon fill="white" stroke="none" points="-4,4 -4,-250 908,-250 908,4 -4,4"/>
<!-- Node1 -->
<g id="node1" class="node"><title>Node1</title>
<polygon fill="#bfbfbf" stroke="black" points="353.5,-215 353.5,-245 472.5,-245 472.5,-215 353.5,-215"/>
<text text-anchor="start" x="361.5" y="-233" font-family="Helvetica,sans-Serif" font-size="10.00">libraries/AP_InertialNav</text>
<text text-anchor="middle" x="413" y="-222" font-family="Helvetica,sans-Serif" font-size="10.00">/AP_InertialNav.h</text>
</g>
<!-- Node2 -->
<g id="node2" class="node"><title>Node2</title>
<g id="a_node2"><a xlink:href="$AC__PosControl_8h.html" xlink:title="libraries/AC_AttitudeControl\l/AC_PosControl.h">
<polygon fill="white" stroke="black" points="147,-142 147,-172 285,-172 285,-142 147,-142"/>
<text text-anchor="start" x="155" y="-160" font-family="Helvetica,sans-Serif" font-size="10.00">libraries/AC_AttitudeControl</text>
<text text-anchor="middle" x="216" y="-149" font-family="Helvetica,sans-Serif" font-size="10.00">/AC_PosControl.h</text>
</a>
</g>
</g>
<!-- Node1&#45;&gt;Node2 -->
<g id="edge1" class="edge"><title>Node1&#45;&gt;Node2</title>
<path fill="none" stroke="midnightblue" d="M364.447,-211.501C330.799,-199.374 286.578,-183.437 255.177,-172.12"/>
<polygon fill="midnightblue" stroke="midnightblue" points="363.485,-214.875 374.079,-214.973 365.858,-208.289 363.485,-214.875"/>
</g>
<!-- Node4 -->
<g id="node4" class="node"><title>Node4</title>
<g id="a_node4"><a xlink:href="$AC__Circle_8h.html" xlink:title="libraries/AC_WPNav\l/AC_Circle.h">
<polygon fill="white" stroke="black" points="-0.5,-69 -0.5,-99 106.5,-99 106.5,-69 -0.5,-69"/>
<text text-anchor="start" x="7.5" y="-87" font-family="Helvetica,sans-Serif" font-size="10.00">libraries/AC_WPNav</text>
<text text-anchor="middle" x="53" y="-76" font-family="Helvetica,sans-Serif" font-size="10.00">/AC_Circle.h</text>
</a>
</g>
</g>
<!-- Node1&#45;&gt;Node4 -->
<g id="edge11" class="edge"><title>Node1&#45;&gt;Node4</title>
<path fill="none" stroke="midnightblue" d="M343.071,-228.178C284.879,-224.752 201.576,-213.299 138,-178 103.386,-158.782 75.2275,-120.249 61.6992,-99.3211"/>
<polygon fill="midnightblue" stroke="midnightblue" points="343.103,-231.684 353.272,-228.712 343.469,-224.694 343.103,-231.684"/>
</g>
<!-- Node6 -->
<g id="node6" class="node"><title>Node6</title>
<g id="a_node6"><a xlink:href="$AC__WPNav_8h.html" xlink:title="libraries/AC_WPNav\l/AC_WPNav.h">
<polygon fill="white" stroke="black" points="281.5,-69 281.5,-99 388.5,-99 388.5,-69 281.5,-69"/>
<text text-anchor="start" x="289.5" y="-87" font-family="Helvetica,sans-Serif" font-size="10.00">libraries/AC_WPNav</text>
<text text-anchor="middle" x="335" y="-76" font-family="Helvetica,sans-Serif" font-size="10.00">/AC_WPNav.h</text>
</a>
</g>
</g>
<!-- Node1&#45;&gt;Node6 -->
<g id="edge12" class="edge"><title>Node1&#45;&gt;Node6</title>
<path fill="none" stroke="midnightblue" d="M382.147,-208.723C371.718,-200.391 360.964,-189.893 354,-178 339.344,-152.972 335.859,-118.4 335.113,-99.2374"/>
<polygon fill="midnightblue" stroke="midnightblue" points="380.273,-211.694 390.362,-214.927 384.491,-206.107 380.273,-211.694"/>
</g>
<!-- Node8 -->
<g id="node8" class="node"><title>Node8</title>
<g id="a_node8"><a xlink:href="$AC__Fence_8h.html" xlink:title="libraries/AC_Fence\l/AC_Fence.h">
<polygon fill="white" stroke="black" points="363,-142 363,-172 463,-172 463,-142 363,-142"/>
<text text-anchor="start" x="371" y="-160" font-family="Helvetica,sans-Serif" font-size="10.00">libraries/AC_Fence</text>
<text text-anchor="middle" x="413" y="-149" font-family="Helvetica,sans-Serif" font-size="10.00">/AC_Fence.h</text>
</a>
</g>
</g>
<!-- Node1&#45;&gt;Node8 -->
<g id="edge7" class="edge"><title>Node1&#45;&gt;Node8</title>
<path fill="none" stroke="midnightblue" d="M413,-204.898C413,-194.131 413,-181.801 413,-172.486"/>
<polygon fill="midnightblue" stroke="midnightblue" points="409.5,-204.973 413,-214.973 416.5,-204.973 409.5,-204.973"/>
</g>
<!-- Node10 -->
<g id="node10" class="node"><title>Node10</title>
<g id="a_node10"><a xlink:href="$AC__Sprayer_8h.html" xlink:title="Crop sprayer library. ">
<polygon fill="white" stroke="black" points="481.5,-142 481.5,-172 588.5,-172 588.5,-142 481.5,-142"/>
<text text-anchor="start" x="489.5" y="-160" font-family="Helvetica,sans-Serif" font-size="10.00">libraries/AC_Sprayer</text>
<text text-anchor="middle" x="535" y="-149" font-family="Helvetica,sans-Serif" font-size="10.00">/AC_Sprayer.h</text>
</a>
</g>
</g>
<!-- Node1&#45;&gt;Node10 -->
<g id="edge9" class="edge"><title>Node1&#45;&gt;Node10</title>
<path fill="none" stroke="midnightblue" d="M445.757,-209.936C466.141,-198.074 491.924,-183.069 510.529,-172.241"/>
<polygon fill="midnightblue" stroke="midnightblue" points="443.986,-206.918 437.103,-214.973 447.507,-212.968 443.986,-206.918"/>
</g>
<!-- Node12 -->
<g id="node12" class="node"><title>Node12</title>
<g id="a_node12"><a xlink:href="$ArduCopterLibs_8pde.html" xlink:title="libraries/AP_HAL_AVR\l/examples/ArduCopterLibs\l/ArduCopterLibs.pde">
<polygon fill="white" stroke="black" points="607,-136.5 607,-177.5 739,-177.5 739,-136.5 607,-136.5"/>
<text text-anchor="start" x="615" y="-165.5" font-family="Helvetica,sans-Serif" font-size="10.00">libraries/AP_HAL_AVR</text>
<text text-anchor="start" x="615" y="-154.5" font-family="Helvetica,sans-Serif" font-size="10.00">/examples/ArduCopterLibs</text>
<text text-anchor="middle" x="673" y="-143.5" font-family="Helvetica,sans-Serif" font-size="10.00">/ArduCopterLibs.pde</text>
</a>
</g>
</g>
<!-- Node1&#45;&gt;Node12 -->
<g id="edge13" class="edge"><title>Node1&#45;&gt;Node12</title>
<path fill="none" stroke="midnightblue" d="M474.23,-212.279C514.107,-201.39 566.107,-187.19 606.918,-176.045"/>
<polygon fill="midnightblue" stroke="midnightblue" points="473.092,-208.962 464.368,-214.973 474.936,-215.715 473.092,-208.962"/>
</g>
<!-- Node13 -->
<g id="node13" class="node"><title>Node13</title>
<g id="a_node13"><a xlink:href="$AP__InertialNav__NavEKF_8cpp.html" xlink:title="libraries/AP_InertialNav\l/AP_InertialNav_NavEKF.cpp">
<polygon fill="white" stroke="black" points="757.5,-142 757.5,-172 904.5,-172 904.5,-142 757.5,-142"/>
<text text-anchor="start" x="765.5" y="-160" font-family="Helvetica,sans-Serif" font-size="10.00">libraries/AP_InertialNav</text>
<text text-anchor="middle" x="831" y="-149" font-family="Helvetica,sans-Serif" font-size="10.00">/AP_InertialNav_NavEKF.cpp</text>
</a>
</g>
</g>
<!-- Node1&#45;&gt;Node13 -->
<g id="edge14" class="edge"><title>Node1&#45;&gt;Node13</title>
<path fill="none" stroke="midnightblue" d="M482.728,-220.151C550.7,-211.11 656.849,-195.886 748,-178 757.018,-176.23 766.536,-174.145 775.783,-172"/>
<polygon fill="midnightblue" stroke="midnightblue" points="482.024,-216.714 472.569,-221.494 482.941,-223.654 482.024,-216.714"/>
</g>
<!-- Node3 -->
<g id="node3" class="node"><title>Node3</title>
<g id="a_node3"><a xlink:href="$AC__PosControl_8cpp.html" xlink:title="libraries/AC_AttitudeControl\l/AC_PosControl.cpp">
<polygon fill="white" stroke="black" points="125,-69 125,-99 263,-99 263,-69 125,-69"/>
<text text-anchor="start" x="133" y="-87" font-family="Helvetica,sans-Serif" font-size="10.00">libraries/AC_AttitudeControl</text>
<text text-anchor="middle" x="194" y="-76" font-family="Helvetica,sans-Serif" font-size="10.00">/AC_PosControl.cpp</text>
</a>
</g>
</g>
<!-- Node2&#45;&gt;Node3 -->
<g id="edge2" class="edge"><title>Node2&#45;&gt;Node3</title>
<path fill="none" stroke="midnightblue" d="M208.636,-132.234C205.275,-121.389 201.405,-108.898 198.489,-99.4856"/>
<polygon fill="midnightblue" stroke="midnightblue" points="205.35,-133.457 211.654,-141.973 212.037,-131.385 205.35,-133.457"/>
</g>
<!-- Node2&#45;&gt;Node4 -->
<g id="edge3" class="edge"><title>Node2&#45;&gt;Node4</title>
<path fill="none" stroke="midnightblue" d="M174.385,-137.873C146.733,-125.829 110.951,-110.243 85.4152,-99.1195"/>
<polygon fill="midnightblue" stroke="midnightblue" points="173.231,-141.188 183.796,-141.973 176.026,-134.77 173.231,-141.188"/>
</g>
<!-- Node2&#45;&gt;Node6 -->
<g id="edge5" class="edge"><title>Node2&#45;&gt;Node6</title>
<path fill="none" stroke="midnightblue" d="M248.219,-136.777C268.059,-124.939 293.064,-110.02 311.131,-99.2412"/>
<polygon fill="midnightblue" stroke="midnightblue" points="246.305,-133.843 239.511,-141.973 249.892,-139.855 246.305,-133.843"/>
</g>
<!-- Node5 -->
<g id="node5" class="node"><title>Node5</title>
<g id="a_node5"><a xlink:href="$AC__Circle_8cpp.html" xlink:title="libraries/AC_WPNav\l/AC_Circle.cpp">
<polygon fill="white" stroke="black" points="-0.5,-1 -0.5,-31 106.5,-31 106.5,-1 -0.5,-1"/>
<text text-anchor="start" x="7.5" y="-19" font-family="Helvetica,sans-Serif" font-size="10.00">libraries/AC_WPNav</text>
<text text-anchor="middle" x="53" y="-8" font-family="Helvetica,sans-Serif" font-size="10.00">/AC_Circle.cpp</text>
</a>
</g>
</g>
<!-- Node4&#45;&gt;Node5 -->
<g id="edge4" class="edge"><title>Node4&#45;&gt;Node5</title>
<path fill="none" stroke="midnightblue" d="M53,-58.5322C53,-49.3606 53,-39.2449 53,-31.2931"/>
<polygon fill="midnightblue" stroke="midnightblue" points="49.5001,-58.6789 53,-68.679 56.5001,-58.679 49.5001,-58.6789"/>
</g>
<!-- Node7 -->
<g id="node7" class="node"><title>Node7</title>
<g id="a_node7"><a xlink:href="$AC__WPNav_8cpp.html" xlink:title="libraries/AC_WPNav\l/AC_WPNav.cpp">
<polygon fill="white" stroke="black" points="281.5,-1 281.5,-31 388.5,-31 388.5,-1 281.5,-1"/>
<text text-anchor="start" x="289.5" y="-19" font-family="Helvetica,sans-Serif" font-size="10.00">libraries/AC_WPNav</text>
<text text-anchor="middle" x="335" y="-8" font-family="Helvetica,sans-Serif" font-size="10.00">/AC_WPNav.cpp</text>
</a>
</g>
</g>
<!-- Node6&#45;&gt;Node7 -->
<g id="edge6" class="edge"><title>Node6&#45;&gt;Node7</title>
<path fill="none" stroke="midnightblue" d="M335,-58.5322C335,-49.3606 335,-39.2449 335,-31.2931"/>
<polygon fill="midnightblue" stroke="midnightblue" points="331.5,-58.6789 335,-68.679 338.5,-58.679 331.5,-58.6789"/>
</g>
<!-- Node9 -->
<g id="node9" class="node"><title>Node9</title>
<g id="a_node9"><a xlink:href="$AC__Fence_8cpp.html" xlink:title="libraries/AC_Fence\l/AC_Fence.cpp">
<polygon fill="white" stroke="black" points="407,-69 407,-99 507,-99 507,-69 407,-69"/>
<text text-anchor="start" x="415" y="-87" font-family="Helvetica,sans-Serif" font-size="10.00">libraries/AC_Fence</text>
<text text-anchor="middle" x="457" y="-76" font-family="Helvetica,sans-Serif" font-size="10.00">/AC_Fence.cpp</text>
</a>
</g>
</g>
<!-- Node8&#45;&gt;Node9 -->
<g id="edge8" class="edge"><title>Node8&#45;&gt;Node9</title>
<path fill="none" stroke="midnightblue" d="M427.108,-133.235C433.969,-122.164 442.01,-109.189 448.023,-99.4856"/>
<polygon fill="midnightblue" stroke="midnightblue" points="423.986,-131.629 421.693,-141.973 429.936,-135.316 423.986,-131.629"/>
</g>
<!-- Node11 -->
<g id="node11" class="node"><title>Node11</title>
<g id="a_node11"><a xlink:href="$AC__Sprayer_8cpp.html" xlink:title="libraries/AC_Sprayer\l/AC_Sprayer.cpp">
<polygon fill="white" stroke="black" points="525.5,-69 525.5,-99 632.5,-99 632.5,-69 525.5,-69"/>
<text text-anchor="start" x="533.5" y="-87" font-family="Helvetica,sans-Serif" font-size="10.00">libraries/AC_Sprayer</text>
<text text-anchor="middle" x="579" y="-76" font-family="Helvetica,sans-Serif" font-size="10.00">/AC_Sprayer.cpp</text>
</a>
</g>
</g>
<!-- Node10&#45;&gt;Node11 -->
<g id="edge10" class="edge"><title>Node10&#45;&gt;Node11</title>
<path fill="none" stroke="midnightblue" d="M549.108,-133.235C555.969,-122.164 564.01,-109.189 570.023,-99.4856"/>
<polygon fill="midnightblue" stroke="midnightblue" points="545.986,-131.629 543.693,-141.973 551.936,-135.316 545.986,-131.629"/>
</g>
</g>
</svg>
