<?xml version="1.0" encoding="UTF-8" standalone="no"?>
<!DOCTYPE svg PUBLIC "-//W3C//DTD SVG 1.1//EN"
 "http://www.w3.org/Graphics/SVG/1.1/DTD/svg11.dtd">
<!-- Generated by graphviz version 2.36.0 (20140111.2315)
 -->
<!-- Title: libraries/AP_HAL_AVR/GPIO.h Pages: 1 -->
<svg width="963pt" height="244pt"
 viewBox="0.00 0.00 963.00 244.00" xmlns="http://www.w3.org/2000/svg" xmlns:xlink="http://www.w3.org/1999/xlink">
<g id="graph0" class="graph" transform="scale(1 1) rotate(0) translate(4 240)">
<title>libraries/AP_HAL_AVR/GPIO.h</title>
<polygon fill="white" stroke="none" points="-4,4 -4,-240 959,-240 959,4 -4,4"/>
<!-- Node1 -->
<g id="node1" class="node"><title>Node1</title>
<polygon fill="#bfbfbf" stroke="black" points="429,-205 429,-235 547,-235 547,-205 429,-205"/>
<text text-anchor="start" x="437" y="-223" font-family="Helvetica,sans-Serif" font-size="10.00">libraries/AP_HAL_AVR</text>
<text text-anchor="middle" x="488" y="-212" font-family="Helvetica,sans-Serif" font-size="10.00">/GPIO.h</text>
</g>
<!-- Node2 -->
<g id="node2" class="node"><title>Node2</title>
<g id="a_node2"><a xlink:href="$AVR_2SPIDriver_8h.html" xlink:title="libraries/AP_HAL_AVR\l/SPIDriver.h">
<polygon fill="white" stroke="black" points="255,-137 255,-167 373,-167 373,-137 255,-137"/>
<text text-anchor="start" x="263" y="-155" font-family="Helvetica,sans-Serif" font-size="10.00">libraries/AP_HAL_AVR</text>
<text text-anchor="middle" x="314" y="-144" font-family="Helvetica,sans-Serif" font-size="10.00">/SPIDriver.h</text>
</a>
</g>
</g>
<!-- Node1&#45;&gt;Node2 -->
<g id="edge1" class="edge"><title>Node1&#45;&gt;Node2</title>
<path fill="none" stroke="midnightblue" d="M440.998,-201.171C412.719,-190.445 377.234,-176.985 350.967,-167.022"/>
<polygon fill="midnightblue" stroke="midnightblue" points="440.081,-204.567 450.673,-204.841 442.564,-198.022 440.081,-204.567"/>
</g>
<!-- Node3 -->
<g id="node3" class="node"><title>Node3</title>
<g id="a_node3"><a xlink:href="$AP__HAL__AVR__private_8h.html" xlink:title="libraries/AP_HAL_AVR\l/AP_HAL_AVR_private.h">
<polygon fill="white" stroke="black" points="91.5,-69 91.5,-99 218.5,-99 218.5,-69 91.5,-69"/>
<text text-anchor="start" x="99.5" y="-87" font-family="Helvetica,sans-Serif" font-size="10.00">libraries/AP_HAL_AVR</text>
<text text-anchor="middle" x="155" y="-76" font-family="Helvetica,sans-Serif" font-size="10.00">/AP_HAL_AVR_private.h</text>
</a>
</g>
</g>
<!-- Node1&#45;&gt;Node3 -->
<g id="edge7" class="edge"><title>Node1&#45;&gt;Node3</title>
<path fill="none" stroke="midnightblue" d="M418.771,-214.177C368.528,-208.41 300.159,-195.755 246,-168 212.508,-150.836 182.056,-118.042 166.294,-99.222"/>
<polygon fill="midnightblue" stroke="midnightblue" points="418.567,-217.676 428.886,-215.274 419.322,-210.716 418.567,-217.676"/>
</g>
<!-- Node6 -->
<g id="node6" class="node"><title>Node6</title>
<g id="a_node6"><a xlink:href="$SPIDeviceManager__APM1_8cpp.html" xlink:title="libraries/AP_HAL_AVR\l/SPIDeviceManager_APM1.cpp">
<polygon fill="white" stroke="black" points="409.5,-69 409.5,-99 564.5,-99 564.5,-69 409.5,-69"/>
<text text-anchor="start" x="417.5" y="-87" font-family="Helvetica,sans-Serif" font-size="10.00">libraries/AP_HAL_AVR</text>
<text text-anchor="middle" x="487" y="-76" font-family="Helvetica,sans-Serif" font-size="10.00">/SPIDeviceManager_APM1.cpp</text>
</a>
</g>
</g>
<!-- Node1&#45;&gt;Node6 -->
<g id="edge12" class="edge"><title>Node1&#45;&gt;Node6</title>
<path fill="none" stroke="midnightblue" d="M449.718,-199.523C437.989,-191.477 426.479,-180.958 420,-168 413.64,-155.279 413.685,-148.743 420,-136 427.919,-120.02 443.507,-107.688 457.655,-99.1568"/>
<polygon fill="midnightblue" stroke="midnightblue" points="447.914,-202.524 458.229,-204.944 451.675,-196.62 447.914,-202.524"/>
</g>
<!-- Node8 -->
<g id="node8" class="node"><title>Node8</title>
<g id="a_node8"><a xlink:href="$AP__HAL__AVR_2GPIO_8cpp.html" xlink:title="libraries/AP_HAL_AVR\l/GPIO.cpp">
<polygon fill="white" stroke="black" points="429,-137 429,-167 547,-167 547,-137 429,-137"/>
<text text-anchor="start" x="437" y="-155" font-family="Helvetica,sans-Serif" font-size="10.00">libraries/AP_HAL_AVR</text>
<text text-anchor="middle" x="488" y="-144" font-family="Helvetica,sans-Serif" font-size="10.00">/GPIO.cpp</text>
</a>
</g>
</g>
<!-- Node1&#45;&gt;Node8 -->
<g id="edge8" class="edge"><title>Node1&#45;&gt;Node8</title>
<path fill="none" stroke="midnightblue" d="M488,-194.532C488,-185.361 488,-175.245 488,-167.293"/>
<polygon fill="midnightblue" stroke="midnightblue" points="484.5,-194.679 488,-204.679 491.5,-194.679 484.5,-194.679"/>
</g>
<!-- Node9 -->
<g id="node9" class="node"><title>Node9</title>
<g id="a_node9"><a xlink:href="$SPIDevice__SPI0_8cpp.html" xlink:title="libraries/AP_HAL_AVR\l/SPIDevice_SPI0.cpp">
<polygon fill="white" stroke="black" points="565,-137 565,-167 683,-167 683,-137 565,-137"/>
<text text-anchor="start" x="573" y="-155" font-family="Helvetica,sans-Serif" font-size="10.00">libraries/AP_HAL_AVR</text>
<text text-anchor="middle" x="624" y="-144" font-family="Helvetica,sans-Serif" font-size="10.00">/SPIDevice_SPI0.cpp</text>
</a>
</g>
</g>
<!-- Node1&#45;&gt;Node9 -->
<g id="edge9" class="edge"><title>Node1&#45;&gt;Node9</title>
<path fill="none" stroke="midnightblue" d="M526.453,-200.339C548.177,-189.796 574.895,-176.83 594.873,-167.135"/>
<polygon fill="midnightblue" stroke="midnightblue" points="524.644,-197.327 517.175,-204.841 527.7,-203.624 524.644,-197.327"/>
</g>
<!-- Node10 -->
<g id="node10" class="node"><title>Node10</title>
<g id="a_node10"><a xlink:href="$SPIDevice__SPI2_8cpp.html" xlink:title="libraries/AP_HAL_AVR\l/SPIDevice_SPI2.cpp">
<polygon fill="white" stroke="black" points="701,-137 701,-167 819,-167 819,-137 701,-137"/>
<text text-anchor="start" x="709" y="-155" font-family="Helvetica,sans-Serif" font-size="10.00">libraries/AP_HAL_AVR</text>
<text text-anchor="middle" x="760" y="-144" font-family="Helvetica,sans-Serif" font-size="10.00">/SPIDevice_SPI2.cpp</text>
</a>
</g>
</g>
<!-- Node1&#45;&gt;Node10 -->
<g id="edge10" class="edge"><title>Node1&#45;&gt;Node10</title>
<path fill="none" stroke="midnightblue" d="M555.98,-202.505C600.958,-191.591 659.303,-177.434 702.072,-167.056"/>
<polygon fill="midnightblue" stroke="midnightblue" points="554.91,-199.163 546.017,-204.922 556.561,-205.965 554.91,-199.163"/>
</g>
<!-- Node11 -->
<g id="node11" class="node"><title>Node11</title>
<g id="a_node11"><a xlink:href="$SPIDevice__SPI3_8cpp.html" xlink:title="libraries/AP_HAL_AVR\l/SPIDevice_SPI3.cpp">
<polygon fill="white" stroke="black" points="837,-137 837,-167 955,-167 955,-137 837,-137"/>
<text text-anchor="start" x="845" y="-155" font-family="Helvetica,sans-Serif" font-size="10.00">libraries/AP_HAL_AVR</text>
<text text-anchor="middle" x="896" y="-144" font-family="Helvetica,sans-Serif" font-size="10.00">/SPIDevice_SPI3.cpp</text>
</a>
</g>
</g>
<!-- Node1&#45;&gt;Node11 -->
<g id="edge11" class="edge"><title>Node1&#45;&gt;Node11</title>
<path fill="none" stroke="midnightblue" d="M557.457,-209.994C626.335,-200.732 734.771,-185.254 828,-168 830.853,-167.472 833.769,-166.911 836.71,-166.328"/>
<polygon fill="midnightblue" stroke="midnightblue" points="556.617,-206.575 547.169,-211.371 557.545,-213.514 556.617,-206.575"/>
</g>
<!-- Node2&#45;&gt;Node3 -->
<g id="edge2" class="edge"><title>Node2&#45;&gt;Node3</title>
<path fill="none" stroke="midnightblue" d="M270.371,-132.89C244.643,-122.21 212.573,-108.898 188.78,-99.0218"/>
<polygon fill="midnightblue" stroke="midnightblue" points="269.313,-136.24 279.891,-136.841 271.996,-129.775 269.313,-136.24"/>
</g>
<!-- Node2&#45;&gt;Node6 -->
<g id="edge5" class="edge"><title>Node2&#45;&gt;Node6</title>
<path fill="none" stroke="midnightblue" d="M360.732,-133.171C388.848,-122.445 424.13,-108.985 450.246,-99.0218"/>
<polygon fill="midnightblue" stroke="midnightblue" points="359.208,-130.007 351.113,-136.841 361.704,-136.547 359.208,-130.007"/>
</g>
<!-- Node7 -->
<g id="node7" class="node"><title>Node7</title>
<g id="a_node7"><a xlink:href="$SPIDeviceManager__APM2_8cpp.html" xlink:title="libraries/AP_HAL_AVR\l/SPIDeviceManager_APM2.cpp">
<polygon fill="white" stroke="black" points="236.5,-69 236.5,-99 391.5,-99 391.5,-69 236.5,-69"/>
<text text-anchor="start" x="244.5" y="-87" font-family="Helvetica,sans-Serif" font-size="10.00">libraries/AP_HAL_AVR</text>
<text text-anchor="middle" x="314" y="-76" font-family="Helvetica,sans-Serif" font-size="10.00">/SPIDeviceManager_APM2.cpp</text>
</a>
</g>
</g>
<!-- Node2&#45;&gt;Node7 -->
<g id="edge6" class="edge"><title>Node2&#45;&gt;Node7</title>
<path fill="none" stroke="midnightblue" d="M314,-126.532C314,-117.361 314,-107.245 314,-99.2931"/>
<polygon fill="midnightblue" stroke="midnightblue" points="310.5,-126.679 314,-136.679 317.5,-126.679 310.5,-126.679"/>
</g>
<!-- Node4 -->
<g id="node4" class="node"><title>Node4</title>
<g id="a_node4"><a xlink:href="$HAL__AVR__APM1__Class_8cpp.html" xlink:title="libraries/AP_HAL_AVR\l/HAL_AVR_APM1_Class.cpp">
<polygon fill="white" stroke="black" points="-0.5,-1 -0.5,-31 146.5,-31 146.5,-1 -0.5,-1"/>
<text text-anchor="start" x="7.5" y="-19" font-family="Helvetica,sans-Serif" font-size="10.00">libraries/AP_HAL_AVR</text>
<text text-anchor="middle" x="73" y="-8" font-family="Helvetica,sans-Serif" font-size="10.00">/HAL_AVR_APM1_Class.cpp</text>
</a>
</g>
</g>
<!-- Node3&#45;&gt;Node4 -->
<g id="edge3" class="edge"><title>Node3&#45;&gt;Node4</title>
<path fill="none" stroke="midnightblue" d="M129.294,-62.3094C116.662,-52.1426 101.77,-40.1562 90.4764,-31.0663"/>
<polygon fill="midnightblue" stroke="midnightblue" points="127.223,-65.1354 137.207,-68.679 131.612,-59.6823 127.223,-65.1354"/>
</g>
<!-- Node5 -->
<g id="node5" class="node"><title>Node5</title>
<g id="a_node5"><a xlink:href="$HAL__AVR__APM2__Class_8cpp.html" xlink:title="libraries/AP_HAL_AVR\l/HAL_AVR_APM2_Class.cpp">
<polygon fill="white" stroke="black" points="164.5,-1 164.5,-31 311.5,-31 311.5,-1 164.5,-1"/>
<text text-anchor="start" x="172.5" y="-19" font-family="Helvetica,sans-Serif" font-size="10.00">libraries/AP_HAL_AVR</text>
<text text-anchor="middle" x="238" y="-8" font-family="Helvetica,sans-Serif" font-size="10.00">/HAL_AVR_APM2_Class.cpp</text>
</a>
</g>
</g>
<!-- Node3&#45;&gt;Node5 -->
<g id="edge4" class="edge"><title>Node3&#45;&gt;Node5</title>
<path fill="none" stroke="midnightblue" d="M181.02,-62.3094C193.806,-52.1426 208.879,-40.1562 220.311,-31.0663"/>
<polygon fill="midnightblue" stroke="midnightblue" points="178.658,-59.7155 173.01,-68.679 183.015,-65.1945 178.658,-59.7155"/>
</g>
</g>
</svg>
