<?xml version="1.0" encoding="UTF-8" standalone="no"?>
<!DOCTYPE svg PUBLIC "-//W3C//DTD SVG 1.1//EN"
 "http://www.w3.org/Graphics/SVG/1.1/DTD/svg11.dtd">
<!-- Generated by graphviz version 2.36.0 (20140111.2315)
 -->
<!-- Title: libraries/AP_HAL_AVR/RCInput.h Pages: 1 -->
<svg width="499pt" height="176pt"
 viewBox="0.00 0.00 499.00 176.00" xmlns="http://www.w3.org/2000/svg" xmlns:xlink="http://www.w3.org/1999/xlink">
<g id="graph0" class="graph" transform="scale(1 1) rotate(0) translate(4 172)">
<title>libraries/AP_HAL_AVR/RCInput.h</title>
<polygon fill="white" stroke="none" points="-4,4 -4,-172 495,-172 495,4 -4,4"/>
<!-- Node1 -->
<g id="node1" class="node"><title>Node1</title>
<polygon fill="#bfbfbf" stroke="black" points="237,-137 237,-167 355,-167 355,-137 237,-137"/>
<text text-anchor="start" x="245" y="-155" font-family="Helvetica,sans-Serif" font-size="10.00">libraries/AP_HAL_AVR</text>
<text text-anchor="middle" x="296" y="-144" font-family="Helvetica,sans-Serif" font-size="10.00">/RCInput.h</text>
</g>
<!-- Node2 -->
<g id="node2" class="node"><title>Node2</title>
<g id="a_node2"><a xlink:href="$AP__HAL__AVR__private_8h.html" xlink:title="libraries/AP_HAL_AVR\l/AP_HAL_AVR_private.h">
<polygon fill="white" stroke="black" points="91.5,-69 91.5,-99 218.5,-99 218.5,-69 91.5,-69"/>
<text text-anchor="start" x="99.5" y="-87" font-family="Helvetica,sans-Serif" font-size="10.00">libraries/AP_HAL_AVR</text>
<text text-anchor="middle" x="155" y="-76" font-family="Helvetica,sans-Serif" font-size="10.00">/AP_HAL_AVR_private.h</text>
</a>
</g>
</g>
<!-- Node1&#45;&gt;Node2 -->
<g id="edge1" class="edge"><title>Node1&#45;&gt;Node2</title>
<path fill="none" stroke="midnightblue" d="M256.436,-132.48C233.859,-121.913 206.003,-108.874 185.198,-99.1352"/>
<polygon fill="midnightblue" stroke="midnightblue" points="255.211,-135.772 265.752,-136.841 258.179,-129.432 255.211,-135.772"/>
</g>
<!-- Node5 -->
<g id="node5" class="node"><title>Node5</title>
<g id="a_node5"><a xlink:href="$RCInput__APM1_8cpp.html" xlink:title="libraries/AP_HAL_AVR\l/RCInput_APM1.cpp">
<polygon fill="white" stroke="black" points="237,-69 237,-99 355,-99 355,-69 237,-69"/>
<text text-anchor="start" x="245" y="-87" font-family="Helvetica,sans-Serif" font-size="10.00">libraries/AP_HAL_AVR</text>
<text text-anchor="middle" x="296" y="-76" font-family="Helvetica,sans-Serif" font-size="10.00">/RCInput_APM1.cpp</text>
</a>
</g>
</g>
<!-- Node1&#45;&gt;Node5 -->
<g id="edge4" class="edge"><title>Node1&#45;&gt;Node5</title>
<path fill="none" stroke="midnightblue" d="M296,-126.532C296,-117.361 296,-107.245 296,-99.2931"/>
<polygon fill="midnightblue" stroke="midnightblue" points="292.5,-126.679 296,-136.679 299.5,-126.679 292.5,-126.679"/>
</g>
<!-- Node6 -->
<g id="node6" class="node"><title>Node6</title>
<g id="a_node6"><a xlink:href="$RCInput__APM2_8cpp.html" xlink:title="libraries/AP_HAL_AVR\l/RCInput_APM2.cpp">
<polygon fill="white" stroke="black" points="373,-69 373,-99 491,-99 491,-69 373,-69"/>
<text text-anchor="start" x="381" y="-87" font-family="Helvetica,sans-Serif" font-size="10.00">libraries/AP_HAL_AVR</text>
<text text-anchor="middle" x="432" y="-76" font-family="Helvetica,sans-Serif" font-size="10.00">/RCInput_APM2.cpp</text>
</a>
</g>
</g>
<!-- Node1&#45;&gt;Node6 -->
<g id="edge5" class="edge"><title>Node1&#45;&gt;Node6</title>
<path fill="none" stroke="midnightblue" d="M334.453,-132.339C356.177,-121.796 382.895,-108.83 402.873,-99.1352"/>
<polygon fill="midnightblue" stroke="midnightblue" points="332.644,-129.327 325.175,-136.841 335.7,-135.624 332.644,-129.327"/>
</g>
<!-- Node3 -->
<g id="node3" class="node"><title>Node3</title>
<g id="a_node3"><a xlink:href="$HAL__AVR__APM1__Class_8cpp.html" xlink:title="libraries/AP_HAL_AVR\l/HAL_AVR_APM1_Class.cpp">
<polygon fill="white" stroke="black" points="-0.5,-1 -0.5,-31 146.5,-31 146.5,-1 -0.5,-1"/>
<text text-anchor="start" x="7.5" y="-19" font-family="Helvetica,sans-Serif" font-size="10.00">libraries/AP_HAL_AVR</text>
<text text-anchor="middle" x="73" y="-8" font-family="Helvetica,sans-Serif" font-size="10.00">/HAL_AVR_APM1_Class.cpp</text>
</a>
</g>
</g>
<!-- Node2&#45;&gt;Node3 -->
<g id="edge2" class="edge"><title>Node2&#45;&gt;Node3</title>
<path fill="none" stroke="midnightblue" d="M129.294,-62.3094C116.662,-52.1426 101.77,-40.1562 90.4764,-31.0663"/>
<polygon fill="midnightblue" stroke="midnightblue" points="127.223,-65.1354 137.207,-68.679 131.612,-59.6823 127.223,-65.1354"/>
</g>
<!-- Node4 -->
<g id="node4" class="node"><title>Node4</title>
<g id="a_node4"><a xlink:href="$HAL__AVR__APM2__Class_8cpp.html" xlink:title="libraries/AP_HAL_AVR\l/HAL_AVR_APM2_Class.cpp">
<polygon fill="white" stroke="black" points="164.5,-1 164.5,-31 311.5,-31 311.5,-1 164.5,-1"/>
<text text-anchor="start" x="172.5" y="-19" font-family="Helvetica,sans-Serif" font-size="10.00">libraries/AP_HAL_AVR</text>
<text text-anchor="middle" x="238" y="-8" font-family="Helvetica,sans-Serif" font-size="10.00">/HAL_AVR_APM2_Class.cpp</text>
</a>
</g>
</g>
<!-- Node2&#45;&gt;Node4 -->
<g id="edge3" class="edge"><title>Node2&#45;&gt;Node4</title>
<path fill="none" stroke="midnightblue" d="M181.02,-62.3094C193.806,-52.1426 208.879,-40.1562 220.311,-31.0663"/>
<polygon fill="midnightblue" stroke="midnightblue" points="178.658,-59.7155 173.01,-68.679 183.015,-65.1945 178.658,-59.7155"/>
</g>
</g>
</svg>
