<?xml version="1.0" encoding="UTF-8" standalone="no"?>
<!DOCTYPE svg PUBLIC "-//W3C//DTD SVG 1.1//EN"
 "http://www.w3.org/Graphics/SVG/1.1/DTD/svg11.dtd">
<!-- Generated by graphviz version 2.36.0 (20140111.2315)
 -->
<!-- Title: setup Pages: 1 -->
<svg width="684pt" height="424pt"
 viewBox="0.00 0.00 684.00 424.00" xmlns="http://www.w3.org/2000/svg" xmlns:xlink="http://www.w3.org/1999/xlink">
<g id="graph0" class="graph" transform="scale(1 1) rotate(0) translate(4 420)">
<title>setup</title>
<polygon fill="white" stroke="none" points="-4,4 -4,-420 680,-420 680,4 -4,4"/>
<!-- Node1 -->
<g id="node1" class="node"><title>Node1</title>
<polygon fill="#bfbfbf" stroke="black" points="0.5,-238.5 0.5,-257.5 41.5,-257.5 41.5,-238.5 0.5,-238.5"/>
<text text-anchor="middle" x="21" y="-245.5" font-family="Helvetica,sans-Serif" font-size="10.00">setup</text>
</g>
<!-- Node2 -->
<g id="node2" class="node"><title>Node2</title>
<g id="a_node2"><a xlink:href="$classAP__HAL_1_1Print.html#ad337ce3f7977411b7d34d47a51e5737e" xlink:title="AP_HAL::Print::println">
<polygon fill="white" stroke="black" points="85.5,-366.5 85.5,-385.5 198.5,-385.5 198.5,-366.5 85.5,-366.5"/>
<text text-anchor="middle" x="142" y="-373.5" font-family="Helvetica,sans-Serif" font-size="10.00">AP_HAL::Print::println</text>
</a>
</g>
</g>
<!-- Node1&#45;&gt;Node2 -->
<g id="edge1" class="edge"><title>Node1&#45;&gt;Node2</title>
<path fill="none" stroke="midnightblue" d="M25.7512,-257.534C33.2926,-275.705 51.8343,-315.732 78,-341 86.6137,-349.318 97.5917,-356.308 107.963,-361.801"/>
<polygon fill="midnightblue" stroke="midnightblue" points="106.719,-365.092 117.231,-366.42 109.842,-358.827 106.719,-365.092"/>
</g>
<!-- Node6 -->
<g id="node6" class="node"><title>Node6</title>
<g id="a_node6"><a xlink:href="$classAP__HAL_1_1Scheduler.html#ab3175e2e6223ccfe82f957e41cc12b26" xlink:title="AP_HAL::Scheduler::\ldelay">
<polygon fill="white" stroke="black" points="244,-317 244,-347 354,-347 354,-317 244,-317"/>
<text text-anchor="start" x="252" y="-335" font-family="Helvetica,sans-Serif" font-size="10.00">AP_HAL::Scheduler::</text>
<text text-anchor="middle" x="299" y="-324" font-family="Helvetica,sans-Serif" font-size="10.00">delay</text>
</a>
</g>
</g>
<!-- Node1&#45;&gt;Node6 -->
<g id="edge6" class="edge"><title>Node1&#45;&gt;Node6</title>
<path fill="none" stroke="midnightblue" d="M28.2604,-257.608C37.4309,-270.787 55.8537,-294.078 78,-305 126.449,-328.894 187.918,-334.702 233.559,-335.074"/>
<polygon fill="midnightblue" stroke="midnightblue" points="233.631,-338.574 243.63,-335.071 233.629,-331.574 233.631,-338.574"/>
</g>
<!-- Node7 -->
<g id="node7" class="node"><title>Node7</title>
<g id="a_node7"><a xlink:href="$classAP__HAL_1_1GPIO.html#a3dfc60214bd1aa4936d51ca72c045b95" xlink:title="AP_HAL::GPIO::pinMode">
<polygon fill="white" stroke="black" points="78,-200.5 78,-219.5 206,-219.5 206,-200.5 78,-200.5"/>
<text text-anchor="middle" x="142" y="-207.5" font-family="Helvetica,sans-Serif" font-size="10.00">AP_HAL::GPIO::pinMode</text>
</a>
</g>
</g>
<!-- Node1&#45;&gt;Node7 -->
<g id="edge7" class="edge"><title>Node1&#45;&gt;Node7</title>
<path fill="none" stroke="midnightblue" d="M41.6421,-241.152C52.3588,-237.463 65.8763,-232.884 78,-229 84.6518,-226.869 91.7198,-224.672 98.6258,-222.563"/>
<polygon fill="midnightblue" stroke="midnightblue" points="100.006,-225.802 108.561,-219.552 97.9753,-219.103 100.006,-225.802"/>
</g>
<!-- Node8 -->
<g id="node8" class="node"><title>Node8</title>
<g id="a_node8"><a xlink:href="$classAP__HAL_1_1GPIO.html#a2b0664bdab1876e3b0bbcd9064eec88e" xlink:title="AP_HAL::GPIO::write">
<polygon fill="white" stroke="black" points="85.5,-162.5 85.5,-181.5 198.5,-181.5 198.5,-162.5 85.5,-162.5"/>
<text text-anchor="middle" x="142" y="-169.5" font-family="Helvetica,sans-Serif" font-size="10.00">AP_HAL::GPIO::write</text>
</a>
</g>
</g>
<!-- Node1&#45;&gt;Node8 -->
<g id="edge8" class="edge"><title>Node1&#45;&gt;Node8</title>
<path fill="none" stroke="midnightblue" d="M28.8662,-238.479C38.4709,-225.834 57.1034,-203.628 78,-191 81.5749,-188.84 85.4137,-186.909 89.3681,-185.186"/>
<polygon fill="midnightblue" stroke="midnightblue" points="90.6899,-188.427 98.7353,-181.534 88.1469,-181.906 90.6899,-188.427"/>
</g>
<!-- Node9 -->
<g id="node9" class="node"><title>Node9</title>
<g id="a_node9"><a xlink:href="$classAP__Baro.html#a942db790233528bfbb4d9a07c3454360" xlink:title="AP_Baro::init">
<polygon fill="white" stroke="black" points="105,-276.5 105,-295.5 179,-295.5 179,-276.5 105,-276.5"/>
<text text-anchor="middle" x="142" y="-283.5" font-family="Helvetica,sans-Serif" font-size="10.00">AP_Baro::init</text>
</a>
</g>
</g>
<!-- Node1&#45;&gt;Node9 -->
<g id="edge9" class="edge"><title>Node1&#45;&gt;Node9</title>
<path fill="none" stroke="midnightblue" d="M41.6421,-254.848C52.3588,-258.537 65.8763,-263.116 78,-267 84.6518,-269.131 91.7198,-271.328 98.6258,-273.437"/>
<polygon fill="midnightblue" stroke="midnightblue" points="97.9753,-276.897 108.561,-276.448 100.006,-270.198 97.9753,-276.897"/>
</g>
<!-- Node11 -->
<g id="node11" class="node"><title>Node11</title>
<g id="a_node11"><a xlink:href="$classAP__Baro.html#aead101a2ea48cacf195ea157e8b5c7da" xlink:title="AP_Baro::calibrate">
<polygon fill="white" stroke="black" points="93,-238.5 93,-257.5 191,-257.5 191,-238.5 93,-238.5"/>
<text text-anchor="middle" x="142" y="-245.5" font-family="Helvetica,sans-Serif" font-size="10.00">AP_Baro::calibrate</text>
</a>
</g>
</g>
<!-- Node1&#45;&gt;Node11 -->
<g id="edge11" class="edge"><title>Node1&#45;&gt;Node11</title>
<path fill="none" stroke="midnightblue" d="M41.6504,-248C52.9678,-248 67.8449,-248 82.6291,-248"/>
<polygon fill="midnightblue" stroke="midnightblue" points="82.8046,-251.5 92.8045,-248 82.8045,-244.5 82.8046,-251.5"/>
</g>
<!-- Node23 -->
<g id="node23" class="node"><title>Node23</title>
<g id="a_node23"><a xlink:href="$classAP__HAL_1_1Scheduler.html#add46d722bfb08a16f220e63591654e46" xlink:title="AP_HAL::Scheduler::\lmicros">
<polygon fill="white" stroke="black" points="87,-113 87,-143 197,-143 197,-113 87,-113"/>
<text text-anchor="start" x="95" y="-131" font-family="Helvetica,sans-Serif" font-size="10.00">AP_HAL::Scheduler::</text>
<text text-anchor="middle" x="142" y="-120" font-family="Helvetica,sans-Serif" font-size="10.00">micros</text>
</a>
</g>
</g>
<!-- Node1&#45;&gt;Node23 -->
<g id="edge31" class="edge"><title>Node1&#45;&gt;Node23</title>
<path fill="none" stroke="midnightblue" d="M25.2979,-238.232C32.173,-219.256 49.7837,-177.153 78,-153 79.9555,-151.326 82.0368,-149.756 84.2081,-148.283"/>
<polygon fill="midnightblue" stroke="midnightblue" points="86.15,-151.201 92.9537,-143.079 82.5703,-145.185 86.15,-151.201"/>
</g>
<!-- Node3 -->
<g id="node3" class="node"><title>Node3</title>
<g id="a_node3"><a xlink:href="$classAP__HAL_1_1Print.html#acfe80773011eb17dfb52c2fba517a093" xlink:title="AP_HAL::Print::print">
<polygon fill="white" stroke="black" points="406,-396.5 406,-415.5 512,-415.5 512,-396.5 406,-396.5"/>
<text text-anchor="middle" x="459" y="-403.5" font-family="Helvetica,sans-Serif" font-size="10.00">AP_HAL::Print::print</text>
</a>
</g>
</g>
<!-- Node2&#45;&gt;Node3 -->
<g id="edge2" class="edge"><title>Node2&#45;&gt;Node3</title>
<path fill="none" stroke="midnightblue" d="M185.679,-385.534C203.064,-389.066 223.409,-392.754 242,-395 293.594,-401.234 352.535,-403.943 395.799,-405.115"/>
<polygon fill="midnightblue" stroke="midnightblue" points="395.806,-408.617 405.89,-405.369 395.981,-401.619 395.806,-408.617"/>
</g>
<!-- Node5 -->
<g id="node5" class="node"><title>Node5</title>
<g id="a_node5"><a xlink:href="$classAP__HAL_1_1Print.html#a169b128f9e22f0c15883768f580541a2" xlink:title="AP_HAL::Print::println">
<polygon fill="white" stroke="black" points="242.5,-366.5 242.5,-385.5 355.5,-385.5 355.5,-366.5 242.5,-366.5"/>
<text text-anchor="middle" x="299" y="-373.5" font-family="Helvetica,sans-Serif" font-size="10.00">AP_HAL::Print::println</text>
</a>
</g>
</g>
<!-- Node2&#45;&gt;Node5 -->
<g id="edge4" class="edge"><title>Node2&#45;&gt;Node5</title>
<path fill="none" stroke="midnightblue" d="M198.521,-376C209.428,-376 220.968,-376 232.175,-376"/>
<polygon fill="midnightblue" stroke="midnightblue" points="232.346,-379.5 242.346,-376 232.346,-372.5 232.346,-379.5"/>
</g>
<!-- Node4 -->
<g id="node4" class="node"><title>Node4</title>
<g id="a_node4"><a xlink:href="$classAP__HAL_1_1Print.html#acc65391952a43334f8f5c9bef341f501" xlink:title="AP_HAL::Print::write">
<polygon fill="white" stroke="black" points="565,-396.5 565,-415.5 673,-415.5 673,-396.5 565,-396.5"/>
<text text-anchor="middle" x="619" y="-403.5" font-family="Helvetica,sans-Serif" font-size="10.00">AP_HAL::Print::write</text>
</a>
</g>
</g>
<!-- Node3&#45;&gt;Node4 -->
<g id="edge3" class="edge"><title>Node3&#45;&gt;Node4</title>
<path fill="none" stroke="midnightblue" d="M512.173,-406C525.771,-406 540.573,-406 554.679,-406"/>
<polygon fill="midnightblue" stroke="midnightblue" points="554.801,-409.5 564.801,-406 554.801,-402.5 554.801,-409.5"/>
</g>
<!-- Node5&#45;&gt;Node3 -->
<g id="edge5" class="edge"><title>Node5&#45;&gt;Node3</title>
<path fill="none" stroke="midnightblue" d="M350.427,-385.575C365.466,-388.43 382.101,-391.589 397.704,-394.551"/>
<polygon fill="midnightblue" stroke="midnightblue" points="397.304,-398.038 407.781,-396.465 398.61,-391.161 397.304,-398.038"/>
</g>
<!-- Node10 -->
<g id="node10" class="node"><title>Node10</title>
<g id="a_node10"><a xlink:href="$classAP__HAL_1_1Scheduler.html#a65f0d4e404d3e6fda4d8b0b101c9780f" xlink:title="AP_HAL::Scheduler::\lpanic">
<polygon fill="white" stroke="black" points="244,-268 244,-298 354,-298 354,-268 244,-268"/>
<text text-anchor="start" x="252" y="-286" font-family="Helvetica,sans-Serif" font-size="10.00">AP_HAL::Scheduler::</text>
<text text-anchor="middle" x="299" y="-275" font-family="Helvetica,sans-Serif" font-size="10.00">panic</text>
</a>
</g>
</g>
<!-- Node9&#45;&gt;Node10 -->
<g id="edge10" class="edge"><title>Node9&#45;&gt;Node10</title>
<path fill="none" stroke="midnightblue" d="M179.341,-285.297C195.573,-284.982 215.198,-284.603 233.775,-284.243"/>
<polygon fill="midnightblue" stroke="midnightblue" points="234.029,-287.739 243.959,-284.046 233.893,-280.74 234.029,-287.739"/>
</g>
<!-- Node11&#45;&gt;Node6 -->
<g id="edge29" class="edge"><title>Node11&#45;&gt;Node6</title>
<path fill="none" stroke="midnightblue" d="M186.07,-257.539C193.022,-260.035 199.923,-263.144 206,-267 226.195,-279.815 222.659,-292.93 242,-307 244.461,-308.79 247.07,-310.492 249.763,-312.103"/>
<polygon fill="midnightblue" stroke="midnightblue" points="248.126,-315.197 258.577,-316.937 251.492,-309.059 248.126,-315.197"/>
</g>
<!-- Node11&#45;&gt;Node10 -->
<g id="edge28" class="edge"><title>Node11&#45;&gt;Node10</title>
<path fill="none" stroke="midnightblue" d="M185.354,-257.564C200.274,-260.933 217.399,-264.8 233.718,-268.485"/>
<polygon fill="midnightblue" stroke="midnightblue" points="233.222,-271.961 243.748,-270.749 234.764,-265.133 233.222,-271.961"/>
</g>
<!-- Node12 -->
<g id="node12" class="node"><title>Node12</title>
<g id="a_node12"><a xlink:href="$classAP__HAL_1_1Scheduler.html#a26b68339fc68a562d8d3a1238d0ec8c1" xlink:title="AP_HAL::Scheduler::\lmillis">
<polygon fill="white" stroke="black" points="404,-0 404,-30 514,-30 514,-0 404,-0"/>
<text text-anchor="start" x="412" y="-18" font-family="Helvetica,sans-Serif" font-size="10.00">AP_HAL::Scheduler::</text>
<text text-anchor="middle" x="459" y="-7" font-family="Helvetica,sans-Serif" font-size="10.00">millis</text>
</a>
</g>
</g>
<!-- Node11&#45;&gt;Node12 -->
<g id="edge12" class="edge"><title>Node11&#45;&gt;Node12</title>
<path fill="none" stroke="midnightblue" d="M187.326,-238.498C193.907,-236.014 200.362,-232.899 206,-229 227.642,-214.034 224.39,-201.551 242,-182 303.439,-113.789 314.223,-88.7672 392,-40 395.143,-38.029 398.467,-36.1745 401.883,-34.4365"/>
<polygon fill="midnightblue" stroke="midnightblue" points="403.526,-37.5316 411.085,-30.108 400.547,-31.1973 403.526,-37.5316"/>
</g>
<!-- Node13 -->
<g id="node13" class="node"><title>Node13</title>
<g id="a_node13"><a xlink:href="$classAP__Baro.html#a51144302ade095d22cafe8fa4928fd29" xlink:title="AP_Baro::update">
<polygon fill="white" stroke="black" points="253.5,-191.5 253.5,-210.5 344.5,-210.5 344.5,-191.5 253.5,-191.5"/>
<text text-anchor="middle" x="299" y="-198.5" font-family="Helvetica,sans-Serif" font-size="10.00">AP_Baro::update</text>
</a>
</g>
</g>
<!-- Node11&#45;&gt;Node13 -->
<g id="edge13" class="edge"><title>Node11&#45;&gt;Node13</title>
<path fill="none" stroke="midnightblue" d="M174.731,-238.447C184.737,-235.43 195.832,-232.081 206,-229 222.515,-223.996 240.691,-218.469 256.495,-213.656"/>
<polygon fill="midnightblue" stroke="midnightblue" points="257.951,-216.872 266.497,-210.609 255.911,-210.175 257.951,-216.872"/>
</g>
<!-- Node16 -->
<g id="node16" class="node"><title>Node16</title>
<g id="a_node16"><a xlink:href="$classAP__Baro.html#afdb3b202976bb59dfcc20e6d799029e0" xlink:title="AP_Baro::healthy">
<polygon fill="white" stroke="black" points="412.5,-325.5 412.5,-344.5 505.5,-344.5 505.5,-325.5 412.5,-325.5"/>
<text text-anchor="middle" x="459" y="-332.5" font-family="Helvetica,sans-Serif" font-size="10.00">AP_Baro::healthy</text>
</a>
</g>
</g>
<!-- Node11&#45;&gt;Node16 -->
<g id="edge30" class="edge"><title>Node11&#45;&gt;Node16</title>
<path fill="none" stroke="midnightblue" d="M191.416,-238.488C237.082,-232.15 305.827,-229.634 356,-259 381.859,-274.135 368.037,-298.013 392,-316 395.379,-318.537 399.088,-320.735 402.97,-322.64"/>
<polygon fill="midnightblue" stroke="midnightblue" points="401.695,-325.901 412.268,-326.575 404.423,-319.455 401.695,-325.901"/>
</g>
<!-- Node13&#45;&gt;Node12 -->
<g id="edge15" class="edge"><title>Node13&#45;&gt;Node12</title>
<path fill="none" stroke="midnightblue" d="M305.865,-191.474C316.218,-174.589 338.312,-138.243 356,-107 372.655,-77.5833 366.584,-62.2878 392,-40 393.935,-38.3035 395.996,-36.7171 398.15,-35.2342"/>
<polygon fill="midnightblue" stroke="midnightblue" points="400.076,-38.1606 406.848,-30.0132 396.473,-32.1588 400.076,-38.1606"/>
</g>
<!-- Node14 -->
<g id="node14" class="node"><title>Node14</title>
<g id="a_node14"><a xlink:href="$classAP__Baro__Backend.html#a27149c1b07d599cf5a60baeb75e662d9" xlink:title="AP_Baro_Backend::update">
<polygon fill="white" stroke="black" points="392,-49.5 392,-68.5 526,-68.5 526,-49.5 392,-49.5"/>
<text text-anchor="middle" x="459" y="-56.5" font-family="Helvetica,sans-Serif" font-size="10.00">AP_Baro_Backend::update</text>
</a>
</g>
</g>
<!-- Node13&#45;&gt;Node14 -->
<g id="edge14" class="edge"><title>Node13&#45;&gt;Node14</title>
<path fill="none" stroke="midnightblue" d="M304.47,-191.323C315.707,-168.081 347.458,-108.764 392,-78 394.884,-76.0084 397.975,-74.2237 401.188,-72.6245"/>
<polygon fill="midnightblue" stroke="midnightblue" points="402.712,-75.7788 410.497,-68.5917 399.929,-69.3557 402.712,-75.7788"/>
</g>
<!-- Node15 -->
<g id="node15" class="node"><title>Node15</title>
<g id="a_node15"><a xlink:href="$AP__Math_8h.html#a108b79eeb35c5d58f324458ec9e1e9f2" xlink:title="is_zero">
<polygon fill="white" stroke="black" points="435,-287.5 435,-306.5 483,-306.5 483,-287.5 435,-287.5"/>
<text text-anchor="middle" x="459" y="-294.5" font-family="Helvetica,sans-Serif" font-size="10.00">is_zero</text>
</a>
</g>
</g>
<!-- Node13&#45;&gt;Node15 -->
<g id="edge16" class="edge"><title>Node13&#45;&gt;Node15</title>
<path fill="none" stroke="midnightblue" d="M330.804,-210.589C339.518,-214.222 348.628,-218.977 356,-225 377.767,-242.785 369.283,-260.445 392,-277 401.631,-284.018 413.749,-288.602 424.966,-291.584"/>
<polygon fill="midnightblue" stroke="midnightblue" points="424.382,-295.042 434.915,-293.896 425.967,-288.224 424.382,-295.042"/>
</g>
<!-- Node13&#45;&gt;Node16 -->
<g id="edge17" class="edge"><title>Node13&#45;&gt;Node16</title>
<path fill="none" stroke="midnightblue" d="M334.065,-210.571C342.036,-214.084 349.954,-218.781 356,-225 386.319,-256.185 359.799,-286.763 392,-316 395.228,-318.931 398.88,-321.412 402.769,-323.512"/>
<polygon fill="midnightblue" stroke="midnightblue" points="401.631,-326.838 412.186,-327.753 404.506,-320.455 401.631,-326.838"/>
</g>
<!-- Node17 -->
<g id="node17" class="node"><title>Node17</title>
<g id="a_node17"><a xlink:href="$classAP__Baro.html#ac46bc3a53717630410a48a1c1a5f2444" xlink:title="AP_Baro::get_altitude\l_difference">
<polygon fill="white" stroke="black" points="403,-238 403,-268 515,-268 515,-238 403,-238"/>
<text text-anchor="start" x="411" y="-256" font-family="Helvetica,sans-Serif" font-size="10.00">AP_Baro::get_altitude</text>
<text text-anchor="middle" x="459" y="-245" font-family="Helvetica,sans-Serif" font-size="10.00">_difference</text>
</a>
</g>
</g>
<!-- Node13&#45;&gt;Node17 -->
<g id="edge19" class="edge"><title>Node13&#45;&gt;Node17</title>
<path fill="none" stroke="midnightblue" d="M328.98,-210.538C349.507,-217.293 377.688,-226.568 402.477,-234.727"/>
<polygon fill="midnightblue" stroke="midnightblue" points="401.551,-238.106 412.144,-237.908 403.739,-231.457 401.551,-238.106"/>
</g>
<!-- Node19 -->
<g id="node19" class="node"><title>Node19</title>
<g id="a_node19"><a xlink:href="$classDerivativeFilter.html#a3dc3710f5d9fba8d264a473d6a297be2" xlink:title="DerivativeFilter::update">
<polygon fill="white" stroke="black" points="400,-199.5 400,-218.5 518,-218.5 518,-199.5 400,-199.5"/>
<text text-anchor="middle" x="459" y="-206.5" font-family="Helvetica,sans-Serif" font-size="10.00">DerivativeFilter::update</text>
</a>
</g>
</g>
<!-- Node13&#45;&gt;Node19 -->
<g id="edge22" class="edge"><title>Node13&#45;&gt;Node19</title>
<path fill="none" stroke="midnightblue" d="M344.854,-203.271C358.716,-203.973 374.314,-204.763 389.398,-205.526"/>
<polygon fill="midnightblue" stroke="midnightblue" points="389.567,-209.039 399.731,-206.05 389.921,-202.048 389.567,-209.039"/>
</g>
<!-- Node21 -->
<g id="node21" class="node"><title>Node21</title>
<g id="a_node21"><a xlink:href="$classAP__Baro.html#a984b4dbc11e276e832467253590da933" xlink:title="AP_Baro::get_altitude">
<polygon fill="white" stroke="black" points="403,-143.5 403,-162.5 515,-162.5 515,-143.5 403,-143.5"/>
<text text-anchor="middle" x="459" y="-150.5" font-family="Helvetica,sans-Serif" font-size="10.00">AP_Baro::get_altitude</text>
</a>
</g>
</g>
<!-- Node13&#45;&gt;Node21 -->
<g id="edge24" class="edge"><title>Node13&#45;&gt;Node21</title>
<path fill="none" stroke="midnightblue" d="M331.594,-191.402C356.029,-183.978 390.067,-173.638 416.666,-165.557"/>
<polygon fill="midnightblue" stroke="midnightblue" points="417.91,-168.837 426.461,-162.582 415.875,-162.14 417.91,-168.837"/>
</g>
<!-- Node22 -->
<g id="node22" class="node"><title>Node22</title>
<g id="a_node22"><a xlink:href="$classAP__Baro.html#aae5b3ae28aca807eb20b722a04685061" xlink:title="AP_Baro::get_last_update">
<polygon fill="white" stroke="black" points="393.5,-87.5 393.5,-106.5 524.5,-106.5 524.5,-87.5 393.5,-87.5"/>
<text text-anchor="middle" x="459" y="-94.5" font-family="Helvetica,sans-Serif" font-size="10.00">AP_Baro::get_last_update</text>
</a>
</g>
</g>
<!-- Node13&#45;&gt;Node22 -->
<g id="edge26" class="edge"><title>Node13&#45;&gt;Node22</title>
<path fill="none" stroke="midnightblue" d="M312.172,-191.418C329.48,-177.961 362.393,-152.985 392,-134 404.303,-126.111 418.378,-118.091 430.361,-111.543"/>
<polygon fill="midnightblue" stroke="midnightblue" points="432.311,-114.468 439.449,-106.639 428.987,-108.308 432.311,-114.468"/>
</g>
<!-- Node16&#45;&gt;Node16 -->
<g id="edge18" class="edge"><title>Node16&#45;&gt;Node16</title>
<path fill="none" stroke="midnightblue" d="M434.339,-344.757C422.342,-353.565 430.562,-363 459,-363 478.106,-363 488.086,-358.741 488.94,-353.275"/>
<polygon fill="midnightblue" stroke="midnightblue" points="491.904,-351.413 483.661,-344.757 485.954,-355.101 491.904,-351.413"/>
</g>
<!-- Node18 -->
<g id="node18" class="node"><title>Node18</title>
<g id="a_node18"><a xlink:href="$classAP__Baro.html#a56e804f0994a7fa0bb295735002c928e" xlink:title="AP_Baro::get_ground\l_temperature">
<polygon fill="white" stroke="black" points="564,-238 564,-268 674,-268 674,-238 564,-238"/>
<text text-anchor="start" x="572" y="-256" font-family="Helvetica,sans-Serif" font-size="10.00">AP_Baro::get_ground</text>
<text text-anchor="middle" x="619" y="-245" font-family="Helvetica,sans-Serif" font-size="10.00">_temperature</text>
</a>
</g>
</g>
<!-- Node17&#45;&gt;Node18 -->
<g id="edge20" class="edge"><title>Node17&#45;&gt;Node18</title>
<path fill="none" stroke="midnightblue" d="M515.261,-253C527.689,-253 540.982,-253 553.743,-253"/>
<polygon fill="midnightblue" stroke="midnightblue" points="553.836,-256.5 563.836,-253 553.836,-249.5 553.836,-256.5"/>
</g>
<!-- Node18&#45;&gt;Node18 -->
<g id="edge21" class="edge"><title>Node18&#45;&gt;Node18</title>
<path fill="none" stroke="midnightblue" d="M590.875,-268.275C584.625,-277.406 594,-286 619,-286 633.844,-286 643.179,-282.97 647.006,-278.598"/>
<polygon fill="midnightblue" stroke="midnightblue" points="650.509,-278.315 647.125,-268.275 643.51,-278.234 650.509,-278.315"/>
</g>
<!-- Node20 -->
<g id="node20" class="node"><title>Node20</title>
<g id="a_node20"><a xlink:href="$classFilterWithBuffer.html#aae753aef534f178a80c4833e6b3f7639" xlink:title="FilterWithBuffer::apply">
<polygon fill="white" stroke="black" points="562,-199.5 562,-218.5 676,-218.5 676,-199.5 562,-199.5"/>
<text text-anchor="middle" x="619" y="-206.5" font-family="Helvetica,sans-Serif" font-size="10.00">FilterWithBuffer::apply</text>
</a>
</g>
</g>
<!-- Node19&#45;&gt;Node20 -->
<g id="edge23" class="edge"><title>Node19&#45;&gt;Node20</title>
<path fill="none" stroke="midnightblue" d="M518.384,-209C529.288,-209 540.754,-209 551.871,-209"/>
<polygon fill="midnightblue" stroke="midnightblue" points="551.956,-212.5 561.956,-209 551.956,-205.5 551.956,-212.5"/>
</g>
<!-- Node21&#45;&gt;Node21 -->
<g id="edge25" class="edge"><title>Node21&#45;&gt;Node21</title>
<path fill="none" stroke="midnightblue" d="M434.339,-162.757C422.342,-171.565 430.562,-181 459,-181 478.106,-181 488.086,-176.741 488.94,-171.275"/>
<polygon fill="midnightblue" stroke="midnightblue" points="491.904,-169.413 483.661,-162.757 485.954,-173.101 491.904,-169.413"/>
</g>
<!-- Node22&#45;&gt;Node22 -->
<g id="edge27" class="edge"><title>Node22&#45;&gt;Node22</title>
<path fill="none" stroke="midnightblue" d="M434.339,-106.757C422.342,-115.565 430.562,-125 459,-125 478.106,-125 488.086,-120.741 488.94,-115.275"/>
<polygon fill="midnightblue" stroke="midnightblue" points="491.904,-113.413 483.661,-106.757 485.954,-117.101 491.904,-113.413"/>
</g>
</g>
</svg>
