<?xml version="1.0" encoding="UTF-8" standalone="no"?>
<!DOCTYPE svg PUBLIC "-//W3C//DTD SVG 1.1//EN"
 "http://www.w3.org/Graphics/SVG/1.1/DTD/svg11.dtd">
<!-- Generated by graphviz version 2.36.0 (20140111.2315)
 -->
<!-- Title: NavEKF::getVehicleArmStatus Pages: 1 -->
<svg width="504pt" height="47pt"
 viewBox="0.00 0.00 504.00 47.00" xmlns="http://www.w3.org/2000/svg" xmlns:xlink="http://www.w3.org/1999/xlink">
<g id="graph0" class="graph" transform="scale(1 1) rotate(0) translate(4 43)">
<title>NavEKF::getVehicleArmStatus</title>
<polygon fill="white" stroke="none" points="-4,4 -4,-43 500,-43 500,4 -4,4"/>
<!-- Node1 -->
<g id="node1" class="node"><title>Node1</title>
<polygon fill="#bfbfbf" stroke="black" points="0,-0.5 0,-19.5 152,-19.5 152,-0.5 0,-0.5"/>
<text text-anchor="middle" x="76" y="-7.5" font-family="Helvetica,sans-Serif" font-size="10.00">NavEKF::getVehicleArmStatus</text>
</g>
<!-- Node2 -->
<g id="node2" class="node"><title>Node2</title>
<g id="a_node2"><a xlink:href="$classNavEKF.html#a9eb8c77b7f824e2ebbf378f1d269290b" xlink:title="NavEKF::performArmingChecks">
<polygon fill="white" stroke="black" points="188,-19.5 188,-38.5 346,-38.5 346,-19.5 188,-19.5"/>
<text text-anchor="middle" x="267" y="-26.5" font-family="Helvetica,sans-Serif" font-size="10.00">NavEKF::performArmingChecks</text>
</a>
</g>
</g>
<!-- Node1&#45;&gt;Node2 -->
<g id="edge1" class="edge"><title>Node1&#45;&gt;Node2</title>
<path fill="none" stroke="midnightblue" d="M162.224,-18.5675C170.782,-19.4278 179.443,-20.2985 187.922,-21.1509"/>
<polygon fill="midnightblue" stroke="midnightblue" points="162.541,-15.0818 152.241,-17.5639 161.841,-22.0467 162.541,-15.0818"/>
</g>
<!-- Node3 -->
<g id="node3" class="node"><title>Node3</title>
<g id="a_node3"><a xlink:href="$classNavEKF.html#a58d3c9694abab421e8eadd78e72ac67c" xlink:title="NavEKF::UpdateFilter">
<polygon fill="white" stroke="black" points="382.5,-0.5 382.5,-19.5 495.5,-19.5 495.5,-0.5 382.5,-0.5"/>
<text text-anchor="middle" x="439" y="-7.5" font-family="Helvetica,sans-Serif" font-size="10.00">NavEKF::UpdateFilter</text>
</a>
</g>
</g>
<!-- Node1&#45;&gt;Node3 -->
<g id="edge3" class="edge"><title>Node1&#45;&gt;Node3</title>
<path fill="none" stroke="midnightblue" d="M162.502,-10C230.496,-10 323.642,-10 382.314,-10"/>
<polygon fill="midnightblue" stroke="midnightblue" points="162.238,-6.5001 152.238,-10 162.238,-13.5001 162.238,-6.5001"/>
</g>
<!-- Node2&#45;&gt;Node3 -->
<g id="edge2" class="edge"><title>Node2&#45;&gt;Node3</title>
<path fill="none" stroke="midnightblue" d="M356.081,-19.1557C364.981,-18.1609 373.836,-17.1713 382.255,-16.2304"/>
<polygon fill="midnightblue" stroke="midnightblue" points="355.584,-15.6894 346.034,-20.2785 356.361,-22.646 355.584,-15.6894"/>
</g>
</g>
</svg>
