<?xml version="1.0" encoding="UTF-8" standalone="no"?>
<!DOCTYPE svg PUBLIC "-//W3C//DTD SVG 1.1//EN"
 "http://www.w3.org/Graphics/SVG/1.1/DTD/svg11.dtd">
<!-- Generated by graphviz version 2.36.0 (20140111.2315)
 -->
<!-- Title: OreoLED_PX4::set_macro Pages: 1 -->
<svg width="294pt" height="77pt"
 viewBox="0.00 0.00 294.00 77.00" xmlns="http://www.w3.org/2000/svg" xmlns:xlink="http://www.w3.org/1999/xlink">
<g id="graph0" class="graph" transform="scale(1 1) rotate(0) translate(4 73)">
<title>OreoLED_PX4::set_macro</title>
<polygon fill="white" stroke="none" points="-4,4 -4,-73 290,-73 290,4 -4,4"/>
<!-- Node1 -->
<g id="node1" class="node"><title>Node1</title>
<polygon fill="#bfbfbf" stroke="black" points="0.5,-22.5 0.5,-41.5 133.5,-41.5 133.5,-22.5 0.5,-22.5"/>
<text text-anchor="middle" x="67" y="-29.5" font-family="Helvetica,sans-Serif" font-size="10.00">OreoLED_PX4::set_macro</text>
</g>
<!-- Node2 -->
<g id="node2" class="node"><title>Node2</title>
<g id="a_node2"><a xlink:href="$classOreoLED__PX4.html#a8a9bbad92734cecc23ce5f97da42b09a" xlink:title="OreoLED_PX4::handle\l_led_control">
<polygon fill="white" stroke="black" points="170,-39 170,-69 286,-69 286,-39 170,-39"/>
<text text-anchor="start" x="178" y="-57" font-family="Helvetica,sans-Serif" font-size="10.00">OreoLED_PX4::handle</text>
<text text-anchor="middle" x="228" y="-46" font-family="Helvetica,sans-Serif" font-size="10.00">_led_control</text>
</a>
</g>
</g>
<!-- Node1&#45;&gt;Node2 -->
<g id="edge1" class="edge"><title>Node1&#45;&gt;Node2</title>
<path fill="none" stroke="midnightblue" d="M143.559,-42.4547C152.435,-43.6828 161.376,-44.92 169.94,-46.1048"/>
<polygon fill="midnightblue" stroke="midnightblue" points="143.975,-38.979 133.589,-41.0753 143.015,-45.9129 143.975,-38.979"/>
</g>
<!-- Node3 -->
<g id="node3" class="node"><title>Node3</title>
<g id="a_node3"><a xlink:href="$classOreoLED__PX4.html#a1290546627d10e7b3ea537ee6b926844" xlink:title="OreoLED_PX4::update">
<polygon fill="white" stroke="black" points="170,-0.5 170,-19.5 286,-19.5 286,-0.5 170,-0.5"/>
<text text-anchor="middle" x="228" y="-7.5" font-family="Helvetica,sans-Serif" font-size="10.00">OreoLED_PX4::update</text>
</a>
</g>
</g>
<!-- Node1&#45;&gt;Node3 -->
<g id="edge2" class="edge"><title>Node1&#45;&gt;Node3</title>
<path fill="none" stroke="midnightblue" d="M143.559,-21.5453C152.435,-20.3172 161.376,-19.08 169.94,-17.8952"/>
<polygon fill="midnightblue" stroke="midnightblue" points="143.015,-18.0871 133.589,-22.9247 143.975,-25.021 143.015,-18.0871"/>
</g>
</g>
</svg>
