<?xml version="1.0" encoding="UTF-8" standalone="no"?>
<!DOCTYPE svg PUBLIC "-//W3C//DTD SVG 1.1//EN"
 "http://www.w3.org/Graphics/SVG/1.1/DTD/svg11.dtd">
<!-- Generated by graphviz version 2.36.0 (20140111.2315)
 -->
<!-- Title: AP_Compass_PX4::init Pages: 1 -->
<svg width="928pt" height="447pt"
 viewBox="0.00 0.00 928.00 447.00" xmlns="http://www.w3.org/2000/svg" xmlns:xlink="http://www.w3.org/1999/xlink">
<g id="graph0" class="graph" transform="scale(1 1) rotate(0) translate(4 443)">
<title>AP_Compass_PX4::init</title>
<polygon fill="white" stroke="none" points="-4,4 -4,-443 924,-443 924,4 -4,4"/>
<!-- Node1 -->
<g id="node1" class="node"><title>Node1</title>
<polygon fill="#bfbfbf" stroke="black" points="0,-267.5 0,-286.5 120,-286.5 120,-267.5 0,-267.5"/>
<text text-anchor="middle" x="60" y="-274.5" font-family="Helvetica,sans-Serif" font-size="10.00">AP_Compass_PX4::init</text>
</g>
<!-- Node2 -->
<g id="node2" class="node"><title>Node2</title>
<g id="a_node2"><a xlink:href="$classAP__HAL_1_1UARTDriver.html#a4b1ae6fcec3dfe651d08faf589f4ad6d" xlink:title="AP_HAL::UARTDriver\l::printf">
<polygon fill="white" stroke="black" points="177.5,-409 177.5,-439 292.5,-439 292.5,-409 177.5,-409"/>
<text text-anchor="start" x="185.5" y="-427" font-family="Helvetica,sans-Serif" font-size="10.00">AP_HAL::UARTDriver</text>
<text text-anchor="middle" x="235" y="-416" font-family="Helvetica,sans-Serif" font-size="10.00">::printf</text>
</a>
</g>
</g>
<!-- Node1&#45;&gt;Node2 -->
<g id="edge1" class="edge"><title>Node1&#45;&gt;Node2</title>
<path fill="none" stroke="midnightblue" d="M65.7849,-286.51C77.7652,-309.366 111.323,-367.796 156,-399 159.707,-401.589 163.696,-403.921 167.841,-406.019"/>
<polygon fill="midnightblue" stroke="midnightblue" points="166.562,-409.282 177.112,-410.248 169.467,-402.914 166.562,-409.282"/>
</g>
<!-- Node3 -->
<g id="node3" class="node"><title>Node3</title>
<g id="a_node3"><a xlink:href="$classAP__Compass__Backend.html#aee0aed3dcceb809b122d2a0784f44593" xlink:title="AP_Compass_Backend\l::register_compass">
<polygon fill="white" stroke="black" points="174.5,-360 174.5,-390 295.5,-390 295.5,-360 174.5,-360"/>
<text text-anchor="start" x="182.5" y="-378" font-family="Helvetica,sans-Serif" font-size="10.00">AP_Compass_Backend</text>
<text text-anchor="middle" x="235" y="-367" font-family="Helvetica,sans-Serif" font-size="10.00">::register_compass</text>
</a>
</g>
</g>
<!-- Node1&#45;&gt;Node3 -->
<g id="edge2" class="edge"><title>Node1&#45;&gt;Node3</title>
<path fill="none" stroke="midnightblue" d="M71.0036,-286.609C87.482,-301.97 121.916,-332.139 156,-350 160.263,-352.234 164.762,-354.314 169.36,-356.242"/>
<polygon fill="midnightblue" stroke="midnightblue" points="168.306,-359.588 178.894,-359.986 170.865,-353.073 168.306,-359.588"/>
</g>
<!-- Node6 -->
<g id="node6" class="node"><title>Node6</title>
<g id="a_node6"><a xlink:href="$classAP__Compass__Backend.html#a81a8f162131d1cd7a54d9fe52448d31f" xlink:title="AP_Compass_Backend\l::set_dev_id">
<polygon fill="white" stroke="black" points="174.5,-311 174.5,-341 295.5,-341 295.5,-311 174.5,-311"/>
<text text-anchor="start" x="182.5" y="-329" font-family="Helvetica,sans-Serif" font-size="10.00">AP_Compass_Backend</text>
<text text-anchor="middle" x="235" y="-318" font-family="Helvetica,sans-Serif" font-size="10.00">::set_dev_id</text>
</a>
</g>
</g>
<!-- Node1&#45;&gt;Node6 -->
<g id="edge5" class="edge"><title>Node1&#45;&gt;Node6</title>
<path fill="none" stroke="midnightblue" d="M94.7668,-286.564C116.478,-292.713 145.356,-300.893 171.183,-308.208"/>
<polygon fill="midnightblue" stroke="midnightblue" points="170.335,-311.605 180.91,-310.963 172.243,-304.87 170.335,-311.605"/>
</g>
<!-- Node7 -->
<g id="node7" class="node"><title>Node7</title>
<g id="a_node7"><a xlink:href="$classAP__Compass__Backend.html#a4c240d26d00dd5888fef16c22f1252c8" xlink:title="AP_Compass_Backend\l::set_external">
<polygon fill="white" stroke="black" points="174.5,-262 174.5,-292 295.5,-292 295.5,-262 174.5,-262"/>
<text text-anchor="start" x="182.5" y="-280" font-family="Helvetica,sans-Serif" font-size="10.00">AP_Compass_Backend</text>
<text text-anchor="middle" x="235" y="-269" font-family="Helvetica,sans-Serif" font-size="10.00">::set_external</text>
</a>
</g>
</g>
<!-- Node1&#45;&gt;Node7 -->
<g id="edge6" class="edge"><title>Node1&#45;&gt;Node7</title>
<path fill="none" stroke="midnightblue" d="M120.053,-277C134.289,-277 149.632,-277 164.303,-277"/>
<polygon fill="midnightblue" stroke="midnightblue" points="164.332,-280.5 174.332,-277 164.332,-273.5 164.332,-280.5"/>
</g>
<!-- Node8 -->
<g id="node8" class="node"><title>Node8</title>
<g id="a_node8"><a xlink:href="$classVector3.html#adf1769d5ee5df2f8585df2f540fa5efe" xlink:title="Vector3::zero">
<polygon fill="white" stroke="black" points="844.5,-185.5 844.5,-204.5 919.5,-204.5 919.5,-185.5 844.5,-185.5"/>
<text text-anchor="middle" x="882" y="-192.5" font-family="Helvetica,sans-Serif" font-size="10.00">Vector3::zero</text>
</a>
</g>
</g>
<!-- Node1&#45;&gt;Node8 -->
<g id="edge7" class="edge"><title>Node1&#45;&gt;Node8</title>
<path fill="none" stroke="midnightblue" d="M91.4919,-267.433C109.972,-262.023 134.129,-255.633 156,-252 272.047,-232.726 302.363,-233 420,-233 420,-233 420,-233 590,-233 676.996,-233 777.399,-216.095 834.622,-204.836"/>
<polygon fill="midnightblue" stroke="midnightblue" points="835.329,-208.264 844.45,-202.874 833.959,-201.399 835.329,-208.264"/>
</g>
<!-- Node9 -->
<g id="node9" class="node"><title>Node9</title>
<g id="a_node9"><a xlink:href="$classAP__HAL_1_1Scheduler.html#ab3175e2e6223ccfe82f957e41cc12b26" xlink:title="AP_HAL::Scheduler::\ldelay">
<polygon fill="white" stroke="black" points="180,-174 180,-204 290,-204 290,-174 180,-174"/>
<text text-anchor="start" x="188" y="-192" font-family="Helvetica,sans-Serif" font-size="10.00">AP_HAL::Scheduler::</text>
<text text-anchor="middle" x="235" y="-181" font-family="Helvetica,sans-Serif" font-size="10.00">delay</text>
</a>
</g>
</g>
<!-- Node1&#45;&gt;Node9 -->
<g id="edge8" class="edge"><title>Node1&#45;&gt;Node9</title>
<path fill="none" stroke="midnightblue" d="M75.0256,-267.321C93.1686,-255.065 126.01,-233.771 156,-219 163.944,-215.088 172.533,-211.336 181.009,-207.89"/>
<polygon fill="midnightblue" stroke="midnightblue" points="182.479,-211.072 190.489,-204.137 179.903,-204.563 182.479,-211.072"/>
</g>
<!-- Node10 -->
<g id="node10" class="node"><title>Node10</title>
<g id="a_node10"><a xlink:href="$classAP__Compass__PX4.html#a8373d2a862e3a8cc6b5caf93564c94f9" xlink:title="AP_Compass_PX4::accumulate">
<polygon fill="white" stroke="black" points="156,-135.5 156,-154.5 314,-154.5 314,-135.5 156,-135.5"/>
<text text-anchor="middle" x="235" y="-142.5" font-family="Helvetica,sans-Serif" font-size="10.00">AP_Compass_PX4::accumulate</text>
</a>
</g>
</g>
<!-- Node1&#45;&gt;Node10 -->
<g id="edge9" class="edge"><title>Node1&#45;&gt;Node10</title>
<path fill="none" stroke="midnightblue" d="M66.2092,-267.355C78.626,-245.332 112.225,-191.16 156,-164 159.433,-161.87 163.088,-159.979 166.871,-158.3"/>
<polygon fill="midnightblue" stroke="midnightblue" points="168.443,-161.444 176.486,-154.547 165.898,-154.923 168.443,-161.444"/>
</g>
<!-- Node4 -->
<g id="node4" class="node"><title>Node4</title>
<g id="a_node4"><a xlink:href="$classCompass.html#af1b5ea3ff42b02e04526d4be361a1ca1" xlink:title="Compass::register_compass">
<polygon fill="white" stroke="black" points="350,-365.5 350,-384.5 492,-384.5 492,-365.5 350,-365.5"/>
<text text-anchor="middle" x="421" y="-372.5" font-family="Helvetica,sans-Serif" font-size="10.00">Compass::register_compass</text>
</a>
</g>
</g>
<!-- Node3&#45;&gt;Node4 -->
<g id="edge3" class="edge"><title>Node3&#45;&gt;Node4</title>
<path fill="none" stroke="midnightblue" d="M295.74,-375C309.807,-375 325.028,-375 339.832,-375"/>
<polygon fill="midnightblue" stroke="midnightblue" points="339.996,-378.5 349.996,-375 339.996,-371.5 339.996,-378.5"/>
</g>
<!-- Node5 -->
<g id="node5" class="node"><title>Node5</title>
<g id="a_node5"><a xlink:href="$classAP__HAL_1_1Scheduler.html#a65f0d4e404d3e6fda4d8b0b101c9780f" xlink:title="AP_HAL::Scheduler::\lpanic">
<polygon fill="white" stroke="black" points="534,-360 534,-390 644,-390 644,-360 534,-360"/>
<text text-anchor="start" x="542" y="-378" font-family="Helvetica,sans-Serif" font-size="10.00">AP_HAL::Scheduler::</text>
<text text-anchor="middle" x="589" y="-367" font-family="Helvetica,sans-Serif" font-size="10.00">panic</text>
</a>
</g>
</g>
<!-- Node4&#45;&gt;Node5 -->
<g id="edge4" class="edge"><title>Node4&#45;&gt;Node5</title>
<path fill="none" stroke="midnightblue" d="M492.399,-375C502.804,-375 513.48,-375 523.751,-375"/>
<polygon fill="midnightblue" stroke="midnightblue" points="523.863,-378.5 533.863,-375 523.862,-371.5 523.863,-378.5"/>
</g>
<!-- Node11 -->
<g id="node11" class="node"><title>Node11</title>
<g id="a_node11"><a xlink:href="$classAP__Compass__PX4.html#a4e20dea88905e71e94524c33a95ff76c" xlink:title="AP_Compass_PX4::read">
<polygon fill="white" stroke="black" points="358,-135.5 358,-154.5 484,-154.5 484,-135.5 358,-135.5"/>
<text text-anchor="middle" x="421" y="-142.5" font-family="Helvetica,sans-Serif" font-size="10.00">AP_Compass_PX4::read</text>
</a>
</g>
</g>
<!-- Node10&#45;&gt;Node11 -->
<g id="edge10" class="edge"><title>Node10&#45;&gt;Node11</title>
<path fill="none" stroke="midnightblue" d="M314.033,-138.32C325.206,-138.207 336.661,-138.231 347.718,-138.39"/>
<polygon fill="midnightblue" stroke="midnightblue" points="347.677,-141.889 357.74,-138.574 347.806,-134.891 347.677,-141.889"/>
</g>
<!-- Node11&#45;&gt;Node8 -->
<g id="edge19" class="edge"><title>Node11&#45;&gt;Node8</title>
<path fill="none" stroke="midnightblue" d="M484.103,-152.643C537.578,-159.141 616.829,-168.57 686,-176 736.604,-181.436 794.671,-187.008 834.188,-190.701"/>
<polygon fill="midnightblue" stroke="midnightblue" points="834.038,-194.202 844.319,-191.644 834.687,-187.232 834.038,-194.202"/>
</g>
<!-- Node11&#45;&gt;Node10 -->
<g id="edge11" class="edge"><title>Node11&#45;&gt;Node10</title>
<path fill="none" stroke="midnightblue" d="M357.74,-151.426C346.991,-151.668 335.636,-151.774 324.354,-151.745"/>
<polygon fill="midnightblue" stroke="midnightblue" points="324.054,-148.243 314.033,-151.68 324.01,-155.243 324.054,-148.243"/>
</g>
<!-- Node12 -->
<g id="node12" class="node"><title>Node12</title>
<g id="a_node12"><a xlink:href="$classAP__Compass__Backend.html#ad14147ac2825d3c09106ccfd1328b3f0" xlink:title="AP_Compass_Backend\l::publish_field">
<polygon fill="white" stroke="black" points="528.5,-98 528.5,-128 649.5,-128 649.5,-98 528.5,-98"/>
<text text-anchor="start" x="536.5" y="-116" font-family="Helvetica,sans-Serif" font-size="10.00">AP_Compass_Backend</text>
<text text-anchor="middle" x="589" y="-105" font-family="Helvetica,sans-Serif" font-size="10.00">::publish_field</text>
</a>
</g>
</g>
<!-- Node11&#45;&gt;Node12 -->
<g id="edge12" class="edge"><title>Node11&#45;&gt;Node12</title>
<path fill="none" stroke="midnightblue" d="M471.356,-135.486C486.016,-132.659 502.363,-129.508 518.068,-126.481"/>
<polygon fill="midnightblue" stroke="midnightblue" points="519.116,-129.843 528.273,-124.514 517.791,-122.97 519.116,-129.843"/>
</g>
<!-- Node13 -->
<g id="node13" class="node"><title>Node13</title>
<g id="a_node13"><a xlink:href="$classVector3.html#a53d5701ae2db9492944550927279b7b8" xlink:title="Vector3::rotate">
<polygon fill="white" stroke="black" points="706.5,-147.5 706.5,-166.5 787.5,-166.5 787.5,-147.5 706.5,-147.5"/>
<text text-anchor="middle" x="747" y="-154.5" font-family="Helvetica,sans-Serif" font-size="10.00">Vector3::rotate</text>
</a>
</g>
</g>
<!-- Node12&#45;&gt;Node13 -->
<g id="edge13" class="edge"><title>Node12&#45;&gt;Node13</title>
<path fill="none" stroke="midnightblue" d="M643.25,-128.019C662.464,-133.439 683.914,-139.489 702.225,-144.653"/>
<polygon fill="midnightblue" stroke="midnightblue" points="701.466,-148.076 712.041,-147.422 703.366,-141.338 701.466,-148.076"/>
</g>
<!-- Node14 -->
<g id="node14" class="node"><title>Node14</title>
<g id="a_node14"><a xlink:href="$classAP__Compass__Backend.html#a2c550915f5cf24723480581d863c7b8c" xlink:title="AP_Compass_Backend\l::apply_corrections">
<polygon fill="white" stroke="black" points="686.5,-98 686.5,-128 807.5,-128 807.5,-98 686.5,-98"/>
<text text-anchor="start" x="694.5" y="-116" font-family="Helvetica,sans-Serif" font-size="10.00">AP_Compass_Backend</text>
<text text-anchor="middle" x="747" y="-105" font-family="Helvetica,sans-Serif" font-size="10.00">::apply_corrections</text>
</a>
</g>
</g>
<!-- Node12&#45;&gt;Node14 -->
<g id="edge14" class="edge"><title>Node12&#45;&gt;Node14</title>
<path fill="none" stroke="midnightblue" d="M649.868,-113C658.452,-113 667.346,-113 676.103,-113"/>
<polygon fill="midnightblue" stroke="midnightblue" points="676.293,-116.5 686.293,-113 676.293,-109.5 676.293,-116.5"/>
</g>
<!-- Node16 -->
<g id="node16" class="node"><title>Node16</title>
<g id="a_node16"><a xlink:href="$classAP__HAL_1_1Scheduler.html#a26b68339fc68a562d8d3a1238d0ec8c1" xlink:title="AP_HAL::Scheduler::\lmillis">
<polygon fill="white" stroke="black" points="692,-49 692,-79 802,-79 802,-49 692,-49"/>
<text text-anchor="start" x="700" y="-67" font-family="Helvetica,sans-Serif" font-size="10.00">AP_HAL::Scheduler::</text>
<text text-anchor="middle" x="747" y="-56" font-family="Helvetica,sans-Serif" font-size="10.00">millis</text>
</a>
</g>
</g>
<!-- Node12&#45;&gt;Node16 -->
<g id="edge17" class="edge"><title>Node12&#45;&gt;Node16</title>
<path fill="none" stroke="midnightblue" d="M638.078,-97.8986C654.018,-92.8917 671.924,-87.2676 688.5,-82.061"/>
<polygon fill="midnightblue" stroke="midnightblue" points="689.589,-85.3875 698.081,-79.0516 687.491,-78.7092 689.589,-85.3875"/>
</g>
<!-- Node17 -->
<g id="node17" class="node"><title>Node17</title>
<g id="a_node17"><a xlink:href="$classAP__HAL_1_1Scheduler.html#add46d722bfb08a16f220e63591654e46" xlink:title="AP_HAL::Scheduler::\lmicros">
<polygon fill="white" stroke="black" points="692,-0 692,-30 802,-30 802,-0 692,-0"/>
<text text-anchor="start" x="700" y="-18" font-family="Helvetica,sans-Serif" font-size="10.00">AP_HAL::Scheduler::</text>
<text text-anchor="middle" x="747" y="-7" font-family="Helvetica,sans-Serif" font-size="10.00">micros</text>
</a>
</g>
</g>
<!-- Node12&#45;&gt;Node17 -->
<g id="edge18" class="edge"><title>Node12&#45;&gt;Node17</title>
<path fill="none" stroke="midnightblue" d="M606.671,-97.8256C625.058,-81.6647 656.026,-56.1062 686,-39 688.826,-37.3873 691.781,-35.832 694.801,-34.3418"/>
<polygon fill="midnightblue" stroke="midnightblue" points="696.392,-37.4619 703.986,-30.0742 693.442,-31.1137 696.392,-37.4619"/>
</g>
<!-- Node14&#45;&gt;Node8 -->
<g id="edge16" class="edge"><title>Node14&#45;&gt;Node8</title>
<path fill="none" stroke="midnightblue" d="M788.421,-128.087C795.111,-131.077 801.862,-134.413 808,-138 827.961,-149.665 848.527,-166.207 862.723,-178.468"/>
<polygon fill="midnightblue" stroke="midnightblue" points="860.471,-181.149 870.292,-185.124 865.093,-175.892 860.471,-181.149"/>
</g>
<!-- Node15 -->
<g id="node15" class="node"><title>Node15</title>
<g id="a_node15"><a xlink:href="$AP__Math_8h.html#a108b79eeb35c5d58f324458ec9e1e9f2" xlink:title="is_zero">
<polygon fill="white" stroke="black" points="858,-103.5 858,-122.5 906,-122.5 906,-103.5 858,-103.5"/>
<text text-anchor="middle" x="882" y="-110.5" font-family="Helvetica,sans-Serif" font-size="10.00">is_zero</text>
</a>
</g>
</g>
<!-- Node14&#45;&gt;Node15 -->
<g id="edge15" class="edge"><title>Node14&#45;&gt;Node15</title>
<path fill="none" stroke="midnightblue" d="M807.886,-113C821.538,-113 835.565,-113 847.636,-113"/>
<polygon fill="midnightblue" stroke="midnightblue" points="847.681,-116.5 857.681,-113 847.681,-109.5 847.681,-116.5"/>
</g>
</g>
</svg>
