<?xml version="1.0" encoding="UTF-8" standalone="no"?>
<!DOCTYPE svg PUBLIC "-//W3C//DTD SVG 1.1//EN"
 "http://www.w3.org/Graphics/SVG/1.1/DTD/svg11.dtd">
<!-- Generated by graphviz version 2.36.0 (20140111.2315)
 -->
<!-- Title: AP_ADC_ADS7844::read Pages: 1 -->
<svg width="992pt" height="77pt"
 viewBox="0.00 0.00 992.00 77.00" xmlns="http://www.w3.org/2000/svg" xmlns:xlink="http://www.w3.org/1999/xlink">
<g id="graph0" class="graph" transform="scale(1 1) rotate(0) translate(4 73)">
<title>AP_ADC_ADS7844::read</title>
<polygon fill="white" stroke="none" points="-4,4 -4,-73 988,-73 988,4 -4,4"/>
<!-- Node1 -->
<g id="node1" class="node"><title>Node1</title>
<polygon fill="#bfbfbf" stroke="black" points="0.5,-22.5 0.5,-41.5 129.5,-41.5 129.5,-22.5 0.5,-22.5"/>
<text text-anchor="middle" x="65" y="-29.5" font-family="Helvetica,sans-Serif" font-size="10.00">AP_ADC_ADS7844::read</text>
</g>
<!-- Node2 -->
<g id="node2" class="node"><title>Node2</title>
<g id="a_node2"><a xlink:href="$classAP__ADC__ADS7844.html#a15f6735b9bbe6c15a097bbb45bb024ad" xlink:title="AP_ADC_ADS7844::Init">
<polygon fill="white" stroke="black" points="166,-22.5 166,-41.5 290,-41.5 290,-22.5 166,-22.5"/>
<text text-anchor="middle" x="228" y="-29.5" font-family="Helvetica,sans-Serif" font-size="10.00">AP_ADC_ADS7844::Init</text>
</a>
</g>
</g>
<!-- Node1&#45;&gt;Node2 -->
<g id="edge1" class="edge"><title>Node1&#45;&gt;Node2</title>
<path fill="none" stroke="midnightblue" d="M139.816,-32C148.554,-32 157.398,-32 165.932,-32"/>
<polygon fill="midnightblue" stroke="midnightblue" points="139.631,-28.5001 129.631,-32 139.631,-35.5001 139.631,-28.5001"/>
</g>
<!-- Node3 -->
<g id="node3" class="node"><title>Node3</title>
<g id="a_node3"><a xlink:href="$classAP__InertialSensor__Oilpan.html#ace5a0d60949fbdfd793fcfcd2af9232e" xlink:title="AP_InertialSensor_Oilpan\l::_init_sensor">
<polygon fill="white" stroke="black" points="326,-39 326,-69 454,-69 454,-39 326,-39"/>
<text text-anchor="start" x="334" y="-57" font-family="Helvetica,sans-Serif" font-size="10.00">AP_InertialSensor_Oilpan</text>
<text text-anchor="middle" x="390" y="-46" font-family="Helvetica,sans-Serif" font-size="10.00">::_init_sensor</text>
</a>
</g>
</g>
<!-- Node2&#45;&gt;Node3 -->
<g id="edge2" class="edge"><title>Node2&#45;&gt;Node3</title>
<path fill="none" stroke="midnightblue" d="M300.326,-41.8073C308.851,-42.9795 317.51,-44.1701 325.907,-45.3248"/>
<polygon fill="midnightblue" stroke="midnightblue" points="300.786,-38.3377 290.403,-40.4429 299.833,-45.2725 300.786,-38.3377"/>
</g>
<!-- Node8 -->
<g id="node8" class="node"><title>Node8</title>
<g id="a_node8"><a xlink:href="$AP__ADC__test_8pde.html#a4fc01d736fe50cf5b977f755b675f11d" xlink:title="setup">
<polygon fill="white" stroke="black" points="369.5,-0.5 369.5,-19.5 410.5,-19.5 410.5,-0.5 369.5,-0.5"/>
<text text-anchor="middle" x="390" y="-7.5" font-family="Helvetica,sans-Serif" font-size="10.00">setup</text>
</a>
</g>
</g>
<!-- Node2&#45;&gt;Node8 -->
<g id="edge7" class="edge"><title>Node2&#45;&gt;Node8</title>
<path fill="none" stroke="midnightblue" d="M300.364,-22.1875C325.591,-18.7187 351.978,-15.0905 369.331,-12.7045"/>
<polygon fill="midnightblue" stroke="midnightblue" points="299.833,-18.7275 290.403,-23.5571 300.786,-25.6623 299.833,-18.7275"/>
</g>
<!-- Node4 -->
<g id="node4" class="node"><title>Node4</title>
<g id="a_node4"><a xlink:href="$classAP__InertialSensor__Oilpan.html#a5584e4f2ba880d16e773e83b6836fae7" xlink:title="AP_InertialSensor_Oilpan\l::detect">
<polygon fill="white" stroke="black" points="490,-39 490,-69 618,-69 618,-39 490,-39"/>
<text text-anchor="start" x="498" y="-57" font-family="Helvetica,sans-Serif" font-size="10.00">AP_InertialSensor_Oilpan</text>
<text text-anchor="middle" x="554" y="-46" font-family="Helvetica,sans-Serif" font-size="10.00">::detect</text>
</a>
</g>
</g>
<!-- Node3&#45;&gt;Node4 -->
<g id="edge3" class="edge"><title>Node3&#45;&gt;Node4</title>
<path fill="none" stroke="midnightblue" d="M464.374,-54C472.865,-54 481.469,-54 489.808,-54"/>
<polygon fill="midnightblue" stroke="midnightblue" points="464.097,-50.5001 454.097,-54 464.097,-57.5001 464.097,-50.5001"/>
</g>
<!-- Node5 -->
<g id="node5" class="node"><title>Node5</title>
<g id="a_node5"><a xlink:href="$classAP__InertialSensor.html#abcf5d2923286a28097d2b3f8ca18e915" xlink:title="AP_InertialSensor::\l_detect_backends">
<polygon fill="white" stroke="black" points="654.5,-39 654.5,-69 755.5,-69 755.5,-39 654.5,-39"/>
<text text-anchor="start" x="662.5" y="-57" font-family="Helvetica,sans-Serif" font-size="10.00">AP_InertialSensor::</text>
<text text-anchor="middle" x="705" y="-46" font-family="Helvetica,sans-Serif" font-size="10.00">_detect_backends</text>
</a>
</g>
</g>
<!-- Node4&#45;&gt;Node5 -->
<g id="edge4" class="edge"><title>Node4&#45;&gt;Node5</title>
<path fill="none" stroke="midnightblue" d="M628.429,-54C637.184,-54 645.958,-54 654.269,-54"/>
<polygon fill="midnightblue" stroke="midnightblue" points="628.189,-50.5001 618.189,-54 628.189,-57.5001 628.189,-50.5001"/>
</g>
<!-- Node6 -->
<g id="node6" class="node"><title>Node6</title>
<g id="a_node6"><a xlink:href="$classAP__InertialSensor.html#ab0534f593e07f2d483ddd8c2b1bbf4d9" xlink:title="AP_InertialSensor::init">
<polygon fill="white" stroke="black" points="792,-44.5 792,-63.5 906,-63.5 906,-44.5 792,-44.5"/>
<text text-anchor="middle" x="849" y="-51.5" font-family="Helvetica,sans-Serif" font-size="10.00">AP_InertialSensor::init</text>
</a>
</g>
</g>
<!-- Node5&#45;&gt;Node6 -->
<g id="edge5" class="edge"><title>Node5&#45;&gt;Node6</title>
<path fill="none" stroke="midnightblue" d="M765.687,-54C774.341,-54 783.225,-54 791.808,-54"/>
<polygon fill="midnightblue" stroke="midnightblue" points="765.665,-50.5001 755.665,-54 765.665,-57.5001 765.665,-50.5001"/>
</g>
<!-- Node7 -->
<g id="node7" class="node"><title>Node7</title>
<g id="a_node7"><a xlink:href="$AHRS__Test_8pde.html#a7dfd9b79bc5a37d7df40207afbc5431f" xlink:title="setup">
<polygon fill="white" stroke="black" points="942.5,-44.5 942.5,-63.5 983.5,-63.5 983.5,-44.5 942.5,-44.5"/>
<text text-anchor="middle" x="963" y="-51.5" font-family="Helvetica,sans-Serif" font-size="10.00">setup</text>
</a>
</g>
</g>
<!-- Node6&#45;&gt;Node7 -->
<g id="edge6" class="edge"><title>Node6&#45;&gt;Node7</title>
<path fill="none" stroke="midnightblue" d="M916.602,-54C925.97,-54 934.927,-54 942.372,-54"/>
<polygon fill="midnightblue" stroke="midnightblue" points="916.328,-50.5001 906.328,-54 916.328,-57.5001 916.328,-50.5001"/>
</g>
</g>
</svg>
