<?xml version="1.0" encoding="UTF-8" standalone="no"?>
<!DOCTYPE svg PUBLIC "-//W3C//DTD SVG 1.1//EN"
 "http://www.w3.org/Graphics/SVG/1.1/DTD/svg11.dtd">
<!-- Generated by graphviz version 2.36.0 (20140111.2315)
 -->
<!-- Title: AP_HAL::Scheduler::resume_timer_procs Pages: 1 -->
<svg width="1162pt" height="841pt"
 viewBox="0.00 0.00 1162.00 841.00" xmlns="http://www.w3.org/2000/svg" xmlns:xlink="http://www.w3.org/1999/xlink">
<g id="graph0" class="graph" transform="scale(1 1) rotate(0) translate(4 837)">
<title>AP_HAL::Scheduler::resume_timer_procs</title>
<polygon fill="white" stroke="none" points="-4,4 -4,-837 1158,-837 1158,4 -4,4"/>
<!-- Node1 -->
<g id="node1" class="node"><title>Node1</title>
<polygon fill="#bfbfbf" stroke="black" points="0,-426 0,-456 110,-456 110,-426 0,-426"/>
<text text-anchor="start" x="8" y="-444" font-family="Helvetica,sans-Serif" font-size="10.00">AP_HAL::Scheduler::</text>
<text text-anchor="middle" x="55" y="-433" font-family="Helvetica,sans-Serif" font-size="10.00">resume_timer_procs</text>
</g>
<!-- Node2 -->
<g id="node2" class="node"><title>Node2</title>
<g id="a_node2"><a xlink:href="$classAP__InertialSensor__MPU9250.html#a1ffc4c3ef07f19632864c3f5de6702ba" xlink:title="AP_InertialSensor_MPU9250\l::_init_sensor">
<polygon fill="white" stroke="black" points="162,-803 162,-833 306,-833 306,-803 162,-803"/>
<text text-anchor="start" x="170" y="-821" font-family="Helvetica,sans-Serif" font-size="10.00">AP_InertialSensor_MPU9250</text>
<text text-anchor="middle" x="234" y="-810" font-family="Helvetica,sans-Serif" font-size="10.00">::_init_sensor</text>
</a>
</g>
</g>
<!-- Node1&#45;&gt;Node2 -->
<g id="edge1" class="edge"><title>Node1&#45;&gt;Node2</title>
<path fill="none" stroke="midnightblue" d="M59.4147,-466.21C69.576,-537.771 101.692,-740.08 146,-788 151.64,-794.1 158.579,-798.96 166.055,-802.831"/>
<polygon fill="midnightblue" stroke="midnightblue" points="62.8749,-465.681 58.0247,-456.261 55.9422,-466.649 62.8749,-465.681"/>
</g>
<!-- Node7 -->
<g id="node7" class="node"><title>Node7</title>
<g id="a_node7"><a xlink:href="$classAP__InertialSensor__MPU6000.html#a50be758eef3a4d1538323bab21349d2c" xlink:title="AP_InertialSensor_MPU6000\l::_init_sensor">
<polygon fill="white" stroke="black" points="374,-759 374,-789 518,-789 518,-759 374,-759"/>
<text text-anchor="start" x="382" y="-777" font-family="Helvetica,sans-Serif" font-size="10.00">AP_InertialSensor_MPU6000</text>
<text text-anchor="middle" x="446" y="-766" font-family="Helvetica,sans-Serif" font-size="10.00">::_init_sensor</text>
</a>
</g>
</g>
<!-- Node1&#45;&gt;Node7 -->
<g id="edge6" class="edge"><title>Node1&#45;&gt;Node7</title>
<path fill="none" stroke="midnightblue" d="M59.5577,-466.528C69.5854,-534.494 100.352,-717.177 146,-754 179.812,-781.275 296.75,-781.476 373.972,-778.319"/>
<polygon fill="midnightblue" stroke="midnightblue" points="62.9722,-465.685 58.0768,-456.289 56.0443,-466.687 62.9722,-465.685"/>
</g>
<!-- Node9 -->
<g id="node9" class="node"><title>Node9</title>
<g id="a_node9"><a xlink:href="$classAP__InertialSensor__LSM9DS0.html#a1047cd97a910ee344c829084b700e10b" xlink:title="AP_InertialSensor_LSM9DS0\l::_init_sensor">
<polygon fill="white" stroke="black" points="161,-715 161,-745 307,-745 307,-715 161,-715"/>
<text text-anchor="start" x="169" y="-733" font-family="Helvetica,sans-Serif" font-size="10.00">AP_InertialSensor_LSM9DS0</text>
<text text-anchor="middle" x="234" y="-722" font-family="Helvetica,sans-Serif" font-size="10.00">::_init_sensor</text>
</a>
</g>
</g>
<!-- Node1&#45;&gt;Node9 -->
<g id="edge9" class="edge"><title>Node1&#45;&gt;Node9</title>
<path fill="none" stroke="midnightblue" d="M57.1311,-466.13C60.8655,-518.354 76.9266,-639.214 146,-705 150.324,-709.119 155.282,-712.565 160.589,-715.449"/>
<polygon fill="midnightblue" stroke="midnightblue" points="60.6197,-465.836 56.5067,-456.072 53.6332,-466.27 60.6197,-465.836"/>
</g>
<!-- Node10 -->
<g id="node10" class="node"><title>Node10</title>
<g id="a_node10"><a xlink:href="$classAP__ADC__ADS7844.html#aa1046188d296d89daf7f67253f1b1d5c" xlink:title="AP_ADC_ADS7844::Ch">
<polygon fill="white" stroke="black" points="172.5,-676.5 172.5,-695.5 295.5,-695.5 295.5,-676.5 172.5,-676.5"/>
<text text-anchor="middle" x="234" y="-683.5" font-family="Helvetica,sans-Serif" font-size="10.00">AP_ADC_ADS7844::Ch</text>
</a>
</g>
</g>
<!-- Node1&#45;&gt;Node10 -->
<g id="edge10" class="edge"><title>Node1&#45;&gt;Node10</title>
<path fill="none" stroke="midnightblue" d="M58.4205,-466.107C64.3517,-513.119 83.9974,-614.413 146,-667 153.546,-673.4 162.756,-677.788 172.327,-680.769"/>
<polygon fill="midnightblue" stroke="midnightblue" points="61.8957,-465.69 57.2706,-456.158 54.942,-466.494 61.8957,-465.69"/>
</g>
<!-- Node13 -->
<g id="node13" class="node"><title>Node13</title>
<g id="a_node13"><a xlink:href="$classAP__ADC__ADS7844.html#ae2cf439805b5baf5e2fe8c1f5c2cdb2e" xlink:title="AP_ADC_ADS7844::Ch6">
<polygon fill="white" stroke="black" points="170,-638.5 170,-657.5 298,-657.5 298,-638.5 170,-638.5"/>
<text text-anchor="middle" x="234" y="-645.5" font-family="Helvetica,sans-Serif" font-size="10.00">AP_ADC_ADS7844::Ch6</text>
</a>
</g>
</g>
<!-- Node1&#45;&gt;Node13 -->
<g id="edge13" class="edge"><title>Node1&#45;&gt;Node13</title>
<path fill="none" stroke="midnightblue" d="M63.2475,-466.377C74.9498,-503.142 101.327,-571.264 146,-612 159.528,-624.336 177.871,-632.768 194.227,-638.352"/>
<polygon fill="midnightblue" stroke="midnightblue" points="66.4854,-464.998 60.2075,-456.463 59.7929,-467.05 66.4854,-464.998"/>
</g>
<!-- Node16 -->
<g id="node16" class="node"><title>Node16</title>
<g id="a_node16"><a xlink:href="$classAP__ADC__ADS7844.html#a15f6735b9bbe6c15a097bbb45bb024ad" xlink:title="AP_ADC_ADS7844::Init">
<polygon fill="white" stroke="black" points="172,-583.5 172,-602.5 296,-602.5 296,-583.5 172,-583.5"/>
<text text-anchor="middle" x="234" y="-590.5" font-family="Helvetica,sans-Serif" font-size="10.00">AP_ADC_ADS7844::Init</text>
</a>
</g>
</g>
<!-- Node1&#45;&gt;Node16 -->
<g id="edge18" class="edge"><title>Node1&#45;&gt;Node16</title>
<path fill="none" stroke="midnightblue" d="M65.7707,-465.609C79.1622,-496.015 106.184,-547.025 146,-574 153.68,-579.203 162.539,-583.01 171.602,-585.791"/>
<polygon fill="midnightblue" stroke="midnightblue" points="68.8845,-463.987 61.753,-456.152 62.4418,-466.724 68.8845,-463.987"/>
</g>
<!-- Node20 -->
<g id="node20" class="node"><title>Node20</title>
<g id="a_node20"><a xlink:href="$classAP__ADC__ADS1115.html#ab9dda3a5715a514b78effc0164e6a1c9" xlink:title="AP_ADC_ADS1115::init">
<polygon fill="white" stroke="black" points="172.5,-545.5 172.5,-564.5 295.5,-564.5 295.5,-545.5 172.5,-545.5"/>
<text text-anchor="middle" x="234" y="-552.5" font-family="Helvetica,sans-Serif" font-size="10.00">AP_ADC_ADS1115::init</text>
</a>
</g>
</g>
<!-- Node1&#45;&gt;Node20 -->
<g id="edge23" class="edge"><title>Node1&#45;&gt;Node20</title>
<path fill="none" stroke="midnightblue" d="M73.2514,-464.049C89.7595,-484.526 116.461,-513.8 146,-531 156.697,-537.228 169.077,-541.898 181.082,-545.378"/>
<polygon fill="midnightblue" stroke="midnightblue" points="75.9626,-461.835 67.0277,-456.141 70.4617,-466.164 75.9626,-461.835"/>
</g>
<!-- Node21 -->
<g id="node21" class="node"><title>Node21</title>
<g id="a_node21"><a xlink:href="$classNavioAnalogIn.html#a86419e9f2486bef44753fb15f5bb3ae9" xlink:title="NavioAnalogIn::init">
<polygon fill="white" stroke="black" points="396.5,-507.5 396.5,-526.5 495.5,-526.5 495.5,-507.5 396.5,-507.5"/>
<text text-anchor="middle" x="446" y="-514.5" font-family="Helvetica,sans-Serif" font-size="10.00">NavioAnalogIn::init</text>
</a>
</g>
</g>
<!-- Node1&#45;&gt;Node21 -->
<g id="edge25" class="edge"><title>Node1&#45;&gt;Node21</title>
<path fill="none" stroke="midnightblue" d="M94.1843,-460.423C109.873,-467.635 128.448,-475.218 146,-480 232.17,-503.479 336.41,-512.098 396.279,-515.235"/>
<polygon fill="midnightblue" stroke="midnightblue" points="95.3616,-457.108 84.8241,-456.008 92.3754,-463.439 95.3616,-457.108"/>
</g>
<!-- Node22 -->
<g id="node22" class="node"><title>Node22</title>
<g id="a_node22"><a xlink:href="$classAP__Compass__HMC5843.html#ae8fe5f87eb75452d7cfd4293a9bbfc7e" xlink:title="AP_Compass_HMC5843\l::init">
<polygon fill="white" stroke="black" points="382.5,-458 382.5,-488 509.5,-488 509.5,-458 382.5,-458"/>
<text text-anchor="start" x="390.5" y="-476" font-family="Helvetica,sans-Serif" font-size="10.00">AP_Compass_HMC5843</text>
<text text-anchor="middle" x="446" y="-465" font-family="Helvetica,sans-Serif" font-size="10.00">::init</text>
</a>
</g>
</g>
<!-- Node1&#45;&gt;Node22 -->
<g id="edge26" class="edge"><title>Node1&#45;&gt;Node22</title>
<path fill="none" stroke="midnightblue" d="M120.093,-455.874C128.763,-457.492 137.573,-458.935 146,-460 227.189,-470.264 321.653,-472.819 382.326,-473.266"/>
<polygon fill="midnightblue" stroke="midnightblue" points="120.495,-452.387 110.01,-453.908 119.155,-459.258 120.495,-452.387"/>
</g>
<!-- Node26 -->
<g id="node26" class="node"><title>Node26</title>
<g id="a_node26"><a xlink:href="$classAP__Compass__AK8963.html#acdbf7f9d95111c8c6cf571da0b066bdd" xlink:title="AP_Compass_AK8963::init">
<polygon fill="white" stroke="black" points="166,-431.5 166,-450.5 302,-450.5 302,-431.5 166,-431.5"/>
<text text-anchor="middle" x="234" y="-438.5" font-family="Helvetica,sans-Serif" font-size="10.00">AP_Compass_AK8963::init</text>
</a>
</g>
</g>
<!-- Node1&#45;&gt;Node26 -->
<g id="edge31" class="edge"><title>Node1&#45;&gt;Node26</title>
<path fill="none" stroke="midnightblue" d="M120.165,-441C135.011,-441 150.848,-441 165.82,-441"/>
<polygon fill="midnightblue" stroke="midnightblue" points="120.068,-437.5 110.068,-441 120.068,-444.5 120.068,-437.5"/>
</g>
<!-- Node29 -->
<g id="node29" class="node"><title>Node29</title>
<g id="a_node29"><a xlink:href="$classPX4_1_1PX4AnalogSource.html#a70fb63a3bf1c7a5613ce9cd78453aadc" xlink:title="PX4::PX4AnalogSource\l::read_average">
<polygon fill="white" stroke="black" points="173.5,-382 173.5,-412 294.5,-412 294.5,-382 173.5,-382"/>
<text text-anchor="start" x="181.5" y="-400" font-family="Helvetica,sans-Serif" font-size="10.00">PX4::PX4AnalogSource</text>
<text text-anchor="middle" x="234" y="-389" font-family="Helvetica,sans-Serif" font-size="10.00">::read_average</text>
</a>
</g>
</g>
<!-- Node1&#45;&gt;Node29 -->
<g id="edge35" class="edge"><title>Node1&#45;&gt;Node29</title>
<path fill="none" stroke="midnightblue" d="M120.128,-425.059C137.519,-420.735 156.273,-416.073 173.404,-411.815"/>
<polygon fill="midnightblue" stroke="midnightblue" points="118.928,-421.75 110.068,-427.559 120.617,-428.544 118.928,-421.75"/>
</g>
<!-- Node32 -->
<g id="node32" class="node"><title>Node32</title>
<g id="a_node32"><a xlink:href="$classVRBRAIN_1_1VRBRAINAnalogSource.html#a97755c565c9b2cf9016da767d732590e" xlink:title="VRBRAIN::VRBRAINAnalogSource\l::read_average">
<polygon fill="white" stroke="black" points="146.5,-333 146.5,-363 321.5,-363 321.5,-333 146.5,-333"/>
<text text-anchor="start" x="154.5" y="-351" font-family="Helvetica,sans-Serif" font-size="10.00">VRBRAIN::VRBRAINAnalogSource</text>
<text text-anchor="middle" x="234" y="-340" font-family="Helvetica,sans-Serif" font-size="10.00">::read_average</text>
</a>
</g>
</g>
<!-- Node1&#45;&gt;Node32 -->
<g id="edge38" class="edge"><title>Node1&#45;&gt;Node32</title>
<path fill="none" stroke="midnightblue" d="M79.8737,-419.067C97.1325,-404.23 121.612,-385.188 146,-373 153.591,-369.206 161.851,-365.901 170.159,-363.046"/>
<polygon fill="midnightblue" stroke="midnightblue" points="77.2213,-416.738 72.0133,-425.965 81.8383,-422 77.2213,-416.738"/>
</g>
<!-- Node35 -->
<g id="node35" class="node"><title>Node35</title>
<g id="a_node35"><a xlink:href="$classPX4_1_1PX4AnalogSource.html#a9664889e0a5f407152d44da27471e8b0" xlink:title="PX4::PX4AnalogSource\l::set_pin">
<polygon fill="white" stroke="black" points="173.5,-284 173.5,-314 294.5,-314 294.5,-284 173.5,-284"/>
<text text-anchor="start" x="181.5" y="-302" font-family="Helvetica,sans-Serif" font-size="10.00">PX4::PX4AnalogSource</text>
<text text-anchor="middle" x="234" y="-291" font-family="Helvetica,sans-Serif" font-size="10.00">::set_pin</text>
</a>
</g>
</g>
<!-- Node1&#45;&gt;Node35 -->
<g id="edge41" class="edge"><title>Node1&#45;&gt;Node35</title>
<path fill="none" stroke="midnightblue" d="M68.3615,-416.922C83.2474,-390.299 110.713,-348.01 146,-324 154.186,-318.43 163.611,-314.088 173.171,-310.706"/>
<polygon fill="midnightblue" stroke="midnightblue" points="65.1509,-415.5 63.4552,-425.958 71.3026,-418.84 65.1509,-415.5"/>
</g>
<!-- Node36 -->
<g id="node36" class="node"><title>Node36</title>
<g id="a_node36"><a xlink:href="$classVRBRAIN_1_1VRBRAINAnalogSource.html#a2050a1c3972344da090578be53140076" xlink:title="VRBRAIN::VRBRAINAnalogSource\l::set_pin">
<polygon fill="white" stroke="black" points="146.5,-235 146.5,-265 321.5,-265 321.5,-235 146.5,-235"/>
<text text-anchor="start" x="154.5" y="-253" font-family="Helvetica,sans-Serif" font-size="10.00">VRBRAIN::VRBRAINAnalogSource</text>
<text text-anchor="middle" x="234" y="-242" font-family="Helvetica,sans-Serif" font-size="10.00">::set_pin</text>
</a>
</g>
</g>
<!-- Node1&#45;&gt;Node36 -->
<g id="edge42" class="edge"><title>Node1&#45;&gt;Node36</title>
<path fill="none" stroke="midnightblue" d="M62.885,-415.697C74.1334,-379.171 99.9478,-312.005 146,-275 150.778,-271.161 156.119,-267.911 161.741,-265.161"/>
<polygon fill="midnightblue" stroke="midnightblue" points="59.4481,-414.978 59.9742,-425.559 66.1618,-416.959 59.4481,-414.978"/>
</g>
<!-- Node37 -->
<g id="node37" class="node"><title>Node37</title>
<g id="a_node37"><a xlink:href="$classAP__InertialSensor__Flymaple.html#a980c93918fa051ba687babfd0ed617f8" xlink:title="AP_InertialSensor_Flymaple\l::update">
<polygon fill="white" stroke="black" points="164,-186 164,-216 304,-216 304,-186 164,-186"/>
<text text-anchor="start" x="172" y="-204" font-family="Helvetica,sans-Serif" font-size="10.00">AP_InertialSensor_Flymaple</text>
<text text-anchor="middle" x="234" y="-193" font-family="Helvetica,sans-Serif" font-size="10.00">::update</text>
</a>
</g>
</g>
<!-- Node1&#45;&gt;Node37 -->
<g id="edge43" class="edge"><title>Node1&#45;&gt;Node37</title>
<path fill="none" stroke="midnightblue" d="M59.372,-415.906C66.7359,-371.086 88.4662,-277.187 146,-226 151.284,-221.299 157.398,-217.479 163.887,-214.374"/>
<polygon fill="midnightblue" stroke="midnightblue" points="55.8896,-415.524 57.8315,-425.94 62.8085,-416.587 55.8896,-415.524"/>
</g>
<!-- Node38 -->
<g id="node38" class="node"><title>Node38</title>
<g id="a_node38"><a xlink:href="$classAP__InertialSensor__MPU9150.html#a30e80692dbda9ab89f47e53f185a6604" xlink:title="AP_InertialSensor_MPU9150\l::update">
<polygon fill="white" stroke="black" points="162,-137 162,-167 306,-167 306,-137 162,-137"/>
<text text-anchor="start" x="170" y="-155" font-family="Helvetica,sans-Serif" font-size="10.00">AP_InertialSensor_MPU9150</text>
<text text-anchor="middle" x="234" y="-144" font-family="Helvetica,sans-Serif" font-size="10.00">::update</text>
</a>
</g>
</g>
<!-- Node1&#45;&gt;Node38 -->
<g id="edge44" class="edge"><title>Node1&#45;&gt;Node38</title>
<path fill="none" stroke="midnightblue" d="M57.1311,-415.87C60.8655,-363.646 76.9266,-242.786 146,-177 150.666,-172.556 156.069,-168.895 161.853,-165.879"/>
<polygon fill="midnightblue" stroke="midnightblue" points="53.6332,-415.73 56.5067,-425.928 60.6197,-416.164 53.6332,-415.73"/>
</g>
<!-- Node39 -->
<g id="node39" class="node"><title>Node39</title>
<g id="a_node39"><a xlink:href="$classAP__InertialSensor__MPU6000.html#a8c628f9e98b7ebd116337e3f21418e0a" xlink:title="AP_InertialSensor_MPU6000\l::update">
<polygon fill="white" stroke="black" points="162,-88 162,-118 306,-118 306,-88 162,-88"/>
<text text-anchor="start" x="170" y="-106" font-family="Helvetica,sans-Serif" font-size="10.00">AP_InertialSensor_MPU6000</text>
<text text-anchor="middle" x="234" y="-95" font-family="Helvetica,sans-Serif" font-size="10.00">::update</text>
</a>
</g>
</g>
<!-- Node1&#45;&gt;Node39 -->
<g id="edge45" class="edge"><title>Node1&#45;&gt;Node39</title>
<path fill="none" stroke="midnightblue" d="M55.5454,-415.446C55.9353,-356.234 65.4258,-208.561 146,-128 150.556,-123.444 155.885,-119.707 161.621,-116.642"/>
<polygon fill="midnightblue" stroke="midnightblue" points="52.046,-415.758 55.5669,-425.751 59.046,-415.744 52.046,-415.758"/>
</g>
<!-- Node40 -->
<g id="node40" class="node"><title>Node40</title>
<g id="a_node40"><a xlink:href="$classAP__Baro__MS5611.html#aaabf16d34651abefbe5a9c81f1eb7016" xlink:title="AP_Baro_MS5611::update">
<polygon fill="white" stroke="black" points="168,-49.5 168,-68.5 300,-68.5 300,-49.5 168,-49.5"/>
<text text-anchor="middle" x="234" y="-56.5" font-family="Helvetica,sans-Serif" font-size="10.00">AP_Baro_MS5611::update</text>
</a>
</g>
</g>
<!-- Node1&#45;&gt;Node40 -->
<g id="edge46" class="edge"><title>Node1&#45;&gt;Node40</title>
<path fill="none" stroke="midnightblue" d="M58.8522,-415.386C67.6819,-340.743 96.9628,-125.682 146,-78 152.096,-72.0722 159.589,-67.8145 167.596,-64.7829"/>
<polygon fill="midnightblue" stroke="midnightblue" points="55.328,-415.394 57.6542,-425.73 62.2815,-416.199 55.328,-415.394"/>
</g>
<!-- Node41 -->
<g id="node41" class="node"><title>Node41</title>
<g id="a_node41"><a xlink:href="$classAP__InertialSensor__LSM9DS0.html#a2f444131d42816499a7a5d9083108529" xlink:title="AP_InertialSensor_LSM9DS0\l::update">
<polygon fill="white" stroke="black" points="161,-0 161,-30 307,-30 307,-0 161,-0"/>
<text text-anchor="start" x="169" y="-18" font-family="Helvetica,sans-Serif" font-size="10.00">AP_InertialSensor_LSM9DS0</text>
<text text-anchor="middle" x="234" y="-7" font-family="Helvetica,sans-Serif" font-size="10.00">::update</text>
</a>
</g>
</g>
<!-- Node1&#45;&gt;Node41 -->
<g id="edge47" class="edge"><title>Node1&#45;&gt;Node41</title>
<path fill="none" stroke="midnightblue" d="M58.3549,-415.52C66.1899,-336.138 93.8821,-95.2893 146,-40 150.312,-35.4258 155.4,-31.6706 160.917,-28.5903"/>
<polygon fill="midnightblue" stroke="midnightblue" points="54.8577,-415.324 57.3807,-425.614 61.8253,-415.996 54.8577,-415.324"/>
</g>
<!-- Node3 -->
<g id="node3" class="node"><title>Node3</title>
<g id="a_node3"><a xlink:href="$classAP__InertialSensor__MPU9250.html#a5870cbd48fb92ada02747afcae3eaa6c" xlink:title="AP_InertialSensor_MPU9250\l::detect">
<polygon fill="white" stroke="black" points="586,-798 586,-828 730,-828 730,-798 586,-798"/>
<text text-anchor="start" x="594" y="-816" font-family="Helvetica,sans-Serif" font-size="10.00">AP_InertialSensor_MPU9250</text>
<text text-anchor="middle" x="658" y="-805" font-family="Helvetica,sans-Serif" font-size="10.00">::detect</text>
</a>
</g>
</g>
<!-- Node2&#45;&gt;Node3 -->
<g id="edge2" class="edge"><title>Node2&#45;&gt;Node3</title>
<path fill="none" stroke="midnightblue" d="M316.396,-817.036C394.559,-816.109 511.453,-814.724 585.952,-813.842"/>
<polygon fill="midnightblue" stroke="midnightblue" points="316.067,-813.539 306.109,-817.157 316.15,-820.539 316.067,-813.539"/>
</g>
<!-- Node4 -->
<g id="node4" class="node"><title>Node4</title>
<g id="a_node4"><a xlink:href="$classAP__InertialSensor.html#abcf5d2923286a28097d2b3f8ca18e915" xlink:title="AP_InertialSensor::\l_detect_backends">
<polygon fill="white" stroke="black" points="803.5,-675 803.5,-705 904.5,-705 904.5,-675 803.5,-675"/>
<text text-anchor="start" x="811.5" y="-693" font-family="Helvetica,sans-Serif" font-size="10.00">AP_InertialSensor::</text>
<text text-anchor="middle" x="854" y="-682" font-family="Helvetica,sans-Serif" font-size="10.00">_detect_backends</text>
</a>
</g>
</g>
<!-- Node3&#45;&gt;Node4 -->
<g id="edge3" class="edge"><title>Node3&#45;&gt;Node4</title>
<path fill="none" stroke="midnightblue" d="M716.822,-794.213C726.827,-790.086 736.921,-785.331 746,-780 782.422,-758.614 818.764,-724.722 838.309,-705.204"/>
<polygon fill="midnightblue" stroke="midnightblue" points="715.308,-791.048 707.293,-797.976 717.879,-797.559 715.308,-791.048"/>
</g>
<!-- Node5 -->
<g id="node5" class="node"><title>Node5</title>
<g id="a_node5"><a xlink:href="$classAP__InertialSensor.html#ab0534f593e07f2d483ddd8c2b1bbf4d9" xlink:title="AP_InertialSensor::init">
<polygon fill="white" stroke="black" points="962,-635.5 962,-654.5 1076,-654.5 1076,-635.5 962,-635.5"/>
<text text-anchor="middle" x="1019" y="-642.5" font-family="Helvetica,sans-Serif" font-size="10.00">AP_InertialSensor::init</text>
</a>
</g>
</g>
<!-- Node4&#45;&gt;Node5 -->
<g id="edge4" class="edge"><title>Node4&#45;&gt;Node5</title>
<path fill="none" stroke="midnightblue" d="M914.546,-673.561C937.729,-667.161 963.474,-660.053 983.482,-654.53"/>
<polygon fill="midnightblue" stroke="midnightblue" points="913.499,-670.219 904.791,-676.254 915.362,-676.967 913.499,-670.219"/>
</g>
<!-- Node6 -->
<g id="node6" class="node"><title>Node6</title>
<g id="a_node6"><a xlink:href="$AHRS__Test_8pde.html#a7dfd9b79bc5a37d7df40207afbc5431f" xlink:title="setup">
<polygon fill="white" stroke="black" points="1112.5,-593.5 1112.5,-612.5 1153.5,-612.5 1153.5,-593.5 1112.5,-593.5"/>
<text text-anchor="middle" x="1133" y="-600.5" font-family="Helvetica,sans-Serif" font-size="10.00">setup</text>
</a>
</g>
</g>
<!-- Node5&#45;&gt;Node6 -->
<g id="edge5" class="edge"><title>Node5&#45;&gt;Node6</title>
<path fill="none" stroke="midnightblue" d="M1054.89,-631.915C1073.78,-624.833 1096.42,-616.344 1112.26,-610.402"/>
<polygon fill="midnightblue" stroke="midnightblue" points="1053.55,-628.681 1045.41,-635.47 1056.01,-635.235 1053.55,-628.681"/>
</g>
<!-- Node8 -->
<g id="node8" class="node"><title>Node8</title>
<g id="a_node8"><a xlink:href="$classAP__InertialSensor__MPU6000.html#a2bbaf4bcb81f081d2f9e29b5c25ec31b" xlink:title="AP_InertialSensor_MPU6000\l::detect">
<polygon fill="white" stroke="black" points="586,-741 586,-771 730,-771 730,-741 586,-741"/>
<text text-anchor="start" x="594" y="-759" font-family="Helvetica,sans-Serif" font-size="10.00">AP_InertialSensor_MPU6000</text>
<text text-anchor="middle" x="658" y="-748" font-family="Helvetica,sans-Serif" font-size="10.00">::detect</text>
</a>
</g>
</g>
<!-- Node7&#45;&gt;Node8 -->
<g id="edge7" class="edge"><title>Node7&#45;&gt;Node8</title>
<path fill="none" stroke="midnightblue" d="M528.24,-767.037C547.281,-765.404 567.422,-763.678 585.977,-762.088"/>
<polygon fill="midnightblue" stroke="midnightblue" points="527.761,-763.565 518.096,-767.906 528.359,-770.539 527.761,-763.565"/>
</g>
<!-- Node8&#45;&gt;Node4 -->
<g id="edge8" class="edge"><title>Node8&#45;&gt;Node4</title>
<path fill="none" stroke="midnightblue" d="M713.033,-737.618C743.184,-727.36 780.276,-714.741 808.7,-705.071"/>
<polygon fill="midnightblue" stroke="midnightblue" points="711.847,-734.324 703.508,-740.858 714.102,-740.951 711.847,-734.324"/>
</g>
<!-- Node11 -->
<g id="node11" class="node"><title>Node11</title>
<g id="a_node11"><a xlink:href="$AP__ADC__test_8pde.html#a73638d4c6b6727029345856e93e2ff3e" xlink:title="show_data">
<polygon fill="white" stroke="black" points="414,-720.5 414,-739.5 478,-739.5 478,-720.5 414,-720.5"/>
<text text-anchor="middle" x="446" y="-727.5" font-family="Helvetica,sans-Serif" font-size="10.00">show_data</text>
</a>
</g>
</g>
<!-- Node10&#45;&gt;Node11 -->
<g id="edge11" class="edge"><title>Node10&#45;&gt;Node11</title>
<path fill="none" stroke="midnightblue" d="M290.56,-697.641C329.954,-705.895 381.379,-716.67 413.805,-723.464"/>
<polygon fill="midnightblue" stroke="midnightblue" points="291.072,-694.173 280.567,-695.547 289.637,-701.024 291.072,-694.173"/>
</g>
<!-- Node12 -->
<g id="node12" class="node"><title>Node12</title>
<g id="a_node12"><a xlink:href="$AP__ADC__test_8pde.html#afe461d27b9c48d5921c00d521181f12f" xlink:title="loop">
<polygon fill="white" stroke="black" points="640.5,-686.5 640.5,-705.5 675.5,-705.5 675.5,-686.5 640.5,-686.5"/>
<text text-anchor="middle" x="658" y="-693.5" font-family="Helvetica,sans-Serif" font-size="10.00">loop</text>
</a>
</g>
</g>
<!-- Node11&#45;&gt;Node12 -->
<g id="edge12" class="edge"><title>Node11&#45;&gt;Node12</title>
<path fill="none" stroke="midnightblue" d="M488.486,-723.283C534.898,-715.769 607.833,-703.96 640.369,-698.693"/>
<polygon fill="midnightblue" stroke="midnightblue" points="487.751,-719.857 478.439,-724.91 488.87,-726.767 487.751,-719.857"/>
</g>
<!-- Node13&#45;&gt;Node11 -->
<g id="edge14" class="edge"><title>Node13&#45;&gt;Node11</title>
<path fill="none" stroke="midnightblue" d="M307.908,-659.971C312.831,-661.966 317.583,-664.291 322,-667 343.54,-680.208 336.46,-697.792 358,-711 374.738,-721.263 396.281,-726.02 413.741,-728.207"/>
<polygon fill="midnightblue" stroke="midnightblue" points="308.867,-656.597 298.272,-656.526 306.51,-663.188 308.867,-656.597"/>
</g>
<!-- Node14 -->
<g id="node14" class="node"><title>Node14</title>
<g id="a_node14"><a xlink:href="$AP__ADC__test_8pde.html#ab7608ee8404f6bcef359aa32473829d8" xlink:title="show_timing">
<polygon fill="white" stroke="black" points="410.5,-682.5 410.5,-701.5 481.5,-701.5 481.5,-682.5 410.5,-682.5"/>
<text text-anchor="middle" x="446" y="-689.5" font-family="Helvetica,sans-Serif" font-size="10.00">show_timing</text>
</a>
</g>
</g>
<!-- Node13&#45;&gt;Node14 -->
<g id="edge15" class="edge"><title>Node13&#45;&gt;Node14</title>
<path fill="none" stroke="midnightblue" d="M290.464,-659.621C328.461,-667.582 377.685,-677.896 410.251,-684.719"/>
<polygon fill="midnightblue" stroke="midnightblue" points="291.072,-656.173 280.567,-657.547 289.637,-663.024 291.072,-656.173"/>
</g>
<!-- Node15 -->
<g id="node15" class="node"><title>Node15</title>
<g id="a_node15"><a xlink:href="$classAP__InertialSensor__Oilpan.html#a9ba8adc462a45a52f31c8698d48dfc93" xlink:title="AP_InertialSensor_Oilpan\l::update">
<polygon fill="white" stroke="black" points="382,-633 382,-663 510,-663 510,-633 382,-633"/>
<text text-anchor="start" x="390" y="-651" font-family="Helvetica,sans-Serif" font-size="10.00">AP_InertialSensor_Oilpan</text>
<text text-anchor="middle" x="446" y="-640" font-family="Helvetica,sans-Serif" font-size="10.00">::update</text>
</a>
</g>
</g>
<!-- Node13&#45;&gt;Node15 -->
<g id="edge17" class="edge"><title>Node13&#45;&gt;Node15</title>
<path fill="none" stroke="midnightblue" d="M308.112,-648C332.079,-648 358.494,-648 381.675,-648"/>
<polygon fill="midnightblue" stroke="midnightblue" points="308.007,-644.5 298.007,-648 308.007,-651.5 308.007,-644.5"/>
</g>
<!-- Node14&#45;&gt;Node12 -->
<g id="edge16" class="edge"><title>Node14&#45;&gt;Node12</title>
<path fill="none" stroke="midnightblue" d="M491.797,-692.853C538.32,-693.739 608.657,-695.079 640.409,-695.684"/>
<polygon fill="midnightblue" stroke="midnightblue" points="491.742,-689.352 481.677,-692.661 491.609,-696.35 491.742,-689.352"/>
</g>
<!-- Node17 -->
<g id="node17" class="node"><title>Node17</title>
<g id="a_node17"><a xlink:href="$classAP__InertialSensor__Oilpan.html#ace5a0d60949fbdfd793fcfcd2af9232e" xlink:title="AP_InertialSensor_Oilpan\l::_init_sensor">
<polygon fill="white" stroke="black" points="382,-584 382,-614 510,-614 510,-584 382,-584"/>
<text text-anchor="start" x="390" y="-602" font-family="Helvetica,sans-Serif" font-size="10.00">AP_InertialSensor_Oilpan</text>
<text text-anchor="middle" x="446" y="-591" font-family="Helvetica,sans-Serif" font-size="10.00">::_init_sensor</text>
</a>
</g>
</g>
<!-- Node16&#45;&gt;Node17 -->
<g id="edge19" class="edge"><title>Node16&#45;&gt;Node17</title>
<path fill="none" stroke="midnightblue" d="M306.307,-595.037C330.732,-595.735 357.879,-596.511 381.634,-597.19"/>
<polygon fill="midnightblue" stroke="midnightblue" points="306.119,-591.531 296.023,-594.744 305.919,-598.528 306.119,-591.531"/>
</g>
<!-- Node19 -->
<g id="node19" class="node"><title>Node19</title>
<g id="a_node19"><a xlink:href="$AP__ADC__test_8pde.html#a4fc01d736fe50cf5b977f755b675f11d" xlink:title="setup">
<polygon fill="white" stroke="black" points="425.5,-545.5 425.5,-564.5 466.5,-564.5 466.5,-545.5 425.5,-545.5"/>
<text text-anchor="middle" x="446" y="-552.5" font-family="Helvetica,sans-Serif" font-size="10.00">setup</text>
</a>
</g>
</g>
<!-- Node16&#45;&gt;Node19 -->
<g id="edge22" class="edge"><title>Node16&#45;&gt;Node19</title>
<path fill="none" stroke="midnightblue" d="M297.662,-581.661C341.188,-573.785 396.373,-563.799 425.285,-558.567"/>
<polygon fill="midnightblue" stroke="midnightblue" points="296.938,-578.235 287.721,-583.46 298.184,-585.123 296.938,-578.235"/>
</g>
<!-- Node18 -->
<g id="node18" class="node"><title>Node18</title>
<g id="a_node18"><a xlink:href="$classAP__InertialSensor__Oilpan.html#a5584e4f2ba880d16e773e83b6836fae7" xlink:title="AP_InertialSensor_Oilpan\l::detect">
<polygon fill="white" stroke="black" points="594,-610 594,-640 722,-640 722,-610 594,-610"/>
<text text-anchor="start" x="602" y="-628" font-family="Helvetica,sans-Serif" font-size="10.00">AP_InertialSensor_Oilpan</text>
<text text-anchor="middle" x="658" y="-617" font-family="Helvetica,sans-Serif" font-size="10.00">::detect</text>
</a>
</g>
</g>
<!-- Node17&#45;&gt;Node18 -->
<g id="edge20" class="edge"><title>Node17&#45;&gt;Node18</title>
<path fill="none" stroke="midnightblue" d="M520.112,-608.052C544.079,-611.019 570.494,-614.29 593.675,-617.16"/>
<polygon fill="midnightblue" stroke="midnightblue" points="520.361,-604.556 510.007,-606.801 519.501,-611.503 520.361,-604.556"/>
</g>
<!-- Node18&#45;&gt;Node4 -->
<g id="edge21" class="edge"><title>Node18&#45;&gt;Node4</title>
<path fill="none" stroke="midnightblue" d="M713.805,-643.362C743.537,-653.324 779.838,-665.487 807.913,-674.894"/>
<polygon fill="midnightblue" stroke="midnightblue" points="714.589,-639.934 703.995,-640.076 712.365,-646.571 714.589,-639.934"/>
</g>
<!-- Node20&#45;&gt;Node21 -->
<g id="edge24" class="edge"><title>Node20&#45;&gt;Node21</title>
<path fill="none" stroke="midnightblue" d="M297.725,-543.65C329.254,-537.945 366.888,-531.135 396.221,-525.827"/>
<polygon fill="midnightblue" stroke="midnightblue" points="296.938,-540.235 287.721,-545.46 298.184,-547.123 296.938,-540.235"/>
</g>
<!-- Node23 -->
<g id="node23" class="node"><title>Node23</title>
<g id="a_node23"><a xlink:href="$classAP__Compass__HMC5843.html#a24c7d88a8f69532e40f96c5a0db25364" xlink:title="AP_Compass_HMC5843\l::detect">
<polygon fill="white" stroke="black" points="594.5,-458 594.5,-488 721.5,-488 721.5,-458 594.5,-458"/>
<text text-anchor="start" x="602.5" y="-476" font-family="Helvetica,sans-Serif" font-size="10.00">AP_Compass_HMC5843</text>
<text text-anchor="middle" x="658" y="-465" font-family="Helvetica,sans-Serif" font-size="10.00">::detect</text>
</a>
</g>
</g>
<!-- Node22&#45;&gt;Node23 -->
<g id="edge27" class="edge"><title>Node22&#45;&gt;Node23</title>
<path fill="none" stroke="midnightblue" d="M519.927,-473C544.137,-473 570.863,-473 594.238,-473"/>
<polygon fill="midnightblue" stroke="midnightblue" points="519.723,-469.5 509.722,-473 519.722,-476.5 519.723,-469.5"/>
</g>
<!-- Node24 -->
<g id="node24" class="node"><title>Node24</title>
<g id="a_node24"><a xlink:href="$classCompass.html#a1c48170d8c8966b22fb150b1634443ec" xlink:title="Compass::_detect_backends">
<polygon fill="white" stroke="black" points="782,-463.5 782,-482.5 926,-482.5 926,-463.5 782,-463.5"/>
<text text-anchor="middle" x="854" y="-470.5" font-family="Helvetica,sans-Serif" font-size="10.00">Compass::_detect_backends</text>
</a>
</g>
</g>
<!-- Node23&#45;&gt;Node24 -->
<g id="edge28" class="edge"><title>Node23&#45;&gt;Node24</title>
<path fill="none" stroke="midnightblue" d="M731.757,-473C748.112,-473 765.449,-473 781.742,-473"/>
<polygon fill="midnightblue" stroke="midnightblue" points="731.718,-469.5 721.718,-473 731.718,-476.5 731.718,-469.5"/>
</g>
<!-- Node25 -->
<g id="node25" class="node"><title>Node25</title>
<g id="a_node25"><a xlink:href="$classCompass.html#a190aefc281aba88c7b16e4fc58035c5e" xlink:title="Compass::init">
<polygon fill="white" stroke="black" points="980.5,-552.5 980.5,-571.5 1057.5,-571.5 1057.5,-552.5 980.5,-552.5"/>
<text text-anchor="middle" x="1019" y="-559.5" font-family="Helvetica,sans-Serif" font-size="10.00">Compass::init</text>
</a>
</g>
</g>
<!-- Node24&#45;&gt;Node25 -->
<g id="edge29" class="edge"><title>Node24&#45;&gt;Node25</title>
<path fill="none" stroke="midnightblue" d="M881.626,-487.538C915.072,-505.8 971.542,-536.633 1000.19,-552.274"/>
<polygon fill="midnightblue" stroke="midnightblue" points="882.898,-484.245 872.444,-482.525 879.543,-490.389 882.898,-484.245"/>
</g>
<!-- Node25&#45;&gt;Node6 -->
<g id="edge30" class="edge"><title>Node25&#45;&gt;Node6</title>
<path fill="none" stroke="midnightblue" d="M1055.45,-574.978C1074.3,-581.879 1096.76,-590.1 1112.46,-595.847"/>
<polygon fill="midnightblue" stroke="midnightblue" points="1056.57,-571.66 1045.98,-571.509 1054.16,-578.234 1056.57,-571.66"/>
</g>
<!-- Node27 -->
<g id="node27" class="node"><title>Node27</title>
<g id="a_node27"><a xlink:href="$classAP__Compass__AK8963__MPU9250.html#a8f1c4437b09e2fcb6e3b863a9a3c119d" xlink:title="AP_Compass_AK8963_MPU9250\l::init">
<polygon fill="white" stroke="black" points="363,-409 363,-439 529,-439 529,-409 363,-409"/>
<text text-anchor="start" x="371" y="-427" font-family="Helvetica,sans-Serif" font-size="10.00">AP_Compass_AK8963_MPU9250</text>
<text text-anchor="middle" x="446" y="-416" font-family="Helvetica,sans-Serif" font-size="10.00">::init</text>
</a>
</g>
</g>
<!-- Node26&#45;&gt;Node27 -->
<g id="edge32" class="edge"><title>Node26&#45;&gt;Node27</title>
<path fill="none" stroke="midnightblue" d="M312.147,-434.755C328.639,-433.42 346.118,-432.005 362.792,-430.655"/>
<polygon fill="midnightblue" stroke="midnightblue" points="311.708,-431.279 302.023,-435.574 312.273,-438.256 311.708,-431.279"/>
</g>
<!-- Node28 -->
<g id="node28" class="node"><title>Node28</title>
<g id="a_node28"><a xlink:href="$classAP__Compass__AK8963__MPU9250.html#a6276a40d516ecd31513c02ecf84a666f" xlink:title="AP_Compass_AK8963_MPU9250\l::detect">
<polygon fill="white" stroke="black" points="575,-409 575,-439 741,-439 741,-409 575,-409"/>
<text text-anchor="start" x="583" y="-427" font-family="Helvetica,sans-Serif" font-size="10.00">AP_Compass_AK8963_MPU9250</text>
<text text-anchor="middle" x="658" y="-416" font-family="Helvetica,sans-Serif" font-size="10.00">::detect</text>
</a>
</g>
</g>
<!-- Node27&#45;&gt;Node28 -->
<g id="edge33" class="edge"><title>Node27&#45;&gt;Node28</title>
<path fill="none" stroke="midnightblue" d="M539.423,-424C551.258,-424 563.309,-424 574.963,-424"/>
<polygon fill="midnightblue" stroke="midnightblue" points="539.094,-420.5 529.094,-424 539.094,-427.5 539.094,-420.5"/>
</g>
<!-- Node28&#45;&gt;Node24 -->
<g id="edge34" class="edge"><title>Node28&#45;&gt;Node24</title>
<path fill="none" stroke="midnightblue" d="M728.305,-441.505C757.61,-448.907 790.596,-457.238 815.277,-463.472"/>
<polygon fill="midnightblue" stroke="midnightblue" points="729.077,-438.09 718.525,-439.035 727.363,-444.877 729.077,-438.09"/>
</g>
<!-- Node30 -->
<g id="node30" class="node"><title>Node30</title>
<g id="a_node30"><a xlink:href="$classPX4_1_1PX4AnalogSource.html#a254619275d9239396e49c858414a7c25" xlink:title="PX4::PX4AnalogSource\l::voltage_average">
<polygon fill="white" stroke="black" points="385.5,-360 385.5,-390 506.5,-390 506.5,-360 385.5,-360"/>
<text text-anchor="start" x="393.5" y="-378" font-family="Helvetica,sans-Serif" font-size="10.00">PX4::PX4AnalogSource</text>
<text text-anchor="middle" x="446" y="-367" font-family="Helvetica,sans-Serif" font-size="10.00">::voltage_average</text>
</a>
</g>
</g>
<!-- Node29&#45;&gt;Node30 -->
<g id="edge36" class="edge"><title>Node29&#45;&gt;Node30</title>
<path fill="none" stroke="midnightblue" d="M304.799,-389.688C330.849,-386.959 360.168,-383.887 385.235,-381.261"/>
<polygon fill="midnightblue" stroke="midnightblue" points="304.197,-386.232 294.616,-390.755 304.926,-393.193 304.197,-386.232"/>
</g>
<!-- Node31 -->
<g id="node31" class="node"><title>Node31</title>
<g id="a_node31"><a xlink:href="$classPX4_1_1PX4AnalogSource.html#a4a045494b02f13d840c7e8830f6d4e9e" xlink:title="PX4::PX4AnalogSource\l::voltage_average_ratiometric">
<polygon fill="white" stroke="black" points="585.5,-360 585.5,-390 730.5,-390 730.5,-360 585.5,-360"/>
<text text-anchor="start" x="593.5" y="-378" font-family="Helvetica,sans-Serif" font-size="10.00">PX4::PX4AnalogSource</text>
<text text-anchor="middle" x="658" y="-367" font-family="Helvetica,sans-Serif" font-size="10.00">::voltage_average_ratiometric</text>
</a>
</g>
</g>
<!-- Node30&#45;&gt;Node31 -->
<g id="edge37" class="edge"><title>Node30&#45;&gt;Node31</title>
<path fill="none" stroke="midnightblue" d="M516.873,-375C538.869,-375 563.188,-375 585.308,-375"/>
<polygon fill="midnightblue" stroke="midnightblue" points="516.616,-371.5 506.616,-375 516.616,-378.5 516.616,-371.5"/>
</g>
<!-- Node33 -->
<g id="node33" class="node"><title>Node33</title>
<g id="a_node33"><a xlink:href="$classVRBRAIN_1_1VRBRAINAnalogSource.html#adebcdf5de43a73f3ebdd8f1a6f2e9b5b" xlink:title="VRBRAIN::VRBRAINAnalogSource\l::voltage_average">
<polygon fill="white" stroke="black" points="358.5,-311 358.5,-341 533.5,-341 533.5,-311 358.5,-311"/>
<text text-anchor="start" x="366.5" y="-329" font-family="Helvetica,sans-Serif" font-size="10.00">VRBRAIN::VRBRAINAnalogSource</text>
<text text-anchor="middle" x="446" y="-318" font-family="Helvetica,sans-Serif" font-size="10.00">::voltage_average</text>
</a>
</g>
</g>
<!-- Node32&#45;&gt;Node33 -->
<g id="edge39" class="edge"><title>Node32&#45;&gt;Node33</title>
<path fill="none" stroke="midnightblue" d="M331.606,-337.879C340.486,-336.949 349.447,-336.01 358.233,-335.09"/>
<polygon fill="midnightblue" stroke="midnightblue" points="331.208,-334.402 321.627,-338.925 331.938,-341.364 331.208,-334.402"/>
</g>
<!-- Node34 -->
<g id="node34" class="node"><title>Node34</title>
<g id="a_node34"><a xlink:href="$classVRBRAIN_1_1VRBRAINAnalogSource.html#a8a4e25afd0b30c9810b1a505a402c8f0" xlink:title="VRBRAIN::VRBRAINAnalogSource\l::voltage_average_ratiometric">
<polygon fill="white" stroke="black" points="570.5,-311 570.5,-341 745.5,-341 745.5,-311 570.5,-311"/>
<text text-anchor="start" x="578.5" y="-329" font-family="Helvetica,sans-Serif" font-size="10.00">VRBRAIN::VRBRAINAnalogSource</text>
<text text-anchor="middle" x="658" y="-318" font-family="Helvetica,sans-Serif" font-size="10.00">::voltage_average_ratiometric</text>
</a>
</g>
</g>
<!-- Node33&#45;&gt;Node34 -->
<g id="edge40" class="edge"><title>Node33&#45;&gt;Node34</title>
<path fill="none" stroke="midnightblue" d="M543.892,-326C552.679,-326 561.542,-326 570.233,-326"/>
<polygon fill="midnightblue" stroke="midnightblue" points="543.627,-322.5 533.627,-326 543.627,-329.5 543.627,-322.5"/>
</g>
</g>
</svg>
