<?xml version="1.0" encoding="UTF-8" standalone="no"?>
<!DOCTYPE svg PUBLIC "-//W3C//DTD SVG 1.1//EN"
 "http://www.w3.org/Graphics/SVG/1.1/DTD/svg11.dtd">
<!-- Generated by graphviz version 2.36.0 (20140111.2315)
 -->
<!-- Title: AC_PID::kP Pages: 1 -->
<svg width="530pt" height="175pt"
 viewBox="0.00 0.00 530.00 175.00" xmlns="http://www.w3.org/2000/svg" xmlns:xlink="http://www.w3.org/1999/xlink">
<g id="graph0" class="graph" transform="scale(1 1) rotate(0) translate(4 171)">
<title>AC_PID::kP</title>
<polygon fill="white" stroke="none" points="-4,4 -4,-171 526,-171 526,4 -4,4"/>
<!-- Node1 -->
<g id="node1" class="node"><title>Node1</title>
<polygon fill="#bfbfbf" stroke="black" points="0.5,-78.5 0.5,-97.5 71.5,-97.5 71.5,-78.5 0.5,-78.5"/>
<text text-anchor="middle" x="36" y="-85.5" font-family="Helvetica,sans-Serif" font-size="10.00">AC_PID::kP</text>
</g>
<!-- Node2 -->
<g id="node2" class="node"><title>Node2</title>
<g id="a_node2"><a xlink:href="$AC__PID__test_8pde.html#afe461d27b9c48d5921c00d521181f12f" xlink:title="loop">
<polygon fill="white" stroke="black" points="154.5,-147.5 154.5,-166.5 189.5,-166.5 189.5,-147.5 154.5,-147.5"/>
<text text-anchor="middle" x="172" y="-154.5" font-family="Helvetica,sans-Serif" font-size="10.00">loop</text>
</a>
</g>
</g>
<!-- Node1&#45;&gt;Node2 -->
<g id="edge1" class="edge"><title>Node1&#45;&gt;Node2</title>
<path fill="none" stroke="midnightblue" d="M57.0681,-104.257C70.7675,-114.733 89.6872,-128.024 108,-137 123.044,-144.374 141.42,-149.842 154.434,-153.18"/>
<polygon fill="midnightblue" stroke="midnightblue" points="58.9118,-101.256 48.8783,-97.8531 54.5999,-106.77 58.9118,-101.256"/>
</g>
<!-- Node5 -->
<g id="node5" class="node"><title>Node5</title>
<g id="a_node5"><a xlink:href="$classAC__AttitudeControl.html#a874d7c2f98a3ad251d9f91cc936694e2" xlink:title="AC_AttitudeControl\l::max_rate_step_bf_pitch">
<polygon fill="white" stroke="black" points="108.5,-98 108.5,-128 235.5,-128 235.5,-98 108.5,-98"/>
<text text-anchor="start" x="116.5" y="-116" font-family="Helvetica,sans-Serif" font-size="10.00">AC_AttitudeControl</text>
<text text-anchor="middle" x="172" y="-105" font-family="Helvetica,sans-Serif" font-size="10.00">::max_rate_step_bf_pitch</text>
</a>
</g>
</g>
<!-- Node1&#45;&gt;Node5 -->
<g id="edge4" class="edge"><title>Node1&#45;&gt;Node5</title>
<path fill="none" stroke="midnightblue" d="M81.619,-96.3244C90.1672,-97.9193 99.2645,-99.6165 108.259,-101.295"/>
<polygon fill="midnightblue" stroke="midnightblue" points="81.9806,-92.8316 71.5083,-94.4381 80.6968,-99.7129 81.9806,-92.8316"/>
</g>
<!-- Node7 -->
<g id="node7" class="node"><title>Node7</title>
<g id="a_node7"><a xlink:href="$classAC__AttitudeControl.html#a81707c8a063a129c3025c87687b06b52" xlink:title="AC_AttitudeControl\l::max_rate_step_bf_roll">
<polygon fill="white" stroke="black" points="112.5,-49 112.5,-79 231.5,-79 231.5,-49 112.5,-49"/>
<text text-anchor="start" x="120.5" y="-67" font-family="Helvetica,sans-Serif" font-size="10.00">AC_AttitudeControl</text>
<text text-anchor="middle" x="172" y="-56" font-family="Helvetica,sans-Serif" font-size="10.00">::max_rate_step_bf_roll</text>
</a>
</g>
</g>
<!-- Node1&#45;&gt;Node7 -->
<g id="edge6" class="edge"><title>Node1&#45;&gt;Node7</title>
<path fill="none" stroke="midnightblue" d="M81.518,-80.0266C91.4216,-78.2528 102.066,-76.3463 112.437,-74.4888"/>
<polygon fill="midnightblue" stroke="midnightblue" points="80.7346,-76.6112 71.5083,-81.8194 81.9688,-83.5015 80.7346,-76.6112"/>
</g>
<!-- Node9 -->
<g id="node9" class="node"><title>Node9</title>
<g id="a_node9"><a xlink:href="$classAC__AttitudeControl.html#a8d9a7d9bcefcac0e41adb1136cac46a6" xlink:title="AC_AttitudeControl\l::max_rate_step_bf_yaw">
<polygon fill="white" stroke="black" points="110,-0 110,-30 234,-30 234,-0 110,-0"/>
<text text-anchor="start" x="118" y="-18" font-family="Helvetica,sans-Serif" font-size="10.00">AC_AttitudeControl</text>
<text text-anchor="middle" x="172" y="-7" font-family="Helvetica,sans-Serif" font-size="10.00">::max_rate_step_bf_yaw</text>
</a>
</g>
</g>
<!-- Node1&#45;&gt;Node9 -->
<g id="edge8" class="edge"><title>Node1&#45;&gt;Node9</title>
<path fill="none" stroke="midnightblue" d="M57.2398,-72.0811C71.0121,-61.7487 89.9484,-48.4905 108,-39 114.112,-35.7865 120.753,-32.7795 127.355,-30.0544"/>
<polygon fill="midnightblue" stroke="midnightblue" points="54.8176,-69.5271 48.9964,-78.3794 59.0674,-75.0894 54.8176,-69.5271"/>
</g>
<!-- Node3 -->
<g id="node3" class="node"><title>Node3</title>
<g id="a_node3"><a xlink:href="$HAL__PX4__Class_8cpp.html#a9bd6e6ad19a651d2c83ab3edb8d51924" xlink:title="main_loop">
<polygon fill="white" stroke="black" points="308.5,-147.5 308.5,-166.5 369.5,-166.5 369.5,-147.5 308.5,-147.5"/>
<text text-anchor="middle" x="339" y="-154.5" font-family="Helvetica,sans-Serif" font-size="10.00">main_loop</text>
</a>
</g>
</g>
<!-- Node2&#45;&gt;Node3 -->
<g id="edge2" class="edge"><title>Node2&#45;&gt;Node3</title>
<path fill="none" stroke="midnightblue" d="M199.823,-157C229.63,-157 277.619,-157 308.475,-157"/>
<polygon fill="midnightblue" stroke="midnightblue" points="199.729,-153.5 189.729,-157 199.729,-160.5 199.729,-153.5"/>
</g>
<!-- Node4 -->
<g id="node4" class="node"><title>Node4</title>
<g id="a_node4"><a xlink:href="$classHAL__PX4.html#aa30a8fe0c2c42ede8ced6fc21e1c748a" xlink:title="HAL_PX4::init">
<polygon fill="white" stroke="black" points="442.5,-147.5 442.5,-166.5 521.5,-166.5 521.5,-147.5 442.5,-147.5"/>
<text text-anchor="middle" x="482" y="-154.5" font-family="Helvetica,sans-Serif" font-size="10.00">HAL_PX4::init</text>
</a>
</g>
</g>
<!-- Node3&#45;&gt;Node4 -->
<g id="edge3" class="edge"><title>Node3&#45;&gt;Node4</title>
<path fill="none" stroke="midnightblue" d="M379.705,-157C399.323,-157 422.901,-157 442.371,-157"/>
<polygon fill="midnightblue" stroke="midnightblue" points="379.558,-153.5 369.558,-157 379.558,-160.5 379.558,-153.5"/>
</g>
<!-- Node6 -->
<g id="node6" class="node"><title>Node6</title>
<g id="a_node6"><a xlink:href="$classAC__AttitudeControl.html#a18ad3ea19760b7a23f3980ca96e93c22" xlink:title="AC_AttitudeControl\l::max_angle_step_bf_pitch">
<polygon fill="white" stroke="black" points="272,-98 272,-128 406,-128 406,-98 272,-98"/>
<text text-anchor="start" x="280" y="-116" font-family="Helvetica,sans-Serif" font-size="10.00">AC_AttitudeControl</text>
<text text-anchor="middle" x="339" y="-105" font-family="Helvetica,sans-Serif" font-size="10.00">::max_angle_step_bf_pitch</text>
</a>
</g>
</g>
<!-- Node5&#45;&gt;Node6 -->
<g id="edge5" class="edge"><title>Node5&#45;&gt;Node6</title>
<path fill="none" stroke="midnightblue" d="M245.874,-113C254.488,-113 263.243,-113 271.758,-113"/>
<polygon fill="midnightblue" stroke="midnightblue" points="245.85,-109.5 235.85,-113 245.85,-116.5 245.85,-109.5"/>
</g>
<!-- Node8 -->
<g id="node8" class="node"><title>Node8</title>
<g id="a_node8"><a xlink:href="$classAC__AttitudeControl.html#ac1746c80bb8ee8eddb2bcc6c5158fd1c" xlink:title="AC_AttitudeControl\l::max_angle_step_bf_roll">
<polygon fill="white" stroke="black" points="276.5,-49 276.5,-79 401.5,-79 401.5,-49 276.5,-49"/>
<text text-anchor="start" x="284.5" y="-67" font-family="Helvetica,sans-Serif" font-size="10.00">AC_AttitudeControl</text>
<text text-anchor="middle" x="339" y="-56" font-family="Helvetica,sans-Serif" font-size="10.00">::max_angle_step_bf_roll</text>
</a>
</g>
</g>
<!-- Node7&#45;&gt;Node8 -->
<g id="edge7" class="edge"><title>Node7&#45;&gt;Node8</title>
<path fill="none" stroke="midnightblue" d="M241.665,-64C253.211,-64 265.13,-64 276.481,-64"/>
<polygon fill="midnightblue" stroke="midnightblue" points="241.637,-60.5001 231.637,-64 241.637,-67.5001 241.637,-60.5001"/>
</g>
<!-- Node10 -->
<g id="node10" class="node"><title>Node10</title>
<g id="a_node10"><a xlink:href="$classAC__AttitudeControl.html#aa4a730a59ab7eb155f7acb8b60089f56" xlink:title="AC_AttitudeControl\l::max_angle_step_bf_yaw">
<polygon fill="white" stroke="black" points="273.5,-0 273.5,-30 404.5,-30 404.5,-0 273.5,-0"/>
<text text-anchor="start" x="281.5" y="-18" font-family="Helvetica,sans-Serif" font-size="10.00">AC_AttitudeControl</text>
<text text-anchor="middle" x="339" y="-7" font-family="Helvetica,sans-Serif" font-size="10.00">::max_angle_step_bf_yaw</text>
</a>
</g>
</g>
<!-- Node9&#45;&gt;Node10 -->
<g id="edge9" class="edge"><title>Node9&#45;&gt;Node10</title>
<path fill="none" stroke="midnightblue" d="M244.716,-15C254.28,-15 264.041,-15 273.472,-15"/>
<polygon fill="midnightblue" stroke="midnightblue" points="244.44,-11.5001 234.44,-15 244.44,-18.5001 244.44,-11.5001"/>
</g>
</g>
</svg>
