<?xml version="1.0" encoding="UTF-8" standalone="no"?>
<!DOCTYPE svg PUBLIC "-//W3C//DTD SVG 1.1//EN"
 "http://www.w3.org/Graphics/SVG/1.1/DTD/svg11.dtd">
<!-- Generated by graphviz version 2.36.0 (20140111.2315)
 -->
<!-- Title: StorageAccess::read_uint16 Pages: 1 -->
<svg width="1166pt" height="388pt"
 viewBox="0.00 0.00 1166.00 388.00" xmlns="http://www.w3.org/2000/svg" xmlns:xlink="http://www.w3.org/1999/xlink">
<g id="graph0" class="graph" transform="scale(1 1) rotate(0) translate(4 384)">
<title>StorageAccess::read_uint16</title>
<polygon fill="white" stroke="none" points="-4,4 -4,-384 1162,-384 1162,4 -4,4"/>
<!-- Node1 -->
<g id="node1" class="node"><title>Node1</title>
<polygon fill="#bfbfbf" stroke="black" points="0,-87 0,-117 108,-117 108,-87 0,-87"/>
<text text-anchor="start" x="8" y="-105" font-family="Helvetica,sans-Serif" font-size="10.00">StorageAccess::read</text>
<text text-anchor="middle" x="54" y="-94" font-family="Helvetica,sans-Serif" font-size="10.00">_uint16</text>
</g>
<!-- Node2 -->
<g id="node2" class="node"><title>Node2</title>
<g id="a_node2"><a xlink:href="$classAP__Mission.html#afa29a34a739b0fc995194412dde6e532" xlink:title="AP_Mission::read_cmd\l_from_storage">
<polygon fill="white" stroke="black" points="144,-87 144,-117 262,-117 262,-87 144,-87"/>
<text text-anchor="start" x="152" y="-105" font-family="Helvetica,sans-Serif" font-size="10.00">AP_Mission::read_cmd</text>
<text text-anchor="middle" x="203" y="-94" font-family="Helvetica,sans-Serif" font-size="10.00">_from_storage</text>
</a>
</g>
</g>
<!-- Node1&#45;&gt;Node2 -->
<g id="edge1" class="edge"><title>Node1&#45;&gt;Node2</title>
<path fill="none" stroke="midnightblue" d="M118.28,-102C126.75,-102 135.405,-102 143.783,-102"/>
<polygon fill="midnightblue" stroke="midnightblue" points="118.07,-98.5001 108.07,-102 118.07,-105.5 118.07,-98.5001"/>
</g>
<!-- Node3 -->
<g id="node3" class="node"><title>Node3</title>
<g id="a_node3"><a xlink:href="$classAP__Mission.html#af895b228640bdf29178d44e00897d10e" xlink:title="AP_Mission::get_landing\l_sequence_start">
<polygon fill="white" stroke="black" points="304.5,-172 304.5,-202 429.5,-202 429.5,-172 304.5,-172"/>
<text text-anchor="start" x="312.5" y="-190" font-family="Helvetica,sans-Serif" font-size="10.00">AP_Mission::get_landing</text>
<text text-anchor="middle" x="367" y="-179" font-family="Helvetica,sans-Serif" font-size="10.00">_sequence_start</text>
</a>
</g>
</g>
<!-- Node2&#45;&gt;Node3 -->
<g id="edge2" class="edge"><title>Node2&#45;&gt;Node3</title>
<path fill="none" stroke="midnightblue" d="M233.25,-122.995C251.332,-135.377 275.341,-150.768 298,-162 305.212,-165.575 313.069,-168.925 320.796,-171.94"/>
<polygon fill="midnightblue" stroke="midnightblue" points="235.093,-120.014 224.882,-117.19 231.104,-125.766 235.093,-120.014"/>
</g>
<!-- Node4 -->
<g id="node4" class="node"><title>Node4</title>
<g id="a_node4"><a xlink:href="$classAP__Mission.html#a7c36d142e7c758ce6f2a77c075fed793" xlink:title="AP_Mission::get_next_cmd">
<polygon fill="white" stroke="black" points="298.5,-133.5 298.5,-152.5 435.5,-152.5 435.5,-133.5 298.5,-133.5"/>
<text text-anchor="middle" x="367" y="-140.5" font-family="Helvetica,sans-Serif" font-size="10.00">AP_Mission::get_next_cmd</text>
</a>
</g>
</g>
<!-- Node2&#45;&gt;Node4 -->
<g id="edge3" class="edge"><title>Node2&#45;&gt;Node4</title>
<path fill="none" stroke="midnightblue" d="M271.951,-119.197C291.146,-124.056 311.346,-129.168 328.084,-133.404"/>
<polygon fill="midnightblue" stroke="midnightblue" points="272.581,-115.747 262.028,-116.686 270.864,-122.533 272.581,-115.747"/>
</g>
<!-- Node23 -->
<g id="node23" class="node"><title>Node23</title>
<g id="a_node23"><a xlink:href="$classGCS__MAVLINK.html#a3904d7894979bcbdc58083f39b1aa8da" xlink:title="GCS_MAVLINK::handle\l_mission_request">
<polygon fill="white" stroke="black" points="306,-43 306,-73 428,-73 428,-43 306,-43"/>
<text text-anchor="start" x="314" y="-61" font-family="Helvetica,sans-Serif" font-size="10.00">GCS_MAVLINK::handle</text>
<text text-anchor="middle" x="367" y="-50" font-family="Helvetica,sans-Serif" font-size="10.00">_mission_request</text>
</a>
</g>
</g>
<!-- Node2&#45;&gt;Node23 -->
<g id="edge33" class="edge"><title>Node2&#45;&gt;Node23</title>
<path fill="none" stroke="midnightblue" d="M269.179,-84.2971C282.935,-80.5608 297.325,-76.6525 310.676,-73.0262"/>
<polygon fill="midnightblue" stroke="midnightblue" points="268.031,-80.982 259.298,-86.9808 269.866,-87.7372 268.031,-80.982"/>
</g>
<!-- Node24 -->
<g id="node24" class="node"><title>Node24</title>
<g id="a_node24"><a xlink:href="$AP__Mission__test_8pde.html#afea3e8e344d214ffc7bd4571f23c2d64" xlink:title="print_mission">
<polygon fill="white" stroke="black" points="809,-153.5 809,-172.5 883,-172.5 883,-153.5 809,-153.5"/>
<text text-anchor="middle" x="846" y="-160.5" font-family="Helvetica,sans-Serif" font-size="10.00">print_mission</text>
</a>
</g>
</g>
<!-- Node2&#45;&gt;Node24 -->
<g id="edge34" class="edge"><title>Node2&#45;&gt;Node24</title>
<path fill="none" stroke="midnightblue" d="M272.355,-97.6247C374.42,-92.6469 572.188,-89.0195 736,-122 768.505,-128.544 804.097,-143.53 825.48,-153.456"/>
<polygon fill="midnightblue" stroke="midnightblue" points="271.993,-94.1385 262.184,-98.1409 272.348,-101.129 271.993,-94.1385"/>
</g>
<!-- Node25 -->
<g id="node25" class="node"><title>Node25</title>
<g id="a_node25"><a xlink:href="$AP__Mission__test_8pde.html#a8626293ce3369cd6649e38b329e52ac3" xlink:title="run_max_cmd_test">
<polygon fill="white" stroke="black" points="317,-4.5 317,-23.5 417,-23.5 417,-4.5 317,-4.5"/>
<text text-anchor="middle" x="367" y="-11.5" font-family="Helvetica,sans-Serif" font-size="10.00">run_max_cmd_test</text>
</a>
</g>
</g>
<!-- Node2&#45;&gt;Node25 -->
<g id="edge40" class="edge"><title>Node2&#45;&gt;Node25</title>
<path fill="none" stroke="midnightblue" d="M228.525,-80.132C246.613,-65.0084 272.427,-45.4429 298,-33 305.716,-29.2459 314.296,-26.1243 322.691,-23.5698"/>
<polygon fill="midnightblue" stroke="midnightblue" points="226.127,-77.5766 220.786,-86.7265 230.667,-82.9045 226.127,-77.5766"/>
</g>
<!-- Node5 -->
<g id="node5" class="node"><title>Node5</title>
<g id="a_node5"><a xlink:href="$classAP__Mission.html#ae05ea495d92356695fa5547cf4e3cff3" xlink:title="AP_Mission::advance\l_current_nav_cmd">
<polygon fill="white" stroke="black" points="473,-229 473,-259 585,-259 585,-229 473,-229"/>
<text text-anchor="start" x="481" y="-247" font-family="Helvetica,sans-Serif" font-size="10.00">AP_Mission::advance</text>
<text text-anchor="middle" x="529" y="-236" font-family="Helvetica,sans-Serif" font-size="10.00">_current_nav_cmd</text>
</a>
</g>
</g>
<!-- Node4&#45;&gt;Node5 -->
<g id="edge4" class="edge"><title>Node4&#45;&gt;Node5</title>
<path fill="none" stroke="midnightblue" d="M425.749,-156.674C429.365,-158.522 432.822,-160.62 436,-163 459.684,-180.735 449.555,-199.721 472,-219 476.361,-222.746 481.374,-226.024 486.57,-228.865"/>
<polygon fill="midnightblue" stroke="midnightblue" points="427.065,-153.428 416.505,-152.572 424.226,-159.827 427.065,-153.428"/>
</g>
<!-- Node16 -->
<g id="node16" class="node"><title>Node16</title>
<g id="a_node16"><a xlink:href="$classAP__Mission.html#ae3f59ffb115afa5f34aea906434a841c" xlink:title="AP_Mission::get_next\l_do_cmd">
<polygon fill="white" stroke="black" points="472.5,-131 472.5,-161 585.5,-161 585.5,-131 472.5,-131"/>
<text text-anchor="start" x="480.5" y="-149" font-family="Helvetica,sans-Serif" font-size="10.00">AP_Mission::get_next</text>
<text text-anchor="middle" x="529" y="-138" font-family="Helvetica,sans-Serif" font-size="10.00">_do_cmd</text>
</a>
</g>
</g>
<!-- Node4&#45;&gt;Node16 -->
<g id="edge23" class="edge"><title>Node4&#45;&gt;Node16</title>
<path fill="none" stroke="midnightblue" d="M446.124,-144.465C454.905,-144.629 463.716,-144.795 472.135,-144.953"/>
<polygon fill="midnightblue" stroke="midnightblue" points="445.918,-140.96 435.854,-144.272 445.787,-147.959 445.918,-140.96"/>
</g>
<!-- Node18 -->
<g id="node18" class="node"><title>Node18</title>
<g id="a_node18"><a xlink:href="$classAP__Mission.html#a992b76c57b3c0066ae4187d16befc97a" xlink:title="AP_Mission::get_next\l_nav_cmd">
<polygon fill="white" stroke="black" points="472.5,-180 472.5,-210 585.5,-210 585.5,-180 472.5,-180"/>
<text text-anchor="start" x="480.5" y="-198" font-family="Helvetica,sans-Serif" font-size="10.00">AP_Mission::get_next</text>
<text text-anchor="middle" x="529" y="-187" font-family="Helvetica,sans-Serif" font-size="10.00">_nav_cmd</text>
</a>
</g>
</g>
<!-- Node4&#45;&gt;Node18 -->
<g id="edge26" class="edge"><title>Node4&#45;&gt;Node18</title>
<path fill="none" stroke="midnightblue" d="M411.431,-155.431C419.615,-157.87 428.086,-160.462 436,-163 452.425,-168.268 470.366,-174.419 486.008,-179.912"/>
<polygon fill="midnightblue" stroke="midnightblue" points="412.23,-152.018 401.649,-152.545 410.249,-158.732 412.23,-152.018"/>
</g>
<!-- Node20 -->
<g id="node20" class="node"><title>Node20</title>
<g id="a_node20"><a xlink:href="$classAP__Mission.html#ac79a188f81816b3ddfe045b6a0feb6d1" xlink:title="AP_Mission::set_current_cmd">
<polygon fill="white" stroke="black" points="772,-39.5 772,-58.5 920,-58.5 920,-39.5 772,-39.5"/>
<text text-anchor="middle" x="846" y="-46.5" font-family="Helvetica,sans-Serif" font-size="10.00">AP_Mission::set_current_cmd</text>
</a>
</g>
</g>
<!-- Node4&#45;&gt;Node20 -->
<g id="edge28" class="edge"><title>Node4&#45;&gt;Node20</title>
<path fill="none" stroke="midnightblue" d="M424.715,-131.484C440.058,-128.386 456.661,-125.05 472,-122 588.008,-98.9358 724.432,-72.3805 795.805,-58.5308"/>
<polygon fill="midnightblue" stroke="midnightblue" points="423.949,-128.068 414.841,-133.48 425.336,-134.929 423.949,-128.068"/>
</g>
<!-- Node6 -->
<g id="node6" class="node"><title>Node6</title>
<g id="a_node6"><a xlink:href="$classAP__Mission.html#a3b4234e58e34ed5c83d8c6b9ce2718c9" xlink:title="AP_Mission::start">
<polygon fill="white" stroke="black" points="631.5,-267.5 631.5,-286.5 726.5,-286.5 726.5,-267.5 631.5,-267.5"/>
<text text-anchor="middle" x="679" y="-274.5" font-family="Helvetica,sans-Serif" font-size="10.00">AP_Mission::start</text>
</a>
</g>
</g>
<!-- Node5&#45;&gt;Node6 -->
<g id="edge5" class="edge"><title>Node5&#45;&gt;Node6</title>
<path fill="none" stroke="midnightblue" d="M594.965,-258.486C608.639,-261.534 622.731,-264.676 635.335,-267.487"/>
<polygon fill="midnightblue" stroke="midnightblue" points="595.632,-255.048 585.11,-256.288 594.108,-261.88 595.632,-255.048"/>
</g>
<!-- Node15 -->
<g id="node15" class="node"><title>Node15</title>
<g id="a_node15"><a xlink:href="$classAP__Mission.html#ad27b4531fa652b277bd9300b60ca4493" xlink:title="AP_Mission::update">
<polygon fill="white" stroke="black" points="794,-191.5 794,-210.5 898,-210.5 898,-191.5 794,-191.5"/>
<text text-anchor="middle" x="846" y="-198.5" font-family="Helvetica,sans-Serif" font-size="10.00">AP_Mission::update</text>
</a>
</g>
</g>
<!-- Node5&#45;&gt;Node15 -->
<g id="edge17" class="edge"><title>Node5&#45;&gt;Node15</title>
<path fill="none" stroke="midnightblue" d="M595.198,-236.812C635.766,-232.16 688.987,-225.731 736,-219 754.891,-216.295 775.564,-212.974 793.779,-209.924"/>
<polygon fill="midnightblue" stroke="midnightblue" points="594.708,-233.345 585.168,-237.955 595.501,-240.3 594.708,-233.345"/>
</g>
<!-- Node7 -->
<g id="node7" class="node"><title>Node7</title>
<g id="a_node7"><a xlink:href="$classAP__Mission.html#af7b8e9db68a2a858e2ecca8d57c2722e" xlink:title="AP_Mission::resume">
<polygon fill="white" stroke="black" points="792.5,-305.5 792.5,-324.5 899.5,-324.5 899.5,-305.5 792.5,-305.5"/>
<text text-anchor="middle" x="846" y="-312.5" font-family="Helvetica,sans-Serif" font-size="10.00">AP_Mission::resume</text>
</a>
</g>
</g>
<!-- Node6&#45;&gt;Node7 -->
<g id="edge6" class="edge"><title>Node6&#45;&gt;Node7</title>
<path fill="none" stroke="midnightblue" d="M731.654,-288.896C754.846,-294.237 781.838,-300.454 803.663,-305.48"/>
<polygon fill="midnightblue" stroke="midnightblue" points="732.167,-285.423 721.636,-286.589 730.596,-292.244 732.167,-285.423"/>
</g>
<!-- Node8 -->
<g id="node8" class="node"><title>Node8</title>
<g id="a_node8"><a xlink:href="$AP__Mission__test_8pde.html#a13b076b46de100742c7bab1a8f5c0661" xlink:title="run_resume_test">
<polygon fill="white" stroke="black" points="976.5,-286.5 976.5,-305.5 1065.5,-305.5 1065.5,-286.5 976.5,-286.5"/>
<text text-anchor="middle" x="1021" y="-293.5" font-family="Helvetica,sans-Serif" font-size="10.00">run_resume_test</text>
</a>
</g>
</g>
<!-- Node6&#45;&gt;Node8 -->
<g id="edge13" class="edge"><title>Node6&#45;&gt;Node8</title>
<path fill="none" stroke="midnightblue" d="M698.688,-292.977C716.284,-306.89 744.046,-326.042 772,-334 835.264,-352.01 855.304,-345.878 920,-334 949.41,-328.6 981.38,-314.963 1001.06,-305.584"/>
<polygon fill="midnightblue" stroke="midnightblue" points="700.873,-290.243 690.91,-286.64 696.452,-295.67 700.873,-290.243"/>
</g>
<!-- Node9 -->
<g id="node9" class="node"><title>Node9</title>
<g id="a_node9"><a xlink:href="$AP__Mission__test_8pde.html#a940853f9fdd2bd926e8521828b2ee749" xlink:title="run_set_current_cmd\l_while_stopped_test">
<polygon fill="white" stroke="black" points="967,-142 967,-172 1075,-172 1075,-142 967,-142"/>
<text text-anchor="start" x="975" y="-160" font-family="Helvetica,sans-Serif" font-size="10.00">run_set_current_cmd</text>
<text text-anchor="middle" x="1021" y="-149" font-family="Helvetica,sans-Serif" font-size="10.00">_while_stopped_test</text>
</a>
</g>
</g>
<!-- Node6&#45;&gt;Node9 -->
<g id="edge15" class="edge"><title>Node6&#45;&gt;Node9</title>
<path fill="none" stroke="midnightblue" d="M698.933,-260.344C710.616,-249.398 725.351,-234.312 736,-219 757.111,-188.645 740.705,-163.692 772,-144 836.043,-103.702 928.831,-124.766 980.853,-141.998"/>
<polygon fill="midnightblue" stroke="midnightblue" points="696.439,-257.882 691.421,-267.213 701.163,-263.048 696.439,-257.882"/>
</g>
<!-- Node10 -->
<g id="node10" class="node"><title>Node10</title>
<g id="a_node10"><a xlink:href="$classAP__Mission.html#a90117c1ac074049b9f4247cebdf370a5" xlink:title="start_or_resume &#45; if MIS_AUTORESTART=0 this will call resume(), otherwise it will call start() ...">
<polygon fill="white" stroke="black" points="967,-350 967,-380 1075,-380 1075,-350 967,-350"/>
<text text-anchor="start" x="975" y="-368" font-family="Helvetica,sans-Serif" font-size="10.00">AP_Mission::start_or</text>
<text text-anchor="middle" x="1021" y="-357" font-family="Helvetica,sans-Serif" font-size="10.00">_resume</text>
</a>
</g>
</g>
<!-- Node6&#45;&gt;Node10 -->
<g id="edge16" class="edge"><title>Node6&#45;&gt;Node10</title>
<path fill="none" stroke="midnightblue" d="M694.597,-294.382C711.201,-312.733 740.168,-340.675 772,-353 835.513,-377.59 915.096,-376.398 966.718,-371.882"/>
<polygon fill="midnightblue" stroke="midnightblue" points="697.098,-291.926 687.872,-286.716 691.836,-296.542 697.098,-291.926"/>
</g>
<!-- Node11 -->
<g id="node11" class="node"><title>Node11</title>
<g id="a_node11"><a xlink:href="$AP__Mission__test_8pde.html#a52918e058fa06c68b87cc74205dda142" xlink:title="run_mission_test">
<polygon fill="white" stroke="black" points="975.5,-229.5 975.5,-248.5 1066.5,-248.5 1066.5,-229.5 975.5,-229.5"/>
<text text-anchor="middle" x="1021" y="-236.5" font-family="Helvetica,sans-Serif" font-size="10.00">run_mission_test</text>
</a>
</g>
</g>
<!-- Node6&#45;&gt;Node11 -->
<g id="edge10" class="edge"><title>Node6&#45;&gt;Node11</title>
<path fill="none" stroke="midnightblue" d="M736.537,-271.98C785.216,-267.507 857.313,-260.519 920,-253 938.102,-250.829 958,-248.111 975.247,-245.649"/>
<polygon fill="midnightblue" stroke="midnightblue" points="736.157,-268.5 726.517,-272.896 736.794,-275.471 736.157,-268.5"/>
</g>
<!-- Node13 -->
<g id="node13" class="node"><title>Node13</title>
<g id="a_node13"><a xlink:href="$AP__Mission__test_8pde.html#a6f9b146691fc508edb7ff3c6be2c3dfc" xlink:title="run_replace_cmd_test">
<polygon fill="white" stroke="black" points="964.5,-191.5 964.5,-210.5 1077.5,-210.5 1077.5,-191.5 964.5,-191.5"/>
<text text-anchor="middle" x="1021" y="-198.5" font-family="Helvetica,sans-Serif" font-size="10.00">run_replace_cmd_test</text>
</a>
</g>
</g>
<!-- Node6&#45;&gt;Node13 -->
<g id="edge12" class="edge"><title>Node6&#45;&gt;Node13</title>
<path fill="none" stroke="midnightblue" d="M724.872,-264.829C739.824,-260.898 756.594,-256.622 772,-253 840.733,-236.839 920.762,-220.503 970.907,-210.563"/>
<polygon fill="midnightblue" stroke="midnightblue" points="723.621,-261.539 714.85,-267.483 725.413,-268.306 723.621,-261.539"/>
</g>
<!-- Node14 -->
<g id="node14" class="node"><title>Node14</title>
<g id="a_node14"><a xlink:href="$AP__Mission__test_8pde.html#a184ed3ddbf16eecc3c9176074098c125" xlink:title="run_set_current_cmd_test">
<polygon fill="white" stroke="black" points="956,-98.5 956,-117.5 1086,-117.5 1086,-98.5 956,-98.5"/>
<text text-anchor="middle" x="1021" y="-105.5" font-family="Helvetica,sans-Serif" font-size="10.00">run_set_current_cmd_test</text>
</a>
</g>
</g>
<!-- Node6&#45;&gt;Node14 -->
<g id="edge14" class="edge"><title>Node6&#45;&gt;Node14</title>
<path fill="none" stroke="midnightblue" d="M699.532,-260.736C711.448,-249.943 726.219,-234.88 736,-219 761.432,-177.71 732.913,-144.703 772,-116 835.888,-69.0848 936.054,-85.4774 987.344,-98.4093"/>
<polygon fill="midnightblue" stroke="midnightblue" points="697.047,-258.26 691.835,-267.485 701.661,-263.524 697.047,-258.26"/>
</g>
<!-- Node7&#45;&gt;Node8 -->
<g id="edge7" class="edge"><title>Node7&#45;&gt;Node8</title>
<path fill="none" stroke="midnightblue" d="M909.828,-308.1C931.948,-305.67 956.306,-302.995 976.481,-300.78"/>
<polygon fill="midnightblue" stroke="midnightblue" points="909.404,-304.625 899.846,-309.196 910.168,-311.583 909.404,-304.625"/>
</g>
<!-- Node7&#45;&gt;Node9 -->
<g id="edge8" class="edge"><title>Node7&#45;&gt;Node9</title>
<path fill="none" stroke="midnightblue" d="M860.771,-297.196C887.374,-262.954 944.249,-190.537 956,-182 961.211,-178.214 967.072,-174.912 973.076,-172.06"/>
<polygon fill="midnightblue" stroke="midnightblue" points="857.781,-295.341 854.419,-305.388 863.312,-299.63 857.781,-295.341"/>
</g>
<!-- Node7&#45;&gt;Node10 -->
<g id="edge9" class="edge"><title>Node7&#45;&gt;Node10</title>
<path fill="none" stroke="midnightblue" d="M889.672,-327.333C913.279,-334.156 942.806,-342.69 967.784,-349.909"/>
<polygon fill="midnightblue" stroke="midnightblue" points="890.526,-323.937 879.947,-324.522 888.582,-330.661 890.526,-323.937"/>
</g>
<!-- Node12 -->
<g id="node12" class="node"><title>Node12</title>
<g id="a_node12"><a xlink:href="$AP__Mission__test_8pde.html#a0b33edabd7f1c4e4a0bf32c67269be2f" xlink:title="loop">
<polygon fill="white" stroke="black" points="1122.5,-229.5 1122.5,-248.5 1157.5,-248.5 1157.5,-229.5 1122.5,-229.5"/>
<text text-anchor="middle" x="1140" y="-236.5" font-family="Helvetica,sans-Serif" font-size="10.00">loop</text>
</a>
</g>
</g>
<!-- Node11&#45;&gt;Node12 -->
<g id="edge11" class="edge"><title>Node11&#45;&gt;Node12</title>
<path fill="none" stroke="midnightblue" d="M1076.77,-239C1093.32,-239 1110.26,-239 1122.28,-239"/>
<polygon fill="midnightblue" stroke="midnightblue" points="1076.57,-235.5 1066.57,-239 1076.57,-242.5 1076.57,-235.5"/>
</g>
<!-- Node15&#45;&gt;Node8 -->
<g id="edge20" class="edge"><title>Node15&#45;&gt;Node8</title>
<path fill="none" stroke="midnightblue" d="M873.457,-215.528C909.304,-235.213 972.304,-269.809 1002.67,-286.484"/>
<polygon fill="midnightblue" stroke="midnightblue" points="874.99,-212.377 864.54,-210.632 871.621,-218.513 874.99,-212.377"/>
</g>
<!-- Node15&#45;&gt;Node9 -->
<g id="edge22" class="edge"><title>Node15&#45;&gt;Node9</title>
<path fill="none" stroke="midnightblue" d="M894.49,-188.922C916.888,-183.225 943.7,-176.406 966.782,-170.535"/>
<polygon fill="midnightblue" stroke="midnightblue" points="893.367,-185.596 884.538,-191.453 895.093,-192.38 893.367,-185.596"/>
</g>
<!-- Node15&#45;&gt;Node11 -->
<g id="edge18" class="edge"><title>Node15&#45;&gt;Node11</title>
<path fill="none" stroke="midnightblue" d="M900.505,-212.753C924.967,-218.126 953.571,-224.409 976.659,-229.48"/>
<polygon fill="midnightblue" stroke="midnightblue" points="901.173,-209.316 890.655,-210.589 899.671,-216.153 901.173,-209.316"/>
</g>
<!-- Node15&#45;&gt;Node13 -->
<g id="edge19" class="edge"><title>Node15&#45;&gt;Node13</title>
<path fill="none" stroke="midnightblue" d="M908.615,-201C926.753,-201 946.486,-201 964.235,-201"/>
<polygon fill="midnightblue" stroke="midnightblue" points="908.437,-197.5 898.437,-201 908.437,-204.5 908.437,-197.5"/>
</g>
<!-- Node15&#45;&gt;Node14 -->
<g id="edge21" class="edge"><title>Node15&#45;&gt;Node14</title>
<path fill="none" stroke="midnightblue" d="M907.7,-188.764C912.023,-186.83 916.178,-184.592 920,-182 942.366,-166.833 934.565,-149.457 956,-133 964.61,-126.389 975.186,-121.32 985.242,-117.53"/>
<polygon fill="midnightblue" stroke="midnightblue" points="906.082,-185.638 898.032,-192.526 908.621,-192.161 906.082,-185.638"/>
</g>
<!-- Node17 -->
<g id="node17" class="node"><title>Node17</title>
<g id="a_node17"><a xlink:href="$classAP__Mission.html#af0264d3532a927fa13f5e25ac2137d32" xlink:title="AP_Mission::advance\l_current_do_cmd">
<polygon fill="white" stroke="black" points="623,-131 623,-161 735,-161 735,-131 623,-131"/>
<text text-anchor="start" x="631" y="-149" font-family="Helvetica,sans-Serif" font-size="10.00">AP_Mission::advance</text>
<text text-anchor="middle" x="679" y="-138" font-family="Helvetica,sans-Serif" font-size="10.00">_current_do_cmd</text>
</a>
</g>
</g>
<!-- Node16&#45;&gt;Node17 -->
<g id="edge24" class="edge"><title>Node16&#45;&gt;Node17</title>
<path fill="none" stroke="midnightblue" d="M595.619,-146C604.643,-146 613.835,-146 622.65,-146"/>
<polygon fill="midnightblue" stroke="midnightblue" points="595.531,-142.5 585.531,-146 595.531,-149.5 595.531,-142.5"/>
</g>
<!-- Node17&#45;&gt;Node15 -->
<g id="edge25" class="edge"><title>Node17&#45;&gt;Node15</title>
<path fill="none" stroke="midnightblue" d="M724.932,-164.81C739.782,-170.696 756.476,-176.962 772,-182 782.588,-185.436 794.193,-188.685 804.972,-191.492"/>
<polygon fill="midnightblue" stroke="midnightblue" points="726.055,-161.489 715.471,-161.014 723.448,-167.986 726.055,-161.489"/>
</g>
<!-- Node19 -->
<g id="node19" class="node"><title>Node19</title>
<g id="a_node19"><a xlink:href="$classAP__Mission.html#a338b12fad6aa74b9c8a34d65850f6b40" xlink:title="AP_Mission::get_next\l_ground_course_cd">
<polygon fill="white" stroke="black" points="622.5,-180 622.5,-210 735.5,-210 735.5,-180 622.5,-180"/>
<text text-anchor="start" x="630.5" y="-198" font-family="Helvetica,sans-Serif" font-size="10.00">AP_Mission::get_next</text>
<text text-anchor="middle" x="679" y="-187" font-family="Helvetica,sans-Serif" font-size="10.00">_ground_course_cd</text>
</a>
</g>
</g>
<!-- Node18&#45;&gt;Node19 -->
<g id="edge27" class="edge"><title>Node18&#45;&gt;Node19</title>
<path fill="none" stroke="midnightblue" d="M595.768,-195C604.576,-195 613.542,-195 622.158,-195"/>
<polygon fill="midnightblue" stroke="midnightblue" points="595.531,-191.5 585.531,-195 595.531,-198.5 595.531,-191.5"/>
</g>
<!-- Node20&#45;&gt;Node9 -->
<g id="edge32" class="edge"><title>Node20&#45;&gt;Node9</title>
<path fill="none" stroke="midnightblue" d="M866.903,-64.9379C888.203,-81.583 923.35,-107.882 956,-127 965.107,-132.333 975.318,-137.468 984.863,-141.937"/>
<polygon fill="midnightblue" stroke="midnightblue" points="868.949,-62.0947 858.93,-58.6516 864.615,-67.5916 868.949,-62.0947"/>
</g>
<!-- Node20&#45;&gt;Node14 -->
<g id="edge31" class="edge"><title>Node20&#45;&gt;Node14</title>
<path fill="none" stroke="midnightblue" d="M886.251,-61.7524C897.19,-65.3478 909.07,-69.291 920,-73 944.734,-81.3934 972.796,-91.2441 992.885,-98.353"/>
<polygon fill="midnightblue" stroke="midnightblue" points="887.116,-58.3528 876.523,-58.5649 884.936,-65.0048 887.116,-58.3528"/>
</g>
<!-- Node21 -->
<g id="node21" class="node"><title>Node21</title>
<g id="a_node21"><a xlink:href="$classAPM__OBC.html#abcd546549be8688ab9cd0c46147dc077" xlink:title="APM_OBC::check">
<polygon fill="white" stroke="black" points="972,-0.5 972,-19.5 1070,-19.5 1070,-0.5 972,-0.5"/>
<text text-anchor="middle" x="1021" y="-7.5" font-family="Helvetica,sans-Serif" font-size="10.00">APM_OBC::check</text>
</a>
</g>
</g>
<!-- Node20&#45;&gt;Node21 -->
<g id="edge29" class="edge"><title>Node20&#45;&gt;Node21</title>
<path fill="none" stroke="midnightblue" d="M899.077,-37.2602C924.256,-31.5839 954.085,-24.8594 977.817,-19.5095"/>
<polygon fill="midnightblue" stroke="midnightblue" points="898.306,-33.846 889.321,-39.4595 899.845,-40.6746 898.306,-33.846"/>
</g>
<!-- Node22 -->
<g id="node22" class="node"><title>Node22</title>
<g id="a_node22"><a xlink:href="$classGCS__MAVLINK.html#ad4e76e7f27bc999e806416e24aa10f26" xlink:title="GCS_MAVLINK::handle\l_mission_set_current">
<polygon fill="white" stroke="black" points="960,-39 960,-69 1082,-69 1082,-39 960,-39"/>
<text text-anchor="start" x="968" y="-57" font-family="Helvetica,sans-Serif" font-size="10.00">GCS_MAVLINK::handle</text>
<text text-anchor="middle" x="1021" y="-46" font-family="Helvetica,sans-Serif" font-size="10.00">_mission_set_current</text>
</a>
</g>
</g>
<!-- Node20&#45;&gt;Node22 -->
<g id="edge30" class="edge"><title>Node20&#45;&gt;Node22</title>
<path fill="none" stroke="midnightblue" d="M930.137,-51.4028C940.198,-51.6936 950.319,-51.9861 959.956,-52.2646"/>
<polygon fill="midnightblue" stroke="midnightblue" points="930.214,-47.9037 920.117,-51.1132 930.011,-54.9007 930.214,-47.9037"/>
</g>
<!-- Node24&#45;&gt;Node8 -->
<g id="edge37" class="edge"><title>Node24&#45;&gt;Node8</title>
<path fill="none" stroke="midnightblue" d="M893.261,-168.59C902.86,-171.433 912.364,-175.678 920,-182 948.79,-205.835 930.835,-230.366 956,-258 967.311,-270.42 983.638,-280.025 996.97,-286.472"/>
<polygon fill="midnightblue" stroke="midnightblue" points="893.848,-165.13 883.298,-166.107 892.154,-171.922 893.848,-165.13"/>
</g>
<!-- Node24&#45;&gt;Node9 -->
<g id="edge39" class="edge"><title>Node24&#45;&gt;Node9</title>
<path fill="none" stroke="midnightblue" d="M893.292,-161.394C915.902,-160.61 943.225,-159.663 966.701,-158.849"/>
<polygon fill="midnightblue" stroke="midnightblue" points="893.139,-157.898 883.266,-161.742 893.382,-164.893 893.139,-157.898"/>
</g>
<!-- Node24&#45;&gt;Node11 -->
<g id="edge35" class="edge"><title>Node24&#45;&gt;Node11</title>
<path fill="none" stroke="midnightblue" d="M893.073,-170.826C902.373,-173.534 911.802,-177.158 920,-182 940.031,-193.832 936.173,-207.83 956,-220 962.223,-223.82 969.259,-226.91 976.332,-229.399"/>
<polygon fill="midnightblue" stroke="midnightblue" points="893.655,-167.361 883.096,-168.234 891.895,-174.136 893.655,-167.361"/>
</g>
<!-- Node24&#45;&gt;Node13 -->
<g id="edge36" class="edge"><title>Node24&#45;&gt;Node13</title>
<path fill="none" stroke="midnightblue" d="M893.235,-173.156C919.166,-178.852 951.313,-185.913 976.745,-191.499"/>
<polygon fill="midnightblue" stroke="midnightblue" points="893.785,-169.693 883.266,-170.966 892.283,-176.53 893.785,-169.693"/>
</g>
<!-- Node24&#45;&gt;Node14 -->
<g id="edge38" class="edge"><title>Node24&#45;&gt;Node14</title>
<path fill="none" stroke="midnightblue" d="M886.886,-150.32C918.287,-140.336 961.375,-126.638 989.921,-117.563"/>
<polygon fill="midnightblue" stroke="midnightblue" points="885.604,-147.054 877.134,-153.42 887.725,-153.725 885.604,-147.054"/>
</g>
</g>
</svg>
