<?xml version="1.0" encoding="UTF-8" standalone="no"?>
<!DOCTYPE svg PUBLIC "-//W3C//DTD SVG 1.1//EN"
 "http://www.w3.org/Graphics/SVG/1.1/DTD/svg11.dtd">
<!-- Generated by graphviz version 2.36.0 (20140111.2315)
 -->
<!-- Title: AC_PosControl::is_active_z Pages: 1 -->
<svg width="602pt" height="136pt"
 viewBox="0.00 0.00 602.00 136.00" xmlns="http://www.w3.org/2000/svg" xmlns:xlink="http://www.w3.org/1999/xlink">
<g id="graph0" class="graph" transform="scale(1 1) rotate(0) translate(4 132)">
<title>AC_PosControl::is_active_z</title>
<polygon fill="white" stroke="none" points="-4,4 -4,-132 598,-132 598,4 -4,4"/>
<!-- Node1 -->
<g id="node1" class="node"><title>Node1</title>
<polygon fill="#bfbfbf" stroke="black" points="0,-49.5 0,-68.5 140,-68.5 140,-49.5 0,-49.5"/>
<text text-anchor="middle" x="70" y="-56.5" font-family="Helvetica,sans-Serif" font-size="10.00">AC_PosControl::is_active_z</text>
</g>
<!-- Node2 -->
<g id="node2" class="node"><title>Node2</title>
<g id="a_node2"><a xlink:href="$classAC__PosControl.html#a20ac6348cbb9a1ac803c626c91ec93e5" xlink:title="get_stopping_point_z &#45; calculates stopping point based on current position, velocity, vehicle acceleration ">
<polygon fill="white" stroke="black" points="176,-44 176,-74 280,-74 280,-44 176,-44"/>
<text text-anchor="start" x="184" y="-62" font-family="Helvetica,sans-Serif" font-size="10.00">AC_PosControl::get</text>
<text text-anchor="middle" x="228" y="-51" font-family="Helvetica,sans-Serif" font-size="10.00">_stopping_point_z</text>
</a>
</g>
</g>
<!-- Node1&#45;&gt;Node2 -->
<g id="edge1" class="edge"><title>Node1&#45;&gt;Node2</title>
<path fill="none" stroke="midnightblue" d="M150.396,-59C158.982,-59 167.544,-59 175.668,-59"/>
<polygon fill="midnightblue" stroke="midnightblue" points="150.332,-55.5001 140.332,-59 150.332,-62.5001 150.332,-55.5001"/>
</g>
<!-- Node3 -->
<g id="node3" class="node"><title>Node3</title>
<g id="a_node3"><a xlink:href="$classAC__WPNav.html#a2b69b65d22efd7793a6f081678f9b8a1" xlink:title="AC_WPNav::set_spline\l_destination">
<polygon fill="white" stroke="black" points="336.5,-98 336.5,-128 457.5,-128 457.5,-98 336.5,-98"/>
<text text-anchor="start" x="344.5" y="-116" font-family="Helvetica,sans-Serif" font-size="10.00">AC_WPNav::set_spline</text>
<text text-anchor="middle" x="397" y="-105" font-family="Helvetica,sans-Serif" font-size="10.00">_destination</text>
</a>
</g>
</g>
<!-- Node2&#45;&gt;Node3 -->
<g id="edge2" class="edge"><title>Node2&#45;&gt;Node3</title>
<path fill="none" stroke="midnightblue" d="M283.399,-77.3084C294.19,-80.8905 305.444,-84.5916 316,-88 326.109,-91.2639 336.957,-94.6992 347.302,-97.9428"/>
<polygon fill="midnightblue" stroke="midnightblue" points="284.247,-73.9018 273.653,-74.064 282.036,-80.5434 284.247,-73.9018"/>
</g>
<!-- Node4 -->
<g id="node4" class="node"><title>Node4</title>
<g id="a_node4"><a xlink:href="$classAC__PosControl.html#a51caffd56dd27f42595df30f63cd1eaa" xlink:title="set_target_to_stopping_point_z &#45; sets altitude target to reasonable stopping altitude in cm above hom...">
<polygon fill="white" stroke="black" points="345,-38.5 345,-79.5 449,-79.5 449,-38.5 345,-38.5"/>
<text text-anchor="start" x="353" y="-67.5" font-family="Helvetica,sans-Serif" font-size="10.00">AC_PosControl::set</text>
<text text-anchor="start" x="353" y="-56.5" font-family="Helvetica,sans-Serif" font-size="10.00">_target_to_stopping</text>
<text text-anchor="middle" x="397" y="-45.5" font-family="Helvetica,sans-Serif" font-size="10.00">_point_z</text>
</a>
</g>
</g>
<!-- Node2&#45;&gt;Node4 -->
<g id="edge3" class="edge"><title>Node2&#45;&gt;Node4</title>
<path fill="none" stroke="midnightblue" d="M290.089,-59C308.03,-59 327.462,-59 344.724,-59"/>
<polygon fill="midnightblue" stroke="midnightblue" points="290.013,-55.5001 280.013,-59 290.013,-62.5001 290.013,-55.5001"/>
</g>
<!-- Node6 -->
<g id="node6" class="node"><title>Node6</title>
<g id="a_node6"><a xlink:href="$classAC__WPNav.html#aac204111a3f01e04d5b8165f03db223e" xlink:title="set_wp_destination waypoint using position vector (distance from home in cm) ">
<polygon fill="white" stroke="black" points="316.5,-0.5 316.5,-19.5 477.5,-19.5 477.5,-0.5 316.5,-0.5"/>
<text text-anchor="middle" x="397" y="-7.5" font-family="Helvetica,sans-Serif" font-size="10.00">AC_WPNav::set_wp_destination</text>
</a>
</g>
</g>
<!-- Node2&#45;&gt;Node6 -->
<g id="edge5" class="edge"><title>Node2&#45;&gt;Node6</title>
<path fill="none" stroke="midnightblue" d="M279.636,-40.5955C291.495,-36.5482 304.133,-32.4461 316,-29 327.653,-25.6162 340.387,-22.3848 352.199,-19.5776"/>
<polygon fill="midnightblue" stroke="midnightblue" points="278.197,-37.3896 269.891,-43.9666 280.486,-44.0049 278.197,-37.3896"/>
</g>
<!-- Node5 -->
<g id="node5" class="node"><title>Node5</title>
<g id="a_node5"><a xlink:href="$classAC__Circle.html#aeecf8efd6d546820ee831e749935df8b" xlink:title="AC_Circle::init">
<polygon fill="white" stroke="black" points="514,-49.5 514,-68.5 594,-68.5 594,-49.5 514,-49.5"/>
<text text-anchor="middle" x="554" y="-56.5" font-family="Helvetica,sans-Serif" font-size="10.00">AC_Circle::init</text>
</a>
</g>
</g>
<!-- Node4&#45;&gt;Node5 -->
<g id="edge4" class="edge"><title>Node4&#45;&gt;Node5</title>
<path fill="none" stroke="midnightblue" d="M459.206,-59C477.535,-59 497.137,-59 513.657,-59"/>
<polygon fill="midnightblue" stroke="midnightblue" points="459.182,-55.5001 449.182,-59 459.182,-62.5001 459.182,-55.5001"/>
</g>
</g>
</svg>
