<?xml version="1.0" encoding="UTF-8" standalone="no"?>
<!DOCTYPE svg PUBLIC "-//W3C//DTD SVG 1.1//EN"
 "http://www.w3.org/Graphics/SVG/1.1/DTD/svg11.dtd">
<!-- Generated by graphviz version 2.36.0 (20140111.2315)
 -->
<!-- Title: AC_PosControl::rate_to_accel_xy Pages: 1 -->
<svg width="572pt" height="218pt"
 viewBox="0.00 0.00 572.00 217.59" xmlns="http://www.w3.org/2000/svg" xmlns:xlink="http://www.w3.org/1999/xlink">
<g id="graph0" class="graph" transform="scale(1 1) rotate(0) translate(4 213.59)">
<title>AC_PosControl::rate_to_accel_xy</title>
<polygon fill="white" stroke="none" points="-4,4 -4,-213.59 568,-213.59 568,4 -4,4"/>
<!-- Node1 -->
<g id="node1" class="node"><title>Node1</title>
<polygon fill="#bfbfbf" stroke="black" points="0.5,-78.5899 0.5,-108.59 107.5,-108.59 107.5,-78.5899 0.5,-78.5899"/>
<text text-anchor="start" x="8.5" y="-96.5899" font-family="Helvetica,sans-Serif" font-size="10.00">AC_PosControl::rate</text>
<text text-anchor="middle" x="54" y="-85.5899" font-family="Helvetica,sans-Serif" font-size="10.00">_to_accel_xy</text>
</g>
<!-- Node2 -->
<g id="node2" class="node"><title>Node2</title>
<g id="a_node2"><a xlink:href="$classAP__InertialNav.html#a5bfad40c8a4e0ca98aa09c80e17c4ff5" xlink:title="AP_InertialNav::get\l_velocity">
<polygon fill="white" stroke="black" points="154,-179.59 154,-209.59 256,-209.59 256,-179.59 154,-179.59"/>
<text text-anchor="start" x="162" y="-197.59" font-family="Helvetica,sans-Serif" font-size="10.00">AP_InertialNav::get</text>
<text text-anchor="middle" x="205" y="-186.59" font-family="Helvetica,sans-Serif" font-size="10.00">_velocity</text>
</a>
</g>
</g>
<!-- Node1&#45;&gt;Node2 -->
<g id="edge1" class="edge"><title>Node1&#45;&gt;Node2</title>
<path fill="none" stroke="midnightblue" d="M69.6091,-108.62C86.3698,-125.223 115.259,-151.938 144,-169.59 147.167,-171.535 150.513,-173.394 153.938,-175.156"/>
<polygon fill="midnightblue" stroke="midnightblue" points="152.597,-178.395 163.125,-179.587 155.638,-172.09 152.597,-178.395"/>
</g>
<!-- Node3 -->
<g id="node3" class="node"><title>Node3</title>
<g id="a_node3"><a xlink:href="$classAC__PI__2D.html#a2aeddba42e425e6e02264165220b11d8" xlink:title="AC_PI_2D::set_input">
<polygon fill="white" stroke="black" points="150,-141.09 150,-160.09 260,-160.09 260,-141.09 150,-141.09"/>
<text text-anchor="middle" x="205" y="-148.09" font-family="Helvetica,sans-Serif" font-size="10.00">AC_PI_2D::set_input</text>
</a>
</g>
</g>
<!-- Node1&#45;&gt;Node3 -->
<g id="edge2" class="edge"><title>Node1&#45;&gt;Node3</title>
<path fill="none" stroke="midnightblue" d="M88.0798,-108.618C104.705,-115.939 125.254,-124.639 144,-131.59 149.71,-133.707 155.777,-135.803 161.776,-137.787"/>
<polygon fill="midnightblue" stroke="midnightblue" points="161.14,-141.259 171.732,-141.003 163.292,-134.598 161.14,-141.259"/>
</g>
<!-- Node4 -->
<g id="node4" class="node"><title>Node4</title>
<g id="a_node4"><a xlink:href="$classAC__PI__2D.html#aa8564949b84f613cad26c7b9f557bb3e" xlink:title="AC_PI_2D::get_p">
<polygon fill="white" stroke="black" points="158,-103.09 158,-122.09 252,-122.09 252,-103.09 158,-103.09"/>
<text text-anchor="middle" x="205" y="-110.09" font-family="Helvetica,sans-Serif" font-size="10.00">AC_PI_2D::get_p</text>
</a>
</g>
</g>
<!-- Node1&#45;&gt;Node4 -->
<g id="edge3" class="edge"><title>Node1&#45;&gt;Node4</title>
<path fill="none" stroke="midnightblue" d="M107.532,-100.289C120.618,-101.957 134.697,-103.753 147.946,-105.442"/>
<polygon fill="midnightblue" stroke="midnightblue" points="147.523,-108.916 157.885,-106.71 148.408,-101.973 147.523,-108.916"/>
</g>
<!-- Node5 -->
<g id="node5" class="node"><title>Node5</title>
<g id="a_node5"><a xlink:href="$classAC__PI__2D.html#af464bd8936fccc9a0b11ab183e9ca384" xlink:title="AC_PI_2D::get_i">
<polygon fill="white" stroke="black" points="159.5,-27.0899 159.5,-46.0899 250.5,-46.0899 250.5,-27.0899 159.5,-27.0899"/>
<text text-anchor="middle" x="205" y="-34.0899" font-family="Helvetica,sans-Serif" font-size="10.00">AC_PI_2D::get_i</text>
</a>
</g>
</g>
<!-- Node1&#45;&gt;Node5 -->
<g id="edge4" class="edge"><title>Node1&#45;&gt;Node5</title>
<path fill="none" stroke="midnightblue" d="M88.0798,-78.5617C104.705,-71.2411 125.254,-62.5413 144,-55.5899 149.71,-53.4725 155.777,-51.3766 161.776,-49.393"/>
<polygon fill="midnightblue" stroke="midnightblue" points="163.292,-52.5816 171.732,-46.177 161.14,-45.9205 163.292,-52.5816"/>
</g>
<!-- Node8 -->
<g id="node8" class="node"><title>Node8</title>
<g id="a_node8"><a xlink:href="$AP__Math_8cpp.html#afd3767d48a7b20f6d5220a4f8007af00" xlink:title="pythagorous2">
<polygon fill="white" stroke="black" points="422.5,-27.0899 422.5,-46.0899 497.5,-46.0899 497.5,-27.0899 422.5,-27.0899"/>
<text text-anchor="middle" x="460" y="-34.0899" font-family="Helvetica,sans-Serif" font-size="10.00">pythagorous2</text>
</a>
</g>
</g>
<!-- Node1&#45;&gt;Node8 -->
<g id="edge12" class="edge"><title>Node1&#45;&gt;Node8</title>
<path fill="none" stroke="midnightblue" d="M66.8679,-78.3184C82.3067,-59.8346 111.212,-29.6845 144,-17.5899 237.973,17.0741 358.378,-7.46265 419.534,-24.3227"/>
<polygon fill="midnightblue" stroke="midnightblue" points="418.607,-27.6977 429.182,-27.0556 420.515,-20.9627 418.607,-27.6977"/>
</g>
<!-- Node10 -->
<g id="node10" class="node"><title>Node10</title>
<g id="a_node10"><a xlink:href="$classAC__PI__2D.html#ae8bc307e280fa7d11b67742491223fb1" xlink:title="AC_PI_2D::get_i_shrink">
<polygon fill="white" stroke="black" points="144,-65.0899 144,-84.0899 266,-84.0899 266,-65.0899 144,-65.0899"/>
<text text-anchor="middle" x="205" y="-72.0899" font-family="Helvetica,sans-Serif" font-size="10.00">AC_PI_2D::get_i_shrink</text>
</a>
</g>
</g>
<!-- Node1&#45;&gt;Node10 -->
<g id="edge9" class="edge"><title>Node1&#45;&gt;Node10</title>
<path fill="none" stroke="midnightblue" d="M107.532,-86.8912C116.054,-85.8044 124.998,-84.664 133.859,-83.534"/>
<polygon fill="midnightblue" stroke="midnightblue" points="134.325,-87.0031 143.802,-82.2662 133.44,-80.0593 134.325,-87.0031"/>
</g>
<!-- Node6 -->
<g id="node6" class="node"><title>Node6</title>
<g id="a_node6"><a xlink:href="$AP__Math_8h.html#a108b79eeb35c5d58f324458ec9e1e9f2" xlink:title="is_zero">
<polygon fill="white" stroke="black" points="320,-27.0899 320,-46.0899 368,-46.0899 368,-27.0899 320,-27.0899"/>
<text text-anchor="middle" x="344" y="-34.0899" font-family="Helvetica,sans-Serif" font-size="10.00">is_zero</text>
</a>
</g>
</g>
<!-- Node5&#45;&gt;Node6 -->
<g id="edge5" class="edge"><title>Node5&#45;&gt;Node6</title>
<path fill="none" stroke="midnightblue" d="M250.859,-36.5899C269.988,-36.5899 291.92,-36.5899 309.587,-36.5899"/>
<polygon fill="midnightblue" stroke="midnightblue" points="309.973,-40.09 319.973,-36.5899 309.973,-33.09 309.973,-40.09"/>
</g>
<!-- Node7 -->
<g id="node7" class="node"><title>Node7</title>
<g id="a_node7"><a xlink:href="$structVector2.html#ad8ebafde96f43521d3647e2552387529" xlink:title="&#45;*&#45; tab&#45;width: 4; Mode: C++; c&#45;basic&#45;offset: 4; indent&#45;tabs&#45;mode: nil &#45;*&#45; ">
<polygon fill="white" stroke="black" points="302.5,-65.0899 302.5,-84.0899 385.5,-84.0899 385.5,-65.0899 302.5,-65.0899"/>
<text text-anchor="middle" x="344" y="-72.0899" font-family="Helvetica,sans-Serif" font-size="10.00">Vector2::length</text>
</a>
</g>
</g>
<!-- Node5&#45;&gt;Node7 -->
<g id="edge6" class="edge"><title>Node5&#45;&gt;Node7</title>
<path fill="none" stroke="midnightblue" d="M240.571,-46.1789C258.175,-51.0618 279.779,-57.0542 298.601,-62.2749"/>
<polygon fill="midnightblue" stroke="midnightblue" points="297.868,-65.7037 308.44,-65.004 299.739,-58.9584 297.868,-65.7037"/>
</g>
<!-- Node7&#45;&gt;Node8 -->
<g id="edge7" class="edge"><title>Node7&#45;&gt;Node8</title>
<path fill="none" stroke="midnightblue" d="M373.767,-65.0009C387.943,-60.2755 405.237,-54.511 420.532,-49.4125"/>
<polygon fill="midnightblue" stroke="midnightblue" points="421.862,-52.6586 430.242,-46.1758 419.649,-46.0178 421.862,-52.6586"/>
</g>
<!-- Node9 -->
<g id="node9" class="node"><title>Node9</title>
<g id="a_node9"><a xlink:href="$AP__Math_8cpp.html#a996fdbe87607543eef5dcb234f6bc017" xlink:title="sq">
<polygon fill="white" stroke="black" points="534.5,-27.0899 534.5,-46.0899 563.5,-46.0899 563.5,-27.0899 534.5,-27.0899"/>
<text text-anchor="middle" x="549" y="-34.0899" font-family="Helvetica,sans-Serif" font-size="10.00">sq</text>
</a>
</g>
</g>
<!-- Node8&#45;&gt;Node9 -->
<g id="edge8" class="edge"><title>Node8&#45;&gt;Node9</title>
<path fill="none" stroke="midnightblue" d="M497.644,-36.5899C506.583,-36.5899 515.919,-36.5899 524.089,-36.5899"/>
<polygon fill="midnightblue" stroke="midnightblue" points="524.361,-40.09 534.361,-36.5899 524.361,-33.09 524.361,-40.09"/>
</g>
<!-- Node10&#45;&gt;Node6 -->
<g id="edge10" class="edge"><title>Node10&#45;&gt;Node6</title>
<path fill="none" stroke="midnightblue" d="M240.571,-65.0009C261.825,-59.1057 288.908,-51.5934 309.887,-45.7744"/>
<polygon fill="midnightblue" stroke="midnightblue" points="310.943,-49.1139 319.643,-43.0684 309.072,-42.3686 310.943,-49.1139"/>
</g>
<!-- Node10&#45;&gt;Node7 -->
<g id="edge11" class="edge"><title>Node10&#45;&gt;Node7</title>
<path fill="none" stroke="midnightblue" d="M266.09,-74.5899C274.779,-74.5899 283.652,-74.5899 292.137,-74.5899"/>
<polygon fill="midnightblue" stroke="midnightblue" points="292.256,-78.09 302.256,-74.5899 292.256,-71.09 292.256,-78.09"/>
</g>
</g>
</svg>
