<?xml version="1.0" encoding="UTF-8" standalone="no"?>
<!DOCTYPE svg PUBLIC "-//W3C//DTD SVG 1.1//EN"
 "http://www.w3.org/Graphics/SVG/1.1/DTD/svg11.dtd">
<!-- Generated by graphviz version 2.36.0 (20140111.2315)
 -->
<!-- Title: Menu::run Pages: 1 -->
<svg width="678pt" height="351pt"
 viewBox="0.00 0.00 678.00 351.00" xmlns="http://www.w3.org/2000/svg" xmlns:xlink="http://www.w3.org/1999/xlink">
<g id="graph0" class="graph" transform="scale(1 1) rotate(0) translate(4 347)">
<title>Menu::run</title>
<polygon fill="white" stroke="none" points="-4,4 -4,-347 674,-347 674,4 -4,4"/>
<!-- Node1 -->
<g id="node1" class="node"><title>Node1</title>
<polygon fill="#bfbfbf" stroke="black" points="0,-209.5 0,-228.5 60,-228.5 60,-209.5 0,-209.5"/>
<text text-anchor="middle" x="30" y="-216.5" font-family="Helvetica,sans-Serif" font-size="10.00">Menu::run</text>
</g>
<!-- Node2 -->
<g id="node2" class="node"><title>Node2</title>
<g id="a_node2"><a xlink:href="$classMenu.html#aabb1fe3857c7cc4eb62b9589b9d5999a" xlink:title="Menu::_allocate_buffers">
<polygon fill="white" stroke="black" points="96.5,-285.5 96.5,-304.5 217.5,-304.5 217.5,-285.5 96.5,-285.5"/>
<text text-anchor="middle" x="157" y="-292.5" font-family="Helvetica,sans-Serif" font-size="10.00">Menu::_allocate_buffers</text>
</a>
</g>
</g>
<!-- Node1&#45;&gt;Node2 -->
<g id="edge1" class="edge"><title>Node1&#45;&gt;Node2</title>
<path fill="none" stroke="midnightblue" d="M39.7322,-228.851C51.3972,-241.452 73.2497,-263.176 96,-276 99.7479,-278.113 103.762,-280.025 107.872,-281.748"/>
<polygon fill="midnightblue" stroke="midnightblue" points="106.966,-285.148 117.557,-285.433 109.455,-278.606 106.966,-285.148"/>
</g>
<!-- Node3 -->
<g id="node3" class="node"><title>Node3</title>
<g id="a_node3"><a xlink:href="$classMenu.html#a699be10deb0934068da64f22ef6a92ee" xlink:title="Menu::_display_prompt">
<polygon fill="white" stroke="black" points="264,-171.5 264,-190.5 382,-190.5 382,-171.5 264,-171.5"/>
<text text-anchor="middle" x="323" y="-178.5" font-family="Helvetica,sans-Serif" font-size="10.00">Menu::_display_prompt</text>
</a>
</g>
</g>
<!-- Node1&#45;&gt;Node3 -->
<g id="edge2" class="edge"><title>Node1&#45;&gt;Node3</title>
<path fill="none" stroke="midnightblue" d="M60.3202,-211.992C71.4449,-209.516 84.2601,-206.882 96,-205 148.589,-196.569 208.554,-190.356 253.495,-186.367"/>
<polygon fill="midnightblue" stroke="midnightblue" points="254.056,-189.831 263.713,-185.475 253.447,-182.858 254.056,-189.831"/>
</g>
<!-- Node4 -->
<g id="node4" class="node"><title>Node4</title>
<g id="a_node4"><a xlink:href="$classMenu.html#a3d751cb74f8f3d7a3e18218bc0c5ca0a" xlink:title="Menu::_check_for_input">
<polygon fill="white" stroke="black" points="96.5,-247.5 96.5,-266.5 217.5,-266.5 217.5,-247.5 96.5,-247.5"/>
<text text-anchor="middle" x="157" y="-254.5" font-family="Helvetica,sans-Serif" font-size="10.00">Menu::_check_for_input</text>
</a>
</g>
</g>
<!-- Node1&#45;&gt;Node4 -->
<g id="edge3" class="edge"><title>Node1&#45;&gt;Node4</title>
<path fill="none" stroke="midnightblue" d="M60.3069,-227.909C76.6243,-232.87 97.1939,-239.123 115.077,-244.559"/>
<polygon fill="midnightblue" stroke="midnightblue" points="114.106,-247.922 124.692,-247.482 116.142,-241.225 114.106,-247.922"/>
</g>
<!-- Node8 -->
<g id="node8" class="node"><title>Node8</title>
<g id="a_node8"><a xlink:href="$classAP__HAL_1_1Scheduler.html#ab3175e2e6223ccfe82f957e41cc12b26" xlink:title="AP_HAL::Scheduler::\ldelay">
<polygon fill="white" stroke="black" points="433,-157 433,-187 543,-187 543,-157 433,-157"/>
<text text-anchor="start" x="441" y="-175" font-family="Helvetica,sans-Serif" font-size="10.00">AP_HAL::Scheduler::</text>
<text text-anchor="middle" x="488" y="-164" font-family="Helvetica,sans-Serif" font-size="10.00">delay</text>
</a>
</g>
</g>
<!-- Node1&#45;&gt;Node8 -->
<g id="edge7" class="edge"><title>Node1&#45;&gt;Node8</title>
<path fill="none" stroke="midnightblue" d="M60.2673,-219.763C122.052,-220.871 270.136,-220.869 392,-200 405.774,-197.641 420.377,-193.958 433.895,-190.029"/>
<polygon fill="midnightblue" stroke="midnightblue" points="434.947,-193.368 443.519,-187.14 432.935,-186.663 434.947,-193.368"/>
</g>
<!-- Node9 -->
<g id="node9" class="node"><title>Node9</title>
<g id="a_node9"><a xlink:href="$classMenu.html#a95896e17c24c512b0ffded9661204cc9" xlink:title="Menu::_run_command">
<polygon fill="white" stroke="black" points="100.5,-114.5 100.5,-133.5 213.5,-133.5 213.5,-114.5 100.5,-114.5"/>
<text text-anchor="middle" x="157" y="-121.5" font-family="Helvetica,sans-Serif" font-size="10.00">Menu::_run_command</text>
</a>
</g>
</g>
<!-- Node1&#45;&gt;Node9 -->
<g id="edge8" class="edge"><title>Node1&#45;&gt;Node9</title>
<path fill="none" stroke="midnightblue" d="M42.8308,-209.224C55.7452,-198.627 77.1078,-181.311 96,-167 108.252,-157.719 122.194,-147.696 133.553,-139.663"/>
<polygon fill="midnightblue" stroke="midnightblue" points="135.863,-142.318 142.027,-133.7 131.834,-136.593 135.863,-142.318"/>
</g>
<!-- Node5 -->
<g id="node5" class="node"><title>Node5</title>
<g id="a_node5"><a xlink:href="$classAP__HAL_1_1Stream.html#ae687e48f5689af94d66fb88822923e12" xlink:title="AP_HAL::Stream::available">
<polygon fill="white" stroke="black" points="254.5,-323.5 254.5,-342.5 391.5,-342.5 391.5,-323.5 254.5,-323.5"/>
<text text-anchor="middle" x="323" y="-330.5" font-family="Helvetica,sans-Serif" font-size="10.00">AP_HAL::Stream::available</text>
</a>
</g>
</g>
<!-- Node4&#45;&gt;Node5 -->
<g id="edge4" class="edge"><title>Node4&#45;&gt;Node5</title>
<path fill="none" stroke="midnightblue" d="M197.992,-266.537C204.94,-269.055 211.888,-272.172 218,-276 237.717,-288.349 234.075,-301.99 254,-314 257.602,-316.171 261.46,-318.102 265.441,-319.817"/>
<polygon fill="midnightblue" stroke="midnightblue" points="264.299,-323.128 274.89,-323.441 266.806,-316.592 264.299,-323.128"/>
</g>
<!-- Node6 -->
<g id="node6" class="node"><title>Node6</title>
<g id="a_node6"><a xlink:href="$classAP__HAL_1_1Stream.html#ae42ff362cc2a7e527c22f92a3740c2ac" xlink:title="AP_HAL::Stream::read">
<polygon fill="white" stroke="black" points="264.5,-285.5 264.5,-304.5 381.5,-304.5 381.5,-285.5 264.5,-285.5"/>
<text text-anchor="middle" x="323" y="-292.5" font-family="Helvetica,sans-Serif" font-size="10.00">AP_HAL::Stream::read</text>
</a>
</g>
</g>
<!-- Node4&#45;&gt;Node6 -->
<g id="edge5" class="edge"><title>Node4&#45;&gt;Node6</title>
<path fill="none" stroke="midnightblue" d="M199.384,-266.589C221.123,-271.626 247.957,-277.844 270.975,-283.177"/>
<polygon fill="midnightblue" stroke="midnightblue" points="270.381,-286.632 280.913,-285.48 271.962,-279.813 270.381,-286.632"/>
</g>
<!-- Node7 -->
<g id="node7" class="node"><title>Node7</title>
<g id="a_node7"><a xlink:href="$classAP__HAL_1_1Print.html#acc65391952a43334f8f5c9bef341f501" xlink:title="AP_HAL::Print::write">
<polygon fill="white" stroke="black" points="269,-247.5 269,-266.5 377,-266.5 377,-247.5 269,-247.5"/>
<text text-anchor="middle" x="323" y="-254.5" font-family="Helvetica,sans-Serif" font-size="10.00">AP_HAL::Print::write</text>
</a>
</g>
</g>
<!-- Node4&#45;&gt;Node7 -->
<g id="edge6" class="edge"><title>Node4&#45;&gt;Node7</title>
<path fill="none" stroke="midnightblue" d="M217.672,-257C231.027,-257 245.239,-257 258.734,-257"/>
<polygon fill="midnightblue" stroke="midnightblue" points="258.889,-260.5 268.889,-257 258.889,-253.5 258.889,-260.5"/>
</g>
<!-- Node9&#45;&gt;Node3 -->
<g id="edge9" class="edge"><title>Node9&#45;&gt;Node3</title>
<path fill="none" stroke="midnightblue" d="M180.255,-133.576C199.557,-141.696 228.348,-153.365 254,-162 260.869,-164.312 268.192,-166.57 275.393,-168.674"/>
<polygon fill="midnightblue" stroke="midnightblue" points="274.507,-172.061 285.083,-171.441 276.429,-165.33 274.507,-172.061"/>
</g>
<!-- Node10 -->
<g id="node10" class="node"><title>Node10</title>
<g id="a_node10"><a xlink:href="$AP__Progmem__AVR_8h.html#aedeadee36d22b1e01f713f805d1037a1" xlink:title="strcasecmp_P">
<polygon fill="white" stroke="black" points="283,-95.5 283,-114.5 363,-114.5 363,-95.5 283,-95.5"/>
<text text-anchor="middle" x="323" y="-102.5" font-family="Helvetica,sans-Serif" font-size="10.00">strcasecmp_P</text>
</a>
</g>
</g>
<!-- Node9&#45;&gt;Node10 -->
<g id="edge10" class="edge"><title>Node9&#45;&gt;Node10</title>
<path fill="none" stroke="midnightblue" d="M213.523,-117.567C232.732,-115.342 254.113,-112.865 272.781,-110.702"/>
<polygon fill="midnightblue" stroke="midnightblue" points="273.311,-114.164 282.842,-109.537 272.505,-107.211 273.311,-114.164"/>
</g>
<!-- Node11 -->
<g id="node11" class="node"><title>Node11</title>
<g id="a_node11"><a xlink:href="$classMenu.html#a17dd36a8c1c12a4fa1e99e1df29dac72" xlink:title="Menu::_call">
<polygon fill="white" stroke="black" points="289.5,-19.5 289.5,-38.5 356.5,-38.5 356.5,-19.5 289.5,-19.5"/>
<text text-anchor="middle" x="323" y="-26.5" font-family="Helvetica,sans-Serif" font-size="10.00">Menu::_call</text>
</a>
</g>
</g>
<!-- Node9&#45;&gt;Node11 -->
<g id="edge11" class="edge"><title>Node9&#45;&gt;Node11</title>
<path fill="none" stroke="midnightblue" d="M168.793,-114.312C185.835,-99.4258 220.494,-70.7879 254,-53 262.034,-48.7349 270.985,-44.9575 279.686,-41.7347"/>
<polygon fill="midnightblue" stroke="midnightblue" points="281.07,-44.9578 289.34,-38.3351 278.745,-38.3552 281.07,-44.9578"/>
</g>
<!-- Node15 -->
<g id="node15" class="node"><title>Node15</title>
<g id="a_node15"><a xlink:href="$classMenu.html#abdbbcbf943aef6f367b181cdf5df58ec" xlink:title="implements the &#39;help&#39; command ">
<polygon fill="white" stroke="black" points="288,-133.5 288,-152.5 358,-152.5 358,-133.5 288,-133.5"/>
<text text-anchor="middle" x="323" y="-140.5" font-family="Helvetica,sans-Serif" font-size="10.00">Menu::_help</text>
</a>
</g>
</g>
<!-- Node9&#45;&gt;Node15 -->
<g id="edge15" class="edge"><title>Node9&#45;&gt;Node15</title>
<path fill="none" stroke="midnightblue" d="M213.523,-130.433C234.414,-132.853 257.873,-135.571 277.617,-137.858"/>
<polygon fill="midnightblue" stroke="midnightblue" points="277.234,-141.337 287.57,-139.011 278.04,-134.384 277.234,-141.337"/>
</g>
<!-- Node16 -->
<g id="node16" class="node"><title>Node16</title>
<g id="a_node16"><a xlink:href="$classAP__HAL_1_1BetterStream.html#ae4b75a61c52e28221d8fb2b2d4c35ca3" xlink:title="AP_HAL::BetterStream\l::println_P">
<polygon fill="white" stroke="black" points="428.5,-98 428.5,-128 547.5,-128 547.5,-98 428.5,-98"/>
<text text-anchor="start" x="436.5" y="-116" font-family="Helvetica,sans-Serif" font-size="10.00">AP_HAL::BetterStream</text>
<text text-anchor="middle" x="488" y="-105" font-family="Helvetica,sans-Serif" font-size="10.00">::println_P</text>
</a>
</g>
</g>
<!-- Node9&#45;&gt;Node16 -->
<g id="edge18" class="edge"><title>Node9&#45;&gt;Node16</title>
<path fill="none" stroke="midnightblue" d="M176.137,-114.418C194.99,-105.043 225.652,-91.4065 254,-86 314.247,-74.5097 331.254,-77.5352 392,-86 405.802,-87.9233 420.415,-91.3467 433.934,-95.1239"/>
<polygon fill="midnightblue" stroke="midnightblue" points="432.977,-98.4906 443.557,-97.9204 434.931,-91.7687 432.977,-98.4906"/>
</g>
<!-- Node12 -->
<g id="node12" class="node"><title>Node12</title>
<g id="a_node12"><a xlink:href="$AP__Progmem__AVR_8h.html#af16aeb0df613e3f84b7806e145e69cbd" xlink:title="pgm_read_pointer">
<polygon fill="white" stroke="black" points="441,-19.5 441,-38.5 535,-38.5 535,-19.5 441,-19.5"/>
<text text-anchor="middle" x="488" y="-26.5" font-family="Helvetica,sans-Serif" font-size="10.00">pgm_read_pointer</text>
</a>
</g>
</g>
<!-- Node11&#45;&gt;Node12 -->
<g id="edge12" class="edge"><title>Node11&#45;&gt;Node12</title>
<path fill="none" stroke="midnightblue" d="M356.594,-29C377.824,-29 406.08,-29 430.862,-29"/>
<polygon fill="midnightblue" stroke="midnightblue" points="430.88,-32.5001 440.88,-29 430.88,-25.5001 430.88,-32.5001"/>
</g>
<!-- Node13 -->
<g id="node13" class="node"><title>Node13</title>
<g id="a_node13"><a xlink:href="$AP__Progmem__Identity_8h.html#a9fc333349fa71fdc21a2d5152c5e23a2" xlink:title="pgm_read_word">
<polygon fill="white" stroke="black" points="584,-38.5 584,-57.5 670,-57.5 670,-38.5 584,-38.5"/>
<text text-anchor="middle" x="627" y="-45.5" font-family="Helvetica,sans-Serif" font-size="10.00">pgm_read_word</text>
</a>
</g>
</g>
<!-- Node12&#45;&gt;Node13 -->
<g id="edge13" class="edge"><title>Node12&#45;&gt;Node13</title>
<path fill="none" stroke="midnightblue" d="M535,-35.3796C547.39,-37.0979 560.885,-38.9695 573.596,-40.7323"/>
<polygon fill="midnightblue" stroke="midnightblue" points="573.2,-44.2108 583.586,-42.1178 574.162,-37.2772 573.2,-44.2108"/>
</g>
<!-- Node14 -->
<g id="node14" class="node"><title>Node14</title>
<g id="a_node14"><a xlink:href="$AP__Progmem__Identity_8h.html#a1514e0408e036062b4af844baaf567da" xlink:title="pgm_read_byte">
<polygon fill="white" stroke="black" points="585.5,-0.5 585.5,-19.5 668.5,-19.5 668.5,-0.5 585.5,-0.5"/>
<text text-anchor="middle" x="627" y="-7.5" font-family="Helvetica,sans-Serif" font-size="10.00">pgm_read_byte</text>
</a>
</g>
</g>
<!-- Node12&#45;&gt;Node14 -->
<g id="edge14" class="edge"><title>Node12&#45;&gt;Node14</title>
<path fill="none" stroke="midnightblue" d="M535,-22.6204C548.008,-20.8163 562.235,-18.8434 575.493,-17.0046"/>
<polygon fill="midnightblue" stroke="midnightblue" points="575.982,-20.4703 585.407,-15.6297 575.021,-13.5367 575.982,-20.4703"/>
</g>
<!-- Node15&#45;&gt;Node8 -->
<g id="edge17" class="edge"><title>Node15&#45;&gt;Node8</title>
<path fill="none" stroke="midnightblue" d="M358.17,-149.079C376.952,-152.421 400.865,-156.675 422.977,-160.609"/>
<polygon fill="midnightblue" stroke="midnightblue" points="422.527,-164.084 432.985,-162.39 423.753,-157.192 422.527,-164.084"/>
</g>
<!-- Node15&#45;&gt;Node16 -->
<g id="edge16" class="edge"><title>Node15&#45;&gt;Node16</title>
<path fill="none" stroke="midnightblue" d="M358.17,-136.711C375.659,-133.492 397.598,-129.454 418.389,-125.628"/>
<polygon fill="midnightblue" stroke="midnightblue" points="419.278,-129.023 428.479,-123.771 418.01,-122.139 419.278,-129.023"/>
</g>
</g>
</svg>
