<?xml version="1.0" encoding="UTF-8" standalone="no"?>
<!DOCTYPE svg PUBLIC "-//W3C//DTD SVG 1.1//EN"
 "http://www.w3.org/Graphics/SVG/1.1/DTD/svg11.dtd">
<!-- Generated by graphviz version 2.36.0 (20140111.2315)
 -->
<!-- Title: AP_RangeFinder_PX4_PWM::update Pages: 1 -->
<svg width="464pt" height="290pt"
 viewBox="0.00 0.00 464.00 289.92" xmlns="http://www.w3.org/2000/svg" xmlns:xlink="http://www.w3.org/1999/xlink">
<g id="graph0" class="graph" transform="scale(1 1) rotate(0) translate(4 285.92)">
<title>AP_RangeFinder_PX4_PWM::update</title>
<polygon fill="white" stroke="none" points="-4,4 -4,-285.92 460,-285.92 460,4 -4,4"/>
<!-- Node1 -->
<g id="node1" class="node"><title>Node1</title>
<polygon fill="#bfbfbf" stroke="black" points="0.5,-131 0.5,-161 115.5,-161 115.5,-131 0.5,-131"/>
<text text-anchor="start" x="8.5" y="-149" font-family="Helvetica,sans-Serif" font-size="10.00">AP_RangeFinder_PX4</text>
<text text-anchor="middle" x="58" y="-138" font-family="Helvetica,sans-Serif" font-size="10.00">_PWM::update</text>
</g>
<!-- Node2 -->
<g id="node2" class="node"><title>Node2</title>
<g id="a_node2"><a xlink:href="$classAP__RangeFinder__Backend.html#ac5b3771c47b58dfba89ebcf2a24541cd" xlink:title="AP_RangeFinder_Backend\l::set_status">
<polygon fill="white" stroke="black" points="322,-134 322,-164 456,-164 456,-134 322,-134"/>
<text text-anchor="start" x="330" y="-152" font-family="Helvetica,sans-Serif" font-size="10.00">AP_RangeFinder_Backend</text>
<text text-anchor="middle" x="389" y="-141" font-family="Helvetica,sans-Serif" font-size="10.00">::set_status</text>
</a>
</g>
</g>
<!-- Node1&#45;&gt;Node2 -->
<g id="edge1" class="edge"><title>Node1&#45;&gt;Node2</title>
<path fill="none" stroke="midnightblue" d="M65.5033,-161.048C77.8772,-187.504 107.599,-241.574 152,-263 205.637,-288.883 231.631,-287.309 286,-263 327.168,-244.593 358.599,-200.449 375.098,-172.808"/>
<polygon fill="midnightblue" stroke="midnightblue" points="378.141,-174.538 380.113,-164.129 372.08,-171.036 378.141,-174.538"/>
</g>
<!-- Node3 -->
<g id="node3" class="node"><title>Node3</title>
<g id="a_node3"><a xlink:href="$classAP__HAL_1_1Scheduler.html#a26b68339fc68a562d8d3a1238d0ec8c1" xlink:title="AP_HAL::Scheduler::\lmillis">
<polygon fill="white" stroke="black" points="164,-224 164,-254 274,-254 274,-224 164,-224"/>
<text text-anchor="start" x="172" y="-242" font-family="Helvetica,sans-Serif" font-size="10.00">AP_HAL::Scheduler::</text>
<text text-anchor="middle" x="219" y="-231" font-family="Helvetica,sans-Serif" font-size="10.00">millis</text>
</a>
</g>
</g>
<!-- Node1&#45;&gt;Node3 -->
<g id="edge2" class="edge"><title>Node1&#45;&gt;Node3</title>
<path fill="none" stroke="midnightblue" d="M76.5564,-161.082C94.5707,-176 123.865,-198.75 152,-214 155.757,-216.036 159.715,-217.982 163.75,-219.823"/>
<polygon fill="midnightblue" stroke="midnightblue" points="162.677,-223.173 173.245,-223.926 165.453,-216.747 162.677,-223.173"/>
</g>
<!-- Node4 -->
<g id="node4" class="node"><title>Node4</title>
<g id="a_node4"><a xlink:href="$classAP__RangeFinder__Backend.html#a42e9722f46dc4b23ec095be2e154b0da" xlink:title="AP_RangeFinder_Backend\l::out_of_range">
<polygon fill="white" stroke="black" points="152,-175 152,-205 286,-205 286,-175 152,-175"/>
<text text-anchor="start" x="160" y="-193" font-family="Helvetica,sans-Serif" font-size="10.00">AP_RangeFinder_Backend</text>
<text text-anchor="middle" x="219" y="-182" font-family="Helvetica,sans-Serif" font-size="10.00">::out_of_range</text>
</a>
</g>
</g>
<!-- Node1&#45;&gt;Node4 -->
<g id="edge3" class="edge"><title>Node1&#45;&gt;Node4</title>
<path fill="none" stroke="midnightblue" d="M113.274,-161.019C126.377,-164.645 140.5,-168.553 154.002,-172.29"/>
<polygon fill="midnightblue" stroke="midnightblue" points="153.129,-175.68 163.701,-174.974 154.996,-168.933 153.129,-175.68"/>
</g>
<!-- Node5 -->
<g id="node5" class="node"><title>Node5</title>
<g id="a_node5"><a xlink:href="$classAP__HAL_1_1GPIO.html#a3dfc60214bd1aa4936d51ca72c045b95" xlink:title="AP_HAL::GPIO::pinMode">
<polygon fill="white" stroke="black" points="155,-136.5 155,-155.5 283,-155.5 283,-136.5 155,-136.5"/>
<text text-anchor="middle" x="219" y="-143.5" font-family="Helvetica,sans-Serif" font-size="10.00">AP_HAL::GPIO::pinMode</text>
</a>
</g>
</g>
<!-- Node1&#45;&gt;Node5 -->
<g id="edge4" class="edge"><title>Node1&#45;&gt;Node5</title>
<path fill="none" stroke="midnightblue" d="M115.505,-146C124.979,-146 134.929,-146 144.751,-146"/>
<polygon fill="midnightblue" stroke="midnightblue" points="144.915,-149.5 154.915,-146 144.915,-142.5 144.915,-149.5"/>
</g>
<!-- Node6 -->
<g id="node6" class="node"><title>Node6</title>
<g id="a_node6"><a xlink:href="$classAP__HAL_1_1GPIO.html#a2b0664bdab1876e3b0bbcd9064eec88e" xlink:title="AP_HAL::GPIO::write">
<polygon fill="white" stroke="black" points="162.5,-98.5 162.5,-117.5 275.5,-117.5 275.5,-98.5 162.5,-98.5"/>
<text text-anchor="middle" x="219" y="-105.5" font-family="Helvetica,sans-Serif" font-size="10.00">AP_HAL::GPIO::write</text>
</a>
</g>
</g>
<!-- Node1&#45;&gt;Node6 -->
<g id="edge5" class="edge"><title>Node1&#45;&gt;Node6</title>
<path fill="none" stroke="midnightblue" d="M115.505,-132.496C132.654,-128.397 151.365,-123.925 168.051,-119.937"/>
<polygon fill="midnightblue" stroke="midnightblue" points="169.234,-123.253 178.147,-117.525 167.607,-116.445 169.234,-123.253"/>
</g>
<!-- Node7 -->
<g id="node7" class="node"><title>Node7</title>
<g id="a_node7"><a xlink:href="$classAP__HAL_1_1Scheduler.html#acfe178fdca7f8d9b22a939b3aac1a84f" xlink:title="AP_HAL::Scheduler::\lmicros64">
<polygon fill="white" stroke="black" points="164,-49 164,-79 274,-79 274,-49 164,-49"/>
<text text-anchor="start" x="172" y="-67" font-family="Helvetica,sans-Serif" font-size="10.00">AP_HAL::Scheduler::</text>
<text text-anchor="middle" x="219" y="-56" font-family="Helvetica,sans-Serif" font-size="10.00">micros64</text>
</a>
</g>
</g>
<!-- Node1&#45;&gt;Node7 -->
<g id="edge6" class="edge"><title>Node1&#45;&gt;Node7</title>
<path fill="none" stroke="midnightblue" d="M80.8821,-130.962C99.318,-118.696 126.666,-101.425 152,-89 156.246,-86.9177 160.711,-84.8951 165.234,-82.9615"/>
<polygon fill="midnightblue" stroke="midnightblue" points="166.632,-86.1711 174.545,-79.1268 163.966,-79.6985 166.632,-86.1711"/>
</g>
<!-- Node8 -->
<g id="node8" class="node"><title>Node8</title>
<g id="a_node8"><a xlink:href="$classAP__RangeFinder__Backend.html#a9e858f638e4c2d1138aa3f56d217a394" xlink:title="AP_RangeFinder_Backend\l::update_status">
<polygon fill="white" stroke="black" points="152,-0 152,-30 286,-30 286,-0 152,-0"/>
<text text-anchor="start" x="160" y="-18" font-family="Helvetica,sans-Serif" font-size="10.00">AP_RangeFinder_Backend</text>
<text text-anchor="middle" x="219" y="-7" font-family="Helvetica,sans-Serif" font-size="10.00">::update_status</text>
</a>
</g>
</g>
<!-- Node1&#45;&gt;Node8 -->
<g id="edge7" class="edge"><title>Node1&#45;&gt;Node8</title>
<path fill="none" stroke="midnightblue" d="M68.642,-130.914C83.8277,-108.255 115.387,-65.3919 152,-40 154.718,-38.1147 157.598,-36.349 160.574,-34.6986"/>
<polygon fill="midnightblue" stroke="midnightblue" points="162.369,-37.713 169.727,-30.0892 159.221,-31.461 162.369,-37.713"/>
</g>
<!-- Node8&#45;&gt;Node2 -->
<g id="edge8" class="edge"><title>Node8&#45;&gt;Node2</title>
<path fill="none" stroke="midnightblue" d="M267.816,-30.0966C274.162,-32.9556 280.401,-36.2488 286,-40 321.092,-63.5124 352.845,-101.267 371.286,-125.599"/>
<polygon fill="midnightblue" stroke="midnightblue" points="368.685,-127.967 377.46,-133.905 374.303,-123.791 368.685,-127.967"/>
</g>
</g>
</svg>
