<?xml version="1.0" encoding="UTF-8" standalone="no"?>
<!DOCTYPE svg PUBLIC "-//W3C//DTD SVG 1.1//EN"
 "http://www.w3.org/Graphics/SVG/1.1/DTD/svg11.dtd">
<!-- Generated by graphviz version 2.36.0 (20140111.2315)
 -->
<!-- Title: NavEKF::EstimateTerrainOffset Pages: 1 -->
<svg width="462pt" height="47pt"
 viewBox="0.00 0.00 462.00 47.00" xmlns="http://www.w3.org/2000/svg" xmlns:xlink="http://www.w3.org/1999/xlink">
<g id="graph0" class="graph" transform="scale(1 1) rotate(0) translate(4 43)">
<title>NavEKF::EstimateTerrainOffset</title>
<polygon fill="white" stroke="none" points="-4,4 -4,-43 458,-43 458,4 -4,4"/>
<!-- Node1 -->
<g id="node1" class="node"><title>Node1</title>
<polygon fill="#bfbfbf" stroke="black" points="0,-19.5 0,-38.5 156,-38.5 156,-19.5 0,-19.5"/>
<text text-anchor="middle" x="78" y="-26.5" font-family="Helvetica,sans-Serif" font-size="10.00">NavEKF::EstimateTerrainOffset</text>
</g>
<!-- Node2 -->
<g id="node2" class="node"><title>Node2</title>
<g id="a_node2"><a xlink:href="$AP__Math_8cpp.html#a996fdbe87607543eef5dcb234f6bc017" xlink:title="sq">
<polygon fill="white" stroke="black" points="424.5,-19.5 424.5,-38.5 453.5,-38.5 453.5,-19.5 424.5,-19.5"/>
<text text-anchor="middle" x="439" y="-26.5" font-family="Helvetica,sans-Serif" font-size="10.00">sq</text>
</a>
</g>
</g>
<!-- Node1&#45;&gt;Node2 -->
<g id="edge1" class="edge"><title>Node1&#45;&gt;Node2</title>
<path fill="none" stroke="midnightblue" d="M156.015,-29C237.782,-29 362.22,-29 414.044,-29"/>
<polygon fill="midnightblue" stroke="midnightblue" points="414.234,-32.5001 424.234,-29 414.234,-25.5001 414.234,-32.5001"/>
</g>
<!-- Node3 -->
<g id="node3" class="node"><title>Node3</title>
<g id="a_node3"><a xlink:href="$classVector3.html#ac1fd5514e368a1e1c2d13f71eda18345" xlink:title="Vector3::length">
<polygon fill="white" stroke="black" points="192.5,-0.5 192.5,-19.5 275.5,-19.5 275.5,-0.5 192.5,-0.5"/>
<text text-anchor="middle" x="234" y="-7.5" font-family="Helvetica,sans-Serif" font-size="10.00">Vector3::length</text>
</a>
</g>
</g>
<!-- Node1&#45;&gt;Node3 -->
<g id="edge2" class="edge"><title>Node1&#45;&gt;Node3</title>
<path fill="none" stroke="midnightblue" d="M156.451,-19.4443C165.291,-18.3538 174.122,-17.2642 182.48,-16.233"/>
<polygon fill="midnightblue" stroke="midnightblue" points="182.912,-19.7064 192.408,-15.0081 182.054,-12.759 182.912,-19.7064"/>
</g>
<!-- Node4 -->
<g id="node4" class="node"><title>Node4</title>
<g id="a_node4"><a xlink:href="$AP__Math_8cpp.html#ac09c78b18c2ad21b9a04081f119f11c0" xlink:title="pythagorous3">
<polygon fill="white" stroke="black" points="312.5,-0.5 312.5,-19.5 387.5,-19.5 387.5,-0.5 312.5,-0.5"/>
<text text-anchor="middle" x="350" y="-7.5" font-family="Helvetica,sans-Serif" font-size="10.00">pythagorous3</text>
</a>
</g>
</g>
<!-- Node3&#45;&gt;Node4 -->
<g id="edge3" class="edge"><title>Node3&#45;&gt;Node4</title>
<path fill="none" stroke="midnightblue" d="M275.513,-10C284.161,-10 293.362,-10 302.223,-10"/>
<polygon fill="midnightblue" stroke="midnightblue" points="302.415,-13.5001 312.415,-10 302.415,-6.5001 302.415,-13.5001"/>
</g>
<!-- Node4&#45;&gt;Node2 -->
<g id="edge4" class="edge"><title>Node4&#45;&gt;Node2</title>
<path fill="none" stroke="midnightblue" d="M387.644,-18.0026C396.685,-19.9771 406.131,-22.0401 414.367,-23.8388"/>
<polygon fill="midnightblue" stroke="midnightblue" points="413.845,-27.3072 424.361,-26.0215 415.338,-20.4684 413.845,-27.3072"/>
</g>
</g>
</svg>
