<?xml version="1.0" encoding="UTF-8" standalone="no"?>
<!DOCTYPE svg PUBLIC "-//W3C//DTD SVG 1.1//EN"
 "http://www.w3.org/Graphics/SVG/1.1/DTD/svg11.dtd">
<!-- Generated by graphviz version 2.36.0 (20140111.2315)
 -->
<!-- Title: RC_Channel_aux::enable_aux_servos Pages: 1 -->
<svg width="494pt" height="107pt"
 viewBox="0.00 0.00 494.00 107.00" xmlns="http://www.w3.org/2000/svg" xmlns:xlink="http://www.w3.org/1999/xlink">
<g id="graph0" class="graph" transform="scale(1 1) rotate(0) translate(4 103)">
<title>RC_Channel_aux::enable_aux_servos</title>
<polygon fill="white" stroke="none" points="-4,4 -4,-103 490,-103 490,4 -4,4"/>
<!-- Node1 -->
<g id="node1" class="node"><title>Node1</title>
<polygon fill="#bfbfbf" stroke="black" points="0,-17 0,-47 128,-47 128,-17 0,-17"/>
<text text-anchor="start" x="8" y="-35" font-family="Helvetica,sans-Serif" font-size="10.00">RC_Channel_aux::enable</text>
<text text-anchor="middle" x="64" y="-24" font-family="Helvetica,sans-Serif" font-size="10.00">_aux_servos</text>
</g>
<!-- Node2 -->
<g id="node2" class="node"><title>Node2</title>
<g id="a_node2"><a xlink:href="$classRC__Channel__aux.html#a4f62563746d0fb95dcf49532728f3d00" xlink:title="RC_Channel_aux::update\l_aux_servo_function">
<polygon fill="white" stroke="black" points="164.5,-39 164.5,-69 293.5,-69 293.5,-39 164.5,-39"/>
<text text-anchor="start" x="172.5" y="-57" font-family="Helvetica,sans-Serif" font-size="10.00">RC_Channel_aux::update</text>
<text text-anchor="middle" x="229" y="-46" font-family="Helvetica,sans-Serif" font-size="10.00">_aux_servo_function</text>
</a>
</g>
</g>
<!-- Node1&#45;&gt;Node2 -->
<g id="edge1" class="edge"><title>Node1&#45;&gt;Node2</title>
<path fill="none" stroke="midnightblue" d="M128.02,-40.5058C136.584,-41.6616 145.435,-42.8563 154.168,-44.0349"/>
<polygon fill="midnightblue" stroke="midnightblue" points="153.962,-47.5389 164.341,-45.408 154.899,-40.6018 153.962,-47.5389"/>
</g>
<!-- Node5 -->
<g id="node5" class="node"><title>Node5</title>
<g id="a_node5"><a xlink:href="$classRC__Channel.html#a627c19bdbbf6eaaf6c8e4abfcf54ac14" xlink:title="RC_Channel::enable_out">
<polygon fill="white" stroke="black" points="166,-0.5 166,-19.5 292,-19.5 292,-0.5 166,-0.5"/>
<text text-anchor="middle" x="229" y="-7.5" font-family="Helvetica,sans-Serif" font-size="10.00">RC_Channel::enable_out</text>
</a>
</g>
</g>
<!-- Node1&#45;&gt;Node5 -->
<g id="edge4" class="edge"><title>Node1&#45;&gt;Node5</title>
<path fill="none" stroke="midnightblue" d="M128.02,-23.4942C137.165,-22.26 146.637,-20.9815 155.943,-19.7254"/>
<polygon fill="midnightblue" stroke="midnightblue" points="156.511,-23.1807 165.953,-18.3745 155.574,-16.2436 156.511,-23.1807"/>
</g>
<!-- Node3 -->
<g id="node3" class="node"><title>Node3</title>
<g id="a_node3"><a xlink:href="$classRC__Channel.html#ad51e68c85b76d1209e7cb6db224e63ba" xlink:title="RC_Channel::set_range">
<polygon fill="white" stroke="black" points="347,-79.5 347,-98.5 469,-98.5 469,-79.5 347,-79.5"/>
<text text-anchor="middle" x="408" y="-86.5" font-family="Helvetica,sans-Serif" font-size="10.00">RC_Channel::set_range</text>
</a>
</g>
</g>
<!-- Node2&#45;&gt;Node3 -->
<g id="edge2" class="edge"><title>Node2&#45;&gt;Node3</title>
<path fill="none" stroke="midnightblue" d="M293.901,-66.6358C311.781,-70.1713 331.116,-73.9946 348.656,-77.463"/>
<polygon fill="midnightblue" stroke="midnightblue" points="348.262,-80.9528 358.751,-79.4592 349.62,-74.0858 348.262,-80.9528"/>
</g>
<!-- Node4 -->
<g id="node4" class="node"><title>Node4</title>
<g id="a_node4"><a xlink:href="$classRC__Channel.html#a68fd99b7a3bf4283c8b500b49f511821" xlink:title="RC_Channel::set_angle">
<polygon fill="white" stroke="black" points="347.5,-41.5 347.5,-60.5 468.5,-60.5 468.5,-41.5 347.5,-41.5"/>
<text text-anchor="middle" x="408" y="-48.5" font-family="Helvetica,sans-Serif" font-size="10.00">RC_Channel::set_angle</text>
</a>
</g>
</g>
<!-- Node2&#45;&gt;Node4 -->
<g id="edge3" class="edge"><title>Node2&#45;&gt;Node4</title>
<path fill="none" stroke="midnightblue" d="M293.901,-52.9169C307.925,-52.6792 322.844,-52.4264 337.091,-52.1849"/>
<polygon fill="midnightblue" stroke="midnightblue" points="337.383,-55.6805 347.323,-52.0115 337.265,-48.6815 337.383,-55.6805"/>
</g>
<!-- Node6 -->
<g id="node6" class="node"><title>Node6</title>
<g id="a_node6"><a xlink:href="$classAP__HAL_1_1RCOutput.html#a25196bb820266d4afcae14d0acdb7e1c" xlink:title="AP_HAL::RCOutput::enable_ch">
<polygon fill="white" stroke="black" points="330.5,-0.5 330.5,-19.5 485.5,-19.5 485.5,-0.5 330.5,-0.5"/>
<text text-anchor="middle" x="408" y="-7.5" font-family="Helvetica,sans-Serif" font-size="10.00">AP_HAL::RCOutput::enable_ch</text>
</a>
</g>
</g>
<!-- Node5&#45;&gt;Node6 -->
<g id="edge5" class="edge"><title>Node5&#45;&gt;Node6</title>
<path fill="none" stroke="midnightblue" d="M292.404,-10C301.394,-10 310.779,-10 320.139,-10"/>
<polygon fill="midnightblue" stroke="midnightblue" points="320.267,-13.5001 330.267,-10 320.267,-6.5001 320.267,-13.5001"/>
</g>
</g>
</svg>
