<?xml version="1.0" encoding="UTF-8" standalone="no"?>
<!DOCTYPE svg PUBLIC "-//W3C//DTD SVG 1.1//EN"
 "http://www.w3.org/Graphics/SVG/1.1/DTD/svg11.dtd">
<!-- Generated by graphviz version 2.36.0 (20140111.2315)
 -->
<!-- Title: AC_PI_2D::set_input Pages: 1 -->
<svg width="594pt" height="180pt"
 viewBox="0.00 0.00 594.00 180.00" xmlns="http://www.w3.org/2000/svg" xmlns:xlink="http://www.w3.org/1999/xlink">
<g id="graph0" class="graph" transform="scale(1 1) rotate(0) translate(4 176)">
<title>AC_PI_2D::set_input</title>
<polygon fill="white" stroke="none" points="-4,4 -4,-176 590,-176 590,4 -4,4"/>
<!-- Node1 -->
<g id="node1" class="node"><title>Node1</title>
<polygon fill="#bfbfbf" stroke="black" points="0,-51.5 0,-70.5 110,-70.5 110,-51.5 0,-51.5"/>
<text text-anchor="middle" x="55" y="-58.5" font-family="Helvetica,sans-Serif" font-size="10.00">AC_PI_2D::set_input</text>
</g>
<!-- Node2 -->
<g id="node2" class="node"><title>Node2</title>
<g id="a_node2"><a xlink:href="$classAC__PosControl.html#a5b3282ea40c7d2ef6d44e51670094ccf" xlink:title="AC_PosControl::rate\l_to_accel_xy">
<polygon fill="white" stroke="black" points="146.5,-46 146.5,-76 253.5,-76 253.5,-46 146.5,-46"/>
<text text-anchor="start" x="154.5" y="-64" font-family="Helvetica,sans-Serif" font-size="10.00">AC_PosControl::rate</text>
<text text-anchor="middle" x="200" y="-53" font-family="Helvetica,sans-Serif" font-size="10.00">_to_accel_xy</text>
</a>
</g>
</g>
<!-- Node1&#45;&gt;Node2 -->
<g id="edge1" class="edge"><title>Node1&#45;&gt;Node2</title>
<path fill="none" stroke="midnightblue" d="M120.203,-61C128.925,-61 137.794,-61 146.282,-61"/>
<polygon fill="midnightblue" stroke="midnightblue" points="120.062,-57.5001 110.062,-61 120.062,-64.5001 120.062,-57.5001"/>
</g>
<!-- Node3 -->
<g id="node3" class="node"><title>Node3</title>
<g id="a_node3"><a xlink:href="$classAC__PosControl.html#ae8b8e5c5812ab2419c570ae7f44a70f3" xlink:title="update_xy_controller &#45; run the horizontal position controller &#45; should be called at 100hz or higher ...">
<polygon fill="white" stroke="black" points="290,-71 290,-101 410,-101 410,-71 290,-71"/>
<text text-anchor="start" x="298" y="-89" font-family="Helvetica,sans-Serif" font-size="10.00">AC_PosControl::update</text>
<text text-anchor="middle" x="350" y="-78" font-family="Helvetica,sans-Serif" font-size="10.00">_xy_controller</text>
</a>
</g>
</g>
<!-- Node2&#45;&gt;Node3 -->
<g id="edge2" class="edge"><title>Node2&#45;&gt;Node3</title>
<path fill="none" stroke="midnightblue" d="M263.637,-71.5806C272.299,-73.0437 281.173,-74.5428 289.77,-75.995"/>
<polygon fill="midnightblue" stroke="midnightblue" points="264.039,-68.099 253.596,-69.8845 262.873,-75.0012 264.039,-68.099"/>
</g>
<!-- Node9 -->
<g id="node9" class="node"><title>Node9</title>
<g id="a_node9"><a xlink:href="$classAC__PosControl.html#ad89eec74ef77005f3f5c449da98ad12c" xlink:title="AC_PosControl::update\l_vel_controller_xyz">
<polygon fill="white" stroke="black" points="290,-22 290,-52 410,-52 410,-22 290,-22"/>
<text text-anchor="start" x="298" y="-40" font-family="Helvetica,sans-Serif" font-size="10.00">AC_PosControl::update</text>
<text text-anchor="middle" x="350" y="-29" font-family="Helvetica,sans-Serif" font-size="10.00">_vel_controller_xyz</text>
</a>
</g>
</g>
<!-- Node2&#45;&gt;Node9 -->
<g id="edge8" class="edge"><title>Node2&#45;&gt;Node9</title>
<path fill="none" stroke="midnightblue" d="M263.637,-50.8427C272.299,-49.4381 281.173,-47.999 289.77,-46.6048"/>
<polygon fill="midnightblue" stroke="midnightblue" points="262.907,-47.4153 253.596,-52.4709 264.027,-54.325 262.907,-47.4153"/>
</g>
<!-- Node4 -->
<g id="node4" class="node"><title>Node4</title>
<g id="a_node4"><a xlink:href="$classAC__Circle.html#ad28205982ae7bc5f1e72f5285696c99b" xlink:title="update &#45; update circle controller ">
<polygon fill="white" stroke="black" points="467.5,-152.5 467.5,-171.5 564.5,-171.5 564.5,-152.5 467.5,-152.5"/>
<text text-anchor="middle" x="516" y="-159.5" font-family="Helvetica,sans-Serif" font-size="10.00">AC_Circle::update</text>
</a>
</g>
</g>
<!-- Node3&#45;&gt;Node4 -->
<g id="edge3" class="edge"><title>Node3&#45;&gt;Node4</title>
<path fill="none" stroke="midnightblue" d="M380.78,-106.744C398.962,-118.665 423.056,-133.176 446,-143 454.567,-146.668 464.036,-149.818 473.144,-152.438"/>
<polygon fill="midnightblue" stroke="midnightblue" points="382.623,-103.766 372.361,-101.132 378.74,-109.59 382.623,-103.766"/>
</g>
<!-- Node5 -->
<g id="node5" class="node"><title>Node5</title>
<g id="a_node5"><a xlink:href="$classAC__WPNav.html#a0a434270245fd8641352af387700dc82" xlink:title="update_loiter &#45; run the loiter controller &#45; should be called at 10hz ">
<polygon fill="white" stroke="black" points="450,-114.5 450,-133.5 582,-133.5 582,-114.5 450,-114.5"/>
<text text-anchor="middle" x="516" y="-121.5" font-family="Helvetica,sans-Serif" font-size="10.00">AC_WPNav::update_loiter</text>
</a>
</g>
</g>
<!-- Node3&#45;&gt;Node5 -->
<g id="edge4" class="edge"><title>Node3&#45;&gt;Node5</title>
<path fill="none" stroke="midnightblue" d="M419.983,-101.984C438.313,-106.231 457.533,-110.685 473.854,-114.466"/>
<polygon fill="midnightblue" stroke="midnightblue" points="420.74,-98.5666 410.208,-99.7189 419.16,-105.386 420.74,-98.5666"/>
</g>
<!-- Node6 -->
<g id="node6" class="node"><title>Node6</title>
<g id="a_node6"><a xlink:href="$classAC__WPNav.html#af9d3f98ad44166d4c5d072bf3ba4a3db" xlink:title="update_brake &#45; run the brake controller &#45; should be called at 400hz ">
<polygon fill="white" stroke="black" points="448.5,-76.5 448.5,-95.5 583.5,-95.5 583.5,-76.5 448.5,-76.5"/>
<text text-anchor="middle" x="516" y="-83.5" font-family="Helvetica,sans-Serif" font-size="10.00">AC_WPNav::update_brake</text>
</a>
</g>
</g>
<!-- Node3&#45;&gt;Node6 -->
<g id="edge5" class="edge"><title>Node3&#45;&gt;Node6</title>
<path fill="none" stroke="midnightblue" d="M420.214,-86C429.539,-86 439.09,-86 448.369,-86"/>
<polygon fill="midnightblue" stroke="midnightblue" points="420.208,-82.5001 410.208,-86 420.208,-89.5001 420.208,-82.5001"/>
</g>
<!-- Node7 -->
<g id="node7" class="node"><title>Node7</title>
<g id="a_node7"><a xlink:href="$classAC__WPNav.html#ab37772c12f3376c2eda24d8506a994fc" xlink:title="update_wpnav &#45; run the wp controller &#45; should be called at 100hz or higher ">
<polygon fill="white" stroke="black" points="446,-38.5 446,-57.5 586,-57.5 586,-38.5 446,-38.5"/>
<text text-anchor="middle" x="516" y="-45.5" font-family="Helvetica,sans-Serif" font-size="10.00">AC_WPNav::update_wpnav</text>
</a>
</g>
</g>
<!-- Node3&#45;&gt;Node7 -->
<g id="edge6" class="edge"><title>Node3&#45;&gt;Node7</title>
<path fill="none" stroke="midnightblue" d="M419.983,-70.0162C438.313,-65.769 457.533,-61.3154 473.854,-57.5338"/>
<polygon fill="midnightblue" stroke="midnightblue" points="419.16,-66.6141 410.208,-72.2811 420.74,-73.4334 419.16,-66.6141"/>
</g>
<!-- Node8 -->
<g id="node8" class="node"><title>Node8</title>
<g id="a_node8"><a xlink:href="$classAC__WPNav.html#a1d067335195835e46ba7218f8d784936" xlink:title="update_spline &#45; update spline controller ">
<polygon fill="white" stroke="black" points="447.5,-0.5 447.5,-19.5 584.5,-19.5 584.5,-0.5 447.5,-0.5"/>
<text text-anchor="middle" x="516" y="-7.5" font-family="Helvetica,sans-Serif" font-size="10.00">AC_WPNav::update_spline</text>
</a>
</g>
</g>
<!-- Node3&#45;&gt;Node8 -->
<g id="edge7" class="edge"><title>Node3&#45;&gt;Node8</title>
<path fill="none" stroke="midnightblue" d="M400.72,-66.3548C403.921,-64.6573 407.042,-62.8697 410,-61 428.095,-49.5614 427.19,-39.2194 446,-29 453.097,-25.1445 461.038,-22.022 468.937,-19.5088"/>
<polygon fill="midnightblue" stroke="midnightblue" points="398.968,-63.3169 391.562,-70.8935 402.076,-69.5889 398.968,-63.3169"/>
</g>
</g>
</svg>
