<?xml version="1.0" encoding="UTF-8" standalone="no"?>
<!DOCTYPE svg PUBLIC "-//W3C//DTD SVG 1.1//EN"
 "http://www.w3.org/Graphics/SVG/1.1/DTD/svg11.dtd">
<!-- Generated by graphviz version 2.36.0 (20140111.2315)
 -->
<!-- Title: AP_HAL_FLYMAPLE_NS::FLYMAPLEAnalogIn Pages: 1 -->
<svg width="259pt" height="188pt"
 viewBox="0.00 0.00 259.00 188.00" xmlns="http://www.w3.org/2000/svg" xmlns:xlink="http://www.w3.org/1999/xlink">
<g id="graph0" class="graph" transform="scale(1 1) rotate(0) translate(4 184)">
<title>AP_HAL_FLYMAPLE_NS::FLYMAPLEAnalogIn</title>
<polygon fill="white" stroke="none" points="-4,4 -4,-184 255,-184 255,4 -4,4"/>
<!-- Node1 -->
<g id="node1" class="node"><title>Node1</title>
<polygon fill="#bfbfbf" stroke="black" points="25.5,-1 25.5,-31 156.5,-31 156.5,-1 25.5,-1"/>
<text text-anchor="start" x="33.5" y="-19" font-family="Helvetica,sans-Serif" font-size="10.00">AP_HAL_FLYMAPLE_NS</text>
<text text-anchor="middle" x="91" y="-8" font-family="Helvetica,sans-Serif" font-size="10.00">::FLYMAPLEAnalogIn</text>
</g>
<!-- Node2 -->
<g id="node2" class="node"><title>Node2</title>
<g id="a_node2"><a xlink:href="$classAP__HAL_1_1AnalogIn.html" xlink:title="AP_HAL::AnalogIn">
<polygon fill="white" stroke="black" points="-0.5,-96.5 -0.5,-115.5 98.5,-115.5 98.5,-96.5 -0.5,-96.5"/>
<text text-anchor="middle" x="49" y="-103.5" font-family="Helvetica,sans-Serif" font-size="10.00">AP_HAL::AnalogIn</text>
</a>
</g>
</g>
<!-- Node2&#45;&gt;Node1 -->
<g id="edge1" class="edge"><title>Node2&#45;&gt;Node1</title>
<path fill="none" stroke="midnightblue" d="M57.5405,-87.1056C65.417,-70.6025 76.9564,-46.4247 84.2184,-31.209"/>
<polygon fill="midnightblue" stroke="midnightblue" points="54.3293,-85.7081 53.1807,-96.2405 60.6467,-88.7233 54.3293,-85.7081"/>
</g>
<!-- Node3 -->
<g id="node3" class="node"><title>Node3</title>
<g id="a_node3"><a xlink:href="$classAP__HAL__FLYMAPLE__NS_1_1FLYMAPLEAnalogSource.html" xlink:title="AP_HAL_FLYMAPLE_NS\l::FLYMAPLEAnalogSource">
<polygon fill="white" stroke="black" points="116.5,-91 116.5,-121 251.5,-121 251.5,-91 116.5,-91"/>
<text text-anchor="start" x="124.5" y="-109" font-family="Helvetica,sans-Serif" font-size="10.00">AP_HAL_FLYMAPLE_NS</text>
<text text-anchor="middle" x="184" y="-98" font-family="Helvetica,sans-Serif" font-size="10.00">::FLYMAPLEAnalogSource</text>
</a>
</g>
</g>
<!-- Node3&#45;&gt;Node1 -->
<g id="edge2" class="edge"><title>Node3&#45;&gt;Node1</title>
<path fill="none" stroke="#9a32cd" stroke-dasharray="5,2" d="M161.608,-83.8115C144.34,-67.4721 120.941,-45.3314 105.905,-31.1036"/>
<polygon fill="#9a32cd" stroke="#9a32cd" points="159.389,-86.5304 169.058,-90.8613 164.2,-81.4459 159.389,-86.5304"/>
<text text-anchor="middle" x="172" y="-64" font-family="Helvetica,sans-Serif" font-size="10.00"> _channels</text>
<text text-anchor="middle" x="172" y="-53" font-family="Helvetica,sans-Serif" font-size="10.00">_vcc</text>
</g>
<!-- Node4 -->
<g id="node4" class="node"><title>Node4</title>
<g id="a_node4"><a xlink:href="$classAP__HAL_1_1AnalogSource.html" xlink:title="AP_HAL::AnalogSource">
<polygon fill="white" stroke="black" points="123,-160.5 123,-179.5 245,-179.5 245,-160.5 123,-160.5"/>
<text text-anchor="middle" x="184" y="-167.5" font-family="Helvetica,sans-Serif" font-size="10.00">AP_HAL::AnalogSource</text>
</a>
</g>
</g>
<!-- Node4&#45;&gt;Node3 -->
<g id="edge3" class="edge"><title>Node4&#45;&gt;Node3</title>
<path fill="none" stroke="midnightblue" d="M184,-150.183C184,-140.886 184,-129.851 184,-121.263"/>
<polygon fill="midnightblue" stroke="midnightblue" points="180.5,-150.379 184,-160.379 187.5,-150.379 180.5,-150.379"/>
</g>
</g>
</svg>
