<?xml version="1.0" encoding="UTF-8" standalone="no"?>
<!DOCTYPE svg PUBLIC "-//W3C//DTD SVG 1.1//EN"
 "http://www.w3.org/Graphics/SVG/1.1/DTD/svg11.dtd">
<!-- Generated by graphviz version 2.36.0 (20140111.2315)
 -->
<!-- Title: AP_HAL::Scheduler::register_io_process Pages: 1 -->
<svg width="286pt" height="104pt"
 viewBox="0.00 0.00 286.00 104.00" xmlns="http://www.w3.org/2000/svg" xmlns:xlink="http://www.w3.org/1999/xlink">
<g id="graph0" class="graph" transform="scale(1 1) rotate(0) translate(4 100)">
<title>AP_HAL::Scheduler::register_io_process</title>
<polygon fill="white" stroke="none" points="-4,4 -4,-100 282,-100 282,4 -4,4"/>
<!-- Node1 -->
<g id="node1" class="node"><title>Node1</title>
<polygon fill="#bfbfbf" stroke="black" points="0,-33 0,-63 110,-63 110,-33 0,-33"/>
<text text-anchor="start" x="8" y="-51" font-family="Helvetica,sans-Serif" font-size="10.00">AP_HAL::Scheduler::</text>
<text text-anchor="middle" x="55" y="-40" font-family="Helvetica,sans-Serif" font-size="10.00">register_io_process</text>
</g>
<!-- Node2 -->
<g id="node2" class="node"><title>Node2</title>
<g id="a_node2"><a xlink:href="$classToshibaLED__PX4.html#aff7b443e4aba5ab6a55d60350b5f5efa" xlink:title="ToshibaLED_PX4::hw_init">
<polygon fill="white" stroke="black" points="146.5,-76.5 146.5,-95.5 277.5,-95.5 277.5,-76.5 146.5,-76.5"/>
<text text-anchor="middle" x="212" y="-83.5" font-family="Helvetica,sans-Serif" font-size="10.00">ToshibaLED_PX4::hw_init</text>
</a>
</g>
</g>
<!-- Node1&#45;&gt;Node2 -->
<g id="edge1" class="edge"><title>Node1&#45;&gt;Node2</title>
<path fill="none" stroke="midnightblue" d="M119.937,-63.6749C137.668,-68.0218 156.377,-72.6085 172.193,-76.4861"/>
<polygon fill="midnightblue" stroke="midnightblue" points="120.757,-60.2724 110.211,-61.2906 119.09,-67.0711 120.757,-60.2724"/>
</g>
<!-- Node3 -->
<g id="node3" class="node"><title>Node3</title>
<g id="a_node3"><a xlink:href="$classOreoLED__PX4.html#aa3c8b6ae5779103b16f78266427ef193" xlink:title="OreoLED_PX4::init">
<polygon fill="white" stroke="black" points="162,-38.5 162,-57.5 262,-57.5 262,-38.5 162,-38.5"/>
<text text-anchor="middle" x="212" y="-45.5" font-family="Helvetica,sans-Serif" font-size="10.00">OreoLED_PX4::init</text>
</a>
</g>
</g>
<!-- Node1&#45;&gt;Node3 -->
<g id="edge2" class="edge"><title>Node1&#45;&gt;Node3</title>
<path fill="none" stroke="midnightblue" d="M120.594,-48C134.353,-48 148.67,-48 161.744,-48"/>
<polygon fill="midnightblue" stroke="midnightblue" points="120.212,-44.5001 110.211,-48 120.211,-51.5001 120.212,-44.5001"/>
</g>
<!-- Node4 -->
<g id="node4" class="node"><title>Node4</title>
<g id="a_node4"><a xlink:href="$classAP__Frsky__Telem.html#a081d1787f8ec08ca8c489fb5dc86393c" xlink:title="AP_Frsky_Telem::init">
<polygon fill="white" stroke="black" points="156.5,-0.5 156.5,-19.5 267.5,-19.5 267.5,-0.5 156.5,-0.5"/>
<text text-anchor="middle" x="212" y="-7.5" font-family="Helvetica,sans-Serif" font-size="10.00">AP_Frsky_Telem::init</text>
</a>
</g>
</g>
<!-- Node1&#45;&gt;Node4 -->
<g id="edge3" class="edge"><title>Node1&#45;&gt;Node4</title>
<path fill="none" stroke="midnightblue" d="M119.937,-32.3251C137.668,-27.9782 156.377,-23.3915 172.193,-19.5139"/>
<polygon fill="midnightblue" stroke="midnightblue" points="119.09,-28.9289 110.211,-34.7094 120.757,-35.7276 119.09,-28.9289"/>
</g>
</g>
</svg>
