<?xml version="1.0" encoding="UTF-8" standalone="no"?>
<!DOCTYPE svg PUBLIC "-//W3C//DTD SVG 1.1//EN"
 "http://www.w3.org/Graphics/SVG/1.1/DTD/svg11.dtd">
<!-- Generated by graphviz version 2.36.0 (20140111.2315)
 -->
<!-- Title: AP_Mission::check_eeprom_version Pages: 1 -->
<svg width="598pt" height="165pt"
 viewBox="0.00 0.00 598.00 165.00" xmlns="http://www.w3.org/2000/svg" xmlns:xlink="http://www.w3.org/1999/xlink">
<g id="graph0" class="graph" transform="scale(1 1) rotate(0) translate(4 161)">
<title>AP_Mission::check_eeprom_version</title>
<polygon fill="white" stroke="none" points="-4,4 -4,-161 594,-161 594,4 -4,4"/>
<!-- Node1 -->
<g id="node1" class="node"><title>Node1</title>
<polygon fill="#bfbfbf" stroke="black" points="0.5,-39 0.5,-69 139.5,-69 139.5,-39 0.5,-39"/>
<text text-anchor="start" x="8.5" y="-57" font-family="Helvetica,sans-Serif" font-size="10.00">AP_Mission::check_eeprom</text>
<text text-anchor="middle" x="70" y="-46" font-family="Helvetica,sans-Serif" font-size="10.00">_version</text>
</g>
<!-- Node2 -->
<g id="node2" class="node"><title>Node2</title>
<g id="a_node2"><a xlink:href="$classStorageAccess.html#af10e9fa6cda0cb973243e4852c9d16c6" xlink:title="StorageAccess::read\l_uint32">
<polygon fill="white" stroke="black" points="177,-88 177,-118 285,-118 285,-88 177,-88"/>
<text text-anchor="start" x="185" y="-106" font-family="Helvetica,sans-Serif" font-size="10.00">StorageAccess::read</text>
<text text-anchor="middle" x="231" y="-95" font-family="Helvetica,sans-Serif" font-size="10.00">_uint32</text>
</a>
</g>
</g>
<!-- Node1&#45;&gt;Node2 -->
<g id="edge1" class="edge"><title>Node1&#45;&gt;Node2</title>
<path fill="none" stroke="midnightblue" d="M120.003,-69.1014C136.249,-74.1083 154.499,-79.7324 171.394,-84.939"/>
<polygon fill="midnightblue" stroke="midnightblue" points="170.572,-88.348 181.159,-87.9484 172.633,-81.6585 170.572,-88.348"/>
</g>
<!-- Node7 -->
<g id="node7" class="node"><title>Node7</title>
<g id="a_node7"><a xlink:href="$classAP__Mission.html#acfd61ebf8361f71fa75c9088dd8b7e3b" xlink:title="AP_Mission::clear">
<polygon fill="white" stroke="black" points="183,-0.5 183,-19.5 279,-19.5 279,-0.5 183,-0.5"/>
<text text-anchor="middle" x="231" y="-7.5" font-family="Helvetica,sans-Serif" font-size="10.00">AP_Mission::clear</text>
</a>
</g>
</g>
<!-- Node1&#45;&gt;Node7 -->
<g id="edge6" class="edge"><title>Node1&#45;&gt;Node7</title>
<path fill="none" stroke="midnightblue" d="M125.274,-38.9808C144.949,-33.5362 166.923,-27.4554 185.642,-22.2751"/>
<polygon fill="midnightblue" stroke="midnightblue" points="186.683,-25.6186 195.388,-19.5783 184.816,-18.8722 186.683,-25.6186"/>
</g>
<!-- Node8 -->
<g id="node8" class="node"><title>Node8</title>
<g id="a_node8"><a xlink:href="$classStorageAccess.html#a9e24d113aece3ade8c6de808937555e9" xlink:title="StorageAccess::write\l_uint32">
<polygon fill="white" stroke="black" points="176,-39 176,-69 286,-69 286,-39 176,-39"/>
<text text-anchor="start" x="184" y="-57" font-family="Helvetica,sans-Serif" font-size="10.00">StorageAccess::write</text>
<text text-anchor="middle" x="231" y="-46" font-family="Helvetica,sans-Serif" font-size="10.00">_uint32</text>
</a>
</g>
</g>
<!-- Node1&#45;&gt;Node8 -->
<g id="edge7" class="edge"><title>Node1&#45;&gt;Node8</title>
<path fill="none" stroke="midnightblue" d="M139.815,-54C148.407,-54 157.169,-54 165.689,-54"/>
<polygon fill="midnightblue" stroke="midnightblue" points="165.934,-57.5001 175.934,-54 165.934,-50.5001 165.934,-57.5001"/>
</g>
<!-- Node3 -->
<g id="node3" class="node"><title>Node3</title>
<g id="a_node3"><a xlink:href="$classStorageAccess.html#ab2a8575d541549a15645edc360fdaa91" xlink:title="StorageAccess::read\l_block">
<polygon fill="white" stroke="black" points="323,-88 323,-118 431,-118 431,-88 323,-88"/>
<text text-anchor="start" x="331" y="-106" font-family="Helvetica,sans-Serif" font-size="10.00">StorageAccess::read</text>
<text text-anchor="middle" x="377" y="-95" font-family="Helvetica,sans-Serif" font-size="10.00">_block</text>
</a>
</g>
</g>
<!-- Node2&#45;&gt;Node3 -->
<g id="edge2" class="edge"><title>Node2&#45;&gt;Node3</title>
<path fill="none" stroke="midnightblue" d="M285.211,-103C294.059,-103 303.314,-103 312.389,-103"/>
<polygon fill="midnightblue" stroke="midnightblue" points="312.527,-106.5 322.527,-103 312.527,-99.5001 312.527,-106.5"/>
</g>
<!-- Node4 -->
<g id="node4" class="node"><title>Node4</title>
<g id="a_node4"><a xlink:href="$AP__Progmem__Identity_8h.html#a9fc333349fa71fdc21a2d5152c5e23a2" xlink:title="pgm_read_word">
<polygon fill="white" stroke="black" points="486,-88.5 486,-107.5 572,-107.5 572,-88.5 486,-88.5"/>
<text text-anchor="middle" x="529" y="-95.5" font-family="Helvetica,sans-Serif" font-size="10.00">pgm_read_word</text>
</a>
</g>
</g>
<!-- Node3&#45;&gt;Node4 -->
<g id="edge3" class="edge"><title>Node3&#45;&gt;Node4</title>
<path fill="none" stroke="midnightblue" d="M431.307,-101.223C445.672,-100.744 461.199,-100.227 475.519,-99.7494"/>
<polygon fill="midnightblue" stroke="midnightblue" points="475.821,-103.241 485.699,-99.41 475.588,-96.2452 475.821,-103.241"/>
</g>
<!-- Node5 -->
<g id="node5" class="node"><title>Node5</title>
<g id="a_node5"><a xlink:href="$AP__Progmem__Identity_8h.html#a1514e0408e036062b4af844baaf567da" xlink:title="pgm_read_byte">
<polygon fill="white" stroke="black" points="487.5,-50.5 487.5,-69.5 570.5,-69.5 570.5,-50.5 487.5,-50.5"/>
<text text-anchor="middle" x="529" y="-57.5" font-family="Helvetica,sans-Serif" font-size="10.00">pgm_read_byte</text>
</a>
</g>
</g>
<!-- Node3&#45;&gt;Node5 -->
<g id="edge4" class="edge"><title>Node3&#45;&gt;Node5</title>
<path fill="none" stroke="midnightblue" d="M430.463,-87.9607C448.26,-82.8589 467.923,-77.222 484.905,-72.354"/>
<polygon fill="midnightblue" stroke="midnightblue" points="485.91,-75.7067 494.559,-69.5865 483.981,-68.9778 485.91,-75.7067"/>
</g>
<!-- Node6 -->
<g id="node6" class="node"><title>Node6</title>
<g id="a_node6"><a xlink:href="$classAP__HAL_1_1Storage.html#a1c3b1e80b0bec7d4bacd3ecbefb3b3f3" xlink:title="AP_HAL::Storage::read\l_block">
<polygon fill="white" stroke="black" points="469.5,-127 469.5,-157 588.5,-157 588.5,-127 469.5,-127"/>
<text text-anchor="start" x="477.5" y="-145" font-family="Helvetica,sans-Serif" font-size="10.00">AP_HAL::Storage::read</text>
<text text-anchor="middle" x="529" y="-134" font-family="Helvetica,sans-Serif" font-size="10.00">_block</text>
</a>
</g>
</g>
<!-- Node3&#45;&gt;Node6 -->
<g id="edge5" class="edge"><title>Node3&#45;&gt;Node6</title>
<path fill="none" stroke="midnightblue" d="M431.307,-116.86C440.78,-119.323 450.759,-121.917 460.563,-124.466"/>
<polygon fill="midnightblue" stroke="midnightblue" points="459.725,-127.865 470.284,-126.994 461.487,-121.09 459.725,-127.865"/>
</g>
<!-- Node9 -->
<g id="node9" class="node"><title>Node9</title>
<g id="a_node9"><a xlink:href="$classStorageAccess.html#aa527b50188a7138b173defe07b9b7bf6" xlink:title="StorageAccess::write\l_block">
<polygon fill="white" stroke="black" points="322,-39 322,-69 432,-69 432,-39 322,-39"/>
<text text-anchor="start" x="330" y="-57" font-family="Helvetica,sans-Serif" font-size="10.00">StorageAccess::write</text>
<text text-anchor="middle" x="377" y="-46" font-family="Helvetica,sans-Serif" font-size="10.00">_block</text>
</a>
</g>
</g>
<!-- Node8&#45;&gt;Node9 -->
<g id="edge8" class="edge"><title>Node8&#45;&gt;Node9</title>
<path fill="none" stroke="midnightblue" d="M286.03,-54C294.314,-54 302.936,-54 311.42,-54"/>
<polygon fill="midnightblue" stroke="midnightblue" points="311.667,-57.5001 321.667,-54 311.667,-50.5001 311.667,-57.5001"/>
</g>
<!-- Node9&#45;&gt;Node4 -->
<g id="edge9" class="edge"><title>Node9&#45;&gt;Node4</title>
<path fill="none" stroke="midnightblue" d="M429.202,-69.0192C447.506,-74.3885 467.92,-80.3766 485.419,-85.5095"/>
<polygon fill="midnightblue" stroke="midnightblue" points="484.766,-88.9654 495.347,-88.4217 486.736,-82.2484 484.766,-88.9654"/>
</g>
<!-- Node9&#45;&gt;Node5 -->
<g id="edge10" class="edge"><title>Node9&#45;&gt;Node5</title>
<path fill="none" stroke="midnightblue" d="M432.153,-56.1661C446.739,-56.7496 462.468,-57.3787 476.882,-57.9553"/>
<polygon fill="midnightblue" stroke="midnightblue" points="476.979,-61.4619 487.111,-58.3644 477.259,-54.4675 476.979,-61.4619"/>
</g>
<!-- Node10 -->
<g id="node10" class="node"><title>Node10</title>
<g id="a_node10"><a xlink:href="$classAP__HAL_1_1Storage.html#a9de79ab93ea4374bd3d1583e28620d2e" xlink:title="AP_HAL::Storage::write\l_block">
<polygon fill="white" stroke="black" points="468,-1 468,-31 590,-31 590,-1 468,-1"/>
<text text-anchor="start" x="476" y="-19" font-family="Helvetica,sans-Serif" font-size="10.00">AP_HAL::Storage::write</text>
<text text-anchor="middle" x="529" y="-8" font-family="Helvetica,sans-Serif" font-size="10.00">_block</text>
</a>
</g>
</g>
<!-- Node9&#45;&gt;Node10 -->
<g id="edge11" class="edge"><title>Node9&#45;&gt;Node10</title>
<path fill="none" stroke="midnightblue" d="M432.153,-40.2811C440.75,-38.1032 449.744,-35.8248 458.632,-33.5732"/>
<polygon fill="midnightblue" stroke="midnightblue" points="459.761,-36.898 468.595,-31.0493 458.042,-30.1123 459.761,-36.898"/>
</g>
</g>
</svg>
