<?xml version="1.0" encoding="UTF-8" standalone="no"?>
<!DOCTYPE svg PUBLIC "-//W3C//DTD SVG 1.1//EN"
 "http://www.w3.org/Graphics/SVG/1.1/DTD/svg11.dtd">
<!-- Generated by graphviz version 2.36.0 (20140111.2315)
 -->
<!-- Title: AP_RangeFinder_MaxsonarI2CXL::detect Pages: 1 -->
<svg width="696pt" height="202pt"
 viewBox="0.00 0.00 696.00 202.00" xmlns="http://www.w3.org/2000/svg" xmlns:xlink="http://www.w3.org/1999/xlink">
<g id="graph0" class="graph" transform="scale(1 1) rotate(0) translate(4 198)">
<title>AP_RangeFinder_MaxsonarI2CXL::detect</title>
<polygon fill="white" stroke="none" points="-4,4 -4,-198 692,-198 692,4 -4,4"/>
<!-- Node1 -->
<g id="node1" class="node"><title>Node1</title>
<polygon fill="#bfbfbf" stroke="black" points="0.5,-71 0.5,-101 147.5,-101 147.5,-71 0.5,-71"/>
<text text-anchor="start" x="8.5" y="-89" font-family="Helvetica,sans-Serif" font-size="10.00">AP_RangeFinder_MaxsonarI2</text>
<text text-anchor="middle" x="74" y="-78" font-family="Helvetica,sans-Serif" font-size="10.00">CXL::detect</text>
</g>
<!-- Node2 -->
<g id="node2" class="node"><title>Node2</title>
<g id="a_node2"><a xlink:href="$classAP__RangeFinder__MaxsonarI2CXL.html#a51188886a94d87fc3ebb795c0b40f0e4" xlink:title="AP_RangeFinder_MaxsonarI2\lCXL::start_reading">
<polygon fill="white" stroke="black" points="368.5,-115 368.5,-145 515.5,-145 515.5,-115 368.5,-115"/>
<text text-anchor="start" x="376.5" y="-133" font-family="Helvetica,sans-Serif" font-size="10.00">AP_RangeFinder_MaxsonarI2</text>
<text text-anchor="middle" x="442" y="-122" font-family="Helvetica,sans-Serif" font-size="10.00">CXL::start_reading</text>
</a>
</g>
</g>
<!-- Node1&#45;&gt;Node2 -->
<g id="edge1" class="edge"><title>Node1&#45;&gt;Node2</title>
<path fill="none" stroke="midnightblue" d="M136.117,-101.023C151.656,-104.41 168.379,-107.684 184,-110 241.878,-118.581 307.671,-123.614 358.198,-126.485"/>
<polygon fill="midnightblue" stroke="midnightblue" points="358.239,-129.992 368.416,-127.048 358.624,-123.003 358.239,-129.992"/>
</g>
<!-- Node7 -->
<g id="node7" class="node"><title>Node7</title>
<g id="a_node7"><a xlink:href="$classAP__HAL_1_1Scheduler.html#ab3175e2e6223ccfe82f957e41cc12b26" xlink:title="AP_HAL::Scheduler::\ldelay">
<polygon fill="white" stroke="black" points="203,-22 203,-52 313,-52 313,-22 203,-22"/>
<text text-anchor="start" x="211" y="-40" font-family="Helvetica,sans-Serif" font-size="10.00">AP_HAL::Scheduler::</text>
<text text-anchor="middle" x="258" y="-29" font-family="Helvetica,sans-Serif" font-size="10.00">delay</text>
</a>
</g>
</g>
<!-- Node1&#45;&gt;Node7 -->
<g id="edge6" class="edge"><title>Node1&#45;&gt;Node7</title>
<path fill="none" stroke="midnightblue" d="M131.091,-70.8986C150.748,-65.6063 172.966,-59.6245 193.207,-54.175"/>
<polygon fill="midnightblue" stroke="midnightblue" points="194.218,-57.5275 202.965,-51.548 192.399,-50.7681 194.218,-57.5275"/>
</g>
<!-- Node8 -->
<g id="node8" class="node"><title>Node8</title>
<g id="a_node8"><a xlink:href="$classAP__RangeFinder__MaxsonarI2CXL.html#a43b8ffc54c0ed66221d0bb61c3e181e9" xlink:title="AP_RangeFinder_MaxsonarI2\lCXL::get_reading">
<polygon fill="white" stroke="black" points="184.5,-71 184.5,-101 331.5,-101 331.5,-71 184.5,-71"/>
<text text-anchor="start" x="192.5" y="-89" font-family="Helvetica,sans-Serif" font-size="10.00">AP_RangeFinder_MaxsonarI2</text>
<text text-anchor="middle" x="258" y="-78" font-family="Helvetica,sans-Serif" font-size="10.00">CXL::get_reading</text>
</a>
</g>
</g>
<!-- Node1&#45;&gt;Node8 -->
<g id="edge7" class="edge"><title>Node1&#45;&gt;Node8</title>
<path fill="none" stroke="midnightblue" d="M147.716,-86C156.398,-86 165.312,-86 174.123,-86"/>
<polygon fill="midnightblue" stroke="midnightblue" points="174.4,-89.5001 184.4,-86 174.4,-82.5001 174.4,-89.5001"/>
</g>
<!-- Node3 -->
<g id="node3" class="node"><title>Node3</title>
<g id="a_node3"><a xlink:href="$classAP__HAL_1_1I2CDriver.html#a373424b46be08ef36d53844f88b5398e" xlink:title="AP_HAL::I2CDriver::\lget_semaphore">
<polygon fill="white" stroke="black" points="565.5,-164 565.5,-194 674.5,-194 674.5,-164 565.5,-164"/>
<text text-anchor="start" x="573.5" y="-182" font-family="Helvetica,sans-Serif" font-size="10.00">AP_HAL::I2CDriver::</text>
<text text-anchor="middle" x="620" y="-171" font-family="Helvetica,sans-Serif" font-size="10.00">get_semaphore</text>
</a>
</g>
</g>
<!-- Node2&#45;&gt;Node3 -->
<g id="edge2" class="edge"><title>Node2&#45;&gt;Node3</title>
<path fill="none" stroke="midnightblue" d="M497.242,-145.101C515.648,-150.226 536.376,-155.997 555.442,-161.305"/>
<polygon fill="midnightblue" stroke="midnightblue" points="554.667,-164.722 565.24,-164.033 556.545,-157.979 554.667,-164.722"/>
</g>
<!-- Node4 -->
<g id="node4" class="node"><title>Node4</title>
<g id="a_node4"><a xlink:href="$classAP__HAL_1_1Semaphore.html#abd3a0affad8bb211981a979f30386589" xlink:title="AP_HAL::Semaphore::take">
<polygon fill="white" stroke="black" points="552.5,-76.5 552.5,-95.5 687.5,-95.5 687.5,-76.5 552.5,-76.5"/>
<text text-anchor="middle" x="620" y="-83.5" font-family="Helvetica,sans-Serif" font-size="10.00">AP_HAL::Semaphore::take</text>
</a>
</g>
</g>
<!-- Node2&#45;&gt;Node4 -->
<g id="edge3" class="edge"><title>Node2&#45;&gt;Node4</title>
<path fill="none" stroke="midnightblue" d="M503.077,-114.981C525.242,-109.44 550.043,-103.239 571,-98.0001"/>
<polygon fill="midnightblue" stroke="midnightblue" points="572.098,-101.333 580.95,-95.5124 570.4,-94.5423 572.098,-101.333"/>
</g>
<!-- Node5 -->
<g id="node5" class="node"><title>Node5</title>
<g id="a_node5"><a xlink:href="$classAP__HAL_1_1I2CDriver.html#a31721a0154b78760595785506d92f38e" xlink:title="AP_HAL::I2CDriver::\lwrite">
<polygon fill="white" stroke="black" points="565.5,-115 565.5,-145 674.5,-145 674.5,-115 565.5,-115"/>
<text text-anchor="start" x="573.5" y="-133" font-family="Helvetica,sans-Serif" font-size="10.00">AP_HAL::I2CDriver::</text>
<text text-anchor="middle" x="620" y="-122" font-family="Helvetica,sans-Serif" font-size="10.00">write</text>
</a>
</g>
</g>
<!-- Node2&#45;&gt;Node5 -->
<g id="edge4" class="edge"><title>Node2&#45;&gt;Node5</title>
<path fill="none" stroke="midnightblue" d="M515.602,-130C528.752,-130 542.376,-130 555.248,-130"/>
<polygon fill="midnightblue" stroke="midnightblue" points="555.388,-133.5 565.388,-130 555.388,-126.5 555.388,-133.5"/>
</g>
<!-- Node6 -->
<g id="node6" class="node"><title>Node6</title>
<g id="a_node6"><a xlink:href="$classAP__HAL_1_1Semaphore.html#afcdbf03d5bea9d83037acc93bfaea7ce" xlink:title="AP_HAL::Semaphore::give">
<polygon fill="white" stroke="black" points="553,-38.5 553,-57.5 687,-57.5 687,-38.5 553,-38.5"/>
<text text-anchor="middle" x="620" y="-45.5" font-family="Helvetica,sans-Serif" font-size="10.00">AP_HAL::Semaphore::give</text>
</a>
</g>
</g>
<!-- Node2&#45;&gt;Node6 -->
<g id="edge5" class="edge"><title>Node2&#45;&gt;Node6</title>
<path fill="none" stroke="midnightblue" d="M465.527,-114.752C486.991,-100.773 520.597,-80.2843 552,-67 557.493,-64.6764 563.356,-62.5428 569.244,-60.6123"/>
<polygon fill="midnightblue" stroke="midnightblue" points="570.596,-63.8577 579.114,-57.5573 568.526,-57.1707 570.596,-63.8577"/>
</g>
<!-- Node8&#45;&gt;Node2 -->
<g id="edge12" class="edge"><title>Node8&#45;&gt;Node2</title>
<path fill="none" stroke="midnightblue" d="M321.125,-101.019C336.56,-104.751 353.232,-108.781 369.093,-112.616"/>
<polygon fill="midnightblue" stroke="midnightblue" points="368.304,-116.026 378.846,-114.974 369.949,-109.222 368.304,-116.026"/>
</g>
<!-- Node8&#45;&gt;Node3 -->
<g id="edge8" class="edge"><title>Node8&#45;&gt;Node3</title>
<path fill="none" stroke="midnightblue" d="M277.323,-101.167C297.955,-117.31 333.166,-142.126 368,-154 429.203,-174.863 503.307,-179.976 555.068,-180.567"/>
<polygon fill="midnightblue" stroke="midnightblue" points="555.091,-184.067 565.112,-180.628 555.134,-177.067 555.091,-184.067"/>
</g>
<!-- Node8&#45;&gt;Node4 -->
<g id="edge9" class="edge"><title>Node8&#45;&gt;Node4</title>
<path fill="none" stroke="midnightblue" d="M331.851,-86C392.962,-86 479.98,-86 542.179,-86"/>
<polygon fill="midnightblue" stroke="midnightblue" points="542.328,-89.5001 552.328,-86 542.328,-82.5001 542.328,-89.5001"/>
</g>
<!-- Node8&#45;&gt;Node6 -->
<g id="edge11" class="edge"><title>Node8&#45;&gt;Node6</title>
<path fill="none" stroke="midnightblue" d="M331.851,-78.3101C393.157,-71.839 480.534,-62.6158 542.773,-56.0462"/>
<polygon fill="midnightblue" stroke="midnightblue" points="543.347,-59.5051 552.925,-54.9746 542.612,-52.5438 543.347,-59.5051"/>
</g>
<!-- Node9 -->
<g id="node9" class="node"><title>Node9</title>
<g id="a_node9"><a xlink:href="$classAP__HAL_1_1I2CDriver.html#a223decf0fed4d81b10e740411026e2f3" xlink:title="AP_HAL::I2CDriver::read">
<polygon fill="white" stroke="black" points="378,-0.5 378,-19.5 506,-19.5 506,-0.5 378,-0.5"/>
<text text-anchor="middle" x="442" y="-7.5" font-family="Helvetica,sans-Serif" font-size="10.00">AP_HAL::I2CDriver::read</text>
</a>
</g>
</g>
<!-- Node8&#45;&gt;Node9 -->
<g id="edge10" class="edge"><title>Node8&#45;&gt;Node9</title>
<path fill="none" stroke="midnightblue" d="M309.744,-70.9392C317.371,-68.0176 325.014,-64.6969 332,-61 349.677,-51.6453 350.265,-43.2457 368,-34 376.253,-29.6973 385.43,-25.9574 394.413,-22.793"/>
<polygon fill="midnightblue" stroke="midnightblue" points="395.653,-26.0691 404.033,-19.5858 393.439,-19.4284 395.653,-26.0691"/>
</g>
</g>
</svg>
