<?xml version="1.0" encoding="UTF-8" standalone="no"?>
<!DOCTYPE svg PUBLIC "-//W3C//DTD SVG 1.1//EN"
 "http://www.w3.org/Graphics/SVG/1.1/DTD/svg11.dtd">
<!-- Generated by graphviz version 2.36.0 (20140111.2315)
 -->
<!-- Title: APM_OBC::check_altlimit Pages: 1 -->
<svg width="454pt" height="277pt"
 viewBox="0.00 0.00 454.00 277.00" xmlns="http://www.w3.org/2000/svg" xmlns:xlink="http://www.w3.org/1999/xlink">
<g id="graph0" class="graph" transform="scale(1 1) rotate(0) translate(4 273)">
<title>APM_OBC::check_altlimit</title>
<polygon fill="white" stroke="none" points="-4,4 -4,-273 450,-273 450,4 -4,4"/>
<!-- Node1 -->
<g id="node1" class="node"><title>Node1</title>
<polygon fill="#bfbfbf" stroke="black" points="0.5,-125.5 0.5,-144.5 131.5,-144.5 131.5,-125.5 0.5,-125.5"/>
<text text-anchor="middle" x="66" y="-132.5" font-family="Helvetica,sans-Serif" font-size="10.00">APM_OBC::check_altlimit</text>
</g>
<!-- Node2 -->
<g id="node2" class="node"><title>Node2</title>
<g id="a_node2"><a xlink:href="$classAP__HAL_1_1Scheduler.html#a26b68339fc68a562d8d3a1238d0ec8c1" xlink:title="AP_HAL::Scheduler::\lmillis">
<polygon fill="white" stroke="black" points="179,-239 179,-269 289,-269 289,-239 179,-239"/>
<text text-anchor="start" x="187" y="-257" font-family="Helvetica,sans-Serif" font-size="10.00">AP_HAL::Scheduler::</text>
<text text-anchor="middle" x="234" y="-246" font-family="Helvetica,sans-Serif" font-size="10.00">millis</text>
</a>
</g>
</g>
<!-- Node1&#45;&gt;Node2 -->
<g id="edge1" class="edge"><title>Node1&#45;&gt;Node2</title>
<path fill="none" stroke="midnightblue" d="M74.9676,-144.538C90.9069,-163.093 128.587,-204.381 168,-229 171.16,-230.974 174.5,-232.834 177.933,-234.581"/>
<polygon fill="midnightblue" stroke="midnightblue" points="176.633,-237.838 187.171,-238.936 179.618,-231.506 176.633,-237.838"/>
</g>
<!-- Node3 -->
<g id="node3" class="node"><title>Node3</title>
<g id="a_node3"><a xlink:href="$classAP__Baro.html#aae5b3ae28aca807eb20b722a04685061" xlink:title="AP_Baro::get_last_update">
<polygon fill="white" stroke="black" points="168.5,-182.5 168.5,-201.5 299.5,-201.5 299.5,-182.5 168.5,-182.5"/>
<text text-anchor="middle" x="234" y="-189.5" font-family="Helvetica,sans-Serif" font-size="10.00">AP_Baro::get_last_update</text>
</a>
</g>
</g>
<!-- Node1&#45;&gt;Node3 -->
<g id="edge2" class="edge"><title>Node1&#45;&gt;Node3</title>
<path fill="none" stroke="midnightblue" d="M90.898,-144.574C111.249,-152.586 141.343,-164.103 168,-173 174.594,-175.201 181.609,-177.398 188.499,-179.477"/>
<polygon fill="midnightblue" stroke="midnightblue" points="187.859,-182.937 198.441,-182.424 189.848,-176.226 187.859,-182.937"/>
</g>
<!-- Node4 -->
<g id="node4" class="node"><title>Node4</title>
<g id="a_node4"><a xlink:href="$classAP__GPS.html#a9093c8cf1d5a78ccd8677229bb314d37" xlink:title="Query GPS status. ">
<polygon fill="white" stroke="black" points="189.5,-144.5 189.5,-163.5 278.5,-163.5 278.5,-144.5 189.5,-144.5"/>
<text text-anchor="middle" x="234" y="-151.5" font-family="Helvetica,sans-Serif" font-size="10.00">AP_GPS::status</text>
</a>
</g>
</g>
<!-- Node1&#45;&gt;Node4 -->
<g id="edge4" class="edge"><title>Node1&#45;&gt;Node4</title>
<path fill="none" stroke="midnightblue" d="M131.655,-142.4C147.336,-144.195 163.936,-146.095 179.063,-147.826"/>
<polygon fill="midnightblue" stroke="midnightblue" points="178.937,-151.335 189.27,-148.995 179.733,-144.38 178.937,-151.335"/>
</g>
<!-- Node5 -->
<g id="node5" class="node"><title>Node5</title>
<g id="a_node5"><a xlink:href="$classAP__GPS.html#a2ca8a9bad47faad1baeb09e124979022" xlink:title="AP_GPS::location">
<polygon fill="white" stroke="black" points="186,-106.5 186,-125.5 282,-125.5 282,-106.5 186,-106.5"/>
<text text-anchor="middle" x="234" y="-113.5" font-family="Helvetica,sans-Serif" font-size="10.00">AP_GPS::location</text>
</a>
</g>
</g>
<!-- Node1&#45;&gt;Node5 -->
<g id="edge5" class="edge"><title>Node1&#45;&gt;Node5</title>
<path fill="none" stroke="midnightblue" d="M131.655,-127.6C146.233,-125.931 161.605,-124.172 175.85,-122.541"/>
<polygon fill="midnightblue" stroke="midnightblue" points="176.457,-125.995 185.995,-121.38 175.661,-119.04 176.457,-125.995"/>
</g>
<!-- Node6 -->
<g id="node6" class="node"><title>Node6</title>
<g id="a_node6"><a xlink:href="$classAP__Baro.html#ac46bc3a53717630410a48a1c1a5f2444" xlink:title="AP_Baro::get_altitude\l_difference">
<polygon fill="white" stroke="black" points="178,-57 178,-87 290,-87 290,-57 178,-57"/>
<text text-anchor="start" x="186" y="-75" font-family="Helvetica,sans-Serif" font-size="10.00">AP_Baro::get_altitude</text>
<text text-anchor="middle" x="234" y="-64" font-family="Helvetica,sans-Serif" font-size="10.00">_difference</text>
</a>
</g>
</g>
<!-- Node1&#45;&gt;Node6 -->
<g id="edge6" class="edge"><title>Node1&#45;&gt;Node6</title>
<path fill="none" stroke="midnightblue" d="M92.2118,-125.432C116.437,-116.238 153.701,-102.095 183.807,-90.6696"/>
<polygon fill="midnightblue" stroke="midnightblue" points="185.197,-93.8856 193.305,-87.065 182.714,-87.3411 185.197,-93.8856"/>
</g>
<!-- Node8 -->
<g id="node8" class="node"><title>Node8</title>
<g id="a_node8"><a xlink:href="$classAP__Baro.html#aafa0e900262503f0ba84d4cadcf888d7" xlink:title="AP_Baro::get_pressure">
<polygon fill="white" stroke="black" points="175,-0.5 175,-19.5 293,-19.5 293,-0.5 175,-0.5"/>
<text text-anchor="middle" x="234" y="-7.5" font-family="Helvetica,sans-Serif" font-size="10.00">AP_Baro::get_pressure</text>
</a>
</g>
</g>
<!-- Node1&#45;&gt;Node8 -->
<g id="edge9" class="edge"><title>Node1&#45;&gt;Node8</title>
<path fill="none" stroke="midnightblue" d="M76.8182,-125.464C94.3156,-108.724 132.402,-73.4165 168,-48 179.836,-39.5493 193.661,-31.2666 205.511,-24.602"/>
<polygon fill="midnightblue" stroke="midnightblue" points="207.452,-27.5286 214.515,-19.6318 204.069,-21.4003 207.452,-27.5286"/>
</g>
<!-- Node3&#45;&gt;Node3 -->
<g id="edge3" class="edge"><title>Node3&#45;&gt;Node3</title>
<path fill="none" stroke="midnightblue" d="M209.956,-201.757C198.259,-210.565 206.273,-220 234,-220 252.196,-220 261.902,-215.937 263.119,-210.654"/>
<polygon fill="midnightblue" stroke="midnightblue" points="266.039,-208.709 258.044,-201.757 259.959,-212.177 266.039,-208.709"/>
</g>
<!-- Node7 -->
<g id="node7" class="node"><title>Node7</title>
<g id="a_node7"><a xlink:href="$classAP__Baro.html#a56e804f0994a7fa0bb295735002c928e" xlink:title="AP_Baro::get_ground\l_temperature">
<polygon fill="white" stroke="black" points="336,-57 336,-87 446,-87 446,-57 336,-57"/>
<text text-anchor="start" x="344" y="-75" font-family="Helvetica,sans-Serif" font-size="10.00">AP_Baro::get_ground</text>
<text text-anchor="middle" x="391" y="-64" font-family="Helvetica,sans-Serif" font-size="10.00">_temperature</text>
</a>
</g>
</g>
<!-- Node6&#45;&gt;Node7 -->
<g id="edge7" class="edge"><title>Node6&#45;&gt;Node7</title>
<path fill="none" stroke="midnightblue" d="M290.084,-72C301.592,-72 313.822,-72 325.633,-72"/>
<polygon fill="midnightblue" stroke="midnightblue" points="325.875,-75.5001 335.875,-72 325.875,-68.5001 325.875,-75.5001"/>
</g>
<!-- Node7&#45;&gt;Node7 -->
<g id="edge8" class="edge"><title>Node7&#45;&gt;Node7</title>
<path fill="none" stroke="midnightblue" d="M363.578,-87.2754C357.484,-96.4062 366.625,-105 391,-105 405.473,-105 414.575,-101.97 418.306,-97.5975"/>
<polygon fill="midnightblue" stroke="midnightblue" points="421.809,-97.3141 418.422,-87.2754 414.81,-97.2354 421.809,-97.3141"/>
</g>
<!-- Node8&#45;&gt;Node8 -->
<g id="edge10" class="edge"><title>Node8&#45;&gt;Node8</title>
<path fill="none" stroke="midnightblue" d="M209.956,-19.7571C198.259,-28.5653 206.273,-38 234,-38 252.196,-38 261.902,-33.9368 263.119,-28.6539"/>
<polygon fill="midnightblue" stroke="midnightblue" points="266.039,-26.7091 258.044,-19.7571 259.959,-30.1775 266.039,-26.7091"/>
</g>
</g>
</svg>
