<?xml version="1.0" encoding="UTF-8" standalone="no"?>
<!DOCTYPE svg PUBLIC "-//W3C//DTD SVG 1.1//EN"
 "http://www.w3.org/Graphics/SVG/1.1/DTD/svg11.dtd">
<!-- Generated by graphviz version 2.36.0 (20140111.2315)
 -->
<!-- Title: AP_Baro_BMP085::AP_Baro_BMP085 Pages: 1 -->
<svg width="458pt" height="329pt"
 viewBox="0.00 0.00 458.00 329.00" xmlns="http://www.w3.org/2000/svg" xmlns:xlink="http://www.w3.org/1999/xlink">
<g id="graph0" class="graph" transform="scale(1 1) rotate(0) translate(4 325)">
<title>AP_Baro_BMP085::AP_Baro_BMP085</title>
<polygon fill="white" stroke="none" points="-4,4 -4,-325 454,-325 454,4 -4,4"/>
<!-- Node1 -->
<g id="node1" class="node"><title>Node1</title>
<polygon fill="#bfbfbf" stroke="black" points="0,-149 0,-179 118,-179 118,-149 0,-149"/>
<text text-anchor="start" x="8" y="-167" font-family="Helvetica,sans-Serif" font-size="10.00">AP_Baro_BMP085::AP</text>
<text text-anchor="middle" x="59" y="-156" font-family="Helvetica,sans-Serif" font-size="10.00">_Baro_BMP085</text>
</g>
<!-- Node2 -->
<g id="node2" class="node"><title>Node2</title>
<g id="a_node2"><a xlink:href="$classAP__HAL_1_1I2CDriver.html#a373424b46be08ef36d53844f88b5398e" xlink:title="AP_HAL::I2CDriver::\lget_semaphore">
<polygon fill="white" stroke="black" points="174.5,-291 174.5,-321 283.5,-321 283.5,-291 174.5,-291"/>
<text text-anchor="start" x="182.5" y="-309" font-family="Helvetica,sans-Serif" font-size="10.00">AP_HAL::I2CDriver::</text>
<text text-anchor="middle" x="229" y="-298" font-family="Helvetica,sans-Serif" font-size="10.00">get_semaphore</text>
</a>
</g>
</g>
<!-- Node1&#45;&gt;Node2 -->
<g id="edge1" class="edge"><title>Node1&#45;&gt;Node2</title>
<path fill="none" stroke="midnightblue" d="M68.3301,-179.233C82.6524,-204.056 114.273,-253.241 154,-281 157.501,-283.447 161.262,-285.67 165.164,-287.687"/>
<polygon fill="midnightblue" stroke="midnightblue" points="163.93,-290.974 174.472,-292.03 166.889,-284.63 163.93,-290.974"/>
</g>
<!-- Node3 -->
<g id="node3" class="node"><title>Node3</title>
<g id="a_node3"><a xlink:href="$classAP__HAL_1_1Semaphore.html#abd3a0affad8bb211981a979f30386589" xlink:title="AP_HAL::Semaphore::take">
<polygon fill="white" stroke="black" points="161.5,-252.5 161.5,-271.5 296.5,-271.5 296.5,-252.5 161.5,-252.5"/>
<text text-anchor="middle" x="229" y="-259.5" font-family="Helvetica,sans-Serif" font-size="10.00">AP_HAL::Semaphore::take</text>
</a>
</g>
</g>
<!-- Node1&#45;&gt;Node3 -->
<g id="edge2" class="edge"><title>Node1&#45;&gt;Node3</title>
<path fill="none" stroke="midnightblue" d="M75.7281,-179.287C93.4566,-195.787 123.767,-221.864 154,-238 162.138,-242.343 171.2,-246.077 180.115,-249.218"/>
<polygon fill="midnightblue" stroke="midnightblue" points="179.086,-252.564 189.68,-252.394 181.292,-245.921 179.086,-252.564"/>
</g>
<!-- Node4 -->
<g id="node4" class="node"><title>Node4</title>
<g id="a_node4"><a xlink:href="$classAP__HAL_1_1Scheduler.html#a65f0d4e404d3e6fda4d8b0b101c9780f" xlink:title="AP_HAL::Scheduler::\lpanic">
<polygon fill="white" stroke="black" points="340,-161 340,-191 450,-191 450,-161 340,-161"/>
<text text-anchor="start" x="348" y="-179" font-family="Helvetica,sans-Serif" font-size="10.00">AP_HAL::Scheduler::</text>
<text text-anchor="middle" x="395" y="-168" font-family="Helvetica,sans-Serif" font-size="10.00">panic</text>
</a>
</g>
</g>
<!-- Node1&#45;&gt;Node4 -->
<g id="edge3" class="edge"><title>Node1&#45;&gt;Node4</title>
<path fill="none" stroke="midnightblue" d="M86.5726,-179.113C104.88,-188.627 130.122,-200.019 154,-205 219.262,-218.613 238.141,-215.349 304,-205 318.094,-202.785 332.99,-198.732 346.521,-194.344"/>
<polygon fill="midnightblue" stroke="midnightblue" points="347.745,-197.625 356.1,-191.111 345.506,-190.993 347.745,-197.625"/>
</g>
<!-- Node5 -->
<g id="node5" class="node"><title>Node5</title>
<g id="a_node5"><a xlink:href="$classAP__HAL_1_1GPIO.html#a3dfc60214bd1aa4936d51ca72c045b95" xlink:title="AP_HAL::GPIO::pinMode">
<polygon fill="white" stroke="black" points="165,-176.5 165,-195.5 293,-195.5 293,-176.5 165,-176.5"/>
<text text-anchor="middle" x="229" y="-183.5" font-family="Helvetica,sans-Serif" font-size="10.00">AP_HAL::GPIO::pinMode</text>
</a>
</g>
</g>
<!-- Node1&#45;&gt;Node5 -->
<g id="edge4" class="edge"><title>Node1&#45;&gt;Node5</title>
<path fill="none" stroke="midnightblue" d="M118.287,-171.633C130.059,-173.174 142.577,-174.814 154.786,-176.412"/>
<polygon fill="midnightblue" stroke="midnightblue" points="154.576,-179.915 164.945,-177.743 155.485,-172.974 154.576,-179.915"/>
</g>
<!-- Node6 -->
<g id="node6" class="node"><title>Node6</title>
<g id="a_node6"><a xlink:href="$classAP__HAL_1_1I2CDriver.html#a5826f44fd0ab5a87db1c14f5a3d55561" xlink:title="AP_HAL::I2CDriver::\lreadRegisters">
<polygon fill="white" stroke="black" points="174.5,-127 174.5,-157 283.5,-157 283.5,-127 174.5,-127"/>
<text text-anchor="start" x="182.5" y="-145" font-family="Helvetica,sans-Serif" font-size="10.00">AP_HAL::I2CDriver::</text>
<text text-anchor="middle" x="229" y="-134" font-family="Helvetica,sans-Serif" font-size="10.00">readRegisters</text>
</a>
</g>
</g>
<!-- Node1&#45;&gt;Node6 -->
<g id="edge5" class="edge"><title>Node1&#45;&gt;Node6</title>
<path fill="none" stroke="midnightblue" d="M118.287,-156.367C133.071,-154.431 149.031,-152.341 164.078,-150.371"/>
<polygon fill="midnightblue" stroke="midnightblue" points="164.863,-153.798 174.324,-149.029 163.954,-146.857 164.863,-153.798"/>
</g>
<!-- Node7 -->
<g id="node7" class="node"><title>Node7</title>
<g id="a_node7"><a xlink:href="$classAP__Baro.html#a2679b96d8c843053af9c658ff3efad73" xlink:title="AP_Baro::register_sensor">
<polygon fill="white" stroke="black" points="165,-88.5 165,-107.5 293,-107.5 293,-88.5 165,-88.5"/>
<text text-anchor="middle" x="229" y="-95.5" font-family="Helvetica,sans-Serif" font-size="10.00">AP_Baro::register_sensor</text>
</a>
</g>
</g>
<!-- Node1&#45;&gt;Node7 -->
<g id="edge6" class="edge"><title>Node1&#45;&gt;Node7</title>
<path fill="none" stroke="midnightblue" d="M87.3529,-148.884C105.787,-139.133 130.87,-126.694 154,-118 161.445,-115.202 169.447,-112.62 177.341,-110.306"/>
<polygon fill="midnightblue" stroke="midnightblue" points="178.553,-113.601 187.23,-107.522 176.656,-106.863 178.553,-113.601"/>
</g>
<!-- Node8 -->
<g id="node8" class="node"><title>Node8</title>
<g id="a_node8"><a xlink:href="$classAP__Baro__BMP085.html#a1d67783c485f23ca9c80a97bd5722c21" xlink:title="AP_Baro_BMP085::Command\l_ReadTemp">
<polygon fill="white" stroke="black" points="154.5,-39 154.5,-69 303.5,-69 303.5,-39 154.5,-39"/>
<text text-anchor="start" x="162.5" y="-57" font-family="Helvetica,sans-Serif" font-size="10.00">AP_Baro_BMP085::Command</text>
<text text-anchor="middle" x="229" y="-46" font-family="Helvetica,sans-Serif" font-size="10.00">_ReadTemp</text>
</a>
</g>
</g>
<!-- Node1&#45;&gt;Node8 -->
<g id="edge8" class="edge"><title>Node1&#45;&gt;Node8</title>
<path fill="none" stroke="midnightblue" d="M73.1767,-148.735C90.1452,-129.935 121.357,-98.1469 154,-79 157.619,-76.8774 161.444,-74.9027 165.372,-73.0712"/>
<polygon fill="midnightblue" stroke="midnightblue" points="166.883,-76.2313 174.677,-69.0552 164.109,-69.8043 166.883,-76.2313"/>
</g>
<!-- Node11 -->
<g id="node11" class="node"><title>Node11</title>
<g id="a_node11"><a xlink:href="$classAP__HAL_1_1Semaphore.html#afcdbf03d5bea9d83037acc93bfaea7ce" xlink:title="AP_HAL::Semaphore::give">
<polygon fill="white" stroke="black" points="162,-0.5 162,-19.5 296,-19.5 296,-0.5 162,-0.5"/>
<text text-anchor="middle" x="229" y="-7.5" font-family="Helvetica,sans-Serif" font-size="10.00">AP_HAL::Semaphore::give</text>
</a>
</g>
</g>
<!-- Node1&#45;&gt;Node11 -->
<g id="edge11" class="edge"><title>Node1&#45;&gt;Node11</title>
<path fill="none" stroke="midnightblue" d="M66.2424,-148.77C78.6048,-120.575 108.96,-60.2752 154,-29 156.865,-27.0106 159.922,-25.2294 163.102,-23.6347"/>
<polygon fill="midnightblue" stroke="midnightblue" points="164.559,-26.8177 172.33,-19.6159 161.764,-20.3999 164.559,-26.8177"/>
</g>
<!-- Node7&#45;&gt;Node4 -->
<g id="edge7" class="edge"><title>Node7&#45;&gt;Node4</title>
<path fill="none" stroke="midnightblue" d="M274.209,-107.556C284.21,-110.371 294.636,-113.838 304,-118 326.132,-127.836 349.048,-142.683 366.217,-154.893"/>
<polygon fill="midnightblue" stroke="midnightblue" points="364.487,-157.962 374.637,-160.997 368.595,-152.294 364.487,-157.962"/>
</g>
<!-- Node9 -->
<g id="node9" class="node"><title>Node9</title>
<g id="a_node9"><a xlink:href="$classAP__HAL_1_1I2CDriver.html#a8e28e01b86bd1cb03efb7162f340444e" xlink:title="AP_HAL::I2CDriver::\lwriteRegister">
<polygon fill="white" stroke="black" points="340.5,-64 340.5,-94 449.5,-94 449.5,-64 340.5,-64"/>
<text text-anchor="start" x="348.5" y="-82" font-family="Helvetica,sans-Serif" font-size="10.00">AP_HAL::I2CDriver::</text>
<text text-anchor="middle" x="395" y="-71" font-family="Helvetica,sans-Serif" font-size="10.00">writeRegister</text>
</a>
</g>
</g>
<!-- Node8&#45;&gt;Node9 -->
<g id="edge9" class="edge"><title>Node8&#45;&gt;Node9</title>
<path fill="none" stroke="midnightblue" d="M303.844,-65.2567C312.644,-66.5981 321.57,-67.9588 330.211,-69.2761"/>
<polygon fill="midnightblue" stroke="midnightblue" points="329.788,-72.7519 340.201,-70.7989 330.843,-65.8318 329.788,-72.7519"/>
</g>
<!-- Node10 -->
<g id="node10" class="node"><title>Node10</title>
<g id="a_node10"><a xlink:href="$classAP__HAL_1_1Scheduler.html#a26b68339fc68a562d8d3a1238d0ec8c1" xlink:title="AP_HAL::Scheduler::\lmillis">
<polygon fill="white" stroke="black" points="340,-15 340,-45 450,-45 450,-15 340,-15"/>
<text text-anchor="start" x="348" y="-33" font-family="Helvetica,sans-Serif" font-size="10.00">AP_HAL::Scheduler::</text>
<text text-anchor="middle" x="395" y="-22" font-family="Helvetica,sans-Serif" font-size="10.00">millis</text>
</a>
</g>
</g>
<!-- Node8&#45;&gt;Node10 -->
<g id="edge10" class="edge"><title>Node8&#45;&gt;Node10</title>
<path fill="none" stroke="midnightblue" d="M303.844,-43.1936C312.427,-41.9375 321.13,-40.6639 329.573,-39.4284"/>
<polygon fill="midnightblue" stroke="midnightblue" points="330.328,-42.8552 339.716,-37.944 329.315,-35.929 330.328,-42.8552"/>
</g>
</g>
</svg>
