<?xml version="1.0" encoding="UTF-8" standalone="no"?>
<!DOCTYPE svg PUBLIC "-//W3C//DTD SVG 1.1//EN"
 "http://www.w3.org/Graphics/SVG/1.1/DTD/svg11.dtd">
<!-- Generated by graphviz version 2.36.0 (20140111.2315)
 -->
<!-- Title: GetOptLong::getoption Pages: 1 -->
<svg width="548pt" height="38pt"
 viewBox="0.00 0.00 548.00 38.00" xmlns="http://www.w3.org/2000/svg" xmlns:xlink="http://www.w3.org/1999/xlink">
<g id="graph0" class="graph" transform="scale(1 1) rotate(0) translate(4 34)">
<title>GetOptLong::getoption</title>
<polygon fill="white" stroke="none" points="-4,4 -4,-34 544,-34 544,4 -4,4"/>
<!-- Node1 -->
<g id="node1" class="node"><title>Node1</title>
<polygon fill="#bfbfbf" stroke="black" points="0.5,-5.5 0.5,-24.5 115.5,-24.5 115.5,-5.5 0.5,-5.5"/>
<text text-anchor="middle" x="58" y="-12.5" font-family="Helvetica,sans-Serif" font-size="10.00">GetOptLong::getoption</text>
</g>
<!-- Node2 -->
<g id="node2" class="node"><title>Node2</title>
<g id="a_node2"><a xlink:href="$classHALSITL_1_1SITL__State.html#a5211ba971055052489d9817c3388c4c2" xlink:title="HALSITL::SITL_State\l::_parse_command_line">
<polygon fill="white" stroke="black" points="152,-0 152,-30 272,-30 272,-0 152,-0"/>
<text text-anchor="start" x="160" y="-18" font-family="Helvetica,sans-Serif" font-size="10.00">HALSITL::SITL_State</text>
<text text-anchor="middle" x="212" y="-7" font-family="Helvetica,sans-Serif" font-size="10.00">::_parse_command_line</text>
</a>
</g>
</g>
<!-- Node1&#45;&gt;Node2 -->
<g id="edge1" class="edge"><title>Node1&#45;&gt;Node2</title>
<path fill="none" stroke="midnightblue" d="M125.701,-15C134.394,-15 143.252,-15 151.811,-15"/>
<polygon fill="midnightblue" stroke="midnightblue" points="125.599,-11.5001 115.599,-15 125.599,-18.5001 125.599,-11.5001"/>
</g>
<!-- Node3 -->
<g id="node3" class="node"><title>Node3</title>
<g id="a_node3"><a xlink:href="$classHALSITL_1_1SITL__State.html#a7059cb4e279007aae9b06757a68c15af" xlink:title="HALSITL::SITL_State\l::init">
<polygon fill="white" stroke="black" points="308.5,-0 308.5,-30 421.5,-30 421.5,-0 308.5,-0"/>
<text text-anchor="start" x="316.5" y="-18" font-family="Helvetica,sans-Serif" font-size="10.00">HALSITL::SITL_State</text>
<text text-anchor="middle" x="365" y="-7" font-family="Helvetica,sans-Serif" font-size="10.00">::init</text>
</a>
</g>
</g>
<!-- Node2&#45;&gt;Node3 -->
<g id="edge2" class="edge"><title>Node2&#45;&gt;Node3</title>
<path fill="none" stroke="midnightblue" d="M282.391,-15C291.099,-15 299.917,-15 308.376,-15"/>
<polygon fill="midnightblue" stroke="midnightblue" points="282.246,-11.5001 272.246,-15 282.246,-18.5001 282.246,-11.5001"/>
</g>
<!-- Node4 -->
<g id="node4" class="node"><title>Node4</title>
<g id="a_node4"><a xlink:href="$classHAL__SITL.html#aaee5180f1c92899c19422d24a3ec42d3" xlink:title="HAL_SITL::init">
<polygon fill="white" stroke="black" points="458.5,-5.5 458.5,-24.5 539.5,-24.5 539.5,-5.5 458.5,-5.5"/>
<text text-anchor="middle" x="499" y="-12.5" font-family="Helvetica,sans-Serif" font-size="10.00">HAL_SITL::init</text>
</a>
</g>
</g>
<!-- Node3&#45;&gt;Node4 -->
<g id="edge3" class="edge"><title>Node3&#45;&gt;Node4</title>
<path fill="none" stroke="midnightblue" d="M431.845,-15C440.957,-15 450.072,-15 458.496,-15"/>
<polygon fill="midnightblue" stroke="midnightblue" points="431.597,-11.5001 421.597,-15 431.597,-18.5001 431.597,-11.5001"/>
</g>
</g>
</svg>
