<?xml version="1.0" encoding="UTF-8" standalone="no"?>
<!DOCTYPE svg PUBLIC "-//W3C//DTD SVG 1.1//EN"
 "http://www.w3.org/Graphics/SVG/1.1/DTD/svg11.dtd">
<!-- Generated by graphviz version 2.36.0 (20140111.2315)
 -->
<!-- Title: AP_AHRS_DCM::check_matrix Pages: 1 -->
<svg width="798pt" height="154pt"
 viewBox="0.00 0.00 798.00 154.00" xmlns="http://www.w3.org/2000/svg" xmlns:xlink="http://www.w3.org/1999/xlink">
<g id="graph0" class="graph" transform="scale(1 1) rotate(0) translate(4 150)">
<title>AP_AHRS_DCM::check_matrix</title>
<polygon fill="white" stroke="none" points="-4,4 -4,-150 794,-150 794,4 -4,4"/>
<!-- Node1 -->
<g id="node1" class="node"><title>Node1</title>
<polygon fill="#bfbfbf" stroke="black" points="0.5,-77 0.5,-107 125.5,-107 125.5,-77 0.5,-77"/>
<text text-anchor="start" x="8.5" y="-95" font-family="Helvetica,sans-Serif" font-size="10.00">AP_AHRS_DCM::check</text>
<text text-anchor="middle" x="63" y="-84" font-family="Helvetica,sans-Serif" font-size="10.00">_matrix</text>
</g>
<!-- Node2 -->
<g id="node2" class="node"><title>Node2</title>
<g id="a_node2"><a xlink:href="$classMatrix3.html#a2c69227a793818d8a8f47e99ffa99885" xlink:title="Matrix3::is_nan">
<polygon fill="white" stroke="black" points="190.5,-120.5 190.5,-139.5 273.5,-139.5 273.5,-120.5 190.5,-120.5"/>
<text text-anchor="middle" x="232" y="-127.5" font-family="Helvetica,sans-Serif" font-size="10.00">Matrix3::is_nan</text>
</a>
</g>
</g>
<!-- Node1&#45;&gt;Node2 -->
<g id="edge1" class="edge"><title>Node1&#45;&gt;Node2</title>
<path fill="none" stroke="midnightblue" d="M125.71,-106.042C143.73,-110.142 163.205,-114.574 180.448,-118.497"/>
<polygon fill="midnightblue" stroke="midnightblue" points="179.787,-121.936 190.314,-120.742 181.34,-115.111 179.787,-121.936"/>
</g>
<!-- Node3 -->
<g id="node3" class="node"><title>Node3</title>
<g id="a_node3"><a xlink:href="$classAP__AHRS__DCM.html#ab7eaf00b45361ca1c55149781c10bb82" xlink:title="AP_AHRS_DCM::reset">
<polygon fill="white" stroke="black" points="342,-82.5 342,-101.5 462,-101.5 462,-82.5 342,-82.5"/>
<text text-anchor="middle" x="402" y="-89.5" font-family="Helvetica,sans-Serif" font-size="10.00">AP_AHRS_DCM::reset</text>
</a>
</g>
</g>
<!-- Node1&#45;&gt;Node3 -->
<g id="edge2" class="edge"><title>Node1&#45;&gt;Node3</title>
<path fill="none" stroke="midnightblue" d="M125.811,-92C184.01,-92 271.055,-92 331.609,-92"/>
<polygon fill="midnightblue" stroke="midnightblue" points="331.841,-95.5001 341.841,-92 331.841,-88.5001 331.841,-95.5001"/>
</g>
<!-- Node7 -->
<g id="node7" class="node"><title>Node7</title>
<g id="a_node7"><a xlink:href="$classAP__AHRS__DCM.html#ace68e355f57ff433c22fab05ebecd549" xlink:title="AP_AHRS_DCM::normalize">
<polygon fill="white" stroke="black" points="162,-44.5 162,-63.5 302,-63.5 302,-44.5 162,-44.5"/>
<text text-anchor="middle" x="232" y="-51.5" font-family="Helvetica,sans-Serif" font-size="10.00">AP_AHRS_DCM::normalize</text>
</a>
</g>
</g>
<!-- Node1&#45;&gt;Node7 -->
<g id="edge6" class="edge"><title>Node1&#45;&gt;Node7</title>
<path fill="none" stroke="midnightblue" d="M125.71,-77.9582C143.177,-73.9838 162.011,-69.6982 178.854,-65.8656"/>
<polygon fill="midnightblue" stroke="midnightblue" points="180.079,-69.1763 189.053,-63.5447 178.526,-62.3508 180.079,-69.1763"/>
</g>
<!-- Node4 -->
<g id="node4" class="node"><title>Node4</title>
<g id="a_node4"><a xlink:href="$classVector3.html#adf1769d5ee5df2f8585df2f540fa5efe" xlink:title="Vector3::zero">
<polygon fill="white" stroke="black" points="519.5,-126.5 519.5,-145.5 594.5,-145.5 594.5,-126.5 519.5,-126.5"/>
<text text-anchor="middle" x="557" y="-133.5" font-family="Helvetica,sans-Serif" font-size="10.00">Vector3::zero</text>
</a>
</g>
</g>
<!-- Node3&#45;&gt;Node4 -->
<g id="edge3" class="edge"><title>Node3&#45;&gt;Node4</title>
<path fill="none" stroke="midnightblue" d="M436.199,-101.547C458.754,-108.034 488.798,-116.674 513.156,-123.679"/>
<polygon fill="midnightblue" stroke="midnightblue" points="512.288,-127.071 522.866,-126.471 514.223,-120.344 512.288,-127.071"/>
</g>
<!-- Node5 -->
<g id="node5" class="node"><title>Node5</title>
<g id="a_node5"><a xlink:href="$classMatrix3.html#a62587bd216436f09f06b9e1330f84bc0" xlink:title="&#45;*&#45; tab&#45;width: 4; Mode: C++; c&#45;basic&#45;offset: 4; indent&#45;tabs&#45;mode: nil &#45;*&#45; ">
<polygon fill="white" stroke="black" points="506.5,-88.5 506.5,-107.5 607.5,-107.5 607.5,-88.5 506.5,-88.5"/>
<text text-anchor="middle" x="557" y="-95.5" font-family="Helvetica,sans-Serif" font-size="10.00">Matrix3::from_euler</text>
</a>
</g>
</g>
<!-- Node3&#45;&gt;Node5 -->
<g id="edge4" class="edge"><title>Node3&#45;&gt;Node5</title>
<path fill="none" stroke="midnightblue" d="M462.154,-94.3198C473.356,-94.7591 485.082,-95.2189 496.302,-95.6589"/>
<polygon fill="midnightblue" stroke="midnightblue" points="496.303,-99.1615 506.433,-96.0562 496.577,-92.1669 496.303,-99.1615"/>
</g>
<!-- Node6 -->
<g id="node6" class="node"><title>Node6</title>
<g id="a_node6"><a xlink:href="$classAP__HAL_1_1Scheduler.html#a26b68339fc68a562d8d3a1238d0ec8c1" xlink:title="AP_HAL::Scheduler::\lmillis">
<polygon fill="white" stroke="black" points="502,-39 502,-69 612,-69 612,-39 502,-39"/>
<text text-anchor="start" x="510" y="-57" font-family="Helvetica,sans-Serif" font-size="10.00">AP_HAL::Scheduler::</text>
<text text-anchor="middle" x="557" y="-46" font-family="Helvetica,sans-Serif" font-size="10.00">millis</text>
</a>
</g>
</g>
<!-- Node3&#45;&gt;Node6 -->
<g id="edge5" class="edge"><title>Node3&#45;&gt;Node6</title>
<path fill="none" stroke="midnightblue" d="M441.608,-82.411C456.853,-78.6248 474.783,-74.1716 491.867,-69.9284"/>
<polygon fill="midnightblue" stroke="midnightblue" points="492.941,-73.2682 501.802,-67.4609 491.253,-66.4746 492.941,-73.2682"/>
</g>
<!-- Node7&#45;&gt;Node3 -->
<g id="edge12" class="edge"><title>Node7&#45;&gt;Node3</title>
<path fill="none" stroke="midnightblue" d="M275.393,-63.589C297.763,-68.6487 325.398,-74.8996 349.047,-80.2488"/>
<polygon fill="midnightblue" stroke="midnightblue" points="348.386,-83.6875 358.911,-82.4799 349.93,-76.8599 348.386,-83.6875"/>
</g>
<!-- Node7&#45;&gt;Node6 -->
<g id="edge11" class="edge"><title>Node7&#45;&gt;Node6</title>
<path fill="none" stroke="midnightblue" d="M302.292,-54C358.366,-54 436.744,-54 491.495,-54"/>
<polygon fill="midnightblue" stroke="midnightblue" points="491.775,-57.5001 501.775,-54 491.775,-50.5001 491.775,-57.5001"/>
</g>
<!-- Node8 -->
<g id="node8" class="node"><title>Node8</title>
<g id="a_node8"><a xlink:href="$classAP__AHRS__DCM.html#a4e552fb518628edd09e649cebb091363" xlink:title="AP_AHRS_DCM::renorm">
<polygon fill="white" stroke="black" points="338,-3.5 338,-22.5 466,-22.5 466,-3.5 338,-3.5"/>
<text text-anchor="middle" x="402" y="-10.5" font-family="Helvetica,sans-Serif" font-size="10.00">AP_AHRS_DCM::renorm</text>
</a>
</g>
</g>
<!-- Node7&#45;&gt;Node8 -->
<g id="edge7" class="edge"><title>Node7&#45;&gt;Node8</title>
<path fill="none" stroke="midnightblue" d="M271.965,-44.4907C295.84,-38.6642 326.605,-31.1558 352.107,-24.9322"/>
<polygon fill="midnightblue" stroke="midnightblue" points="353.071,-28.2998 361.956,-22.5286 351.411,-21.4994 353.071,-28.2998"/>
</g>
<!-- Node9 -->
<g id="node9" class="node"><title>Node9</title>
<g id="a_node9"><a xlink:href="$classVector3.html#ac1fd5514e368a1e1c2d13f71eda18345" xlink:title="Vector3::length">
<polygon fill="white" stroke="black" points="515.5,-0.5 515.5,-19.5 598.5,-19.5 598.5,-0.5 515.5,-0.5"/>
<text text-anchor="middle" x="557" y="-7.5" font-family="Helvetica,sans-Serif" font-size="10.00">Vector3::length</text>
</a>
</g>
</g>
<!-- Node8&#45;&gt;Node9 -->
<g id="edge8" class="edge"><title>Node8&#45;&gt;Node9</title>
<path fill="none" stroke="midnightblue" d="M466.114,-11.7625C479.105,-11.5078 492.627,-11.2426 505.118,-10.9977"/>
<polygon fill="midnightblue" stroke="midnightblue" points="505.405,-14.4928 515.335,-10.7974 505.268,-7.49417 505.405,-14.4928"/>
</g>
<!-- Node10 -->
<g id="node10" class="node"><title>Node10</title>
<g id="a_node10"><a xlink:href="$AP__Math_8cpp.html#ac09c78b18c2ad21b9a04081f119f11c0" xlink:title="pythagorous3">
<polygon fill="white" stroke="black" points="648.5,-0.5 648.5,-19.5 723.5,-19.5 723.5,-0.5 648.5,-0.5"/>
<text text-anchor="middle" x="686" y="-7.5" font-family="Helvetica,sans-Serif" font-size="10.00">pythagorous3</text>
</a>
</g>
</g>
<!-- Node9&#45;&gt;Node10 -->
<g id="edge9" class="edge"><title>Node9&#45;&gt;Node10</title>
<path fill="none" stroke="midnightblue" d="M598.533,-10C611.134,-10 625.131,-10 638.127,-10"/>
<polygon fill="midnightblue" stroke="midnightblue" points="638.29,-13.5001 648.29,-10 638.29,-6.5001 638.29,-13.5001"/>
</g>
<!-- Node11 -->
<g id="node11" class="node"><title>Node11</title>
<g id="a_node11"><a xlink:href="$AP__Math_8cpp.html#a996fdbe87607543eef5dcb234f6bc017" xlink:title="sq">
<polygon fill="white" stroke="black" points="760.5,-0.5 760.5,-19.5 789.5,-19.5 789.5,-0.5 760.5,-0.5"/>
<text text-anchor="middle" x="775" y="-7.5" font-family="Helvetica,sans-Serif" font-size="10.00">sq</text>
</a>
</g>
</g>
<!-- Node10&#45;&gt;Node11 -->
<g id="edge10" class="edge"><title>Node10&#45;&gt;Node11</title>
<path fill="none" stroke="midnightblue" d="M723.644,-10C732.583,-10 741.919,-10 750.089,-10"/>
<polygon fill="midnightblue" stroke="midnightblue" points="750.361,-13.5001 760.361,-10 750.361,-6.5001 750.361,-13.5001"/>
</g>
</g>
</svg>
