<?xml version="1.0" encoding="UTF-8" standalone="no"?>
<!DOCTYPE svg PUBLIC "-//W3C//DTD SVG 1.1//EN"
 "http://www.w3.org/Graphics/SVG/1.1/DTD/svg11.dtd">
<!-- Generated by graphviz version 2.36.0 (20140111.2315)
 -->
<!-- Title: AP_Param::setup_sketch_defaults Pages: 1 -->
<svg width="1070pt" height="179pt"
 viewBox="0.00 0.00 1070.00 179.00" xmlns="http://www.w3.org/2000/svg" xmlns:xlink="http://www.w3.org/1999/xlink">
<g id="graph0" class="graph" transform="scale(1 1) rotate(0) translate(4 175)">
<title>AP_Param::setup_sketch_defaults</title>
<polygon fill="white" stroke="none" points="-4,4 -4,-175 1066,-175 1066,4 -4,4"/>
<!-- Node1 -->
<g id="node1" class="node"><title>Node1</title>
<polygon fill="#bfbfbf" stroke="black" points="0,-45 0,-75 128,-75 128,-45 0,-45"/>
<text text-anchor="start" x="8" y="-63" font-family="Helvetica,sans-Serif" font-size="10.00">AP_Param::setup_sketch</text>
<text text-anchor="middle" x="64" y="-52" font-family="Helvetica,sans-Serif" font-size="10.00">_defaults</text>
</g>
<!-- Node2 -->
<g id="node2" class="node"><title>Node2</title>
<g id="a_node2"><a xlink:href="$classAP__Param.html#acc939142d878b2e6153487e2837d9ea9" xlink:title="AP_Param::setup">
<polygon fill="white" stroke="black" points="176,-88.5 176,-107.5 270,-107.5 270,-88.5 176,-88.5"/>
<text text-anchor="middle" x="223" y="-95.5" font-family="Helvetica,sans-Serif" font-size="10.00">AP_Param::setup</text>
</a>
</g>
</g>
<!-- Node1&#45;&gt;Node2 -->
<g id="edge1" class="edge"><title>Node1&#45;&gt;Node2</title>
<path fill="none" stroke="midnightblue" d="M127.051,-75.0186C142.232,-78.6931 158.273,-82.5757 172.762,-86.0826"/>
<polygon fill="midnightblue" stroke="midnightblue" points="171.973,-89.4924 182.515,-88.4432 173.619,-82.6889 171.973,-89.4924"/>
</g>
<!-- Node12 -->
<g id="node12" class="node"><title>Node12</title>
<g id="a_node12"><a xlink:href="$classAP__Param.html#acd4b14f793c37f162e298761d2155ca6" xlink:title="AP_Param::set_value">
<polygon fill="white" stroke="black" points="167,-50.5 167,-69.5 279,-69.5 279,-50.5 167,-50.5"/>
<text text-anchor="middle" x="223" y="-57.5" font-family="Helvetica,sans-Serif" font-size="10.00">AP_Param::set_value</text>
</a>
</g>
</g>
<!-- Node1&#45;&gt;Node12 -->
<g id="edge14" class="edge"><title>Node1&#45;&gt;Node12</title>
<path fill="none" stroke="midnightblue" d="M128.405,-60C137.78,-60 147.453,-60 156.863,-60"/>
<polygon fill="midnightblue" stroke="midnightblue" points="156.943,-63.5001 166.943,-60 156.943,-56.5001 156.943,-63.5001"/>
</g>
<!-- Node13 -->
<g id="node13" class="node"><title>Node13</title>
<g id="a_node13"><a xlink:href="$classAP__Param.html#a1f6efebd94bc8bfd16db8d73ad3018c6" xlink:title="AP_Param::get_default\l_value">
<polygon fill="white" stroke="black" points="164,-1 164,-31 282,-31 282,-1 164,-1"/>
<text text-anchor="start" x="172" y="-19" font-family="Helvetica,sans-Serif" font-size="10.00">AP_Param::get_default</text>
<text text-anchor="middle" x="223" y="-8" font-family="Helvetica,sans-Serif" font-size="10.00">_value</text>
</a>
</g>
</g>
<!-- Node1&#45;&gt;Node13 -->
<g id="edge15" class="edge"><title>Node1&#45;&gt;Node13</title>
<path fill="none" stroke="midnightblue" d="M118.591,-44.9808C131.404,-41.39 145.204,-37.5224 158.419,-33.819"/>
<polygon fill="midnightblue" stroke="midnightblue" points="159.699,-37.095 168.384,-31.0262 157.81,-30.3547 159.699,-37.095"/>
</g>
<!-- Node3 -->
<g id="node3" class="node"><title>Node3</title>
<g id="a_node3"><a xlink:href="$classStorageAccess.html#ab2a8575d541549a15645edc360fdaa91" xlink:title="StorageAccess::read\l_block">
<polygon fill="white" stroke="black" points="795,-102 795,-132 903,-132 903,-102 795,-102"/>
<text text-anchor="start" x="803" y="-120" font-family="Helvetica,sans-Serif" font-size="10.00">StorageAccess::read</text>
<text text-anchor="middle" x="849" y="-109" font-family="Helvetica,sans-Serif" font-size="10.00">_block</text>
</a>
</g>
</g>
<!-- Node2&#45;&gt;Node3 -->
<g id="edge2" class="edge"><title>Node2&#45;&gt;Node3</title>
<path fill="none" stroke="midnightblue" d="M270.138,-99.4048C380.246,-102.757 658.569,-111.232 784.442,-115.065"/>
<polygon fill="midnightblue" stroke="midnightblue" points="784.587,-118.571 794.689,-115.377 784.8,-111.574 784.587,-118.571"/>
</g>
<!-- Node7 -->
<g id="node7" class="node"><title>Node7</title>
<g id="a_node7"><a xlink:href="$classAP__Param.html#a4a86ea5356adc75cd1cf80ec01f0dfa8" xlink:title="AP_Param::erase_all">
<polygon fill="white" stroke="black" points="318.5,-69.5 318.5,-88.5 427.5,-88.5 427.5,-69.5 318.5,-69.5"/>
<text text-anchor="middle" x="373" y="-76.5" font-family="Helvetica,sans-Serif" font-size="10.00">AP_Param::erase_all</text>
</a>
</g>
</g>
<!-- Node2&#45;&gt;Node7 -->
<g id="edge6" class="edge"><title>Node2&#45;&gt;Node7</title>
<path fill="none" stroke="midnightblue" d="M270.017,-92.0924C282.136,-90.5366 295.429,-88.83 308.299,-87.1779"/>
<polygon fill="midnightblue" stroke="midnightblue" points="309.025,-90.6134 318.498,-85.8685 308.134,-83.6704 309.025,-90.6134"/>
</g>
<!-- Node4 -->
<g id="node4" class="node"><title>Node4</title>
<g id="a_node4"><a xlink:href="$AP__Progmem__Identity_8h.html#a9fc333349fa71fdc21a2d5152c5e23a2" xlink:title="pgm_read_word">
<polygon fill="white" stroke="black" points="958,-102.5 958,-121.5 1044,-121.5 1044,-102.5 958,-102.5"/>
<text text-anchor="middle" x="1001" y="-109.5" font-family="Helvetica,sans-Serif" font-size="10.00">pgm_read_word</text>
</a>
</g>
</g>
<!-- Node3&#45;&gt;Node4 -->
<g id="edge3" class="edge"><title>Node3&#45;&gt;Node4</title>
<path fill="none" stroke="midnightblue" d="M903.307,-115.223C917.672,-114.744 933.199,-114.227 947.519,-113.749"/>
<polygon fill="midnightblue" stroke="midnightblue" points="947.821,-117.241 957.699,-113.41 947.588,-110.245 947.821,-117.241"/>
</g>
<!-- Node5 -->
<g id="node5" class="node"><title>Node5</title>
<g id="a_node5"><a xlink:href="$AP__Progmem__Identity_8h.html#a1514e0408e036062b4af844baaf567da" xlink:title="pgm_read_byte">
<polygon fill="white" stroke="black" points="959.5,-64.5 959.5,-83.5 1042.5,-83.5 1042.5,-64.5 959.5,-64.5"/>
<text text-anchor="middle" x="1001" y="-71.5" font-family="Helvetica,sans-Serif" font-size="10.00">pgm_read_byte</text>
</a>
</g>
</g>
<!-- Node3&#45;&gt;Node5 -->
<g id="edge4" class="edge"><title>Node3&#45;&gt;Node5</title>
<path fill="none" stroke="midnightblue" d="M902.463,-101.961C920.26,-96.8589 939.923,-91.222 956.905,-86.354"/>
<polygon fill="midnightblue" stroke="midnightblue" points="957.91,-89.7067 966.559,-83.5865 955.981,-82.9778 957.91,-89.7067"/>
</g>
<!-- Node6 -->
<g id="node6" class="node"><title>Node6</title>
<g id="a_node6"><a xlink:href="$classAP__HAL_1_1Storage.html#a1c3b1e80b0bec7d4bacd3ecbefb3b3f3" xlink:title="AP_HAL::Storage::read\l_block">
<polygon fill="white" stroke="black" points="941.5,-141 941.5,-171 1060.5,-171 1060.5,-141 941.5,-141"/>
<text text-anchor="start" x="949.5" y="-159" font-family="Helvetica,sans-Serif" font-size="10.00">AP_HAL::Storage::read</text>
<text text-anchor="middle" x="1001" y="-148" font-family="Helvetica,sans-Serif" font-size="10.00">_block</text>
</a>
</g>
</g>
<!-- Node3&#45;&gt;Node6 -->
<g id="edge5" class="edge"><title>Node3&#45;&gt;Node6</title>
<path fill="none" stroke="midnightblue" d="M903.307,-130.86C912.78,-133.323 922.759,-135.917 932.563,-138.466"/>
<polygon fill="midnightblue" stroke="midnightblue" points="931.725,-141.865 942.284,-140.994 933.487,-135.09 931.725,-141.865"/>
</g>
<!-- Node8 -->
<g id="node8" class="node"><title>Node8</title>
<g id="a_node8"><a xlink:href="$classAP__Param.html#a6522413a505d2cc1fec14e2a735bb4ac" xlink:title="AP_Param::eeprom_write\l_check">
<polygon fill="white" stroke="black" points="630,-53 630,-83 758,-83 758,-53 630,-53"/>
<text text-anchor="start" x="638" y="-71" font-family="Helvetica,sans-Serif" font-size="10.00">AP_Param::eeprom_write</text>
<text text-anchor="middle" x="694" y="-60" font-family="Helvetica,sans-Serif" font-size="10.00">_check</text>
</a>
</g>
</g>
<!-- Node7&#45;&gt;Node8 -->
<g id="edge7" class="edge"><title>Node7&#45;&gt;Node8</title>
<path fill="none" stroke="midnightblue" d="M427.753,-77.1464C480.434,-75.3299 561.126,-72.5474 619.677,-70.5284"/>
<polygon fill="midnightblue" stroke="midnightblue" points="620.1,-74.016 629.973,-70.1733 619.859,-67.0201 620.1,-74.016"/>
</g>
<!-- Node11 -->
<g id="node11" class="node"><title>Node11</title>
<g id="a_node11"><a xlink:href="$classAP__Param.html#a78d8d68e7edc6732df3c3fdc81dc0869" xlink:title="AP_Param::write_sentinal">
<polygon fill="white" stroke="black" points="464,-31.5 464,-50.5 594,-50.5 594,-31.5 464,-31.5"/>
<text text-anchor="middle" x="529" y="-38.5" font-family="Helvetica,sans-Serif" font-size="10.00">AP_Param::write_sentinal</text>
</a>
</g>
</g>
<!-- Node7&#45;&gt;Node11 -->
<g id="edge12" class="edge"><title>Node7&#45;&gt;Node11</title>
<path fill="none" stroke="midnightblue" d="M412.861,-69.411C433.091,-64.4191 458.021,-58.2676 479.504,-52.9666"/>
<polygon fill="midnightblue" stroke="midnightblue" points="480.548,-56.3139 489.419,-50.5201 478.871,-49.5177 480.548,-56.3139"/>
</g>
<!-- Node9 -->
<g id="node9" class="node"><title>Node9</title>
<g id="a_node9"><a xlink:href="$classStorageAccess.html#aa527b50188a7138b173defe07b9b7bf6" xlink:title="StorageAccess::write\l_block">
<polygon fill="white" stroke="black" points="794,-53 794,-83 904,-83 904,-53 794,-53"/>
<text text-anchor="start" x="802" y="-71" font-family="Helvetica,sans-Serif" font-size="10.00">StorageAccess::write</text>
<text text-anchor="middle" x="849" y="-60" font-family="Helvetica,sans-Serif" font-size="10.00">_block</text>
</a>
</g>
</g>
<!-- Node8&#45;&gt;Node9 -->
<g id="edge8" class="edge"><title>Node8&#45;&gt;Node9</title>
<path fill="none" stroke="midnightblue" d="M758.114,-68C766.541,-68 775.192,-68 783.64,-68"/>
<polygon fill="midnightblue" stroke="midnightblue" points="783.816,-71.5001 793.816,-68 783.816,-64.5001 783.816,-71.5001"/>
</g>
<!-- Node9&#45;&gt;Node4 -->
<g id="edge9" class="edge"><title>Node9&#45;&gt;Node4</title>
<path fill="none" stroke="midnightblue" d="M901.202,-83.0192C919.506,-88.3885 939.92,-94.3766 957.419,-99.5095"/>
<polygon fill="midnightblue" stroke="midnightblue" points="956.766,-102.965 967.347,-102.422 958.736,-96.2484 956.766,-102.965"/>
</g>
<!-- Node9&#45;&gt;Node5 -->
<g id="edge10" class="edge"><title>Node9&#45;&gt;Node5</title>
<path fill="none" stroke="midnightblue" d="M904.153,-70.1661C918.739,-70.7496 934.468,-71.3787 948.882,-71.9553"/>
<polygon fill="midnightblue" stroke="midnightblue" points="948.979,-75.4619 959.111,-72.3644 949.259,-68.4675 948.979,-75.4619"/>
</g>
<!-- Node10 -->
<g id="node10" class="node"><title>Node10</title>
<g id="a_node10"><a xlink:href="$classAP__HAL_1_1Storage.html#a9de79ab93ea4374bd3d1583e28620d2e" xlink:title="AP_HAL::Storage::write\l_block">
<polygon fill="white" stroke="black" points="940,-15 940,-45 1062,-45 1062,-15 940,-15"/>
<text text-anchor="start" x="948" y="-33" font-family="Helvetica,sans-Serif" font-size="10.00">AP_HAL::Storage::write</text>
<text text-anchor="middle" x="1001" y="-22" font-family="Helvetica,sans-Serif" font-size="10.00">_block</text>
</a>
</g>
</g>
<!-- Node9&#45;&gt;Node10 -->
<g id="edge11" class="edge"><title>Node9&#45;&gt;Node10</title>
<path fill="none" stroke="midnightblue" d="M904.153,-54.2811C912.75,-52.1032 921.744,-49.8248 930.632,-47.5732"/>
<polygon fill="midnightblue" stroke="midnightblue" points="931.761,-50.898 940.595,-45.0493 930.042,-44.1123 931.761,-50.898"/>
</g>
<!-- Node11&#45;&gt;Node8 -->
<g id="edge13" class="edge"><title>Node11&#45;&gt;Node8</title>
<path fill="none" stroke="midnightblue" d="M587.468,-50.5192C597.994,-52.2628 609.108,-54.1037 620.016,-55.9106"/>
<polygon fill="midnightblue" stroke="midnightblue" points="619.515,-59.3753 629.953,-57.5566 620.659,-52.4694 619.515,-59.3753"/>
</g>
</g>
</svg>
