<?xml version="1.0" encoding="UTF-8" standalone="no"?>
<!DOCTYPE svg PUBLIC "-//W3C//DTD SVG 1.1//EN"
 "http://www.w3.org/Graphics/SVG/1.1/DTD/svg11.dtd">
<!-- Generated by graphviz version 2.36.0 (20140111.2315)
 -->
<!-- Title: AP_Compass_PX4::init Pages: 1 -->
<svg width="670pt" height="28pt"
 viewBox="0.00 0.00 670.00 28.00" xmlns="http://www.w3.org/2000/svg" xmlns:xlink="http://www.w3.org/1999/xlink">
<g id="graph0" class="graph" transform="scale(1 1) rotate(0) translate(4 24)">
<title>AP_Compass_PX4::init</title>
<polygon fill="white" stroke="none" points="-4,4 -4,-24 666,-24 666,4 -4,4"/>
<!-- Node1 -->
<g id="node1" class="node"><title>Node1</title>
<polygon fill="#bfbfbf" stroke="black" points="0,-0.5 0,-19.5 120,-19.5 120,-0.5 0,-0.5"/>
<text text-anchor="middle" x="60" y="-7.5" font-family="Helvetica,sans-Serif" font-size="10.00">AP_Compass_PX4::init</text>
</g>
<!-- Node2 -->
<g id="node2" class="node"><title>Node2</title>
<g id="a_node2"><a xlink:href="$classAP__Compass__PX4.html#a31f9519f4a0c078771749e2bce1dd988" xlink:title="AP_Compass_PX4::detect">
<polygon fill="white" stroke="black" points="156,-0.5 156,-19.5 290,-19.5 290,-0.5 156,-0.5"/>
<text text-anchor="middle" x="223" y="-7.5" font-family="Helvetica,sans-Serif" font-size="10.00">AP_Compass_PX4::detect</text>
</a>
</g>
</g>
<!-- Node1&#45;&gt;Node2 -->
<g id="edge1" class="edge"><title>Node1&#45;&gt;Node2</title>
<path fill="none" stroke="midnightblue" d="M130.29,-10C138.787,-10 147.454,-10 155.902,-10"/>
<polygon fill="midnightblue" stroke="midnightblue" points="130.036,-6.5001 120.036,-10 130.036,-13.5001 130.036,-6.5001"/>
</g>
<!-- Node3 -->
<g id="node3" class="node"><title>Node3</title>
<g id="a_node3"><a xlink:href="$classCompass.html#a1c48170d8c8966b22fb150b1634443ec" xlink:title="Compass::_detect_backends">
<polygon fill="white" stroke="black" points="326,-0.5 326,-19.5 470,-19.5 470,-0.5 326,-0.5"/>
<text text-anchor="middle" x="398" y="-7.5" font-family="Helvetica,sans-Serif" font-size="10.00">Compass::_detect_backends</text>
</a>
</g>
</g>
<!-- Node2&#45;&gt;Node3 -->
<g id="edge2" class="edge"><title>Node2&#45;&gt;Node3</title>
<path fill="none" stroke="midnightblue" d="M300.579,-10C309.001,-10 317.55,-10 325.901,-10"/>
<polygon fill="midnightblue" stroke="midnightblue" points="300.392,-6.5001 290.392,-10 300.392,-13.5001 300.392,-6.5001"/>
</g>
<!-- Node4 -->
<g id="node4" class="node"><title>Node4</title>
<g id="a_node4"><a xlink:href="$classCompass.html#a190aefc281aba88c7b16e4fc58035c5e" xlink:title="Compass::init">
<polygon fill="white" stroke="black" points="506.5,-0.5 506.5,-19.5 583.5,-19.5 583.5,-0.5 506.5,-0.5"/>
<text text-anchor="middle" x="545" y="-7.5" font-family="Helvetica,sans-Serif" font-size="10.00">Compass::init</text>
</a>
</g>
</g>
<!-- Node3&#45;&gt;Node4 -->
<g id="edge3" class="edge"><title>Node3&#45;&gt;Node4</title>
<path fill="none" stroke="midnightblue" d="M480.43,-10C489.424,-10 498.232,-10 506.289,-10"/>
<polygon fill="midnightblue" stroke="midnightblue" points="480.226,-6.5001 470.226,-10 480.226,-13.5001 480.226,-6.5001"/>
</g>
<!-- Node5 -->
<g id="node5" class="node"><title>Node5</title>
<g id="a_node5"><a xlink:href="$AHRS__Test_8pde.html#a7dfd9b79bc5a37d7df40207afbc5431f" xlink:title="setup">
<polygon fill="white" stroke="black" points="620.5,-0.5 620.5,-19.5 661.5,-19.5 661.5,-0.5 620.5,-0.5"/>
<text text-anchor="middle" x="641" y="-7.5" font-family="Helvetica,sans-Serif" font-size="10.00">setup</text>
</a>
</g>
</g>
<!-- Node4&#45;&gt;Node5 -->
<g id="edge4" class="edge"><title>Node4&#45;&gt;Node5</title>
<path fill="none" stroke="midnightblue" d="M593.829,-10C603.221,-10 612.569,-10 620.371,-10"/>
<polygon fill="midnightblue" stroke="midnightblue" points="593.692,-6.5001 583.692,-10 593.692,-13.5001 593.692,-6.5001"/>
</g>
</g>
</svg>
