<?xml version="1.0" encoding="UTF-8" standalone="no"?>
<!DOCTYPE svg PUBLIC "-//W3C//DTD SVG 1.1//EN"
 "http://www.w3.org/Graphics/SVG/1.1/DTD/svg11.dtd">
<!-- Generated by graphviz version 2.36.0 (20140111.2315)
 -->
<!-- Title: NavEKF::readDeltaAngle Pages: 1 -->
<svg width="446pt" height="126pt"
 viewBox="0.00 0.00 446.00 126.00" xmlns="http://www.w3.org/2000/svg" xmlns:xlink="http://www.w3.org/1999/xlink">
<g id="graph0" class="graph" transform="scale(1 1) rotate(0) translate(4 122)">
<title>NavEKF::readDeltaAngle</title>
<polygon fill="white" stroke="none" points="-4,4 -4,-122 442,-122 442,4 -4,4"/>
<!-- Node1 -->
<g id="node1" class="node"><title>Node1</title>
<polygon fill="#bfbfbf" stroke="black" points="0.5,-44.5 0.5,-63.5 127.5,-63.5 127.5,-44.5 0.5,-44.5"/>
<text text-anchor="middle" x="64" y="-51.5" font-family="Helvetica,sans-Serif" font-size="10.00">NavEKF::readDeltaAngle</text>
</g>
<!-- Node2 -->
<g id="node2" class="node"><title>Node2</title>
<g id="a_node2"><a xlink:href="$classNavEKF.html#a617e88f0e357eb16d2540f25981e9ee2" xlink:title="NavEKF::readIMUData">
<polygon fill="white" stroke="black" points="164.5,-44.5 164.5,-63.5 283.5,-63.5 283.5,-44.5 164.5,-44.5"/>
<text text-anchor="middle" x="224" y="-51.5" font-family="Helvetica,sans-Serif" font-size="10.00">NavEKF::readIMUData</text>
</a>
</g>
</g>
<!-- Node1&#45;&gt;Node2 -->
<g id="edge1" class="edge"><title>Node1&#45;&gt;Node2</title>
<path fill="none" stroke="midnightblue" d="M138.163,-54C146.966,-54 155.866,-54 164.423,-54"/>
<polygon fill="midnightblue" stroke="midnightblue" points="137.9,-50.5001 127.9,-54 137.9,-57.5001 137.9,-50.5001"/>
</g>
<!-- Node3 -->
<g id="node3" class="node"><title>Node3</title>
<g id="a_node3"><a xlink:href="$classNavEKF.html#a12500a621febd8f914f6e16db4c28759" xlink:title="NavEKF::InitialiseFilter\lDynamic">
<polygon fill="white" stroke="black" points="320,-88 320,-118 438,-118 438,-88 320,-88"/>
<text text-anchor="start" x="328" y="-106" font-family="Helvetica,sans-Serif" font-size="10.00">NavEKF::InitialiseFilter</text>
<text text-anchor="middle" x="379" y="-95" font-family="Helvetica,sans-Serif" font-size="10.00">Dynamic</text>
</a>
</g>
</g>
<!-- Node2&#45;&gt;Node3 -->
<g id="edge2" class="edge"><title>Node2&#45;&gt;Node3</title>
<path fill="none" stroke="midnightblue" d="M264.441,-66.6313C284.778,-73.1446 309.723,-81.1334 331.048,-87.963"/>
<polygon fill="midnightblue" stroke="midnightblue" points="265.454,-63.2809 254.863,-63.564 263.319,-69.9473 265.454,-63.2809"/>
</g>
<!-- Node4 -->
<g id="node4" class="node"><title>Node4</title>
<g id="a_node4"><a xlink:href="$classNavEKF.html#a290932b02347c5247f036fbc3c7af9d8" xlink:title="NavEKF::InitialiseFilter\lBootstrap">
<polygon fill="white" stroke="black" points="320,-39 320,-69 438,-69 438,-39 320,-39"/>
<text text-anchor="start" x="328" y="-57" font-family="Helvetica,sans-Serif" font-size="10.00">NavEKF::InitialiseFilter</text>
<text text-anchor="middle" x="379" y="-46" font-family="Helvetica,sans-Serif" font-size="10.00">Bootstrap</text>
</a>
</g>
</g>
<!-- Node2&#45;&gt;Node4 -->
<g id="edge3" class="edge"><title>Node2&#45;&gt;Node4</title>
<path fill="none" stroke="midnightblue" d="M293.858,-54C302.573,-54 311.422,-54 319.946,-54"/>
<polygon fill="midnightblue" stroke="midnightblue" points="293.716,-50.5001 283.716,-54 293.716,-57.5001 293.716,-50.5001"/>
</g>
<!-- Node5 -->
<g id="node5" class="node"><title>Node5</title>
<g id="a_node5"><a xlink:href="$classNavEKF.html#a58d3c9694abab421e8eadd78e72ac67c" xlink:title="NavEKF::UpdateFilter">
<polygon fill="white" stroke="black" points="322.5,-0.5 322.5,-19.5 435.5,-19.5 435.5,-0.5 322.5,-0.5"/>
<text text-anchor="middle" x="379" y="-7.5" font-family="Helvetica,sans-Serif" font-size="10.00">NavEKF::UpdateFilter</text>
</a>
</g>
</g>
<!-- Node2&#45;&gt;Node5 -->
<g id="edge4" class="edge"><title>Node2&#45;&gt;Node5</title>
<path fill="none" stroke="midnightblue" d="M267.914,-41.6588C292.283,-34.6507 322.325,-26.0112 344.866,-19.5287"/>
<polygon fill="midnightblue" stroke="midnightblue" points="266.842,-38.3251 258.199,-44.4527 268.777,-45.0525 266.842,-38.3251"/>
</g>
</g>
</svg>
