<?xml version="1.0" encoding="UTF-8" standalone="no"?>
<!DOCTYPE svg PUBLIC "-//W3C//DTD SVG 1.1//EN"
 "http://www.w3.org/Graphics/SVG/1.1/DTD/svg11.dtd">
<!-- Generated by graphviz version 2.36.0 (20140111.2315)
 -->
<!-- Title: OreoLED_PX4::update Pages: 1 -->
<svg width="318pt" height="142pt"
 viewBox="0.00 0.00 318.00 142.00" xmlns="http://www.w3.org/2000/svg" xmlns:xlink="http://www.w3.org/1999/xlink">
<g id="graph0" class="graph" transform="scale(1 1) rotate(0) translate(4 138)">
<title>OreoLED_PX4::update</title>
<polygon fill="white" stroke="none" points="-4,4 -4,-138 314,-138 314,4 -4,4"/>
<!-- Node1 -->
<g id="node1" class="node"><title>Node1</title>
<polygon fill="#bfbfbf" stroke="black" points="0,-57.5 0,-76.5 116,-76.5 116,-57.5 0,-57.5"/>
<text text-anchor="middle" x="58" y="-64.5" font-family="Helvetica,sans-Serif" font-size="10.00">OreoLED_PX4::update</text>
</g>
<!-- Node2 -->
<g id="node2" class="node"><title>Node2</title>
<g id="a_node2"><a xlink:href="$classOreoLED__PX4.html#ad6e87dbe026c0b2861938c9a8d4b6571" xlink:title="OreoLED_PX4::set_macro">
<polygon fill="white" stroke="black" points="164.5,-114.5 164.5,-133.5 297.5,-133.5 297.5,-114.5 164.5,-114.5"/>
<text text-anchor="middle" x="231" y="-121.5" font-family="Helvetica,sans-Serif" font-size="10.00">OreoLED_PX4::set_macro</text>
</a>
</g>
</g>
<!-- Node1&#45;&gt;Node2 -->
<g id="edge1" class="edge"><title>Node1&#45;&gt;Node2</title>
<path fill="none" stroke="midnightblue" d="M79.7218,-76.5087C98.3535,-84.8061 126.614,-96.7725 152,-105 159.729,-107.505 167.983,-109.855 176.122,-111.989"/>
<polygon fill="midnightblue" stroke="midnightblue" points="175.396,-115.416 185.95,-114.483 177.118,-108.631 175.396,-115.416"/>
</g>
<!-- Node3 -->
<g id="node3" class="node"><title>Node3</title>
<g id="a_node3"><a xlink:href="$classAP__HAL_1_1GPIO.html#ab0ea67003249493b7efc0528410b9be6" xlink:title="AP_HAL::GPIO::usb_connected">
<polygon fill="white" stroke="black" points="152,-76.5 152,-95.5 310,-95.5 310,-76.5 152,-76.5"/>
<text text-anchor="middle" x="231" y="-83.5" font-family="Helvetica,sans-Serif" font-size="10.00">AP_HAL::GPIO::usb_connected</text>
</a>
</g>
</g>
<!-- Node1&#45;&gt;Node3 -->
<g id="edge2" class="edge"><title>Node1&#45;&gt;Node3</title>
<path fill="none" stroke="midnightblue" d="M116.416,-73.3796C124.576,-74.2862 133.119,-75.2354 141.699,-76.1888"/>
<polygon fill="midnightblue" stroke="midnightblue" points="141.444,-79.6819 151.769,-77.3077 142.217,-72.7247 141.444,-79.6819"/>
</g>
<!-- Node4 -->
<g id="node4" class="node"><title>Node4</title>
<g id="a_node4"><a xlink:href="$classOreoLED__PX4.html#ac79742b697403772ab712adeff362b23" xlink:title="OreoLED_PX4::set_rgb">
<polygon fill="white" stroke="black" points="171.5,-38.5 171.5,-57.5 290.5,-57.5 290.5,-38.5 171.5,-38.5"/>
<text text-anchor="middle" x="231" y="-45.5" font-family="Helvetica,sans-Serif" font-size="10.00">OreoLED_PX4::set_rgb</text>
</a>
</g>
</g>
<!-- Node1&#45;&gt;Node4 -->
<g id="edge3" class="edge"><title>Node1&#45;&gt;Node4</title>
<path fill="none" stroke="midnightblue" d="M116.416,-60.6204C130.764,-59.0262 146.299,-57.3002 161.138,-55.6514"/>
<polygon fill="midnightblue" stroke="midnightblue" points="161.724,-59.1078 171.277,-54.5248 160.951,-52.1506 161.724,-59.1078"/>
</g>
<!-- Node5 -->
<g id="node5" class="node"><title>Node5</title>
<g id="a_node5"><a xlink:href="$classOreoLED__PX4.html#ab6a4705d012289abbebb81baf1b4bee1" xlink:title="OreoLED_PX4::send_bytes">
<polygon fill="white" stroke="black" points="162.5,-0.5 162.5,-19.5 299.5,-19.5 299.5,-0.5 162.5,-0.5"/>
<text text-anchor="middle" x="231" y="-7.5" font-family="Helvetica,sans-Serif" font-size="10.00">OreoLED_PX4::send_bytes</text>
</a>
</g>
</g>
<!-- Node1&#45;&gt;Node5 -->
<g id="edge4" class="edge"><title>Node1&#45;&gt;Node5</title>
<path fill="none" stroke="midnightblue" d="M79.7218,-57.4913C98.3535,-49.1939 126.614,-37.2275 152,-29 159.729,-26.4949 167.983,-24.1454 176.122,-22.0107"/>
<polygon fill="midnightblue" stroke="midnightblue" points="177.118,-25.3691 185.95,-19.5171 175.396,-18.5841 177.118,-25.3691"/>
</g>
</g>
</svg>
