<?xml version="1.0" encoding="UTF-8" standalone="no"?>
<!DOCTYPE svg PUBLIC "-//W3C//DTD SVG 1.1//EN"
 "http://www.w3.org/Graphics/SVG/1.1/DTD/svg11.dtd">
<!-- Generated by graphviz version 2.36.0 (20140111.2315)
 -->
<!-- Title: VRBRAIN::VRBRAINGPIO::toggle Pages: 1 -->
<svg width="324pt" height="87pt"
 viewBox="0.00 0.00 324.00 87.00" xmlns="http://www.w3.org/2000/svg" xmlns:xlink="http://www.w3.org/1999/xlink">
<g id="graph0" class="graph" transform="scale(1 1) rotate(0) translate(4 83)">
<title>VRBRAIN::VRBRAINGPIO::toggle</title>
<polygon fill="white" stroke="none" points="-4,4 -4,-83 320,-83 320,4 -4,4"/>
<!-- Node1 -->
<g id="node1" class="node"><title>Node1</title>
<polygon fill="#bfbfbf" stroke="black" points="0.5,-24 0.5,-54 139.5,-54 139.5,-24 0.5,-24"/>
<text text-anchor="start" x="8.5" y="-42" font-family="Helvetica,sans-Serif" font-size="10.00">VRBRAIN::VRBRAINGPIO</text>
<text text-anchor="middle" x="70" y="-31" font-family="Helvetica,sans-Serif" font-size="10.00">::toggle</text>
</g>
<!-- Node2 -->
<g id="node2" class="node"><title>Node2</title>
<g id="a_node2"><a xlink:href="$classVRBRAIN_1_1VRBRAINGPIO.html#a4c245090488cf8b1d40f46d2d3ea8dd5" xlink:title="VRBRAIN::VRBRAINGPIO\l::write">
<polygon fill="white" stroke="black" points="176.5,-49 176.5,-79 315.5,-79 315.5,-49 176.5,-49"/>
<text text-anchor="start" x="184.5" y="-67" font-family="Helvetica,sans-Serif" font-size="10.00">VRBRAIN::VRBRAINGPIO</text>
<text text-anchor="middle" x="246" y="-56" font-family="Helvetica,sans-Serif" font-size="10.00">::write</text>
</a>
</g>
</g>
<!-- Node1&#45;&gt;Node2 -->
<g id="edge1" class="edge"><title>Node1&#45;&gt;Node2</title>
<path fill="none" stroke="midnightblue" d="M139.769,-48.8807C148.535,-50.14 157.558,-51.4366 166.463,-52.7159"/>
<polygon fill="midnightblue" stroke="midnightblue" points="166.049,-56.1923 176.445,-54.1502 167.045,-49.2635 166.049,-56.1923"/>
</g>
<!-- Node3 -->
<g id="node3" class="node"><title>Node3</title>
<g id="a_node3"><a xlink:href="$classVRBRAIN_1_1VRBRAINGPIO.html#a26f0b62193f6f6b4fe0a408a63d6fcb5" xlink:title="VRBRAIN::VRBRAINGPIO\l::read">
<polygon fill="white" stroke="black" points="176.5,-0 176.5,-30 315.5,-30 315.5,-0 176.5,-0"/>
<text text-anchor="start" x="184.5" y="-18" font-family="Helvetica,sans-Serif" font-size="10.00">VRBRAIN::VRBRAINGPIO</text>
<text text-anchor="middle" x="246" y="-7" font-family="Helvetica,sans-Serif" font-size="10.00">::read</text>
</a>
</g>
</g>
<!-- Node1&#45;&gt;Node3 -->
<g id="edge2" class="edge"><title>Node1&#45;&gt;Node3</title>
<path fill="none" stroke="midnightblue" d="M139.769,-29.5146C148.535,-28.3056 157.558,-27.0609 166.463,-25.8327"/>
<polygon fill="midnightblue" stroke="midnightblue" points="167.017,-29.2895 176.445,-24.4558 166.061,-22.3551 167.017,-29.2895"/>
</g>
</g>
</svg>
