<?xml version="1.0" encoding="UTF-8" standalone="no"?>
<!DOCTYPE svg PUBLIC "-//W3C//DTD SVG 1.1//EN"
 "http://www.w3.org/Graphics/SVG/1.1/DTD/svg11.dtd">
<!-- Generated by graphviz version 2.36.0 (20140111.2315)
 -->
<!-- Title: AP_Compass_AK8963_MPU9250::_register_read Pages: 1 -->
<svg width="332pt" height="116pt"
 viewBox="0.00 0.00 332.00 116.00" xmlns="http://www.w3.org/2000/svg" xmlns:xlink="http://www.w3.org/1999/xlink">
<g id="graph0" class="graph" transform="scale(1 1) rotate(0) translate(4 112)">
<title>AP_Compass_AK8963_MPU9250::_register_read</title>
<polygon fill="white" stroke="none" points="-4,4 -4,-112 328,-112 328,4 -4,4"/>
<!-- Node1 -->
<g id="node1" class="node"><title>Node1</title>
<polygon fill="#bfbfbf" stroke="black" points="0,-39 0,-69 166,-69 166,-39 0,-39"/>
<text text-anchor="start" x="8" y="-57" font-family="Helvetica,sans-Serif" font-size="10.00">AP_Compass_AK8963_MPU9250</text>
<text text-anchor="middle" x="83" y="-46" font-family="Helvetica,sans-Serif" font-size="10.00">::_register_read</text>
</g>
<!-- Node2 -->
<g id="node2" class="node"><title>Node2</title>
<g id="a_node2"><a xlink:href="$classAK8963__Backend.html#a765059affcdbc1fe2f147bb6ecd249c1" xlink:title="AK8963_Backend::write">
<polygon fill="white" stroke="black" points="202,-88.5 202,-107.5 324,-107.5 324,-88.5 202,-88.5"/>
<text text-anchor="middle" x="263" y="-95.5" font-family="Helvetica,sans-Serif" font-size="10.00">AK8963_Backend::write</text>
</a>
</g>
</g>
<!-- Node1&#45;&gt;Node2 -->
<g id="edge1" class="edge"><title>Node1&#45;&gt;Node2</title>
<path fill="none" stroke="midnightblue" d="M144.76,-69.0192C167.278,-74.5856 192.487,-80.8171 213.743,-86.0713"/>
<polygon fill="midnightblue" stroke="midnightblue" points="212.97,-89.4856 223.518,-88.4876 214.65,-82.6901 212.97,-89.4856"/>
</g>
<!-- Node3 -->
<g id="node3" class="node"><title>Node3</title>
<g id="a_node3"><a xlink:href="$classAP__HAL_1_1Scheduler.html#ab3175e2e6223ccfe82f957e41cc12b26" xlink:title="AP_HAL::Scheduler::\ldelay">
<polygon fill="white" stroke="black" points="208,-39 208,-69 318,-69 318,-39 208,-39"/>
<text text-anchor="start" x="216" y="-57" font-family="Helvetica,sans-Serif" font-size="10.00">AP_HAL::Scheduler::</text>
<text text-anchor="middle" x="263" y="-46" font-family="Helvetica,sans-Serif" font-size="10.00">delay</text>
</a>
</g>
</g>
<!-- Node1&#45;&gt;Node3 -->
<g id="edge2" class="edge"><title>Node1&#45;&gt;Node3</title>
<path fill="none" stroke="midnightblue" d="M166.227,-54C176.816,-54 187.534,-54 197.776,-54"/>
<polygon fill="midnightblue" stroke="midnightblue" points="197.838,-57.5001 207.838,-54 197.838,-50.5001 197.838,-57.5001"/>
</g>
<!-- Node4 -->
<g id="node4" class="node"><title>Node4</title>
<g id="a_node4"><a xlink:href="$classAK8963__Backend.html#a1c70a496cb1e61179d40dfa09319d09c" xlink:title="AK8963_Backend::read">
<polygon fill="white" stroke="black" points="203.5,-0.5 203.5,-19.5 322.5,-19.5 322.5,-0.5 203.5,-0.5"/>
<text text-anchor="middle" x="263" y="-7.5" font-family="Helvetica,sans-Serif" font-size="10.00">AK8963_Backend::read</text>
</a>
</g>
</g>
<!-- Node1&#45;&gt;Node4 -->
<g id="edge3" class="edge"><title>Node1&#45;&gt;Node4</title>
<path fill="none" stroke="midnightblue" d="M144.76,-38.9808C167.278,-33.4144 192.487,-27.1829 213.743,-21.9287"/>
<polygon fill="midnightblue" stroke="midnightblue" points="214.65,-25.3099 223.518,-19.5124 212.97,-18.5144 214.65,-25.3099"/>
</g>
</g>
</svg>
