<?xml version="1.0" encoding="UTF-8" standalone="no"?>
<!DOCTYPE svg PUBLIC "-//W3C//DTD SVG 1.1//EN"
 "http://www.w3.org/Graphics/SVG/1.1/DTD/svg11.dtd">
<!-- Generated by graphviz version 2.36.0 (20140111.2315)
 -->
<!-- Title: HALSITL::SITL_State::_update_gps_nmea Pages: 1 -->
<svg width="432pt" height="126pt"
 viewBox="0.00 0.00 432.00 126.00" xmlns="http://www.w3.org/2000/svg" xmlns:xlink="http://www.w3.org/1999/xlink">
<g id="graph0" class="graph" transform="scale(1 1) rotate(0) translate(4 122)">
<title>HALSITL::SITL_State::_update_gps_nmea</title>
<polygon fill="white" stroke="none" points="-4,4 -4,-122 428,-122 428,4 -4,4"/>
<!-- Node1 -->
<g id="node1" class="node"><title>Node1</title>
<polygon fill="#bfbfbf" stroke="black" points="0.5,-17 0.5,-47 113.5,-47 113.5,-17 0.5,-17"/>
<text text-anchor="start" x="8.5" y="-35" font-family="Helvetica,sans-Serif" font-size="10.00">HALSITL::SITL_State</text>
<text text-anchor="middle" x="57" y="-24" font-family="Helvetica,sans-Serif" font-size="10.00">::_update_gps_nmea</text>
</g>
<!-- Node2 -->
<g id="node2" class="node"><title>Node2</title>
<g id="a_node2"><a xlink:href="$classHALSITL_1_1SITL__State.html#ad29648c657450527a406dbb960b8e99e" xlink:title="HALSITL::SITL_State\l::_gps_nmea_printf">
<polygon fill="white" stroke="black" points="150.5,-39 150.5,-69 263.5,-69 263.5,-39 150.5,-39"/>
<text text-anchor="start" x="158.5" y="-57" font-family="Helvetica,sans-Serif" font-size="10.00">HALSITL::SITL_State</text>
<text text-anchor="middle" x="207" y="-46" font-family="Helvetica,sans-Serif" font-size="10.00">::_gps_nmea_printf</text>
</a>
</g>
</g>
<!-- Node1&#45;&gt;Node2 -->
<g id="edge1" class="edge"><title>Node1&#45;&gt;Node2</title>
<path fill="none" stroke="midnightblue" d="M113.531,-40.2546C122.232,-41.5479 131.296,-42.8954 140.201,-44.219"/>
<polygon fill="midnightblue" stroke="midnightblue" points="139.752,-47.6907 150.158,-45.6992 140.781,-40.7668 139.752,-47.6907"/>
</g>
<!-- Node5 -->
<g id="node5" class="node"><title>Node5</title>
<g id="a_node5"><a xlink:href="$AP__Math_8cpp.html#afd3767d48a7b20f6d5220a4f8007af00" xlink:title="pythagorous2">
<polygon fill="white" stroke="black" points="169.5,-0.5 169.5,-19.5 244.5,-19.5 244.5,-0.5 169.5,-0.5"/>
<text text-anchor="middle" x="207" y="-7.5" font-family="Helvetica,sans-Serif" font-size="10.00">pythagorous2</text>
</a>
</g>
</g>
<!-- Node1&#45;&gt;Node5 -->
<g id="edge4" class="edge"><title>Node1&#45;&gt;Node5</title>
<path fill="none" stroke="midnightblue" d="M113.531,-23.7454C128.579,-21.5085 144.717,-19.1097 159.23,-16.9523"/>
<polygon fill="midnightblue" stroke="midnightblue" points="160.095,-20.3622 169.472,-15.4298 159.066,-13.4383 160.095,-20.3622"/>
</g>
<!-- Node3 -->
<g id="node3" class="node"><title>Node3</title>
<g id="a_node3"><a xlink:href="$classHALSITL_1_1SITL__State.html#a267deca7c08a085770083d3d3ca853f7" xlink:title="HALSITL::SITL_State\l::_gps_nmea_checksum">
<polygon fill="white" stroke="black" points="300.5,-88 300.5,-118 423.5,-118 423.5,-88 300.5,-88"/>
<text text-anchor="start" x="308.5" y="-106" font-family="Helvetica,sans-Serif" font-size="10.00">HALSITL::SITL_State</text>
<text text-anchor="middle" x="362" y="-95" font-family="Helvetica,sans-Serif" font-size="10.00">::_gps_nmea_checksum</text>
</a>
</g>
</g>
<!-- Node2&#45;&gt;Node3 -->
<g id="edge2" class="edge"><title>Node2&#45;&gt;Node3</title>
<path fill="none" stroke="midnightblue" d="M255.153,-69.1014C270.641,-74.0615 288.02,-79.6274 304.149,-84.7929"/>
<polygon fill="midnightblue" stroke="midnightblue" points="303.411,-88.2316 314.002,-87.9484 305.546,-81.5651 303.411,-88.2316"/>
</g>
<!-- Node4 -->
<g id="node4" class="node"><title>Node4</title>
<g id="a_node4"><a xlink:href="$classHALSITL_1_1SITL__State.html#a1bee6f813ada1dfe024b25a27077e861" xlink:title="HALSITL::SITL_State\l::_gps_write">
<polygon fill="white" stroke="black" points="305.5,-39 305.5,-69 418.5,-69 418.5,-39 305.5,-39"/>
<text text-anchor="start" x="313.5" y="-57" font-family="Helvetica,sans-Serif" font-size="10.00">HALSITL::SITL_State</text>
<text text-anchor="middle" x="362" y="-46" font-family="Helvetica,sans-Serif" font-size="10.00">::_gps_write</text>
</a>
</g>
</g>
<!-- Node2&#45;&gt;Node4 -->
<g id="edge3" class="edge"><title>Node2&#45;&gt;Node4</title>
<path fill="none" stroke="midnightblue" d="M263.669,-54C273.964,-54 284.804,-54 295.363,-54"/>
<polygon fill="midnightblue" stroke="midnightblue" points="295.372,-57.5001 305.372,-54 295.372,-50.5001 295.372,-57.5001"/>
</g>
<!-- Node6 -->
<g id="node6" class="node"><title>Node6</title>
<g id="a_node6"><a xlink:href="$AP__Math_8cpp.html#a996fdbe87607543eef5dcb234f6bc017" xlink:title="sq">
<polygon fill="white" stroke="black" points="347.5,-0.5 347.5,-19.5 376.5,-19.5 376.5,-0.5 347.5,-0.5"/>
<text text-anchor="middle" x="362" y="-7.5" font-family="Helvetica,sans-Serif" font-size="10.00">sq</text>
</a>
</g>
</g>
<!-- Node5&#45;&gt;Node6 -->
<g id="edge5" class="edge"><title>Node5&#45;&gt;Node6</title>
<path fill="none" stroke="midnightblue" d="M244.647,-10C273.32,-10 312.355,-10 337.119,-10"/>
<polygon fill="midnightblue" stroke="midnightblue" points="337.404,-13.5001 347.404,-10 337.404,-6.5001 337.404,-13.5001"/>
</g>
</g>
</svg>
