<?xml version="1.0" encoding="UTF-8" standalone="no"?>
<!DOCTYPE svg PUBLIC "-//W3C//DTD SVG 1.1//EN"
 "http://www.w3.org/Graphics/SVG/1.1/DTD/svg11.dtd">
<!-- Generated by graphviz version 2.36.0 (20140111.2315)
 -->
<!-- Title: AC_WPNav::get_bearing_cd Pages: 1 -->
<svg width="532pt" height="136pt"
 viewBox="0.00 0.00 532.00 136.00" xmlns="http://www.w3.org/2000/svg" xmlns:xlink="http://www.w3.org/1999/xlink">
<g id="graph0" class="graph" transform="scale(1 1) rotate(0) translate(4 132)">
<title>AC_WPNav::get_bearing_cd</title>
<polygon fill="white" stroke="none" points="-4,4 -4,-132 528,-132 528,4 -4,4"/>
<!-- Node1 -->
<g id="node1" class="node"><title>Node1</title>
<polygon fill="#bfbfbf" stroke="black" points="0.5,-54.5 0.5,-73.5 143.5,-73.5 143.5,-54.5 0.5,-54.5"/>
<text text-anchor="middle" x="72" y="-61.5" font-family="Helvetica,sans-Serif" font-size="10.00">AC_WPNav::get_bearing_cd</text>
</g>
<!-- Node2 -->
<g id="node2" class="node"><title>Node2</title>
<g id="a_node2"><a xlink:href="$classAC__WPNav.html#a7f711c7661c335417cbcc28f9546688c" xlink:title="get_loiter_bearing_to_target &#45; get bearing to loiter target in centi&#45;degrees ">
<polygon fill="white" stroke="black" points="195,-98 195,-128 311,-128 311,-98 195,-98"/>
<text text-anchor="start" x="203" y="-116" font-family="Helvetica,sans-Serif" font-size="10.00">AC_WPNav::get_loiter</text>
<text text-anchor="middle" x="253" y="-105" font-family="Helvetica,sans-Serif" font-size="10.00">_bearing_to_target</text>
</a>
</g>
</g>
<!-- Node1&#45;&gt;Node2 -->
<g id="edge1" class="edge"><title>Node1&#45;&gt;Node2</title>
<path fill="none" stroke="midnightblue" d="M117.851,-76.2776C141.874,-82.8537 171.666,-91.0092 197.069,-97.963"/>
<polygon fill="midnightblue" stroke="midnightblue" points="118.507,-72.8286 107.938,-73.564 116.659,-79.5802 118.507,-72.8286"/>
</g>
<!-- Node3 -->
<g id="node3" class="node"><title>Node3</title>
<g id="a_node3"><a xlink:href="$classAC__WPNav.html#aaf51adb38cdaf72ffa54d2a03a151cfd" xlink:title="get_bearing_to_destination &#45; get bearing to next waypoint in centi&#45;degrees ">
<polygon fill="white" stroke="black" points="180.5,-49 180.5,-79 325.5,-79 325.5,-49 180.5,-49"/>
<text text-anchor="start" x="188.5" y="-67" font-family="Helvetica,sans-Serif" font-size="10.00">AC_WPNav::get_wp_bearing</text>
<text text-anchor="middle" x="253" y="-56" font-family="Helvetica,sans-Serif" font-size="10.00">_to_destination</text>
</a>
</g>
</g>
<!-- Node1&#45;&gt;Node3 -->
<g id="edge2" class="edge"><title>Node1&#45;&gt;Node3</title>
<path fill="none" stroke="midnightblue" d="M153.979,-64C162.757,-64 171.645,-64 180.302,-64"/>
<polygon fill="midnightblue" stroke="midnightblue" points="153.746,-60.5001 143.746,-64 153.746,-67.5001 153.746,-60.5001"/>
</g>
<!-- Node4 -->
<g id="node4" class="node"><title>Node4</title>
<g id="a_node4"><a xlink:href="$classAC__WPNav.html#a5b055923b08502c96c71a9e186020b42" xlink:title="set_wp_origin_and_destination &#45; set origin and destination waypoints using position vectors (distance...">
<polygon fill="white" stroke="black" points="184.5,-0 184.5,-30 321.5,-30 321.5,-0 184.5,-0"/>
<text text-anchor="start" x="192.5" y="-18" font-family="Helvetica,sans-Serif" font-size="10.00">AC_WPNav::set_wp_origin</text>
<text text-anchor="middle" x="253" y="-7" font-family="Helvetica,sans-Serif" font-size="10.00">_and_destination</text>
</a>
</g>
</g>
<!-- Node1&#45;&gt;Node4 -->
<g id="edge3" class="edge"><title>Node1&#45;&gt;Node4</title>
<path fill="none" stroke="midnightblue" d="M117.851,-51.7224C141.874,-45.1463 171.666,-36.9908 197.069,-30.037"/>
<polygon fill="midnightblue" stroke="midnightblue" points="116.659,-48.4198 107.938,-54.436 118.507,-55.1714 116.659,-48.4198"/>
</g>
<!-- Node5 -->
<g id="node5" class="node"><title>Node5</title>
<g id="a_node5"><a xlink:href="$classAC__WPNav.html#aac204111a3f01e04d5b8165f03db223e" xlink:title="set_wp_destination waypoint using position vector (distance from home in cm) ">
<polygon fill="white" stroke="black" points="362.5,-5.5 362.5,-24.5 523.5,-24.5 523.5,-5.5 362.5,-5.5"/>
<text text-anchor="middle" x="443" y="-12.5" font-family="Helvetica,sans-Serif" font-size="10.00">AC_WPNav::set_wp_destination</text>
</a>
</g>
</g>
<!-- Node4&#45;&gt;Node5 -->
<g id="edge4" class="edge"><title>Node4&#45;&gt;Node5</title>
<path fill="none" stroke="midnightblue" d="M331.914,-15C341.911,-15 352.158,-15 362.184,-15"/>
<polygon fill="midnightblue" stroke="midnightblue" points="331.607,-11.5001 321.607,-15 331.607,-18.5001 331.607,-11.5001"/>
</g>
</g>
</svg>
