<?xml version="1.0" encoding="UTF-8" standalone="no"?>
<!DOCTYPE svg PUBLIC "-//W3C//DTD SVG 1.1//EN"
 "http://www.w3.org/Graphics/SVG/1.1/DTD/svg11.dtd">
<!-- Generated by graphviz version 2.36.0 (20140111.2315)
 -->
<!-- Title: NavEKF::setOrigin Pages: 1 -->
<svg width="598pt" height="126pt"
 viewBox="0.00 0.00 598.00 126.00" xmlns="http://www.w3.org/2000/svg" xmlns:xlink="http://www.w3.org/1999/xlink">
<g id="graph0" class="graph" transform="scale(1 1) rotate(0) translate(4 122)">
<title>NavEKF::setOrigin</title>
<polygon fill="white" stroke="none" points="-4,4 -4,-122 594,-122 594,4 -4,4"/>
<!-- Node1 -->
<g id="node1" class="node"><title>Node1</title>
<polygon fill="#bfbfbf" stroke="black" points="0.5,-44.5 0.5,-63.5 99.5,-63.5 99.5,-44.5 0.5,-44.5"/>
<text text-anchor="middle" x="50" y="-51.5" font-family="Helvetica,sans-Serif" font-size="10.00">NavEKF::setOrigin</text>
</g>
<!-- Node2 -->
<g id="node2" class="node"><title>Node2</title>
<g id="a_node2"><a xlink:href="$classNavEKF.html#a4c44a7b25f5b5584b755142c6198fd1e" xlink:title="NavEKF::readGpsData">
<polygon fill="white" stroke="black" points="136,-44.5 136,-63.5 254,-63.5 254,-44.5 136,-44.5"/>
<text text-anchor="middle" x="195" y="-51.5" font-family="Helvetica,sans-Serif" font-size="10.00">NavEKF::readGpsData</text>
</a>
</g>
</g>
<!-- Node1&#45;&gt;Node2 -->
<g id="edge1" class="edge"><title>Node1&#45;&gt;Node2</title>
<path fill="none" stroke="midnightblue" d="M110.034,-54C118.54,-54 127.289,-54 135.779,-54"/>
<polygon fill="midnightblue" stroke="midnightblue" points="109.813,-50.5001 99.8125,-54 109.812,-57.5001 109.813,-50.5001"/>
</g>
<!-- Node3 -->
<g id="node3" class="node"><title>Node3</title>
<g id="a_node3"><a xlink:href="$classNavEKF.html#a290932b02347c5247f036fbc3c7af9d8" xlink:title="NavEKF::InitialiseFilter\lBootstrap">
<polygon fill="white" stroke="black" points="306,-88 306,-118 424,-118 424,-88 306,-88"/>
<text text-anchor="start" x="314" y="-106" font-family="Helvetica,sans-Serif" font-size="10.00">NavEKF::InitialiseFilter</text>
<text text-anchor="middle" x="365" y="-95" font-family="Helvetica,sans-Serif" font-size="10.00">Bootstrap</text>
</a>
</g>
</g>
<!-- Node2&#45;&gt;Node3 -->
<g id="edge2" class="edge"><title>Node2&#45;&gt;Node3</title>
<path fill="none" stroke="midnightblue" d="M238.397,-66.3657C260.891,-72.9265 288.71,-81.0403 312.445,-87.963"/>
<polygon fill="midnightblue" stroke="midnightblue" points="239.371,-63.0041 228.791,-63.564 237.411,-69.7241 239.371,-63.0041"/>
</g>
<!-- Node4 -->
<g id="node4" class="node"><title>Node4</title>
<g id="a_node4"><a xlink:href="$classNavEKF.html#a12500a621febd8f914f6e16db4c28759" xlink:title="NavEKF::InitialiseFilter\lDynamic">
<polygon fill="white" stroke="black" points="306,-39 306,-69 424,-69 424,-39 306,-39"/>
<text text-anchor="start" x="314" y="-57" font-family="Helvetica,sans-Serif" font-size="10.00">NavEKF::InitialiseFilter</text>
<text text-anchor="middle" x="365" y="-46" font-family="Helvetica,sans-Serif" font-size="10.00">Dynamic</text>
</a>
</g>
</g>
<!-- Node2&#45;&gt;Node4 -->
<g id="edge3" class="edge"><title>Node2&#45;&gt;Node4</title>
<path fill="none" stroke="midnightblue" d="M264.611,-54C278.289,-54 292.53,-54 305.816,-54"/>
<polygon fill="midnightblue" stroke="midnightblue" points="264.287,-50.5001 254.287,-54 264.287,-57.5001 264.287,-50.5001"/>
</g>
<!-- Node5 -->
<g id="node5" class="node"><title>Node5</title>
<g id="a_node5"><a xlink:href="$classNavEKF.html#a58fc44f797a61b7f760baa4961f43342" xlink:title="NavEKF::SelectVelPosFusion">
<polygon fill="white" stroke="black" points="290.5,-0.5 290.5,-19.5 439.5,-19.5 439.5,-0.5 290.5,-0.5"/>
<text text-anchor="middle" x="365" y="-7.5" font-family="Helvetica,sans-Serif" font-size="10.00">NavEKF::SelectVelPosFusion</text>
</a>
</g>
</g>
<!-- Node2&#45;&gt;Node5 -->
<g id="edge4" class="edge"><title>Node2&#45;&gt;Node5</title>
<path fill="none" stroke="midnightblue" d="M242.409,-41.8453C269.292,-34.8045 302.647,-26.0688 327.618,-19.5287"/>
<polygon fill="midnightblue" stroke="midnightblue" points="241.24,-38.5332 232.453,-44.4527 243.014,-45.3048 241.24,-38.5332"/>
</g>
<!-- Node6 -->
<g id="node6" class="node"><title>Node6</title>
<g id="a_node6"><a xlink:href="$classNavEKF.html#a58d3c9694abab421e8eadd78e72ac67c" xlink:title="NavEKF::UpdateFilter">
<polygon fill="white" stroke="black" points="476.5,-0.5 476.5,-19.5 589.5,-19.5 589.5,-0.5 476.5,-0.5"/>
<text text-anchor="middle" x="533" y="-7.5" font-family="Helvetica,sans-Serif" font-size="10.00">NavEKF::UpdateFilter</text>
</a>
</g>
</g>
<!-- Node5&#45;&gt;Node6 -->
<g id="edge5" class="edge"><title>Node5&#45;&gt;Node6</title>
<path fill="none" stroke="midnightblue" d="M449.902,-10C458.885,-10 467.854,-10 476.387,-10"/>
<polygon fill="midnightblue" stroke="midnightblue" points="449.777,-6.5001 439.777,-10 449.777,-13.5001 449.777,-6.5001"/>
</g>
</g>
</svg>
