<?xml version="1.0" encoding="UTF-8" standalone="no"?>
<!DOCTYPE svg PUBLIC "-//W3C//DTD SVG 1.1//EN"
 "http://www.w3.org/Graphics/SVG/1.1/DTD/svg11.dtd">
<!-- Generated by graphviz version 2.36.0 (20140111.2315)
 -->
<!-- Title: PX4::PX4Storage::_mtd_signature Pages: 1 -->
<svg width="488pt" height="87pt"
 viewBox="0.00 0.00 488.00 87.00" xmlns="http://www.w3.org/2000/svg" xmlns:xlink="http://www.w3.org/1999/xlink">
<g id="graph0" class="graph" transform="scale(1 1) rotate(0) translate(4 83)">
<title>PX4::PX4Storage::_mtd_signature</title>
<polygon fill="white" stroke="none" points="-4,4 -4,-83 484,-83 484,4 -4,4"/>
<!-- Node1 -->
<g id="node1" class="node"><title>Node1</title>
<polygon fill="#bfbfbf" stroke="black" points="0,-24 0,-54 122,-54 122,-24 0,-24"/>
<text text-anchor="start" x="8" y="-42" font-family="Helvetica,sans-Serif" font-size="10.00">PX4::PX4Storage::_mtd</text>
<text text-anchor="middle" x="61" y="-31" font-family="Helvetica,sans-Serif" font-size="10.00">_signature</text>
</g>
<!-- Node2 -->
<g id="node2" class="node"><title>Node2</title>
<g id="a_node2"><a xlink:href="$classPX4_1_1PX4Storage.html#a02878fb502221c2389d3758bbab18170" xlink:title="PX4::PX4Storage::_storage_open">
<polygon fill="white" stroke="black" points="158,-29.5 158,-48.5 322,-48.5 322,-29.5 158,-29.5"/>
<text text-anchor="middle" x="240" y="-36.5" font-family="Helvetica,sans-Serif" font-size="10.00">PX4::PX4Storage::_storage_open</text>
</a>
</g>
</g>
<!-- Node1&#45;&gt;Node2 -->
<g id="edge1" class="edge"><title>Node1&#45;&gt;Node2</title>
<path fill="none" stroke="midnightblue" d="M132.472,-39C140.823,-39 149.397,-39 157.88,-39"/>
<polygon fill="midnightblue" stroke="midnightblue" points="132.418,-35.5001 122.418,-39 132.418,-42.5001 132.418,-35.5001"/>
</g>
<!-- Node3 -->
<g id="node3" class="node"><title>Node3</title>
<g id="a_node3"><a xlink:href="$classPX4_1_1PX4Storage.html#a905f7ce49985c0670a8f05e196e18c1f" xlink:title="PX4::PX4Storage::read\l_block">
<polygon fill="white" stroke="black" points="359.5,-49 359.5,-79 478.5,-79 478.5,-49 359.5,-49"/>
<text text-anchor="start" x="367.5" y="-67" font-family="Helvetica,sans-Serif" font-size="10.00">PX4::PX4Storage::read</text>
<text text-anchor="middle" x="419" y="-56" font-family="Helvetica,sans-Serif" font-size="10.00">_block</text>
</a>
</g>
</g>
<!-- Node2&#45;&gt;Node3 -->
<g id="edge2" class="edge"><title>Node2&#45;&gt;Node3</title>
<path fill="none" stroke="midnightblue" d="M318.371,-49.928C332.15,-51.8743 346.296,-53.8723 359.442,-55.7291"/>
<polygon fill="midnightblue" stroke="midnightblue" points="318.812,-46.4558 308.421,-48.5227 317.833,-53.387 318.812,-46.4558"/>
</g>
<!-- Node4 -->
<g id="node4" class="node"><title>Node4</title>
<g id="a_node4"><a xlink:href="$classPX4_1_1PX4Storage.html#aae27b43fbe4428f430fad9f8d035a67f" xlink:title="PX4::PX4Storage::write\l_block">
<polygon fill="white" stroke="black" points="358.5,-0 358.5,-30 479.5,-30 479.5,-0 358.5,-0"/>
<text text-anchor="start" x="366.5" y="-18" font-family="Helvetica,sans-Serif" font-size="10.00">PX4::PX4Storage::write</text>
<text text-anchor="middle" x="419" y="-7" font-family="Helvetica,sans-Serif" font-size="10.00">_block</text>
</a>
</g>
</g>
<!-- Node2&#45;&gt;Node4 -->
<g id="edge3" class="edge"><title>Node2&#45;&gt;Node4</title>
<path fill="none" stroke="midnightblue" d="M321.191,-28.1267C333.721,-26.4277 346.475,-24.6982 358.437,-23.0763"/>
<polygon fill="midnightblue" stroke="midnightblue" points="320.648,-24.6681 311.209,-29.4801 321.589,-31.6046 320.648,-24.6681"/>
</g>
</g>
</svg>
