<?xml version="1.0" encoding="UTF-8" standalone="no"?>
<!DOCTYPE svg PUBLIC "-//W3C//DTD SVG 1.1//EN"
 "http://www.w3.org/Graphics/SVG/1.1/DTD/svg11.dtd">
<!-- Generated by graphviz version 2.36.0 (20140111.2315)
 -->
<!-- Title: AP_Compass_AK8963::_register_read Pages: 1 -->
<svg width="1240pt" height="61pt"
 viewBox="0.00 0.00 1240.00 61.00" xmlns="http://www.w3.org/2000/svg" xmlns:xlink="http://www.w3.org/1999/xlink">
<g id="graph0" class="graph" transform="scale(1 1) rotate(0) translate(4 57)">
<title>AP_Compass_AK8963::_register_read</title>
<polygon fill="white" stroke="none" points="-4,4 -4,-57 1236,-57 1236,4 -4,4"/>
<!-- Node1 -->
<g id="node1" class="node"><title>Node1</title>
<polygon fill="#bfbfbf" stroke="black" points="0.5,-1 0.5,-31 123.5,-31 123.5,-1 0.5,-1"/>
<text text-anchor="start" x="8.5" y="-19" font-family="Helvetica,sans-Serif" font-size="10.00">AP_Compass_AK8963::</text>
<text text-anchor="middle" x="62" y="-8" font-family="Helvetica,sans-Serif" font-size="10.00">_register_read</text>
</g>
<!-- Node2 -->
<g id="node2" class="node"><title>Node2</title>
<g id="a_node2"><a xlink:href="$classAP__Compass__AK8963.html#ad72f424d1313f4ad5951ef6a2f399740" xlink:title="AP_Compass_AK8963::\l_calibrate">
<polygon fill="white" stroke="black" points="160.5,-23 160.5,-53 283.5,-53 283.5,-23 160.5,-23"/>
<text text-anchor="start" x="168.5" y="-41" font-family="Helvetica,sans-Serif" font-size="10.00">AP_Compass_AK8963::</text>
<text text-anchor="middle" x="222" y="-30" font-family="Helvetica,sans-Serif" font-size="10.00">_calibrate</text>
</a>
</g>
</g>
<!-- Node1&#45;&gt;Node2 -->
<g id="edge1" class="edge"><title>Node1&#45;&gt;Node2</title>
<path fill="none" stroke="midnightblue" d="M133.597,-25.8299C142.495,-27.069 151.538,-28.3281 160.266,-29.5434"/>
<polygon fill="midnightblue" stroke="midnightblue" points="134.022,-22.3555 123.635,-24.4429 133.057,-29.2886 134.022,-22.3555"/>
</g>
<!-- Node3 -->
<g id="node3" class="node"><title>Node3</title>
<g id="a_node3"><a xlink:href="$classAP__Compass__AK8963.html#acdbf7f9d95111c8c6cf571da0b066bdd" xlink:title="AP_Compass_AK8963::init">
<polygon fill="white" stroke="black" points="320,-6.5 320,-25.5 456,-25.5 456,-6.5 320,-6.5"/>
<text text-anchor="middle" x="388" y="-13.5" font-family="Helvetica,sans-Serif" font-size="10.00">AP_Compass_AK8963::init</text>
</a>
</g>
</g>
<!-- Node1&#45;&gt;Node3 -->
<g id="edge8" class="edge"><title>Node1&#45;&gt;Node3</title>
<path fill="none" stroke="midnightblue" d="M133.821,-14.3706C142.636,-14.2176 151.526,-14.0874 160,-14 215.108,-13.4319 228.891,-13.465 284,-14 295.625,-14.1129 307.987,-14.2973 319.962,-14.5098"/>
<polygon fill="midnightblue" stroke="midnightblue" points="133.471,-10.8763 123.537,-14.5593 133.6,-17.8751 133.471,-10.8763"/>
</g>
<!-- Node2&#45;&gt;Node3 -->
<g id="edge2" class="edge"><title>Node2&#45;&gt;Node3</title>
<path fill="none" stroke="midnightblue" d="M293.659,-28.5213C302.315,-27.3602 311.142,-26.1761 319.745,-25.022"/>
<polygon fill="midnightblue" stroke="midnightblue" points="293.047,-25.072 283.602,-29.8705 293.978,-32.0098 293.047,-25.072"/>
</g>
<!-- Node4 -->
<g id="node4" class="node"><title>Node4</title>
<g id="a_node4"><a xlink:href="$classAP__Compass__AK8963__MPU9250.html#a8f1c4437b09e2fcb6e3b863a9a3c119d" xlink:title="AP_Compass_AK8963_MPU9250\l::init">
<polygon fill="white" stroke="black" points="492,-1 492,-31 658,-31 658,-1 492,-1"/>
<text text-anchor="start" x="500" y="-19" font-family="Helvetica,sans-Serif" font-size="10.00">AP_Compass_AK8963_MPU9250</text>
<text text-anchor="middle" x="575" y="-8" font-family="Helvetica,sans-Serif" font-size="10.00">::init</text>
</a>
</g>
</g>
<!-- Node3&#45;&gt;Node4 -->
<g id="edge3" class="edge"><title>Node3&#45;&gt;Node4</title>
<path fill="none" stroke="midnightblue" d="M466.219,-16C474.642,-16 483.239,-16 491.72,-16"/>
<polygon fill="midnightblue" stroke="midnightblue" points="466.051,-12.5001 456.051,-16 466.051,-19.5001 466.051,-12.5001"/>
</g>
<!-- Node5 -->
<g id="node5" class="node"><title>Node5</title>
<g id="a_node5"><a xlink:href="$classAP__Compass__AK8963__MPU9250.html#a6276a40d516ecd31513c02ecf84a666f" xlink:title="AP_Compass_AK8963_MPU9250\l::detect">
<polygon fill="white" stroke="black" points="694,-1 694,-31 860,-31 860,-1 694,-1"/>
<text text-anchor="start" x="702" y="-19" font-family="Helvetica,sans-Serif" font-size="10.00">AP_Compass_AK8963_MPU9250</text>
<text text-anchor="middle" x="777" y="-8" font-family="Helvetica,sans-Serif" font-size="10.00">::detect</text>
</a>
</g>
</g>
<!-- Node4&#45;&gt;Node5 -->
<g id="edge4" class="edge"><title>Node4&#45;&gt;Node5</title>
<path fill="none" stroke="midnightblue" d="M668.466,-16C676.914,-16 685.434,-16 693.783,-16"/>
<polygon fill="midnightblue" stroke="midnightblue" points="668.213,-12.5001 658.213,-16 668.213,-19.5001 668.213,-12.5001"/>
</g>
<!-- Node6 -->
<g id="node6" class="node"><title>Node6</title>
<g id="a_node6"><a xlink:href="$classCompass.html#a1c48170d8c8966b22fb150b1634443ec" xlink:title="Compass::_detect_backends">
<polygon fill="white" stroke="black" points="896,-6.5 896,-25.5 1040,-25.5 1040,-6.5 896,-6.5"/>
<text text-anchor="middle" x="968" y="-13.5" font-family="Helvetica,sans-Serif" font-size="10.00">Compass::_detect_backends</text>
</a>
</g>
</g>
<!-- Node5&#45;&gt;Node6 -->
<g id="edge5" class="edge"><title>Node5&#45;&gt;Node6</title>
<path fill="none" stroke="midnightblue" d="M870.207,-16C878.864,-16 887.546,-16 895.964,-16"/>
<polygon fill="midnightblue" stroke="midnightblue" points="870.074,-12.5001 860.074,-16 870.074,-19.5001 870.074,-12.5001"/>
</g>
<!-- Node7 -->
<g id="node7" class="node"><title>Node7</title>
<g id="a_node7"><a xlink:href="$classCompass.html#a190aefc281aba88c7b16e4fc58035c5e" xlink:title="Compass::init">
<polygon fill="white" stroke="black" points="1076.5,-6.5 1076.5,-25.5 1153.5,-25.5 1153.5,-6.5 1076.5,-6.5"/>
<text text-anchor="middle" x="1115" y="-13.5" font-family="Helvetica,sans-Serif" font-size="10.00">Compass::init</text>
</a>
</g>
</g>
<!-- Node6&#45;&gt;Node7 -->
<g id="edge6" class="edge"><title>Node6&#45;&gt;Node7</title>
<path fill="none" stroke="midnightblue" d="M1050.43,-16C1059.42,-16 1068.23,-16 1076.29,-16"/>
<polygon fill="midnightblue" stroke="midnightblue" points="1050.23,-12.5001 1040.23,-16 1050.23,-19.5001 1050.23,-12.5001"/>
</g>
<!-- Node8 -->
<g id="node8" class="node"><title>Node8</title>
<g id="a_node8"><a xlink:href="$AHRS__Test_8pde.html#a7dfd9b79bc5a37d7df40207afbc5431f" xlink:title="setup">
<polygon fill="white" stroke="black" points="1190.5,-6.5 1190.5,-25.5 1231.5,-25.5 1231.5,-6.5 1190.5,-6.5"/>
<text text-anchor="middle" x="1211" y="-13.5" font-family="Helvetica,sans-Serif" font-size="10.00">setup</text>
</a>
</g>
</g>
<!-- Node7&#45;&gt;Node8 -->
<g id="edge7" class="edge"><title>Node7&#45;&gt;Node8</title>
<path fill="none" stroke="midnightblue" d="M1163.83,-16C1173.22,-16 1182.57,-16 1190.37,-16"/>
<polygon fill="midnightblue" stroke="midnightblue" points="1163.69,-12.5001 1153.69,-16 1163.69,-19.5001 1163.69,-12.5001"/>
</g>
</g>
</svg>
