<?xml version="1.0" encoding="UTF-8" standalone="no"?>
<!DOCTYPE svg PUBLIC "-//W3C//DTD SVG 1.1//EN"
 "http://www.w3.org/Graphics/SVG/1.1/DTD/svg11.dtd">
<!-- Generated by graphviz version 2.36.0 (20140111.2315)
 -->
<!-- Title: AP_HAL_FLYMAPLE_NS::FLYMAPLEStorage::read_block Pages: 1 -->
<svg width="516pt" height="77pt"
 viewBox="0.00 0.00 516.00 77.00" xmlns="http://www.w3.org/2000/svg" xmlns:xlink="http://www.w3.org/1999/xlink">
<g id="graph0" class="graph" transform="scale(1 1) rotate(0) translate(4 73)">
<title>AP_HAL_FLYMAPLE_NS::FLYMAPLEStorage::read_block</title>
<polygon fill="white" stroke="none" points="-4,4 -4,-73 512,-73 512,4 -4,4"/>
<!-- Node1 -->
<g id="node1" class="node"><title>Node1</title>
<polygon fill="#bfbfbf" stroke="black" points="0.5,-17 0.5,-47 161.5,-47 161.5,-17 0.5,-17"/>
<text text-anchor="start" x="8.5" y="-35" font-family="Helvetica,sans-Serif" font-size="10.00">AP_HAL_FLYMAPLE_NS</text>
<text text-anchor="middle" x="81" y="-24" font-family="Helvetica,sans-Serif" font-size="10.00">::FLYMAPLEStorage::read_block</text>
</g>
<!-- Node2 -->
<g id="node2" class="node"><title>Node2</title>
<g id="a_node2"><a xlink:href="$classAP__HAL__FLYMAPLE__NS_1_1FLYMAPLEStorage.html#a381ee49e8ce060d1b74d431d96292eeb" xlink:title="AP_HAL_FLYMAPLE_NS\l::FLYMAPLEStorage::read_byte">
<polygon fill="white" stroke="black" points="198.5,-17 198.5,-47 355.5,-47 355.5,-17 198.5,-17"/>
<text text-anchor="start" x="206.5" y="-35" font-family="Helvetica,sans-Serif" font-size="10.00">AP_HAL_FLYMAPLE_NS</text>
<text text-anchor="middle" x="277" y="-24" font-family="Helvetica,sans-Serif" font-size="10.00">::FLYMAPLEStorage::read_byte</text>
</a>
</g>
</g>
<!-- Node1&#45;&gt;Node2 -->
<g id="edge1" class="edge"><title>Node1&#45;&gt;Node2</title>
<path fill="none" stroke="midnightblue" d="M161.747,-32C170.46,-32 179.366,-32 188.169,-32"/>
<polygon fill="midnightblue" stroke="midnightblue" points="188.44,-35.5001 198.44,-32 188.44,-28.5001 188.44,-35.5001"/>
</g>
<!-- Node3 -->
<g id="node3" class="node"><title>Node3</title>
<g id="a_node3"><a xlink:href="$classAP__HAL_1_1UARTDriver.html#a4b1ae6fcec3dfe651d08faf589f4ad6d" xlink:title="AP_HAL::UARTDriver\l::printf">
<polygon fill="white" stroke="black" points="392.5,-39 392.5,-69 507.5,-69 507.5,-39 392.5,-39"/>
<text text-anchor="start" x="400.5" y="-57" font-family="Helvetica,sans-Serif" font-size="10.00">AP_HAL::UARTDriver</text>
<text text-anchor="middle" x="450" y="-46" font-family="Helvetica,sans-Serif" font-size="10.00">::printf</text>
</a>
</g>
</g>
<!-- Node2&#45;&gt;Node3 -->
<g id="edge2" class="edge"><title>Node2&#45;&gt;Node3</title>
<path fill="none" stroke="midnightblue" d="M355.994,-42.0343C364.794,-43.1665 373.701,-44.3124 382.339,-45.4237"/>
<polygon fill="midnightblue" stroke="midnightblue" points="381.966,-48.9046 392.331,-46.7093 382.86,-41.9618 381.966,-48.9046"/>
</g>
<!-- Node4 -->
<g id="node4" class="node"><title>Node4</title>
<g id="a_node4"><a xlink:href="$classEEPROMClass.html#a3f5b8a0e4c2e90958c3b2b81f460b65b" xlink:title="Returns the last stored variable data, if found, which correspond to the passed virtual address...">
<polygon fill="white" stroke="black" points="395,-0.5 395,-19.5 505,-19.5 505,-0.5 395,-0.5"/>
<text text-anchor="middle" x="450" y="-7.5" font-family="Helvetica,sans-Serif" font-size="10.00">EEPROMClass::read</text>
</a>
</g>
</g>
<!-- Node2&#45;&gt;Node4 -->
<g id="edge3" class="edge"><title>Node2&#45;&gt;Node4</title>
<path fill="none" stroke="midnightblue" d="M355.994,-21.9657C365.568,-20.734 375.268,-19.486 384.61,-18.2842"/>
<polygon fill="midnightblue" stroke="midnightblue" points="385.111,-21.7486 394.582,-17.0011 384.218,-14.8058 385.111,-21.7486"/>
</g>
</g>
</svg>
