<?xml version="1.0" encoding="UTF-8" standalone="no"?>
<!DOCTYPE svg PUBLIC "-//W3C//DTD SVG 1.1//EN"
 "http://www.w3.org/Graphics/SVG/1.1/DTD/svg11.dtd">
<!-- Generated by graphviz version 2.36.0 (20140111.2315)
 -->
<!-- Title: NavEKF::readIMUData Pages: 1 -->
<svg width="448pt" height="570pt"
 viewBox="0.00 0.00 448.00 570.00" xmlns="http://www.w3.org/2000/svg" xmlns:xlink="http://www.w3.org/1999/xlink">
<g id="graph0" class="graph" transform="scale(1 1) rotate(0) translate(4 566)">
<title>NavEKF::readIMUData</title>
<polygon fill="white" stroke="none" points="-4,4 -4,-566 444,-566 444,4 -4,4"/>
<!-- Node1 -->
<g id="node1" class="node"><title>Node1</title>
<polygon fill="#bfbfbf" stroke="black" points="0.5,-229.5 0.5,-248.5 119.5,-248.5 119.5,-229.5 0.5,-229.5"/>
<text text-anchor="middle" x="60" y="-236.5" font-family="Helvetica,sans-Serif" font-size="10.00">NavEKF::readIMUData</text>
</g>
<!-- Node2 -->
<g id="node2" class="node"><title>Node2</title>
<g id="a_node2"><a xlink:href="$classAP__AHRS.html#a14398c5d2ae68bbe1c67482a91909ad9" xlink:title="AP_AHRS::get_ins">
<polygon fill="white" stroke="black" points="334.5,-229.5 334.5,-248.5 435.5,-248.5 435.5,-229.5 334.5,-229.5"/>
<text text-anchor="middle" x="385" y="-236.5" font-family="Helvetica,sans-Serif" font-size="10.00">AP_AHRS::get_ins</text>
</a>
</g>
</g>
<!-- Node1&#45;&gt;Node2 -->
<g id="edge1" class="edge"><title>Node1&#45;&gt;Node2</title>
<path fill="none" stroke="midnightblue" d="M119.868,-239C177.801,-239 265.821,-239 324.106,-239"/>
<polygon fill="midnightblue" stroke="midnightblue" points="324.271,-242.5 334.27,-239 324.27,-235.5 324.271,-242.5"/>
</g>
<!-- Node3 -->
<g id="node3" class="node"><title>Node3</title>
<g id="a_node3"><a xlink:href="$classAP__InertialSensor.html#a7e9afc57ac1aa35adca7d8bf870fbb4c" xlink:title="AP_InertialSensor::\lget_sample_rate">
<polygon fill="white" stroke="black" points="174.5,-415 174.5,-445 275.5,-445 275.5,-415 174.5,-415"/>
<text text-anchor="start" x="182.5" y="-433" font-family="Helvetica,sans-Serif" font-size="10.00">AP_InertialSensor::</text>
<text text-anchor="middle" x="225" y="-422" font-family="Helvetica,sans-Serif" font-size="10.00">get_sample_rate</text>
</a>
</g>
</g>
<!-- Node1&#45;&gt;Node3 -->
<g id="edge2" class="edge"><title>Node1&#45;&gt;Node3</title>
<path fill="none" stroke="midnightblue" d="M63.9409,-248.793C72.9335,-277.121 102.741,-359.99 156,-405 158.858,-407.415 161.97,-409.607 165.239,-411.594"/>
<polygon fill="midnightblue" stroke="midnightblue" points="163.722,-414.752 174.189,-416.391 167.028,-408.582 163.722,-414.752"/>
</g>
<!-- Node4 -->
<g id="node4" class="node"><title>Node4</title>
<g id="a_node4"><a xlink:href="$classAP__InertialSensor.html#a7091792f55b39778157617b5e38e6075" xlink:title="AP_InertialSensor::\lget_delta_time">
<polygon fill="white" stroke="black" points="174.5,-366 174.5,-396 275.5,-396 275.5,-366 174.5,-366"/>
<text text-anchor="start" x="182.5" y="-384" font-family="Helvetica,sans-Serif" font-size="10.00">AP_InertialSensor::</text>
<text text-anchor="middle" x="225" y="-373" font-family="Helvetica,sans-Serif" font-size="10.00">get_delta_time</text>
</a>
</g>
</g>
<!-- Node1&#45;&gt;Node4 -->
<g id="edge3" class="edge"><title>Node1&#45;&gt;Node4</title>
<path fill="none" stroke="midnightblue" d="M66.346,-248.646C79.0505,-270.732 113.213,-325.418 156,-356 158.99,-358.137 162.183,-360.112 165.494,-361.934"/>
<polygon fill="midnightblue" stroke="midnightblue" points="163.964,-365.082 174.476,-366.406 167.084,-358.816 163.964,-365.082"/>
</g>
<!-- Node5 -->
<g id="node5" class="node"><title>Node5</title>
<g id="a_node5"><a xlink:href="$classAP__HAL_1_1Scheduler.html#a26b68339fc68a562d8d3a1238d0ec8c1" xlink:title="AP_HAL::Scheduler::\lmillis">
<polygon fill="white" stroke="black" points="170,-317 170,-347 280,-347 280,-317 170,-317"/>
<text text-anchor="start" x="178" y="-335" font-family="Helvetica,sans-Serif" font-size="10.00">AP_HAL::Scheduler::</text>
<text text-anchor="middle" x="225" y="-324" font-family="Helvetica,sans-Serif" font-size="10.00">millis</text>
</a>
</g>
</g>
<!-- Node1&#45;&gt;Node5 -->
<g id="edge4" class="edge"><title>Node1&#45;&gt;Node5</title>
<path fill="none" stroke="midnightblue" d="M72.3291,-248.668C89.4979,-262.945 123.552,-289.827 156,-307 159.985,-309.109 164.187,-311.117 168.467,-313.012"/>
<polygon fill="midnightblue" stroke="midnightblue" points="167.333,-316.332 177.908,-316.974 170.041,-309.877 167.333,-316.332"/>
</g>
<!-- Node6 -->
<g id="node6" class="node"><title>Node6</title>
<g id="a_node6"><a xlink:href="$classAP__InertialSensor.html#a2044e7b3804c73b4c393d3988351a96e" xlink:title="AP_InertialSensor::\lget_accel_health">
<polygon fill="white" stroke="black" points="174.5,-268 174.5,-298 275.5,-298 275.5,-268 174.5,-268"/>
<text text-anchor="start" x="182.5" y="-286" font-family="Helvetica,sans-Serif" font-size="10.00">AP_InertialSensor::</text>
<text text-anchor="middle" x="225" y="-275" font-family="Helvetica,sans-Serif" font-size="10.00">get_accel_health</text>
</a>
</g>
</g>
<!-- Node1&#45;&gt;Node6 -->
<g id="edge5" class="edge"><title>Node1&#45;&gt;Node6</title>
<path fill="none" stroke="midnightblue" d="M96.3686,-248.547C116.359,-253.944 141.871,-260.83 164.823,-267.026"/>
<polygon fill="midnightblue" stroke="midnightblue" points="163.913,-270.405 174.479,-269.632 165.737,-263.647 163.913,-270.405"/>
</g>
<!-- Node7 -->
<g id="node7" class="node"><title>Node7</title>
<g id="a_node7"><a xlink:href="$classNavEKF.html#ad3d371f0125528a6ca2f3a996e7a4ad6" xlink:title="NavEKF::readDeltaVelocity">
<polygon fill="white" stroke="black" points="156.5,-464.5 156.5,-483.5 293.5,-483.5 293.5,-464.5 156.5,-464.5"/>
<text text-anchor="middle" x="225" y="-471.5" font-family="Helvetica,sans-Serif" font-size="10.00">NavEKF::readDeltaVelocity</text>
</a>
</g>
</g>
<!-- Node1&#45;&gt;Node7 -->
<g id="edge6" class="edge"><title>Node1&#45;&gt;Node7</title>
<path fill="none" stroke="midnightblue" d="M62.3813,-248.848C67.6666,-282.767 89.7549,-395.853 156,-454 158.497,-456.192 161.224,-458.144 164.104,-459.882"/>
<polygon fill="midnightblue" stroke="midnightblue" points="162.63,-463.059 173.129,-464.482 165.809,-456.822 162.63,-463.059"/>
</g>
<!-- Node12 -->
<g id="node12" class="node"><title>Node12</title>
<g id="a_node12"><a xlink:href="$classAP__InertialSensor.html#ab7e75af54a874d77240c89c6e5152a99" xlink:title="AP_InertialSensor::\lget_primary_accel">
<polygon fill="white" stroke="black" points="174.5,-180 174.5,-210 275.5,-210 275.5,-180 174.5,-180"/>
<text text-anchor="start" x="182.5" y="-198" font-family="Helvetica,sans-Serif" font-size="10.00">AP_InertialSensor::</text>
<text text-anchor="middle" x="225" y="-187" font-family="Helvetica,sans-Serif" font-size="10.00">get_primary_accel</text>
</a>
</g>
</g>
<!-- Node1&#45;&gt;Node12 -->
<g id="edge12" class="edge"><title>Node1&#45;&gt;Node12</title>
<path fill="none" stroke="midnightblue" d="M96.3686,-229.453C116.359,-224.056 141.871,-217.17 164.823,-210.974"/>
<polygon fill="midnightblue" stroke="midnightblue" points="165.737,-214.353 174.479,-208.368 163.913,-207.595 165.737,-214.353"/>
</g>
<!-- Node13 -->
<g id="node13" class="node"><title>Node13</title>
<g id="a_node13"><a xlink:href="$classAP__InertialSensor.html#abc8c1aea2c3bc58a05d8d9832a9d1194" xlink:title="AP_InertialSensor::\lget_gyro_health">
<polygon fill="white" stroke="black" points="174.5,-131 174.5,-161 275.5,-161 275.5,-131 174.5,-131"/>
<text text-anchor="start" x="182.5" y="-149" font-family="Helvetica,sans-Serif" font-size="10.00">AP_InertialSensor::</text>
<text text-anchor="middle" x="225" y="-138" font-family="Helvetica,sans-Serif" font-size="10.00">get_gyro_health</text>
</a>
</g>
</g>
<!-- Node1&#45;&gt;Node13 -->
<g id="edge13" class="edge"><title>Node1&#45;&gt;Node13</title>
<path fill="none" stroke="midnightblue" d="M71.9919,-229.362C88.9966,-214.85 123.157,-187.254 156,-170 159.297,-168.268 162.746,-166.614 166.268,-165.044"/>
<polygon fill="midnightblue" stroke="midnightblue" points="167.834,-168.182 175.702,-161.087 165.127,-161.727 167.834,-168.182"/>
</g>
<!-- Node14 -->
<g id="node14" class="node"><title>Node14</title>
<g id="a_node14"><a xlink:href="$classVector3.html#adf1769d5ee5df2f8585df2f540fa5efe" xlink:title="Vector3::zero">
<polygon fill="white" stroke="black" points="187.5,-92.5 187.5,-111.5 262.5,-111.5 262.5,-92.5 187.5,-92.5"/>
<text text-anchor="middle" x="225" y="-99.5" font-family="Helvetica,sans-Serif" font-size="10.00">Vector3::zero</text>
</a>
</g>
</g>
<!-- Node1&#45;&gt;Node14 -->
<g id="edge14" class="edge"><title>Node1&#45;&gt;Node14</title>
<path fill="none" stroke="midnightblue" d="M65.9765,-229.366C78.1371,-206.803 111.641,-150.235 156,-121 162.549,-116.684 170.072,-113.339 177.673,-110.748"/>
<polygon fill="midnightblue" stroke="midnightblue" points="178.711,-114.091 187.276,-107.855 176.691,-107.389 178.711,-114.091"/>
</g>
<!-- Node15 -->
<g id="node15" class="node"><title>Node15</title>
<g id="a_node15"><a xlink:href="$classNavEKF.html#af3ed4d1ab0d1e7c6eb21356ba24b8cd6" xlink:title="NavEKF::readDeltaAngle">
<polygon fill="white" stroke="black" points="161.5,-54.5 161.5,-73.5 288.5,-73.5 288.5,-54.5 161.5,-54.5"/>
<text text-anchor="middle" x="225" y="-61.5" font-family="Helvetica,sans-Serif" font-size="10.00">NavEKF::readDeltaAngle</text>
</a>
</g>
</g>
<!-- Node1&#45;&gt;Node15 -->
<g id="edge15" class="edge"><title>Node1&#45;&gt;Node15</title>
<path fill="none" stroke="midnightblue" d="M64.088,-229.202C73.2805,-201.668 103.166,-123.01 156,-83 158.461,-81.1361 161.097,-79.4551 163.848,-77.939"/>
<polygon fill="midnightblue" stroke="midnightblue" points="165.41,-81.0718 172.957,-73.6361 162.421,-74.7423 165.41,-81.0718"/>
</g>
<!-- Node19 -->
<g id="node19" class="node"><title>Node19</title>
<g id="a_node19"><a xlink:href="$classAP__InertialSensor.html#a7fa04e2f196b27b876d86966f64e1fed" xlink:title="AP_InertialSensor::\lget_primary_gyro">
<polygon fill="white" stroke="black" points="174.5,-5 174.5,-35 275.5,-35 275.5,-5 174.5,-5"/>
<text text-anchor="start" x="182.5" y="-23" font-family="Helvetica,sans-Serif" font-size="10.00">AP_InertialSensor::</text>
<text text-anchor="middle" x="225" y="-12" font-family="Helvetica,sans-Serif" font-size="10.00">get_primary_gyro</text>
</a>
</g>
</g>
<!-- Node1&#45;&gt;Node19 -->
<g id="edge20" class="edge"><title>Node1&#45;&gt;Node19</title>
<path fill="none" stroke="midnightblue" d="M63.0198,-229.388C70.0599,-198.202 96.4041,-98.7502 156,-45 158.828,-42.4491 161.939,-40.1518 165.226,-38.0839"/>
<polygon fill="midnightblue" stroke="midnightblue" points="167.177,-41.0055 174.264,-33.1291 163.812,-34.8674 167.177,-41.0055"/>
</g>
<!-- Node7&#45;&gt;Node2 -->
<g id="edge7" class="edge"><title>Node7&#45;&gt;Node2</title>
<path fill="none" stroke="midnightblue" d="M277.297,-464.423C283.379,-461.757 289.141,-458.35 294,-454 301.828,-446.992 356.209,-309.799 376.441,-258.306"/>
<polygon fill="midnightblue" stroke="midnightblue" points="379.817,-259.283 380.211,-248.696 373.3,-256.727 379.817,-259.283"/>
</g>
<!-- Node8 -->
<g id="node8" class="node"><title>Node8</title>
<g id="a_node8"><a xlink:href="$classAP__InertialSensor.html#ac57331a5046d45016ef900726e1be2fb" xlink:title="AP_InertialSensor::\lget_accel_count">
<polygon fill="white" stroke="black" points="334.5,-385 334.5,-415 435.5,-415 435.5,-385 334.5,-385"/>
<text text-anchor="start" x="342.5" y="-403" font-family="Helvetica,sans-Serif" font-size="10.00">AP_InertialSensor::</text>
<text text-anchor="middle" x="385" y="-392" font-family="Helvetica,sans-Serif" font-size="10.00">get_accel_count</text>
</a>
</g>
</g>
<!-- Node7&#45;&gt;Node8 -->
<g id="edge8" class="edge"><title>Node7&#45;&gt;Node8</title>
<path fill="none" stroke="midnightblue" d="M268.005,-464.449C276.846,-461.674 285.932,-458.222 294,-454 312.204,-444.474 312.547,-435.841 330,-425 332.941,-423.173 336.038,-421.396 339.199,-419.687"/>
<polygon fill="midnightblue" stroke="midnightblue" points="340.903,-422.746 348.202,-415.066 337.707,-416.518 340.903,-422.746"/>
</g>
<!-- Node9 -->
<g id="node9" class="node"><title>Node9</title>
<g id="a_node9"><a xlink:href="$classAP__InertialSensor.html#ae29959984a5cbda37ebfce599f89ef73" xlink:title="AP_InertialSensor::\lget_delta_velocity">
<polygon fill="white" stroke="black" points="334.5,-532 334.5,-562 435.5,-562 435.5,-532 334.5,-532"/>
<text text-anchor="start" x="342.5" y="-550" font-family="Helvetica,sans-Serif" font-size="10.00">AP_InertialSensor::</text>
<text text-anchor="middle" x="385" y="-539" font-family="Helvetica,sans-Serif" font-size="10.00">get_delta_velocity</text>
</a>
</g>
</g>
<!-- Node7&#45;&gt;Node9 -->
<g id="edge9" class="edge"><title>Node7&#45;&gt;Node9</title>
<path fill="none" stroke="midnightblue" d="M246.656,-483.543C270.762,-494.681 311.244,-513.385 342.03,-527.609"/>
<polygon fill="midnightblue" stroke="midnightblue" points="340.698,-530.849 351.244,-531.866 343.634,-524.494 340.698,-530.849"/>
</g>
<!-- Node10 -->
<g id="node10" class="node"><title>Node10</title>
<g id="a_node10"><a xlink:href="$classAP__InertialSensor.html#ad22e8ed9b13a093d5cf3a2a420522b3b" xlink:title="AP_InertialSensor::\lget_delta_velocity_dt">
<polygon fill="white" stroke="black" points="330.5,-483 330.5,-513 439.5,-513 439.5,-483 330.5,-483"/>
<text text-anchor="start" x="338.5" y="-501" font-family="Helvetica,sans-Serif" font-size="10.00">AP_InertialSensor::</text>
<text text-anchor="middle" x="385" y="-490" font-family="Helvetica,sans-Serif" font-size="10.00">get_delta_velocity_dt</text>
</a>
</g>
</g>
<!-- Node7&#45;&gt;Node10 -->
<g id="edge10" class="edge"><title>Node7&#45;&gt;Node10</title>
<path fill="none" stroke="midnightblue" d="M288.9,-483.554C299.227,-485.123 309.937,-486.75 320.283,-488.322"/>
<polygon fill="midnightblue" stroke="midnightblue" points="320.069,-491.829 330.481,-489.871 321.12,-484.908 320.069,-491.829"/>
</g>
<!-- Node11 -->
<g id="node11" class="node"><title>Node11</title>
<g id="a_node11"><a xlink:href="$classAP__InertialSensor.html#a0f63a4a0e6fc84d6ab9519bc4b254055" xlink:title="AP_InertialSensor::\lget_accel">
<polygon fill="white" stroke="black" points="334.5,-434 334.5,-464 435.5,-464 435.5,-434 334.5,-434"/>
<text text-anchor="start" x="342.5" y="-452" font-family="Helvetica,sans-Serif" font-size="10.00">AP_InertialSensor::</text>
<text text-anchor="middle" x="385" y="-441" font-family="Helvetica,sans-Serif" font-size="10.00">get_accel</text>
</a>
</g>
</g>
<!-- Node7&#45;&gt;Node11 -->
<g id="edge11" class="edge"><title>Node7&#45;&gt;Node11</title>
<path fill="none" stroke="midnightblue" d="M286.184,-464.477C298.584,-462.515 311.64,-460.449 324.033,-458.489"/>
<polygon fill="midnightblue" stroke="midnightblue" points="324.927,-461.891 334.257,-456.871 323.833,-454.977 324.927,-461.891"/>
</g>
<!-- Node15&#45;&gt;Node2 -->
<g id="edge16" class="edge"><title>Node15&#45;&gt;Node2</title>
<path fill="none" stroke="midnightblue" d="M277.13,-73.5219C283.169,-75.9877 288.965,-79.092 294,-83 306.24,-92.499 353.476,-180.801 374.181,-220.188"/>
<polygon fill="midnightblue" stroke="midnightblue" points="371.094,-221.838 378.836,-229.07 377.294,-218.588 371.094,-221.838"/>
</g>
<!-- Node16 -->
<g id="node16" class="node"><title>Node16</title>
<g id="a_node16"><a xlink:href="$classAP__InertialSensor.html#aef7fac4fe6ae817ed325f9e35735e94d" xlink:title="AP_InertialSensor::\lget_gyro_count">
<polygon fill="white" stroke="black" points="334.5,-0 334.5,-30 435.5,-30 435.5,-0 334.5,-0"/>
<text text-anchor="start" x="342.5" y="-18" font-family="Helvetica,sans-Serif" font-size="10.00">AP_InertialSensor::</text>
<text text-anchor="middle" x="385" y="-7" font-family="Helvetica,sans-Serif" font-size="10.00">get_gyro_count</text>
</a>
</g>
</g>
<!-- Node15&#45;&gt;Node16 -->
<g id="edge17" class="edge"><title>Node15&#45;&gt;Node16</title>
<path fill="none" stroke="midnightblue" d="M259.254,-54.4045C270.325,-51.1606 282.71,-47.4785 294,-44 305.042,-40.5978 316.815,-36.8744 328.083,-33.2634"/>
<polygon fill="midnightblue" stroke="midnightblue" points="329.376,-36.5242 337.824,-30.13 327.232,-29.8604 329.376,-36.5242"/>
</g>
<!-- Node17 -->
<g id="node17" class="node"><title>Node17</title>
<g id="a_node17"><a xlink:href="$classAP__InertialSensor.html#a3be069418436a7fc7a9f87c2b8b34730" xlink:title="AP_InertialSensor::\lget_delta_angle">
<polygon fill="white" stroke="black" points="334.5,-98 334.5,-128 435.5,-128 435.5,-98 334.5,-98"/>
<text text-anchor="start" x="342.5" y="-116" font-family="Helvetica,sans-Serif" font-size="10.00">AP_InertialSensor::</text>
<text text-anchor="middle" x="385" y="-105" font-family="Helvetica,sans-Serif" font-size="10.00">get_delta_angle</text>
</a>
</g>
</g>
<!-- Node15&#45;&gt;Node17 -->
<g id="edge18" class="edge"><title>Node15&#45;&gt;Node17</title>
<path fill="none" stroke="midnightblue" d="M261.39,-73.5322C271.915,-76.4632 283.451,-79.7703 294,-83 305.811,-86.6163 318.427,-90.6886 330.361,-94.6393"/>
<polygon fill="midnightblue" stroke="midnightblue" points="329.6,-98.0748 340.194,-97.9166 331.814,-91.434 329.6,-98.0748"/>
</g>
<!-- Node18 -->
<g id="node18" class="node"><title>Node18</title>
<g id="a_node18"><a xlink:href="$classAP__InertialSensor.html#a6df2d8ad956d4f375bdee541102f16af" xlink:title="AP_InertialSensor::\lget_gyro">
<polygon fill="white" stroke="black" points="334.5,-49 334.5,-79 435.5,-79 435.5,-49 334.5,-49"/>
<text text-anchor="start" x="342.5" y="-67" font-family="Helvetica,sans-Serif" font-size="10.00">AP_InertialSensor::</text>
<text text-anchor="middle" x="385" y="-56" font-family="Helvetica,sans-Serif" font-size="10.00">get_gyro</text>
</a>
</g>
</g>
<!-- Node15&#45;&gt;Node18 -->
<g id="edge19" class="edge"><title>Node15&#45;&gt;Node18</title>
<path fill="none" stroke="midnightblue" d="M288.9,-64C300.614,-64 312.822,-64 324.433,-64"/>
<polygon fill="midnightblue" stroke="midnightblue" points="324.455,-67.5001 334.455,-64 324.455,-60.5001 324.455,-67.5001"/>
</g>
</g>
</svg>
