<?xml version="1.0" encoding="UTF-8" standalone="no"?>
<!DOCTYPE svg PUBLIC "-//W3C//DTD SVG 1.1//EN"
 "http://www.w3.org/Graphics/SVG/1.1/DTD/svg11.dtd">
<!-- Generated by graphviz version 2.36.0 (20140111.2315)
 -->
<!-- Title: AC_P::kP Pages: 1 -->
<svg width="802pt" height="1361pt"
 viewBox="0.00 0.00 802.00 1361.00" xmlns="http://www.w3.org/2000/svg" xmlns:xlink="http://www.w3.org/1999/xlink">
<g id="graph0" class="graph" transform="scale(1 1) rotate(0) translate(4 1357)">
<title>AC_P::kP</title>
<polygon fill="white" stroke="none" points="-4,4 -4,-1357 798,-1357 798,4 -4,4"/>
<!-- Node1 -->
<g id="node1" class="node"><title>Node1</title>
<polygon fill="#bfbfbf" stroke="black" points="0.5,-565.5 0.5,-584.5 61.5,-584.5 61.5,-565.5 0.5,-565.5"/>
<text text-anchor="middle" x="31" y="-572.5" font-family="Helvetica,sans-Serif" font-size="10.00">AC_P::kP</text>
</g>
<!-- Node2 -->
<g id="node2" class="node"><title>Node2</title>
<g id="a_node2"><a xlink:href="$classAC__PosControl.html#ac4f923c39399266568b9ae9419a0596f" xlink:title="AC_PosControl::calc\l_leash_length_xy">
<polygon fill="white" stroke="black" points="110.5,-944 110.5,-974 219.5,-974 219.5,-944 110.5,-944"/>
<text text-anchor="start" x="118.5" y="-962" font-family="Helvetica,sans-Serif" font-size="10.00">AC_PosControl::calc</text>
<text text-anchor="middle" x="165" y="-951" font-family="Helvetica,sans-Serif" font-size="10.00">_leash_length_xy</text>
</a>
</g>
</g>
<!-- Node1&#45;&gt;Node2 -->
<g id="edge1" class="edge"><title>Node1&#45;&gt;Node2</title>
<path fill="none" stroke="midnightblue" d="M38.759,-594.663C61.9535,-662.137 138.021,-883.424 158.745,-943.713"/>
<polygon fill="midnightblue" stroke="midnightblue" points="41.9564,-593.197 35.3956,-584.878 35.3365,-595.473 41.9564,-593.197"/>
</g>
<!-- Node19 -->
<g id="node19" class="node"><title>Node19</title>
<g id="a_node19"><a xlink:href="$classAC__PosControl.html#acac2980eb3698791d55ca8fa260ab5af" xlink:title="AC_PosControl::calc\l_leash_length_z">
<polygon fill="white" stroke="black" points="110.5,-721 110.5,-751 219.5,-751 219.5,-721 110.5,-721"/>
<text text-anchor="start" x="118.5" y="-739" font-family="Helvetica,sans-Serif" font-size="10.00">AC_PosControl::calc</text>
<text text-anchor="middle" x="165" y="-728" font-family="Helvetica,sans-Serif" font-size="10.00">_leash_length_z</text>
</a>
</g>
</g>
<!-- Node1&#45;&gt;Node19 -->
<g id="edge25" class="edge"><title>Node1&#45;&gt;Node19</title>
<path fill="none" stroke="midnightblue" d="M38.497,-594.267C48.0887,-620.383 68.1835,-667.278 98,-698 106.932,-707.203 118.571,-714.888 129.583,-720.883"/>
<polygon fill="midnightblue" stroke="midnightblue" points="41.7661,-593.014 35.1326,-584.752 35.1666,-595.347 41.7661,-593.014"/>
</g>
<!-- Node24 -->
<g id="node24" class="node"><title>Node24</title>
<g id="a_node24"><a xlink:href="$classAC__PosControl.html#a96d87c601aa6866bd9a743d024a08c51" xlink:title="get_pos_xy_kP &#45; returns xy position controller&#39;s kP gain ">
<polygon fill="white" stroke="black" points="113,-1257 113,-1287 217,-1287 217,-1257 113,-1257"/>
<text text-anchor="start" x="121" y="-1275" font-family="Helvetica,sans-Serif" font-size="10.00">AC_PosControl::get</text>
<text text-anchor="middle" x="165" y="-1264" font-family="Helvetica,sans-Serif" font-size="10.00">_pos_xy_kP</text>
</a>
</g>
</g>
<!-- Node1&#45;&gt;Node24 -->
<g id="edge35" class="edge"><title>Node1&#45;&gt;Node24</title>
<path fill="none" stroke="midnightblue" d="M32.8513,-594.615C36.9942,-685.541 56.5541,-1066.28 98,-1177 109.758,-1208.41 134.262,-1239.27 149.879,-1256.93"/>
<polygon fill="midnightblue" stroke="midnightblue" points="36.3461,-594.416 32.4039,-584.582 29.353,-594.728 36.3461,-594.416"/>
</g>
<!-- Node26 -->
<g id="node26" class="node"><title>Node26</title>
<g id="a_node26"><a xlink:href="$classAC__PosControl.html#a4054e2d2dc53b9b0c2fd26898781af89" xlink:title="AC_PosControl::get\l_stopping_point_xy">
<polygon fill="white" stroke="black" points="113,-532 113,-562 217,-562 217,-532 113,-532"/>
<text text-anchor="start" x="121" y="-550" font-family="Helvetica,sans-Serif" font-size="10.00">AC_PosControl::get</text>
<text text-anchor="middle" x="165" y="-539" font-family="Helvetica,sans-Serif" font-size="10.00">_stopping_point_xy</text>
</a>
</g>
</g>
<!-- Node1&#45;&gt;Node26 -->
<g id="edge38" class="edge"><title>Node1&#45;&gt;Node26</title>
<path fill="none" stroke="midnightblue" d="M71.6419,-566.591C84.6302,-563.836 99.2481,-560.735 112.957,-557.827"/>
<polygon fill="midnightblue" stroke="midnightblue" points="70.6794,-563.217 61.6234,-568.716 72.132,-570.065 70.6794,-563.217"/>
</g>
<!-- Node31 -->
<g id="node31" class="node"><title>Node31</title>
<g id="a_node31"><a xlink:href="$classAC__PosControl.html#a20ac6348cbb9a1ac803c626c91ec93e5" xlink:title="get_stopping_point_z &#45; calculates stopping point based on current position, velocity, vehicle acceleration ">
<polygon fill="white" stroke="black" points="113,-483 113,-513 217,-513 217,-483 113,-483"/>
<text text-anchor="start" x="121" y="-501" font-family="Helvetica,sans-Serif" font-size="10.00">AC_PosControl::get</text>
<text text-anchor="middle" x="165" y="-490" font-family="Helvetica,sans-Serif" font-size="10.00">_stopping_point_z</text>
</a>
</g>
</g>
<!-- Node1&#45;&gt;Node31 -->
<g id="edge45" class="edge"><title>Node1&#45;&gt;Node31</title>
<path fill="none" stroke="midnightblue" d="M49.4784,-558.298C62.1544,-546.88 80.1414,-532.052 98,-522 103.844,-518.711 110.223,-515.727 116.638,-513.069"/>
<polygon fill="midnightblue" stroke="midnightblue" points="46.9473,-555.871 41.97,-565.224 51.6935,-561.016 46.9473,-555.871"/>
</g>
<!-- Node32 -->
<g id="node32" class="node"><title>Node32</title>
<g id="a_node32"><a xlink:href="$classAC__AttitudeControl.html#a18ad3ea19760b7a23f3980ca96e93c22" xlink:title="AC_AttitudeControl\l::max_angle_step_bf_pitch">
<polygon fill="white" stroke="black" points="98,-434 98,-464 232,-464 232,-434 98,-434"/>
<text text-anchor="start" x="106" y="-452" font-family="Helvetica,sans-Serif" font-size="10.00">AC_AttitudeControl</text>
<text text-anchor="middle" x="165" y="-441" font-family="Helvetica,sans-Serif" font-size="10.00">::max_angle_step_bf_pitch</text>
</a>
</g>
</g>
<!-- Node1&#45;&gt;Node32 -->
<g id="edge49" class="edge"><title>Node1&#45;&gt;Node32</title>
<path fill="none" stroke="midnightblue" d="M39.6954,-556.099C49.8561,-533.36 69.8156,-495.45 98,-473 102.292,-469.582 107.114,-466.623 112.147,-464.069"/>
<polygon fill="midnightblue" stroke="midnightblue" points="36.4448,-554.799 35.7221,-565.369 42.8787,-557.557 36.4448,-554.799"/>
</g>
<!-- Node33 -->
<g id="node33" class="node"><title>Node33</title>
<g id="a_node33"><a xlink:href="$classAC__AttitudeControl.html#ac1746c80bb8ee8eddb2bcc6c5158fd1c" xlink:title="AC_AttitudeControl\l::max_angle_step_bf_roll">
<polygon fill="white" stroke="black" points="102.5,-385 102.5,-415 227.5,-415 227.5,-385 102.5,-385"/>
<text text-anchor="start" x="110.5" y="-403" font-family="Helvetica,sans-Serif" font-size="10.00">AC_AttitudeControl</text>
<text text-anchor="middle" x="165" y="-392" font-family="Helvetica,sans-Serif" font-size="10.00">::max_angle_step_bf_roll</text>
</a>
</g>
</g>
<!-- Node1&#45;&gt;Node33 -->
<g id="edge50" class="edge"><title>Node1&#45;&gt;Node33</title>
<path fill="none" stroke="midnightblue" d="M35.3958,-555.505C41.9286,-523.671 59.1868,-460.431 98,-424 101.645,-420.579 105.815,-417.638 110.249,-415.111"/>
<polygon fill="midnightblue" stroke="midnightblue" points="31.9518,-554.881 33.5146,-565.36 38.8276,-556.194 31.9518,-554.881"/>
</g>
<!-- Node34 -->
<g id="node34" class="node"><title>Node34</title>
<g id="a_node34"><a xlink:href="$classAC__AttitudeControl.html#aa4a730a59ab7eb155f7acb8b60089f56" xlink:title="AC_AttitudeControl\l::max_angle_step_bf_yaw">
<polygon fill="white" stroke="black" points="99.5,-336 99.5,-366 230.5,-366 230.5,-336 99.5,-336"/>
<text text-anchor="start" x="107.5" y="-354" font-family="Helvetica,sans-Serif" font-size="10.00">AC_AttitudeControl</text>
<text text-anchor="middle" x="165" y="-343" font-family="Helvetica,sans-Serif" font-size="10.00">::max_angle_step_bf_yaw</text>
</a>
</g>
</g>
<!-- Node1&#45;&gt;Node34 -->
<g id="edge51" class="edge"><title>Node1&#45;&gt;Node34</title>
<path fill="none" stroke="midnightblue" d="M33.0091,-554.922C36.0711,-515.22 48.4036,-426.108 98,-375 101.311,-371.588 105.146,-368.658 109.267,-366.143"/>
<polygon fill="midnightblue" stroke="midnightblue" points="29.5003,-554.945 32.3463,-565.151 36.4857,-555.398 29.5003,-554.945"/>
</g>
<!-- Node35 -->
<g id="node35" class="node"><title>Node35</title>
<g id="a_node35"><a xlink:href="$classAC__PosControl.html#a3a8f35e4cc0c50f6d0bb663966e47830" xlink:title="AC_PosControl::pos\l_to_rate_xy">
<polygon fill="white" stroke="black" points="111.5,-1138 111.5,-1168 218.5,-1168 218.5,-1138 111.5,-1138"/>
<text text-anchor="start" x="119.5" y="-1156" font-family="Helvetica,sans-Serif" font-size="10.00">AC_PosControl::pos</text>
<text text-anchor="middle" x="165" y="-1145" font-family="Helvetica,sans-Serif" font-size="10.00">_to_rate_xy</text>
</a>
</g>
</g>
<!-- Node1&#45;&gt;Node35 -->
<g id="edge52" class="edge"><title>Node1&#45;&gt;Node35</title>
<path fill="none" stroke="midnightblue" d="M33.7254,-594.898C39.2165,-654.575 58.3073,-836.941 98,-983 114.024,-1041.97 143.4,-1108.65 156.887,-1137.89"/>
<polygon fill="midnightblue" stroke="midnightblue" points="37.1854,-594.293 32.8065,-584.646 30.2133,-594.918 37.1854,-594.293"/>
</g>
<!-- Node36 -->
<g id="node36" class="node"><title>Node36</title>
<g id="a_node36"><a xlink:href="$classAC__PosControl.html#adaf1679fb65c1bef02180409dcd96cad" xlink:title="AC_PosControl::pos\l_to_rate_z">
<polygon fill="white" stroke="black" points="295.5,-668 295.5,-698 402.5,-698 402.5,-668 295.5,-668"/>
<text text-anchor="start" x="303.5" y="-686" font-family="Helvetica,sans-Serif" font-size="10.00">AC_PosControl::pos</text>
<text text-anchor="middle" x="349" y="-675" font-family="Helvetica,sans-Serif" font-size="10.00">_to_rate_z</text>
</a>
</g>
</g>
<!-- Node1&#45;&gt;Node36 -->
<g id="edge55" class="edge"><title>Node1&#45;&gt;Node36</title>
<path fill="none" stroke="midnightblue" d="M69.6755,-587.876C128.444,-607.962 241.655,-646.654 304.054,-667.98"/>
<polygon fill="midnightblue" stroke="midnightblue" points="70.6374,-584.506 60.0429,-584.584 68.3736,-591.13 70.6374,-584.506"/>
</g>
<!-- Node37 -->
<g id="node37" class="node"><title>Node37</title>
<g id="a_node37"><a xlink:href="$classAC__PosControl.html#a7f2e50bce46c82e024fb47a288b2ffb2" xlink:title="AC_PosControl::rate\l_to_accel_z">
<polygon fill="white" stroke="black" points="111.5,-659 111.5,-689 218.5,-689 218.5,-659 111.5,-659"/>
<text text-anchor="start" x="119.5" y="-677" font-family="Helvetica,sans-Serif" font-size="10.00">AC_PosControl::rate</text>
<text text-anchor="middle" x="165" y="-666" font-family="Helvetica,sans-Serif" font-size="10.00">_to_accel_z</text>
</a>
</g>
</g>
<!-- Node1&#45;&gt;Node37 -->
<g id="edge57" class="edge"><title>Node1&#45;&gt;Node37</title>
<path fill="none" stroke="midnightblue" d="M53.2209,-590.916C78.1165,-609.587 119.099,-640.324 143.624,-658.718"/>
<polygon fill="midnightblue" stroke="midnightblue" points="55.2393,-588.054 45.1392,-584.854 51.0393,-593.654 55.2393,-588.054"/>
</g>
<!-- Node38 -->
<g id="node38" class="node"><title>Node38</title>
<g id="a_node38"><a xlink:href="$classAC__AttitudeControl.html#a3b963b5312fad0512a2f3e9cf165e237" xlink:title="AC_AttitudeControl\l::update_rate_bf_targets">
<polygon fill="white" stroke="black" points="104,-157 104,-187 226,-187 226,-157 104,-157"/>
<text text-anchor="start" x="112" y="-175" font-family="Helvetica,sans-Serif" font-size="10.00">AC_AttitudeControl</text>
<text text-anchor="middle" x="165" y="-164" font-family="Helvetica,sans-Serif" font-size="10.00">::update_rate_bf_targets</text>
</a>
</g>
</g>
<!-- Node1&#45;&gt;Node38 -->
<g id="edge59" class="edge"><title>Node1&#45;&gt;Node38</title>
<path fill="none" stroke="midnightblue" d="M36.1446,-555.519C45.3734,-513.179 69.0979,-409.833 98,-326 116.013,-273.751 143.644,-214.229 156.693,-187.011"/>
<polygon fill="midnightblue" stroke="midnightblue" points="32.7112,-554.838 34.0244,-565.351 39.5539,-556.314 32.7112,-554.838"/>
</g>
<!-- Node3 -->
<g id="node3" class="node"><title>Node3</title>
<g id="a_node3"><a xlink:href="$classAC__PosControl.html#a5e47fd89f68af7f00d9bd59cfcb422a8" xlink:title="AC_PosControl::set\l_accel_xy">
<polygon fill="white" stroke="black" points="297,-1007 297,-1037 401,-1037 401,-1007 297,-1007"/>
<text text-anchor="start" x="305" y="-1025" font-family="Helvetica,sans-Serif" font-size="10.00">AC_PosControl::set</text>
<text text-anchor="middle" x="349" y="-1014" font-family="Helvetica,sans-Serif" font-size="10.00">_accel_xy</text>
</a>
</g>
</g>
<!-- Node2&#45;&gt;Node3 -->
<g id="edge2" class="edge"><title>Node2&#45;&gt;Node3</title>
<path fill="none" stroke="midnightblue" d="M219.304,-977.452C246.389,-986.827 278.885,-998.076 304.447,-1006.92"/>
<polygon fill="midnightblue" stroke="midnightblue" points="220.188,-974.054 209.594,-974.09 217.898,-980.669 220.188,-974.054"/>
</g>
<!-- Node7 -->
<g id="node7" class="node"><title>Node7</title>
<g id="a_node7"><a xlink:href="$classAC__WPNav.html#a2ed86e41fc51c2ea822711ea95d055f0" xlink:title="init_brake_target &#45; initializes stop position from current position and velocity ">
<polygon fill="white" stroke="black" points="486.5,-958 486.5,-988 605.5,-988 605.5,-958 486.5,-958"/>
<text text-anchor="start" x="494.5" y="-976" font-family="Helvetica,sans-Serif" font-size="10.00">AC_WPNav::init_brake</text>
<text text-anchor="middle" x="546" y="-965" font-family="Helvetica,sans-Serif" font-size="10.00">_target</text>
</a>
</g>
</g>
<!-- Node2&#45;&gt;Node7 -->
<g id="edge23" class="edge"><title>Node2&#45;&gt;Node7</title>
<path fill="none" stroke="midnightblue" d="M230.15,-961.37C301.835,-964.018 416.916,-968.269 486.305,-970.832"/>
<polygon fill="midnightblue" stroke="midnightblue" points="230.021,-957.863 219.899,-960.991 229.763,-964.858 230.021,-957.863"/>
</g>
<!-- Node8 -->
<g id="node8" class="node"><title>Node8</title>
<g id="a_node8"><a xlink:href="$classAC__WPNav.html#a47964df8ebcc78bb101f328a23187e65" xlink:title="AC_WPNav::wp_and_spline_init">
<polygon fill="white" stroke="black" points="466.5,-867.5 466.5,-886.5 625.5,-886.5 625.5,-867.5 466.5,-867.5"/>
<text text-anchor="middle" x="546" y="-874.5" font-family="Helvetica,sans-Serif" font-size="10.00">AC_WPNav::wp_and_spline_init</text>
</a>
</g>
</g>
<!-- Node2&#45;&gt;Node8 -->
<g id="edge24" class="edge"><title>Node2&#45;&gt;Node8</title>
<path fill="none" stroke="midnightblue" d="M217.966,-940.66C233.889,-935.455 251.548,-930.096 268,-926 338.019,-908.569 419.484,-894.936 475.86,-886.524"/>
<polygon fill="midnightblue" stroke="midnightblue" points="216.689,-937.396 208.301,-943.869 218.895,-944.039 216.689,-937.396"/>
</g>
<!-- Node9 -->
<g id="node9" class="node"><title>Node9</title>
<g id="a_node9"><a xlink:href="$classAC__PosControl.html#aeb636a56d87a2495d86e394ff6ac7549" xlink:title="AC_PosControl::set\l_speed_xy">
<polygon fill="white" stroke="black" points="297,-1056 297,-1086 401,-1086 401,-1056 297,-1056"/>
<text text-anchor="start" x="305" y="-1074" font-family="Helvetica,sans-Serif" font-size="10.00">AC_PosControl::set</text>
<text text-anchor="middle" x="349" y="-1063" font-family="Helvetica,sans-Serif" font-size="10.00">_speed_xy</text>
</a>
</g>
</g>
<!-- Node2&#45;&gt;Node9 -->
<g id="edge8" class="edge"><title>Node2&#45;&gt;Node9</title>
<path fill="none" stroke="midnightblue" d="M186.879,-981.325C206.24,-1000.85 236.702,-1028.72 268,-1046 276.917,-1050.92 286.938,-1055.02 296.794,-1058.38"/>
<polygon fill="midnightblue" stroke="midnightblue" points="189.263,-978.757 179.779,-974.034 184.248,-983.641 189.263,-978.757"/>
</g>
<!-- Node11 -->
<g id="node11" class="node"><title>Node11</title>
<g id="a_node11"><a xlink:href="$classAC__PosControl.html#a1f4f9aac832250d36fe36a6be1ccbb84" xlink:title="set_target_to_stopping_point_xy &#45; sets horizontal target to reasonable stopping position in cm from h...">
<polygon fill="white" stroke="black" points="297,-569.5 297,-610.5 401,-610.5 401,-569.5 297,-569.5"/>
<text text-anchor="start" x="305" y="-598.5" font-family="Helvetica,sans-Serif" font-size="10.00">AC_PosControl::set</text>
<text text-anchor="start" x="305" y="-587.5" font-family="Helvetica,sans-Serif" font-size="10.00">_target_to_stopping</text>
<text text-anchor="middle" x="349" y="-576.5" font-family="Helvetica,sans-Serif" font-size="10.00">_point_xy</text>
</a>
</g>
</g>
<!-- Node2&#45;&gt;Node11 -->
<g id="edge14" class="edge"><title>Node2&#45;&gt;Node11</title>
<path fill="none" stroke="midnightblue" d="M174.247,-934.084C197.798,-863.01 263.929,-663.996 268,-658 280.698,-639.3 299.864,-622.762 316.253,-610.678"/>
<polygon fill="midnightblue" stroke="midnightblue" points="170.916,-933.01 171.094,-943.604 177.561,-935.211 170.916,-933.01"/>
</g>
<!-- Node13 -->
<g id="node13" class="node"><title>Node13</title>
<g id="a_node13"><a xlink:href="$classAC__PosControl.html#ae8b8e5c5812ab2419c570ae7f44a70f3" xlink:title="update_xy_controller &#45; run the horizontal position controller &#45; should be called at 100hz or higher ...">
<polygon fill="white" stroke="black" points="289,-1214 289,-1244 409,-1244 409,-1214 289,-1214"/>
<text text-anchor="start" x="297" y="-1232" font-family="Helvetica,sans-Serif" font-size="10.00">AC_PosControl::update</text>
<text text-anchor="middle" x="349" y="-1221" font-family="Helvetica,sans-Serif" font-size="10.00">_xy_controller</text>
</a>
</g>
</g>
<!-- Node2&#45;&gt;Node13 -->
<g id="edge16" class="edge"><title>Node2&#45;&gt;Node13</title>
<path fill="none" stroke="midnightblue" d="M181.902,-982.591C218.45,-1036.81 307.608,-1169.08 337.806,-1213.88"/>
<polygon fill="midnightblue" stroke="midnightblue" points="184.798,-980.626 176.307,-974.29 178.994,-984.538 184.798,-980.626"/>
</g>
<!-- Node18 -->
<g id="node18" class="node"><title>Node18</title>
<g id="a_node18"><a xlink:href="$classAC__PosControl.html#ad89eec74ef77005f3f5c449da98ad12c" xlink:title="AC_PosControl::update\l_vel_controller_xyz">
<polygon fill="white" stroke="black" points="668,-914 668,-944 788,-944 788,-914 668,-914"/>
<text text-anchor="start" x="676" y="-932" font-family="Helvetica,sans-Serif" font-size="10.00">AC_PosControl::update</text>
<text text-anchor="middle" x="728" y="-921" font-family="Helvetica,sans-Serif" font-size="10.00">_vel_controller_xyz</text>
</a>
</g>
</g>
<!-- Node2&#45;&gt;Node18 -->
<g id="edge22" class="edge"><title>Node2&#45;&gt;Node18</title>
<path fill="none" stroke="midnightblue" d="M229.777,-955.589C339.305,-949.732 561.603,-937.845 667.857,-932.163"/>
<polygon fill="midnightblue" stroke="midnightblue" points="229.336,-952.108 219.537,-956.137 229.71,-959.098 229.336,-952.108"/>
</g>
<!-- Node4 -->
<g id="node4" class="node"><title>Node4</title>
<g id="a_node4"><a xlink:href="$classAC__WPNav.html#a3bd3abac616805d338d31255d76e978e" xlink:title="init_loiter_target in cm from home ">
<polygon fill="white" stroke="black" points="488,-1056 488,-1086 604,-1086 604,-1056 488,-1056"/>
<text text-anchor="start" x="496" y="-1074" font-family="Helvetica,sans-Serif" font-size="10.00">AC_WPNav::init_loiter</text>
<text text-anchor="middle" x="546" y="-1063" font-family="Helvetica,sans-Serif" font-size="10.00">_target</text>
</a>
</g>
</g>
<!-- Node3&#45;&gt;Node4 -->
<g id="edge3" class="edge"><title>Node3&#45;&gt;Node4</title>
<path fill="none" stroke="midnightblue" d="M411.152,-1037.37C435.69,-1043.53 463.813,-1050.6 487.926,-1056.66"/>
<polygon fill="midnightblue" stroke="midnightblue" points="411.785,-1033.92 401.234,-1034.87 410.079,-1040.71 411.785,-1033.92"/>
</g>
<!-- Node5 -->
<g id="node5" class="node"><title>Node5</title>
<g id="a_node5"><a xlink:href="$classAC__WPNav.html#a3dbf7bda89b127cdc81bca29e2af25de" xlink:title="AC_WPNav::calc_loiter\l_desired_velocity">
<polygon fill="white" stroke="black" points="485.5,-1007 485.5,-1037 606.5,-1037 606.5,-1007 485.5,-1007"/>
<text text-anchor="start" x="493.5" y="-1025" font-family="Helvetica,sans-Serif" font-size="10.00">AC_WPNav::calc_loiter</text>
<text text-anchor="middle" x="546" y="-1014" font-family="Helvetica,sans-Serif" font-size="10.00">_desired_velocity</text>
</a>
</g>
</g>
<!-- Node3&#45;&gt;Node5 -->
<g id="edge4" class="edge"><title>Node3&#45;&gt;Node5</title>
<path fill="none" stroke="midnightblue" d="M411.487,-1022C435.116,-1022 462.029,-1022 485.471,-1022"/>
<polygon fill="midnightblue" stroke="midnightblue" points="411.234,-1018.5 401.234,-1022 411.234,-1025.5 411.234,-1018.5"/>
</g>
<!-- Node3&#45;&gt;Node7 -->
<g id="edge6" class="edge"><title>Node3&#45;&gt;Node7</title>
<path fill="none" stroke="midnightblue" d="M410.937,-1006.69C434.935,-1000.66 462.388,-993.759 486.175,-987.782"/>
<polygon fill="midnightblue" stroke="midnightblue" points="410.079,-1003.29 401.234,-1009.13 411.785,-1010.08 410.079,-1003.29"/>
</g>
<!-- Node3&#45;&gt;Node8 -->
<g id="edge7" class="edge"><title>Node3&#45;&gt;Node8</title>
<path fill="none" stroke="midnightblue" d="M378.551,-1000.77C421.351,-968.944 500.459,-910.12 531.756,-886.848"/>
<polygon fill="midnightblue" stroke="midnightblue" points="376.436,-997.981 370.5,-1006.76 380.613,-1003.6 376.436,-997.981"/>
</g>
<!-- Node6 -->
<g id="node6" class="node"><title>Node6</title>
<g id="a_node6"><a xlink:href="$classAC__WPNav.html#a0a434270245fd8641352af387700dc82" xlink:title="update_loiter &#45; run the loiter controller &#45; should be called at 10hz ">
<polygon fill="white" stroke="black" points="662,-1153.5 662,-1172.5 794,-1172.5 794,-1153.5 662,-1153.5"/>
<text text-anchor="middle" x="728" y="-1160.5" font-family="Helvetica,sans-Serif" font-size="10.00">AC_WPNav::update_loiter</text>
</a>
</g>
</g>
<!-- Node5&#45;&gt;Node6 -->
<g id="edge5" class="edge"><title>Node5&#45;&gt;Node6</title>
<path fill="none" stroke="midnightblue" d="M616.135,-1041.31C619.557,-1043.05 622.869,-1044.95 626,-1047 670.882,-1076.43 707.549,-1131.16 721.232,-1153.31"/>
<polygon fill="midnightblue" stroke="midnightblue" points="617.409,-1038.04 606.863,-1037.02 614.472,-1044.39 617.409,-1038.04"/>
</g>
<!-- Node9&#45;&gt;Node4 -->
<g id="edge9" class="edge"><title>Node9&#45;&gt;Node4</title>
<path fill="none" stroke="midnightblue" d="M411.48,-1071C435.94,-1071 463.92,-1071 487.926,-1071"/>
<polygon fill="midnightblue" stroke="midnightblue" points="411.234,-1067.5 401.234,-1071 411.234,-1074.5 411.234,-1067.5"/>
</g>
<!-- Node9&#45;&gt;Node5 -->
<g id="edge10" class="edge"><title>Node9&#45;&gt;Node5</title>
<path fill="none" stroke="midnightblue" d="M411.169,-1055.63C434.875,-1049.67 461.924,-1042.88 485.471,-1036.96"/>
<polygon fill="midnightblue" stroke="midnightblue" points="410.079,-1052.29 401.234,-1058.13 411.785,-1059.08 410.079,-1052.29"/>
</g>
<!-- Node9&#45;&gt;Node7 -->
<g id="edge11" class="edge"><title>Node9&#45;&gt;Node7</title>
<path fill="none" stroke="midnightblue" d="M410.741,-1056.61C417.552,-1053.69 424.138,-1050.19 430,-1046 451.993,-1030.3 443.944,-1012.61 466,-997 472.201,-992.61 479.22,-989.009 486.453,-986.059"/>
<polygon fill="midnightblue" stroke="midnightblue" points="409.415,-1053.37 401.36,-1060.25 411.949,-1059.9 409.415,-1053.37"/>
</g>
<!-- Node9&#45;&gt;Node8 -->
<g id="edge12" class="edge"><title>Node9&#45;&gt;Node8</title>
<path fill="none" stroke="midnightblue" d="M410.898,-1058.66C417.902,-1055.39 424.493,-1051.24 430,-1046 463.607,-1014.01 439.978,-986.418 466,-948 483.684,-921.892 512.992,-898.984 530.504,-886.65"/>
<polygon fill="midnightblue" stroke="midnightblue" points="409.107,-1055.61 401.154,-1062.61 411.737,-1062.1 409.107,-1055.61"/>
</g>
<!-- Node10 -->
<g id="node10" class="node"><title>Node10</title>
<g id="a_node10"><a xlink:href="$classAC__WPNav.html#a0ff7209545f3c7169054b2ee79cd4216" xlink:title="set_speed_xy &#45; allows main code to pass target horizontal velocity for wp navigation ...">
<polygon fill="white" stroke="black" points="477.5,-1105.5 477.5,-1124.5 614.5,-1124.5 614.5,-1105.5 477.5,-1105.5"/>
<text text-anchor="middle" x="546" y="-1112.5" font-family="Helvetica,sans-Serif" font-size="10.00">AC_WPNav::set_speed_xy</text>
</a>
</g>
</g>
<!-- Node9&#45;&gt;Node10 -->
<g id="edge13" class="edge"><title>Node9&#45;&gt;Node10</title>
<path fill="none" stroke="midnightblue" d="M411.102,-1084.79C440.856,-1091.5 475.89,-1099.41 502.658,-1105.45"/>
<polygon fill="midnightblue" stroke="midnightblue" points="411.759,-1081.35 401.234,-1082.56 410.218,-1088.18 411.759,-1081.35"/>
</g>
<!-- Node12 -->
<g id="node12" class="node"><title>Node12</title>
<g id="a_node12"><a xlink:href="$classAC__Circle.html#aeecf8efd6d546820ee831e749935df8b" xlink:title="AC_Circle::init">
<polygon fill="white" stroke="black" points="506,-526.5 506,-545.5 586,-545.5 586,-526.5 506,-526.5"/>
<text text-anchor="middle" x="546" y="-533.5" font-family="Helvetica,sans-Serif" font-size="10.00">AC_Circle::init</text>
</a>
</g>
</g>
<!-- Node11&#45;&gt;Node12 -->
<g id="edge15" class="edge"><title>Node11&#45;&gt;Node12</title>
<path fill="none" stroke="midnightblue" d="M411.191,-573.055C444.002,-563.969 483.213,-553.11 510.678,-545.505"/>
<polygon fill="midnightblue" stroke="midnightblue" points="409.937,-569.77 401.234,-575.812 411.805,-576.516 409.937,-569.77"/>
</g>
<!-- Node13&#45;&gt;Node6 -->
<g id="edge18" class="edge"><title>Node13&#45;&gt;Node6</title>
<path fill="none" stroke="midnightblue" d="M381.569,-1249.45C404.092,-1262.77 435.649,-1278.95 466,-1286 535.265,-1302.1 561.712,-1316.4 626,-1286 677.208,-1261.79 711.17,-1197.48 722.669,-1172.82"/>
<polygon fill="midnightblue" stroke="midnightblue" points="383.167,-1246.32 372.801,-1244.14 379.539,-1252.31 383.167,-1246.32"/>
</g>
<!-- Node14 -->
<g id="node14" class="node"><title>Node14</title>
<g id="a_node14"><a xlink:href="$classAC__Circle.html#ad28205982ae7bc5f1e72f5285696c99b" xlink:title="update &#45; update circle controller ">
<polygon fill="white" stroke="black" points="497.5,-1181.5 497.5,-1200.5 594.5,-1200.5 594.5,-1181.5 497.5,-1181.5"/>
<text text-anchor="middle" x="546" y="-1188.5" font-family="Helvetica,sans-Serif" font-size="10.00">AC_Circle::update</text>
</a>
</g>
</g>
<!-- Node13&#45;&gt;Node14 -->
<g id="edge17" class="edge"><title>Node13&#45;&gt;Node14</title>
<path fill="none" stroke="midnightblue" d="M419.159,-1215.52C445.014,-1210.48 473.782,-1204.88 497.278,-1200.3"/>
<polygon fill="midnightblue" stroke="midnightblue" points="418.181,-1212.15 409.036,-1217.5 419.52,-1219.02 418.181,-1212.15"/>
</g>
<!-- Node15 -->
<g id="node15" class="node"><title>Node15</title>
<g id="a_node15"><a xlink:href="$classAC__WPNav.html#af9d3f98ad44166d4c5d072bf3ba4a3db" xlink:title="update_brake &#45; run the brake controller &#45; should be called at 400hz ">
<polygon fill="white" stroke="black" points="478.5,-1257.5 478.5,-1276.5 613.5,-1276.5 613.5,-1257.5 478.5,-1257.5"/>
<text text-anchor="middle" x="546" y="-1264.5" font-family="Helvetica,sans-Serif" font-size="10.00">AC_WPNav::update_brake</text>
</a>
</g>
</g>
<!-- Node13&#45;&gt;Node15 -->
<g id="edge19" class="edge"><title>Node13&#45;&gt;Node15</title>
<path fill="none" stroke="midnightblue" d="M418.996,-1242.45C444.428,-1247.4 472.698,-1252.91 496.006,-1257.45"/>
<polygon fill="midnightblue" stroke="midnightblue" points="419.52,-1238.98 409.036,-1240.5 418.181,-1245.85 419.52,-1238.98"/>
</g>
<!-- Node16 -->
<g id="node16" class="node"><title>Node16</title>
<g id="a_node16"><a xlink:href="$classAC__WPNav.html#ab37772c12f3376c2eda24d8506a994fc" xlink:title="update_wpnav &#45; run the wp controller &#45; should be called at 100hz or higher ">
<polygon fill="white" stroke="black" points="476,-1333.5 476,-1352.5 616,-1352.5 616,-1333.5 476,-1333.5"/>
<text text-anchor="middle" x="546" y="-1340.5" font-family="Helvetica,sans-Serif" font-size="10.00">AC_WPNav::update_wpnav</text>
</a>
</g>
</g>
<!-- Node13&#45;&gt;Node16 -->
<g id="edge20" class="edge"><title>Node13&#45;&gt;Node16</title>
<path fill="none" stroke="midnightblue" d="M380.654,-1250.15C395.774,-1260.85 414.127,-1274.24 430,-1287 446.686,-1300.41 447.325,-1308.53 466,-1319 476.879,-1325.1 489.488,-1329.82 501.394,-1333.4"/>
<polygon fill="midnightblue" stroke="midnightblue" points="382.362,-1247.07 372.168,-1244.18 378.337,-1252.8 382.362,-1247.07"/>
</g>
<!-- Node17 -->
<g id="node17" class="node"><title>Node17</title>
<g id="a_node17"><a xlink:href="$classAC__WPNav.html#a1d067335195835e46ba7218f8d784936" xlink:title="update_spline &#45; update spline controller ">
<polygon fill="white" stroke="black" points="477.5,-1219.5 477.5,-1238.5 614.5,-1238.5 614.5,-1219.5 477.5,-1219.5"/>
<text text-anchor="middle" x="546" y="-1226.5" font-family="Helvetica,sans-Serif" font-size="10.00">AC_WPNav::update_spline</text>
</a>
</g>
</g>
<!-- Node13&#45;&gt;Node17 -->
<g id="edge21" class="edge"><title>Node13&#45;&gt;Node17</title>
<path fill="none" stroke="midnightblue" d="M419.061,-1229C437.97,-1229 458.444,-1229 477.277,-1229"/>
<polygon fill="midnightblue" stroke="midnightblue" points="419.036,-1225.5 409.036,-1229 419.036,-1232.5 419.036,-1225.5"/>
</g>
<!-- Node19&#45;&gt;Node8 -->
<g id="edge34" class="edge"><title>Node19&#45;&gt;Node8</title>
<path fill="none" stroke="midnightblue" d="M180.938,-759.76C198.417,-785.301 229.876,-824.813 268,-844 329.646,-875.025 408.491,-881.736 466.286,-881.587"/>
<polygon fill="midnightblue" stroke="midnightblue" points="183.805,-757.75 175.351,-751.364 177.978,-761.628 183.805,-757.75"/>
</g>
<!-- Node20 -->
<g id="node20" class="node"><title>Node20</title>
<g id="a_node20"><a xlink:href="$classAC__PosControl.html#a4d39e0c0d33f5f6ca20461ad64982e8f" xlink:title="AC_PosControl::set\l_speed_z">
<polygon fill="white" stroke="black" points="297,-805 297,-835 401,-835 401,-805 297,-805"/>
<text text-anchor="start" x="305" y="-823" font-family="Helvetica,sans-Serif" font-size="10.00">AC_PosControl::set</text>
<text text-anchor="middle" x="349" y="-812" font-family="Helvetica,sans-Serif" font-size="10.00">_speed_z</text>
</a>
</g>
</g>
<!-- Node19&#45;&gt;Node20 -->
<g id="edge26" class="edge"><title>Node19&#45;&gt;Node20</title>
<path fill="none" stroke="midnightblue" d="M197.29,-756.53C217.003,-768.842 243.309,-784.161 268,-795 277.06,-798.977 286.952,-802.606 296.594,-805.79"/>
<polygon fill="midnightblue" stroke="midnightblue" points="199.049,-753.501 188.727,-751.112 195.306,-759.417 199.049,-753.501"/>
</g>
<!-- Node21 -->
<g id="node21" class="node"><title>Node21</title>
<g id="a_node21"><a xlink:href="$classAC__PosControl.html#ad7ef264f7da50fe3f0e035604fdcfea4" xlink:title="set_accel_z &#45; set vertical acceleration in cm/s/s ">
<polygon fill="white" stroke="black" points="297,-756 297,-786 401,-786 401,-756 297,-756"/>
<text text-anchor="start" x="305" y="-774" font-family="Helvetica,sans-Serif" font-size="10.00">AC_PosControl::set</text>
<text text-anchor="middle" x="349" y="-763" font-family="Helvetica,sans-Serif" font-size="10.00">_accel_z</text>
</a>
</g>
</g>
<!-- Node19&#45;&gt;Node21 -->
<g id="edge28" class="edge"><title>Node19&#45;&gt;Node21</title>
<path fill="none" stroke="midnightblue" d="M229.565,-748.224C251.615,-752.465 276.037,-757.161 296.947,-761.182"/>
<polygon fill="midnightblue" stroke="midnightblue" points="230.103,-744.763 219.622,-746.312 228.781,-751.637 230.103,-744.763"/>
</g>
<!-- Node22 -->
<g id="node22" class="node"><title>Node22</title>
<g id="a_node22"><a xlink:href="$classAC__PosControl.html#a51caffd56dd27f42595df30f63cd1eaa" xlink:title="set_target_to_stopping_point_z &#45; sets altitude target to reasonable stopping altitude in cm above hom...">
<polygon fill="white" stroke="black" points="297,-461.5 297,-502.5 401,-502.5 401,-461.5 297,-461.5"/>
<text text-anchor="start" x="305" y="-490.5" font-family="Helvetica,sans-Serif" font-size="10.00">AC_PosControl::set</text>
<text text-anchor="start" x="305" y="-479.5" font-family="Helvetica,sans-Serif" font-size="10.00">_target_to_stopping</text>
<text text-anchor="middle" x="349" y="-468.5" font-family="Helvetica,sans-Serif" font-size="10.00">_point_z</text>
</a>
</g>
</g>
<!-- Node19&#45;&gt;Node22 -->
<g id="edge30" class="edge"><title>Node19&#45;&gt;Node22</title>
<path fill="none" stroke="midnightblue" d="M213.409,-715.558C220.514,-710.705 227.091,-704.887 232,-698 281.128,-629.081 213.049,-575.372 268,-511 275.481,-502.236 285.831,-496.12 296.606,-491.853"/>
<polygon fill="midnightblue" stroke="midnightblue" points="211.563,-712.585 204.895,-720.818 215.242,-718.54 211.563,-712.585"/>
</g>
<!-- Node23 -->
<g id="node23" class="node"><title>Node23</title>
<g id="a_node23"><a xlink:href="$classAC__PosControl.html#af9c555a3b07ea1420ea28e7333379941" xlink:title="update_z_controller &#45; fly to altitude in cm above home ">
<polygon fill="white" stroke="black" points="486,-712 486,-742 606,-742 606,-712 486,-712"/>
<text text-anchor="start" x="494" y="-730" font-family="Helvetica,sans-Serif" font-size="10.00">AC_PosControl::update</text>
<text text-anchor="middle" x="546" y="-719" font-family="Helvetica,sans-Serif" font-size="10.00">_z_controller</text>
</a>
</g>
</g>
<!-- Node19&#45;&gt;Node23 -->
<g id="edge32" class="edge"><title>Node19&#45;&gt;Node23</title>
<path fill="none" stroke="midnightblue" d="M230.135,-734.477C301.71,-732.777 416.561,-730.05 485.988,-728.401"/>
<polygon fill="midnightblue" stroke="midnightblue" points="229.813,-730.984 219.899,-734.72 229.979,-737.982 229.813,-730.984"/>
</g>
<!-- Node20&#45;&gt;Node8 -->
<g id="edge27" class="edge"><title>Node20&#45;&gt;Node8</title>
<path fill="none" stroke="midnightblue" d="M410.958,-837.819C444.526,-847.631 484.849,-859.417 512.444,-867.484"/>
<polygon fill="midnightblue" stroke="midnightblue" points="411.814,-834.422 401.234,-834.976 409.85,-841.141 411.814,-834.422"/>
</g>
<!-- Node21&#45;&gt;Node8 -->
<g id="edge29" class="edge"><title>Node21&#45;&gt;Node8</title>
<path fill="none" stroke="midnightblue" d="M410.934,-786.975C417.489,-789.37 423.963,-792.043 430,-795 471.621,-815.385 514.468,-850.365 534.044,-867.279"/>
<polygon fill="midnightblue" stroke="midnightblue" points="411.909,-783.609 401.314,-783.664 409.631,-790.228 411.909,-783.609"/>
</g>
<!-- Node22&#45;&gt;Node12 -->
<g id="edge31" class="edge"><title>Node22&#45;&gt;Node12</title>
<path fill="none" stroke="midnightblue" d="M411.191,-498.945C444.002,-508.031 483.213,-518.89 510.678,-526.495"/>
<polygon fill="midnightblue" stroke="midnightblue" points="411.805,-495.484 401.234,-496.188 409.937,-502.23 411.805,-495.484"/>
</g>
<!-- Node23&#45;&gt;Node18 -->
<g id="edge33" class="edge"><title>Node23&#45;&gt;Node18</title>
<path fill="none" stroke="midnightblue" d="M567.392,-749.885C604.543,-791.576 682.297,-878.833 713.559,-913.917"/>
<polygon fill="midnightblue" stroke="midnightblue" points="569.795,-747.32 560.529,-742.183 564.569,-751.977 569.795,-747.32"/>
</g>
<!-- Node25 -->
<g id="node25" class="node"><title>Node25</title>
<g id="a_node25"><a xlink:href="$classAC__WPNav.html#ab1f36a647c7d251048fccf9f9de3aebb" xlink:title="advance_wp_target_along_track &#45; move target location along track from origin to destination ...">
<polygon fill="white" stroke="black" points="283.5,-1296 283.5,-1326 414.5,-1326 414.5,-1296 283.5,-1296"/>
<text text-anchor="start" x="291.5" y="-1314" font-family="Helvetica,sans-Serif" font-size="10.00">AC_WPNav::advance_wp</text>
<text text-anchor="middle" x="349" y="-1303" font-family="Helvetica,sans-Serif" font-size="10.00">_target_along_track</text>
</a>
</g>
</g>
<!-- Node24&#45;&gt;Node25 -->
<g id="edge36" class="edge"><title>Node24&#45;&gt;Node25</title>
<path fill="none" stroke="midnightblue" d="M227.017,-1285.08C245.087,-1288.95 264.933,-1293.2 283.232,-1297.12"/>
<polygon fill="midnightblue" stroke="midnightblue" points="227.693,-1281.64 217.181,-1282.97 226.226,-1288.49 227.693,-1281.64"/>
</g>
<!-- Node25&#45;&gt;Node16 -->
<g id="edge37" class="edge"><title>Node25&#45;&gt;Node16</title>
<path fill="none" stroke="midnightblue" d="M424.682,-1323.26C445.367,-1326.65 467.505,-1330.28 487.079,-1333.49"/>
<polygon fill="midnightblue" stroke="midnightblue" points="425.096,-1319.78 414.661,-1321.61 423.963,-1326.68 425.096,-1319.78"/>
</g>
<!-- Node26&#45;&gt;Node7 -->
<g id="edge41" class="edge"><title>Node26&#45;&gt;Node7</title>
<path fill="none" stroke="midnightblue" d="M194.734,-568.12C222.041,-588.053 260.083,-615.412 268,-619 335.455,-649.566 379.937,-603.428 430,-658 502.32,-736.833 417.152,-800.822 466,-896 479.205,-921.729 504.318,-943.896 522.696,-957.75"/>
<polygon fill="midnightblue" stroke="midnightblue" points="196.787,-565.285 186.649,-562.207 192.655,-570.935 196.787,-565.285"/>
</g>
<!-- Node26&#45;&gt;Node11 -->
<g id="edge39" class="edge"><title>Node26&#45;&gt;Node11</title>
<path fill="none" stroke="midnightblue" d="M227.044,-561.422C249.72,-566.78 275.19,-572.798 296.888,-577.924"/>
<polygon fill="midnightblue" stroke="midnightblue" points="227.718,-557.986 217.181,-559.092 226.109,-564.798 227.718,-557.986"/>
</g>
<!-- Node27 -->
<g id="node27" class="node"><title>Node27</title>
<g id="a_node27"><a xlink:href="$classAC__WPNav.html#a2b0f45cd553e217e5ee44dfef68a674c" xlink:title="get_stopping_point &#45; returns vector to stopping point based on a horizontal position and velocity ...">
<polygon fill="white" stroke="black" points="291,-521 291,-551 407,-551 407,-521 291,-521"/>
<text text-anchor="start" x="299" y="-539" font-family="Helvetica,sans-Serif" font-size="10.00">AC_WPNav::get_loiter</text>
<text text-anchor="middle" x="349" y="-528" font-family="Helvetica,sans-Serif" font-size="10.00">_stopping_point_xy</text>
</a>
</g>
</g>
<!-- Node26&#45;&gt;Node27 -->
<g id="edge40" class="edge"><title>Node26&#45;&gt;Node27</title>
<path fill="none" stroke="midnightblue" d="M227.359,-543.291C247.867,-542.052 270.629,-540.676 290.806,-539.457"/>
<polygon fill="midnightblue" stroke="midnightblue" points="226.952,-539.81 217.181,-543.907 227.374,-546.797 226.952,-539.81"/>
</g>
<!-- Node28 -->
<g id="node28" class="node"><title>Node28</title>
<g id="a_node28"><a xlink:href="$classAC__WPNav.html#aac204111a3f01e04d5b8165f03db223e" xlink:title="set_wp_destination waypoint using position vector (distance from home in cm) ">
<polygon fill="white" stroke="black" points="268.5,-374.5 268.5,-393.5 429.5,-393.5 429.5,-374.5 268.5,-374.5"/>
<text text-anchor="middle" x="349" y="-381.5" font-family="Helvetica,sans-Serif" font-size="10.00">AC_WPNav::set_wp_destination</text>
</a>
</g>
</g>
<!-- Node26&#45;&gt;Node28 -->
<g id="edge42" class="edge"><title>Node26&#45;&gt;Node28</title>
<path fill="none" stroke="midnightblue" d="M226.046,-527.432C228.172,-525.766 230.171,-523.959 232,-522 269.715,-481.616 227.763,-440.871 268,-403 272.054,-399.184 276.73,-396.09 281.743,-393.587"/>
<polygon fill="midnightblue" stroke="midnightblue" points="223.734,-524.763 217.307,-533.186 227.584,-530.61 223.734,-524.763"/>
</g>
<!-- Node29 -->
<g id="node29" class="node"><title>Node29</title>
<g id="a_node29"><a xlink:href="$classAC__WPNav.html#a180fb06a829a1e4168ceb24ca0c41e1f" xlink:title="get_wp_stopping_point_xy &#45; returns vector to stopping point based on a horizontal position and veloci...">
<polygon fill="white" stroke="black" points="274,-413 274,-443 424,-443 424,-413 274,-413"/>
<text text-anchor="start" x="282" y="-431" font-family="Helvetica,sans-Serif" font-size="10.00">AC_WPNav::get_wp_stopping</text>
<text text-anchor="middle" x="349" y="-420" font-family="Helvetica,sans-Serif" font-size="10.00">_point_xy</text>
</a>
</g>
</g>
<!-- Node26&#45;&gt;Node29 -->
<g id="edge43" class="edge"><title>Node26&#45;&gt;Node29</title>
<path fill="none" stroke="midnightblue" d="M225.889,-526.81C228.032,-525.315 230.081,-523.714 232,-522 258.094,-498.698 241.099,-474.366 268,-452 272.125,-448.57 276.73,-445.63 281.588,-443.11"/>
<polygon fill="midnightblue" stroke="midnightblue" points="223.957,-523.888 217.221,-532.065 227.587,-529.873 223.957,-523.888"/>
</g>
<!-- Node30 -->
<g id="node30" class="node"><title>Node30</title>
<g id="a_node30"><a xlink:href="$classAC__WPNav.html#a2b69b65d22efd7793a6f081678f9b8a1" xlink:title="AC_WPNav::set_spline\l_destination">
<polygon fill="white" stroke="black" points="288.5,-325 288.5,-355 409.5,-355 409.5,-325 288.5,-325"/>
<text text-anchor="start" x="296.5" y="-343" font-family="Helvetica,sans-Serif" font-size="10.00">AC_WPNav::set_spline</text>
<text text-anchor="middle" x="349" y="-332" font-family="Helvetica,sans-Serif" font-size="10.00">_destination</text>
</a>
</g>
</g>
<!-- Node26&#45;&gt;Node30 -->
<g id="edge44" class="edge"><title>Node26&#45;&gt;Node30</title>
<path fill="none" stroke="midnightblue" d="M225.634,-528.058C227.934,-526.221 230.075,-524.208 232,-522 279.046,-468.04 219.378,-417.543 268,-365 273.633,-358.912 280.724,-354.296 288.344,-350.798"/>
<polygon fill="midnightblue" stroke="midnightblue" points="223.651,-525.173 217.285,-533.642 227.543,-530.991 223.651,-525.173"/>
</g>
<!-- Node31&#45;&gt;Node22 -->
<g id="edge46" class="edge"><title>Node31&#45;&gt;Node22</title>
<path fill="none" stroke="midnightblue" d="M227.349,-492.607C249.948,-490.62 275.287,-488.392 296.888,-486.493"/>
<polygon fill="midnightblue" stroke="midnightblue" points="226.837,-489.138 217.181,-493.501 227.45,-496.111 226.837,-489.138"/>
</g>
<!-- Node31&#45;&gt;Node28 -->
<g id="edge47" class="edge"><title>Node31&#45;&gt;Node28</title>
<path fill="none" stroke="midnightblue" d="M225.889,-477.81C228.032,-476.315 230.081,-474.714 232,-473 258.094,-449.698 240.459,-424.573 268,-403 272.945,-399.127 278.553,-396.024 284.451,-393.54"/>
<polygon fill="midnightblue" stroke="midnightblue" points="223.957,-474.888 217.221,-483.065 227.587,-480.873 223.957,-474.888"/>
</g>
<!-- Node31&#45;&gt;Node30 -->
<g id="edge48" class="edge"><title>Node31&#45;&gt;Node30</title>
<path fill="none" stroke="midnightblue" d="M225.978,-478.367C228.122,-476.718 230.143,-474.933 232,-473 267.048,-436.509 231.887,-400.438 268,-365 273.816,-359.293 280.916,-354.886 288.459,-351.484"/>
<polygon fill="midnightblue" stroke="midnightblue" points="223.67,-475.692 217.187,-484.072 227.48,-481.564 223.67,-475.692"/>
</g>
<!-- Node35&#45;&gt;Node13 -->
<g id="edge53" class="edge"><title>Node35&#45;&gt;Node13</title>
<path fill="none" stroke="midnightblue" d="M211.257,-1171.9C242.292,-1184.86 282.92,-1201.82 311.806,-1213.89"/>
<polygon fill="midnightblue" stroke="midnightblue" points="212.534,-1168.64 201.957,-1168.02 209.836,-1175.1 212.534,-1168.64"/>
</g>
<!-- Node35&#45;&gt;Node18 -->
<g id="edge54" class="edge"><title>Node35&#45;&gt;Node18</title>
<path fill="none" stroke="midnightblue" d="M228.733,-1158.09C339.078,-1165.8 562.263,-1175.5 626,-1134 694.659,-1089.3 718.269,-983.325 724.833,-944.015"/>
<polygon fill="midnightblue" stroke="midnightblue" points="228.961,-1154.59 218.737,-1157.37 228.462,-1161.58 228.961,-1154.59"/>
</g>
<!-- Node36&#45;&gt;Node23 -->
<g id="edge56" class="edge"><title>Node36&#45;&gt;Node23</title>
<path fill="none" stroke="midnightblue" d="M412.389,-697.078C435.929,-702.389 462.62,-708.412 485.855,-713.654"/>
<polygon fill="midnightblue" stroke="midnightblue" points="413.038,-693.636 402.513,-694.849 411.497,-700.464 413.038,-693.636"/>
</g>
<!-- Node37&#45;&gt;Node36 -->
<g id="edge58" class="edge"><title>Node37&#45;&gt;Node36</title>
<path fill="none" stroke="midnightblue" d="M228.77,-677.104C250.514,-678.179 274.644,-679.372 295.476,-680.403"/>
<polygon fill="midnightblue" stroke="midnightblue" points="228.803,-673.601 218.642,-676.603 228.457,-680.593 228.803,-673.601"/>
</g>
<!-- Node39 -->
<g id="node39" class="node"><title>Node39</title>
<g id="a_node39"><a xlink:href="$classAC__AttitudeControl.html#a7f3ea9078e44d94c66da20f5e1f12612" xlink:title="AC_AttitudeControl\l::angle_ef_roll_pitch\l_rate_ef_yaw">
<polygon fill="white" stroke="black" points="297,-265.5 297,-306.5 401,-306.5 401,-265.5 297,-265.5"/>
<text text-anchor="start" x="305" y="-294.5" font-family="Helvetica,sans-Serif" font-size="10.00">AC_AttitudeControl</text>
<text text-anchor="start" x="305" y="-283.5" font-family="Helvetica,sans-Serif" font-size="10.00">::angle_ef_roll_pitch</text>
<text text-anchor="middle" x="349" y="-272.5" font-family="Helvetica,sans-Serif" font-size="10.00">_rate_ef_yaw</text>
</a>
</g>
</g>
<!-- Node38&#45;&gt;Node39 -->
<g id="edge60" class="edge"><title>Node38&#45;&gt;Node39</title>
<path fill="none" stroke="midnightblue" d="M188.983,-194.271C208.694,-212.456 238.506,-237.862 268,-255 277.015,-260.238 287.082,-264.93 296.95,-268.982"/>
<polygon fill="midnightblue" stroke="midnightblue" points="191.13,-191.486 181.438,-187.206 186.345,-196.596 191.13,-191.486"/>
</g>
<!-- Node40 -->
<g id="node40" class="node"><title>Node40</title>
<g id="a_node40"><a xlink:href="$classAC__AttitudeControl.html#afbe614d708bc9de386fda48ee3c65069" xlink:title="AC_AttitudeControl\l::angle_ef_roll_pitch\l_rate_ef_yaw_smooth">
<polygon fill="white" stroke="black" points="292.5,-205.5 292.5,-246.5 405.5,-246.5 405.5,-205.5 292.5,-205.5"/>
<text text-anchor="start" x="300.5" y="-234.5" font-family="Helvetica,sans-Serif" font-size="10.00">AC_AttitudeControl</text>
<text text-anchor="start" x="300.5" y="-223.5" font-family="Helvetica,sans-Serif" font-size="10.00">::angle_ef_roll_pitch</text>
<text text-anchor="middle" x="349" y="-212.5" font-family="Helvetica,sans-Serif" font-size="10.00">_rate_ef_yaw_smooth</text>
</a>
</g>
</g>
<!-- Node38&#45;&gt;Node40 -->
<g id="edge61" class="edge"><title>Node38&#45;&gt;Node40</title>
<path fill="none" stroke="midnightblue" d="M226.304,-189.892C247.646,-196.225 271.54,-203.314 292.467,-209.523"/>
<polygon fill="midnightblue" stroke="midnightblue" points="227.28,-186.531 216.697,-187.042 225.288,-193.242 227.28,-186.531"/>
</g>
<!-- Node41 -->
<g id="node41" class="node"><title>Node41</title>
<g id="a_node41"><a xlink:href="$classAC__AttitudeControl.html#a436fd54f740d502a04b86f5b8a25bb42" xlink:title="AC_AttitudeControl\l::angle_ef_roll_pitch_yaw">
<polygon fill="white" stroke="black" points="285.5,-157 285.5,-187 412.5,-187 412.5,-157 285.5,-157"/>
<text text-anchor="start" x="293.5" y="-175" font-family="Helvetica,sans-Serif" font-size="10.00">AC_AttitudeControl</text>
<text text-anchor="middle" x="349" y="-164" font-family="Helvetica,sans-Serif" font-size="10.00">::angle_ef_roll_pitch_yaw</text>
</a>
</g>
</g>
<!-- Node38&#45;&gt;Node41 -->
<g id="edge62" class="edge"><title>Node38&#45;&gt;Node41</title>
<path fill="none" stroke="midnightblue" d="M236.544,-172C252.672,-172 269.705,-172 285.469,-172"/>
<polygon fill="midnightblue" stroke="midnightblue" points="236.098,-168.5 226.098,-172 236.098,-175.5 236.098,-168.5"/>
</g>
<!-- Node42 -->
<g id="node42" class="node"><title>Node42</title>
<g id="a_node42"><a xlink:href="$classAC__AttitudeControl__Heli.html#adcf61fba6788547660fa2237e46a459e" xlink:title="AC_AttitudeControl\l_Heli::passthrough_bf\l_roll_pitch_rate_yaw">
<polygon fill="white" stroke="black" points="293,-97.5 293,-138.5 405,-138.5 405,-97.5 293,-97.5"/>
<text text-anchor="start" x="301" y="-126.5" font-family="Helvetica,sans-Serif" font-size="10.00">AC_AttitudeControl</text>
<text text-anchor="start" x="301" y="-115.5" font-family="Helvetica,sans-Serif" font-size="10.00">_Heli::passthrough_bf</text>
<text text-anchor="middle" x="349" y="-104.5" font-family="Helvetica,sans-Serif" font-size="10.00">_roll_pitch_rate_yaw</text>
</a>
</g>
</g>
<!-- Node38&#45;&gt;Node42 -->
<g id="edge63" class="edge"><title>Node38&#45;&gt;Node42</title>
<path fill="none" stroke="midnightblue" d="M226.347,-154.095C247.789,-147.733 271.8,-140.609 292.79,-134.381"/>
<polygon fill="midnightblue" stroke="midnightblue" points="225.288,-150.758 216.697,-156.958 227.28,-157.469 225.288,-150.758"/>
</g>
<!-- Node43 -->
<g id="node43" class="node"><title>Node43</title>
<g id="a_node43"><a xlink:href="$classAC__AttitudeControl.html#a716b26f41dfc5cf956b360affd045946" xlink:title="AC_AttitudeControl\l::rate_bf_roll_pitch_yaw">
<polygon fill="white" stroke="black" points="289,-49 289,-79 409,-79 409,-49 289,-49"/>
<text text-anchor="start" x="297" y="-67" font-family="Helvetica,sans-Serif" font-size="10.00">AC_AttitudeControl</text>
<text text-anchor="middle" x="349" y="-56" font-family="Helvetica,sans-Serif" font-size="10.00">::rate_bf_roll_pitch_yaw</text>
</a>
</g>
</g>
<!-- Node38&#45;&gt;Node43 -->
<g id="edge64" class="edge"><title>Node38&#45;&gt;Node43</title>
<path fill="none" stroke="midnightblue" d="M187.653,-149.744C207.108,-130.897 237.268,-104.399 268,-88 274.524,-84.5184 281.624,-81.4714 288.811,-78.8242"/>
<polygon fill="midnightblue" stroke="midnightblue" points="185.157,-147.289 180.495,-156.803 190.073,-152.273 185.157,-147.289"/>
</g>
<!-- Node44 -->
<g id="node44" class="node"><title>Node44</title>
<g id="a_node44"><a xlink:href="$classAC__AttitudeControl.html#a2f434d94c7265c3e09c0c7555ec92efb" xlink:title="AC_AttitudeControl\l::rate_ef_roll_pitch_yaw">
<polygon fill="white" stroke="black" points="289,-0 289,-30 409,-30 409,-0 289,-0"/>
<text text-anchor="start" x="297" y="-18" font-family="Helvetica,sans-Serif" font-size="10.00">AC_AttitudeControl</text>
<text text-anchor="middle" x="349" y="-7" font-family="Helvetica,sans-Serif" font-size="10.00">::rate_ef_roll_pitch_yaw</text>
</a>
</g>
</g>
<!-- Node38&#45;&gt;Node44 -->
<g id="edge65" class="edge"><title>Node38&#45;&gt;Node44</title>
<path fill="none" stroke="midnightblue" d="M178.333,-147.801C194.793,-117.896 226.722,-67.4831 268,-39 274.325,-34.6352 281.461,-31.049 288.799,-28.1062"/>
<polygon fill="midnightblue" stroke="midnightblue" points="175.183,-146.269 173.541,-156.736 181.352,-149.578 175.183,-146.269"/>
</g>
</g>
</svg>
