<?xml version="1.0" encoding="UTF-8" standalone="no"?>
<!DOCTYPE svg PUBLIC "-//W3C//DTD SVG 1.1//EN"
 "http://www.w3.org/Graphics/SVG/1.1/DTD/svg11.dtd">
<!-- Generated by graphviz version 2.36.0 (20140111.2315)
 -->
<!-- Title: NavEKF::FuseMagnetometer Pages: 1 -->
<svg width="474pt" height="28pt"
 viewBox="0.00 0.00 474.00 28.00" xmlns="http://www.w3.org/2000/svg" xmlns:xlink="http://www.w3.org/1999/xlink">
<g id="graph0" class="graph" transform="scale(1 1) rotate(0) translate(4 24)">
<title>NavEKF::FuseMagnetometer</title>
<polygon fill="white" stroke="none" points="-4,4 -4,-24 470,-24 470,4 -4,4"/>
<!-- Node1 -->
<g id="node1" class="node"><title>Node1</title>
<polygon fill="#bfbfbf" stroke="black" points="0,-0.5 0,-19.5 144,-19.5 144,-0.5 0,-0.5"/>
<text text-anchor="middle" x="72" y="-7.5" font-family="Helvetica,sans-Serif" font-size="10.00">NavEKF::FuseMagnetometer</text>
</g>
<!-- Node2 -->
<g id="node2" class="node"><title>Node2</title>
<g id="a_node2"><a xlink:href="$classNavEKF.html#abb693a00d56f98f4cd8d654605163d14" xlink:title="NavEKF::SelectMagFusion">
<polygon fill="white" stroke="black" points="180,-0.5 180,-19.5 316,-19.5 316,-0.5 180,-0.5"/>
<text text-anchor="middle" x="248" y="-7.5" font-family="Helvetica,sans-Serif" font-size="10.00">NavEKF::SelectMagFusion</text>
</a>
</g>
</g>
<!-- Node1&#45;&gt;Node2 -->
<g id="edge1" class="edge"><title>Node1&#45;&gt;Node2</title>
<path fill="none" stroke="midnightblue" d="M154.09,-10C162.714,-10 171.415,-10 179.852,-10"/>
<polygon fill="midnightblue" stroke="midnightblue" points="154.023,-6.5001 144.023,-10 154.023,-13.5001 154.023,-6.5001"/>
</g>
<!-- Node3 -->
<g id="node3" class="node"><title>Node3</title>
<g id="a_node3"><a xlink:href="$classNavEKF.html#a58d3c9694abab421e8eadd78e72ac67c" xlink:title="NavEKF::UpdateFilter">
<polygon fill="white" stroke="black" points="352.5,-0.5 352.5,-19.5 465.5,-19.5 465.5,-0.5 352.5,-0.5"/>
<text text-anchor="middle" x="409" y="-7.5" font-family="Helvetica,sans-Serif" font-size="10.00">NavEKF::UpdateFilter</text>
</a>
</g>
</g>
<!-- Node2&#45;&gt;Node3 -->
<g id="edge2" class="edge"><title>Node2&#45;&gt;Node3</title>
<path fill="none" stroke="midnightblue" d="M326.635,-10C335.362,-10 344.118,-10 352.484,-10"/>
<polygon fill="midnightblue" stroke="midnightblue" points="326.43,-6.5001 316.43,-10 326.43,-13.5001 326.43,-6.5001"/>
</g>
</g>
</svg>
