<?xml version="1.0" encoding="UTF-8" standalone="no"?>
<!DOCTYPE svg PUBLIC "-//W3C//DTD SVG 1.1//EN"
 "http://www.w3.org/Graphics/SVG/1.1/DTD/svg11.dtd">
<!-- Generated by graphviz version 2.36.0 (20140111.2315)
 -->
<!-- Title: DataFlash_Class::Log_Write_Camera Pages: 1 -->
<svg width="304pt" height="180pt"
 viewBox="0.00 0.00 304.00 180.00" xmlns="http://www.w3.org/2000/svg" xmlns:xlink="http://www.w3.org/1999/xlink">
<g id="graph0" class="graph" transform="scale(1 1) rotate(0) translate(4 176)">
<title>DataFlash_Class::Log_Write_Camera</title>
<polygon fill="white" stroke="none" points="-4,4 -4,-176 300,-176 300,4 -4,4"/>
<!-- Node1 -->
<g id="node1" class="node"><title>Node1</title>
<polygon fill="#bfbfbf" stroke="black" points="0,-71 0,-101 114,-101 114,-71 0,-71"/>
<text text-anchor="start" x="8" y="-89" font-family="Helvetica,sans-Serif" font-size="10.00">DataFlash_Class::Log</text>
<text text-anchor="middle" x="57" y="-78" font-family="Helvetica,sans-Serif" font-size="10.00">_Write_Camera</text>
</g>
<!-- Node2 -->
<g id="node2" class="node"><title>Node2</title>
<g id="a_node2"><a xlink:href="$classAP__AHRS.html#aea45b16e6469a3b392b8bf52fb864732" xlink:title="AP_AHRS::get_home">
<polygon fill="white" stroke="black" points="166.5,-152.5 166.5,-171.5 279.5,-171.5 279.5,-152.5 166.5,-152.5"/>
<text text-anchor="middle" x="223" y="-159.5" font-family="Helvetica,sans-Serif" font-size="10.00">AP_AHRS::get_home</text>
</a>
</g>
</g>
<!-- Node1&#45;&gt;Node2 -->
<g id="edge1" class="edge"><title>Node1&#45;&gt;Node2</title>
<path fill="none" stroke="midnightblue" d="M78.5821,-101.241C96.6131,-113.97 123.938,-131.786 150,-143 155.689,-145.448 161.77,-147.645 167.897,-149.599"/>
<polygon fill="midnightblue" stroke="midnightblue" points="166.931,-152.964 177.514,-152.472 168.934,-146.256 166.931,-152.964"/>
</g>
<!-- Node3 -->
<g id="node3" class="node"><title>Node3</title>
<g id="a_node3"><a xlink:href="$sitl__gps_8cpp.html#a97c4c56ae21d368d04cc37ff7d97ac0e" xlink:title="gps_time">
<polygon fill="white" stroke="black" points="195,-114.5 195,-133.5 251,-133.5 251,-114.5 195,-114.5"/>
<text text-anchor="middle" x="223" y="-121.5" font-family="Helvetica,sans-Serif" font-size="10.00">gps_time</text>
</a>
</g>
</g>
<!-- Node1&#45;&gt;Node3 -->
<g id="edge2" class="edge"><title>Node1&#45;&gt;Node3</title>
<path fill="none" stroke="midnightblue" d="M114.439,-99.0774C137.743,-104.477 164.107,-110.586 184.901,-115.404"/>
<polygon fill="midnightblue" stroke="midnightblue" points="184.39,-118.878 194.922,-117.726 185.97,-112.059 184.39,-118.878"/>
</g>
<!-- Node4 -->
<g id="node4" class="node"><title>Node4</title>
<g id="a_node4"><a xlink:href="$classAP__GPS.html#a1a47dc3e414a9d83ff18fa849c538823" xlink:title="AP_GPS::time_week_ms">
<polygon fill="white" stroke="black" points="159,-76.5 159,-95.5 287,-95.5 287,-76.5 159,-76.5"/>
<text text-anchor="middle" x="223" y="-83.5" font-family="Helvetica,sans-Serif" font-size="10.00">AP_GPS::time_week_ms</text>
</a>
</g>
</g>
<!-- Node1&#45;&gt;Node4 -->
<g id="edge3" class="edge"><title>Node1&#45;&gt;Node4</title>
<path fill="none" stroke="midnightblue" d="M114.439,-86C125.547,-86 137.35,-86 148.914,-86"/>
<polygon fill="midnightblue" stroke="midnightblue" points="148.991,-89.5001 158.991,-86 148.991,-82.5001 148.991,-89.5001"/>
</g>
<!-- Node5 -->
<g id="node5" class="node"><title>Node5</title>
<g id="a_node5"><a xlink:href="$classAP__GPS.html#a0f232d5ff5d2e54ad7dc7a52ab16f207" xlink:title="AP_GPS::time_week">
<polygon fill="white" stroke="black" points="168,-38.5 168,-57.5 278,-57.5 278,-38.5 168,-38.5"/>
<text text-anchor="middle" x="223" y="-45.5" font-family="Helvetica,sans-Serif" font-size="10.00">AP_GPS::time_week</text>
</a>
</g>
</g>
<!-- Node1&#45;&gt;Node5 -->
<g id="edge4" class="edge"><title>Node1&#45;&gt;Node5</title>
<path fill="none" stroke="midnightblue" d="M114.439,-72.9226C132.804,-68.6674 153.069,-63.9718 171.011,-59.8145"/>
<polygon fill="midnightblue" stroke="midnightblue" points="172.041,-63.1687 180.993,-57.5017 170.461,-56.3494 172.041,-63.1687"/>
</g>
<!-- Node6 -->
<g id="node6" class="node"><title>Node6</title>
<g id="a_node6"><a xlink:href="$classDataFlash__Class.html#af5e6aefb8f2136e9104be836dac88625" xlink:title="DataFlash_Class::WriteBlock">
<polygon fill="white" stroke="black" points="150,-0.5 150,-19.5 296,-19.5 296,-0.5 150,-0.5"/>
<text text-anchor="middle" x="223" y="-7.5" font-family="Helvetica,sans-Serif" font-size="10.00">DataFlash_Class::WriteBlock</text>
</a>
</g>
</g>
<!-- Node1&#45;&gt;Node6 -->
<g id="edge5" class="edge"><title>Node1&#45;&gt;Node6</title>
<path fill="none" stroke="midnightblue" d="M78.5821,-70.7586C96.6131,-58.0303 123.938,-40.2141 150,-29 155.689,-26.5521 161.77,-24.355 167.897,-22.4005"/>
<polygon fill="midnightblue" stroke="midnightblue" points="168.934,-25.7437 177.514,-19.5279 166.931,-19.0365 168.934,-25.7437"/>
</g>
</g>
</svg>
