<?xml version="1.0" encoding="UTF-8" standalone="no"?>
<!DOCTYPE svg PUBLIC "-//W3C//DTD SVG 1.1//EN"
 "http://www.w3.org/Graphics/SVG/1.1/DTD/svg11.dtd">
<!-- Generated by graphviz version 2.36.0 (20140111.2315)
 -->
<!-- Title: AP_AHRS_DCM::use_compass Pages: 1 -->
<svg width="538pt" height="267pt"
 viewBox="0.00 0.00 538.00 267.00" xmlns="http://www.w3.org/2000/svg" xmlns:xlink="http://www.w3.org/1999/xlink">
<g id="graph0" class="graph" transform="scale(1 1) rotate(0) translate(4 263)">
<title>AP_AHRS_DCM::use_compass</title>
<polygon fill="white" stroke="none" points="-4,4 -4,-263 534,-263 534,4 -4,4"/>
<!-- Node1 -->
<g id="node1" class="node"><title>Node1</title>
<polygon fill="#bfbfbf" stroke="black" points="0.5,-125.5 0.5,-144.5 159.5,-144.5 159.5,-125.5 0.5,-125.5"/>
<text text-anchor="middle" x="80" y="-132.5" font-family="Helvetica,sans-Serif" font-size="10.00">AP_AHRS_DCM::use_compass</text>
</g>
<!-- Node2 -->
<g id="node2" class="node"><title>Node2</title>
<g id="a_node2"><a xlink:href="$classCompass.html#a97437729a583cd900e4dd1d6d84a4a0e" xlink:title="return true if the compass should be used for yaw calculations ">
<polygon fill="white" stroke="black" points="207,-239.5 207,-258.5 327,-258.5 327,-239.5 207,-239.5"/>
<text text-anchor="middle" x="267" y="-246.5" font-family="Helvetica,sans-Serif" font-size="10.00">Compass::use_for_yaw</text>
</a>
</g>
</g>
<!-- Node1&#45;&gt;Node2 -->
<g id="edge1" class="edge"><title>Node1&#45;&gt;Node2</title>
<path fill="none" stroke="midnightblue" d="M89.8382,-144.656C107.904,-163.815 151.156,-206.782 196,-230 200.497,-232.329 205.31,-234.394 210.226,-236.223"/>
<polygon fill="midnightblue" stroke="midnightblue" points="209.161,-239.557 219.756,-239.452 211.408,-232.928 209.161,-239.557"/>
</g>
<!-- Node3 -->
<g id="node3" class="node"><title>Node3</title>
<g id="a_node3"><a xlink:href="$classAP__AHRS__DCM.html#afa5a3211156bb998a42c39daf613b736" xlink:title="AP_AHRS_DCM::have_gps">
<polygon fill="white" stroke="black" points="197,-201.5 197,-220.5 337,-220.5 337,-201.5 197,-201.5"/>
<text text-anchor="middle" x="267" y="-208.5" font-family="Helvetica,sans-Serif" font-size="10.00">AP_AHRS_DCM::have_gps</text>
</a>
</g>
</g>
<!-- Node1&#45;&gt;Node3 -->
<g id="edge2" class="edge"><title>Node1&#45;&gt;Node3</title>
<path fill="none" stroke="midnightblue" d="M97.68,-144.565C119.649,-156.857 159.748,-178.247 196,-192 202.328,-194.401 209.085,-196.631 215.811,-198.657"/>
<polygon fill="midnightblue" stroke="midnightblue" points="215.013,-202.069 225.591,-201.474 216.951,-195.342 215.013,-202.069"/>
</g>
<!-- Node5 -->
<g id="node5" class="node"><title>Node5</title>
<g id="a_node5"><a xlink:href="$classAP__GPS.html#a426041563da447ec6e9cde1926a88fdb" xlink:title="AP_GPS::ground_speed">
<polygon fill="white" stroke="black" points="205.5,-163.5 205.5,-182.5 328.5,-182.5 328.5,-163.5 205.5,-163.5"/>
<text text-anchor="middle" x="267" y="-170.5" font-family="Helvetica,sans-Serif" font-size="10.00">AP_GPS::ground_speed</text>
</a>
</g>
</g>
<!-- Node1&#45;&gt;Node5 -->
<g id="edge4" class="edge"><title>Node1&#45;&gt;Node5</title>
<path fill="none" stroke="midnightblue" d="M127.683,-144.589C152.646,-149.716 183.564,-156.067 209.834,-161.463"/>
<polygon fill="midnightblue" stroke="midnightblue" points="209.153,-164.896 219.652,-163.48 210.561,-158.039 209.153,-164.896"/>
</g>
<!-- Node6 -->
<g id="node6" class="node"><title>Node6</title>
<g id="a_node6"><a xlink:href="$AP__Math_8h.html#a35821002985a8e3e526c8ccad9bb9934" xlink:title="wrap_180_cd">
<polygon fill="white" stroke="black" points="230,-125.5 230,-144.5 304,-144.5 304,-125.5 230,-125.5"/>
<text text-anchor="middle" x="267" y="-132.5" font-family="Helvetica,sans-Serif" font-size="10.00">wrap_180_cd</text>
</a>
</g>
</g>
<!-- Node1&#45;&gt;Node6 -->
<g id="edge5" class="edge"><title>Node1&#45;&gt;Node6</title>
<path fill="none" stroke="midnightblue" d="M159.725,-135C180.208,-135 201.613,-135 219.801,-135"/>
<polygon fill="midnightblue" stroke="midnightblue" points="219.826,-138.5 229.826,-135 219.826,-131.5 219.826,-138.5"/>
</g>
<!-- Node7 -->
<g id="node7" class="node"><title>Node7</title>
<g id="a_node7"><a xlink:href="$classAP__GPS.html#a94caaa8676fecb6c0c4a8a58eea3b106" xlink:title="AP_GPS::ground_course_cd">
<polygon fill="white" stroke="black" points="196,-87.5 196,-106.5 338,-106.5 338,-87.5 196,-87.5"/>
<text text-anchor="middle" x="267" y="-94.5" font-family="Helvetica,sans-Serif" font-size="10.00">AP_GPS::ground_course_cd</text>
</a>
</g>
</g>
<!-- Node1&#45;&gt;Node7 -->
<g id="edge6" class="edge"><title>Node1&#45;&gt;Node7</title>
<path fill="none" stroke="midnightblue" d="M127.683,-125.411C152.646,-120.284 183.564,-113.933 209.834,-108.537"/>
<polygon fill="midnightblue" stroke="midnightblue" points="210.561,-111.961 219.652,-106.52 209.153,-105.104 210.561,-111.961"/>
</g>
<!-- Node8 -->
<g id="node8" class="node"><title>Node8</title>
<g id="a_node8"><a xlink:href="$classVector3.html#ac1fd5514e368a1e1c2d13f71eda18345" xlink:title="Vector3::length">
<polygon fill="white" stroke="black" points="225.5,-49.5 225.5,-68.5 308.5,-68.5 308.5,-49.5 225.5,-49.5"/>
<text text-anchor="middle" x="267" y="-56.5" font-family="Helvetica,sans-Serif" font-size="10.00">Vector3::length</text>
</a>
</g>
</g>
<!-- Node1&#45;&gt;Node8 -->
<g id="edge7" class="edge"><title>Node1&#45;&gt;Node8</title>
<path fill="none" stroke="midnightblue" d="M97.68,-125.435C119.649,-113.143 159.748,-91.753 196,-78 202.328,-75.5992 209.085,-73.3689 215.811,-71.3434"/>
<polygon fill="midnightblue" stroke="midnightblue" points="216.951,-74.6577 225.591,-68.5264 215.013,-67.9312 216.951,-74.6577"/>
</g>
<!-- Node11 -->
<g id="node11" class="node"><title>Node11</title>
<g id="a_node11"><a xlink:href="$classAP__HAL_1_1Scheduler.html#a26b68339fc68a562d8d3a1238d0ec8c1" xlink:title="AP_HAL::Scheduler::\lmillis">
<polygon fill="white" stroke="black" points="212,-0 212,-30 322,-30 322,-0 212,-0"/>
<text text-anchor="start" x="220" y="-18" font-family="Helvetica,sans-Serif" font-size="10.00">AP_HAL::Scheduler::</text>
<text text-anchor="middle" x="267" y="-7" font-family="Helvetica,sans-Serif" font-size="10.00">millis</text>
</a>
</g>
</g>
<!-- Node1&#45;&gt;Node11 -->
<g id="edge10" class="edge"><title>Node1&#45;&gt;Node11</title>
<path fill="none" stroke="midnightblue" d="M90.2825,-125.35C108.8,-106.579 152.32,-64.8205 196,-40 199.66,-37.92 203.525,-35.9642 207.482,-34.1346"/>
<polygon fill="midnightblue" stroke="midnightblue" points="209.038,-37.2749 216.83,-30.0956 206.262,-30.849 209.038,-37.2749"/>
</g>
<!-- Node4 -->
<g id="node4" class="node"><title>Node4</title>
<g id="a_node4"><a xlink:href="$classAP__GPS.html#a9093c8cf1d5a78ccd8677229bb314d37" xlink:title="Query GPS status. ">
<polygon fill="white" stroke="black" points="374.5,-201.5 374.5,-220.5 463.5,-220.5 463.5,-201.5 374.5,-201.5"/>
<text text-anchor="middle" x="419" y="-208.5" font-family="Helvetica,sans-Serif" font-size="10.00">AP_GPS::status</text>
</a>
</g>
</g>
<!-- Node3&#45;&gt;Node4 -->
<g id="edge3" class="edge"><title>Node3&#45;&gt;Node4</title>
<path fill="none" stroke="midnightblue" d="M337.292,-211C346.34,-211 355.5,-211 364.241,-211"/>
<polygon fill="midnightblue" stroke="midnightblue" points="364.277,-214.5 374.277,-211 364.277,-207.5 364.277,-214.5"/>
</g>
<!-- Node9 -->
<g id="node9" class="node"><title>Node9</title>
<g id="a_node9"><a xlink:href="$AP__Math_8cpp.html#ac09c78b18c2ad21b9a04081f119f11c0" xlink:title="pythagorous3">
<polygon fill="white" stroke="black" points="381.5,-49.5 381.5,-68.5 456.5,-68.5 456.5,-49.5 381.5,-49.5"/>
<text text-anchor="middle" x="419" y="-56.5" font-family="Helvetica,sans-Serif" font-size="10.00">pythagorous3</text>
</a>
</g>
</g>
<!-- Node8&#45;&gt;Node9 -->
<g id="edge8" class="edge"><title>Node8&#45;&gt;Node9</title>
<path fill="none" stroke="midnightblue" d="M308.592,-59C327.95,-59 351.212,-59 371.3,-59"/>
<polygon fill="midnightblue" stroke="midnightblue" points="371.478,-62.5001 381.478,-59 371.478,-55.5001 371.478,-62.5001"/>
</g>
<!-- Node10 -->
<g id="node10" class="node"><title>Node10</title>
<g id="a_node10"><a xlink:href="$AP__Math_8cpp.html#a996fdbe87607543eef5dcb234f6bc017" xlink:title="sq">
<polygon fill="white" stroke="black" points="500.5,-49.5 500.5,-68.5 529.5,-68.5 529.5,-49.5 500.5,-49.5"/>
<text text-anchor="middle" x="515" y="-56.5" font-family="Helvetica,sans-Serif" font-size="10.00">sq</text>
</a>
</g>
</g>
<!-- Node9&#45;&gt;Node10 -->
<g id="edge9" class="edge"><title>Node9&#45;&gt;Node10</title>
<path fill="none" stroke="midnightblue" d="M456.612,-59C467.818,-59 479.853,-59 489.993,-59"/>
<polygon fill="midnightblue" stroke="midnightblue" points="490.124,-62.5001 500.124,-59 490.124,-55.5001 490.124,-62.5001"/>
</g>
</g>
</svg>
