<?xml version="1.0" encoding="UTF-8" standalone="no"?>
<!DOCTYPE svg PUBLIC "-//W3C//DTD SVG 1.1//EN"
 "http://www.w3.org/Graphics/SVG/1.1/DTD/svg11.dtd">
<!-- Generated by graphviz version 2.36.0 (20140111.2315)
 -->
<!-- Title: ToneAlarm_PX4::play_tone Pages: 1 -->
<svg width="292pt" height="87pt"
 viewBox="0.00 0.00 292.00 87.00" xmlns="http://www.w3.org/2000/svg" xmlns:xlink="http://www.w3.org/1999/xlink">
<g id="graph0" class="graph" transform="scale(1 1) rotate(0) translate(4 83)">
<title>ToneAlarm_PX4::play_tone</title>
<polygon fill="white" stroke="none" points="-4,4 -4,-83 288,-83 288,4 -4,4"/>
<!-- Node1 -->
<g id="node1" class="node"><title>Node1</title>
<polygon fill="#bfbfbf" stroke="black" points="0,-29.5 0,-48.5 136,-48.5 136,-29.5 0,-29.5"/>
<text text-anchor="middle" x="68" y="-36.5" font-family="Helvetica,sans-Serif" font-size="10.00">ToneAlarm_PX4::play_tone</text>
</g>
<!-- Node2 -->
<g id="node2" class="node"><title>Node2</title>
<g id="a_node2"><a xlink:href="$classAP__HAL_1_1Scheduler.html#a26b68339fc68a562d8d3a1238d0ec8c1" xlink:title="AP_HAL::Scheduler::\lmillis">
<polygon fill="white" stroke="black" points="173,-49 173,-79 283,-79 283,-49 173,-49"/>
<text text-anchor="start" x="181" y="-67" font-family="Helvetica,sans-Serif" font-size="10.00">AP_HAL::Scheduler::</text>
<text text-anchor="middle" x="228" y="-56" font-family="Helvetica,sans-Serif" font-size="10.00">millis</text>
</a>
</g>
</g>
<!-- Node1&#45;&gt;Node2 -->
<g id="edge1" class="edge"><title>Node1&#45;&gt;Node2</title>
<path fill="none" stroke="midnightblue" d="M129.184,-48.5227C140.201,-50.2659 151.736,-52.0911 162.863,-53.8517"/>
<polygon fill="midnightblue" stroke="midnightblue" points="162.516,-57.3404 172.94,-55.4463 163.61,-50.4264 162.516,-57.3404"/>
</g>
<!-- Node3 -->
<g id="node3" class="node"><title>Node3</title>
<g id="a_node3"><a xlink:href="$classToneAlarm__PX4.html#a8a6c14a17e6be6ab9f263d4c0127d49a" xlink:title="ToneAlarm_PX4::play\l_string">
<polygon fill="white" stroke="black" points="172,-0 172,-30 284,-30 284,-0 172,-0"/>
<text text-anchor="start" x="180" y="-18" font-family="Helvetica,sans-Serif" font-size="10.00">ToneAlarm_PX4::play</text>
<text text-anchor="middle" x="228" y="-7" font-family="Helvetica,sans-Serif" font-size="10.00">_string</text>
</a>
</g>
</g>
<!-- Node1&#45;&gt;Node3 -->
<g id="edge2" class="edge"><title>Node1&#45;&gt;Node3</title>
<path fill="none" stroke="midnightblue" d="M131.9,-29.4456C141.736,-27.9515 151.92,-26.4046 161.806,-24.9029"/>
<polygon fill="midnightblue" stroke="midnightblue" points="162.612,-28.3207 171.973,-23.3585 161.561,-21.4 162.612,-28.3207"/>
</g>
</g>
</svg>
