<?xml version="1.0" encoding="UTF-8" standalone="no"?>
<!DOCTYPE svg PUBLIC "-//W3C//DTD SVG 1.1//EN"
 "http://www.w3.org/Graphics/SVG/1.1/DTD/svg11.dtd">
<!-- Generated by graphviz version 2.36.0 (20140111.2315)
 -->
<!-- Title: AC_AttitudeControl::frame_conversion_bf_to_ef Pages: 1 -->
<svg width="296pt" height="180pt"
 viewBox="0.00 0.00 296.00 180.00" xmlns="http://www.w3.org/2000/svg" xmlns:xlink="http://www.w3.org/1999/xlink">
<g id="graph0" class="graph" transform="scale(1 1) rotate(0) translate(4 176)">
<title>AC_AttitudeControl::frame_conversion_bf_to_ef</title>
<polygon fill="white" stroke="none" points="-4,4 -4,-176 292,-176 292,4 -4,4"/>
<!-- Node1 -->
<g id="node1" class="node"><title>Node1</title>
<polygon fill="#bfbfbf" stroke="black" points="0,-71 0,-101 140,-101 140,-71 0,-71"/>
<text text-anchor="start" x="8" y="-89" font-family="Helvetica,sans-Serif" font-size="10.00">AC_AttitudeControl</text>
<text text-anchor="middle" x="70" y="-78" font-family="Helvetica,sans-Serif" font-size="10.00">::frame_conversion_bf_to_ef</text>
</g>
<!-- Node2 -->
<g id="node2" class="node"><title>Node2</title>
<g id="a_node2"><a xlink:href="$AP__Math_8h.html#a108b79eeb35c5d58f324458ec9e1e9f2" xlink:title="is_zero">
<polygon fill="white" stroke="black" points="208,-152.5 208,-171.5 256,-171.5 256,-152.5 208,-152.5"/>
<text text-anchor="middle" x="232" y="-159.5" font-family="Helvetica,sans-Serif" font-size="10.00">is_zero</text>
</a>
</g>
</g>
<!-- Node1&#45;&gt;Node2 -->
<g id="edge1" class="edge"><title>Node1&#45;&gt;Node2</title>
<path fill="none" stroke="midnightblue" d="M95.8734,-101.019C116.788,-113.275 147.718,-130.54 176,-143 183.135,-146.144 190.967,-149.119 198.427,-151.741"/>
<polygon fill="midnightblue" stroke="midnightblue" points="197.336,-155.067 207.93,-154.97 199.588,-148.439 197.336,-155.067"/>
</g>
<!-- Node3 -->
<g id="node3" class="node"><title>Node3</title>
<g id="a_node3"><a xlink:href="$classAP__AHRS.html#aae50efebd31d79c279e6155298433493" xlink:title="AP_AHRS::cos_pitch">
<polygon fill="white" stroke="black" points="176,-114.5 176,-133.5 288,-133.5 288,-114.5 176,-114.5"/>
<text text-anchor="middle" x="232" y="-121.5" font-family="Helvetica,sans-Serif" font-size="10.00">AP_AHRS::cos_pitch</text>
</a>
</g>
</g>
<!-- Node1&#45;&gt;Node3 -->
<g id="edge2" class="edge"><title>Node1&#45;&gt;Node3</title>
<path fill="none" stroke="midnightblue" d="M134.236,-101.019C149.708,-104.693 166.056,-108.576 180.821,-112.083"/>
<polygon fill="midnightblue" stroke="midnightblue" points="180.223,-115.538 190.761,-114.443 181.84,-108.727 180.223,-115.538"/>
</g>
<!-- Node4 -->
<g id="node4" class="node"><title>Node4</title>
<g id="a_node4"><a xlink:href="$classAP__AHRS.html#ae6e0ea7f015a055ac5f9a191b36397b2" xlink:title="AP_AHRS::sin_roll">
<polygon fill="white" stroke="black" points="181.5,-76.5 181.5,-95.5 282.5,-95.5 282.5,-76.5 181.5,-76.5"/>
<text text-anchor="middle" x="232" y="-83.5" font-family="Helvetica,sans-Serif" font-size="10.00">AP_AHRS::sin_roll</text>
</a>
</g>
</g>
<!-- Node1&#45;&gt;Node4 -->
<g id="edge3" class="edge"><title>Node1&#45;&gt;Node4</title>
<path fill="none" stroke="midnightblue" d="M140.248,-86C150.528,-86 161.049,-86 171.116,-86"/>
<polygon fill="midnightblue" stroke="midnightblue" points="171.413,-89.5001 181.413,-86 171.413,-82.5001 171.413,-89.5001"/>
</g>
<!-- Node5 -->
<g id="node5" class="node"><title>Node5</title>
<g id="a_node5"><a xlink:href="$classAP__AHRS.html#ad38cca127a814e11e607f072bfdf03b0" xlink:title="AP_AHRS::sin_pitch">
<polygon fill="white" stroke="black" points="177.5,-38.5 177.5,-57.5 286.5,-57.5 286.5,-38.5 177.5,-38.5"/>
<text text-anchor="middle" x="232" y="-45.5" font-family="Helvetica,sans-Serif" font-size="10.00">AP_AHRS::sin_pitch</text>
</a>
</g>
</g>
<!-- Node1&#45;&gt;Node5 -->
<g id="edge4" class="edge"><title>Node1&#45;&gt;Node5</title>
<path fill="none" stroke="midnightblue" d="M134.236,-70.9814C149.708,-67.3069 166.056,-63.4243 180.821,-59.9174"/>
<polygon fill="midnightblue" stroke="midnightblue" points="181.84,-63.2729 190.761,-57.5568 180.223,-56.4623 181.84,-63.2729"/>
</g>
<!-- Node6 -->
<g id="node6" class="node"><title>Node6</title>
<g id="a_node6"><a xlink:href="$classAP__AHRS.html#a68ea4fdaf53cf5d7068927f5f20393ab" xlink:title="AP_AHRS::cos_roll">
<polygon fill="white" stroke="black" points="180,-0.5 180,-19.5 284,-19.5 284,-0.5 180,-0.5"/>
<text text-anchor="middle" x="232" y="-7.5" font-family="Helvetica,sans-Serif" font-size="10.00">AP_AHRS::cos_roll</text>
</a>
</g>
</g>
<!-- Node1&#45;&gt;Node6 -->
<g id="edge5" class="edge"><title>Node1&#45;&gt;Node6</title>
<path fill="none" stroke="midnightblue" d="M95.8734,-70.9811C116.788,-58.7254 147.718,-41.4603 176,-29 180.732,-26.9151 185.771,-24.9044 190.804,-23.0215"/>
<polygon fill="midnightblue" stroke="midnightblue" points="192.17,-26.2499 200.395,-19.5722 189.801,-19.6629 192.17,-26.2499"/>
</g>
</g>
</svg>
