<?xml version="1.0" encoding="UTF-8" standalone="no"?>
<!DOCTYPE svg PUBLIC "-//W3C//DTD SVG 1.1//EN"
 "http://www.w3.org/Graphics/SVG/1.1/DTD/svg11.dtd">
<!-- Generated by graphviz version 2.36.0 (20140111.2315)
 -->
<!-- Title: AC_PID::get_p Pages: 1 -->
<svg width="888pt" height="408pt"
 viewBox="0.00 0.00 888.00 408.00" xmlns="http://www.w3.org/2000/svg" xmlns:xlink="http://www.w3.org/1999/xlink">
<g id="graph0" class="graph" transform="scale(1 1) rotate(0) translate(4 404)">
<title>AC_PID::get_p</title>
<polygon fill="white" stroke="none" points="-4,4 -4,-404 884,-404 884,4 -4,4"/>
<!-- Node1 -->
<g id="node1" class="node"><title>Node1</title>
<polygon fill="#bfbfbf" stroke="black" points="0.5,-211.5 0.5,-230.5 83.5,-230.5 83.5,-211.5 0.5,-211.5"/>
<text text-anchor="middle" x="42" y="-218.5" font-family="Helvetica,sans-Serif" font-size="10.00">AC_PID::get_p</text>
</g>
<!-- Node2 -->
<g id="node2" class="node"><title>Node2</title>
<g id="a_node2"><a xlink:href="$classAC__PosControl.html#a326002cec926ea659f8c06273c09513c" xlink:title="AC_PosControl::accel\l_to_throttle">
<polygon fill="white" stroke="black" points="134,-370 134,-400 248,-400 248,-370 134,-370"/>
<text text-anchor="start" x="142" y="-388" font-family="Helvetica,sans-Serif" font-size="10.00">AC_PosControl::accel</text>
<text text-anchor="middle" x="191" y="-377" font-family="Helvetica,sans-Serif" font-size="10.00">_to_throttle</text>
</a>
</g>
</g>
<!-- Node1&#45;&gt;Node2 -->
<g id="edge1" class="edge"><title>Node1&#45;&gt;Node2</title>
<path fill="none" stroke="midnightblue" d="M48.7493,-240.262C58.5886,-270.043 81.4181,-327.24 120,-360 124.525,-363.842 129.684,-367.111 135.103,-369.888"/>
<polygon fill="midnightblue" stroke="midnightblue" points="52.0556,-239.109 45.707,-230.627 45.3804,-241.216 52.0556,-239.109"/>
</g>
<!-- Node7 -->
<g id="node7" class="node"><title>Node7</title>
<g id="a_node7"><a xlink:href="$classAC__PID.html#a832e427bea26b7d19ff640359ef7c5d0" xlink:title="AC_PID::get_pi">
<polygon fill="white" stroke="black" points="148,-331.5 148,-350.5 234,-350.5 234,-331.5 148,-331.5"/>
<text text-anchor="middle" x="191" y="-338.5" font-family="Helvetica,sans-Serif" font-size="10.00">AC_PID::get_pi</text>
</a>
</g>
</g>
<!-- Node1&#45;&gt;Node7 -->
<g id="edge6" class="edge"><title>Node1&#45;&gt;Node7</title>
<path fill="none" stroke="midnightblue" d="M52.3519,-239.806C64.7012,-262.69 88.6061,-300.878 120,-322 128.254,-327.553 138.08,-331.488 147.721,-334.275"/>
<polygon fill="midnightblue" stroke="midnightblue" points="55.3636,-238.012 47.6417,-230.758 49.1545,-241.244 55.3636,-238.012"/>
</g>
<!-- Node8 -->
<g id="node8" class="node"><title>Node8</title>
<g id="a_node8"><a xlink:href="$classAC__PID.html#a6df71a6aba42eadd3ffb61b5264ffed2" xlink:title="AC_PID::get_pid">
<polygon fill="white" stroke="black" points="145.5,-293.5 145.5,-312.5 236.5,-312.5 236.5,-293.5 145.5,-293.5"/>
<text text-anchor="middle" x="191" y="-300.5" font-family="Helvetica,sans-Serif" font-size="10.00">AC_PID::get_pid</text>
</a>
</g>
</g>
<!-- Node1&#45;&gt;Node8 -->
<g id="edge7" class="edge"><title>Node1&#45;&gt;Node8</title>
<path fill="none" stroke="midnightblue" d="M59.2775,-237.83C73.9259,-252.06 96.6764,-271.994 120,-284 127.837,-288.034 136.622,-291.283 145.251,-293.874"/>
<polygon fill="midnightblue" stroke="midnightblue" points="61.5747,-235.178 52.0208,-230.598 56.6334,-240.136 61.5747,-235.178"/>
</g>
<!-- Node9 -->
<g id="node9" class="node"><title>Node9</title>
<g id="a_node9"><a xlink:href="$AC__PID__test_8pde.html#afe461d27b9c48d5921c00d521181f12f" xlink:title="loop">
<polygon fill="white" stroke="black" points="173.5,-255.5 173.5,-274.5 208.5,-274.5 208.5,-255.5 173.5,-255.5"/>
<text text-anchor="middle" x="191" y="-262.5" font-family="Helvetica,sans-Serif" font-size="10.00">loop</text>
</a>
</g>
</g>
<!-- Node1&#45;&gt;Node9 -->
<g id="edge8" class="edge"><title>Node1&#45;&gt;Node9</title>
<path fill="none" stroke="midnightblue" d="M82.6611,-233.56C94.6412,-237.301 107.841,-241.369 120,-245 138.166,-250.425 159.076,-256.359 173.278,-260.343"/>
<polygon fill="midnightblue" stroke="midnightblue" points="83.5235,-230.163 72.9344,-230.512 81.4302,-236.842 83.5235,-230.163"/>
</g>
<!-- Node12 -->
<g id="node12" class="node"><title>Node12</title>
<g id="a_node12"><a xlink:href="$classAC__AttitudeControl.html#a56c2344dd636bf31c186ab5736eb09f3" xlink:title="AC_AttitudeControl\l::rate_bf_to_motor_pitch">
<polygon fill="white" stroke="black" points="130,-206 130,-236 252,-236 252,-206 130,-206"/>
<text text-anchor="start" x="138" y="-224" font-family="Helvetica,sans-Serif" font-size="10.00">AC_AttitudeControl</text>
<text text-anchor="middle" x="191" y="-213" font-family="Helvetica,sans-Serif" font-size="10.00">::rate_bf_to_motor_pitch</text>
</a>
</g>
</g>
<!-- Node1&#45;&gt;Node12 -->
<g id="edge11" class="edge"><title>Node1&#45;&gt;Node12</title>
<path fill="none" stroke="midnightblue" d="M93.9032,-221C105.462,-221 117.847,-221 129.752,-221"/>
<polygon fill="midnightblue" stroke="midnightblue" points="93.5576,-217.5 83.5575,-221 93.5575,-224.5 93.5576,-217.5"/>
</g>
<!-- Node14 -->
<g id="node14" class="node"><title>Node14</title>
<g id="a_node14"><a xlink:href="$classAC__AttitudeControl.html#a83a7761cd990d39a8941e93aaf3fe295" xlink:title="AC_AttitudeControl\l::rate_bf_to_motor_roll">
<polygon fill="white" stroke="black" points="134,-157 134,-187 248,-187 248,-157 134,-157"/>
<text text-anchor="start" x="142" y="-175" font-family="Helvetica,sans-Serif" font-size="10.00">AC_AttitudeControl</text>
<text text-anchor="middle" x="191" y="-164" font-family="Helvetica,sans-Serif" font-size="10.00">::rate_bf_to_motor_roll</text>
</a>
</g>
</g>
<!-- Node1&#45;&gt;Node14 -->
<g id="edge13" class="edge"><title>Node1&#45;&gt;Node14</title>
<path fill="none" stroke="midnightblue" d="M81.428,-208.191C100.869,-201.71 124.586,-193.805 144.889,-187.037"/>
<polygon fill="midnightblue" stroke="midnightblue" points="80.0721,-204.953 71.692,-211.436 82.2857,-211.594 80.0721,-204.953"/>
</g>
<!-- Node15 -->
<g id="node15" class="node"><title>Node15</title>
<g id="a_node15"><a xlink:href="$classAC__AttitudeControl__Heli.html#a29ff02c0f413c83ac91a47f2adfab773" xlink:title="AC_AttitudeControl\l_Heli::rate_bf_to_motor\l_roll_pitch">
<polygon fill="white" stroke="black" points="131.5,-48.5 131.5,-89.5 250.5,-89.5 250.5,-48.5 131.5,-48.5"/>
<text text-anchor="start" x="139.5" y="-77.5" font-family="Helvetica,sans-Serif" font-size="10.00">AC_AttitudeControl</text>
<text text-anchor="start" x="139.5" y="-66.5" font-family="Helvetica,sans-Serif" font-size="10.00">_Heli::rate_bf_to_motor</text>
<text text-anchor="middle" x="191" y="-55.5" font-family="Helvetica,sans-Serif" font-size="10.00">_roll_pitch</text>
</a>
</g>
</g>
<!-- Node1&#45;&gt;Node15 -->
<g id="edge15" class="edge"><title>Node1&#45;&gt;Node15</title>
<path fill="none" stroke="midnightblue" d="M50.4908,-201.915C61.8222,-175.292 85.6993,-127.015 120,-98 123.616,-94.9416 127.598,-92.1699 131.774,-89.6647"/>
<polygon fill="midnightblue" stroke="midnightblue" points="47.2074,-200.698 46.6465,-211.278 53.6827,-203.357 47.2074,-200.698"/>
</g>
<!-- Node17 -->
<g id="node17" class="node"><title>Node17</title>
<g id="a_node17"><a xlink:href="$classAC__AttitudeControl__Heli.html#a42aebc8b52e6138b8473a49b4b7328b3" xlink:title="AC_AttitudeControl\l_Heli::rate_bf_to_motor_yaw">
<polygon fill="white" stroke="black" points="120,-0 120,-30 262,-30 262,-0 120,-0"/>
<text text-anchor="start" x="128" y="-18" font-family="Helvetica,sans-Serif" font-size="10.00">AC_AttitudeControl</text>
<text text-anchor="middle" x="191" y="-7" font-family="Helvetica,sans-Serif" font-size="10.00">_Heli::rate_bf_to_motor_yaw</text>
</a>
</g>
</g>
<!-- Node1&#45;&gt;Node17 -->
<g id="edge17" class="edge"><title>Node1&#45;&gt;Node17</title>
<path fill="none" stroke="midnightblue" d="M45.9848,-201.058C52.5729,-163.94 71.7894,-83.9512 120,-39 123.665,-35.5831 127.837,-32.6504 132.278,-30.1334"/>
<polygon fill="midnightblue" stroke="midnightblue" points="42.5002,-200.679 44.3275,-211.115 49.407,-201.817 42.5002,-200.679"/>
</g>
<!-- Node18 -->
<g id="node18" class="node"><title>Node18</title>
<g id="a_node18"><a xlink:href="$classAC__AttitudeControl.html#a76b777e788ccde85d2ec713f6a23028f" xlink:title="AC_AttitudeControl\l::rate_bf_to_motor_yaw">
<polygon fill="white" stroke="black" points="131.5,-108 131.5,-138 250.5,-138 250.5,-108 131.5,-108"/>
<text text-anchor="start" x="139.5" y="-126" font-family="Helvetica,sans-Serif" font-size="10.00">AC_AttitudeControl</text>
<text text-anchor="middle" x="191" y="-115" font-family="Helvetica,sans-Serif" font-size="10.00">::rate_bf_to_motor_yaw</text>
</a>
</g>
</g>
<!-- Node1&#45;&gt;Node18 -->
<g id="edge19" class="edge"><title>Node1&#45;&gt;Node18</title>
<path fill="none" stroke="midnightblue" d="M57.6701,-203.386C72.0731,-187.069 95.4068,-163.108 120,-148 126.157,-144.217 132.971,-140.893 139.858,-138.008"/>
<polygon fill="midnightblue" stroke="midnightblue" points="54.8694,-201.275 50.993,-211.135 60.1723,-205.844 54.8694,-201.275"/>
</g>
<!-- Node3 -->
<g id="node3" class="node"><title>Node3</title>
<g id="a_node3"><a xlink:href="$classAC__PosControl.html#a7f2e50bce46c82e024fb47a288b2ffb2" xlink:title="AC_PosControl::rate\l_to_accel_z">
<polygon fill="white" stroke="black" points="307.5,-370 307.5,-400 414.5,-400 414.5,-370 307.5,-370"/>
<text text-anchor="start" x="315.5" y="-388" font-family="Helvetica,sans-Serif" font-size="10.00">AC_PosControl::rate</text>
<text text-anchor="middle" x="361" y="-377" font-family="Helvetica,sans-Serif" font-size="10.00">_to_accel_z</text>
</a>
</g>
</g>
<!-- Node2&#45;&gt;Node3 -->
<g id="edge2" class="edge"><title>Node2&#45;&gt;Node3</title>
<path fill="none" stroke="midnightblue" d="M258.866,-385C275.013,-385 292.042,-385 307.427,-385"/>
<polygon fill="midnightblue" stroke="midnightblue" points="258.409,-381.5 248.409,-385 258.409,-388.5 258.409,-381.5"/>
</g>
<!-- Node4 -->
<g id="node4" class="node"><title>Node4</title>
<g id="a_node4"><a xlink:href="$classAC__PosControl.html#adaf1679fb65c1bef02180409dcd96cad" xlink:title="AC_PosControl::pos\l_to_rate_z">
<polygon fill="white" stroke="black" points="460.5,-370 460.5,-400 567.5,-400 567.5,-370 460.5,-370"/>
<text text-anchor="start" x="468.5" y="-388" font-family="Helvetica,sans-Serif" font-size="10.00">AC_PosControl::pos</text>
<text text-anchor="middle" x="514" y="-377" font-family="Helvetica,sans-Serif" font-size="10.00">_to_rate_z</text>
</a>
</g>
</g>
<!-- Node3&#45;&gt;Node4 -->
<g id="edge3" class="edge"><title>Node3&#45;&gt;Node4</title>
<path fill="none" stroke="midnightblue" d="M425.038,-385C436.83,-385 449.04,-385 460.472,-385"/>
<polygon fill="midnightblue" stroke="midnightblue" points="424.813,-381.5 414.812,-385 424.812,-388.5 424.813,-381.5"/>
</g>
<!-- Node5 -->
<g id="node5" class="node"><title>Node5</title>
<g id="a_node5"><a xlink:href="$classAC__PosControl.html#af9c555a3b07ea1420ea28e7333379941" xlink:title="update_z_controller &#45; fly to altitude in cm above home ">
<polygon fill="white" stroke="black" points="604,-370 604,-400 724,-400 724,-370 604,-370"/>
<text text-anchor="start" x="612" y="-388" font-family="Helvetica,sans-Serif" font-size="10.00">AC_PosControl::update</text>
<text text-anchor="middle" x="664" y="-377" font-family="Helvetica,sans-Serif" font-size="10.00">_z_controller</text>
</a>
</g>
</g>
<!-- Node4&#45;&gt;Node5 -->
<g id="edge4" class="edge"><title>Node4&#45;&gt;Node5</title>
<path fill="none" stroke="midnightblue" d="M577.637,-385C586.299,-385 595.173,-385 603.77,-385"/>
<polygon fill="midnightblue" stroke="midnightblue" points="577.596,-381.5 567.596,-385 577.596,-388.5 577.596,-381.5"/>
</g>
<!-- Node6 -->
<g id="node6" class="node"><title>Node6</title>
<g id="a_node6"><a xlink:href="$classAC__PosControl.html#ad89eec74ef77005f3f5c449da98ad12c" xlink:title="AC_PosControl::update\l_vel_controller_xyz">
<polygon fill="white" stroke="black" points="760,-370 760,-400 880,-400 880,-370 760,-370"/>
<text text-anchor="start" x="768" y="-388" font-family="Helvetica,sans-Serif" font-size="10.00">AC_PosControl::update</text>
<text text-anchor="middle" x="820" y="-377" font-family="Helvetica,sans-Serif" font-size="10.00">_vel_controller_xyz</text>
</a>
</g>
</g>
<!-- Node5&#45;&gt;Node6 -->
<g id="edge5" class="edge"><title>Node5&#45;&gt;Node6</title>
<path fill="none" stroke="midnightblue" d="M734.369,-385C742.862,-385 751.48,-385 759.804,-385"/>
<polygon fill="midnightblue" stroke="midnightblue" points="734.1,-381.5 724.1,-385 734.1,-388.5 734.1,-381.5"/>
</g>
<!-- Node10 -->
<g id="node10" class="node"><title>Node10</title>
<g id="a_node10"><a xlink:href="$HAL__PX4__Class_8cpp.html#a9bd6e6ad19a651d2c83ab3edb8d51924" xlink:title="main_loop">
<polygon fill="white" stroke="black" points="330.5,-255.5 330.5,-274.5 391.5,-274.5 391.5,-255.5 330.5,-255.5"/>
<text text-anchor="middle" x="361" y="-262.5" font-family="Helvetica,sans-Serif" font-size="10.00">main_loop</text>
</a>
</g>
</g>
<!-- Node9&#45;&gt;Node10 -->
<g id="edge9" class="edge"><title>Node9&#45;&gt;Node10</title>
<path fill="none" stroke="midnightblue" d="M219.03,-265C249.516,-265 298.937,-265 330.43,-265"/>
<polygon fill="midnightblue" stroke="midnightblue" points="218.723,-261.5 208.723,-265 218.723,-268.5 218.723,-261.5"/>
</g>
<!-- Node11 -->
<g id="node11" class="node"><title>Node11</title>
<g id="a_node11"><a xlink:href="$classHAL__PX4.html#aa30a8fe0c2c42ede8ced6fc21e1c748a" xlink:title="HAL_PX4::init">
<polygon fill="white" stroke="black" points="474.5,-255.5 474.5,-274.5 553.5,-274.5 553.5,-255.5 474.5,-255.5"/>
<text text-anchor="middle" x="514" y="-262.5" font-family="Helvetica,sans-Serif" font-size="10.00">HAL_PX4::init</text>
</a>
</g>
</g>
<!-- Node10&#45;&gt;Node11 -->
<g id="edge10" class="edge"><title>Node10&#45;&gt;Node11</title>
<path fill="none" stroke="midnightblue" d="M402.02,-265C424.406,-265 452.18,-265 474.342,-265"/>
<polygon fill="midnightblue" stroke="midnightblue" points="401.833,-261.5 391.833,-265 401.833,-268.5 401.833,-261.5"/>
</g>
<!-- Node13 -->
<g id="node13" class="node"><title>Node13</title>
<g id="a_node13"><a xlink:href="$classAC__AttitudeControl.html#a1c2565af20755e769d3bd9d1a9de826d" xlink:title="AC_AttitudeControl\l::rate_controller_run">
<polygon fill="white" stroke="black" points="309.5,-157 309.5,-187 412.5,-187 412.5,-157 309.5,-157"/>
<text text-anchor="start" x="317.5" y="-175" font-family="Helvetica,sans-Serif" font-size="10.00">AC_AttitudeControl</text>
<text text-anchor="middle" x="361" y="-164" font-family="Helvetica,sans-Serif" font-size="10.00">::rate_controller_run</text>
</a>
</g>
</g>
<!-- Node12&#45;&gt;Node13 -->
<g id="edge12" class="edge"><title>Node12&#45;&gt;Node13</title>
<path fill="none" stroke="midnightblue" d="M253.488,-203.066C271.82,-197.719 291.697,-191.922 309.26,-186.799"/>
<polygon fill="midnightblue" stroke="midnightblue" points="252.396,-199.738 243.776,-205.899 254.356,-206.458 252.396,-199.738"/>
</g>
<!-- Node14&#45;&gt;Node13 -->
<g id="edge14" class="edge"><title>Node14&#45;&gt;Node13</title>
<path fill="none" stroke="midnightblue" d="M258.76,-172C275.627,-172 293.463,-172 309.387,-172"/>
<polygon fill="midnightblue" stroke="midnightblue" points="258.409,-168.5 248.409,-172 258.409,-175.5 258.409,-168.5"/>
</g>
<!-- Node16 -->
<g id="node16" class="node"><title>Node16</title>
<g id="a_node16"><a xlink:href="$classAC__AttitudeControl__Heli.html#a38cb1684d4155d8f1f319d7385d3f2c6" xlink:title="AC_AttitudeControl\l_Heli::rate_controller_run">
<polygon fill="white" stroke="black" points="298.5,-27 298.5,-57 423.5,-57 423.5,-27 298.5,-27"/>
<text text-anchor="start" x="306.5" y="-45" font-family="Helvetica,sans-Serif" font-size="10.00">AC_AttitudeControl</text>
<text text-anchor="middle" x="361" y="-34" font-family="Helvetica,sans-Serif" font-size="10.00">_Heli::rate_controller_run</text>
</a>
</g>
</g>
<!-- Node15&#45;&gt;Node16 -->
<g id="edge16" class="edge"><title>Node15&#45;&gt;Node16</title>
<path fill="none" stroke="midnightblue" d="M260.663,-57.9648C273.167,-55.9553 286.14,-53.8703 298.423,-51.8963"/>
<polygon fill="midnightblue" stroke="midnightblue" points="260.076,-54.5142 250.758,-59.5567 261.187,-61.4255 260.076,-54.5142"/>
</g>
<!-- Node17&#45;&gt;Node16 -->
<g id="edge18" class="edge"><title>Node17&#45;&gt;Node16</title>
<path fill="none" stroke="midnightblue" d="M272.149,-27.881C280.934,-29.293 289.776,-30.714 298.289,-32.0822"/>
<polygon fill="midnightblue" stroke="midnightblue" points="272.702,-24.4252 262.274,-26.294 271.592,-31.3365 272.702,-24.4252"/>
</g>
<!-- Node18&#45;&gt;Node13 -->
<g id="edge20" class="edge"><title>Node18&#45;&gt;Node13</title>
<path fill="none" stroke="midnightblue" d="M253.488,-140.934C271.82,-146.281 291.697,-152.078 309.26,-157.201"/>
<polygon fill="midnightblue" stroke="midnightblue" points="254.356,-137.542 243.776,-138.101 252.396,-144.262 254.356,-137.542"/>
</g>
</g>
</svg>
