<?xml version="1.0" encoding="UTF-8" standalone="no"?>
<!DOCTYPE svg PUBLIC "-//W3C//DTD SVG 1.1//EN"
 "http://www.w3.org/Graphics/SVG/1.1/DTD/svg11.dtd">
<!-- Generated by graphviz version 2.36.0 (20140111.2315)
 -->
<!-- Title: fastdelegate::DelegateMemento::empty Pages: 1 -->
<svg width="386pt" height="60pt"
 viewBox="0.00 0.00 386.00 60.00" xmlns="http://www.w3.org/2000/svg" xmlns:xlink="http://www.w3.org/1999/xlink">
<g id="graph0" class="graph" transform="scale(1 1) rotate(0) translate(4 56)">
<title>fastdelegate::DelegateMemento::empty</title>
<polygon fill="white" stroke="none" points="-4,4 -4,-56 382,-56 382,4 -4,4"/>
<!-- Node1 -->
<g id="node1" class="node"><title>Node1</title>
<polygon fill="#bfbfbf" stroke="black" points="0.5,-11 0.5,-41 155.5,-41 155.5,-11 0.5,-11"/>
<text text-anchor="start" x="8.5" y="-29" font-family="Helvetica,sans-Serif" font-size="10.00">fastdelegate::DelegateMemento</text>
<text text-anchor="middle" x="78" y="-18" font-family="Helvetica,sans-Serif" font-size="10.00">::empty</text>
</g>
<!-- Node2 -->
<g id="node2" class="node"><title>Node2</title>
<g id="a_node2"><a xlink:href="$classfastdelegate_1_1detail_1_1ClosurePtr.html#a02688d9a3cc770adf1cb7ef9ed4a0e45" xlink:title="fastdelegate::detail\l::ClosurePtr\&lt; GenericMemFn,\l StaticFunctionPtr, UnvoidStatic\lFunctionPtr \&gt;::IsEqualToStaticFuncPtr">
<polygon fill="white" stroke="black" points="192,-0 192,-52 378,-52 378,-0 192,-0"/>
<text text-anchor="start" x="200" y="-40" font-family="Helvetica,sans-Serif" font-size="10.00">fastdelegate::detail</text>
<text text-anchor="start" x="200" y="-29" font-family="Helvetica,sans-Serif" font-size="10.00">::ClosurePtr&lt; GenericMemFn,</text>
<text text-anchor="start" x="200" y="-18" font-family="Helvetica,sans-Serif" font-size="10.00"> StaticFunctionPtr, UnvoidStatic</text>
<text text-anchor="middle" x="285" y="-7" font-family="Helvetica,sans-Serif" font-size="10.00">FunctionPtr &gt;::IsEqualToStaticFuncPtr</text>
</a>
</g>
</g>
<!-- Node1&#45;&gt;Node2 -->
<g id="edge1" class="edge"><title>Node1&#45;&gt;Node2</title>
<path fill="none" stroke="midnightblue" d="M165.707,-26C174.367,-26 183.182,-26 191.896,-26"/>
<polygon fill="midnightblue" stroke="midnightblue" points="165.626,-22.5001 155.626,-26 165.626,-29.5001 165.626,-22.5001"/>
</g>
</g>
</svg>
