<?xml version="1.0" encoding="UTF-8" standalone="no"?>
<!DOCTYPE svg PUBLIC "-//W3C//DTD SVG 1.1//EN"
 "http://www.w3.org/Graphics/SVG/1.1/DTD/svg11.dtd">
<!-- Generated by graphviz version 2.36.0 (20140111.2315)
 -->
<!-- Title: VRBRAIN::VRBRAINScheduler::_run_timers Pages: 1 -->
<svg width="554pt" height="87pt"
 viewBox="0.00 0.00 554.00 87.00" xmlns="http://www.w3.org/2000/svg" xmlns:xlink="http://www.w3.org/1999/xlink">
<g id="graph0" class="graph" transform="scale(1 1) rotate(0) translate(4 83)">
<title>VRBRAIN::VRBRAINScheduler::_run_timers</title>
<polygon fill="white" stroke="none" points="-4,4 -4,-83 550,-83 550,4 -4,4"/>
<!-- Node1 -->
<g id="node1" class="node"><title>Node1</title>
<polygon fill="#bfbfbf" stroke="black" points="0,-24 0,-54 158,-54 158,-24 0,-24"/>
<text text-anchor="start" x="8" y="-42" font-family="Helvetica,sans-Serif" font-size="10.00">VRBRAIN::VRBRAINScheduler</text>
<text text-anchor="middle" x="79" y="-31" font-family="Helvetica,sans-Serif" font-size="10.00">::_run_timers</text>
</g>
<!-- Node2 -->
<g id="node2" class="node"><title>Node2</title>
<g id="a_node2"><a xlink:href="$classVRBRAIN_1_1VRBRAINScheduler.html#a4b175d260d414b70bd02a334ad4db6f0" xlink:title="VRBRAIN::VRBRAINScheduler\l::_timer_thread">
<polygon fill="white" stroke="black" points="194,-49 194,-79 352,-79 352,-49 194,-49"/>
<text text-anchor="start" x="202" y="-67" font-family="Helvetica,sans-Serif" font-size="10.00">VRBRAIN::VRBRAINScheduler</text>
<text text-anchor="middle" x="273" y="-56" font-family="Helvetica,sans-Serif" font-size="10.00">::_timer_thread</text>
</a>
</g>
</g>
<!-- Node1&#45;&gt;Node2 -->
<g id="edge1" class="edge"><title>Node1&#45;&gt;Node2</title>
<path fill="none" stroke="midnightblue" d="M168.153,-50.4782C176.769,-51.6001 185.47,-52.733 193.975,-53.8406"/>
<polygon fill="midnightblue" stroke="midnightblue" points="168.462,-46.989 158.094,-49.1685 167.558,-53.9304 168.462,-46.989"/>
</g>
<!-- Node4 -->
<g id="node4" class="node"><title>Node4</title>
<g id="a_node4"><a xlink:href="$classVRBRAIN_1_1VRBRAINScheduler.html#a3e2a978be4486cf1f29d2ca8fe8f5ba7" xlink:title="VRBRAIN::VRBRAINScheduler\l::resume_timer_procs">
<polygon fill="white" stroke="black" points="194,-0 194,-30 352,-30 352,-0 194,-0"/>
<text text-anchor="start" x="202" y="-18" font-family="Helvetica,sans-Serif" font-size="10.00">VRBRAIN::VRBRAINScheduler</text>
<text text-anchor="middle" x="273" y="-7" font-family="Helvetica,sans-Serif" font-size="10.00">::resume_timer_procs</text>
</a>
</g>
</g>
<!-- Node1&#45;&gt;Node4 -->
<g id="edge3" class="edge"><title>Node1&#45;&gt;Node4</title>
<path fill="none" stroke="midnightblue" d="M168.153,-27.9809C176.769,-26.9039 185.47,-25.8163 193.975,-24.7531"/>
<polygon fill="midnightblue" stroke="midnightblue" points="167.582,-24.5249 158.094,-29.2383 168.451,-31.4708 167.582,-24.5249"/>
</g>
<!-- Node3 -->
<g id="node3" class="node"><title>Node3</title>
<g id="a_node3"><a xlink:href="$classVRBRAIN_1_1VRBRAINScheduler.html#a588119520d7b68e248e103d32fdf6b2f" xlink:title="VRBRAIN::VRBRAINScheduler\l::init">
<polygon fill="white" stroke="black" points="388,-49 388,-79 546,-79 546,-49 388,-49"/>
<text text-anchor="start" x="396" y="-67" font-family="Helvetica,sans-Serif" font-size="10.00">VRBRAIN::VRBRAINScheduler</text>
<text text-anchor="middle" x="467" y="-56" font-family="Helvetica,sans-Serif" font-size="10.00">::init</text>
</a>
</g>
</g>
<!-- Node2&#45;&gt;Node3 -->
<g id="edge2" class="edge"><title>Node2&#45;&gt;Node3</title>
<path fill="none" stroke="midnightblue" d="M362.153,-64C370.769,-64 379.47,-64 387.975,-64"/>
<polygon fill="midnightblue" stroke="midnightblue" points="362.094,-60.5001 352.094,-64 362.094,-67.5001 362.094,-60.5001"/>
</g>
</g>
</svg>
