<?xml version="1.0" encoding="UTF-8" standalone="no"?>
<!DOCTYPE svg PUBLIC "-//W3C//DTD SVG 1.1//EN"
 "http://www.w3.org/Graphics/SVG/1.1/DTD/svg11.dtd">
<!-- Generated by graphviz version 2.36.0 (20140111.2315)
 -->
<!-- Title: fastdelegate::detail::ClosurePtr::CopyFrom Pages: 1 -->
<svg width="306pt" height="1312pt"
 viewBox="0.00 0.00 306.00 1312.00" xmlns="http://www.w3.org/2000/svg" xmlns:xlink="http://www.w3.org/1999/xlink">
<g id="graph0" class="graph" transform="scale(1 1) rotate(0) translate(4 1308)">
<title>fastdelegate::detail::ClosurePtr::CopyFrom</title>
<polygon fill="white" stroke="none" points="-4,4 -4,-1308 302,-1308 302,4 -4,4"/>
<!-- Node1 -->
<g id="node1" class="node"><title>Node1</title>
<polygon fill="#bfbfbf" stroke="black" points="0.5,-637 0.5,-667 121.5,-667 121.5,-637 0.5,-637"/>
<text text-anchor="start" x="8.5" y="-655" font-family="Helvetica,sans-Serif" font-size="10.00">fastdelegate::detail</text>
<text text-anchor="middle" x="61" y="-644" font-family="Helvetica,sans-Serif" font-size="10.00">::ClosurePtr::CopyFrom</text>
</g>
<!-- Node2 -->
<g id="node2" class="node"><title>Node2</title>
<g id="a_node2"><a xlink:href="$classfastdelegate_1_1FastDelegate0.html#a22ccf2034d7d2e701ad07f008e12feb3" xlink:title="fastdelegate::FastDelegate0\l::FastDelegate0">
<polygon fill="white" stroke="black" points="158,-1274 158,-1304 298,-1304 298,-1274 158,-1274"/>
<text text-anchor="start" x="166" y="-1292" font-family="Helvetica,sans-Serif" font-size="10.00">fastdelegate::FastDelegate0</text>
<text text-anchor="middle" x="228" y="-1281" font-family="Helvetica,sans-Serif" font-size="10.00">::FastDelegate0</text>
</a>
</g>
</g>
<!-- Node1&#45;&gt;Node2 -->
<g id="edge1" class="edge"><title>Node1&#45;&gt;Node2</title>
<path fill="none" stroke="midnightblue" d="M62.6356,-677.438C65.7213,-781.307 82.2608,-1172.12 158,-1264 161.161,-1267.83 164.96,-1271.08 169.129,-1273.83"/>
<polygon fill="midnightblue" stroke="midnightblue" points="66.129,-677.152 62.3496,-667.255 59.1318,-677.349 66.129,-677.152"/>
</g>
<!-- Node3 -->
<g id="node3" class="node"><title>Node3</title>
<g id="a_node3"><a xlink:href="$classfastdelegate_1_1FastDelegate1.html#a1f504d48dfdfd2c13472222454f414fb" xlink:title="fastdelegate::FastDelegate1\l::FastDelegate1">
<polygon fill="white" stroke="black" points="158,-1225 158,-1255 298,-1255 298,-1225 158,-1225"/>
<text text-anchor="start" x="166" y="-1243" font-family="Helvetica,sans-Serif" font-size="10.00">fastdelegate::FastDelegate1</text>
<text text-anchor="middle" x="228" y="-1232" font-family="Helvetica,sans-Serif" font-size="10.00">::FastDelegate1</text>
</a>
</g>
</g>
<!-- Node1&#45;&gt;Node3 -->
<g id="edge2" class="edge"><title>Node1&#45;&gt;Node3</title>
<path fill="none" stroke="midnightblue" d="M63.0113,-677.276C67.4289,-775.604 88.06,-1131.29 158,-1215 161.268,-1218.91 165.199,-1222.21 169.506,-1224.99"/>
<polygon fill="midnightblue" stroke="midnightblue" points="66.4994,-676.924 62.5708,-667.085 59.5059,-677.227 66.4994,-676.924"/>
</g>
<!-- Node4 -->
<g id="node4" class="node"><title>Node4</title>
<g id="a_node4"><a xlink:href="$classfastdelegate_1_1FastDelegate2.html#a17d4008ed34545f3f47e273775a4cec4" xlink:title="fastdelegate::FastDelegate2\l::FastDelegate2">
<polygon fill="white" stroke="black" points="158,-1176 158,-1206 298,-1206 298,-1176 158,-1176"/>
<text text-anchor="start" x="166" y="-1194" font-family="Helvetica,sans-Serif" font-size="10.00">fastdelegate::FastDelegate2</text>
<text text-anchor="middle" x="228" y="-1183" font-family="Helvetica,sans-Serif" font-size="10.00">::FastDelegate2</text>
</a>
</g>
</g>
<!-- Node1&#45;&gt;Node4 -->
<g id="edge3" class="edge"><title>Node1&#45;&gt;Node4</title>
<path fill="none" stroke="midnightblue" d="M63.4545,-677.151C69.2886,-769.78 93.8496,-1090.44 158,-1166 161.298,-1169.89 165.251,-1173.17 169.572,-1175.94"/>
<polygon fill="midnightblue" stroke="midnightblue" points="66.9387,-676.785 62.8345,-667.017 59.9518,-677.212 66.9387,-676.785"/>
</g>
<!-- Node5 -->
<g id="node5" class="node"><title>Node5</title>
<g id="a_node5"><a xlink:href="$classfastdelegate_1_1FastDelegate3.html#a32fd3fdae3048cae182c9d958820cc9d" xlink:title="fastdelegate::FastDelegate3\l::FastDelegate3">
<polygon fill="white" stroke="black" points="158,-1127 158,-1157 298,-1157 298,-1127 158,-1127"/>
<text text-anchor="start" x="166" y="-1145" font-family="Helvetica,sans-Serif" font-size="10.00">fastdelegate::FastDelegate3</text>
<text text-anchor="middle" x="228" y="-1134" font-family="Helvetica,sans-Serif" font-size="10.00">::FastDelegate3</text>
</a>
</g>
</g>
<!-- Node1&#45;&gt;Node5 -->
<g id="edge4" class="edge"><title>Node1&#45;&gt;Node5</title>
<path fill="none" stroke="midnightblue" d="M64.006,-677.276C71.3847,-764.261 99.6735,-1049.6 158,-1117 161.335,-1120.85 165.313,-1124.11 169.65,-1126.87"/>
<polygon fill="midnightblue" stroke="midnightblue" points="67.488,-676.912 63.1733,-667.236 60.512,-677.491 67.488,-676.912"/>
</g>
<!-- Node6 -->
<g id="node6" class="node"><title>Node6</title>
<g id="a_node6"><a xlink:href="$classfastdelegate_1_1FastDelegate4.html#ac2e46862418fe78b03625cbd2b0c4564" xlink:title="fastdelegate::FastDelegate4\l::FastDelegate4">
<polygon fill="white" stroke="black" points="158,-1078 158,-1108 298,-1108 298,-1078 158,-1078"/>
<text text-anchor="start" x="166" y="-1096" font-family="Helvetica,sans-Serif" font-size="10.00">fastdelegate::FastDelegate4</text>
<text text-anchor="middle" x="228" y="-1085" font-family="Helvetica,sans-Serif" font-size="10.00">::FastDelegate4</text>
</a>
</g>
</g>
<!-- Node1&#45;&gt;Node6 -->
<g id="edge5" class="edge"><title>Node1&#45;&gt;Node6</title>
<path fill="none" stroke="midnightblue" d="M64.7259,-677.738C73.8196,-759.089 105.541,-1008.79 158,-1068 161.464,-1071.91 165.589,-1075.21 170.073,-1077.99"/>
<polygon fill="midnightblue" stroke="midnightblue" points="68.163,-676.973 63.5931,-667.414 61.2047,-677.736 68.163,-676.973"/>
</g>
<!-- Node7 -->
<g id="node7" class="node"><title>Node7</title>
<g id="a_node7"><a xlink:href="$classfastdelegate_1_1FastDelegate5.html#a0e904da2a812c94d3049d0c378818096" xlink:title="fastdelegate::FastDelegate5\l::FastDelegate5">
<polygon fill="white" stroke="black" points="158,-1029 158,-1059 298,-1059 298,-1029 158,-1029"/>
<text text-anchor="start" x="166" y="-1047" font-family="Helvetica,sans-Serif" font-size="10.00">fastdelegate::FastDelegate5</text>
<text text-anchor="middle" x="228" y="-1036" font-family="Helvetica,sans-Serif" font-size="10.00">::FastDelegate5</text>
</a>
</g>
</g>
<!-- Node1&#45;&gt;Node7 -->
<g id="edge6" class="edge"><title>Node1&#45;&gt;Node7</title>
<path fill="none" stroke="midnightblue" d="M61.0867,-677.436C60.1472,-742.882 66.7429,-918.96 158,-1019 161.521,-1022.86 165.683,-1026.12 170.192,-1028.88"/>
<polygon fill="midnightblue" stroke="midnightblue" points="64.5905,-677.299 61.3105,-667.224 57.5922,-677.145 64.5905,-677.299"/>
</g>
<!-- Node8 -->
<g id="node8" class="node"><title>Node8</title>
<g id="a_node8"><a xlink:href="$classfastdelegate_1_1FastDelegate6.html#a7b2f124f5f18335a2839c3dde1758726" xlink:title="fastdelegate::FastDelegate6\l::FastDelegate6">
<polygon fill="white" stroke="black" points="158,-980 158,-1010 298,-1010 298,-980 158,-980"/>
<text text-anchor="start" x="166" y="-998" font-family="Helvetica,sans-Serif" font-size="10.00">fastdelegate::FastDelegate6</text>
<text text-anchor="middle" x="228" y="-987" font-family="Helvetica,sans-Serif" font-size="10.00">::FastDelegate6</text>
</a>
</g>
</g>
<!-- Node1&#45;&gt;Node8 -->
<g id="edge7" class="edge"><title>Node1&#45;&gt;Node8</title>
<path fill="none" stroke="midnightblue" d="M62.3358,-677.618C64.5014,-737.043 78.0926,-885.621 158,-970 161.68,-973.885 166.009,-977.169 170.676,-979.943"/>
<polygon fill="midnightblue" stroke="midnightblue" points="65.8249,-677.178 62.0448,-667.28 58.8277,-677.375 65.8249,-677.178"/>
</g>
<!-- Node9 -->
<g id="node9" class="node"><title>Node9</title>
<g id="a_node9"><a xlink:href="$classfastdelegate_1_1FastDelegate7.html#abac552fef0bc80a5387b65e1649a792e" xlink:title="fastdelegate::FastDelegate7\l::FastDelegate7">
<polygon fill="white" stroke="black" points="158,-931 158,-961 298,-961 298,-931 158,-931"/>
<text text-anchor="start" x="166" y="-949" font-family="Helvetica,sans-Serif" font-size="10.00">fastdelegate::FastDelegate7</text>
<text text-anchor="middle" x="228" y="-938" font-family="Helvetica,sans-Serif" font-size="10.00">::FastDelegate7</text>
</a>
</g>
</g>
<!-- Node1&#45;&gt;Node9 -->
<g id="edge8" class="edge"><title>Node1&#45;&gt;Node9</title>
<path fill="none" stroke="midnightblue" d="M63.9678,-677.255C69.3914,-729.803 89.097,-851.764 158,-921 161.865,-924.883 166.378,-928.167 171.213,-930.944"/>
<polygon fill="midnightblue" stroke="midnightblue" points="67.4374,-676.766 63.0147,-667.139 60.4682,-677.423 67.4374,-676.766"/>
</g>
<!-- Node10 -->
<g id="node10" class="node"><title>Node10</title>
<g id="a_node10"><a xlink:href="$classfastdelegate_1_1FastDelegate8.html#a7b9a6f3e337a0e00fe5d0dda26527c28" xlink:title="fastdelegate::FastDelegate8\l::FastDelegate8">
<polygon fill="white" stroke="black" points="158,-882 158,-912 298,-912 298,-882 158,-882"/>
<text text-anchor="start" x="166" y="-900" font-family="Helvetica,sans-Serif" font-size="10.00">fastdelegate::FastDelegate8</text>
<text text-anchor="middle" x="228" y="-889" font-family="Helvetica,sans-Serif" font-size="10.00">::FastDelegate8</text>
</a>
</g>
</g>
<!-- Node1&#45;&gt;Node10 -->
<g id="edge9" class="edge"><title>Node1&#45;&gt;Node10</title>
<path fill="none" stroke="midnightblue" d="M66.2374,-677.02C75.1581,-722.171 100.038,-817.626 158,-872 162.089,-875.836 166.81,-879.091 171.826,-881.853"/>
<polygon fill="midnightblue" stroke="midnightblue" points="69.6749,-676.36 64.3909,-667.177 62.7949,-677.651 69.6749,-676.36"/>
</g>
<!-- Node11 -->
<g id="node11" class="node"><title>Node11</title>
<g id="a_node11"><a xlink:href="$classfastdelegate_1_1FastDelegate0.html#ac0b5ece7882748dffb69a38a16330c43" xlink:title="fastdelegate::FastDelegate0\l::operator=">
<polygon fill="white" stroke="black" points="158,-833 158,-863 298,-863 298,-833 158,-833"/>
<text text-anchor="start" x="166" y="-851" font-family="Helvetica,sans-Serif" font-size="10.00">fastdelegate::FastDelegate0</text>
<text text-anchor="middle" x="228" y="-840" font-family="Helvetica,sans-Serif" font-size="10.00">::operator=</text>
</a>
</g>
</g>
<!-- Node1&#45;&gt;Node11 -->
<g id="edge10" class="edge"><title>Node1&#45;&gt;Node11</title>
<path fill="none" stroke="midnightblue" d="M69.7648,-677.094C82.4355,-714.071 110.973,-783.113 158,-823 162.567,-826.873 167.783,-830.167 173.255,-832.964"/>
<polygon fill="midnightblue" stroke="midnightblue" points="72.936,-675.535 66.4738,-667.139 66.2898,-677.733 72.936,-675.535"/>
</g>
<!-- Node12 -->
<g id="node12" class="node"><title>Node12</title>
<g id="a_node12"><a xlink:href="$classfastdelegate_1_1FastDelegate1.html#af7a9b2fe3193eaf35d3945ae4d312986" xlink:title="fastdelegate::FastDelegate1\l::operator=">
<polygon fill="white" stroke="black" points="158,-784 158,-814 298,-814 298,-784 158,-784"/>
<text text-anchor="start" x="166" y="-802" font-family="Helvetica,sans-Serif" font-size="10.00">fastdelegate::FastDelegate1</text>
<text text-anchor="middle" x="228" y="-791" font-family="Helvetica,sans-Serif" font-size="10.00">::operator=</text>
</a>
</g>
</g>
<!-- Node1&#45;&gt;Node12 -->
<g id="edge11" class="edge"><title>Node1&#45;&gt;Node12</title>
<path fill="none" stroke="midnightblue" d="M75.4335,-676.288C91.6843,-703.604 121.461,-747.59 158,-774 163.266,-777.806 169.173,-781.089 175.256,-783.904"/>
<polygon fill="midnightblue" stroke="midnightblue" points="78.3081,-674.268 70.2606,-667.377 72.2543,-677.782 78.3081,-674.268"/>
</g>
<!-- Node13 -->
<g id="node13" class="node"><title>Node13</title>
<g id="a_node13"><a xlink:href="$classfastdelegate_1_1FastDelegate2.html#ae83c24724d183d41eaa5432274e1c87a" xlink:title="fastdelegate::FastDelegate2\l::operator=">
<polygon fill="white" stroke="black" points="158,-735 158,-765 298,-765 298,-735 158,-735"/>
<text text-anchor="start" x="166" y="-753" font-family="Helvetica,sans-Serif" font-size="10.00">fastdelegate::FastDelegate2</text>
<text text-anchor="middle" x="228" y="-742" font-family="Helvetica,sans-Serif" font-size="10.00">::operator=</text>
</a>
</g>
</g>
<!-- Node1&#45;&gt;Node13 -->
<g id="edge12" class="edge"><title>Node1&#45;&gt;Node13</title>
<path fill="none" stroke="midnightblue" d="M86.2878,-673.787C104.887,-689.617 131.734,-710.689 158,-725 164.713,-728.657 172.07,-731.974 179.399,-734.908"/>
<polygon fill="midnightblue" stroke="midnightblue" points="88.4552,-671.034 78.601,-667.142 83.8775,-676.33 88.4552,-671.034"/>
</g>
<!-- Node14 -->
<g id="node14" class="node"><title>Node14</title>
<g id="a_node14"><a xlink:href="$classfastdelegate_1_1FastDelegate3.html#aac032abbe080ed58fe5df78b28a46569" xlink:title="fastdelegate::FastDelegate3\l::operator=">
<polygon fill="white" stroke="black" points="158,-686 158,-716 298,-716 298,-686 158,-686"/>
<text text-anchor="start" x="166" y="-704" font-family="Helvetica,sans-Serif" font-size="10.00">fastdelegate::FastDelegate3</text>
<text text-anchor="middle" x="228" y="-693" font-family="Helvetica,sans-Serif" font-size="10.00">::operator=</text>
</a>
</g>
</g>
<!-- Node1&#45;&gt;Node14 -->
<g id="edge13" class="edge"><title>Node1&#45;&gt;Node14</title>
<path fill="none" stroke="midnightblue" d="M122.501,-669.967C140.18,-675.217 159.313,-680.899 176.316,-685.948"/>
<polygon fill="midnightblue" stroke="midnightblue" points="123.434,-666.593 112.852,-667.101 121.442,-673.304 123.434,-666.593"/>
</g>
<!-- Node15 -->
<g id="node15" class="node"><title>Node15</title>
<g id="a_node15"><a xlink:href="$classfastdelegate_1_1FastDelegate4.html#a5a22bf7fb83d307c67b496881df6ef60" xlink:title="fastdelegate::FastDelegate4\l::operator=">
<polygon fill="white" stroke="black" points="158,-637 158,-667 298,-667 298,-637 158,-637"/>
<text text-anchor="start" x="166" y="-655" font-family="Helvetica,sans-Serif" font-size="10.00">fastdelegate::FastDelegate4</text>
<text text-anchor="middle" x="228" y="-644" font-family="Helvetica,sans-Serif" font-size="10.00">::operator=</text>
</a>
</g>
</g>
<!-- Node1&#45;&gt;Node15 -->
<g id="edge14" class="edge"><title>Node1&#45;&gt;Node15</title>
<path fill="none" stroke="midnightblue" d="M131.676,-652C140.383,-652 149.285,-652 157.981,-652"/>
<polygon fill="midnightblue" stroke="midnightblue" points="131.569,-648.5 121.569,-652 131.569,-655.5 131.569,-648.5"/>
</g>
<!-- Node16 -->
<g id="node16" class="node"><title>Node16</title>
<g id="a_node16"><a xlink:href="$classfastdelegate_1_1FastDelegate5.html#a24ef321855aac3b3cb9a8796dda4b0db" xlink:title="fastdelegate::FastDelegate5\l::operator=">
<polygon fill="white" stroke="black" points="158,-588 158,-618 298,-618 298,-588 158,-588"/>
<text text-anchor="start" x="166" y="-606" font-family="Helvetica,sans-Serif" font-size="10.00">fastdelegate::FastDelegate5</text>
<text text-anchor="middle" x="228" y="-595" font-family="Helvetica,sans-Serif" font-size="10.00">::operator=</text>
</a>
</g>
</g>
<!-- Node1&#45;&gt;Node16 -->
<g id="edge15" class="edge"><title>Node1&#45;&gt;Node16</title>
<path fill="none" stroke="midnightblue" d="M122.501,-634.033C140.18,-628.783 159.313,-623.101 176.316,-618.052"/>
<polygon fill="midnightblue" stroke="midnightblue" points="121.442,-630.696 112.852,-636.899 123.434,-637.407 121.442,-630.696"/>
</g>
<!-- Node17 -->
<g id="node17" class="node"><title>Node17</title>
<g id="a_node17"><a xlink:href="$classfastdelegate_1_1FastDelegate6.html#ae90318301040d75051b4ff3679311992" xlink:title="fastdelegate::FastDelegate6\l::operator=">
<polygon fill="white" stroke="black" points="158,-539 158,-569 298,-569 298,-539 158,-539"/>
<text text-anchor="start" x="166" y="-557" font-family="Helvetica,sans-Serif" font-size="10.00">fastdelegate::FastDelegate6</text>
<text text-anchor="middle" x="228" y="-546" font-family="Helvetica,sans-Serif" font-size="10.00">::operator=</text>
</a>
</g>
</g>
<!-- Node1&#45;&gt;Node17 -->
<g id="edge16" class="edge"><title>Node1&#45;&gt;Node17</title>
<path fill="none" stroke="midnightblue" d="M86.2878,-630.213C104.887,-614.383 131.734,-593.311 158,-579 164.713,-575.343 172.07,-572.026 179.399,-569.092"/>
<polygon fill="midnightblue" stroke="midnightblue" points="83.8775,-627.67 78.601,-636.858 88.4552,-632.966 83.8775,-627.67"/>
</g>
<!-- Node18 -->
<g id="node18" class="node"><title>Node18</title>
<g id="a_node18"><a xlink:href="$classfastdelegate_1_1FastDelegate7.html#a8c8b908e14da141bb43384323a3fbdd2" xlink:title="fastdelegate::FastDelegate7\l::operator=">
<polygon fill="white" stroke="black" points="158,-490 158,-520 298,-520 298,-490 158,-490"/>
<text text-anchor="start" x="166" y="-508" font-family="Helvetica,sans-Serif" font-size="10.00">fastdelegate::FastDelegate7</text>
<text text-anchor="middle" x="228" y="-497" font-family="Helvetica,sans-Serif" font-size="10.00">::operator=</text>
</a>
</g>
</g>
<!-- Node1&#45;&gt;Node18 -->
<g id="edge17" class="edge"><title>Node1&#45;&gt;Node18</title>
<path fill="none" stroke="midnightblue" d="M75.4335,-627.712C91.6843,-600.396 121.461,-556.41 158,-530 163.266,-526.194 169.173,-522.911 175.256,-520.096"/>
<polygon fill="midnightblue" stroke="midnightblue" points="72.2543,-626.218 70.2606,-636.623 78.3081,-629.732 72.2543,-626.218"/>
</g>
<!-- Node19 -->
<g id="node19" class="node"><title>Node19</title>
<g id="a_node19"><a xlink:href="$classfastdelegate_1_1FastDelegate8.html#add76949748e418f6199e2b26cb992207" xlink:title="fastdelegate::FastDelegate8\l::operator=">
<polygon fill="white" stroke="black" points="158,-441 158,-471 298,-471 298,-441 158,-441"/>
<text text-anchor="start" x="166" y="-459" font-family="Helvetica,sans-Serif" font-size="10.00">fastdelegate::FastDelegate8</text>
<text text-anchor="middle" x="228" y="-448" font-family="Helvetica,sans-Serif" font-size="10.00">::operator=</text>
</a>
</g>
</g>
<!-- Node1&#45;&gt;Node19 -->
<g id="edge18" class="edge"><title>Node1&#45;&gt;Node19</title>
<path fill="none" stroke="midnightblue" d="M69.7648,-626.906C82.4355,-589.929 110.973,-520.887 158,-481 162.567,-477.127 167.783,-473.833 173.255,-471.036"/>
<polygon fill="midnightblue" stroke="midnightblue" points="66.2898,-626.267 66.4738,-636.861 72.936,-628.465 66.2898,-626.267"/>
</g>
<!-- Node20 -->
<g id="node20" class="node"><title>Node20</title>
<g id="a_node20"><a xlink:href="$classfastdelegate_1_1FastDelegate0.html#a27f89b9961f7785b79be17c927e8a4d7" xlink:title="fastdelegate::FastDelegate0\l::SetMemento">
<polygon fill="white" stroke="black" points="158,-392 158,-422 298,-422 298,-392 158,-392"/>
<text text-anchor="start" x="166" y="-410" font-family="Helvetica,sans-Serif" font-size="10.00">fastdelegate::FastDelegate0</text>
<text text-anchor="middle" x="228" y="-399" font-family="Helvetica,sans-Serif" font-size="10.00">::SetMemento</text>
</a>
</g>
</g>
<!-- Node1&#45;&gt;Node20 -->
<g id="edge19" class="edge"><title>Node1&#45;&gt;Node20</title>
<path fill="none" stroke="midnightblue" d="M66.2374,-626.98C75.1581,-581.829 100.038,-486.374 158,-432 162.089,-428.164 166.81,-424.909 171.826,-422.147"/>
<polygon fill="midnightblue" stroke="midnightblue" points="62.7949,-626.349 64.3909,-636.823 69.6749,-627.64 62.7949,-626.349"/>
</g>
<!-- Node21 -->
<g id="node21" class="node"><title>Node21</title>
<g id="a_node21"><a xlink:href="$classfastdelegate_1_1FastDelegate1.html#a7a6bac4a020935aa215d1aea56e90865" xlink:title="fastdelegate::FastDelegate1\l::SetMemento">
<polygon fill="white" stroke="black" points="158,-343 158,-373 298,-373 298,-343 158,-343"/>
<text text-anchor="start" x="166" y="-361" font-family="Helvetica,sans-Serif" font-size="10.00">fastdelegate::FastDelegate1</text>
<text text-anchor="middle" x="228" y="-350" font-family="Helvetica,sans-Serif" font-size="10.00">::SetMemento</text>
</a>
</g>
</g>
<!-- Node1&#45;&gt;Node21 -->
<g id="edge20" class="edge"><title>Node1&#45;&gt;Node21</title>
<path fill="none" stroke="midnightblue" d="M63.9678,-626.745C69.3914,-574.197 89.097,-452.236 158,-383 161.865,-379.117 166.378,-375.833 171.213,-373.056"/>
<polygon fill="midnightblue" stroke="midnightblue" points="60.4682,-626.577 63.0147,-636.861 67.4374,-627.234 60.4682,-626.577"/>
</g>
<!-- Node22 -->
<g id="node22" class="node"><title>Node22</title>
<g id="a_node22"><a xlink:href="$classfastdelegate_1_1FastDelegate2.html#a787d48a85c60f4a77a9e082dae512c62" xlink:title="fastdelegate::FastDelegate2\l::SetMemento">
<polygon fill="white" stroke="black" points="158,-294 158,-324 298,-324 298,-294 158,-294"/>
<text text-anchor="start" x="166" y="-312" font-family="Helvetica,sans-Serif" font-size="10.00">fastdelegate::FastDelegate2</text>
<text text-anchor="middle" x="228" y="-301" font-family="Helvetica,sans-Serif" font-size="10.00">::SetMemento</text>
</a>
</g>
</g>
<!-- Node1&#45;&gt;Node22 -->
<g id="edge21" class="edge"><title>Node1&#45;&gt;Node22</title>
<path fill="none" stroke="midnightblue" d="M62.3358,-626.382C64.5014,-566.957 78.0926,-418.379 158,-334 161.68,-330.115 166.009,-326.831 170.676,-324.057"/>
<polygon fill="midnightblue" stroke="midnightblue" points="58.8277,-626.625 62.0448,-636.72 65.8249,-626.822 58.8277,-626.625"/>
</g>
<!-- Node23 -->
<g id="node23" class="node"><title>Node23</title>
<g id="a_node23"><a xlink:href="$classfastdelegate_1_1FastDelegate3.html#a020063fdd1e8e5f8ffb8c2269cac96f5" xlink:title="fastdelegate::FastDelegate3\l::SetMemento">
<polygon fill="white" stroke="black" points="158,-245 158,-275 298,-275 298,-245 158,-245"/>
<text text-anchor="start" x="166" y="-263" font-family="Helvetica,sans-Serif" font-size="10.00">fastdelegate::FastDelegate3</text>
<text text-anchor="middle" x="228" y="-252" font-family="Helvetica,sans-Serif" font-size="10.00">::SetMemento</text>
</a>
</g>
</g>
<!-- Node1&#45;&gt;Node23 -->
<g id="edge22" class="edge"><title>Node1&#45;&gt;Node23</title>
<path fill="none" stroke="midnightblue" d="M61.0867,-626.564C60.1472,-561.118 66.7429,-385.04 158,-285 161.521,-281.141 165.683,-277.876 170.192,-275.115"/>
<polygon fill="midnightblue" stroke="midnightblue" points="57.5922,-626.855 61.3105,-636.776 64.5905,-626.701 57.5922,-626.855"/>
</g>
<!-- Node24 -->
<g id="node24" class="node"><title>Node24</title>
<g id="a_node24"><a xlink:href="$classfastdelegate_1_1FastDelegate4.html#a43b176347475a4199aec2d18177f7fb2" xlink:title="fastdelegate::FastDelegate4\l::SetMemento">
<polygon fill="white" stroke="black" points="158,-196 158,-226 298,-226 298,-196 158,-196"/>
<text text-anchor="start" x="166" y="-214" font-family="Helvetica,sans-Serif" font-size="10.00">fastdelegate::FastDelegate4</text>
<text text-anchor="middle" x="228" y="-203" font-family="Helvetica,sans-Serif" font-size="10.00">::SetMemento</text>
</a>
</g>
</g>
<!-- Node1&#45;&gt;Node24 -->
<g id="edge23" class="edge"><title>Node1&#45;&gt;Node24</title>
<path fill="none" stroke="midnightblue" d="M64.7259,-626.262C73.8196,-544.911 105.541,-295.213 158,-236 161.464,-232.09 165.589,-228.791 170.073,-226.008"/>
<polygon fill="midnightblue" stroke="midnightblue" points="61.2047,-626.264 63.5931,-636.586 68.163,-627.027 61.2047,-626.264"/>
</g>
<!-- Node25 -->
<g id="node25" class="node"><title>Node25</title>
<g id="a_node25"><a xlink:href="$classfastdelegate_1_1FastDelegate5.html#a83b4830a32d09df2448e746448b3ddfb" xlink:title="fastdelegate::FastDelegate5\l::SetMemento">
<polygon fill="white" stroke="black" points="158,-147 158,-177 298,-177 298,-147 158,-147"/>
<text text-anchor="start" x="166" y="-165" font-family="Helvetica,sans-Serif" font-size="10.00">fastdelegate::FastDelegate5</text>
<text text-anchor="middle" x="228" y="-154" font-family="Helvetica,sans-Serif" font-size="10.00">::SetMemento</text>
</a>
</g>
</g>
<!-- Node1&#45;&gt;Node25 -->
<g id="edge24" class="edge"><title>Node1&#45;&gt;Node25</title>
<path fill="none" stroke="midnightblue" d="M64.006,-626.724C71.3847,-539.739 99.6735,-254.395 158,-187 161.335,-183.146 165.313,-179.887 169.65,-177.129"/>
<polygon fill="midnightblue" stroke="midnightblue" points="60.512,-626.509 63.1733,-636.764 67.488,-627.088 60.512,-626.509"/>
</g>
<!-- Node26 -->
<g id="node26" class="node"><title>Node26</title>
<g id="a_node26"><a xlink:href="$classfastdelegate_1_1FastDelegate6.html#a0b499ffd85bcb32e48f19fab1d527459" xlink:title="fastdelegate::FastDelegate6\l::SetMemento">
<polygon fill="white" stroke="black" points="158,-98 158,-128 298,-128 298,-98 158,-98"/>
<text text-anchor="start" x="166" y="-116" font-family="Helvetica,sans-Serif" font-size="10.00">fastdelegate::FastDelegate6</text>
<text text-anchor="middle" x="228" y="-105" font-family="Helvetica,sans-Serif" font-size="10.00">::SetMemento</text>
</a>
</g>
</g>
<!-- Node1&#45;&gt;Node26 -->
<g id="edge25" class="edge"><title>Node1&#45;&gt;Node26</title>
<path fill="none" stroke="midnightblue" d="M63.4545,-626.849C69.2886,-534.22 93.8496,-213.559 158,-138 161.298,-134.115 165.251,-130.834 169.572,-128.062"/>
<polygon fill="midnightblue" stroke="midnightblue" points="59.9518,-626.788 62.8345,-636.983 66.9387,-627.215 59.9518,-626.788"/>
</g>
<!-- Node27 -->
<g id="node27" class="node"><title>Node27</title>
<g id="a_node27"><a xlink:href="$classfastdelegate_1_1FastDelegate7.html#aa24a858f8647bad93692fc9d3a92526e" xlink:title="fastdelegate::FastDelegate7\l::SetMemento">
<polygon fill="white" stroke="black" points="158,-49 158,-79 298,-79 298,-49 158,-49"/>
<text text-anchor="start" x="166" y="-67" font-family="Helvetica,sans-Serif" font-size="10.00">fastdelegate::FastDelegate7</text>
<text text-anchor="middle" x="228" y="-56" font-family="Helvetica,sans-Serif" font-size="10.00">::SetMemento</text>
</a>
</g>
</g>
<!-- Node1&#45;&gt;Node27 -->
<g id="edge26" class="edge"><title>Node1&#45;&gt;Node27</title>
<path fill="none" stroke="midnightblue" d="M63.0113,-626.724C67.4289,-528.396 88.06,-172.706 158,-89 161.268,-85.089 165.199,-81.7899 169.506,-79.0068"/>
<polygon fill="midnightblue" stroke="midnightblue" points="59.5059,-626.773 62.5708,-636.915 66.4994,-627.076 59.5059,-626.773"/>
</g>
<!-- Node28 -->
<g id="node28" class="node"><title>Node28</title>
<g id="a_node28"><a xlink:href="$classfastdelegate_1_1FastDelegate8.html#a5364a539334606999e05ab8fde8dfa6a" xlink:title="fastdelegate::FastDelegate8\l::SetMemento">
<polygon fill="white" stroke="black" points="158,-0 158,-30 298,-30 298,-0 158,-0"/>
<text text-anchor="start" x="166" y="-18" font-family="Helvetica,sans-Serif" font-size="10.00">fastdelegate::FastDelegate8</text>
<text text-anchor="middle" x="228" y="-7" font-family="Helvetica,sans-Serif" font-size="10.00">::SetMemento</text>
</a>
</g>
</g>
<!-- Node1&#45;&gt;Node28 -->
<g id="edge27" class="edge"><title>Node1&#45;&gt;Node28</title>
<path fill="none" stroke="midnightblue" d="M62.6356,-626.562C65.7213,-522.693 82.2608,-131.881 158,-40 161.161,-36.1657 164.96,-32.9194 169.129,-30.1711"/>
<polygon fill="midnightblue" stroke="midnightblue" points="59.1318,-626.651 62.3496,-636.745 66.129,-626.848 59.1318,-626.651"/>
</g>
</g>
</svg>
