<?xml version="1.0" encoding="UTF-8" standalone="no"?>
<!DOCTYPE svg PUBLIC "-//W3C//DTD SVG 1.1//EN"
 "http://www.w3.org/Graphics/SVG/1.1/DTD/svg11.dtd">
<!-- Generated by graphviz version 2.36.0 (20140111.2315)
 -->
<!-- Title: AverageFilter&lt; T, U, FILTER_SIZE &gt; Pages: 1 -->
<svg width="112pt" height="164pt"
 viewBox="0.00 0.00 112.00 164.00" xmlns="http://www.w3.org/2000/svg" xmlns:xlink="http://www.w3.org/1999/xlink">
<g id="graph0" class="graph" transform="scale(1 1) rotate(0) translate(4 160)">
<title>AverageFilter&lt; T, U, FILTER_SIZE &gt;</title>
<polygon fill="white" stroke="none" points="-4,4 -4,-160 108,-160 108,4 -4,4"/>
<!-- Node1 -->
<g id="node1" class="node"><title>Node1</title>
<polygon fill="#bfbfbf" stroke="black" points="-1,-1 -1,-31 105,-31 105,-1 -1,-1"/>
<text text-anchor="start" x="7" y="-19" font-family="Helvetica,sans-Serif" font-size="10.00">AverageFilter&lt; T, U,</text>
<text text-anchor="middle" x="52" y="-8" font-family="Helvetica,sans-Serif" font-size="10.00"> FILTER_SIZE &gt;</text>
</g>
<!-- Node2 -->
<g id="node2" class="node"><title>Node2</title>
<g id="a_node2"><a xlink:href="$classFilterWithBuffer.html" xlink:title="FilterWithBuffer\&lt; T,\l FILTER_SIZE \&gt;">
<polygon fill="white" stroke="black" points="0.5,-69 0.5,-99 103.5,-99 103.5,-69 0.5,-69"/>
<text text-anchor="start" x="8.5" y="-87" font-family="Helvetica,sans-Serif" font-size="10.00">FilterWithBuffer&lt; T,</text>
<text text-anchor="middle" x="52" y="-76" font-family="Helvetica,sans-Serif" font-size="10.00"> FILTER_SIZE &gt;</text>
</a>
</g>
</g>
<!-- Node2&#45;&gt;Node1 -->
<g id="edge1" class="edge"><title>Node2&#45;&gt;Node1</title>
<path fill="none" stroke="midnightblue" d="M52,-58.5322C52,-49.3606 52,-39.2449 52,-31.2931"/>
<polygon fill="midnightblue" stroke="midnightblue" points="48.5001,-58.6789 52,-68.679 55.5001,-58.679 48.5001,-58.6789"/>
</g>
<!-- Node3 -->
<g id="node3" class="node"><title>Node3</title>
<g id="a_node3"><a xlink:href="$classFilter.html" xlink:title="Filter\&lt; T \&gt;">
<polygon fill="white" stroke="black" points="21,-136.5 21,-155.5 83,-155.5 83,-136.5 21,-136.5"/>
<text text-anchor="middle" x="52" y="-143.5" font-family="Helvetica,sans-Serif" font-size="10.00">Filter&lt; T &gt;</text>
</a>
</g>
</g>
<!-- Node3&#45;&gt;Node2 -->
<g id="edge2" class="edge"><title>Node3&#45;&gt;Node2</title>
<path fill="none" stroke="midnightblue" d="M52,-126.371C52,-117.585 52,-107.272 52,-99.1408"/>
<polygon fill="midnightblue" stroke="midnightblue" points="48.5001,-126.403 52,-136.403 55.5001,-126.403 48.5001,-126.403"/>
</g>
</g>
</svg>
