<?xml version="1.0" encoding="UTF-8" standalone="no"?>
<!DOCTYPE svg PUBLIC "-//W3C//DTD SVG 1.1//EN"
 "http://www.w3.org/Graphics/SVG/1.1/DTD/svg11.dtd">
<!-- Generated by graphviz version 2.36.0 (20140111.2315)
 -->
<!-- Title: AP_Baro_PX4 Pages: 1 -->
<svg width="723pt" height="224pt"
 viewBox="0.00 0.00 723.00 224.00" xmlns="http://www.w3.org/2000/svg" xmlns:xlink="http://www.w3.org/1999/xlink">
<g id="graph0" class="graph" transform="scale(1 1) rotate(0) translate(4 220)">
<title>AP_Baro_PX4</title>
<polygon fill="white" stroke="none" points="-4,4 -4,-220 719,-220 719,4 -4,4"/>
<!-- Node1 -->
<g id="node1" class="node"><title>Node1</title>
<polygon fill="#bfbfbf" stroke="black" points="569,-0.5 569,-19.5 649,-19.5 649,-0.5 569,-0.5"/>
<text text-anchor="middle" x="609" y="-7.5" font-family="Helvetica,sans-Serif" font-size="10.00">AP_Baro_PX4</text>
</g>
<!-- Node2 -->
<g id="node2" class="node"><title>Node2</title>
<g id="a_node2"><a xlink:href="$classAP__Baro__Backend.html" xlink:title="&#45;*&#45; tab&#45;width: 4; Mode: C++; c&#45;basic&#45;offset: 4; indent&#45;tabs&#45;mode: nil &#45;*&#45; ">
<polygon fill="white" stroke="black" points="455.5,-68.5 455.5,-87.5 554.5,-87.5 554.5,-68.5 455.5,-68.5"/>
<text text-anchor="middle" x="505" y="-75.5" font-family="Helvetica,sans-Serif" font-size="10.00">AP_Baro_Backend</text>
</a>
</g>
</g>
<!-- Node2&#45;&gt;Node1 -->
<g id="edge1" class="edge"><title>Node2&#45;&gt;Node1</title>
<path fill="none" stroke="midnightblue" d="M527.079,-62.9883C547.769,-49.8584 578.037,-30.6498 595.4,-19.6305"/>
<polygon fill="midnightblue" stroke="midnightblue" points="525.164,-60.0582 518.596,-68.3717 528.915,-65.9685 525.164,-60.0582"/>
</g>
<!-- Node3 -->
<g id="node3" class="node"><title>Node3</title>
<g id="a_node3"><a xlink:href="$classAP__Baro.html" xlink:title="AP_Baro">
<polygon fill="white" stroke="black" points="286,-0.5 286,-19.5 342,-19.5 342,-0.5 286,-0.5"/>
<text text-anchor="middle" x="314" y="-7.5" font-family="Helvetica,sans-Serif" font-size="10.00">AP_Baro</text>
</a>
</g>
</g>
<!-- Node2&#45;&gt;Node3 -->
<g id="edge9" class="edge"><title>Node2&#45;&gt;Node3</title>
<path fill="none" stroke="#9a32cd" stroke-dasharray="5,2" d="M447.07,-66.4844C420.234,-61.2282 391.548,-54.9503 379,-50 368.533,-45.8708 343.047,-29.8569 327.277,-19.6778"/>
<polygon fill="#9a32cd" stroke="#9a32cd" points="446.745,-69.9861 457.227,-68.444 448.071,-63.1129 446.745,-69.9861"/>
<text text-anchor="middle" x="395.5" y="-41.5" font-family="Helvetica,sans-Serif" font-size="10.00"> drivers</text>
</g>
<!-- Node3&#45;&gt;Node2 -->
<g id="edge2" class="edge"><title>Node3&#45;&gt;Node2</title>
<path fill="none" stroke="#9a32cd" stroke-dasharray="5,2" d="M352.026,-19.586C371.392,-24.3301 395.183,-30.7325 416,-38 441.483,-46.8966 469.878,-59.9068 487.591,-68.4134"/>
<polygon fill="#9a32cd" stroke="#9a32cd" points="352.597,-16.1237 342.056,-17.1934 350.963,-22.9304 352.597,-16.1237"/>
<text text-anchor="middle" x="467" y="-41.5" font-family="Helvetica,sans-Serif" font-size="10.00"> _frontend</text>
</g>
<!-- Node4 -->
<g id="node4" class="node"><title>Node4</title>
<g id="a_node4"><a xlink:href="$structAP__Baro_1_1sensor.html" xlink:title="AP_Baro::sensor">
<polygon fill="white" stroke="black" points="-0.5,-68.5 -0.5,-87.5 90.5,-87.5 90.5,-68.5 -0.5,-68.5"/>
<text text-anchor="middle" x="45" y="-75.5" font-family="Helvetica,sans-Serif" font-size="10.00">AP_Baro::sensor</text>
</a>
</g>
</g>
<!-- Node4&#45;&gt;Node3 -->
<g id="edge3" class="edge"><title>Node4&#45;&gt;Node3</title>
<path fill="none" stroke="#9a32cd" stroke-dasharray="5,2" d="M79.3798,-65.0796C104.319,-56.7265 138.978,-45.7197 170,-38 209.863,-28.0804 256.74,-19.931 285.916,-15.2661"/>
<polygon fill="#9a32cd" stroke="#9a32cd" points="78.0124,-61.8472 69.66,-68.3656 80.2543,-68.4785 78.0124,-61.8472"/>
<text text-anchor="middle" x="189" y="-41.5" font-family="Helvetica,sans-Serif" font-size="10.00"> sensors</text>
</g>
<!-- Node5 -->
<g id="node5" class="node"><title>Node5</title>
<g id="a_node5"><a xlink:href="$classDerivativeFilter.html" xlink:title="DerivativeFilter\&lt; float, 7 \&gt;">
<polygon fill="white" stroke="black" points="108.5,-68.5 108.5,-87.5 239.5,-87.5 239.5,-68.5 108.5,-68.5"/>
<text text-anchor="middle" x="174" y="-75.5" font-family="Helvetica,sans-Serif" font-size="10.00">DerivativeFilter&lt; float, 7 &gt;</text>
</a>
</g>
</g>
<!-- Node5&#45;&gt;Node3 -->
<g id="edge4" class="edge"><title>Node5&#45;&gt;Node3</title>
<path fill="none" stroke="#9a32cd" stroke-dasharray="5,2" d="M193.316,-62.0512C204.228,-54.1206 218.376,-44.666 232,-38 249.233,-29.5686 269.733,-22.8186 285.924,-18.1764"/>
<polygon fill="#9a32cd" stroke="#9a32cd" points="190.917,-59.4748 184.994,-68.2598 195.103,-65.0854 190.917,-59.4748"/>
<text text-anchor="middle" x="271" y="-41.5" font-family="Helvetica,sans-Serif" font-size="10.00"> _climb_rate_filter</text>
</g>
<!-- Node6 -->
<g id="node6" class="node"><title>Node6</title>
<g id="a_node6"><a xlink:href="$classFilterWithBuffer.html" xlink:title="FilterWithBuffer\&lt; float,\l FILTER_SIZE \&gt;">
<polygon fill="white" stroke="black" points="116,-127 116,-157 232,-157 232,-127 116,-127"/>
<text text-anchor="start" x="124" y="-145" font-family="Helvetica,sans-Serif" font-size="10.00">FilterWithBuffer&lt; float,</text>
<text text-anchor="middle" x="174" y="-134" font-family="Helvetica,sans-Serif" font-size="10.00"> FILTER_SIZE &gt;</text>
</a>
</g>
</g>
<!-- Node6&#45;&gt;Node5 -->
<g id="edge5" class="edge"><title>Node6&#45;&gt;Node5</title>
<path fill="none" stroke="midnightblue" d="M174,-116.871C174,-106.663 174,-95.4077 174,-87.8419"/>
<polygon fill="midnightblue" stroke="midnightblue" points="170.5,-116.931 174,-126.931 177.5,-116.931 170.5,-116.931"/>
</g>
<!-- Node7 -->
<g id="node7" class="node"><title>Node7</title>
<g id="a_node7"><a xlink:href="$classFilter.html" xlink:title="Filter\&lt; float \&gt;">
<polygon fill="white" stroke="black" points="136.5,-196.5 136.5,-215.5 211.5,-215.5 211.5,-196.5 136.5,-196.5"/>
<text text-anchor="middle" x="174" y="-203.5" font-family="Helvetica,sans-Serif" font-size="10.00">Filter&lt; float &gt;</text>
</a>
</g>
</g>
<!-- Node7&#45;&gt;Node6 -->
<g id="edge6" class="edge"><title>Node7&#45;&gt;Node6</title>
<path fill="none" stroke="midnightblue" d="M174,-186.183C174,-176.886 174,-165.851 174,-157.263"/>
<polygon fill="midnightblue" stroke="midnightblue" points="170.5,-186.379 174,-196.379 177.5,-186.379 170.5,-186.379"/>
</g>
<!-- Node8 -->
<g id="node8" class="node"><title>Node8</title>
<g id="a_node8"><a xlink:href="$structAP__Param_1_1GroupInfo.html" xlink:title="AP_Param::GroupInfo">
<polygon fill="white" stroke="black" points="257.5,-68.5 257.5,-87.5 370.5,-87.5 370.5,-68.5 257.5,-68.5"/>
<text text-anchor="middle" x="314" y="-75.5" font-family="Helvetica,sans-Serif" font-size="10.00">AP_Param::GroupInfo</text>
</a>
</g>
</g>
<!-- Node8&#45;&gt;Node3 -->
<g id="edge7" class="edge"><title>Node8&#45;&gt;Node3</title>
<path fill="none" stroke="#9a32cd" stroke-dasharray="5,2" d="M314,-58.0413C314,-45.4724 314,-29.5631 314,-19.8411"/>
<polygon fill="#9a32cd" stroke="#9a32cd" points="310.5,-58.3716 314,-68.3717 317.5,-58.3717 310.5,-58.3716"/>
<text text-anchor="middle" x="333" y="-41.5" font-family="Helvetica,sans-Serif" font-size="10.00"> var_info</text>
</g>
<!-- Node8&#45;&gt;Node8 -->
<g id="edge8" class="edge"><title>Node8&#45;&gt;Node8</title>
<path fill="none" stroke="#9a32cd" stroke-dasharray="5,2" d="M381.021,-81.7292C385.37,-80.8594 388,-79.6163 388,-78 388,-75.3477 380.917,-73.7003 370.777,-73.0579"/>
<polygon fill="#9a32cd" stroke="#9a32cd" points="380.296,-78.2905 370.777,-82.9421 381.119,-85.2419 380.296,-78.2905"/>
<text text-anchor="middle" x="412.5" y="-75.5" font-family="Helvetica,sans-Serif" font-size="10.00"> group_info</text>
</g>
<!-- Node9 -->
<g id="node9" class="node"><title>Node9</title>
<g id="a_node9"><a xlink:href="$structAP__Baro__PX4_1_1px4__instance.html" xlink:title="AP_Baro_PX4::px4_instance">
<polygon fill="white" stroke="black" points="572.5,-68.5 572.5,-87.5 715.5,-87.5 715.5,-68.5 572.5,-68.5"/>
<text text-anchor="middle" x="644" y="-75.5" font-family="Helvetica,sans-Serif" font-size="10.00">AP_Baro_PX4::px4_instance</text>
</a>
</g>
</g>
<!-- Node9&#45;&gt;Node1 -->
<g id="edge10" class="edge"><title>Node9&#45;&gt;Node1</title>
<path fill="none" stroke="#9a32cd" stroke-dasharray="5,2" d="M634.553,-59.1859C627.8,-46.4523 619.002,-29.8607 613.688,-19.8411"/>
<polygon fill="#9a32cd" stroke="#9a32cd" points="631.647,-61.1768 639.424,-68.3717 637.831,-57.8972 631.647,-61.1768"/>
<text text-anchor="middle" x="652" y="-41.5" font-family="Helvetica,sans-Serif" font-size="10.00"> instances</text>
</g>
</g>
</svg>
