<?xml version="1.0" encoding="UTF-8" standalone="no"?>
<!DOCTYPE svg PUBLIC "-//W3C//DTD SVG 1.1//EN"
 "http://www.w3.org/Graphics/SVG/1.1/DTD/svg11.dtd">
<!-- Generated by graphviz version 2.36.0 (20140111.2315)
 -->
<!-- Title: Buzzer::on Pages: 1 -->
<svg width="192pt" height="66pt"
 viewBox="0.00 0.00 192.00 66.00" xmlns="http://www.w3.org/2000/svg" xmlns:xlink="http://www.w3.org/1999/xlink">
<g id="graph0" class="graph" transform="scale(1 1) rotate(0) translate(4 62)">
<title>Buzzer::on</title>
<polygon fill="white" stroke="none" points="-4,4 -4,-62 188,-62 188,4 -4,4"/>
<!-- Node1 -->
<g id="node1" class="node"><title>Node1</title>
<polygon fill="#bfbfbf" stroke="black" points="0,-19.5 0,-38.5 64,-38.5 64,-19.5 0,-19.5"/>
<text text-anchor="middle" x="32" y="-26.5" font-family="Helvetica,sans-Serif" font-size="10.00">Buzzer::on</text>
</g>
<!-- Node2 -->
<g id="node2" class="node"><title>Node2</title>
<g id="a_node2"><a xlink:href="$classBuzzer.html#a6ee5ad9fb45aacae1554ce6f179c0c91" xlink:title="init &#45; initialise the buzzer ">
<polygon fill="white" stroke="black" points="109,-38.5 109,-57.5 175,-57.5 175,-38.5 109,-38.5"/>
<text text-anchor="middle" x="142" y="-45.5" font-family="Helvetica,sans-Serif" font-size="10.00">Buzzer::init</text>
</a>
</g>
</g>
<!-- Node1&#45;&gt;Node2 -->
<g id="edge1" class="edge"><title>Node1&#45;&gt;Node2</title>
<path fill="none" stroke="midnightblue" d="M74.3967,-36.2828C85.768,-38.2833 97.929,-40.4227 108.706,-42.3187"/>
<polygon fill="midnightblue" stroke="midnightblue" points="74.6933,-32.7813 64.2381,-34.4956 73.4804,-39.6754 74.6933,-32.7813"/>
</g>
<!-- Node3 -->
<g id="node3" class="node"><title>Node3</title>
<g id="a_node3"><a xlink:href="$classBuzzer.html#a36dfc211160a93e1f8f939cad7040da8" xlink:title="update &#45; updates buzzer according to timed_updated. Should be called at 50Hz ">
<polygon fill="white" stroke="black" points="100.5,-0.5 100.5,-19.5 183.5,-19.5 183.5,-0.5 100.5,-0.5"/>
<text text-anchor="middle" x="142" y="-7.5" font-family="Helvetica,sans-Serif" font-size="10.00">Buzzer::update</text>
</a>
</g>
</g>
<!-- Node1&#45;&gt;Node3 -->
<g id="edge2" class="edge"><title>Node1&#45;&gt;Node3</title>
<path fill="none" stroke="midnightblue" d="M74.3035,-21.7336C82.7852,-20.2415 91.7099,-18.6714 100.175,-17.1822"/>
<polygon fill="midnightblue" stroke="midnightblue" points="73.4804,-18.3246 64.2381,-23.5044 74.6933,-25.2187 73.4804,-18.3246"/>
</g>
</g>
</svg>
