<?xml version="1.0" encoding="UTF-8" standalone="no"?>
<!DOCTYPE svg PUBLIC "-//W3C//DTD SVG 1.1//EN"
 "http://www.w3.org/Graphics/SVG/1.1/DTD/svg11.dtd">
<!-- Generated by graphviz version 2.36.0 (20140111.2315)
 -->
<!-- Title: AP_AHRS::get_airspeed Pages: 1 -->
<svg width="636pt" height="164pt"
 viewBox="0.00 0.00 636.00 164.00" xmlns="http://www.w3.org/2000/svg" xmlns:xlink="http://www.w3.org/1999/xlink">
<g id="graph0" class="graph" transform="scale(1 1) rotate(0) translate(4 160)">
<title>AP_AHRS::get_airspeed</title>
<polygon fill="white" stroke="none" points="-4,4 -4,-160 632,-160 632,4 -4,4"/>
<!-- Node1 -->
<g id="node1" class="node"><title>Node1</title>
<polygon fill="#bfbfbf" stroke="black" points="0.5,-87.5 0.5,-106.5 125.5,-106.5 125.5,-87.5 0.5,-87.5"/>
<text text-anchor="middle" x="63" y="-94.5" font-family="Helvetica,sans-Serif" font-size="10.00">AP_AHRS::get_airspeed</text>
</g>
<!-- Node2 -->
<g id="node2" class="node"><title>Node2</title>
<g id="a_node2"><a xlink:href="$classAP__Arming.html#a2b7ca6e3c7517feca088b28d45f2fc61" xlink:title="AP_Arming::airspeed\l_checks">
<polygon fill="white" stroke="black" points="180.5,-126 180.5,-156 289.5,-156 289.5,-126 180.5,-126"/>
<text text-anchor="start" x="188.5" y="-144" font-family="Helvetica,sans-Serif" font-size="10.00">AP_Arming::airspeed</text>
<text text-anchor="middle" x="235" y="-133" font-family="Helvetica,sans-Serif" font-size="10.00">_checks</text>
</a>
</g>
</g>
<!-- Node1&#45;&gt;Node2 -->
<g id="edge1" class="edge"><title>Node1&#45;&gt;Node2</title>
<path fill="none" stroke="midnightblue" d="M110.792,-109.111C132.356,-114.692 158.064,-121.346 180.404,-127.128"/>
<polygon fill="midnightblue" stroke="midnightblue" points="111.445,-105.665 100.887,-106.547 109.691,-112.441 111.445,-105.665"/>
</g>
<!-- Node5 -->
<g id="node5" class="node"><title>Node5</title>
<g id="a_node5"><a xlink:href="$classNavEKF.html#a6d310b4b28cd5ab824db834feadc83ff" xlink:title="NavEKF::readAirSpdData">
<polygon fill="white" stroke="black" points="170.5,-87.5 170.5,-106.5 299.5,-106.5 299.5,-87.5 170.5,-87.5"/>
<text text-anchor="middle" x="235" y="-94.5" font-family="Helvetica,sans-Serif" font-size="10.00">NavEKF::readAirSpdData</text>
</a>
</g>
</g>
<!-- Node1&#45;&gt;Node5 -->
<g id="edge4" class="edge"><title>Node1&#45;&gt;Node5</title>
<path fill="none" stroke="midnightblue" d="M135.856,-97C147.358,-97 159.188,-97 170.478,-97"/>
<polygon fill="midnightblue" stroke="midnightblue" points="135.855,-93.5001 125.855,-97 135.855,-100.5 135.855,-93.5001"/>
</g>
<!-- Node8 -->
<g id="node8" class="node"><title>Node8</title>
<g id="a_node8"><a xlink:href="$classNavEKF.html#a02ca7503660ded3d95abce7c81d2eebf" xlink:title="NavEKF::SetFlightAndFusion\lModes">
<polygon fill="white" stroke="black" points="162,-38 162,-68 308,-68 308,-38 162,-38"/>
<text text-anchor="start" x="170" y="-56" font-family="Helvetica,sans-Serif" font-size="10.00">NavEKF::SetFlightAndFusion</text>
<text text-anchor="middle" x="235" y="-45" font-family="Helvetica,sans-Serif" font-size="10.00">Modes</text>
</a>
</g>
</g>
<!-- Node1&#45;&gt;Node8 -->
<g id="edge7" class="edge"><title>Node1&#45;&gt;Node8</title>
<path fill="none" stroke="midnightblue" d="M110.74,-84.9026C130.846,-79.6987 154.562,-73.5605 175.793,-68.0654"/>
<polygon fill="midnightblue" stroke="midnightblue" points="109.691,-81.5586 100.887,-87.4527 111.445,-88.3353 109.691,-81.5586"/>
</g>
<!-- Node3 -->
<g id="node3" class="node"><title>Node3</title>
<g id="a_node3"><a xlink:href="$classAP__Arming.html#a73c03baf7f22b7124a2ac9e9286a850a" xlink:title="AP_Arming::pre_arm\l_checks">
<polygon fill="white" stroke="black" points="357.5,-126 357.5,-156 464.5,-156 464.5,-126 357.5,-126"/>
<text text-anchor="start" x="365.5" y="-144" font-family="Helvetica,sans-Serif" font-size="10.00">AP_Arming::pre_arm</text>
<text text-anchor="middle" x="411" y="-133" font-family="Helvetica,sans-Serif" font-size="10.00">_checks</text>
</a>
</g>
</g>
<!-- Node2&#45;&gt;Node3 -->
<g id="edge2" class="edge"><title>Node2&#45;&gt;Node3</title>
<path fill="none" stroke="midnightblue" d="M299.684,-141C318.671,-141 339.257,-141 357.448,-141"/>
<polygon fill="midnightblue" stroke="midnightblue" points="299.626,-137.5 289.626,-141 299.625,-144.5 299.626,-137.5"/>
</g>
<!-- Node4 -->
<g id="node4" class="node"><title>Node4</title>
<g id="a_node4"><a xlink:href="$classAP__Arming.html#a47b859d9929a736df2f08a1cad03efcb" xlink:title="AP_Arming::arm">
<polygon fill="white" stroke="black" points="526.5,-131.5 526.5,-150.5 615.5,-150.5 615.5,-131.5 526.5,-131.5"/>
<text text-anchor="middle" x="571" y="-138.5" font-family="Helvetica,sans-Serif" font-size="10.00">AP_Arming::arm</text>
</a>
</g>
</g>
<!-- Node3&#45;&gt;Node4 -->
<g id="edge3" class="edge"><title>Node3&#45;&gt;Node4</title>
<path fill="none" stroke="midnightblue" d="M474.644,-141C491.944,-141 510.338,-141 526.308,-141"/>
<polygon fill="midnightblue" stroke="midnightblue" points="474.612,-137.5 464.612,-141 474.612,-144.5 474.612,-137.5"/>
</g>
<!-- Node6 -->
<g id="node6" class="node"><title>Node6</title>
<g id="a_node6"><a xlink:href="$classNavEKF.html#a49295ac247658724f852cbec8be83398" xlink:title="NavEKF::SelectTasFusion">
<polygon fill="white" stroke="black" points="344,-87.5 344,-106.5 478,-106.5 478,-87.5 344,-87.5"/>
<text text-anchor="middle" x="411" y="-94.5" font-family="Helvetica,sans-Serif" font-size="10.00">NavEKF::SelectTasFusion</text>
</a>
</g>
</g>
<!-- Node5&#45;&gt;Node6 -->
<g id="edge5" class="edge"><title>Node5&#45;&gt;Node6</title>
<path fill="none" stroke="midnightblue" d="M310.024,-97C321.268,-97 332.808,-97 343.869,-97"/>
<polygon fill="midnightblue" stroke="midnightblue" points="309.803,-93.5001 299.803,-97 309.803,-100.5 309.803,-93.5001"/>
</g>
<!-- Node7 -->
<g id="node7" class="node"><title>Node7</title>
<g id="a_node7"><a xlink:href="$classNavEKF.html#a58d3c9694abab421e8eadd78e72ac67c" xlink:title="NavEKF::UpdateFilter">
<polygon fill="white" stroke="black" points="514.5,-68.5 514.5,-87.5 627.5,-87.5 627.5,-68.5 514.5,-68.5"/>
<text text-anchor="middle" x="571" y="-75.5" font-family="Helvetica,sans-Serif" font-size="10.00">NavEKF::UpdateFilter</text>
</a>
</g>
</g>
<!-- Node6&#45;&gt;Node7 -->
<g id="edge6" class="edge"><title>Node6&#45;&gt;Node7</title>
<path fill="none" stroke="midnightblue" d="M488.294,-87.8254C497.024,-86.7755 505.799,-85.7203 514.191,-84.7112"/>
<polygon fill="midnightblue" stroke="midnightblue" points="487.601,-84.3834 478.091,-89.0524 488.437,-91.3333 487.601,-84.3834"/>
</g>
<!-- Node8&#45;&gt;Node7 -->
<g id="edge9" class="edge"><title>Node8&#45;&gt;Node7</title>
<path fill="none" stroke="midnightblue" d="M318.055,-59.1418C379.087,-63.7101 460.75,-69.8226 514.331,-73.8332"/>
<polygon fill="midnightblue" stroke="midnightblue" points="318.295,-55.6501 308.062,-58.3938 317.773,-62.6306 318.295,-55.6501"/>
</g>
<!-- Node9 -->
<g id="node9" class="node"><title>Node9</title>
<g id="a_node9"><a xlink:href="$classNavEKF.html#a290932b02347c5247f036fbc3c7af9d8" xlink:title="NavEKF::InitialiseFilter\lBootstrap">
<polygon fill="white" stroke="black" points="352,-0 352,-30 470,-30 470,-0 352,-0"/>
<text text-anchor="start" x="360" y="-18" font-family="Helvetica,sans-Serif" font-size="10.00">NavEKF::InitialiseFilter</text>
<text text-anchor="middle" x="411" y="-7" font-family="Helvetica,sans-Serif" font-size="10.00">Bootstrap</text>
</a>
</g>
</g>
<!-- Node8&#45;&gt;Node9 -->
<g id="edge8" class="edge"><title>Node8&#45;&gt;Node9</title>
<path fill="none" stroke="midnightblue" d="M314.717,-35.809C327.207,-33.0813 339.927,-30.3034 351.834,-27.703"/>
<polygon fill="midnightblue" stroke="midnightblue" points="313.792,-32.4283 304.769,-37.9814 315.286,-39.2671 313.792,-32.4283"/>
</g>
</g>
</svg>
