<?xml version="1.0" encoding="UTF-8" standalone="no"?>
<!DOCTYPE svg PUBLIC "-//W3C//DTD SVG 1.1//EN"
 "http://www.w3.org/Graphics/SVG/1.1/DTD/svg11.dtd">
<!-- Generated by graphviz version 2.36.0 (20140111.2315)
 -->
<!-- Title: AP_HAL::HAL Pages: 1 -->
<svg width="762pt" height="84pt"
 viewBox="0.00 0.00 762.00 84.00" xmlns="http://www.w3.org/2000/svg" xmlns:xlink="http://www.w3.org/1999/xlink">
<g id="graph0" class="graph" transform="scale(1 1) rotate(0) translate(4 80)">
<title>AP_HAL::HAL</title>
<polygon fill="white" stroke="none" points="-4,4 -4,-80 758,-80 758,4 -4,4"/>
<!-- Node1 -->
<g id="node1" class="node"><title>Node1</title>
<polygon fill="#bfbfbf" stroke="black" points="369,-56.5 369,-75.5 449,-75.5 449,-56.5 369,-56.5"/>
<text text-anchor="middle" x="409" y="-63.5" font-family="Helvetica,sans-Serif" font-size="10.00">AP_HAL::HAL</text>
</g>
<!-- Node2 -->
<g id="node2" class="node"><title>Node2</title>
<g id="a_node2"><a xlink:href="$classHAL__AVR__APM1.html" xlink:title="HAL_AVR_APM1">
<polygon fill="white" stroke="black" points="-0.5,-0.5 -0.5,-19.5 94.5,-19.5 94.5,-0.5 -0.5,-0.5"/>
<text text-anchor="middle" x="47" y="-7.5" font-family="Helvetica,sans-Serif" font-size="10.00">HAL_AVR_APM1</text>
</a>
</g>
</g>
<!-- Node1&#45;&gt;Node2 -->
<g id="edge1" class="edge"><title>Node1&#45;&gt;Node2</title>
<path fill="none" stroke="midnightblue" d="M358.809,-57.8285C298.165,-49.115 193.054,-33.8575 103,-20 100.275,-19.5807 97.476,-19.1454 94.6521,-18.7027"/>
<polygon fill="midnightblue" stroke="midnightblue" points="358.48,-61.317 368.876,-59.2735 359.475,-54.3881 358.48,-61.317"/>
</g>
<!-- Node3 -->
<g id="node3" class="node"><title>Node3</title>
<g id="a_node3"><a xlink:href="$classHAL__AVR__APM2.html" xlink:title="HAL_AVR_APM2">
<polygon fill="white" stroke="black" points="112.5,-0.5 112.5,-19.5 207.5,-19.5 207.5,-0.5 112.5,-0.5"/>
<text text-anchor="middle" x="160" y="-7.5" font-family="Helvetica,sans-Serif" font-size="10.00">HAL_AVR_APM2</text>
</a>
</g>
</g>
<!-- Node1&#45;&gt;Node3 -->
<g id="edge2" class="edge"><title>Node1&#45;&gt;Node3</title>
<path fill="none" stroke="midnightblue" d="M359.576,-54.2815C312.521,-44.0769 242.633,-28.9203 199.27,-19.5164"/>
<polygon fill="midnightblue" stroke="midnightblue" points="359.031,-57.7445 369.545,-56.4435 360.514,-50.9036 359.031,-57.7445"/>
</g>
<!-- Node4 -->
<g id="node4" class="node"><title>Node4</title>
<g id="a_node4"><a xlink:href="$classHAL__Empty.html" xlink:title="HAL_Empty">
<polygon fill="white" stroke="black" points="226,-0.5 226,-19.5 296,-19.5 296,-0.5 226,-0.5"/>
<text text-anchor="middle" x="261" y="-7.5" font-family="Helvetica,sans-Serif" font-size="10.00">HAL_Empty</text>
</a>
</g>
</g>
<!-- Node1&#45;&gt;Node4 -->
<g id="edge3" class="edge"><title>Node1&#45;&gt;Node4</title>
<path fill="none" stroke="midnightblue" d="M375.853,-52.9058C348.028,-42.7536 308.98,-28.5063 284.341,-19.5164"/>
<polygon fill="midnightblue" stroke="midnightblue" points="374.955,-56.3038 385.549,-56.4435 377.354,-49.7279 374.955,-56.3038"/>
</g>
<!-- Node5 -->
<g id="node5" class="node"><title>Node5</title>
<g id="a_node5"><a xlink:href="$classHAL__FLYMAPLE.html" xlink:title="HAL_FLYMAPLE">
<polygon fill="white" stroke="black" points="314.5,-0.5 314.5,-19.5 407.5,-19.5 407.5,-0.5 314.5,-0.5"/>
<text text-anchor="middle" x="361" y="-7.5" font-family="Helvetica,sans-Serif" font-size="10.00">HAL_FLYMAPLE</text>
</a>
</g>
</g>
<!-- Node1&#45;&gt;Node5 -->
<g id="edge4" class="edge"><title>Node1&#45;&gt;Node5</title>
<path fill="none" stroke="midnightblue" d="M394.272,-48.4314C385.86,-38.9673 375.651,-27.4827 368.779,-19.7511"/>
<polygon fill="midnightblue" stroke="midnightblue" points="391.814,-50.9342 401.074,-56.083 397.046,-46.2836 391.814,-50.9342"/>
</g>
<!-- Node6 -->
<g id="node6" class="node"><title>Node6</title>
<g id="a_node6"><a xlink:href="$classHAL__Linux.html" xlink:title="HAL_Linux">
<polygon fill="white" stroke="black" points="425.5,-0.5 425.5,-19.5 490.5,-19.5 490.5,-0.5 425.5,-0.5"/>
<text text-anchor="middle" x="458" y="-7.5" font-family="Helvetica,sans-Serif" font-size="10.00">HAL_Linux</text>
</a>
</g>
</g>
<!-- Node1&#45;&gt;Node6 -->
<g id="edge5" class="edge"><title>Node1&#45;&gt;Node6</title>
<path fill="none" stroke="midnightblue" d="M424.034,-48.4314C432.622,-38.9673 443.043,-27.4827 450.059,-19.7511"/>
<polygon fill="midnightblue" stroke="midnightblue" points="421.219,-46.3254 417.091,-56.083 426.403,-51.0293 421.219,-46.3254"/>
</g>
<!-- Node7 -->
<g id="node7" class="node"><title>Node7</title>
<g id="a_node7"><a xlink:href="$classHAL__PX4.html" xlink:title="HAL_PX4">
<polygon fill="white" stroke="black" points="509,-0.5 509,-19.5 569,-19.5 569,-0.5 509,-0.5"/>
<text text-anchor="middle" x="539" y="-7.5" font-family="Helvetica,sans-Serif" font-size="10.00">HAL_PX4</text>
</a>
</g>
</g>
<!-- Node1&#45;&gt;Node7 -->
<g id="edge6" class="edge"><title>Node1&#45;&gt;Node7</title>
<path fill="none" stroke="midnightblue" d="M439.085,-52.503C463.457,-42.3795 497.14,-28.388 518.497,-19.5164"/>
<polygon fill="midnightblue" stroke="midnightblue" points="437.491,-49.3752 429.599,-56.4435 440.177,-55.8397 437.491,-49.3752"/>
</g>
<!-- Node8 -->
<g id="node8" class="node"><title>Node8</title>
<g id="a_node8"><a xlink:href="$classHAL__SITL.html" xlink:title="HAL_SITL">
<polygon fill="white" stroke="black" points="587,-0.5 587,-19.5 649,-19.5 649,-0.5 587,-0.5"/>
<text text-anchor="middle" x="618" y="-7.5" font-family="Helvetica,sans-Serif" font-size="10.00">HAL_SITL</text>
</a>
</g>
</g>
<!-- Node1&#45;&gt;Node8 -->
<g id="edge7" class="edge"><title>Node1&#45;&gt;Node8</title>
<path fill="none" stroke="midnightblue" d="M451.881,-53.9208C491.982,-43.5597 550.917,-28.3326 586.745,-19.0755"/>
<polygon fill="midnightblue" stroke="midnightblue" points="450.923,-50.5532 442.117,-56.4435 452.674,-57.3306 450.923,-50.5532"/>
</g>
<!-- Node9 -->
<g id="node9" class="node"><title>Node9</title>
<g id="a_node9"><a xlink:href="$classHAL__VRBRAIN.html" xlink:title="HAL_VRBRAIN">
<polygon fill="white" stroke="black" points="667.5,-0.5 667.5,-19.5 754.5,-19.5 754.5,-0.5 667.5,-0.5"/>
<text text-anchor="middle" x="711" y="-7.5" font-family="Helvetica,sans-Serif" font-size="10.00">HAL_VRBRAIN</text>
</a>
</g>
</g>
<!-- Node1&#45;&gt;Node9 -->
<g id="edge8" class="edge"><title>Node1&#45;&gt;Node9</title>
<path fill="none" stroke="midnightblue" d="M459.157,-56.0315C517.27,-45.6404 612.088,-28.6863 667.302,-18.8135"/>
<polygon fill="midnightblue" stroke="midnightblue" points="458.331,-52.6236 449.103,-57.8292 459.563,-59.5143 458.331,-52.6236"/>
</g>
</g>
</svg>
