<?xml version="1.0" encoding="UTF-8" standalone="no"?>
<!DOCTYPE svg PUBLIC "-//W3C//DTD SVG 1.1//EN"
 "http://www.w3.org/Graphics/SVG/1.1/DTD/svg11.dtd">
<!-- Generated by graphviz version 2.36.0 (20140111.2315)
 -->
<!-- Title: AP_Param::show Pages: 1 -->
<svg width="560pt" height="126pt"
 viewBox="0.00 0.00 560.00 126.00" xmlns="http://www.w3.org/2000/svg" xmlns:xlink="http://www.w3.org/1999/xlink">
<g id="graph0" class="graph" transform="scale(1 1) rotate(0) translate(4 122)">
<title>AP_Param::show</title>
<polygon fill="white" stroke="none" points="-4,4 -4,-122 556,-122 556,4 -4,4"/>
<!-- Node1 -->
<g id="node1" class="node"><title>Node1</title>
<polygon fill="#bfbfbf" stroke="black" points="0.5,-27.5 0.5,-46.5 93.5,-46.5 93.5,-27.5 0.5,-27.5"/>
<text text-anchor="middle" x="47" y="-34.5" font-family="Helvetica,sans-Serif" font-size="10.00">AP_Param::show</text>
</g>
<!-- Node2 -->
<g id="node2" class="node"><title>Node2</title>
<g id="a_node2"><a xlink:href="$classAP__Param.html#a1ae2225a14191dcd19d1739b62e9cca1" xlink:title="AP_Param::copy_name\l_token">
<polygon fill="white" stroke="black" points="130,-44 130,-74 250,-74 250,-44 130,-44"/>
<text text-anchor="start" x="138" y="-62" font-family="Helvetica,sans-Serif" font-size="10.00">AP_Param::copy_name</text>
<text text-anchor="middle" x="190" y="-51" font-family="Helvetica,sans-Serif" font-size="10.00">_token</text>
</a>
</g>
</g>
<!-- Node1&#45;&gt;Node2 -->
<g id="edge1" class="edge"><title>Node1&#45;&gt;Node2</title>
<path fill="none" stroke="midnightblue" d="M93.7787,-44.1428C102.133,-45.4463 111.018,-46.8327 119.875,-48.2145"/>
<polygon fill="midnightblue" stroke="midnightblue" points="119.411,-51.6845 129.831,-49.768 120.49,-44.7681 119.411,-51.6845"/>
</g>
<!-- Node7 -->
<g id="node7" class="node"><title>Node7</title>
<g id="a_node7"><a xlink:href="$classAP__Param.html#a8196ebda4b83b54e27106e85b8b3f49c" xlink:title="print the value of one variable ">
<polygon fill="white" stroke="black" points="143.5,-5.5 143.5,-24.5 236.5,-24.5 236.5,-5.5 143.5,-5.5"/>
<text text-anchor="middle" x="190" y="-12.5" font-family="Helvetica,sans-Serif" font-size="10.00">AP_Param::show</text>
</a>
</g>
</g>
<!-- Node1&#45;&gt;Node7 -->
<g id="edge6" class="edge"><title>Node1&#45;&gt;Node7</title>
<path fill="none" stroke="midnightblue" d="M93.7787,-29.8572C106.466,-27.8776 120.377,-25.7072 133.552,-23.6515"/>
<polygon fill="midnightblue" stroke="midnightblue" points="134.11,-27.1068 143.451,-22.1069 133.031,-20.1905 134.11,-27.1068"/>
</g>
<!-- Node3 -->
<g id="node3" class="node"><title>Node3</title>
<g id="a_node3"><a xlink:href="$classAP__Param.html#a1bae8b6b88b834ecd434be9bd171d924" xlink:title="AP_Param::find_var\l_info_token">
<polygon fill="white" stroke="black" points="297,-88 297,-118 401,-118 401,-88 297,-88"/>
<text text-anchor="start" x="305" y="-106" font-family="Helvetica,sans-Serif" font-size="10.00">AP_Param::find_var</text>
<text text-anchor="middle" x="349" y="-95" font-family="Helvetica,sans-Serif" font-size="10.00">_info_token</text>
</a>
</g>
</g>
<!-- Node2&#45;&gt;Node3 -->
<g id="edge2" class="edge"><title>Node2&#45;&gt;Node3</title>
<path fill="none" stroke="midnightblue" d="M244.591,-74.0192C258.173,-77.8255 272.864,-81.9428 286.791,-85.846"/>
<polygon fill="midnightblue" stroke="midnightblue" points="286.197,-89.3142 296.771,-88.6427 288.086,-82.5739 286.197,-89.3142"/>
</g>
<!-- Node5 -->
<g id="node5" class="node"><title>Node5</title>
<g id="a_node5"><a xlink:href="$AP__Progmem__AVR_8h.html#a00eef44be35a92b1ef4067ea49bea7a3" xlink:title="strncpy_P">
<polygon fill="white" stroke="black" points="318.5,-49.5 318.5,-68.5 379.5,-68.5 379.5,-49.5 318.5,-49.5"/>
<text text-anchor="middle" x="349" y="-56.5" font-family="Helvetica,sans-Serif" font-size="10.00">strncpy_P</text>
</a>
</g>
</g>
<!-- Node2&#45;&gt;Node5 -->
<g id="edge4" class="edge"><title>Node2&#45;&gt;Node5</title>
<path fill="none" stroke="midnightblue" d="M250.355,-59C269.627,-59 290.539,-59 308.047,-59"/>
<polygon fill="midnightblue" stroke="midnightblue" points="308.464,-62.5001 318.464,-59 308.464,-55.5001 308.464,-62.5001"/>
</g>
<!-- Node6 -->
<g id="node6" class="node"><title>Node6</title>
<g id="a_node6"><a xlink:href="$classAP__Param.html#ac04c57cce74e7794939c5b0bbb12fbd5" xlink:title="AP_Param::add_vector3f\l_suffix">
<polygon fill="white" stroke="black" points="286,-0 286,-30 412,-30 412,-0 286,-0"/>
<text text-anchor="start" x="294" y="-18" font-family="Helvetica,sans-Serif" font-size="10.00">AP_Param::add_vector3f</text>
<text text-anchor="middle" x="349" y="-7" font-family="Helvetica,sans-Serif" font-size="10.00">_suffix</text>
</a>
</g>
</g>
<!-- Node2&#45;&gt;Node6 -->
<g id="edge5" class="edge"><title>Node2&#45;&gt;Node6</title>
<path fill="none" stroke="midnightblue" d="M244.591,-43.9808C257.404,-40.39 271.204,-36.5224 284.419,-32.819"/>
<polygon fill="midnightblue" stroke="midnightblue" points="285.699,-36.095 294.384,-30.0262 283.81,-29.3547 285.699,-36.095"/>
</g>
<!-- Node4 -->
<g id="node4" class="node"><title>Node4</title>
<g id="a_node4"><a xlink:href="$classAP__Param.html#ac4f13ca0e958e391e915dc68c6e532f1" xlink:title="AP_Param::find_var\l_info_group">
<polygon fill="white" stroke="black" points="448,-88 448,-118 552,-118 552,-88 448,-88"/>
<text text-anchor="start" x="456" y="-106" font-family="Helvetica,sans-Serif" font-size="10.00">AP_Param::find_var</text>
<text text-anchor="middle" x="500" y="-95" font-family="Helvetica,sans-Serif" font-size="10.00">_info_group</text>
</a>
</g>
</g>
<!-- Node3&#45;&gt;Node4 -->
<g id="edge3" class="edge"><title>Node3&#45;&gt;Node4</title>
<path fill="none" stroke="midnightblue" d="M401.277,-103C413.049,-103 425.681,-103 437.825,-103"/>
<polygon fill="midnightblue" stroke="midnightblue" points="437.881,-106.5 447.881,-103 437.881,-99.5001 437.881,-106.5"/>
</g>
</g>
</svg>
