<?xml version="1.0" encoding="UTF-8" standalone="no"?>
<!DOCTYPE svg PUBLIC "-//W3C//DTD SVG 1.1//EN"
 "http://www.w3.org/Graphics/SVG/1.1/DTD/svg11.dtd">
<!-- Generated by graphviz version 2.36.0 (20140111.2315)
 -->
<!-- Title: AP_HAL_FLYMAPLE_NS::FLYMAPLEGPIO::toggle Pages: 1 -->
<svg width="284pt" height="66pt"
 viewBox="0.00 0.00 284.00 66.00" xmlns="http://www.w3.org/2000/svg" xmlns:xlink="http://www.w3.org/1999/xlink">
<g id="graph0" class="graph" transform="scale(1 1) rotate(0) translate(4 62)">
<title>AP_HAL_FLYMAPLE_NS::FLYMAPLEGPIO::toggle</title>
<polygon fill="white" stroke="none" points="-4,4 -4,-62 280,-62 280,4 -4,4"/>
<!-- Node1 -->
<g id="node1" class="node"><title>Node1</title>
<polygon fill="#bfbfbf" stroke="black" points="0.5,-14 0.5,-44 131.5,-44 131.5,-14 0.5,-14"/>
<text text-anchor="start" x="8.5" y="-32" font-family="Helvetica,sans-Serif" font-size="10.00">AP_HAL_FLYMAPLE_NS</text>
<text text-anchor="middle" x="66" y="-21" font-family="Helvetica,sans-Serif" font-size="10.00">::FLYMAPLEGPIO::toggle</text>
</g>
<!-- Node2 -->
<g id="node2" class="node"><title>Node2</title>
<g id="a_node2"><a xlink:href="$AP__HAL__FLYMAPLE_2GPIO_8cpp.html#ac4b46c3a0ee91de0fbb7065a14e2ac62" xlink:title="libmaple_digitalWrite">
<polygon fill="white" stroke="black" points="168.5,-38.5 168.5,-57.5 275.5,-57.5 275.5,-38.5 168.5,-38.5"/>
<text text-anchor="middle" x="222" y="-45.5" font-family="Helvetica,sans-Serif" font-size="10.00">libmaple_digitalWrite</text>
</a>
</g>
</g>
<!-- Node1&#45;&gt;Node2 -->
<g id="edge1" class="edge"><title>Node1&#45;&gt;Node2</title>
<path fill="none" stroke="midnightblue" d="M131.864,-37.0026C140.608,-38.0815 149.566,-39.1867 158.272,-40.2609"/>
<polygon fill="midnightblue" stroke="midnightblue" points="157.995,-43.7531 168.349,-41.504 158.852,-36.8058 157.995,-43.7531"/>
</g>
<!-- Node3 -->
<g id="node3" class="node"><title>Node3</title>
<g id="a_node3"><a xlink:href="$AP__HAL__FLYMAPLE_2GPIO_8cpp.html#adea255e832d3c12b358ffaf228f9cb8c" xlink:title="libmaple_digitalRead">
<polygon fill="white" stroke="black" points="168.5,-0.5 168.5,-19.5 275.5,-19.5 275.5,-0.5 168.5,-0.5"/>
<text text-anchor="middle" x="222" y="-7.5" font-family="Helvetica,sans-Serif" font-size="10.00">libmaple_digitalRead</text>
</a>
</g>
</g>
<!-- Node1&#45;&gt;Node3 -->
<g id="edge2" class="edge"><title>Node1&#45;&gt;Node3</title>
<path fill="none" stroke="midnightblue" d="M131.864,-20.9974C140.608,-19.9185 149.566,-18.8133 158.272,-17.7391"/>
<polygon fill="midnightblue" stroke="midnightblue" points="158.852,-21.1942 168.349,-16.496 157.995,-14.2469 158.852,-21.1942"/>
</g>
</g>
</svg>
