<?xml version="1.0" encoding="UTF-8" standalone="no"?>
<!DOCTYPE svg PUBLIC "-//W3C//DTD SVG 1.1//EN"
 "http://www.w3.org/Graphics/SVG/1.1/DTD/svg11.dtd">
<!-- Generated by graphviz version 2.36.0 (20140111.2315)
 -->
<!-- Title: AP_HAL_AVR::AVRSPI0DeviceDriver::transaction Pages: 1 -->
<svg width="572pt" height="185pt"
 viewBox="0.00 0.00 572.00 185.00" xmlns="http://www.w3.org/2000/svg" xmlns:xlink="http://www.w3.org/1999/xlink">
<g id="graph0" class="graph" transform="scale(1 1) rotate(0) translate(4 181)">
<title>AP_HAL_AVR::AVRSPI0DeviceDriver::transaction</title>
<polygon fill="white" stroke="none" points="-4,4 -4,-181 568,-181 568,4 -4,4"/>
<!-- Node1 -->
<g id="node1" class="node"><title>Node1</title>
<polygon fill="#bfbfbf" stroke="black" points="0.5,-73 0.5,-103 161.5,-103 161.5,-73 0.5,-73"/>
<text text-anchor="start" x="8.5" y="-91" font-family="Helvetica,sans-Serif" font-size="10.00">AP_HAL_AVR::AVRSPI0Device</text>
<text text-anchor="middle" x="81" y="-80" font-family="Helvetica,sans-Serif" font-size="10.00">Driver::transaction</text>
</g>
<!-- Node2 -->
<g id="node2" class="node"><title>Node2</title>
<g id="a_node2"><a xlink:href="$classAP__HAL__AVR_1_1AVRSPI0DeviceDriver.html#a7f294dc50be0d08958980f4cc67a3b1f" xlink:title="AP_HAL_AVR::AVRSPI0Device\lDriver::_cs_assert">
<polygon fill="white" stroke="black" points="198.5,-98 198.5,-128 359.5,-128 359.5,-98 198.5,-98"/>
<text text-anchor="start" x="206.5" y="-116" font-family="Helvetica,sans-Serif" font-size="10.00">AP_HAL_AVR::AVRSPI0Device</text>
<text text-anchor="middle" x="279" y="-105" font-family="Helvetica,sans-Serif" font-size="10.00">Driver::_cs_assert</text>
</a>
</g>
</g>
<!-- Node1&#45;&gt;Node2 -->
<g id="edge1" class="edge"><title>Node1&#45;&gt;Node2</title>
<path fill="none" stroke="midnightblue" d="M161.721,-98.1685C170.499,-99.2882 179.48,-100.434 188.369,-101.568"/>
<polygon fill="midnightblue" stroke="midnightblue" points="187.987,-105.047 198.35,-102.841 188.873,-98.1033 187.987,-105.047"/>
</g>
<!-- Node4 -->
<g id="node4" class="node"><title>Node4</title>
<g id="a_node4"><a xlink:href="$classAP__HAL__AVR_1_1AVRSPI0DeviceDriver.html#af240bd48e26d7b4e2588f1d9ea9a2b85" xlink:title="AP_HAL_AVR::AVRSPI0Device\lDriver::_transfer">
<polygon fill="white" stroke="black" points="198.5,-147 198.5,-177 359.5,-177 359.5,-147 198.5,-147"/>
<text text-anchor="start" x="206.5" y="-165" font-family="Helvetica,sans-Serif" font-size="10.00">AP_HAL_AVR::AVRSPI0Device</text>
<text text-anchor="middle" x="279" y="-154" font-family="Helvetica,sans-Serif" font-size="10.00">Driver::_transfer</text>
</a>
</g>
</g>
<!-- Node1&#45;&gt;Node4 -->
<g id="edge3" class="edge"><title>Node1&#45;&gt;Node4</title>
<path fill="none" stroke="midnightblue" d="M115.162,-103.018C138.178,-113.191 169.673,-126.619 198,-137 204.334,-139.321 210.997,-141.622 217.663,-143.833"/>
<polygon fill="midnightblue" stroke="midnightblue" points="216.801,-147.233 227.393,-147 218.968,-140.576 216.801,-147.233"/>
</g>
<!-- Node6 -->
<g id="node6" class="node"><title>Node6</title>
<g id="a_node6"><a xlink:href="$classAP__HAL__AVR_1_1AVRSPI0DeviceDriver.html#a25fcf100ac3615bebe2d1a3a7976c1ef" xlink:title="AP_HAL_AVR::AVRSPI0Device\lDriver::_transfer16">
<polygon fill="white" stroke="black" points="198.5,-49 198.5,-79 359.5,-79 359.5,-49 198.5,-49"/>
<text text-anchor="start" x="206.5" y="-67" font-family="Helvetica,sans-Serif" font-size="10.00">AP_HAL_AVR::AVRSPI0Device</text>
<text text-anchor="middle" x="279" y="-56" font-family="Helvetica,sans-Serif" font-size="10.00">Driver::_transfer16</text>
</a>
</g>
</g>
<!-- Node1&#45;&gt;Node6 -->
<g id="edge5" class="edge"><title>Node1&#45;&gt;Node6</title>
<path fill="none" stroke="midnightblue" d="M161.721,-78.2383C170.499,-77.1634 179.48,-76.0636 188.369,-74.9752"/>
<polygon fill="midnightblue" stroke="midnightblue" points="188.85,-78.4426 198.35,-73.7531 187.999,-71.4945 188.85,-78.4426"/>
</g>
<!-- Node7 -->
<g id="node7" class="node"><title>Node7</title>
<g id="a_node7"><a xlink:href="$classAP__HAL__AVR_1_1AVRSPI0DeviceDriver.html#a2b71451a0deb6625eb952c10c49e9e11" xlink:title="AP_HAL_AVR::AVRSPI0Device\lDriver::_cs_release">
<polygon fill="white" stroke="black" points="198.5,-0 198.5,-30 359.5,-30 359.5,-0 198.5,-0"/>
<text text-anchor="start" x="206.5" y="-18" font-family="Helvetica,sans-Serif" font-size="10.00">AP_HAL_AVR::AVRSPI0Device</text>
<text text-anchor="middle" x="279" y="-7" font-family="Helvetica,sans-Serif" font-size="10.00">Driver::_cs_release</text>
</a>
</g>
</g>
<!-- Node1&#45;&gt;Node7 -->
<g id="edge6" class="edge"><title>Node1&#45;&gt;Node7</title>
<path fill="none" stroke="midnightblue" d="M115.124,-72.8789C138.123,-62.6598 169.614,-49.2193 198,-39 203.506,-37.0177 209.265,-35.0638 215.059,-33.1788"/>
<polygon fill="midnightblue" stroke="midnightblue" points="216.338,-36.4451 224.806,-30.0786 214.216,-29.7744 216.338,-36.4451"/>
</g>
<!-- Node3 -->
<g id="node3" class="node"><title>Node3</title>
<g id="a_node3"><a xlink:href="$classAP__HAL__AVR_1_1AVRDigitalSource.html#aa065a455fc3c86c97d8479373e88eadd" xlink:title="AP_HAL_AVR::AVRDigitalSource\l::write">
<polygon fill="white" stroke="black" points="396.5,-49 396.5,-79 563.5,-79 563.5,-49 396.5,-49"/>
<text text-anchor="start" x="404.5" y="-67" font-family="Helvetica,sans-Serif" font-size="10.00">AP_HAL_AVR::AVRDigitalSource</text>
<text text-anchor="middle" x="480" y="-56" font-family="Helvetica,sans-Serif" font-size="10.00">::write</text>
</a>
</g>
</g>
<!-- Node2&#45;&gt;Node3 -->
<g id="edge2" class="edge"><title>Node2&#45;&gt;Node3</title>
<path fill="none" stroke="midnightblue" d="M341.059,-97.9654C362.262,-92.7446 386.216,-86.8463 408.142,-81.4474"/>
<polygon fill="midnightblue" stroke="midnightblue" points="409.183,-84.7957 418.057,-79.0062 407.51,-77.9987 409.183,-84.7957"/>
</g>
<!-- Node5 -->
<g id="node5" class="node"><title>Node5</title>
<g id="a_node5"><a xlink:href="$classAP__HAL_1_1Scheduler.html#a65f0d4e404d3e6fda4d8b0b101c9780f" xlink:title="AP_HAL::Scheduler::\lpanic">
<polygon fill="white" stroke="black" points="425,-147 425,-177 535,-177 535,-147 425,-147"/>
<text text-anchor="start" x="433" y="-165" font-family="Helvetica,sans-Serif" font-size="10.00">AP_HAL::Scheduler::</text>
<text text-anchor="middle" x="480" y="-154" font-family="Helvetica,sans-Serif" font-size="10.00">panic</text>
</a>
</g>
</g>
<!-- Node4&#45;&gt;Node5 -->
<g id="edge4" class="edge"><title>Node4&#45;&gt;Node5</title>
<path fill="none" stroke="midnightblue" d="M359.508,-162C377.879,-162 397.199,-162 414.82,-162"/>
<polygon fill="midnightblue" stroke="midnightblue" points="414.979,-165.5 424.979,-162 414.979,-158.5 414.979,-165.5"/>
</g>
<!-- Node7&#45;&gt;Node3 -->
<g id="edge7" class="edge"><title>Node7&#45;&gt;Node3</title>
<path fill="none" stroke="midnightblue" d="M341.059,-30.0346C362.262,-35.2554 386.216,-41.1537 408.142,-46.5526"/>
<polygon fill="midnightblue" stroke="midnightblue" points="407.51,-50.0013 418.057,-48.9938 409.183,-43.2043 407.51,-50.0013"/>
</g>
</g>
</svg>
