<?xml version="1.0" encoding="UTF-8" standalone="no"?>
<!DOCTYPE svg PUBLIC "-//W3C//DTD SVG 1.1//EN"
 "http://www.w3.org/Graphics/SVG/1.1/DTD/svg11.dtd">
<!-- Generated by graphviz version 2.36.0 (20140111.2315)
 -->
<!-- Title: SITL::convert_body_frame Pages: 1 -->
<svg width="924pt" height="202pt"
 viewBox="0.00 0.00 924.00 202.00" xmlns="http://www.w3.org/2000/svg" xmlns:xlink="http://www.w3.org/1999/xlink">
<g id="graph0" class="graph" transform="scale(1 1) rotate(0) translate(4 198)">
<title>SITL::convert_body_frame</title>
<polygon fill="white" stroke="none" points="-4,4 -4,-198 920,-198 920,4 -4,4"/>
<!-- Node1 -->
<g id="node1" class="node"><title>Node1</title>
<polygon fill="#bfbfbf" stroke="black" points="0,-71 0,-101 102,-101 102,-71 0,-71"/>
<text text-anchor="start" x="8" y="-89" font-family="Helvetica,sans-Serif" font-size="10.00">SITL::convert_body</text>
<text text-anchor="middle" x="51" y="-78" font-family="Helvetica,sans-Serif" font-size="10.00">_frame</text>
</g>
<!-- Node2 -->
<g id="node2" class="node"><title>Node2</title>
<g id="a_node2"><a xlink:href="$classHALSITL_1_1SITL__State.html#a37c3534ef88c31b2d57f0aee8018d6ed" xlink:title="HALSITL::SITL_State\l::_update_flow">
<polygon fill="white" stroke="black" points="153.5,-164 153.5,-194 266.5,-194 266.5,-164 153.5,-164"/>
<text text-anchor="start" x="161.5" y="-182" font-family="Helvetica,sans-Serif" font-size="10.00">HALSITL::SITL_State</text>
<text text-anchor="middle" x="210" y="-171" font-family="Helvetica,sans-Serif" font-size="10.00">::_update_flow</text>
</a>
</g>
</g>
<!-- Node1&#45;&gt;Node2 -->
<g id="edge1" class="edge"><title>Node1&#45;&gt;Node2</title>
<path fill="none" stroke="midnightblue" d="M75.1803,-107.827C91.6824,-122.452 114.937,-141.286 138,-154 144.752,-157.722 152.163,-161.057 159.571,-163.984"/>
<polygon fill="midnightblue" stroke="midnightblue" points="77.4203,-105.134 67.6522,-101.031 72.7296,-110.33 77.4203,-105.134"/>
</g>
<!-- Node7 -->
<g id="node7" class="node"><title>Node7</title>
<g id="a_node7"><a xlink:href="$classHALSITL_1_1SITL__State.html#a9f7ecf8cafc351952b5a22863fbeeda6" xlink:title="HALSITL::SITL_State\l::_update_ins">
<polygon fill="white" stroke="black" points="153.5,-115 153.5,-145 266.5,-145 266.5,-115 153.5,-115"/>
<text text-anchor="start" x="161.5" y="-133" font-family="Helvetica,sans-Serif" font-size="10.00">HALSITL::SITL_State</text>
<text text-anchor="middle" x="210" y="-122" font-family="Helvetica,sans-Serif" font-size="10.00">::_update_ins</text>
</a>
</g>
</g>
<!-- Node1&#45;&gt;Node7 -->
<g id="edge6" class="edge"><title>Node1&#45;&gt;Node7</title>
<path fill="none" stroke="midnightblue" d="M111.838,-102.77C126.133,-106.776 141.303,-111.028 155.301,-114.951"/>
<polygon fill="midnightblue" stroke="midnightblue" points="112.681,-99.3713 102.107,-100.043 110.792,-106.112 112.681,-99.3713"/>
</g>
<!-- Node12 -->
<g id="node12" class="node"><title>Node12</title>
<g id="a_node12"><a xlink:href="$classSITL.html#adc9cb04ae0ef3764e4dbf414d58ed9c4" xlink:title="SITL::Log_Write_SIMSTATE">
<polygon fill="white" stroke="black" points="138.5,-76.5 138.5,-95.5 281.5,-95.5 281.5,-76.5 138.5,-76.5"/>
<text text-anchor="middle" x="210" y="-83.5" font-family="Helvetica,sans-Serif" font-size="10.00">SITL::Log_Write_SIMSTATE</text>
</a>
</g>
</g>
<!-- Node1&#45;&gt;Node12 -->
<g id="edge12" class="edge"><title>Node1&#45;&gt;Node12</title>
<path fill="none" stroke="midnightblue" d="M112.356,-86C120.905,-86 129.758,-86 138.479,-86"/>
<polygon fill="midnightblue" stroke="midnightblue" points="112.107,-82.5001 102.107,-86 112.107,-89.5001 112.107,-82.5001"/>
</g>
<!-- Node13 -->
<g id="node13" class="node"><title>Node13</title>
<g id="a_node13"><a xlink:href="$classJSBSim.html#abad0f6f9ffe6ec49ae911c2ab54df3ef" xlink:title="JSBSim::recv_fdm">
<polygon fill="white" stroke="black" points="160.5,-38.5 160.5,-57.5 259.5,-57.5 259.5,-38.5 160.5,-38.5"/>
<text text-anchor="middle" x="210" y="-45.5" font-family="Helvetica,sans-Serif" font-size="10.00">JSBSim::recv_fdm</text>
</a>
</g>
</g>
<!-- Node1&#45;&gt;Node13 -->
<g id="edge13" class="edge"><title>Node1&#45;&gt;Node13</title>
<path fill="none" stroke="midnightblue" d="M112.015,-71.4741C131.287,-66.8096 152.135,-61.7636 169.545,-57.5497"/>
<polygon fill="midnightblue" stroke="midnightblue" points="111.003,-68.1178 102.107,-73.8721 112.65,-74.9213 111.003,-68.1178"/>
</g>
<!-- Node15 -->
<g id="node15" class="node"><title>Node15</title>
<g id="a_node15"><a xlink:href="$classSITL.html#a32e3faa3b5fdc06167ef84e0460dcab4" xlink:title="SITL::simstate_send">
<polygon fill="white" stroke="black" points="156.5,-0.5 156.5,-19.5 263.5,-19.5 263.5,-0.5 156.5,-0.5"/>
<text text-anchor="middle" x="210" y="-7.5" font-family="Helvetica,sans-Serif" font-size="10.00">SITL::simstate_send</text>
</a>
</g>
</g>
<!-- Node1&#45;&gt;Node15 -->
<g id="edge15" class="edge"><title>Node1&#45;&gt;Node15</title>
<path fill="none" stroke="midnightblue" d="M78.7763,-64.9649C95.1139,-52.9907 116.862,-38.5259 138,-29 146.26,-25.2777 155.399,-22.1587 164.295,-19.5946"/>
<polygon fill="midnightblue" stroke="midnightblue" points="76.6709,-62.1689 70.7579,-70.9602 80.8627,-67.7751 76.6709,-62.1689"/>
</g>
<!-- Node3 -->
<g id="node3" class="node"><title>Node3</title>
<g id="a_node3"><a xlink:href="$classHALSITL_1_1SITL__State.html#ae31c93a26ca780bb508dded2498e2e93" xlink:title="HALSITL::SITL_State\l::_fdm_input_step">
<polygon fill="white" stroke="black" points="318.5,-164 318.5,-194 431.5,-194 431.5,-164 318.5,-164"/>
<text text-anchor="start" x="326.5" y="-182" font-family="Helvetica,sans-Serif" font-size="10.00">HALSITL::SITL_State</text>
<text text-anchor="middle" x="375" y="-171" font-family="Helvetica,sans-Serif" font-size="10.00">::_fdm_input_step</text>
</a>
</g>
</g>
<!-- Node2&#45;&gt;Node3 -->
<g id="edge2" class="edge"><title>Node2&#45;&gt;Node3</title>
<path fill="none" stroke="midnightblue" d="M276.985,-179C290.703,-179 305.031,-179 318.335,-179"/>
<polygon fill="midnightblue" stroke="midnightblue" points="276.639,-175.5 266.639,-179 276.639,-182.5 276.639,-175.5"/>
</g>
<!-- Node4 -->
<g id="node4" class="node"><title>Node4</title>
<g id="a_node4"><a xlink:href="$classHALSITL_1_1SITL__State.html#a3eeaf330efded46259bbf64fc53e6b9f" xlink:title="HALSITL::SITL_State\l::wait_clock">
<polygon fill="white" stroke="black" points="471.5,-164 471.5,-194 584.5,-194 584.5,-164 471.5,-164"/>
<text text-anchor="start" x="479.5" y="-182" font-family="Helvetica,sans-Serif" font-size="10.00">HALSITL::SITL_State</text>
<text text-anchor="middle" x="528" y="-171" font-family="Helvetica,sans-Serif" font-size="10.00">::wait_clock</text>
</a>
</g>
</g>
<!-- Node3&#45;&gt;Node4 -->
<g id="edge3" class="edge"><title>Node3&#45;&gt;Node4</title>
<path fill="none" stroke="midnightblue" d="M441.941,-179C451.779,-179 461.837,-179 471.432,-179"/>
<polygon fill="midnightblue" stroke="midnightblue" points="441.798,-175.5 431.798,-179 441.798,-182.5 441.798,-175.5"/>
</g>
<!-- Node5 -->
<g id="node5" class="node"><title>Node5</title>
<g id="a_node5"><a xlink:href="$classHALSITL_1_1SITLScheduler.html#a4128e7f01b3e88fcb890ed98d91e9b10" xlink:title="HALSITL::SITLScheduler\l::delay_microseconds">
<polygon fill="white" stroke="black" points="624,-164 624,-194 752,-194 752,-164 624,-164"/>
<text text-anchor="start" x="632" y="-182" font-family="Helvetica,sans-Serif" font-size="10.00">HALSITL::SITLScheduler</text>
<text text-anchor="middle" x="688" y="-171" font-family="Helvetica,sans-Serif" font-size="10.00">::delay_microseconds</text>
</a>
</g>
</g>
<!-- Node4&#45;&gt;Node5 -->
<g id="edge4" class="edge"><title>Node4&#45;&gt;Node5</title>
<path fill="none" stroke="midnightblue" d="M594.988,-179C604.586,-179 614.447,-179 623.984,-179"/>
<polygon fill="midnightblue" stroke="midnightblue" points="594.705,-175.5 584.705,-179 594.705,-182.5 594.705,-175.5"/>
</g>
<!-- Node6 -->
<g id="node6" class="node"><title>Node6</title>
<g id="a_node6"><a xlink:href="$classHALSITL_1_1SITLScheduler.html#af7f89d00311bc23d39e38d1a0861cc42" xlink:title="HALSITL::SITLScheduler\l::delay">
<polygon fill="white" stroke="black" points="788,-164 788,-194 916,-194 916,-164 788,-164"/>
<text text-anchor="start" x="796" y="-182" font-family="Helvetica,sans-Serif" font-size="10.00">HALSITL::SITLScheduler</text>
<text text-anchor="middle" x="852" y="-171" font-family="Helvetica,sans-Serif" font-size="10.00">::delay</text>
</a>
</g>
</g>
<!-- Node5&#45;&gt;Node6 -->
<g id="edge5" class="edge"><title>Node5&#45;&gt;Node6</title>
<path fill="none" stroke="midnightblue" d="M762.374,-179C770.865,-179 779.469,-179 787.808,-179"/>
<polygon fill="midnightblue" stroke="midnightblue" points="762.097,-175.5 752.097,-179 762.097,-182.5 762.097,-175.5"/>
</g>
<!-- Node7&#45;&gt;Node3 -->
<g id="edge11" class="edge"><title>Node7&#45;&gt;Node3</title>
<path fill="none" stroke="midnightblue" d="M271.253,-148.113C288.582,-153.322 307.289,-158.946 323.93,-163.948"/>
<polygon fill="midnightblue" stroke="midnightblue" points="271.82,-144.629 261.235,-145.101 269.804,-151.332 271.82,-144.629"/>
</g>
<!-- Node8 -->
<g id="node8" class="node"><title>Node8</title>
<g id="a_node8"><a xlink:href="$classHALSITL_1_1SITL__State.html#a431cc90b2798830af85bcd65d0dade9f" xlink:title="HALSITL::SITL_State\l::_sitl_setup">
<polygon fill="white" stroke="black" points="318.5,-115 318.5,-145 431.5,-145 431.5,-115 318.5,-115"/>
<text text-anchor="start" x="326.5" y="-133" font-family="Helvetica,sans-Serif" font-size="10.00">HALSITL::SITL_State</text>
<text text-anchor="middle" x="375" y="-122" font-family="Helvetica,sans-Serif" font-size="10.00">::_sitl_setup</text>
</a>
</g>
</g>
<!-- Node7&#45;&gt;Node8 -->
<g id="edge7" class="edge"><title>Node7&#45;&gt;Node8</title>
<path fill="none" stroke="midnightblue" d="M276.985,-130C290.703,-130 305.031,-130 318.335,-130"/>
<polygon fill="midnightblue" stroke="midnightblue" points="276.639,-126.5 266.639,-130 276.639,-133.5 276.639,-126.5"/>
</g>
<!-- Node9 -->
<g id="node9" class="node"><title>Node9</title>
<g id="a_node9"><a xlink:href="$classHALSITL_1_1SITL__State.html#a5211ba971055052489d9817c3388c4c2" xlink:title="HALSITL::SITL_State\l::_parse_command_line">
<polygon fill="white" stroke="black" points="468,-115 468,-145 588,-145 588,-115 468,-115"/>
<text text-anchor="start" x="476" y="-133" font-family="Helvetica,sans-Serif" font-size="10.00">HALSITL::SITL_State</text>
<text text-anchor="middle" x="528" y="-122" font-family="Helvetica,sans-Serif" font-size="10.00">::_parse_command_line</text>
</a>
</g>
</g>
<!-- Node8&#45;&gt;Node9 -->
<g id="edge8" class="edge"><title>Node8&#45;&gt;Node9</title>
<path fill="none" stroke="midnightblue" d="M441.857,-130C450.516,-130 459.348,-130 467.886,-130"/>
<polygon fill="midnightblue" stroke="midnightblue" points="441.798,-126.5 431.798,-130 441.798,-133.5 441.798,-126.5"/>
</g>
<!-- Node10 -->
<g id="node10" class="node"><title>Node10</title>
<g id="a_node10"><a xlink:href="$classHALSITL_1_1SITL__State.html#a7059cb4e279007aae9b06757a68c15af" xlink:title="HALSITL::SITL_State\l::init">
<polygon fill="white" stroke="black" points="631.5,-115 631.5,-145 744.5,-145 744.5,-115 631.5,-115"/>
<text text-anchor="start" x="639.5" y="-133" font-family="Helvetica,sans-Serif" font-size="10.00">HALSITL::SITL_State</text>
<text text-anchor="middle" x="688" y="-122" font-family="Helvetica,sans-Serif" font-size="10.00">::init</text>
</a>
</g>
</g>
<!-- Node9&#45;&gt;Node10 -->
<g id="edge9" class="edge"><title>Node9&#45;&gt;Node10</title>
<path fill="none" stroke="midnightblue" d="M598.318,-130C609.35,-130 620.639,-130 631.305,-130"/>
<polygon fill="midnightblue" stroke="midnightblue" points="598.283,-126.5 588.283,-130 598.283,-133.5 598.283,-126.5"/>
</g>
<!-- Node11 -->
<g id="node11" class="node"><title>Node11</title>
<g id="a_node11"><a xlink:href="$classHAL__SITL.html#aaee5180f1c92899c19422d24a3ec42d3" xlink:title="HAL_SITL::init">
<polygon fill="white" stroke="black" points="811.5,-120.5 811.5,-139.5 892.5,-139.5 892.5,-120.5 811.5,-120.5"/>
<text text-anchor="middle" x="852" y="-127.5" font-family="Helvetica,sans-Serif" font-size="10.00">HAL_SITL::init</text>
</a>
</g>
</g>
<!-- Node10&#45;&gt;Node11 -->
<g id="edge10" class="edge"><title>Node10&#45;&gt;Node11</title>
<path fill="none" stroke="midnightblue" d="M754.956,-130C774.141,-130 794.492,-130 811.5,-130"/>
<polygon fill="midnightblue" stroke="midnightblue" points="754.751,-126.5 744.751,-130 754.751,-133.5 754.751,-126.5"/>
</g>
<!-- Node14 -->
<g id="node14" class="node"><title>Node14</title>
<g id="a_node14"><a xlink:href="$classJSBSim.html#af578b81cce90bf59daea6eccc4c09549" xlink:title="JSBSim::update">
<polygon fill="white" stroke="black" points="331,-38.5 331,-57.5 419,-57.5 419,-38.5 331,-38.5"/>
<text text-anchor="middle" x="375" y="-45.5" font-family="Helvetica,sans-Serif" font-size="10.00">JSBSim::update</text>
</a>
</g>
</g>
<!-- Node13&#45;&gt;Node14 -->
<g id="edge14" class="edge"><title>Node13&#45;&gt;Node14</title>
<path fill="none" stroke="midnightblue" d="M269.929,-48C290.095,-48 312.263,-48 330.939,-48"/>
<polygon fill="midnightblue" stroke="midnightblue" points="269.905,-44.5001 259.905,-48 269.905,-51.5001 269.905,-44.5001"/>
</g>
</g>
</svg>
