<?xml version="1.0" encoding="UTF-8" standalone="no"?>
<!DOCTYPE svg PUBLIC "-//W3C//DTD SVG 1.1//EN"
 "http://www.w3.org/Graphics/SVG/1.1/DTD/svg11.dtd">
<!-- Generated by graphviz version 2.36.0 (20140111.2315)
 -->
<!-- Title: AC_PosControl::get_stopping_point_z Pages: 1 -->
<svg width="426pt" height="136pt"
 viewBox="0.00 0.00 426.00 136.00" xmlns="http://www.w3.org/2000/svg" xmlns:xlink="http://www.w3.org/1999/xlink">
<g id="graph0" class="graph" transform="scale(1 1) rotate(0) translate(4 132)">
<title>AC_PosControl::get_stopping_point_z</title>
<polygon fill="white" stroke="none" points="-4,4 -4,-132 422,-132 422,4 -4,4"/>
<!-- Node1 -->
<g id="node1" class="node"><title>Node1</title>
<polygon fill="#bfbfbf" stroke="black" points="0,-44 0,-74 104,-74 104,-44 0,-44"/>
<text text-anchor="start" x="8" y="-62" font-family="Helvetica,sans-Serif" font-size="10.00">AC_PosControl::get</text>
<text text-anchor="middle" x="52" y="-51" font-family="Helvetica,sans-Serif" font-size="10.00">_stopping_point_z</text>
</g>
<!-- Node2 -->
<g id="node2" class="node"><title>Node2</title>
<g id="a_node2"><a xlink:href="$classAC__WPNav.html#a2b69b65d22efd7793a6f081678f9b8a1" xlink:title="AC_WPNav::set_spline\l_destination">
<polygon fill="white" stroke="black" points="160.5,-98 160.5,-128 281.5,-128 281.5,-98 160.5,-98"/>
<text text-anchor="start" x="168.5" y="-116" font-family="Helvetica,sans-Serif" font-size="10.00">AC_WPNav::set_spline</text>
<text text-anchor="middle" x="221" y="-105" font-family="Helvetica,sans-Serif" font-size="10.00">_destination</text>
</a>
</g>
</g>
<!-- Node1&#45;&gt;Node2 -->
<g id="edge1" class="edge"><title>Node1&#45;&gt;Node2</title>
<path fill="none" stroke="midnightblue" d="M107.399,-77.3084C118.19,-80.8905 129.444,-84.5916 140,-88 150.109,-91.2639 160.957,-94.6992 171.302,-97.9428"/>
<polygon fill="midnightblue" stroke="midnightblue" points="108.247,-73.9018 97.6533,-74.064 106.036,-80.5434 108.247,-73.9018"/>
</g>
<!-- Node3 -->
<g id="node3" class="node"><title>Node3</title>
<g id="a_node3"><a xlink:href="$classAC__PosControl.html#a51caffd56dd27f42595df30f63cd1eaa" xlink:title="set_target_to_stopping_point_z &#45; sets altitude target to reasonable stopping altitude in cm above hom...">
<polygon fill="white" stroke="black" points="169,-38.5 169,-79.5 273,-79.5 273,-38.5 169,-38.5"/>
<text text-anchor="start" x="177" y="-67.5" font-family="Helvetica,sans-Serif" font-size="10.00">AC_PosControl::set</text>
<text text-anchor="start" x="177" y="-56.5" font-family="Helvetica,sans-Serif" font-size="10.00">_target_to_stopping</text>
<text text-anchor="middle" x="221" y="-45.5" font-family="Helvetica,sans-Serif" font-size="10.00">_point_z</text>
</a>
</g>
</g>
<!-- Node1&#45;&gt;Node3 -->
<g id="edge2" class="edge"><title>Node1&#45;&gt;Node3</title>
<path fill="none" stroke="midnightblue" d="M114.089,-59C132.03,-59 151.462,-59 168.724,-59"/>
<polygon fill="midnightblue" stroke="midnightblue" points="114.013,-55.5001 104.013,-59 114.013,-62.5001 114.013,-55.5001"/>
</g>
<!-- Node5 -->
<g id="node5" class="node"><title>Node5</title>
<g id="a_node5"><a xlink:href="$classAC__WPNav.html#aac204111a3f01e04d5b8165f03db223e" xlink:title="set_wp_destination waypoint using position vector (distance from home in cm) ">
<polygon fill="white" stroke="black" points="140.5,-0.5 140.5,-19.5 301.5,-19.5 301.5,-0.5 140.5,-0.5"/>
<text text-anchor="middle" x="221" y="-7.5" font-family="Helvetica,sans-Serif" font-size="10.00">AC_WPNav::set_wp_destination</text>
</a>
</g>
</g>
<!-- Node1&#45;&gt;Node5 -->
<g id="edge4" class="edge"><title>Node1&#45;&gt;Node5</title>
<path fill="none" stroke="midnightblue" d="M103.636,-40.5955C115.495,-36.5482 128.133,-32.4461 140,-29 151.653,-25.6162 164.387,-22.3848 176.199,-19.5776"/>
<polygon fill="midnightblue" stroke="midnightblue" points="102.197,-37.3896 93.8911,-43.9666 104.486,-44.0049 102.197,-37.3896"/>
</g>
<!-- Node4 -->
<g id="node4" class="node"><title>Node4</title>
<g id="a_node4"><a xlink:href="$classAC__Circle.html#aeecf8efd6d546820ee831e749935df8b" xlink:title="AC_Circle::init">
<polygon fill="white" stroke="black" points="338,-49.5 338,-68.5 418,-68.5 418,-49.5 338,-49.5"/>
<text text-anchor="middle" x="378" y="-56.5" font-family="Helvetica,sans-Serif" font-size="10.00">AC_Circle::init</text>
</a>
</g>
</g>
<!-- Node3&#45;&gt;Node4 -->
<g id="edge3" class="edge"><title>Node3&#45;&gt;Node4</title>
<path fill="none" stroke="midnightblue" d="M283.206,-59C301.535,-59 321.137,-59 337.657,-59"/>
<polygon fill="midnightblue" stroke="midnightblue" points="283.182,-55.5001 273.182,-59 283.182,-62.5001 283.182,-55.5001"/>
</g>
</g>
</svg>
