<?xml version="1.0" encoding="UTF-8" standalone="no"?>
<!DOCTYPE svg PUBLIC "-//W3C//DTD SVG 1.1//EN"
 "http://www.w3.org/Graphics/SVG/1.1/DTD/svg11.dtd">
<!-- Generated by graphviz version 2.36.0 (20140111.2315)
 -->
<!-- Title: NavEKF::getEulerAngles Pages: 1 -->
<svg width="640pt" height="77pt"
 viewBox="0.00 0.00 640.00 77.00" xmlns="http://www.w3.org/2000/svg" xmlns:xlink="http://www.w3.org/1999/xlink">
<g id="graph0" class="graph" transform="scale(1 1) rotate(0) translate(4 73)">
<title>NavEKF::getEulerAngles</title>
<polygon fill="white" stroke="none" points="-4,4 -4,-73 636,-73 636,4 -4,4"/>
<!-- Node1 -->
<g id="node1" class="node"><title>Node1</title>
<polygon fill="#bfbfbf" stroke="black" points="0,-22.5 0,-41.5 126,-41.5 126,-22.5 0,-22.5"/>
<text text-anchor="middle" x="63" y="-29.5" font-family="Helvetica,sans-Serif" font-size="10.00">NavEKF::getEulerAngles</text>
</g>
<!-- Node2 -->
<g id="node2" class="node"><title>Node2</title>
<g id="a_node2"><a xlink:href="$classNavEKF.html#a24a9b1e9c8504aa4821f2459c7ae6117" xlink:title="NavEKF::alignYawGPS">
<polygon fill="white" stroke="black" points="162.5,-42.5 162.5,-61.5 283.5,-61.5 283.5,-42.5 162.5,-42.5"/>
<text text-anchor="middle" x="223" y="-49.5" font-family="Helvetica,sans-Serif" font-size="10.00">NavEKF::alignYawGPS</text>
</a>
</g>
</g>
<!-- Node1&#45;&gt;Node2 -->
<g id="edge1" class="edge"><title>Node1&#45;&gt;Node2</title>
<path fill="none" stroke="midnightblue" d="M136.514,-41.179C145.153,-42.2726 153.897,-43.3793 162.327,-44.4464"/>
<polygon fill="midnightblue" stroke="midnightblue" points="136.806,-37.6881 126.446,-39.9045 135.927,-44.6327 136.806,-37.6881"/>
</g>
<!-- Node6 -->
<g id="node6" class="node"><title>Node6</title>
<g id="a_node6"><a xlink:href="$classNavEKF.html#a9eb8c77b7f824e2ebbf378f1d269290b" xlink:title="NavEKF::performArmingChecks">
<polygon fill="white" stroke="black" points="320,-0.5 320,-19.5 478,-19.5 478,-0.5 320,-0.5"/>
<text text-anchor="middle" x="399" y="-7.5" font-family="Helvetica,sans-Serif" font-size="10.00">NavEKF::performArmingChecks</text>
</a>
</g>
</g>
<!-- Node1&#45;&gt;Node6 -->
<g id="edge5" class="edge"><title>Node1&#45;&gt;Node6</title>
<path fill="none" stroke="midnightblue" d="M136.245,-27.2413C190.358,-23.677 264.309,-18.806 319.807,-15.1504"/>
<polygon fill="midnightblue" stroke="midnightblue" points="135.788,-23.7637 126.04,-27.9135 136.249,-30.7486 135.788,-23.7637"/>
</g>
<!-- Node3 -->
<g id="node3" class="node"><title>Node3</title>
<g id="a_node3"><a xlink:href="$classNavEKF.html#a02ca7503660ded3d95abce7c81d2eebf" xlink:title="NavEKF::SetFlightAndFusion\lModes">
<polygon fill="white" stroke="black" points="326,-39 326,-69 472,-69 472,-39 326,-39"/>
<text text-anchor="start" x="334" y="-57" font-family="Helvetica,sans-Serif" font-size="10.00">NavEKF::SetFlightAndFusion</text>
<text text-anchor="middle" x="399" y="-46" font-family="Helvetica,sans-Serif" font-size="10.00">Modes</text>
</a>
</g>
</g>
<!-- Node2&#45;&gt;Node3 -->
<g id="edge2" class="edge"><title>Node2&#45;&gt;Node3</title>
<path fill="none" stroke="midnightblue" d="M293.888,-52.8033C304.46,-52.9248 315.383,-53.0504 325.999,-53.1724"/>
<polygon fill="midnightblue" stroke="midnightblue" points="293.921,-49.3036 283.881,-52.6883 293.84,-56.3031 293.921,-49.3036"/>
</g>
<!-- Node4 -->
<g id="node4" class="node"><title>Node4</title>
<g id="a_node4"><a xlink:href="$classNavEKF.html#a290932b02347c5247f036fbc3c7af9d8" xlink:title="NavEKF::InitialiseFilter\lBootstrap">
<polygon fill="white" stroke="black" points="514,-39 514,-69 632,-69 632,-39 514,-39"/>
<text text-anchor="start" x="522" y="-57" font-family="Helvetica,sans-Serif" font-size="10.00">NavEKF::InitialiseFilter</text>
<text text-anchor="middle" x="573" y="-46" font-family="Helvetica,sans-Serif" font-size="10.00">Bootstrap</text>
</a>
</g>
</g>
<!-- Node3&#45;&gt;Node4 -->
<g id="edge3" class="edge"><title>Node3&#45;&gt;Node4</title>
<path fill="none" stroke="midnightblue" d="M482.581,-54C493.198,-54 503.884,-54 513.991,-54"/>
<polygon fill="midnightblue" stroke="midnightblue" points="482.445,-50.5001 472.445,-54 482.445,-57.5001 482.445,-50.5001"/>
</g>
<!-- Node5 -->
<g id="node5" class="node"><title>Node5</title>
<g id="a_node5"><a xlink:href="$classNavEKF.html#a58d3c9694abab421e8eadd78e72ac67c" xlink:title="NavEKF::UpdateFilter">
<polygon fill="white" stroke="black" points="516.5,-0.5 516.5,-19.5 629.5,-19.5 629.5,-0.5 516.5,-0.5"/>
<text text-anchor="middle" x="573" y="-7.5" font-family="Helvetica,sans-Serif" font-size="10.00">NavEKF::UpdateFilter</text>
</a>
</g>
</g>
<!-- Node3&#45;&gt;Node5 -->
<g id="edge4" class="edge"><title>Node3&#45;&gt;Node5</title>
<path fill="none" stroke="midnightblue" d="M468.612,-36.4482C491.207,-30.668 515.474,-24.4602 534.815,-19.5124"/>
<polygon fill="midnightblue" stroke="midnightblue" points="467.532,-33.1115 458.712,-38.9808 469.267,-39.8932 467.532,-33.1115"/>
</g>
<!-- Node6&#45;&gt;Node5 -->
<g id="edge6" class="edge"><title>Node6&#45;&gt;Node5</title>
<path fill="none" stroke="midnightblue" d="M488.481,-10C497.962,-10 507.403,-10 516.342,-10"/>
<polygon fill="midnightblue" stroke="midnightblue" points="488.199,-6.5001 478.199,-10 488.199,-13.5001 488.199,-6.5001"/>
</g>
</g>
</svg>
