<?xml version="1.0" encoding="UTF-8" standalone="no"?>
<!DOCTYPE svg PUBLIC "-//W3C//DTD SVG 1.1//EN"
 "http://www.w3.org/Graphics/SVG/1.1/DTD/svg11.dtd">
<!-- Generated by graphviz version 2.36.0 (20140111.2315)
 -->
<!-- Title: AP_HAL::I2CDriver::get_semaphore Pages: 1 -->
<svg width="1034pt" height="979pt"
 viewBox="0.00 0.00 1034.00 979.00" xmlns="http://www.w3.org/2000/svg" xmlns:xlink="http://www.w3.org/1999/xlink">
<g id="graph0" class="graph" transform="scale(1 1) rotate(0) translate(4 975)">
<title>AP_HAL::I2CDriver::get_semaphore</title>
<polygon fill="white" stroke="none" points="-4,4 -4,-975 1030,-975 1030,4 -4,4"/>
<!-- Node1 -->
<g id="node1" class="node"><title>Node1</title>
<polygon fill="#bfbfbf" stroke="black" points="0.5,-443 0.5,-473 109.5,-473 109.5,-443 0.5,-443"/>
<text text-anchor="start" x="8.5" y="-461" font-family="Helvetica,sans-Serif" font-size="10.00">AP_HAL::I2CDriver::</text>
<text text-anchor="middle" x="55" y="-450" font-family="Helvetica,sans-Serif" font-size="10.00">get_semaphore</text>
</g>
<!-- Node2 -->
<g id="node2" class="node"><title>Node2</title>
<g id="a_node2"><a xlink:href="$classAP__InertialSensor__Flymaple.html#a32d60b04ff0fb6a80961502d8f9dad12" xlink:title="AP_InertialSensor_Flymaple\l::_accumulate">
<polygon fill="white" stroke="black" points="154,-903 154,-933 294,-933 294,-903 154,-903"/>
<text text-anchor="start" x="162" y="-921" font-family="Helvetica,sans-Serif" font-size="10.00">AP_InertialSensor_Flymaple</text>
<text text-anchor="middle" x="224" y="-910" font-family="Helvetica,sans-Serif" font-size="10.00">::_accumulate</text>
</a>
</g>
</g>
<!-- Node1&#45;&gt;Node2 -->
<g id="edge1" class="edge"><title>Node1&#45;&gt;Node2</title>
<path fill="none" stroke="midnightblue" d="M57.9438,-483.318C64.8373,-566.758 90.7243,-831.288 146,-893 149.47,-896.874 153.545,-900.15 157.978,-902.92"/>
<polygon fill="midnightblue" stroke="midnightblue" points="61.4212,-482.895 57.1292,-473.209 54.4438,-483.458 61.4212,-482.895"/>
</g>
<!-- Node5 -->
<g id="node5" class="node"><title>Node5</title>
<g id="a_node5"><a xlink:href="$classAP__InertialSensor__MPU9150.html#aabb66a96ba3568bc39fcb2ed8381e06d" xlink:title="Accumulate values from accels and gyros. ">
<polygon fill="white" stroke="black" points="152,-854 152,-884 296,-884 296,-854 152,-854"/>
<text text-anchor="start" x="160" y="-872" font-family="Helvetica,sans-Serif" font-size="10.00">AP_InertialSensor_MPU9150</text>
<text text-anchor="middle" x="224" y="-861" font-family="Helvetica,sans-Serif" font-size="10.00">::_accumulate</text>
</a>
</g>
</g>
<!-- Node1&#45;&gt;Node5 -->
<g id="edge4" class="edge"><title>Node1&#45;&gt;Node5</title>
<path fill="none" stroke="midnightblue" d="M58.9261,-483.516C68.1484,-559.888 98.8232,-784.734 146,-839 151.365,-845.172 158.159,-850.082 165.478,-853.987"/>
<polygon fill="midnightblue" stroke="midnightblue" points="62.3754,-482.882 57.7216,-473.364 55.4241,-483.706 62.3754,-482.882"/>
</g>
<!-- Node6 -->
<g id="node6" class="node"><title>Node6</title>
<g id="a_node6"><a xlink:href="$classAP__InertialSensor__MPU9150.html#a5d916ede262de822fd6ab45c93e036ae" xlink:title="AP_InertialSensor_MPU9150\l::_init_sensor">
<polygon fill="white" stroke="black" points="340,-821 340,-851 484,-851 484,-821 340,-821"/>
<text text-anchor="start" x="348" y="-839" font-family="Helvetica,sans-Serif" font-size="10.00">AP_InertialSensor_MPU9150</text>
<text text-anchor="middle" x="412" y="-828" font-family="Helvetica,sans-Serif" font-size="10.00">::_init_sensor</text>
</a>
</g>
</g>
<!-- Node1&#45;&gt;Node6 -->
<g id="edge14" class="edge"><title>Node1&#45;&gt;Node6</title>
<path fill="none" stroke="midnightblue" d="M58.8747,-483.21C67.6739,-555.662 96.6815,-762.028 146,-805 174.07,-829.458 271.376,-835.423 339.9,-836.476"/>
<polygon fill="midnightblue" stroke="midnightblue" points="62.335,-482.669 57.6793,-473.151 55.3839,-483.495 62.335,-482.669"/>
</g>
<!-- Node8 -->
<g id="node8" class="node"><title>Node8</title>
<g id="a_node8"><a xlink:href="$classAP__InertialSensor__L3G4200D.html#a098ecca44fb9347a42c12de1abdbc777" xlink:title="AP_InertialSensor_L3G4200\lD::_accumulate">
<polygon fill="white" stroke="black" points="154,-766 154,-796 294,-796 294,-766 154,-766"/>
<text text-anchor="start" x="162" y="-784" font-family="Helvetica,sans-Serif" font-size="10.00">AP_InertialSensor_L3G4200</text>
<text text-anchor="middle" x="224" y="-773" font-family="Helvetica,sans-Serif" font-size="10.00">D::_accumulate</text>
</a>
</g>
</g>
<!-- Node1&#45;&gt;Node8 -->
<g id="edge7" class="edge"><title>Node1&#45;&gt;Node8</title>
<path fill="none" stroke="midnightblue" d="M56.6693,-483.387C59.4877,-539.109 73.8432,-673.335 146,-751 151.664,-757.096 158.714,-761.97 166.231,-765.862"/>
<polygon fill="midnightblue" stroke="midnightblue" points="60.1635,-483.173 56.2458,-473.329 53.1697,-483.467 60.1635,-483.173"/>
</g>
<!-- Node9 -->
<g id="node9" class="node"><title>Node9</title>
<g id="a_node9"><a xlink:href="$classAP__InertialSensor__L3G4200D.html#ab760fee272b11822568d94d55734d2f2" xlink:title="AP_InertialSensor_L3G4200\lD::_init_sensor">
<polygon fill="white" stroke="black" points="342,-744 342,-774 482,-774 482,-744 342,-744"/>
<text text-anchor="start" x="350" y="-762" font-family="Helvetica,sans-Serif" font-size="10.00">AP_InertialSensor_L3G4200</text>
<text text-anchor="middle" x="412" y="-751" font-family="Helvetica,sans-Serif" font-size="10.00">D::_init_sensor</text>
</a>
</g>
</g>
<!-- Node1&#45;&gt;Node9 -->
<g id="edge15" class="edge"><title>Node1&#45;&gt;Node9</title>
<path fill="none" stroke="midnightblue" d="M56.6781,-483.35C59.5553,-535.9 74.0847,-656.822 146,-717 174.936,-741.214 273.37,-751.601 341.756,-755.964"/>
<polygon fill="midnightblue" stroke="midnightblue" points="60.1685,-483.053 56.2246,-473.22 53.1755,-483.367 60.1685,-483.053"/>
</g>
<!-- Node10 -->
<g id="node10" class="node"><title>Node10</title>
<g id="a_node10"><a xlink:href="$classAP__InertialSensor__Flymaple.html#ab88dfea90e4a971be10615f68d4e89bf" xlink:title="AP_InertialSensor_Flymaple\l::_init_sensor">
<polygon fill="white" stroke="black" points="154,-465 154,-495 294,-495 294,-465 154,-465"/>
<text text-anchor="start" x="162" y="-483" font-family="Helvetica,sans-Serif" font-size="10.00">AP_InertialSensor_Flymaple</text>
<text text-anchor="middle" x="224" y="-472" font-family="Helvetica,sans-Serif" font-size="10.00">::_init_sensor</text>
</a>
</g>
</g>
<!-- Node1&#45;&gt;Node10 -->
<g id="edge9" class="edge"><title>Node1&#45;&gt;Node10</title>
<path fill="none" stroke="midnightblue" d="M119.802,-466.405C130.915,-467.869 142.522,-469.398 153.773,-470.88"/>
<polygon fill="midnightblue" stroke="midnightblue" points="120.131,-462.918 109.759,-465.082 119.216,-469.858 120.131,-462.918"/>
</g>
<!-- Node15 -->
<g id="node15" class="node"><title>Node15</title>
<g id="a_node15"><a xlink:href="$classAP__Airspeed__I2C.html#ae0c3a29113f2d510c326ebfc9c430ba6" xlink:title="AP_Airspeed_I2C::_timer">
<polygon fill="white" stroke="black" points="160,-601.5 160,-620.5 288,-620.5 288,-601.5 160,-601.5"/>
<text text-anchor="middle" x="224" y="-608.5" font-family="Helvetica,sans-Serif" font-size="10.00">AP_Airspeed_I2C::_timer</text>
</a>
</g>
</g>
<!-- Node1&#45;&gt;Node15 -->
<g id="edge16" class="edge"><title>Node1&#45;&gt;Node15</title>
<path fill="none" stroke="midnightblue" d="M65.838,-482.621C79.2997,-513.076 106.395,-564.281 146,-592 151.528,-595.869 157.76,-598.952 164.225,-601.41"/>
<polygon fill="midnightblue" stroke="midnightblue" points="68.9414,-480.976 61.797,-473.153 62.5032,-483.724 68.9414,-480.976"/>
</g>
<!-- Node16 -->
<g id="node16" class="node"><title>Node16</title>
<g id="a_node16"><a xlink:href="$classAP__Airspeed__I2C.html#a4b23d137404cccf692266d066dd126dc" xlink:title="AP_Airspeed_I2C::init">
<polygon fill="white" stroke="black" points="355.5,-620.5 355.5,-639.5 468.5,-639.5 468.5,-620.5 355.5,-620.5"/>
<text text-anchor="middle" x="412" y="-627.5" font-family="Helvetica,sans-Serif" font-size="10.00">AP_Airspeed_I2C::init</text>
</a>
</g>
</g>
<!-- Node1&#45;&gt;Node16 -->
<g id="edge39" class="edge"><title>Node1&#45;&gt;Node16</title>
<path fill="none" stroke="midnightblue" d="M60.6154,-482.879C69.405,-522.237 92.653,-597.705 146,-630 219.795,-674.673 327.649,-653.907 380.084,-639.596"/>
<polygon fill="midnightblue" stroke="midnightblue" points="64.0271,-482.094 58.5503,-473.025 57.1759,-483.53 64.0271,-482.094"/>
</g>
<!-- Node17 -->
<g id="node17" class="node"><title>Node17</title>
<g id="a_node17"><a xlink:href="$classAP__Baro__BMP085.html#a17a0aef961a4ce8aa39073d889f678d6" xlink:title="AP_Baro_BMP085::accumulate">
<polygon fill="white" stroke="black" points="146.5,-563.5 146.5,-582.5 301.5,-582.5 301.5,-563.5 146.5,-563.5"/>
<text text-anchor="middle" x="224" y="-570.5" font-family="Helvetica,sans-Serif" font-size="10.00">AP_Baro_BMP085::accumulate</text>
</a>
</g>
</g>
<!-- Node1&#45;&gt;Node17 -->
<g id="edge18" class="edge"><title>Node1&#45;&gt;Node17</title>
<path fill="none" stroke="midnightblue" d="M72.0874,-481.364C88.2815,-503.114 115.22,-534.83 146,-553 153.374,-557.353 161.693,-560.771 170.066,-563.451"/>
<polygon fill="midnightblue" stroke="midnightblue" points="74.728,-479.043 66.0238,-473.003 69.0613,-483.153 74.728,-479.043"/>
</g>
<!-- Node20 -->
<g id="node20" class="node"><title>Node20</title>
<g id="a_node20"><a xlink:href="$classAP__Baro__BMP085.html#a2391b8ea8db43eed0d79e419798e747f" xlink:title="AP_Baro_BMP085::AP\l_Baro_BMP085">
<polygon fill="white" stroke="black" points="165,-514 165,-544 283,-544 283,-514 165,-514"/>
<text text-anchor="start" x="173" y="-532" font-family="Helvetica,sans-Serif" font-size="10.00">AP_Baro_BMP085::AP</text>
<text text-anchor="middle" x="224" y="-521" font-family="Helvetica,sans-Serif" font-size="10.00">_Baro_BMP085</text>
</a>
</g>
</g>
<!-- Node1&#45;&gt;Node20 -->
<g id="edge21" class="edge"><title>Node1&#45;&gt;Node20</title>
<path fill="none" stroke="midnightblue" d="M91.7933,-477.946C108.054,-486.575 127.709,-496.412 146,-504 154.439,-507.5 163.556,-510.835 172.463,-513.862"/>
<polygon fill="midnightblue" stroke="midnightblue" points="93.1127,-474.682 82.6471,-473.032 89.7992,-480.848 93.1127,-474.682"/>
</g>
<!-- Node21 -->
<g id="node21" class="node"><title>Node21</title>
<g id="a_node21"><a xlink:href="$classAP__RangeFinder__MaxsonarI2CXL.html#a43b8ffc54c0ed66221d0bb61c3e181e9" xlink:title="AP_RangeFinder_MaxsonarI2\lCXL::get_reading">
<polygon fill="white" stroke="black" points="338.5,-44 338.5,-74 485.5,-74 485.5,-44 338.5,-44"/>
<text text-anchor="start" x="346.5" y="-62" font-family="Helvetica,sans-Serif" font-size="10.00">AP_RangeFinder_MaxsonarI2</text>
<text text-anchor="middle" x="412" y="-51" font-family="Helvetica,sans-Serif" font-size="10.00">CXL::get_reading</text>
</a>
</g>
</g>
<!-- Node1&#45;&gt;Node21 -->
<g id="edge22" class="edge"><title>Node1&#45;&gt;Node21</title>
<path fill="none" stroke="midnightblue" d="M58.2039,-432.386C65.4456,-354.76 91.2442,-124.581 146,-78 174.018,-54.1648 269.993,-52.655 338.367,-54.9035"/>
<polygon fill="midnightblue" stroke="midnightblue" points="54.6868,-432.417 57.2689,-442.692 61.6582,-433.049 54.6868,-432.417"/>
</g>
<!-- Node27 -->
<g id="node27" class="node"><title>Node27</title>
<g id="a_node27"><a xlink:href="$classAP__RangeFinder__PulsedLightLRF.html#a51ff133034bca6db07bbf0792e3df4c2" xlink:title="AP_RangeFinder_PulsedLight\lLRF::get_reading">
<polygon fill="white" stroke="black" points="338.5,-207 338.5,-237 485.5,-237 485.5,-207 338.5,-207"/>
<text text-anchor="start" x="346.5" y="-225" font-family="Helvetica,sans-Serif" font-size="10.00">AP_RangeFinder_PulsedLight</text>
<text text-anchor="middle" x="412" y="-214" font-family="Helvetica,sans-Serif" font-size="10.00">LRF::get_reading</text>
</a>
</g>
</g>
<!-- Node1&#45;&gt;Node27 -->
<g id="edge28" class="edge"><title>Node1&#45;&gt;Node27</title>
<path fill="none" stroke="midnightblue" d="M119.84,-453.613C182.71,-448.204 273.362,-437.149 302,-417 366.709,-371.473 397.504,-274.678 407.345,-237.233"/>
<polygon fill="midnightblue" stroke="midnightblue" points="119.288,-450.147 109.613,-454.465 119.869,-457.123 119.288,-450.147"/>
</g>
<!-- Node30 -->
<g id="node30" class="node"><title>Node30</title>
<g id="a_node30"><a xlink:href="$classToshibaLED__I2C.html#ab4c128ad9e8774de9a9a7714d5d15041" xlink:title="ToshibaLED_I2C::hw_init">
<polygon fill="white" stroke="black" points="160,-388.5 160,-407.5 288,-407.5 288,-388.5 160,-388.5"/>
<text text-anchor="middle" x="224" y="-395.5" font-family="Helvetica,sans-Serif" font-size="10.00">ToshibaLED_I2C::hw_init</text>
</a>
</g>
</g>
<!-- Node1&#45;&gt;Node30 -->
<g id="edge32" class="edge"><title>Node1&#45;&gt;Node30</title>
<path fill="none" stroke="midnightblue" d="M101.233,-439.103C115.47,-433.373 131.312,-427.218 146,-422 160.382,-416.891 176.476,-411.782 190.217,-407.599"/>
<polygon fill="midnightblue" stroke="midnightblue" points="99.6163,-435.982 91.6668,-442.986 102.249,-442.468 99.6163,-435.982"/>
</g>
<!-- Node31 -->
<g id="node31" class="node"><title>Node31</title>
<g id="a_node31"><a xlink:href="$classNavioLED__I2C.html#ab5b4acc02c35ce1888079283bdc06393" xlink:title="NavioLED_I2C::hw_init">
<polygon fill="white" stroke="black" points="164.5,-350.5 164.5,-369.5 283.5,-369.5 283.5,-350.5 164.5,-350.5"/>
<text text-anchor="middle" x="224" y="-357.5" font-family="Helvetica,sans-Serif" font-size="10.00">NavioLED_I2C::hw_init</text>
</a>
</g>
</g>
<!-- Node1&#45;&gt;Node31 -->
<g id="edge33" class="edge"><title>Node1&#45;&gt;Node31</title>
<path fill="none" stroke="midnightblue" d="M76.1739,-435.076C93.1067,-417.231 118.83,-393.185 146,-379 153.445,-375.113 161.715,-371.999 169.992,-369.512"/>
<polygon fill="midnightblue" stroke="midnightblue" points="73.2652,-433.066 69.0389,-442.782 78.4014,-437.822 73.2652,-433.066"/>
</g>
<!-- Node32 -->
<g id="node32" class="node"><title>Node32</title>
<g id="a_node32"><a xlink:href="$classToshibaLED__I2C.html#abe896d953097bcc6b91e1284779f3a27" xlink:title="ToshibaLED_I2C::hw\l_set_rgb">
<polygon fill="white" stroke="black" points="169,-301 169,-331 279,-331 279,-301 169,-301"/>
<text text-anchor="start" x="177" y="-319" font-family="Helvetica,sans-Serif" font-size="10.00">ToshibaLED_I2C::hw</text>
<text text-anchor="middle" x="224" y="-308" font-family="Helvetica,sans-Serif" font-size="10.00">_set_rgb</text>
</a>
</g>
</g>
<!-- Node1&#45;&gt;Node32 -->
<g id="edge34" class="edge"><title>Node1&#45;&gt;Node32</title>
<path fill="none" stroke="midnightblue" d="M68.7555,-433.716C83.8325,-407.268 111.314,-365.477 146,-341 152.89,-336.138 160.78,-332.181 168.823,-328.973"/>
<polygon fill="midnightblue" stroke="midnightblue" points="65.5595,-432.262 63.7717,-442.705 71.6816,-435.656 65.5595,-432.262"/>
</g>
<!-- Node33 -->
<g id="node33" class="node"><title>Node33</title>
<g id="a_node33"><a xlink:href="$classNavioLED__I2C.html#a7885b121c2a3598707a79c80eca2ae9c" xlink:title="NavioLED_I2C::hw_set_rgb">
<polygon fill="white" stroke="black" points="154.5,-262.5 154.5,-281.5 293.5,-281.5 293.5,-262.5 154.5,-262.5"/>
<text text-anchor="middle" x="224" y="-269.5" font-family="Helvetica,sans-Serif" font-size="10.00">NavioLED_I2C::hw_set_rgb</text>
</a>
</g>
</g>
<!-- Node1&#45;&gt;Node33 -->
<g id="edge35" class="edge"><title>Node1&#45;&gt;Node33</title>
<path fill="none" stroke="midnightblue" d="M62.4925,-432.873C73.3646,-395.968 98.8458,-327.537 146,-291 151.007,-287.121 156.7,-284.022 162.672,-281.549"/>
<polygon fill="midnightblue" stroke="midnightblue" points="59.0333,-432.246 59.6932,-442.82 65.7715,-434.142 59.0333,-432.246"/>
</g>
<!-- Node34 -->
<g id="node34" class="node"><title>Node34</title>
<g id="a_node34"><a xlink:href="$classLinux_1_1LinuxRCOutput__Navio.html#af499aa521845cdedd35be326cafeabe4" xlink:title="Linux::LinuxRCOutput\l_Navio::init">
<polygon fill="white" stroke="black" points="167.5,-213 167.5,-243 280.5,-243 280.5,-213 167.5,-213"/>
<text text-anchor="start" x="175.5" y="-231" font-family="Helvetica,sans-Serif" font-size="10.00">Linux::LinuxRCOutput</text>
<text text-anchor="middle" x="224" y="-220" font-family="Helvetica,sans-Serif" font-size="10.00">_Navio::init</text>
</a>
</g>
</g>
<!-- Node1&#45;&gt;Node34 -->
<g id="edge36" class="edge"><title>Node1&#45;&gt;Node34</title>
<path fill="none" stroke="midnightblue" d="M60.1375,-433.029C68.5491,-390.093 91.6663,-302.167 146,-253 152.149,-247.436 159.553,-243.109 167.308,-239.744"/>
<polygon fill="midnightblue" stroke="midnightblue" points="56.6845,-432.454 58.3058,-442.924 63.5676,-433.728 56.6845,-432.454"/>
</g>
<!-- Node35 -->
<g id="node35" class="node"><title>Node35</title>
<g id="a_node35"><a xlink:href="$classAP__ADC__ADS1115.html#ab9dda3a5715a514b78effc0164e6a1c9" xlink:title="AP_ADC_ADS1115::init">
<polygon fill="white" stroke="black" points="162.5,-125.5 162.5,-144.5 285.5,-144.5 285.5,-125.5 162.5,-125.5"/>
<text text-anchor="middle" x="224" y="-132.5" font-family="Helvetica,sans-Serif" font-size="10.00">AP_ADC_ADS1115::init</text>
</a>
</g>
</g>
<!-- Node1&#45;&gt;Node35 -->
<g id="edge37" class="edge"><title>Node1&#45;&gt;Node35</title>
<path fill="none" stroke="midnightblue" d="M55.5986,-432.552C56.1361,-374.303 65.9773,-230.431 146,-154 150.68,-149.53 156.237,-146.061 162.191,-143.376"/>
<polygon fill="midnightblue" stroke="midnightblue" points="52.0986,-432.705 55.5943,-442.707 59.0986,-432.708 52.0986,-432.705"/>
</g>
<!-- Node37 -->
<g id="node37" class="node"><title>Node37</title>
<g id="a_node37"><a xlink:href="$classAP__Compass__HMC5843.html#ae8fe5f87eb75452d7cfd4293a9bbfc7e" xlink:title="AP_Compass_HMC5843\l::init">
<polygon fill="white" stroke="black" points="160.5,-678 160.5,-708 287.5,-708 287.5,-678 160.5,-678"/>
<text text-anchor="start" x="168.5" y="-696" font-family="Helvetica,sans-Serif" font-size="10.00">AP_Compass_HMC5843</text>
<text text-anchor="middle" x="224" y="-685" font-family="Helvetica,sans-Serif" font-size="10.00">::init</text>
</a>
</g>
</g>
<!-- Node1&#45;&gt;Node37 -->
<g id="edge40" class="edge"><title>Node1&#45;&gt;Node37</title>
<path fill="none" stroke="midnightblue" d="M60.5025,-482.962C69.4236,-525.519 93.2334,-612.413 146,-663 152.317,-669.056 159.996,-673.93 168.029,-677.84"/>
<polygon fill="midnightblue" stroke="midnightblue" points="63.9335,-482.27 58.5467,-473.146 57.0685,-483.638 63.9335,-482.27"/>
</g>
<!-- Node41 -->
<g id="node41" class="node"><title>Node41</title>
<g id="a_node41"><a xlink:href="$classAP__SerialBus__I2C.html#a7a50f3e44ec9922edac62dc0c8f01ab9" xlink:title="AP_SerialBus_I2C::init">
<polygon fill="white" stroke="black" points="165.5,-87.5 165.5,-106.5 282.5,-106.5 282.5,-87.5 165.5,-87.5"/>
<text text-anchor="middle" x="224" y="-94.5" font-family="Helvetica,sans-Serif" font-size="10.00">AP_SerialBus_I2C::init</text>
</a>
</g>
</g>
<!-- Node1&#45;&gt;Node41 -->
<g id="edge45" class="edge"><title>Node1&#45;&gt;Node41</title>
<path fill="none" stroke="midnightblue" d="M59.3214,-432.513C69.1371,-361.057 100.218,-161.082 146,-116 151.396,-110.687 158.028,-106.779 165.115,-103.919"/>
<polygon fill="midnightblue" stroke="midnightblue" points="55.7975,-432.456 57.9296,-442.834 62.7347,-433.391 55.7975,-432.456"/>
</g>
<!-- Node42 -->
<g id="node42" class="node"><title>Node42</title>
<g id="a_node42"><a xlink:href="$classAP__RangeFinder__MaxsonarI2CXL.html#a51188886a94d87fc3ebb795c0b40f0e4" xlink:title="AP_RangeFinder_MaxsonarI2\lCXL::start_reading">
<polygon fill="white" stroke="black" points="150.5,-0 150.5,-30 297.5,-30 297.5,-0 150.5,-0"/>
<text text-anchor="start" x="158.5" y="-18" font-family="Helvetica,sans-Serif" font-size="10.00">AP_RangeFinder_MaxsonarI2</text>
<text text-anchor="middle" x="224" y="-7" font-family="Helvetica,sans-Serif" font-size="10.00">CXL::start_reading</text>
</a>
</g>
</g>
<!-- Node1&#45;&gt;Node42 -->
<g id="edge46" class="edge"><title>Node1&#45;&gt;Node42</title>
<path fill="none" stroke="midnightblue" d="M58.4155,-432.511C66.5193,-351.939 95.1296,-104.554 146,-45 151.218,-38.8911 157.838,-34.0192 164.997,-30.1356"/>
<polygon fill="midnightblue" stroke="midnightblue" points="54.9056,-432.441 57.408,-442.736 61.8718,-433.127 54.9056,-432.441"/>
</g>
<!-- Node43 -->
<g id="node43" class="node"><title>Node43</title>
<g id="a_node43"><a xlink:href="$classAP__RangeFinder__PulsedLightLRF.html#aeb01c92de42ba4e384ef2a3cbc84f51f" xlink:title="AP_RangeFinder_PulsedLight\lLRF::start_reading">
<polygon fill="white" stroke="black" points="150.5,-164 150.5,-194 297.5,-194 297.5,-164 150.5,-164"/>
<text text-anchor="start" x="158.5" y="-182" font-family="Helvetica,sans-Serif" font-size="10.00">AP_RangeFinder_PulsedLight</text>
<text text-anchor="middle" x="224" y="-171" font-family="Helvetica,sans-Serif" font-size="10.00">LRF::start_reading</text>
</a>
</g>
</g>
<!-- Node1&#45;&gt;Node43 -->
<g id="edge49" class="edge"><title>Node1&#45;&gt;Node43</title>
<path fill="none" stroke="midnightblue" d="M57.6194,-432.789C62.2468,-381.985 79.8573,-266.73 146,-203 149.529,-199.6 153.533,-196.68 157.815,-194.174"/>
<polygon fill="midnightblue" stroke="midnightblue" points="54.1205,-432.634 56.7965,-442.885 61.0974,-433.202 54.1205,-432.634"/>
</g>
<!-- Node3 -->
<g id="node3" class="node"><title>Node3</title>
<g id="a_node3"><a xlink:href="$classAP__InertialSensor__Flymaple.html#acabcad15c670bdc2abd47717f2aa247d" xlink:title="AP_InertialSensor_Flymaple\l::accel_sample_available">
<polygon fill="white" stroke="black" points="342,-941 342,-971 482,-971 482,-941 342,-941"/>
<text text-anchor="start" x="350" y="-959" font-family="Helvetica,sans-Serif" font-size="10.00">AP_InertialSensor_Flymaple</text>
<text text-anchor="middle" x="412" y="-948" font-family="Helvetica,sans-Serif" font-size="10.00">::accel_sample_available</text>
</a>
</g>
</g>
<!-- Node2&#45;&gt;Node3 -->
<g id="edge2" class="edge"><title>Node2&#45;&gt;Node3</title>
<path fill="none" stroke="midnightblue" d="M304.238,-934.188C316.795,-936.754 329.694,-939.389 341.992,-941.902"/>
<polygon fill="midnightblue" stroke="midnightblue" points="304.758,-930.722 294.26,-932.15 303.357,-937.581 304.758,-930.722"/>
</g>
<!-- Node4 -->
<g id="node4" class="node"><title>Node4</title>
<g id="a_node4"><a xlink:href="$classAP__InertialSensor__Flymaple.html#a230a816a3d10d0f4a2e6135eca4a8613" xlink:title="AP_InertialSensor_Flymaple\l::gyro_sample_available">
<polygon fill="white" stroke="black" points="342,-892 342,-922 482,-922 482,-892 342,-892"/>
<text text-anchor="start" x="350" y="-910" font-family="Helvetica,sans-Serif" font-size="10.00">AP_InertialSensor_Flymaple</text>
<text text-anchor="middle" x="412" y="-899" font-family="Helvetica,sans-Serif" font-size="10.00">::gyro_sample_available</text>
</a>
</g>
</g>
<!-- Node2&#45;&gt;Node4 -->
<g id="edge3" class="edge"><title>Node2&#45;&gt;Node4</title>
<path fill="none" stroke="midnightblue" d="M304.611,-913.292C317.051,-912.556 329.816,-911.801 341.992,-911.081"/>
<polygon fill="midnightblue" stroke="midnightblue" points="304.035,-909.82 294.26,-913.904 304.449,-916.807 304.035,-909.82"/>
</g>
<!-- Node5&#45;&gt;Node6 -->
<g id="edge5" class="edge"><title>Node5&#45;&gt;Node6</title>
<path fill="none" stroke="midnightblue" d="M305.97,-854.634C317.275,-852.629 328.821,-850.58 339.925,-848.61"/>
<polygon fill="midnightblue" stroke="midnightblue" points="305.35,-851.19 296.115,-856.383 306.572,-858.082 305.35,-851.19"/>
</g>
<!-- Node7 -->
<g id="node7" class="node"><title>Node7</title>
<g id="a_node7"><a xlink:href="$classAP__InertialSensor__MPU9150.html#a5ccaed9383c0dd4ba0450d690f2284b7" xlink:title="AP_InertialSensor_MPU9150\l::detect">
<polygon fill="white" stroke="black" points="524,-821 524,-851 668,-851 668,-821 524,-821"/>
<text text-anchor="start" x="532" y="-839" font-family="Helvetica,sans-Serif" font-size="10.00">AP_InertialSensor_MPU9150</text>
<text text-anchor="middle" x="596" y="-828" font-family="Helvetica,sans-Serif" font-size="10.00">::detect</text>
</a>
</g>
</g>
<!-- Node6&#45;&gt;Node7 -->
<g id="edge6" class="edge"><title>Node6&#45;&gt;Node7</title>
<path fill="none" stroke="midnightblue" d="M494.344,-836C504.2,-836 514.209,-836 523.902,-836"/>
<polygon fill="midnightblue" stroke="midnightblue" points="494.148,-832.5 484.148,-836 494.148,-839.5 494.148,-832.5"/>
</g>
<!-- Node8&#45;&gt;Node9 -->
<g id="edge8" class="edge"><title>Node8&#45;&gt;Node9</title>
<path fill="none" stroke="midnightblue" d="M304.238,-771.628C316.795,-770.143 329.694,-768.617 341.992,-767.162"/>
<polygon fill="midnightblue" stroke="midnightblue" points="303.779,-768.158 294.26,-772.808 304.601,-775.109 303.779,-768.158"/>
</g>
<!-- Node11 -->
<g id="node11" class="node"><title>Node11</title>
<g id="a_node11"><a xlink:href="$classAP__InertialSensor__Flymaple.html#ae3e691d7e30d800ca000f31c7cbb4b6b" xlink:title="AP_InertialSensor_Flymaple\l::detect">
<polygon fill="white" stroke="black" points="342,-476 342,-506 482,-506 482,-476 342,-476"/>
<text text-anchor="start" x="350" y="-494" font-family="Helvetica,sans-Serif" font-size="10.00">AP_InertialSensor_Flymaple</text>
<text text-anchor="middle" x="412" y="-483" font-family="Helvetica,sans-Serif" font-size="10.00">::detect</text>
</a>
</g>
</g>
<!-- Node10&#45;&gt;Node11 -->
<g id="edge10" class="edge"><title>Node10&#45;&gt;Node11</title>
<path fill="none" stroke="midnightblue" d="M304.611,-484.708C317.051,-485.444 329.816,-486.199 341.992,-486.919"/>
<polygon fill="midnightblue" stroke="midnightblue" points="304.449,-481.193 294.26,-484.096 304.035,-488.18 304.449,-481.193"/>
</g>
<!-- Node12 -->
<g id="node12" class="node"><title>Node12</title>
<g id="a_node12"><a xlink:href="$classAP__InertialSensor.html#abcf5d2923286a28097d2b3f8ca18e915" xlink:title="AP_InertialSensor::\l_detect_backends">
<polygon fill="white" stroke="black" points="545.5,-515 545.5,-545 646.5,-545 646.5,-515 545.5,-515"/>
<text text-anchor="start" x="553.5" y="-533" font-family="Helvetica,sans-Serif" font-size="10.00">AP_InertialSensor::</text>
<text text-anchor="middle" x="596" y="-522" font-family="Helvetica,sans-Serif" font-size="10.00">_detect_backends</text>
</a>
</g>
</g>
<!-- Node11&#45;&gt;Node12 -->
<g id="edge11" class="edge"><title>Node11&#45;&gt;Node12</title>
<path fill="none" stroke="midnightblue" d="M492.021,-507.933C510.091,-511.805 528.803,-515.815 545.239,-519.337"/>
<polygon fill="midnightblue" stroke="midnightblue" points="492.577,-504.473 482.066,-505.8 491.111,-511.318 492.577,-504.473"/>
</g>
<!-- Node13 -->
<g id="node13" class="node"><title>Node13</title>
<g id="a_node13"><a xlink:href="$classAP__InertialSensor.html#ab0534f593e07f2d483ddd8c2b1bbf4d9" xlink:title="AP_InertialSensor::init">
<polygon fill="white" stroke="black" points="706,-531.5 706,-550.5 820,-550.5 820,-531.5 706,-531.5"/>
<text text-anchor="middle" x="763" y="-538.5" font-family="Helvetica,sans-Serif" font-size="10.00">AP_InertialSensor::init</text>
</a>
</g>
</g>
<!-- Node12&#45;&gt;Node13 -->
<g id="edge12" class="edge"><title>Node12&#45;&gt;Node13</title>
<path fill="none" stroke="midnightblue" d="M656.82,-533.988C672.83,-535.055 690.075,-536.205 705.878,-537.259"/>
<polygon fill="midnightblue" stroke="midnightblue" points="656.716,-530.473 646.505,-533.3 656.25,-537.458 656.716,-530.473"/>
</g>
<!-- Node14 -->
<g id="node14" class="node"><title>Node14</title>
<g id="a_node14"><a xlink:href="$AHRS__Test_8pde.html#a7dfd9b79bc5a37d7df40207afbc5431f" xlink:title="setup">
<polygon fill="white" stroke="black" points="881.5,-561.5 881.5,-580.5 922.5,-580.5 922.5,-561.5 881.5,-561.5"/>
<text text-anchor="middle" x="902" y="-568.5" font-family="Helvetica,sans-Serif" font-size="10.00">setup</text>
</a>
</g>
</g>
<!-- Node13&#45;&gt;Node14 -->
<g id="edge13" class="edge"><title>Node13&#45;&gt;Node14</title>
<path fill="none" stroke="midnightblue" d="M817.509,-552.717C839.959,-557.633 864.668,-563.044 881.337,-566.694"/>
<polygon fill="midnightblue" stroke="midnightblue" points="818.242,-549.295 807.724,-550.575 816.744,-556.133 818.242,-549.295"/>
</g>
<!-- Node15&#45;&gt;Node16 -->
<g id="edge17" class="edge"><title>Node15&#45;&gt;Node16</title>
<path fill="none" stroke="midnightblue" d="M298.344,-618.492C317.345,-620.433 337.492,-622.491 355.415,-624.322"/>
<polygon fill="midnightblue" stroke="midnightblue" points="298.535,-614.993 288.231,-617.459 297.823,-621.957 298.535,-614.993"/>
</g>
<!-- Node18 -->
<g id="node18" class="node"><title>Node18</title>
<g id="a_node18"><a xlink:href="$AP__Baro__BMP085__test_8pde.html#afe461d27b9c48d5921c00d521181f12f" xlink:title="loop">
<polygon fill="white" stroke="black" points="394.5,-573.5 394.5,-592.5 429.5,-592.5 429.5,-573.5 394.5,-573.5"/>
<text text-anchor="middle" x="412" y="-580.5" font-family="Helvetica,sans-Serif" font-size="10.00">loop</text>
</a>
</g>
</g>
<!-- Node17&#45;&gt;Node18 -->
<g id="edge19" class="edge"><title>Node17&#45;&gt;Node18</title>
<path fill="none" stroke="midnightblue" d="M311.823,-577.668C343.073,-579.348 375.257,-581.078 394.179,-582.096"/>
<polygon fill="midnightblue" stroke="midnightblue" points="311.901,-574.167 301.727,-577.125 311.525,-581.157 311.901,-574.167"/>
</g>
<!-- Node19 -->
<g id="node19" class="node"><title>Node19</title>
<g id="a_node19"><a xlink:href="$classAP__Baro__BMP085.html#a2aa3463e9e908fef68b1f5ab699f1357" xlink:title="AP_Baro_BMP085::update">
<polygon fill="white" stroke="black" points="345,-535.5 345,-554.5 479,-554.5 479,-535.5 345,-535.5"/>
<text text-anchor="middle" x="412" y="-542.5" font-family="Helvetica,sans-Serif" font-size="10.00">AP_Baro_BMP085::update</text>
</a>
</g>
</g>
<!-- Node17&#45;&gt;Node19 -->
<g id="edge20" class="edge"><title>Node17&#45;&gt;Node19</title>
<path fill="none" stroke="midnightblue" d="M298.262,-561.971C314.58,-559.515 331.748,-556.93 347.628,-554.54"/>
<polygon fill="midnightblue" stroke="midnightblue" points="297.598,-558.532 288.231,-563.481 298.64,-565.454 297.598,-558.532"/>
</g>
<!-- Node22 -->
<g id="node22" class="node"><title>Node22</title>
<g id="a_node22"><a xlink:href="$classAP__RangeFinder__MaxsonarI2CXL.html#a63b2fdab67041f94c16928e1764871b2" xlink:title="AP_RangeFinder_MaxsonarI2\lCXL::detect">
<polygon fill="white" stroke="black" points="522.5,-22 522.5,-52 669.5,-52 669.5,-22 522.5,-22"/>
<text text-anchor="start" x="530.5" y="-40" font-family="Helvetica,sans-Serif" font-size="10.00">AP_RangeFinder_MaxsonarI2</text>
<text text-anchor="middle" x="596" y="-29" font-family="Helvetica,sans-Serif" font-size="10.00">CXL::detect</text>
</a>
</g>
</g>
<!-- Node21&#45;&gt;Node22 -->
<g id="edge23" class="edge"><title>Node21&#45;&gt;Node22</title>
<path fill="none" stroke="midnightblue" d="M495.707,-49.0025C504.613,-47.9259 513.625,-46.8365 522.4,-45.7759"/>
<polygon fill="midnightblue" stroke="midnightblue" points="495.224,-45.5353 485.716,-50.2102 496.064,-52.4847 495.224,-45.5353"/>
</g>
<!-- Node26 -->
<g id="node26" class="node"><title>Node26</title>
<g id="a_node26"><a xlink:href="$classAP__RangeFinder__MaxsonarI2CXL.html#a6e990839c7d9bbced27ead7b6f4d3a38" xlink:title="AP_RangeFinder_MaxsonarI2\lCXL::update">
<polygon fill="white" stroke="black" points="522.5,-71 522.5,-101 669.5,-101 669.5,-71 522.5,-71"/>
<text text-anchor="start" x="530.5" y="-89" font-family="Helvetica,sans-Serif" font-size="10.00">AP_RangeFinder_MaxsonarI2</text>
<text text-anchor="middle" x="596" y="-78" font-family="Helvetica,sans-Serif" font-size="10.00">CXL::update</text>
</a>
</g>
</g>
<!-- Node21&#45;&gt;Node26 -->
<g id="edge27" class="edge"><title>Node21&#45;&gt;Node26</title>
<path fill="none" stroke="midnightblue" d="M495.707,-71.2697C504.613,-72.5909 513.625,-73.9279 522.4,-75.2296"/>
<polygon fill="midnightblue" stroke="midnightblue" points="496.121,-67.7929 485.716,-69.7875 495.094,-74.7172 496.121,-67.7929"/>
</g>
<!-- Node23 -->
<g id="node23" class="node"><title>Node23</title>
<g id="a_node23"><a xlink:href="$classRangeFinder.html#a7f7f9dce880eb37d53df67cba39bdda9" xlink:title="RangeFinder::detect\l_instance">
<polygon fill="white" stroke="black" points="710.5,-91 710.5,-121 815.5,-121 815.5,-91 710.5,-91"/>
<text text-anchor="start" x="718.5" y="-109" font-family="Helvetica,sans-Serif" font-size="10.00">RangeFinder::detect</text>
<text text-anchor="middle" x="763" y="-98" font-family="Helvetica,sans-Serif" font-size="10.00">_instance</text>
</a>
</g>
</g>
<!-- Node22&#45;&gt;Node23 -->
<g id="edge24" class="edge"><title>Node22&#45;&gt;Node23</title>
<path fill="none" stroke="midnightblue" d="M655.522,-55.4467C660.45,-57.2399 665.331,-59.1011 670,-61 691.906,-69.9092 715.882,-81.7072 733.865,-90.9878"/>
<polygon fill="midnightblue" stroke="midnightblue" points="656.623,-52.1239 646.028,-52.0901 654.29,-58.7235 656.623,-52.1239"/>
</g>
<!-- Node24 -->
<g id="node24" class="node"><title>Node24</title>
<g id="a_node24"><a xlink:href="$classRangeFinder.html#a1c2d6a488e35a856814b5d48ca3d5d9e" xlink:title="RangeFinder::init">
<polygon fill="white" stroke="black" points="856.5,-96.5 856.5,-115.5 947.5,-115.5 947.5,-96.5 856.5,-96.5"/>
<text text-anchor="middle" x="902" y="-103.5" font-family="Helvetica,sans-Serif" font-size="10.00">RangeFinder::init</text>
</a>
</g>
</g>
<!-- Node23&#45;&gt;Node24 -->
<g id="edge25" class="edge"><title>Node23&#45;&gt;Node24</title>
<path fill="none" stroke="midnightblue" d="M825.93,-106C836.167,-106 846.601,-106 856.307,-106"/>
<polygon fill="midnightblue" stroke="midnightblue" points="825.794,-102.5 815.794,-106 825.794,-109.5 825.794,-102.5"/>
</g>
<!-- Node25 -->
<g id="node25" class="node"><title>Node25</title>
<g id="a_node25"><a xlink:href="$RFIND__test_8pde.html#a4fc01d736fe50cf5b977f755b675f11d" xlink:title="setup">
<polygon fill="white" stroke="black" points="984.5,-96.5 984.5,-115.5 1025.5,-115.5 1025.5,-96.5 984.5,-96.5"/>
<text text-anchor="middle" x="1005" y="-103.5" font-family="Helvetica,sans-Serif" font-size="10.00">setup</text>
</a>
</g>
</g>
<!-- Node24&#45;&gt;Node25 -->
<g id="edge26" class="edge"><title>Node24&#45;&gt;Node25</title>
<path fill="none" stroke="midnightblue" d="M957.612,-106C967.212,-106 976.613,-106 984.414,-106"/>
<polygon fill="midnightblue" stroke="midnightblue" points="957.594,-102.5 947.594,-106 957.594,-109.5 957.594,-102.5"/>
</g>
<!-- Node28 -->
<g id="node28" class="node"><title>Node28</title>
<g id="a_node28"><a xlink:href="$classAP__RangeFinder__PulsedLightLRF.html#a12f05561023eacee38730a22aeaef09c" xlink:title="AP_RangeFinder_PulsedLight\lLRF::detect">
<polygon fill="white" stroke="black" points="522.5,-159 522.5,-189 669.5,-189 669.5,-159 522.5,-159"/>
<text text-anchor="start" x="530.5" y="-177" font-family="Helvetica,sans-Serif" font-size="10.00">AP_RangeFinder_PulsedLight</text>
<text text-anchor="middle" x="596" y="-166" font-family="Helvetica,sans-Serif" font-size="10.00">LRF::detect</text>
</a>
</g>
</g>
<!-- Node27&#45;&gt;Node28 -->
<g id="edge29" class="edge"><title>Node27&#45;&gt;Node28</title>
<path fill="none" stroke="midnightblue" d="M479.921,-204.351C499.031,-199.311 519.667,-193.868 538.116,-189.002"/>
<polygon fill="midnightblue" stroke="midnightblue" points="478.863,-201.01 470.087,-206.944 480.649,-207.778 478.863,-201.01"/>
</g>
<!-- Node29 -->
<g id="node29" class="node"><title>Node29</title>
<g id="a_node29"><a xlink:href="$classAP__RangeFinder__PulsedLightLRF.html#ac465541eac74267f6dc1fa06d0301aa4" xlink:title="AP_RangeFinder_PulsedLight\lLRF::update">
<polygon fill="white" stroke="black" points="522.5,-208 522.5,-238 669.5,-238 669.5,-208 522.5,-208"/>
<text text-anchor="start" x="530.5" y="-226" font-family="Helvetica,sans-Serif" font-size="10.00">AP_RangeFinder_PulsedLight</text>
<text text-anchor="middle" x="596" y="-215" font-family="Helvetica,sans-Serif" font-size="10.00">LRF::update</text>
</a>
</g>
</g>
<!-- Node27&#45;&gt;Node29 -->
<g id="edge31" class="edge"><title>Node27&#45;&gt;Node29</title>
<path fill="none" stroke="midnightblue" d="M495.994,-222.456C504.806,-222.504 513.72,-222.553 522.4,-222.601"/>
<polygon fill="midnightblue" stroke="midnightblue" points="495.735,-218.955 485.716,-222.4 495.696,-225.955 495.735,-218.955"/>
</g>
<!-- Node28&#45;&gt;Node23 -->
<g id="edge30" class="edge"><title>Node28&#45;&gt;Node23</title>
<path fill="none" stroke="midnightblue" d="M642.919,-155.076C668.982,-144.335 701.153,-131.076 725.484,-121.049"/>
<polygon fill="midnightblue" stroke="midnightblue" points="641.531,-151.862 633.619,-158.909 644.198,-158.334 641.531,-151.862"/>
</g>
<!-- Node36 -->
<g id="node36" class="node"><title>Node36</title>
<g id="a_node36"><a xlink:href="$classNavioAnalogIn.html#a86419e9f2486bef44753fb15f5bb3ae9" xlink:title="NavioAnalogIn::init">
<polygon fill="white" stroke="black" points="362.5,-125.5 362.5,-144.5 461.5,-144.5 461.5,-125.5 362.5,-125.5"/>
<text text-anchor="middle" x="412" y="-132.5" font-family="Helvetica,sans-Serif" font-size="10.00">NavioAnalogIn::init</text>
</a>
</g>
</g>
<!-- Node35&#45;&gt;Node36 -->
<g id="edge38" class="edge"><title>Node35&#45;&gt;Node36</title>
<path fill="none" stroke="midnightblue" d="M295.696,-135C317.888,-135 341.881,-135 362.204,-135"/>
<polygon fill="midnightblue" stroke="midnightblue" points="295.646,-131.5 285.646,-135 295.646,-138.5 295.646,-131.5"/>
</g>
<!-- Node38 -->
<g id="node38" class="node"><title>Node38</title>
<g id="a_node38"><a xlink:href="$classAP__Compass__HMC5843.html#a24c7d88a8f69532e40f96c5a0db25364" xlink:title="AP_Compass_HMC5843\l::detect">
<polygon fill="white" stroke="black" points="348.5,-678 348.5,-708 475.5,-708 475.5,-678 348.5,-678"/>
<text text-anchor="start" x="356.5" y="-696" font-family="Helvetica,sans-Serif" font-size="10.00">AP_Compass_HMC5843</text>
<text text-anchor="middle" x="412" y="-685" font-family="Helvetica,sans-Serif" font-size="10.00">::detect</text>
</a>
</g>
</g>
<!-- Node37&#45;&gt;Node38 -->
<g id="edge41" class="edge"><title>Node37&#45;&gt;Node38</title>
<path fill="none" stroke="midnightblue" d="M297.929,-693C314.557,-693 332.084,-693 348.244,-693"/>
<polygon fill="midnightblue" stroke="midnightblue" points="297.712,-689.5 287.712,-693 297.712,-696.5 297.712,-689.5"/>
</g>
<!-- Node39 -->
<g id="node39" class="node"><title>Node39</title>
<g id="a_node39"><a xlink:href="$classCompass.html#a1c48170d8c8966b22fb150b1634443ec" xlink:title="Compass::_detect_backends">
<polygon fill="white" stroke="black" points="524,-604.5 524,-623.5 668,-623.5 668,-604.5 524,-604.5"/>
<text text-anchor="middle" x="596" y="-611.5" font-family="Helvetica,sans-Serif" font-size="10.00">Compass::_detect_backends</text>
</a>
</g>
</g>
<!-- Node38&#45;&gt;Node39 -->
<g id="edge42" class="edge"><title>Node38&#45;&gt;Node39</title>
<path fill="none" stroke="midnightblue" d="M457.134,-673.843C493.812,-657.922 544.462,-635.937 573.051,-623.527"/>
<polygon fill="midnightblue" stroke="midnightblue" points="455.441,-670.762 447.661,-677.955 458.228,-677.184 455.441,-670.762"/>
</g>
<!-- Node40 -->
<g id="node40" class="node"><title>Node40</title>
<g id="a_node40"><a xlink:href="$classCompass.html#a190aefc281aba88c7b16e4fc58035c5e" xlink:title="Compass::init">
<polygon fill="white" stroke="black" points="724.5,-592.5 724.5,-611.5 801.5,-611.5 801.5,-592.5 724.5,-592.5"/>
<text text-anchor="middle" x="763" y="-599.5" font-family="Helvetica,sans-Serif" font-size="10.00">Compass::init</text>
</a>
</g>
</g>
<!-- Node39&#45;&gt;Node40 -->
<g id="edge43" class="edge"><title>Node39&#45;&gt;Node40</title>
<path fill="none" stroke="midnightblue" d="M678.795,-608.051C694.64,-606.899 710.521,-605.744 724.097,-604.757"/>
<polygon fill="midnightblue" stroke="midnightblue" points="678.132,-604.59 668.412,-608.806 678.639,-611.572 678.132,-604.59"/>
</g>
<!-- Node40&#45;&gt;Node14 -->
<g id="edge44" class="edge"><title>Node40&#45;&gt;Node14</title>
<path fill="none" stroke="midnightblue" d="M811.786,-591.187C835.713,-585.773 863.361,-579.517 881.459,-575.422"/>
<polygon fill="midnightblue" stroke="midnightblue" points="810.779,-587.826 801.799,-593.447 812.324,-594.654 810.779,-587.826"/>
</g>
<!-- Node42&#45;&gt;Node21 -->
<g id="edge48" class="edge"><title>Node42&#45;&gt;Node21</title>
<path fill="none" stroke="midnightblue" d="M298.457,-32.3769C314.666,-36.2112 331.704,-40.2418 347.48,-43.9738"/>
<polygon fill="midnightblue" stroke="midnightblue" points="299.028,-28.9154 288.49,-30.0192 297.416,-35.7274 299.028,-28.9154"/>
</g>
<!-- Node42&#45;&gt;Node22 -->
<g id="edge47" class="edge"><title>Node42&#45;&gt;Node22</title>
<path fill="none" stroke="midnightblue" d="M307.772,-19.9216C372.119,-23.7476 460.52,-29.0039 522.192,-32.6709"/>
<polygon fill="midnightblue" stroke="midnightblue" points="307.849,-16.4201 297.659,-19.3202 307.433,-23.4077 307.849,-16.4201"/>
</g>
<!-- Node43&#45;&gt;Node27 -->
<g id="edge51" class="edge"><title>Node43&#45;&gt;Node27</title>
<path fill="none" stroke="midnightblue" d="M299.957,-196.329C315.201,-199.853 331.118,-203.533 345.983,-206.969"/>
<polygon fill="midnightblue" stroke="midnightblue" points="300.585,-192.882 290.054,-194.039 299.008,-199.702 300.585,-192.882"/>
</g>
<!-- Node43&#45;&gt;Node28 -->
<g id="edge50" class="edge"><title>Node43&#45;&gt;Node28</title>
<path fill="none" stroke="midnightblue" d="M307.772,-177.881C372.119,-177.012 460.52,-175.817 522.192,-174.984"/>
<polygon fill="midnightblue" stroke="midnightblue" points="307.61,-174.383 297.659,-178.018 307.705,-181.383 307.61,-174.383"/>
</g>
</g>
</svg>
