<?xml version="1.0" encoding="UTF-8" standalone="no"?>
<!DOCTYPE svg PUBLIC "-//W3C//DTD SVG 1.1//EN"
 "http://www.w3.org/Graphics/SVG/1.1/DTD/svg11.dtd">
<!-- Generated by graphviz version 2.36.0 (20140111.2315)
 -->
<!-- Title: AP_InertialSensor_HIL::_init_sensor Pages: 1 -->
<svg width="408pt" height="136pt"
 viewBox="0.00 0.00 408.00 136.00" xmlns="http://www.w3.org/2000/svg" xmlns:xlink="http://www.w3.org/1999/xlink">
<g id="graph0" class="graph" transform="scale(1 1) rotate(0) translate(4 132)">
<title>AP_InertialSensor_HIL::_init_sensor</title>
<polygon fill="white" stroke="none" points="-4,4 -4,-132 404,-132 404,4 -4,4"/>
<!-- Node1 -->
<g id="node1" class="node"><title>Node1</title>
<polygon fill="#bfbfbf" stroke="black" points="0,-49 0,-79 116,-79 116,-49 0,-49"/>
<text text-anchor="start" x="8" y="-67" font-family="Helvetica,sans-Serif" font-size="10.00">AP_InertialSensor_HIL</text>
<text text-anchor="middle" x="58" y="-56" font-family="Helvetica,sans-Serif" font-size="10.00">::_init_sensor</text>
</g>
<!-- Node2 -->
<g id="node2" class="node"><title>Node2</title>
<g id="a_node2"><a xlink:href="$classAP__InertialSensor.html#addd35f196d6b741c06453716f7bd9091" xlink:title="AP_InertialSensor::\lregister_gyro">
<polygon fill="white" stroke="black" points="152.5,-98 152.5,-128 253.5,-128 253.5,-98 152.5,-98"/>
<text text-anchor="start" x="160.5" y="-116" font-family="Helvetica,sans-Serif" font-size="10.00">AP_InertialSensor::</text>
<text text-anchor="middle" x="203" y="-105" font-family="Helvetica,sans-Serif" font-size="10.00">register_gyro</text>
</a>
</g>
</g>
<!-- Node1&#45;&gt;Node2 -->
<g id="edge1" class="edge"><title>Node1&#45;&gt;Node2</title>
<path fill="none" stroke="midnightblue" d="M103.072,-79.1014C117.343,-83.9917 133.333,-89.4707 148.227,-94.5744"/>
<polygon fill="midnightblue" stroke="midnightblue" points="147.233,-97.9335 157.828,-97.8641 149.502,-91.3114 147.233,-97.9335"/>
</g>
<!-- Node4 -->
<g id="node4" class="node"><title>Node4</title>
<g id="a_node4"><a xlink:href="$classAP__InertialSensor.html#abcc47a3b7a03a08178904fd0aec0ee96" xlink:title="AP_InertialSensor::\lregister_accel">
<polygon fill="white" stroke="black" points="152.5,-49 152.5,-79 253.5,-79 253.5,-49 152.5,-49"/>
<text text-anchor="start" x="160.5" y="-67" font-family="Helvetica,sans-Serif" font-size="10.00">AP_InertialSensor::</text>
<text text-anchor="middle" x="203" y="-56" font-family="Helvetica,sans-Serif" font-size="10.00">register_accel</text>
</a>
</g>
</g>
<!-- Node1&#45;&gt;Node4 -->
<g id="edge3" class="edge"><title>Node1&#45;&gt;Node4</title>
<path fill="none" stroke="midnightblue" d="M116.34,-64C124.94,-64 133.826,-64 142.471,-64"/>
<polygon fill="midnightblue" stroke="midnightblue" points="142.478,-67.5001 152.478,-64 142.478,-60.5001 142.478,-67.5001"/>
</g>
<!-- Node5 -->
<g id="node5" class="node"><title>Node5</title>
<g id="a_node5"><a xlink:href="$classAP__InertialSensor.html#af26d20af4d59052beb786e684fdd4e65" xlink:title="AP_InertialSensor::\lset_hil_mode">
<polygon fill="white" stroke="black" points="152.5,-0 152.5,-30 253.5,-30 253.5,-0 152.5,-0"/>
<text text-anchor="start" x="160.5" y="-18" font-family="Helvetica,sans-Serif" font-size="10.00">AP_InertialSensor::</text>
<text text-anchor="middle" x="203" y="-7" font-family="Helvetica,sans-Serif" font-size="10.00">set_hil_mode</text>
</a>
</g>
</g>
<!-- Node1&#45;&gt;Node5 -->
<g id="edge5" class="edge"><title>Node1&#45;&gt;Node5</title>
<path fill="none" stroke="midnightblue" d="M103.072,-48.8986C117.343,-44.0083 133.333,-38.5293 148.227,-33.4256"/>
<polygon fill="midnightblue" stroke="midnightblue" points="149.502,-36.6886 157.828,-30.1359 147.233,-30.0665 149.502,-36.6886"/>
</g>
<!-- Node3 -->
<g id="node3" class="node"><title>Node3</title>
<g id="a_node3"><a xlink:href="$classAP__HAL_1_1Scheduler.html#a65f0d4e404d3e6fda4d8b0b101c9780f" xlink:title="AP_HAL::Scheduler::\lpanic">
<polygon fill="white" stroke="black" points="290,-73 290,-103 400,-103 400,-73 290,-73"/>
<text text-anchor="start" x="298" y="-91" font-family="Helvetica,sans-Serif" font-size="10.00">AP_HAL::Scheduler::</text>
<text text-anchor="middle" x="345" y="-80" font-family="Helvetica,sans-Serif" font-size="10.00">panic</text>
</a>
</g>
</g>
<!-- Node2&#45;&gt;Node3 -->
<g id="edge2" class="edge"><title>Node2&#45;&gt;Node3</title>
<path fill="none" stroke="midnightblue" d="M253.753,-104.116C262.113,-102.623 270.895,-101.054 279.563,-99.5066"/>
<polygon fill="midnightblue" stroke="midnightblue" points="280.424,-102.908 289.653,-97.7048 279.194,-96.0173 280.424,-102.908"/>
</g>
<!-- Node4&#45;&gt;Node3 -->
<g id="edge4" class="edge"><title>Node4&#45;&gt;Node3</title>
<path fill="none" stroke="midnightblue" d="M253.753,-72.5291C262.113,-73.9623 270.895,-75.4678 279.563,-76.9536"/>
<polygon fill="midnightblue" stroke="midnightblue" points="279.206,-80.4434 289.653,-78.6834 280.388,-73.544 279.206,-80.4434"/>
</g>
</g>
</svg>
