<?xml version="1.0" encoding="UTF-8" standalone="no"?>
<!DOCTYPE svg PUBLIC "-//W3C//DTD SVG 1.1//EN"
 "http://www.w3.org/Graphics/SVG/1.1/DTD/svg11.dtd">
<!-- Generated by graphviz version 2.36.0 (20140111.2315)
 -->
<!-- Title: Linux::LinuxStorage_FRAM::open Pages: 1 -->
<svg width="762pt" height="301pt"
 viewBox="0.00 0.00 762.00 301.00" xmlns="http://www.w3.org/2000/svg" xmlns:xlink="http://www.w3.org/1999/xlink">
<g id="graph0" class="graph" transform="scale(1 1) rotate(0) translate(4 297)">
<title>Linux::LinuxStorage_FRAM::open</title>
<polygon fill="white" stroke="none" points="-4,4 -4,-297 758,-297 758,4 -4,4"/>
<!-- Node1 -->
<g id="node1" class="node"><title>Node1</title>
<polygon fill="#bfbfbf" stroke="black" points="0.5,-150 0.5,-180 103.5,-180 103.5,-150 0.5,-150"/>
<text text-anchor="start" x="8.5" y="-168" font-family="Helvetica,sans-Serif" font-size="10.00">Linux::LinuxStorage</text>
<text text-anchor="middle" x="52" y="-157" font-family="Helvetica,sans-Serif" font-size="10.00">_FRAM::open</text>
</g>
<!-- Node2 -->
<g id="node2" class="node"><title>Node2</title>
<g id="a_node2"><a xlink:href="$classAP__HAL_1_1SPIDeviceManager.html#ab26a3e8f8b43e59376ce98aafd288452" xlink:title="AP_HAL::SPIDeviceManager\l::device">
<polygon fill="white" stroke="black" points="140,-263 140,-293 286,-293 286,-263 140,-263"/>
<text text-anchor="start" x="148" y="-281" font-family="Helvetica,sans-Serif" font-size="10.00">AP_HAL::SPIDeviceManager</text>
<text text-anchor="middle" x="213" y="-270" font-family="Helvetica,sans-Serif" font-size="10.00">::device</text>
</a>
</g>
</g>
<!-- Node1&#45;&gt;Node2 -->
<g id="edge1" class="edge"><title>Node1&#45;&gt;Node2</title>
<path fill="none" stroke="midnightblue" d="M65.7973,-180.24C81.6689,-198.365 110.283,-228.601 140,-248 146.003,-251.919 152.602,-255.499 159.294,-258.714"/>
<polygon fill="midnightblue" stroke="midnightblue" points="157.878,-261.915 168.429,-262.869 160.776,-255.543 157.878,-261.915"/>
</g>
<!-- Node3 -->
<g id="node3" class="node"><title>Node3</title>
<g id="a_node3"><a xlink:href="$classLinux_1_1LinuxStorage__FRAM.html#a3595b33fb16f0708473bc05a62b37070" xlink:title="Linux::LinuxStorage\l_FRAM::_register_read">
<polygon fill="white" stroke="black" points="322,-192 322,-222 440,-222 440,-192 322,-192"/>
<text text-anchor="start" x="330" y="-210" font-family="Helvetica,sans-Serif" font-size="10.00">Linux::LinuxStorage</text>
<text text-anchor="middle" x="381" y="-199" font-family="Helvetica,sans-Serif" font-size="10.00">_FRAM::_register_read</text>
</a>
</g>
</g>
<!-- Node1&#45;&gt;Node3 -->
<g id="edge2" class="edge"><title>Node1&#45;&gt;Node3</title>
<path fill="none" stroke="midnightblue" d="M72.7968,-180.091C89.6424,-191.924 115.016,-207.448 140,-214 196.465,-228.808 262.972,-225.32 311.637,-219.122"/>
<polygon fill="midnightblue" stroke="midnightblue" points="312.296,-222.565 321.741,-217.764 311.364,-215.628 312.296,-222.565"/>
</g>
<!-- Node9 -->
<g id="node9" class="node"><title>Node9</title>
<g id="a_node9"><a xlink:href="$classAP__HAL_1_1Scheduler.html#ab3175e2e6223ccfe82f957e41cc12b26" xlink:title="AP_HAL::Scheduler::\ldelay">
<polygon fill="white" stroke="black" points="158,-175 158,-205 268,-205 268,-175 158,-175"/>
<text text-anchor="start" x="166" y="-193" font-family="Helvetica,sans-Serif" font-size="10.00">AP_HAL::Scheduler::</text>
<text text-anchor="middle" x="213" y="-182" font-family="Helvetica,sans-Serif" font-size="10.00">delay</text>
</a>
</g>
</g>
<!-- Node1&#45;&gt;Node9 -->
<g id="edge8" class="edge"><title>Node1&#45;&gt;Node9</title>
<path fill="none" stroke="midnightblue" d="M103.746,-172.979C117.776,-175.185 133.187,-177.608 147.871,-179.917"/>
<polygon fill="midnightblue" stroke="midnightblue" points="147.472,-183.397 157.894,-181.493 148.559,-176.482 147.472,-183.397"/>
</g>
<!-- Node10 -->
<g id="node10" class="node"><title>Node10</title>
<g id="a_node10"><a xlink:href="$classAP__HAL_1_1Scheduler.html#a65f0d4e404d3e6fda4d8b0b101c9780f" xlink:title="AP_HAL::Scheduler::\lpanic">
<polygon fill="white" stroke="black" points="158,-126 158,-156 268,-156 268,-126 158,-126"/>
<text text-anchor="start" x="166" y="-144" font-family="Helvetica,sans-Serif" font-size="10.00">AP_HAL::Scheduler::</text>
<text text-anchor="middle" x="213" y="-133" font-family="Helvetica,sans-Serif" font-size="10.00">panic</text>
</a>
</g>
</g>
<!-- Node1&#45;&gt;Node10 -->
<g id="edge9" class="edge"><title>Node1&#45;&gt;Node10</title>
<path fill="none" stroke="midnightblue" d="M103.746,-157.34C117.776,-155.223 133.187,-152.896 147.871,-150.68"/>
<polygon fill="midnightblue" stroke="midnightblue" points="148.529,-154.12 157.894,-149.167 147.484,-147.199 148.529,-154.12"/>
</g>
<!-- Node11 -->
<g id="node11" class="node"><title>Node11</title>
<g id="a_node11"><a xlink:href="$classLinux_1_1LinuxStorage__FRAM.html#a4c38ed83df91957981d65f3cdb83a8ff" xlink:title="Linux::LinuxStorage\l_FRAM::_register_write">
<polygon fill="white" stroke="black" points="153,-77 153,-107 273,-107 273,-77 153,-77"/>
<text text-anchor="start" x="161" y="-95" font-family="Helvetica,sans-Serif" font-size="10.00">Linux::LinuxStorage</text>
<text text-anchor="middle" x="213" y="-84" font-family="Helvetica,sans-Serif" font-size="10.00">_FRAM::_register_write</text>
</a>
</g>
</g>
<!-- Node1&#45;&gt;Node11 -->
<g id="edge10" class="edge"><title>Node1&#45;&gt;Node11</title>
<path fill="none" stroke="midnightblue" d="M76.7349,-149.995C93.8746,-139.569 117.814,-125.837 140,-116 144.291,-114.097 148.782,-112.26 153.335,-110.505"/>
<polygon fill="midnightblue" stroke="midnightblue" points="154.559,-113.784 162.721,-107.028 152.127,-107.22 154.559,-113.784"/>
</g>
<!-- Node13 -->
<g id="node13" class="node"><title>Node13</title>
<g id="a_node13"><a xlink:href="$classAP__HAL_1_1Print.html#ad337ce3f7977411b7d34d47a51e5737e" xlink:title="AP_HAL::Print::println">
<polygon fill="white" stroke="black" points="156.5,-38.5 156.5,-57.5 269.5,-57.5 269.5,-38.5 156.5,-38.5"/>
<text text-anchor="middle" x="213" y="-45.5" font-family="Helvetica,sans-Serif" font-size="10.00">AP_HAL::Print::println</text>
</a>
</g>
</g>
<!-- Node1&#45;&gt;Node13 -->
<g id="edge14" class="edge"><title>Node1&#45;&gt;Node13</title>
<path fill="none" stroke="midnightblue" d="M62.2274,-149.889C76.2771,-128.188 105.118,-88.4538 140,-67 143.433,-64.8888 147.097,-63.0101 150.885,-61.3385"/>
<polygon fill="midnightblue" stroke="midnightblue" points="152.449,-64.4857 160.497,-57.5955 149.909,-57.9628 152.449,-64.4857"/>
</g>
<!-- Node4 -->
<g id="node4" class="node"><title>Node4</title>
<g id="a_node4"><a xlink:href="$classLinux_1_1LinuxStorage__FRAM.html#a051df265457f5a9f4bbfcd18f7d220b6" xlink:title="Linux::LinuxStorage\l_FRAM::transaction">
<polygon fill="white" stroke="black" points="477,-121 477,-151 581,-151 581,-121 477,-121"/>
<text text-anchor="start" x="485" y="-139" font-family="Helvetica,sans-Serif" font-size="10.00">Linux::LinuxStorage</text>
<text text-anchor="middle" x="529" y="-128" font-family="Helvetica,sans-Serif" font-size="10.00">_FRAM::transaction</text>
</a>
</g>
</g>
<!-- Node3&#45;&gt;Node4 -->
<g id="edge3" class="edge"><title>Node3&#45;&gt;Node4</title>
<path fill="none" stroke="midnightblue" d="M412.963,-191.943C434.836,-181.306 464.347,-166.954 488.003,-155.451"/>
<polygon fill="midnightblue" stroke="midnightblue" points="489.619,-158.556 497.082,-151.036 486.558,-152.261 489.619,-158.556"/>
</g>
<!-- Node5 -->
<g id="node5" class="node"><title>Node5</title>
<g id="a_node5"><a xlink:href="$classAP__HAL_1_1SPIDeviceDriver.html#a1c518b753148caee4d708c2311a9e548" xlink:title="AP_HAL::SPIDeviceDriver\l::get_semaphore">
<polygon fill="white" stroke="black" points="619,-196 619,-226 753,-226 753,-196 619,-196"/>
<text text-anchor="start" x="627" y="-214" font-family="Helvetica,sans-Serif" font-size="10.00">AP_HAL::SPIDeviceDriver</text>
<text text-anchor="middle" x="686" y="-203" font-family="Helvetica,sans-Serif" font-size="10.00">::get_semaphore</text>
</a>
</g>
</g>
<!-- Node4&#45;&gt;Node5 -->
<g id="edge4" class="edge"><title>Node4&#45;&gt;Node5</title>
<path fill="none" stroke="midnightblue" d="M554.101,-151.083C571.482,-161.613 595.711,-175.59 618,-186 622.593,-188.145 627.425,-190.242 632.303,-192.251"/>
<polygon fill="midnightblue" stroke="midnightblue" points="631.105,-195.541 641.69,-195.996 633.699,-189.039 631.105,-195.541"/>
</g>
<!-- Node6 -->
<g id="node6" class="node"><title>Node6</title>
<g id="a_node6"><a xlink:href="$classAP__HAL_1_1Semaphore.html#abd3a0affad8bb211981a979f30386589" xlink:title="AP_HAL::Semaphore::take">
<polygon fill="white" stroke="black" points="618.5,-157.5 618.5,-176.5 753.5,-176.5 753.5,-157.5 618.5,-157.5"/>
<text text-anchor="middle" x="686" y="-164.5" font-family="Helvetica,sans-Serif" font-size="10.00">AP_HAL::Semaphore::take</text>
</a>
</g>
</g>
<!-- Node4&#45;&gt;Node6 -->
<g id="edge5" class="edge"><title>Node4&#45;&gt;Node6</title>
<path fill="none" stroke="midnightblue" d="M581.182,-146.236C595.87,-149.174 611.988,-152.398 627.052,-155.41"/>
<polygon fill="midnightblue" stroke="midnightblue" points="626.79,-158.927 637.282,-157.456 628.163,-152.063 626.79,-158.927"/>
</g>
<!-- Node7 -->
<g id="node7" class="node"><title>Node7</title>
<g id="a_node7"><a xlink:href="$classAP__HAL_1_1SPIDeviceDriver.html#a3ff2614355f59ee6712d345792f12cb9" xlink:title="AP_HAL::SPIDeviceDriver\l::transaction">
<polygon fill="white" stroke="black" points="619,-108 619,-138 753,-138 753,-108 619,-108"/>
<text text-anchor="start" x="627" y="-126" font-family="Helvetica,sans-Serif" font-size="10.00">AP_HAL::SPIDeviceDriver</text>
<text text-anchor="middle" x="686" y="-115" font-family="Helvetica,sans-Serif" font-size="10.00">::transaction</text>
</a>
</g>
</g>
<!-- Node4&#45;&gt;Node7 -->
<g id="edge6" class="edge"><title>Node4&#45;&gt;Node7</title>
<path fill="none" stroke="midnightblue" d="M581.182,-131.707C590.054,-130.963 599.448,-130.175 608.816,-129.39"/>
<polygon fill="midnightblue" stroke="midnightblue" points="609.273,-132.864 618.946,-128.54 608.688,-125.888 609.273,-132.864"/>
</g>
<!-- Node8 -->
<g id="node8" class="node"><title>Node8</title>
<g id="a_node8"><a xlink:href="$classAP__HAL_1_1Semaphore.html#afcdbf03d5bea9d83037acc93bfaea7ce" xlink:title="AP_HAL::Semaphore::give">
<polygon fill="white" stroke="black" points="619,-69.5 619,-88.5 753,-88.5 753,-69.5 619,-69.5"/>
<text text-anchor="middle" x="686" y="-76.5" font-family="Helvetica,sans-Serif" font-size="10.00">AP_HAL::Semaphore::give</text>
</a>
</g>
</g>
<!-- Node4&#45;&gt;Node8 -->
<g id="edge7" class="edge"><title>Node4&#45;&gt;Node8</title>
<path fill="none" stroke="midnightblue" d="M562.191,-120.891C578.675,-113.465 599.187,-104.697 618,-98 624.429,-95.7117 631.279,-93.5089 638.053,-91.4651"/>
<polygon fill="midnightblue" stroke="midnightblue" points="639.25,-94.7615 647.864,-88.5931 637.284,-88.0434 639.25,-94.7615"/>
</g>
<!-- Node11&#45;&gt;Node4 -->
<g id="edge13" class="edge"><title>Node11&#45;&gt;Node4</title>
<path fill="none" stroke="midnightblue" d="M273.169,-106.512C288.961,-110.011 306.066,-113.466 322,-116 370.416,-123.7 425.738,-128.874 466.852,-132.026"/>
<polygon fill="midnightblue" stroke="midnightblue" points="466.753,-135.529 476.986,-132.785 467.275,-128.548 466.753,-135.529"/>
</g>
<!-- Node12 -->
<g id="node12" class="node"><title>Node12</title>
<g id="a_node12"><a xlink:href="$classLinux_1_1LinuxStorage__FRAM.html#aee9b258c651b30347870ba988ed8fa84" xlink:title="Linux::LinuxStorage\l_FRAM::_write_enable">
<polygon fill="white" stroke="black" points="323,-77 323,-107 439,-107 439,-77 323,-77"/>
<text text-anchor="start" x="331" y="-95" font-family="Helvetica,sans-Serif" font-size="10.00">Linux::LinuxStorage</text>
<text text-anchor="middle" x="381" y="-84" font-family="Helvetica,sans-Serif" font-size="10.00">_FRAM::_write_enable</text>
</a>
</g>
</g>
<!-- Node11&#45;&gt;Node12 -->
<g id="edge11" class="edge"><title>Node11&#45;&gt;Node12</title>
<path fill="none" stroke="midnightblue" d="M273.461,-92C286.16,-92 299.661,-92 312.634,-92"/>
<polygon fill="midnightblue" stroke="midnightblue" points="312.899,-95.5001 322.899,-92 312.899,-88.5001 312.899,-95.5001"/>
</g>
<!-- Node12&#45;&gt;Node4 -->
<g id="edge12" class="edge"><title>Node12&#45;&gt;Node4</title>
<path fill="none" stroke="midnightblue" d="M431.837,-107.019C443.569,-110.555 456.193,-114.359 468.31,-118.011"/>
<polygon fill="midnightblue" stroke="midnightblue" points="467.308,-121.365 477.892,-120.899 469.328,-114.662 467.308,-121.365"/>
</g>
<!-- Node14 -->
<g id="node14" class="node"><title>Node14</title>
<g id="a_node14"><a xlink:href="$classAP__HAL_1_1Print.html#acfe80773011eb17dfb52c2fba517a093" xlink:title="AP_HAL::Print::print">
<polygon fill="white" stroke="black" points="476,-19.5 476,-38.5 582,-38.5 582,-19.5 476,-19.5"/>
<text text-anchor="middle" x="529" y="-26.5" font-family="Helvetica,sans-Serif" font-size="10.00">AP_HAL::Print::print</text>
</a>
</g>
</g>
<!-- Node13&#45;&gt;Node14 -->
<g id="edge15" class="edge"><title>Node13&#45;&gt;Node14</title>
<path fill="none" stroke="midnightblue" d="M269.775,-44.6251C324.804,-41.2953 408.756,-36.2154 465.885,-32.7585"/>
<polygon fill="midnightblue" stroke="midnightblue" points="466.103,-36.2519 475.873,-32.1542 465.68,-29.2646 466.103,-36.2519"/>
</g>
<!-- Node16 -->
<g id="node16" class="node"><title>Node16</title>
<g id="a_node16"><a xlink:href="$classAP__HAL_1_1Print.html#a169b128f9e22f0c15883768f580541a2" xlink:title="AP_HAL::Print::println">
<polygon fill="white" stroke="black" points="324.5,-0.5 324.5,-19.5 437.5,-19.5 437.5,-0.5 324.5,-0.5"/>
<text text-anchor="middle" x="381" y="-7.5" font-family="Helvetica,sans-Serif" font-size="10.00">AP_HAL::Print::println</text>
</a>
</g>
</g>
<!-- Node13&#45;&gt;Node16 -->
<g id="edge17" class="edge"><title>Node13&#45;&gt;Node16</title>
<path fill="none" stroke="midnightblue" d="M255.889,-38.411C277.893,-33.3739 305.055,-27.1562 328.352,-21.8229"/>
<polygon fill="midnightblue" stroke="midnightblue" points="329.446,-25.1633 338.412,-19.5201 327.884,-18.3398 329.446,-25.1633"/>
</g>
<!-- Node15 -->
<g id="node15" class="node"><title>Node15</title>
<g id="a_node15"><a xlink:href="$classAP__HAL_1_1Print.html#acc65391952a43334f8f5c9bef341f501" xlink:title="AP_HAL::Print::write">
<polygon fill="white" stroke="black" points="632,-19.5 632,-38.5 740,-38.5 740,-19.5 632,-19.5"/>
<text text-anchor="middle" x="686" y="-26.5" font-family="Helvetica,sans-Serif" font-size="10.00">AP_HAL::Print::write</text>
</a>
</g>
</g>
<!-- Node14&#45;&gt;Node15 -->
<g id="edge16" class="edge"><title>Node14&#45;&gt;Node15</title>
<path fill="none" stroke="midnightblue" d="M582.044,-29C594.674,-29 608.319,-29 621.415,-29"/>
<polygon fill="midnightblue" stroke="midnightblue" points="621.771,-32.5001 631.771,-29 621.771,-25.5001 621.771,-32.5001"/>
</g>
<!-- Node16&#45;&gt;Node14 -->
<g id="edge18" class="edge"><title>Node16&#45;&gt;Node14</title>
<path fill="none" stroke="midnightblue" d="M437.613,-17.2373C446.845,-18.4387 456.471,-19.6914 465.852,-20.9123"/>
<polygon fill="midnightblue" stroke="midnightblue" points="465.538,-24.4008 475.906,-22.2206 466.441,-17.4593 465.538,-24.4008"/>
</g>
</g>
</svg>
