<?xml version="1.0" encoding="UTF-8" standalone="no"?>
<!DOCTYPE svg PUBLIC "-//W3C//DTD SVG 1.1//EN"
 "http://www.w3.org/Graphics/SVG/1.1/DTD/svg11.dtd">
<!-- Generated by graphviz version 2.36.0 (20140111.2315)
 -->
<!-- Title: AP_HAL::SPIDeviceDriver::get_semaphore Pages: 1 -->
<svg width="1142pt" height="539pt"
 viewBox="0.00 0.00 1142.00 539.00" xmlns="http://www.w3.org/2000/svg" xmlns:xlink="http://www.w3.org/1999/xlink">
<g id="graph0" class="graph" transform="scale(1 1) rotate(0) translate(4 535)">
<title>AP_HAL::SPIDeviceDriver::get_semaphore</title>
<polygon fill="white" stroke="none" points="-4,4 -4,-535 1138,-535 1138,4 -4,4"/>
<!-- Node1 -->
<g id="node1" class="node"><title>Node1</title>
<polygon fill="#bfbfbf" stroke="black" points="0,-260 0,-290 134,-290 134,-260 0,-260"/>
<text text-anchor="start" x="8" y="-278" font-family="Helvetica,sans-Serif" font-size="10.00">AP_HAL::SPIDeviceDriver</text>
<text text-anchor="middle" x="67" y="-267" font-family="Helvetica,sans-Serif" font-size="10.00">::get_semaphore</text>
</g>
<!-- Node2 -->
<g id="node2" class="node"><title>Node2</title>
<g id="a_node2"><a xlink:href="$classAP__InertialSensor__MPU9250.html#a1ffc4c3ef07f19632864c3f5de6702ba" xlink:title="AP_InertialSensor_MPU9250\l::_init_sensor">
<polygon fill="white" stroke="black" points="171,-499 171,-529 315,-529 315,-499 171,-499"/>
<text text-anchor="start" x="179" y="-517" font-family="Helvetica,sans-Serif" font-size="10.00">AP_InertialSensor_MPU9250</text>
<text text-anchor="middle" x="243" y="-506" font-family="Helvetica,sans-Serif" font-size="10.00">::_init_sensor</text>
</a>
</g>
</g>
<!-- Node1&#45;&gt;Node2 -->
<g id="edge1" class="edge"><title>Node1&#45;&gt;Node2</title>
<path fill="none" stroke="midnightblue" d="M74.5447,-299.906C86.7574,-342.022 116.729,-427.81 170,-480 177.9,-487.739 187.893,-493.962 197.901,-498.86"/>
<polygon fill="midnightblue" stroke="midnightblue" points="77.8893,-298.869 71.819,-290.186 71.1493,-300.76 77.8893,-298.869"/>
</g>
<!-- Node7 -->
<g id="node7" class="node"><title>Node7</title>
<g id="a_node7"><a xlink:href="$classAP__InertialSensor__MPU6000.html#a50be758eef3a4d1538323bab21349d2c" xlink:title="AP_InertialSensor_MPU6000\l::_init_sensor">
<polygon fill="white" stroke="black" points="171,-402 171,-432 315,-432 315,-402 171,-402"/>
<text text-anchor="start" x="179" y="-420" font-family="Helvetica,sans-Serif" font-size="10.00">AP_InertialSensor_MPU6000</text>
<text text-anchor="middle" x="243" y="-409" font-family="Helvetica,sans-Serif" font-size="10.00">::_init_sensor</text>
</a>
</g>
</g>
<!-- Node1&#45;&gt;Node7 -->
<g id="edge6" class="edge"><title>Node1&#45;&gt;Node7</title>
<path fill="none" stroke="midnightblue" d="M83.0876,-298.75C100.899,-325.009 132.843,-366.906 170,-392 175.592,-395.777 181.814,-399.041 188.193,-401.847"/>
<polygon fill="midnightblue" stroke="midnightblue" points="85.8374,-296.564 77.3913,-290.167 80.005,-300.435 85.8374,-296.564"/>
</g>
<!-- Node9 -->
<g id="node9" class="node"><title>Node9</title>
<g id="a_node9"><a xlink:href="$classAP__InertialSensor__LSM9DS0.html#a1047cd97a910ee344c829084b700e10b" xlink:title="AP_InertialSensor_LSM9DS0\l::_init_sensor">
<polygon fill="white" stroke="black" points="170,-353 170,-383 316,-383 316,-353 170,-353"/>
<text text-anchor="start" x="178" y="-371" font-family="Helvetica,sans-Serif" font-size="10.00">AP_InertialSensor_LSM9DS0</text>
<text text-anchor="middle" x="243" y="-360" font-family="Helvetica,sans-Serif" font-size="10.00">::_init_sensor</text>
</a>
</g>
</g>
<!-- Node1&#45;&gt;Node9 -->
<g id="edge9" class="edge"><title>Node1&#45;&gt;Node9</title>
<path fill="none" stroke="midnightblue" d="M95.6796,-296.262C115.562,-310.819 143.435,-329.802 170,-343 177.347,-346.65 185.359,-349.999 193.282,-352.978"/>
<polygon fill="midnightblue" stroke="midnightblue" points="97.524,-293.273 87.4079,-290.124 93.3524,-298.894 97.524,-293.273"/>
</g>
<!-- Node10 -->
<g id="node10" class="node"><title>Node10</title>
<g id="a_node10"><a xlink:href="$classLinux_1_1LinuxSPIUARTDriver.html#a9f188db84e47b81782901435e47b99f9" xlink:title="Linux::LinuxSPIUARTDriver\l::begin">
<polygon fill="white" stroke="black" points="173,-304 173,-334 313,-334 313,-304 173,-304"/>
<text text-anchor="start" x="181" y="-322" font-family="Helvetica,sans-Serif" font-size="10.00">Linux::LinuxSPIUARTDriver</text>
<text text-anchor="middle" x="243" y="-311" font-family="Helvetica,sans-Serif" font-size="10.00">::begin</text>
</a>
</g>
</g>
<!-- Node1&#45;&gt;Node10 -->
<g id="edge10" class="edge"><title>Node1&#45;&gt;Node10</title>
<path fill="none" stroke="midnightblue" d="M137.147,-292.485C152.181,-296.287 167.959,-300.277 182.578,-303.974"/>
<polygon fill="midnightblue" stroke="midnightblue" points="137.947,-289.078 127.394,-290.019 136.231,-295.864 137.947,-289.078"/>
</g>
<!-- Node11 -->
<g id="node11" class="node"><title>Node11</title>
<g id="a_node11"><a xlink:href="$classAP__ADC__ADS7844.html#a15f6735b9bbe6c15a097bbb45bb024ad" xlink:title="AP_ADC_ADS7844::Init">
<polygon fill="white" stroke="black" points="181,-451.5 181,-470.5 305,-470.5 305,-451.5 181,-451.5"/>
<text text-anchor="middle" x="243" y="-458.5" font-family="Helvetica,sans-Serif" font-size="10.00">AP_ADC_ADS7844::Init</text>
</a>
</g>
</g>
<!-- Node1&#45;&gt;Node11 -->
<g id="edge11" class="edge"><title>Node1&#45;&gt;Node11</title>
<path fill="none" stroke="midnightblue" d="M76.5129,-299.84C90.3117,-336.349 121.057,-404.149 170,-441 175.804,-445.37 182.514,-448.785 189.456,-451.454"/>
<polygon fill="midnightblue" stroke="midnightblue" points="79.6385,-298.195 72.9207,-290.002 73.0632,-300.596 79.6385,-298.195"/>
</g>
<!-- Node15 -->
<g id="node15" class="node"><title>Node15</title>
<g id="a_node15"><a xlink:href="$classAP__SerialBus__SPI.html#ac4703f2a024ef131607142cda2748970" xlink:title="AP_SerialBus_SPI::init">
<polygon fill="white" stroke="black" points="184,-265.5 184,-284.5 302,-284.5 302,-265.5 184,-265.5"/>
<text text-anchor="middle" x="243" y="-272.5" font-family="Helvetica,sans-Serif" font-size="10.00">AP_SerialBus_SPI::init</text>
</a>
</g>
</g>
<!-- Node1&#45;&gt;Node15 -->
<g id="edge16" class="edge"><title>Node1&#45;&gt;Node15</title>
<path fill="none" stroke="midnightblue" d="M144.335,-275C157.598,-275 171.197,-275 183.873,-275"/>
<polygon fill="midnightblue" stroke="midnightblue" points="144.278,-271.5 134.278,-275 144.278,-278.5 144.278,-271.5"/>
</g>
<!-- Node16 -->
<g id="node16" class="node"><title>Node16</title>
<g id="a_node16"><a xlink:href="$classDataFlash__APM1.html#a97e03c262c2edd6e8070c0c6c0abf304" xlink:title="DataFlash_APM1::Init">
<polygon fill="white" stroke="black" points="186.5,-227.5 186.5,-246.5 299.5,-246.5 299.5,-227.5 186.5,-227.5"/>
<text text-anchor="middle" x="243" y="-234.5" font-family="Helvetica,sans-Serif" font-size="10.00">DataFlash_APM1::Init</text>
</a>
</g>
</g>
<!-- Node1&#45;&gt;Node16 -->
<g id="edge17" class="edge"><title>Node1&#45;&gt;Node16</title>
<path fill="none" stroke="midnightblue" d="M144.17,-258.365C162.674,-254.324 181.841,-250.138 198.253,-246.554"/>
<polygon fill="midnightblue" stroke="midnightblue" points="143.301,-254.972 134.278,-260.525 144.795,-261.811 143.301,-254.972"/>
</g>
<!-- Node17 -->
<g id="node17" class="node"><title>Node17</title>
<g id="a_node17"><a xlink:href="$classAK8963__MPU9250__SPI__Backend.html#ac4ee64924a936932defb3dc329c57c48" xlink:title="AK8963_MPU9250_SPI\l_Backend::init">
<polygon fill="white" stroke="black" points="182,-178 182,-208 304,-208 304,-178 182,-178"/>
<text text-anchor="start" x="190" y="-196" font-family="Helvetica,sans-Serif" font-size="10.00">AK8963_MPU9250_SPI</text>
<text text-anchor="middle" x="243" y="-185" font-family="Helvetica,sans-Serif" font-size="10.00">_Backend::init</text>
</a>
</g>
</g>
<!-- Node1&#45;&gt;Node17 -->
<g id="edge18" class="edge"><title>Node1&#45;&gt;Node17</title>
<path fill="none" stroke="midnightblue" d="M100.945,-254.645C120.56,-243.023 146.195,-228.685 170,-218 177.847,-214.478 186.35,-211.133 194.672,-208.102"/>
<polygon fill="midnightblue" stroke="midnightblue" points="98.89,-251.796 92.1097,-259.938 102.487,-257.801 98.89,-251.796"/>
</g>
<!-- Node18 -->
<g id="node18" class="node"><title>Node18</title>
<g id="a_node18"><a xlink:href="$BusTest_8pde.html#a0b33edabd7f1c4e4a0bf32c67269be2f" xlink:title="loop">
<polygon fill="white" stroke="black" points="225.5,-139.5 225.5,-158.5 260.5,-158.5 260.5,-139.5 225.5,-139.5"/>
<text text-anchor="middle" x="243" y="-146.5" font-family="Helvetica,sans-Serif" font-size="10.00">loop</text>
</a>
</g>
</g>
<!-- Node1&#45;&gt;Node18 -->
<g id="edge19" class="edge"><title>Node1&#45;&gt;Node18</title>
<path fill="none" stroke="midnightblue" d="M84.349,-251.315C102.486,-226.833 133.987,-189.278 170,-168 187.252,-157.807 210.008,-152.992 225.278,-150.779"/>
<polygon fill="midnightblue" stroke="midnightblue" points="81.3162,-249.535 78.288,-259.688 86.9867,-253.64 81.3162,-249.535"/>
</g>
<!-- Node19 -->
<g id="node19" class="node"><title>Node19</title>
<g id="a_node19"><a xlink:href="$AP__HAL__AVR_2examples_2Semaphore_2Semaphore_8pde.html#a7dfd9b79bc5a37d7df40207afbc5431f" xlink:title="setup">
<polygon fill="white" stroke="black" points="222.5,-101.5 222.5,-120.5 263.5,-120.5 263.5,-101.5 222.5,-101.5"/>
<text text-anchor="middle" x="243" y="-108.5" font-family="Helvetica,sans-Serif" font-size="10.00">setup</text>
</a>
</g>
</g>
<!-- Node1&#45;&gt;Node19 -->
<g id="edge20" class="edge"><title>Node1&#45;&gt;Node19</title>
<path fill="none" stroke="midnightblue" d="M78.6794,-250.329C94.0653,-217.75 125.582,-160.905 170,-130 185.6,-119.146 207.024,-114.492 222.441,-112.497"/>
<polygon fill="midnightblue" stroke="midnightblue" points="75.4126,-249.057 74.4259,-259.605 81.7755,-251.974 75.4126,-249.057"/>
</g>
<!-- Node20 -->
<g id="node20" class="node"><title>Node20</title>
<g id="a_node20"><a xlink:href="$classLinux_1_1LinuxStorage__FRAM.html#a051df265457f5a9f4bbfcd18f7d220b6" xlink:title="Linux::LinuxStorage\l_FRAM::transaction">
<polygon fill="white" stroke="black" points="191,-52 191,-82 295,-82 295,-52 191,-52"/>
<text text-anchor="start" x="199" y="-70" font-family="Helvetica,sans-Serif" font-size="10.00">Linux::LinuxStorage</text>
<text text-anchor="middle" x="243" y="-59" font-family="Helvetica,sans-Serif" font-size="10.00">_FRAM::transaction</text>
</a>
</g>
</g>
<!-- Node1&#45;&gt;Node20 -->
<g id="edge21" class="edge"><title>Node1&#45;&gt;Node20</title>
<path fill="none" stroke="midnightblue" d="M75.3939,-250.252C88.3031,-211.161 118.595,-135.145 170,-92 176.081,-86.896 183.267,-82.8112 190.705,-79.5483"/>
<polygon fill="midnightblue" stroke="midnightblue" points="72.0537,-249.206 72.3469,-259.797 78.7222,-251.335 72.0537,-249.206"/>
</g>
<!-- Node3 -->
<g id="node3" class="node"><title>Node3</title>
<g id="a_node3"><a xlink:href="$classAP__InertialSensor__MPU9250.html#a5870cbd48fb92ada02747afcae3eaa6c" xlink:title="AP_InertialSensor_MPU9250\l::detect">
<polygon fill="white" stroke="black" points="532,-501 532,-531 676,-531 676,-501 532,-501"/>
<text text-anchor="start" x="540" y="-519" font-family="Helvetica,sans-Serif" font-size="10.00">AP_InertialSensor_MPU9250</text>
<text text-anchor="middle" x="604" y="-508" font-family="Helvetica,sans-Serif" font-size="10.00">::detect</text>
</a>
</g>
</g>
<!-- Node2&#45;&gt;Node3 -->
<g id="edge2" class="edge"><title>Node2&#45;&gt;Node3</title>
<path fill="none" stroke="midnightblue" d="M325.514,-514.454C387.642,-514.8 472.351,-515.272 531.779,-515.603"/>
<polygon fill="midnightblue" stroke="midnightblue" points="325.375,-510.953 315.356,-514.398 325.336,-517.953 325.375,-510.953"/>
</g>
<!-- Node4 -->
<g id="node4" class="node"><title>Node4</title>
<g id="a_node4"><a xlink:href="$classAP__InertialSensor.html#abcf5d2923286a28097d2b3f8ca18e915" xlink:title="AP_InertialSensor::\l_detect_backends">
<polygon fill="white" stroke="black" points="713.5,-436 713.5,-466 814.5,-466 814.5,-436 713.5,-436"/>
<text text-anchor="start" x="721.5" y="-454" font-family="Helvetica,sans-Serif" font-size="10.00">AP_InertialSensor::</text>
<text text-anchor="middle" x="764" y="-443" font-family="Helvetica,sans-Serif" font-size="10.00">_detect_backends</text>
</a>
</g>
</g>
<!-- Node3&#45;&gt;Node4 -->
<g id="edge3" class="edge"><title>Node3&#45;&gt;Node4</title>
<path fill="none" stroke="midnightblue" d="M650.903,-497.116C674.876,-487.254 703.812,-475.35 726.28,-466.106"/>
<polygon fill="midnightblue" stroke="midnightblue" points="649.562,-493.883 641.646,-500.924 652.225,-500.357 649.562,-493.883"/>
</g>
<!-- Node5 -->
<g id="node5" class="node"><title>Node5</title>
<g id="a_node5"><a xlink:href="$classAP__InertialSensor.html#ab0534f593e07f2d483ddd8c2b1bbf4d9" xlink:title="AP_InertialSensor::init">
<polygon fill="white" stroke="black" points="858,-441.5 858,-460.5 972,-460.5 972,-441.5 858,-441.5"/>
<text text-anchor="middle" x="915" y="-448.5" font-family="Helvetica,sans-Serif" font-size="10.00">AP_InertialSensor::init</text>
</a>
</g>
</g>
<!-- Node4&#45;&gt;Node5 -->
<g id="edge4" class="edge"><title>Node4&#45;&gt;Node5</title>
<path fill="none" stroke="midnightblue" d="M824.899,-451C835.798,-451 847.131,-451 857.915,-451"/>
<polygon fill="midnightblue" stroke="midnightblue" points="824.615,-447.5 814.615,-451 824.615,-454.5 824.615,-447.5"/>
</g>
<!-- Node6 -->
<g id="node6" class="node"><title>Node6</title>
<g id="a_node6"><a xlink:href="$AHRS__Test_8pde.html#a7dfd9b79bc5a37d7df40207afbc5431f" xlink:title="setup">
<polygon fill="white" stroke="black" points="1053.5,-441.5 1053.5,-460.5 1094.5,-460.5 1094.5,-441.5 1053.5,-441.5"/>
<text text-anchor="middle" x="1074" y="-448.5" font-family="Helvetica,sans-Serif" font-size="10.00">setup</text>
</a>
</g>
</g>
<!-- Node5&#45;&gt;Node6 -->
<g id="edge5" class="edge"><title>Node5&#45;&gt;Node6</title>
<path fill="none" stroke="midnightblue" d="M982.345,-451C1008.03,-451 1035.49,-451 1053.38,-451"/>
<polygon fill="midnightblue" stroke="midnightblue" points="982.237,-447.5 972.237,-451 982.237,-454.5 982.237,-447.5"/>
</g>
<!-- Node8 -->
<g id="node8" class="node"><title>Node8</title>
<g id="a_node8"><a xlink:href="$classAP__InertialSensor__MPU6000.html#a2bbaf4bcb81f081d2f9e29b5c25ec31b" xlink:title="AP_InertialSensor_MPU6000\l::detect">
<polygon fill="white" stroke="black" points="352,-387 352,-417 496,-417 496,-387 352,-387"/>
<text text-anchor="start" x="360" y="-405" font-family="Helvetica,sans-Serif" font-size="10.00">AP_InertialSensor_MPU6000</text>
<text text-anchor="middle" x="424" y="-394" font-family="Helvetica,sans-Serif" font-size="10.00">::detect</text>
</a>
</g>
</g>
<!-- Node7&#45;&gt;Node8 -->
<g id="edge7" class="edge"><title>Node7&#45;&gt;Node8</title>
<path fill="none" stroke="midnightblue" d="M325.018,-410.211C333.948,-409.462 342.993,-408.705 351.79,-407.967"/>
<polygon fill="midnightblue" stroke="midnightblue" points="324.675,-406.727 315.003,-411.05 325.26,-413.703 324.675,-406.727"/>
</g>
<!-- Node8&#45;&gt;Node4 -->
<g id="edge8" class="edge"><title>Node8&#45;&gt;Node4</title>
<path fill="none" stroke="midnightblue" d="M506.042,-406.566C555.452,-410.216 619.714,-416.512 676,-427 688.477,-429.325 701.768,-432.581 714.109,-435.947"/>
<polygon fill="midnightblue" stroke="midnightblue" points="506.274,-403.074 496.049,-405.849 505.773,-410.056 506.274,-403.074"/>
</g>
<!-- Node12 -->
<g id="node12" class="node"><title>Node12</title>
<g id="a_node12"><a xlink:href="$classAP__InertialSensor__Oilpan.html#ace5a0d60949fbdfd793fcfcd2af9232e" xlink:title="AP_InertialSensor_Oilpan\l::_init_sensor">
<polygon fill="white" stroke="black" points="360,-436 360,-466 488,-466 488,-436 360,-436"/>
<text text-anchor="start" x="368" y="-454" font-family="Helvetica,sans-Serif" font-size="10.00">AP_InertialSensor_Oilpan</text>
<text text-anchor="middle" x="424" y="-443" font-family="Helvetica,sans-Serif" font-size="10.00">::_init_sensor</text>
</a>
</g>
</g>
<!-- Node11&#45;&gt;Node12 -->
<g id="edge12" class="edge"><title>Node11&#45;&gt;Node12</title>
<path fill="none" stroke="midnightblue" d="M315.166,-457.024C329.893,-456.201 345.313,-455.34 359.736,-454.534"/>
<polygon fill="midnightblue" stroke="midnightblue" points="314.89,-453.534 305.101,-457.587 315.281,-460.523 314.89,-453.534"/>
</g>
<!-- Node14 -->
<g id="node14" class="node"><title>Node14</title>
<g id="a_node14"><a xlink:href="$AP__ADC__test_8pde.html#a4fc01d736fe50cf5b977f755b675f11d" xlink:title="setup">
<polygon fill="white" stroke="black" points="403.5,-485.5 403.5,-504.5 444.5,-504.5 444.5,-485.5 403.5,-485.5"/>
<text text-anchor="middle" x="424" y="-492.5" font-family="Helvetica,sans-Serif" font-size="10.00">setup</text>
</a>
</g>
</g>
<!-- Node11&#45;&gt;Node14 -->
<g id="edge15" class="edge"><title>Node11&#45;&gt;Node14</title>
<path fill="none" stroke="midnightblue" d="M304.328,-472.459C338.777,-479.002 379.702,-486.776 403.379,-491.273"/>
<polygon fill="midnightblue" stroke="midnightblue" points="304.815,-468.989 294.338,-470.561 303.509,-475.866 304.815,-468.989"/>
</g>
<!-- Node13 -->
<g id="node13" class="node"><title>Node13</title>
<g id="a_node13"><a xlink:href="$classAP__InertialSensor__Oilpan.html#a5584e4f2ba880d16e773e83b6836fae7" xlink:title="AP_InertialSensor_Oilpan\l::detect">
<polygon fill="white" stroke="black" points="540,-436 540,-466 668,-466 668,-436 540,-436"/>
<text text-anchor="start" x="548" y="-454" font-family="Helvetica,sans-Serif" font-size="10.00">AP_InertialSensor_Oilpan</text>
<text text-anchor="middle" x="604" y="-443" font-family="Helvetica,sans-Serif" font-size="10.00">::detect</text>
</a>
</g>
</g>
<!-- Node12&#45;&gt;Node13 -->
<g id="edge13" class="edge"><title>Node12&#45;&gt;Node13</title>
<path fill="none" stroke="midnightblue" d="M498.39,-451C512.129,-451 526.38,-451 539.778,-451"/>
<polygon fill="midnightblue" stroke="midnightblue" points="498.007,-447.5 488.007,-451 498.007,-454.5 498.007,-447.5"/>
</g>
<!-- Node13&#45;&gt;Node4 -->
<g id="edge14" class="edge"><title>Node13&#45;&gt;Node4</title>
<path fill="none" stroke="midnightblue" d="M678.601,-451C690.338,-451 702.235,-451 713.248,-451"/>
<polygon fill="midnightblue" stroke="midnightblue" points="678.354,-447.5 668.354,-451 678.354,-454.5 678.354,-447.5"/>
</g>
<!-- Node21 -->
<g id="node21" class="node"><title>Node21</title>
<g id="a_node21"><a xlink:href="$classLinux_1_1LinuxStorage__FRAM.html#a4c38ed83df91957981d65f3cdb83a8ff" xlink:title="Linux::LinuxStorage\l_FRAM::_register_write">
<polygon fill="white" stroke="black" points="544,-79 544,-109 664,-109 664,-79 544,-79"/>
<text text-anchor="start" x="552" y="-97" font-family="Helvetica,sans-Serif" font-size="10.00">Linux::LinuxStorage</text>
<text text-anchor="middle" x="604" y="-86" font-family="Helvetica,sans-Serif" font-size="10.00">_FRAM::_register_write</text>
</a>
</g>
</g>
<!-- Node20&#45;&gt;Node21 -->
<g id="edge22" class="edge"><title>Node20&#45;&gt;Node21</title>
<path fill="none" stroke="midnightblue" d="M305.412,-71.6187C372.114,-76.6353 477.924,-84.5932 543.762,-89.5448"/>
<polygon fill="midnightblue" stroke="midnightblue" points="305.289,-68.0997 295.055,-70.8398 304.764,-75.08 305.289,-68.0997"/>
</g>
<!-- Node27 -->
<g id="node27" class="node"><title>Node27</title>
<g id="a_node27"><a xlink:href="$classLinux_1_1LinuxStorage__FRAM.html#aee9b258c651b30347870ba988ed8fa84" xlink:title="Linux::LinuxStorage\l_FRAM::_write_enable">
<polygon fill="white" stroke="black" points="366,-96 366,-126 482,-126 482,-96 366,-96"/>
<text text-anchor="start" x="374" y="-114" font-family="Helvetica,sans-Serif" font-size="10.00">Linux::LinuxStorage</text>
<text text-anchor="middle" x="424" y="-103" font-family="Helvetica,sans-Serif" font-size="10.00">_FRAM::_write_enable</text>
</a>
</g>
</g>
<!-- Node20&#45;&gt;Node27 -->
<g id="edge31" class="edge"><title>Node20&#45;&gt;Node27</title>
<path fill="none" stroke="midnightblue" d="M305.052,-82.0072C324.69,-86.8344 346.367,-92.1629 365.724,-96.921"/>
<polygon fill="midnightblue" stroke="midnightblue" points="305.841,-78.5969 295.294,-79.6086 304.17,-85.3946 305.841,-78.5969"/>
</g>
<!-- Node28 -->
<g id="node28" class="node"><title>Node28</title>
<g id="a_node28"><a xlink:href="$classLinux_1_1LinuxStorage__FRAM.html#a3595b33fb16f0708473bc05a62b37070" xlink:title="Linux::LinuxStorage\l_FRAM::_register_read">
<polygon fill="white" stroke="black" points="545,-14 545,-44 663,-44 663,-14 545,-14"/>
<text text-anchor="start" x="553" y="-32" font-family="Helvetica,sans-Serif" font-size="10.00">Linux::LinuxStorage</text>
<text text-anchor="middle" x="604" y="-21" font-family="Helvetica,sans-Serif" font-size="10.00">_FRAM::_register_read</text>
</a>
</g>
</g>
<!-- Node20&#45;&gt;Node28 -->
<g id="edge33" class="edge"><title>Node20&#45;&gt;Node28</title>
<path fill="none" stroke="midnightblue" d="M305.061,-60.5367C372.157,-53.4347 479.126,-42.112 544.985,-35.1409"/>
<polygon fill="midnightblue" stroke="midnightblue" points="304.631,-57.0626 295.055,-61.5959 305.368,-64.0237 304.631,-57.0626"/>
</g>
<!-- Node22 -->
<g id="node22" class="node"><title>Node22</title>
<g id="a_node22"><a xlink:href="$classLinux_1_1LinuxStorage__FRAM.html#abe5495ebecf6180c5865f33e9b0de113" xlink:title="Linux::LinuxStorage\l_FRAM::open">
<polygon fill="white" stroke="black" points="712.5,-61 712.5,-91 815.5,-91 815.5,-61 712.5,-61"/>
<text text-anchor="start" x="720.5" y="-79" font-family="Helvetica,sans-Serif" font-size="10.00">Linux::LinuxStorage</text>
<text text-anchor="middle" x="764" y="-68" font-family="Helvetica,sans-Serif" font-size="10.00">_FRAM::open</text>
</a>
</g>
</g>
<!-- Node21&#45;&gt;Node22 -->
<g id="edge23" class="edge"><title>Node21&#45;&gt;Node22</title>
<path fill="none" stroke="midnightblue" d="M674.437,-86.0894C687.222,-84.6329 700.346,-83.1378 712.443,-81.7596"/>
<polygon fill="midnightblue" stroke="midnightblue" points="673.822,-82.6367 664.283,-87.2463 674.615,-89.5918 673.822,-82.6367"/>
</g>
<!-- Node26 -->
<g id="node26" class="node"><title>Node26</title>
<g id="a_node26"><a xlink:href="$classLinux_1_1LinuxStorage__FRAM.html#a75a8c8d08e28cca6d154e29177c0027b" xlink:title="Linux::LinuxStorage\l_FRAM::write">
<polygon fill="white" stroke="black" points="712.5,-110 712.5,-140 815.5,-140 815.5,-110 712.5,-110"/>
<text text-anchor="start" x="720.5" y="-128" font-family="Helvetica,sans-Serif" font-size="10.00">Linux::LinuxStorage</text>
<text text-anchor="middle" x="764" y="-117" font-family="Helvetica,sans-Serif" font-size="10.00">_FRAM::write</text>
</a>
</g>
</g>
<!-- Node21&#45;&gt;Node26 -->
<g id="edge28" class="edge"><title>Node21&#45;&gt;Node26</title>
<path fill="none" stroke="midnightblue" d="M674.437,-107.624C687.222,-110.132 700.346,-112.707 712.443,-115.081"/>
<polygon fill="midnightblue" stroke="midnightblue" points="674.77,-104.122 664.283,-105.631 673.422,-110.991 674.77,-104.122"/>
</g>
<!-- Node23 -->
<g id="node23" class="node"><title>Node23</title>
<g id="a_node23"><a xlink:href="$classLinux_1_1LinuxStorage__FRAM.html#a4f5c65dff23063e62595c01a997af52c" xlink:title="Linux::LinuxStorage\l_FRAM::_storage_create">
<polygon fill="white" stroke="black" points="852,-137 852,-167 978,-167 978,-137 852,-137"/>
<text text-anchor="start" x="860" y="-155" font-family="Helvetica,sans-Serif" font-size="10.00">Linux::LinuxStorage</text>
<text text-anchor="middle" x="915" y="-144" font-family="Helvetica,sans-Serif" font-size="10.00">_FRAM::_storage_create</text>
</a>
</g>
</g>
<!-- Node22&#45;&gt;Node23 -->
<g id="edge24" class="edge"><title>Node22&#45;&gt;Node23</title>
<path fill="none" stroke="midnightblue" d="M808.433,-95.6856C811.022,-97.0911 813.563,-98.5338 816,-100 833.137,-110.311 834.578,-117.177 852,-127 858.369,-130.591 865.358,-133.929 872.277,-136.92"/>
<polygon fill="midnightblue" stroke="midnightblue" points="810.008,-92.56 799.519,-91.0697 806.789,-98.7761 810.008,-92.56"/>
</g>
<!-- Node24 -->
<g id="node24" class="node"><title>Node24</title>
<g id="a_node24"><a xlink:href="$classLinux_1_1LinuxStorage__FRAM.html#a3c8de702b5554324a004ba3da50d7e80" xlink:title="Linux::LinuxStorage\l_FRAM::_storage_open">
<polygon fill="white" stroke="black" points="1014,-44 1014,-74 1134,-74 1134,-44 1014,-44"/>
<text text-anchor="start" x="1022" y="-62" font-family="Helvetica,sans-Serif" font-size="10.00">Linux::LinuxStorage</text>
<text text-anchor="middle" x="1074" y="-51" font-family="Helvetica,sans-Serif" font-size="10.00">_FRAM::_storage_open</text>
</a>
</g>
</g>
<!-- Node22&#45;&gt;Node24 -->
<g id="edge26" class="edge"><title>Node22&#45;&gt;Node24</title>
<path fill="none" stroke="midnightblue" d="M825.727,-72.6482C880.224,-69.6402 959.722,-65.2523 1013.76,-62.2698"/>
<polygon fill="midnightblue" stroke="midnightblue" points="825.307,-69.1659 815.515,-73.2118 825.693,-76.1553 825.307,-69.1659"/>
</g>
<!-- Node25 -->
<g id="node25" class="node"><title>Node25</title>
<g id="a_node25"><a xlink:href="$classLinux_1_1LinuxStorage__FRAM.html#a95e031b758f4a15f38f6c23c43b91c8f" xlink:title="Linux::LinuxStorage\l_FRAM::_timer_tick">
<polygon fill="white" stroke="black" points="863,-88 863,-118 967,-118 967,-88 863,-88"/>
<text text-anchor="start" x="871" y="-106" font-family="Helvetica,sans-Serif" font-size="10.00">Linux::LinuxStorage</text>
<text text-anchor="middle" x="915" y="-95" font-family="Helvetica,sans-Serif" font-size="10.00">_FRAM::_timer_tick</text>
</a>
</g>
</g>
<!-- Node22&#45;&gt;Node25 -->
<g id="edge27" class="edge"><title>Node22&#45;&gt;Node25</title>
<path fill="none" stroke="midnightblue" d="M825.998,-87.0534C838.244,-89.2724 850.994,-91.5827 862.863,-93.7335"/>
<polygon fill="midnightblue" stroke="midnightblue" points="826.324,-83.5556 815.861,-85.2164 825.076,-90.4434 826.324,-83.5556"/>
</g>
<!-- Node23&#45;&gt;Node24 -->
<g id="edge25" class="edge"><title>Node23&#45;&gt;Node24</title>
<path fill="none" stroke="midnightblue" d="M966.553,-132.801C970.48,-130.952 974.338,-129.011 978,-127 1006.27,-111.475 1036.07,-89.0032 1054.59,-74.203"/>
<polygon fill="midnightblue" stroke="midnightblue" points="965.017,-129.653 957.326,-136.94 967.883,-136.04 965.017,-129.653"/>
</g>
<!-- Node26&#45;&gt;Node23 -->
<g id="edge29" class="edge"><title>Node26&#45;&gt;Node23</title>
<path fill="none" stroke="midnightblue" d="M825.778,-136.013C834.349,-137.567 843.17,-139.165 851.767,-140.723"/>
<polygon fill="midnightblue" stroke="midnightblue" points="826.324,-132.556 815.861,-134.216 825.076,-139.443 826.324,-132.556"/>
</g>
<!-- Node26&#45;&gt;Node25 -->
<g id="edge30" class="edge"><title>Node26&#45;&gt;Node25</title>
<path fill="none" stroke="midnightblue" d="M825.998,-115.994C838.244,-114.185 850.994,-112.303 862.863,-110.55"/>
<polygon fill="midnightblue" stroke="midnightblue" points="825.242,-112.567 815.861,-117.49 826.265,-119.492 825.242,-112.567"/>
</g>
<!-- Node27&#45;&gt;Node21 -->
<g id="edge32" class="edge"><title>Node27&#45;&gt;Node21</title>
<path fill="none" stroke="midnightblue" d="M492.654,-104.539C509.548,-102.925 527.532,-101.208 543.972,-99.6375"/>
<polygon fill="midnightblue" stroke="midnightblue" points="491.922,-101.093 482.3,-105.528 492.588,-108.061 491.922,-101.093"/>
</g>
<!-- Node28&#45;&gt;Node22 -->
<g id="edge34" class="edge"><title>Node28&#45;&gt;Node22</title>
<path fill="none" stroke="midnightblue" d="M665.018,-46.8533C680.679,-51.5121 697.399,-56.4856 712.511,-60.981"/>
<polygon fill="midnightblue" stroke="midnightblue" points="666.009,-43.4969 655.427,-44.0003 664.014,-50.2063 666.009,-43.4969"/>
</g>
<!-- Node29 -->
<g id="node29" class="node"><title>Node29</title>
<g id="a_node29"><a xlink:href="$classLinux_1_1LinuxStorage__FRAM.html#a1a9c2706ffbaff5dcb12b5df1a18d081" xlink:title="Linux::LinuxStorage\l_FRAM::read">
<polygon fill="white" stroke="black" points="863.5,-0 863.5,-30 966.5,-30 966.5,-0 863.5,-0"/>
<text text-anchor="start" x="871.5" y="-18" font-family="Helvetica,sans-Serif" font-size="10.00">Linux::LinuxStorage</text>
<text text-anchor="middle" x="915" y="-7" font-family="Helvetica,sans-Serif" font-size="10.00">_FRAM::read</text>
</a>
</g>
</g>
<!-- Node28&#45;&gt;Node29 -->
<g id="edge35" class="edge"><title>Node28&#45;&gt;Node29</title>
<path fill="none" stroke="midnightblue" d="M673.2,-25.9101C730.625,-23.3083 811.469,-19.6454 863.305,-17.2969"/>
<polygon fill="midnightblue" stroke="midnightblue" points="672.952,-22.4176 663.121,-26.3667 673.269,-29.4104 672.952,-22.4176"/>
</g>
<!-- Node29&#45;&gt;Node24 -->
<g id="edge36" class="edge"><title>Node29&#45;&gt;Node24</title>
<path fill="none" stroke="midnightblue" d="M976.204,-31.8723C990.392,-35.8488 1005.43,-40.062 1019.31,-43.9519"/>
<polygon fill="midnightblue" stroke="midnightblue" points="977.114,-28.4926 966.54,-29.1641 975.224,-35.2329 977.114,-28.4926"/>
</g>
</g>
</svg>
