<?xml version="1.0" encoding="UTF-8" standalone="no"?>
<!DOCTYPE svg PUBLIC "-//W3C//DTD SVG 1.1//EN"
 "http://www.w3.org/Graphics/SVG/1.1/DTD/svg11.dtd">
<!-- Generated by graphviz version 2.36.0 (20140111.2315)
 -->
<!-- Title: Linux::LinuxRCOutput_ZYNQ::init Pages: 1 -->
<svg width="418pt" height="82pt"
 viewBox="0.00 0.00 418.00 82.00" xmlns="http://www.w3.org/2000/svg" xmlns:xlink="http://www.w3.org/1999/xlink">
<g id="graph0" class="graph" transform="scale(1 1) rotate(0) translate(4 78)">
<title>Linux::LinuxRCOutput_ZYNQ::init</title>
<polygon fill="white" stroke="none" points="-4,4 -4,-78 414,-78 414,4 -4,4"/>
<!-- Node1 -->
<g id="node1" class="node"><title>Node1</title>
<polygon fill="#bfbfbf" stroke="black" points="0.5,-22 0.5,-52 113.5,-52 113.5,-22 0.5,-22"/>
<text text-anchor="start" x="8.5" y="-40" font-family="Helvetica,sans-Serif" font-size="10.00">Linux::LinuxRCOutput</text>
<text text-anchor="middle" x="57" y="-29" font-family="Helvetica,sans-Serif" font-size="10.00">_ZYNQ::init</text>
</g>
<!-- Node2 -->
<g id="node2" class="node"><title>Node2</title>
<g id="a_node2"><a xlink:href="$RCOutput__ZYNQ_8cpp.html#ae38f8ce16efbab679639a983f769906a" xlink:title="catch_sigbus">
<polygon fill="white" stroke="black" points="170,-49.5 170,-68.5 244,-68.5 244,-49.5 170,-49.5"/>
<text text-anchor="middle" x="207" y="-56.5" font-family="Helvetica,sans-Serif" font-size="10.00">catch_sigbus</text>
</a>
</g>
</g>
<!-- Node1&#45;&gt;Node2 -->
<g id="edge1" class="edge"><title>Node1&#45;&gt;Node2</title>
<path fill="none" stroke="midnightblue" d="M113.531,-45.2546C128.711,-47.5112 145,-49.9324 159.612,-52.1044"/>
<polygon fill="midnightblue" stroke="midnightblue" points="159.509,-55.6276 169.915,-53.636 160.538,-48.7036 159.509,-55.6276"/>
</g>
<!-- Node4 -->
<g id="node4" class="node"><title>Node4</title>
<g id="a_node4"><a xlink:href="$classLinux_1_1LinuxRCOutput__ZYNQ.html#aabd4c3cab7d02ed01ac2810ff4c42e44" xlink:title="Linux::LinuxRCOutput\l_ZYNQ::set_freq">
<polygon fill="white" stroke="black" points="150.5,-0 150.5,-30 263.5,-30 263.5,-0 150.5,-0"/>
<text text-anchor="start" x="158.5" y="-18" font-family="Helvetica,sans-Serif" font-size="10.00">Linux::LinuxRCOutput</text>
<text text-anchor="middle" x="207" y="-7" font-family="Helvetica,sans-Serif" font-size="10.00">_ZYNQ::set_freq</text>
</a>
</g>
</g>
<!-- Node1&#45;&gt;Node4 -->
<g id="edge3" class="edge"><title>Node1&#45;&gt;Node4</title>
<path fill="none" stroke="midnightblue" d="M113.531,-28.7454C122.232,-27.4521 131.296,-26.1046 140.201,-24.781"/>
<polygon fill="midnightblue" stroke="midnightblue" points="140.781,-28.2332 150.158,-23.3008 139.752,-21.3093 140.781,-28.2332"/>
</g>
<!-- Node3 -->
<g id="node3" class="node"><title>Node3</title>
<g id="a_node3"><a xlink:href="$classAP__HAL_1_1Scheduler.html#a65f0d4e404d3e6fda4d8b0b101c9780f" xlink:title="AP_HAL::Scheduler::\lpanic">
<polygon fill="white" stroke="black" points="300,-44 300,-74 410,-74 410,-44 300,-44"/>
<text text-anchor="start" x="308" y="-62" font-family="Helvetica,sans-Serif" font-size="10.00">AP_HAL::Scheduler::</text>
<text text-anchor="middle" x="355" y="-51" font-family="Helvetica,sans-Serif" font-size="10.00">panic</text>
</a>
</g>
</g>
<!-- Node2&#45;&gt;Node3 -->
<g id="edge2" class="edge"><title>Node2&#45;&gt;Node3</title>
<path fill="none" stroke="midnightblue" d="M244.09,-59C257.875,-59 274.042,-59 289.672,-59"/>
<polygon fill="midnightblue" stroke="midnightblue" points="289.834,-62.5001 299.834,-59 289.834,-55.5001 289.834,-62.5001"/>
</g>
</g>
</svg>
