<?xml version="1.0" encoding="UTF-8" standalone="no"?>
<!DOCTYPE svg PUBLIC "-//W3C//DTD SVG 1.1//EN"
 "http://www.w3.org/Graphics/SVG/1.1/DTD/svg11.dtd">
<!-- Generated by graphviz version 2.36.0 (20140111.2315)
 -->
<!-- Title: ExternalLED::init Pages: 1 -->
<svg width="264pt" height="66pt"
 viewBox="0.00 0.00 264.00 66.00" xmlns="http://www.w3.org/2000/svg" xmlns:xlink="http://www.w3.org/1999/xlink">
<g id="graph0" class="graph" transform="scale(1 1) rotate(0) translate(4 62)">
<title>ExternalLED::init</title>
<polygon fill="white" stroke="none" points="-4,4 -4,-62 260,-62 260,4 -4,4"/>
<!-- Node1 -->
<g id="node1" class="node"><title>Node1</title>
<polygon fill="#bfbfbf" stroke="black" points="0.5,-19.5 0.5,-38.5 91.5,-38.5 91.5,-19.5 0.5,-19.5"/>
<text text-anchor="middle" x="46" y="-26.5" font-family="Helvetica,sans-Serif" font-size="10.00">ExternalLED::init</text>
</g>
<!-- Node2 -->
<g id="node2" class="node"><title>Node2</title>
<g id="a_node2"><a xlink:href="$classAP__HAL_1_1GPIO.html#a3dfc60214bd1aa4936d51ca72c045b95" xlink:title="AP_HAL::GPIO::pinMode">
<polygon fill="white" stroke="black" points="128,-38.5 128,-57.5 256,-57.5 256,-38.5 128,-38.5"/>
<text text-anchor="middle" x="192" y="-45.5" font-family="Helvetica,sans-Serif" font-size="10.00">AP_HAL::GPIO::pinMode</text>
</a>
</g>
</g>
<!-- Node1&#45;&gt;Node2 -->
<g id="edge1" class="edge"><title>Node1&#45;&gt;Node2</title>
<path fill="none" stroke="midnightblue" d="M91.7731,-34.9076C100.051,-35.9998 108.892,-37.1664 117.759,-38.3362"/>
<polygon fill="midnightblue" stroke="midnightblue" points="117.379,-41.8164 127.751,-39.6547 118.295,-34.8765 117.379,-41.8164"/>
</g>
<!-- Node3 -->
<g id="node3" class="node"><title>Node3</title>
<g id="a_node3"><a xlink:href="$classAP__HAL_1_1GPIO.html#a2b0664bdab1876e3b0bbcd9064eec88e" xlink:title="AP_HAL::GPIO::write">
<polygon fill="white" stroke="black" points="135.5,-0.5 135.5,-19.5 248.5,-19.5 248.5,-0.5 135.5,-0.5"/>
<text text-anchor="middle" x="192" y="-7.5" font-family="Helvetica,sans-Serif" font-size="10.00">AP_HAL::GPIO::write</text>
</a>
</g>
</g>
<!-- Node1&#45;&gt;Node3 -->
<g id="edge2" class="edge"><title>Node1&#45;&gt;Node3</title>
<path fill="none" stroke="midnightblue" d="M91.7731,-23.0924C102.437,-21.6854 114.036,-20.155 125.418,-18.6531"/>
<polygon fill="midnightblue" stroke="midnightblue" points="125.881,-22.1225 135.337,-17.3444 124.965,-15.1827 125.881,-22.1225"/>
</g>
</g>
</svg>
