<?xml version="1.0" encoding="UTF-8" standalone="no"?>
<!DOCTYPE svg PUBLIC "-//W3C//DTD SVG 1.1//EN"
 "http://www.w3.org/Graphics/SVG/1.1/DTD/svg11.dtd">
<!-- Generated by graphviz version 2.36.0 (20140111.2315)
 -->
<!-- Title: AP_Compass_Backend Pages: 1 -->
<svg width="530pt" height="140pt"
 viewBox="0.00 0.00 530.00 140.00" xmlns="http://www.w3.org/2000/svg" xmlns:xlink="http://www.w3.org/1999/xlink">
<g id="graph0" class="graph" transform="scale(1 1) rotate(0) translate(4 136)">
<title>AP_Compass_Backend</title>
<polygon fill="white" stroke="none" points="-4,4 -4,-136 526,-136 526,4 -4,4"/>
<!-- Node1 -->
<g id="node1" class="node"><title>Node1</title>
<polygon fill="#bfbfbf" stroke="black" points="213.5,-112.5 213.5,-131.5 334.5,-131.5 334.5,-112.5 213.5,-112.5"/>
<text text-anchor="middle" x="274" y="-119.5" font-family="Helvetica,sans-Serif" font-size="10.00">AP_Compass_Backend</text>
</g>
<!-- Node2 -->
<g id="node2" class="node"><title>Node2</title>
<g id="a_node2"><a xlink:href="$classAP__Compass__AK8963.html" xlink:title="AP_Compass_AK8963">
<polygon fill="white" stroke="black" points="24.5,-56.5 24.5,-75.5 141.5,-75.5 141.5,-56.5 24.5,-56.5"/>
<text text-anchor="middle" x="83" y="-63.5" font-family="Helvetica,sans-Serif" font-size="10.00">AP_Compass_AK8963</text>
</a>
</g>
</g>
<!-- Node1&#45;&gt;Node2 -->
<g id="edge1" class="edge"><title>Node1&#45;&gt;Node2</title>
<path fill="none" stroke="midnightblue" d="M234.027,-109.699C197.979,-99.507 145.757,-84.7429 113.123,-75.5164"/>
<polygon fill="midnightblue" stroke="midnightblue" points="233.16,-113.091 243.735,-112.444 235.065,-106.355 233.16,-113.091"/>
</g>
<!-- Node4 -->
<g id="node4" class="node"><title>Node4</title>
<g id="a_node4"><a xlink:href="$classAP__Compass__HIL.html" xlink:title="AP_Compass_HIL">
<polygon fill="white" stroke="black" points="160,-56.5 160,-75.5 258,-75.5 258,-56.5 160,-56.5"/>
<text text-anchor="middle" x="209" y="-63.5" font-family="Helvetica,sans-Serif" font-size="10.00">AP_Compass_HIL</text>
</a>
</g>
</g>
<!-- Node1&#45;&gt;Node4 -->
<g id="edge3" class="edge"><title>Node1&#45;&gt;Node4</title>
<path fill="none" stroke="midnightblue" d="M255.727,-105.82C244.082,-96.1452 229.401,-83.9481 219.633,-75.8339"/>
<polygon fill="midnightblue" stroke="midnightblue" points="253.628,-108.626 263.557,-112.324 258.101,-103.242 253.628,-108.626"/>
</g>
<!-- Node5 -->
<g id="node5" class="node"><title>Node5</title>
<g id="a_node5"><a xlink:href="$classAP__Compass__HMC5843.html" xlink:title="&#45;*&#45; tab&#45;width: 4; Mode: C++; c&#45;basic&#45;offset: 4; indent&#45;tabs&#45;mode: nil &#45;*&#45; ">
<polygon fill="white" stroke="black" points="276.5,-56.5 276.5,-75.5 403.5,-75.5 403.5,-56.5 276.5,-56.5"/>
<text text-anchor="middle" x="340" y="-63.5" font-family="Helvetica,sans-Serif" font-size="10.00">AP_Compass_HMC5843</text>
</a>
</g>
</g>
<!-- Node1&#45;&gt;Node5 -->
<g id="edge4" class="edge"><title>Node1&#45;&gt;Node5</title>
<path fill="none" stroke="midnightblue" d="M292.554,-105.82C304.378,-96.1452 319.286,-83.9481 329.203,-75.8339"/>
<polygon fill="midnightblue" stroke="midnightblue" points="290.127,-103.283 284.604,-112.324 294.56,-108.7 290.127,-103.283"/>
</g>
<!-- Node6 -->
<g id="node6" class="node"><title>Node6</title>
<g id="a_node6"><a xlink:href="$classAP__Compass__PX4.html" xlink:title="&#45;*&#45; tab&#45;width: 4; Mode: C++; c&#45;basic&#45;offset: 4; indent&#45;tabs&#45;mode: nil &#45;*&#45; ">
<polygon fill="white" stroke="black" points="421.5,-56.5 421.5,-75.5 522.5,-75.5 522.5,-56.5 421.5,-56.5"/>
<text text-anchor="middle" x="472" y="-63.5" font-family="Helvetica,sans-Serif" font-size="10.00">AP_Compass_PX4</text>
</a>
</g>
</g>
<!-- Node1&#45;&gt;Node6 -->
<g id="edge5" class="edge"><title>Node1&#45;&gt;Node6</title>
<path fill="none" stroke="midnightblue" d="M315.438,-109.699C352.807,-99.507 406.943,-84.7429 440.773,-75.5164"/>
<polygon fill="midnightblue" stroke="midnightblue" points="314.1,-106.436 305.374,-112.444 315.942,-113.189 314.1,-106.436"/>
</g>
<!-- Node3 -->
<g id="node3" class="node"><title>Node3</title>
<g id="a_node3"><a xlink:href="$classAP__Compass__AK8963__MPU9250.html" xlink:title="AP_Compass_AK8963_MPU9250">
<polygon fill="white" stroke="black" points="0,-0.5 0,-19.5 166,-19.5 166,-0.5 0,-0.5"/>
<text text-anchor="middle" x="83" y="-7.5" font-family="Helvetica,sans-Serif" font-size="10.00">AP_Compass_AK8963_MPU9250</text>
</a>
</g>
</g>
<!-- Node2&#45;&gt;Node3 -->
<g id="edge2" class="edge"><title>Node2&#45;&gt;Node3</title>
<path fill="none" stroke="midnightblue" d="M83,-45.8045C83,-36.9102 83,-26.7798 83,-19.7511"/>
<polygon fill="midnightblue" stroke="midnightblue" points="79.5001,-46.083 83,-56.083 86.5001,-46.083 79.5001,-46.083"/>
</g>
</g>
</svg>
