<?xml version="1.0" encoding="UTF-8" standalone="no"?>
<!DOCTYPE svg PUBLIC "-//W3C//DTD SVG 1.1//EN"
 "http://www.w3.org/Graphics/SVG/1.1/DTD/svg11.dtd">
<!-- Generated by graphviz version 2.36.0 (20140111.2315)
 -->
<!-- Title: NavEKF::use_compass Pages: 1 -->
<svg width="294pt" height="66pt"
 viewBox="0.00 0.00 294.00 66.00" xmlns="http://www.w3.org/2000/svg" xmlns:xlink="http://www.w3.org/1999/xlink">
<g id="graph0" class="graph" transform="scale(1 1) rotate(0) translate(4 62)">
<title>NavEKF::use_compass</title>
<polygon fill="white" stroke="none" points="-4,4 -4,-62 290,-62 290,4 -4,4"/>
<!-- Node1 -->
<g id="node1" class="node"><title>Node1</title>
<polygon fill="#bfbfbf" stroke="black" points="0.5,-19.5 0.5,-38.5 121.5,-38.5 121.5,-19.5 0.5,-19.5"/>
<text text-anchor="middle" x="61" y="-26.5" font-family="Helvetica,sans-Serif" font-size="10.00">NavEKF::use_compass</text>
</g>
<!-- Node2 -->
<g id="node2" class="node"><title>Node2</title>
<g id="a_node2"><a xlink:href="$classAP__AHRS.html#adf808841de62499bc8c388fc798d47f1" xlink:title="AP_AHRS::get_compass">
<polygon fill="white" stroke="black" points="158,-38.5 158,-57.5 286,-57.5 286,-38.5 158,-38.5"/>
<text text-anchor="middle" x="222" y="-45.5" font-family="Helvetica,sans-Serif" font-size="10.00">AP_AHRS::get_compass</text>
</a>
</g>
</g>
<!-- Node1&#45;&gt;Node2 -->
<g id="edge1" class="edge"><title>Node1&#45;&gt;Node2</title>
<path fill="none" stroke="midnightblue" d="M121.658,-36.129C130.145,-37.1431 138.954,-38.1958 147.664,-39.2366"/>
<polygon fill="midnightblue" stroke="midnightblue" points="147.474,-42.7386 157.818,-40.45 148.304,-35.7881 147.474,-42.7386"/>
</g>
<!-- Node3 -->
<g id="node3" class="node"><title>Node3</title>
<g id="a_node3"><a xlink:href="$classCompass.html#a97437729a583cd900e4dd1d6d84a4a0e" xlink:title="return true if the compass should be used for yaw calculations ">
<polygon fill="white" stroke="black" points="162,-0.5 162,-19.5 282,-19.5 282,-0.5 162,-0.5"/>
<text text-anchor="middle" x="222" y="-7.5" font-family="Helvetica,sans-Serif" font-size="10.00">Compass::use_for_yaw</text>
</a>
</g>
</g>
<!-- Node1&#45;&gt;Node3 -->
<g id="edge2" class="edge"><title>Node1&#45;&gt;Node3</title>
<path fill="none" stroke="midnightblue" d="M121.658,-21.871C131.505,-20.6943 141.787,-19.4658 151.843,-18.264"/>
<polygon fill="midnightblue" stroke="midnightblue" points="152.286,-21.7361 161.8,-17.0742 151.456,-14.7855 152.286,-21.7361"/>
</g>
</g>
</svg>
