<?xml version="1.0" encoding="UTF-8" standalone="no"?>
<!DOCTYPE svg PUBLIC "-//W3C//DTD SVG 1.1//EN"
 "http://www.w3.org/Graphics/SVG/1.1/DTD/svg11.dtd">
<!-- Generated by graphviz version 2.36.0 (20140111.2315)
 -->
<!-- Title: AC_WPNav::advance_spline_target_along_track Pages: 1 -->
<svg width="492pt" height="202pt"
 viewBox="0.00 0.00 492.00 202.00" xmlns="http://www.w3.org/2000/svg" xmlns:xlink="http://www.w3.org/1999/xlink">
<g id="graph0" class="graph" transform="scale(1 1) rotate(0) translate(4 198)">
<title>AC_WPNav::advance_spline_target_along_track</title>
<polygon fill="white" stroke="none" points="-4,4 -4,-198 488,-198 488,4 -4,4"/>
<!-- Node1 -->
<g id="node1" class="node"><title>Node1</title>
<polygon fill="#bfbfbf" stroke="black" points="0,-82 0,-112 144,-112 144,-82 0,-82"/>
<text text-anchor="start" x="8" y="-100" font-family="Helvetica,sans-Serif" font-size="10.00">AC_WPNav::advance_spline</text>
<text text-anchor="middle" x="72" y="-89" font-family="Helvetica,sans-Serif" font-size="10.00">_target_along_track</text>
</g>
<!-- Node2 -->
<g id="node2" class="node"><title>Node2</title>
<g id="a_node2"><a xlink:href="$classAC__WPNav.html#a3bd02c16cf547cd92584d908f65ccb50" xlink:title="relies on update_spline_solution being called when the segment&#39;s origin and destination were set ...">
<polygon fill="white" stroke="black" points="180.5,-164 180.5,-194 305.5,-194 305.5,-164 180.5,-164"/>
<text text-anchor="start" x="188.5" y="-182" font-family="Helvetica,sans-Serif" font-size="10.00">AC_WPNav::calc_spline</text>
<text text-anchor="middle" x="243" y="-171" font-family="Helvetica,sans-Serif" font-size="10.00">_pos_vel</text>
</a>
</g>
</g>
<!-- Node1&#45;&gt;Node2 -->
<g id="edge1" class="edge"><title>Node1&#45;&gt;Node2</title>
<path fill="none" stroke="midnightblue" d="M99.4249,-112.089C120.841,-124.069 151.959,-140.923 180,-154 184.309,-156.01 188.827,-158.016 193.376,-159.97"/>
<polygon fill="midnightblue" stroke="midnightblue" points="192.127,-163.241 202.702,-163.888 194.838,-156.787 192.127,-163.241"/>
</g>
<!-- Node3 -->
<g id="node3" class="node"><title>Node3</title>
<g id="a_node3"><a xlink:href="$AP__Math_8cpp.html#a7b812b7e8008b90ab24bcd9c3b0e8e3b" xlink:title="safe_sqrt">
<polygon fill="white" stroke="black" points="214.5,-125.5 214.5,-144.5 271.5,-144.5 271.5,-125.5 214.5,-125.5"/>
<text text-anchor="middle" x="243" y="-132.5" font-family="Helvetica,sans-Serif" font-size="10.00">safe_sqrt</text>
</a>
</g>
</g>
<!-- Node1&#45;&gt;Node3 -->
<g id="edge2" class="edge"><title>Node1&#45;&gt;Node3</title>
<path fill="none" stroke="midnightblue" d="M139.793,-112.019C161.848,-116.978 185.587,-122.315 204.631,-126.597"/>
<polygon fill="midnightblue" stroke="midnightblue" points="203.882,-130.016 214.406,-128.795 205.418,-123.187 203.882,-130.016"/>
</g>
<!-- Node4 -->
<g id="node4" class="node"><title>Node4</title>
<g id="a_node4"><a xlink:href="$classVector3.html#ac1fd5514e368a1e1c2d13f71eda18345" xlink:title="Vector3::length">
<polygon fill="white" stroke="black" points="201.5,-87.5 201.5,-106.5 284.5,-106.5 284.5,-87.5 201.5,-87.5"/>
<text text-anchor="middle" x="243" y="-94.5" font-family="Helvetica,sans-Serif" font-size="10.00">Vector3::length</text>
</a>
</g>
</g>
<!-- Node1&#45;&gt;Node4 -->
<g id="edge3" class="edge"><title>Node1&#45;&gt;Node4</title>
<path fill="none" stroke="midnightblue" d="M144.181,-97C159.861,-97 176.168,-97 190.869,-97"/>
<polygon fill="midnightblue" stroke="midnightblue" points="191.258,-100.5 201.258,-97 191.258,-93.5001 191.258,-100.5"/>
</g>
<!-- Node7 -->
<g id="node7" class="node"><title>Node7</title>
<g id="a_node7"><a xlink:href="$AP__Math_8h.html#a108b79eeb35c5d58f324458ec9e1e9f2" xlink:title="is_zero">
<polygon fill="white" stroke="black" points="219,-49.5 219,-68.5 267,-68.5 267,-49.5 219,-49.5"/>
<text text-anchor="middle" x="243" y="-56.5" font-family="Helvetica,sans-Serif" font-size="10.00">is_zero</text>
</a>
</g>
</g>
<!-- Node1&#45;&gt;Node7 -->
<g id="edge6" class="edge"><title>Node1&#45;&gt;Node7</title>
<path fill="none" stroke="midnightblue" d="M139.793,-81.9814C163.568,-76.6356 189.301,-70.8495 208.999,-66.4204"/>
<polygon fill="midnightblue" stroke="midnightblue" points="209.999,-69.7829 218.988,-64.1743 208.464,-62.9534 209.999,-69.7829"/>
</g>
<!-- Node8 -->
<g id="node8" class="node"><title>Node8</title>
<g id="a_node8"><a xlink:href="$classAC__PosControl.html#ad70a79da0c5dcde97ccf848b03e7356a" xlink:title="set_pos_target in cm from home ">
<polygon fill="white" stroke="black" points="191,-0 191,-30 295,-30 295,-0 191,-0"/>
<text text-anchor="start" x="199" y="-18" font-family="Helvetica,sans-Serif" font-size="10.00">AC_PosControl::set</text>
<text text-anchor="middle" x="243" y="-7" font-family="Helvetica,sans-Serif" font-size="10.00">_pos_target</text>
</a>
</g>
</g>
<!-- Node1&#45;&gt;Node8 -->
<g id="edge7" class="edge"><title>Node1&#45;&gt;Node8</title>
<path fill="none" stroke="midnightblue" d="M99.4249,-81.9114C120.841,-69.9305 151.959,-53.0772 180,-40 184.309,-37.9903 188.827,-35.9836 193.376,-34.0304"/>
<polygon fill="midnightblue" stroke="midnightblue" points="194.838,-37.2126 202.702,-30.1124 192.127,-30.759 194.838,-37.2126"/>
</g>
<!-- Node5 -->
<g id="node5" class="node"><title>Node5</title>
<g id="a_node5"><a xlink:href="$AP__Math_8cpp.html#ac09c78b18c2ad21b9a04081f119f11c0" xlink:title="pythagorous3">
<polygon fill="white" stroke="black" points="342.5,-87.5 342.5,-106.5 417.5,-106.5 417.5,-87.5 342.5,-87.5"/>
<text text-anchor="middle" x="380" y="-94.5" font-family="Helvetica,sans-Serif" font-size="10.00">pythagorous3</text>
</a>
</g>
</g>
<!-- Node4&#45;&gt;Node5 -->
<g id="edge4" class="edge"><title>Node4&#45;&gt;Node5</title>
<path fill="none" stroke="midnightblue" d="M284.504,-97C299.397,-97 316.388,-97 331.818,-97"/>
<polygon fill="midnightblue" stroke="midnightblue" points="332.205,-100.5 342.205,-97 332.205,-93.5001 332.205,-100.5"/>
</g>
<!-- Node6 -->
<g id="node6" class="node"><title>Node6</title>
<g id="a_node6"><a xlink:href="$AP__Math_8cpp.html#a996fdbe87607543eef5dcb234f6bc017" xlink:title="sq">
<polygon fill="white" stroke="black" points="454.5,-87.5 454.5,-106.5 483.5,-106.5 483.5,-87.5 454.5,-87.5"/>
<text text-anchor="middle" x="469" y="-94.5" font-family="Helvetica,sans-Serif" font-size="10.00">sq</text>
</a>
</g>
</g>
<!-- Node5&#45;&gt;Node6 -->
<g id="edge5" class="edge"><title>Node5&#45;&gt;Node6</title>
<path fill="none" stroke="midnightblue" d="M417.644,-97C426.583,-97 435.919,-97 444.089,-97"/>
<polygon fill="midnightblue" stroke="midnightblue" points="444.361,-100.5 454.361,-97 444.361,-93.5001 444.361,-100.5"/>
</g>
</g>
</svg>
