<?xml version="1.0" encoding="UTF-8" standalone="no"?>
<!DOCTYPE svg PUBLIC "-//W3C//DTD SVG 1.1//EN"
 "http://www.w3.org/Graphics/SVG/1.1/DTD/svg11.dtd">
<!-- Generated by graphviz version 2.36.0 (20140111.2315)
 -->
<!-- Title: AP_Compass_PX4 Pages: 1 -->
<svg width="602pt" height="176pt"
 viewBox="0.00 0.00 602.00 176.00" xmlns="http://www.w3.org/2000/svg" xmlns:xlink="http://www.w3.org/1999/xlink">
<g id="graph0" class="graph" transform="scale(1 1) rotate(0) translate(4 172)">
<title>AP_Compass_PX4</title>
<polygon fill="white" stroke="none" points="-4,4 -4,-172 598,-172 598,4 -4,4"/>
<!-- Node1 -->
<g id="node1" class="node"><title>Node1</title>
<polygon fill="#bfbfbf" stroke="black" points="-0.5,-0.5 -0.5,-19.5 100.5,-19.5 100.5,-0.5 -0.5,-0.5"/>
<text text-anchor="middle" x="50" y="-7.5" font-family="Helvetica,sans-Serif" font-size="10.00">AP_Compass_PX4</text>
</g>
<!-- Node2 -->
<g id="node2" class="node"><title>Node2</title>
<g id="a_node2"><a xlink:href="$classAP__Compass__Backend.html" xlink:title="AP_Compass_Backend">
<polygon fill="white" stroke="black" points="71.5,-69.5 71.5,-88.5 192.5,-88.5 192.5,-69.5 71.5,-69.5"/>
<text text-anchor="middle" x="132" y="-76.5" font-family="Helvetica,sans-Serif" font-size="10.00">AP_Compass_Backend</text>
</a>
</g>
</g>
<!-- Node2&#45;&gt;Node1 -->
<g id="edge1" class="edge"><title>Node2&#45;&gt;Node1</title>
<path fill="none" stroke="midnightblue" d="M113.436,-62.8319C97.0634,-49.4543 73.7936,-30.4411 60.4634,-19.5494"/>
<polygon fill="midnightblue" stroke="midnightblue" points="111.322,-65.624 121.28,-69.2409 115.751,-60.2033 111.322,-65.624"/>
</g>
<!-- Node3 -->
<g id="node3" class="node"><title>Node3</title>
<g id="a_node3"><a xlink:href="$classCompass.html" xlink:title="Compass">
<polygon fill="white" stroke="black" points="248.5,-0.5 248.5,-19.5 307.5,-19.5 307.5,-0.5 248.5,-0.5"/>
<text text-anchor="middle" x="278" y="-7.5" font-family="Helvetica,sans-Serif" font-size="10.00">Compass</text>
</a>
</g>
</g>
<!-- Node2&#45;&gt;Node3 -->
<g id="edge6" class="edge"><title>Node2&#45;&gt;Node3</title>
<path fill="none" stroke="#9a32cd" stroke-dasharray="5,2" d="M131.964,-59.1772C132.931,-51.6432 135.38,-43.4714 141,-38 155.938,-23.4563 212.647,-16.2675 248.254,-13.1157"/>
<polygon fill="#9a32cd" stroke="#9a32cd" points="128.458,-59.1953 131.411,-69.3702 135.448,-59.5745 128.458,-59.1953"/>
<text text-anchor="middle" x="166.5" y="-41.5" font-family="Helvetica,sans-Serif" font-size="10.00"> _backends</text>
</g>
<!-- Node3&#45;&gt;Node2 -->
<g id="edge2" class="edge"><title>Node3&#45;&gt;Node2</title>
<path fill="none" stroke="#9a32cd" stroke-dasharray="5,2" d="M250.084,-23.7631C240.257,-28.2591 229.137,-33.3504 219,-38 195.428,-48.8125 168.278,-61.3008 150.664,-69.4074"/>
<polygon fill="#9a32cd" stroke="#9a32cd" points="251.757,-26.8463 259.395,-19.5039 248.846,-20.4806 251.757,-26.8463"/>
<text text-anchor="middle" x="243.5" y="-41.5" font-family="Helvetica,sans-Serif" font-size="10.00"> _compass</text>
</g>
<!-- Node4 -->
<g id="node4" class="node"><title>Node4</title>
<g id="a_node4"><a xlink:href="$structAP__Param_1_1GroupInfo.html" xlink:title="AP_Param::GroupInfo">
<polygon fill="white" stroke="black" points="210.5,-69.5 210.5,-88.5 323.5,-88.5 323.5,-69.5 210.5,-69.5"/>
<text text-anchor="middle" x="267" y="-76.5" font-family="Helvetica,sans-Serif" font-size="10.00">AP_Param::GroupInfo</text>
</a>
</g>
</g>
<!-- Node4&#45;&gt;Node3 -->
<g id="edge3" class="edge"><title>Node4&#45;&gt;Node3</title>
<path fill="none" stroke="#9a32cd" stroke-dasharray="5,2" d="M270.116,-59.0183C272.248,-46.034 274.972,-29.4419 276.596,-19.5494"/>
<polygon fill="#9a32cd" stroke="#9a32cd" points="266.604,-58.806 268.438,-69.2409 273.512,-59.9401 266.604,-58.806"/>
<text text-anchor="middle" x="293" y="-41.5" font-family="Helvetica,sans-Serif" font-size="10.00"> var_info</text>
</g>
<!-- Node4&#45;&gt;Node4 -->
<g id="edge4" class="edge"><title>Node4&#45;&gt;Node4</title>
<path fill="none" stroke="#9a32cd" stroke-dasharray="5,2" d="M333.683,-83.6087C338.233,-82.5492 341,-81.0129 341,-79 341,-75.7793 333.917,-73.7789 323.777,-72.9989"/>
<polygon fill="#9a32cd" stroke="#9a32cd" points="333.193,-80.1431 323.777,-85.0011 334.167,-87.075 333.193,-80.1431"/>
<text text-anchor="middle" x="365.5" y="-76.5" font-family="Helvetica,sans-Serif" font-size="10.00"> group_info</text>
</g>
<!-- Node5 -->
<g id="node5" class="node"><title>Node5</title>
<g id="a_node5"><a xlink:href="$classVector3.html" xlink:title="Vector3\&lt; float \&gt;">
<polygon fill="white" stroke="black" points="383.5,-148.5 383.5,-167.5 470.5,-167.5 470.5,-148.5 383.5,-148.5"/>
<text text-anchor="middle" x="427" y="-155.5" font-family="Helvetica,sans-Serif" font-size="10.00">Vector3&lt; float &gt;</text>
</a>
</g>
</g>
<!-- Node5&#45;&gt;Node1 -->
<g id="edge10" class="edge"><title>Node5&#45;&gt;Node1</title>
<path fill="none" stroke="#9a32cd" stroke-dasharray="5,2" d="M373.268,-156.041C275.996,-153.046 76.8013,-140.716 34,-90 16.7615,-69.5739 34.1526,-35.6516 44.0953,-19.7422"/>
<polygon fill="#9a32cd" stroke="#9a32cd" points="373.387,-159.546 383.483,-156.333 373.587,-152.549 373.387,-159.546"/>
<text text-anchor="middle" x="48" y="-76.5" font-family="Helvetica,sans-Serif" font-size="10.00"> _sum</text>
</g>
<!-- Node5&#45;&gt;Node3 -->
<g id="edge5" class="edge"><title>Node5&#45;&gt;Node3</title>
<path fill="none" stroke="#9a32cd" stroke-dasharray="5,2" d="M425.474,-138.175C422.968,-118.536 416.364,-87.8911 399,-68 375.024,-40.5356 334.947,-25.3195 307.534,-17.6582"/>
<polygon fill="#9a32cd" stroke="#9a32cd" points="422.011,-138.717 426.527,-148.302 428.974,-137.993 422.011,-138.717"/>
<text text-anchor="middle" x="427.5" y="-82" font-family="Helvetica,sans-Serif" font-size="10.00"> field</text>
<text text-anchor="middle" x="427.5" y="-71" font-family="Helvetica,sans-Serif" font-size="10.00">Bearth</text>
</g>
<!-- Node6 -->
<g id="node6" class="node"><title>Node6</title>
<g id="a_node6"><a xlink:href="$structCompass_1_1mag__state.html" xlink:title="Compass::mag_state">
<polygon fill="white" stroke="black" points="474,-69.5 474,-88.5 584,-88.5 584,-69.5 474,-69.5"/>
<text text-anchor="middle" x="529" y="-76.5" font-family="Helvetica,sans-Serif" font-size="10.00">Compass::mag_state</text>
</a>
</g>
</g>
<!-- Node5&#45;&gt;Node6 -->
<g id="edge8" class="edge"><title>Node5&#45;&gt;Node6</title>
<path fill="none" stroke="#9a32cd" stroke-dasharray="5,2" d="M439.658,-140.315C448.028,-130.074 459.696,-117.204 472,-108 482.594,-100.075 495.781,-93.4272 506.801,-88.6007"/>
<polygon fill="#9a32cd" stroke="#9a32cd" points="436.663,-138.46 433.217,-148.479 442.159,-142.795 436.663,-138.46"/>
<text text-anchor="middle" x="501" y="-122" font-family="Helvetica,sans-Serif" font-size="10.00"> motor_offset</text>
<text text-anchor="middle" x="501" y="-111" font-family="Helvetica,sans-Serif" font-size="10.00">field</text>
</g>
<!-- Node6&#45;&gt;Node3 -->
<g id="edge7" class="edge"><title>Node6&#45;&gt;Node3</title>
<path fill="none" stroke="#9a32cd" stroke-dasharray="5,2" d="M504.241,-64.6228C486.973,-55.8275 463.145,-44.7385 441,-38 395.584,-24.1802 340.765,-16.9445 307.682,-13.5558"/>
<polygon fill="#9a32cd" stroke="#9a32cd" points="503.102,-67.9754 513.589,-69.4861 506.333,-61.7656 503.102,-67.9754"/>
<text text-anchor="middle" x="486.5" y="-41.5" font-family="Helvetica,sans-Serif" font-size="10.00"> _state</text>
</g>
<!-- Node7 -->
<g id="node7" class="node"><title>Node7</title>
<g id="a_node7"><a xlink:href="$classVector3.html" xlink:title="Vector3\&lt; int16_t \&gt;">
<polygon fill="white" stroke="black" points="492,-148.5 492,-167.5 590,-167.5 590,-148.5 492,-148.5"/>
<text text-anchor="middle" x="541" y="-155.5" font-family="Helvetica,sans-Serif" font-size="10.00">Vector3&lt; int16_t &gt;</text>
</a>
</g>
</g>
<!-- Node7&#45;&gt;Node6 -->
<g id="edge9" class="edge"><title>Node7&#45;&gt;Node6</title>
<path fill="none" stroke="#9a32cd" stroke-dasharray="5,2" d="M538.088,-138.315C535.638,-122.592 532.243,-100.808 530.373,-88.8094"/>
<polygon fill="#9a32cd" stroke="#9a32cd" points="534.672,-139.124 539.67,-148.465 541.588,-138.046 534.672,-139.124"/>
<text text-anchor="middle" x="565.5" y="-116.5" font-family="Helvetica,sans-Serif" font-size="10.00"> mag_history</text>
</g>
</g>
</svg>
