<?xml version="1.0" encoding="UTF-8" standalone="no"?>
<!DOCTYPE svg PUBLIC "-//W3C//DTD SVG 1.1//EN"
 "http://www.w3.org/Graphics/SVG/1.1/DTD/svg11.dtd">
<!-- Generated by graphviz version 2.36.0 (20140111.2315)
 -->
<!-- Title: RC_Channel_aux::set_servo_out Pages: 1 -->
<svg width="472pt" height="143pt"
 viewBox="0.00 0.00 472.00 143.00" xmlns="http://www.w3.org/2000/svg" xmlns:xlink="http://www.w3.org/1999/xlink">
<g id="graph0" class="graph" transform="scale(1 1) rotate(0) translate(4 139)">
<title>RC_Channel_aux::set_servo_out</title>
<polygon fill="white" stroke="none" points="-4,4 -4,-139 468,-139 468,4 -4,4"/>
<!-- Node1 -->
<g id="node1" class="node"><title>Node1</title>
<polygon fill="#bfbfbf" stroke="black" points="0.5,-61 0.5,-91 113.5,-91 113.5,-61 0.5,-61"/>
<text text-anchor="start" x="8.5" y="-79" font-family="Helvetica,sans-Serif" font-size="10.00">RC_Channel_aux::set</text>
<text text-anchor="middle" x="57" y="-68" font-family="Helvetica,sans-Serif" font-size="10.00">_servo_out</text>
</g>
<!-- Node2 -->
<g id="node2" class="node"><title>Node2</title>
<g id="a_node2"><a xlink:href="$classRC__Channel__aux.html#a423accc4de40960cf7ef2c4755e8a9d1" xlink:title="RC_Channel_aux::function\l_assigned">
<polygon fill="white" stroke="black" points="150,-105 150,-135 284,-135 284,-105 150,-105"/>
<text text-anchor="start" x="158" y="-123" font-family="Helvetica,sans-Serif" font-size="10.00">RC_Channel_aux::function</text>
<text text-anchor="middle" x="217" y="-112" font-family="Helvetica,sans-Serif" font-size="10.00">_assigned</text>
</a>
</g>
</g>
<!-- Node1&#45;&gt;Node2 -->
<g id="edge1" class="edge"><title>Node1&#45;&gt;Node2</title>
<path fill="none" stroke="midnightblue" d="M111.933,-91.0192C124.953,-94.6452 138.987,-98.5534 152.405,-102.29"/>
<polygon fill="midnightblue" stroke="midnightblue" points="151.47,-105.663 162.042,-104.974 153.348,-98.9193 151.47,-105.663"/>
</g>
<!-- Node3 -->
<g id="node3" class="node"><title>Node3</title>
<g id="a_node3"><a xlink:href="$classRC__Channel.html#a5876259d8fb8c1c475322a236bae7819" xlink:title="RC_Channel::calc_pwm">
<polygon fill="white" stroke="black" points="155.5,-66.5 155.5,-85.5 278.5,-85.5 278.5,-66.5 155.5,-66.5"/>
<text text-anchor="middle" x="217" y="-73.5" font-family="Helvetica,sans-Serif" font-size="10.00">RC_Channel::calc_pwm</text>
</a>
</g>
</g>
<!-- Node1&#45;&gt;Node3 -->
<g id="edge2" class="edge"><title>Node1&#45;&gt;Node3</title>
<path fill="none" stroke="midnightblue" d="M113.705,-76C123.939,-76 134.746,-76 145.349,-76"/>
<polygon fill="midnightblue" stroke="midnightblue" points="145.428,-79.5001 155.428,-76 145.428,-72.5001 145.428,-79.5001"/>
</g>
<!-- Node7 -->
<g id="node7" class="node"><title>Node7</title>
<g id="a_node7"><a xlink:href="$classRC__Channel.html#aabaff8233192d5f2a20e2207914ca3e3" xlink:title="RC_Channel::output">
<polygon fill="white" stroke="black" points="164,-19.5 164,-38.5 270,-38.5 270,-19.5 164,-19.5"/>
<text text-anchor="middle" x="217" y="-26.5" font-family="Helvetica,sans-Serif" font-size="10.00">RC_Channel::output</text>
</a>
</g>
</g>
<!-- Node1&#45;&gt;Node7 -->
<g id="edge6" class="edge"><title>Node1&#45;&gt;Node7</title>
<path fill="none" stroke="midnightblue" d="M108.427,-60.9997C129.596,-54.7026 153.928,-47.4644 174.091,-41.4667"/>
<polygon fill="midnightblue" stroke="midnightblue" points="175.331,-44.7494 183.918,-38.5434 173.335,-38.04 175.331,-44.7494"/>
</g>
<!-- Node4 -->
<g id="node4" class="node"><title>Node4</title>
<g id="a_node4"><a xlink:href="$classRC__Channel.html#ac50875b55ac524f9d0b2ee50174bd300" xlink:title="RC_Channel::range_to_pwm">
<polygon fill="white" stroke="black" points="320.5,-114.5 320.5,-133.5 463.5,-133.5 463.5,-114.5 320.5,-114.5"/>
<text text-anchor="middle" x="392" y="-121.5" font-family="Helvetica,sans-Serif" font-size="10.00">RC_Channel::range_to_pwm</text>
</a>
</g>
</g>
<!-- Node3&#45;&gt;Node4 -->
<g id="edge3" class="edge"><title>Node3&#45;&gt;Node4</title>
<path fill="none" stroke="midnightblue" d="M251.038,-85.5335C270.986,-91.2549 296.929,-98.6338 320,-105 328.134,-107.244 336.803,-109.597 345.187,-111.852"/>
<polygon fill="midnightblue" stroke="midnightblue" points="344.286,-115.234 354.851,-114.442 346.098,-108.473 344.286,-115.234"/>
</g>
<!-- Node5 -->
<g id="node5" class="node"><title>Node5</title>
<g id="a_node5"><a xlink:href="$classRC__Channel.html#abcf4a69f7323c85306e8a25b34e929b3" xlink:title="RC_Channel::angle_to_pwm">
<polygon fill="white" stroke="black" points="321,-76.5 321,-95.5 463,-95.5 463,-76.5 321,-76.5"/>
<text text-anchor="middle" x="392" y="-83.5" font-family="Helvetica,sans-Serif" font-size="10.00">RC_Channel::angle_to_pwm</text>
</a>
</g>
</g>
<!-- Node3&#45;&gt;Node5 -->
<g id="edge4" class="edge"><title>Node3&#45;&gt;Node5</title>
<path fill="none" stroke="midnightblue" d="M278.507,-79.4975C288.845,-80.0951 299.728,-80.7242 310.488,-81.3461"/>
<polygon fill="midnightblue" stroke="midnightblue" points="310.558,-84.8559 320.743,-81.9389 310.962,-77.8676 310.558,-84.8559"/>
</g>
<!-- Node6 -->
<g id="node6" class="node"><title>Node6</title>
<g id="a_node6"><a xlink:href="$AP__Math_8cpp.html#ac5d9502aca91c97f523fd9b35590215f" xlink:title="constrain_int16">
<polygon fill="white" stroke="black" points="350.5,-38.5 350.5,-57.5 433.5,-57.5 433.5,-38.5 350.5,-38.5"/>
<text text-anchor="middle" x="392" y="-45.5" font-family="Helvetica,sans-Serif" font-size="10.00">constrain_int16</text>
</a>
</g>
</g>
<!-- Node3&#45;&gt;Node6 -->
<g id="edge5" class="edge"><title>Node3&#45;&gt;Node6</title>
<path fill="none" stroke="midnightblue" d="M277.053,-66.4423C297.642,-63.11 320.544,-59.4032 340.386,-56.1919"/>
<polygon fill="midnightblue" stroke="midnightblue" points="341.141,-59.6152 350.454,-54.5624 340.023,-52.7052 341.141,-59.6152"/>
</g>
<!-- Node8 -->
<g id="node8" class="node"><title>Node8</title>
<g id="a_node8"><a xlink:href="$classAP__HAL_1_1RCOutput.html#ade509cf82dfb1f6fab3eba0c026c5d60" xlink:title="AP_HAL::RCOutput::write">
<polygon fill="white" stroke="black" points="326,-0.5 326,-19.5 458,-19.5 458,-0.5 326,-0.5"/>
<text text-anchor="middle" x="392" y="-7.5" font-family="Helvetica,sans-Serif" font-size="10.00">AP_HAL::RCOutput::write</text>
</a>
</g>
</g>
<!-- Node7&#45;&gt;Node8 -->
<g id="edge7" class="edge"><title>Node7&#45;&gt;Node8</title>
<path fill="none" stroke="midnightblue" d="M270.375,-23.2478C284.733,-21.6709 300.585,-19.9299 315.947,-18.2428"/>
<polygon fill="midnightblue" stroke="midnightblue" points="316.392,-21.715 325.95,-17.1442 315.628,-14.7569 316.392,-21.715"/>
</g>
</g>
</svg>
