<?xml version="1.0" encoding="UTF-8" standalone="no"?>
<!DOCTYPE svg PUBLIC "-//W3C//DTD SVG 1.1//EN"
 "http://www.w3.org/Graphics/SVG/1.1/DTD/svg11.dtd">
<!-- Generated by graphviz version 2.36.0 (20140111.2315)
 -->
<!-- Title: AP_Mount_Backend::set_angle_targets Pages: 1 -->
<svg width="494pt" height="77pt"
 viewBox="0.00 0.00 494.00 77.00" xmlns="http://www.w3.org/2000/svg" xmlns:xlink="http://www.w3.org/1999/xlink">
<g id="graph0" class="graph" transform="scale(1 1) rotate(0) translate(4 73)">
<title>AP_Mount_Backend::set_angle_targets</title>
<polygon fill="white" stroke="none" points="-4,4 -4,-73 490,-73 490,4 -4,4"/>
<!-- Node1 -->
<g id="node1" class="node"><title>Node1</title>
<polygon fill="#bfbfbf" stroke="black" points="0.5,-22 0.5,-52 125.5,-52 125.5,-22 0.5,-22"/>
<text text-anchor="start" x="8.5" y="-40" font-family="Helvetica,sans-Serif" font-size="10.00">AP_Mount_Backend::set</text>
<text text-anchor="middle" x="63" y="-29" font-family="Helvetica,sans-Serif" font-size="10.00">_angle_targets</text>
</g>
<!-- Node2 -->
<g id="node2" class="node"><title>Node2</title>
<g id="a_node2"><a xlink:href="$classAP__Mount__Backend.html#ae975fe1daaa9722be740772fcb20e0ff" xlink:title="AP_Mount_Backend::control_msg">
<polygon fill="white" stroke="black" points="162.5,-49.5 162.5,-68.5 327.5,-68.5 327.5,-49.5 162.5,-49.5"/>
<text text-anchor="middle" x="245" y="-56.5" font-family="Helvetica,sans-Serif" font-size="10.00">AP_Mount_Backend::control_msg</text>
</a>
</g>
</g>
<!-- Node1&#45;&gt;Node2 -->
<g id="edge1" class="edge"><title>Node1&#45;&gt;Node2</title>
<path fill="none" stroke="midnightblue" d="M135.923,-45.7906C145.867,-47.0059 156.117,-48.2588 166.162,-49.4864"/>
<polygon fill="midnightblue" stroke="midnightblue" points="136.045,-42.2795 125.694,-44.5404 135.195,-49.2278 136.045,-42.2795"/>
</g>
<!-- Node4 -->
<g id="node4" class="node"><title>Node4</title>
<g id="a_node4"><a xlink:href="$classAP__Mount.html#a2f496d62bbfdf9ca0d0fea8e0225665c" xlink:title="AP_Mount::set_angle\l_targets">
<polygon fill="white" stroke="black" points="190,-0 190,-30 300,-30 300,-0 190,-0"/>
<text text-anchor="start" x="198" y="-18" font-family="Helvetica,sans-Serif" font-size="10.00">AP_Mount::set_angle</text>
<text text-anchor="middle" x="245" y="-7" font-family="Helvetica,sans-Serif" font-size="10.00">_targets</text>
</a>
</g>
</g>
<!-- Node1&#45;&gt;Node4 -->
<g id="edge3" class="edge"><title>Node1&#45;&gt;Node4</title>
<path fill="none" stroke="midnightblue" d="M135.871,-28.2158C153.889,-26.0136 172.919,-23.6877 189.907,-21.6114"/>
<polygon fill="midnightblue" stroke="midnightblue" points="135.195,-24.7722 125.694,-29.4596 136.045,-31.7205 135.195,-24.7722"/>
</g>
<!-- Node3 -->
<g id="node3" class="node"><title>Node3</title>
<g id="a_node3"><a xlink:href="$classAP__Mount.html#a88ddd07ac8d62ca4b93f06667ecb1fdc" xlink:title="AP_Mount::control_msg">
<polygon fill="white" stroke="black" points="364,-49.5 364,-68.5 486,-68.5 486,-49.5 364,-49.5"/>
<text text-anchor="middle" x="425" y="-56.5" font-family="Helvetica,sans-Serif" font-size="10.00">AP_Mount::control_msg</text>
</a>
</g>
</g>
<!-- Node2&#45;&gt;Node3 -->
<g id="edge2" class="edge"><title>Node2&#45;&gt;Node3</title>
<path fill="none" stroke="midnightblue" d="M337.985,-59C346.744,-59 355.464,-59 363.805,-59"/>
<polygon fill="midnightblue" stroke="midnightblue" points="337.707,-55.5001 327.706,-59 337.706,-62.5001 337.707,-55.5001"/>
</g>
</g>
</svg>
