<?xml version="1.0" encoding="UTF-8" standalone="no"?>
<!DOCTYPE svg PUBLIC "-//W3C//DTD SVG 1.1//EN"
 "http://www.w3.org/Graphics/SVG/1.1/DTD/svg11.dtd">
<!-- Generated by graphviz version 2.36.0 (20140111.2315)
 -->
<!-- Title: AP_Mount::get_mount_type Pages: 1 -->
<svg width="264pt" height="46pt"
 viewBox="0.00 0.00 264.00 46.00" xmlns="http://www.w3.org/2000/svg" xmlns:xlink="http://www.w3.org/1999/xlink">
<g id="graph0" class="graph" transform="scale(1 1) rotate(0) translate(4 42)">
<title>AP_Mount::get_mount_type</title>
<polygon fill="white" stroke="none" points="-4,4 -4,-42 260,-42 260,4 -4,4"/>
<!-- Node1 -->
<g id="node1" class="node"><title>Node1</title>
<polygon fill="#bfbfbf" stroke="black" points="0,-0.5 0,-19.5 138,-19.5 138,-0.5 0,-0.5"/>
<text text-anchor="middle" x="69" y="-7.5" font-family="Helvetica,sans-Serif" font-size="10.00">AP_Mount::get_mount_type</text>
</g>
<!-- Node1&#45;&gt;Node1 -->
<g id="edge1" class="edge"><title>Node1&#45;&gt;Node1</title>
<path fill="none" stroke="midnightblue" d="M41.7475,-28.6539C42.8867,-33.9368 51.9708,-38 69,-38 94.9492,-38 102.45,-28.5653 91.5028,-19.7571"/>
<polygon fill="midnightblue" stroke="midnightblue" points="44.8752,-30.227 46.4972,-19.7571 38.7001,-26.9303 44.8752,-30.227"/>
</g>
<!-- Node2 -->
<g id="node2" class="node"><title>Node2</title>
<g id="a_node2"><a xlink:href="$classAP__Mount.html#a22db30d5c40312a32a718a52ea013ed7" xlink:title="AP_Mount::init">
<polygon fill="white" stroke="black" points="174.5,-0.5 174.5,-19.5 255.5,-19.5 255.5,-0.5 174.5,-0.5"/>
<text text-anchor="middle" x="215" y="-7.5" font-family="Helvetica,sans-Serif" font-size="10.00">AP_Mount::init</text>
</a>
</g>
</g>
<!-- Node1&#45;&gt;Node2 -->
<g id="edge2" class="edge"><title>Node1&#45;&gt;Node2</title>
<path fill="none" stroke="midnightblue" d="M148.346,-10C157.305,-10 166.132,-10 174.266,-10"/>
<polygon fill="midnightblue" stroke="midnightblue" points="148.205,-6.5001 138.205,-10 148.205,-13.5001 148.205,-6.5001"/>
</g>
</g>
</svg>
