<?xml version="1.0" encoding="UTF-8" standalone="no"?>
<!DOCTYPE svg PUBLIC "-//W3C//DTD SVG 1.1//EN"
 "http://www.w3.org/Graphics/SVG/1.1/DTD/svg11.dtd">
<!-- Generated by graphviz version 2.36.0 (20140111.2315)
 -->
<!-- Title: PX4::PX4UARTDriver::_read_fd Pages: 1 -->
<svg width="576pt" height="185pt"
 viewBox="0.00 0.00 576.00 185.00" xmlns="http://www.w3.org/2000/svg" xmlns:xlink="http://www.w3.org/1999/xlink">
<g id="graph0" class="graph" transform="scale(1 1) rotate(0) translate(4 181)">
<title>PX4::PX4UARTDriver::_read_fd</title>
<polygon fill="white" stroke="none" points="-4,4 -4,-181 572,-181 572,4 -4,4"/>
<!-- Node1 -->
<g id="node1" class="node"><title>Node1</title>
<polygon fill="#bfbfbf" stroke="black" points="0,-73 0,-103 114,-103 114,-73 0,-73"/>
<text text-anchor="start" x="8" y="-91" font-family="Helvetica,sans-Serif" font-size="10.00">PX4::PX4UARTDriver</text>
<text text-anchor="middle" x="57" y="-80" font-family="Helvetica,sans-Serif" font-size="10.00">::_read_fd</text>
</g>
<!-- Node2 -->
<g id="node2" class="node"><title>Node2</title>
<g id="a_node2"><a xlink:href="$classPX4_1_1PX4UARTDriver.html#a0cfa3ca072d0d47a1b4427494d260c3c" xlink:title="PX4::PX4UARTDriver\l::read">
<polygon fill="white" stroke="black" points="150,-73 150,-103 264,-103 264,-73 150,-73"/>
<text text-anchor="start" x="158" y="-91" font-family="Helvetica,sans-Serif" font-size="10.00">PX4::PX4UARTDriver</text>
<text text-anchor="middle" x="207" y="-80" font-family="Helvetica,sans-Serif" font-size="10.00">::read</text>
</a>
</g>
</g>
<!-- Node1&#45;&gt;Node2 -->
<g id="edge1" class="edge"><title>Node1&#45;&gt;Node2</title>
<path fill="none" stroke="midnightblue" d="M114.375,-88C122.621,-88 131.178,-88 139.602,-88"/>
<polygon fill="midnightblue" stroke="midnightblue" points="139.782,-91.5001 149.782,-88 139.782,-84.5001 139.782,-91.5001"/>
</g>
<!-- Node3 -->
<g id="node3" class="node"><title>Node3</title>
<g id="a_node3"><a xlink:href="$classPX4_1_1PX4UARTDriver.html#a0b4321cec2488d6a8059018d17758084" xlink:title="PX4::PX4UARTDriver\l::try_initialise">
<polygon fill="white" stroke="black" points="300,-73 300,-103 414,-103 414,-73 300,-73"/>
<text text-anchor="start" x="308" y="-91" font-family="Helvetica,sans-Serif" font-size="10.00">PX4::PX4UARTDriver</text>
<text text-anchor="middle" x="357" y="-80" font-family="Helvetica,sans-Serif" font-size="10.00">::try_initialise</text>
</a>
</g>
</g>
<!-- Node2&#45;&gt;Node3 -->
<g id="edge2" class="edge"><title>Node2&#45;&gt;Node3</title>
<path fill="none" stroke="midnightblue" d="M264.375,-88C272.621,-88 281.178,-88 289.602,-88"/>
<polygon fill="midnightblue" stroke="midnightblue" points="289.782,-91.5001 299.782,-88 289.782,-84.5001 289.782,-91.5001"/>
</g>
<!-- Node4 -->
<g id="node4" class="node"><title>Node4</title>
<g id="a_node4"><a xlink:href="$classAP__HAL_1_1Scheduler.html#a26b68339fc68a562d8d3a1238d0ec8c1" xlink:title="AP_HAL::Scheduler::\lmillis">
<polygon fill="white" stroke="black" points="454,-147 454,-177 564,-177 564,-147 454,-147"/>
<text text-anchor="start" x="462" y="-165" font-family="Helvetica,sans-Serif" font-size="10.00">AP_HAL::Scheduler::</text>
<text text-anchor="middle" x="509" y="-154" font-family="Helvetica,sans-Serif" font-size="10.00">millis</text>
</a>
</g>
</g>
<!-- Node3&#45;&gt;Node4 -->
<g id="edge3" class="edge"><title>Node3&#45;&gt;Node4</title>
<path fill="none" stroke="midnightblue" d="M385.072,-103.176C403.241,-113.173 427.82,-126.335 450,-137 454.056,-138.95 458.303,-140.918 462.575,-142.847"/>
<polygon fill="midnightblue" stroke="midnightblue" points="461.342,-146.129 471.902,-146.988 464.182,-139.731 461.342,-146.129"/>
</g>
<!-- Node5 -->
<g id="node5" class="node"><title>Node5</title>
<g id="a_node5"><a xlink:href="$classAP__HAL_1_1Util.html#a9cd8bcd13d4c3c74c665b0702f86451b" xlink:title="AP_HAL::Util::safety\l_switch_state">
<polygon fill="white" stroke="black" points="454.5,-98 454.5,-128 563.5,-128 563.5,-98 454.5,-98"/>
<text text-anchor="start" x="462.5" y="-116" font-family="Helvetica,sans-Serif" font-size="10.00">AP_HAL::Util::safety</text>
<text text-anchor="middle" x="509" y="-105" font-family="Helvetica,sans-Serif" font-size="10.00">_switch_state</text>
</a>
</g>
</g>
<!-- Node3&#45;&gt;Node5 -->
<g id="edge4" class="edge"><title>Node3&#45;&gt;Node5</title>
<path fill="none" stroke="midnightblue" d="M414.281,-97.3802C424.132,-99.022 434.444,-100.741 444.474,-102.412"/>
<polygon fill="midnightblue" stroke="midnightblue" points="443.945,-105.872 454.384,-104.064 445.096,-98.9676 443.945,-105.872"/>
</g>
<!-- Node6 -->
<g id="node6" class="node"><title>Node6</title>
<g id="a_node6"><a xlink:href="$classAP__HAL_1_1Util.html#a973ee89f8eee7af3a4d2a3eb700cbf3c" xlink:title="AP_HAL::Util::get_soft\l_armed">
<polygon fill="white" stroke="black" points="450.5,-49 450.5,-79 567.5,-79 567.5,-49 450.5,-49"/>
<text text-anchor="start" x="458.5" y="-67" font-family="Helvetica,sans-Serif" font-size="10.00">AP_HAL::Util::get_soft</text>
<text text-anchor="middle" x="509" y="-56" font-family="Helvetica,sans-Serif" font-size="10.00">_armed</text>
</a>
</g>
</g>
<!-- Node3&#45;&gt;Node6 -->
<g id="edge5" class="edge"><title>Node3&#45;&gt;Node6</title>
<path fill="none" stroke="midnightblue" d="M414.281,-78.995C422.766,-77.6375 431.592,-76.2253 440.286,-74.8342"/>
<polygon fill="midnightblue" stroke="midnightblue" points="441.082,-78.2515 450.403,-73.2155 439.976,-71.3394 441.082,-78.2515"/>
</g>
<!-- Node7 -->
<g id="node7" class="node"><title>Node7</title>
<g id="a_node7"><a xlink:href="$classPX4_1_1PX4UARTDriver.html#a8eced50889d2c31d1e6095c4c7aef8b4" xlink:title="PX4::PX4UARTDriver\l::begin">
<polygon fill="white" stroke="black" points="452,-0 452,-30 566,-30 566,-0 452,-0"/>
<text text-anchor="start" x="460" y="-18" font-family="Helvetica,sans-Serif" font-size="10.00">PX4::PX4UARTDriver</text>
<text text-anchor="middle" x="509" y="-7" font-family="Helvetica,sans-Serif" font-size="10.00">::begin</text>
</a>
</g>
</g>
<!-- Node3&#45;&gt;Node7 -->
<g id="edge6" class="edge"><title>Node3&#45;&gt;Node7</title>
<path fill="none" stroke="midnightblue" d="M385.51,-72.9675C403.653,-63.2227 428.037,-50.4456 450,-40 454.065,-38.0669 458.317,-36.1111 462.592,-34.1894"/>
<polygon fill="midnightblue" stroke="midnightblue" points="464.196,-37.3069 471.924,-30.0592 461.363,-30.9058 464.196,-37.3069"/>
</g>
</g>
</svg>
