<?xml version="1.0" encoding="UTF-8" standalone="no"?>
<!DOCTYPE svg PUBLIC "-//W3C//DTD SVG 1.1//EN"
 "http://www.w3.org/Graphics/SVG/1.1/DTD/svg11.dtd">
<!-- Generated by graphviz version 2.36.0 (20140111.2315)
 -->
<!-- Title: AP_Param::find Pages: 1 -->
<svg width="684pt" height="224pt"
 viewBox="0.00 0.00 684.00 224.00" xmlns="http://www.w3.org/2000/svg" xmlns:xlink="http://www.w3.org/1999/xlink">
<g id="graph0" class="graph" transform="scale(1 1) rotate(0) translate(4 220)">
<title>AP_Param::find</title>
<polygon fill="white" stroke="none" points="-4,4 -4,-220 680,-220 680,4 -4,4"/>
<!-- Node1 -->
<g id="node1" class="node"><title>Node1</title>
<polygon fill="#bfbfbf" stroke="black" points="0,-98.5 0,-117.5 86,-117.5 86,-98.5 0,-98.5"/>
<text text-anchor="middle" x="43" y="-105.5" font-family="Helvetica,sans-Serif" font-size="10.00">AP_Param::find</text>
</g>
<!-- Node2 -->
<g id="node2" class="node"><title>Node2</title>
<g id="a_node2"><a xlink:href="$classHALSITL_1_1SITL__State.html#a7f809e8cf516b5c58839a6197a7d5a94" xlink:title="HALSITL::SITL_State\l::_set_param_default">
<polygon fill="white" stroke="black" points="126.5,-186 126.5,-216 239.5,-216 239.5,-186 126.5,-186"/>
<text text-anchor="start" x="134.5" y="-204" font-family="Helvetica,sans-Serif" font-size="10.00">HALSITL::SITL_State</text>
<text text-anchor="middle" x="183" y="-193" font-family="Helvetica,sans-Serif" font-size="10.00">::_set_param_default</text>
</a>
</g>
</g>
<!-- Node1&#45;&gt;Node2 -->
<g id="edge1" class="edge"><title>Node1&#45;&gt;Node2</title>
<path fill="none" stroke="midnightblue" d="M60.2983,-125.039C75.2655,-139.96 98.6092,-161.468 122,-176 127.847,-179.633 134.314,-182.953 140.774,-185.905"/>
<polygon fill="midnightblue" stroke="midnightblue" points="62.7887,-122.58 53.2791,-117.909 57.8003,-127.491 62.7887,-122.58"/>
</g>
<!-- Node6 -->
<g id="node6" class="node"><title>Node6</title>
<g id="a_node6"><a xlink:href="$classAP__Param.html#ac480e01b5b107e3227e31b67bc094e36" xlink:title="AP_Param::find_def\l_value_ptr">
<polygon fill="white" stroke="black" points="131,-137 131,-167 235,-167 235,-137 131,-137"/>
<text text-anchor="start" x="139" y="-155" font-family="Helvetica,sans-Serif" font-size="10.00">AP_Param::find_def</text>
<text text-anchor="middle" x="183" y="-144" font-family="Helvetica,sans-Serif" font-size="10.00">_value_ptr</text>
</a>
</g>
</g>
<!-- Node1&#45;&gt;Node6 -->
<g id="edge5" class="edge"><title>Node1&#45;&gt;Node6</title>
<path fill="none" stroke="midnightblue" d="M83.5157,-120.599C99.4919,-125.693 118.066,-131.615 134.75,-136.935"/>
<polygon fill="midnightblue" stroke="midnightblue" points="84.5346,-117.251 73.9439,-117.547 82.4082,-123.92 84.5346,-117.251"/>
</g>
<!-- Node7 -->
<g id="node7" class="node"><title>Node7</title>
<g id="a_node7"><a xlink:href="$classAP__Param.html#aaf8ba3a65ec52beab969261c87efd2da" xlink:title="AP_Param::find_P">
<polygon fill="white" stroke="black" points="134,-98.5 134,-117.5 232,-117.5 232,-98.5 134,-98.5"/>
<text text-anchor="middle" x="183" y="-105.5" font-family="Helvetica,sans-Serif" font-size="10.00">AP_Param::find_P</text>
</a>
</g>
</g>
<!-- Node1&#45;&gt;Node7 -->
<g id="edge6" class="edge"><title>Node1&#45;&gt;Node7</title>
<path fill="none" stroke="midnightblue" d="M96.2904,-108C108.614,-108 121.693,-108 133.825,-108"/>
<polygon fill="midnightblue" stroke="midnightblue" points="96.1544,-104.5 86.1544,-108 96.1544,-111.5 96.1544,-104.5"/>
</g>
<!-- Node10 -->
<g id="node10" class="node"><title>Node10</title>
<g id="a_node10"><a xlink:href="$classGCS__MAVLINK.html#a5049292431ff6787cd0c4fe69e7fa494" xlink:title="GCS_MAVLINK::handle\l_param_request_read">
<polygon fill="white" stroke="black" points="122,-49 122,-79 244,-79 244,-49 122,-49"/>
<text text-anchor="start" x="130" y="-67" font-family="Helvetica,sans-Serif" font-size="10.00">GCS_MAVLINK::handle</text>
<text text-anchor="middle" x="183" y="-56" font-family="Helvetica,sans-Serif" font-size="10.00">_param_request_read</text>
</a>
</g>
</g>
<!-- Node1&#45;&gt;Node10 -->
<g id="edge9" class="edge"><title>Node1&#45;&gt;Node10</title>
<path fill="none" stroke="midnightblue" d="M83.5157,-95.4008C99.4919,-90.3069 118.066,-84.3849 134.75,-79.0654"/>
<polygon fill="midnightblue" stroke="midnightblue" points="82.4082,-92.0802 73.9439,-98.4527 84.5346,-98.7495 82.4082,-92.0802"/>
</g>
<!-- Node11 -->
<g id="node11" class="node"><title>Node11</title>
<g id="a_node11"><a xlink:href="$classAP__Param.html#a73a0329947d9589ea5f715212f4d1692" xlink:title="AP_Param::set_param\l_by_name">
<polygon fill="white" stroke="black" points="125,-0 125,-30 241,-30 241,-0 125,-0"/>
<text text-anchor="start" x="133" y="-18" font-family="Helvetica,sans-Serif" font-size="10.00">AP_Param::set_param</text>
<text text-anchor="middle" x="183" y="-7" font-family="Helvetica,sans-Serif" font-size="10.00">_by_name</text>
</a>
</g>
</g>
<!-- Node1&#45;&gt;Node11 -->
<g id="edge10" class="edge"><title>Node1&#45;&gt;Node11</title>
<path fill="none" stroke="midnightblue" d="M59.7078,-91.1159C74.5867,-75.8931 98.1465,-53.7029 122,-39 127.348,-35.7034 133.228,-32.7006 139.15,-30.0209"/>
<polygon fill="midnightblue" stroke="midnightblue" points="57.1536,-88.7227 52.7628,-98.3649 62.2082,-93.5653 57.1536,-88.7227"/>
</g>
<!-- Node3 -->
<g id="node3" class="node"><title>Node3</title>
<g id="a_node3"><a xlink:href="$classHALSITL_1_1SITL__State.html#a5211ba971055052489d9817c3388c4c2" xlink:title="HALSITL::SITL_State\l::_parse_command_line">
<polygon fill="white" stroke="black" points="281,-186 281,-216 401,-216 401,-186 281,-186"/>
<text text-anchor="start" x="289" y="-204" font-family="Helvetica,sans-Serif" font-size="10.00">HALSITL::SITL_State</text>
<text text-anchor="middle" x="341" y="-193" font-family="Helvetica,sans-Serif" font-size="10.00">::_parse_command_line</text>
</a>
</g>
</g>
<!-- Node2&#45;&gt;Node3 -->
<g id="edge2" class="edge"><title>Node2&#45;&gt;Node3</title>
<path fill="none" stroke="midnightblue" d="M249.994,-201C260.23,-201 270.748,-201 280.822,-201"/>
<polygon fill="midnightblue" stroke="midnightblue" points="249.879,-197.5 239.879,-201 249.879,-204.5 249.879,-197.5"/>
</g>
<!-- Node4 -->
<g id="node4" class="node"><title>Node4</title>
<g id="a_node4"><a xlink:href="$classHALSITL_1_1SITL__State.html#a7059cb4e279007aae9b06757a68c15af" xlink:title="HALSITL::SITL_State\l::init">
<polygon fill="white" stroke="black" points="441.5,-186 441.5,-216 554.5,-216 554.5,-186 441.5,-186"/>
<text text-anchor="start" x="449.5" y="-204" font-family="Helvetica,sans-Serif" font-size="10.00">HALSITL::SITL_State</text>
<text text-anchor="middle" x="498" y="-193" font-family="Helvetica,sans-Serif" font-size="10.00">::init</text>
</a>
</g>
</g>
<!-- Node3&#45;&gt;Node4 -->
<g id="edge3" class="edge"><title>Node3&#45;&gt;Node4</title>
<path fill="none" stroke="midnightblue" d="M411.104,-201C421.258,-201 431.606,-201 441.441,-201"/>
<polygon fill="midnightblue" stroke="midnightblue" points="411.041,-197.5 401.041,-201 411.041,-204.5 411.041,-197.5"/>
</g>
<!-- Node5 -->
<g id="node5" class="node"><title>Node5</title>
<g id="a_node5"><a xlink:href="$classHAL__SITL.html#aaee5180f1c92899c19422d24a3ec42d3" xlink:title="HAL_SITL::init">
<polygon fill="white" stroke="black" points="594.5,-191.5 594.5,-210.5 675.5,-210.5 675.5,-191.5 594.5,-191.5"/>
<text text-anchor="middle" x="635" y="-198.5" font-family="Helvetica,sans-Serif" font-size="10.00">HAL_SITL::init</text>
</a>
</g>
</g>
<!-- Node4&#45;&gt;Node5 -->
<g id="edge4" class="edge"><title>Node4&#45;&gt;Node5</title>
<path fill="none" stroke="midnightblue" d="M565.001,-201C574.947,-201 584.935,-201 594.103,-201"/>
<polygon fill="midnightblue" stroke="midnightblue" points="564.689,-197.5 554.689,-201 564.689,-204.5 564.689,-197.5"/>
</g>
<!-- Node8 -->
<g id="node8" class="node"><title>Node8</title>
<g id="a_node8"><a xlink:href="$classAP__Param.html#a508aefe4d24c20bada33f79e8bb14a12" xlink:title="AP_Param::convert_old\l_parameter">
<polygon fill="white" stroke="black" points="281,-93 281,-123 401,-123 401,-93 281,-93"/>
<text text-anchor="start" x="289" y="-111" font-family="Helvetica,sans-Serif" font-size="10.00">AP_Param::convert_old</text>
<text text-anchor="middle" x="341" y="-100" font-family="Helvetica,sans-Serif" font-size="10.00">_parameter</text>
</a>
</g>
</g>
<!-- Node7&#45;&gt;Node8 -->
<g id="edge7" class="edge"><title>Node7&#45;&gt;Node8</title>
<path fill="none" stroke="midnightblue" d="M242.415,-108C254.961,-108 268.229,-108 280.804,-108"/>
<polygon fill="midnightblue" stroke="midnightblue" points="242.078,-104.5 232.078,-108 242.078,-111.5 242.078,-104.5"/>
</g>
<!-- Node9 -->
<g id="node9" class="node"><title>Node9</title>
<g id="a_node9"><a xlink:href="$classAP__Param.html#a25fd45233974736c2ac8e4680882a235" xlink:title="AP_Param::convert_old\l_parameters">
<polygon fill="white" stroke="black" points="438,-93 438,-123 558,-123 558,-93 438,-93"/>
<text text-anchor="start" x="446" y="-111" font-family="Helvetica,sans-Serif" font-size="10.00">AP_Param::convert_old</text>
<text text-anchor="middle" x="498" y="-100" font-family="Helvetica,sans-Serif" font-size="10.00">_parameters</text>
</a>
</g>
</g>
<!-- Node8&#45;&gt;Node9 -->
<g id="edge8" class="edge"><title>Node8&#45;&gt;Node9</title>
<path fill="none" stroke="midnightblue" d="M411.053,-108C420,-108 429.1,-108 437.867,-108"/>
<polygon fill="midnightblue" stroke="midnightblue" points="411.041,-104.5 401.041,-108 411.041,-111.5 411.041,-104.5"/>
</g>
<!-- Node12 -->
<g id="node12" class="node"><title>Node12</title>
<g id="a_node12"><a xlink:href="$classGCS__MAVLINK.html#ae8138868be824c9478307c705a0e6763" xlink:title="GCS_MAVLINK::handle\l_param_set">
<polygon fill="white" stroke="black" points="280,-0 280,-30 402,-30 402,-0 280,-0"/>
<text text-anchor="start" x="288" y="-18" font-family="Helvetica,sans-Serif" font-size="10.00">GCS_MAVLINK::handle</text>
<text text-anchor="middle" x="341" y="-7" font-family="Helvetica,sans-Serif" font-size="10.00">_param_set</text>
</a>
</g>
</g>
<!-- Node11&#45;&gt;Node12 -->
<g id="edge11" class="edge"><title>Node11&#45;&gt;Node12</title>
<path fill="none" stroke="midnightblue" d="M251.389,-15C260.878,-15 270.581,-15 279.922,-15"/>
<polygon fill="midnightblue" stroke="midnightblue" points="251.203,-11.5001 241.203,-15 251.203,-18.5001 251.203,-11.5001"/>
</g>
</g>
</svg>
