<?xml version="1.0" encoding="UTF-8" standalone="no"?>
<!DOCTYPE svg PUBLIC "-//W3C//DTD SVG 1.1//EN"
 "http://www.w3.org/Graphics/SVG/1.1/DTD/svg11.dtd">
<!-- Generated by graphviz version 2.36.0 (20140111.2315)
 -->
<!-- Title: AP_Mission::update Pages: 1 -->
<svg width="1210pt" height="222pt"
 viewBox="0.00 0.00 1210.00 222.00" xmlns="http://www.w3.org/2000/svg" xmlns:xlink="http://www.w3.org/1999/xlink">
<g id="graph0" class="graph" transform="scale(1 1) rotate(0) translate(4 218)">
<title>AP_Mission::update</title>
<polygon fill="white" stroke="none" points="-4,4 -4,-218 1206,-218 1206,4 -4,4"/>
<!-- Node1 -->
<g id="node1" class="node"><title>Node1</title>
<polygon fill="#bfbfbf" stroke="black" points="0,-44.5 0,-63.5 104,-63.5 104,-44.5 0,-44.5"/>
<text text-anchor="middle" x="52" y="-51.5" font-family="Helvetica,sans-Serif" font-size="10.00">AP_Mission::update</text>
</g>
<!-- Node2 -->
<g id="node2" class="node"><title>Node2</title>
<g id="a_node2"><a xlink:href="$classAP__Mission.html#ae05ea495d92356695fa5547cf4e3cff3" xlink:title="AP_Mission::advance\l_current_nav_cmd">
<polygon fill="white" stroke="black" points="293,-86 293,-116 405,-116 405,-86 293,-86"/>
<text text-anchor="start" x="301" y="-104" font-family="Helvetica,sans-Serif" font-size="10.00">AP_Mission::advance</text>
<text text-anchor="middle" x="349" y="-93" font-family="Helvetica,sans-Serif" font-size="10.00">_current_nav_cmd</text>
</a>
</g>
</g>
<!-- Node1&#45;&gt;Node2 -->
<g id="edge1" class="edge"><title>Node1&#45;&gt;Node2</title>
<path fill="none" stroke="midnightblue" d="M82.9192,-63.5214C99.5725,-68.4993 120.766,-74.3079 140,-78 187.365,-87.092 241.538,-92.9392 282.723,-96.4621"/>
<polygon fill="midnightblue" stroke="midnightblue" points="282.646,-99.9677 292.901,-97.3082 283.226,-92.9918 282.646,-99.9677"/>
</g>
<!-- Node15 -->
<g id="node15" class="node"><title>Node15</title>
<g id="a_node15"><a xlink:href="$classAP__Mission.html#ae04bc9bd768577cb710e91a789fe3507" xlink:title="complete &#45; mission is marked complete and clean&#45;up performed including calling the mission_complete_f...">
<polygon fill="white" stroke="black" points="140.5,-0.5 140.5,-19.5 255.5,-19.5 255.5,-0.5 140.5,-0.5"/>
<text text-anchor="middle" x="198" y="-7.5" font-family="Helvetica,sans-Serif" font-size="10.00">AP_Mission::complete</text>
</a>
</g>
</g>
<!-- Node1&#45;&gt;Node15 -->
<g id="edge16" class="edge"><title>Node1&#45;&gt;Node15</title>
<path fill="none" stroke="midnightblue" d="M84.2459,-44.4527C105.286,-38.0237 133.249,-29.4794 156.064,-22.5082"/>
<polygon fill="midnightblue" stroke="midnightblue" points="157.274,-25.7982 165.815,-19.5287 155.229,-19.1037 157.274,-25.7982"/>
</g>
<!-- Node16 -->
<g id="node16" class="node"><title>Node16</title>
<g id="a_node16"><a xlink:href="$classAP__Mission.html#af0264d3532a927fa13f5e25ac2137d32" xlink:title="AP_Mission::advance\l_current_do_cmd">
<polygon fill="white" stroke="black" points="142,-39 142,-69 254,-69 254,-39 142,-39"/>
<text text-anchor="start" x="150" y="-57" font-family="Helvetica,sans-Serif" font-size="10.00">AP_Mission::advance</text>
<text text-anchor="middle" x="198" y="-46" font-family="Helvetica,sans-Serif" font-size="10.00">_current_do_cmd</text>
</a>
</g>
</g>
<!-- Node1&#45;&gt;Node16 -->
<g id="edge17" class="edge"><title>Node1&#45;&gt;Node16</title>
<path fill="none" stroke="midnightblue" d="M104.174,-54C112.985,-54 122.25,-54 131.378,-54"/>
<polygon fill="midnightblue" stroke="midnightblue" points="131.593,-57.5001 141.593,-54 131.593,-50.5001 131.593,-57.5001"/>
</g>
<!-- Node3 -->
<g id="node3" class="node"><title>Node3</title>
<g id="a_node3"><a xlink:href="$classAP__Mission.html#a7c36d142e7c758ce6f2a77c075fed793" xlink:title="AP_Mission::get_next_cmd">
<polygon fill="white" stroke="black" points="442.5,-88.5 442.5,-107.5 579.5,-107.5 579.5,-88.5 442.5,-88.5"/>
<text text-anchor="middle" x="511" y="-95.5" font-family="Helvetica,sans-Serif" font-size="10.00">AP_Mission::get_next_cmd</text>
</a>
</g>
</g>
<!-- Node2&#45;&gt;Node3 -->
<g id="edge2" class="edge"><title>Node2&#45;&gt;Node3</title>
<path fill="none" stroke="midnightblue" d="M405.063,-99.9676C413.798,-99.8038 422.974,-99.6317 432.113,-99.4604"/>
<polygon fill="midnightblue" stroke="midnightblue" points="432.458,-102.955 442.39,-99.2677 432.326,-95.9559 432.458,-102.955"/>
</g>
<!-- Node14 -->
<g id="node14" class="node"><title>Node14</title>
<g id="a_node14"><a xlink:href="$classAP__Mission.html#a0333558302eb51de1c6b8a1b50380f50" xlink:title="is_nav_cmd &#45; returns true if the command&#39;s id is a &quot;navigation&quot; command, false if &quot;do&quot; or &quot;conditiona...">
<polygon fill="white" stroke="black" points="447,-47.5 447,-66.5 575,-66.5 575,-47.5 447,-47.5"/>
<text text-anchor="middle" x="511" y="-54.5" font-family="Helvetica,sans-Serif" font-size="10.00">AP_Mission::is_nav_cmd</text>
</a>
</g>
</g>
<!-- Node2&#45;&gt;Node14 -->
<g id="edge15" class="edge"><title>Node2&#45;&gt;Node14</title>
<path fill="none" stroke="midnightblue" d="M404.615,-85.9808C424.414,-80.5362 446.526,-74.4554 465.363,-69.2751"/>
<polygon fill="midnightblue" stroke="midnightblue" points="466.456,-72.6046 475.17,-66.5783 464.6,-65.8552 466.456,-72.6046"/>
</g>
<!-- Node4 -->
<g id="node4" class="node"><title>Node4</title>
<g id="a_node4"><a xlink:href="$classAP__Mission.html#afa29a34a739b0fc995194412dde6e532" xlink:title="AP_Mission::read_cmd\l_from_storage">
<polygon fill="white" stroke="black" points="616,-132 616,-162 734,-162 734,-132 616,-132"/>
<text text-anchor="start" x="624" y="-150" font-family="Helvetica,sans-Serif" font-size="10.00">AP_Mission::read_cmd</text>
<text text-anchor="middle" x="675" y="-139" font-family="Helvetica,sans-Serif" font-size="10.00">_from_storage</text>
</a>
</g>
</g>
<!-- Node3&#45;&gt;Node4 -->
<g id="edge3" class="edge"><title>Node3&#45;&gt;Node4</title>
<path fill="none" stroke="midnightblue" d="M543.62,-107.564C563.771,-113.659 590.517,-121.749 614.537,-129.014"/>
<polygon fill="midnightblue" stroke="midnightblue" points="613.701,-132.418 624.286,-131.963 615.728,-125.718 613.701,-132.418"/>
</g>
<!-- Node12 -->
<g id="node12" class="node"><title>Node12</title>
<g id="a_node12"><a xlink:href="$classAP__Mission.html#ae9f8a591b4c8269b44059af9ce1dc4b1" xlink:title="get_jump_times_run &#45; returns number of times the jump command has been run ">
<polygon fill="white" stroke="black" points="617.5,-83 617.5,-113 732.5,-113 732.5,-83 617.5,-83"/>
<text text-anchor="start" x="625.5" y="-101" font-family="Helvetica,sans-Serif" font-size="10.00">AP_Mission::get_jump</text>
<text text-anchor="middle" x="675" y="-90" font-family="Helvetica,sans-Serif" font-size="10.00">_times_run</text>
</a>
</g>
</g>
<!-- Node3&#45;&gt;Node12 -->
<g id="edge13" class="edge"><title>Node3&#45;&gt;Node12</title>
<path fill="none" stroke="midnightblue" d="M579.764,-98C588.835,-98 598.134,-98 607.189,-98"/>
<polygon fill="midnightblue" stroke="midnightblue" points="607.283,-101.5 617.283,-98 607.283,-94.5001 607.283,-101.5"/>
</g>
<!-- Node13 -->
<g id="node13" class="node"><title>Node13</title>
<g id="a_node13"><a xlink:href="$classAP__Mission.html#ab59bc82aa364f6119d923f47c6f1204b" xlink:title="increment_jump_times_run &#45; increments the recorded number of times the jump command has been run ...">
<polygon fill="white" stroke="black" points="616,-34 616,-64 734,-64 734,-34 616,-34"/>
<text text-anchor="start" x="624" y="-52" font-family="Helvetica,sans-Serif" font-size="10.00">AP_Mission::increment</text>
<text text-anchor="middle" x="675" y="-41" font-family="Helvetica,sans-Serif" font-size="10.00">_jump_times_run</text>
</a>
</g>
</g>
<!-- Node3&#45;&gt;Node13 -->
<g id="edge14" class="edge"><title>Node3&#45;&gt;Node13</title>
<path fill="none" stroke="midnightblue" d="M543.62,-88.436C563.771,-82.3408 590.517,-74.2512 614.537,-66.9857"/>
<polygon fill="midnightblue" stroke="midnightblue" points="615.728,-70.2823 624.286,-64.037 613.701,-63.5821 615.728,-70.2823"/>
</g>
<!-- Node5 -->
<g id="node5" class="node"><title>Node5</title>
<g id="a_node5"><a xlink:href="$classAP__AHRS.html#aea45b16e6469a3b392b8bf52fb864732" xlink:title="AP_AHRS::get_home">
<polygon fill="white" stroke="black" points="779.5,-194.5 779.5,-213.5 892.5,-213.5 892.5,-194.5 779.5,-194.5"/>
<text text-anchor="middle" x="836" y="-201.5" font-family="Helvetica,sans-Serif" font-size="10.00">AP_AHRS::get_home</text>
</a>
</g>
</g>
<!-- Node4&#45;&gt;Node5 -->
<g id="edge4" class="edge"><title>Node4&#45;&gt;Node5</title>
<path fill="none" stroke="midnightblue" d="M718.192,-162.125C743.258,-171.111 774.725,-182.392 798.681,-190.98"/>
<polygon fill="midnightblue" stroke="midnightblue" points="797.525,-194.283 808.119,-194.363 799.887,-187.694 797.525,-194.283"/>
</g>
<!-- Node6 -->
<g id="node6" class="node"><title>Node6</title>
<g id="a_node6"><a xlink:href="$classStorageAccess.html#a9a3fc24569bd437ffcb41de520bb3955" xlink:title="StorageAccess::read_byte">
<polygon fill="white" stroke="black" points="770,-118.5 770,-137.5 902,-137.5 902,-118.5 770,-118.5"/>
<text text-anchor="middle" x="836" y="-125.5" font-family="Helvetica,sans-Serif" font-size="10.00">StorageAccess::read_byte</text>
</a>
</g>
</g>
<!-- Node4&#45;&gt;Node6 -->
<g id="edge5" class="edge"><title>Node4&#45;&gt;Node6</title>
<path fill="none" stroke="midnightblue" d="M734.303,-140.033C742.648,-139.036 751.329,-137.998 759.941,-136.969"/>
<polygon fill="midnightblue" stroke="midnightblue" points="760.479,-140.43 769.994,-135.768 759.649,-133.479 760.479,-140.43"/>
</g>
<!-- Node7 -->
<g id="node7" class="node"><title>Node7</title>
<g id="a_node7"><a xlink:href="$classStorageAccess.html#ab2a8575d541549a15645edc360fdaa91" xlink:title="StorageAccess::read\l_block">
<polygon fill="white" stroke="black" points="938,-113 938,-143 1046,-143 1046,-113 938,-113"/>
<text text-anchor="start" x="946" y="-131" font-family="Helvetica,sans-Serif" font-size="10.00">StorageAccess::read</text>
<text text-anchor="middle" x="992" y="-120" font-family="Helvetica,sans-Serif" font-size="10.00">_block</text>
</a>
</g>
</g>
<!-- Node4&#45;&gt;Node7 -->
<g id="edge12" class="edge"><title>Node4&#45;&gt;Node7</title>
<path fill="none" stroke="midnightblue" d="M734.238,-150.349C779.983,-152.173 845.227,-152.993 902,-147 910.357,-146.118 919.083,-144.782 927.664,-143.219"/>
<polygon fill="midnightblue" stroke="midnightblue" points="928.485,-146.626 937.641,-141.294 927.159,-139.753 928.485,-146.626"/>
</g>
<!-- Node11 -->
<g id="node11" class="node"><title>Node11</title>
<g id="a_node11"><a xlink:href="$classStorageAccess.html#ac7ca06ca086f97a302e94ecaf9b18b80" xlink:title="StorageAccess::read\l_uint16">
<polygon fill="white" stroke="black" points="782,-69 782,-99 890,-99 890,-69 782,-69"/>
<text text-anchor="start" x="790" y="-87" font-family="Helvetica,sans-Serif" font-size="10.00">StorageAccess::read</text>
<text text-anchor="middle" x="836" y="-76" font-family="Helvetica,sans-Serif" font-size="10.00">_uint16</text>
</a>
</g>
</g>
<!-- Node4&#45;&gt;Node11 -->
<g id="edge10" class="edge"><title>Node4&#45;&gt;Node11</title>
<path fill="none" stroke="midnightblue" d="M712.998,-131.875C730.287,-124.85 751.169,-116.427 770,-109 775.132,-106.976 780.499,-104.879 785.854,-102.8"/>
<polygon fill="midnightblue" stroke="midnightblue" points="787.365,-105.969 795.429,-99.0965 784.84,-99.4403 787.365,-105.969"/>
</g>
<!-- Node6&#45;&gt;Node7 -->
<g id="edge6" class="edge"><title>Node6&#45;&gt;Node7</title>
<path fill="none" stroke="midnightblue" d="M902.31,-128C910.702,-128 919.285,-128 927.645,-128"/>
<polygon fill="midnightblue" stroke="midnightblue" points="927.705,-131.5 937.705,-128 927.705,-124.5 927.705,-131.5"/>
</g>
<!-- Node8 -->
<g id="node8" class="node"><title>Node8</title>
<g id="a_node8"><a xlink:href="$AP__Progmem__Identity_8h.html#a9fc333349fa71fdc21a2d5152c5e23a2" xlink:title="pgm_read_word">
<polygon fill="white" stroke="black" points="1099,-156.5 1099,-175.5 1185,-175.5 1185,-156.5 1099,-156.5"/>
<text text-anchor="middle" x="1142" y="-163.5" font-family="Helvetica,sans-Serif" font-size="10.00">pgm_read_word</text>
</a>
</g>
</g>
<!-- Node7&#45;&gt;Node8 -->
<g id="edge7" class="edge"><title>Node7&#45;&gt;Node8</title>
<path fill="none" stroke="midnightblue" d="M1046.01,-141.612C1061.66,-145.63 1078.68,-149.998 1093.92,-153.913"/>
<polygon fill="midnightblue" stroke="midnightblue" points="1093.1,-157.315 1103.66,-156.412 1094.84,-150.535 1093.1,-157.315"/>
</g>
<!-- Node9 -->
<g id="node9" class="node"><title>Node9</title>
<g id="a_node9"><a xlink:href="$AP__Progmem__Identity_8h.html#a1514e0408e036062b4af844baaf567da" xlink:title="pgm_read_byte">
<polygon fill="white" stroke="black" points="1100.5,-118.5 1100.5,-137.5 1183.5,-137.5 1183.5,-118.5 1100.5,-118.5"/>
<text text-anchor="middle" x="1142" y="-125.5" font-family="Helvetica,sans-Serif" font-size="10.00">pgm_read_byte</text>
</a>
</g>
</g>
<!-- Node7&#45;&gt;Node9 -->
<g id="edge8" class="edge"><title>Node7&#45;&gt;Node9</title>
<path fill="none" stroke="midnightblue" d="M1046.01,-128C1060.43,-128 1076.01,-128 1090.29,-128"/>
<polygon fill="midnightblue" stroke="midnightblue" points="1090.43,-131.5 1100.43,-128 1090.43,-124.5 1090.43,-131.5"/>
</g>
<!-- Node10 -->
<g id="node10" class="node"><title>Node10</title>
<g id="a_node10"><a xlink:href="$classAP__HAL_1_1Storage.html#a1c3b1e80b0bec7d4bacd3ecbefb3b3f3" xlink:title="AP_HAL::Storage::read\l_block">
<polygon fill="white" stroke="black" points="1082.5,-69 1082.5,-99 1201.5,-99 1201.5,-69 1082.5,-69"/>
<text text-anchor="start" x="1090.5" y="-87" font-family="Helvetica,sans-Serif" font-size="10.00">AP_HAL::Storage::read</text>
<text text-anchor="middle" x="1142" y="-76" font-family="Helvetica,sans-Serif" font-size="10.00">_block</text>
</a>
</g>
</g>
<!-- Node7&#45;&gt;Node10 -->
<g id="edge9" class="edge"><title>Node7&#45;&gt;Node10</title>
<path fill="none" stroke="midnightblue" d="M1043.52,-112.981C1055.48,-109.425 1068.35,-105.598 1080.7,-101.928"/>
<polygon fill="midnightblue" stroke="midnightblue" points="1081.87,-105.231 1090.46,-99.0262 1079.87,-98.5211 1081.87,-105.231"/>
</g>
<!-- Node11&#45;&gt;Node7 -->
<g id="edge11" class="edge"><title>Node11&#45;&gt;Node7</title>
<path fill="none" stroke="midnightblue" d="M889.567,-99.0192C902.135,-102.61 915.672,-106.478 928.634,-110.181"/>
<polygon fill="midnightblue" stroke="midnightblue" points="927.831,-113.592 938.408,-112.974 929.755,-106.861 927.831,-113.592"/>
</g>
<!-- Node17 -->
<g id="node17" class="node"><title>Node17</title>
<g id="a_node17"><a xlink:href="$classAP__Mission.html#ae3f59ffb115afa5f34aea906434a841c" xlink:title="AP_Mission::get_next\l_do_cmd">
<polygon fill="white" stroke="black" points="292.5,-37 292.5,-67 405.5,-67 405.5,-37 292.5,-37"/>
<text text-anchor="start" x="300.5" y="-55" font-family="Helvetica,sans-Serif" font-size="10.00">AP_Mission::get_next</text>
<text text-anchor="middle" x="349" y="-44" font-family="Helvetica,sans-Serif" font-size="10.00">_do_cmd</text>
</a>
</g>
</g>
<!-- Node16&#45;&gt;Node17 -->
<g id="edge18" class="edge"><title>Node16&#45;&gt;Node17</title>
<path fill="none" stroke="midnightblue" d="M254.059,-53.261C263.191,-53.1384 272.742,-53.0102 282.108,-52.8844"/>
<polygon fill="midnightblue" stroke="midnightblue" points="282.22,-56.3834 292.172,-52.7494 282.126,-49.384 282.22,-56.3834"/>
</g>
<!-- Node17&#45;&gt;Node3 -->
<g id="edge19" class="edge"><title>Node17&#45;&gt;Node3</title>
<path fill="none" stroke="midnightblue" d="M402.39,-67.0621C423.285,-73.0694 447.044,-79.9001 466.912,-85.6123"/>
<polygon fill="midnightblue" stroke="midnightblue" points="466.039,-89.003 476.617,-88.4024 467.973,-82.2755 466.039,-89.003"/>
</g>
<!-- Node17&#45;&gt;Node14 -->
<g id="edge20" class="edge"><title>Node17&#45;&gt;Node14</title>
<path fill="none" stroke="midnightblue" d="M405.511,-53.7347C415.634,-54.0511 426.336,-54.3855 436.877,-54.7149"/>
<polygon fill="midnightblue" stroke="midnightblue" points="436.806,-58.2143 446.911,-55.0285 437.025,-51.2177 436.806,-58.2143"/>
</g>
</g>
</svg>
