<?xml version="1.0" encoding="UTF-8" standalone="no"?>
<!DOCTYPE svg PUBLIC "-//W3C//DTD SVG 1.1//EN"
 "http://www.w3.org/Graphics/SVG/1.1/DTD/svg11.dtd">
<!-- Generated by graphviz version 2.36.0 (20140111.2315)
 -->
<!-- Title: NavEKF::SelectFlowFusion Pages: 1 -->
<svg width="742pt" height="475pt"
 viewBox="0.00 0.00 742.00 474.85" xmlns="http://www.w3.org/2000/svg" xmlns:xlink="http://www.w3.org/1999/xlink">
<g id="graph0" class="graph" transform="scale(1 1) rotate(0) translate(4 470.853)">
<title>NavEKF::SelectFlowFusion</title>
<polygon fill="white" stroke="none" points="-4,4 -4,-470.853 738,-470.853 738,4 -4,4"/>
<!-- Node1 -->
<g id="node1" class="node"><title>Node1</title>
<polygon fill="#bfbfbf" stroke="black" points="0,-304.5 0,-323.5 138,-323.5 138,-304.5 0,-304.5"/>
<text text-anchor="middle" x="69" y="-311.5" font-family="Helvetica,sans-Serif" font-size="10.00">NavEKF::SelectFlowFusion</text>
</g>
<!-- Node2 -->
<g id="node2" class="node"><title>Node2</title>
<g id="a_node2"><a xlink:href="$classVector3.html#adf1769d5ee5df2f8585df2f540fa5efe" xlink:title="Vector3::zero">
<polygon fill="white" stroke="black" points="413.5,-418.5 413.5,-437.5 488.5,-437.5 488.5,-418.5 413.5,-418.5"/>
<text text-anchor="middle" x="451" y="-425.5" font-family="Helvetica,sans-Serif" font-size="10.00">Vector3::zero</text>
</a>
</g>
</g>
<!-- Node1&#45;&gt;Node2 -->
<g id="edge1" class="edge"><title>Node1&#45;&gt;Node2</title>
<path fill="none" stroke="midnightblue" d="M73.9776,-323.83C85.1238,-349.864 119.46,-420.413 174,-447 253.459,-485.734 361.319,-458.954 415.676,-440.84"/>
<polygon fill="midnightblue" stroke="midnightblue" points="416.862,-444.133 425.183,-437.576 414.589,-437.512 416.862,-444.133"/>
</g>
<!-- Node3 -->
<g id="node3" class="node"><title>Node3</title>
<g id="a_node3"><a xlink:href="$classNavEKF.html#acb20ad8ad982539dcb608533b0fe77d0" xlink:title="NavEKF::ResetVelocity">
<polygon fill="white" stroke="black" points="191,-418.5 191,-437.5 313,-437.5 313,-418.5 191,-418.5"/>
<text text-anchor="middle" x="252" y="-425.5" font-family="Helvetica,sans-Serif" font-size="10.00">NavEKF::ResetVelocity</text>
</a>
</g>
</g>
<!-- Node1&#45;&gt;Node3 -->
<g id="edge2" class="edge"><title>Node1&#45;&gt;Node3</title>
<path fill="none" stroke="midnightblue" d="M78.4789,-323.598C95.0687,-341.818 133.73,-381.593 174,-404 181.997,-408.45 190.93,-412.192 199.799,-415.297"/>
<polygon fill="midnightblue" stroke="midnightblue" points="198.759,-418.639 209.351,-418.421 200.935,-411.986 198.759,-418.639"/>
</g>
<!-- Node4 -->
<g id="node4" class="node"><title>Node4</title>
<g id="a_node4"><a xlink:href="$classNavEKF.html#affa6086752a2e15969daf07961f9e051" xlink:title="NavEKF::ResetPosition">
<polygon fill="white" stroke="black" points="191,-95.5 191,-114.5 313,-114.5 313,-95.5 191,-95.5"/>
<text text-anchor="middle" x="252" y="-102.5" font-family="Helvetica,sans-Serif" font-size="10.00">NavEKF::ResetPosition</text>
</a>
</g>
</g>
<!-- Node1&#45;&gt;Node4 -->
<g id="edge4" class="edge"><title>Node1&#45;&gt;Node4</title>
<path fill="none" stroke="midnightblue" d="M72.3298,-304.299C80.4003,-272.875 110.227,-173.082 174,-124 176.353,-122.189 178.856,-120.549 181.466,-119.063"/>
<polygon fill="midnightblue" stroke="midnightblue" points="183.23,-122.097 190.698,-114.582 180.173,-115.8 183.23,-122.097"/>
</g>
<!-- Node5 -->
<g id="node5" class="node"><title>Node5</title>
<g id="a_node5"><a xlink:href="$classNavEKF.html#a1c2beb90156edd9a4383c7d652b7ef7e" xlink:title="NavEKF::EstimateTerrainOffset">
<polygon fill="white" stroke="black" points="174,-228.5 174,-247.5 330,-247.5 330,-228.5 174,-228.5"/>
<text text-anchor="middle" x="252" y="-235.5" font-family="Helvetica,sans-Serif" font-size="10.00">NavEKF::EstimateTerrainOffset</text>
</a>
</g>
</g>
<!-- Node1&#45;&gt;Node5 -->
<g id="edge5" class="edge"><title>Node1&#45;&gt;Node5</title>
<path fill="none" stroke="midnightblue" d="M92.9238,-304.375C124.748,-291.012 182.474,-266.773 218.665,-251.577"/>
<polygon fill="midnightblue" stroke="midnightblue" points="220.397,-254.646 228.262,-247.547 217.687,-248.192 220.397,-254.646"/>
</g>
<!-- Node6 -->
<g id="node6" class="node"><title>Node6</title>
<g id="a_node6"><a xlink:href="$AP__Math_8cpp.html#a996fdbe87607543eef5dcb234f6bc017" xlink:title="sq">
<polygon fill="white" stroke="black" points="704.5,-190.5 704.5,-209.5 733.5,-209.5 733.5,-190.5 704.5,-190.5"/>
<text text-anchor="middle" x="719" y="-197.5" font-family="Helvetica,sans-Serif" font-size="10.00">sq</text>
</a>
</g>
</g>
<!-- Node1&#45;&gt;Node6 -->
<g id="edge10" class="edge"><title>Node1&#45;&gt;Node6</title>
<path fill="none" stroke="midnightblue" d="M92.1442,-323.621C160.481,-351.878 373.265,-429.09 536,-371 616.555,-342.245 681.038,-256.257 706.381,-218.324"/>
<polygon fill="midnightblue" stroke="midnightblue" points="709.425,-220.064 711.967,-209.779 703.566,-216.234 709.425,-220.064"/>
</g>
<!-- Node9 -->
<g id="node9" class="node"><title>Node9</title>
<g id="a_node9"><a xlink:href="$classNavEKF.html#af11472d4d599c4c5d632d292a4ab29b1" xlink:title="NavEKF::CovariancePrediction">
<polygon fill="white" stroke="black" points="175.5,-304.5 175.5,-323.5 328.5,-323.5 328.5,-304.5 175.5,-304.5"/>
<text text-anchor="middle" x="252" y="-311.5" font-family="Helvetica,sans-Serif" font-size="10.00">NavEKF::CovariancePrediction</text>
</a>
</g>
</g>
<!-- Node1&#45;&gt;Node9 -->
<g id="edge11" class="edge"><title>Node1&#45;&gt;Node9</title>
<path fill="none" stroke="midnightblue" d="M138.17,-314C146.98,-314 156.091,-314 165.141,-314"/>
<polygon fill="midnightblue" stroke="midnightblue" points="165.312,-317.5 175.311,-314 165.311,-310.5 165.312,-317.5"/>
</g>
<!-- Node13 -->
<g id="node13" class="node"><title>Node13</title>
<g id="a_node13"><a xlink:href="$classNavEKF.html#ab0b5685a752b604d338b625da5e457d4" xlink:title="NavEKF::FuseOptFlow">
<polygon fill="white" stroke="black" points="192.5,-133.5 192.5,-152.5 311.5,-152.5 311.5,-133.5 192.5,-133.5"/>
<text text-anchor="middle" x="252" y="-140.5" font-family="Helvetica,sans-Serif" font-size="10.00">NavEKF::FuseOptFlow</text>
</a>
</g>
</g>
<!-- Node1&#45;&gt;Node13 -->
<g id="edge19" class="edge"><title>Node1&#45;&gt;Node13</title>
<path fill="none" stroke="midnightblue" d="M80.2499,-304.316C109.868,-276.335 195.833,-195.119 233.251,-159.768"/>
<polygon fill="midnightblue" stroke="midnightblue" points="235.997,-161.989 240.862,-152.577 231.19,-156.901 235.997,-161.989"/>
</g>
<!-- Node3&#45;&gt;Node2 -->
<g id="edge3" class="edge"><title>Node3&#45;&gt;Node2</title>
<path fill="none" stroke="midnightblue" d="M313.177,-428C342.046,-428 376.118,-428 403.039,-428"/>
<polygon fill="midnightblue" stroke="midnightblue" points="403.354,-431.5 413.353,-428 403.353,-424.5 403.354,-431.5"/>
</g>
<!-- Node5&#45;&gt;Node6 -->
<g id="edge6" class="edge"><title>Node5&#45;&gt;Node6</title>
<path fill="none" stroke="midnightblue" d="M330.037,-238.479C413.775,-237.855 551.258,-233.486 668,-214 676.752,-212.539 686.167,-210.132 694.44,-207.722"/>
<polygon fill="midnightblue" stroke="midnightblue" points="695.637,-211.015 704.173,-204.739 693.586,-204.323 695.637,-211.015"/>
</g>
<!-- Node7 -->
<g id="node7" class="node"><title>Node7</title>
<g id="a_node7"><a xlink:href="$classVector3.html#ac1fd5514e368a1e1c2d13f71eda18345" xlink:title="Vector3::length">
<polygon fill="white" stroke="black" points="409.5,-114.5 409.5,-133.5 492.5,-133.5 492.5,-114.5 409.5,-114.5"/>
<text text-anchor="middle" x="451" y="-121.5" font-family="Helvetica,sans-Serif" font-size="10.00">Vector3::length</text>
</a>
</g>
</g>
<!-- Node5&#45;&gt;Node7 -->
<g id="edge7" class="edge"><title>Node5&#45;&gt;Node7</title>
<path fill="none" stroke="midnightblue" d="M269.457,-228.477C303.86,-208.568 383.587,-162.432 424.609,-138.693"/>
<polygon fill="midnightblue" stroke="midnightblue" points="426.549,-141.615 433.451,-133.577 423.043,-135.556 426.549,-141.615"/>
</g>
<!-- Node8 -->
<g id="node8" class="node"><title>Node8</title>
<g id="a_node8"><a xlink:href="$AP__Math_8cpp.html#ac09c78b18c2ad21b9a04081f119f11c0" xlink:title="pythagorous3">
<polygon fill="white" stroke="black" points="582.5,-114.5 582.5,-133.5 657.5,-133.5 657.5,-114.5 582.5,-114.5"/>
<text text-anchor="middle" x="620" y="-121.5" font-family="Helvetica,sans-Serif" font-size="10.00">pythagorous3</text>
</a>
</g>
</g>
<!-- Node7&#45;&gt;Node8 -->
<g id="edge8" class="edge"><title>Node7&#45;&gt;Node8</title>
<path fill="none" stroke="midnightblue" d="M492.853,-124C516.764,-124 547.054,-124 571.958,-124"/>
<polygon fill="midnightblue" stroke="midnightblue" points="572.268,-127.5 582.268,-124 572.268,-120.5 572.268,-127.5"/>
</g>
<!-- Node8&#45;&gt;Node6 -->
<g id="edge9" class="edge"><title>Node8&#45;&gt;Node6</title>
<path fill="none" stroke="midnightblue" d="M650.93,-133.651C656.855,-136.223 662.833,-139.331 668,-143 683.028,-153.671 696.574,-169.72 705.764,-182.072"/>
<polygon fill="midnightblue" stroke="midnightblue" points="702.977,-184.191 711.645,-190.284 708.668,-180.116 702.977,-184.191"/>
</g>
<!-- Node9&#45;&gt;Node2 -->
<g id="edge18" class="edge"><title>Node9&#45;&gt;Node2</title>
<path fill="none" stroke="midnightblue" d="M269.457,-323.523C303.86,-343.432 383.587,-389.568 424.609,-413.307"/>
<polygon fill="midnightblue" stroke="midnightblue" points="423.043,-416.444 433.451,-418.423 426.549,-410.385 423.043,-416.444"/>
</g>
<!-- Node9&#45;&gt;Node6 -->
<g id="edge13" class="edge"><title>Node9&#45;&gt;Node6</title>
<path fill="none" stroke="midnightblue" d="M328.549,-308.963C413.972,-301.096 555.761,-281.386 668,-233 678.458,-228.491 689.118,-221.802 697.893,-215.623"/>
<polygon fill="midnightblue" stroke="midnightblue" points="699.963,-218.445 705.962,-209.713 695.827,-212.798 699.963,-218.445"/>
</g>
<!-- Node10 -->
<g id="node10" class="node"><title>Node10</title>
<g id="a_node10"><a xlink:href="$AP__Math_8cpp.html#a08eedb329d8162ddbd344d4f6c8cde20" xlink:title="constrain_float">
<polygon fill="white" stroke="black" points="580,-152.5 580,-171.5 660,-171.5 660,-152.5 580,-152.5"/>
<text text-anchor="middle" x="620" y="-159.5" font-family="Helvetica,sans-Serif" font-size="10.00">constrain_float</text>
</a>
</g>
</g>
<!-- Node9&#45;&gt;Node10 -->
<g id="edge12" class="edge"><title>Node9&#45;&gt;Node10</title>
<path fill="none" stroke="midnightblue" d="M292.818,-304.387C348.88,-290.027 453.454,-260.188 536,-219 558.964,-207.542 582.886,-190.479 599.115,-178.009"/>
<polygon fill="midnightblue" stroke="midnightblue" points="601.565,-180.536 607.285,-171.618 597.252,-175.023 601.565,-180.536"/>
</g>
<!-- Node11 -->
<g id="node11" class="node"><title>Node11</title>
<g id="a_node11"><a xlink:href="$classNavEKF.html#afaa81e08a98db599f139657cabd99fa7" xlink:title="NavEKF::CopyAndFixCovariances">
<polygon fill="white" stroke="black" points="366.5,-342.5 366.5,-361.5 535.5,-361.5 535.5,-342.5 366.5,-342.5"/>
<text text-anchor="middle" x="451" y="-349.5" font-family="Helvetica,sans-Serif" font-size="10.00">NavEKF::CopyAndFixCovariances</text>
</a>
</g>
</g>
<!-- Node9&#45;&gt;Node11 -->
<g id="edge14" class="edge"><title>Node9&#45;&gt;Node11</title>
<path fill="none" stroke="midnightblue" d="M302.457,-323.54C329.154,-328.69 362.304,-335.084 390.415,-340.506"/>
<polygon fill="midnightblue" stroke="midnightblue" points="390.041,-343.999 400.523,-342.456 391.366,-337.125 390.041,-343.999"/>
</g>
<!-- Node12 -->
<g id="node12" class="node"><title>Node12</title>
<g id="a_node12"><a xlink:href="$classNavEKF.html#abfa9617589db799ff0a405e34550f0dd" xlink:title="NavEKF::ConstrainVariances">
<polygon fill="white" stroke="black" points="378,-190.5 378,-209.5 524,-209.5 524,-190.5 378,-190.5"/>
<text text-anchor="middle" x="451" y="-197.5" font-family="Helvetica,sans-Serif" font-size="10.00">NavEKF::ConstrainVariances</text>
</a>
</g>
</g>
<!-- Node9&#45;&gt;Node12 -->
<g id="edge15" class="edge"><title>Node9&#45;&gt;Node12</title>
<path fill="none" stroke="midnightblue" d="M269.457,-304.477C303.86,-284.568 383.587,-238.432 424.609,-214.693"/>
<polygon fill="midnightblue" stroke="midnightblue" points="426.549,-217.615 433.451,-209.577 423.043,-211.556 426.549,-217.615"/>
</g>
<!-- Node12&#45;&gt;Node6 -->
<g id="edge17" class="edge"><title>Node12&#45;&gt;Node6</title>
<path fill="none" stroke="midnightblue" d="M524.334,-200C580.903,-200 656.106,-200 694.002,-200"/>
<polygon fill="midnightblue" stroke="midnightblue" points="694.081,-203.5 704.08,-200 694.08,-196.5 694.081,-203.5"/>
</g>
<!-- Node12&#45;&gt;Node10 -->
<g id="edge16" class="edge"><title>Node12&#45;&gt;Node10</title>
<path fill="none" stroke="midnightblue" d="M494.141,-190.411C517.138,-185.178 545.735,-178.671 569.755,-173.205"/>
<polygon fill="midnightblue" stroke="midnightblue" points="570.766,-176.565 579.74,-170.933 569.213,-169.739 570.766,-176.565"/>
</g>
<!-- Node13&#45;&gt;Node6 -->
<g id="edge21" class="edge"><title>Node13&#45;&gt;Node6</title>
<path fill="none" stroke="midnightblue" d="M299.572,-133.447C309.744,-130.826 320.349,-127.674 330,-124 346.908,-117.563 348.439,-109.35 366,-105 431.142,-88.8643 610.548,-70.3141 668,-105 695.012,-121.308 708.164,-157.594 713.974,-180.302"/>
<polygon fill="midnightblue" stroke="midnightblue" points="710.603,-181.257 716.265,-190.212 717.423,-179.68 710.603,-181.257"/>
</g>
<!-- Node13&#45;&gt;Node7 -->
<g id="edge22" class="edge"><title>Node13&#45;&gt;Node7</title>
<path fill="none" stroke="midnightblue" d="M311.573,-137.351C339.408,-134.666 372.365,-131.488 399.137,-128.906"/>
<polygon fill="midnightblue" stroke="midnightblue" points="399.827,-132.355 409.445,-127.911 399.155,-125.388 399.827,-132.355"/>
</g>
<!-- Node13&#45;&gt;Node10 -->
<g id="edge20" class="edge"><title>Node13&#45;&gt;Node10</title>
<path fill="none" stroke="midnightblue" d="M311.804,-146.053C383.253,-149.762 502.525,-155.953 569.493,-159.43"/>
<polygon fill="midnightblue" stroke="midnightblue" points="569.608,-162.941 579.776,-159.964 569.971,-155.95 569.608,-162.941"/>
</g>
<!-- Node13&#45;&gt;Node12 -->
<g id="edge27" class="edge"><title>Node13&#45;&gt;Node12</title>
<path fill="none" stroke="midnightblue" d="M285.622,-152.581C308.185,-159.195 338.904,-168.173 366,-176 379.237,-179.824 393.657,-183.956 406.754,-187.696"/>
<polygon fill="midnightblue" stroke="midnightblue" points="405.893,-191.09 416.469,-190.468 407.814,-184.359 405.893,-191.09"/>
</g>
<!-- Node14 -->
<g id="node14" class="node"><title>Node14</title>
<g id="a_node14"><a xlink:href="$classQuaternion.html#a48e6bafb249c895ed25f29dc9170e11e" xlink:title="Quaternion::normalize">
<polygon fill="white" stroke="black" points="395,-0.5 395,-19.5 507,-19.5 507,-0.5 395,-0.5"/>
<text text-anchor="middle" x="451" y="-7.5" font-family="Helvetica,sans-Serif" font-size="10.00">Quaternion::normalize</text>
</a>
</g>
</g>
<!-- Node13&#45;&gt;Node14 -->
<g id="edge23" class="edge"><title>Node13&#45;&gt;Node14</title>
<path fill="none" stroke="midnightblue" d="M311.552,-135.081C318.284,-132.353 324.642,-128.749 330,-124 363.789,-94.0497 331.921,-58.6199 366,-29 371.586,-24.1449 378.152,-20.4569 385.111,-17.6663"/>
<polygon fill="midnightblue" stroke="midnightblue" points="386.438,-20.9125 394.788,-14.3919 384.194,-14.2818 386.438,-20.9125"/>
</g>
<!-- Node16 -->
<g id="node16" class="node"><title>Node16</title>
<g id="a_node16"><a xlink:href="$classNavEKF.html#a3d1ab5eacbcc3b4e98187dff6a4f32bb" xlink:title="NavEKF::ForceSymmetry">
<polygon fill="white" stroke="black" points="386,-38.5 386,-57.5 516,-57.5 516,-38.5 386,-38.5"/>
<text text-anchor="middle" x="451" y="-45.5" font-family="Helvetica,sans-Serif" font-size="10.00">NavEKF::ForceSymmetry</text>
</a>
</g>
</g>
<!-- Node13&#45;&gt;Node16 -->
<g id="edge26" class="edge"><title>Node13&#45;&gt;Node16</title>
<path fill="none" stroke="midnightblue" d="M311.325,-133.482C317.941,-131.014 324.332,-127.908 330,-124 353.142,-108.045 343.152,-88.373 366,-72 372.103,-67.627 378.986,-64.0478 386.119,-61.1189"/>
<polygon fill="midnightblue" stroke="midnightblue" points="387.768,-64.2424 395.953,-57.5146 385.359,-57.6699 387.768,-64.2424"/>
</g>
<!-- Node15 -->
<g id="node15" class="node"><title>Node15</title>
<g id="a_node15"><a xlink:href="$classQuaternion.html#a6f5e82dd828c59392a3133d6d5877f39" xlink:title="Quaternion::length">
<polygon fill="white" stroke="black" points="572,-19.5 572,-38.5 668,-38.5 668,-19.5 572,-19.5"/>
<text text-anchor="middle" x="620" y="-26.5" font-family="Helvetica,sans-Serif" font-size="10.00">Quaternion::length</text>
</a>
</g>
</g>
<!-- Node14&#45;&gt;Node15 -->
<g id="edge24" class="edge"><title>Node14&#45;&gt;Node15</title>
<path fill="none" stroke="midnightblue" d="M507.145,-16.274C524.617,-18.2618 543.969,-20.4635 561.596,-22.469"/>
<polygon fill="midnightblue" stroke="midnightblue" points="561.416,-25.9711 571.748,-23.624 562.208,-19.0159 561.416,-25.9711"/>
</g>
<!-- Node15&#45;&gt;Node6 -->
<g id="edge25" class="edge"><title>Node15&#45;&gt;Node6</title>
<path fill="none" stroke="midnightblue" d="M634.518,-38.6188C644.865,-46.5702 658.868,-58.6836 668,-72 691.73,-106.604 706.454,-154.076 713.346,-180.402"/>
<polygon fill="midnightblue" stroke="midnightblue" points="709.998,-181.441 715.823,-190.29 716.788,-179.74 709.998,-181.441"/>
</g>
</g>
</svg>
