<?xml version="1.0" encoding="UTF-8" standalone="no"?>
<!DOCTYPE svg PUBLIC "-//W3C//DTD SVG 1.1//EN"
 "http://www.w3.org/Graphics/SVG/1.1/DTD/svg11.dtd">
<!-- Generated by graphviz version 2.36.0 (20140111.2315)
 -->
<!-- Title: AP_AutoTune::save_int16_if_changed Pages: 1 -->
<svg width="652pt" height="126pt"
 viewBox="0.00 0.00 652.00 126.00" xmlns="http://www.w3.org/2000/svg" xmlns:xlink="http://www.w3.org/1999/xlink">
<g id="graph0" class="graph" transform="scale(1 1) rotate(0) translate(4 122)">
<title>AP_AutoTune::save_int16_if_changed</title>
<polygon fill="white" stroke="none" points="-4,4 -4,-122 648,-122 648,4 -4,4"/>
<!-- Node1 -->
<g id="node1" class="node"><title>Node1</title>
<polygon fill="#bfbfbf" stroke="black" points="0.5,-44 0.5,-74 131.5,-74 131.5,-44 0.5,-44"/>
<text text-anchor="start" x="8.5" y="-62" font-family="Helvetica,sans-Serif" font-size="10.00">AP_AutoTune::save_int16</text>
<text text-anchor="middle" x="66" y="-51" font-family="Helvetica,sans-Serif" font-size="10.00">_if_changed</text>
</g>
<!-- Node2 -->
<g id="node2" class="node"><title>Node2</title>
<g id="a_node2"><a xlink:href="$classAP__AutoTune.html#a1c95b6055ee1b2333fbe753e2a9fa66d" xlink:title="AP_AutoTune::log_param\l_change">
<polygon fill="white" stroke="black" points="168,-44 168,-74 296,-74 296,-44 168,-44"/>
<text text-anchor="start" x="176" y="-62" font-family="Helvetica,sans-Serif" font-size="10.00">AP_AutoTune::log_param</text>
<text text-anchor="middle" x="232" y="-51" font-family="Helvetica,sans-Serif" font-size="10.00">_change</text>
</a>
</g>
</g>
<!-- Node1&#45;&gt;Node2 -->
<g id="edge1" class="edge"><title>Node1&#45;&gt;Node2</title>
<path fill="none" stroke="midnightblue" d="M131.817,-59C140.376,-59 149.196,-59 157.882,-59"/>
<polygon fill="midnightblue" stroke="midnightblue" points="157.993,-62.5001 167.993,-59 157.993,-55.5001 157.993,-62.5001"/>
</g>
<!-- Node3 -->
<g id="node3" class="node"><title>Node3</title>
<g id="a_node3"><a xlink:href="$classDataFlash__Class.html#ad15905fd635a59cc510a7781a9c4f3d9" xlink:title="DataFlash_Class::logging\l_started">
<polygon fill="white" stroke="black" points="332.5,-88 332.5,-118 461.5,-118 461.5,-88 332.5,-88"/>
<text text-anchor="start" x="340.5" y="-106" font-family="Helvetica,sans-Serif" font-size="10.00">DataFlash_Class::logging</text>
<text text-anchor="middle" x="397" y="-95" font-family="Helvetica,sans-Serif" font-size="10.00">_started</text>
</a>
</g>
</g>
<!-- Node2&#45;&gt;Node3 -->
<g id="edge2" class="edge"><title>Node2&#45;&gt;Node3</title>
<path fill="none" stroke="midnightblue" d="M288.639,-74.0192C302.072,-77.6452 316.55,-81.5534 330.392,-85.2899"/>
<polygon fill="midnightblue" stroke="midnightblue" points="329.768,-88.7467 340.335,-87.9738 331.592,-81.9886 329.768,-88.7467"/>
</g>
<!-- Node4 -->
<g id="node4" class="node"><title>Node4</title>
<g id="a_node4"><a xlink:href="$AP__Progmem__AVR_8h.html#a00eef44be35a92b1ef4067ea49bea7a3" xlink:title="strncpy_P">
<polygon fill="white" stroke="black" points="366.5,-49.5 366.5,-68.5 427.5,-68.5 427.5,-49.5 366.5,-49.5"/>
<text text-anchor="middle" x="397" y="-56.5" font-family="Helvetica,sans-Serif" font-size="10.00">strncpy_P</text>
</a>
</g>
</g>
<!-- Node2&#45;&gt;Node4 -->
<g id="edge3" class="edge"><title>Node2&#45;&gt;Node4</title>
<path fill="none" stroke="midnightblue" d="M296.02,-59C316.24,-59 338.062,-59 356.144,-59"/>
<polygon fill="midnightblue" stroke="midnightblue" points="356.318,-62.5001 366.318,-59 356.318,-55.5001 356.318,-62.5001"/>
</g>
<!-- Node5 -->
<g id="node5" class="node"><title>Node5</title>
<g id="a_node5"><a xlink:href="$classDataFlash__Class.html#a488ee9ba241f827fcb979dbccfdab76d" xlink:title="DataFlash_Class::Log\l_Write_Parameter">
<polygon fill="white" stroke="black" points="340,-0 340,-30 454,-30 454,-0 340,-0"/>
<text text-anchor="start" x="348" y="-18" font-family="Helvetica,sans-Serif" font-size="10.00">DataFlash_Class::Log</text>
<text text-anchor="middle" x="397" y="-7" font-family="Helvetica,sans-Serif" font-size="10.00">_Write_Parameter</text>
</a>
</g>
</g>
<!-- Node2&#45;&gt;Node5 -->
<g id="edge4" class="edge"><title>Node2&#45;&gt;Node5</title>
<path fill="none" stroke="midnightblue" d="M288.639,-43.9808C302.072,-40.3548 316.55,-36.4466 330.392,-32.7101"/>
<polygon fill="midnightblue" stroke="midnightblue" points="331.592,-36.0114 340.335,-30.0262 329.768,-29.2533 331.592,-36.0114"/>
</g>
<!-- Node6 -->
<g id="node6" class="node"><title>Node6</title>
<g id="a_node6"><a xlink:href="$classDataFlash__Class.html#af5e6aefb8f2136e9104be836dac88625" xlink:title="DataFlash_Class::WriteBlock">
<polygon fill="white" stroke="black" points="498,-5.5 498,-24.5 644,-24.5 644,-5.5 498,-5.5"/>
<text text-anchor="middle" x="571" y="-12.5" font-family="Helvetica,sans-Serif" font-size="10.00">DataFlash_Class::WriteBlock</text>
</a>
</g>
</g>
<!-- Node5&#45;&gt;Node6 -->
<g id="edge5" class="edge"><title>Node5&#45;&gt;Node6</title>
<path fill="none" stroke="midnightblue" d="M454.319,-15C464.971,-15 476.315,-15 487.577,-15"/>
<polygon fill="midnightblue" stroke="midnightblue" points="487.874,-18.5001 497.874,-15 487.874,-11.5001 487.874,-18.5001"/>
</g>
</g>
</svg>
