<?xml version="1.0" encoding="UTF-8" standalone="no"?>
<!DOCTYPE svg PUBLIC "-//W3C//DTD SVG 1.1//EN"
 "http://www.w3.org/Graphics/SVG/1.1/DTD/svg11.dtd">
<!-- Generated by graphviz version 2.36.0 (20140111.2315)
 -->
<!-- Title: AP_HAL_FLYMAPLE_NS::FLYMAPLEAnalogIn::channel Pages: 1 -->
<svg width="772pt" height="101pt"
 viewBox="0.00 0.00 772.00 101.00" xmlns="http://www.w3.org/2000/svg" xmlns:xlink="http://www.w3.org/1999/xlink">
<g id="graph0" class="graph" transform="scale(1 1) rotate(0) translate(4 97)">
<title>AP_HAL_FLYMAPLE_NS::FLYMAPLEAnalogIn::channel</title>
<polygon fill="white" stroke="none" points="-4,4 -4,-97 768,-97 768,4 -4,4"/>
<!-- Node1 -->
<g id="node1" class="node"><title>Node1</title>
<polygon fill="#bfbfbf" stroke="black" points="0.5,-18.5 0.5,-59.5 131.5,-59.5 131.5,-18.5 0.5,-18.5"/>
<text text-anchor="start" x="8.5" y="-47.5" font-family="Helvetica,sans-Serif" font-size="10.00">AP_HAL_FLYMAPLE_NS</text>
<text text-anchor="start" x="8.5" y="-36.5" font-family="Helvetica,sans-Serif" font-size="10.00">::FLYMAPLEAnalogIn::</text>
<text text-anchor="middle" x="66" y="-25.5" font-family="Helvetica,sans-Serif" font-size="10.00">channel</text>
</g>
<!-- Node2 -->
<g id="node2" class="node"><title>Node2</title>
<g id="a_node2"><a xlink:href="$classAP__HAL__FLYMAPLE__NS_1_1FLYMAPLEAnalogIn.html#aeb59ca848fa480afa4de9877378789f8" xlink:title="AP_HAL_FLYMAPLE_NS\l::FLYMAPLEAnalogIn::\l_create_channel">
<polygon fill="white" stroke="black" points="168.5,-18.5 168.5,-59.5 299.5,-59.5 299.5,-18.5 168.5,-18.5"/>
<text text-anchor="start" x="176.5" y="-47.5" font-family="Helvetica,sans-Serif" font-size="10.00">AP_HAL_FLYMAPLE_NS</text>
<text text-anchor="start" x="176.5" y="-36.5" font-family="Helvetica,sans-Serif" font-size="10.00">::FLYMAPLEAnalogIn::</text>
<text text-anchor="middle" x="234" y="-25.5" font-family="Helvetica,sans-Serif" font-size="10.00">_create_channel</text>
</a>
</g>
</g>
<!-- Node1&#45;&gt;Node2 -->
<g id="edge1" class="edge"><title>Node1&#45;&gt;Node2</title>
<path fill="none" stroke="midnightblue" d="M131.655,-39C140.292,-39 149.208,-39 158.003,-39"/>
<polygon fill="midnightblue" stroke="midnightblue" points="158.248,-42.5001 168.248,-39 158.248,-35.5001 158.248,-42.5001"/>
</g>
<!-- Node3 -->
<g id="node3" class="node"><title>Node3</title>
<g id="a_node3"><a xlink:href="$classAP__HAL__FLYMAPLE__NS_1_1FLYMAPLEAnalogIn.html#a464a230e09b4da2b1833c78272298dc2" xlink:title="AP_HAL_FLYMAPLE_NS\l::FLYMAPLEAnalogIn::\l_register_channel">
<polygon fill="white" stroke="black" points="336.5,-18.5 336.5,-59.5 467.5,-59.5 467.5,-18.5 336.5,-18.5"/>
<text text-anchor="start" x="344.5" y="-47.5" font-family="Helvetica,sans-Serif" font-size="10.00">AP_HAL_FLYMAPLE_NS</text>
<text text-anchor="start" x="344.5" y="-36.5" font-family="Helvetica,sans-Serif" font-size="10.00">::FLYMAPLEAnalogIn::</text>
<text text-anchor="middle" x="402" y="-25.5" font-family="Helvetica,sans-Serif" font-size="10.00">_register_channel</text>
</a>
</g>
</g>
<!-- Node2&#45;&gt;Node3 -->
<g id="edge2" class="edge"><title>Node2&#45;&gt;Node3</title>
<path fill="none" stroke="midnightblue" d="M299.655,-39C308.292,-39 317.208,-39 326.003,-39"/>
<polygon fill="midnightblue" stroke="midnightblue" points="326.248,-42.5001 336.248,-39 326.248,-35.5001 326.248,-42.5001"/>
</g>
<!-- Node4 -->
<g id="node4" class="node"><title>Node4</title>
<g id="a_node4"><a xlink:href="$classAP__HAL_1_1UARTDriver.html#aa33346e163179b28fafff415054383b8" xlink:title="AP_HAL::UARTDriver\l::print_P">
<polygon fill="white" stroke="black" points="504.5,-49 504.5,-79 619.5,-79 619.5,-49 504.5,-49"/>
<text text-anchor="start" x="512.5" y="-67" font-family="Helvetica,sans-Serif" font-size="10.00">AP_HAL::UARTDriver</text>
<text text-anchor="middle" x="562" y="-56" font-family="Helvetica,sans-Serif" font-size="10.00">::print_P</text>
</a>
</g>
</g>
<!-- Node3&#45;&gt;Node4 -->
<g id="edge3" class="edge"><title>Node3&#45;&gt;Node4</title>
<path fill="none" stroke="midnightblue" d="M467.721,-49.2406C476.575,-50.6416 485.677,-52.0818 494.562,-53.4876"/>
<polygon fill="midnightblue" stroke="midnightblue" points="494.051,-56.9503 504.475,-55.0562 495.145,-50.0363 494.051,-56.9503"/>
</g>
<!-- Node7 -->
<g id="node7" class="node"><title>Node7</title>
<g id="a_node7"><a xlink:href="$classAP__HAL_1_1Scheduler.html#ab3175e2e6223ccfe82f957e41cc12b26" xlink:title="AP_HAL::Scheduler::\ldelay">
<polygon fill="white" stroke="black" points="507,-0 507,-30 617,-30 617,-0 507,-0"/>
<text text-anchor="start" x="515" y="-18" font-family="Helvetica,sans-Serif" font-size="10.00">AP_HAL::Scheduler::</text>
<text text-anchor="middle" x="562" y="-7" font-family="Helvetica,sans-Serif" font-size="10.00">delay</text>
</a>
</g>
</g>
<!-- Node3&#45;&gt;Node7 -->
<g id="edge6" class="edge"><title>Node3&#45;&gt;Node7</title>
<path fill="none" stroke="midnightblue" d="M467.721,-29.169C477.233,-27.724 487.032,-26.2356 496.54,-24.7914"/>
<polygon fill="midnightblue" stroke="midnightblue" points="497.354,-28.2079 506.715,-23.2458 496.303,-21.2873 497.354,-28.2079"/>
</g>
<!-- Node5 -->
<g id="node5" class="node"><title>Node5</title>
<g id="a_node5"><a xlink:href="$AP__Progmem__Identity_8h.html#a1514e0408e036062b4af844baaf567da" xlink:title="pgm_read_byte">
<polygon fill="white" stroke="black" points="668.5,-73.5 668.5,-92.5 751.5,-92.5 751.5,-73.5 668.5,-73.5"/>
<text text-anchor="middle" x="710" y="-80.5" font-family="Helvetica,sans-Serif" font-size="10.00">pgm_read_byte</text>
</a>
</g>
</g>
<!-- Node4&#45;&gt;Node5 -->
<g id="edge4" class="edge"><title>Node4&#45;&gt;Node5</title>
<path fill="none" stroke="midnightblue" d="M619.865,-71.4003C632.501,-73.0447 645.816,-74.7774 658.19,-76.3877"/>
<polygon fill="midnightblue" stroke="midnightblue" points="657.96,-79.8872 668.328,-77.707 658.863,-72.9457 657.96,-79.8872"/>
</g>
<!-- Node6 -->
<g id="node6" class="node"><title>Node6</title>
<g id="a_node6"><a xlink:href="$classAP__HAL_1_1Print.html#acc65391952a43334f8f5c9bef341f501" xlink:title="AP_HAL::Print::write">
<polygon fill="white" stroke="black" points="656,-35.5 656,-54.5 764,-54.5 764,-35.5 656,-35.5"/>
<text text-anchor="middle" x="710" y="-42.5" font-family="Helvetica,sans-Serif" font-size="10.00">AP_HAL::Print::write</text>
</a>
</g>
</g>
<!-- Node4&#45;&gt;Node6 -->
<g id="edge5" class="edge"><title>Node4&#45;&gt;Node6</title>
<path fill="none" stroke="midnightblue" d="M619.865,-56.5997C628.383,-55.4913 637.208,-54.3428 645.846,-53.2186"/>
<polygon fill="midnightblue" stroke="midnightblue" points="646.407,-56.6753 655.871,-51.914 645.503,-49.7339 646.407,-56.6753"/>
</g>
</g>
</svg>
