<?xml version="1.0" encoding="UTF-8" standalone="no"?>
<!DOCTYPE svg PUBLIC "-//W3C//DTD SVG 1.1//EN"
 "http://www.w3.org/Graphics/SVG/1.1/DTD/svg11.dtd">
<!-- Generated by graphviz version 2.36.0 (20140111.2315)
 -->
<!-- Title: AP_MotorsCoax Pages: 1 -->
<svg width="616pt" height="268pt"
 viewBox="0.00 0.00 616.00 268.00" xmlns="http://www.w3.org/2000/svg" xmlns:xlink="http://www.w3.org/1999/xlink">
<g id="graph0" class="graph" transform="scale(1 1) rotate(0) translate(4 264)">
<title>AP_MotorsCoax</title>
<polygon fill="white" stroke="none" points="-4,4 -4,-264 612,-264 612,4 -4,4"/>
<!-- Node1 -->
<g id="node1" class="node"><title>Node1</title>
<polygon fill="#bfbfbf" stroke="black" points="11.5,-0.5 11.5,-19.5 100.5,-19.5 100.5,-0.5 11.5,-0.5"/>
<text text-anchor="middle" x="56" y="-7.5" font-family="Helvetica,sans-Serif" font-size="10.00">AP_MotorsCoax</text>
</g>
<!-- Node2 -->
<g id="node2" class="node"><title>Node2</title>
<g id="a_node2"><a xlink:href="$classAP__Motors.html" xlink:title="AP_Motors">
<polygon fill="white" stroke="black" points="232.5,-59.5 232.5,-78.5 297.5,-78.5 297.5,-59.5 232.5,-59.5"/>
<text text-anchor="middle" x="265" y="-66.5" font-family="Helvetica,sans-Serif" font-size="10.00">AP_Motors</text>
</a>
</g>
</g>
<!-- Node2&#45;&gt;Node1 -->
<g id="edge1" class="edge"><title>Node2&#45;&gt;Node1</title>
<path fill="none" stroke="midnightblue" d="M223.992,-56.8159C183.963,-45.899 123.919,-29.5233 87.5033,-19.5918"/>
<polygon fill="midnightblue" stroke="midnightblue" points="223.142,-60.212 233.711,-59.4665 224.984,-53.4586 223.142,-60.212"/>
</g>
<!-- Node3 -->
<g id="node3" class="node"><title>Node3</title>
<g id="a_node3"><a xlink:href="$structAP__Motors_1_1AP__Motors__limit.html" xlink:title="AP_Motors::AP_Motors\l_limit">
<polygon fill="white" stroke="black" points="157,-161 157,-191 277,-191 277,-161 157,-161"/>
<text text-anchor="start" x="165" y="-179" font-family="Helvetica,sans-Serif" font-size="10.00">AP_Motors::AP_Motors</text>
<text text-anchor="middle" x="217" y="-168" font-family="Helvetica,sans-Serif" font-size="10.00">_limit</text>
</a>
</g>
</g>
<!-- Node3&#45;&gt;Node2 -->
<g id="edge2" class="edge"><title>Node3&#45;&gt;Node2</title>
<path fill="none" stroke="#9a32cd" stroke-dasharray="5,2" d="M227.641,-151.723C238.175,-128.679 253.749,-94.6122 261.006,-78.7365"/>
<polygon fill="#9a32cd" stroke="#9a32cd" points="224.448,-150.289 223.473,-160.839 230.814,-153.2 224.448,-150.289"/>
<text text-anchor="middle" x="264" y="-117.5" font-family="Helvetica,sans-Serif" font-size="10.00"> limit</text>
</g>
<!-- Node4 -->
<g id="node4" class="node"><title>Node4</title>
<g id="a_node4"><a xlink:href="$structAP__Param_1_1GroupInfo.html" xlink:title="AP_Param::GroupInfo">
<polygon fill="white" stroke="black" points="-0.5,-240.5 -0.5,-259.5 112.5,-259.5 112.5,-240.5 -0.5,-240.5"/>
<text text-anchor="middle" x="56" y="-247.5" font-family="Helvetica,sans-Serif" font-size="10.00">AP_Param::GroupInfo</text>
</a>
</g>
</g>
<!-- Node4&#45;&gt;Node1 -->
<g id="edge12" class="edge"><title>Node4&#45;&gt;Node1</title>
<path fill="none" stroke="#9a32cd" stroke-dasharray="5,2" d="M38.0785,-233.043C27.6966,-222.55 15.6018,-207.861 10,-192 -12.7823,-127.493 33.2401,-46.362 50.1238,-19.8324"/>
<polygon fill="#9a32cd" stroke="#9a32cd" points="35.9056,-235.808 45.5478,-240.199 40.7483,-230.753 35.9056,-235.808"/>
<text text-anchor="middle" x="33" y="-117.5" font-family="Helvetica,sans-Serif" font-size="10.00"> var_info</text>
</g>
<!-- Node4&#45;&gt;Node2 -->
<g id="edge3" class="edge"><title>Node4&#45;&gt;Node2</title>
<path fill="none" stroke="#9a32cd" stroke-dasharray="5,2" d="M122.915,-241.451C183.141,-233.116 265.145,-217.403 285,-192 311.964,-157.502 283.254,-100.514 270.478,-78.786"/>
<polygon fill="#9a32cd" stroke="#9a32cd" points="122.142,-238.024 112.697,-242.824 123.074,-244.961 122.142,-238.024"/>
<text text-anchor="middle" x="316" y="-173.5" font-family="Helvetica,sans-Serif" font-size="10.00"> var_info</text>
</g>
<!-- Node4&#45;&gt;Node4 -->
<g id="edge4" class="edge"><title>Node4&#45;&gt;Node4</title>
<path fill="none" stroke="#9a32cd" stroke-dasharray="5,2" d="M122.683,-254.609C127.233,-253.549 130,-252.013 130,-250 130,-246.779 122.917,-244.779 112.777,-243.999"/>
<polygon fill="#9a32cd" stroke="#9a32cd" points="122.193,-251.143 112.777,-256.001 123.167,-258.075 122.193,-251.143"/>
<text text-anchor="middle" x="154.5" y="-247.5" font-family="Helvetica,sans-Serif" font-size="10.00"> group_info</text>
</g>
<!-- Node8 -->
<g id="node8" class="node"><title>Node8</title>
<g id="a_node8"><a xlink:href="$classRC__Channel.html" xlink:title="Object managing one RC channel. ">
<polygon fill="white" stroke="black" points="19.5,-166.5 19.5,-185.5 92.5,-185.5 92.5,-166.5 19.5,-166.5"/>
<text text-anchor="middle" x="56" y="-173.5" font-family="Helvetica,sans-Serif" font-size="10.00">RC_Channel</text>
</a>
</g>
</g>
<!-- Node4&#45;&gt;Node8 -->
<g id="edge9" class="edge"><title>Node4&#45;&gt;Node8</title>
<path fill="none" stroke="#9a32cd" stroke-dasharray="5,2" d="M56,-230.156C56,-215.712 56,-196.459 56,-185.531"/>
<polygon fill="#9a32cd" stroke="#9a32cd" points="52.5001,-230.458 56,-240.458 59.5001,-230.458 52.5001,-230.458"/>
<text text-anchor="middle" x="75" y="-213.5" font-family="Helvetica,sans-Serif" font-size="10.00"> var_info</text>
</g>
<!-- Node5 -->
<g id="node5" class="node"><title>Node5</title>
<g id="a_node5"><a xlink:href="$classLowPassFilterFloat.html" xlink:title="LowPassFilterFloat">
<polygon fill="white" stroke="black" points="369.5,-166.5 369.5,-185.5 470.5,-185.5 470.5,-166.5 369.5,-166.5"/>
<text text-anchor="middle" x="420" y="-173.5" font-family="Helvetica,sans-Serif" font-size="10.00">LowPassFilterFloat</text>
</a>
</g>
</g>
<!-- Node5&#45;&gt;Node2 -->
<g id="edge5" class="edge"><title>Node5&#45;&gt;Node2</title>
<path fill="none" stroke="#9a32cd" stroke-dasharray="5,2" d="M403.666,-159.145C385.867,-142.449 356.037,-116.119 327,-98 314.675,-90.3096 299.881,-83.5453 287.836,-78.5927"/>
<polygon fill="#9a32cd" stroke="#9a32cd" points="401.724,-162.129 411.38,-166.489 406.551,-157.059 401.724,-162.129"/>
<text text-anchor="middle" x="422.5" y="-123" font-family="Helvetica,sans-Serif" font-size="10.00"> _throttle_filter</text>
<text text-anchor="middle" x="422.5" y="-112" font-family="Helvetica,sans-Serif" font-size="10.00">_batt_voltage_filt</text>
</g>
<!-- Node6 -->
<g id="node6" class="node"><title>Node6</title>
<g id="a_node6"><a xlink:href="$classLowPassFilter.html" xlink:title="LowPassFilter">
<polygon fill="white" stroke="black" points="339.5,-240.5 339.5,-259.5 418.5,-259.5 418.5,-240.5 339.5,-240.5"/>
<text text-anchor="middle" x="379" y="-247.5" font-family="Helvetica,sans-Serif" font-size="10.00">LowPassFilter</text>
</a>
</g>
</g>
<!-- Node6&#45;&gt;Node5 -->
<g id="edge6" class="edge"><title>Node6&#45;&gt;Node5</title>
<path fill="none" stroke="midnightblue" d="M389.005,-231.43C397.3,-216.863 408.734,-196.784 415.142,-185.531"/>
<polygon fill="midnightblue" stroke="midnightblue" points="385.771,-230.036 383.864,-240.458 391.854,-233.5 385.771,-230.036"/>
</g>
<!-- Node7 -->
<g id="node7" class="node"><title>Node7</title>
<g id="a_node7"><a xlink:href="$classDigitalLPF.html" xlink:title="DigitalLPF">
<polygon fill="white" stroke="black" points="436,-240.5 436,-259.5 498,-259.5 498,-240.5 436,-240.5"/>
<text text-anchor="middle" x="467" y="-247.5" font-family="Helvetica,sans-Serif" font-size="10.00">DigitalLPF</text>
</a>
</g>
</g>
<!-- Node7&#45;&gt;Node5 -->
<g id="edge7" class="edge"><title>Node7&#45;&gt;Node5</title>
<path fill="none" stroke="#9a32cd" stroke-dasharray="5,2" d="M455.804,-231.849C446.275,-217.25 432.985,-196.892 425.569,-185.531"/>
<polygon fill="#9a32cd" stroke="#9a32cd" points="453.027,-233.997 461.424,-240.458 458.888,-230.171 453.027,-233.997"/>
<text text-anchor="middle" x="464" y="-213.5" font-family="Helvetica,sans-Serif" font-size="10.00"> _filter</text>
</g>
<!-- Node8&#45;&gt;Node1 -->
<g id="edge13" class="edge"><title>Node8&#45;&gt;Node1</title>
<path fill="none" stroke="#9a32cd" stroke-dasharray="5,2" d="M56,-155.751C56,-120.193 56,-45.5003 56,-19.8609"/>
<polygon fill="#9a32cd" stroke="#9a32cd" points="52.5001,-156.183 56,-166.183 59.5001,-156.183 52.5001,-156.183"/>
<text text-anchor="middle" x="75" y="-72" font-family="Helvetica,sans-Serif" font-size="10.00"> _servo1</text>
<text text-anchor="middle" x="75" y="-61" font-family="Helvetica,sans-Serif" font-size="10.00">_servo2</text>
</g>
<!-- Node8&#45;&gt;Node2 -->
<g id="edge8" class="edge"><title>Node8&#45;&gt;Node2</title>
<path fill="none" stroke="#9a32cd" stroke-dasharray="5,2" d="M76.0072,-160.489C99.8445,-143.703 141.318,-116.067 180,-98 197.033,-90.0443 216.954,-83.3539 233.228,-78.51"/>
<polygon fill="#9a32cd" stroke="#9a32cd" points="73.8938,-157.697 67.7775,-166.348 77.9537,-163.399 73.8938,-157.697"/>
<text text-anchor="middle" x="204.5" y="-134" font-family="Helvetica,sans-Serif" font-size="10.00"> _rc_pitch</text>
<text text-anchor="middle" x="204.5" y="-123" font-family="Helvetica,sans-Serif" font-size="10.00">_rc_roll</text>
<text text-anchor="middle" x="204.5" y="-112" font-family="Helvetica,sans-Serif" font-size="10.00">_rc_yaw</text>
<text text-anchor="middle" x="204.5" y="-101" font-family="Helvetica,sans-Serif" font-size="10.00">_rc_throttle</text>
</g>
<!-- Node8&#45;&gt;Node8 -->
<g id="edge10" class="edge"><title>Node8&#45;&gt;Node8</title>
<path fill="none" stroke="#9a32cd" stroke-dasharray="5,2" d="M102.79,-182.028C107.208,-180.794 110,-178.785 110,-176 110,-171.43 102.48,-168.948 92.5963,-168.555"/>
<polygon fill="#9a32cd" stroke="#9a32cd" points="102.019,-178.601 92.5963,-183.445 102.983,-185.535 102.019,-178.601"/>
<text text-anchor="middle" x="124" y="-173.5" font-family="Helvetica,sans-Serif" font-size="10.00"> rc_ch</text>
</g>
<!-- Node9 -->
<g id="node9" class="node"><title>Node9</title>
<g id="a_node9"><a xlink:href="$structAP__Motors_1_1AP__Motors__flags.html" xlink:title="AP_Motors::AP_Motors\l_flags">
<polygon fill="white" stroke="black" points="489,-161 489,-191 609,-191 609,-161 489,-161"/>
<text text-anchor="start" x="497" y="-179" font-family="Helvetica,sans-Serif" font-size="10.00">AP_Motors::AP_Motors</text>
<text text-anchor="middle" x="549" y="-168" font-family="Helvetica,sans-Serif" font-size="10.00">_flags</text>
</a>
</g>
</g>
<!-- Node9&#45;&gt;Node2 -->
<g id="edge11" class="edge"><title>Node9&#45;&gt;Node2</title>
<path fill="none" stroke="#9a32cd" stroke-dasharray="5,2" d="M531.54,-153.161C515.874,-135.213 491.21,-110.741 464,-98 435.168,-84.4997 346.31,-76.0179 297.662,-72.2603"/>
<polygon fill="#9a32cd" stroke="#9a32cd" points="528.947,-155.515 538.082,-160.883 534.288,-150.99 528.947,-155.515"/>
<text text-anchor="middle" x="535" y="-117.5" font-family="Helvetica,sans-Serif" font-size="10.00"> _flags</text>
</g>
</g>
</svg>
