<?xml version="1.0" encoding="UTF-8" standalone="no"?>
<!DOCTYPE svg PUBLIC "-//W3C//DTD SVG 1.1//EN"
 "http://www.w3.org/Graphics/SVG/1.1/DTD/svg11.dtd">
<!-- Generated by graphviz version 2.36.0 (20140111.2315)
 -->
<!-- Title: AP_Param::cast_to_float Pages: 1 -->
<svg width="626pt" height="267pt"
 viewBox="0.00 0.00 626.00 267.00" xmlns="http://www.w3.org/2000/svg" xmlns:xlink="http://www.w3.org/1999/xlink">
<g id="graph0" class="graph" transform="scale(1 1) rotate(0) translate(4 263)">
<title>AP_Param::cast_to_float</title>
<polygon fill="white" stroke="none" points="-4,4 -4,-263 622,-263 622,4 -4,4"/>
<!-- Node1 -->
<g id="node1" class="node"><title>Node1</title>
<polygon fill="#bfbfbf" stroke="black" points="0,-125.5 0,-144.5 126,-144.5 126,-125.5 0,-125.5"/>
<text text-anchor="middle" x="63" y="-132.5" font-family="Helvetica,sans-Serif" font-size="10.00">AP_Param::cast_to_float</text>
</g>
<!-- Node2 -->
<g id="node2" class="node"><title>Node2</title>
<g id="a_node2"><a xlink:href="$classAP__Param.html#a508aefe4d24c20bada33f79e8bb14a12" xlink:title="AP_Param::convert_old\l_parameter">
<polygon fill="white" stroke="black" points="333,-229 333,-259 453,-259 453,-229 333,-229"/>
<text text-anchor="start" x="341" y="-247" font-family="Helvetica,sans-Serif" font-size="10.00">AP_Param::convert_old</text>
<text text-anchor="middle" x="393" y="-236" font-family="Helvetica,sans-Serif" font-size="10.00">_parameter</text>
</a>
</g>
</g>
<!-- Node1&#45;&gt;Node2 -->
<g id="edge1" class="edge"><title>Node1&#45;&gt;Node2</title>
<path fill="none" stroke="midnightblue" d="M83.6959,-150.842C102.659,-165.295 132.702,-186.149 162,-198 217.493,-220.446 285.093,-232.282 332.598,-238.291"/>
<polygon fill="midnightblue" stroke="midnightblue" points="85.6089,-147.896 75.5668,-144.519 81.3109,-153.421 85.6089,-147.896"/>
</g>
<!-- Node4 -->
<g id="node4" class="node"><title>Node4</title>
<g id="a_node4"><a xlink:href="$classGCS__MAVLINK.html#a5049292431ff6787cd0c4fe69e7fa494" xlink:title="GCS_MAVLINK::handle\l_param_request_read">
<polygon fill="white" stroke="black" points="164,-98 164,-128 286,-128 286,-98 164,-98"/>
<text text-anchor="start" x="172" y="-116" font-family="Helvetica,sans-Serif" font-size="10.00">GCS_MAVLINK::handle</text>
<text text-anchor="middle" x="225" y="-105" font-family="Helvetica,sans-Serif" font-size="10.00">_param_request_read</text>
</a>
</g>
</g>
<!-- Node1&#45;&gt;Node4 -->
<g id="edge3" class="edge"><title>Node1&#45;&gt;Node4</title>
<path fill="none" stroke="midnightblue" d="M136.279,-125.062C145.531,-123.789 154.922,-122.498 163.951,-121.257"/>
<polygon fill="midnightblue" stroke="midnightblue" points="135.748,-121.602 126.318,-126.431 136.702,-128.536 135.748,-121.602"/>
</g>
<!-- Node5 -->
<g id="node5" class="node"><title>Node5</title>
<g id="a_node5"><a xlink:href="$classGCS__MAVLINK.html#ae8138868be824c9478307c705a0e6763" xlink:title="GCS_MAVLINK::handle\l_param_set">
<polygon fill="white" stroke="black" points="332,-180 332,-210 454,-210 454,-180 332,-180"/>
<text text-anchor="start" x="340" y="-198" font-family="Helvetica,sans-Serif" font-size="10.00">GCS_MAVLINK::handle</text>
<text text-anchor="middle" x="393" y="-187" font-family="Helvetica,sans-Serif" font-size="10.00">_param_set</text>
</a>
</g>
</g>
<!-- Node1&#45;&gt;Node5 -->
<g id="edge4" class="edge"><title>Node1&#45;&gt;Node5</title>
<path fill="none" stroke="midnightblue" d="M91.2652,-149.139C110.503,-158.427 137.169,-169.941 162,-176 218.441,-189.772 284.732,-194.038 331.609,-195.149"/>
<polygon fill="midnightblue" stroke="midnightblue" points="92.7113,-145.95 82.1954,-144.659 89.6114,-152.226 92.7113,-145.95"/>
</g>
<!-- Node6 -->
<g id="node6" class="node"><title>Node6</title>
<g id="a_node6"><a xlink:href="$classDataFlash__Class.html#a0efe615224d2f6bb15740082e6f88e39" xlink:title="DataFlash_Class::Log\l_Write_Parameter">
<polygon fill="white" stroke="black" points="168,-49 168,-79 282,-79 282,-49 168,-49"/>
<text text-anchor="start" x="176" y="-67" font-family="Helvetica,sans-Serif" font-size="10.00">DataFlash_Class::Log</text>
<text text-anchor="middle" x="225" y="-56" font-family="Helvetica,sans-Serif" font-size="10.00">_Write_Parameter</text>
</a>
</g>
</g>
<!-- Node1&#45;&gt;Node6 -->
<g id="edge5" class="edge"><title>Node1&#45;&gt;Node6</title>
<path fill="none" stroke="midnightblue" d="M92.9582,-120.89C112.367,-111.562 138.565,-99.2155 162,-89 169.66,-85.6609 177.916,-82.2225 185.826,-79.0048"/>
<polygon fill="midnightblue" stroke="midnightblue" points="91.2328,-117.837 83.7482,-125.335 94.2755,-124.141 91.2328,-117.837"/>
</g>
<!-- Node7 -->
<g id="node7" class="node"><title>Node7</title>
<g id="a_node7"><a xlink:href="$classGCS__MAVLINK.html#a508b2da2af9a77f175c60cac467cec70" xlink:title="Send the next pending parameter, called from deferred message handling code. ">
<polygon fill="white" stroke="black" points="162.5,-0 162.5,-30 287.5,-30 287.5,-0 162.5,-0"/>
<text text-anchor="start" x="170.5" y="-18" font-family="Helvetica,sans-Serif" font-size="10.00">GCS_MAVLINK::queued</text>
<text text-anchor="middle" x="225" y="-7" font-family="Helvetica,sans-Serif" font-size="10.00">_param_send</text>
</a>
</g>
</g>
<!-- Node1&#45;&gt;Node7 -->
<g id="edge6" class="edge"><title>Node1&#45;&gt;Node7</title>
<path fill="none" stroke="midnightblue" d="M78.0658,-117.389C95.7225,-96.2745 127.859,-60.9899 162,-39 167.143,-35.6875 172.814,-32.7179 178.574,-30.0912"/>
<polygon fill="midnightblue" stroke="midnightblue" points="75.2632,-115.287 71.6249,-125.237 80.6744,-119.728 75.2632,-115.287"/>
</g>
<!-- Node8 -->
<g id="node8" class="node"><title>Node8</title>
<g id="a_node8"><a xlink:href="$classAP__Param.html#ae498713a1575d30e9a10507d76c15e86" xlink:title="AP_Param::save">
<polygon fill="white" stroke="black" points="179.5,-147.5 179.5,-166.5 270.5,-166.5 270.5,-147.5 179.5,-147.5"/>
<text text-anchor="middle" x="225" y="-154.5" font-family="Helvetica,sans-Serif" font-size="10.00">AP_Param::save</text>
</a>
</g>
</g>
<!-- Node1&#45;&gt;Node8 -->
<g id="edge7" class="edge"><title>Node1&#45;&gt;Node8</title>
<path fill="none" stroke="midnightblue" d="M136.392,-144.954C151.059,-146.971 166.069,-149.034 179.428,-150.871"/>
<polygon fill="midnightblue" stroke="midnightblue" points="136.702,-141.464 126.318,-143.569 135.748,-148.398 136.702,-141.464"/>
</g>
<!-- Node3 -->
<g id="node3" class="node"><title>Node3</title>
<g id="a_node3"><a xlink:href="$classAP__Param.html#a25fd45233974736c2ac8e4680882a235" xlink:title="AP_Param::convert_old\l_parameters">
<polygon fill="white" stroke="black" points="498,-229 498,-259 618,-259 618,-229 498,-229"/>
<text text-anchor="start" x="506" y="-247" font-family="Helvetica,sans-Serif" font-size="10.00">AP_Param::convert_old</text>
<text text-anchor="middle" x="558" y="-236" font-family="Helvetica,sans-Serif" font-size="10.00">_parameters</text>
</a>
</g>
</g>
<!-- Node2&#45;&gt;Node3 -->
<g id="edge2" class="edge"><title>Node2&#45;&gt;Node3</title>
<path fill="none" stroke="midnightblue" d="M463.625,-244C474.984,-244 486.657,-244 497.736,-244"/>
<polygon fill="midnightblue" stroke="midnightblue" points="463.308,-240.5 453.308,-244 463.308,-247.5 463.308,-240.5"/>
</g>
<!-- Node8&#45;&gt;Node2 -->
<g id="edge8" class="edge"><title>Node8&#45;&gt;Node2</title>
<path fill="none" stroke="midnightblue" d="M247.486,-172.469C266.842,-185.941 296.41,-205.392 324,-219 331.22,-222.561 339.079,-225.904 346.808,-228.915"/>
<polygon fill="midnightblue" stroke="midnightblue" points="249.298,-169.464 239.107,-166.566 245.266,-175.186 249.298,-169.464"/>
</g>
<!-- Node8&#45;&gt;Node5 -->
<g id="edge12" class="edge"><title>Node8&#45;&gt;Node5</title>
<path fill="none" stroke="midnightblue" d="M277.734,-168.843C294.914,-172.775 314.186,-177.187 331.938,-181.251"/>
<polygon fill="midnightblue" stroke="midnightblue" points="278.418,-165.409 267.889,-166.589 276.856,-172.232 278.418,-165.409"/>
</g>
<!-- Node9 -->
<g id="node9" class="node"><title>Node9</title>
<g id="a_node9"><a xlink:href="$classAP__ParamT.html#a25edf0e710f7be745fcf64636ba69be8" xlink:title="AP_ParamT::set_and_save">
<polygon fill="white" stroke="black" points="324.5,-141.5 324.5,-160.5 461.5,-160.5 461.5,-141.5 324.5,-141.5"/>
<text text-anchor="middle" x="393" y="-148.5" font-family="Helvetica,sans-Serif" font-size="10.00">AP_ParamT::set_and_save</text>
</a>
</g>
</g>
<!-- Node8&#45;&gt;Node9 -->
<g id="edge9" class="edge"><title>Node8&#45;&gt;Node9</title>
<path fill="none" stroke="midnightblue" d="M281.212,-155.004C295.002,-154.506 309.948,-153.966 324.267,-153.448"/>
<polygon fill="midnightblue" stroke="midnightblue" points="280.789,-151.517 270.922,-155.376 281.042,-158.513 280.789,-151.517"/>
</g>
<!-- Node10 -->
<g id="node10" class="node"><title>Node10</title>
<g id="a_node10"><a xlink:href="$classAP__ParamT.html#a950a2a2acb4a1073314733cd0856f31f" xlink:title="AP_ParamT::set_and\l_save_ifchanged">
<polygon fill="white" stroke="black" points="338,-92 338,-122 448,-122 448,-92 338,-92"/>
<text text-anchor="start" x="346" y="-110" font-family="Helvetica,sans-Serif" font-size="10.00">AP_ParamT::set_and</text>
<text text-anchor="middle" x="393" y="-99" font-family="Helvetica,sans-Serif" font-size="10.00">_save_ifchanged</text>
</a>
</g>
</g>
<!-- Node8&#45;&gt;Node10 -->
<g id="edge10" class="edge"><title>Node8&#45;&gt;Node10</title>
<path fill="none" stroke="midnightblue" d="M267.249,-144.576C289.85,-137.768 318.037,-129.278 341.896,-122.091"/>
<polygon fill="midnightblue" stroke="midnightblue" points="266.18,-141.242 257.614,-147.478 268.199,-147.945 266.18,-141.242"/>
</g>
<!-- Node11 -->
<g id="node11" class="node"><title>Node11</title>
<g id="a_node11"><a xlink:href="$classAP__ParamV.html#ad0e5c746e1c9ae91c58e17e84f5ea390" xlink:title="AP_ParamV::set_and_save">
<polygon fill="white" stroke="black" points="324.5,-53.5 324.5,-72.5 461.5,-72.5 461.5,-53.5 324.5,-53.5"/>
<text text-anchor="middle" x="393" y="-60.5" font-family="Helvetica,sans-Serif" font-size="10.00">AP_ParamV::set_and_save</text>
</a>
</g>
</g>
<!-- Node8&#45;&gt;Node11 -->
<g id="edge11" class="edge"><title>Node8&#45;&gt;Node11</title>
<path fill="none" stroke="midnightblue" d="M278.275,-143.14C281.708,-141.333 284.99,-139.296 288,-137 311.229,-119.281 300.425,-99.2556 324,-82 329.341,-78.0905 335.455,-74.9849 341.777,-72.518"/>
<polygon fill="midnightblue" stroke="midnightblue" points="276.569,-140.072 268.923,-147.406 279.474,-146.44 276.569,-140.072"/>
</g>
</g>
</svg>
