<?xml version="1.0" encoding="UTF-8" standalone="no"?>
<!DOCTYPE svg PUBLIC "-//W3C//DTD SVG 1.1//EN"
 "http://www.w3.org/Graphics/SVG/1.1/DTD/svg11.dtd">
<!-- Generated by graphviz version 2.36.0 (20140111.2315)
 -->
<!-- Title: HALSITL::SITL_State::_update_gps_nmea Pages: 1 -->
<svg width="906pt" height="87pt"
 viewBox="0.00 0.00 906.00 87.00" xmlns="http://www.w3.org/2000/svg" xmlns:xlink="http://www.w3.org/1999/xlink">
<g id="graph0" class="graph" transform="scale(1 1) rotate(0) translate(4 83)">
<title>HALSITL::SITL_State::_update_gps_nmea</title>
<polygon fill="white" stroke="none" points="-4,4 -4,-83 902,-83 902,4 -4,4"/>
<!-- Node1 -->
<g id="node1" class="node"><title>Node1</title>
<polygon fill="#bfbfbf" stroke="black" points="0.5,-24 0.5,-54 113.5,-54 113.5,-24 0.5,-24"/>
<text text-anchor="start" x="8.5" y="-42" font-family="Helvetica,sans-Serif" font-size="10.00">HALSITL::SITL_State</text>
<text text-anchor="middle" x="57" y="-31" font-family="Helvetica,sans-Serif" font-size="10.00">::_update_gps_nmea</text>
</g>
<!-- Node2 -->
<g id="node2" class="node"><title>Node2</title>
<g id="a_node2"><a xlink:href="$classHALSITL_1_1SITL__State.html#a09b6857a6f87a51390d4e045cb671207" xlink:title="HALSITL::SITL_State\l::_update_gps">
<polygon fill="white" stroke="black" points="150.5,-24 150.5,-54 263.5,-54 263.5,-24 150.5,-24"/>
<text text-anchor="start" x="158.5" y="-42" font-family="Helvetica,sans-Serif" font-size="10.00">HALSITL::SITL_State</text>
<text text-anchor="middle" x="207" y="-31" font-family="Helvetica,sans-Serif" font-size="10.00">::_update_gps</text>
</a>
</g>
</g>
<!-- Node1&#45;&gt;Node2 -->
<g id="edge1" class="edge"><title>Node1&#45;&gt;Node2</title>
<path fill="none" stroke="midnightblue" d="M123.768,-39C132.576,-39 141.542,-39 150.158,-39"/>
<polygon fill="midnightblue" stroke="midnightblue" points="123.531,-35.5001 113.531,-39 123.531,-42.5001 123.531,-35.5001"/>
</g>
<!-- Node3 -->
<g id="node3" class="node"><title>Node3</title>
<g id="a_node3"><a xlink:href="$classHALSITL_1_1SITL__State.html#ae31c93a26ca780bb508dded2498e2e93" xlink:title="HALSITL::SITL_State\l::_fdm_input_step">
<polygon fill="white" stroke="black" points="300.5,-49 300.5,-79 413.5,-79 413.5,-49 300.5,-49"/>
<text text-anchor="start" x="308.5" y="-67" font-family="Helvetica,sans-Serif" font-size="10.00">HALSITL::SITL_State</text>
<text text-anchor="middle" x="357" y="-56" font-family="Helvetica,sans-Serif" font-size="10.00">::_fdm_input_step</text>
</a>
</g>
</g>
<!-- Node2&#45;&gt;Node3 -->
<g id="edge2" class="edge"><title>Node2&#45;&gt;Node3</title>
<path fill="none" stroke="midnightblue" d="M273.481,-50.061C282.381,-51.5644 291.449,-53.096 300.158,-54.5672"/>
<polygon fill="midnightblue" stroke="midnightblue" points="273.974,-46.5948 263.531,-48.3802 272.808,-53.497 273.974,-46.5948"/>
</g>
<!-- Node7 -->
<g id="node7" class="node"><title>Node7</title>
<g id="a_node7"><a xlink:href="$classHALSITL_1_1SITL__State.html#a431cc90b2798830af85bcd65d0dade9f" xlink:title="HALSITL::SITL_State\l::_sitl_setup">
<polygon fill="white" stroke="black" points="300.5,-0 300.5,-30 413.5,-30 413.5,-0 300.5,-0"/>
<text text-anchor="start" x="308.5" y="-18" font-family="Helvetica,sans-Serif" font-size="10.00">HALSITL::SITL_State</text>
<text text-anchor="middle" x="357" y="-7" font-family="Helvetica,sans-Serif" font-size="10.00">::_sitl_setup</text>
</a>
</g>
</g>
<!-- Node2&#45;&gt;Node7 -->
<g id="edge6" class="edge"><title>Node2&#45;&gt;Node7</title>
<path fill="none" stroke="midnightblue" d="M273.481,-28.3815C282.381,-26.9381 291.449,-25.4678 300.158,-24.0555"/>
<polygon fill="midnightblue" stroke="midnightblue" points="272.842,-24.9393 263.531,-29.995 273.962,-31.8491 272.842,-24.9393"/>
</g>
<!-- Node4 -->
<g id="node4" class="node"><title>Node4</title>
<g id="a_node4"><a xlink:href="$classHALSITL_1_1SITL__State.html#a3eeaf330efded46259bbf64fc53e6b9f" xlink:title="HALSITL::SITL_State\l::wait_clock">
<polygon fill="white" stroke="black" points="453.5,-49 453.5,-79 566.5,-79 566.5,-49 453.5,-49"/>
<text text-anchor="start" x="461.5" y="-67" font-family="Helvetica,sans-Serif" font-size="10.00">HALSITL::SITL_State</text>
<text text-anchor="middle" x="510" y="-56" font-family="Helvetica,sans-Serif" font-size="10.00">::wait_clock</text>
</a>
</g>
</g>
<!-- Node3&#45;&gt;Node4 -->
<g id="edge3" class="edge"><title>Node3&#45;&gt;Node4</title>
<path fill="none" stroke="midnightblue" d="M423.941,-64C433.779,-64 443.837,-64 453.432,-64"/>
<polygon fill="midnightblue" stroke="midnightblue" points="423.798,-60.5001 413.798,-64 423.798,-67.5001 423.798,-60.5001"/>
</g>
<!-- Node5 -->
<g id="node5" class="node"><title>Node5</title>
<g id="a_node5"><a xlink:href="$classHALSITL_1_1SITLScheduler.html#a4128e7f01b3e88fcb890ed98d91e9b10" xlink:title="HALSITL::SITLScheduler\l::delay_microseconds">
<polygon fill="white" stroke="black" points="606,-49 606,-79 734,-79 734,-49 606,-49"/>
<text text-anchor="start" x="614" y="-67" font-family="Helvetica,sans-Serif" font-size="10.00">HALSITL::SITLScheduler</text>
<text text-anchor="middle" x="670" y="-56" font-family="Helvetica,sans-Serif" font-size="10.00">::delay_microseconds</text>
</a>
</g>
</g>
<!-- Node4&#45;&gt;Node5 -->
<g id="edge4" class="edge"><title>Node4&#45;&gt;Node5</title>
<path fill="none" stroke="midnightblue" d="M576.988,-64C586.586,-64 596.447,-64 605.984,-64"/>
<polygon fill="midnightblue" stroke="midnightblue" points="576.705,-60.5001 566.705,-64 576.705,-67.5001 576.705,-60.5001"/>
</g>
<!-- Node6 -->
<g id="node6" class="node"><title>Node6</title>
<g id="a_node6"><a xlink:href="$classHALSITL_1_1SITLScheduler.html#af7f89d00311bc23d39e38d1a0861cc42" xlink:title="HALSITL::SITLScheduler\l::delay">
<polygon fill="white" stroke="black" points="770,-49 770,-79 898,-79 898,-49 770,-49"/>
<text text-anchor="start" x="778" y="-67" font-family="Helvetica,sans-Serif" font-size="10.00">HALSITL::SITLScheduler</text>
<text text-anchor="middle" x="834" y="-56" font-family="Helvetica,sans-Serif" font-size="10.00">::delay</text>
</a>
</g>
</g>
<!-- Node5&#45;&gt;Node6 -->
<g id="edge5" class="edge"><title>Node5&#45;&gt;Node6</title>
<path fill="none" stroke="midnightblue" d="M744.374,-64C752.865,-64 761.469,-64 769.808,-64"/>
<polygon fill="midnightblue" stroke="midnightblue" points="744.097,-60.5001 734.097,-64 744.097,-67.5001 744.097,-60.5001"/>
</g>
<!-- Node8 -->
<g id="node8" class="node"><title>Node8</title>
<g id="a_node8"><a xlink:href="$classHALSITL_1_1SITL__State.html#a5211ba971055052489d9817c3388c4c2" xlink:title="HALSITL::SITL_State\l::_parse_command_line">
<polygon fill="white" stroke="black" points="450,-0 450,-30 570,-30 570,-0 450,-0"/>
<text text-anchor="start" x="458" y="-18" font-family="Helvetica,sans-Serif" font-size="10.00">HALSITL::SITL_State</text>
<text text-anchor="middle" x="510" y="-7" font-family="Helvetica,sans-Serif" font-size="10.00">::_parse_command_line</text>
</a>
</g>
</g>
<!-- Node7&#45;&gt;Node8 -->
<g id="edge7" class="edge"><title>Node7&#45;&gt;Node8</title>
<path fill="none" stroke="midnightblue" d="M423.857,-15C432.516,-15 441.348,-15 449.886,-15"/>
<polygon fill="midnightblue" stroke="midnightblue" points="423.798,-11.5001 413.798,-15 423.798,-18.5001 423.798,-11.5001"/>
</g>
<!-- Node9 -->
<g id="node9" class="node"><title>Node9</title>
<g id="a_node9"><a xlink:href="$classHALSITL_1_1SITL__State.html#a7059cb4e279007aae9b06757a68c15af" xlink:title="HALSITL::SITL_State\l::init">
<polygon fill="white" stroke="black" points="613.5,-0 613.5,-30 726.5,-30 726.5,-0 613.5,-0"/>
<text text-anchor="start" x="621.5" y="-18" font-family="Helvetica,sans-Serif" font-size="10.00">HALSITL::SITL_State</text>
<text text-anchor="middle" x="670" y="-7" font-family="Helvetica,sans-Serif" font-size="10.00">::init</text>
</a>
</g>
</g>
<!-- Node8&#45;&gt;Node9 -->
<g id="edge8" class="edge"><title>Node8&#45;&gt;Node9</title>
<path fill="none" stroke="midnightblue" d="M580.318,-15C591.35,-15 602.639,-15 613.305,-15"/>
<polygon fill="midnightblue" stroke="midnightblue" points="580.283,-11.5001 570.283,-15 580.283,-18.5001 580.283,-11.5001"/>
</g>
<!-- Node10 -->
<g id="node10" class="node"><title>Node10</title>
<g id="a_node10"><a xlink:href="$classHAL__SITL.html#aaee5180f1c92899c19422d24a3ec42d3" xlink:title="HAL_SITL::init">
<polygon fill="white" stroke="black" points="793.5,-5.5 793.5,-24.5 874.5,-24.5 874.5,-5.5 793.5,-5.5"/>
<text text-anchor="middle" x="834" y="-12.5" font-family="Helvetica,sans-Serif" font-size="10.00">HAL_SITL::init</text>
</a>
</g>
</g>
<!-- Node9&#45;&gt;Node10 -->
<g id="edge9" class="edge"><title>Node9&#45;&gt;Node10</title>
<path fill="none" stroke="midnightblue" d="M736.956,-15C756.141,-15 776.492,-15 793.5,-15"/>
<polygon fill="midnightblue" stroke="midnightblue" points="736.751,-11.5001 726.751,-15 736.751,-18.5001 736.751,-11.5001"/>
</g>
</g>
</svg>
