<?xml version="1.0" encoding="UTF-8" standalone="no"?>
<!DOCTYPE svg PUBLIC "-//W3C//DTD SVG 1.1//EN"
 "http://www.w3.org/Graphics/SVG/1.1/DTD/svg11.dtd">
<!-- Generated by graphviz version 2.36.0 (20140111.2315)
 -->
<!-- Title: DataFlash_Class Pages: 1 -->
<svg width="434pt" height="140pt"
 viewBox="0.00 0.00 434.00 140.00" xmlns="http://www.w3.org/2000/svg" xmlns:xlink="http://www.w3.org/1999/xlink">
<g id="graph0" class="graph" transform="scale(1 1) rotate(0) translate(4 136)">
<title>DataFlash_Class</title>
<polygon fill="white" stroke="none" points="-4,4 -4,-136 430,-136 430,4 -4,4"/>
<!-- Node1 -->
<g id="node1" class="node"><title>Node1</title>
<polygon fill="#bfbfbf" stroke="black" points="222,-112.5 222,-131.5 314,-131.5 314,-112.5 222,-112.5"/>
<text text-anchor="middle" x="268" y="-119.5" font-family="Helvetica,sans-Serif" font-size="10.00">DataFlash_Class</text>
</g>
<!-- Node2 -->
<g id="node2" class="node"><title>Node2</title>
<g id="a_node2"><a xlink:href="$classDataFlash__Block.html" xlink:title="&#45;*&#45; tab&#45;width: 4; Mode: C++; c&#45;basic&#45;offset: 4; indent&#45;tabs&#45;mode: nil &#45;*&#45; ">
<polygon fill="white" stroke="black" points="169,-56.5 169,-75.5 261,-75.5 261,-56.5 169,-56.5"/>
<text text-anchor="middle" x="215" y="-63.5" font-family="Helvetica,sans-Serif" font-size="10.00">DataFlash_Block</text>
</a>
</g>
</g>
<!-- Node1&#45;&gt;Node2 -->
<g id="edge1" class="edge"><title>Node1&#45;&gt;Node2</title>
<path fill="none" stroke="midnightblue" d="M252.019,-104.718C242.678,-95.1997 231.254,-83.5608 223.589,-75.7511"/>
<polygon fill="midnightblue" stroke="midnightblue" points="249.746,-107.398 259.248,-112.083 254.741,-102.494 249.746,-107.398"/>
</g>
<!-- Node7 -->
<g id="node7" class="node"><title>Node7</title>
<g id="a_node7"><a xlink:href="$classDataFlash__File.html" xlink:title="&#45;*&#45; tab&#45;width: 4; Mode: C++; c&#45;basic&#45;offset: 4; indent&#45;tabs&#45;mode: nil &#45;*&#45; ">
<polygon fill="white" stroke="black" points="279.5,-56.5 279.5,-75.5 362.5,-75.5 362.5,-56.5 279.5,-56.5"/>
<text text-anchor="middle" x="321" y="-63.5" font-family="Helvetica,sans-Serif" font-size="10.00">DataFlash_File</text>
</a>
</g>
</g>
<!-- Node1&#45;&gt;Node7 -->
<g id="edge6" class="edge"><title>Node1&#45;&gt;Node7</title>
<path fill="none" stroke="midnightblue" d="M283.981,-104.718C293.322,-95.1997 304.746,-83.5608 312.411,-75.7511"/>
<polygon fill="midnightblue" stroke="midnightblue" points="281.259,-102.494 276.752,-112.083 286.254,-107.398 281.259,-102.494"/>
</g>
<!-- Node3 -->
<g id="node3" class="node"><title>Node3</title>
<g id="a_node3"><a xlink:href="$classDataFlash__APM1.html" xlink:title="&#45;*&#45; tab&#45;width: 4; Mode: C++; c&#45;basic&#45;offset: 4; indent&#45;tabs&#45;mode: nil &#45;*&#45; ">
<polygon fill="white" stroke="black" points="0,-0.5 0,-19.5 94,-19.5 94,-0.5 0,-0.5"/>
<text text-anchor="middle" x="47" y="-7.5" font-family="Helvetica,sans-Serif" font-size="10.00">DataFlash_APM1</text>
</a>
</g>
</g>
<!-- Node2&#45;&gt;Node3 -->
<g id="edge2" class="edge"><title>Node2&#45;&gt;Node3</title>
<path fill="none" stroke="midnightblue" d="M178.614,-53.3044C146.958,-43.1294 101.832,-28.6246 73.4956,-19.5164"/>
<polygon fill="midnightblue" stroke="midnightblue" points="177.789,-56.7155 188.38,-56.4435 179.931,-50.0513 177.789,-56.7155"/>
</g>
<!-- Node4 -->
<g id="node4" class="node"><title>Node4</title>
<g id="a_node4"><a xlink:href="$classDataFlash__APM2.html" xlink:title="&#45;*&#45; tab&#45;width: 4; Mode: C++; c&#45;basic&#45;offset: 4; indent&#45;tabs&#45;mode: nil &#45;*&#45; ">
<polygon fill="white" stroke="black" points="112,-0.5 112,-19.5 206,-19.5 206,-0.5 112,-0.5"/>
<text text-anchor="middle" x="159" y="-7.5" font-family="Helvetica,sans-Serif" font-size="10.00">DataFlash_APM2</text>
</a>
</g>
</g>
<!-- Node2&#45;&gt;Node4 -->
<g id="edge3" class="edge"><title>Node2&#45;&gt;Node4</title>
<path fill="none" stroke="midnightblue" d="M198.67,-49.2533C188.735,-39.6731 176.412,-27.7906 168.161,-19.8339"/>
<polygon fill="midnightblue" stroke="midnightblue" points="196.375,-51.902 206.003,-56.324 201.234,-46.8631 196.375,-51.902"/>
</g>
<!-- Node5 -->
<g id="node5" class="node"><title>Node5</title>
<g id="a_node5"><a xlink:href="$classDataFlash__Empty.html" xlink:title="&#45;*&#45; tab&#45;width: 4; Mode: C++; c&#45;basic&#45;offset: 4; indent&#45;tabs&#45;mode: nil &#45;*&#45; ">
<polygon fill="white" stroke="black" points="224.5,-0.5 224.5,-19.5 319.5,-19.5 319.5,-0.5 224.5,-0.5"/>
<text text-anchor="middle" x="272" y="-7.5" font-family="Helvetica,sans-Serif" font-size="10.00">DataFlash_Empty</text>
</a>
</g>
</g>
<!-- Node2&#45;&gt;Node5 -->
<g id="edge4" class="edge"><title>Node2&#45;&gt;Node5</title>
<path fill="none" stroke="midnightblue" d="M231.621,-49.2533C241.734,-39.6731 254.277,-27.7906 262.675,-19.8339"/>
<polygon fill="midnightblue" stroke="midnightblue" points="229.01,-46.9056 224.158,-56.324 233.825,-51.9873 229.01,-46.9056"/>
</g>
<!-- Node6 -->
<g id="node6" class="node"><title>Node6</title>
<g id="a_node6"><a xlink:href="$classDataFlash__SITL.html" xlink:title="DataFlash_SITL">
<polygon fill="white" stroke="black" points="338,-0.5 338,-19.5 426,-19.5 426,-0.5 338,-0.5"/>
<text text-anchor="middle" x="382" y="-7.5" font-family="Helvetica,sans-Serif" font-size="10.00">DataFlash_SITL</text>
</a>
</g>
</g>
<!-- Node2&#45;&gt;Node6 -->
<g id="edge5" class="edge"><title>Node2&#45;&gt;Node6</title>
<path fill="none" stroke="midnightblue" d="M251.17,-53.3044C282.637,-43.1294 327.494,-28.6246 355.662,-19.5164"/>
<polygon fill="midnightblue" stroke="midnightblue" points="249.9,-50.0366 241.462,-56.4435 252.053,-56.697 249.9,-50.0366"/>
</g>
</g>
</svg>
