<?xml version="1.0" encoding="UTF-8" standalone="no"?>
<!DOCTYPE svg PUBLIC "-//W3C//DTD SVG 1.1//EN"
 "http://www.w3.org/Graphics/SVG/1.1/DTD/svg11.dtd">
<!-- Generated by graphviz version 2.36.0 (20140111.2315)
 -->
<!-- Title: AP_Airspeed::enabled Pages: 1 -->
<svg width="538pt" height="38pt"
 viewBox="0.00 0.00 538.00 38.00" xmlns="http://www.w3.org/2000/svg" xmlns:xlink="http://www.w3.org/1999/xlink">
<g id="graph0" class="graph" transform="scale(1 1) rotate(0) translate(4 34)">
<title>AP_Airspeed::enabled</title>
<polygon fill="white" stroke="none" points="-4,4 -4,-34 534,-34 534,4 -4,4"/>
<!-- Node1 -->
<g id="node1" class="node"><title>Node1</title>
<polygon fill="#bfbfbf" stroke="black" points="0.5,-5.5 0.5,-24.5 113.5,-24.5 113.5,-5.5 0.5,-5.5"/>
<text text-anchor="middle" x="57" y="-12.5" font-family="Helvetica,sans-Serif" font-size="10.00">AP_Airspeed::enabled</text>
</g>
<!-- Node2 -->
<g id="node2" class="node"><title>Node2</title>
<g id="a_node2"><a xlink:href="$classAP__Arming.html#a2b7ca6e3c7517feca088b28d45f2fc61" xlink:title="AP_Arming::airspeed\l_checks">
<polygon fill="white" stroke="black" points="150.5,-0 150.5,-30 259.5,-30 259.5,-0 150.5,-0"/>
<text text-anchor="start" x="158.5" y="-18" font-family="Helvetica,sans-Serif" font-size="10.00">AP_Arming::airspeed</text>
<text text-anchor="middle" x="205" y="-7" font-family="Helvetica,sans-Serif" font-size="10.00">_checks</text>
</a>
</g>
</g>
<!-- Node1&#45;&gt;Node2 -->
<g id="edge1" class="edge"><title>Node1&#45;&gt;Node2</title>
<path fill="none" stroke="midnightblue" d="M123.651,-15C132.624,-15 141.746,-15 150.469,-15"/>
<polygon fill="midnightblue" stroke="midnightblue" points="123.613,-11.5001 113.613,-15 123.613,-18.5001 123.613,-11.5001"/>
</g>
<!-- Node3 -->
<g id="node3" class="node"><title>Node3</title>
<g id="a_node3"><a xlink:href="$classAP__Arming.html#a73c03baf7f22b7124a2ac9e9286a850a" xlink:title="AP_Arming::pre_arm\l_checks">
<polygon fill="white" stroke="black" points="296.5,-0 296.5,-30 403.5,-30 403.5,-0 296.5,-0"/>
<text text-anchor="start" x="304.5" y="-18" font-family="Helvetica,sans-Serif" font-size="10.00">AP_Arming::pre_arm</text>
<text text-anchor="middle" x="350" y="-7" font-family="Helvetica,sans-Serif" font-size="10.00">_checks</text>
</a>
</g>
</g>
<!-- Node2&#45;&gt;Node3 -->
<g id="edge2" class="edge"><title>Node2&#45;&gt;Node3</title>
<path fill="none" stroke="midnightblue" d="M269.668,-15C278.626,-15 287.75,-15 296.469,-15"/>
<polygon fill="midnightblue" stroke="midnightblue" points="269.655,-11.5001 259.655,-15 269.655,-18.5001 269.655,-11.5001"/>
</g>
<!-- Node4 -->
<g id="node4" class="node"><title>Node4</title>
<g id="a_node4"><a xlink:href="$classAP__Arming.html#a47b859d9929a736df2f08a1cad03efcb" xlink:title="AP_Arming::arm">
<polygon fill="white" stroke="black" points="440.5,-5.5 440.5,-24.5 529.5,-24.5 529.5,-5.5 440.5,-5.5"/>
<text text-anchor="middle" x="485" y="-12.5" font-family="Helvetica,sans-Serif" font-size="10.00">AP_Arming::arm</text>
</a>
</g>
</g>
<!-- Node3&#45;&gt;Node4 -->
<g id="edge3" class="edge"><title>Node3&#45;&gt;Node4</title>
<path fill="none" stroke="midnightblue" d="M413.683,-15C422.711,-15 431.834,-15 440.382,-15"/>
<polygon fill="midnightblue" stroke="midnightblue" points="413.565,-11.5001 403.565,-15 413.565,-18.5001 413.565,-11.5001"/>
</g>
</g>
</svg>
