<?xml version="1.0" encoding="UTF-8" standalone="no"?>
<!DOCTYPE svg PUBLIC "-//W3C//DTD SVG 1.1//EN"
 "http://www.w3.org/Graphics/SVG/1.1/DTD/svg11.dtd">
<!-- Generated by graphviz version 2.36.0 (20140111.2315)
 -->
<!-- Title: AP_Arming::logging_checks Pages: 1 -->
<svg width="382pt" height="38pt"
 viewBox="0.00 0.00 382.00 38.00" xmlns="http://www.w3.org/2000/svg" xmlns:xlink="http://www.w3.org/1999/xlink">
<g id="graph0" class="graph" transform="scale(1 1) rotate(0) translate(4 34)">
<title>AP_Arming::logging_checks</title>
<polygon fill="white" stroke="none" points="-4,4 -4,-34 378,-34 378,4 -4,4"/>
<!-- Node1 -->
<g id="node1" class="node"><title>Node1</title>
<polygon fill="#bfbfbf" stroke="black" points="0.5,-0 0.5,-30 103.5,-30 103.5,-0 0.5,-0"/>
<text text-anchor="start" x="8.5" y="-18" font-family="Helvetica,sans-Serif" font-size="10.00">AP_Arming::logging</text>
<text text-anchor="middle" x="52" y="-7" font-family="Helvetica,sans-Serif" font-size="10.00">_checks</text>
</g>
<!-- Node2 -->
<g id="node2" class="node"><title>Node2</title>
<g id="a_node2"><a xlink:href="$classAP__Arming.html#a73c03baf7f22b7124a2ac9e9286a850a" xlink:title="AP_Arming::pre_arm\l_checks">
<polygon fill="white" stroke="black" points="140.5,-0 140.5,-30 247.5,-30 247.5,-0 140.5,-0"/>
<text text-anchor="start" x="148.5" y="-18" font-family="Helvetica,sans-Serif" font-size="10.00">AP_Arming::pre_arm</text>
<text text-anchor="middle" x="194" y="-7" font-family="Helvetica,sans-Serif" font-size="10.00">_checks</text>
</a>
</g>
</g>
<!-- Node1&#45;&gt;Node2 -->
<g id="edge1" class="edge"><title>Node1&#45;&gt;Node2</title>
<path fill="none" stroke="midnightblue" d="M113.748,-15C122.547,-15 131.545,-15 140.172,-15"/>
<polygon fill="midnightblue" stroke="midnightblue" points="113.543,-11.5001 103.543,-15 113.543,-18.5001 113.543,-11.5001"/>
</g>
<!-- Node3 -->
<g id="node3" class="node"><title>Node3</title>
<g id="a_node3"><a xlink:href="$classAP__Arming.html#a47b859d9929a736df2f08a1cad03efcb" xlink:title="AP_Arming::arm">
<polygon fill="white" stroke="black" points="284.5,-5.5 284.5,-24.5 373.5,-24.5 373.5,-5.5 284.5,-5.5"/>
<text text-anchor="middle" x="329" y="-12.5" font-family="Helvetica,sans-Serif" font-size="10.00">AP_Arming::arm</text>
</a>
</g>
</g>
<!-- Node2&#45;&gt;Node3 -->
<g id="edge2" class="edge"><title>Node2&#45;&gt;Node3</title>
<path fill="none" stroke="midnightblue" d="M257.683,-15C266.711,-15 275.834,-15 284.382,-15"/>
<polygon fill="midnightblue" stroke="midnightblue" points="257.565,-11.5001 247.565,-15 257.565,-18.5001 257.565,-11.5001"/>
</g>
</g>
</svg>
