<?xml version="1.0" encoding="UTF-8" standalone="no"?>
<!DOCTYPE svg PUBLIC "-//W3C//DTD SVG 1.1//EN"
 "http://www.w3.org/Graphics/SVG/1.1/DTD/svg11.dtd">
<!-- Generated by graphviz version 2.36.0 (20140111.2315)
 -->
<!-- Title: AC_PI_2D::filt_hz Pages: 1 -->
<svg width="328pt" height="38pt"
 viewBox="0.00 0.00 328.00 38.00" xmlns="http://www.w3.org/2000/svg" xmlns:xlink="http://www.w3.org/1999/xlink">
<g id="graph0" class="graph" transform="scale(1 1) rotate(0) translate(4 34)">
<title>AC_PI_2D::filt_hz</title>
<polygon fill="white" stroke="none" points="-4,4 -4,-34 324,-34 324,4 -4,4"/>
<!-- Node1 -->
<g id="node1" class="node"><title>Node1</title>
<polygon fill="#bfbfbf" stroke="black" points="0,-5.5 0,-24.5 96,-24.5 96,-5.5 0,-5.5"/>
<text text-anchor="middle" x="48" y="-12.5" font-family="Helvetica,sans-Serif" font-size="10.00">AC_PI_2D::filt_hz</text>
</g>
<!-- Node2 -->
<g id="node2" class="node"><title>Node2</title>
<g id="a_node2"><a xlink:href="$classAC__PI__2D.html#ad06c3792dacb8c3ebfdffca3697ed727" xlink:title="AC_PI_2D::calc_filt\l_alpha">
<polygon fill="white" stroke="black" points="132,-0 132,-30 236,-30 236,-0 132,-0"/>
<text text-anchor="start" x="140" y="-18" font-family="Helvetica,sans-Serif" font-size="10.00">AC_PI_2D::calc_filt</text>
<text text-anchor="middle" x="184" y="-7" font-family="Helvetica,sans-Serif" font-size="10.00">_alpha</text>
</a>
</g>
</g>
<!-- Node1&#45;&gt;Node2 -->
<g id="edge1" class="edge"><title>Node1&#45;&gt;Node2</title>
<path fill="none" stroke="midnightblue" d="M96.2434,-15C104.386,-15 112.956,-15 121.41,-15"/>
<polygon fill="midnightblue" stroke="midnightblue" points="121.629,-18.5001 131.629,-15 121.629,-11.5001 121.629,-18.5001"/>
</g>
<!-- Node3 -->
<g id="node3" class="node"><title>Node3</title>
<g id="a_node3"><a xlink:href="$AP__Math_8h.html#a108b79eeb35c5d58f324458ec9e1e9f2" xlink:title="is_zero">
<polygon fill="white" stroke="black" points="272,-5.5 272,-24.5 320,-24.5 320,-5.5 272,-5.5"/>
<text text-anchor="middle" x="296" y="-12.5" font-family="Helvetica,sans-Serif" font-size="10.00">is_zero</text>
</a>
</g>
</g>
<!-- Node2&#45;&gt;Node3 -->
<g id="edge2" class="edge"><title>Node2&#45;&gt;Node3</title>
<path fill="none" stroke="midnightblue" d="M236.136,-15C244.796,-15 253.585,-15 261.637,-15"/>
<polygon fill="midnightblue" stroke="midnightblue" points="261.726,-18.5001 271.726,-15 261.726,-11.5001 261.726,-18.5001"/>
</g>
</g>
</svg>
