<?xml version="1.0" encoding="UTF-8" standalone="no"?>
<!DOCTYPE svg PUBLIC "-//W3C//DTD SVG 1.1//EN"
 "http://www.w3.org/Graphics/SVG/1.1/DTD/svg11.dtd">
<!-- Generated by graphviz version 2.36.0 (20140111.2315)
 -->
<!-- Title: AP_Arming::gps_checks Pages: 1 -->
<svg width="404pt" height="38pt"
 viewBox="0.00 0.00 404.00 38.00" xmlns="http://www.w3.org/2000/svg" xmlns:xlink="http://www.w3.org/1999/xlink">
<g id="graph0" class="graph" transform="scale(1 1) rotate(0) translate(4 34)">
<title>AP_Arming::gps_checks</title>
<polygon fill="white" stroke="none" points="-4,4 -4,-34 400,-34 400,4 -4,4"/>
<!-- Node1 -->
<g id="node1" class="node"><title>Node1</title>
<polygon fill="#bfbfbf" stroke="black" points="0.5,-5.5 0.5,-24.5 125.5,-24.5 125.5,-5.5 0.5,-5.5"/>
<text text-anchor="middle" x="63" y="-12.5" font-family="Helvetica,sans-Serif" font-size="10.00">AP_Arming::gps_checks</text>
</g>
<!-- Node2 -->
<g id="node2" class="node"><title>Node2</title>
<g id="a_node2"><a xlink:href="$classAP__Arming.html#a73c03baf7f22b7124a2ac9e9286a850a" xlink:title="AP_Arming::pre_arm\l_checks">
<polygon fill="white" stroke="black" points="162.5,-0 162.5,-30 269.5,-30 269.5,-0 162.5,-0"/>
<text text-anchor="start" x="170.5" y="-18" font-family="Helvetica,sans-Serif" font-size="10.00">AP_Arming::pre_arm</text>
<text text-anchor="middle" x="216" y="-7" font-family="Helvetica,sans-Serif" font-size="10.00">_checks</text>
</a>
</g>
</g>
<!-- Node1&#45;&gt;Node2 -->
<g id="edge1" class="edge"><title>Node1&#45;&gt;Node2</title>
<path fill="none" stroke="midnightblue" d="M136.109,-15C144.894,-15 153.74,-15 162.171,-15"/>
<polygon fill="midnightblue" stroke="midnightblue" points="135.853,-11.5001 125.853,-15 135.853,-18.5001 135.853,-11.5001"/>
</g>
<!-- Node3 -->
<g id="node3" class="node"><title>Node3</title>
<g id="a_node3"><a xlink:href="$classAP__Arming.html#a47b859d9929a736df2f08a1cad03efcb" xlink:title="AP_Arming::arm">
<polygon fill="white" stroke="black" points="306.5,-5.5 306.5,-24.5 395.5,-24.5 395.5,-5.5 306.5,-5.5"/>
<text text-anchor="middle" x="351" y="-12.5" font-family="Helvetica,sans-Serif" font-size="10.00">AP_Arming::arm</text>
</a>
</g>
</g>
<!-- Node2&#45;&gt;Node3 -->
<g id="edge2" class="edge"><title>Node2&#45;&gt;Node3</title>
<path fill="none" stroke="midnightblue" d="M279.683,-15C288.711,-15 297.834,-15 306.382,-15"/>
<polygon fill="midnightblue" stroke="midnightblue" points="279.565,-11.5001 269.565,-15 279.565,-18.5001 279.565,-11.5001"/>
</g>
</g>
</svg>
