<?xml version="1.0" encoding="UTF-8" standalone="no"?>
<!DOCTYPE svg PUBLIC "-//W3C//DTD SVG 1.1//EN"
 "http://www.w3.org/Graphics/SVG/1.1/DTD/svg11.dtd">
<!-- Generated by graphviz version 2.36.0 (20140111.2315)
 -->
<!-- Title: AP_Mission::clear Pages: 1 -->
<svg width="480pt" height="409pt"
 viewBox="0.00 0.00 480.00 409.00" xmlns="http://www.w3.org/2000/svg" xmlns:xlink="http://www.w3.org/1999/xlink">
<g id="graph0" class="graph" transform="scale(1 1) rotate(0) translate(4 405)">
<title>AP_Mission::clear</title>
<polygon fill="white" stroke="none" points="-4,4 -4,-405 476,-405 476,4 -4,4"/>
<!-- Node1 -->
<g id="node1" class="node"><title>Node1</title>
<polygon fill="#bfbfbf" stroke="black" points="0,-201.5 0,-220.5 96,-220.5 96,-201.5 0,-201.5"/>
<text text-anchor="middle" x="48" y="-208.5" font-family="Helvetica,sans-Serif" font-size="10.00">AP_Mission::clear</text>
</g>
<!-- Node2 -->
<g id="node2" class="node"><title>Node2</title>
<g id="a_node2"><a xlink:href="$classAP__Mission.html#ad7d2e7ab671227cdcf308aa58149e9a5" xlink:title="AP_Mission::check_eeprom\l_version">
<polygon fill="white" stroke="black" points="132.5,-371 132.5,-401 271.5,-401 271.5,-371 132.5,-371"/>
<text text-anchor="start" x="140.5" y="-389" font-family="Helvetica,sans-Serif" font-size="10.00">AP_Mission::check_eeprom</text>
<text text-anchor="middle" x="202" y="-378" font-family="Helvetica,sans-Serif" font-size="10.00">_version</text>
</a>
</g>
</g>
<!-- Node1&#45;&gt;Node2 -->
<g id="edge1" class="edge"><title>Node1&#45;&gt;Node2</title>
<path fill="none" stroke="midnightblue" d="M54.7681,-230.419C65.1407,-262.121 89.8783,-325.051 132,-361 136.555,-364.888 141.763,-368.19 147.231,-370.992"/>
<polygon fill="midnightblue" stroke="midnightblue" points="58.0228,-229.101 51.6933,-220.604 51.3428,-231.193 58.0228,-229.101"/>
</g>
<!-- Node4 -->
<g id="node4" class="node"><title>Node4</title>
<g id="a_node4"><a xlink:href="$classGCS__MAVLINK.html#a3ce88980604114dad68dda40849c8e09" xlink:title="GCS_MAVLINK::handle\l_mission_clear_all">
<polygon fill="white" stroke="black" points="141,-322 141,-352 263,-352 263,-322 141,-322"/>
<text text-anchor="start" x="149" y="-340" font-family="Helvetica,sans-Serif" font-size="10.00">GCS_MAVLINK::handle</text>
<text text-anchor="middle" x="202" y="-329" font-family="Helvetica,sans-Serif" font-size="10.00">_mission_clear_all</text>
</a>
</g>
</g>
<!-- Node1&#45;&gt;Node4 -->
<g id="edge3" class="edge"><title>Node1&#45;&gt;Node4</title>
<path fill="none" stroke="midnightblue" d="M59.5565,-229.063C73.4966,-251.456 100.052,-289.42 132,-312 137.41,-315.824 143.47,-319.126 149.691,-321.96"/>
<polygon fill="midnightblue" stroke="midnightblue" points="62.5501,-227.249 54.3756,-220.509 56.5628,-230.876 62.5501,-227.249"/>
</g>
<!-- Node5 -->
<g id="node5" class="node"><title>Node5</title>
<g id="a_node5"><a xlink:href="$AP__Mission__test_8pde.html#a5d77c673d18725f07d497cd10ec5366d" xlink:title="init_mission">
<polygon fill="white" stroke="black" points="168,-283.5 168,-302.5 236,-302.5 236,-283.5 168,-283.5"/>
<text text-anchor="middle" x="202" y="-290.5" font-family="Helvetica,sans-Serif" font-size="10.00">init_mission</text>
</a>
</g>
</g>
<!-- Node1&#45;&gt;Node5 -->
<g id="edge4" class="edge"><title>Node1&#45;&gt;Node5</title>
<path fill="none" stroke="midnightblue" d="M66.3579,-227.355C82.2943,-241.555 107.14,-261.715 132,-274 143.139,-279.505 156.104,-283.608 167.769,-286.565"/>
<polygon fill="midnightblue" stroke="midnightblue" points="68.6329,-224.693 58.8834,-220.546 63.9188,-229.868 68.6329,-224.693"/>
</g>
<!-- Node8 -->
<g id="node8" class="node"><title>Node8</title>
<g id="a_node8"><a xlink:href="$AP__Mission__test_8pde.html#a01fd66d072d1248158b6a5110374e368" xlink:title="init_mission_endless_loop">
<polygon fill="white" stroke="black" points="136.5,-245.5 136.5,-264.5 267.5,-264.5 267.5,-245.5 136.5,-245.5"/>
<text text-anchor="middle" x="202" y="-252.5" font-family="Helvetica,sans-Serif" font-size="10.00">init_mission_endless_loop</text>
</a>
</g>
</g>
<!-- Node1&#45;&gt;Node8 -->
<g id="edge7" class="edge"><title>Node1&#45;&gt;Node8</title>
<path fill="none" stroke="midnightblue" d="M91.6332,-223.341C115.843,-230.349 145.689,-238.989 168.083,-245.471"/>
<polygon fill="midnightblue" stroke="midnightblue" points="92.5606,-219.966 81.9817,-220.547 90.6142,-226.69 92.5606,-219.966"/>
</g>
<!-- Node9 -->
<g id="node9" class="node"><title>Node9</title>
<g id="a_node9"><a xlink:href="$AP__Mission__test_8pde.html#ab55ab42234c70d3f5c798c1d769d83dc" xlink:title="init_mission_ends_with\l_do_commands">
<polygon fill="white" stroke="black" points="143,-196 143,-226 261,-226 261,-196 143,-196"/>
<text text-anchor="start" x="151" y="-214" font-family="Helvetica,sans-Serif" font-size="10.00">init_mission_ends_with</text>
<text text-anchor="middle" x="202" y="-203" font-family="Helvetica,sans-Serif" font-size="10.00">_do_commands</text>
</a>
</g>
</g>
<!-- Node1&#45;&gt;Node9 -->
<g id="edge8" class="edge"><title>Node1&#45;&gt;Node9</title>
<path fill="none" stroke="midnightblue" d="M106.499,-211C118.375,-211 130.891,-211 142.791,-211"/>
<polygon fill="midnightblue" stroke="midnightblue" points="106.261,-207.5 96.2605,-211 106.261,-214.5 106.261,-207.5"/>
</g>
<!-- Node10 -->
<g id="node10" class="node"><title>Node10</title>
<g id="a_node10"><a xlink:href="$AP__Mission__test_8pde.html#a293c60273b64fa0f0fef49604b97ffc6" xlink:title="init_mission_ends_with\l_jump_command">
<polygon fill="white" stroke="black" points="143,-147 143,-177 261,-177 261,-147 143,-147"/>
<text text-anchor="start" x="151" y="-165" font-family="Helvetica,sans-Serif" font-size="10.00">init_mission_ends_with</text>
<text text-anchor="middle" x="202" y="-154" font-family="Helvetica,sans-Serif" font-size="10.00">_jump_command</text>
</a>
</g>
</g>
<!-- Node1&#45;&gt;Node10 -->
<g id="edge9" class="edge"><title>Node1&#45;&gt;Node10</title>
<path fill="none" stroke="midnightblue" d="M88.4587,-198.28C108.612,-191.783 133.265,-183.836 154.355,-177.037"/>
<polygon fill="midnightblue" stroke="midnightblue" points="87.1118,-195.037 78.668,-201.436 89.2595,-201.699 87.1118,-195.037"/>
</g>
<!-- Node11 -->
<g id="node11" class="node"><title>Node11</title>
<g id="a_node11"><a xlink:href="$AP__Mission__test_8pde.html#a607366ee3e161a3f9a22e154ab2eb198" xlink:title="init_mission_jump_to\l_nonnav">
<polygon fill="white" stroke="black" points="148,-98 148,-128 256,-128 256,-98 148,-98"/>
<text text-anchor="start" x="156" y="-116" font-family="Helvetica,sans-Serif" font-size="10.00">init_mission_jump_to</text>
<text text-anchor="middle" x="202" y="-105" font-family="Helvetica,sans-Serif" font-size="10.00">_nonnav</text>
</a>
</g>
</g>
<!-- Node1&#45;&gt;Node11 -->
<g id="edge10" class="edge"><title>Node1&#45;&gt;Node11</title>
<path fill="none" stroke="midnightblue" d="M64.6693,-193.926C80.367,-177.671 105.888,-153.458 132,-138 138.25,-134.3 145.137,-131.009 152.068,-128.127"/>
<polygon fill="midnightblue" stroke="midnightblue" points="62.1236,-191.524 57.7927,-201.193 67.2082,-196.335 62.1236,-191.524"/>
</g>
<!-- Node12 -->
<g id="node12" class="node"><title>Node12</title>
<g id="a_node12"><a xlink:href="$AP__Mission__test_8pde.html#a1f3bf996f49828465f1b398118eff2c0" xlink:title="init_mission_no_nav\l_commands">
<polygon fill="white" stroke="black" points="149.5,-49 149.5,-79 254.5,-79 254.5,-49 149.5,-49"/>
<text text-anchor="start" x="157.5" y="-67" font-family="Helvetica,sans-Serif" font-size="10.00">init_mission_no_nav</text>
<text text-anchor="middle" x="202" y="-56" font-family="Helvetica,sans-Serif" font-size="10.00">_commands</text>
</a>
</g>
</g>
<!-- Node1&#45;&gt;Node12 -->
<g id="edge11" class="edge"><title>Node1&#45;&gt;Node12</title>
<path fill="none" stroke="midnightblue" d="M57.3226,-191.863C69.8339,-165.207 95.9247,-117.027 132,-89 137.232,-84.9352 143.185,-81.4903 149.351,-78.581"/>
<polygon fill="midnightblue" stroke="midnightblue" points="54.0113,-190.69 53.0665,-201.243 60.3858,-193.583 54.0113,-190.69"/>
</g>
<!-- Node13 -->
<g id="node13" class="node"><title>Node13</title>
<g id="a_node13"><a xlink:href="$AP__Mission__test_8pde.html#aa30f318cd5b5252154697eaeeacffb47" xlink:title="init_mission_starts\l_with_do_commands">
<polygon fill="white" stroke="black" points="147.5,-0 147.5,-30 256.5,-30 256.5,-0 147.5,-0"/>
<text text-anchor="start" x="155.5" y="-18" font-family="Helvetica,sans-Serif" font-size="10.00">init_mission_starts</text>
<text text-anchor="middle" x="202" y="-7" font-family="Helvetica,sans-Serif" font-size="10.00">_with_do_commands</text>
</a>
</g>
</g>
<!-- Node1&#45;&gt;Node13 -->
<g id="edge12" class="edge"><title>Node1&#45;&gt;Node13</title>
<path fill="none" stroke="midnightblue" d="M53.3616,-191.35C62.1633,-156.139 85.3176,-82.0517 132,-40 136.544,-35.9067 141.81,-32.4695 147.367,-29.5863"/>
<polygon fill="midnightblue" stroke="midnightblue" points="49.8978,-190.789 50.9966,-201.326 56.709,-192.403 49.8978,-190.789"/>
</g>
<!-- Node3 -->
<g id="node3" class="node"><title>Node3</title>
<g id="a_node3"><a xlink:href="$classAP__Mission.html#aca08705d731469bf69daa788d93af56b" xlink:title="init &#45; initialises this library including checks the version in eeprom matches this library ...">
<polygon fill="white" stroke="black" points="310,-376.5 310,-395.5 398,-395.5 398,-376.5 310,-376.5"/>
<text text-anchor="middle" x="354" y="-383.5" font-family="Helvetica,sans-Serif" font-size="10.00">AP_Mission::init</text>
</a>
</g>
</g>
<!-- Node2&#45;&gt;Node3 -->
<g id="edge2" class="edge"><title>Node2&#45;&gt;Node3</title>
<path fill="none" stroke="midnightblue" d="M281.883,-386C291.504,-386 301.039,-386 309.853,-386"/>
<polygon fill="midnightblue" stroke="midnightblue" points="281.854,-382.5 271.854,-386 281.854,-389.5 281.854,-382.5"/>
</g>
<!-- Node6 -->
<g id="node6" class="node"><title>Node6</title>
<g id="a_node6"><a xlink:href="$AP__Mission__test_8pde.html#a52918e058fa06c68b87cc74205dda142" xlink:title="run_mission_test">
<polygon fill="white" stroke="black" points="308.5,-283.5 308.5,-302.5 399.5,-302.5 399.5,-283.5 308.5,-283.5"/>
<text text-anchor="middle" x="354" y="-290.5" font-family="Helvetica,sans-Serif" font-size="10.00">run_mission_test</text>
</a>
</g>
</g>
<!-- Node5&#45;&gt;Node6 -->
<g id="edge5" class="edge"><title>Node5&#45;&gt;Node6</title>
<path fill="none" stroke="midnightblue" d="M246.41,-293C265.876,-293 288.817,-293 308.42,-293"/>
<polygon fill="midnightblue" stroke="midnightblue" points="246.29,-289.5 236.29,-293 246.29,-296.5 246.29,-289.5"/>
</g>
<!-- Node7 -->
<g id="node7" class="node"><title>Node7</title>
<g id="a_node7"><a xlink:href="$AP__Mission__test_8pde.html#a0b33edabd7f1c4e4a0bf32c67269be2f" xlink:title="loop">
<polygon fill="white" stroke="black" points="436.5,-283.5 436.5,-302.5 471.5,-302.5 471.5,-283.5 436.5,-283.5"/>
<text text-anchor="middle" x="454" y="-290.5" font-family="Helvetica,sans-Serif" font-size="10.00">loop</text>
</a>
</g>
</g>
<!-- Node6&#45;&gt;Node7 -->
<g id="edge6" class="edge"><title>Node6&#45;&gt;Node7</title>
<path fill="none" stroke="midnightblue" d="M409.712,-293C419.278,-293 428.549,-293 436.042,-293"/>
<polygon fill="midnightblue" stroke="midnightblue" points="409.698,-289.5 399.698,-293 409.698,-296.5 409.698,-289.5"/>
</g>
</g>
</svg>
