<?xml version="1.0" encoding="UTF-8" standalone="no"?>
<!DOCTYPE svg PUBLIC "-//W3C//DTD SVG 1.1//EN"
 "http://www.w3.org/Graphics/SVG/1.1/DTD/svg11.dtd">
<!-- Generated by graphviz version 2.36.0 (20140111.2315)
 -->
<!-- Title: AP_Airspeed::read Pages: 1 -->
<svg width="626pt" height="111pt"
 viewBox="0.00 0.00 626.00 111.00" xmlns="http://www.w3.org/2000/svg" xmlns:xlink="http://www.w3.org/1999/xlink">
<g id="graph0" class="graph" transform="scale(1 1) rotate(0) translate(4 107)">
<title>AP_Airspeed::read</title>
<polygon fill="white" stroke="none" points="-4,4 -4,-107 622,-107 622,4 -4,4"/>
<!-- Node1 -->
<g id="node1" class="node"><title>Node1</title>
<polygon fill="#bfbfbf" stroke="black" points="0,-31.5 0,-50.5 98,-50.5 98,-31.5 0,-31.5"/>
<text text-anchor="middle" x="49" y="-38.5" font-family="Helvetica,sans-Serif" font-size="10.00">AP_Airspeed::read</text>
</g>
<!-- Node2 -->
<g id="node2" class="node"><title>Node2</title>
<g id="a_node2"><a xlink:href="$classAP__Airspeed.html#a2d265701a127bd336882e930cb996e86" xlink:title="AP_Airspeed::get_pressure">
<polygon fill="white" stroke="black" points="134,-53.5 134,-72.5 270,-72.5 270,-53.5 134,-53.5"/>
<text text-anchor="middle" x="202" y="-60.5" font-family="Helvetica,sans-Serif" font-size="10.00">AP_Airspeed::get_pressure</text>
</a>
</g>
</g>
<!-- Node1&#45;&gt;Node2 -->
<g id="edge1" class="edge"><title>Node1&#45;&gt;Node2</title>
<path fill="none" stroke="midnightblue" d="M98.1925,-48.0214C106.94,-49.2958 116.252,-50.6526 125.563,-52.0091"/>
<polygon fill="midnightblue" stroke="midnightblue" points="125.239,-55.4988 135.639,-53.4772 126.248,-48.5719 125.239,-55.4988"/>
</g>
<!-- Node7 -->
<g id="node7" class="node"><title>Node7</title>
<g id="a_node7"><a xlink:href="$classAP__HAL_1_1Scheduler.html#a26b68339fc68a562d8d3a1238d0ec8c1" xlink:title="AP_HAL::Scheduler::\lmillis">
<polygon fill="white" stroke="black" points="147,-4 147,-34 257,-34 257,-4 147,-4"/>
<text text-anchor="start" x="155" y="-22" font-family="Helvetica,sans-Serif" font-size="10.00">AP_HAL::Scheduler::</text>
<text text-anchor="middle" x="202" y="-11" font-family="Helvetica,sans-Serif" font-size="10.00">millis</text>
</a>
</g>
</g>
<!-- Node1&#45;&gt;Node7 -->
<g id="edge6" class="edge"><title>Node1&#45;&gt;Node7</title>
<path fill="none" stroke="midnightblue" d="M98.1925,-33.9786C110.451,-32.1925 123.82,-30.2447 136.74,-28.3624"/>
<polygon fill="midnightblue" stroke="midnightblue" points="137.584,-31.7764 146.975,-26.8711 136.575,-24.8495 137.584,-31.7764"/>
</g>
<!-- Node3 -->
<g id="node3" class="node"><title>Node3</title>
<g id="a_node3"><a xlink:href="$classAP__Airspeed__PX4.html#ad85ff702141a4b835205d9aa1fb4b4f6" xlink:title="AP_Airspeed_PX4::get\l_differential_pressure">
<polygon fill="white" stroke="black" points="312.5,-73 312.5,-103 429.5,-103 429.5,-73 312.5,-73"/>
<text text-anchor="start" x="320.5" y="-91" font-family="Helvetica,sans-Serif" font-size="10.00">AP_Airspeed_PX4::get</text>
<text text-anchor="middle" x="371" y="-80" font-family="Helvetica,sans-Serif" font-size="10.00">_differential_pressure</text>
</a>
</g>
</g>
<!-- Node2&#45;&gt;Node3 -->
<g id="edge2" class="edge"><title>Node2&#45;&gt;Node3</title>
<path fill="none" stroke="midnightblue" d="M266.612,-72.5227C278.233,-74.2624 290.399,-76.0837 302.138,-77.841"/>
<polygon fill="midnightblue" stroke="midnightblue" points="301.911,-81.3459 312.319,-79.3651 302.947,-74.4231 301.911,-81.3459"/>
</g>
<!-- Node4 -->
<g id="node4" class="node"><title>Node4</title>
<g id="a_node4"><a xlink:href="$classAP__Airspeed__Analog.html#a33da45ef81801b4971ed1afe3e2183fb" xlink:title="AP_Airspeed_Analog\l::get_differential_pressure">
<polygon fill="white" stroke="black" points="306.5,-24 306.5,-54 435.5,-54 435.5,-24 306.5,-24"/>
<text text-anchor="start" x="314.5" y="-42" font-family="Helvetica,sans-Serif" font-size="10.00">AP_Airspeed_Analog</text>
<text text-anchor="middle" x="371" y="-31" font-family="Helvetica,sans-Serif" font-size="10.00">::get_differential_pressure</text>
</a>
</g>
</g>
<!-- Node2&#45;&gt;Node4 -->
<g id="edge3" class="edge"><title>Node2&#45;&gt;Node4</title>
<path fill="none" stroke="midnightblue" d="M269.483,-53.4456C278.338,-52.1729 287.461,-50.8619 296.428,-49.5732"/>
<polygon fill="midnightblue" stroke="midnightblue" points="297.064,-53.0179 306.464,-48.1309 296.068,-46.0891 297.064,-53.0179"/>
</g>
<!-- Node5 -->
<g id="node5" class="node"><title>Node5</title>
<g id="a_node5"><a xlink:href="$classAP__HAL_1_1AnalogSource.html#add563a28e58fdd4af48ed983bbbecec8" xlink:title="AP_HAL::AnalogSource\l::set_pin">
<polygon fill="white" stroke="black" points="484,-49 484,-79 606,-79 606,-49 484,-49"/>
<text text-anchor="start" x="492" y="-67" font-family="Helvetica,sans-Serif" font-size="10.00">AP_HAL::AnalogSource</text>
<text text-anchor="middle" x="545" y="-56" font-family="Helvetica,sans-Serif" font-size="10.00">::set_pin</text>
</a>
</g>
</g>
<!-- Node4&#45;&gt;Node5 -->
<g id="edge4" class="edge"><title>Node4&#45;&gt;Node5</title>
<path fill="none" stroke="midnightblue" d="M435.558,-48.238C448.017,-50.049 461.152,-51.9581 473.813,-53.7984"/>
<polygon fill="midnightblue" stroke="midnightblue" points="473.444,-57.2815 483.844,-55.2564 474.451,-50.3543 473.444,-57.2815"/>
</g>
<!-- Node6 -->
<g id="node6" class="node"><title>Node6</title>
<g id="a_node6"><a xlink:href="$classAP__HAL_1_1AnalogSource.html#a0704aad3bf08570c35299a562202ed97" xlink:title="AP_HAL::AnalogSource\l::voltage_average_ratiometric">
<polygon fill="white" stroke="black" points="472.5,-0 472.5,-30 617.5,-30 617.5,-0 472.5,-0"/>
<text text-anchor="start" x="480.5" y="-18" font-family="Helvetica,sans-Serif" font-size="10.00">AP_HAL::AnalogSource</text>
<text text-anchor="middle" x="545" y="-7" font-family="Helvetica,sans-Serif" font-size="10.00">::voltage_average_ratiometric</text>
</a>
</g>
</g>
<!-- Node4&#45;&gt;Node6 -->
<g id="edge5" class="edge"><title>Node4&#45;&gt;Node6</title>
<path fill="none" stroke="midnightblue" d="M435.558,-30.1315C444.249,-28.9188 453.269,-27.6602 462.227,-26.4101"/>
<polygon fill="midnightblue" stroke="midnightblue" points="462.875,-29.8538 472.295,-25.0053 461.907,-22.9209 462.875,-29.8538"/>
</g>
</g>
</svg>
