<?xml version="1.0" encoding="UTF-8" standalone="no"?>
<!DOCTYPE svg PUBLIC "-//W3C//DTD SVG 1.1//EN"
 "http://www.w3.org/Graphics/SVG/1.1/DTD/svg11.dtd">
<!-- Generated by graphviz version 2.36.0 (20140111.2315)
 -->
<!-- Title: EEPROMClass::EE_GetVariablesCount Pages: 1 -->
<svg width="916pt" height="77pt"
 viewBox="0.00 0.00 916.00 77.00" xmlns="http://www.w3.org/2000/svg" xmlns:xlink="http://www.w3.org/1999/xlink">
<g id="graph0" class="graph" transform="scale(1 1) rotate(0) translate(4 73)">
<title>EEPROMClass::EE_GetVariablesCount</title>
<polygon fill="white" stroke="none" points="-4,4 -4,-73 912,-73 912,4 -4,4"/>
<!-- Node1 -->
<g id="node1" class="node"><title>Node1</title>
<polygon fill="#bfbfbf" stroke="black" points="0.5,-22 0.5,-52 167.5,-52 167.5,-22 0.5,-22"/>
<text text-anchor="start" x="8.5" y="-40" font-family="Helvetica,sans-Serif" font-size="10.00">EEPROMClass::EE_GetVariables</text>
<text text-anchor="middle" x="84" y="-29" font-family="Helvetica,sans-Serif" font-size="10.00">Count</text>
</g>
<!-- Node2 -->
<g id="node2" class="node"><title>Node2</title>
<g id="a_node2"><a xlink:href="$classEEPROMClass.html#a11daf35eb9821e9c9761533f555bb1ed" xlink:title="Return number of variable. ">
<polygon fill="white" stroke="black" points="225,-49.5 225,-68.5 341,-68.5 341,-49.5 225,-49.5"/>
<text text-anchor="middle" x="283" y="-56.5" font-family="Helvetica,sans-Serif" font-size="10.00">EEPROMClass::count</text>
</a>
</g>
</g>
<!-- Node1&#45;&gt;Node2 -->
<g id="edge1" class="edge"><title>Node1&#45;&gt;Node2</title>
<path fill="none" stroke="midnightblue" d="M177.683,-47.3504C193.801,-49.1504 210.128,-50.9737 224.929,-52.6266"/>
<polygon fill="midnightblue" stroke="midnightblue" points="178.016,-43.8659 167.689,-46.2344 177.239,-50.8227 178.016,-43.8659"/>
</g>
<!-- Node3 -->
<g id="node3" class="node"><title>Node3</title>
<g id="a_node3"><a xlink:href="$classEEPROMClass.html#a1ec32c6c58e3845274ab08e8944d2f46" xlink:title="Verify if active page is full and Writes variable in EEPROM. ">
<polygon fill="white" stroke="black" points="204,-0 204,-30 362,-30 362,-0 204,-0"/>
<text text-anchor="start" x="212" y="-18" font-family="Helvetica,sans-Serif" font-size="10.00">EEPROMClass::EE_VerifyPage</text>
<text text-anchor="middle" x="283" y="-7" font-family="Helvetica,sans-Serif" font-size="10.00">FullWriteVariable</text>
</a>
</g>
</g>
<!-- Node1&#45;&gt;Node3 -->
<g id="edge2" class="edge"><title>Node1&#45;&gt;Node3</title>
<path fill="none" stroke="midnightblue" d="M177.877,-26.6279C186.593,-25.6546 195.368,-24.6747 203.927,-23.7188"/>
<polygon fill="midnightblue" stroke="midnightblue" points="177.239,-23.1773 167.689,-27.7656 178.016,-30.1341 177.239,-23.1773"/>
</g>
<!-- Node4 -->
<g id="node4" class="node"><title>Node4</title>
<g id="a_node4"><a xlink:href="$classEEPROMClass.html#a94dfba95e7cbc16dd5cbfeb344a749c1" xlink:title="Writes/upadtes variable data in EEPROM. ">
<polygon fill="white" stroke="black" points="398.5,-5.5 398.5,-24.5 511.5,-24.5 511.5,-5.5 398.5,-5.5"/>
<text text-anchor="middle" x="455" y="-12.5" font-family="Helvetica,sans-Serif" font-size="10.00">EEPROMClass::write</text>
</a>
</g>
</g>
<!-- Node3&#45;&gt;Node4 -->
<g id="edge3" class="edge"><title>Node3&#45;&gt;Node4</title>
<path fill="none" stroke="midnightblue" d="M372.081,-15C380.981,-15 389.836,-15 398.255,-15"/>
<polygon fill="midnightblue" stroke="midnightblue" points="372.034,-11.5001 362.034,-15 372.034,-18.5001 372.034,-11.5001"/>
</g>
<!-- Node5 -->
<g id="node5" class="node"><title>Node5</title>
<g id="a_node5"><a xlink:href="$classAP__HAL__FLYMAPLE__NS_1_1FLYMAPLEStorage.html#a0aa3116d7a310753eea45c784330aa37" xlink:title="AP_HAL_FLYMAPLE_NS\l::FLYMAPLEStorage::write_byte">
<polygon fill="white" stroke="black" points="548.5,-0 548.5,-30 707.5,-30 707.5,-0 548.5,-0"/>
<text text-anchor="start" x="556.5" y="-18" font-family="Helvetica,sans-Serif" font-size="10.00">AP_HAL_FLYMAPLE_NS</text>
<text text-anchor="middle" x="628" y="-7" font-family="Helvetica,sans-Serif" font-size="10.00">::FLYMAPLEStorage::write_byte</text>
</a>
</g>
</g>
<!-- Node4&#45;&gt;Node5 -->
<g id="edge4" class="edge"><title>Node4&#45;&gt;Node5</title>
<path fill="none" stroke="midnightblue" d="M521.658,-15C530.431,-15 539.499,-15 548.465,-15"/>
<polygon fill="midnightblue" stroke="midnightblue" points="521.519,-11.5001 511.519,-15 521.519,-18.5001 521.519,-11.5001"/>
</g>
<!-- Node6 -->
<g id="node6" class="node"><title>Node6</title>
<g id="a_node6"><a xlink:href="$classAP__HAL__FLYMAPLE__NS_1_1FLYMAPLEStorage.html#a3cebced9065ea52b7c7684aed8f3435b" xlink:title="AP_HAL_FLYMAPLE_NS\l::FLYMAPLEStorage::write_block">
<polygon fill="white" stroke="black" points="744,-0 744,-30 908,-30 908,-0 744,-0"/>
<text text-anchor="start" x="752" y="-18" font-family="Helvetica,sans-Serif" font-size="10.00">AP_HAL_FLYMAPLE_NS</text>
<text text-anchor="middle" x="826" y="-7" font-family="Helvetica,sans-Serif" font-size="10.00">::FLYMAPLEStorage::write_block</text>
</a>
</g>
</g>
<!-- Node5&#45;&gt;Node6 -->
<g id="edge5" class="edge"><title>Node5&#45;&gt;Node6</title>
<path fill="none" stroke="midnightblue" d="M717.734,-15C726.427,-15 735.217,-15 743.829,-15"/>
<polygon fill="midnightblue" stroke="midnightblue" points="717.591,-11.5001 707.591,-15 717.591,-18.5001 717.591,-11.5001"/>
</g>
</g>
</svg>
