<?xml version="1.0" encoding="UTF-8" standalone="no"?>
<!DOCTYPE svg PUBLIC "-//W3C//DTD SVG 1.1//EN"
 "http://www.w3.org/Graphics/SVG/1.1/DTD/svg11.dtd">
<!-- Generated by graphviz version 2.36.0 (20140111.2315)
 -->
<!-- Title: AP_ADC_ADS7844::Ch6 Pages: 1 -->
<svg width="372pt" height="115pt"
 viewBox="0.00 0.00 372.00 115.00" xmlns="http://www.w3.org/2000/svg" xmlns:xlink="http://www.w3.org/1999/xlink">
<g id="graph0" class="graph" transform="scale(1 1) rotate(0) translate(4 111)">
<title>AP_ADC_ADS7844::Ch6</title>
<polygon fill="white" stroke="none" points="-4,4 -4,-111 368,-111 368,4 -4,4"/>
<!-- Node1 -->
<g id="node1" class="node"><title>Node1</title>
<polygon fill="#bfbfbf" stroke="black" points="0,-49.5 0,-68.5 128,-68.5 128,-49.5 0,-49.5"/>
<text text-anchor="middle" x="64" y="-56.5" font-family="Helvetica,sans-Serif" font-size="10.00">AP_ADC_ADS7844::Ch6</text>
</g>
<!-- Node2 -->
<g id="node2" class="node"><title>Node2</title>
<g id="a_node2"><a xlink:href="$AP__ADC__test_8pde.html#a73638d4c6b6727029345856e93e2ff3e" xlink:title="show_data">
<polygon fill="white" stroke="black" points="196,-87.5 196,-106.5 260,-106.5 260,-87.5 196,-87.5"/>
<text text-anchor="middle" x="228" y="-94.5" font-family="Helvetica,sans-Serif" font-size="10.00">show_data</text>
</a>
</g>
</g>
<!-- Node1&#45;&gt;Node2 -->
<g id="edge1" class="edge"><title>Node1&#45;&gt;Node2</title>
<path fill="none" stroke="midnightblue" d="M115.672,-70.886C141.93,-77.0454 173.159,-84.3706 195.849,-89.6929"/>
<polygon fill="midnightblue" stroke="midnightblue" points="116.415,-67.4653 105.879,-68.589 114.816,-74.2803 116.415,-67.4653"/>
</g>
<!-- Node4 -->
<g id="node4" class="node"><title>Node4</title>
<g id="a_node4"><a xlink:href="$AP__ADC__test_8pde.html#ab7608ee8404f6bcef359aa32473829d8" xlink:title="show_timing">
<polygon fill="white" stroke="black" points="192.5,-49.5 192.5,-68.5 263.5,-68.5 263.5,-49.5 192.5,-49.5"/>
<text text-anchor="middle" x="228" y="-56.5" font-family="Helvetica,sans-Serif" font-size="10.00">show_timing</text>
</a>
</g>
</g>
<!-- Node1&#45;&gt;Node4 -->
<g id="edge3" class="edge"><title>Node1&#45;&gt;Node4</title>
<path fill="none" stroke="midnightblue" d="M138.189,-59C157.054,-59 176.488,-59 192.349,-59"/>
<polygon fill="midnightblue" stroke="midnightblue" points="138.097,-55.5001 128.097,-59 138.097,-62.5001 138.097,-55.5001"/>
</g>
<!-- Node5 -->
<g id="node5" class="node"><title>Node5</title>
<g id="a_node5"><a xlink:href="$classAP__InertialSensor__Oilpan.html#a9ba8adc462a45a52f31c8698d48dfc93" xlink:title="AP_InertialSensor_Oilpan\l::update">
<polygon fill="white" stroke="black" points="164,-0 164,-30 292,-30 292,-0 164,-0"/>
<text text-anchor="start" x="172" y="-18" font-family="Helvetica,sans-Serif" font-size="10.00">AP_InertialSensor_Oilpan</text>
<text text-anchor="middle" x="228" y="-7" font-family="Helvetica,sans-Serif" font-size="10.00">::update</text>
</a>
</g>
</g>
<!-- Node1&#45;&gt;Node5 -->
<g id="edge5" class="edge"><title>Node1&#45;&gt;Node5</title>
<path fill="none" stroke="midnightblue" d="M109.803,-46.8313C128.907,-41.6426 151.392,-35.5354 171.532,-30.0654"/>
<polygon fill="midnightblue" stroke="midnightblue" points="108.885,-43.4539 100.152,-49.4527 110.719,-50.2091 108.885,-43.4539"/>
</g>
<!-- Node3 -->
<g id="node3" class="node"><title>Node3</title>
<g id="a_node3"><a xlink:href="$AP__ADC__test_8pde.html#afe461d27b9c48d5921c00d521181f12f" xlink:title="loop">
<polygon fill="white" stroke="black" points="328.5,-68.5 328.5,-87.5 363.5,-87.5 363.5,-68.5 328.5,-68.5"/>
<text text-anchor="middle" x="346" y="-75.5" font-family="Helvetica,sans-Serif" font-size="10.00">loop</text>
</a>
</g>
</g>
<!-- Node2&#45;&gt;Node3 -->
<g id="edge2" class="edge"><title>Node2&#45;&gt;Node3</title>
<path fill="none" stroke="midnightblue" d="M270.206,-90.2507C290.173,-86.9803 313.046,-83.2339 328.185,-80.7542"/>
<polygon fill="midnightblue" stroke="midnightblue" points="269.389,-86.8379 260.086,-91.9083 270.52,-93.7458 269.389,-86.8379"/>
</g>
<!-- Node4&#45;&gt;Node3 -->
<g id="edge4" class="edge"><title>Node4&#45;&gt;Node3</title>
<path fill="none" stroke="midnightblue" d="M273.862,-66.3481C292.974,-69.4784 314.094,-72.9378 328.318,-75.2677"/>
<polygon fill="midnightblue" stroke="midnightblue" points="274.238,-62.8631 263.804,-64.7006 273.107,-69.7711 274.238,-62.8631"/>
</g>
</g>
</svg>
