<?xml version="1.0" encoding="UTF-8" standalone="no"?>
<!DOCTYPE svg PUBLIC "-//W3C//DTD SVG 1.1//EN"
 "http://www.w3.org/Graphics/SVG/1.1/DTD/svg11.dtd">
<!-- Generated by graphviz version 2.36.0 (20140111.2315)
 -->
<!-- Title: AP_HAL::Print::print Pages: 1 -->
<svg width="976pt" height="1036pt"
 viewBox="0.00 0.00 976.00 1036.00" xmlns="http://www.w3.org/2000/svg" xmlns:xlink="http://www.w3.org/1999/xlink">
<g id="graph0" class="graph" transform="scale(1 1) rotate(0) translate(4 1032)">
<title>AP_HAL::Print::print</title>
<polygon fill="white" stroke="none" points="-4,4 -4,-1032 972,-1032 972,4 -4,4"/>
<!-- Node1 -->
<g id="node1" class="node"><title>Node1</title>
<polygon fill="#bfbfbf" stroke="black" points="0,-894.5 0,-913.5 106,-913.5 106,-894.5 0,-894.5"/>
<text text-anchor="middle" x="53" y="-901.5" font-family="Helvetica,sans-Serif" font-size="10.00">AP_HAL::Print::print</text>
</g>
<!-- Node2 -->
<g id="node2" class="node"><title>Node2</title>
<g id="a_node2"><a xlink:href="$GCS__Console_2examples_2Console_2Console_8pde.html#af448a11a75341cbf41bde0f0e10d459a" xlink:title="console_loopback">
<polygon fill="white" stroke="black" points="495.5,-1008.5 495.5,-1027.5 590.5,-1027.5 590.5,-1008.5 495.5,-1008.5"/>
<text text-anchor="middle" x="543" y="-1015.5" font-family="Helvetica,sans-Serif" font-size="10.00">console_loopback</text>
</a>
</g>
</g>
<!-- Node1&#45;&gt;Node2 -->
<g id="edge1" class="edge"><title>Node1&#45;&gt;Node2</title>
<path fill="none" stroke="midnightblue" d="M70.8029,-920.582C87.4078,-935.886 114.28,-957.871 142,-969 262.601,-1017.42 418.779,-1021.37 495.413,-1019.89"/>
<polygon fill="midnightblue" stroke="midnightblue" points="73.185,-918.017 63.5174,-913.683 68.3719,-923.1 73.185,-918.017"/>
</g>
<!-- Node4 -->
<g id="node4" class="node"><title>Node4</title>
<g id="a_node4"><a xlink:href="$classAP__Curve.html#a4b9ae5e9b5d0b263a9966084a9a5c0b6" xlink:title="AP_Curve::dump_curve">
<polygon fill="white" stroke="black" points="482.5,-970.5 482.5,-989.5 603.5,-989.5 603.5,-970.5 482.5,-970.5"/>
<text text-anchor="middle" x="543" y="-977.5" font-family="Helvetica,sans-Serif" font-size="10.00">AP_Curve::dump_curve</text>
</a>
</g>
</g>
<!-- Node1&#45;&gt;Node4 -->
<g id="edge3" class="edge"><title>Node1&#45;&gt;Node4</title>
<path fill="none" stroke="midnightblue" d="M80.5605,-918.496C97.609,-927.106 120.505,-937.404 142,-943 259.94,-973.707 403.251,-979.732 482.339,-980.464"/>
<polygon fill="midnightblue" stroke="midnightblue" points="81.742,-915.167 71.2532,-913.671 78.5201,-921.381 81.742,-915.167"/>
</g>
<!-- Node5 -->
<g id="node5" class="node"><title>Node5</title>
<g id="a_node5"><a xlink:href="$BARO__generic_8pde.html#afe461d27b9c48d5921c00d521181f12f" xlink:title="loop">
<polygon fill="white" stroke="black" points="525.5,-932.5 525.5,-951.5 560.5,-951.5 560.5,-932.5 525.5,-932.5"/>
<text text-anchor="middle" x="543" y="-939.5" font-family="Helvetica,sans-Serif" font-size="10.00">loop</text>
</a>
</g>
</g>
<!-- Node1&#45;&gt;Node5 -->
<g id="edge4" class="edge"><title>Node1&#45;&gt;Node5</title>
<path fill="none" stroke="midnightblue" d="M101.218,-915.696C114.347,-918.537 128.662,-921.256 142,-923 289.522,-942.295 469.922,-942.608 525.145,-942.192"/>
<polygon fill="midnightblue" stroke="midnightblue" points="101.968,-912.277 91.446,-913.513 100.443,-919.109 101.968,-912.277"/>
</g>
<!-- Node6 -->
<g id="node6" class="node"><title>Node6</title>
<g id="a_node6"><a xlink:href="$classAP__HAL_1_1Print.html#a5f9a46d0cc4d692bb0519641d632221a" xlink:title="AP_HAL::Print::print">
<polygon fill="white" stroke="black" points="153,-856.5 153,-875.5 259,-875.5 259,-856.5 153,-856.5"/>
<text text-anchor="middle" x="206" y="-863.5" font-family="Helvetica,sans-Serif" font-size="10.00">AP_HAL::Print::print</text>
</a>
</g>
</g>
<!-- Node1&#45;&gt;Node6 -->
<g id="edge5" class="edge"><title>Node1&#45;&gt;Node6</title>
<path fill="none" stroke="midnightblue" d="M101.843,-891.96C122.939,-886.651 147.377,-880.501 167.17,-875.52"/>
<polygon fill="midnightblue" stroke="midnightblue" points="100.947,-888.576 92.1037,-894.411 102.656,-895.365 100.947,-888.576"/>
</g>
<!-- Node7 -->
<g id="node7" class="node"><title>Node7</title>
<g id="a_node7"><a xlink:href="$classAP__HAL_1_1Print.html#af547d3e98cf84fc6c877a977d39f297a" xlink:title="AP_HAL::Print::printFloat">
<polygon fill="white" stroke="black" points="142,-818.5 142,-837.5 270,-837.5 270,-818.5 142,-818.5"/>
<text text-anchor="middle" x="206" y="-825.5" font-family="Helvetica,sans-Serif" font-size="10.00">AP_HAL::Print::printFloat</text>
</a>
</g>
</g>
<!-- Node1&#45;&gt;Node7 -->
<g id="edge6" class="edge"><title>Node1&#45;&gt;Node7</title>
<path fill="none" stroke="midnightblue" d="M74.6598,-888.216C91.9037,-875.646 117.527,-858.338 142,-847 149.878,-843.35 158.631,-840.193 167.045,-837.558"/>
<polygon fill="midnightblue" stroke="midnightblue" points="72.4035,-885.531 66.4567,-894.3 76.5736,-891.154 72.4035,-885.531"/>
</g>
<!-- Node9 -->
<g id="node9" class="node"><title>Node9</title>
<g id="a_node9"><a xlink:href="$classAP__HAL_1_1Print.html#a169b128f9e22f0c15883768f580541a2" xlink:title="AP_HAL::Print::println">
<polygon fill="white" stroke="black" points="149.5,-894.5 149.5,-913.5 262.5,-913.5 262.5,-894.5 149.5,-894.5"/>
<text text-anchor="middle" x="206" y="-901.5" font-family="Helvetica,sans-Serif" font-size="10.00">AP_HAL::Print::println</text>
</a>
</g>
</g>
<!-- Node1&#45;&gt;Node9 -->
<g id="edge8" class="edge"><title>Node1&#45;&gt;Node9</title>
<path fill="none" stroke="midnightblue" d="M116.649,-904C127.499,-904 138.714,-904 149.362,-904"/>
<polygon fill="midnightblue" stroke="midnightblue" points="116.389,-900.5 106.389,-904 116.389,-907.5 116.389,-900.5"/>
</g>
<!-- Node51 -->
<g id="node51" class="node"><title>Node51</title>
<g id="a_node51"><a xlink:href="$AP__Declination__test_8pde.html#a7dfd9b79bc5a37d7df40207afbc5431f" xlink:title="setup">
<polygon fill="white" stroke="black" points="185.5,-780.5 185.5,-799.5 226.5,-799.5 226.5,-780.5 185.5,-780.5"/>
<text text-anchor="middle" x="206" y="-787.5" font-family="Helvetica,sans-Serif" font-size="10.00">setup</text>
</a>
</g>
</g>
<!-- Node1&#45;&gt;Node51 -->
<g id="edge60" class="edge"><title>Node1&#45;&gt;Node51</title>
<path fill="none" stroke="midnightblue" d="M65.9781,-886.13C81.2071,-864.755 109.464,-829.32 142,-809 155.275,-800.709 172.384,-795.851 185.422,-793.125"/>
<polygon fill="midnightblue" stroke="midnightblue" points="63.1028,-884.134 60.2747,-894.344 68.8528,-888.126 63.1028,-884.134"/>
</g>
<!-- Node3 -->
<g id="node3" class="node"><title>Node3</title>
<g id="a_node3"><a xlink:href="$GCS__Console_2examples_2Console_2Console_8pde.html#a0b33edabd7f1c4e4a0bf32c67269be2f" xlink:title="loop">
<polygon fill="white" stroke="black" points="721.5,-1008.5 721.5,-1027.5 756.5,-1027.5 756.5,-1008.5 721.5,-1008.5"/>
<text text-anchor="middle" x="739" y="-1015.5" font-family="Helvetica,sans-Serif" font-size="10.00">loop</text>
</a>
</g>
</g>
<!-- Node2&#45;&gt;Node3 -->
<g id="edge2" class="edge"><title>Node2&#45;&gt;Node3</title>
<path fill="none" stroke="midnightblue" d="M601.139,-1018C642.24,-1018 694.899,-1018 721.313,-1018"/>
<polygon fill="midnightblue" stroke="midnightblue" points="600.962,-1014.5 590.962,-1018 600.962,-1021.5 600.962,-1014.5"/>
</g>
<!-- Node8 -->
<g id="node8" class="node"><title>Node8</title>
<g id="a_node8"><a xlink:href="$classAP__HAL_1_1Print.html#a0b8af81c6416ef2ace3aa9c67f1df3ee" xlink:title="AP_HAL::Print::print">
<polygon fill="white" stroke="black" points="310,-509.5 310,-528.5 416,-528.5 416,-509.5 310,-509.5"/>
<text text-anchor="middle" x="363" y="-516.5" font-family="Helvetica,sans-Serif" font-size="10.00">AP_HAL::Print::print</text>
</a>
</g>
</g>
<!-- Node7&#45;&gt;Node8 -->
<g id="edge7" class="edge"><title>Node7&#45;&gt;Node8</title>
<path fill="none" stroke="midnightblue" d="M266.74,-812.372C267.892,-811.319 268.982,-810.196 270,-809 348.736,-716.46 228.858,-631.872 306,-538 309.194,-534.113 313.217,-531.019 317.634,-528.555"/>
<polygon fill="midnightblue" stroke="midnightblue" points="264.454,-809.704 258.355,-818.367 268.525,-815.398 264.454,-809.704"/>
</g>
<!-- Node10 -->
<g id="node10" class="node"><title>Node10</title>
<g id="a_node10"><a xlink:href="$classAP__HAL_1_1Print.html#ad337ce3f7977411b7d34d47a51e5737e" xlink:title="AP_HAL::Print::println">
<polygon fill="white" stroke="black" points="306.5,-547.5 306.5,-566.5 419.5,-566.5 419.5,-547.5 306.5,-547.5"/>
<text text-anchor="middle" x="363" y="-554.5" font-family="Helvetica,sans-Serif" font-size="10.00">AP_HAL::Print::println</text>
</a>
</g>
</g>
<!-- Node9&#45;&gt;Node10 -->
<g id="edge9" class="edge"><title>Node9&#45;&gt;Node10</title>
<path fill="none" stroke="midnightblue" d="M265.478,-888.997C267.076,-887.767 268.59,-886.438 270,-885 362.761,-790.417 363.628,-610.229 362.395,-566.66"/>
<polygon fill="midnightblue" stroke="midnightblue" points="263.525,-886.09 256.892,-894.351 267.229,-892.03 263.525,-886.09"/>
</g>
<!-- Node10&#45;&gt;Node2 -->
<g id="edge20" class="edge"><title>Node10&#45;&gt;Node2</title>
<path fill="none" stroke="midnightblue" d="M365.337,-576.916C370.971,-654.817 395.354,-937.608 456,-999 466.316,-1009.44 480.989,-1014.73 495.3,-1017.25"/>
<polygon fill="midnightblue" stroke="midnightblue" points="368.804,-576.328 364.615,-566.597 361.821,-576.816 368.804,-576.328"/>
</g>
<!-- Node10&#45;&gt;Node4 -->
<g id="edge19" class="edge"><title>Node10&#45;&gt;Node4</title>
<path fill="none" stroke="midnightblue" d="M365.772,-577.083C372.691,-650.882 400.296,-905.655 456,-961 463.267,-968.221 472.622,-972.963 482.472,-976.03"/>
<polygon fill="midnightblue" stroke="midnightblue" points="369.233,-576.491 364.838,-566.851 362.262,-577.128 369.233,-576.491"/>
</g>
<!-- Node10&#45;&gt;Node5 -->
<g id="edge18" class="edge"><title>Node10&#45;&gt;Node5</title>
<path fill="none" stroke="midnightblue" d="M366.265,-576.944C374.509,-646.03 405.137,-873.583 456,-923 474.534,-941.007 506.077,-943.52 525.375,-943.147"/>
<polygon fill="midnightblue" stroke="midnightblue" points="369.694,-576.137 365.059,-566.61 362.741,-576.949 369.694,-576.137"/>
</g>
<!-- Node11 -->
<g id="node11" class="node"><title>Node11</title>
<g id="a_node11"><a xlink:href="$AC__PID__test_8pde.html#a4fc01d736fe50cf5b977f755b675f11d" xlink:title="setup">
<polygon fill="white" stroke="black" points="522.5,-806.5 522.5,-825.5 563.5,-825.5 563.5,-806.5 522.5,-806.5"/>
<text text-anchor="middle" x="543" y="-813.5" font-family="Helvetica,sans-Serif" font-size="10.00">setup</text>
</a>
</g>
</g>
<!-- Node10&#45;&gt;Node11 -->
<g id="edge10" class="edge"><title>Node10&#45;&gt;Node11</title>
<path fill="none" stroke="midnightblue" d="M365.445,-576.753C369.927,-622.877 387.743,-738.202 456,-797 474.42,-812.867 503.134,-816.354 522.249,-816.718"/>
<polygon fill="midnightblue" stroke="midnightblue" points="368.915,-576.257 364.57,-566.594 361.941,-576.858 368.915,-576.257"/>
</g>
<!-- Node14 -->
<g id="node14" class="node"><title>Node14</title>
<g id="a_node14"><a xlink:href="$AP__ADC__test_8pde.html#ab7608ee8404f6bcef359aa32473829d8" xlink:title="show_timing">
<polygon fill="white" stroke="black" points="507.5,-692.5 507.5,-711.5 578.5,-711.5 578.5,-692.5 507.5,-692.5"/>
<text text-anchor="middle" x="543" y="-699.5" font-family="Helvetica,sans-Serif" font-size="10.00">show_timing</text>
</a>
</g>
</g>
<!-- Node10&#45;&gt;Node14 -->
<g id="edge13" class="edge"><title>Node10&#45;&gt;Node14</title>
<path fill="none" stroke="midnightblue" d="M372.342,-575.883C385.743,-603.906 414.804,-656.082 456,-683 471.104,-692.869 490.556,-697.677 507.139,-699.993"/>
<polygon fill="midnightblue" stroke="midnightblue" points="375.491,-574.354 368.12,-566.743 369.136,-577.289 375.491,-574.354"/>
</g>
<!-- Node16 -->
<g id="node16" class="node"><title>Node16</title>
<g id="a_node16"><a xlink:href="$classAP__Airspeed__PX4.html#a0adbea999d3007107b1949ba08cb38d1" xlink:title="AP_Airspeed_PX4::init">
<polygon fill="white" stroke="black" points="485,-654.5 485,-673.5 601,-673.5 601,-654.5 485,-654.5"/>
<text text-anchor="middle" x="543" y="-661.5" font-family="Helvetica,sans-Serif" font-size="10.00">AP_Airspeed_PX4::init</text>
</a>
</g>
</g>
<!-- Node10&#45;&gt;Node16 -->
<g id="edge15" class="edge"><title>Node10&#45;&gt;Node16</title>
<path fill="none" stroke="midnightblue" d="M377.571,-574.534C393.97,-594.47 423.443,-626.509 456,-644 464.912,-648.788 474.946,-652.437 484.929,-655.215"/>
<polygon fill="midnightblue" stroke="midnightblue" points="380.168,-572.178 371.182,-566.565 374.707,-576.557 380.168,-572.178"/>
</g>
<!-- Node19 -->
<g id="node19" class="node"><title>Node19</title>
<g id="a_node19"><a xlink:href="$classPX4_1_1PX4AnalogIn.html#ac252f6f4970cdbd7cd6b575dca155297" xlink:title="PX4::PX4AnalogIn::channel">
<polygon fill="white" stroke="black" points="474,-414.5 474,-433.5 612,-433.5 612,-414.5 474,-414.5"/>
<text text-anchor="middle" x="543" y="-421.5" font-family="Helvetica,sans-Serif" font-size="10.00">PX4::PX4AnalogIn::channel</text>
</a>
</g>
</g>
<!-- Node10&#45;&gt;Node19 -->
<g id="edge21" class="edge"><title>Node10&#45;&gt;Node19</title>
<path fill="none" stroke="midnightblue" d="M414.773,-542.318C416.626,-541 418.38,-539.564 420,-538 452.483,-506.638 421.847,-472.534 456,-443 461.205,-438.499 467.237,-434.994 473.645,-432.273"/>
<polygon fill="midnightblue" stroke="midnightblue" points="412.993,-539.304 406.126,-547.372 416.526,-545.347 412.993,-539.304"/>
</g>
<!-- Node20 -->
<g id="node20" class="node"><title>Node20</title>
<g id="a_node20"><a xlink:href="$classVRBRAIN_1_1VRBRAINAnalogIn.html#a1e0366bff05cbc5c1e4abae5b9d849c0" xlink:title="VRBRAIN::VRBRAINAnalogIn\l::channel">
<polygon fill="white" stroke="black" points="467,-365 467,-395 619,-395 619,-365 467,-365"/>
<text text-anchor="start" x="475" y="-383" font-family="Helvetica,sans-Serif" font-size="10.00">VRBRAIN::VRBRAINAnalogIn</text>
<text text-anchor="middle" x="543" y="-372" font-family="Helvetica,sans-Serif" font-size="10.00">::channel</text>
</a>
</g>
</g>
<!-- Node10&#45;&gt;Node20 -->
<g id="edge22" class="edge"><title>Node10&#45;&gt;Node20</title>
<path fill="none" stroke="midnightblue" d="M415.566,-542.05C417.143,-540.807 418.629,-539.459 420,-538 461.922,-493.361 413.102,-448.702 456,-405 459.812,-401.116 464.19,-397.827 468.906,-395.043"/>
<polygon fill="midnightblue" stroke="midnightblue" points="413.62,-539.139 407.045,-547.447 417.366,-545.053 413.62,-539.139"/>
</g>
<!-- Node21 -->
<g id="node21" class="node"><title>Node21</title>
<g id="a_node21"><a xlink:href="$classNavioAnalogIn.html#a722a513cc6f405183b1a9896490e6bb0" xlink:title="NavioAnalogIn::channel">
<polygon fill="white" stroke="black" points="483,-326.5 483,-345.5 603,-345.5 603,-326.5 483,-326.5"/>
<text text-anchor="middle" x="543" y="-333.5" font-family="Helvetica,sans-Serif" font-size="10.00">NavioAnalogIn::channel</text>
</a>
</g>
</g>
<!-- Node10&#45;&gt;Node21 -->
<g id="edge23" class="edge"><title>Node10&#45;&gt;Node21</title>
<path fill="none" stroke="midnightblue" d="M416.243,-541.712C417.579,-540.563 418.838,-539.328 420,-538 474.594,-475.625 398.07,-414.289 456,-355 463.266,-347.563 472.74,-342.736 482.737,-339.658"/>
<polygon fill="midnightblue" stroke="midnightblue" points="414.172,-538.887 407.858,-547.395 418.1,-544.681 414.172,-538.887"/>
</g>
<!-- Node22 -->
<g id="node22" class="node"><title>Node22</title>
<g id="a_node22"><a xlink:href="$classLinux_1_1LinuxStorage__FRAM.html#a4f5c65dff23063e62595c01a997af52c" xlink:title="Linux::LinuxStorage\l_FRAM::_storage_create">
<polygon fill="white" stroke="black" points="676,-521 676,-551 802,-551 802,-521 676,-521"/>
<text text-anchor="start" x="684" y="-539" font-family="Helvetica,sans-Serif" font-size="10.00">Linux::LinuxStorage</text>
<text text-anchor="middle" x="739" y="-528" font-family="Helvetica,sans-Serif" font-size="10.00">_FRAM::_storage_create</text>
</a>
</g>
</g>
<!-- Node10&#45;&gt;Node22 -->
<g id="edge24" class="edge"><title>Node10&#45;&gt;Node22</title>
<path fill="none" stroke="midnightblue" d="M429.963,-553.296C499.408,-549.397 607.9,-543.305 675.867,-539.489"/>
<polygon fill="midnightblue" stroke="midnightblue" points="429.376,-549.824 419.588,-553.879 429.768,-556.813 429.376,-549.824"/>
</g>
<!-- Node24 -->
<g id="node24" class="node"><title>Node24</title>
<g id="a_node24"><a xlink:href="$classLinux_1_1LinuxStorage__FRAM.html#abe5495ebecf6180c5865f33e9b0de113" xlink:title="Linux::LinuxStorage\l_FRAM::open">
<polygon fill="white" stroke="black" points="491.5,-605 491.5,-635 594.5,-635 594.5,-605 491.5,-605"/>
<text text-anchor="start" x="499.5" y="-623" font-family="Helvetica,sans-Serif" font-size="10.00">Linux::LinuxStorage</text>
<text text-anchor="middle" x="543" y="-612" font-family="Helvetica,sans-Serif" font-size="10.00">_FRAM::open</text>
</a>
</g>
</g>
<!-- Node10&#45;&gt;Node24 -->
<g id="edge26" class="edge"><title>Node10&#45;&gt;Node24</title>
<path fill="none" stroke="midnightblue" d="M394.593,-570.617C412.34,-578.268 435.223,-587.714 456,-595 467.298,-598.962 479.58,-602.803 491.231,-606.236"/>
<polygon fill="midnightblue" stroke="midnightblue" points="395.874,-567.357 385.308,-566.576 393.08,-573.776 395.874,-567.357"/>
</g>
<!-- Node26 -->
<g id="node26" class="node"><title>Node26</title>
<g id="a_node26"><a xlink:href="$classAP__InertialSensor.html#a8744303832541bef0025d9698468938c" xlink:title="AP_InertialSensor::\l_init_gyro">
<polygon fill="white" stroke="black" points="492.5,-49 492.5,-79 593.5,-79 593.5,-49 492.5,-49"/>
<text text-anchor="start" x="500.5" y="-67" font-family="Helvetica,sans-Serif" font-size="10.00">AP_InertialSensor::</text>
<text text-anchor="middle" x="543" y="-56" font-family="Helvetica,sans-Serif" font-size="10.00">_init_gyro</text>
</a>
</g>
</g>
<!-- Node10&#45;&gt;Node26 -->
<g id="edge30" class="edge"><title>Node10&#45;&gt;Node26</title>
<path fill="none" stroke="midnightblue" d="M416.929,-541.418C418.026,-540.353 419.054,-539.215 420,-538 481.518,-459.037 392.752,-166.584 456,-89 465.039,-77.9127 478.688,-71.5656 492.466,-67.9836"/>
<polygon fill="midnightblue" stroke="midnightblue" points="414.76,-538.67 408.834,-547.452 418.943,-544.282 414.76,-538.67"/>
</g>
<!-- Node30 -->
<g id="node30" class="node"><title>Node30</title>
<g id="a_node30"><a xlink:href="$classAP__InertialSensor__LSM9DS0.html#a585d82b5f469728d27649891607a7567" xlink:title="AP_InertialSensor_LSM9DS0\l::_dump_registers">
<polygon fill="white" stroke="black" points="470,-0 470,-30 616,-30 616,-0 470,-0"/>
<text text-anchor="start" x="478" y="-18" font-family="Helvetica,sans-Serif" font-size="10.00">AP_InertialSensor_LSM9DS0</text>
<text text-anchor="middle" x="543" y="-7" font-family="Helvetica,sans-Serif" font-size="10.00">::_dump_registers</text>
</a>
</g>
</g>
<!-- Node10&#45;&gt;Node30 -->
<g id="edge34" class="edge"><title>Node10&#45;&gt;Node30</title>
<path fill="none" stroke="midnightblue" d="M416.942,-541.428C418.035,-540.36 419.058,-539.219 420,-538 487.976,-450.025 385.632,-125.074 456,-39 459.826,-34.3196 464.483,-30.5083 469.628,-27.4098"/>
<polygon fill="midnightblue" stroke="midnightblue" points="414.772,-538.681 408.865,-547.476 418.967,-544.284 414.772,-538.681"/>
</g>
<!-- Node32 -->
<g id="node32" class="node"><title>Node32</title>
<g id="a_node32"><a xlink:href="$eulers_8pde.html#aceb2646dd2a8910fd27813e20e13c6a4" xlink:title="test_matrix_eulers">
<polygon fill="white" stroke="black" points="494.5,-288.5 494.5,-307.5 591.5,-307.5 591.5,-288.5 494.5,-288.5"/>
<text text-anchor="middle" x="543" y="-295.5" font-family="Helvetica,sans-Serif" font-size="10.00">test_matrix_eulers</text>
</a>
</g>
</g>
<!-- Node10&#45;&gt;Node32 -->
<g id="edge36" class="edge"><title>Node10&#45;&gt;Node32</title>
<path fill="none" stroke="midnightblue" d="M416.729,-541.377C417.889,-540.324 418.984,-539.2 420,-538 484.307,-462.051 387.627,-389.31 456,-317 465.875,-306.556 480.093,-301.22 494.134,-298.65"/>
<polygon fill="midnightblue" stroke="midnightblue" points="414.41,-538.73 408.254,-547.352 418.444,-544.451 414.41,-538.73"/>
</g>
<!-- Node34 -->
<g id="node34" class="node"><title>Node34</title>
<g id="a_node34"><a xlink:href="$eulers_8pde.html#a1e4ca41feae51e8f6dc923cde8d1ad39" xlink:title="test_quaternion_eulers">
<polygon fill="white" stroke="black" points="485.5,-490.5 485.5,-509.5 600.5,-509.5 600.5,-490.5 485.5,-490.5"/>
<text text-anchor="middle" x="543" y="-497.5" font-family="Helvetica,sans-Serif" font-size="10.00">test_quaternion_eulers</text>
</a>
</g>
</g>
<!-- Node10&#45;&gt;Node34 -->
<g id="edge38" class="edge"><title>Node10&#45;&gt;Node34</title>
<path fill="none" stroke="midnightblue" d="M402.547,-544.169C408.409,-542.146 414.376,-540.047 420,-538 436.132,-532.13 439.712,-529.425 456,-524 471.736,-518.759 489.342,-513.706 504.505,-509.6"/>
<polygon fill="midnightblue" stroke="midnightblue" points="401.193,-540.933 392.861,-547.477 403.456,-547.557 401.193,-540.933"/>
</g>
<!-- Node35 -->
<g id="node35" class="node"><title>Node35</title>
<g id="a_node35"><a xlink:href="$eulers_8pde.html#ac5851b63c32809e725e1fadbec137224" xlink:title="test_conversions">
<polygon fill="white" stroke="black" points="497.5,-250.5 497.5,-269.5 588.5,-269.5 588.5,-250.5 497.5,-250.5"/>
<text text-anchor="middle" x="543" y="-257.5" font-family="Helvetica,sans-Serif" font-size="10.00">test_conversions</text>
</a>
</g>
</g>
<!-- Node10&#45;&gt;Node35 -->
<g id="edge40" class="edge"><title>Node10&#45;&gt;Node35</title>
<path fill="none" stroke="midnightblue" d="M416.766,-541.409C417.916,-540.346 418.998,-539.212 420,-538 494.058,-448.434 377.145,-364.372 456,-279 466.479,-267.655 482.075,-262.305 497.12,-259.985"/>
<polygon fill="midnightblue" stroke="midnightblue" points="414.445,-538.765 408.343,-547.426 418.514,-544.461 414.445,-538.765"/>
</g>
<!-- Node36 -->
<g id="node36" class="node"><title>Node36</title>
<g id="a_node36"><a xlink:href="$eulers_8pde.html#a97831e3cea863b581f8e989164514a25" xlink:title="test_frame_transforms">
<polygon fill="white" stroke="black" points="485.5,-452.5 485.5,-471.5 600.5,-471.5 600.5,-452.5 485.5,-452.5"/>
<text text-anchor="middle" x="543" y="-459.5" font-family="Helvetica,sans-Serif" font-size="10.00">test_frame_transforms</text>
</a>
</g>
</g>
<!-- Node10&#45;&gt;Node36 -->
<g id="edge42" class="edge"><title>Node10&#45;&gt;Node36</title>
<path fill="none" stroke="midnightblue" d="M412.601,-542.959C415.205,-541.465 417.694,-539.817 420,-538 443.536,-519.457 431.483,-498.225 456,-481 464.633,-474.935 474.86,-470.759 485.194,-467.894"/>
<polygon fill="midnightblue" stroke="midnightblue" points="410.849,-539.92 403.414,-547.468 413.933,-546.204 410.849,-539.92"/>
</g>
<!-- Node37 -->
<g id="node37" class="node"><title>Node37</title>
<g id="a_node37"><a xlink:href="$location_8pde.html#aff2387ea872bdd079c8de9005c934319" xlink:title="test_passed_waypoint">
<polygon fill="white" stroke="black" points="486,-894.5 486,-913.5 600,-913.5 600,-894.5 486,-894.5"/>
<text text-anchor="middle" x="543" y="-901.5" font-family="Helvetica,sans-Serif" font-size="10.00">test_passed_waypoint</text>
</a>
</g>
</g>
<!-- Node10&#45;&gt;Node37 -->
<g id="edge44" class="edge"><title>Node10&#45;&gt;Node37</title>
<path fill="none" stroke="midnightblue" d="M363.162,-576.949C361.928,-633.902 366.633,-798.631 456,-884 464.202,-891.835 474.849,-896.812 485.841,-899.928"/>
<polygon fill="midnightblue" stroke="midnightblue" points="366.665,-576.877 363.475,-566.773 359.669,-576.661 366.665,-576.877"/>
</g>
<!-- Node39 -->
<g id="node39" class="node"><title>Node39</title>
<g id="a_node39"><a xlink:href="$rotations_8pde.html#a03c7c1e3aa9eaccd37b442995438a8b8" xlink:title="test_eulers">
<polygon fill="white" stroke="black" points="510.5,-212.5 510.5,-231.5 575.5,-231.5 575.5,-212.5 510.5,-212.5"/>
<text text-anchor="middle" x="543" y="-219.5" font-family="Helvetica,sans-Serif" font-size="10.00">test_eulers</text>
</a>
</g>
</g>
<!-- Node10&#45;&gt;Node39 -->
<g id="edge46" class="edge"><title>Node10&#45;&gt;Node39</title>
<path fill="none" stroke="midnightblue" d="M416.795,-541.432C417.936,-540.363 419.009,-539.22 420,-538 503.831,-434.79 366.638,-339.461 456,-241 469.462,-226.167 491.666,-221.54 510.14,-220.557"/>
<polygon fill="midnightblue" stroke="midnightblue" points="414.471,-538.792 408.409,-547.481 418.567,-544.469 414.471,-538.792"/>
</g>
<!-- Node41 -->
<g id="node41" class="node"><title>Node41</title>
<g id="a_node41"><a xlink:href="$rotations_8pde.html#a1452d16c339066eafa4bf6ad001b7695" xlink:title="missing_rotations">
<polygon fill="white" stroke="black" points="496.5,-174.5 496.5,-193.5 589.5,-193.5 589.5,-174.5 496.5,-174.5"/>
<text text-anchor="middle" x="543" y="-181.5" font-family="Helvetica,sans-Serif" font-size="10.00">missing_rotations</text>
</a>
</g>
</g>
<!-- Node10&#45;&gt;Node41 -->
<g id="edge48" class="edge"><title>Node10&#45;&gt;Node41</title>
<path fill="none" stroke="midnightblue" d="M416.886,-541.384C417.995,-540.328 419.037,-539.202 420,-538 513.62,-421.127 356.116,-314.566 456,-203 466.199,-191.608 481.553,-186.217 496.478,-183.877"/>
<polygon fill="midnightblue" stroke="midnightblue" points="414.72,-538.632 408.73,-547.371 418.863,-544.274 414.72,-538.632"/>
</g>
<!-- Node42 -->
<g id="node42" class="node"><title>Node42</title>
<g id="a_node42"><a xlink:href="$menu_8pde.html#a1026e9aaa54d1bacd7d38f9840a04734" xlink:title="menu_test">
<polygon fill="white" stroke="black" points="512,-768.5 512,-787.5 574,-787.5 574,-768.5 512,-768.5"/>
<text text-anchor="middle" x="543" y="-775.5" font-family="Helvetica,sans-Serif" font-size="10.00">menu_test</text>
</a>
</g>
</g>
<!-- Node10&#45;&gt;Node42 -->
<g id="edge50" class="edge"><title>Node10&#45;&gt;Node42</title>
<path fill="none" stroke="midnightblue" d="M367.058,-576.929C374.43,-617.819 397.134,-711.355 456,-759 471.57,-771.602 493.725,-776.282 511.648,-777.847"/>
<polygon fill="midnightblue" stroke="midnightblue" points="370.477,-576.155 365.368,-566.873 363.574,-577.315 370.477,-576.155"/>
</g>
<!-- Node43 -->
<g id="node43" class="node"><title>Node43</title>
<g id="a_node43"><a xlink:href="$menu_8pde.html#aafd20eb89d3e6632a4e7723e384806fc" xlink:title="menu_auto">
<polygon fill="white" stroke="black" points="510.5,-730.5 510.5,-749.5 575.5,-749.5 575.5,-730.5 510.5,-730.5"/>
<text text-anchor="middle" x="543" y="-737.5" font-family="Helvetica,sans-Serif" font-size="10.00">menu_auto</text>
</a>
</g>
</g>
<!-- Node10&#45;&gt;Node43 -->
<g id="edge51" class="edge"><title>Node10&#45;&gt;Node43</title>
<path fill="none" stroke="midnightblue" d="M369.196,-576.493C379.53,-611.299 406.089,-683.955 456,-721 471.593,-732.574 492.881,-737.34 510.375,-739.205"/>
<polygon fill="midnightblue" stroke="midnightblue" points="372.491,-575.285 366.401,-566.615 365.756,-577.19 372.491,-575.285"/>
</g>
<!-- Node44 -->
<g id="node44" class="node"><title>Node44</title>
<g id="a_node44"><a xlink:href="$AP__Motors__test_8pde.html#a57a49546fb6c5b2c9b423caa333e82b1" xlink:title="motor_order_test">
<polygon fill="white" stroke="black" points="498,-98.5 498,-117.5 588,-117.5 588,-98.5 498,-98.5"/>
<text text-anchor="middle" x="543" y="-105.5" font-family="Helvetica,sans-Serif" font-size="10.00">motor_order_test</text>
</a>
</g>
</g>
<!-- Node10&#45;&gt;Node44 -->
<g id="edge52" class="edge"><title>Node10&#45;&gt;Node44</title>
<path fill="none" stroke="midnightblue" d="M416.918,-541.409C418.017,-540.346 419.049,-539.211 420,-538 476.612,-465.883 395.521,-195.906 456,-127 466.389,-115.163 482.34,-109.776 497.695,-107.564"/>
<polygon fill="midnightblue" stroke="midnightblue" points="414.749,-538.659 408.806,-547.43 418.921,-544.28 414.749,-538.659"/>
</g>
<!-- Node46 -->
<g id="node46" class="node"><title>Node46</title>
<g id="a_node46"><a xlink:href="$AP__Motors__test_8pde.html#a7f47bb79f883994514efee9d8de3ec0c" xlink:title="stability_test">
<polygon fill="white" stroke="black" points="507,-136.5 507,-155.5 579,-155.5 579,-136.5 507,-136.5"/>
<text text-anchor="middle" x="543" y="-143.5" font-family="Helvetica,sans-Serif" font-size="10.00">stability_test</text>
</a>
</g>
</g>
<!-- Node10&#45;&gt;Node46 -->
<g id="edge54" class="edge"><title>Node10&#45;&gt;Node46</title>
<path fill="none" stroke="midnightblue" d="M416.903,-541.397C418.007,-540.338 419.044,-539.207 420,-538 471.709,-472.726 400.791,-227.342 456,-165 468.469,-150.92 488.809,-145.984 506.578,-144.655"/>
<polygon fill="midnightblue" stroke="midnightblue" points="414.736,-538.647 408.772,-547.404 418.895,-544.278 414.736,-538.647"/>
</g>
<!-- Node47 -->
<g id="node47" class="node"><title>Node47</title>
<g id="a_node47"><a xlink:href="$classDataFlash__Class.html#a0fcc2b2770dd013c11d54745b661f633" xlink:title="DataFlash_Class::_print\l_log_entry">
<polygon fill="white" stroke="black" points="482,-845 482,-875 604,-875 604,-845 482,-845"/>
<text text-anchor="start" x="490" y="-863" font-family="Helvetica,sans-Serif" font-size="10.00">DataFlash_Class::_print</text>
<text text-anchor="middle" x="543" y="-852" font-family="Helvetica,sans-Serif" font-size="10.00">_log_entry</text>
</a>
</g>
</g>
<!-- Node10&#45;&gt;Node47 -->
<g id="edge56" class="edge"><title>Node10&#45;&gt;Node47</title>
<path fill="none" stroke="midnightblue" d="M364.547,-576.727C367.043,-627.265 380.787,-762.497 456,-835 463.276,-842.014 472.402,-847.078 481.969,-850.73"/>
<polygon fill="midnightblue" stroke="midnightblue" points="368.036,-576.382 364.145,-566.528 361.042,-576.658 368.036,-576.382"/>
</g>
<!-- Node50 -->
<g id="node50" class="node"><title>Node50</title>
<g id="a_node50"><a xlink:href="$classDataFlash__Block.html#af69dc258faab0de2a9b38e87d4c67799" xlink:title="DataFlash_Block::ListAvailableLogs">
<polygon fill="white" stroke="black" points="456,-566.5 456,-585.5 630,-585.5 630,-566.5 456,-566.5"/>
<text text-anchor="middle" x="543" y="-573.5" font-family="Helvetica,sans-Serif" font-size="10.00">DataFlash_Block::ListAvailableLogs</text>
</a>
</g>
</g>
<!-- Node10&#45;&gt;Node50 -->
<g id="edge59" class="edge"><title>Node10&#45;&gt;Node50</title>
<path fill="none" stroke="midnightblue" d="M429.925,-564.037C438.338,-564.935 447.047,-565.865 455.721,-566.79"/>
<polygon fill="midnightblue" stroke="midnightblue" points="430.147,-560.541 419.832,-562.96 429.404,-567.501 430.147,-560.541"/>
</g>
<!-- Node12 -->
<g id="node12" class="node"><title>Node12</title>
<g id="a_node12"><a xlink:href="$HAL__PX4__Class_8cpp.html#a9bd6e6ad19a651d2c83ab3edb8d51924" xlink:title="main_loop">
<polygon fill="white" stroke="black" points="708.5,-806.5 708.5,-825.5 769.5,-825.5 769.5,-806.5 708.5,-806.5"/>
<text text-anchor="middle" x="739" y="-813.5" font-family="Helvetica,sans-Serif" font-size="10.00">main_loop</text>
</a>
</g>
</g>
<!-- Node11&#45;&gt;Node12 -->
<g id="edge11" class="edge"><title>Node11&#45;&gt;Node12</title>
<path fill="none" stroke="midnightblue" d="M573.689,-816C610.155,-816 671.659,-816 708.184,-816"/>
<polygon fill="midnightblue" stroke="midnightblue" points="573.669,-812.5 563.669,-816 573.669,-819.5 573.669,-812.5"/>
</g>
<!-- Node13 -->
<g id="node13" class="node"><title>Node13</title>
<g id="a_node13"><a xlink:href="$classHAL__PX4.html#aa30a8fe0c2c42ede8ced6fc21e1c748a" xlink:title="HAL_PX4::init">
<polygon fill="white" stroke="black" points="868.5,-806.5 868.5,-825.5 947.5,-825.5 947.5,-806.5 868.5,-806.5"/>
<text text-anchor="middle" x="908" y="-813.5" font-family="Helvetica,sans-Serif" font-size="10.00">HAL_PX4::init</text>
</a>
</g>
</g>
<!-- Node12&#45;&gt;Node13 -->
<g id="edge12" class="edge"><title>Node12&#45;&gt;Node13</title>
<path fill="none" stroke="midnightblue" d="M780.035,-816C806.79,-816 841.8,-816 868.279,-816"/>
<polygon fill="midnightblue" stroke="midnightblue" points="779.856,-812.5 769.856,-816 779.856,-819.5 779.856,-812.5"/>
</g>
<!-- Node15 -->
<g id="node15" class="node"><title>Node15</title>
<g id="a_node15"><a xlink:href="$AP__ADC__test_8pde.html#afe461d27b9c48d5921c00d521181f12f" xlink:title="loop">
<polygon fill="white" stroke="black" points="721.5,-695.5 721.5,-714.5 756.5,-714.5 756.5,-695.5 721.5,-695.5"/>
<text text-anchor="middle" x="739" y="-702.5" font-family="Helvetica,sans-Serif" font-size="10.00">loop</text>
</a>
</g>
</g>
<!-- Node14&#45;&gt;Node15 -->
<g id="edge14" class="edge"><title>Node14&#45;&gt;Node15</title>
<path fill="none" stroke="midnightblue" d="M588.74,-702.692C631.074,-703.347 692.341,-704.294 721.447,-704.744"/>
<polygon fill="midnightblue" stroke="midnightblue" points="588.736,-699.191 578.683,-702.536 588.628,-706.191 588.736,-699.191"/>
</g>
<!-- Node17 -->
<g id="node17" class="node"><title>Node17</title>
<g id="a_node17"><a xlink:href="$classAP__Airspeed.html#a7499575104f24c6502e1148c353d9637" xlink:title="AP_Airspeed::init">
<polygon fill="white" stroke="black" points="693,-657.5 693,-676.5 785,-676.5 785,-657.5 693,-657.5"/>
<text text-anchor="middle" x="739" y="-664.5" font-family="Helvetica,sans-Serif" font-size="10.00">AP_Airspeed::init</text>
</a>
</g>
</g>
<!-- Node16&#45;&gt;Node17 -->
<g id="edge16" class="edge"><title>Node16&#45;&gt;Node17</title>
<path fill="none" stroke="midnightblue" d="M611.315,-665.041C638.303,-665.458 668.684,-665.928 692.929,-666.303"/>
<polygon fill="midnightblue" stroke="midnightblue" points="611.21,-661.539 601.157,-664.884 611.102,-668.538 611.21,-661.539"/>
</g>
<!-- Node18 -->
<g id="node18" class="node"><title>Node18</title>
<g id="a_node18"><a xlink:href="$Airspeed_8pde.html#a4fc01d736fe50cf5b977f755b675f11d" xlink:title="setup">
<polygon fill="white" stroke="black" points="887.5,-657.5 887.5,-676.5 928.5,-676.5 928.5,-657.5 887.5,-657.5"/>
<text text-anchor="middle" x="908" y="-664.5" font-family="Helvetica,sans-Serif" font-size="10.00">setup</text>
</a>
</g>
</g>
<!-- Node17&#45;&gt;Node18 -->
<g id="edge17" class="edge"><title>Node17&#45;&gt;Node18</title>
<path fill="none" stroke="midnightblue" d="M795.256,-667C827.004,-667 864.927,-667 887.43,-667"/>
<polygon fill="midnightblue" stroke="midnightblue" points="795.193,-663.5 785.193,-667 795.193,-670.5 795.193,-663.5"/>
</g>
<!-- Node23 -->
<g id="node23" class="node"><title>Node23</title>
<g id="a_node23"><a xlink:href="$classLinux_1_1LinuxStorage__FRAM.html#a3c8de702b5554324a004ba3da50d7e80" xlink:title="Linux::LinuxStorage\l_FRAM::_storage_open">
<polygon fill="white" stroke="black" points="848,-564 848,-594 968,-594 968,-564 848,-564"/>
<text text-anchor="start" x="856" y="-582" font-family="Helvetica,sans-Serif" font-size="10.00">Linux::LinuxStorage</text>
<text text-anchor="middle" x="908" y="-571" font-family="Helvetica,sans-Serif" font-size="10.00">_FRAM::_storage_open</text>
</a>
</g>
</g>
<!-- Node22&#45;&gt;Node23 -->
<g id="edge25" class="edge"><title>Node22&#45;&gt;Node23</title>
<path fill="none" stroke="midnightblue" d="M808.474,-553.631C821.803,-557.063 835.659,-560.631 848.624,-563.969"/>
<polygon fill="midnightblue" stroke="midnightblue" points="808.965,-550.143 798.408,-551.039 807.22,-556.922 808.965,-550.143"/>
</g>
<!-- Node24&#45;&gt;Node22 -->
<g id="edge27" class="edge"><title>Node24&#45;&gt;Node22</title>
<path fill="none" stroke="midnightblue" d="M604.43,-606.53C613.304,-603.398 622.105,-599.595 630,-595 649.286,-583.775 646.935,-571.598 666,-560 671.516,-556.644 677.558,-553.694 683.723,-551.117"/>
<polygon fill="midnightblue" stroke="midnightblue" points="603.23,-603.24 594.81,-609.671 605.402,-609.894 603.23,-603.24"/>
</g>
<!-- Node24&#45;&gt;Node23 -->
<g id="edge28" class="edge"><title>Node24&#45;&gt;Node23</title>
<path fill="none" stroke="midnightblue" d="M605.02,-622.06C659.66,-622.826 741.762,-621.307 812,-609 830.57,-605.746 850.549,-599.825 867.37,-594.097"/>
<polygon fill="midnightblue" stroke="midnightblue" points="604.866,-618.557 594.808,-621.886 604.747,-625.556 604.866,-618.557"/>
</g>
<!-- Node25 -->
<g id="node25" class="node"><title>Node25</title>
<g id="a_node25"><a xlink:href="$classLinux_1_1LinuxStorage__FRAM.html#a95e031b758f4a15f38f6c23c43b91c8f" xlink:title="Linux::LinuxStorage\l_FRAM::_timer_tick">
<polygon fill="white" stroke="black" points="687,-570 687,-600 791,-600 791,-570 687,-570"/>
<text text-anchor="start" x="695" y="-588" font-family="Helvetica,sans-Serif" font-size="10.00">Linux::LinuxStorage</text>
<text text-anchor="middle" x="739" y="-577" font-family="Helvetica,sans-Serif" font-size="10.00">_FRAM::_timer_tick</text>
</a>
</g>
</g>
<!-- Node24&#45;&gt;Node25 -->
<g id="edge29" class="edge"><title>Node24&#45;&gt;Node25</title>
<path fill="none" stroke="midnightblue" d="M604.617,-609.064C631.035,-604.298 661.665,-598.772 686.904,-594.218"/>
<polygon fill="midnightblue" stroke="midnightblue" points="603.938,-605.63 594.718,-610.85 605.18,-612.519 603.938,-605.63"/>
</g>
<!-- Node27 -->
<g id="node27" class="node"><title>Node27</title>
<g id="a_node27"><a xlink:href="$classAP__InertialSensor.html#ab0534f593e07f2d483ddd8c2b1bbf4d9" xlink:title="AP_InertialSensor::init">
<polygon fill="white" stroke="black" points="682,-98.5 682,-117.5 796,-117.5 796,-98.5 682,-98.5"/>
<text text-anchor="middle" x="739" y="-105.5" font-family="Helvetica,sans-Serif" font-size="10.00">AP_InertialSensor::init</text>
</a>
</g>
</g>
<!-- Node26&#45;&gt;Node27 -->
<g id="edge31" class="edge"><title>Node26&#45;&gt;Node27</title>
<path fill="none" stroke="midnightblue" d="M603.609,-77.5195C633.496,-84.2981 668.976,-92.345 695.973,-98.4681"/>
<polygon fill="midnightblue" stroke="midnightblue" points="604.234,-74.0726 593.708,-75.274 602.686,-80.8992 604.234,-74.0726"/>
</g>
<!-- Node29 -->
<g id="node29" class="node"><title>Node29</title>
<g id="a_node29"><a xlink:href="$classAP__InertialSensor.html#a424609d1eb3dc8473040c9e6f87771ad" xlink:title="AP_InertialSensor::\linit_gyro">
<polygon fill="white" stroke="black" points="688.5,-49 688.5,-79 789.5,-79 789.5,-49 688.5,-49"/>
<text text-anchor="start" x="696.5" y="-67" font-family="Helvetica,sans-Serif" font-size="10.00">AP_InertialSensor::</text>
<text text-anchor="middle" x="739" y="-56" font-family="Helvetica,sans-Serif" font-size="10.00">init_gyro</text>
</a>
</g>
</g>
<!-- Node26&#45;&gt;Node29 -->
<g id="edge33" class="edge"><title>Node26&#45;&gt;Node29</title>
<path fill="none" stroke="midnightblue" d="M603.856,-64C630.976,-64 662.658,-64 688.421,-64"/>
<polygon fill="midnightblue" stroke="midnightblue" points="603.708,-60.5001 593.708,-64 603.708,-67.5001 603.708,-60.5001"/>
</g>
<!-- Node28 -->
<g id="node28" class="node"><title>Node28</title>
<g id="a_node28"><a xlink:href="$AHRS__Test_8pde.html#a7dfd9b79bc5a37d7df40207afbc5431f" xlink:title="setup">
<polygon fill="white" stroke="black" points="887.5,-98.5 887.5,-117.5 928.5,-117.5 928.5,-98.5 887.5,-98.5"/>
<text text-anchor="middle" x="908" y="-105.5" font-family="Helvetica,sans-Serif" font-size="10.00">setup</text>
</a>
</g>
</g>
<!-- Node27&#45;&gt;Node28 -->
<g id="edge32" class="edge"><title>Node27&#45;&gt;Node28</title>
<path fill="none" stroke="midnightblue" d="M806.198,-108C835.234,-108 867.191,-108 887.174,-108"/>
<polygon fill="midnightblue" stroke="midnightblue" points="806.073,-104.5 796.073,-108 806.073,-111.5 806.073,-104.5"/>
</g>
<!-- Node31 -->
<g id="node31" class="node"><title>Node31</title>
<g id="a_node31"><a xlink:href="$classAP__InertialSensor__LSM9DS0.html#a1047cd97a910ee344c829084b700e10b" xlink:title="AP_InertialSensor_LSM9DS0\l::_init_sensor">
<polygon fill="white" stroke="black" points="666,-0 666,-30 812,-30 812,-0 666,-0"/>
<text text-anchor="start" x="674" y="-18" font-family="Helvetica,sans-Serif" font-size="10.00">AP_InertialSensor_LSM9DS0</text>
<text text-anchor="middle" x="739" y="-7" font-family="Helvetica,sans-Serif" font-size="10.00">::_init_sensor</text>
</a>
</g>
</g>
<!-- Node30&#45;&gt;Node31 -->
<g id="edge35" class="edge"><title>Node30&#45;&gt;Node31</title>
<path fill="none" stroke="midnightblue" d="M626.577,-15C639.586,-15 652.949,-15 665.701,-15"/>
<polygon fill="midnightblue" stroke="midnightblue" points="626.238,-11.5001 616.238,-15 626.238,-18.5001 626.238,-11.5001"/>
</g>
<!-- Node33 -->
<g id="node33" class="node"><title>Node33</title>
<g id="a_node33"><a xlink:href="$eulers_8pde.html#a7dfd9b79bc5a37d7df40207afbc5431f" xlink:title="setup">
<polygon fill="white" stroke="black" points="718.5,-370.5 718.5,-389.5 759.5,-389.5 759.5,-370.5 718.5,-370.5"/>
<text text-anchor="middle" x="739" y="-377.5" font-family="Helvetica,sans-Serif" font-size="10.00">setup</text>
</a>
</g>
</g>
<!-- Node32&#45;&gt;Node33 -->
<g id="edge37" class="edge"><title>Node32&#45;&gt;Node33</title>
<path fill="none" stroke="midnightblue" d="M601.601,-308.122C611.238,-310.552 621.016,-313.487 630,-317 666.389,-331.23 705,-356.595 724.717,-370.402"/>
<polygon fill="midnightblue" stroke="midnightblue" points="602.187,-304.665 591.65,-305.771 600.578,-311.477 602.187,-304.665"/>
</g>
<!-- Node34&#45;&gt;Node33 -->
<g id="edge39" class="edge"><title>Node34&#45;&gt;Node33</title>
<path fill="none" stroke="midnightblue" d="M610.547,-489.091C617.302,-486.874 623.91,-484.207 630,-481 674.975,-457.317 714.986,-409.85 730.807,-389.557"/>
<polygon fill="midnightblue" stroke="midnightblue" points="609.19,-485.842 600.589,-492.028 611.17,-492.556 609.19,-485.842"/>
</g>
<!-- Node35&#45;&gt;Node33 -->
<g id="edge41" class="edge"><title>Node35&#45;&gt;Node33</title>
<path fill="none" stroke="midnightblue" d="M598.682,-267.478C609.439,-270.207 620.367,-273.927 630,-279 674.975,-302.683 714.986,-350.15 730.807,-370.443"/>
<polygon fill="midnightblue" stroke="midnightblue" points="599.422,-264.057 588.894,-265.241 597.863,-270.881 599.422,-264.057"/>
</g>
<!-- Node36&#45;&gt;Node33 -->
<g id="edge43" class="edge"><title>Node36&#45;&gt;Node33</title>
<path fill="none" stroke="midnightblue" d="M609.1,-449.887C616.249,-447.889 623.343,-445.603 630,-443 666.389,-428.77 705,-403.405 724.717,-389.598"/>
<polygon fill="midnightblue" stroke="midnightblue" points="608.142,-446.52 599.353,-452.436 609.913,-453.292 608.142,-446.52"/>
</g>
<!-- Node38 -->
<g id="node38" class="node"><title>Node38</title>
<g id="a_node38"><a xlink:href="$location_8pde.html#a7dfd9b79bc5a37d7df40207afbc5431f" xlink:title="setup">
<polygon fill="white" stroke="black" points="718.5,-894.5 718.5,-913.5 759.5,-913.5 759.5,-894.5 718.5,-894.5"/>
<text text-anchor="middle" x="739" y="-901.5" font-family="Helvetica,sans-Serif" font-size="10.00">setup</text>
</a>
</g>
</g>
<!-- Node37&#45;&gt;Node38 -->
<g id="edge45" class="edge"><title>Node37&#45;&gt;Node38</title>
<path fill="none" stroke="midnightblue" d="M610.125,-904C648.176,-904 693.303,-904 718.493,-904"/>
<polygon fill="midnightblue" stroke="midnightblue" points="610.113,-900.5 600.113,-904 610.113,-907.5 610.113,-900.5"/>
</g>
<!-- Node40 -->
<g id="node40" class="node"><title>Node40</title>
<g id="a_node40"><a xlink:href="$rotations_8pde.html#a7dfd9b79bc5a37d7df40207afbc5431f" xlink:title="setup">
<polygon fill="white" stroke="black" points="718.5,-193.5 718.5,-212.5 759.5,-212.5 759.5,-193.5 718.5,-193.5"/>
<text text-anchor="middle" x="739" y="-200.5" font-family="Helvetica,sans-Serif" font-size="10.00">setup</text>
</a>
</g>
</g>
<!-- Node39&#45;&gt;Node40 -->
<g id="edge47" class="edge"><title>Node39&#45;&gt;Node40</title>
<path fill="none" stroke="midnightblue" d="M585.811,-217.905C626.743,-213.896 687.323,-207.963 718.257,-204.934"/>
<polygon fill="midnightblue" stroke="midnightblue" points="585.212,-214.447 575.601,-218.905 585.895,-221.414 585.212,-214.447"/>
</g>
<!-- Node41&#45;&gt;Node40 -->
<g id="edge49" class="edge"><title>Node41&#45;&gt;Node40</title>
<path fill="none" stroke="midnightblue" d="M600.074,-189.492C639.81,-193.383 690.765,-198.374 718.269,-201.068"/>
<polygon fill="midnightblue" stroke="midnightblue" points="600.269,-185.994 589.975,-188.503 599.586,-192.961 600.269,-185.994"/>
</g>
<!-- Node45 -->
<g id="node45" class="node"><title>Node45</title>
<g id="a_node45"><a xlink:href="$AP__Motors__test_8pde.html#afe461d27b9c48d5921c00d521181f12f" xlink:title="loop">
<polygon fill="white" stroke="black" points="721.5,-136.5 721.5,-155.5 756.5,-155.5 756.5,-136.5 721.5,-136.5"/>
<text text-anchor="middle" x="739" y="-143.5" font-family="Helvetica,sans-Serif" font-size="10.00">loop</text>
</a>
</g>
</g>
<!-- Node44&#45;&gt;Node45 -->
<g id="edge53" class="edge"><title>Node44&#45;&gt;Node45</title>
<path fill="none" stroke="midnightblue" d="M597.992,-118.576C639.478,-126.702 694.124,-137.406 721.242,-142.717"/>
<polygon fill="midnightblue" stroke="midnightblue" points="598.508,-115.11 588.022,-116.623 597.162,-121.98 598.508,-115.11"/>
</g>
<!-- Node46&#45;&gt;Node45 -->
<g id="edge55" class="edge"><title>Node46&#45;&gt;Node45</title>
<path fill="none" stroke="midnightblue" d="M589.146,-146C631.268,-146 691.865,-146 721.039,-146"/>
<polygon fill="midnightblue" stroke="midnightblue" points="589.132,-142.5 579.132,-146 589.132,-149.5 589.132,-142.5"/>
</g>
<!-- Node48 -->
<g id="node48" class="node"><title>Node48</title>
<g id="a_node48"><a xlink:href="$classDataFlash__Block.html#a8b52881f78d27ccf9cf143889bdd7dae" xlink:title="DataFlash_Block::LogRead\lProcess">
<polygon fill="white" stroke="black" points="670.5,-845 670.5,-875 807.5,-875 807.5,-845 670.5,-845"/>
<text text-anchor="start" x="678.5" y="-863" font-family="Helvetica,sans-Serif" font-size="10.00">DataFlash_Block::LogRead</text>
<text text-anchor="middle" x="739" y="-852" font-family="Helvetica,sans-Serif" font-size="10.00">Process</text>
</a>
</g>
</g>
<!-- Node47&#45;&gt;Node48 -->
<g id="edge57" class="edge"><title>Node47&#45;&gt;Node48</title>
<path fill="none" stroke="midnightblue" d="M614.094,-860C632.458,-860 652.218,-860 670.447,-860"/>
<polygon fill="midnightblue" stroke="midnightblue" points="614.054,-856.5 604.054,-860 614.054,-863.5 614.054,-856.5"/>
</g>
<!-- Node49 -->
<g id="node49" class="node"><title>Node49</title>
<g id="a_node49"><a xlink:href="$DataFlash__test_8pde.html#afe461d27b9c48d5921c00d521181f12f" xlink:title="loop">
<polygon fill="white" stroke="black" points="890.5,-850.5 890.5,-869.5 925.5,-869.5 925.5,-850.5 890.5,-850.5"/>
<text text-anchor="middle" x="908" y="-857.5" font-family="Helvetica,sans-Serif" font-size="10.00">loop</text>
</a>
</g>
</g>
<!-- Node48&#45;&gt;Node49 -->
<g id="edge58" class="edge"><title>Node48&#45;&gt;Node49</title>
<path fill="none" stroke="midnightblue" d="M818.26,-860C845.381,-860 873.242,-860 890.338,-860"/>
<polygon fill="midnightblue" stroke="midnightblue" points="817.925,-856.5 807.925,-860 817.925,-863.5 817.925,-856.5"/>
</g>
</g>
</svg>
