<?xml version="1.0" encoding="UTF-8" standalone="no"?>
<!DOCTYPE svg PUBLIC "-//W3C//DTD SVG 1.1//EN"
 "http://www.w3.org/Graphics/SVG/1.1/DTD/svg11.dtd">
<!-- Generated by graphviz version 2.36.0 (20140111.2315)
 -->
<!-- Title: GCS_MAVLINK::send_text Pages: 1 -->
<svg width="512pt" height="77pt"
 viewBox="0.00 0.00 512.00 77.00" xmlns="http://www.w3.org/2000/svg" xmlns:xlink="http://www.w3.org/1999/xlink">
<g id="graph0" class="graph" transform="scale(1 1) rotate(0) translate(4 73)">
<title>GCS_MAVLINK::send_text</title>
<polygon fill="white" stroke="none" points="-4,4 -4,-73 508,-73 508,4 -4,4"/>
<!-- Node1 -->
<g id="node1" class="node"><title>Node1</title>
<polygon fill="#bfbfbf" stroke="black" points="0.5,-27.5 0.5,-46.5 137.5,-46.5 137.5,-27.5 0.5,-27.5"/>
<text text-anchor="middle" x="69" y="-34.5" font-family="Helvetica,sans-Serif" font-size="10.00">GCS_MAVLINK::send_text</text>
</g>
<!-- Node2 -->
<g id="node2" class="node"><title>Node2</title>
<g id="a_node2"><a xlink:href="$GCS__MAVLink_8cpp.html#a2a0fd455fd37f642e9eb67373a14b7d9" xlink:title="comm_get_txspace">
<polygon fill="white" stroke="black" points="203,-47.5 203,-66.5 305,-66.5 305,-47.5 203,-47.5"/>
<text text-anchor="middle" x="254" y="-54.5" font-family="Helvetica,sans-Serif" font-size="10.00">comm_get_txspace</text>
</a>
</g>
</g>
<!-- Node1&#45;&gt;Node2 -->
<g id="edge1" class="edge"><title>Node1&#45;&gt;Node2</title>
<path fill="none" stroke="midnightblue" d="M137.623,-44.3904C155.666,-46.3624 175.042,-48.48 192.666,-50.4061"/>
<polygon fill="midnightblue" stroke="midnightblue" points="192.496,-53.9083 202.817,-51.5155 193.256,-46.9497 192.496,-53.9083"/>
</g>
<!-- Node4 -->
<g id="node4" class="node"><title>Node4</title>
<g id="a_node4"><a xlink:href="$classGCS__MAVLINK.html#a4902306dab46ff02b2296f99eb1f1c9c" xlink:title="GCS_MAVLINK::send_message">
<polygon fill="white" stroke="black" points="174,-8.5 174,-27.5 334,-27.5 334,-8.5 174,-8.5"/>
<text text-anchor="middle" x="254" y="-15.5" font-family="Helvetica,sans-Serif" font-size="10.00">GCS_MAVLINK::send_message</text>
</a>
</g>
</g>
<!-- Node1&#45;&gt;Node4 -->
<g id="edge3" class="edge"><title>Node1&#45;&gt;Node4</title>
<path fill="none" stroke="midnightblue" d="M137.623,-29.9791C146.204,-29.0881 155.086,-28.1659 163.938,-27.2469"/>
<polygon fill="midnightblue" stroke="midnightblue" points="164.317,-30.7265 173.902,-26.2124 163.594,-23.7639 164.317,-30.7265"/>
</g>
<!-- Node3 -->
<g id="node3" class="node"><title>Node3</title>
<g id="a_node3"><a xlink:href="$classAP__HAL_1_1Stream.html#a7028834212873394e906bcaf7f4a06b3" xlink:title="AP_HAL::Stream::txspace">
<polygon fill="white" stroke="black" points="370.5,-49.5 370.5,-68.5 503.5,-68.5 503.5,-49.5 370.5,-49.5"/>
<text text-anchor="middle" x="437" y="-56.5" font-family="Helvetica,sans-Serif" font-size="10.00">AP_HAL::Stream::txspace</text>
</a>
</g>
</g>
<!-- Node2&#45;&gt;Node3 -->
<g id="edge2" class="edge"><title>Node2&#45;&gt;Node3</title>
<path fill="none" stroke="midnightblue" d="M305.419,-57.5571C322.364,-57.7444 341.659,-57.9576 360.121,-58.1616"/>
<polygon fill="midnightblue" stroke="midnightblue" points="360.233,-61.6629 370.271,-58.2737 360.31,-54.6633 360.233,-61.6629"/>
</g>
<!-- Node5 -->
<g id="node5" class="node"><title>Node5</title>
<g id="a_node5"><a xlink:href="$classGCS__MAVLINK.html#a30034cdbd89bcfb86392411f9b5935db" xlink:title="GCS_MAVLINK::try_send\l_message">
<polygon fill="white" stroke="black" points="371.5,-0 371.5,-30 502.5,-30 502.5,-0 371.5,-0"/>
<text text-anchor="start" x="379.5" y="-18" font-family="Helvetica,sans-Serif" font-size="10.00">GCS_MAVLINK::try_send</text>
<text text-anchor="middle" x="437" y="-7" font-family="Helvetica,sans-Serif" font-size="10.00">_message</text>
</a>
</g>
</g>
<!-- Node4&#45;&gt;Node5 -->
<g id="edge4" class="edge"><title>Node4&#45;&gt;Node5</title>
<path fill="none" stroke="midnightblue" d="M334.126,-16.6885C343.18,-16.5385 352.388,-16.3858 361.381,-16.2368"/>
<polygon fill="midnightblue" stroke="midnightblue" points="361.481,-19.7357 371.422,-16.0704 361.365,-12.7367 361.481,-19.7357"/>
</g>
</g>
</svg>
