<?xml version="1.0" encoding="UTF-8" standalone="no"?>
<!DOCTYPE svg PUBLIC "-//W3C//DTD SVG 1.1//EN"
 "http://www.w3.org/Graphics/SVG/1.1/DTD/svg11.dtd">
<!-- Generated by graphviz version 2.36.0 (20140111.2315)
 -->
<!-- Title: AP_InertialSensor_MPU9250 Pages: 1 -->
<svg width="752pt" height="364pt"
 viewBox="0.00 0.00 752.00 364.00" xmlns="http://www.w3.org/2000/svg" xmlns:xlink="http://www.w3.org/1999/xlink">
<g id="graph0" class="graph" transform="scale(1 1) rotate(0) translate(4 360)">
<title>AP_InertialSensor_MPU9250</title>
<polygon fill="white" stroke="none" points="-4,4 -4,-360 748,-360 748,4 -4,4"/>
<!-- Node1 -->
<g id="node1" class="node"><title>Node1</title>
<polygon fill="#bfbfbf" stroke="black" points="600,-72.5 600,-91.5 744,-91.5 744,-72.5 600,-72.5"/>
<text text-anchor="middle" x="672" y="-79.5" font-family="Helvetica,sans-Serif" font-size="10.00">AP_InertialSensor_MPU9250</text>
</g>
<!-- Node2 -->
<g id="node2" class="node"><title>Node2</title>
<g id="a_node2"><a xlink:href="$classAP__InertialSensor__Backend.html" xlink:title="AP_InertialSensor_Backend">
<polygon fill="white" stroke="black" points="358.5,-322.5 358.5,-341.5 497.5,-341.5 497.5,-322.5 358.5,-322.5"/>
<text text-anchor="middle" x="428" y="-329.5" font-family="Helvetica,sans-Serif" font-size="10.00">AP_InertialSensor_Backend</text>
</a>
</g>
</g>
<!-- Node2&#45;&gt;Node1 -->
<g id="edge1" class="edge"><title>Node2&#45;&gt;Node1</title>
<path fill="none" stroke="midnightblue" d="M484.374,-320.115C521.917,-311.118 567.288,-298.109 582,-285 589.955,-277.912 650.772,-131.118 667.02,-91.6806"/>
<polygon fill="midnightblue" stroke="midnightblue" points="483.459,-316.735 474.524,-322.428 485.06,-323.549 483.459,-316.735"/>
</g>
<!-- Node3 -->
<g id="node3" class="node"><title>Node3</title>
<g id="a_node3"><a xlink:href="$classAP__InertialSensor.html" xlink:title="AP_InertialSensor">
<polygon fill="white" stroke="black" points="624.5,-263.5 624.5,-282.5 719.5,-282.5 719.5,-263.5 624.5,-263.5"/>
<text text-anchor="middle" x="672" y="-270.5" font-family="Helvetica,sans-Serif" font-size="10.00">AP_InertialSensor</text>
</a>
</g>
</g>
<!-- Node2&#45;&gt;Node3 -->
<g id="edge3" class="edge"><title>Node2&#45;&gt;Node3</title>
<path fill="none" stroke="#9a32cd" stroke-dasharray="5,2" d="M485.434,-342.841C514.883,-346.273 551.113,-346.952 582,-337 615.331,-326.26 646.726,-297.896 661.749,-282.791"/>
<polygon fill="#9a32cd" stroke="#9a32cd" points="485.688,-339.344 475.32,-341.524 484.784,-346.286 485.688,-339.344"/>
<text text-anchor="middle" x="549" y="-348" font-family="Helvetica,sans-Serif" font-size="10.00"> _backends</text>
</g>
<!-- Node3&#45;&gt;Node2 -->
<g id="edge2" class="edge"><title>Node3&#45;&gt;Node2</title>
<path fill="none" stroke="#9a32cd" stroke-dasharray="5,2" d="M642.615,-286.952C625.448,-294.842 602.905,-304.25 582,-310 554.831,-317.472 524.211,-322.516 497.54,-325.866"/>
<polygon fill="#9a32cd" stroke="#9a32cd" points="644.486,-289.941 652.049,-282.521 641.51,-283.605 644.486,-289.941"/>
<text text-anchor="middle" x="549" y="-325" font-family="Helvetica,sans-Serif" font-size="10.00"> _imu</text>
</g>
<!-- Node4 -->
<g id="node4" class="node"><title>Node4</title>
<g id="a_node4"><a xlink:href="$classDataFlash__Class.html" xlink:title="&#45;*&#45; tab&#45;width: 4; Mode: C++; c&#45;basic&#45;offset: 4; indent&#45;tabs&#45;mode: nil &#45;*&#45; ">
<polygon fill="white" stroke="black" points="382,-273.5 382,-292.5 474,-292.5 474,-273.5 382,-273.5"/>
<text text-anchor="middle" x="428" y="-280.5" font-family="Helvetica,sans-Serif" font-size="10.00">DataFlash_Class</text>
</a>
</g>
</g>
<!-- Node4&#45;&gt;Node3 -->
<g id="edge4" class="edge"><title>Node4&#45;&gt;Node3</title>
<path fill="none" stroke="#9a32cd" stroke-dasharray="5,2" d="M484.37,-280.712C526.684,-278.963 584.353,-276.58 624.338,-274.928"/>
<polygon fill="#9a32cd" stroke="#9a32cd" points="484.081,-277.221 474.234,-281.131 484.37,-284.215 484.081,-277.221"/>
<text text-anchor="middle" x="549" y="-282" font-family="Helvetica,sans-Serif" font-size="10.00"> _dataflash</text>
</g>
<!-- Node5 -->
<g id="node5" class="node"><title>Node5</title>
<g id="a_node5"><a xlink:href="$structLogStructure.html" xlink:title="LogStructure">
<polygon fill="white" stroke="black" points="186,-273.5 186,-292.5 258,-292.5 258,-273.5 186,-273.5"/>
<text text-anchor="middle" x="222" y="-280.5" font-family="Helvetica,sans-Serif" font-size="10.00">LogStructure</text>
</a>
</g>
</g>
<!-- Node5&#45;&gt;Node4 -->
<g id="edge5" class="edge"><title>Node5&#45;&gt;Node4</title>
<path fill="none" stroke="#9a32cd" stroke-dasharray="5,2" d="M268.127,-283C301.888,-283 347.866,-283 381.674,-283"/>
<polygon fill="#9a32cd" stroke="#9a32cd" points="268.069,-279.5 258.069,-283 268.069,-286.5 268.069,-279.5"/>
<text text-anchor="middle" x="314" y="-286" font-family="Helvetica,sans-Serif" font-size="10.00"> _structures</text>
</g>
<!-- Node6 -->
<g id="node6" class="node"><title>Node6</title>
<g id="a_node6"><a xlink:href="$structAP__Param_1_1GroupInfo.html" xlink:title="AP_Param::GroupInfo">
<polygon fill="white" stroke="black" points="371.5,-206.5 371.5,-225.5 484.5,-225.5 484.5,-206.5 371.5,-206.5"/>
<text text-anchor="middle" x="428" y="-213.5" font-family="Helvetica,sans-Serif" font-size="10.00">AP_Param::GroupInfo</text>
</a>
</g>
</g>
<!-- Node6&#45;&gt;Node3 -->
<g id="edge6" class="edge"><title>Node6&#45;&gt;Node3</title>
<path fill="none" stroke="#9a32cd" stroke-dasharray="5,2" d="M479.307,-227.849C524.094,-238.398 588.783,-253.635 630.362,-263.428"/>
<polygon fill="#9a32cd" stroke="#9a32cd" points="480.041,-224.426 469.505,-225.541 478.437,-231.24 480.041,-224.426"/>
<text text-anchor="middle" x="549" y="-254" font-family="Helvetica,sans-Serif" font-size="10.00"> var_info</text>
</g>
<!-- Node6&#45;&gt;Node6 -->
<g id="edge7" class="edge"><title>Node6&#45;&gt;Node6</title>
<path fill="none" stroke="#9a32cd" stroke-dasharray="5,2" d="M406.89,-235.4C408.3,-240.315 415.336,-244 428,-244 448.262,-244 454.119,-234.565 445.571,-225.757"/>
<polygon fill="#9a32cd" stroke="#9a32cd" points="410.269,-236.351 410.429,-225.757 403.698,-233.939 410.269,-236.351"/>
<text text-anchor="middle" x="428" y="-247" font-family="Helvetica,sans-Serif" font-size="10.00"> group_info</text>
</g>
<!-- Node7 -->
<g id="node7" class="node"><title>Node7</title>
<g id="a_node7"><a xlink:href="$classVector3.html" xlink:title="Vector3\&lt; float \&gt;">
<polygon fill="white" stroke="black" points="384.5,-148.5 384.5,-167.5 471.5,-167.5 471.5,-148.5 384.5,-148.5"/>
<text text-anchor="middle" x="428" y="-155.5" font-family="Helvetica,sans-Serif" font-size="10.00">Vector3&lt; float &gt;</text>
</a>
</g>
</g>
<!-- Node7&#45;&gt;Node1 -->
<g id="edge13" class="edge"><title>Node7&#45;&gt;Node1</title>
<path fill="none" stroke="#9a32cd" stroke-dasharray="5,2" d="M465.667,-144.959C481.149,-139.557 499.401,-133.322 516,-128 557.564,-114.673 605.823,-100.564 637.309,-91.5402"/>
<polygon fill="#9a32cd" stroke="#9a32cd" points="464.217,-141.759 455.939,-148.372 466.534,-148.364 464.217,-141.759"/>
<text text-anchor="middle" x="549" y="-142" font-family="Helvetica,sans-Serif" font-size="10.00"> _gyro_filtered</text>
<text text-anchor="middle" x="549" y="-131" font-family="Helvetica,sans-Serif" font-size="10.00">_accel_filtered</text>
</g>
<!-- Node7&#45;&gt;Node3 -->
<g id="edge8" class="edge"><title>Node7&#45;&gt;Node3</title>
<path fill="none" stroke="#9a32cd" stroke-dasharray="5,2" d="M481.739,-161.446C512.397,-165.174 550.978,-172.92 582,-189 618.217,-207.773 650.171,-245.636 663.885,-263.395"/>
<polygon fill="#9a32cd" stroke="#9a32cd" points="481.993,-157.953 471.668,-160.329 481.221,-164.91 481.993,-157.953"/>
<text text-anchor="middle" x="549" y="-225" font-family="Helvetica,sans-Serif" font-size="10.00"> _delta_angle</text>
<text text-anchor="middle" x="549" y="-214" font-family="Helvetica,sans-Serif" font-size="10.00">_gyro</text>
<text text-anchor="middle" x="549" y="-203" font-family="Helvetica,sans-Serif" font-size="10.00">_accel</text>
<text text-anchor="middle" x="549" y="-192" font-family="Helvetica,sans-Serif" font-size="10.00">_delta_velocity</text>
</g>
<!-- Node8 -->
<g id="node8" class="node"><title>Node8</title>
<g id="a_node8"><a xlink:href="$classLowPassFilter2pVector3f.html" xlink:title="LowPassFilter2pVector3f">
<polygon fill="white" stroke="black" points="365,-76.5 365,-95.5 491,-95.5 491,-76.5 365,-76.5"/>
<text text-anchor="middle" x="428" y="-83.5" font-family="Helvetica,sans-Serif" font-size="10.00">LowPassFilter2pVector3f</text>
</a>
</g>
</g>
<!-- Node8&#45;&gt;Node1 -->
<g id="edge9" class="edge"><title>Node8&#45;&gt;Node1</title>
<path fill="none" stroke="#9a32cd" stroke-dasharray="5,2" d="M501.406,-83.3494C506.345,-83.216 511.245,-83.0973 516,-83 543.308,-82.4412 573.328,-82.1683 599.616,-82.0424"/>
<polygon fill="#9a32cd" stroke="#9a32cd" points="501.145,-79.8554 491.25,-83.6416 501.347,-86.8525 501.145,-79.8554"/>
<text text-anchor="middle" x="549" y="-97" font-family="Helvetica,sans-Serif" font-size="10.00"> _gyro_filter</text>
<text text-anchor="middle" x="549" y="-86" font-family="Helvetica,sans-Serif" font-size="10.00">_accel_filter</text>
</g>
<!-- Node9 -->
<g id="node9" class="node"><title>Node9</title>
<g id="a_node9"><a xlink:href="$classLowPassFilter2p.html" xlink:title="LowPassFilter2p">
<polygon fill="white" stroke="black" points="177.5,-100.5 177.5,-119.5 266.5,-119.5 266.5,-100.5 177.5,-100.5"/>
<text text-anchor="middle" x="222" y="-107.5" font-family="Helvetica,sans-Serif" font-size="10.00">LowPassFilter2p</text>
</a>
</g>
</g>
<!-- Node9&#45;&gt;Node8 -->
<g id="edge10" class="edge"><title>Node9&#45;&gt;Node8</title>
<path fill="none" stroke="midnightblue" d="M276.592,-103.695C303.708,-100.505 336.766,-96.6158 364.977,-93.2968"/>
<polygon fill="midnightblue" stroke="midnightblue" points="276.035,-100.236 266.513,-104.881 276.853,-107.188 276.035,-100.236"/>
</g>
<!-- Node10 -->
<g id="node10" class="node"><title>Node10</title>
<g id="a_node10"><a xlink:href="$structDigitalBiquadFilter_1_1biquad__params.html" xlink:title="DigitalBiquadFilter\l::biquad_params">
<polygon fill="white" stroke="black" points="0,-95 0,-125 96,-125 96,-95 0,-95"/>
<text text-anchor="start" x="8" y="-113" font-family="Helvetica,sans-Serif" font-size="10.00">DigitalBiquadFilter</text>
<text text-anchor="middle" x="48" y="-102" font-family="Helvetica,sans-Serif" font-size="10.00">::biquad_params</text>
</a>
</g>
</g>
<!-- Node10&#45;&gt;Node9 -->
<g id="edge11" class="edge"><title>Node10&#45;&gt;Node9</title>
<path fill="none" stroke="#9a32cd" stroke-dasharray="5,2" d="M106.476,-110C129.562,-110 155.742,-110 177.237,-110"/>
<polygon fill="#9a32cd" stroke="#9a32cd" points="106.455,-106.5 96.4551,-110 106.455,-113.5 106.455,-106.5"/>
<text text-anchor="middle" x="135" y="-113" font-family="Helvetica,sans-Serif" font-size="10.00"> _params</text>
</g>
<!-- Node11 -->
<g id="node11" class="node"><title>Node11</title>
<g id="a_node11"><a xlink:href="$classDigitalBiquadFilter.html" xlink:title="DigitalBiquadFilter">
<polygon fill="white" stroke="black" points="174,-52.5 174,-71.5 270,-71.5 270,-52.5 174,-52.5"/>
<text text-anchor="middle" x="222" y="-59.5" font-family="Helvetica,sans-Serif" font-size="10.00">DigitalBiquadFilter</text>
</a>
</g>
</g>
<!-- Node11&#45;&gt;Node8 -->
<g id="edge12" class="edge"><title>Node11&#45;&gt;Node8</title>
<path fill="none" stroke="#9a32cd" stroke-dasharray="5,2" d="M280.305,-59.2097C282.906,-59.1289 285.48,-59.0581 288,-59 311.105,-58.4671 317.392,-54.2023 340,-59 348.564,-60.8174 349.757,-64.0519 358,-67 367.71,-70.4728 378.377,-73.691 388.36,-76.4546"/>
<polygon fill="#9a32cd" stroke="#9a32cd" points="280.079,-55.7154 270.208,-59.5653 280.325,-62.7111 280.079,-55.7154"/>
<text text-anchor="middle" x="314" y="-84" font-family="Helvetica,sans-Serif" font-size="10.00"> _filter_x</text>
<text text-anchor="middle" x="314" y="-73" font-family="Helvetica,sans-Serif" font-size="10.00">_filter_y</text>
<text text-anchor="middle" x="314" y="-62" font-family="Helvetica,sans-Serif" font-size="10.00">_filter_z</text>
</g>
<!-- Node12 -->
<g id="node12" class="node"><title>Node12</title>
<g id="a_node12"><a xlink:href="$classAP__HAL_1_1Semaphore.html" xlink:title="AP_HAL::Semaphore">
<polygon fill="white" stroke="black" points="373,-38.5 373,-57.5 483,-57.5 483,-38.5 373,-38.5"/>
<text text-anchor="middle" x="428" y="-45.5" font-family="Helvetica,sans-Serif" font-size="10.00">AP_HAL::Semaphore</text>
</a>
</g>
</g>
<!-- Node12&#45;&gt;Node1 -->
<g id="edge14" class="edge"><title>Node12&#45;&gt;Node1</title>
<path fill="none" stroke="#9a32cd" stroke-dasharray="5,2" d="M493.47,-55.3762C520.81,-58.6674 552.997,-62.7571 582,-67 593.163,-68.6331 605.087,-70.534 616.461,-72.4231"/>
<polygon fill="#9a32cd" stroke="#9a32cd" points="493.59,-51.8658 483.246,-54.1553 492.76,-58.8164 493.59,-51.8658"/>
<text text-anchor="middle" x="549" y="-70" font-family="Helvetica,sans-Serif" font-size="10.00"> _spi_sem</text>
</g>
<!-- Node13 -->
<g id="node13" class="node"><title>Node13</title>
<g id="a_node13"><a xlink:href="$classAP__HAL_1_1SPIDeviceDriver.html" xlink:title="AP_HAL::SPIDeviceDriver">
<polygon fill="white" stroke="black" points="361,-0.5 361,-19.5 495,-19.5 495,-0.5 361,-0.5"/>
<text text-anchor="middle" x="428" y="-7.5" font-family="Helvetica,sans-Serif" font-size="10.00">AP_HAL::SPIDeviceDriver</text>
</a>
</g>
</g>
<!-- Node13&#45;&gt;Node1 -->
<g id="edge15" class="edge"><title>Node13&#45;&gt;Node1</title>
<path fill="none" stroke="#9a32cd" stroke-dasharray="5,2" d="M493.398,-21.5547C520.993,-27.2117 553.392,-34.8013 582,-44 606.631,-51.92 633.835,-64.0626 651.603,-72.4814"/>
<polygon fill="#9a32cd" stroke="#9a32cd" points="493.958,-18.0974 483.465,-19.5586 492.579,-24.9602 493.958,-18.0974"/>
<text text-anchor="middle" x="549" y="-47" font-family="Helvetica,sans-Serif" font-size="10.00"> _spi</text>
</g>
</g>
</svg>
