<?xml version="1.0" encoding="UTF-8" standalone="no"?>
<!DOCTYPE svg PUBLIC "-//W3C//DTD SVG 1.1//EN"
 "http://www.w3.org/Graphics/SVG/1.1/DTD/svg11.dtd">
<!-- Generated by graphviz version 2.36.0 (20140111.2315)
 -->
<!-- Title: HALSITL::SITL_State::_fdm_input Pages: 1 -->
<svg width="900pt" height="61pt"
 viewBox="0.00 0.00 900.00 61.00" xmlns="http://www.w3.org/2000/svg" xmlns:xlink="http://www.w3.org/1999/xlink">
<g id="graph0" class="graph" transform="scale(1 1) rotate(0) translate(4 57)">
<title>HALSITL::SITL_State::_fdm_input</title>
<polygon fill="white" stroke="none" points="-4,4 -4,-57 896,-57 896,4 -4,4"/>
<!-- Node1 -->
<g id="node1" class="node"><title>Node1</title>
<polygon fill="#bfbfbf" stroke="black" points="0.5,-1 0.5,-31 113.5,-31 113.5,-1 0.5,-1"/>
<text text-anchor="start" x="8.5" y="-19" font-family="Helvetica,sans-Serif" font-size="10.00">HALSITL::SITL_State</text>
<text text-anchor="middle" x="57" y="-8" font-family="Helvetica,sans-Serif" font-size="10.00">::_fdm_input</text>
</g>
<!-- Node2 -->
<g id="node2" class="node"><title>Node2</title>
<g id="a_node2"><a xlink:href="$classHALSITL_1_1SITL__State.html#a141fe78b0702ab2f2ac4cafc221fdb97" xlink:title="HALSITL::SITL_State\l::_fdm_input_local">
<polygon fill="white" stroke="black" points="150.5,-23 150.5,-53 263.5,-53 263.5,-23 150.5,-23"/>
<text text-anchor="start" x="158.5" y="-41" font-family="Helvetica,sans-Serif" font-size="10.00">HALSITL::SITL_State</text>
<text text-anchor="middle" x="207" y="-30" font-family="Helvetica,sans-Serif" font-size="10.00">::_fdm_input_local</text>
</a>
</g>
</g>
<!-- Node1&#45;&gt;Node2 -->
<g id="edge1" class="edge"><title>Node1&#45;&gt;Node2</title>
<path fill="none" stroke="midnightblue" d="M123.481,-25.7337C132.381,-27.0567 141.449,-28.4045 150.158,-29.6992"/>
<polygon fill="midnightblue" stroke="midnightblue" points="123.937,-22.263 113.531,-24.2546 122.907,-29.187 123.937,-22.263"/>
</g>
<!-- Node3 -->
<g id="node3" class="node"><title>Node3</title>
<g id="a_node3"><a xlink:href="$classHALSITL_1_1SITL__State.html#ae31c93a26ca780bb508dded2498e2e93" xlink:title="HALSITL::SITL_State\l::_fdm_input_step">
<polygon fill="white" stroke="black" points="300.5,-1 300.5,-31 413.5,-31 413.5,-1 300.5,-1"/>
<text text-anchor="start" x="308.5" y="-19" font-family="Helvetica,sans-Serif" font-size="10.00">HALSITL::SITL_State</text>
<text text-anchor="middle" x="357" y="-8" font-family="Helvetica,sans-Serif" font-size="10.00">::_fdm_input_step</text>
</a>
</g>
</g>
<!-- Node1&#45;&gt;Node3 -->
<g id="edge6" class="edge"><title>Node1&#45;&gt;Node3</title>
<path fill="none" stroke="midnightblue" d="M124.096,-14.3903C132.807,-14.2289 141.618,-14.0911 150,-14 200.664,-13.4494 213.336,-13.4494 264,-14 275.662,-14.1267 288.154,-14.3438 300.054,-14.5894"/>
<polygon fill="midnightblue" stroke="midnightblue" points="123.876,-10.8939 113.946,-14.5894 124.013,-17.8926 123.876,-10.8939"/>
</g>
<!-- Node2&#45;&gt;Node3 -->
<g id="edge2" class="edge"><title>Node2&#45;&gt;Node3</title>
<path fill="none" stroke="midnightblue" d="M273.481,-28.2663C282.381,-26.9433 291.449,-25.5955 300.158,-24.3008"/>
<polygon fill="midnightblue" stroke="midnightblue" points="272.907,-24.813 263.531,-29.7454 273.937,-31.737 272.907,-24.813"/>
</g>
<!-- Node4 -->
<g id="node4" class="node"><title>Node4</title>
<g id="a_node4"><a xlink:href="$classHALSITL_1_1SITL__State.html#a3eeaf330efded46259bbf64fc53e6b9f" xlink:title="HALSITL::SITL_State\l::wait_clock">
<polygon fill="white" stroke="black" points="450.5,-1 450.5,-31 563.5,-31 563.5,-1 450.5,-1"/>
<text text-anchor="start" x="458.5" y="-19" font-family="Helvetica,sans-Serif" font-size="10.00">HALSITL::SITL_State</text>
<text text-anchor="middle" x="507" y="-8" font-family="Helvetica,sans-Serif" font-size="10.00">::wait_clock</text>
</a>
</g>
</g>
<!-- Node3&#45;&gt;Node4 -->
<g id="edge3" class="edge"><title>Node3&#45;&gt;Node4</title>
<path fill="none" stroke="midnightblue" d="M423.768,-16C432.576,-16 441.542,-16 450.158,-16"/>
<polygon fill="midnightblue" stroke="midnightblue" points="423.531,-12.5001 413.531,-16 423.531,-19.5001 423.531,-12.5001"/>
</g>
<!-- Node5 -->
<g id="node5" class="node"><title>Node5</title>
<g id="a_node5"><a xlink:href="$classHALSITL_1_1SITLScheduler.html#a4128e7f01b3e88fcb890ed98d91e9b10" xlink:title="HALSITL::SITLScheduler\l::delay_microseconds">
<polygon fill="white" stroke="black" points="600,-1 600,-31 728,-31 728,-1 600,-1"/>
<text text-anchor="start" x="608" y="-19" font-family="Helvetica,sans-Serif" font-size="10.00">HALSITL::SITLScheduler</text>
<text text-anchor="middle" x="664" y="-8" font-family="Helvetica,sans-Serif" font-size="10.00">::delay_microseconds</text>
</a>
</g>
</g>
<!-- Node4&#45;&gt;Node5 -->
<g id="edge4" class="edge"><title>Node4&#45;&gt;Node5</title>
<path fill="none" stroke="midnightblue" d="M573.638,-16C582.359,-16 591.286,-16 599.963,-16"/>
<polygon fill="midnightblue" stroke="midnightblue" points="573.521,-12.5001 563.521,-16 573.521,-19.5001 573.521,-12.5001"/>
</g>
<!-- Node6 -->
<g id="node6" class="node"><title>Node6</title>
<g id="a_node6"><a xlink:href="$classHALSITL_1_1SITLScheduler.html#af7f89d00311bc23d39e38d1a0861cc42" xlink:title="HALSITL::SITLScheduler\l::delay">
<polygon fill="white" stroke="black" points="764,-1 764,-31 892,-31 892,-1 764,-1"/>
<text text-anchor="start" x="772" y="-19" font-family="Helvetica,sans-Serif" font-size="10.00">HALSITL::SITLScheduler</text>
<text text-anchor="middle" x="828" y="-8" font-family="Helvetica,sans-Serif" font-size="10.00">::delay</text>
</a>
</g>
</g>
<!-- Node5&#45;&gt;Node6 -->
<g id="edge5" class="edge"><title>Node5&#45;&gt;Node6</title>
<path fill="none" stroke="midnightblue" d="M738.374,-16C746.865,-16 755.469,-16 763.808,-16"/>
<polygon fill="midnightblue" stroke="midnightblue" points="738.097,-12.5001 728.097,-16 738.097,-19.5001 738.097,-12.5001"/>
</g>
</g>
</svg>
