<?xml version="1.0" encoding="UTF-8" standalone="no"?>
<!DOCTYPE svg PUBLIC "-//W3C//DTD SVG 1.1//EN"
 "http://www.w3.org/Graphics/SVG/1.1/DTD/svg11.dtd">
<!-- Generated by graphviz version 2.36.0 (20140111.2315)
 -->
<!-- Title: LiquidCrystal::command Pages: 1 -->
<svg width="760pt" height="648pt"
 viewBox="0.00 0.00 760.00 648.00" xmlns="http://www.w3.org/2000/svg" xmlns:xlink="http://www.w3.org/1999/xlink">
<g id="graph0" class="graph" transform="scale(1 1) rotate(0) translate(4 644)">
<title>LiquidCrystal::command</title>
<polygon fill="white" stroke="none" points="-4,4 -4,-644 756,-644 756,4 -4,4"/>
<!-- Node1 -->
<g id="node1" class="node"><title>Node1</title>
<polygon fill="#bfbfbf" stroke="black" points="0,-316.5 0,-335.5 122,-335.5 122,-316.5 0,-316.5"/>
<text text-anchor="middle" x="61" y="-323.5" font-family="Helvetica,sans-Serif" font-size="10.00">LiquidCrystal::command</text>
</g>
<!-- Node2 -->
<g id="node2" class="node"><title>Node2</title>
<g id="a_node2"><a xlink:href="$classLiquidCrystal.html#aa5ac50d6a2053eb1c06abe62614131b4" xlink:title="LiquidCrystal::autoscroll">
<polygon fill="white" stroke="black" points="173,-620.5 173,-639.5 295,-639.5 295,-620.5 173,-620.5"/>
<text text-anchor="middle" x="234" y="-627.5" font-family="Helvetica,sans-Serif" font-size="10.00">LiquidCrystal::autoscroll</text>
</a>
</g>
</g>
<!-- Node1&#45;&gt;Node2 -->
<g id="edge1" class="edge"><title>Node1&#45;&gt;Node2</title>
<path fill="none" stroke="midnightblue" d="M62.9269,-345.767C66.3776,-396.426 82.5641,-532.102 158,-606 164.446,-612.314 172.553,-616.968 181.036,-620.398"/>
<polygon fill="midnightblue" stroke="midnightblue" points="66.4071,-345.324 62.3303,-335.545 59.419,-345.732 66.4071,-345.324"/>
</g>
<!-- Node3 -->
<g id="node3" class="node"><title>Node3</title>
<g id="a_node3"><a xlink:href="$classLiquidCrystal.html#adb5f37d69809ed7c0772c74a4adff19b" xlink:title="LiquidCrystal::begin">
<polygon fill="white" stroke="black" points="346.5,-506.5 346.5,-525.5 449.5,-525.5 449.5,-506.5 346.5,-506.5"/>
<text text-anchor="middle" x="398" y="-513.5" font-family="Helvetica,sans-Serif" font-size="10.00">LiquidCrystal::begin</text>
</a>
</g>
</g>
<!-- Node1&#45;&gt;Node3 -->
<g id="edge2" class="edge"><title>Node1&#45;&gt;Node3</title>
<path fill="none" stroke="midnightblue" d="M62.6802,-345.777C65.5518,-394.456 80.4903,-519.967 158,-573 213.754,-611.148 245.265,-592.318 310,-573 341.146,-563.706 371.504,-539.302 386.785,-525.631"/>
<polygon fill="midnightblue" stroke="midnightblue" points="66.1687,-345.449 62.1962,-335.627 59.1766,-345.783 66.1687,-345.449"/>
</g>
<!-- Node7 -->
<g id="node7" class="node"><title>Node7</title>
<g id="a_node7"><a xlink:href="$classLiquidCrystal.html#a3eadecb726b55a400f08d5e520f9cb9b" xlink:title="LiquidCrystal::blink">
<polygon fill="white" stroke="black" points="184,-544.5 184,-563.5 284,-563.5 284,-544.5 184,-544.5"/>
<text text-anchor="middle" x="234" y="-551.5" font-family="Helvetica,sans-Serif" font-size="10.00">LiquidCrystal::blink</text>
</a>
</g>
</g>
<!-- Node1&#45;&gt;Node7 -->
<g id="edge6" class="edge"><title>Node1&#45;&gt;Node7</title>
<path fill="none" stroke="midnightblue" d="M65.2098,-345.623C73.0725,-387.195 97.2782,-484.458 158,-535 165.433,-541.187 174.618,-545.397 183.981,-548.252"/>
<polygon fill="midnightblue" stroke="midnightblue" points="68.6374,-344.906 63.4437,-335.672 61.7451,-346.13 68.6374,-344.906"/>
</g>
<!-- Node8 -->
<g id="node8" class="node"><title>Node8</title>
<g id="a_node8"><a xlink:href="$classLiquidCrystal.html#a8c2ee5196df87db7a3541f947135df13" xlink:title="LiquidCrystal::clear">
<polygon fill="white" stroke="black" points="183.5,-506.5 183.5,-525.5 284.5,-525.5 284.5,-506.5 183.5,-506.5"/>
<text text-anchor="middle" x="234" y="-513.5" font-family="Helvetica,sans-Serif" font-size="10.00">LiquidCrystal::clear</text>
</a>
</g>
</g>
<!-- Node1&#45;&gt;Node8 -->
<g id="edge7" class="edge"><title>Node1&#45;&gt;Node8</title>
<path fill="none" stroke="midnightblue" d="M67.2491,-345.196C78.0171,-380.838 106.073,-457.223 158,-497 165.358,-502.636 174.198,-506.614 183.186,-509.419"/>
<polygon fill="midnightblue" stroke="midnightblue" points="70.594,-344.163 64.455,-335.528 63.8692,-346.107 70.594,-344.163"/>
</g>
<!-- Node9 -->
<g id="node9" class="node"><title>Node9</title>
<g id="a_node9"><a xlink:href="$classLiquidCrystal.html#adee3f44b7c819e744cc22949cf390aa6" xlink:title="LiquidCrystal::createChar">
<polygon fill="white" stroke="black" points="170,-468.5 170,-487.5 298,-487.5 298,-468.5 170,-468.5"/>
<text text-anchor="middle" x="234" y="-475.5" font-family="Helvetica,sans-Serif" font-size="10.00">LiquidCrystal::createChar</text>
</a>
</g>
</g>
<!-- Node1&#45;&gt;Node9 -->
<g id="edge9" class="edge"><title>Node1&#45;&gt;Node9</title>
<path fill="none" stroke="midnightblue" d="M70.3657,-344.951C84.2352,-374.103 114.808,-429.65 158,-459 163.666,-462.85 170.051,-465.92 176.644,-468.369"/>
<polygon fill="midnightblue" stroke="midnightblue" points="73.5255,-343.445 66.1631,-335.826 67.1674,-346.373 73.5255,-343.445"/>
</g>
<!-- Node10 -->
<g id="node10" class="node"><title>Node10</title>
<g id="a_node10"><a xlink:href="$classLiquidCrystal.html#a31f590023c937a6faabdfc50dfb18717" xlink:title="LiquidCrystal::cursor">
<polygon fill="white" stroke="black" points="180.5,-430.5 180.5,-449.5 287.5,-449.5 287.5,-430.5 180.5,-430.5"/>
<text text-anchor="middle" x="234" y="-437.5" font-family="Helvetica,sans-Serif" font-size="10.00">LiquidCrystal::cursor</text>
</a>
</g>
</g>
<!-- Node1&#45;&gt;Node10 -->
<g id="edge10" class="edge"><title>Node1&#45;&gt;Node10</title>
<path fill="none" stroke="midnightblue" d="M75.062,-343.797C91.8421,-365.357 123.009,-401.237 158,-421 164.9,-424.897 172.604,-428.008 180.374,-430.486"/>
<polygon fill="midnightblue" stroke="midnightblue" points="77.809,-341.627 68.9731,-335.781 72.2347,-345.861 77.809,-341.627"/>
</g>
<!-- Node11 -->
<g id="node11" class="node"><title>Node11</title>
<g id="a_node11"><a xlink:href="$classLiquidCrystal.html#a81bb76db1b82a8e55a07de6cb0a262b2" xlink:title="LiquidCrystal::display">
<polygon fill="white" stroke="black" points="179,-392.5 179,-411.5 289,-411.5 289,-392.5 179,-392.5"/>
<text text-anchor="middle" x="234" y="-399.5" font-family="Helvetica,sans-Serif" font-size="10.00">LiquidCrystal::display</text>
</a>
</g>
</g>
<!-- Node1&#45;&gt;Node11 -->
<g id="edge11" class="edge"><title>Node1&#45;&gt;Node11</title>
<path fill="none" stroke="midnightblue" d="M83.7794,-341.413C102.642,-354.141 131.06,-371.864 158,-383 167.062,-386.746 177.054,-389.9 186.709,-392.496"/>
<polygon fill="midnightblue" stroke="midnightblue" points="85.5609,-338.39 75.3356,-335.617 81.5993,-344.162 85.5609,-338.39"/>
</g>
<!-- Node12 -->
<g id="node12" class="node"><title>Node12</title>
<g id="a_node12"><a xlink:href="$classLiquidCrystal.html#aeabdf852b59e8155ef7df8db008c8d55" xlink:title="LiquidCrystal::home">
<polygon fill="white" stroke="black" points="182,-354.5 182,-373.5 286,-373.5 286,-354.5 182,-354.5"/>
<text text-anchor="middle" x="234" y="-361.5" font-family="Helvetica,sans-Serif" font-size="10.00">LiquidCrystal::home</text>
</a>
</g>
</g>
<!-- Node1&#45;&gt;Node12 -->
<g id="edge13" class="edge"><title>Node1&#45;&gt;Node12</title>
<path fill="none" stroke="midnightblue" d="M115.209,-337.824C139.317,-343.182 167.44,-349.431 190.16,-354.48"/>
<polygon fill="midnightblue" stroke="midnightblue" points="115.672,-334.342 105.151,-335.589 114.153,-341.175 115.672,-334.342"/>
</g>
<!-- Node13 -->
<g id="node13" class="node"><title>Node13</title>
<g id="a_node13"><a xlink:href="$classLiquidCrystal.html#ae489f88dfac1680cbe61caf355026874" xlink:title="LiquidCrystal::leftToRight">
<polygon fill="white" stroke="black" points="170,-316.5 170,-335.5 298,-335.5 298,-316.5 170,-316.5"/>
<text text-anchor="middle" x="234" y="-323.5" font-family="Helvetica,sans-Serif" font-size="10.00">LiquidCrystal::leftToRight</text>
</a>
</g>
</g>
<!-- Node1&#45;&gt;Node13 -->
<g id="edge14" class="edge"><title>Node1&#45;&gt;Node13</title>
<path fill="none" stroke="midnightblue" d="M132.533,-326C144.877,-326 157.651,-326 169.781,-326"/>
<polygon fill="midnightblue" stroke="midnightblue" points="132.288,-322.5 122.288,-326 132.288,-329.5 132.288,-322.5"/>
</g>
<!-- Node14 -->
<g id="node14" class="node"><title>Node14</title>
<g id="a_node14"><a xlink:href="$classLiquidCrystal.html#ad4c142852e49b6fc2284a0fbc234172c" xlink:title="LiquidCrystal::noAutoscroll">
<polygon fill="white" stroke="black" points="167,-278.5 167,-297.5 301,-297.5 301,-278.5 167,-278.5"/>
<text text-anchor="middle" x="234" y="-285.5" font-family="Helvetica,sans-Serif" font-size="10.00">LiquidCrystal::noAutoscroll</text>
</a>
</g>
</g>
<!-- Node1&#45;&gt;Node14 -->
<g id="edge15" class="edge"><title>Node1&#45;&gt;Node14</title>
<path fill="none" stroke="midnightblue" d="M115.209,-314.176C139.317,-308.818 167.44,-302.569 190.16,-297.52"/>
<polygon fill="midnightblue" stroke="midnightblue" points="114.153,-310.825 105.151,-316.411 115.672,-317.658 114.153,-310.825"/>
</g>
<!-- Node15 -->
<g id="node15" class="node"><title>Node15</title>
<g id="a_node15"><a xlink:href="$classLiquidCrystal.html#a05d4fa9025c421a833081090cb8039ac" xlink:title="LiquidCrystal::noBlink">
<polygon fill="white" stroke="black" points="178,-240.5 178,-259.5 290,-259.5 290,-240.5 178,-240.5"/>
<text text-anchor="middle" x="234" y="-247.5" font-family="Helvetica,sans-Serif" font-size="10.00">LiquidCrystal::noBlink</text>
</a>
</g>
</g>
<!-- Node1&#45;&gt;Node15 -->
<g id="edge16" class="edge"><title>Node1&#45;&gt;Node15</title>
<path fill="none" stroke="midnightblue" d="M83.7794,-310.587C102.642,-297.859 131.06,-280.136 158,-269 167.062,-265.254 177.054,-262.1 186.709,-259.504"/>
<polygon fill="midnightblue" stroke="midnightblue" points="81.5993,-307.838 75.3356,-316.383 85.5609,-313.61 81.5993,-307.838"/>
</g>
<!-- Node16 -->
<g id="node16" class="node"><title>Node16</title>
<g id="a_node16"><a xlink:href="$classLiquidCrystal.html#ab2ec8e89fe805e3e0e842e53a45aaeae" xlink:title="LiquidCrystal::noCursor">
<polygon fill="white" stroke="black" points="174.5,-202.5 174.5,-221.5 293.5,-221.5 293.5,-202.5 174.5,-202.5"/>
<text text-anchor="middle" x="234" y="-209.5" font-family="Helvetica,sans-Serif" font-size="10.00">LiquidCrystal::noCursor</text>
</a>
</g>
</g>
<!-- Node1&#45;&gt;Node16 -->
<g id="edge17" class="edge"><title>Node1&#45;&gt;Node16</title>
<path fill="none" stroke="midnightblue" d="M75.062,-308.203C91.8421,-286.643 123.009,-250.763 158,-231 164.9,-227.103 172.604,-223.992 180.374,-221.514"/>
<polygon fill="midnightblue" stroke="midnightblue" points="72.2347,-306.139 68.9731,-316.219 77.809,-310.373 72.2347,-306.139"/>
</g>
<!-- Node17 -->
<g id="node17" class="node"><title>Node17</title>
<g id="a_node17"><a xlink:href="$classLiquidCrystal.html#a85bbecc7cebc6e44972b191fbd175c23" xlink:title="LiquidCrystal::noDisplay">
<polygon fill="white" stroke="black" points="172.5,-164.5 172.5,-183.5 295.5,-183.5 295.5,-164.5 172.5,-164.5"/>
<text text-anchor="middle" x="234" y="-171.5" font-family="Helvetica,sans-Serif" font-size="10.00">LiquidCrystal::noDisplay</text>
</a>
</g>
</g>
<!-- Node1&#45;&gt;Node17 -->
<g id="edge18" class="edge"><title>Node1&#45;&gt;Node17</title>
<path fill="none" stroke="midnightblue" d="M70.3657,-307.049C84.2352,-277.897 114.808,-222.35 158,-193 163.666,-189.15 170.051,-186.08 176.644,-183.631"/>
<polygon fill="midnightblue" stroke="midnightblue" points="67.1674,-305.627 66.1631,-316.174 73.5255,-308.555 67.1674,-305.627"/>
</g>
<!-- Node18 -->
<g id="node18" class="node"><title>Node18</title>
<g id="a_node18"><a xlink:href="$classLiquidCrystal.html#a19018898bae01eb687442258cc60ffc9" xlink:title="LiquidCrystal::rightToLeft">
<polygon fill="white" stroke="black" points="171,-126.5 171,-145.5 297,-145.5 297,-126.5 171,-126.5"/>
<text text-anchor="middle" x="234" y="-133.5" font-family="Helvetica,sans-Serif" font-size="10.00">LiquidCrystal::rightToLeft</text>
</a>
</g>
</g>
<!-- Node1&#45;&gt;Node18 -->
<g id="edge19" class="edge"><title>Node1&#45;&gt;Node18</title>
<path fill="none" stroke="midnightblue" d="M67.2491,-306.804C78.0171,-271.162 106.073,-194.777 158,-155 163.012,-151.161 168.711,-148.091 174.677,-145.637"/>
<polygon fill="midnightblue" stroke="midnightblue" points="63.8692,-305.893 64.455,-316.472 70.594,-307.837 63.8692,-305.893"/>
</g>
<!-- Node19 -->
<g id="node19" class="node"><title>Node19</title>
<g id="a_node19"><a xlink:href="$classLiquidCrystal.html#afa91cf6e72bfc07537a3ad79f4864f29" xlink:title="LiquidCrystal::scrollDisplayLeft">
<polygon fill="white" stroke="black" points="158,-88.5 158,-107.5 310,-107.5 310,-88.5 158,-88.5"/>
<text text-anchor="middle" x="234" y="-95.5" font-family="Helvetica,sans-Serif" font-size="10.00">LiquidCrystal::scrollDisplayLeft</text>
</a>
</g>
</g>
<!-- Node1&#45;&gt;Node19 -->
<g id="edge20" class="edge"><title>Node1&#45;&gt;Node19</title>
<path fill="none" stroke="midnightblue" d="M65.2098,-306.377C73.0725,-264.805 97.2782,-167.542 158,-117 162.646,-113.133 167.976,-110.039 173.606,-107.564"/>
<polygon fill="midnightblue" stroke="midnightblue" points="61.7451,-305.87 63.4437,-316.328 68.6374,-307.094 61.7451,-305.87"/>
</g>
<!-- Node20 -->
<g id="node20" class="node"><title>Node20</title>
<g id="a_node20"><a xlink:href="$classLiquidCrystal.html#a271b5da2427321ae09da303b83567e90" xlink:title="LiquidCrystal::scrollDisplay\lRight">
<polygon fill="white" stroke="black" points="166,-39 166,-69 302,-69 302,-39 166,-39"/>
<text text-anchor="start" x="174" y="-57" font-family="Helvetica,sans-Serif" font-size="10.00">LiquidCrystal::scrollDisplay</text>
<text text-anchor="middle" x="234" y="-46" font-family="Helvetica,sans-Serif" font-size="10.00">Right</text>
</a>
</g>
</g>
<!-- Node1&#45;&gt;Node20 -->
<g id="edge21" class="edge"><title>Node1&#45;&gt;Node20</title>
<path fill="none" stroke="midnightblue" d="M64.038,-306.145C69.8578,-259.697 90.7338,-143.052 158,-79 162.075,-75.1194 166.769,-71.8406 171.778,-69.0704"/>
<polygon fill="midnightblue" stroke="midnightblue" points="60.528,-306.033 62.8638,-316.367 67.4823,-306.831 60.528,-306.033"/>
</g>
<!-- Node21 -->
<g id="node21" class="node"><title>Node21</title>
<g id="a_node21"><a xlink:href="$classLiquidCrystal.html#a94bc7bf59c72b5d3326844cc0f1c5827" xlink:title="LiquidCrystal::setCursor">
<polygon fill="white" stroke="black" points="173,-0.5 173,-19.5 295,-19.5 295,-0.5 173,-0.5"/>
<text text-anchor="middle" x="234" y="-7.5" font-family="Helvetica,sans-Serif" font-size="10.00">LiquidCrystal::setCursor</text>
</a>
</g>
</g>
<!-- Node1&#45;&gt;Node21 -->
<g id="edge22" class="edge"><title>Node1&#45;&gt;Node21</title>
<path fill="none" stroke="midnightblue" d="M62.2035,-306.178C63.8715,-252.966 76.051,-105.825 158,-29 162.312,-24.9579 167.357,-21.7439 172.756,-19.1929"/>
<polygon fill="midnightblue" stroke="midnightblue" points="58.7015,-306.236 61.9827,-316.31 65.6998,-306.388 58.7015,-306.236"/>
</g>
<!-- Node4 -->
<g id="node4" class="node"><title>Node4</title>
<g id="a_node4"><a xlink:href="$classLiquidCrystal.html#ae45eec827b26174f73e9cf3ddda635af" xlink:title="LiquidCrystal::init">
<polygon fill="white" stroke="black" points="486,-525.5 486,-544.5 578,-544.5 578,-525.5 486,-525.5"/>
<text text-anchor="middle" x="532" y="-532.5" font-family="Helvetica,sans-Serif" font-size="10.00">LiquidCrystal::init</text>
</a>
</g>
</g>
<!-- Node3&#45;&gt;Node4 -->
<g id="edge3" class="edge"><title>Node3&#45;&gt;Node4</title>
<path fill="none" stroke="midnightblue" d="M459.563,-524.717C468.416,-525.992 477.4,-527.285 485.873,-528.504"/>
<polygon fill="midnightblue" stroke="midnightblue" points="460.054,-521.252 449.657,-523.292 459.056,-528.181 460.054,-521.252"/>
</g>
<!-- Node6 -->
<g id="node6" class="node"><title>Node6</title>
<g id="a_node6"><a xlink:href="$LCDTest_8pde.html#a4fc01d736fe50cf5b977f755b675f11d" xlink:title="setup">
<polygon fill="white" stroke="black" points="511.5,-487.5 511.5,-506.5 552.5,-506.5 552.5,-487.5 511.5,-487.5"/>
<text text-anchor="middle" x="532" y="-494.5" font-family="Helvetica,sans-Serif" font-size="10.00">setup</text>
</a>
</g>
</g>
<!-- Node3&#45;&gt;Node6 -->
<g id="edge5" class="edge"><title>Node3&#45;&gt;Node6</title>
<path fill="none" stroke="midnightblue" d="M459.618,-507.275C478.261,-504.591 497.481,-501.825 511.274,-499.839"/>
<polygon fill="midnightblue" stroke="midnightblue" points="459.056,-503.819 449.657,-508.708 460.054,-510.748 459.056,-503.819"/>
</g>
<!-- Node5 -->
<g id="node5" class="node"><title>Node5</title>
<g id="a_node5"><a xlink:href="$classLiquidCrystal.html#a30e3d865c4b4a003a36cb45903f93644" xlink:title="LiquidCrystal::LiquidCrystal">
<polygon fill="white" stroke="black" points="614.5,-525.5 614.5,-544.5 751.5,-544.5 751.5,-525.5 614.5,-525.5"/>
<text text-anchor="middle" x="683" y="-532.5" font-family="Helvetica,sans-Serif" font-size="10.00">LiquidCrystal::LiquidCrystal</text>
</a>
</g>
</g>
<!-- Node4&#45;&gt;Node5 -->
<g id="edge4" class="edge"><title>Node4&#45;&gt;Node5</title>
<path fill="none" stroke="midnightblue" d="M588.23,-535C596.698,-535 605.523,-535 614.225,-535"/>
<polygon fill="midnightblue" stroke="midnightblue" points="588.109,-531.5 578.109,-535 588.109,-538.5 588.109,-531.5"/>
</g>
<!-- Node8&#45;&gt;Node3 -->
<g id="edge8" class="edge"><title>Node8&#45;&gt;Node3</title>
<path fill="none" stroke="midnightblue" d="M295.217,-516C312.055,-516 330.179,-516 346.4,-516"/>
<polygon fill="midnightblue" stroke="midnightblue" points="294.927,-512.5 284.927,-516 294.927,-519.5 294.927,-512.5"/>
</g>
<!-- Node11&#45;&gt;Node3 -->
<g id="edge12" class="edge"><title>Node11&#45;&gt;Node3</title>
<path fill="none" stroke="midnightblue" d="M298.494,-415.2C302.495,-416.905 306.368,-418.829 310,-421 347.625,-443.488 378.635,-487.229 391.104,-506.497"/>
<polygon fill="midnightblue" stroke="midnightblue" points="299.573,-411.866 288.981,-411.604 297.098,-418.414 299.573,-411.866"/>
</g>
<!-- Node22 -->
<g id="node22" class="node"><title>Node22</title>
<g id="a_node22"><a xlink:href="$LCDTest_8pde.html#afe461d27b9c48d5921c00d521181f12f" xlink:title="loop">
<polygon fill="white" stroke="black" points="380.5,-0.5 380.5,-19.5 415.5,-19.5 415.5,-0.5 380.5,-0.5"/>
<text text-anchor="middle" x="398" y="-7.5" font-family="Helvetica,sans-Serif" font-size="10.00">loop</text>
</a>
</g>
</g>
<!-- Node21&#45;&gt;Node22 -->
<g id="edge23" class="edge"><title>Node21&#45;&gt;Node22</title>
<path fill="none" stroke="midnightblue" d="M305.425,-10C333.117,-10 362.487,-10 380.288,-10"/>
<polygon fill="midnightblue" stroke="midnightblue" points="305.323,-6.5001 295.323,-10 305.323,-13.5001 305.323,-6.5001"/>
</g>
</g>
</svg>
