<?xml version="1.0" encoding="UTF-8" standalone="no"?>
<!DOCTYPE svg PUBLIC "-//W3C//DTD SVG 1.1//EN"
 "http://www.w3.org/Graphics/SVG/1.1/DTD/svg11.dtd">
<!-- Generated by graphviz version 2.36.0 (20140111.2315)
 -->
<!-- Title: AP_Compass_HIL::init Pages: 1 -->
<svg width="666pt" height="28pt"
 viewBox="0.00 0.00 666.00 28.00" xmlns="http://www.w3.org/2000/svg" xmlns:xlink="http://www.w3.org/1999/xlink">
<g id="graph0" class="graph" transform="scale(1 1) rotate(0) translate(4 24)">
<title>AP_Compass_HIL::init</title>
<polygon fill="white" stroke="none" points="-4,4 -4,-24 662,-24 662,4 -4,4"/>
<!-- Node1 -->
<g id="node1" class="node"><title>Node1</title>
<polygon fill="#bfbfbf" stroke="black" points="0.5,-0.5 0.5,-19.5 117.5,-19.5 117.5,-0.5 0.5,-0.5"/>
<text text-anchor="middle" x="59" y="-7.5" font-family="Helvetica,sans-Serif" font-size="10.00">AP_Compass_HIL::init</text>
</g>
<!-- Node2 -->
<g id="node2" class="node"><title>Node2</title>
<g id="a_node2"><a xlink:href="$classAP__Compass__HIL.html#ae4ae94f11b8c05de50076d85fbcef0f1" xlink:title="AP_Compass_HIL::detect">
<polygon fill="white" stroke="black" points="154.5,-0.5 154.5,-19.5 285.5,-19.5 285.5,-0.5 154.5,-0.5"/>
<text text-anchor="middle" x="220" y="-7.5" font-family="Helvetica,sans-Serif" font-size="10.00">AP_Compass_HIL::detect</text>
</a>
</g>
</g>
<!-- Node1&#45;&gt;Node2 -->
<g id="edge1" class="edge"><title>Node1&#45;&gt;Node2</title>
<path fill="none" stroke="midnightblue" d="M128.031,-10C136.799,-10 145.757,-10 154.467,-10"/>
<polygon fill="midnightblue" stroke="midnightblue" points="127.852,-6.5001 117.852,-10 127.852,-13.5001 127.852,-6.5001"/>
</g>
<!-- Node3 -->
<g id="node3" class="node"><title>Node3</title>
<g id="a_node3"><a xlink:href="$classCompass.html#a1c48170d8c8966b22fb150b1634443ec" xlink:title="Compass::_detect_backends">
<polygon fill="white" stroke="black" points="322,-0.5 322,-19.5 466,-19.5 466,-0.5 322,-0.5"/>
<text text-anchor="middle" x="394" y="-7.5" font-family="Helvetica,sans-Serif" font-size="10.00">Compass::_detect_backends</text>
</a>
</g>
</g>
<!-- Node2&#45;&gt;Node3 -->
<g id="edge2" class="edge"><title>Node2&#45;&gt;Node3</title>
<path fill="none" stroke="midnightblue" d="M295.625,-10C304.299,-10 313.13,-10 321.757,-10"/>
<polygon fill="midnightblue" stroke="midnightblue" points="295.536,-6.5001 285.536,-10 295.536,-13.5001 295.536,-6.5001"/>
</g>
<!-- Node4 -->
<g id="node4" class="node"><title>Node4</title>
<g id="a_node4"><a xlink:href="$classCompass.html#a190aefc281aba88c7b16e4fc58035c5e" xlink:title="Compass::init">
<polygon fill="white" stroke="black" points="502.5,-0.5 502.5,-19.5 579.5,-19.5 579.5,-0.5 502.5,-0.5"/>
<text text-anchor="middle" x="541" y="-7.5" font-family="Helvetica,sans-Serif" font-size="10.00">Compass::init</text>
</a>
</g>
</g>
<!-- Node3&#45;&gt;Node4 -->
<g id="edge3" class="edge"><title>Node3&#45;&gt;Node4</title>
<path fill="none" stroke="midnightblue" d="M476.43,-10C485.424,-10 494.232,-10 502.289,-10"/>
<polygon fill="midnightblue" stroke="midnightblue" points="476.226,-6.5001 466.226,-10 476.226,-13.5001 476.226,-6.5001"/>
</g>
<!-- Node5 -->
<g id="node5" class="node"><title>Node5</title>
<g id="a_node5"><a xlink:href="$AHRS__Test_8pde.html#a7dfd9b79bc5a37d7df40207afbc5431f" xlink:title="setup">
<polygon fill="white" stroke="black" points="616.5,-0.5 616.5,-19.5 657.5,-19.5 657.5,-0.5 616.5,-0.5"/>
<text text-anchor="middle" x="637" y="-7.5" font-family="Helvetica,sans-Serif" font-size="10.00">setup</text>
</a>
</g>
</g>
<!-- Node4&#45;&gt;Node5 -->
<g id="edge4" class="edge"><title>Node4&#45;&gt;Node5</title>
<path fill="none" stroke="midnightblue" d="M589.829,-10C599.221,-10 608.569,-10 616.371,-10"/>
<polygon fill="midnightblue" stroke="midnightblue" points="589.692,-6.5001 579.692,-10 589.692,-13.5001 589.692,-6.5001"/>
</g>
</g>
</svg>
