<?xml version="1.0" encoding="UTF-8" standalone="no"?>
<!DOCTYPE svg PUBLIC "-//W3C//DTD SVG 1.1//EN"
 "http://www.w3.org/Graphics/SVG/1.1/DTD/svg11.dtd">
<!-- Generated by graphviz version 2.36.0 (20140111.2315)
 -->
<!-- Title: AP_SerialManager::protocol_match Pages: 1 -->
<svg width="556pt" height="239pt"
 viewBox="0.00 0.00 556.00 239.00" xmlns="http://www.w3.org/2000/svg" xmlns:xlink="http://www.w3.org/1999/xlink">
<g id="graph0" class="graph" transform="scale(1 1) rotate(0) translate(4 235)">
<title>AP_SerialManager::protocol_match</title>
<polygon fill="white" stroke="none" points="-4,4 -4,-235 552,-235 552,4 -4,4"/>
<!-- Node1 -->
<g id="node1" class="node"><title>Node1</title>
<polygon fill="#bfbfbf" stroke="black" points="0,-73 0,-103 138,-103 138,-73 0,-73"/>
<text text-anchor="start" x="8" y="-91" font-family="Helvetica,sans-Serif" font-size="10.00">AP_SerialManager::protocol</text>
<text text-anchor="middle" x="69" y="-80" font-family="Helvetica,sans-Serif" font-size="10.00">_match</text>
</g>
<!-- Node2 -->
<g id="node2" class="node"><title>Node2</title>
<g id="a_node2"><a xlink:href="$classAP__SerialManager.html#a98789d2356587b32dd3507578ca1d89d" xlink:title="AP_SerialManager::find\l_baudrate">
<polygon fill="white" stroke="black" points="174.5,-98 174.5,-128 293.5,-128 293.5,-98 174.5,-98"/>
<text text-anchor="start" x="182.5" y="-116" font-family="Helvetica,sans-Serif" font-size="10.00">AP_SerialManager::find</text>
<text text-anchor="middle" x="234" y="-105" font-family="Helvetica,sans-Serif" font-size="10.00">_baudrate</text>
</a>
</g>
</g>
<!-- Node1&#45;&gt;Node2 -->
<g id="edge1" class="edge"><title>Node1&#45;&gt;Node2</title>
<path fill="none" stroke="midnightblue" d="M148.125,-99.9824C156.971,-101.339 165.871,-102.704 174.405,-104.013"/>
<polygon fill="midnightblue" stroke="midnightblue" points="148.597,-96.5139 138.182,-98.4574 147.536,-103.433 148.597,-96.5139"/>
</g>
<!-- Node4 -->
<g id="node4" class="node"><title>Node4</title>
<g id="a_node4"><a xlink:href="$classAP__SerialManager.html#af80d1e798f50bcd4ffcff2f3313e3950" xlink:title="AP_SerialManager::find\l_serial">
<polygon fill="white" stroke="black" points="174.5,-147 174.5,-177 293.5,-177 293.5,-147 174.5,-147"/>
<text text-anchor="start" x="182.5" y="-165" font-family="Helvetica,sans-Serif" font-size="10.00">AP_SerialManager::find</text>
<text text-anchor="middle" x="234" y="-154" font-family="Helvetica,sans-Serif" font-size="10.00">_serial</text>
</a>
</g>
</g>
<!-- Node1&#45;&gt;Node4 -->
<g id="edge3" class="edge"><title>Node1&#45;&gt;Node4</title>
<path fill="none" stroke="midnightblue" d="M110.32,-107.451C129.523,-116.598 152.862,-127.546 174,-137 181.312,-140.27 189.178,-143.678 196.708,-146.888"/>
<polygon fill="midnightblue" stroke="midnightblue" points="111.785,-104.272 101.253,-103.119 108.768,-110.588 111.785,-104.272"/>
</g>
<!-- Node9 -->
<g id="node9" class="node"><title>Node9</title>
<g id="a_node9"><a xlink:href="$classAP__SerialManager.html#ac3c38f184c41fa2c2cff8bb4842c3ebe" xlink:title="AP_SerialManager::get\l_mavlink_channel">
<polygon fill="white" stroke="black" points="175.5,-49 175.5,-79 292.5,-79 292.5,-49 175.5,-49"/>
<text text-anchor="start" x="183.5" y="-67" font-family="Helvetica,sans-Serif" font-size="10.00">AP_SerialManager::get</text>
<text text-anchor="middle" x="234" y="-56" font-family="Helvetica,sans-Serif" font-size="10.00">_mavlink_channel</text>
</a>
</g>
</g>
<!-- Node1&#45;&gt;Node9 -->
<g id="edge9" class="edge"><title>Node1&#45;&gt;Node9</title>
<path fill="none" stroke="midnightblue" d="M148.121,-76.4975C157.321,-75.1429 166.579,-73.7797 175.425,-72.4773"/>
<polygon fill="midnightblue" stroke="midnightblue" points="147.566,-73.0415 138.182,-77.9609 148.585,-79.9668 147.566,-73.0415"/>
</g>
<!-- Node11 -->
<g id="node11" class="node"><title>Node11</title>
<g id="a_node11"><a xlink:href="$classAP__SerialManager.html#acad9b72c3b313f4e551be9f4861ffbf2" xlink:title="AP_SerialManager::set\l_console_baud">
<polygon fill="white" stroke="black" points="175.5,-0 175.5,-30 292.5,-30 292.5,-0 175.5,-0"/>
<text text-anchor="start" x="183.5" y="-18" font-family="Helvetica,sans-Serif" font-size="10.00">AP_SerialManager::set</text>
<text text-anchor="middle" x="234" y="-7" font-family="Helvetica,sans-Serif" font-size="10.00">_console_baud</text>
</a>
</g>
</g>
<!-- Node1&#45;&gt;Node11 -->
<g id="edge12" class="edge"><title>Node1&#45;&gt;Node11</title>
<path fill="none" stroke="midnightblue" d="M109.834,-68.6157C129.103,-59.397 152.637,-48.3695 174,-39 180.785,-36.0242 188.06,-32.9621 195.103,-30.0627"/>
<polygon fill="midnightblue" stroke="midnightblue" points="108.244,-65.4964 100.745,-72.9807 111.275,-71.8064 108.244,-65.4964"/>
</g>
<!-- Node3 -->
<g id="node3" class="node"><title>Node3</title>
<g id="a_node3"><a xlink:href="$classGCS__MAVLINK.html#a0680c93d81d7de3273931c5bccc890f5" xlink:title="GCS_MAVLINK::setup_uart">
<polygon fill="white" stroke="black" points="330,-97.5 330,-116.5 470,-116.5 470,-97.5 330,-97.5"/>
<text text-anchor="middle" x="400" y="-104.5" font-family="Helvetica,sans-Serif" font-size="10.00">GCS_MAVLINK::setup_uart</text>
</a>
</g>
</g>
<!-- Node2&#45;&gt;Node3 -->
<g id="edge2" class="edge"><title>Node2&#45;&gt;Node3</title>
<path fill="none" stroke="midnightblue" d="M304.013,-110.475C312.53,-110.164 321.24,-109.845 329.76,-109.533"/>
<polygon fill="midnightblue" stroke="midnightblue" points="303.61,-106.987 293.745,-110.851 303.866,-113.983 303.61,-106.987"/>
</g>
<!-- Node4&#45;&gt;Node3 -->
<g id="edge8" class="edge"><title>Node4&#45;&gt;Node3</title>
<path fill="none" stroke="midnightblue" d="M281.883,-143.239C297.122,-137.408 314.183,-131.162 330,-126 340.276,-122.646 351.537,-119.378 361.926,-116.523"/>
<polygon fill="midnightblue" stroke="midnightblue" points="280.229,-140.125 272.163,-146.994 282.752,-146.655 280.229,-140.125"/>
</g>
<!-- Node5 -->
<g id="node5" class="node"><title>Node5</title>
<g id="a_node5"><a xlink:href="$classAP__GPS.html#a91c760c11e577d49815bc1a0443cf7f6" xlink:title="Startup initialisation. ">
<polygon fill="white" stroke="black" points="362.5,-173.5 362.5,-192.5 437.5,-192.5 437.5,-173.5 362.5,-173.5"/>
<text text-anchor="middle" x="400" y="-180.5" font-family="Helvetica,sans-Serif" font-size="10.00">AP_GPS::init</text>
</a>
</g>
</g>
<!-- Node4&#45;&gt;Node5 -->
<g id="edge4" class="edge"><title>Node4&#45;&gt;Node5</title>
<path fill="none" stroke="midnightblue" d="M303.768,-170.806C323.773,-173.367 344.857,-176.067 362.087,-178.273"/>
<polygon fill="midnightblue" stroke="midnightblue" points="304.108,-167.321 293.745,-169.522 303.219,-174.264 304.108,-167.321"/>
</g>
<!-- Node7 -->
<g id="node7" class="node"><title>Node7</title>
<g id="a_node7"><a xlink:href="$classAP__Frsky__Telem.html#a081d1787f8ec08ca8c489fb5dc86393c" xlink:title="AP_Frsky_Telem::init">
<polygon fill="white" stroke="black" points="344.5,-135.5 344.5,-154.5 455.5,-154.5 455.5,-135.5 344.5,-135.5"/>
<text text-anchor="middle" x="400" y="-142.5" font-family="Helvetica,sans-Serif" font-size="10.00">AP_Frsky_Telem::init</text>
</a>
</g>
</g>
<!-- Node4&#45;&gt;Node7 -->
<g id="edge6" class="edge"><title>Node4&#45;&gt;Node7</title>
<path fill="none" stroke="midnightblue" d="M303.971,-154.851C317.501,-153.448 331.517,-151.995 344.494,-150.65"/>
<polygon fill="midnightblue" stroke="midnightblue" points="303.33,-151.398 293.745,-155.911 304.052,-158.361 303.33,-151.398"/>
</g>
<!-- Node8 -->
<g id="node8" class="node"><title>Node8</title>
<g id="a_node8"><a xlink:href="$classAP__Mount__Alexmos.html#a5fa7cd0a3d3c60bd6a2705075ee22359" xlink:title="AP_Mount_Alexmos::init">
<polygon fill="white" stroke="black" points="337.5,-211.5 337.5,-230.5 462.5,-230.5 462.5,-211.5 337.5,-211.5"/>
<text text-anchor="middle" x="400" y="-218.5" font-family="Helvetica,sans-Serif" font-size="10.00">AP_Mount_Alexmos::init</text>
</a>
</g>
</g>
<!-- Node4&#45;&gt;Node8 -->
<g id="edge7" class="edge"><title>Node4&#45;&gt;Node8</title>
<path fill="none" stroke="midnightblue" d="M277.267,-181.183C293.564,-188.212 312.473,-195.926 330,-202 339.862,-205.418 350.68,-208.638 360.767,-211.423"/>
<polygon fill="midnightblue" stroke="midnightblue" points="278.568,-177.933 268.003,-177.141 275.768,-184.348 278.568,-177.933"/>
</g>
<!-- Node6 -->
<g id="node6" class="node"><title>Node6</title>
<g id="a_node6"><a xlink:href="$AHRS__Test_8pde.html#a7dfd9b79bc5a37d7df40207afbc5431f" xlink:title="setup">
<polygon fill="white" stroke="black" points="506.5,-173.5 506.5,-192.5 547.5,-192.5 547.5,-173.5 506.5,-173.5"/>
<text text-anchor="middle" x="527" y="-180.5" font-family="Helvetica,sans-Serif" font-size="10.00">setup</text>
</a>
</g>
</g>
<!-- Node5&#45;&gt;Node6 -->
<g id="edge5" class="edge"><title>Node5&#45;&gt;Node6</title>
<path fill="none" stroke="midnightblue" d="M447.861,-183C468.142,-183 490.77,-183 506.434,-183"/>
<polygon fill="midnightblue" stroke="midnightblue" points="447.828,-179.5 437.828,-183 447.828,-186.5 447.828,-179.5"/>
</g>
<!-- Node9&#45;&gt;Node3 -->
<g id="edge11" class="edge"><title>Node9&#45;&gt;Node3</title>
<path fill="none" stroke="midnightblue" d="M302.048,-81.5798C322.695,-86.9932 344.65,-92.7498 362.438,-97.4135"/>
<polygon fill="midnightblue" stroke="midnightblue" points="302.92,-78.19 292.359,-79.0393 301.145,-84.9612 302.92,-78.19"/>
</g>
<!-- Node10 -->
<g id="node10" class="node"><title>Node10</title>
<g id="a_node10"><a xlink:href="$classAP__Mount__SToRM32.html#a1ea82beee21ad0c23b805514ddeb42de" xlink:title="AP_Mount_SToRM32::init">
<polygon fill="white" stroke="black" points="334.5,-54.5 334.5,-73.5 465.5,-73.5 465.5,-54.5 334.5,-54.5"/>
<text text-anchor="middle" x="400" y="-61.5" font-family="Helvetica,sans-Serif" font-size="10.00">AP_Mount_SToRM32::init</text>
</a>
</g>
</g>
<!-- Node9&#45;&gt;Node10 -->
<g id="edge10" class="edge"><title>Node9&#45;&gt;Node10</title>
<path fill="none" stroke="midnightblue" d="M303.072,-64C313.451,-64 324.137,-64 334.438,-64"/>
<polygon fill="midnightblue" stroke="midnightblue" points="302.82,-60.5001 292.82,-64 302.82,-67.5001 302.82,-60.5001"/>
</g>
</g>
</svg>
