<?xml version="1.0" encoding="UTF-8" standalone="no"?>
<!DOCTYPE svg PUBLIC "-//W3C//DTD SVG 1.1//EN"
 "http://www.w3.org/Graphics/SVG/1.1/DTD/svg11.dtd">
<!-- Generated by graphviz version 2.36.0 (20140111.2315)
 -->
<!-- Title: Linux::LinuxUARTDriver::_timer_tick Pages: 1 -->
<svg width="308pt" height="38pt"
 viewBox="0.00 0.00 308.00 38.00" xmlns="http://www.w3.org/2000/svg" xmlns:xlink="http://www.w3.org/1999/xlink">
<g id="graph0" class="graph" transform="scale(1 1) rotate(0) translate(4 34)">
<title>Linux::LinuxUARTDriver::_timer_tick</title>
<polygon fill="white" stroke="none" points="-4,4 -4,-34 304,-34 304,4 -4,4"/>
<!-- Node1 -->
<g id="node1" class="node"><title>Node1</title>
<polygon fill="#bfbfbf" stroke="black" points="0.5,-0 0.5,-30 123.5,-30 123.5,-0 0.5,-0"/>
<text text-anchor="start" x="8.5" y="-18" font-family="Helvetica,sans-Serif" font-size="10.00">Linux::LinuxUARTDriver</text>
<text text-anchor="middle" x="62" y="-7" font-family="Helvetica,sans-Serif" font-size="10.00">::_timer_tick</text>
</g>
<!-- Node2 -->
<g id="node2" class="node"><title>Node2</title>
<g id="a_node2"><a xlink:href="$classLinux_1_1LinuxSPIUARTDriver.html#ac4b32e65b3c492c093b3b3dae1997bcd" xlink:title="Linux::LinuxSPIUARTDriver\l::_timer_tick">
<polygon fill="white" stroke="black" points="160,-0 160,-30 300,-30 300,-0 160,-0"/>
<text text-anchor="start" x="168" y="-18" font-family="Helvetica,sans-Serif" font-size="10.00">Linux::LinuxSPIUARTDriver</text>
<text text-anchor="middle" x="230" y="-7" font-family="Helvetica,sans-Serif" font-size="10.00">::_timer_tick</text>
</a>
</g>
</g>
<!-- Node1&#45;&gt;Node2 -->
<g id="edge1" class="edge"><title>Node1&#45;&gt;Node2</title>
<path fill="none" stroke="midnightblue" d="M134.113,-15C142.6,-15 151.256,-15 159.717,-15"/>
<polygon fill="midnightblue" stroke="midnightblue" points="133.87,-11.5001 123.87,-15 133.87,-18.5001 133.87,-11.5001"/>
</g>
</g>
</svg>
