<?xml version="1.0" encoding="UTF-8" standalone="no"?>
<!DOCTYPE svg PUBLIC "-//W3C//DTD SVG 1.1//EN"
 "http://www.w3.org/Graphics/SVG/1.1/DTD/svg11.dtd">
<!-- Generated by graphviz version 2.36.0 (20140111.2315)
 -->
<!-- Title: AP_Frsky_Telem::send_mode Pages: 1 -->
<svg width="492pt" height="77pt"
 viewBox="0.00 0.00 492.00 77.00" xmlns="http://www.w3.org/2000/svg" xmlns:xlink="http://www.w3.org/1999/xlink">
<g id="graph0" class="graph" transform="scale(1 1) rotate(0) translate(4 73)">
<title>AP_Frsky_Telem::send_mode</title>
<polygon fill="white" stroke="none" points="-4,4 -4,-73 488,-73 488,4 -4,4"/>
<!-- Node1 -->
<g id="node1" class="node"><title>Node1</title>
<polygon fill="#bfbfbf" stroke="black" points="0.5,-22.5 0.5,-41.5 149.5,-41.5 149.5,-22.5 0.5,-22.5"/>
<text text-anchor="middle" x="75" y="-29.5" font-family="Helvetica,sans-Serif" font-size="10.00">AP_Frsky_Telem::send_mode</text>
</g>
<!-- Node2 -->
<g id="node2" class="node"><title>Node2</title>
<g id="a_node2"><a xlink:href="$classAP__Frsky__Telem.html#ae386d05deadb794547df5a4e22edcc8a" xlink:title="AP_Frsky_Telem::send\l_hub_frame">
<polygon fill="white" stroke="black" points="197.5,-39 197.5,-69 316.5,-69 316.5,-39 197.5,-39"/>
<text text-anchor="start" x="205.5" y="-57" font-family="Helvetica,sans-Serif" font-size="10.00">AP_Frsky_Telem::send</text>
<text text-anchor="middle" x="257" y="-46" font-family="Helvetica,sans-Serif" font-size="10.00">_hub_frame</text>
</a>
</g>
</g>
<!-- Node1&#45;&gt;Node2 -->
<g id="edge1" class="edge"><title>Node1&#45;&gt;Node2</title>
<path fill="none" stroke="midnightblue" d="M159.82,-42.2447C172.467,-43.7904 185.277,-45.3561 197.245,-46.8189"/>
<polygon fill="midnightblue" stroke="midnightblue" points="160.083,-38.7509 149.732,-41.0117 159.234,-45.6991 160.083,-38.7509"/>
</g>
<!-- Node4 -->
<g id="node4" class="node"><title>Node4</title>
<g id="a_node4"><a xlink:href="$classAP__Frsky__Telem.html#a89ada57d816dfa4246726c17aa7fd32f" xlink:title="AP_Frsky_Telem::sport_tick">
<polygon fill="white" stroke="black" points="186.5,-0.5 186.5,-19.5 327.5,-19.5 327.5,-0.5 186.5,-0.5"/>
<text text-anchor="middle" x="257" y="-7.5" font-family="Helvetica,sans-Serif" font-size="10.00">AP_Frsky_Telem::sport_tick</text>
</a>
</g>
</g>
<!-- Node1&#45;&gt;Node4 -->
<g id="edge3" class="edge"><title>Node1&#45;&gt;Node4</title>
<path fill="none" stroke="midnightblue" d="M159.76,-21.7626C168.69,-20.6712 177.702,-19.5697 186.443,-18.5015"/>
<polygon fill="midnightblue" stroke="midnightblue" points="159.234,-18.3009 149.732,-22.9883 160.083,-25.2491 159.234,-18.3009"/>
</g>
<!-- Node3 -->
<g id="node3" class="node"><title>Node3</title>
<g id="a_node3"><a xlink:href="$classAP__Frsky__Telem.html#a9c09b9a14c083f48e845d81484de9c0e" xlink:title="AP_Frsky_Telem::send\l_frames">
<polygon fill="white" stroke="black" points="364.5,-39 364.5,-69 483.5,-69 483.5,-39 364.5,-39"/>
<text text-anchor="start" x="372.5" y="-57" font-family="Helvetica,sans-Serif" font-size="10.00">AP_Frsky_Telem::send</text>
<text text-anchor="middle" x="424" y="-46" font-family="Helvetica,sans-Serif" font-size="10.00">_frames</text>
</a>
</g>
</g>
<!-- Node2&#45;&gt;Node3 -->
<g id="edge2" class="edge"><title>Node2&#45;&gt;Node3</title>
<path fill="none" stroke="midnightblue" d="M326.939,-54C339.351,-54 352.185,-54 364.274,-54"/>
<polygon fill="midnightblue" stroke="midnightblue" points="326.637,-50.5001 316.637,-54 326.637,-57.5001 326.637,-50.5001"/>
</g>
<!-- Node5 -->
<g id="node5" class="node"><title>Node5</title>
<g id="a_node5"><a xlink:href="$classAP__Frsky__Telem.html#a081d1787f8ec08ca8c489fb5dc86393c" xlink:title="AP_Frsky_Telem::init">
<polygon fill="white" stroke="black" points="368.5,-0.5 368.5,-19.5 479.5,-19.5 479.5,-0.5 368.5,-0.5"/>
<text text-anchor="middle" x="424" y="-7.5" font-family="Helvetica,sans-Serif" font-size="10.00">AP_Frsky_Telem::init</text>
</a>
</g>
</g>
<!-- Node4&#45;&gt;Node5 -->
<g id="edge4" class="edge"><title>Node4&#45;&gt;Node5</title>
<path fill="none" stroke="midnightblue" d="M338.182,-10C348.429,-10 358.724,-10 368.433,-10"/>
<polygon fill="midnightblue" stroke="midnightblue" points="337.975,-6.5001 327.975,-10 337.975,-13.5001 337.975,-6.5001"/>
</g>
</g>
</svg>
