<?xml version="1.0" encoding="UTF-8" standalone="no"?>
<!DOCTYPE svg PUBLIC "-//W3C//DTD SVG 1.1//EN"
 "http://www.w3.org/Graphics/SVG/1.1/DTD/svg11.dtd">
<!-- Generated by graphviz version 2.36.0 (20140111.2315)
 -->
<!-- Title: NavEKF::ResetHeight Pages: 1 -->
<svg width="460pt" height="216pt"
 viewBox="0.00 0.00 460.00 216.00" xmlns="http://www.w3.org/2000/svg" xmlns:xlink="http://www.w3.org/1999/xlink">
<g id="graph0" class="graph" transform="scale(1 1) rotate(0) translate(4 212)">
<title>NavEKF::ResetHeight</title>
<polygon fill="white" stroke="none" points="-4,4 -4,-212 456,-212 456,4 -4,4"/>
<!-- Node1 -->
<g id="node1" class="node"><title>Node1</title>
<polygon fill="#bfbfbf" stroke="black" points="0.5,-76.5 0.5,-95.5 115.5,-95.5 115.5,-76.5 0.5,-76.5"/>
<text text-anchor="middle" x="58" y="-83.5" font-family="Helvetica,sans-Serif" font-size="10.00">NavEKF::ResetHeight</text>
</g>
<!-- Node2 -->
<g id="node2" class="node"><title>Node2</title>
<g id="a_node2"><a xlink:href="$classNavEKF.html#a87c71e92e35c460ff8f026333dc1e813" xlink:title="NavEKF::readHgtData">
<polygon fill="white" stroke="black" points="152,-76.5 152,-95.5 268,-95.5 268,-76.5 152,-76.5"/>
<text text-anchor="middle" x="210" y="-83.5" font-family="Helvetica,sans-Serif" font-size="10.00">NavEKF::readHgtData</text>
</a>
</g>
</g>
<!-- Node1&#45;&gt;Node2 -->
<g id="edge1" class="edge"><title>Node1&#45;&gt;Node2</title>
<path fill="none" stroke="midnightblue" d="M115.709,-86C124.176,-86 132.975,-86 141.636,-86"/>
<polygon fill="midnightblue" stroke="midnightblue" points="141.713,-89.5001 151.713,-86 141.713,-82.5001 141.713,-89.5001"/>
</g>
<!-- Node3 -->
<g id="node3" class="node"><title>Node3</title>
<g id="a_node3"><a xlink:href="$classAP__Baro.html#aae5b3ae28aca807eb20b722a04685061" xlink:title="AP_Baro::get_last_update">
<polygon fill="white" stroke="black" points="312.5,-170.5 312.5,-189.5 443.5,-189.5 443.5,-170.5 312.5,-170.5"/>
<text text-anchor="middle" x="378" y="-177.5" font-family="Helvetica,sans-Serif" font-size="10.00">AP_Baro::get_last_update</text>
</a>
</g>
</g>
<!-- Node2&#45;&gt;Node3 -->
<g id="edge2" class="edge"><title>Node2&#45;&gt;Node3</title>
<path fill="none" stroke="midnightblue" d="M220.077,-95.6054C235.703,-111.574 269.36,-143.55 304,-161 308.633,-163.334 313.579,-165.4 318.632,-167.226"/>
<polygon fill="midnightblue" stroke="midnightblue" points="317.831,-170.647 328.424,-170.448 320.019,-163.998 317.831,-170.647"/>
</g>
<!-- Node4 -->
<g id="node4" class="node"><title>Node4</title>
<g id="a_node4"><a xlink:href="$classAP__Baro.html#a984b4dbc11e276e832467253590da933" xlink:title="AP_Baro::get_altitude">
<polygon fill="white" stroke="black" points="322,-114.5 322,-133.5 434,-133.5 434,-114.5 322,-114.5"/>
<text text-anchor="middle" x="378" y="-121.5" font-family="Helvetica,sans-Serif" font-size="10.00">AP_Baro::get_altitude</text>
</a>
</g>
</g>
<!-- Node2&#45;&gt;Node4 -->
<g id="edge4" class="edge"><title>Node2&#45;&gt;Node4</title>
<path fill="none" stroke="midnightblue" d="M252.889,-95.589C274.893,-100.626 302.055,-106.844 325.352,-112.177"/>
<polygon fill="midnightblue" stroke="midnightblue" points="324.884,-115.66 335.412,-114.48 326.446,-108.837 324.884,-115.66"/>
</g>
<!-- Node5 -->
<g id="node5" class="node"><title>Node5</title>
<g id="a_node5"><a xlink:href="$classNavEKF.html#a46acab5de021fea9824f4b5bed04e3e9" xlink:title="NavEKF::RecallStates">
<polygon fill="white" stroke="black" points="320,-76.5 320,-95.5 436,-95.5 436,-76.5 320,-76.5"/>
<text text-anchor="middle" x="378" y="-83.5" font-family="Helvetica,sans-Serif" font-size="10.00">NavEKF::RecallStates</text>
</a>
</g>
</g>
<!-- Node2&#45;&gt;Node5 -->
<g id="edge6" class="edge"><title>Node2&#45;&gt;Node5</title>
<path fill="none" stroke="midnightblue" d="M268.128,-86C281.431,-86 295.719,-86 309.425,-86"/>
<polygon fill="midnightblue" stroke="midnightblue" points="309.767,-89.5001 319.767,-86 309.767,-82.5001 309.767,-89.5001"/>
</g>
<!-- Node6 -->
<g id="node6" class="node"><title>Node6</title>
<g id="a_node6"><a xlink:href="$classNavEKF.html#a3108596d21f107f9b35517900bb82569" xlink:title="NavEKF::getTakeoffExpected">
<polygon fill="white" stroke="black" points="304,-38.5 304,-57.5 452,-57.5 452,-38.5 304,-38.5"/>
<text text-anchor="middle" x="378" y="-45.5" font-family="Helvetica,sans-Serif" font-size="10.00">NavEKF::getTakeoffExpected</text>
</a>
</g>
</g>
<!-- Node2&#45;&gt;Node6 -->
<g id="edge7" class="edge"><title>Node2&#45;&gt;Node6</title>
<path fill="none" stroke="midnightblue" d="M252.889,-76.411C274.893,-71.3739 302.055,-65.1562 325.352,-59.8229"/>
<polygon fill="midnightblue" stroke="midnightblue" points="326.446,-63.1633 335.412,-57.5201 324.884,-56.3398 326.446,-63.1633"/>
</g>
<!-- Node7 -->
<g id="node7" class="node"><title>Node7</title>
<g id="a_node7"><a xlink:href="$AP__Math_8cpp.html#a08eedb329d8162ddbd344d4f6c8cde20" xlink:title="constrain_float">
<polygon fill="white" stroke="black" points="338,-0.5 338,-19.5 418,-19.5 418,-0.5 338,-0.5"/>
<text text-anchor="middle" x="378" y="-7.5" font-family="Helvetica,sans-Serif" font-size="10.00">constrain_float</text>
</a>
</g>
</g>
<!-- Node2&#45;&gt;Node7 -->
<g id="edge8" class="edge"><title>Node2&#45;&gt;Node7</title>
<path fill="none" stroke="midnightblue" d="M223.881,-76.3883C241.243,-63.846 273.505,-41.9736 304,-29 311.539,-25.7926 319.753,-23.0181 327.862,-20.6565"/>
<polygon fill="midnightblue" stroke="midnightblue" points="328.927,-23.994 337.649,-17.9793 327.079,-17.2421 328.927,-23.994"/>
</g>
<!-- Node3&#45;&gt;Node3 -->
<g id="edge3" class="edge"><title>Node3&#45;&gt;Node3</title>
<path fill="none" stroke="midnightblue" d="M352.106,-189.757C339.509,-198.565 348.141,-208 378,-208 398.062,-208 408.541,-203.741 409.437,-198.275"/>
<polygon fill="midnightblue" stroke="midnightblue" points="412.282,-196.229 403.894,-189.757 406.415,-200.048 412.282,-196.229"/>
</g>
<!-- Node4&#45;&gt;Node4 -->
<g id="edge5" class="edge"><title>Node4&#45;&gt;Node4</title>
<path fill="none" stroke="midnightblue" d="M352.106,-133.757C339.509,-142.565 348.141,-152 378,-152 398.062,-152 408.541,-147.741 409.437,-142.275"/>
<polygon fill="midnightblue" stroke="midnightblue" points="412.282,-140.229 403.894,-133.757 406.415,-144.048 412.282,-140.229"/>
</g>
</g>
</svg>
