<?xml version="1.0" encoding="UTF-8" standalone="no"?>
<!DOCTYPE svg PUBLIC "-//W3C//DTD SVG 1.1//EN"
 "http://www.w3.org/Graphics/SVG/1.1/DTD/svg11.dtd">
<!-- Generated by graphviz version 2.36.0 (20140111.2315)
 -->
<!-- Title: AP_AutoTune::save_float_if_changed Pages: 1 -->
<svg width="648pt" height="126pt"
 viewBox="0.00 0.00 648.00 126.00" xmlns="http://www.w3.org/2000/svg" xmlns:xlink="http://www.w3.org/1999/xlink">
<g id="graph0" class="graph" transform="scale(1 1) rotate(0) translate(4 122)">
<title>AP_AutoTune::save_float_if_changed</title>
<polygon fill="white" stroke="none" points="-4,4 -4,-122 644,-122 644,4 -4,4"/>
<!-- Node1 -->
<g id="node1" class="node"><title>Node1</title>
<polygon fill="#bfbfbf" stroke="black" points="0,-44 0,-74 128,-74 128,-44 0,-44"/>
<text text-anchor="start" x="8" y="-62" font-family="Helvetica,sans-Serif" font-size="10.00">AP_AutoTune::save_float</text>
<text text-anchor="middle" x="64" y="-51" font-family="Helvetica,sans-Serif" font-size="10.00">_if_changed</text>
</g>
<!-- Node2 -->
<g id="node2" class="node"><title>Node2</title>
<g id="a_node2"><a xlink:href="$classAP__AutoTune.html#a1c95b6055ee1b2333fbe753e2a9fa66d" xlink:title="AP_AutoTune::log_param\l_change">
<polygon fill="white" stroke="black" points="164,-44 164,-74 292,-74 292,-44 164,-44"/>
<text text-anchor="start" x="172" y="-62" font-family="Helvetica,sans-Serif" font-size="10.00">AP_AutoTune::log_param</text>
<text text-anchor="middle" x="228" y="-51" font-family="Helvetica,sans-Serif" font-size="10.00">_change</text>
</a>
</g>
</g>
<!-- Node1&#45;&gt;Node2 -->
<g id="edge1" class="edge"><title>Node1&#45;&gt;Node2</title>
<path fill="none" stroke="midnightblue" d="M128.097,-59C136.435,-59 145.038,-59 153.53,-59"/>
<polygon fill="midnightblue" stroke="midnightblue" points="153.808,-62.5001 163.808,-59 153.808,-55.5001 153.808,-62.5001"/>
</g>
<!-- Node3 -->
<g id="node3" class="node"><title>Node3</title>
<g id="a_node3"><a xlink:href="$classDataFlash__Class.html#ad15905fd635a59cc510a7781a9c4f3d9" xlink:title="DataFlash_Class::logging\l_started">
<polygon fill="white" stroke="black" points="328.5,-88 328.5,-118 457.5,-118 457.5,-88 328.5,-88"/>
<text text-anchor="start" x="336.5" y="-106" font-family="Helvetica,sans-Serif" font-size="10.00">DataFlash_Class::logging</text>
<text text-anchor="middle" x="393" y="-95" font-family="Helvetica,sans-Serif" font-size="10.00">_started</text>
</a>
</g>
</g>
<!-- Node2&#45;&gt;Node3 -->
<g id="edge2" class="edge"><title>Node2&#45;&gt;Node3</title>
<path fill="none" stroke="midnightblue" d="M284.639,-74.0192C298.072,-77.6452 312.55,-81.5534 326.392,-85.2899"/>
<polygon fill="midnightblue" stroke="midnightblue" points="325.768,-88.7467 336.335,-87.9738 327.592,-81.9886 325.768,-88.7467"/>
</g>
<!-- Node4 -->
<g id="node4" class="node"><title>Node4</title>
<g id="a_node4"><a xlink:href="$AP__Progmem__AVR_8h.html#a00eef44be35a92b1ef4067ea49bea7a3" xlink:title="strncpy_P">
<polygon fill="white" stroke="black" points="362.5,-49.5 362.5,-68.5 423.5,-68.5 423.5,-49.5 362.5,-49.5"/>
<text text-anchor="middle" x="393" y="-56.5" font-family="Helvetica,sans-Serif" font-size="10.00">strncpy_P</text>
</a>
</g>
</g>
<!-- Node2&#45;&gt;Node4 -->
<g id="edge3" class="edge"><title>Node2&#45;&gt;Node4</title>
<path fill="none" stroke="midnightblue" d="M292.02,-59C312.24,-59 334.062,-59 352.144,-59"/>
<polygon fill="midnightblue" stroke="midnightblue" points="352.318,-62.5001 362.318,-59 352.318,-55.5001 352.318,-62.5001"/>
</g>
<!-- Node5 -->
<g id="node5" class="node"><title>Node5</title>
<g id="a_node5"><a xlink:href="$classDataFlash__Class.html#a488ee9ba241f827fcb979dbccfdab76d" xlink:title="DataFlash_Class::Log\l_Write_Parameter">
<polygon fill="white" stroke="black" points="336,-0 336,-30 450,-30 450,-0 336,-0"/>
<text text-anchor="start" x="344" y="-18" font-family="Helvetica,sans-Serif" font-size="10.00">DataFlash_Class::Log</text>
<text text-anchor="middle" x="393" y="-7" font-family="Helvetica,sans-Serif" font-size="10.00">_Write_Parameter</text>
</a>
</g>
</g>
<!-- Node2&#45;&gt;Node5 -->
<g id="edge4" class="edge"><title>Node2&#45;&gt;Node5</title>
<path fill="none" stroke="midnightblue" d="M284.639,-43.9808C298.072,-40.3548 312.55,-36.4466 326.392,-32.7101"/>
<polygon fill="midnightblue" stroke="midnightblue" points="327.592,-36.0114 336.335,-30.0262 325.768,-29.2533 327.592,-36.0114"/>
</g>
<!-- Node6 -->
<g id="node6" class="node"><title>Node6</title>
<g id="a_node6"><a xlink:href="$classDataFlash__Class.html#af5e6aefb8f2136e9104be836dac88625" xlink:title="DataFlash_Class::WriteBlock">
<polygon fill="white" stroke="black" points="494,-5.5 494,-24.5 640,-24.5 640,-5.5 494,-5.5"/>
<text text-anchor="middle" x="567" y="-12.5" font-family="Helvetica,sans-Serif" font-size="10.00">DataFlash_Class::WriteBlock</text>
</a>
</g>
</g>
<!-- Node5&#45;&gt;Node6 -->
<g id="edge5" class="edge"><title>Node5&#45;&gt;Node6</title>
<path fill="none" stroke="midnightblue" d="M450.319,-15C460.971,-15 472.315,-15 483.577,-15"/>
<polygon fill="midnightblue" stroke="midnightblue" points="483.874,-18.5001 493.874,-15 483.874,-11.5001 483.874,-18.5001"/>
</g>
</g>
</svg>
