<?xml version="1.0" encoding="UTF-8" standalone="no"?>
<!DOCTYPE svg PUBLIC "-//W3C//DTD SVG 1.1//EN"
 "http://www.w3.org/Graphics/SVG/1.1/DTD/svg11.dtd">
<!-- Generated by graphviz version 2.36.0 (20140111.2315)
 -->
<!-- Title: RGBLed::hw_set_rgb Pages: 1 -->
<svg width="444pt" height="104pt"
 viewBox="0.00 0.00 444.00 104.00" xmlns="http://www.w3.org/2000/svg" xmlns:xlink="http://www.w3.org/1999/xlink">
<g id="graph0" class="graph" transform="scale(1 1) rotate(0) translate(4 100)">
<title>RGBLed::hw_set_rgb</title>
<polygon fill="white" stroke="none" points="-4,4 -4,-100 440,-100 440,4 -4,4"/>
<!-- Node1 -->
<g id="node1" class="node"><title>Node1</title>
<polygon fill="#bfbfbf" stroke="black" points="0,-38.5 0,-57.5 110,-57.5 110,-38.5 0,-38.5"/>
<text text-anchor="middle" x="55" y="-45.5" font-family="Helvetica,sans-Serif" font-size="10.00">RGBLed::hw_set_rgb</text>
</g>
<!-- Node2 -->
<g id="node2" class="node"><title>Node2</title>
<g id="a_node2"><a xlink:href="$classRGBLed.html#ac226b0a197dc8535b9a12fa43ac3eb57" xlink:title="RGBLed::set_rgb">
<polygon fill="white" stroke="black" points="146,-38.5 146,-57.5 238,-57.5 238,-38.5 146,-38.5"/>
<text text-anchor="middle" x="192" y="-45.5" font-family="Helvetica,sans-Serif" font-size="10.00">RGBLed::set_rgb</text>
</a>
</g>
</g>
<!-- Node1&#45;&gt;Node2 -->
<g id="edge1" class="edge"><title>Node1&#45;&gt;Node2</title>
<path fill="none" stroke="midnightblue" d="M120.261,-48C128.946,-48 137.704,-48 145.956,-48"/>
<polygon fill="midnightblue" stroke="midnightblue" points="120.132,-44.5001 110.132,-48 120.132,-51.5001 120.132,-44.5001"/>
</g>
<!-- Node3 -->
<g id="node3" class="node"><title>Node3</title>
<g id="a_node3"><a xlink:href="$ToshibaLED__test_8pde.html#ad67671ab8984d9ed8e667c740735dd94" xlink:title="full_spectrum">
<polygon fill="white" stroke="black" points="281.5,-76.5 281.5,-95.5 356.5,-95.5 356.5,-76.5 281.5,-76.5"/>
<text text-anchor="middle" x="319" y="-83.5" font-family="Helvetica,sans-Serif" font-size="10.00">full_spectrum</text>
</a>
</g>
</g>
<!-- Node2&#45;&gt;Node3 -->
<g id="edge2" class="edge"><title>Node2&#45;&gt;Node3</title>
<path fill="none" stroke="midnightblue" d="M234.235,-60.5353C251.239,-65.7048 270.629,-71.5991 286.467,-76.4141"/>
<polygon fill="midnightblue" stroke="midnightblue" points="235.128,-57.149 224.543,-57.589 233.092,-63.8463 235.128,-57.149"/>
</g>
<!-- Node4 -->
<g id="node4" class="node"><title>Node4</title>
<g id="a_node4"><a xlink:href="$ToshibaLED__test_8pde.html#a5664bd38fc668253a0152e6b319aafbb" xlink:title="blink">
<polygon fill="white" stroke="black" points="300.5,-38.5 300.5,-57.5 337.5,-57.5 337.5,-38.5 300.5,-38.5"/>
<text text-anchor="middle" x="319" y="-45.5" font-family="Helvetica,sans-Serif" font-size="10.00">blink</text>
</a>
</g>
</g>
<!-- Node2&#45;&gt;Node4 -->
<g id="edge3" class="edge"><title>Node2&#45;&gt;Node4</title>
<path fill="none" stroke="midnightblue" d="M248.14,-48C266.945,-48 286.652,-48 300.323,-48"/>
<polygon fill="midnightblue" stroke="midnightblue" points="248.128,-44.5001 238.128,-48 248.128,-51.5001 248.128,-44.5001"/>
</g>
<!-- Node5 -->
<g id="node5" class="node"><title>Node5</title>
<g id="a_node5"><a xlink:href="$classRGBLed.html#ab945365164159e3bce17c7fe88e83afc" xlink:title="RGBLed::update">
<polygon fill="white" stroke="black" points="274.5,-0.5 274.5,-19.5 363.5,-19.5 363.5,-0.5 274.5,-0.5"/>
<text text-anchor="middle" x="319" y="-7.5" font-family="Helvetica,sans-Serif" font-size="10.00">RGBLed::update</text>
</a>
</g>
</g>
<!-- Node2&#45;&gt;Node5 -->
<g id="edge4" class="edge"><title>Node2&#45;&gt;Node5</title>
<path fill="none" stroke="midnightblue" d="M234.235,-35.4647C251.239,-30.2952 270.629,-24.4009 286.467,-19.5859"/>
<polygon fill="midnightblue" stroke="midnightblue" points="233.092,-32.1537 224.543,-38.411 235.128,-38.851 233.092,-32.1537"/>
</g>
<!-- Node6 -->
<g id="node6" class="node"><title>Node6</title>
<g id="a_node6"><a xlink:href="$ToshibaLED__test_8pde.html#a0b33edabd7f1c4e4a0bf32c67269be2f" xlink:title="loop">
<polygon fill="white" stroke="black" points="400.5,-0.5 400.5,-19.5 435.5,-19.5 435.5,-0.5 400.5,-0.5"/>
<text text-anchor="middle" x="418" y="-7.5" font-family="Helvetica,sans-Serif" font-size="10.00">loop</text>
</a>
</g>
</g>
<!-- Node5&#45;&gt;Node6 -->
<g id="edge5" class="edge"><title>Node5&#45;&gt;Node6</title>
<path fill="none" stroke="midnightblue" d="M373.816,-10C383.511,-10 392.918,-10 400.465,-10"/>
<polygon fill="midnightblue" stroke="midnightblue" points="373.676,-6.5001 363.676,-10 373.676,-13.5001 373.676,-6.5001"/>
</g>
</g>
</svg>
