<?xml version="1.0" encoding="UTF-8" standalone="no"?>
<!DOCTYPE svg PUBLIC "-//W3C//DTD SVG 1.1//EN"
 "http://www.w3.org/Graphics/SVG/1.1/DTD/svg11.dtd">
<!-- Generated by graphviz version 2.36.0 (20140111.2315)
 -->
<!-- Title: Linux::LinuxRCInput_PRU::init Pages: 1 -->
<svg width="278pt" height="115pt"
 viewBox="0.00 0.00 278.00 115.00" xmlns="http://www.w3.org/2000/svg" xmlns:xlink="http://www.w3.org/1999/xlink">
<g id="graph0" class="graph" transform="scale(1 1) rotate(0) translate(4 111)">
<title>Linux::LinuxRCInput_PRU::init</title>
<polygon fill="white" stroke="none" points="-4,4 -4,-111 274,-111 274,4 -4,4"/>
<!-- Node1 -->
<g id="node1" class="node"><title>Node1</title>
<polygon fill="#bfbfbf" stroke="black" points="0,-33 0,-63 106,-63 106,-33 0,-33"/>
<text text-anchor="start" x="8" y="-51" font-family="Helvetica,sans-Serif" font-size="10.00">Linux::LinuxRCInput</text>
<text text-anchor="middle" x="53" y="-40" font-family="Helvetica,sans-Serif" font-size="10.00">_PRU::init</text>
</g>
<!-- Node2 -->
<g id="node2" class="node"><title>Node2</title>
<g id="a_node2"><a xlink:href="$classAP__HAL_1_1Scheduler.html#a65f0d4e404d3e6fda4d8b0b101c9780f" xlink:title="AP_HAL::Scheduler::\lpanic">
<polygon fill="white" stroke="black" points="151,-77 151,-107 261,-107 261,-77 151,-77"/>
<text text-anchor="start" x="159" y="-95" font-family="Helvetica,sans-Serif" font-size="10.00">AP_HAL::Scheduler::</text>
<text text-anchor="middle" x="206" y="-84" font-family="Helvetica,sans-Serif" font-size="10.00">panic</text>
</a>
</g>
</g>
<!-- Node1&#45;&gt;Node2 -->
<g id="edge1" class="edge"><title>Node1&#45;&gt;Node2</title>
<path fill="none" stroke="midnightblue" d="M105.543,-63.0192C117.745,-66.5748 130.879,-70.4018 143.475,-74.0721"/>
<polygon fill="midnightblue" stroke="midnightblue" points="142.853,-77.5364 153.433,-76.9738 144.811,-70.8159 142.853,-77.5364"/>
</g>
<!-- Node3 -->
<g id="node3" class="node"><title>Node3</title>
<g id="a_node3"><a xlink:href="$classAP__HAL_1_1GPIO.html#a3dfc60214bd1aa4936d51ca72c045b95" xlink:title="AP_HAL::GPIO::pinMode">
<polygon fill="white" stroke="black" points="142,-38.5 142,-57.5 270,-57.5 270,-38.5 142,-38.5"/>
<text text-anchor="middle" x="206" y="-45.5" font-family="Helvetica,sans-Serif" font-size="10.00">AP_HAL::GPIO::pinMode</text>
</a>
</g>
</g>
<!-- Node1&#45;&gt;Node3 -->
<g id="edge2" class="edge"><title>Node1&#45;&gt;Node3</title>
<path fill="none" stroke="midnightblue" d="M106.389,-48C114.593,-48 123.2,-48 131.767,-48"/>
<polygon fill="midnightblue" stroke="midnightblue" points="131.781,-51.5001 141.781,-48 131.781,-44.5001 131.781,-51.5001"/>
</g>
<!-- Node4 -->
<g id="node4" class="node"><title>Node4</title>
<g id="a_node4"><a xlink:href="$classAP__HAL_1_1GPIO.html#a2b0664bdab1876e3b0bbcd9064eec88e" xlink:title="AP_HAL::GPIO::write">
<polygon fill="white" stroke="black" points="149.5,-0.5 149.5,-19.5 262.5,-19.5 262.5,-0.5 149.5,-0.5"/>
<text text-anchor="middle" x="206" y="-7.5" font-family="Helvetica,sans-Serif" font-size="10.00">AP_HAL::GPIO::write</text>
</a>
</g>
</g>
<!-- Node1&#45;&gt;Node4 -->
<g id="edge3" class="edge"><title>Node1&#45;&gt;Node4</title>
<path fill="none" stroke="midnightblue" d="M106.389,-34.8161C122.895,-30.6622 141.033,-26.0978 157.202,-22.0287"/>
<polygon fill="midnightblue" stroke="midnightblue" points="158.14,-25.4019 166.983,-19.5672 156.431,-18.6135 158.14,-25.4019"/>
</g>
</g>
</svg>
