<?xml version="1.0" encoding="UTF-8" standalone="no"?>
<!DOCTYPE svg PUBLIC "-//W3C//DTD SVG 1.1//EN"
 "http://www.w3.org/Graphics/SVG/1.1/DTD/svg11.dtd">
<!-- Generated by graphviz version 2.36.0 (20140111.2315)
 -->
<!-- Title: VRBRAIN::VRBRAINUARTDriver::begin Pages: 1 -->
<svg width="992pt" height="283pt"
 viewBox="0.00 0.00 992.00 283.00" xmlns="http://www.w3.org/2000/svg" xmlns:xlink="http://www.w3.org/1999/xlink">
<g id="graph0" class="graph" transform="scale(1 1) rotate(0) translate(4 279)">
<title>VRBRAIN::VRBRAINUARTDriver::begin</title>
<polygon fill="white" stroke="none" points="-4,4 -4,-279 988,-279 988,4 -4,4"/>
<!-- Node1 -->
<g id="node1" class="node"><title>Node1</title>
<polygon fill="#bfbfbf" stroke="black" points="0,-147 0,-177 168,-177 168,-147 0,-147"/>
<text text-anchor="start" x="8" y="-165" font-family="Helvetica,sans-Serif" font-size="10.00">VRBRAIN::VRBRAINUARTDriver</text>
<text text-anchor="middle" x="84" y="-154" font-family="Helvetica,sans-Serif" font-size="10.00">::begin</text>
</g>
<!-- Node2 -->
<g id="node2" class="node"><title>Node2</title>
<g id="a_node2"><a xlink:href="$classVRBRAIN_1_1VRBRAINUARTDriver.html#acc8033869efd9f2f6012ecda5373aa3b" xlink:title="VRBRAIN::VRBRAINUARTDriver\l::try_initialise">
<polygon fill="white" stroke="black" points="204,-147 204,-177 372,-177 372,-147 204,-147"/>
<text text-anchor="start" x="212" y="-165" font-family="Helvetica,sans-Serif" font-size="10.00">VRBRAIN::VRBRAINUARTDriver</text>
<text text-anchor="middle" x="288" y="-154" font-family="Helvetica,sans-Serif" font-size="10.00">::try_initialise</text>
</a>
</g>
</g>
<!-- Node1&#45;&gt;Node2 -->
<g id="edge1" class="edge"><title>Node1&#45;&gt;Node2</title>
<path fill="none" stroke="midnightblue" d="M178.109,-162C186.734,-162 195.435,-162 203.96,-162"/>
<polygon fill="midnightblue" stroke="midnightblue" points="178.036,-158.5 168.036,-162 178.036,-165.5 178.036,-158.5"/>
</g>
<!-- Node3 -->
<g id="node3" class="node"><title>Node3</title>
<g id="a_node3"><a xlink:href="$classVRBRAIN_1_1VRBRAINUARTDriver.html#ac482ec7548dcdcdfc383ebf1df411a53" xlink:title="VRBRAIN::VRBRAINUARTDriver\l::is_initialized">
<polygon fill="white" stroke="black" points="408,-245 408,-275 576,-275 576,-245 408,-245"/>
<text text-anchor="start" x="416" y="-263" font-family="Helvetica,sans-Serif" font-size="10.00">VRBRAIN::VRBRAINUARTDriver</text>
<text text-anchor="middle" x="492" y="-252" font-family="Helvetica,sans-Serif" font-size="10.00">::is_initialized</text>
</a>
</g>
</g>
<!-- Node2&#45;&gt;Node3 -->
<g id="edge2" class="edge"><title>Node2&#45;&gt;Node3</title>
<path fill="none" stroke="midnightblue" d="M318.425,-183.024C341.815,-198.989 375.837,-220.583 408,-235 416.24,-238.693 425.176,-242.029 434.03,-244.971"/>
<polygon fill="midnightblue" stroke="midnightblue" points="320.224,-180.013 310.007,-177.208 316.244,-185.772 320.224,-180.013"/>
</g>
<!-- Node4 -->
<g id="node4" class="node"><title>Node4</title>
<g id="a_node4"><a xlink:href="$classVRBRAIN_1_1VRBRAINUARTDriver.html#a55ac6c7557b2c3d79526f75c7ac4910f" xlink:title="VRBRAIN::VRBRAINUARTDriver\l::available">
<polygon fill="white" stroke="black" points="408,-196 408,-226 576,-226 576,-196 408,-196"/>
<text text-anchor="start" x="416" y="-214" font-family="Helvetica,sans-Serif" font-size="10.00">VRBRAIN::VRBRAINUARTDriver</text>
<text text-anchor="middle" x="492" y="-203" font-family="Helvetica,sans-Serif" font-size="10.00">::available</text>
</a>
</g>
</g>
<!-- Node2&#45;&gt;Node4 -->
<g id="edge3" class="edge"><title>Node2&#45;&gt;Node4</title>
<path fill="none" stroke="midnightblue" d="M360.746,-179.404C383.092,-184.824 407.529,-190.752 429.138,-195.994"/>
<polygon fill="midnightblue" stroke="midnightblue" points="361.523,-175.991 350.979,-177.035 359.872,-182.793 361.523,-175.991"/>
</g>
<!-- Node5 -->
<g id="node5" class="node"><title>Node5</title>
<g id="a_node5"><a xlink:href="$classVRBRAIN_1_1VRBRAINUARTDriver.html#a72c62e728ace6a020b7149a2ea207874" xlink:title="VRBRAIN::VRBRAINUARTDriver\l::txspace">
<polygon fill="white" stroke="black" points="408,-147 408,-177 576,-177 576,-147 408,-147"/>
<text text-anchor="start" x="416" y="-165" font-family="Helvetica,sans-Serif" font-size="10.00">VRBRAIN::VRBRAINUARTDriver</text>
<text text-anchor="middle" x="492" y="-154" font-family="Helvetica,sans-Serif" font-size="10.00">::txspace</text>
</a>
</g>
</g>
<!-- Node2&#45;&gt;Node5 -->
<g id="edge4" class="edge"><title>Node2&#45;&gt;Node5</title>
<path fill="none" stroke="midnightblue" d="M382.109,-162C390.734,-162 399.435,-162 407.96,-162"/>
<polygon fill="midnightblue" stroke="midnightblue" points="382.036,-158.5 372.036,-162 382.036,-165.5 382.036,-158.5"/>
</g>
<!-- Node6 -->
<g id="node6" class="node"><title>Node6</title>
<g id="a_node6"><a xlink:href="$classVRBRAIN_1_1VRBRAINUARTDriver.html#ab9f7ba0504452fd7320ed34a1f2a499f" xlink:title="VRBRAIN::VRBRAINUARTDriver\l::read">
<polygon fill="white" stroke="black" points="408,-98 408,-128 576,-128 576,-98 408,-98"/>
<text text-anchor="start" x="416" y="-116" font-family="Helvetica,sans-Serif" font-size="10.00">VRBRAIN::VRBRAINUARTDriver</text>
<text text-anchor="middle" x="492" y="-105" font-family="Helvetica,sans-Serif" font-size="10.00">::read</text>
</a>
</g>
</g>
<!-- Node2&#45;&gt;Node6 -->
<g id="edge5" class="edge"><title>Node2&#45;&gt;Node6</title>
<path fill="none" stroke="midnightblue" d="M360.746,-144.596C383.092,-139.176 407.529,-133.248 429.138,-128.006"/>
<polygon fill="midnightblue" stroke="midnightblue" points="359.872,-141.207 350.979,-146.965 361.523,-148.009 359.872,-141.207"/>
</g>
<!-- Node9 -->
<g id="node9" class="node"><title>Node9</title>
<g id="a_node9"><a xlink:href="$classVRBRAIN_1_1VRBRAINUARTDriver.html#a255b67303b401e64c49f9f0c44c68720" xlink:title="VRBRAIN::VRBRAINUARTDriver\l::write">
<polygon fill="white" stroke="black" points="408,-49 408,-79 576,-79 576,-49 408,-49"/>
<text text-anchor="start" x="416" y="-67" font-family="Helvetica,sans-Serif" font-size="10.00">VRBRAIN::VRBRAINUARTDriver</text>
<text text-anchor="middle" x="492" y="-56" font-family="Helvetica,sans-Serif" font-size="10.00">::write</text>
</a>
</g>
</g>
<!-- Node2&#45;&gt;Node9 -->
<g id="edge8" class="edge"><title>Node2&#45;&gt;Node9</title>
<path fill="none" stroke="midnightblue" d="M318.425,-140.976C341.815,-125.011 375.837,-103.417 408,-89 416.24,-85.3065 425.176,-81.9711 434.03,-79.0288"/>
<polygon fill="midnightblue" stroke="midnightblue" points="316.244,-138.228 310.007,-146.792 320.224,-143.987 316.244,-138.228"/>
</g>
<!-- Node7 -->
<g id="node7" class="node"><title>Node7</title>
<g id="a_node7"><a xlink:href="$classVRBRAIN_1_1VRBRAINUARTDriver.html#a0177a181f5bb9cbfda1d564f62711100" xlink:title="VRBRAIN::VRBRAINUARTDriver\l::_read_fd">
<polygon fill="white" stroke="black" points="612,-98 612,-128 780,-128 780,-98 612,-98"/>
<text text-anchor="start" x="620" y="-116" font-family="Helvetica,sans-Serif" font-size="10.00">VRBRAIN::VRBRAINUARTDriver</text>
<text text-anchor="middle" x="696" y="-105" font-family="Helvetica,sans-Serif" font-size="10.00">::_read_fd</text>
</a>
</g>
</g>
<!-- Node6&#45;&gt;Node7 -->
<g id="edge6" class="edge"><title>Node6&#45;&gt;Node7</title>
<path fill="none" stroke="midnightblue" d="M586.109,-113C594.734,-113 603.435,-113 611.96,-113"/>
<polygon fill="midnightblue" stroke="midnightblue" points="586.036,-109.5 576.036,-113 586.036,-116.5 586.036,-109.5"/>
</g>
<!-- Node8 -->
<g id="node8" class="node"><title>Node8</title>
<g id="a_node8"><a xlink:href="$classVRBRAIN_1_1VRBRAINUARTDriver.html#a72593c9ad60f292fe8c5b9cd5176e93b" xlink:title="VRBRAIN::VRBRAINUARTDriver\l::_timer_tick">
<polygon fill="white" stroke="black" points="816,-49 816,-79 984,-79 984,-49 816,-49"/>
<text text-anchor="start" x="824" y="-67" font-family="Helvetica,sans-Serif" font-size="10.00">VRBRAIN::VRBRAINUARTDriver</text>
<text text-anchor="middle" x="900" y="-56" font-family="Helvetica,sans-Serif" font-size="10.00">::_timer_tick</text>
</a>
</g>
</g>
<!-- Node7&#45;&gt;Node8 -->
<g id="edge7" class="edge"><title>Node7&#45;&gt;Node8</title>
<path fill="none" stroke="midnightblue" d="M768.746,-95.5962C791.092,-90.1757 815.529,-84.248 837.138,-79.0062"/>
<polygon fill="midnightblue" stroke="midnightblue" points="767.872,-92.2066 758.979,-97.9654 769.523,-99.0093 767.872,-92.2066"/>
</g>
<!-- Node10 -->
<g id="node10" class="node"><title>Node10</title>
<g id="a_node10"><a xlink:href="$classVRBRAIN_1_1VRBRAINUARTDriver.html#acbaf340daa822b61725298405720b8d3" xlink:title="VRBRAIN::VRBRAINUARTDriver\l::write">
<polygon fill="white" stroke="black" points="612,-49 612,-79 780,-79 780,-49 612,-49"/>
<text text-anchor="start" x="620" y="-67" font-family="Helvetica,sans-Serif" font-size="10.00">VRBRAIN::VRBRAINUARTDriver</text>
<text text-anchor="middle" x="696" y="-56" font-family="Helvetica,sans-Serif" font-size="10.00">::write</text>
</a>
</g>
</g>
<!-- Node9&#45;&gt;Node10 -->
<g id="edge9" class="edge"><title>Node9&#45;&gt;Node10</title>
<path fill="none" stroke="midnightblue" d="M586.109,-64C594.734,-64 603.435,-64 611.96,-64"/>
<polygon fill="midnightblue" stroke="midnightblue" points="586.036,-60.5001 576.036,-64 586.036,-67.5001 586.036,-60.5001"/>
</g>
<!-- Node11 -->
<g id="node11" class="node"><title>Node11</title>
<g id="a_node11"><a xlink:href="$classVRBRAIN_1_1VRBRAINUARTDriver.html#afc978b3e0b18ae4a113fe1c04de5fe13" xlink:title="VRBRAIN::VRBRAINUARTDriver\l::_write_fd">
<polygon fill="white" stroke="black" points="612,-0 612,-30 780,-30 780,-0 612,-0"/>
<text text-anchor="start" x="620" y="-18" font-family="Helvetica,sans-Serif" font-size="10.00">VRBRAIN::VRBRAINUARTDriver</text>
<text text-anchor="middle" x="696" y="-7" font-family="Helvetica,sans-Serif" font-size="10.00">::_write_fd</text>
</a>
</g>
</g>
<!-- Node9&#45;&gt;Node11 -->
<g id="edge10" class="edge"><title>Node9&#45;&gt;Node11</title>
<path fill="none" stroke="midnightblue" d="M564.746,-46.5962C587.092,-41.1757 611.529,-35.248 633.138,-30.0062"/>
<polygon fill="midnightblue" stroke="midnightblue" points="563.872,-43.2066 554.979,-48.9654 565.523,-50.0093 563.872,-43.2066"/>
</g>
<!-- Node11&#45;&gt;Node8 -->
<g id="edge11" class="edge"><title>Node11&#45;&gt;Node8</title>
<path fill="none" stroke="midnightblue" d="M768.746,-32.4038C791.092,-37.8243 815.529,-43.752 837.138,-48.9938"/>
<polygon fill="midnightblue" stroke="midnightblue" points="769.523,-28.9907 758.979,-30.0346 767.872,-35.7934 769.523,-28.9907"/>
</g>
</g>
</svg>
