<?xml version="1.0" encoding="UTF-8" standalone="no"?>
<!DOCTYPE svg PUBLIC "-//W3C//DTD SVG 1.1//EN"
 "http://www.w3.org/Graphics/SVG/1.1/DTD/svg11.dtd">
<!-- Generated by graphviz version 2.36.0 (20140111.2315)
 -->
<!-- Title: AP_Compass_AK8963::_register_write Pages: 1 -->
<svg width="1240pt" height="126pt"
 viewBox="0.00 0.00 1240.00 126.00" xmlns="http://www.w3.org/2000/svg" xmlns:xlink="http://www.w3.org/1999/xlink">
<g id="graph0" class="graph" transform="scale(1 1) rotate(0) translate(4 122)">
<title>AP_Compass_AK8963::_register_write</title>
<polygon fill="white" stroke="none" points="-4,4 -4,-122 1236,-122 1236,4 -4,4"/>
<!-- Node1 -->
<g id="node1" class="node"><title>Node1</title>
<polygon fill="#bfbfbf" stroke="black" points="0.5,-44 0.5,-74 123.5,-74 123.5,-44 0.5,-44"/>
<text text-anchor="start" x="8.5" y="-62" font-family="Helvetica,sans-Serif" font-size="10.00">AP_Compass_AK8963::</text>
<text text-anchor="middle" x="62" y="-51" font-family="Helvetica,sans-Serif" font-size="10.00">_register_write</text>
</g>
<!-- Node2 -->
<g id="node2" class="node"><title>Node2</title>
<g id="a_node2"><a xlink:href="$classAP__Compass__AK8963.html#ad72f424d1313f4ad5951ef6a2f399740" xlink:title="AP_Compass_AK8963::\l_calibrate">
<polygon fill="white" stroke="black" points="160.5,-88 160.5,-118 283.5,-118 283.5,-88 160.5,-88"/>
<text text-anchor="start" x="168.5" y="-106" font-family="Helvetica,sans-Serif" font-size="10.00">AP_Compass_AK8963::</text>
<text text-anchor="middle" x="222" y="-95" font-family="Helvetica,sans-Serif" font-size="10.00">_calibrate</text>
</a>
</g>
</g>
<!-- Node1&#45;&gt;Node2 -->
<g id="edge1" class="edge"><title>Node1&#45;&gt;Node2</title>
<path fill="none" stroke="midnightblue" d="M126.57,-76.7029C139.986,-80.4392 154.02,-84.3475 167.042,-87.9738"/>
<polygon fill="midnightblue" stroke="midnightblue" points="127.505,-73.3303 116.933,-74.0192 125.627,-80.0737 127.505,-73.3303"/>
</g>
<!-- Node3 -->
<g id="node3" class="node"><title>Node3</title>
<g id="a_node3"><a xlink:href="$classAP__Compass__AK8963.html#acdbf7f9d95111c8c6cf571da0b066bdd" xlink:title="AP_Compass_AK8963::init">
<polygon fill="white" stroke="black" points="320,-49.5 320,-68.5 456,-68.5 456,-49.5 320,-49.5"/>
<text text-anchor="middle" x="388" y="-56.5" font-family="Helvetica,sans-Serif" font-size="10.00">AP_Compass_AK8963::init</text>
</a>
</g>
</g>
<!-- Node1&#45;&gt;Node3 -->
<g id="edge10" class="edge"><title>Node1&#45;&gt;Node3</title>
<path fill="none" stroke="midnightblue" d="M133.632,-59C188.93,-59 265.332,-59 319.746,-59"/>
<polygon fill="midnightblue" stroke="midnightblue" points="133.562,-55.5001 123.562,-59 133.562,-62.5001 133.562,-55.5001"/>
</g>
<!-- Node9 -->
<g id="node9" class="node"><title>Node9</title>
<g id="a_node9"><a xlink:href="$classAP__Compass__AK8963.html#a6805981d0f247c3f120649ad48a3652c" xlink:title="AP_Compass_AK8963::\l_self_test">
<polygon fill="white" stroke="black" points="160.5,-0 160.5,-30 283.5,-30 283.5,-0 160.5,-0"/>
<text text-anchor="start" x="168.5" y="-18" font-family="Helvetica,sans-Serif" font-size="10.00">AP_Compass_AK8963::</text>
<text text-anchor="middle" x="222" y="-7" font-family="Helvetica,sans-Serif" font-size="10.00">_self_test</text>
</a>
</g>
</g>
<!-- Node1&#45;&gt;Node9 -->
<g id="edge8" class="edge"><title>Node1&#45;&gt;Node9</title>
<path fill="none" stroke="midnightblue" d="M126.57,-41.2971C139.986,-37.5608 154.02,-33.6525 167.042,-30.0262"/>
<polygon fill="midnightblue" stroke="midnightblue" points="125.627,-37.9263 116.933,-43.9808 127.505,-44.6697 125.627,-37.9263"/>
</g>
<!-- Node2&#45;&gt;Node3 -->
<g id="edge2" class="edge"><title>Node2&#45;&gt;Node3</title>
<path fill="none" stroke="midnightblue" d="M288.672,-85.3806C310.049,-79.6453 332.97,-73.4959 351.299,-68.5783"/>
<polygon fill="midnightblue" stroke="midnightblue" points="287.732,-82.0089 278.981,-87.9808 289.546,-88.7699 287.732,-82.0089"/>
</g>
<!-- Node4 -->
<g id="node4" class="node"><title>Node4</title>
<g id="a_node4"><a xlink:href="$classAP__Compass__AK8963__MPU9250.html#a8f1c4437b09e2fcb6e3b863a9a3c119d" xlink:title="AP_Compass_AK8963_MPU9250\l::init">
<polygon fill="white" stroke="black" points="492,-44 492,-74 658,-74 658,-44 492,-44"/>
<text text-anchor="start" x="500" y="-62" font-family="Helvetica,sans-Serif" font-size="10.00">AP_Compass_AK8963_MPU9250</text>
<text text-anchor="middle" x="575" y="-51" font-family="Helvetica,sans-Serif" font-size="10.00">::init</text>
</a>
</g>
</g>
<!-- Node3&#45;&gt;Node4 -->
<g id="edge3" class="edge"><title>Node3&#45;&gt;Node4</title>
<path fill="none" stroke="midnightblue" d="M466.219,-59C474.642,-59 483.239,-59 491.72,-59"/>
<polygon fill="midnightblue" stroke="midnightblue" points="466.051,-55.5001 456.051,-59 466.051,-62.5001 466.051,-55.5001"/>
</g>
<!-- Node5 -->
<g id="node5" class="node"><title>Node5</title>
<g id="a_node5"><a xlink:href="$classAP__Compass__AK8963__MPU9250.html#a6276a40d516ecd31513c02ecf84a666f" xlink:title="AP_Compass_AK8963_MPU9250\l::detect">
<polygon fill="white" stroke="black" points="694,-44 694,-74 860,-74 860,-44 694,-44"/>
<text text-anchor="start" x="702" y="-62" font-family="Helvetica,sans-Serif" font-size="10.00">AP_Compass_AK8963_MPU9250</text>
<text text-anchor="middle" x="777" y="-51" font-family="Helvetica,sans-Serif" font-size="10.00">::detect</text>
</a>
</g>
</g>
<!-- Node4&#45;&gt;Node5 -->
<g id="edge4" class="edge"><title>Node4&#45;&gt;Node5</title>
<path fill="none" stroke="midnightblue" d="M668.466,-59C676.914,-59 685.434,-59 693.783,-59"/>
<polygon fill="midnightblue" stroke="midnightblue" points="668.213,-55.5001 658.213,-59 668.213,-62.5001 668.213,-55.5001"/>
</g>
<!-- Node6 -->
<g id="node6" class="node"><title>Node6</title>
<g id="a_node6"><a xlink:href="$classCompass.html#a1c48170d8c8966b22fb150b1634443ec" xlink:title="Compass::_detect_backends">
<polygon fill="white" stroke="black" points="896,-49.5 896,-68.5 1040,-68.5 1040,-49.5 896,-49.5"/>
<text text-anchor="middle" x="968" y="-56.5" font-family="Helvetica,sans-Serif" font-size="10.00">Compass::_detect_backends</text>
</a>
</g>
</g>
<!-- Node5&#45;&gt;Node6 -->
<g id="edge5" class="edge"><title>Node5&#45;&gt;Node6</title>
<path fill="none" stroke="midnightblue" d="M870.207,-59C878.864,-59 887.546,-59 895.964,-59"/>
<polygon fill="midnightblue" stroke="midnightblue" points="870.074,-55.5001 860.074,-59 870.074,-62.5001 870.074,-55.5001"/>
</g>
<!-- Node7 -->
<g id="node7" class="node"><title>Node7</title>
<g id="a_node7"><a xlink:href="$classCompass.html#a190aefc281aba88c7b16e4fc58035c5e" xlink:title="Compass::init">
<polygon fill="white" stroke="black" points="1076.5,-49.5 1076.5,-68.5 1153.5,-68.5 1153.5,-49.5 1076.5,-49.5"/>
<text text-anchor="middle" x="1115" y="-56.5" font-family="Helvetica,sans-Serif" font-size="10.00">Compass::init</text>
</a>
</g>
</g>
<!-- Node6&#45;&gt;Node7 -->
<g id="edge6" class="edge"><title>Node6&#45;&gt;Node7</title>
<path fill="none" stroke="midnightblue" d="M1050.43,-59C1059.42,-59 1068.23,-59 1076.29,-59"/>
<polygon fill="midnightblue" stroke="midnightblue" points="1050.23,-55.5001 1040.23,-59 1050.23,-62.5001 1050.23,-55.5001"/>
</g>
<!-- Node8 -->
<g id="node8" class="node"><title>Node8</title>
<g id="a_node8"><a xlink:href="$AHRS__Test_8pde.html#a7dfd9b79bc5a37d7df40207afbc5431f" xlink:title="setup">
<polygon fill="white" stroke="black" points="1190.5,-49.5 1190.5,-68.5 1231.5,-68.5 1231.5,-49.5 1190.5,-49.5"/>
<text text-anchor="middle" x="1211" y="-56.5" font-family="Helvetica,sans-Serif" font-size="10.00">setup</text>
</a>
</g>
</g>
<!-- Node7&#45;&gt;Node8 -->
<g id="edge7" class="edge"><title>Node7&#45;&gt;Node8</title>
<path fill="none" stroke="midnightblue" d="M1163.83,-59C1173.22,-59 1182.57,-59 1190.37,-59"/>
<polygon fill="midnightblue" stroke="midnightblue" points="1163.69,-55.5001 1153.69,-59 1163.69,-62.5001 1163.69,-55.5001"/>
</g>
<!-- Node9&#45;&gt;Node3 -->
<g id="edge9" class="edge"><title>Node9&#45;&gt;Node3</title>
<path fill="none" stroke="midnightblue" d="M288.672,-32.6194C310.049,-38.3547 332.97,-44.5041 351.299,-49.4217"/>
<polygon fill="midnightblue" stroke="midnightblue" points="289.546,-29.2301 278.981,-30.0192 287.732,-35.9911 289.546,-29.2301"/>
</g>
</g>
</svg>
