<?xml version="1.0" encoding="UTF-8" standalone="no"?>
<!DOCTYPE svg PUBLIC "-//W3C//DTD SVG 1.1//EN"
 "http://www.w3.org/Graphics/SVG/1.1/DTD/svg11.dtd">
<!-- Generated by graphviz version 2.36.0 (20140111.2315)
 -->
<!-- Title: AP_Mount_Alexmos::parse_body Pages: 1 -->
<svg width="516pt" height="38pt"
 viewBox="0.00 0.00 516.00 38.00" xmlns="http://www.w3.org/2000/svg" xmlns:xlink="http://www.w3.org/1999/xlink">
<g id="graph0" class="graph" transform="scale(1 1) rotate(0) translate(4 34)">
<title>AP_Mount_Alexmos::parse_body</title>
<polygon fill="white" stroke="none" points="-4,4 -4,-34 512,-34 512,4 -4,4"/>
<!-- Node1 -->
<g id="node1" class="node"><title>Node1</title>
<polygon fill="#bfbfbf" stroke="black" points="0,-5.5 0,-24.5 162,-24.5 162,-5.5 0,-5.5"/>
<text text-anchor="middle" x="81" y="-12.5" font-family="Helvetica,sans-Serif" font-size="10.00">AP_Mount_Alexmos::parse_body</text>
</g>
<!-- Node2 -->
<g id="node2" class="node"><title>Node2</title>
<g id="a_node2"><a xlink:href="$classAP__Mount__Alexmos.html#ae8cbf59b4d11fb8f9d74e9283c6173df" xlink:title="AP_Mount_Alexmos::read\l_incoming">
<polygon fill="white" stroke="black" points="198.5,-0 198.5,-30 329.5,-30 329.5,-0 198.5,-0"/>
<text text-anchor="start" x="206.5" y="-18" font-family="Helvetica,sans-Serif" font-size="10.00">AP_Mount_Alexmos::read</text>
<text text-anchor="middle" x="264" y="-7" font-family="Helvetica,sans-Serif" font-size="10.00">_incoming</text>
</a>
</g>
</g>
<!-- Node1&#45;&gt;Node2 -->
<g id="edge1" class="edge"><title>Node1&#45;&gt;Node2</title>
<path fill="none" stroke="midnightblue" d="M172.432,-15C181.182,-15 189.933,-15 198.358,-15"/>
<polygon fill="midnightblue" stroke="midnightblue" points="172.18,-11.5001 162.18,-15 172.18,-18.5001 172.18,-11.5001"/>
</g>
<!-- Node3 -->
<g id="node3" class="node"><title>Node3</title>
<g id="a_node3"><a xlink:href="$classAP__Mount__Alexmos.html#ad6fa0fd652a1401e0c9d791ad9399b67" xlink:title="AP_Mount_Alexmos::update">
<polygon fill="white" stroke="black" points="366.5,-5.5 366.5,-24.5 507.5,-24.5 507.5,-5.5 366.5,-5.5"/>
<text text-anchor="middle" x="437" y="-12.5" font-family="Helvetica,sans-Serif" font-size="10.00">AP_Mount_Alexmos::update</text>
</a>
</g>
</g>
<!-- Node2&#45;&gt;Node3 -->
<g id="edge2" class="edge"><title>Node2&#45;&gt;Node3</title>
<path fill="none" stroke="midnightblue" d="M339.898,-15C348.709,-15 357.673,-15 366.407,-15"/>
<polygon fill="midnightblue" stroke="midnightblue" points="339.648,-11.5001 329.648,-15 339.648,-18.5001 339.648,-11.5001"/>
</g>
</g>
</svg>
