<?xml version="1.0" encoding="UTF-8" standalone="no"?>
<!DOCTYPE svg PUBLIC "-//W3C//DTD SVG 1.1//EN"
 "http://www.w3.org/Graphics/SVG/1.1/DTD/svg11.dtd">
<!-- Generated by graphviz version 2.36.0 (20140111.2315)
 -->
<!-- Title: AP_HAL::UARTDriver::print_P Pages: 1 -->
<svg width="898pt" height="904pt"
 viewBox="0.00 0.00 898.00 903.70" xmlns="http://www.w3.org/2000/svg" xmlns:xlink="http://www.w3.org/1999/xlink">
<g id="graph0" class="graph" transform="scale(1 1) rotate(0) translate(4 899.705)">
<title>AP_HAL::UARTDriver::print_P</title>
<polygon fill="white" stroke="none" points="-4,4 -4,-899.705 894,-899.705 894,4 -4,4"/>
<!-- Node1 -->
<g id="node1" class="node"><title>Node1</title>
<polygon fill="#bfbfbf" stroke="black" points="0.5,-388 0.5,-418 115.5,-418 115.5,-388 0.5,-388"/>
<text text-anchor="start" x="8.5" y="-406" font-family="Helvetica,sans-Serif" font-size="10.00">AP_HAL::UARTDriver</text>
<text text-anchor="middle" x="58" y="-395" font-family="Helvetica,sans-Serif" font-size="10.00">::print_P</text>
</g>
<!-- Node2 -->
<g id="node2" class="node"><title>Node2</title>
<g id="a_node2"><a xlink:href="$classAP__InertialSensor.html#a8744303832541bef0025d9698468938c" xlink:title="AP_InertialSensor::\l_init_gyro">
<polygon fill="white" stroke="black" points="174.5,-850 174.5,-880 275.5,-880 275.5,-850 174.5,-850"/>
<text text-anchor="start" x="182.5" y="-868" font-family="Helvetica,sans-Serif" font-size="10.00">AP_InertialSensor::</text>
<text text-anchor="middle" x="225" y="-857" font-family="Helvetica,sans-Serif" font-size="10.00">_init_gyro</text>
</a>
</g>
</g>
<!-- Node1&#45;&gt;Node2 -->
<g id="edge1" class="edge"><title>Node1&#45;&gt;Node2</title>
<path fill="none" stroke="midnightblue" d="M58.5127,-428.325C58.4017,-496.977 66.2411,-689.935 152,-816 161.78,-830.377 177.303,-841.725 191.435,-849.865"/>
<polygon fill="midnightblue" stroke="midnightblue" points="62.0146,-428.075 58.593,-418.048 55.0148,-428.02 62.0146,-428.075"/>
</g>
<!-- Node6 -->
<g id="node6" class="node"><title>Node6</title>
<g id="a_node6"><a xlink:href="$classAP__InertialSensor__MPU6000.html#a50be758eef3a4d1538323bab21349d2c" xlink:title="AP_InertialSensor_MPU6000\l::_init_sensor">
<polygon fill="white" stroke="black" points="153,-777 153,-807 297,-807 297,-777 153,-777"/>
<text text-anchor="start" x="161" y="-795" font-family="Helvetica,sans-Serif" font-size="10.00">AP_InertialSensor_MPU6000</text>
<text text-anchor="middle" x="225" y="-784" font-family="Helvetica,sans-Serif" font-size="10.00">::_init_sensor</text>
</a>
</g>
</g>
<!-- Node1&#45;&gt;Node6 -->
<g id="edge5" class="edge"><title>Node1&#45;&gt;Node6</title>
<path fill="none" stroke="midnightblue" d="M60.1405,-428.097C63.9904,-487.867 80.6535,-641.165 152,-742 162.372,-756.659 178.48,-768.428 192.832,-776.856"/>
<polygon fill="midnightblue" stroke="midnightblue" points="63.6316,-427.84 59.5604,-418.059 56.6432,-428.244 63.6316,-427.84"/>
</g>
<!-- Node9 -->
<g id="node9" class="node"><title>Node9</title>
<g id="a_node9"><a xlink:href="$classAP__HAL__AVR_1_1AVRAnalogIn.html#ae67751693213886200123374f4ff68f5" xlink:title="AP_HAL_AVR::AVRAnalogIn\l::_register_channel">
<polygon fill="white" stroke="black" points="152,-703 152,-733 298,-733 298,-703 152,-703"/>
<text text-anchor="start" x="160" y="-721" font-family="Helvetica,sans-Serif" font-size="10.00">AP_HAL_AVR::AVRAnalogIn</text>
<text text-anchor="middle" x="225" y="-710" font-family="Helvetica,sans-Serif" font-size="10.00">::_register_channel</text>
</a>
</g>
</g>
<!-- Node1&#45;&gt;Node9 -->
<g id="edge9" class="edge"><title>Node1&#45;&gt;Node9</title>
<path fill="none" stroke="midnightblue" d="M60.3691,-428.324C64.6251,-482.77 81.9605,-612.169 152,-688 157.605,-694.068 164.626,-698.948 172.072,-702.861"/>
<polygon fill="midnightblue" stroke="midnightblue" points="63.8491,-427.913 59.6628,-418.18 56.866,-428.399 63.8491,-427.913"/>
</g>
<!-- Node13 -->
<g id="node13" class="node"><title>Node13</title>
<g id="a_node13"><a xlink:href="$classAP__HAL__FLYMAPLE__NS_1_1FLYMAPLEAnalogIn.html#a464a230e09b4da2b1833c78272298dc2" xlink:title="AP_HAL_FLYMAPLE_NS\l::FLYMAPLEAnalogIn::\l_register_channel">
<polygon fill="white" stroke="black" points="159.5,-638.5 159.5,-679.5 290.5,-679.5 290.5,-638.5 159.5,-638.5"/>
<text text-anchor="start" x="167.5" y="-667.5" font-family="Helvetica,sans-Serif" font-size="10.00">AP_HAL_FLYMAPLE_NS</text>
<text text-anchor="start" x="167.5" y="-656.5" font-family="Helvetica,sans-Serif" font-size="10.00">::FLYMAPLEAnalogIn::</text>
<text text-anchor="middle" x="225" y="-645.5" font-family="Helvetica,sans-Serif" font-size="10.00">_register_channel</text>
</a>
</g>
</g>
<!-- Node1&#45;&gt;Node13 -->
<g id="edge13" class="edge"><title>Node1&#45;&gt;Node13</title>
<path fill="none" stroke="midnightblue" d="M62.8612,-428.079C71.1533,-473.855 94.7718,-571.519 152,-629 155.535,-632.551 159.552,-635.702 163.839,-638.494"/>
<polygon fill="midnightblue" stroke="midnightblue" points="66.2929,-427.382 61.153,-418.117 59.3936,-428.565 66.2929,-427.382"/>
</g>
<!-- Node17 -->
<g id="node17" class="node"><title>Node17</title>
<g id="a_node17"><a xlink:href="$classAP__GPS.html#a4bdd5c70ed358b4147a58c7d09f040dd" xlink:title="AP_GPS::detect_instance">
<polygon fill="white" stroke="black" points="159.5,-600.5 159.5,-619.5 290.5,-619.5 290.5,-600.5 159.5,-600.5"/>
<text text-anchor="middle" x="225" y="-607.5" font-family="Helvetica,sans-Serif" font-size="10.00">AP_GPS::detect_instance</text>
</a>
</g>
</g>
<!-- Node1&#45;&gt;Node17 -->
<g id="edge17" class="edge"><title>Node1&#45;&gt;Node17</title>
<path fill="none" stroke="midnightblue" d="M64.3076,-427.947C74.245,-468.426 99.5674,-548.19 152,-591 156.707,-594.843 162.112,-597.915 167.801,-600.37"/>
<polygon fill="midnightblue" stroke="midnightblue" points="67.688,-427.031 62.0037,-418.09 60.8717,-428.624 67.688,-427.031"/>
</g>
<!-- Node21 -->
<g id="node21" class="node"><title>Node21</title>
<g id="a_node21"><a xlink:href="$AP__Mission__test_8pde.html#a5d77c673d18725f07d497cd10ec5366d" xlink:title="init_mission">
<polygon fill="white" stroke="black" points="191,-562.5 191,-581.5 259,-581.5 259,-562.5 191,-562.5"/>
<text text-anchor="middle" x="225" y="-569.5" font-family="Helvetica,sans-Serif" font-size="10.00">init_mission</text>
</a>
</g>
</g>
<!-- Node1&#45;&gt;Node21 -->
<g id="edge21" class="edge"><title>Node1&#45;&gt;Node21</title>
<path fill="none" stroke="midnightblue" d="M68.6201,-427.681C82.3825,-459.871 110.678,-515.855 152,-548 163.232,-556.737 177.801,-562.374 190.893,-565.971"/>
<polygon fill="midnightblue" stroke="midnightblue" points="71.7234,-426.027 64.6643,-418.127 65.2558,-428.705 71.7234,-426.027"/>
</g>
<!-- Node22 -->
<g id="node22" class="node"><title>Node22</title>
<g id="a_node22"><a xlink:href="$AP__Mission__test_8pde.html#a52918e058fa06c68b87cc74205dda142" xlink:title="run_mission_test">
<polygon fill="white" stroke="black" points="361.5,-518.5 361.5,-537.5 452.5,-537.5 452.5,-518.5 361.5,-518.5"/>
<text text-anchor="middle" x="407" y="-525.5" font-family="Helvetica,sans-Serif" font-size="10.00">run_mission_test</text>
</a>
</g>
</g>
<!-- Node1&#45;&gt;Node22 -->
<g id="edge32" class="edge"><title>Node1&#45;&gt;Node22</title>
<path fill="none" stroke="midnightblue" d="M71.1055,-427.132C86.0383,-453.972 114.165,-496.043 152,-515 218.716,-548.427 308.041,-543.386 361.049,-536.098"/>
<polygon fill="midnightblue" stroke="midnightblue" points="74.0197,-425.16 66.2074,-418.004 67.8515,-428.47 74.0197,-425.16"/>
</g>
<!-- Node24 -->
<g id="node24" class="node"><title>Node24</title>
<g id="a_node24"><a xlink:href="$AP__Mission__test_8pde.html#a01fd66d072d1248158b6a5110374e368" xlink:title="init_mission_endless_loop">
<polygon fill="white" stroke="black" points="159.5,-486.5 159.5,-505.5 290.5,-505.5 290.5,-486.5 159.5,-486.5"/>
<text text-anchor="middle" x="225" y="-493.5" font-family="Helvetica,sans-Serif" font-size="10.00">init_mission_endless_loop</text>
</a>
</g>
</g>
<!-- Node1&#45;&gt;Node24 -->
<g id="edge24" class="edge"><title>Node1&#45;&gt;Node24</title>
<path fill="none" stroke="midnightblue" d="M81.6985,-425.048C99.5122,-441.245 125.633,-462.665 152,-476 160.335,-480.215 169.678,-483.642 178.801,-486.389"/>
<polygon fill="midnightblue" stroke="midnightblue" points="83.8381,-422.259 74.1272,-418.022 79.0764,-427.39 83.8381,-422.259"/>
</g>
<!-- Node25 -->
<g id="node25" class="node"><title>Node25</title>
<g id="a_node25"><a xlink:href="$AP__Mission__test_8pde.html#ab55ab42234c70d3f5c798c1d769d83dc" xlink:title="init_mission_ends_with\l_do_commands">
<polygon fill="white" stroke="black" points="166,-437 166,-467 284,-467 284,-437 166,-437"/>
<text text-anchor="start" x="174" y="-455" font-family="Helvetica,sans-Serif" font-size="10.00">init_mission_ends_with</text>
<text text-anchor="middle" x="225" y="-444" font-family="Helvetica,sans-Serif" font-size="10.00">_do_commands</text>
</a>
</g>
</g>
<!-- Node1&#45;&gt;Node25 -->
<g id="edge25" class="edge"><title>Node1&#45;&gt;Node25</title>
<path fill="none" stroke="midnightblue" d="M119.501,-420.967C137.18,-426.217 156.313,-431.899 173.316,-436.948"/>
<polygon fill="midnightblue" stroke="midnightblue" points="120.434,-417.593 109.852,-418.101 118.442,-424.304 120.434,-417.593"/>
</g>
<!-- Node26 -->
<g id="node26" class="node"><title>Node26</title>
<g id="a_node26"><a xlink:href="$AP__Mission__test_8pde.html#a293c60273b64fa0f0fef49604b97ffc6" xlink:title="init_mission_ends_with\l_jump_command">
<polygon fill="white" stroke="black" points="166,-388 166,-418 284,-418 284,-388 166,-388"/>
<text text-anchor="start" x="174" y="-406" font-family="Helvetica,sans-Serif" font-size="10.00">init_mission_ends_with</text>
<text text-anchor="middle" x="225" y="-395" font-family="Helvetica,sans-Serif" font-size="10.00">_jump_command</text>
</a>
</g>
</g>
<!-- Node1&#45;&gt;Node26 -->
<g id="edge26" class="edge"><title>Node1&#45;&gt;Node26</title>
<path fill="none" stroke="midnightblue" d="M125.826,-403C139.134,-403 153.007,-403 165.99,-403"/>
<polygon fill="midnightblue" stroke="midnightblue" points="125.784,-399.5 115.784,-403 125.784,-406.5 125.784,-399.5"/>
</g>
<!-- Node27 -->
<g id="node27" class="node"><title>Node27</title>
<g id="a_node27"><a xlink:href="$AP__Mission__test_8pde.html#a607366ee3e161a3f9a22e154ab2eb198" xlink:title="init_mission_jump_to\l_nonnav">
<polygon fill="white" stroke="black" points="171,-339 171,-369 279,-369 279,-339 171,-339"/>
<text text-anchor="start" x="179" y="-357" font-family="Helvetica,sans-Serif" font-size="10.00">init_mission_jump_to</text>
<text text-anchor="middle" x="225" y="-346" font-family="Helvetica,sans-Serif" font-size="10.00">_nonnav</text>
</a>
</g>
</g>
<!-- Node1&#45;&gt;Node27 -->
<g id="edge27" class="edge"><title>Node1&#45;&gt;Node27</title>
<path fill="none" stroke="midnightblue" d="M119.501,-385.033C137.18,-379.783 156.313,-374.101 173.316,-369.052"/>
<polygon fill="midnightblue" stroke="midnightblue" points="118.442,-381.696 109.852,-387.899 120.434,-388.407 118.442,-381.696"/>
</g>
<!-- Node28 -->
<g id="node28" class="node"><title>Node28</title>
<g id="a_node28"><a xlink:href="$AP__Mission__test_8pde.html#a1f3bf996f49828465f1b398118eff2c0" xlink:title="init_mission_no_nav\l_commands">
<polygon fill="white" stroke="black" points="172.5,-290 172.5,-320 277.5,-320 277.5,-290 172.5,-290"/>
<text text-anchor="start" x="180.5" y="-308" font-family="Helvetica,sans-Serif" font-size="10.00">init_mission_no_nav</text>
<text text-anchor="middle" x="225" y="-297" font-family="Helvetica,sans-Serif" font-size="10.00">_commands</text>
</a>
</g>
</g>
<!-- Node1&#45;&gt;Node28 -->
<g id="edge28" class="edge"><title>Node1&#45;&gt;Node28</title>
<path fill="none" stroke="midnightblue" d="M82.6005,-380.848C100.524,-364.967 126.38,-343.991 152,-330 158.736,-326.322 166.115,-323.027 173.501,-320.13"/>
<polygon fill="midnightblue" stroke="midnightblue" points="80.0364,-378.448 74.9532,-387.744 84.7239,-383.647 80.0364,-378.448"/>
</g>
<!-- Node29 -->
<g id="node29" class="node"><title>Node29</title>
<g id="a_node29"><a xlink:href="$AP__Mission__test_8pde.html#aa30f318cd5b5252154697eaeeacffb47" xlink:title="init_mission_starts\l_with_do_commands">
<polygon fill="white" stroke="black" points="170.5,-241 170.5,-271 279.5,-271 279.5,-241 170.5,-241"/>
<text text-anchor="start" x="178.5" y="-259" font-family="Helvetica,sans-Serif" font-size="10.00">init_mission_starts</text>
<text text-anchor="middle" x="225" y="-248" font-family="Helvetica,sans-Serif" font-size="10.00">_with_do_commands</text>
</a>
</g>
</g>
<!-- Node1&#45;&gt;Node29 -->
<g id="edge29" class="edge"><title>Node1&#45;&gt;Node29</title>
<path fill="none" stroke="midnightblue" d="M71.5195,-379.051C86.9766,-351.676 115.726,-307.272 152,-281 157.573,-276.964 163.852,-273.536 170.321,-270.636"/>
<polygon fill="midnightblue" stroke="midnightblue" points="68.3687,-377.517 66.616,-387.966 74.5021,-380.891 68.3687,-377.517"/>
</g>
<!-- Node30 -->
<g id="node30" class="node"><title>Node30</title>
<g id="a_node30"><a xlink:href="$AP__Mission__test_8pde.html#a27db2782867c83f210841c029f64ecde" xlink:title="mission_complete">
<polygon fill="white" stroke="black" points="177.5,-202.5 177.5,-221.5 272.5,-221.5 272.5,-202.5 177.5,-202.5"/>
<text text-anchor="middle" x="225" y="-209.5" font-family="Helvetica,sans-Serif" font-size="10.00">mission_complete</text>
</a>
</g>
</g>
<!-- Node1&#45;&gt;Node30 -->
<g id="edge30" class="edge"><title>Node1&#45;&gt;Node30</title>
<path fill="none" stroke="midnightblue" d="M65.686,-378.211C77.0598,-340.835 103.766,-270.356 152,-232 159.311,-226.186 168.205,-222.061 177.213,-219.134"/>
<polygon fill="midnightblue" stroke="midnightblue" points="62.3233,-377.24 62.8794,-387.82 69.0426,-379.203 62.3233,-377.24"/>
</g>
<!-- Node32 -->
<g id="node32" class="node"><title>Node32</title>
<g id="a_node32"><a xlink:href="$AP__Mission__test_8pde.html#a6f9b146691fc508edb7ff3c6be2c3dfc" xlink:title="run_replace_cmd_test">
<polygon fill="white" stroke="black" points="168.5,-164.5 168.5,-183.5 281.5,-183.5 281.5,-164.5 168.5,-164.5"/>
<text text-anchor="middle" x="225" y="-171.5" font-family="Helvetica,sans-Serif" font-size="10.00">run_replace_cmd_test</text>
</a>
</g>
</g>
<!-- Node1&#45;&gt;Node32 -->
<g id="edge33" class="edge"><title>Node1&#45;&gt;Node32</title>
<path fill="none" stroke="midnightblue" d="M62.8809,-378.016C71.0821,-333.872 94.3939,-242.11 152,-193 156.821,-188.89 162.434,-185.658 168.359,-183.117"/>
<polygon fill="midnightblue" stroke="midnightblue" points="59.425,-377.461 61.1496,-387.914 66.3203,-378.667 59.425,-377.461"/>
</g>
<!-- Node33 -->
<g id="node33" class="node"><title>Node33</title>
<g id="a_node33"><a xlink:href="$AP__Mission__test_8pde.html#a13b076b46de100742c7bab1a8f5c0661" xlink:title="run_resume_test">
<polygon fill="white" stroke="black" points="180.5,-126.5 180.5,-145.5 269.5,-145.5 269.5,-126.5 180.5,-126.5"/>
<text text-anchor="middle" x="225" y="-133.5" font-family="Helvetica,sans-Serif" font-size="10.00">run_resume_test</text>
</a>
</g>
</g>
<!-- Node1&#45;&gt;Node33 -->
<g id="edge34" class="edge"><title>Node1&#45;&gt;Node33</title>
<path fill="none" stroke="midnightblue" d="M60.9798,-377.848C66.3053,-327.756 85.4219,-215.186 152,-155 159.864,-147.891 170.077,-143.387 180.328,-140.548"/>
<polygon fill="midnightblue" stroke="midnightblue" points="57.4944,-377.53 60.017,-387.82 64.462,-378.202 57.4944,-377.53"/>
</g>
<!-- Node34 -->
<g id="node34" class="node"><title>Node34</title>
<g id="a_node34"><a xlink:href="$AP__Mission__test_8pde.html#a184ed3ddbf16eecc3c9176074098c125" xlink:title="run_set_current_cmd_test">
<polygon fill="white" stroke="black" points="160,-88.5 160,-107.5 290,-107.5 290,-88.5 160,-88.5"/>
<text text-anchor="middle" x="225" y="-95.5" font-family="Helvetica,sans-Serif" font-size="10.00">run_set_current_cmd_test</text>
</a>
</g>
</g>
<!-- Node1&#45;&gt;Node34 -->
<g id="edge35" class="edge"><title>Node1&#45;&gt;Node34</title>
<path fill="none" stroke="midnightblue" d="M59.5211,-377.968C62.0792,-322.522 76.2277,-188.616 152,-117 156.04,-113.182 160.754,-110.11 165.802,-107.642"/>
<polygon fill="midnightblue" stroke="midnightblue" points="56.0233,-377.846 59.1492,-387.969 63.0184,-378.106 56.0233,-377.846"/>
</g>
<!-- Node35 -->
<g id="node35" class="node"><title>Node35</title>
<g id="a_node35"><a xlink:href="$AP__Mission__test_8pde.html#a940853f9fdd2bd926e8521828b2ee749" xlink:title="run_set_current_cmd\l_while_stopped_test">
<polygon fill="white" stroke="black" points="171,-39 171,-69 279,-69 279,-39 171,-39"/>
<text text-anchor="start" x="179" y="-57" font-family="Helvetica,sans-Serif" font-size="10.00">run_set_current_cmd</text>
<text text-anchor="middle" x="225" y="-46" font-family="Helvetica,sans-Serif" font-size="10.00">_while_stopped_test</text>
</a>
</g>
</g>
<!-- Node1&#45;&gt;Node35 -->
<g id="edge36" class="edge"><title>Node1&#45;&gt;Node35</title>
<path fill="none" stroke="midnightblue" d="M58.8138,-377.651C59.766,-317.55 70.5649,-165.014 152,-79 157.276,-73.4269 163.858,-69.0959 170.882,-65.7301"/>
<polygon fill="midnightblue" stroke="midnightblue" points="55.3132,-377.734 58.7358,-387.761 62.313,-377.788 55.3132,-377.734"/>
</g>
<!-- Node36 -->
<g id="node36" class="node"><title>Node36</title>
<g id="a_node36"><a xlink:href="$ToshibaLED__test_8pde.html#a7dfd9b79bc5a37d7df40207afbc5431f" xlink:title="setup">
<polygon fill="white" stroke="black" points="204.5,-0.5 204.5,-19.5 245.5,-19.5 245.5,-0.5 204.5,-0.5"/>
<text text-anchor="middle" x="225" y="-7.5" font-family="Helvetica,sans-Serif" font-size="10.00">setup</text>
</a>
</g>
</g>
<!-- Node1&#45;&gt;Node36 -->
<g id="edge37" class="edge"><title>Node1&#45;&gt;Node36</title>
<path fill="none" stroke="midnightblue" d="M61.9776,-377.79C71.3765,-302.371 102.741,-80.5871 152,-30 165.667,-15.965 188.261,-11.5286 204.496,-10.2505"/>
<polygon fill="midnightblue" stroke="midnightblue" points="58.4911,-377.467 60.7507,-387.818 65.4393,-378.317 58.4911,-377.467"/>
</g>
<!-- Node3 -->
<g id="node3" class="node"><title>Node3</title>
<g id="a_node3"><a xlink:href="$classAP__InertialSensor.html#ab0534f593e07f2d483ddd8c2b1bbf4d9" xlink:title="AP_InertialSensor::init">
<polygon fill="white" stroke="black" points="698,-864.5 698,-883.5 812,-883.5 812,-864.5 698,-864.5"/>
<text text-anchor="middle" x="755" y="-871.5" font-family="Helvetica,sans-Serif" font-size="10.00">AP_InertialSensor::init</text>
</a>
</g>
</g>
<!-- Node2&#45;&gt;Node3 -->
<g id="edge2" class="edge"><title>Node2&#45;&gt;Node3</title>
<path fill="none" stroke="midnightblue" d="M285.676,-880.703C301.29,-884.137 318.181,-887.264 334,-889 463.643,-903.231 617.009,-890.276 697.763,-881.161"/>
<polygon fill="midnightblue" stroke="midnightblue" points="286.153,-877.221 275.625,-878.413 284.597,-884.047 286.153,-877.221"/>
</g>
<!-- Node5 -->
<g id="node5" class="node"><title>Node5</title>
<g id="a_node5"><a xlink:href="$classAP__InertialSensor.html#a424609d1eb3dc8473040c9e6f87771ad" xlink:title="AP_InertialSensor::\linit_gyro">
<polygon fill="white" stroke="black" points="356.5,-850 356.5,-880 457.5,-880 457.5,-850 356.5,-850"/>
<text text-anchor="start" x="364.5" y="-868" font-family="Helvetica,sans-Serif" font-size="10.00">AP_InertialSensor::</text>
<text text-anchor="middle" x="407" y="-857" font-family="Helvetica,sans-Serif" font-size="10.00">init_gyro</text>
</a>
</g>
</g>
<!-- Node2&#45;&gt;Node5 -->
<g id="edge4" class="edge"><title>Node2&#45;&gt;Node5</title>
<path fill="none" stroke="midnightblue" d="M285.952,-865C308.851,-865 334.682,-865 356.5,-865"/>
<polygon fill="midnightblue" stroke="midnightblue" points="285.662,-861.5 275.662,-865 285.662,-868.5 285.662,-861.5"/>
</g>
<!-- Node4 -->
<g id="node4" class="node"><title>Node4</title>
<g id="a_node4"><a xlink:href="$AHRS__Test_8pde.html#a7dfd9b79bc5a37d7df40207afbc5431f" xlink:title="setup">
<polygon fill="white" stroke="black" points="848.5,-864.5 848.5,-883.5 889.5,-883.5 889.5,-864.5 848.5,-864.5"/>
<text text-anchor="middle" x="869" y="-871.5" font-family="Helvetica,sans-Serif" font-size="10.00">setup</text>
</a>
</g>
</g>
<!-- Node3&#45;&gt;Node4 -->
<g id="edge3" class="edge"><title>Node3&#45;&gt;Node4</title>
<path fill="none" stroke="midnightblue" d="M822.602,-874C831.97,-874 840.927,-874 848.372,-874"/>
<polygon fill="midnightblue" stroke="midnightblue" points="822.328,-870.5 812.328,-874 822.328,-877.5 822.328,-870.5"/>
</g>
<!-- Node7 -->
<g id="node7" class="node"><title>Node7</title>
<g id="a_node7"><a xlink:href="$classAP__InertialSensor__MPU6000.html#a2bbaf4bcb81f081d2f9e29b5c25ec31b" xlink:title="AP_InertialSensor_MPU6000\l::detect">
<polygon fill="white" stroke="black" points="335,-801 335,-831 479,-831 479,-801 335,-801"/>
<text text-anchor="start" x="343" y="-819" font-family="Helvetica,sans-Serif" font-size="10.00">AP_InertialSensor_MPU6000</text>
<text text-anchor="middle" x="407" y="-808" font-family="Helvetica,sans-Serif" font-size="10.00">::detect</text>
</a>
</g>
</g>
<!-- Node6&#45;&gt;Node7 -->
<g id="edge6" class="edge"><title>Node6&#45;&gt;Node7</title>
<path fill="none" stroke="midnightblue" d="M307.094,-802.813C316.33,-804.044 325.692,-805.292 334.787,-806.505"/>
<polygon fill="midnightblue" stroke="midnightblue" points="307.516,-799.338 297.141,-801.485 306.59,-806.276 307.516,-799.338"/>
</g>
<!-- Node8 -->
<g id="node8" class="node"><title>Node8</title>
<g id="a_node8"><a xlink:href="$classAP__InertialSensor.html#abcf5d2923286a28097d2b3f8ca18e915" xlink:title="AP_InertialSensor::\l_detect_backends">
<polygon fill="white" stroke="black" points="538.5,-825 538.5,-855 639.5,-855 639.5,-825 538.5,-825"/>
<text text-anchor="start" x="546.5" y="-843" font-family="Helvetica,sans-Serif" font-size="10.00">AP_InertialSensor::</text>
<text text-anchor="middle" x="589" y="-832" font-family="Helvetica,sans-Serif" font-size="10.00">_detect_backends</text>
</a>
</g>
</g>
<!-- Node7&#45;&gt;Node8 -->
<g id="edge7" class="edge"><title>Node7&#45;&gt;Node8</title>
<path fill="none" stroke="midnightblue" d="M489.469,-826.862C506.172,-829.09 523.27,-831.369 538.435,-833.391"/>
<polygon fill="midnightblue" stroke="midnightblue" points="489.516,-823.338 479.141,-825.485 488.59,-830.276 489.516,-823.338"/>
</g>
<!-- Node8&#45;&gt;Node3 -->
<g id="edge8" class="edge"><title>Node8&#45;&gt;Node3</title>
<path fill="none" stroke="midnightblue" d="M649.563,-852.348C668.88,-856.353 689.997,-860.731 708.156,-864.496"/>
<polygon fill="midnightblue" stroke="midnightblue" points="650.153,-848.896 639.65,-850.293 648.732,-855.751 650.153,-848.896"/>
</g>
<!-- Node10 -->
<g id="node10" class="node"><title>Node10</title>
<g id="a_node10"><a xlink:href="$classAP__HAL__AVR_1_1AVRAnalogIn.html#ad4424206d121b73373bf294c8595327e" xlink:title="AP_HAL_AVR::AVRAnalogIn\l::init">
<polygon fill="white" stroke="black" points="334,-752 334,-782 480,-782 480,-752 334,-752"/>
<text text-anchor="start" x="342" y="-770" font-family="Helvetica,sans-Serif" font-size="10.00">AP_HAL_AVR::AVRAnalogIn</text>
<text text-anchor="middle" x="407" y="-759" font-family="Helvetica,sans-Serif" font-size="10.00">::init</text>
</a>
</g>
</g>
<!-- Node9&#45;&gt;Node10 -->
<g id="edge10" class="edge"><title>Node9&#45;&gt;Node10</title>
<path fill="none" stroke="midnightblue" d="M291.198,-735.748C310.707,-741.059 331.902,-746.829 350.708,-751.948"/>
<polygon fill="midnightblue" stroke="midnightblue" points="292.043,-732.351 281.475,-733.101 290.204,-739.105 292.043,-732.351"/>
</g>
<!-- Node11 -->
<g id="node11" class="node"><title>Node11</title>
<g id="a_node11"><a xlink:href="$classAP__HAL__AVR_1_1AVRAnalogIn.html#a1a756268e73bba38e464529383dbed80" xlink:title="AP_HAL_AVR::AVRAnalogIn\l::_create_channel">
<polygon fill="white" stroke="black" points="334,-703 334,-733 480,-733 480,-703 334,-703"/>
<text text-anchor="start" x="342" y="-721" font-family="Helvetica,sans-Serif" font-size="10.00">AP_HAL_AVR::AVRAnalogIn</text>
<text text-anchor="middle" x="407" y="-710" font-family="Helvetica,sans-Serif" font-size="10.00">::_create_channel</text>
</a>
</g>
</g>
<!-- Node9&#45;&gt;Node11 -->
<g id="edge11" class="edge"><title>Node9&#45;&gt;Node11</title>
<path fill="none" stroke="midnightblue" d="M308.439,-718C316.906,-718 325.464,-718 333.808,-718"/>
<polygon fill="midnightblue" stroke="midnightblue" points="308.176,-714.5 298.176,-718 308.176,-721.5 308.176,-714.5"/>
</g>
<!-- Node12 -->
<g id="node12" class="node"><title>Node12</title>
<g id="a_node12"><a xlink:href="$classAP__HAL__AVR_1_1AVRAnalogIn.html#aeb5610ab026010e900d8018a0486579c" xlink:title="AP_HAL_AVR::AVRAnalogIn\l::channel">
<polygon fill="white" stroke="black" points="516,-703 516,-733 662,-733 662,-703 516,-703"/>
<text text-anchor="start" x="524" y="-721" font-family="Helvetica,sans-Serif" font-size="10.00">AP_HAL_AVR::AVRAnalogIn</text>
<text text-anchor="middle" x="589" y="-710" font-family="Helvetica,sans-Serif" font-size="10.00">::channel</text>
</a>
</g>
</g>
<!-- Node11&#45;&gt;Node12 -->
<g id="edge12" class="edge"><title>Node11&#45;&gt;Node12</title>
<path fill="none" stroke="midnightblue" d="M490.439,-718C498.906,-718 507.464,-718 515.808,-718"/>
<polygon fill="midnightblue" stroke="midnightblue" points="490.176,-714.5 480.176,-718 490.176,-721.5 490.176,-714.5"/>
</g>
<!-- Node14 -->
<g id="node14" class="node"><title>Node14</title>
<g id="a_node14"><a xlink:href="$classAP__HAL__FLYMAPLE__NS_1_1FLYMAPLEAnalogIn.html#ae423a39ebccf9024db5e7097a6c0a7ca" xlink:title="AP_HAL_FLYMAPLE_NS\l::FLYMAPLEAnalogIn::init">
<polygon fill="white" stroke="black" points="341.5,-654 341.5,-684 472.5,-684 472.5,-654 341.5,-654"/>
<text text-anchor="start" x="349.5" y="-672" font-family="Helvetica,sans-Serif" font-size="10.00">AP_HAL_FLYMAPLE_NS</text>
<text text-anchor="middle" x="407" y="-661" font-family="Helvetica,sans-Serif" font-size="10.00">::FLYMAPLEAnalogIn::init</text>
</a>
</g>
</g>
<!-- Node13&#45;&gt;Node14 -->
<g id="edge14" class="edge"><title>Node13&#45;&gt;Node14</title>
<path fill="none" stroke="midnightblue" d="M300.872,-663.16C314.279,-663.904 328.147,-664.675 341.24,-665.402"/>
<polygon fill="midnightblue" stroke="midnightblue" points="300.909,-659.656 290.73,-662.596 300.52,-666.646 300.909,-659.656"/>
</g>
<!-- Node15 -->
<g id="node15" class="node"><title>Node15</title>
<g id="a_node15"><a xlink:href="$classAP__HAL__FLYMAPLE__NS_1_1FLYMAPLEAnalogIn.html#aeb59ca848fa480afa4de9877378789f8" xlink:title="AP_HAL_FLYMAPLE_NS\l::FLYMAPLEAnalogIn::\l_create_channel">
<polygon fill="white" stroke="black" points="341.5,-594.5 341.5,-635.5 472.5,-635.5 472.5,-594.5 341.5,-594.5"/>
<text text-anchor="start" x="349.5" y="-623.5" font-family="Helvetica,sans-Serif" font-size="10.00">AP_HAL_FLYMAPLE_NS</text>
<text text-anchor="start" x="349.5" y="-612.5" font-family="Helvetica,sans-Serif" font-size="10.00">::FLYMAPLEAnalogIn::</text>
<text text-anchor="middle" x="407" y="-601.5" font-family="Helvetica,sans-Serif" font-size="10.00">_create_channel</text>
</a>
</g>
</g>
<!-- Node13&#45;&gt;Node15 -->
<g id="edge15" class="edge"><title>Node13&#45;&gt;Node15</title>
<path fill="none" stroke="midnightblue" d="M300.478,-640.794C314.007,-637.487 328.019,-634.062 341.24,-630.83"/>
<polygon fill="midnightblue" stroke="midnightblue" points="299.613,-637.403 290.73,-643.177 301.275,-644.202 299.613,-637.403"/>
</g>
<!-- Node16 -->
<g id="node16" class="node"><title>Node16</title>
<g id="a_node16"><a xlink:href="$classAP__HAL__FLYMAPLE__NS_1_1FLYMAPLEAnalogIn.html#ab812f17de508aed353d5676b7aa7f781" xlink:title="AP_HAL_FLYMAPLE_NS\l::FLYMAPLEAnalogIn::\lchannel">
<polygon fill="white" stroke="black" points="523.5,-594.5 523.5,-635.5 654.5,-635.5 654.5,-594.5 523.5,-594.5"/>
<text text-anchor="start" x="531.5" y="-623.5" font-family="Helvetica,sans-Serif" font-size="10.00">AP_HAL_FLYMAPLE_NS</text>
<text text-anchor="start" x="531.5" y="-612.5" font-family="Helvetica,sans-Serif" font-size="10.00">::FLYMAPLEAnalogIn::</text>
<text text-anchor="middle" x="589" y="-601.5" font-family="Helvetica,sans-Serif" font-size="10.00">channel</text>
</a>
</g>
</g>
<!-- Node15&#45;&gt;Node16 -->
<g id="edge16" class="edge"><title>Node15&#45;&gt;Node16</title>
<path fill="none" stroke="midnightblue" d="M482.872,-615C496.279,-615 510.147,-615 523.24,-615"/>
<polygon fill="midnightblue" stroke="midnightblue" points="482.73,-611.5 472.73,-615 482.73,-618.5 482.73,-611.5"/>
</g>
<!-- Node18 -->
<g id="node18" class="node"><title>Node18</title>
<g id="a_node18"><a xlink:href="$classAP__GPS.html#a83302e8b52e5d01ae67375b3542eb460" xlink:title="AP_GPS::update_instance">
<polygon fill="white" stroke="black" points="340,-556.5 340,-575.5 474,-575.5 474,-556.5 340,-556.5"/>
<text text-anchor="middle" x="407" y="-563.5" font-family="Helvetica,sans-Serif" font-size="10.00">AP_GPS::update_instance</text>
</a>
</g>
</g>
<!-- Node17&#45;&gt;Node18 -->
<g id="edge18" class="edge"><title>Node17&#45;&gt;Node18</title>
<path fill="none" stroke="midnightblue" d="M274.964,-598.031C303.897,-590.959 340.028,-582.126 367.019,-575.529"/>
<polygon fill="midnightblue" stroke="midnightblue" points="273.94,-594.678 265.057,-600.453 275.602,-601.478 273.94,-594.678"/>
</g>
<!-- Node19 -->
<g id="node19" class="node"><title>Node19</title>
<g id="a_node19"><a xlink:href="$classAP__GPS.html#afe04427a47ab5e630cb979815abd911e" xlink:title="AP_GPS::update">
<polygon fill="white" stroke="black" points="543,-556.5 543,-575.5 635,-575.5 635,-556.5 543,-556.5"/>
<text text-anchor="middle" x="589" y="-563.5" font-family="Helvetica,sans-Serif" font-size="10.00">AP_GPS::update</text>
</a>
</g>
</g>
<!-- Node18&#45;&gt;Node19 -->
<g id="edge19" class="edge"><title>Node18&#45;&gt;Node19</title>
<path fill="none" stroke="midnightblue" d="M484.043,-566C504.048,-566 524.996,-566 542.803,-566"/>
<polygon fill="midnightblue" stroke="midnightblue" points="484.003,-562.5 474.003,-566 484.003,-569.5 484.003,-562.5"/>
</g>
<!-- Node20 -->
<g id="node20" class="node"><title>Node20</title>
<g id="a_node20"><a xlink:href="$GPS__AUTO__test_8pde.html#afe461d27b9c48d5921c00d521181f12f" xlink:title="loop">
<polygon fill="white" stroke="black" points="737.5,-556.5 737.5,-575.5 772.5,-575.5 772.5,-556.5 737.5,-556.5"/>
<text text-anchor="middle" x="755" y="-563.5" font-family="Helvetica,sans-Serif" font-size="10.00">loop</text>
</a>
</g>
</g>
<!-- Node19&#45;&gt;Node20 -->
<g id="edge20" class="edge"><title>Node19&#45;&gt;Node20</title>
<path fill="none" stroke="midnightblue" d="M645.466,-566C677.69,-566 716.041,-566 737.445,-566"/>
<polygon fill="midnightblue" stroke="midnightblue" points="645.248,-562.5 635.248,-566 645.248,-569.5 645.248,-562.5"/>
</g>
<!-- Node21&#45;&gt;Node22 -->
<g id="edge22" class="edge"><title>Node21&#45;&gt;Node22</title>
<path fill="none" stroke="midnightblue" d="M269.109,-561.462C298.859,-554.19 338.093,-544.6 366.929,-537.551"/>
<polygon fill="midnightblue" stroke="midnightblue" points="267.898,-558.155 259.015,-563.93 269.56,-564.955 267.898,-558.155"/>
</g>
<!-- Node23 -->
<g id="node23" class="node"><title>Node23</title>
<g id="a_node23"><a xlink:href="$AP__Mission__test_8pde.html#a0b33edabd7f1c4e4a0bf32c67269be2f" xlink:title="loop">
<polygon fill="white" stroke="black" points="571.5,-518.5 571.5,-537.5 606.5,-537.5 606.5,-518.5 571.5,-518.5"/>
<text text-anchor="middle" x="589" y="-525.5" font-family="Helvetica,sans-Serif" font-size="10.00">loop</text>
</a>
</g>
</g>
<!-- Node22&#45;&gt;Node23 -->
<g id="edge23" class="edge"><title>Node22&#45;&gt;Node23</title>
<path fill="none" stroke="midnightblue" d="M463.193,-528C500.46,-528 547.141,-528 571.49,-528"/>
<polygon fill="midnightblue" stroke="midnightblue" points="462.957,-524.5 452.957,-528 462.957,-531.5 462.957,-524.5"/>
</g>
<!-- Node31 -->
<g id="node31" class="node"><title>Node31</title>
<g id="a_node31"><a xlink:href="$classToneAlarm__PX4.html#afa62a6241bf150720d1f8d16c9e41cc2" xlink:title="update &#45; updates led according to timed_updated. Should be called at 50Hz ">
<polygon fill="white" stroke="black" points="345.5,-202.5 345.5,-221.5 468.5,-221.5 468.5,-202.5 345.5,-202.5"/>
<text text-anchor="middle" x="407" y="-209.5" font-family="Helvetica,sans-Serif" font-size="10.00">ToneAlarm_PX4::update</text>
</a>
</g>
</g>
<!-- Node30&#45;&gt;Node31 -->
<g id="edge31" class="edge"><title>Node30&#45;&gt;Node31</title>
<path fill="none" stroke="midnightblue" d="M282.982,-212C302.892,-212 325.305,-212 345.492,-212"/>
<polygon fill="midnightblue" stroke="midnightblue" points="282.823,-208.5 272.823,-212 282.823,-215.5 282.823,-208.5"/>
</g>
</g>
</svg>
