<?xml version="1.0" encoding="UTF-8" standalone="no"?>
<!DOCTYPE svg PUBLIC "-//W3C//DTD SVG 1.1//EN"
 "http://www.w3.org/Graphics/SVG/1.1/DTD/svg11.dtd">
<!-- Generated by graphviz version 2.36.0 (20140111.2315)
 -->
<!-- Title: AP_InertialSensor_MPU9150::mpu_reset_fifo Pages: 1 -->
<svg width="692pt" height="136pt"
 viewBox="0.00 0.00 692.00 136.00" xmlns="http://www.w3.org/2000/svg" xmlns:xlink="http://www.w3.org/1999/xlink">
<g id="graph0" class="graph" transform="scale(1 1) rotate(0) translate(4 132)">
<title>AP_InertialSensor_MPU9150::mpu_reset_fifo</title>
<polygon fill="white" stroke="none" points="-4,4 -4,-132 688,-132 688,4 -4,4"/>
<!-- Node1 -->
<g id="node1" class="node"><title>Node1</title>
<polygon fill="#bfbfbf" stroke="black" points="0,-49 0,-79 144,-79 144,-49 0,-49"/>
<text text-anchor="start" x="8" y="-67" font-family="Helvetica,sans-Serif" font-size="10.00">AP_InertialSensor_MPU9150</text>
<text text-anchor="middle" x="72" y="-56" font-family="Helvetica,sans-Serif" font-size="10.00">::mpu_reset_fifo</text>
</g>
<!-- Node2 -->
<g id="node2" class="node"><title>Node2</title>
<g id="a_node2"><a xlink:href="$classAP__InertialSensor__MPU9150.html#aabb66a96ba3568bc39fcb2ed8381e06d" xlink:title="Accumulate values from accels and gyros. ">
<polygon fill="white" stroke="black" points="180,-98 180,-128 324,-128 324,-98 180,-98"/>
<text text-anchor="start" x="188" y="-116" font-family="Helvetica,sans-Serif" font-size="10.00">AP_InertialSensor_MPU9150</text>
<text text-anchor="middle" x="252" y="-105" font-family="Helvetica,sans-Serif" font-size="10.00">::_accumulate</text>
</a>
</g>
</g>
<!-- Node1&#45;&gt;Node2 -->
<g id="edge1" class="edge"><title>Node1&#45;&gt;Node2</title>
<path fill="none" stroke="midnightblue" d="M137.738,-81.8212C156.957,-87.1118 177.81,-92.8522 196.323,-97.9484"/>
<polygon fill="midnightblue" stroke="midnightblue" points="138.429,-78.3811 127.858,-79.1014 136.571,-85.1301 138.429,-78.3811"/>
</g>
<!-- Node5 -->
<g id="node5" class="node"><title>Node5</title>
<g id="a_node5"><a xlink:href="$classAP__InertialSensor__MPU9150.html#adcb93c24e742a509d7a3a83b49a12f94" xlink:title="Select which sensors are pushed to FIFO. sensors can contain a combination of the following flags: &#160;&#160;...">
<polygon fill="white" stroke="black" points="180,-49 180,-79 324,-79 324,-49 180,-49"/>
<text text-anchor="start" x="188" y="-67" font-family="Helvetica,sans-Serif" font-size="10.00">AP_InertialSensor_MPU9150</text>
<text text-anchor="middle" x="252" y="-56" font-family="Helvetica,sans-Serif" font-size="10.00">::mpu_configure_fifo</text>
</a>
</g>
</g>
<!-- Node1&#45;&gt;Node5 -->
<g id="edge4" class="edge"><title>Node1&#45;&gt;Node5</title>
<path fill="none" stroke="midnightblue" d="M154.17,-64C162.789,-64 171.506,-64 179.995,-64"/>
<polygon fill="midnightblue" stroke="midnightblue" points="154.118,-60.5001 144.118,-64 154.118,-67.5001 154.118,-60.5001"/>
</g>
<!-- Node6 -->
<g id="node6" class="node"><title>Node6</title>
<g id="a_node6"><a xlink:href="$classAP__InertialSensor__MPU9150.html#a4ffc7c830891e19a289795dc80886b42" xlink:title="Get one packet from the FIFO. If sensors does not contain a particular sensor, disregard the data ret...">
<polygon fill="white" stroke="black" points="180,-0 180,-30 324,-30 324,-0 180,-0"/>
<text text-anchor="start" x="188" y="-18" font-family="Helvetica,sans-Serif" font-size="10.00">AP_InertialSensor_MPU9150</text>
<text text-anchor="middle" x="252" y="-7" font-family="Helvetica,sans-Serif" font-size="10.00">::mpu_read_fifo</text>
</a>
</g>
</g>
<!-- Node1&#45;&gt;Node6 -->
<g id="edge6" class="edge"><title>Node1&#45;&gt;Node6</title>
<path fill="none" stroke="midnightblue" d="M137.738,-46.1788C156.957,-40.8882 177.81,-35.1478 196.323,-30.0516"/>
<polygon fill="midnightblue" stroke="midnightblue" points="136.571,-42.8699 127.858,-48.8986 138.429,-49.6189 136.571,-42.8699"/>
</g>
<!-- Node3 -->
<g id="node3" class="node"><title>Node3</title>
<g id="a_node3"><a xlink:href="$classAP__InertialSensor__MPU9150.html#a5d916ede262de822fd6ab45c93e036ae" xlink:title="AP_InertialSensor_MPU9150\l::_init_sensor">
<polygon fill="white" stroke="black" points="360,-73 360,-103 504,-103 504,-73 360,-73"/>
<text text-anchor="start" x="368" y="-91" font-family="Helvetica,sans-Serif" font-size="10.00">AP_InertialSensor_MPU9150</text>
<text text-anchor="middle" x="432" y="-80" font-family="Helvetica,sans-Serif" font-size="10.00">::_init_sensor</text>
</a>
</g>
</g>
<!-- Node2&#45;&gt;Node3 -->
<g id="edge2" class="edge"><title>Node2&#45;&gt;Node3</title>
<path fill="none" stroke="midnightblue" d="M334.17,-101.6C342.789,-100.389 351.506,-99.1649 359.995,-97.9726"/>
<polygon fill="midnightblue" stroke="midnightblue" points="333.534,-98.1546 324.118,-103.012 334.507,-105.087 333.534,-98.1546"/>
</g>
<!-- Node4 -->
<g id="node4" class="node"><title>Node4</title>
<g id="a_node4"><a xlink:href="$classAP__InertialSensor__MPU9150.html#a5ccaed9383c0dd4ba0450d690f2284b7" xlink:title="AP_InertialSensor_MPU9150\l::detect">
<polygon fill="white" stroke="black" points="540,-73 540,-103 684,-103 684,-73 540,-73"/>
<text text-anchor="start" x="548" y="-91" font-family="Helvetica,sans-Serif" font-size="10.00">AP_InertialSensor_MPU9150</text>
<text text-anchor="middle" x="612" y="-80" font-family="Helvetica,sans-Serif" font-size="10.00">::detect</text>
</a>
</g>
</g>
<!-- Node3&#45;&gt;Node4 -->
<g id="edge3" class="edge"><title>Node3&#45;&gt;Node4</title>
<path fill="none" stroke="midnightblue" d="M514.17,-88C522.789,-88 531.506,-88 539.995,-88"/>
<polygon fill="midnightblue" stroke="midnightblue" points="514.118,-84.5001 504.118,-88 514.118,-91.5001 514.118,-84.5001"/>
</g>
<!-- Node5&#45;&gt;Node3 -->
<g id="edge5" class="edge"><title>Node5&#45;&gt;Node3</title>
<path fill="none" stroke="midnightblue" d="M334.17,-74.9443C342.789,-76.1064 351.506,-77.2817 359.995,-78.4263"/>
<polygon fill="midnightblue" stroke="midnightblue" points="334.496,-71.4566 324.118,-73.5889 333.56,-78.3938 334.496,-71.4566"/>
</g>
</g>
</svg>
