<?xml version="1.0" encoding="UTF-8" standalone="no"?>
<!DOCTYPE svg PUBLIC "-//W3C//DTD SVG 1.1//EN"
 "http://www.w3.org/Graphics/SVG/1.1/DTD/svg11.dtd">
<!-- Generated by graphviz version 2.36.0 (20140111.2315)
 -->
<!-- Title: Compass::get_count Pages: 1 -->
<svg width="728pt" height="159pt"
 viewBox="0.00 0.00 728.00 159.00" xmlns="http://www.w3.org/2000/svg" xmlns:xlink="http://www.w3.org/1999/xlink">
<g id="graph0" class="graph" transform="scale(1 1) rotate(0) translate(4 155)">
<title>Compass::get_count</title>
<polygon fill="white" stroke="none" points="-4,4 -4,-155 724,-155 724,4 -4,4"/>
<!-- Node1 -->
<g id="node1" class="node"><title>Node1</title>
<polygon fill="#bfbfbf" stroke="black" points="0.5,-60.5 0.5,-79.5 107.5,-79.5 107.5,-60.5 0.5,-60.5"/>
<text text-anchor="middle" x="54" y="-67.5" font-family="Helvetica,sans-Serif" font-size="10.00">Compass::get_count</text>
</g>
<!-- Node2 -->
<g id="node2" class="node"><title>Node2</title>
<g id="a_node2"><a xlink:href="$classCompass.html#a59622e8195dc29485f24d7c27a9cf7f0" xlink:title="Compass::configured">
<polygon fill="white" stroke="black" points="168,-126.5 168,-145.5 278,-145.5 278,-126.5 168,-126.5"/>
<text text-anchor="middle" x="223" y="-133.5" font-family="Helvetica,sans-Serif" font-size="10.00">Compass::configured</text>
</a>
</g>
</g>
<!-- Node1&#45;&gt;Node2 -->
<g id="edge1" class="edge"><title>Node1&#45;&gt;Node2</title>
<path fill="none" stroke="midnightblue" d="M79.857,-84.7826C97.3291,-94.6858 121.509,-107.431 144,-116 154.712,-120.081 166.565,-123.6 177.728,-126.498"/>
<polygon fill="midnightblue" stroke="midnightblue" points="81.3057,-81.5779 70.8938,-79.6178 77.8109,-87.6431 81.3057,-81.5779"/>
</g>
<!-- Node6 -->
<g id="node6" class="node"><title>Node6</title>
<g id="a_node6"><a xlink:href="$classDataFlash__Class.html#a7dff40002b9543349aa1a1306ec7eefa" xlink:title="DataFlash_Class::Log\l_Write_Compass">
<polygon fill="white" stroke="black" points="166,-77 166,-107 280,-107 280,-77 166,-77"/>
<text text-anchor="start" x="174" y="-95" font-family="Helvetica,sans-Serif" font-size="10.00">DataFlash_Class::Log</text>
<text text-anchor="middle" x="223" y="-84" font-family="Helvetica,sans-Serif" font-size="10.00">_Write_Compass</text>
</a>
</g>
</g>
<!-- Node1&#45;&gt;Node6 -->
<g id="edge5" class="edge"><title>Node1&#45;&gt;Node6</title>
<path fill="none" stroke="midnightblue" d="M117.981,-78.2969C133.677,-80.3646 150.405,-82.5683 165.752,-84.5901"/>
<polygon fill="midnightblue" stroke="midnightblue" points="118.211,-74.7971 107.84,-76.9609 117.297,-81.7371 118.211,-74.7971"/>
</g>
<!-- Node7 -->
<g id="node7" class="node"><title>Node7</title>
<g id="a_node7"><a xlink:href="$classGCS__MAVLINK.html#a1ea3917be194d738e83571ae4910eb80" xlink:title="GCS_MAVLINK::send_raw_imu">
<polygon fill="white" stroke="black" points="144.5,-38.5 144.5,-57.5 301.5,-57.5 301.5,-38.5 144.5,-38.5"/>
<text text-anchor="middle" x="223" y="-45.5" font-family="Helvetica,sans-Serif" font-size="10.00">GCS_MAVLINK::send_raw_imu</text>
</a>
</g>
</g>
<!-- Node1&#45;&gt;Node7 -->
<g id="edge6" class="edge"><title>Node1&#45;&gt;Node7</title>
<path fill="none" stroke="midnightblue" d="M118.002,-61.7004C128.338,-60.3387 139.121,-58.9182 149.662,-57.5296"/>
<polygon fill="midnightblue" stroke="midnightblue" points="117.297,-58.2629 107.84,-63.0391 118.211,-65.2029 117.297,-58.2629"/>
</g>
<!-- Node8 -->
<g id="node8" class="node"><title>Node8</title>
<g id="a_node8"><a xlink:href="$AP__Compass__test_8pde.html#a4fc01d736fe50cf5b977f755b675f11d" xlink:title="setup">
<polygon fill="white" stroke="black" points="202.5,-0.5 202.5,-19.5 243.5,-19.5 243.5,-0.5 202.5,-0.5"/>
<text text-anchor="middle" x="223" y="-7.5" font-family="Helvetica,sans-Serif" font-size="10.00">setup</text>
</a>
</g>
</g>
<!-- Node1&#45;&gt;Node8 -->
<g id="edge7" class="edge"><title>Node1&#45;&gt;Node8</title>
<path fill="none" stroke="midnightblue" d="M81.9747,-55.9178C99.3374,-47.2718 122.584,-36.463 144,-29 163.479,-22.2121 186.505,-16.9224 202.467,-13.6673"/>
<polygon fill="midnightblue" stroke="midnightblue" points="80.3282,-52.8283 72.983,-60.4637 83.4865,-59.0753 80.3282,-52.8283"/>
</g>
<!-- Node3 -->
<g id="node3" class="node"><title>Node3</title>
<g id="a_node3"><a xlink:href="$classAP__Arming.html#a24332b3f5e2e233914bce12e69ae9564" xlink:title="AP_Arming::compass\l_checks">
<polygon fill="white" stroke="black" points="338,-121 338,-151 450,-151 450,-121 338,-121"/>
<text text-anchor="start" x="346" y="-139" font-family="Helvetica,sans-Serif" font-size="10.00">AP_Arming::compass</text>
<text text-anchor="middle" x="394" y="-128" font-family="Helvetica,sans-Serif" font-size="10.00">_checks</text>
</a>
</g>
</g>
<!-- Node2&#45;&gt;Node3 -->
<g id="edge2" class="edge"><title>Node2&#45;&gt;Node3</title>
<path fill="none" stroke="midnightblue" d="M288.85,-136C305.01,-136 322.185,-136 337.829,-136"/>
<polygon fill="midnightblue" stroke="midnightblue" points="288.403,-132.5 278.403,-136 288.403,-139.5 288.403,-132.5"/>
</g>
<!-- Node4 -->
<g id="node4" class="node"><title>Node4</title>
<g id="a_node4"><a xlink:href="$classAP__Arming.html#a73c03baf7f22b7124a2ac9e9286a850a" xlink:title="AP_Arming::pre_arm\l_checks">
<polygon fill="white" stroke="black" points="486.5,-121 486.5,-151 593.5,-151 593.5,-121 486.5,-121"/>
<text text-anchor="start" x="494.5" y="-139" font-family="Helvetica,sans-Serif" font-size="10.00">AP_Arming::pre_arm</text>
<text text-anchor="middle" x="540" y="-128" font-family="Helvetica,sans-Serif" font-size="10.00">_checks</text>
</a>
</g>
</g>
<!-- Node3&#45;&gt;Node4 -->
<g id="edge3" class="edge"><title>Node3&#45;&gt;Node4</title>
<path fill="none" stroke="midnightblue" d="M460.423,-136C469.155,-136 478.018,-136 486.491,-136"/>
<polygon fill="midnightblue" stroke="midnightblue" points="460.262,-132.5 450.262,-136 460.262,-139.5 460.262,-132.5"/>
</g>
<!-- Node5 -->
<g id="node5" class="node"><title>Node5</title>
<g id="a_node5"><a xlink:href="$classAP__Arming.html#a47b859d9929a736df2f08a1cad03efcb" xlink:title="AP_Arming::arm">
<polygon fill="white" stroke="black" points="630.5,-126.5 630.5,-145.5 719.5,-145.5 719.5,-126.5 630.5,-126.5"/>
<text text-anchor="middle" x="675" y="-133.5" font-family="Helvetica,sans-Serif" font-size="10.00">AP_Arming::arm</text>
</a>
</g>
</g>
<!-- Node4&#45;&gt;Node5 -->
<g id="edge4" class="edge"><title>Node4&#45;&gt;Node5</title>
<path fill="none" stroke="midnightblue" d="M603.683,-136C612.711,-136 621.834,-136 630.382,-136"/>
<polygon fill="midnightblue" stroke="midnightblue" points="603.565,-132.5 593.565,-136 603.565,-139.5 603.565,-132.5"/>
</g>
</g>
</svg>
