<?xml version="1.0" encoding="UTF-8" standalone="no"?>
<!DOCTYPE svg PUBLIC "-//W3C//DTD SVG 1.1//EN"
 "http://www.w3.org/Graphics/SVG/1.1/DTD/svg11.dtd">
<!-- Generated by graphviz version 2.36.0 (20140111.2315)
 -->
<!-- Title: AP_AutoTune::write_log Pages: 1 -->
<svg width="556pt" height="185pt"
 viewBox="0.00 0.00 556.00 185.00" xmlns="http://www.w3.org/2000/svg" xmlns:xlink="http://www.w3.org/1999/xlink">
<g id="graph0" class="graph" transform="scale(1 1) rotate(0) translate(4 181)">
<title>AP_AutoTune::write_log</title>
<polygon fill="white" stroke="none" points="-4,4 -4,-181 552,-181 552,4 -4,4"/>
<!-- Node1 -->
<g id="node1" class="node"><title>Node1</title>
<polygon fill="#bfbfbf" stroke="black" points="0,-78.5 0,-97.5 122,-97.5 122,-78.5 0,-78.5"/>
<text text-anchor="middle" x="61" y="-85.5" font-family="Helvetica,sans-Serif" font-size="10.00">AP_AutoTune::write_log</text>
</g>
<!-- Node2 -->
<g id="node2" class="node"><title>Node2</title>
<g id="a_node2"><a xlink:href="$classAP__AutoTune.html#af5c523db0ac4313e8098fec4b8f5f2f1" xlink:title="AP_AutoTune::update">
<polygon fill="white" stroke="black" points="158.5,-78.5 158.5,-97.5 271.5,-97.5 271.5,-78.5 158.5,-78.5"/>
<text text-anchor="middle" x="215" y="-85.5" font-family="Helvetica,sans-Serif" font-size="10.00">AP_AutoTune::update</text>
</a>
</g>
</g>
<!-- Node1&#45;&gt;Node2 -->
<g id="edge1" class="edge"><title>Node1&#45;&gt;Node2</title>
<path fill="none" stroke="midnightblue" d="M132.259,-88C140.999,-88 149.84,-88 158.318,-88"/>
<polygon fill="midnightblue" stroke="midnightblue" points="132.074,-84.5001 122.074,-88 132.074,-91.5001 132.074,-84.5001"/>
</g>
<!-- Node3 -->
<g id="node3" class="node"><title>Node3</title>
<g id="a_node3"><a xlink:href="$classAP__RollController.html#a702a5fbdae8598e86dc2aa73b8f59089" xlink:title="AP_RollController::\l_get_rate_out">
<polygon fill="white" stroke="black" points="308.5,-98 308.5,-128 409.5,-128 409.5,-98 308.5,-98"/>
<text text-anchor="start" x="316.5" y="-116" font-family="Helvetica,sans-Serif" font-size="10.00">AP_RollController::</text>
<text text-anchor="middle" x="359" y="-105" font-family="Helvetica,sans-Serif" font-size="10.00">_get_rate_out</text>
</a>
</g>
</g>
<!-- Node2&#45;&gt;Node3 -->
<g id="edge2" class="edge"><title>Node2&#45;&gt;Node3</title>
<path fill="none" stroke="midnightblue" d="M280.209,-99.3044C289.622,-100.962 299.196,-102.647 308.26,-104.243"/>
<polygon fill="midnightblue" stroke="midnightblue" points="280.545,-95.8097 270.089,-97.5227 279.331,-102.704 280.545,-95.8097"/>
</g>
<!-- Node6 -->
<g id="node6" class="node"><title>Node6</title>
<g id="a_node6"><a xlink:href="$classAP__PitchController.html#a4613b491d225c7ee7eac435f79d7c495" xlink:title="AP_PitchController\l::_get_rate_out">
<polygon fill="white" stroke="black" points="309,-49 309,-79 409,-79 409,-49 309,-49"/>
<text text-anchor="start" x="317" y="-67" font-family="Helvetica,sans-Serif" font-size="10.00">AP_PitchController</text>
<text text-anchor="middle" x="359" y="-56" font-family="Helvetica,sans-Serif" font-size="10.00">::_get_rate_out</text>
</a>
</g>
</g>
<!-- Node2&#45;&gt;Node6 -->
<g id="edge5" class="edge"><title>Node2&#45;&gt;Node6</title>
<path fill="none" stroke="midnightblue" d="M281.604,-76.9121C290.788,-75.3598 300.093,-73.7871 308.9,-72.2986"/>
<polygon fill="midnightblue" stroke="midnightblue" points="280.991,-73.4658 271.715,-78.5834 282.158,-80.3679 280.991,-73.4658"/>
</g>
<!-- Node4 -->
<g id="node4" class="node"><title>Node4</title>
<g id="a_node4"><a xlink:href="$classAP__RollController.html#a8cf832c8a75c50c1fd4caf4eace7b34f" xlink:title="AP_RollController::\lget_rate_out">
<polygon fill="white" stroke="black" points="446.5,-147 446.5,-177 547.5,-177 547.5,-147 446.5,-147"/>
<text text-anchor="start" x="454.5" y="-165" font-family="Helvetica,sans-Serif" font-size="10.00">AP_RollController::</text>
<text text-anchor="middle" x="497" y="-154" font-family="Helvetica,sans-Serif" font-size="10.00">get_rate_out</text>
</a>
</g>
</g>
<!-- Node3&#45;&gt;Node4 -->
<g id="edge3" class="edge"><title>Node3&#45;&gt;Node4</title>
<path fill="none" stroke="midnightblue" d="M411.445,-131.536C425.491,-136.596 440.539,-142.018 453.99,-146.864"/>
<polygon fill="midnightblue" stroke="midnightblue" points="412.509,-128.198 401.914,-128.101 410.136,-134.784 412.509,-128.198"/>
</g>
<!-- Node5 -->
<g id="node5" class="node"><title>Node5</title>
<g id="a_node5"><a xlink:href="$classAP__RollController.html#a8995f6c95b27e132a6aa49f5fe9512ae" xlink:title="AP_RollController::\lget_servo_out">
<polygon fill="white" stroke="black" points="446.5,-98 446.5,-128 547.5,-128 547.5,-98 446.5,-98"/>
<text text-anchor="start" x="454.5" y="-116" font-family="Helvetica,sans-Serif" font-size="10.00">AP_RollController::</text>
<text text-anchor="middle" x="497" y="-105" font-family="Helvetica,sans-Serif" font-size="10.00">get_servo_out</text>
</a>
</g>
</g>
<!-- Node3&#45;&gt;Node5 -->
<g id="edge4" class="edge"><title>Node3&#45;&gt;Node5</title>
<path fill="none" stroke="midnightblue" d="M420,-113C428.729,-113 437.637,-113 446.137,-113"/>
<polygon fill="midnightblue" stroke="midnightblue" points="419.869,-109.5 409.869,-113 419.869,-116.5 419.869,-109.5"/>
</g>
<!-- Node7 -->
<g id="node7" class="node"><title>Node7</title>
<g id="a_node7"><a xlink:href="$classAP__PitchController.html#ad305f4274a77eaffb5b0dc064cfc31ba" xlink:title="AP_PitchController\l::get_rate_out">
<polygon fill="white" stroke="black" points="447,-49 447,-79 547,-79 547,-49 447,-49"/>
<text text-anchor="start" x="455" y="-67" font-family="Helvetica,sans-Serif" font-size="10.00">AP_PitchController</text>
<text text-anchor="middle" x="497" y="-56" font-family="Helvetica,sans-Serif" font-size="10.00">::get_rate_out</text>
</a>
</g>
</g>
<!-- Node6&#45;&gt;Node7 -->
<g id="edge6" class="edge"><title>Node6&#45;&gt;Node7</title>
<path fill="none" stroke="midnightblue" d="M419.375,-64C428.59,-64 438.02,-64 446.973,-64"/>
<polygon fill="midnightblue" stroke="midnightblue" points="419.099,-60.5001 409.099,-64 419.099,-67.5001 419.099,-60.5001"/>
</g>
<!-- Node8 -->
<g id="node8" class="node"><title>Node8</title>
<g id="a_node8"><a xlink:href="$classAP__PitchController.html#a705d9814ebad894375332f012dd768df" xlink:title="AP_PitchController\l::get_servo_out">
<polygon fill="white" stroke="black" points="447,-0 447,-30 547,-30 547,-0 447,-0"/>
<text text-anchor="start" x="455" y="-18" font-family="Helvetica,sans-Serif" font-size="10.00">AP_PitchController</text>
<text text-anchor="middle" x="497" y="-7" font-family="Helvetica,sans-Serif" font-size="10.00">::get_servo_out</text>
</a>
</g>
</g>
<!-- Node6&#45;&gt;Node8 -->
<g id="edge7" class="edge"><title>Node6&#45;&gt;Node8</title>
<path fill="none" stroke="midnightblue" d="M411.445,-45.4645C425.491,-40.4041 440.539,-34.9823 453.99,-30.1359"/>
<polygon fill="midnightblue" stroke="midnightblue" points="410.136,-42.2161 401.914,-48.8986 412.509,-48.8016 410.136,-42.2161"/>
</g>
</g>
</svg>
