<?xml version="1.0" encoding="UTF-8" standalone="no"?>
<!DOCTYPE svg PUBLIC "-//W3C//DTD SVG 1.1//EN"
 "http://www.w3.org/Graphics/SVG/1.1/DTD/svg11.dtd">
<!-- Generated by graphviz version 2.36.0 (20140111.2315)
 -->
<!-- Title: Linux::LinuxStorage_FRAM::_storage_create Pages: 1 -->
<svg width="924pt" height="343pt"
 viewBox="0.00 0.00 924.00 343.00" xmlns="http://www.w3.org/2000/svg" xmlns:xlink="http://www.w3.org/1999/xlink">
<g id="graph0" class="graph" transform="scale(1 1) rotate(0) translate(4 339)">
<title>Linux::LinuxStorage_FRAM::_storage_create</title>
<polygon fill="white" stroke="none" points="-4,4 -4,-339 920,-339 920,4 -4,4"/>
<!-- Node1 -->
<g id="node1" class="node"><title>Node1</title>
<polygon fill="#bfbfbf" stroke="black" points="0,-83 0,-113 126,-113 126,-83 0,-83"/>
<text text-anchor="start" x="8" y="-101" font-family="Helvetica,sans-Serif" font-size="10.00">Linux::LinuxStorage</text>
<text text-anchor="middle" x="63" y="-90" font-family="Helvetica,sans-Serif" font-size="10.00">_FRAM::_storage_create</text>
</g>
<!-- Node2 -->
<g id="node2" class="node"><title>Node2</title>
<g id="a_node2"><a xlink:href="$classLinux_1_1LinuxStorage__FRAM.html#abe5495ebecf6180c5865f33e9b0de113" xlink:title="Linux::LinuxStorage\l_FRAM::open">
<polygon fill="white" stroke="black" points="162.5,-107 162.5,-137 265.5,-137 265.5,-107 162.5,-107"/>
<text text-anchor="start" x="170.5" y="-125" font-family="Helvetica,sans-Serif" font-size="10.00">Linux::LinuxStorage</text>
<text text-anchor="middle" x="214" y="-114" font-family="Helvetica,sans-Serif" font-size="10.00">_FRAM::open</text>
</a>
</g>
</g>
<!-- Node1&#45;&gt;Node2 -->
<g id="edge1" class="edge"><title>Node1&#45;&gt;Node2</title>
<path fill="none" stroke="midnightblue" d="M126.326,-108.039C134.924,-109.424 143.744,-110.845 152.311,-112.225"/>
<polygon fill="midnightblue" stroke="midnightblue" points="151.795,-115.686 162.224,-113.821 152.908,-108.776 151.795,-115.686"/>
</g>
<!-- Node11 -->
<g id="node11" class="node"><title>Node11</title>
<g id="a_node11"><a xlink:href="$classAP__HAL_1_1Scheduler.html#a65f0d4e404d3e6fda4d8b0b101c9780f" xlink:title="AP_HAL::Scheduler::\lpanic">
<polygon fill="white" stroke="black" points="320,-58 320,-88 430,-88 430,-58 320,-58"/>
<text text-anchor="start" x="328" y="-76" font-family="Helvetica,sans-Serif" font-size="10.00">AP_HAL::Scheduler::</text>
<text text-anchor="middle" x="375" y="-65" font-family="Helvetica,sans-Serif" font-size="10.00">panic</text>
</a>
</g>
</g>
<!-- Node1&#45;&gt;Node11 -->
<g id="edge21" class="edge"><title>Node1&#45;&gt;Node11</title>
<path fill="none" stroke="midnightblue" d="M126.36,-92.971C179.596,-88.6778 255.86,-82.5274 309.658,-78.1889"/>
<polygon fill="midnightblue" stroke="midnightblue" points="310.081,-81.6662 319.767,-77.3736 309.518,-74.6889 310.081,-81.6662"/>
</g>
<!-- Node14 -->
<g id="node14" class="node"><title>Node14</title>
<g id="a_node14"><a xlink:href="$classAP__HAL_1_1Print.html#ad337ce3f7977411b7d34d47a51e5737e" xlink:title="AP_HAL::Print::println">
<polygon fill="white" stroke="black" points="318.5,-19.5 318.5,-38.5 431.5,-38.5 431.5,-19.5 318.5,-19.5"/>
<text text-anchor="middle" x="375" y="-26.5" font-family="Helvetica,sans-Serif" font-size="10.00">AP_HAL::Print::println</text>
</a>
</g>
</g>
<!-- Node1&#45;&gt;Node14 -->
<g id="edge20" class="edge"><title>Node1&#45;&gt;Node14</title>
<path fill="none" stroke="midnightblue" d="M126.36,-84.1198C183.499,-71.4018 267.168,-52.7787 321.111,-40.7721"/>
<polygon fill="midnightblue" stroke="midnightblue" points="322.155,-44.1255 331.155,-38.5364 320.634,-37.2927 322.155,-44.1255"/>
</g>
<!-- Node18 -->
<g id="node18" class="node"><title>Node18</title>
<g id="a_node18"><a xlink:href="$classLinux_1_1LinuxStorage__FRAM.html#a75a8c8d08e28cca6d154e29177c0027b" xlink:title="Linux::LinuxStorage\l_FRAM::write">
<polygon fill="white" stroke="black" points="162.5,-200 162.5,-230 265.5,-230 265.5,-200 162.5,-200"/>
<text text-anchor="start" x="170.5" y="-218" font-family="Helvetica,sans-Serif" font-size="10.00">Linux::LinuxStorage</text>
<text text-anchor="middle" x="214" y="-207" font-family="Helvetica,sans-Serif" font-size="10.00">_FRAM::write</text>
</a>
</g>
</g>
<!-- Node1&#45;&gt;Node18 -->
<g id="edge22" class="edge"><title>Node1&#45;&gt;Node18</title>
<path fill="none" stroke="midnightblue" d="M83.1741,-113.056C109.182,-133.478 155.797,-170.082 185.522,-193.423"/>
<polygon fill="midnightblue" stroke="midnightblue" points="183.4,-196.207 193.426,-199.63 187.723,-190.701 183.4,-196.207"/>
</g>
<!-- Node3 -->
<g id="node3" class="node"><title>Node3</title>
<g id="a_node3"><a xlink:href="$classAP__HAL_1_1SPIDeviceManager.html#ab26a3e8f8b43e59376ce98aafd288452" xlink:title="AP_HAL::SPIDeviceManager\l::device">
<polygon fill="white" stroke="black" points="302,-107 302,-137 448,-137 448,-107 302,-107"/>
<text text-anchor="start" x="310" y="-125" font-family="Helvetica,sans-Serif" font-size="10.00">AP_HAL::SPIDeviceManager</text>
<text text-anchor="middle" x="375" y="-114" font-family="Helvetica,sans-Serif" font-size="10.00">::device</text>
</a>
</g>
</g>
<!-- Node2&#45;&gt;Node3 -->
<g id="edge2" class="edge"><title>Node2&#45;&gt;Node3</title>
<path fill="none" stroke="midnightblue" d="M265.746,-122C273.976,-122 282.682,-122 291.438,-122"/>
<polygon fill="midnightblue" stroke="midnightblue" points="291.713,-125.5 301.713,-122 291.713,-118.5 291.713,-125.5"/>
</g>
<!-- Node4 -->
<g id="node4" class="node"><title>Node4</title>
<g id="a_node4"><a xlink:href="$classLinux_1_1LinuxStorage__FRAM.html#a3595b33fb16f0708473bc05a62b37070" xlink:title="Linux::LinuxStorage\l_FRAM::_register_read">
<polygon fill="white" stroke="black" points="484,-195 484,-225 602,-225 602,-195 484,-195"/>
<text text-anchor="start" x="492" y="-213" font-family="Helvetica,sans-Serif" font-size="10.00">Linux::LinuxStorage</text>
<text text-anchor="middle" x="543" y="-202" font-family="Helvetica,sans-Serif" font-size="10.00">_FRAM::_register_read</text>
</a>
</g>
</g>
<!-- Node2&#45;&gt;Node4 -->
<g id="edge3" class="edge"><title>Node2&#45;&gt;Node4</title>
<path fill="none" stroke="midnightblue" d="M227.594,-137.277C243.054,-154.78 271.059,-182.632 302,-195 356.649,-216.845 423.889,-219.179 473.28,-216.867"/>
<polygon fill="midnightblue" stroke="midnightblue" points="473.743,-220.347 483.538,-216.309 473.362,-213.358 473.743,-220.347"/>
</g>
<!-- Node10 -->
<g id="node10" class="node"><title>Node10</title>
<g id="a_node10"><a xlink:href="$classAP__HAL_1_1Scheduler.html#ab3175e2e6223ccfe82f957e41cc12b26" xlink:title="AP_HAL::Scheduler::\ldelay">
<polygon fill="white" stroke="black" points="320,-156 320,-186 430,-186 430,-156 320,-156"/>
<text text-anchor="start" x="328" y="-174" font-family="Helvetica,sans-Serif" font-size="10.00">AP_HAL::Scheduler::</text>
<text text-anchor="middle" x="375" y="-163" font-family="Helvetica,sans-Serif" font-size="10.00">delay</text>
</a>
</g>
</g>
<!-- Node2&#45;&gt;Node10 -->
<g id="edge9" class="edge"><title>Node2&#45;&gt;Node10</title>
<path fill="none" stroke="midnightblue" d="M264.003,-137.101C280.249,-142.108 298.499,-147.732 315.394,-152.939"/>
<polygon fill="midnightblue" stroke="midnightblue" points="314.572,-156.348 325.159,-155.948 316.633,-149.659 314.572,-156.348"/>
</g>
<!-- Node2&#45;&gt;Node11 -->
<g id="edge10" class="edge"><title>Node2&#45;&gt;Node11</title>
<path fill="none" stroke="midnightblue" d="M264.003,-106.899C280.249,-101.892 298.499,-96.2676 315.394,-91.061"/>
<polygon fill="midnightblue" stroke="midnightblue" points="316.633,-94.3415 325.159,-88.0516 314.572,-87.652 316.633,-94.3415"/>
</g>
<!-- Node12 -->
<g id="node12" class="node"><title>Node12</title>
<g id="a_node12"><a xlink:href="$classLinux_1_1LinuxStorage__FRAM.html#a4c38ed83df91957981d65f3cdb83a8ff" xlink:title="Linux::LinuxStorage\l_FRAM::_register_write">
<polygon fill="white" stroke="black" points="315,-244 315,-274 435,-274 435,-244 315,-244"/>
<text text-anchor="start" x="323" y="-262" font-family="Helvetica,sans-Serif" font-size="10.00">Linux::LinuxStorage</text>
<text text-anchor="middle" x="375" y="-251" font-family="Helvetica,sans-Serif" font-size="10.00">_FRAM::_register_write</text>
</a>
</g>
</g>
<!-- Node2&#45;&gt;Node12 -->
<g id="edge11" class="edge"><title>Node2&#45;&gt;Node12</title>
<path fill="none" stroke="midnightblue" d="M226.033,-137.369C245.091,-163.592 283.872,-215.462 302,-229 307.198,-232.882 312.972,-236.361 318.924,-239.453"/>
<polygon fill="midnightblue" stroke="midnightblue" points="317.838,-242.815 328.367,-243.995 320.872,-236.506 317.838,-242.815"/>
</g>
<!-- Node2&#45;&gt;Node14 -->
<g id="edge15" class="edge"><title>Node2&#45;&gt;Node14</title>
<path fill="none" stroke="midnightblue" d="M228.592,-106.947C244.569,-90.1522 272.649,-63.3331 302,-48 306.469,-45.6654 311.247,-43.6012 316.137,-41.7791"/>
<polygon fill="midnightblue" stroke="midnightblue" points="317.276,-45.0887 325.625,-38.5663 315.031,-38.4584 317.276,-45.0887"/>
</g>
<!-- Node5 -->
<g id="node5" class="node"><title>Node5</title>
<g id="a_node5"><a xlink:href="$classLinux_1_1LinuxStorage__FRAM.html#a051df265457f5a9f4bbfcd18f7d220b6" xlink:title="Linux::LinuxStorage\l_FRAM::transaction">
<polygon fill="white" stroke="black" points="639,-244 639,-274 743,-274 743,-244 639,-244"/>
<text text-anchor="start" x="647" y="-262" font-family="Helvetica,sans-Serif" font-size="10.00">Linux::LinuxStorage</text>
<text text-anchor="middle" x="691" y="-251" font-family="Helvetica,sans-Serif" font-size="10.00">_FRAM::transaction</text>
</a>
</g>
</g>
<!-- Node4&#45;&gt;Node5 -->
<g id="edge4" class="edge"><title>Node4&#45;&gt;Node5</title>
<path fill="none" stroke="midnightblue" d="M588.996,-225.101C603.636,-230.015 620.046,-235.522 635.314,-240.647"/>
<polygon fill="midnightblue" stroke="midnightblue" points="634.558,-244.085 645.152,-243.948 636.786,-237.448 634.558,-244.085"/>
</g>
<!-- Node6 -->
<g id="node6" class="node"><title>Node6</title>
<g id="a_node6"><a xlink:href="$classAP__HAL_1_1SPIDeviceDriver.html#a1c518b753148caee4d708c2311a9e548" xlink:title="AP_HAL::SPIDeviceDriver\l::get_semaphore">
<polygon fill="white" stroke="black" points="781,-178 781,-208 915,-208 915,-178 781,-178"/>
<text text-anchor="start" x="789" y="-196" font-family="Helvetica,sans-Serif" font-size="10.00">AP_HAL::SPIDeviceDriver</text>
<text text-anchor="middle" x="848" y="-185" font-family="Helvetica,sans-Serif" font-size="10.00">::get_semaphore</text>
</a>
</g>
</g>
<!-- Node5&#45;&gt;Node6 -->
<g id="edge5" class="edge"><title>Node5&#45;&gt;Node6</title>
<path fill="none" stroke="midnightblue" d="M722.686,-243.978C739.473,-235.944 760.722,-226.073 780,-218 785.01,-215.902 790.265,-213.791 795.534,-211.732"/>
<polygon fill="midnightblue" stroke="midnightblue" points="796.907,-214.954 804.984,-208.098 794.394,-208.421 796.907,-214.954"/>
</g>
<!-- Node7 -->
<g id="node7" class="node"><title>Node7</title>
<g id="a_node7"><a xlink:href="$classAP__HAL_1_1Semaphore.html#abd3a0affad8bb211981a979f30386589" xlink:title="AP_HAL::Semaphore::take">
<polygon fill="white" stroke="black" points="780.5,-315.5 780.5,-334.5 915.5,-334.5 915.5,-315.5 780.5,-315.5"/>
<text text-anchor="middle" x="848" y="-322.5" font-family="Helvetica,sans-Serif" font-size="10.00">AP_HAL::Semaphore::take</text>
</a>
</g>
</g>
<!-- Node5&#45;&gt;Node7 -->
<g id="edge6" class="edge"><title>Node5&#45;&gt;Node7</title>
<path fill="none" stroke="midnightblue" d="M717.562,-274.03C734.8,-283.745 758.279,-296.176 780,-305 786.498,-307.64 793.477,-310.107 800.387,-312.345"/>
<polygon fill="midnightblue" stroke="midnightblue" points="799.811,-315.831 810.399,-315.453 801.886,-309.145 799.811,-315.831"/>
</g>
<!-- Node8 -->
<g id="node8" class="node"><title>Node8</title>
<g id="a_node8"><a xlink:href="$classAP__HAL_1_1SPIDeviceDriver.html#a3ff2614355f59ee6712d345792f12cb9" xlink:title="AP_HAL::SPIDeviceDriver\l::transaction">
<polygon fill="white" stroke="black" points="781,-266 781,-296 915,-296 915,-266 781,-266"/>
<text text-anchor="start" x="789" y="-284" font-family="Helvetica,sans-Serif" font-size="10.00">AP_HAL::SPIDeviceDriver</text>
<text text-anchor="middle" x="848" y="-273" font-family="Helvetica,sans-Serif" font-size="10.00">::transaction</text>
</a>
</g>
</g>
<!-- Node5&#45;&gt;Node8 -->
<g id="edge7" class="edge"><title>Node5&#45;&gt;Node8</title>
<path fill="none" stroke="midnightblue" d="M743.182,-266.265C752.054,-267.524 761.448,-268.857 770.816,-270.187"/>
<polygon fill="midnightblue" stroke="midnightblue" points="770.553,-273.684 780.946,-271.625 771.537,-266.754 770.553,-273.684"/>
</g>
<!-- Node9 -->
<g id="node9" class="node"><title>Node9</title>
<g id="a_node9"><a xlink:href="$classAP__HAL_1_1Semaphore.html#afcdbf03d5bea9d83037acc93bfaea7ce" xlink:title="AP_HAL::Semaphore::give">
<polygon fill="white" stroke="black" points="781,-227.5 781,-246.5 915,-246.5 915,-227.5 781,-227.5"/>
<text text-anchor="middle" x="848" y="-234.5" font-family="Helvetica,sans-Serif" font-size="10.00">AP_HAL::Semaphore::give</text>
</a>
</g>
</g>
<!-- Node5&#45;&gt;Node9 -->
<g id="edge8" class="edge"><title>Node5&#45;&gt;Node9</title>
<path fill="none" stroke="midnightblue" d="M743.182,-251.735C752.054,-250.476 761.448,-249.143 770.816,-247.813"/>
<polygon fill="midnightblue" stroke="midnightblue" points="771.537,-251.246 780.946,-246.375 770.553,-244.316 771.537,-251.246"/>
</g>
<!-- Node12&#45;&gt;Node5 -->
<g id="edge14" class="edge"><title>Node12&#45;&gt;Node5</title>
<path fill="none" stroke="midnightblue" d="M432.781,-274.059C449.186,-277.743 467.198,-281.156 484,-283 536.131,-288.723 550.02,-289.961 602,-283 612.467,-281.598 623.452,-279.298 633.976,-276.663"/>
<polygon fill="midnightblue" stroke="midnightblue" points="635.112,-279.983 643.892,-274.052 633.33,-273.214 635.112,-279.983"/>
</g>
<!-- Node13 -->
<g id="node13" class="node"><title>Node13</title>
<g id="a_node13"><a xlink:href="$classLinux_1_1LinuxStorage__FRAM.html#aee9b258c651b30347870ba988ed8fa84" xlink:title="Linux::LinuxStorage\l_FRAM::_write_enable">
<polygon fill="white" stroke="black" points="485,-244 485,-274 601,-274 601,-244 485,-244"/>
<text text-anchor="start" x="493" y="-262" font-family="Helvetica,sans-Serif" font-size="10.00">Linux::LinuxStorage</text>
<text text-anchor="middle" x="543" y="-251" font-family="Helvetica,sans-Serif" font-size="10.00">_FRAM::_write_enable</text>
</a>
</g>
</g>
<!-- Node12&#45;&gt;Node13 -->
<g id="edge12" class="edge"><title>Node12&#45;&gt;Node13</title>
<path fill="none" stroke="midnightblue" d="M435.461,-259C448.16,-259 461.661,-259 474.634,-259"/>
<polygon fill="midnightblue" stroke="midnightblue" points="474.899,-262.5 484.899,-259 474.899,-255.5 474.899,-262.5"/>
</g>
<!-- Node13&#45;&gt;Node5 -->
<g id="edge13" class="edge"><title>Node13&#45;&gt;Node5</title>
<path fill="none" stroke="midnightblue" d="M601.284,-259C610.223,-259 619.492,-259 628.519,-259"/>
<polygon fill="midnightblue" stroke="midnightblue" points="628.579,-262.5 638.579,-259 628.579,-255.5 628.579,-262.5"/>
</g>
<!-- Node15 -->
<g id="node15" class="node"><title>Node15</title>
<g id="a_node15"><a xlink:href="$classAP__HAL_1_1Print.html#acfe80773011eb17dfb52c2fba517a093" xlink:title="AP_HAL::Print::print">
<polygon fill="white" stroke="black" points="638,-19.5 638,-38.5 744,-38.5 744,-19.5 638,-19.5"/>
<text text-anchor="middle" x="691" y="-26.5" font-family="Helvetica,sans-Serif" font-size="10.00">AP_HAL::Print::print</text>
</a>
</g>
</g>
<!-- Node14&#45;&gt;Node15 -->
<g id="edge16" class="edge"><title>Node14&#45;&gt;Node15</title>
<path fill="none" stroke="midnightblue" d="M431.775,-29C486.69,-29 570.408,-29 627.53,-29"/>
<polygon fill="midnightblue" stroke="midnightblue" points="627.873,-32.5001 637.873,-29 627.873,-25.5001 627.873,-32.5001"/>
</g>
<!-- Node17 -->
<g id="node17" class="node"><title>Node17</title>
<g id="a_node17"><a xlink:href="$classAP__HAL_1_1Print.html#a169b128f9e22f0c15883768f580541a2" xlink:title="AP_HAL::Print::println">
<polygon fill="white" stroke="black" points="486.5,-0.5 486.5,-19.5 599.5,-19.5 599.5,-0.5 486.5,-0.5"/>
<text text-anchor="middle" x="543" y="-7.5" font-family="Helvetica,sans-Serif" font-size="10.00">AP_HAL::Print::println</text>
</a>
</g>
</g>
<!-- Node14&#45;&gt;Node17 -->
<g id="edge18" class="edge"><title>Node14&#45;&gt;Node17</title>
<path fill="none" stroke="midnightblue" d="M431.737,-22.6204C446.048,-20.9824 461.575,-19.2052 476.337,-17.5157"/>
<polygon fill="midnightblue" stroke="midnightblue" points="476.873,-20.9773 486.41,-16.3627 476.077,-14.0227 476.873,-20.9773"/>
</g>
<!-- Node16 -->
<g id="node16" class="node"><title>Node16</title>
<g id="a_node16"><a xlink:href="$classAP__HAL_1_1Print.html#acc65391952a43334f8f5c9bef341f501" xlink:title="AP_HAL::Print::write">
<polygon fill="white" stroke="black" points="794,-19.5 794,-38.5 902,-38.5 902,-19.5 794,-19.5"/>
<text text-anchor="middle" x="848" y="-26.5" font-family="Helvetica,sans-Serif" font-size="10.00">AP_HAL::Print::write</text>
</a>
</g>
</g>
<!-- Node15&#45;&gt;Node16 -->
<g id="edge17" class="edge"><title>Node15&#45;&gt;Node16</title>
<path fill="none" stroke="midnightblue" d="M744.044,-29C756.674,-29 770.319,-29 783.415,-29"/>
<polygon fill="midnightblue" stroke="midnightblue" points="783.771,-32.5001 793.771,-29 783.771,-25.5001 783.771,-32.5001"/>
</g>
<!-- Node17&#45;&gt;Node15 -->
<g id="edge19" class="edge"><title>Node17&#45;&gt;Node15</title>
<path fill="none" stroke="midnightblue" d="M599.613,-17.2373C608.845,-18.4387 618.471,-19.6914 627.852,-20.9123"/>
<polygon fill="midnightblue" stroke="midnightblue" points="627.538,-24.4008 637.906,-22.2206 628.441,-17.4593 627.538,-24.4008"/>
</g>
<!-- Node18&#45;&gt;Node12 -->
<g id="edge23" class="edge"><title>Node18&#45;&gt;Node12</title>
<path fill="none" stroke="midnightblue" d="M265.746,-229.043C279.702,-232.905 295.025,-237.145 309.639,-241.189"/>
<polygon fill="midnightblue" stroke="midnightblue" points="309.046,-244.657 319.617,-243.951 310.913,-237.91 309.046,-244.657"/>
</g>
</g>
</svg>
