<?xml version="1.0" encoding="UTF-8" standalone="no"?>
<!DOCTYPE svg PUBLIC "-//W3C//DTD SVG 1.1//EN"
 "http://www.w3.org/Graphics/SVG/1.1/DTD/svg11.dtd">
<!-- Generated by graphviz version 2.36.0 (20140111.2315)
 -->
<!-- Title: AP_BattMonitor::voltage Pages: 1 -->
<svg width="306pt" height="46pt"
 viewBox="0.00 0.00 306.00 46.00" xmlns="http://www.w3.org/2000/svg" xmlns:xlink="http://www.w3.org/1999/xlink">
<g id="graph0" class="graph" transform="scale(1 1) rotate(0) translate(4 42)">
<title>AP_BattMonitor::voltage</title>
<polygon fill="white" stroke="none" points="-4,4 -4,-42 302,-42 302,4 -4,4"/>
<!-- Node1 -->
<g id="node1" class="node"><title>Node1</title>
<polygon fill="#bfbfbf" stroke="black" points="0.5,-0.5 0.5,-19.5 123.5,-19.5 123.5,-0.5 0.5,-0.5"/>
<text text-anchor="middle" x="62" y="-7.5" font-family="Helvetica,sans-Serif" font-size="10.00">AP_BattMonitor::voltage</text>
</g>
<!-- Node1&#45;&gt;Node1 -->
<g id="edge2" class="edge"><title>Node1&#45;&gt;Node1</title>
<path fill="none" stroke="midnightblue" d="M30.9371,-28.2746C31.8228,-33.741 42.1771,-38 62,-38 91.5039,-38 100.032,-28.5653 87.5854,-19.7571"/>
<polygon fill="midnightblue" stroke="midnightblue" points="33.9495,-30.0611 36.4146,-19.7571 28.0618,-26.2749 33.9495,-30.0611"/>
</g>
<!-- Node2 -->
<g id="node2" class="node"><title>Node2</title>
<g id="a_node2"><a xlink:href="$classAP__BattMonitor.html#af4f82f91854e1a8b04745ab05f932c0f" xlink:title="exhausted &#45; returns true if the battery&#39;s voltage remains below the low_voltage for 10 seconds or rem...">
<polygon fill="white" stroke="black" points="160.5,-0.5 160.5,-19.5 297.5,-19.5 297.5,-0.5 160.5,-0.5"/>
<text text-anchor="middle" x="229" y="-7.5" font-family="Helvetica,sans-Serif" font-size="10.00">AP_BattMonitor::exhausted</text>
</a>
</g>
</g>
<!-- Node1&#45;&gt;Node2 -->
<g id="edge1" class="edge"><title>Node1&#45;&gt;Node2</title>
<path fill="none" stroke="midnightblue" d="M133.725,-10C142.524,-10 151.506,-10 160.26,-10"/>
<polygon fill="midnightblue" stroke="midnightblue" points="133.503,-6.5001 123.503,-10 133.503,-13.5001 133.503,-6.5001"/>
</g>
</g>
</svg>
