<?xml version="1.0" encoding="UTF-8" standalone="no"?>
<!DOCTYPE svg PUBLIC "-//W3C//DTD SVG 1.1//EN"
 "http://www.w3.org/Graphics/SVG/1.1/DTD/svg11.dtd">
<!-- Generated by graphviz version 2.36.0 (20140111.2315)
 -->
<!-- Title: AC_PosControl::accel_to_throttle Pages: 1 -->
<svg width="722pt" height="38pt"
 viewBox="0.00 0.00 722.00 38.00" xmlns="http://www.w3.org/2000/svg" xmlns:xlink="http://www.w3.org/1999/xlink">
<g id="graph0" class="graph" transform="scale(1 1) rotate(0) translate(4 34)">
<title>AC_PosControl::accel_to_throttle</title>
<polygon fill="white" stroke="none" points="-4,4 -4,-34 718,-34 718,4 -4,4"/>
<!-- Node1 -->
<g id="node1" class="node"><title>Node1</title>
<polygon fill="#bfbfbf" stroke="black" points="0,-0 0,-30 114,-30 114,-0 0,-0"/>
<text text-anchor="start" x="8" y="-18" font-family="Helvetica,sans-Serif" font-size="10.00">AC_PosControl::accel</text>
<text text-anchor="middle" x="57" y="-7" font-family="Helvetica,sans-Serif" font-size="10.00">_to_throttle</text>
</g>
<!-- Node2 -->
<g id="node2" class="node"><title>Node2</title>
<g id="a_node2"><a xlink:href="$classAC__PosControl.html#a7f2e50bce46c82e024fb47a288b2ffb2" xlink:title="AC_PosControl::rate\l_to_accel_z">
<polygon fill="white" stroke="black" points="150.5,-0 150.5,-30 257.5,-30 257.5,-0 150.5,-0"/>
<text text-anchor="start" x="158.5" y="-18" font-family="Helvetica,sans-Serif" font-size="10.00">AC_PosControl::rate</text>
<text text-anchor="middle" x="204" y="-7" font-family="Helvetica,sans-Serif" font-size="10.00">_to_accel_z</text>
</a>
</g>
</g>
<!-- Node1&#45;&gt;Node2 -->
<g id="edge1" class="edge"><title>Node1&#45;&gt;Node2</title>
<path fill="none" stroke="midnightblue" d="M124.265,-15C133.032,-15 141.922,-15 150.416,-15"/>
<polygon fill="midnightblue" stroke="midnightblue" points="124.061,-11.5001 114.061,-15 124.061,-18.5001 124.061,-11.5001"/>
</g>
<!-- Node3 -->
<g id="node3" class="node"><title>Node3</title>
<g id="a_node3"><a xlink:href="$classAC__PosControl.html#adaf1679fb65c1bef02180409dcd96cad" xlink:title="AC_PosControl::pos\l_to_rate_z">
<polygon fill="white" stroke="black" points="294.5,-0 294.5,-30 401.5,-30 401.5,-0 294.5,-0"/>
<text text-anchor="start" x="302.5" y="-18" font-family="Helvetica,sans-Serif" font-size="10.00">AC_PosControl::pos</text>
<text text-anchor="middle" x="348" y="-7" font-family="Helvetica,sans-Serif" font-size="10.00">_to_rate_z</text>
</a>
</g>
</g>
<!-- Node2&#45;&gt;Node3 -->
<g id="edge2" class="edge"><title>Node2&#45;&gt;Node3</title>
<path fill="none" stroke="midnightblue" d="M267.994,-15C276.704,-15 285.578,-15 294.08,-15"/>
<polygon fill="midnightblue" stroke="midnightblue" points="267.876,-11.5001 257.876,-15 267.876,-18.5001 267.876,-11.5001"/>
</g>
<!-- Node4 -->
<g id="node4" class="node"><title>Node4</title>
<g id="a_node4"><a xlink:href="$classAC__PosControl.html#af9c555a3b07ea1420ea28e7333379941" xlink:title="update_z_controller &#45; fly to altitude in cm above home ">
<polygon fill="white" stroke="black" points="438,-0 438,-30 558,-30 558,-0 438,-0"/>
<text text-anchor="start" x="446" y="-18" font-family="Helvetica,sans-Serif" font-size="10.00">AC_PosControl::update</text>
<text text-anchor="middle" x="498" y="-7" font-family="Helvetica,sans-Serif" font-size="10.00">_z_controller</text>
</a>
</g>
</g>
<!-- Node3&#45;&gt;Node4 -->
<g id="edge3" class="edge"><title>Node3&#45;&gt;Node4</title>
<path fill="none" stroke="midnightblue" d="M411.637,-15C420.299,-15 429.173,-15 437.77,-15"/>
<polygon fill="midnightblue" stroke="midnightblue" points="411.596,-11.5001 401.596,-15 411.596,-18.5001 411.596,-11.5001"/>
</g>
<!-- Node5 -->
<g id="node5" class="node"><title>Node5</title>
<g id="a_node5"><a xlink:href="$classAC__PosControl.html#ad89eec74ef77005f3f5c449da98ad12c" xlink:title="AC_PosControl::update\l_vel_controller_xyz">
<polygon fill="white" stroke="black" points="594,-0 594,-30 714,-30 714,-0 594,-0"/>
<text text-anchor="start" x="602" y="-18" font-family="Helvetica,sans-Serif" font-size="10.00">AC_PosControl::update</text>
<text text-anchor="middle" x="654" y="-7" font-family="Helvetica,sans-Serif" font-size="10.00">_vel_controller_xyz</text>
</a>
</g>
</g>
<!-- Node4&#45;&gt;Node5 -->
<g id="edge4" class="edge"><title>Node4&#45;&gt;Node5</title>
<path fill="none" stroke="midnightblue" d="M568.369,-15C576.862,-15 585.48,-15 593.804,-15"/>
<polygon fill="midnightblue" stroke="midnightblue" points="568.1,-11.5001 558.1,-15 568.1,-18.5001 568.1,-11.5001"/>
</g>
</g>
</svg>
