<?xml version="1.0" encoding="UTF-8" standalone="no"?>
<!DOCTYPE svg PUBLIC "-//W3C//DTD SVG 1.1//EN"
 "http://www.w3.org/Graphics/SVG/1.1/DTD/svg11.dtd">
<!-- Generated by graphviz version 2.36.0 (20140111.2315)
 -->
<!-- Title: AP_InertialSensor_PX4::_get_sample Pages: 1 -->
<svg width="682pt" height="420pt"
 viewBox="0.00 0.00 682.00 420.00" xmlns="http://www.w3.org/2000/svg" xmlns:xlink="http://www.w3.org/1999/xlink">
<g id="graph0" class="graph" transform="scale(1 1) rotate(0) translate(4 416)">
<title>AP_InertialSensor_PX4::_get_sample</title>
<polygon fill="white" stroke="none" points="-4,4 -4,-416 678,-416 678,4 -4,4"/>
<!-- Node1 -->
<g id="node1" class="node"><title>Node1</title>
<polygon fill="#bfbfbf" stroke="black" points="0.5,-220 0.5,-250 119.5,-250 119.5,-220 0.5,-220"/>
<text text-anchor="start" x="8.5" y="-238" font-family="Helvetica,sans-Serif" font-size="10.00">AP_InertialSensor_PX4</text>
<text text-anchor="middle" x="60" y="-227" font-family="Helvetica,sans-Serif" font-size="10.00">::_get_sample</text>
</g>
<!-- Node2 -->
<g id="node2" class="node"><title>Node2</title>
<g id="a_node2"><a xlink:href="$classAP__InertialSensor__PX4.html#aae5898e5e990e07c17e354788fe0942e" xlink:title="AP_InertialSensor_PX4\l::_get_gyro_sample">
<polygon fill="white" stroke="black" points="156.5,-316 156.5,-346 275.5,-346 275.5,-316 156.5,-316"/>
<text text-anchor="start" x="164.5" y="-334" font-family="Helvetica,sans-Serif" font-size="10.00">AP_InertialSensor_PX4</text>
<text text-anchor="middle" x="216" y="-323" font-family="Helvetica,sans-Serif" font-size="10.00">::_get_gyro_sample</text>
</a>
</g>
</g>
<!-- Node1&#45;&gt;Node2 -->
<g id="edge1" class="edge"><title>Node1&#45;&gt;Node2</title>
<path fill="none" stroke="midnightblue" d="M85.4018,-250.211C111.535,-266.502 153.15,-292.444 182.149,-310.521"/>
<polygon fill="midnightblue" stroke="midnightblue" points="180.375,-313.54 190.712,-315.86 184.078,-307.599 180.375,-313.54"/>
</g>
<!-- Node5 -->
<g id="node5" class="node"><title>Node5</title>
<g id="a_node5"><a xlink:href="$classAP__InertialSensor__PX4.html#aba0601ed771e5b5ecdf305c4bc7ea1d4" xlink:title="AP_InertialSensor_PX4\l::_get_accel_sample">
<polygon fill="white" stroke="black" points="156.5,-365 156.5,-395 275.5,-395 275.5,-365 156.5,-365"/>
<text text-anchor="start" x="164.5" y="-383" font-family="Helvetica,sans-Serif" font-size="10.00">AP_InertialSensor_PX4</text>
<text text-anchor="middle" x="216" y="-372" font-family="Helvetica,sans-Serif" font-size="10.00">::_get_accel_sample</text>
</a>
</g>
</g>
<!-- Node1&#45;&gt;Node5 -->
<g id="edge4" class="edge"><title>Node1&#45;&gt;Node5</title>
<path fill="none" stroke="midnightblue" d="M69.6058,-250.292C84.3494,-275.275 116.684,-325.051 156,-355 158.323,-356.77 160.79,-358.439 163.347,-360.01"/>
<polygon fill="midnightblue" stroke="midnightblue" points="161.866,-363.191 172.309,-364.978 165.259,-357.069 161.866,-363.191"/>
</g>
<!-- Node6 -->
<g id="node6" class="node"><title>Node6</title>
<g id="a_node6"><a xlink:href="$classAP__InertialSensor__PX4.html#a257fdff6435bb9addd12e3ba161c4c12" xlink:title="AP_InertialSensor_PX4\l::_new_gyro_sample">
<polygon fill="white" stroke="black" points="156.5,-220 156.5,-250 275.5,-250 275.5,-220 156.5,-220"/>
<text text-anchor="start" x="164.5" y="-238" font-family="Helvetica,sans-Serif" font-size="10.00">AP_InertialSensor_PX4</text>
<text text-anchor="middle" x="216" y="-227" font-family="Helvetica,sans-Serif" font-size="10.00">::_new_gyro_sample</text>
</a>
</g>
</g>
<!-- Node1&#45;&gt;Node6 -->
<g id="edge7" class="edge"><title>Node1&#45;&gt;Node6</title>
<path fill="none" stroke="midnightblue" d="M119.66,-235C128.274,-235 137.214,-235 146.012,-235"/>
<polygon fill="midnightblue" stroke="midnightblue" points="146.248,-238.5 156.248,-235 146.248,-231.5 146.248,-238.5"/>
</g>
<!-- Node14 -->
<g id="node14" class="node"><title>Node14</title>
<g id="a_node14"><a xlink:href="$classAP__InertialSensor__PX4.html#ab860aacad51c8894d6d05d1291d8a650" xlink:title="AP_InertialSensor_PX4\l::_new_accel_sample">
<polygon fill="white" stroke="black" points="156.5,-147 156.5,-177 275.5,-177 275.5,-147 156.5,-147"/>
<text text-anchor="start" x="164.5" y="-165" font-family="Helvetica,sans-Serif" font-size="10.00">AP_InertialSensor_PX4</text>
<text text-anchor="middle" x="216" y="-154" font-family="Helvetica,sans-Serif" font-size="10.00">::_new_accel_sample</text>
</a>
</g>
</g>
<!-- Node1&#45;&gt;Node14 -->
<g id="edge15" class="edge"><title>Node1&#45;&gt;Node14</title>
<path fill="none" stroke="midnightblue" d="M92.9089,-219.874C116.345,-208.765 148.386,-193.577 173.764,-181.547"/>
<polygon fill="midnightblue" stroke="midnightblue" points="175.595,-184.552 183.132,-177.106 172.597,-178.227 175.595,-184.552"/>
</g>
<!-- Node18 -->
<g id="node18" class="node"><title>Node18</title>
<g id="a_node18"><a xlink:href="$classAP__HAL_1_1Scheduler.html#acfe178fdca7f8d9b22a939b3aac1a84f" xlink:title="AP_HAL::Scheduler::\lmicros64">
<polygon fill="white" stroke="black" points="161,-98 161,-128 271,-128 271,-98 161,-98"/>
<text text-anchor="start" x="169" y="-116" font-family="Helvetica,sans-Serif" font-size="10.00">AP_HAL::Scheduler::</text>
<text text-anchor="middle" x="216" y="-105" font-family="Helvetica,sans-Serif" font-size="10.00">micros64</text>
</a>
</g>
</g>
<!-- Node1&#45;&gt;Node18 -->
<g id="edge22" class="edge"><title>Node1&#45;&gt;Node18</title>
<path fill="none" stroke="midnightblue" d="M72.3465,-219.822C88.7662,-198.757 121.038,-160.594 156,-137 158.243,-135.486 160.596,-134.043 163.018,-132.67"/>
<polygon fill="midnightblue" stroke="midnightblue" points="164.746,-135.717 172.013,-128.008 161.524,-129.502 164.746,-135.717"/>
</g>
<!-- Node3 -->
<g id="node3" class="node"><title>Node3</title>
<g id="a_node3"><a xlink:href="$classAP__InertialSensor__Backend.html#a2cdef50b6bc6bb491aecd4642cb5e483" xlink:title="AP_InertialSensor_Backend\l::get_dataflash">
<polygon fill="white" stroke="black" points="315.5,-343 315.5,-373 454.5,-373 454.5,-343 315.5,-343"/>
<text text-anchor="start" x="323.5" y="-361" font-family="Helvetica,sans-Serif" font-size="10.00">AP_InertialSensor_Backend</text>
<text text-anchor="middle" x="385" y="-350" font-family="Helvetica,sans-Serif" font-size="10.00">::get_dataflash</text>
</a>
</g>
</g>
<!-- Node2&#45;&gt;Node3 -->
<g id="edge2" class="edge"><title>Node2&#45;&gt;Node3</title>
<path fill="none" stroke="midnightblue" d="M275.878,-340.519C285.456,-342.068 295.51,-343.693 305.468,-345.303"/>
<polygon fill="midnightblue" stroke="midnightblue" points="304.944,-348.764 315.374,-346.905 306.061,-341.854 304.944,-348.764"/>
</g>
<!-- Node4 -->
<g id="node4" class="node"><title>Node4</title>
<g id="a_node4"><a xlink:href="$classDataFlash__Class.html#af5e6aefb8f2136e9104be836dac88625" xlink:title="DataFlash_Class::WriteBlock">
<polygon fill="white" stroke="black" points="312,-392.5 312,-411.5 458,-411.5 458,-392.5 312,-392.5"/>
<text text-anchor="middle" x="385" y="-399.5" font-family="Helvetica,sans-Serif" font-size="10.00">DataFlash_Class::WriteBlock</text>
</a>
</g>
</g>
<!-- Node2&#45;&gt;Node4 -->
<g id="edge3" class="edge"><title>Node2&#45;&gt;Node4</title>
<path fill="none" stroke="midnightblue" d="M256,-346.055C262.796,-349.091 269.7,-352.45 276,-356 293.195,-365.689 294.213,-373.447 312,-382 317.755,-384.767 323.958,-387.21 330.224,-389.35"/>
<polygon fill="midnightblue" stroke="midnightblue" points="329.479,-392.785 340.069,-392.468 331.592,-386.112 329.479,-392.785"/>
</g>
<!-- Node5&#45;&gt;Node3 -->
<g id="edge5" class="edge"><title>Node5&#45;&gt;Node3</title>
<path fill="none" stroke="midnightblue" d="M275.878,-372.244C285.357,-370.995 295.3,-369.685 305.157,-368.386"/>
<polygon fill="midnightblue" stroke="midnightblue" points="305.917,-371.817 315.374,-367.041 305.003,-364.877 305.917,-371.817"/>
</g>
<!-- Node5&#45;&gt;Node4 -->
<g id="edge6" class="edge"><title>Node5&#45;&gt;Node4</title>
<path fill="none" stroke="midnightblue" d="M275.878,-387.756C284.338,-388.871 293.169,-390.034 301.978,-391.195"/>
<polygon fill="midnightblue" stroke="midnightblue" points="301.522,-394.665 311.893,-392.501 302.436,-387.725 301.522,-394.665"/>
</g>
<!-- Node7 -->
<g id="node7" class="node"><title>Node7</title>
<g id="a_node7"><a xlink:href="$classAP__InertialSensor__Backend.html#a6b5d3fdd263b6737d8116257d2ea05c4" xlink:title="AP_InertialSensor_Backend\l::_rotate_and_correct_gyro">
<polygon fill="white" stroke="black" points="315.5,-245 315.5,-275 454.5,-275 454.5,-245 315.5,-245"/>
<text text-anchor="start" x="323.5" y="-263" font-family="Helvetica,sans-Serif" font-size="10.00">AP_InertialSensor_Backend</text>
<text text-anchor="middle" x="385" y="-252" font-family="Helvetica,sans-Serif" font-size="10.00">::_rotate_and_correct_gyro</text>
</a>
</g>
</g>
<!-- Node6&#45;&gt;Node7 -->
<g id="edge8" class="edge"><title>Node6&#45;&gt;Node7</title>
<path fill="none" stroke="midnightblue" d="M275.878,-243.814C285.456,-245.248 295.51,-246.753 305.468,-248.244"/>
<polygon fill="midnightblue" stroke="midnightblue" points="304.966,-251.708 315.374,-249.727 306.003,-244.785 304.966,-251.708"/>
</g>
<!-- Node9 -->
<g id="node9" class="node"><title>Node9</title>
<g id="a_node9"><a xlink:href="$classLowPassFilter2pVector3f.html#aacd220c14267ceb451d02cad92799f6b" xlink:title="LowPassFilter2pVector3f\l::apply">
<polygon fill="white" stroke="black" points="322,-196 322,-226 448,-226 448,-196 322,-196"/>
<text text-anchor="start" x="330" y="-214" font-family="Helvetica,sans-Serif" font-size="10.00">LowPassFilter2pVector3f</text>
<text text-anchor="middle" x="385" y="-203" font-family="Helvetica,sans-Serif" font-size="10.00">::apply</text>
</a>
</g>
</g>
<!-- Node6&#45;&gt;Node9 -->
<g id="edge10" class="edge"><title>Node6&#45;&gt;Node9</title>
<path fill="none" stroke="midnightblue" d="M275.878,-226.538C287.543,-224.862 299.912,-223.085 311.957,-221.354"/>
<polygon fill="midnightblue" stroke="midnightblue" points="312.575,-224.801 321.976,-219.914 311.58,-217.872 312.575,-224.801"/>
</g>
<!-- Node12 -->
<g id="node12" class="node"><title>Node12</title>
<g id="a_node12"><a xlink:href="$classAP__InertialSensor__Backend.html#a29cd77379d89bac3390c131795df2e55" xlink:title="AP_InertialSensor_Backend\l::_set_gyro_error_count">
<polygon fill="white" stroke="black" points="315.5,-294 315.5,-324 454.5,-324 454.5,-294 315.5,-294"/>
<text text-anchor="start" x="323.5" y="-312" font-family="Helvetica,sans-Serif" font-size="10.00">AP_InertialSensor_Backend</text>
<text text-anchor="middle" x="385" y="-301" font-family="Helvetica,sans-Serif" font-size="10.00">::_set_gyro_error_count</text>
</a>
</g>
</g>
<!-- Node6&#45;&gt;Node12 -->
<g id="edge13" class="edge"><title>Node6&#45;&gt;Node12</title>
<path fill="none" stroke="midnightblue" d="M243.943,-250.2C262.697,-260.455 288.464,-273.905 312,-284 317.092,-286.184 322.445,-288.323 327.837,-290.372"/>
<polygon fill="midnightblue" stroke="midnightblue" points="326.943,-293.773 337.537,-293.956 329.369,-287.207 326.943,-293.773"/>
</g>
<!-- Node13 -->
<g id="node13" class="node"><title>Node13</title>
<g id="a_node13"><a xlink:href="$classAP__HAL_1_1Scheduler.html#add46d722bfb08a16f220e63591654e46" xlink:title="AP_HAL::Scheduler::\lmicros">
<polygon fill="white" stroke="black" points="330,-147 330,-177 440,-177 440,-147 330,-147"/>
<text text-anchor="start" x="338" y="-165" font-family="Helvetica,sans-Serif" font-size="10.00">AP_HAL::Scheduler::</text>
<text text-anchor="middle" x="385" y="-154" font-family="Helvetica,sans-Serif" font-size="10.00">micros</text>
</a>
</g>
</g>
<!-- Node6&#45;&gt;Node13 -->
<g id="edge14" class="edge"><title>Node6&#45;&gt;Node13</title>
<path fill="none" stroke="midnightblue" d="M243.497,-219.93C262.266,-209.606 288.231,-196.021 312,-186 316.397,-184.146 320.992,-182.336 325.639,-180.595"/>
<polygon fill="midnightblue" stroke="midnightblue" points="326.999,-183.825 335.207,-177.126 324.613,-177.245 326.999,-183.825"/>
</g>
<!-- Node8 -->
<g id="node8" class="node"><title>Node8</title>
<g id="a_node8"><a xlink:href="$classVector3.html#a53d5701ae2db9492944550927279b7b8" xlink:title="Vector3::rotate">
<polygon fill="white" stroke="black" points="501.5,-130.5 501.5,-149.5 582.5,-149.5 582.5,-130.5 501.5,-130.5"/>
<text text-anchor="middle" x="542" y="-137.5" font-family="Helvetica,sans-Serif" font-size="10.00">Vector3::rotate</text>
</a>
</g>
</g>
<!-- Node7&#45;&gt;Node8 -->
<g id="edge9" class="edge"><title>Node7&#45;&gt;Node8</title>
<path fill="none" stroke="midnightblue" d="M440.863,-244.948C446.925,-242.141 452.783,-238.85 458,-235 479.745,-218.955 476.285,-206.407 494,-186 502.915,-175.73 513.708,-165.059 522.703,-156.583"/>
<polygon fill="midnightblue" stroke="midnightblue" points="525.101,-159.132 530.051,-149.765 520.34,-154.001 525.101,-159.132"/>
</g>
<!-- Node10 -->
<g id="node10" class="node"><title>Node10</title>
<g id="a_node10"><a xlink:href="$classDigitalBiquadFilter.html#abcce28ce01f1fe8a084a16f163848f69" xlink:title="DigitalBiquadFilter\l::apply">
<polygon fill="white" stroke="black" points="494,-196 494,-226 590,-226 590,-196 494,-196"/>
<text text-anchor="start" x="502" y="-214" font-family="Helvetica,sans-Serif" font-size="10.00">DigitalBiquadFilter</text>
<text text-anchor="middle" x="542" y="-203" font-family="Helvetica,sans-Serif" font-size="10.00">::apply</text>
</a>
</g>
</g>
<!-- Node9&#45;&gt;Node10 -->
<g id="edge11" class="edge"><title>Node9&#45;&gt;Node10</title>
<path fill="none" stroke="midnightblue" d="M448.151,-211C459.758,-211 471.844,-211 483.309,-211"/>
<polygon fill="midnightblue" stroke="midnightblue" points="483.633,-214.5 493.633,-211 483.633,-207.5 483.633,-214.5"/>
</g>
<!-- Node11 -->
<g id="node11" class="node"><title>Node11</title>
<g id="a_node11"><a xlink:href="$AP__Math_8h.html#a108b79eeb35c5d58f324458ec9e1e9f2" xlink:title="is_zero">
<polygon fill="white" stroke="black" points="626,-201.5 626,-220.5 674,-220.5 674,-201.5 626,-201.5"/>
<text text-anchor="middle" x="650" y="-208.5" font-family="Helvetica,sans-Serif" font-size="10.00">is_zero</text>
</a>
</g>
</g>
<!-- Node10&#45;&gt;Node11 -->
<g id="edge12" class="edge"><title>Node10&#45;&gt;Node11</title>
<path fill="none" stroke="midnightblue" d="M590.11,-211C598.722,-211 607.544,-211 615.651,-211"/>
<polygon fill="midnightblue" stroke="midnightblue" points="615.82,-214.5 625.82,-211 615.82,-207.5 615.82,-214.5"/>
</g>
<!-- Node14&#45;&gt;Node9 -->
<g id="edge18" class="edge"><title>Node14&#45;&gt;Node9</title>
<path fill="none" stroke="midnightblue" d="M268.468,-177.101C285.692,-182.155 305.059,-187.838 322.942,-193.085"/>
<polygon fill="midnightblue" stroke="midnightblue" points="322.121,-196.491 332.702,-195.948 324.092,-189.774 322.121,-196.491"/>
</g>
<!-- Node14&#45;&gt;Node13 -->
<g id="edge21" class="edge"><title>Node14&#45;&gt;Node13</title>
<path fill="none" stroke="midnightblue" d="M275.878,-162C290.009,-162 305.173,-162 319.542,-162"/>
<polygon fill="midnightblue" stroke="midnightblue" points="319.838,-165.5 329.838,-162 319.838,-158.5 319.838,-165.5"/>
</g>
<!-- Node15 -->
<g id="node15" class="node"><title>Node15</title>
<g id="a_node15"><a xlink:href="$classAP__InertialSensor__Backend.html#a12e2c1d206fcd62c683165312c836a50" xlink:title="AP_InertialSensor_Backend\l::_rotate_and_correct_accel">
<polygon fill="white" stroke="black" points="315.5,-98 315.5,-128 454.5,-128 454.5,-98 315.5,-98"/>
<text text-anchor="start" x="323.5" y="-116" font-family="Helvetica,sans-Serif" font-size="10.00">AP_InertialSensor_Backend</text>
<text text-anchor="middle" x="385" y="-105" font-family="Helvetica,sans-Serif" font-size="10.00">::_rotate_and_correct_accel</text>
</a>
</g>
</g>
<!-- Node14&#45;&gt;Node15 -->
<g id="edge16" class="edge"><title>Node14&#45;&gt;Node15</title>
<path fill="none" stroke="midnightblue" d="M268.468,-146.899C285.692,-141.845 305.059,-136.162 322.942,-130.915"/>
<polygon fill="midnightblue" stroke="midnightblue" points="324.092,-134.226 332.702,-128.052 322.121,-127.509 324.092,-134.226"/>
</g>
<!-- Node16 -->
<g id="node16" class="node"><title>Node16</title>
<g id="a_node16"><a xlink:href="$classAP__InertialSensor__Backend.html#ad5745a56ce3925c75ef7e615713a1eaa" xlink:title="AP_InertialSensor_Backend\l::_set_accel_error_count">
<polygon fill="white" stroke="black" points="315.5,-0 315.5,-30 454.5,-30 454.5,-0 315.5,-0"/>
<text text-anchor="start" x="323.5" y="-18" font-family="Helvetica,sans-Serif" font-size="10.00">AP_InertialSensor_Backend</text>
<text text-anchor="middle" x="385" y="-7" font-family="Helvetica,sans-Serif" font-size="10.00">::_set_accel_error_count</text>
</a>
</g>
</g>
<!-- Node14&#45;&gt;Node16 -->
<g id="edge19" class="edge"><title>Node14&#45;&gt;Node16</title>
<path fill="none" stroke="midnightblue" d="M263.262,-146.965C267.941,-144.162 272.317,-140.867 276,-137 308.001,-103.399 278.696,-71.31 312,-39 313.093,-37.9392 314.235,-36.9252 315.418,-35.956"/>
<polygon fill="midnightblue" stroke="midnightblue" points="317.525,-38.7544 323.76,-30.188 313.544,-32.9969 317.525,-38.7544"/>
</g>
<!-- Node17 -->
<g id="node17" class="node"><title>Node17</title>
<g id="a_node17"><a xlink:href="$classAP__InertialSensor__Backend.html#a3bbac820413cf7a473a47c6acc4d79c8" xlink:title="AP_InertialSensor_Backend\l::_publish_temperature">
<polygon fill="white" stroke="black" points="315.5,-49 315.5,-79 454.5,-79 454.5,-49 315.5,-49"/>
<text text-anchor="start" x="323.5" y="-67" font-family="Helvetica,sans-Serif" font-size="10.00">AP_InertialSensor_Backend</text>
<text text-anchor="middle" x="385" y="-56" font-family="Helvetica,sans-Serif" font-size="10.00">::_publish_temperature</text>
</a>
</g>
</g>
<!-- Node14&#45;&gt;Node17 -->
<g id="edge20" class="edge"><title>Node14&#45;&gt;Node17</title>
<path fill="none" stroke="midnightblue" d="M260.124,-146.984C265.74,-144.113 271.2,-140.795 276,-137 297.199,-120.24 290.156,-103.909 312,-88 314.05,-86.5068 316.199,-85.1025 318.421,-83.7821"/>
<polygon fill="midnightblue" stroke="midnightblue" points="320.085,-86.8613 327.291,-79.0949 316.815,-80.6722 320.085,-86.8613"/>
</g>
<!-- Node15&#45;&gt;Node8 -->
<g id="edge17" class="edge"><title>Node15&#45;&gt;Node8</title>
<path fill="none" stroke="midnightblue" d="M454.888,-125C467.145,-127.135 479.692,-129.321 491.284,-131.34"/>
<polygon fill="midnightblue" stroke="midnightblue" points="490.741,-134.798 501.194,-133.066 491.943,-127.902 490.741,-134.798"/>
</g>
</g>
</svg>
