<?xml version="1.0" encoding="UTF-8" standalone="no"?>
<!DOCTYPE svg PUBLIC "-//W3C//DTD SVG 1.1//EN"
 "http://www.w3.org/Graphics/SVG/1.1/DTD/svg11.dtd">
<!-- Generated by graphviz version 2.36.0 (20140111.2315)
 -->
<!-- Title: AC_AttitudeControl::lean_angle_max Pages: 1 -->
<svg width="592pt" height="180pt"
 viewBox="0.00 0.00 592.00 180.00" xmlns="http://www.w3.org/2000/svg" xmlns:xlink="http://www.w3.org/1999/xlink">
<g id="graph0" class="graph" transform="scale(1 1) rotate(0) translate(4 176)">
<title>AC_AttitudeControl::lean_angle_max</title>
<polygon fill="white" stroke="none" points="-4,4 -4,-176 588,-176 588,4 -4,4"/>
<!-- Node1 -->
<g id="node1" class="node"><title>Node1</title>
<polygon fill="#bfbfbf" stroke="black" points="0.5,-46 0.5,-76 101.5,-76 101.5,-46 0.5,-46"/>
<text text-anchor="start" x="8.5" y="-64" font-family="Helvetica,sans-Serif" font-size="10.00">AC_AttitudeControl</text>
<text text-anchor="middle" x="51" y="-53" font-family="Helvetica,sans-Serif" font-size="10.00">::lean_angle_max</text>
</g>
<!-- Node2 -->
<g id="node2" class="node"><title>Node2</title>
<g id="a_node2"><a xlink:href="$classAC__PosControl.html#a46019950532852f60edd1a68bef9d1b2" xlink:title="AC_PosControl::accel\l_to_lean_angles">
<polygon fill="white" stroke="black" points="138,-46 138,-76 252,-76 252,-46 138,-46"/>
<text text-anchor="start" x="146" y="-64" font-family="Helvetica,sans-Serif" font-size="10.00">AC_PosControl::accel</text>
<text text-anchor="middle" x="195" y="-53" font-family="Helvetica,sans-Serif" font-size="10.00">_to_lean_angles</text>
</a>
</g>
</g>
<!-- Node1&#45;&gt;Node2 -->
<g id="edge1" class="edge"><title>Node1&#45;&gt;Node2</title>
<path fill="none" stroke="midnightblue" d="M111.687,-61C120.341,-61 129.225,-61 137.808,-61"/>
<polygon fill="midnightblue" stroke="midnightblue" points="111.665,-57.5001 101.665,-61 111.665,-64.5001 111.665,-57.5001"/>
</g>
<!-- Node3 -->
<g id="node3" class="node"><title>Node3</title>
<g id="a_node3"><a xlink:href="$classAC__PosControl.html#ae8b8e5c5812ab2419c570ae7f44a70f3" xlink:title="update_xy_controller &#45; run the horizontal position controller &#45; should be called at 100hz or higher ...">
<polygon fill="white" stroke="black" points="288,-71 288,-101 408,-101 408,-71 288,-71"/>
<text text-anchor="start" x="296" y="-89" font-family="Helvetica,sans-Serif" font-size="10.00">AC_PosControl::update</text>
<text text-anchor="middle" x="348" y="-78" font-family="Helvetica,sans-Serif" font-size="10.00">_xy_controller</text>
</a>
</g>
</g>
<!-- Node2&#45;&gt;Node3 -->
<g id="edge2" class="edge"><title>Node2&#45;&gt;Node3</title>
<path fill="none" stroke="midnightblue" d="M262.19,-71.9586C270.763,-73.378 279.5,-74.8244 287.947,-76.223"/>
<polygon fill="midnightblue" stroke="midnightblue" points="262.664,-68.4896 252.227,-70.3091 261.521,-75.3955 262.664,-68.4896"/>
</g>
<!-- Node9 -->
<g id="node9" class="node"><title>Node9</title>
<g id="a_node9"><a xlink:href="$classAC__PosControl.html#ad89eec74ef77005f3f5c449da98ad12c" xlink:title="AC_PosControl::update\l_vel_controller_xyz">
<polygon fill="white" stroke="black" points="288,-22 288,-52 408,-52 408,-22 288,-22"/>
<text text-anchor="start" x="296" y="-40" font-family="Helvetica,sans-Serif" font-size="10.00">AC_PosControl::update</text>
<text text-anchor="middle" x="348" y="-29" font-family="Helvetica,sans-Serif" font-size="10.00">_vel_controller_xyz</text>
</a>
</g>
</g>
<!-- Node2&#45;&gt;Node9 -->
<g id="edge8" class="edge"><title>Node2&#45;&gt;Node9</title>
<path fill="none" stroke="midnightblue" d="M262.19,-50.4798C270.763,-49.1171 279.5,-47.7286 287.947,-46.3859"/>
<polygon fill="midnightblue" stroke="midnightblue" points="261.553,-47.0369 252.227,-52.0633 262.652,-53.9501 261.553,-47.0369"/>
</g>
<!-- Node4 -->
<g id="node4" class="node"><title>Node4</title>
<g id="a_node4"><a xlink:href="$classAC__Circle.html#ad28205982ae7bc5f1e72f5285696c99b" xlink:title="update &#45; update circle controller ">
<polygon fill="white" stroke="black" points="465.5,-152.5 465.5,-171.5 562.5,-171.5 562.5,-152.5 465.5,-152.5"/>
<text text-anchor="middle" x="514" y="-159.5" font-family="Helvetica,sans-Serif" font-size="10.00">AC_Circle::update</text>
</a>
</g>
</g>
<!-- Node3&#45;&gt;Node4 -->
<g id="edge3" class="edge"><title>Node3&#45;&gt;Node4</title>
<path fill="none" stroke="midnightblue" d="M378.78,-106.744C396.962,-118.665 421.056,-133.176 444,-143 452.567,-146.668 462.036,-149.818 471.144,-152.438"/>
<polygon fill="midnightblue" stroke="midnightblue" points="380.623,-103.766 370.361,-101.132 376.74,-109.59 380.623,-103.766"/>
</g>
<!-- Node5 -->
<g id="node5" class="node"><title>Node5</title>
<g id="a_node5"><a xlink:href="$classAC__WPNav.html#a0a434270245fd8641352af387700dc82" xlink:title="update_loiter &#45; run the loiter controller &#45; should be called at 10hz ">
<polygon fill="white" stroke="black" points="448,-114.5 448,-133.5 580,-133.5 580,-114.5 448,-114.5"/>
<text text-anchor="middle" x="514" y="-121.5" font-family="Helvetica,sans-Serif" font-size="10.00">AC_WPNav::update_loiter</text>
</a>
</g>
</g>
<!-- Node3&#45;&gt;Node5 -->
<g id="edge4" class="edge"><title>Node3&#45;&gt;Node5</title>
<path fill="none" stroke="midnightblue" d="M417.983,-101.984C436.313,-106.231 455.533,-110.685 471.854,-114.466"/>
<polygon fill="midnightblue" stroke="midnightblue" points="418.74,-98.5666 408.208,-99.7189 417.16,-105.386 418.74,-98.5666"/>
</g>
<!-- Node6 -->
<g id="node6" class="node"><title>Node6</title>
<g id="a_node6"><a xlink:href="$classAC__WPNav.html#af9d3f98ad44166d4c5d072bf3ba4a3db" xlink:title="update_brake &#45; run the brake controller &#45; should be called at 400hz ">
<polygon fill="white" stroke="black" points="446.5,-76.5 446.5,-95.5 581.5,-95.5 581.5,-76.5 446.5,-76.5"/>
<text text-anchor="middle" x="514" y="-83.5" font-family="Helvetica,sans-Serif" font-size="10.00">AC_WPNav::update_brake</text>
</a>
</g>
</g>
<!-- Node3&#45;&gt;Node6 -->
<g id="edge5" class="edge"><title>Node3&#45;&gt;Node6</title>
<path fill="none" stroke="midnightblue" d="M418.214,-86C427.539,-86 437.09,-86 446.369,-86"/>
<polygon fill="midnightblue" stroke="midnightblue" points="418.208,-82.5001 408.208,-86 418.208,-89.5001 418.208,-82.5001"/>
</g>
<!-- Node7 -->
<g id="node7" class="node"><title>Node7</title>
<g id="a_node7"><a xlink:href="$classAC__WPNav.html#ab37772c12f3376c2eda24d8506a994fc" xlink:title="update_wpnav &#45; run the wp controller &#45; should be called at 100hz or higher ">
<polygon fill="white" stroke="black" points="444,-38.5 444,-57.5 584,-57.5 584,-38.5 444,-38.5"/>
<text text-anchor="middle" x="514" y="-45.5" font-family="Helvetica,sans-Serif" font-size="10.00">AC_WPNav::update_wpnav</text>
</a>
</g>
</g>
<!-- Node3&#45;&gt;Node7 -->
<g id="edge6" class="edge"><title>Node3&#45;&gt;Node7</title>
<path fill="none" stroke="midnightblue" d="M417.983,-70.0162C436.313,-65.769 455.533,-61.3154 471.854,-57.5338"/>
<polygon fill="midnightblue" stroke="midnightblue" points="417.16,-66.6141 408.208,-72.2811 418.74,-73.4334 417.16,-66.6141"/>
</g>
<!-- Node8 -->
<g id="node8" class="node"><title>Node8</title>
<g id="a_node8"><a xlink:href="$classAC__WPNav.html#a1d067335195835e46ba7218f8d784936" xlink:title="update_spline &#45; update spline controller ">
<polygon fill="white" stroke="black" points="445.5,-0.5 445.5,-19.5 582.5,-19.5 582.5,-0.5 445.5,-0.5"/>
<text text-anchor="middle" x="514" y="-7.5" font-family="Helvetica,sans-Serif" font-size="10.00">AC_WPNav::update_spline</text>
</a>
</g>
</g>
<!-- Node3&#45;&gt;Node8 -->
<g id="edge7" class="edge"><title>Node3&#45;&gt;Node8</title>
<path fill="none" stroke="midnightblue" d="M398.72,-66.3548C401.921,-64.6573 405.042,-62.8697 408,-61 426.095,-49.5614 425.19,-39.2194 444,-29 451.097,-25.1445 459.038,-22.022 466.937,-19.5088"/>
<polygon fill="midnightblue" stroke="midnightblue" points="396.968,-63.3169 389.562,-70.8935 400.076,-69.5889 396.968,-63.3169"/>
</g>
</g>
</svg>
