<?xml version="1.0" encoding="UTF-8" standalone="no"?>
<!DOCTYPE svg PUBLIC "-//W3C//DTD SVG 1.1//EN"
 "http://www.w3.org/Graphics/SVG/1.1/DTD/svg11.dtd">
<!-- Generated by graphviz version 2.36.0 (20140111.2315)
 -->
<!-- Title: NavEKF::calcQuatAndFieldStates Pages: 1 -->
<svg width="652pt" height="118pt"
 viewBox="0.00 0.00 652.00 118.42" xmlns="http://www.w3.org/2000/svg" xmlns:xlink="http://www.w3.org/1999/xlink">
<g id="graph0" class="graph" transform="scale(1 1) rotate(0) translate(4 114.417)">
<title>NavEKF::calcQuatAndFieldStates</title>
<polygon fill="white" stroke="none" points="-4,4 -4,-114.417 648,-114.417 648,4 -4,4"/>
<!-- Node1 -->
<g id="node1" class="node"><title>Node1</title>
<polygon fill="#bfbfbf" stroke="black" points="0.5,-51 0.5,-81 137.5,-81 137.5,-51 0.5,-51"/>
<text text-anchor="start" x="8.5" y="-69" font-family="Helvetica,sans-Serif" font-size="10.00">NavEKF::calcQuatAndField</text>
<text text-anchor="middle" x="69" y="-58" font-family="Helvetica,sans-Serif" font-size="10.00">States</text>
</g>
<!-- Node2 -->
<g id="node2" class="node"><title>Node2</title>
<g id="a_node2"><a xlink:href="$classNavEKF.html#a24a9b1e9c8504aa4821f2459c7ae6117" xlink:title="NavEKF::alignYawGPS">
<polygon fill="white" stroke="black" points="174.5,-78.5 174.5,-97.5 295.5,-97.5 295.5,-78.5 174.5,-78.5"/>
<text text-anchor="middle" x="235" y="-85.5" font-family="Helvetica,sans-Serif" font-size="10.00">NavEKF::alignYawGPS</text>
</a>
</g>
</g>
<!-- Node1&#45;&gt;Node2 -->
<g id="edge1" class="edge"><title>Node1&#45;&gt;Node2</title>
<path fill="none" stroke="midnightblue" d="M147.715,-76.4252C156.674,-77.627 165.702,-78.838 174.368,-80.0006"/>
<polygon fill="midnightblue" stroke="midnightblue" points="148.029,-72.936 137.652,-75.0753 147.098,-79.8738 148.029,-72.936"/>
</g>
<!-- Node4 -->
<g id="node4" class="node"><title>Node4</title>
<g id="a_node4"><a xlink:href="$classNavEKF.html#a290932b02347c5247f036fbc3c7af9d8" xlink:title="NavEKF::InitialiseFilter\lBootstrap">
<polygon fill="white" stroke="black" points="526,-67 526,-97 644,-97 644,-67 526,-67"/>
<text text-anchor="start" x="534" y="-85" font-family="Helvetica,sans-Serif" font-size="10.00">NavEKF::InitialiseFilter</text>
<text text-anchor="middle" x="585" y="-74" font-family="Helvetica,sans-Serif" font-size="10.00">Bootstrap</text>
</a>
</g>
</g>
<!-- Node1&#45;&gt;Node4 -->
<g id="edge5" class="edge"><title>Node1&#45;&gt;Node4</title>
<path fill="none" stroke="midnightblue" d="M108.859,-85.3442C127.971,-93.8028 151.654,-102.754 174,-107 198.195,-111.597 445.581,-111.697 490,-106 504.701,-104.114 520.403,-100.689 534.68,-97.0057"/>
<polygon fill="midnightblue" stroke="midnightblue" points="110.143,-82.0832 99.5916,-81.1242 107.242,-88.4538 110.143,-82.0832"/>
</g>
<!-- Node6 -->
<g id="node6" class="node"><title>Node6</title>
<g id="a_node6"><a xlink:href="$classNavEKF.html#a12500a621febd8f914f6e16db4c28759" xlink:title="NavEKF::InitialiseFilter\lDynamic">
<polygon fill="white" stroke="black" points="176,-29 176,-59 294,-59 294,-29 176,-29"/>
<text text-anchor="start" x="184" y="-47" font-family="Helvetica,sans-Serif" font-size="10.00">NavEKF::InitialiseFilter</text>
<text text-anchor="middle" x="235" y="-36" font-family="Helvetica,sans-Serif" font-size="10.00">Dynamic</text>
</a>
</g>
</g>
<!-- Node1&#45;&gt;Node6 -->
<g id="edge6" class="edge"><title>Node1&#45;&gt;Node6</title>
<path fill="none" stroke="midnightblue" d="M147.853,-55.5563C157.303,-54.2886 166.827,-53.0111 175.92,-51.7912"/>
<polygon fill="midnightblue" stroke="midnightblue" points="147.098,-52.1262 137.652,-56.9247 148.029,-59.064 147.098,-52.1262"/>
</g>
<!-- Node7 -->
<g id="node7" class="node"><title>Node7</title>
<g id="a_node7"><a xlink:href="$classNavEKF.html#a9eb8c77b7f824e2ebbf378f1d269290b" xlink:title="NavEKF::performArmingChecks">
<polygon fill="white" stroke="black" points="332,-0.5 332,-19.5 490,-19.5 490,-0.5 332,-0.5"/>
<text text-anchor="middle" x="411" y="-7.5" font-family="Helvetica,sans-Serif" font-size="10.00">NavEKF::performArmingChecks</text>
</a>
</g>
</g>
<!-- Node1&#45;&gt;Node7 -->
<g id="edge7" class="edge"><title>Node1&#45;&gt;Node7</title>
<path fill="none" stroke="midnightblue" d="M104.807,-46.1766C124.46,-36.048 149.858,-24.6853 174,-19 225.684,-6.82854 285.469,-4.66813 331.934,-5.50501"/>
<polygon fill="midnightblue" stroke="midnightblue" points="103.135,-43.1014 95.929,-50.8685 106.406,-49.2903 103.135,-43.1014"/>
</g>
<!-- Node3 -->
<g id="node3" class="node"><title>Node3</title>
<g id="a_node3"><a xlink:href="$classNavEKF.html#a02ca7503660ded3d95abce7c81d2eebf" xlink:title="NavEKF::SetFlightAndFusion\lModes">
<polygon fill="white" stroke="black" points="338,-67 338,-97 484,-97 484,-67 338,-67"/>
<text text-anchor="start" x="346" y="-85" font-family="Helvetica,sans-Serif" font-size="10.00">NavEKF::SetFlightAndFusion</text>
<text text-anchor="middle" x="411" y="-74" font-family="Helvetica,sans-Serif" font-size="10.00">Modes</text>
</a>
</g>
</g>
<!-- Node2&#45;&gt;Node3 -->
<g id="edge2" class="edge"><title>Node2&#45;&gt;Node3</title>
<path fill="none" stroke="midnightblue" d="M305.888,-85.5901C316.46,-85.2255 327.383,-84.8489 337.999,-84.4828"/>
<polygon fill="midnightblue" stroke="midnightblue" points="305.754,-82.0925 295.881,-85.9351 305.996,-89.0883 305.754,-82.0925"/>
</g>
<!-- Node3&#45;&gt;Node4 -->
<g id="edge3" class="edge"><title>Node3&#45;&gt;Node4</title>
<path fill="none" stroke="midnightblue" d="M494.581,-82C505.198,-82 515.884,-82 525.991,-82"/>
<polygon fill="midnightblue" stroke="midnightblue" points="494.445,-78.5001 484.445,-82 494.445,-85.5001 494.445,-78.5001"/>
</g>
<!-- Node5 -->
<g id="node5" class="node"><title>Node5</title>
<g id="a_node5"><a xlink:href="$classNavEKF.html#a58d3c9694abab421e8eadd78e72ac67c" xlink:title="NavEKF::UpdateFilter">
<polygon fill="white" stroke="black" points="528.5,-9.5 528.5,-28.5 641.5,-28.5 641.5,-9.5 528.5,-9.5"/>
<text text-anchor="middle" x="585" y="-16.5" font-family="Helvetica,sans-Serif" font-size="10.00">NavEKF::UpdateFilter</text>
</a>
</g>
</g>
<!-- Node3&#45;&gt;Node5 -->
<g id="edge4" class="edge"><title>Node3&#45;&gt;Node5</title>
<path fill="none" stroke="midnightblue" d="M462.627,-63.4562C493.865,-52.0144 532.644,-37.8106 557.838,-28.5825"/>
<polygon fill="midnightblue" stroke="midnightblue" points="461.384,-60.184 453.198,-66.9099 463.792,-66.757 461.384,-60.184"/>
</g>
<!-- Node7&#45;&gt;Node5 -->
<g id="edge8" class="edge"><title>Node7&#45;&gt;Node5</title>
<path fill="none" stroke="midnightblue" d="M500.481,-14.6298C509.962,-15.1259 519.403,-15.6199 528.342,-16.0876"/>
<polygon fill="midnightblue" stroke="midnightblue" points="500.368,-11.1192 490.199,-14.0918 500.002,-18.1097 500.368,-11.1192"/>
</g>
</g>
</svg>
