<?xml version="1.0" encoding="UTF-8" standalone="no"?>
<!DOCTYPE svg PUBLIC "-//W3C//DTD SVG 1.1//EN"
 "http://www.w3.org/Graphics/SVG/1.1/DTD/svg11.dtd">
<!-- Generated by graphviz version 2.36.0 (20140111.2315)
 -->
<!-- Title: DataFlash_APM1::ReadManufacturerID Pages: 1 -->
<svg width="556pt" height="268pt"
 viewBox="0.00 0.00 556.00 268.00" xmlns="http://www.w3.org/2000/svg" xmlns:xlink="http://www.w3.org/1999/xlink">
<g id="graph0" class="graph" transform="scale(1 1) rotate(0) translate(4 264)">
<title>DataFlash_APM1::ReadManufacturerID</title>
<polygon fill="white" stroke="none" points="-4,4 -4,-264 552,-264 552,4 -4,4"/>
<!-- Node1 -->
<g id="node1" class="node"><title>Node1</title>
<polygon fill="#bfbfbf" stroke="black" points="0.5,-93.5 0.5,-112.5 191.5,-112.5 191.5,-93.5 0.5,-93.5"/>
<text text-anchor="middle" x="96" y="-100.5" font-family="Helvetica,sans-Serif" font-size="10.00">DataFlash_APM1::ReadManufacturerID</text>
</g>
<!-- Node2 -->
<g id="node2" class="node"><title>Node2</title>
<g id="a_node2"><a xlink:href="$classDataFlash__APM1.html#a08dfc6388a7a6f4dbe306edff23b410e" xlink:title="DataFlash_APM1::_sem_take">
<polygon fill="white" stroke="black" points="228,-186.5 228,-205.5 376,-205.5 376,-186.5 228,-186.5"/>
<text text-anchor="middle" x="302" y="-193.5" font-family="Helvetica,sans-Serif" font-size="10.00">DataFlash_APM1::_sem_take</text>
</a>
</g>
</g>
<!-- Node1&#45;&gt;Node2 -->
<g id="edge1" class="edge"><title>Node1&#45;&gt;Node2</title>
<path fill="none" stroke="midnightblue" d="M111.351,-112.527C134.855,-127.771 183.412,-157.781 228,-176 234.858,-178.802 242.235,-181.34 249.571,-183.594"/>
<polygon fill="midnightblue" stroke="midnightblue" points="248.915,-187.049 259.496,-186.49 250.876,-180.329 248.915,-187.049"/>
</g>
<!-- Node6 -->
<g id="node6" class="node"><title>Node6</title>
<g id="a_node6"><a xlink:href="$classAP__HAL_1_1SPIDeviceDriver.html#adcf5550715404a610251a05f19c5d7f7" xlink:title="AP_HAL::SPIDeviceDriver\l::cs_assert">
<polygon fill="white" stroke="black" points="235,-137 235,-167 369,-167 369,-137 235,-137"/>
<text text-anchor="start" x="243" y="-155" font-family="Helvetica,sans-Serif" font-size="10.00">AP_HAL::SPIDeviceDriver</text>
<text text-anchor="middle" x="302" y="-144" font-family="Helvetica,sans-Serif" font-size="10.00">::cs_assert</text>
</a>
</g>
</g>
<!-- Node1&#45;&gt;Node6 -->
<g id="edge5" class="edge"><title>Node1&#45;&gt;Node6</title>
<path fill="none" stroke="midnightblue" d="M136.818,-112.564C162.87,-118.822 197.675,-127.182 228.533,-134.594"/>
<polygon fill="midnightblue" stroke="midnightblue" points="227.856,-138.031 238.397,-136.963 229.491,-131.224 227.856,-138.031"/>
</g>
<!-- Node7 -->
<g id="node7" class="node"><title>Node7</title>
<g id="a_node7"><a xlink:href="$classAP__HAL_1_1SPIDeviceDriver.html#ab5464ab7f3f7936ba955e7ac111a8991" xlink:title="AP_HAL::SPIDeviceDriver\l::transfer">
<polygon fill="white" stroke="black" points="235,-88 235,-118 369,-118 369,-88 235,-88"/>
<text text-anchor="start" x="243" y="-106" font-family="Helvetica,sans-Serif" font-size="10.00">AP_HAL::SPIDeviceDriver</text>
<text text-anchor="middle" x="302" y="-95" font-family="Helvetica,sans-Serif" font-size="10.00">::transfer</text>
</a>
</g>
</g>
<!-- Node1&#45;&gt;Node7 -->
<g id="edge6" class="edge"><title>Node1&#45;&gt;Node7</title>
<path fill="none" stroke="midnightblue" d="M191.535,-103C202.593,-103 213.768,-103 224.537,-103"/>
<polygon fill="midnightblue" stroke="midnightblue" points="224.721,-106.5 234.721,-103 224.721,-99.5001 224.721,-106.5"/>
</g>
<!-- Node8 -->
<g id="node8" class="node"><title>Node8</title>
<g id="a_node8"><a xlink:href="$classAP__HAL_1_1SPIDeviceDriver.html#ac4f961b121a7f66fb189e63e617d4715" xlink:title="AP_HAL::SPIDeviceDriver\l::cs_release">
<polygon fill="white" stroke="black" points="235,-39 235,-69 369,-69 369,-39 235,-39"/>
<text text-anchor="start" x="243" y="-57" font-family="Helvetica,sans-Serif" font-size="10.00">AP_HAL::SPIDeviceDriver</text>
<text text-anchor="middle" x="302" y="-46" font-family="Helvetica,sans-Serif" font-size="10.00">::cs_release</text>
</a>
</g>
</g>
<!-- Node1&#45;&gt;Node8 -->
<g id="edge7" class="edge"><title>Node1&#45;&gt;Node8</title>
<path fill="none" stroke="midnightblue" d="M136.818,-93.436C162.87,-87.1782 197.675,-78.8183 228.533,-71.4063"/>
<polygon fill="midnightblue" stroke="midnightblue" points="229.491,-74.7758 238.397,-69.037 227.856,-67.9694 229.491,-74.7758"/>
</g>
<!-- Node9 -->
<g id="node9" class="node"><title>Node9</title>
<g id="a_node9"><a xlink:href="$classAP__HAL_1_1Semaphore.html#afcdbf03d5bea9d83037acc93bfaea7ce" xlink:title="AP_HAL::Semaphore::give">
<polygon fill="white" stroke="black" points="235,-0.5 235,-19.5 369,-19.5 369,-0.5 235,-0.5"/>
<text text-anchor="middle" x="302" y="-7.5" font-family="Helvetica,sans-Serif" font-size="10.00">AP_HAL::Semaphore::give</text>
</a>
</g>
</g>
<!-- Node1&#45;&gt;Node9 -->
<g id="edge8" class="edge"><title>Node1&#45;&gt;Node9</title>
<path fill="none" stroke="midnightblue" d="M111.303,-93.263C134.739,-77.6972 183.203,-47.122 228,-29 233.975,-26.5828 240.351,-24.3928 246.753,-22.4319"/>
<polygon fill="midnightblue" stroke="midnightblue" points="248.142,-25.6739 256.78,-19.5393 246.202,-18.9481 248.142,-25.6739"/>
</g>
<!-- Node3 -->
<g id="node3" class="node"><title>Node3</title>
<g id="a_node3"><a xlink:href="$classAP__HAL_1_1Scheduler.html#a5eb9be7ed92b52a7eadcfd82072f3bc6" xlink:title="AP_HAL::Scheduler::\lin_timerprocess">
<polygon fill="white" stroke="black" points="425,-230 425,-260 535,-260 535,-230 425,-230"/>
<text text-anchor="start" x="433" y="-248" font-family="Helvetica,sans-Serif" font-size="10.00">AP_HAL::Scheduler::</text>
<text text-anchor="middle" x="480" y="-237" font-family="Helvetica,sans-Serif" font-size="10.00">in_timerprocess</text>
</a>
</g>
</g>
<!-- Node2&#45;&gt;Node3 -->
<g id="edge2" class="edge"><title>Node2&#45;&gt;Node3</title>
<path fill="none" stroke="midnightblue" d="M337.352,-205.564C359.44,-211.713 388.819,-219.893 415.093,-227.208"/>
<polygon fill="midnightblue" stroke="midnightblue" points="414.417,-230.653 424.99,-229.963 416.295,-223.909 414.417,-230.653"/>
</g>
<!-- Node4 -->
<g id="node4" class="node"><title>Node4</title>
<g id="a_node4"><a xlink:href="$classAP__HAL_1_1Semaphore.html#a266e91db5eecb64d8b934d09f5e972cf" xlink:title="AP_HAL::Semaphore::\ltake_nonblocking">
<polygon fill="white" stroke="black" points="422,-181 422,-211 538,-211 538,-181 422,-181"/>
<text text-anchor="start" x="430" y="-199" font-family="Helvetica,sans-Serif" font-size="10.00">AP_HAL::Semaphore::</text>
<text text-anchor="middle" x="480" y="-188" font-family="Helvetica,sans-Serif" font-size="10.00">take_nonblocking</text>
</a>
</g>
</g>
<!-- Node2&#45;&gt;Node4 -->
<g id="edge3" class="edge"><title>Node2&#45;&gt;Node4</title>
<path fill="none" stroke="midnightblue" d="M376.111,-196C387.944,-196 400.148,-196 411.832,-196"/>
<polygon fill="midnightblue" stroke="midnightblue" points="411.943,-199.5 421.943,-196 411.943,-192.5 411.943,-199.5"/>
</g>
<!-- Node5 -->
<g id="node5" class="node"><title>Node5</title>
<g id="a_node5"><a xlink:href="$classAP__HAL_1_1Semaphore.html#abd3a0affad8bb211981a979f30386589" xlink:title="AP_HAL::Semaphore::take">
<polygon fill="white" stroke="black" points="412.5,-142.5 412.5,-161.5 547.5,-161.5 547.5,-142.5 412.5,-142.5"/>
<text text-anchor="middle" x="480" y="-149.5" font-family="Helvetica,sans-Serif" font-size="10.00">AP_HAL::Semaphore::take</text>
</a>
</g>
</g>
<!-- Node2&#45;&gt;Node5 -->
<g id="edge4" class="edge"><title>Node2&#45;&gt;Node5</title>
<path fill="none" stroke="midnightblue" d="M341.189,-186.453C367.482,-179.88 402.619,-171.095 430.833,-164.042"/>
<polygon fill="midnightblue" stroke="midnightblue" points="432.033,-167.35 440.885,-161.529 430.335,-160.559 432.033,-167.35"/>
</g>
</g>
</svg>
