<?xml version="1.0" encoding="UTF-8" standalone="no"?>
<!DOCTYPE svg PUBLIC "-//W3C//DTD SVG 1.1//EN"
 "http://www.w3.org/Graphics/SVG/1.1/DTD/svg11.dtd">
<!-- Generated by graphviz version 2.36.0 (20140111.2315)
 -->
<!-- Title: AP_GPS_SBP::_sbp_process Pages: 1 -->
<svg width="1300pt" height="301pt"
 viewBox="0.00 0.00 1300.00 300.58" xmlns="http://www.w3.org/2000/svg" xmlns:xlink="http://www.w3.org/1999/xlink">
<g id="graph0" class="graph" transform="scale(1 1) rotate(0) translate(4 296.579)">
<title>AP_GPS_SBP::_sbp_process</title>
<polygon fill="white" stroke="none" points="-4,4 -4,-296.579 1296,-296.579 1296,4 -4,4"/>
<!-- Node1 -->
<g id="node1" class="node"><title>Node1</title>
<polygon fill="#bfbfbf" stroke="black" points="0.5,-216.079 0.5,-235.079 149.5,-235.079 149.5,-216.079 0.5,-216.079"/>
<text text-anchor="middle" x="75" y="-223.079" font-family="Helvetica,sans-Serif" font-size="10.00">AP_GPS_SBP::_sbp_process</text>
</g>
<!-- Node2 -->
<g id="node2" class="node"><title>Node2</title>
<g id="a_node2"><a xlink:href="$classAP__HAL_1_1Stream.html#ae687e48f5689af94d66fb88822923e12" xlink:title="AP_HAL::Stream::available">
<polygon fill="white" stroke="black" points="192.5,-273.079 192.5,-292.079 329.5,-292.079 329.5,-273.079 192.5,-273.079"/>
<text text-anchor="middle" x="261" y="-280.079" font-family="Helvetica,sans-Serif" font-size="10.00">AP_HAL::Stream::available</text>
</a>
</g>
</g>
<!-- Node1&#45;&gt;Node2 -->
<g id="edge1" class="edge"><title>Node1&#45;&gt;Node2</title>
<path fill="none" stroke="midnightblue" d="M101.59,-235.081C123.762,-243.155 156.782,-254.797 186,-263.579 193.857,-265.941 202.237,-268.27 210.428,-270.445"/>
<polygon fill="midnightblue" stroke="midnightblue" points="209.72,-273.877 220.279,-273.014 211.486,-267.104 209.72,-273.877"/>
</g>
<!-- Node3 -->
<g id="node3" class="node"><title>Node3</title>
<g id="a_node3"><a xlink:href="$classAP__HAL_1_1Stream.html#ae42ff362cc2a7e527c22f92a3740c2ac" xlink:title="AP_HAL::Stream::read">
<polygon fill="white" stroke="black" points="202.5,-235.079 202.5,-254.079 319.5,-254.079 319.5,-235.079 202.5,-235.079"/>
<text text-anchor="middle" x="261" y="-242.079" font-family="Helvetica,sans-Serif" font-size="10.00">AP_HAL::Stream::read</text>
</a>
</g>
</g>
<!-- Node1&#45;&gt;Node3 -->
<g id="edge2" class="edge"><title>Node1&#45;&gt;Node3</title>
<path fill="none" stroke="midnightblue" d="M149.515,-233.17C163.692,-234.634 178.479,-236.161 192.455,-237.604"/>
<polygon fill="midnightblue" stroke="midnightblue" points="192.161,-241.093 202.467,-238.638 192.88,-234.13 192.161,-241.093"/>
</g>
<!-- Node4 -->
<g id="node4" class="node"><title>Node4</title>
<g id="a_node4"><a xlink:href="$edc_8cpp.html#a666dccd038ea3bdbae05549319f783d6" xlink:title="crc16_ccitt">
<polygon fill="white" stroke="black" points="228.5,-197.079 228.5,-216.079 293.5,-216.079 293.5,-197.079 228.5,-197.079"/>
<text text-anchor="middle" x="261" y="-204.079" font-family="Helvetica,sans-Serif" font-size="10.00">crc16_ccitt</text>
</a>
</g>
</g>
<!-- Node1&#45;&gt;Node4 -->
<g id="edge3" class="edge"><title>Node1&#45;&gt;Node4</title>
<path fill="none" stroke="midnightblue" d="M149.515,-217.988C172.871,-215.576 197.885,-212.993 218.195,-210.896"/>
<polygon fill="midnightblue" stroke="midnightblue" points="218.766,-214.356 228.354,-209.847 218.047,-207.393 218.766,-214.356"/>
</g>
<!-- Node6 -->
<g id="node6" class="node"><title>Node6</title>
<g id="a_node6"><a xlink:href="$classAP__GPS__SBP.html#a95d51866fda5a620229c74d5684acce4" xlink:title="AP_GPS_SBP::_sbp_process\l_message">
<polygon fill="white" stroke="black" points="186.5,-147.579 186.5,-177.579 335.5,-177.579 335.5,-147.579 186.5,-147.579"/>
<text text-anchor="start" x="194.5" y="-165.579" font-family="Helvetica,sans-Serif" font-size="10.00">AP_GPS_SBP::_sbp_process</text>
<text text-anchor="middle" x="261" y="-154.579" font-family="Helvetica,sans-Serif" font-size="10.00">_message</text>
</a>
</g>
</g>
<!-- Node1&#45;&gt;Node6 -->
<g id="edge5" class="edge"><title>Node1&#45;&gt;Node6</title>
<path fill="none" stroke="midnightblue" d="M103.558,-216.001C125.796,-208.286 157.894,-197.181 186,-187.579 192.38,-185.399 199.073,-183.123 205.717,-180.871"/>
<polygon fill="midnightblue" stroke="midnightblue" points="207.024,-184.123 215.374,-177.601 204.779,-177.493 207.024,-184.123"/>
</g>
<!-- Node5 -->
<g id="node5" class="node"><title>Node5</title>
<g id="a_node5"><a xlink:href="$AP__Progmem__Identity_8h.html#a9fc333349fa71fdc21a2d5152c5e23a2" xlink:title="pgm_read_word">
<polygon fill="white" stroke="black" points="389,-197.079 389,-216.079 475,-216.079 475,-197.079 389,-197.079"/>
<text text-anchor="middle" x="432" y="-204.079" font-family="Helvetica,sans-Serif" font-size="10.00">pgm_read_word</text>
</a>
</g>
</g>
<!-- Node4&#45;&gt;Node5 -->
<g id="edge4" class="edge"><title>Node4&#45;&gt;Node5</title>
<path fill="none" stroke="midnightblue" d="M293.788,-206.579C317.612,-206.579 350.744,-206.579 378.483,-206.579"/>
<polygon fill="midnightblue" stroke="midnightblue" points="378.819,-210.079 388.819,-206.579 378.819,-203.079 378.819,-210.079"/>
</g>
<!-- Node7 -->
<g id="node7" class="node"><title>Node7</title>
<g id="a_node7"><a xlink:href="$classAP__HAL_1_1Scheduler.html#a26b68339fc68a562d8d3a1238d0ec8c1" xlink:title="AP_HAL::Scheduler::\lmillis">
<polygon fill="white" stroke="black" points="538,-153.579 538,-183.579 648,-183.579 648,-153.579 538,-153.579"/>
<text text-anchor="start" x="546" y="-171.579" font-family="Helvetica,sans-Serif" font-size="10.00">AP_HAL::Scheduler::</text>
<text text-anchor="middle" x="593" y="-160.579" font-family="Helvetica,sans-Serif" font-size="10.00">millis</text>
</a>
</g>
</g>
<!-- Node6&#45;&gt;Node7 -->
<g id="edge6" class="edge"><title>Node6&#45;&gt;Node7</title>
<path fill="none" stroke="midnightblue" d="M335.648,-163.918C393.2,-164.965 472.405,-166.405 527.484,-167.406"/>
<polygon fill="midnightblue" stroke="midnightblue" points="527.758,-170.912 537.82,-167.594 527.885,-163.913 527.758,-170.912"/>
</g>
<!-- Node8 -->
<g id="node8" class="node"><title>Node8</title>
<g id="a_node8"><a xlink:href="$classAP__GPS__SBP.html#a03c2f3629f94e7b6df5989cc33d9d59a" xlink:title="AP_GPS_SBP::logging\l_log_raw_sbp">
<polygon fill="white" stroke="black" points="372.5,-104.579 372.5,-134.579 491.5,-134.579 491.5,-104.579 372.5,-104.579"/>
<text text-anchor="start" x="380.5" y="-122.579" font-family="Helvetica,sans-Serif" font-size="10.00">AP_GPS_SBP::logging</text>
<text text-anchor="middle" x="432" y="-111.579" font-family="Helvetica,sans-Serif" font-size="10.00">_log_raw_sbp</text>
</a>
</g>
</g>
<!-- Node6&#45;&gt;Node8 -->
<g id="edge7" class="edge"><title>Node6&#45;&gt;Node8</title>
<path fill="none" stroke="midnightblue" d="M321.108,-147.54C334.512,-144.129 348.856,-140.48 362.608,-136.981"/>
<polygon fill="midnightblue" stroke="midnightblue" points="363.668,-140.323 372.496,-134.465 361.942,-133.539 363.668,-140.323"/>
</g>
<!-- Node8&#45;&gt;Node7 -->
<g id="edge15" class="edge"><title>Node8&#45;&gt;Node7</title>
<path fill="none" stroke="midnightblue" d="M482.003,-134.681C498.249,-139.687 516.499,-145.312 533.394,-150.518"/>
<polygon fill="midnightblue" stroke="midnightblue" points="532.572,-153.927 543.159,-153.528 534.633,-147.238 532.572,-153.927"/>
</g>
<!-- Node9 -->
<g id="node9" class="node"><title>Node9</title>
<g id="a_node9"><a xlink:href="$classDataFlash__Class.html#ad15905fd635a59cc510a7781a9c4f3d9" xlink:title="DataFlash_Class::logging\l_started">
<polygon fill="white" stroke="black" points="528.5,-104.579 528.5,-134.579 657.5,-134.579 657.5,-104.579 528.5,-104.579"/>
<text text-anchor="start" x="536.5" y="-122.579" font-family="Helvetica,sans-Serif" font-size="10.00">DataFlash_Class::logging</text>
<text text-anchor="middle" x="593" y="-111.579" font-family="Helvetica,sans-Serif" font-size="10.00">_started</text>
</a>
</g>
</g>
<!-- Node8&#45;&gt;Node9 -->
<g id="edge8" class="edge"><title>Node8&#45;&gt;Node9</title>
<path fill="none" stroke="midnightblue" d="M491.754,-119.579C500.431,-119.579 509.462,-119.579 518.394,-119.579"/>
<polygon fill="midnightblue" stroke="midnightblue" points="518.412,-123.079 528.412,-119.579 518.412,-116.079 518.412,-123.079"/>
</g>
<!-- Node10 -->
<g id="node10" class="node"><title>Node10</title>
<g id="a_node10"><a xlink:href="$classAP__GPS__SBP.html#ad7b0b15f5b06d35e0537da4c29447e7c" xlink:title="AP_GPS_SBP::logging\l_write_headers">
<polygon fill="white" stroke="black" points="533.5,-55.5791 533.5,-85.5791 652.5,-85.5791 652.5,-55.5791 533.5,-55.5791"/>
<text text-anchor="start" x="541.5" y="-73.5791" font-family="Helvetica,sans-Serif" font-size="10.00">AP_GPS_SBP::logging</text>
<text text-anchor="middle" x="593" y="-62.5791" font-family="Helvetica,sans-Serif" font-size="10.00">_write_headers</text>
</a>
</g>
</g>
<!-- Node8&#45;&gt;Node10 -->
<g id="edge9" class="edge"><title>Node8&#45;&gt;Node10</title>
<path fill="none" stroke="midnightblue" d="M482.003,-104.478C498.249,-99.4708 516.499,-93.8467 533.394,-88.6402"/>
<polygon fill="midnightblue" stroke="midnightblue" points="534.633,-91.9206 543.159,-85.6307 532.572,-85.2311 534.633,-91.9206"/>
</g>
<!-- Node15 -->
<g id="node15" class="node"><title>Node15</title>
<g id="a_node15"><a xlink:href="$classDataFlash__Class.html#af5e6aefb8f2136e9104be836dac88625" xlink:title="DataFlash_Class::WriteBlock">
<polygon fill="white" stroke="black" points="1048,-17.0791 1048,-36.0791 1194,-36.0791 1194,-17.0791 1048,-17.0791"/>
<text text-anchor="middle" x="1121" y="-24.0791" font-family="Helvetica,sans-Serif" font-size="10.00">DataFlash_Class::WriteBlock</text>
</a>
</g>
</g>
<!-- Node8&#45;&gt;Node15 -->
<g id="edge16" class="edge"><title>Node8&#45;&gt;Node15</title>
<path fill="none" stroke="midnightblue" d="M446.346,-104.542C463.287,-86.6685 494.38,-57.7344 528,-45.5791 708.286,19.6032 939.947,-0.0750758 1052.54,-15.5844"/>
<polygon fill="midnightblue" stroke="midnightblue" points="1052.35,-19.091 1062.74,-17.0221 1053.32,-12.1596 1052.35,-19.091"/>
</g>
<!-- Node11 -->
<g id="node11" class="node"><title>Node11</title>
<g id="a_node11"><a xlink:href="$classDataFlash__Class.html#a29bebad0ba87297f083ecc1bc23bed51" xlink:title="DataFlash_Class::AddLogFormats">
<polygon fill="white" stroke="black" points="694.5,-61.0791 694.5,-80.0791 861.5,-80.0791 861.5,-61.0791 694.5,-61.0791"/>
<text text-anchor="middle" x="778" y="-68.0791" font-family="Helvetica,sans-Serif" font-size="10.00">DataFlash_Class::AddLogFormats</text>
</a>
</g>
</g>
<!-- Node10&#45;&gt;Node11 -->
<g id="edge10" class="edge"><title>Node10&#45;&gt;Node11</title>
<path fill="none" stroke="midnightblue" d="M652.657,-70.5791C662.719,-70.5791 673.392,-70.5791 684.09,-70.5791"/>
<polygon fill="midnightblue" stroke="midnightblue" points="684.336,-74.0792 694.336,-70.5791 684.335,-67.0792 684.336,-74.0792"/>
</g>
<!-- Node12 -->
<g id="node12" class="node"><title>Node12</title>
<g id="a_node12"><a xlink:href="$classDataFlash__Class.html#a258d0eb16b61ced019be5a17bfe51b21" xlink:title="DataFlash_Class::Log\l_Write_Format">
<polygon fill="white" stroke="black" points="898,-55.5791 898,-85.5791 1012,-85.5791 1012,-55.5791 898,-55.5791"/>
<text text-anchor="start" x="906" y="-73.5791" font-family="Helvetica,sans-Serif" font-size="10.00">DataFlash_Class::Log</text>
<text text-anchor="middle" x="955" y="-62.5791" font-family="Helvetica,sans-Serif" font-size="10.00">_Write_Format</text>
</a>
</g>
</g>
<!-- Node11&#45;&gt;Node12 -->
<g id="edge11" class="edge"><title>Node11&#45;&gt;Node12</title>
<path fill="none" stroke="midnightblue" d="M861.632,-70.5791C870.314,-70.5791 879.061,-70.5791 887.528,-70.5791"/>
<polygon fill="midnightblue" stroke="midnightblue" points="887.695,-74.0792 897.695,-70.5791 887.695,-67.0792 887.695,-74.0792"/>
</g>
<!-- Node13 -->
<g id="node13" class="node"><title>Node13</title>
<g id="a_node13"><a xlink:href="$classDataFlash__Class.html#a972466284a00ba479b9752a8fa43415e" xlink:title="DataFlash_Class::Log\l_Fill_Format">
<polygon fill="white" stroke="black" points="1064,-55.5791 1064,-85.5791 1178,-85.5791 1178,-55.5791 1064,-55.5791"/>
<text text-anchor="start" x="1072" y="-73.5791" font-family="Helvetica,sans-Serif" font-size="10.00">DataFlash_Class::Log</text>
<text text-anchor="middle" x="1121" y="-62.5791" font-family="Helvetica,sans-Serif" font-size="10.00">_Fill_Format</text>
</a>
</g>
</g>
<!-- Node12&#45;&gt;Node13 -->
<g id="edge12" class="edge"><title>Node12&#45;&gt;Node13</title>
<path fill="none" stroke="midnightblue" d="M1012.44,-70.5791C1025.66,-70.5791 1039.86,-70.5791 1053.47,-70.5791"/>
<polygon fill="midnightblue" stroke="midnightblue" points="1053.73,-74.0792 1063.73,-70.5791 1053.73,-67.0792 1053.73,-74.0792"/>
</g>
<!-- Node12&#45;&gt;Node15 -->
<g id="edge14" class="edge"><title>Node12&#45;&gt;Node15</title>
<path fill="none" stroke="midnightblue" d="M1010.95,-55.5751C1023.15,-52.2659 1036.01,-48.7904 1048,-45.5791 1056.35,-43.3436 1065.24,-40.9802 1073.83,-38.708"/>
<polygon fill="midnightblue" stroke="midnightblue" points="1074.95,-42.0329 1083.73,-36.0957 1073.17,-35.2649 1074.95,-42.0329"/>
</g>
<!-- Node14 -->
<g id="node14" class="node"><title>Node14</title>
<g id="a_node14"><a xlink:href="$AP__Progmem__AVR_8h.html#a00eef44be35a92b1ef4067ea49bea7a3" xlink:title="strncpy_P">
<polygon fill="white" stroke="black" points="1230.5,-61.0791 1230.5,-80.0791 1291.5,-80.0791 1291.5,-61.0791 1230.5,-61.0791"/>
<text text-anchor="middle" x="1261" y="-68.0791" font-family="Helvetica,sans-Serif" font-size="10.00">strncpy_P</text>
</a>
</g>
</g>
<!-- Node13&#45;&gt;Node14 -->
<g id="edge13" class="edge"><title>Node13&#45;&gt;Node14</title>
<path fill="none" stroke="midnightblue" d="M1178.13,-70.5791C1192.26,-70.5791 1207.14,-70.5791 1220.28,-70.5791"/>
<polygon fill="midnightblue" stroke="midnightblue" points="1220.4,-74.0792 1230.4,-70.5791 1220.4,-67.0792 1220.4,-74.0792"/>
</g>
</g>
</svg>
