<?xml version="1.0" encoding="UTF-8" standalone="no"?>
<!DOCTYPE svg PUBLIC "-//W3C//DTD SVG 1.1//EN"
 "http://www.w3.org/Graphics/SVG/1.1/DTD/svg11.dtd">
<!-- Generated by graphviz version 2.36.0 (20140111.2315)
 -->
<!-- Title: EEPROMClass::count Pages: 1 -->
<svg width="1636pt" height="203pt"
 viewBox="0.00 0.00 1636.00 203.36" xmlns="http://www.w3.org/2000/svg" xmlns:xlink="http://www.w3.org/1999/xlink">
<g id="graph0" class="graph" transform="scale(1 1) rotate(0) translate(4 199.364)">
<title>EEPROMClass::count</title>
<polygon fill="white" stroke="none" points="-4,4 -4,-199.364 1632,-199.364 1632,4 -4,4"/>
<!-- Node1 -->
<g id="node1" class="node"><title>Node1</title>
<polygon fill="#bfbfbf" stroke="black" points="0,-61.8636 0,-80.8636 116,-80.8636 116,-61.8636 0,-61.8636"/>
<text text-anchor="middle" x="58" y="-68.8636" font-family="Helvetica,sans-Serif" font-size="10.00">EEPROMClass::count</text>
</g>
<!-- Node2 -->
<g id="node2" class="node"><title>Node2</title>
<g id="a_node2"><a xlink:href="$classEEPROMClass.html#a9e3825e66fd8112ed3768f726537c8c6" xlink:title="EEPROMClass::init">
<polygon fill="white" stroke="black" points="187,-99.8636 187,-118.864 291,-118.864 291,-99.8636 187,-99.8636"/>
<text text-anchor="middle" x="239" y="-106.864" font-family="Helvetica,sans-Serif" font-size="10.00">EEPROMClass::init</text>
</a>
</g>
</g>
<!-- Node1&#45;&gt;Node2 -->
<g id="edge1" class="edge"><title>Node1&#45;&gt;Node2</title>
<path fill="none" stroke="midnightblue" d="M104.169,-80.9526C128.216,-86.0575 157.974,-92.375 183.319,-97.7555"/>
<polygon fill="midnightblue" stroke="midnightblue" points="182.647,-101.191 193.156,-99.8436 184.1,-94.3432 182.647,-101.191"/>
</g>
<!-- Node18 -->
<g id="node18" class="node"><title>Node18</title>
<g id="a_node18"><a xlink:href="$classEEPROMClass.html#ad7d38e4333b7c3fba5ccd29c1d4c01bc" xlink:title="Find valid Page for write or read operation. ">
<polygon fill="white" stroke="black" points="152.5,-61.8636 152.5,-80.8636 325.5,-80.8636 325.5,-61.8636 152.5,-61.8636"/>
<text text-anchor="middle" x="239" y="-68.8636" font-family="Helvetica,sans-Serif" font-size="10.00">EEPROMClass::EE_FindValidPage</text>
</a>
</g>
</g>
<!-- Node1&#45;&gt;Node18 -->
<g id="edge24" class="edge"><title>Node1&#45;&gt;Node18</title>
<path fill="none" stroke="midnightblue" d="M116.129,-71.3636C124.529,-71.3636 133.369,-71.3636 142.292,-71.3636"/>
<polygon fill="midnightblue" stroke="midnightblue" points="142.382,-74.8637 152.382,-71.3636 142.382,-67.8637 142.382,-74.8637"/>
</g>
<!-- Node19 -->
<g id="node19" class="node"><title>Node19</title>
<g id="a_node19"><a xlink:href="$classEEPROMClass.html#a1aeaef5320c340ef8b5d860d6d0a907c" xlink:title="Calculate unique variables in EEPROM. ">
<polygon fill="white" stroke="black" points="155.5,-12.3636 155.5,-42.3636 322.5,-42.3636 322.5,-12.3636 155.5,-12.3636"/>
<text text-anchor="start" x="163.5" y="-30.3636" font-family="Helvetica,sans-Serif" font-size="10.00">EEPROMClass::EE_GetVariables</text>
<text text-anchor="middle" x="239" y="-19.3636" font-family="Helvetica,sans-Serif" font-size="10.00">Count</text>
</a>
</g>
</g>
<!-- Node1&#45;&gt;Node19 -->
<g id="edge25" class="edge"><title>Node1&#45;&gt;Node19</title>
<path fill="none" stroke="midnightblue" d="M97.8403,-61.8163C117.994,-56.8624 143.257,-50.6525 166.764,-44.8741"/>
<polygon fill="midnightblue" stroke="midnightblue" points="167.836,-48.2149 176.711,-42.429 166.165,-41.4173 167.836,-48.2149"/>
</g>
<!-- Node3 -->
<g id="node3" class="node"><title>Node3</title>
<g id="a_node3"><a xlink:href="$flash__stm32_8h.html#a4084d0184bab463a1579271bf474aaef" xlink:title="Unlocks the FLASH Program Erase Controller. ">
<polygon fill="white" stroke="black" points="619.5,-175.864 619.5,-194.864 704.5,-194.864 704.5,-175.864 619.5,-175.864"/>
<text text-anchor="middle" x="662" y="-182.864" font-family="Helvetica,sans-Serif" font-size="10.00">FLASH_Unlock</text>
</a>
</g>
</g>
<!-- Node2&#45;&gt;Node3 -->
<g id="edge2" class="edge"><title>Node2&#45;&gt;Node3</title>
<path fill="none" stroke="midnightblue" d="M255.468,-118.919C277.964,-132.261 321.457,-156 362,-166.364 446.558,-187.979 548.721,-189.422 609.086,-187.85"/>
<polygon fill="midnightblue" stroke="midnightblue" points="609.24,-191.347 619.131,-187.55 609.031,-184.35 609.24,-191.347"/>
</g>
<!-- Node4 -->
<g id="node4" class="node"><title>Node4</title>
<g id="a_node4"><a xlink:href="$classEEPROMClass.html#a42fc5632d6e320e5c08b8acc86a144d6" xlink:title="Check page for blank and erase it. ">
<polygon fill="white" stroke="black" points="568.5,-99.8636 568.5,-118.864 755.5,-118.864 755.5,-99.8636 568.5,-99.8636"/>
<text text-anchor="middle" x="662" y="-106.864" font-family="Helvetica,sans-Serif" font-size="10.00">EEPROMClass::EE_CheckErasePage</text>
</a>
</g>
</g>
<!-- Node2&#45;&gt;Node4 -->
<g id="edge3" class="edge"><title>Node2&#45;&gt;Node4</title>
<path fill="none" stroke="midnightblue" d="M291.202,-109.364C357.217,-109.364 473.571,-109.364 558.172,-109.364"/>
<polygon fill="midnightblue" stroke="midnightblue" points="558.326,-112.864 568.326,-109.364 558.326,-105.864 558.326,-112.864"/>
</g>
<!-- Node15 -->
<g id="node15" class="node"><title>Node15</title>
<g id="a_node15"><a xlink:href="$flash__stm32_8h.html#a67623617a6efb2676988073df8b08b23" xlink:title="Programs a half word at a specified address. ">
<polygon fill="white" stroke="black" points="990,-61.8636 990,-80.8636 1122,-80.8636 1122,-61.8636 990,-61.8636"/>
<text text-anchor="middle" x="1056" y="-68.8636" font-family="Helvetica,sans-Serif" font-size="10.00">FLASH_ProgramHalfWord</text>
</a>
</g>
</g>
<!-- Node2&#45;&gt;Node15 -->
<g id="edge16" class="edge"><title>Node2&#45;&gt;Node15</title>
<path fill="none" stroke="midnightblue" d="M291.408,-103.206C303.272,-100.399 315.487,-96.3125 326,-90.3636 346.248,-78.9065 340.834,-62.0204 362,-52.3636 590.296,51.7967 906.387,-26.3055 1015.84,-58.8814"/>
<polygon fill="midnightblue" stroke="midnightblue" points="1014.9,-62.2516 1025.48,-61.7923 1016.92,-55.5506 1014.9,-62.2516"/>
</g>
<!-- Node16 -->
<g id="node16" class="node"><title>Node16</title>
<g id="a_node16"><a xlink:href="$classEEPROMClass.html#ac7d841bc2db8825c19444dff0a7409c5" xlink:title="Erases PAGE0 and PAGE1 and writes EEPROM_VALID_PAGE / 0 header to PAGE0. ">
<polygon fill="white" stroke="black" points="387.5,-137.864 387.5,-156.864 506.5,-156.864 506.5,-137.864 387.5,-137.864"/>
<text text-anchor="middle" x="447" y="-144.864" font-family="Helvetica,sans-Serif" font-size="10.00">EEPROMClass::format</text>
</a>
</g>
</g>
<!-- Node2&#45;&gt;Node16 -->
<g id="edge17" class="edge"><title>Node2&#45;&gt;Node16</title>
<path fill="none" stroke="midnightblue" d="M291.186,-118.806C319.449,-124.019 354.75,-130.531 384.503,-136.02"/>
<polygon fill="midnightblue" stroke="midnightblue" points="383.893,-139.466 394.362,-137.838 385.163,-132.582 383.893,-139.466"/>
</g>
<!-- Node17 -->
<g id="node17" class="node"><title>Node17</title>
<g id="a_node17"><a xlink:href="$classEEPROMClass.html#a3d12060444d8cc649f0264ce23f7bbaf" xlink:title="Transfers last updated variables data from the full Page to an empty one. ">
<polygon fill="white" stroke="black" points="362.5,-61.8636 362.5,-80.8636 531.5,-80.8636 531.5,-61.8636 362.5,-61.8636"/>
<text text-anchor="middle" x="447" y="-68.8636" font-family="Helvetica,sans-Serif" font-size="10.00">EEPROMClass::EE_PageTransfer</text>
</a>
</g>
</g>
<!-- Node2&#45;&gt;Node17 -->
<g id="edge21" class="edge"><title>Node2&#45;&gt;Node17</title>
<path fill="none" stroke="midnightblue" d="M291.186,-99.9216C319.449,-94.708 354.75,-88.1961 384.503,-82.7077"/>
<polygon fill="midnightblue" stroke="midnightblue" points="385.163,-86.1451 394.362,-80.889 383.893,-79.2613 385.163,-86.1451"/>
</g>
<!-- Node5 -->
<g id="node5" class="node"><title>Node5</title>
<g id="a_node5"><a xlink:href="$classEEPROMClass.html#a7c3abd6e5990304a54ed0d1dae724b2d" xlink:title="Check page for blank. ">
<polygon fill="white" stroke="black" points="792.5,-61.8636 792.5,-80.8636 953.5,-80.8636 953.5,-61.8636 792.5,-61.8636"/>
<text text-anchor="middle" x="873" y="-68.8636" font-family="Helvetica,sans-Serif" font-size="10.00">EEPROMClass::EE_CheckPage</text>
</a>
</g>
</g>
<!-- Node4&#45;&gt;Node5 -->
<g id="edge4" class="edge"><title>Node4&#45;&gt;Node5</title>
<path fill="none" stroke="midnightblue" d="M715.47,-99.8237C744.041,-94.6289 779.58,-88.1673 809.569,-82.7147"/>
<polygon fill="midnightblue" stroke="midnightblue" points="810.296,-86.14 819.509,-80.9075 809.044,-79.2529 810.296,-86.14"/>
</g>
<!-- Node6 -->
<g id="node6" class="node"><title>Node6</title>
<g id="a_node6"><a xlink:href="$classEEPROMClass.html#ad3725e57079ea532ce74bb4e76b211dd" xlink:title="Erase page with increment erase counter (page + 2) ">
<polygon fill="white" stroke="black" points="794,-99.8636 794,-118.864 952,-118.864 952,-99.8636 794,-99.8636"/>
<text text-anchor="middle" x="873" y="-106.864" font-family="Helvetica,sans-Serif" font-size="10.00">EEPROMClass::EE_ErasePage</text>
</a>
</g>
</g>
<!-- Node4&#45;&gt;Node6 -->
<g id="edge5" class="edge"><title>Node4&#45;&gt;Node6</title>
<path fill="none" stroke="midnightblue" d="M755.583,-109.364C764.965,-109.364 774.476,-109.364 783.809,-109.364"/>
<polygon fill="midnightblue" stroke="midnightblue" points="783.853,-112.864 793.853,-109.364 783.853,-105.864 783.853,-112.864"/>
</g>
<!-- Node7 -->
<g id="node7" class="node"><title>Node7</title>
<g id="a_node7"><a xlink:href="$flash__stm32_8h.html#ab10d4a1c191d1d7f5b3a3b70927e6e69" xlink:title="Erases a specified FLASH page. ">
<polygon fill="white" stroke="black" points="1005,-99.8636 1005,-118.864 1107,-118.864 1107,-99.8636 1005,-99.8636"/>
<text text-anchor="middle" x="1056" y="-106.864" font-family="Helvetica,sans-Serif" font-size="10.00">FLASH_ErasePage</text>
</a>
</g>
</g>
<!-- Node6&#45;&gt;Node7 -->
<g id="edge6" class="edge"><title>Node6&#45;&gt;Node7</title>
<path fill="none" stroke="midnightblue" d="M952.074,-109.364C966.331,-109.364 981.008,-109.364 994.653,-109.364"/>
<polygon fill="midnightblue" stroke="midnightblue" points="994.862,-112.864 1004.86,-109.364 994.862,-105.864 994.862,-112.864"/>
</g>
<!-- Node6&#45;&gt;Node15 -->
<g id="edge14" class="edge"><title>Node6&#45;&gt;Node15</title>
<path fill="none" stroke="midnightblue" d="M919.674,-99.7746C943.989,-94.6698 974.08,-88.3523 999.708,-82.9718"/>
<polygon fill="midnightblue" stroke="midnightblue" points="1000.59,-86.3637 1009.65,-80.8837 999.149,-79.5131 1000.59,-86.3637"/>
</g>
<!-- Node8 -->
<g id="node8" class="node"><title>Node8</title>
<g id="a_node8"><a xlink:href="$flash__stm32F1_8h.html#a32f1f24182bcef29414d7b59c1669595" xlink:title="Waits for a Flash operation to complete or a TIMEOUT to occur. ">
<polygon fill="white" stroke="black" points="1158.5,-61.8636 1158.5,-80.8636 1307.5,-80.8636 1307.5,-61.8636 1158.5,-61.8636"/>
<text text-anchor="middle" x="1233" y="-68.8636" font-family="Helvetica,sans-Serif" font-size="10.00">FLASH_WaitForLastOperation</text>
</a>
</g>
</g>
<!-- Node7&#45;&gt;Node8 -->
<g id="edge7" class="edge"><title>Node7&#45;&gt;Node8</title>
<path fill="none" stroke="midnightblue" d="M1101.16,-99.7746C1124.57,-94.6924 1153.51,-88.4082 1178.21,-83.0433"/>
<polygon fill="midnightblue" stroke="midnightblue" points="1179.13,-86.426 1188.16,-80.8837 1177.64,-79.5855 1179.13,-86.426"/>
</g>
<!-- Node11 -->
<g id="node11" class="node"><title>Node11</title>
<g id="a_node11"><a xlink:href="$flash__stm32F2_8h.html#ae687b99f868242c3478fe2f070861abc" xlink:title="Erases a specified FLASH Sector. ">
<polygon fill="white" stroke="black" points="1179,-99.8636 1179,-118.864 1287,-118.864 1287,-99.8636 1179,-99.8636"/>
<text text-anchor="middle" x="1233" y="-106.864" font-family="Helvetica,sans-Serif" font-size="10.00">FLASH_EraseSector</text>
</a>
</g>
</g>
<!-- Node7&#45;&gt;Node11 -->
<g id="edge10" class="edge"><title>Node7&#45;&gt;Node11</title>
<path fill="none" stroke="midnightblue" d="M1107.15,-109.364C1126.33,-109.364 1148.46,-109.364 1168.71,-109.364"/>
<polygon fill="midnightblue" stroke="midnightblue" points="1168.79,-112.864 1178.79,-109.364 1168.79,-105.864 1168.79,-112.864"/>
</g>
<!-- Node9 -->
<g id="node9" class="node"><title>Node9</title>
<g id="a_node9"><a xlink:href="$flash__stm32F1_8h.html#ac265b8d1e7ea11e44ceee28797c3debb" xlink:title="Returns the FLASH Status. ">
<polygon fill="white" stroke="black" points="1370,-61.8636 1370,-80.8636 1468,-80.8636 1468,-61.8636 1370,-61.8636"/>
<text text-anchor="middle" x="1419" y="-68.8636" font-family="Helvetica,sans-Serif" font-size="10.00">FLASH_GetStatus</text>
</a>
</g>
</g>
<!-- Node8&#45;&gt;Node9 -->
<g id="edge8" class="edge"><title>Node8&#45;&gt;Node9</title>
<path fill="none" stroke="midnightblue" d="M1307.51,-71.3636C1324.92,-71.3636 1343.25,-71.3636 1359.87,-71.3636"/>
<polygon fill="midnightblue" stroke="midnightblue" points="1359.97,-74.8637 1369.97,-71.3636 1359.97,-67.8637 1359.97,-74.8637"/>
</g>
<!-- Node10 -->
<g id="node10" class="node"><title>Node10</title>
<g id="a_node10"><a xlink:href="$flash__stm32F1_8h.html#a6cb8040e5f4a9a8ac17286fd20c740ae" xlink:title="Inserts a time delay. ">
<polygon fill="white" stroke="black" points="1399,-23.8636 1399,-42.8636 1439,-42.8636 1439,-23.8636 1399,-23.8636"/>
<text text-anchor="middle" x="1419" y="-30.8636" font-family="Helvetica,sans-Serif" font-size="10.00">delay</text>
</a>
</g>
</g>
<!-- Node8&#45;&gt;Node10 -->
<g id="edge9" class="edge"><title>Node8&#45;&gt;Node10</title>
<path fill="none" stroke="midnightblue" d="M1280.43,-61.7746C1314.57,-54.7252 1359.9,-45.3633 1389.02,-39.3496"/>
<polygon fill="midnightblue" stroke="midnightblue" points="1389.87,-42.7463 1398.96,-37.2961 1388.46,-35.891 1389.87,-42.7463"/>
</g>
<!-- Node12 -->
<g id="node12" class="node"><title>Node12</title>
<g id="a_node12"><a xlink:href="$flash__stm32F2_8h.html#a32f1f24182bcef29414d7b59c1669595" xlink:title="Waits for a Flash operation to complete or a TIMEOUT to occur. ">
<polygon fill="white" stroke="black" points="1344.5,-99.8636 1344.5,-118.864 1493.5,-118.864 1493.5,-99.8636 1344.5,-99.8636"/>
<text text-anchor="middle" x="1419" y="-106.864" font-family="Helvetica,sans-Serif" font-size="10.00">FLASH_WaitForLastOperation</text>
</a>
</g>
</g>
<!-- Node11&#45;&gt;Node12 -->
<g id="edge11" class="edge"><title>Node11&#45;&gt;Node12</title>
<path fill="none" stroke="midnightblue" d="M1287.22,-109.364C1301.85,-109.364 1318.08,-109.364 1333.98,-109.364"/>
<polygon fill="midnightblue" stroke="midnightblue" points="1334.37,-112.864 1344.37,-109.364 1334.37,-105.864 1334.37,-112.864"/>
</g>
<!-- Node13 -->
<g id="node13" class="node"><title>Node13</title>
<g id="a_node13"><a xlink:href="$flash__stm32F2_8h.html#ac265b8d1e7ea11e44ceee28797c3debb" xlink:title="Returns the FLASH Status. ">
<polygon fill="white" stroke="black" points="1530,-118.864 1530,-137.864 1628,-137.864 1628,-118.864 1530,-118.864"/>
<text text-anchor="middle" x="1579" y="-125.864" font-family="Helvetica,sans-Serif" font-size="10.00">FLASH_GetStatus</text>
</a>
</g>
</g>
<!-- Node12&#45;&gt;Node13 -->
<g id="edge12" class="edge"><title>Node12&#45;&gt;Node13</title>
<path fill="none" stroke="midnightblue" d="M1493.91,-118.252C1502.59,-119.295 1511.35,-120.349 1519.77,-121.362"/>
<polygon fill="midnightblue" stroke="midnightblue" points="1519.5,-124.854 1529.85,-122.574 1520.34,-117.905 1519.5,-124.854"/>
</g>
<!-- Node14 -->
<g id="node14" class="node"><title>Node14</title>
<g id="a_node14"><a xlink:href="$flash__stm32F2_8h.html#a6cb8040e5f4a9a8ac17286fd20c740ae" xlink:title="Inserts a time delay. ">
<polygon fill="white" stroke="black" points="1559,-80.8636 1559,-99.8636 1599,-99.8636 1599,-80.8636 1559,-80.8636"/>
<text text-anchor="middle" x="1579" y="-87.8636" font-family="Helvetica,sans-Serif" font-size="10.00">delay</text>
</a>
</g>
</g>
<!-- Node12&#45;&gt;Node14 -->
<g id="edge13" class="edge"><title>Node12&#45;&gt;Node14</title>
<path fill="none" stroke="midnightblue" d="M1493.91,-100.476C1513.36,-98.1371 1533.22,-95.749 1548.75,-93.8811"/>
<polygon fill="midnightblue" stroke="midnightblue" points="1549.24,-97.3471 1558.75,-92.6781 1548.41,-90.3972 1549.24,-97.3471"/>
</g>
<!-- Node15&#45;&gt;Node8 -->
<g id="edge15" class="edge"><title>Node15&#45;&gt;Node8</title>
<path fill="none" stroke="midnightblue" d="M1122.16,-71.3636C1130.61,-71.3636 1139.36,-71.3636 1148.07,-71.3636"/>
<polygon fill="midnightblue" stroke="midnightblue" points="1148.24,-74.8637 1158.24,-71.3636 1148.24,-67.8637 1148.24,-74.8637"/>
</g>
<!-- Node16&#45;&gt;Node3 -->
<g id="edge18" class="edge"><title>Node16&#45;&gt;Node3</title>
<path fill="none" stroke="midnightblue" d="M501.474,-156.904C534.388,-162.776 576.375,-170.266 609.011,-176.089"/>
<polygon fill="midnightblue" stroke="midnightblue" points="608.796,-179.605 619.255,-177.916 610.026,-172.714 608.796,-179.605"/>
</g>
<!-- Node16&#45;&gt;Node4 -->
<g id="edge19" class="edge"><title>Node16&#45;&gt;Node4</title>
<path fill="none" stroke="midnightblue" d="M501.474,-137.824C530.592,-132.629 566.811,-126.167 597.374,-120.715"/>
<polygon fill="midnightblue" stroke="midnightblue" points="598.274,-124.11 607.504,-118.908 597.045,-117.218 598.274,-124.11"/>
</g>
<!-- Node16&#45;&gt;Node15 -->
<g id="edge20" class="edge"><title>Node16&#45;&gt;Node15</title>
<path fill="none" stroke="midnightblue" d="M506.751,-150.639C622.549,-156.21 875.813,-163.748 954,-128.364 975.195,-118.772 970.147,-102.492 990,-90.3636 993.555,-88.1916 997.372,-86.2568 1001.31,-84.5353"/>
<polygon fill="midnightblue" stroke="midnightblue" points="1002.6,-87.7872 1010.65,-80.8938 1000.06,-81.2653 1002.6,-87.7872"/>
</g>
<!-- Node17&#45;&gt;Node4 -->
<g id="edge23" class="edge"><title>Node17&#45;&gt;Node4</title>
<path fill="none" stroke="midnightblue" d="M501.474,-80.9036C530.592,-86.0984 566.811,-92.5599 597.374,-98.0126"/>
<polygon fill="midnightblue" stroke="midnightblue" points="597.045,-101.509 607.504,-99.8198 598.274,-94.6178 597.045,-101.509"/>
</g>
<!-- Node17&#45;&gt;Node15 -->
<g id="edge22" class="edge"><title>Node17&#45;&gt;Node15</title>
<path fill="none" stroke="midnightblue" d="M528.805,-61.8549C628.838,-51.5735 804.325,-38.4077 954,-52.3636 970.322,-53.8855 987.937,-56.7622 1003.82,-59.8253"/>
<polygon fill="midnightblue" stroke="midnightblue" points="1003.48,-63.3265 1013.97,-61.8527 1004.85,-56.462 1003.48,-63.3265"/>
</g>
</g>
</svg>
