<?xml version="1.0" encoding="UTF-8" standalone="no"?>
<!DOCTYPE svg PUBLIC "-//W3C//DTD SVG 1.1//EN"
 "http://www.w3.org/Graphics/SVG/1.1/DTD/svg11.dtd">
<!-- Generated by graphviz version 2.36.0 (20140111.2315)
 -->
<!-- Title: PX4::PX4AnalogSource::_pin_scaler Pages: 1 -->
<svg width="470pt" height="126pt"
 viewBox="0.00 0.00 470.00 126.00" xmlns="http://www.w3.org/2000/svg" xmlns:xlink="http://www.w3.org/1999/xlink">
<g id="graph0" class="graph" transform="scale(1 1) rotate(0) translate(4 122)">
<title>PX4::PX4AnalogSource::_pin_scaler</title>
<polygon fill="white" stroke="none" points="-4,4 -4,-122 466,-122 466,4 -4,4"/>
<!-- Node1 -->
<g id="node1" class="node"><title>Node1</title>
<polygon fill="#bfbfbf" stroke="black" points="0.5,-44 0.5,-74 121.5,-74 121.5,-44 0.5,-44"/>
<text text-anchor="start" x="8.5" y="-62" font-family="Helvetica,sans-Serif" font-size="10.00">PX4::PX4AnalogSource</text>
<text text-anchor="middle" x="61" y="-51" font-family="Helvetica,sans-Serif" font-size="10.00">::_pin_scaler</text>
</g>
<!-- Node2 -->
<g id="node2" class="node"><title>Node2</title>
<g id="a_node2"><a xlink:href="$classPX4_1_1PX4AnalogSource.html#a254619275d9239396e49c858414a7c25" xlink:title="PX4::PX4AnalogSource\l::voltage_average">
<polygon fill="white" stroke="black" points="158.5,-88 158.5,-118 279.5,-118 279.5,-88 158.5,-88"/>
<text text-anchor="start" x="166.5" y="-106" font-family="Helvetica,sans-Serif" font-size="10.00">PX4::PX4AnalogSource</text>
<text text-anchor="middle" x="219" y="-95" font-family="Helvetica,sans-Serif" font-size="10.00">::voltage_average</text>
</a>
</g>
</g>
<!-- Node1&#45;&gt;Node2 -->
<g id="edge1" class="edge"><title>Node1&#45;&gt;Node2</title>
<path fill="none" stroke="midnightblue" d="M125.151,-76.8118C138.281,-80.515 151.993,-84.3827 164.725,-87.9738"/>
<polygon fill="midnightblue" stroke="midnightblue" points="125.825,-73.3653 115.25,-74.0192 123.924,-80.1025 125.825,-73.3653"/>
</g>
<!-- Node3 -->
<g id="node3" class="node"><title>Node3</title>
<g id="a_node3"><a xlink:href="$classPX4_1_1PX4AnalogSource.html#a4a045494b02f13d840c7e8830f6d4e9e" xlink:title="PX4::PX4AnalogSource\l::voltage_average_ratiometric">
<polygon fill="white" stroke="black" points="316.5,-66 316.5,-96 461.5,-96 461.5,-66 316.5,-66"/>
<text text-anchor="start" x="324.5" y="-84" font-family="Helvetica,sans-Serif" font-size="10.00">PX4::PX4AnalogSource</text>
<text text-anchor="middle" x="389" y="-73" font-family="Helvetica,sans-Serif" font-size="10.00">::voltage_average_ratiometric</text>
</a>
</g>
</g>
<!-- Node1&#45;&gt;Node3 -->
<g id="edge3" class="edge"><title>Node1&#45;&gt;Node3</title>
<path fill="none" stroke="midnightblue" d="M132.04,-63.7266C186.432,-67.3972 261.568,-72.4678 316.36,-76.1654"/>
<polygon fill="midnightblue" stroke="midnightblue" points="132.006,-60.2165 121.793,-63.0351 131.535,-67.2006 132.006,-60.2165"/>
</g>
<!-- Node4 -->
<g id="node4" class="node"><title>Node4</title>
<g id="a_node4"><a xlink:href="$classPX4_1_1PX4AnalogSource.html#a4b61363012c6e4af2d738dbcafa03c75" xlink:title="PX4::PX4AnalogSource\l::voltage_latest">
<polygon fill="white" stroke="black" points="158.5,-0 158.5,-30 279.5,-30 279.5,-0 158.5,-0"/>
<text text-anchor="start" x="166.5" y="-18" font-family="Helvetica,sans-Serif" font-size="10.00">PX4::PX4AnalogSource</text>
<text text-anchor="middle" x="219" y="-7" font-family="Helvetica,sans-Serif" font-size="10.00">::voltage_latest</text>
</a>
</g>
</g>
<!-- Node1&#45;&gt;Node4 -->
<g id="edge4" class="edge"><title>Node1&#45;&gt;Node4</title>
<path fill="none" stroke="midnightblue" d="M125.151,-41.1882C138.281,-37.485 151.993,-33.6173 164.725,-30.0262"/>
<polygon fill="midnightblue" stroke="midnightblue" points="123.924,-37.8975 115.25,-43.9808 125.825,-44.6347 123.924,-37.8975"/>
</g>
<!-- Node2&#45;&gt;Node3 -->
<g id="edge2" class="edge"><title>Node2&#45;&gt;Node3</title>
<path fill="none" stroke="midnightblue" d="M289.875,-93.8497C298.642,-92.7016 307.621,-91.5258 316.414,-90.3743"/>
<polygon fill="midnightblue" stroke="midnightblue" points="289.164,-90.4128 279.704,-95.1817 290.073,-97.3535 289.164,-90.4128"/>
</g>
</g>
</svg>
