<?xml version="1.0" encoding="UTF-8" standalone="no"?>
<!DOCTYPE svg PUBLIC "-//W3C//DTD SVG 1.1//EN"
 "http://www.w3.org/Graphics/SVG/1.1/DTD/svg11.dtd">
<!-- Generated by graphviz version 2.36.0 (20140111.2315)
 -->
<!-- Title: AP_HAL_FLYMAPLE_NS::FLYMAPLESPIDeviceDriver::transfer Pages: 1 -->
<svg width="222pt" height="48pt"
 viewBox="0.00 0.00 222.00 48.00" xmlns="http://www.w3.org/2000/svg" xmlns:xlink="http://www.w3.org/1999/xlink">
<g id="graph0" class="graph" transform="scale(1 1) rotate(0) translate(4 44)">
<title>AP_HAL_FLYMAPLE_NS::FLYMAPLESPIDeviceDriver::transfer</title>
<polygon fill="white" stroke="none" points="-4,4 -4,-44 218,-44 218,4 -4,4"/>
<!-- Node1 -->
<g id="node1" class="node"><title>Node1</title>
<polygon fill="#bfbfbf" stroke="black" points="0,0.5 0,-40.5 148,-40.5 148,0.5 0,0.5"/>
<text text-anchor="start" x="8" y="-28.5" font-family="Helvetica,sans-Serif" font-size="10.00">AP_HAL_FLYMAPLE_NS</text>
<text text-anchor="start" x="8" y="-17.5" font-family="Helvetica,sans-Serif" font-size="10.00">::FLYMAPLESPIDeviceDriver</text>
<text text-anchor="middle" x="74" y="-6.5" font-family="Helvetica,sans-Serif" font-size="10.00">::transfer</text>
</g>
<!-- Node2 -->
<g id="node2" class="node"><title>Node2</title>
<g id="a_node2"><a xlink:href="$AP__HAL__FLYMAPLE_2SPIDriver_8cpp.html#a9f75011a7029af8bd0aa995e780c7aa3" xlink:title="spi">
<polygon fill="white" stroke="black" points="184.5,-10.5 184.5,-29.5 213.5,-29.5 213.5,-10.5 184.5,-10.5"/>
<text text-anchor="middle" x="199" y="-17.5" font-family="Helvetica,sans-Serif" font-size="10.00">spi</text>
</a>
</g>
</g>
<!-- Node1&#45;&gt;Node2 -->
<g id="edge1" class="edge"><title>Node1&#45;&gt;Node2</title>
<path fill="none" stroke="midnightblue" d="M148.326,-20C157.589,-20 166.481,-20 174.117,-20"/>
<polygon fill="midnightblue" stroke="midnightblue" points="174.302,-23.5001 184.302,-20 174.302,-16.5001 174.302,-23.5001"/>
</g>
</g>
</svg>
