<?xml version="1.0" encoding="UTF-8" standalone="no"?>
<!DOCTYPE svg PUBLIC "-//W3C//DTD SVG 1.1//EN"
 "http://www.w3.org/Graphics/SVG/1.1/DTD/svg11.dtd">
<!-- Generated by graphviz version 2.36.0 (20140111.2315)
 -->
<!-- Title: AP_AutoTune::check_state_exit Pages: 1 -->
<svg width="544pt" height="185pt"
 viewBox="0.00 0.00 544.00 185.00" xmlns="http://www.w3.org/2000/svg" xmlns:xlink="http://www.w3.org/1999/xlink">
<g id="graph0" class="graph" transform="scale(1 1) rotate(0) translate(4 181)">
<title>AP_AutoTune::check_state_exit</title>
<polygon fill="white" stroke="none" points="-4,4 -4,-181 540,-181 540,4 -4,4"/>
<!-- Node1 -->
<g id="node1" class="node"><title>Node1</title>
<polygon fill="#bfbfbf" stroke="black" points="0,-73 0,-103 110,-103 110,-73 0,-73"/>
<text text-anchor="start" x="8" y="-91" font-family="Helvetica,sans-Serif" font-size="10.00">AP_AutoTune::check</text>
<text text-anchor="middle" x="55" y="-80" font-family="Helvetica,sans-Serif" font-size="10.00">_state_exit</text>
</g>
<!-- Node2 -->
<g id="node2" class="node"><title>Node2</title>
<g id="a_node2"><a xlink:href="$classAP__AutoTune.html#af5c523db0ac4313e8098fec4b8f5f2f1" xlink:title="AP_AutoTune::update">
<polygon fill="white" stroke="black" points="146.5,-78.5 146.5,-97.5 259.5,-97.5 259.5,-78.5 146.5,-78.5"/>
<text text-anchor="middle" x="203" y="-85.5" font-family="Helvetica,sans-Serif" font-size="10.00">AP_AutoTune::update</text>
</a>
</g>
</g>
<!-- Node1&#45;&gt;Node2 -->
<g id="edge1" class="edge"><title>Node1&#45;&gt;Node2</title>
<path fill="none" stroke="midnightblue" d="M120.628,-88C129.131,-88 137.787,-88 146.127,-88"/>
<polygon fill="midnightblue" stroke="midnightblue" points="120.365,-84.5001 110.365,-88 120.365,-91.5001 120.365,-84.5001"/>
</g>
<!-- Node3 -->
<g id="node3" class="node"><title>Node3</title>
<g id="a_node3"><a xlink:href="$classAP__PitchController.html#a4613b491d225c7ee7eac435f79d7c495" xlink:title="AP_PitchController\l::_get_rate_out">
<polygon fill="white" stroke="black" points="297,-98 297,-128 397,-128 397,-98 297,-98"/>
<text text-anchor="start" x="305" y="-116" font-family="Helvetica,sans-Serif" font-size="10.00">AP_PitchController</text>
<text text-anchor="middle" x="347" y="-105" font-family="Helvetica,sans-Serif" font-size="10.00">::_get_rate_out</text>
</a>
</g>
</g>
<!-- Node2&#45;&gt;Node3 -->
<g id="edge2" class="edge"><title>Node2&#45;&gt;Node3</title>
<path fill="none" stroke="midnightblue" d="M268.032,-99.2733C277.662,-100.969 287.465,-102.695 296.723,-104.324"/>
<polygon fill="midnightblue" stroke="midnightblue" points="268.545,-95.8097 258.089,-97.5227 267.331,-102.704 268.545,-95.8097"/>
</g>
<!-- Node6 -->
<g id="node6" class="node"><title>Node6</title>
<g id="a_node6"><a xlink:href="$classAP__RollController.html#a702a5fbdae8598e86dc2aa73b8f59089" xlink:title="AP_RollController::\l_get_rate_out">
<polygon fill="white" stroke="black" points="296.5,-49 296.5,-79 397.5,-79 397.5,-49 296.5,-49"/>
<text text-anchor="start" x="304.5" y="-67" font-family="Helvetica,sans-Serif" font-size="10.00">AP_RollController::</text>
<text text-anchor="middle" x="347" y="-56" font-family="Helvetica,sans-Serif" font-size="10.00">_get_rate_out</text>
</a>
</g>
</g>
<!-- Node2&#45;&gt;Node6 -->
<g id="edge5" class="edge"><title>Node2&#45;&gt;Node6</title>
<path fill="none" stroke="midnightblue" d="M269.767,-76.8845C278.74,-75.3679 287.825,-73.8324 296.444,-72.3756"/>
<polygon fill="midnightblue" stroke="midnightblue" points="268.991,-73.4658 259.715,-78.5834 270.158,-80.3679 268.991,-73.4658"/>
</g>
<!-- Node4 -->
<g id="node4" class="node"><title>Node4</title>
<g id="a_node4"><a xlink:href="$classAP__PitchController.html#ad305f4274a77eaffb5b0dc064cfc31ba" xlink:title="AP_PitchController\l::get_rate_out">
<polygon fill="white" stroke="black" points="435,-147 435,-177 535,-177 535,-147 435,-147"/>
<text text-anchor="start" x="443" y="-165" font-family="Helvetica,sans-Serif" font-size="10.00">AP_PitchController</text>
<text text-anchor="middle" x="485" y="-154" font-family="Helvetica,sans-Serif" font-size="10.00">::get_rate_out</text>
</a>
</g>
</g>
<!-- Node3&#45;&gt;Node4 -->
<g id="edge3" class="edge"><title>Node3&#45;&gt;Node4</title>
<path fill="none" stroke="midnightblue" d="M399.445,-131.536C413.491,-136.596 428.539,-142.018 441.99,-146.864"/>
<polygon fill="midnightblue" stroke="midnightblue" points="400.509,-128.198 389.914,-128.101 398.136,-134.784 400.509,-128.198"/>
</g>
<!-- Node5 -->
<g id="node5" class="node"><title>Node5</title>
<g id="a_node5"><a xlink:href="$classAP__PitchController.html#a705d9814ebad894375332f012dd768df" xlink:title="AP_PitchController\l::get_servo_out">
<polygon fill="white" stroke="black" points="435,-98 435,-128 535,-128 535,-98 435,-98"/>
<text text-anchor="start" x="443" y="-116" font-family="Helvetica,sans-Serif" font-size="10.00">AP_PitchController</text>
<text text-anchor="middle" x="485" y="-105" font-family="Helvetica,sans-Serif" font-size="10.00">::get_servo_out</text>
</a>
</g>
</g>
<!-- Node3&#45;&gt;Node5 -->
<g id="edge4" class="edge"><title>Node3&#45;&gt;Node5</title>
<path fill="none" stroke="midnightblue" d="M407.375,-113C416.59,-113 426.02,-113 434.973,-113"/>
<polygon fill="midnightblue" stroke="midnightblue" points="407.099,-109.5 397.099,-113 407.099,-116.5 407.099,-109.5"/>
</g>
<!-- Node7 -->
<g id="node7" class="node"><title>Node7</title>
<g id="a_node7"><a xlink:href="$classAP__RollController.html#a8cf832c8a75c50c1fd4caf4eace7b34f" xlink:title="AP_RollController::\lget_rate_out">
<polygon fill="white" stroke="black" points="434.5,-49 434.5,-79 535.5,-79 535.5,-49 434.5,-49"/>
<text text-anchor="start" x="442.5" y="-67" font-family="Helvetica,sans-Serif" font-size="10.00">AP_RollController::</text>
<text text-anchor="middle" x="485" y="-56" font-family="Helvetica,sans-Serif" font-size="10.00">get_rate_out</text>
</a>
</g>
</g>
<!-- Node6&#45;&gt;Node7 -->
<g id="edge6" class="edge"><title>Node6&#45;&gt;Node7</title>
<path fill="none" stroke="midnightblue" d="M408,-64C416.729,-64 425.637,-64 434.137,-64"/>
<polygon fill="midnightblue" stroke="midnightblue" points="407.869,-60.5001 397.869,-64 407.869,-67.5001 407.869,-60.5001"/>
</g>
<!-- Node8 -->
<g id="node8" class="node"><title>Node8</title>
<g id="a_node8"><a xlink:href="$classAP__RollController.html#a8995f6c95b27e132a6aa49f5fe9512ae" xlink:title="AP_RollController::\lget_servo_out">
<polygon fill="white" stroke="black" points="434.5,-0 434.5,-30 535.5,-30 535.5,-0 434.5,-0"/>
<text text-anchor="start" x="442.5" y="-18" font-family="Helvetica,sans-Serif" font-size="10.00">AP_RollController::</text>
<text text-anchor="middle" x="485" y="-7" font-family="Helvetica,sans-Serif" font-size="10.00">get_servo_out</text>
</a>
</g>
</g>
<!-- Node6&#45;&gt;Node8 -->
<g id="edge7" class="edge"><title>Node6&#45;&gt;Node8</title>
<path fill="none" stroke="midnightblue" d="M399.445,-45.4645C413.491,-40.4041 428.539,-34.9823 441.99,-30.1359"/>
<polygon fill="midnightblue" stroke="midnightblue" points="398.136,-42.2161 389.914,-48.8986 400.509,-48.8016 398.136,-42.2161"/>
</g>
</g>
</svg>
