<?xml version="1.0" encoding="UTF-8" standalone="no"?>
<!DOCTYPE svg PUBLIC "-//W3C//DTD SVG 1.1//EN"
 "http://www.w3.org/Graphics/SVG/1.1/DTD/svg11.dtd">
<!-- Generated by graphviz version 2.36.0 (20140111.2315)
 -->
<!-- Title: Airspeed_Calibration::update Pages: 1 -->
<svg width="324pt" height="142pt"
 viewBox="0.00 0.00 324.00 142.00" xmlns="http://www.w3.org/2000/svg" xmlns:xlink="http://www.w3.org/1999/xlink">
<g id="graph0" class="graph" transform="scale(1 1) rotate(0) translate(4 138)">
<title>Airspeed_Calibration::update</title>
<polygon fill="white" stroke="none" points="-4,4 -4,-138 320,-138 320,4 -4,4"/>
<!-- Node1 -->
<g id="node1" class="node"><title>Node1</title>
<polygon fill="#bfbfbf" stroke="black" points="0.5,-52 0.5,-82 107.5,-82 107.5,-52 0.5,-52"/>
<text text-anchor="start" x="8.5" y="-70" font-family="Helvetica,sans-Serif" font-size="10.00">Airspeed_Calibration</text>
<text text-anchor="middle" x="54" y="-59" font-family="Helvetica,sans-Serif" font-size="10.00">::update</text>
</g>
<!-- Node2 -->
<g id="node2" class="node"><title>Node2</title>
<g id="a_node2"><a xlink:href="$AP__Math_8cpp.html#ac09c78b18c2ad21b9a04081f119f11c0" xlink:title="pythagorous3">
<polygon fill="white" stroke="black" points="159.5,-114.5 159.5,-133.5 234.5,-133.5 234.5,-114.5 159.5,-114.5"/>
<text text-anchor="middle" x="197" y="-121.5" font-family="Helvetica,sans-Serif" font-size="10.00">pythagorous3</text>
</a>
</g>
</g>
<!-- Node1&#45;&gt;Node2 -->
<g id="edge1" class="edge"><title>Node1&#45;&gt;Node2</title>
<path fill="none" stroke="midnightblue" d="M92.4152,-82.1253C114.249,-90.9517 141.558,-101.992 162.654,-110.52"/>
<polygon fill="midnightblue" stroke="midnightblue" points="161.579,-113.86 172.162,-114.363 164.203,-107.371 161.579,-113.86"/>
</g>
<!-- Node3 -->
<g id="node3" class="node"><title>Node3</title>
<g id="a_node3"><a xlink:href="$AP__Math_8cpp.html#a996fdbe87607543eef5dcb234f6bc017" xlink:title="sq">
<polygon fill="white" stroke="black" points="286.5,-95.5 286.5,-114.5 315.5,-114.5 315.5,-95.5 286.5,-95.5"/>
<text text-anchor="middle" x="301" y="-102.5" font-family="Helvetica,sans-Serif" font-size="10.00">sq</text>
</a>
</g>
</g>
<!-- Node1&#45;&gt;Node3 -->
<g id="edge3" class="edge"><title>Node1&#45;&gt;Node3</title>
<path fill="none" stroke="midnightblue" d="M107.559,-75.152C159.643,-83.2303 237.096,-95.2434 275.945,-101.269"/>
<polygon fill="midnightblue" stroke="midnightblue" points="275.841,-104.795 286.259,-102.869 276.914,-97.8774 275.841,-104.795"/>
</g>
<!-- Node4 -->
<g id="node4" class="node"><title>Node4</title>
<g id="a_node4"><a xlink:href="$classVector3.html#a8f5129ceffea6ebb57ab7adda9f1a960" xlink:title="Vector3::mul_rowcol">
<polygon fill="white" stroke="black" points="144,-38.5 144,-57.5 250,-57.5 250,-38.5 144,-38.5"/>
<text text-anchor="middle" x="197" y="-45.5" font-family="Helvetica,sans-Serif" font-size="10.00">Vector3::mul_rowcol</text>
</a>
</g>
</g>
<!-- Node1&#45;&gt;Node4 -->
<g id="edge4" class="edge"><title>Node1&#45;&gt;Node4</title>
<path fill="none" stroke="midnightblue" d="M107.503,-59.9251C116.057,-58.7724 124.99,-57.5687 133.751,-56.3882"/>
<polygon fill="midnightblue" stroke="midnightblue" points="134.479,-59.8217 143.922,-55.0175 133.545,-52.8844 134.479,-59.8217"/>
</g>
<!-- Node5 -->
<g id="node5" class="node"><title>Node5</title>
<g id="a_node5"><a xlink:href="$AP__Math_8cpp.html#a08eedb329d8162ddbd344d4f6c8cde20" xlink:title="constrain_float">
<polygon fill="white" stroke="black" points="157,-0.5 157,-19.5 237,-19.5 237,-0.5 157,-0.5"/>
<text text-anchor="middle" x="197" y="-7.5" font-family="Helvetica,sans-Serif" font-size="10.00">constrain_float</text>
</a>
</g>
</g>
<!-- Node1&#45;&gt;Node5 -->
<g id="edge5" class="edge"><title>Node1&#45;&gt;Node5</title>
<path fill="none" stroke="midnightblue" d="M89.0571,-51.9558C105.562,-44.7941 125.723,-36.235 144,-29 148.901,-27.0598 154.089,-25.0789 159.216,-23.1638"/>
<polygon fill="midnightblue" stroke="midnightblue" points="160.736,-26.3336 168.908,-19.59 158.314,-19.7659 160.736,-26.3336"/>
</g>
<!-- Node2&#45;&gt;Node3 -->
<g id="edge2" class="edge"><title>Node2&#45;&gt;Node3</title>
<path fill="none" stroke="midnightblue" d="M234.536,-117.194C248.419,-114.608 263.861,-111.732 276.259,-109.422"/>
<polygon fill="midnightblue" stroke="midnightblue" points="277.065,-112.833 286.255,-107.56 275.783,-105.951 277.065,-112.833"/>
</g>
</g>
</svg>
