<?xml version="1.0" encoding="UTF-8" standalone="no"?>
<!DOCTYPE svg PUBLIC "-//W3C//DTD SVG 1.1//EN"
 "http://www.w3.org/Graphics/SVG/1.1/DTD/svg11.dtd">
<!-- Generated by graphviz version 2.36.0 (20140111.2315)
 -->
<!-- Title: AP_Motors Pages: 1 -->
<svg width="531pt" height="140pt"
 viewBox="0.00 0.00 531.00 140.00" xmlns="http://www.w3.org/2000/svg" xmlns:xlink="http://www.w3.org/1999/xlink">
<g id="graph0" class="graph" transform="scale(1 1) rotate(0) translate(4 136)">
<title>AP_Motors</title>
<polygon fill="white" stroke="none" points="-4,4 -4,-136 527,-136 527,4 -4,4"/>
<!-- Node1 -->
<g id="node1" class="node"><title>Node1</title>
<polygon fill="#bfbfbf" stroke="black" points="233.5,-112.5 233.5,-131.5 298.5,-131.5 298.5,-112.5 233.5,-112.5"/>
<text text-anchor="middle" x="266" y="-119.5" font-family="Helvetica,sans-Serif" font-size="10.00">AP_Motors</text>
</g>
<!-- Node2 -->
<g id="node2" class="node"><title>Node2</title>
<g id="a_node2"><a xlink:href="$classAP__MotorsCoax.html" xlink:title="AP_MotorsCoax">
<polygon fill="white" stroke="black" points="11.5,-56.5 11.5,-75.5 100.5,-75.5 100.5,-56.5 11.5,-56.5"/>
<text text-anchor="middle" x="56" y="-63.5" font-family="Helvetica,sans-Serif" font-size="10.00">AP_MotorsCoax</text>
</a>
</g>
</g>
<!-- Node1&#45;&gt;Node2 -->
<g id="edge1" class="edge"><title>Node1&#45;&gt;Node2</title>
<path fill="none" stroke="midnightblue" d="M223.291,-110.018C183.679,-99.8318 125.543,-84.8824 89.2751,-75.5565"/>
<polygon fill="midnightblue" stroke="midnightblue" points="222.631,-113.462 233.188,-112.562 224.374,-106.682 222.631,-113.462"/>
</g>
<!-- Node3 -->
<g id="node3" class="node"><title>Node3</title>
<g id="a_node3"><a xlink:href="$classAP__MotorsHeli.html" xlink:title="AP_MotorsHeli">
<polygon fill="white" stroke="black" points="118.5,-56.5 118.5,-75.5 201.5,-75.5 201.5,-56.5 118.5,-56.5"/>
<text text-anchor="middle" x="160" y="-63.5" font-family="Helvetica,sans-Serif" font-size="10.00">AP_MotorsHeli</text>
</a>
</g>
</g>
<!-- Node1&#45;&gt;Node3 -->
<g id="edge2" class="edge"><title>Node1&#45;&gt;Node3</title>
<path fill="none" stroke="midnightblue" d="M239.944,-107.726C220.316,-97.7271 193.972,-84.3065 176.988,-75.6545"/>
<polygon fill="midnightblue" stroke="midnightblue" points="238.47,-110.903 248.969,-112.324 241.648,-104.666 238.47,-110.903"/>
</g>
<!-- Node4 -->
<g id="node4" class="node"><title>Node4</title>
<g id="a_node4"><a xlink:href="$classAP__MotorsMatrix.html" xlink:title="AP_MotorsMatrix">
<polygon fill="white" stroke="black" points="220,-56.5 220,-75.5 312,-75.5 312,-56.5 220,-56.5"/>
<text text-anchor="middle" x="266" y="-63.5" font-family="Helvetica,sans-Serif" font-size="10.00">AP_MotorsMatrix</text>
</a>
</g>
</g>
<!-- Node1&#45;&gt;Node4 -->
<g id="edge3" class="edge"><title>Node1&#45;&gt;Node4</title>
<path fill="none" stroke="midnightblue" d="M266,-101.805C266,-92.9102 266,-82.7798 266,-75.7511"/>
<polygon fill="midnightblue" stroke="midnightblue" points="262.5,-102.083 266,-112.083 269.5,-102.083 262.5,-102.083"/>
</g>
<!-- Node10 -->
<g id="node10" class="node"><title>Node10</title>
<g id="a_node10"><a xlink:href="$classAP__MotorsSingle.html" xlink:title="AP_MotorsSingle">
<polygon fill="white" stroke="black" points="330,-56.5 330,-75.5 422,-75.5 422,-56.5 330,-56.5"/>
<text text-anchor="middle" x="376" y="-63.5" font-family="Helvetica,sans-Serif" font-size="10.00">AP_MotorsSingle</text>
</a>
</g>
</g>
<!-- Node1&#45;&gt;Node10 -->
<g id="edge9" class="edge"><title>Node1&#45;&gt;Node10</title>
<path fill="none" stroke="midnightblue" d="M292.762,-107.862C313.159,-97.8492 340.666,-84.3458 358.37,-75.6545"/>
<polygon fill="midnightblue" stroke="midnightblue" points="291.108,-104.775 283.673,-112.324 294.192,-111.059 291.108,-104.775"/>
</g>
<!-- Node11 -->
<g id="node11" class="node"><title>Node11</title>
<g id="a_node11"><a xlink:href="$classAP__MotorsTri.html" xlink:title="AP_MotorsTri">
<polygon fill="white" stroke="black" points="440.5,-56.5 440.5,-75.5 517.5,-75.5 517.5,-56.5 440.5,-56.5"/>
<text text-anchor="middle" x="479" y="-63.5" font-family="Helvetica,sans-Serif" font-size="10.00">AP_MotorsTri</text>
</a>
</g>
</g>
<!-- Node1&#45;&gt;Node11 -->
<g id="edge10" class="edge"><title>Node1&#45;&gt;Node11</title>
<path fill="none" stroke="midnightblue" d="M308.608,-110.198C348.869,-99.9909 408.456,-84.8844 445.445,-75.5069"/>
<polygon fill="midnightblue" stroke="midnightblue" points="307.648,-106.831 298.814,-112.681 309.368,-113.616 307.648,-106.831"/>
</g>
<!-- Node5 -->
<g id="node5" class="node"><title>Node5</title>
<g id="a_node5"><a xlink:href="$classAP__MotorsHexa.html" xlink:title="AP_MotorsHexa">
<polygon fill="white" stroke="black" points="-0.5,-0.5 -0.5,-19.5 88.5,-19.5 88.5,-0.5 -0.5,-0.5"/>
<text text-anchor="middle" x="44" y="-7.5" font-family="Helvetica,sans-Serif" font-size="10.00">AP_MotorsHexa</text>
</a>
</g>
</g>
<!-- Node4&#45;&gt;Node5 -->
<g id="edge4" class="edge"><title>Node4&#45;&gt;Node5</title>
<path fill="none" stroke="midnightblue" d="M220.875,-54.0237C178.94,-43.8232 117.348,-28.8414 79.012,-19.5164"/>
<polygon fill="midnightblue" stroke="midnightblue" points="220.28,-57.4808 230.823,-56.4435 221.934,-50.6791 220.28,-57.4808"/>
</g>
<!-- Node6 -->
<g id="node6" class="node"><title>Node6</title>
<g id="a_node6"><a xlink:href="$classAP__MotorsOcta.html" xlink:title="AP_MotorsOcta">
<polygon fill="white" stroke="black" points="107,-0.5 107,-19.5 193,-19.5 193,-0.5 107,-0.5"/>
<text text-anchor="middle" x="150" y="-7.5" font-family="Helvetica,sans-Serif" font-size="10.00">AP_MotorsOcta</text>
</a>
</g>
</g>
<!-- Node4&#45;&gt;Node6 -->
<g id="edge5" class="edge"><title>Node4&#45;&gt;Node6</title>
<path fill="none" stroke="midnightblue" d="M238.28,-52.096C216.608,-42.0073 187.098,-28.2697 168.295,-19.5164"/>
<polygon fill="midnightblue" stroke="midnightblue" points="237.077,-55.3962 247.619,-56.4435 240.031,-49.0501 237.077,-55.3962"/>
</g>
<!-- Node7 -->
<g id="node7" class="node"><title>Node7</title>
<g id="a_node7"><a xlink:href="$classAP__MotorsOctaQuad.html" xlink:title="AP_MotorsOctaQuad">
<polygon fill="white" stroke="black" points="211,-0.5 211,-19.5 321,-19.5 321,-0.5 211,-0.5"/>
<text text-anchor="middle" x="266" y="-7.5" font-family="Helvetica,sans-Serif" font-size="10.00">AP_MotorsOctaQuad</text>
</a>
</g>
</g>
<!-- Node4&#45;&gt;Node7 -->
<g id="edge6" class="edge"><title>Node4&#45;&gt;Node7</title>
<path fill="none" stroke="midnightblue" d="M266,-45.8045C266,-36.9102 266,-26.7798 266,-19.7511"/>
<polygon fill="midnightblue" stroke="midnightblue" points="262.5,-46.083 266,-56.083 269.5,-46.083 262.5,-46.083"/>
</g>
<!-- Node8 -->
<g id="node8" class="node"><title>Node8</title>
<g id="a_node8"><a xlink:href="$classAP__MotorsQuad.html" xlink:title="AP_MotorsQuad">
<polygon fill="white" stroke="black" points="339.5,-0.5 339.5,-19.5 428.5,-19.5 428.5,-0.5 339.5,-0.5"/>
<text text-anchor="middle" x="384" y="-7.5" font-family="Helvetica,sans-Serif" font-size="10.00">AP_MotorsQuad</text>
</a>
</g>
</g>
<!-- Node4&#45;&gt;Node8 -->
<g id="edge7" class="edge"><title>Node4&#45;&gt;Node8</title>
<path fill="none" stroke="midnightblue" d="M293.9,-52.2321C315.973,-42.1312 346.176,-28.3091 365.39,-19.5164"/>
<polygon fill="midnightblue" stroke="midnightblue" points="292.334,-49.0997 284.697,-56.4435 295.247,-55.4648 292.334,-49.0997"/>
</g>
<!-- Node9 -->
<g id="node9" class="node"><title>Node9</title>
<g id="a_node9"><a xlink:href="$classAP__MotorsY6.html" xlink:title="AP_MotorsY6">
<polygon fill="white" stroke="black" points="446.5,-0.5 446.5,-19.5 523.5,-19.5 523.5,-0.5 446.5,-0.5"/>
<text text-anchor="middle" x="485" y="-7.5" font-family="Helvetica,sans-Serif" font-size="10.00">AP_MotorsY6</text>
</a>
</g>
</g>
<!-- Node4&#45;&gt;Node9 -->
<g id="edge8" class="edge"><title>Node4&#45;&gt;Node9</title>
<path fill="none" stroke="midnightblue" d="M310.515,-54.0237C351.884,-43.8232 412.643,-28.8414 450.461,-19.5164"/>
<polygon fill="midnightblue" stroke="midnightblue" points="309.572,-50.6512 300.701,-56.4435 311.248,-57.4476 309.572,-50.6512"/>
</g>
</g>
</svg>
