<?xml version="1.0" encoding="UTF-8" standalone="no"?>
<!DOCTYPE svg PUBLIC "-//W3C//DTD SVG 1.1//EN"
 "http://www.w3.org/Graphics/SVG/1.1/DTD/svg11.dtd">
<!-- Generated by graphviz version 2.36.0 (20140111.2315)
 -->
<!-- Title: AP_MotorsHeli::enable Pages: 1 -->
<svg width="318pt" height="66pt"
 viewBox="0.00 0.00 318.00 66.00" xmlns="http://www.w3.org/2000/svg" xmlns:xlink="http://www.w3.org/1999/xlink">
<g id="graph0" class="graph" transform="scale(1 1) rotate(0) translate(4 62)">
<title>AP_MotorsHeli::enable</title>
<polygon fill="white" stroke="none" points="-4,4 -4,-62 314,-62 314,4 -4,4"/>
<!-- Node1 -->
<g id="node1" class="node"><title>Node1</title>
<polygon fill="#bfbfbf" stroke="black" points="0.5,-19.5 0.5,-38.5 117.5,-38.5 117.5,-19.5 0.5,-19.5"/>
<text text-anchor="middle" x="59" y="-26.5" font-family="Helvetica,sans-Serif" font-size="10.00">AP_MotorsHeli::enable</text>
</g>
<!-- Node2 -->
<g id="node2" class="node"><title>Node2</title>
<g id="a_node2"><a xlink:href="$classAP__HAL_1_1RCOutput.html#a25196bb820266d4afcae14d0acdb7e1c" xlink:title="AP_HAL::RCOutput::enable_ch">
<polygon fill="white" stroke="black" points="154.5,-38.5 154.5,-57.5 309.5,-57.5 309.5,-38.5 154.5,-38.5"/>
<text text-anchor="middle" x="232" y="-45.5" font-family="Helvetica,sans-Serif" font-size="10.00">AP_HAL::RCOutput::enable_ch</text>
</a>
</g>
</g>
<!-- Node1&#45;&gt;Node2 -->
<g id="edge1" class="edge"><title>Node1&#45;&gt;Node2</title>
<path fill="none" stroke="midnightblue" d="M117.893,-35.4325C126.411,-36.379 135.339,-37.371 144.284,-38.3649"/>
<polygon fill="midnightblue" stroke="midnightblue" points="144.045,-41.8598 154.37,-39.4856 144.818,-34.9026 144.045,-41.8598"/>
</g>
<!-- Node3 -->
<g id="node3" class="node"><title>Node3</title>
<g id="a_node3"><a xlink:href="$AP__Progmem__Identity_8h.html#a1514e0408e036062b4af844baaf567da" xlink:title="pgm_read_byte">
<polygon fill="white" stroke="black" points="190.5,-0.5 190.5,-19.5 273.5,-19.5 273.5,-0.5 190.5,-0.5"/>
<text text-anchor="middle" x="232" y="-7.5" font-family="Helvetica,sans-Serif" font-size="10.00">pgm_read_byte</text>
</a>
</g>
</g>
<!-- Node1&#45;&gt;Node3 -->
<g id="edge2" class="edge"><title>Node1&#45;&gt;Node3</title>
<path fill="none" stroke="midnightblue" d="M117.893,-22.5675C138.19,-20.3122 160.813,-17.7986 180.46,-15.6156"/>
<polygon fill="midnightblue" stroke="midnightblue" points="180.882,-19.0902 190.435,-14.5073 180.109,-12.1331 180.882,-19.0902"/>
</g>
</g>
</svg>
