<?xml version="1.0" encoding="UTF-8" standalone="no"?>
<!DOCTYPE svg PUBLIC "-//W3C//DTD SVG 1.1//EN"
 "http://www.w3.org/Graphics/SVG/1.1/DTD/svg11.dtd">
<!-- Generated by graphviz version 2.36.0 (20140111.2315)
 -->
<!-- Title: HAL_Linux Pages: 1 -->
<svg width="828pt" height="411pt"
 viewBox="0.00 0.00 828.00 411.00" xmlns="http://www.w3.org/2000/svg" xmlns:xlink="http://www.w3.org/1999/xlink">
<g id="graph0" class="graph" transform="scale(1 1) rotate(0) translate(4 407)">
<title>HAL_Linux</title>
<polygon fill="white" stroke="none" points="-4,4 -4,-407 824,-407 824,4 -4,4"/>
<!-- Node1 -->
<g id="node1" class="node"><title>Node1</title>
<polygon fill="#bfbfbf" stroke="black" points="754.5,-170.5 754.5,-189.5 819.5,-189.5 819.5,-170.5 754.5,-170.5"/>
<text text-anchor="middle" x="787" y="-177.5" font-family="Helvetica,sans-Serif" font-size="10.00">HAL_Linux</text>
</g>
<!-- Node2 -->
<g id="node2" class="node"><title>Node2</title>
<g id="a_node2"><a xlink:href="$classAP__HAL_1_1HAL.html" xlink:title="AP_HAL::HAL">
<polygon fill="white" stroke="black" points="636,-170.5 636,-189.5 716,-189.5 716,-170.5 636,-170.5"/>
<text text-anchor="middle" x="676" y="-177.5" font-family="Helvetica,sans-Serif" font-size="10.00">AP_HAL::HAL</text>
</a>
</g>
</g>
<!-- Node2&#45;&gt;Node1 -->
<g id="edge1" class="edge"><title>Node2&#45;&gt;Node1</title>
<path fill="none" stroke="midnightblue" d="M726.269,-180C735.822,-180 745.592,-180 754.389,-180"/>
<polygon fill="midnightblue" stroke="midnightblue" points="726.044,-176.5 716.044,-180 726.044,-183.5 726.044,-176.5"/>
</g>
<!-- Node3 -->
<g id="node3" class="node"><title>Node3</title>
<g id="a_node3"><a xlink:href="$classAP__HAL_1_1Util.html" xlink:title="AP_HAL::Util">
<polygon fill="white" stroke="black" points="443,-383.5 443,-402.5 519,-402.5 519,-383.5 443,-383.5"/>
<text text-anchor="middle" x="481" y="-390.5" font-family="Helvetica,sans-Serif" font-size="10.00">AP_HAL::Util</text>
</a>
</g>
</g>
<!-- Node3&#45;&gt;Node2 -->
<g id="edge2" class="edge"><title>Node3&#45;&gt;Node2</title>
<path fill="none" stroke="#9a32cd" stroke-dasharray="5,2" d="M529.535,-393.549C558.476,-391.383 594.313,-383.877 618,-362 669.809,-314.149 674.864,-219.931 675.101,-189.629"/>
<polygon fill="#9a32cd" stroke="#9a32cd" points="529.01,-390.073 519.22,-394.122 529.398,-397.062 529.01,-390.073"/>
<text text-anchor="middle" x="595" y="-389" font-family="Helvetica,sans-Serif" font-size="10.00"> util</text>
</g>
<!-- Node4 -->
<g id="node4" class="node"><title>Node4</title>
<g id="a_node4"><a xlink:href="$classAP__HAL_1_1RCInput.html" xlink:title="AP_HAL::RCInput">
<polygon fill="white" stroke="black" points="432,-345.5 432,-364.5 530,-364.5 530,-345.5 432,-345.5"/>
<text text-anchor="middle" x="481" y="-352.5" font-family="Helvetica,sans-Serif" font-size="10.00">AP_HAL::RCInput</text>
</a>
</g>
</g>
<!-- Node4&#45;&gt;Node2 -->
<g id="edge3" class="edge"><title>Node4&#45;&gt;Node2</title>
<path fill="none" stroke="#9a32cd" stroke-dasharray="5,2" d="M540.326,-354.744C566.688,-351.8 596.643,-344.148 618,-326 661.13,-289.351 671.803,-215.874 674.289,-189.608"/>
<polygon fill="#9a32cd" stroke="#9a32cd" points="539.687,-351.287 530.046,-355.681 540.323,-358.258 539.687,-351.287"/>
<text text-anchor="middle" x="595" y="-350" font-family="Helvetica,sans-Serif" font-size="10.00"> rcin</text>
</g>
<!-- Node5 -->
<g id="node5" class="node"><title>Node5</title>
<g id="a_node5"><a xlink:href="$classAP__HAL_1_1UARTDriver.html" xlink:title="AP_HAL::UARTDriver">
<polygon fill="white" stroke="black" points="423.5,-266.5 423.5,-285.5 538.5,-285.5 538.5,-266.5 423.5,-266.5"/>
<text text-anchor="middle" x="481" y="-273.5" font-family="Helvetica,sans-Serif" font-size="10.00">AP_HAL::UARTDriver</text>
</a>
</g>
</g>
<!-- Node5&#45;&gt;Node2 -->
<g id="edge4" class="edge"><title>Node5&#45;&gt;Node2</title>
<path fill="none" stroke="#9a32cd" stroke-dasharray="5,2" d="M545.981,-263.907C569.739,-257.612 596.192,-248.35 618,-235 638.173,-222.651 656.969,-202.068 667.132,-189.89"/>
<polygon fill="#9a32cd" stroke="#9a32cd" points="544.827,-260.589 535.986,-266.427 546.538,-267.376 544.827,-260.589"/>
<text text-anchor="middle" x="595" y="-314" font-family="Helvetica,sans-Serif" font-size="10.00"> uartC</text>
<text text-anchor="middle" x="595" y="-303" font-family="Helvetica,sans-Serif" font-size="10.00">uartD</text>
<text text-anchor="middle" x="595" y="-292" font-family="Helvetica,sans-Serif" font-size="10.00">uartE</text>
<text text-anchor="middle" x="595" y="-281" font-family="Helvetica,sans-Serif" font-size="10.00">console</text>
<text text-anchor="middle" x="595" y="-270" font-family="Helvetica,sans-Serif" font-size="10.00">uartA</text>
<text text-anchor="middle" x="595" y="-259" font-family="Helvetica,sans-Serif" font-size="10.00">uartB</text>
</g>
<!-- Node6 -->
<g id="node6" class="node"><title>Node6</title>
<g id="a_node6"><a xlink:href="$classAP__HAL_1_1BetterStream.html" xlink:title="AP_HAL::BetterStream">
<polygon fill="white" stroke="black" points="250.5,-266.5 250.5,-285.5 369.5,-285.5 369.5,-266.5 250.5,-266.5"/>
<text text-anchor="middle" x="310" y="-273.5" font-family="Helvetica,sans-Serif" font-size="10.00">AP_HAL::BetterStream</text>
</a>
</g>
</g>
<!-- Node6&#45;&gt;Node5 -->
<g id="edge5" class="edge"><title>Node6&#45;&gt;Node5</title>
<path fill="none" stroke="midnightblue" d="M380.017,-276C394.463,-276 409.535,-276 423.464,-276"/>
<polygon fill="midnightblue" stroke="midnightblue" points="379.634,-272.5 369.634,-276 379.634,-279.5 379.634,-272.5"/>
</g>
<!-- Node7 -->
<g id="node7" class="node"><title>Node7</title>
<g id="a_node7"><a xlink:href="$classAP__HAL_1_1Stream.html" xlink:title="AP_HAL::Stream">
<polygon fill="white" stroke="black" points="120,-266.5 120,-285.5 212,-285.5 212,-266.5 120,-266.5"/>
<text text-anchor="middle" x="166" y="-273.5" font-family="Helvetica,sans-Serif" font-size="10.00">AP_HAL::Stream</text>
</a>
</g>
</g>
<!-- Node7&#45;&gt;Node6 -->
<g id="edge6" class="edge"><title>Node7&#45;&gt;Node6</title>
<path fill="none" stroke="midnightblue" d="M222.464,-276C231.615,-276 241.129,-276 250.355,-276"/>
<polygon fill="midnightblue" stroke="midnightblue" points="222.32,-272.5 212.32,-276 222.32,-279.5 222.32,-272.5"/>
</g>
<!-- Node8 -->
<g id="node8" class="node"><title>Node8</title>
<g id="a_node8"><a xlink:href="$classAP__HAL_1_1Print.html" xlink:title="AP_HAL::Print">
<polygon fill="white" stroke="black" points="0.5,-266.5 0.5,-285.5 81.5,-285.5 81.5,-266.5 0.5,-266.5"/>
<text text-anchor="middle" x="41" y="-273.5" font-family="Helvetica,sans-Serif" font-size="10.00">AP_HAL::Print</text>
</a>
</g>
</g>
<!-- Node8&#45;&gt;Node7 -->
<g id="edge7" class="edge"><title>Node8&#45;&gt;Node7</title>
<path fill="none" stroke="midnightblue" d="M91.8694,-276C101.149,-276 110.796,-276 119.922,-276"/>
<polygon fill="midnightblue" stroke="midnightblue" points="91.5951,-272.5 81.595,-276 91.595,-279.5 91.5951,-272.5"/>
</g>
<!-- Node9 -->
<g id="node9" class="node"><title>Node9</title>
<g id="a_node9"><a xlink:href="$classAP__HAL_1_1RCOutput.html" xlink:title="AP_HAL::RCOutput">
<polygon fill="white" stroke="black" points="428.5,-228.5 428.5,-247.5 533.5,-247.5 533.5,-228.5 428.5,-228.5"/>
<text text-anchor="middle" x="481" y="-235.5" font-family="Helvetica,sans-Serif" font-size="10.00">AP_HAL::RCOutput</text>
</a>
</g>
</g>
<!-- Node9&#45;&gt;Node2 -->
<g id="edge8" class="edge"><title>Node9&#45;&gt;Node2</title>
<path fill="none" stroke="#9a32cd" stroke-dasharray="5,2" d="M542.978,-226.336C566.692,-221.106 593.902,-214.241 618,-206 631.173,-201.495 645.423,-194.995 656.38,-189.621"/>
<polygon fill="#9a32cd" stroke="#9a32cd" points="542.086,-222.948 533.048,-228.477 543.561,-229.79 542.086,-222.948"/>
<text text-anchor="middle" x="595" y="-223" font-family="Helvetica,sans-Serif" font-size="10.00"> rcout</text>
</g>
<!-- Node10 -->
<g id="node10" class="node"><title>Node10</title>
<g id="a_node10"><a xlink:href="$classAP__HAL_1_1GPIO.html" xlink:title="AP_HAL::GPIO">
<polygon fill="white" stroke="black" points="438,-190.5 438,-209.5 524,-209.5 524,-190.5 438,-190.5"/>
<text text-anchor="middle" x="481" y="-197.5" font-family="Helvetica,sans-Serif" font-size="10.00">AP_HAL::GPIO</text>
</a>
</g>
</g>
<!-- Node10&#45;&gt;Node2 -->
<g id="edge9" class="edge"><title>Node10&#45;&gt;Node2</title>
<path fill="none" stroke="#9a32cd" stroke-dasharray="5,2" d="M534.412,-194.569C566.35,-191.259 606.496,-187.099 635.703,-184.072"/>
<polygon fill="#9a32cd" stroke="#9a32cd" points="533.941,-191.099 524.355,-195.611 534.662,-198.061 533.941,-191.099"/>
<text text-anchor="middle" x="595" y="-194" font-family="Helvetica,sans-Serif" font-size="10.00"> gpio</text>
</g>
<!-- Node11 -->
<g id="node11" class="node"><title>Node11</title>
<g id="a_node11"><a xlink:href="$classAP__HAL_1_1AnalogIn.html" xlink:title="AP_HAL::AnalogIn">
<polygon fill="white" stroke="black" points="431.5,-152.5 431.5,-171.5 530.5,-171.5 530.5,-152.5 431.5,-152.5"/>
<text text-anchor="middle" x="481" y="-159.5" font-family="Helvetica,sans-Serif" font-size="10.00">AP_HAL::AnalogIn</text>
</a>
</g>
</g>
<!-- Node11&#45;&gt;Node2 -->
<g id="edge10" class="edge"><title>Node11&#45;&gt;Node2</title>
<path fill="none" stroke="#9a32cd" stroke-dasharray="5,2" d="M540.733,-160.289C564.786,-160.367 592.83,-161.461 618,-165 626.613,-166.211 635.791,-168.272 644.208,-170.484"/>
<polygon fill="#9a32cd" stroke="#9a32cd" points="540.681,-156.789 530.69,-160.313 540.698,-163.789 540.681,-156.789"/>
<text text-anchor="middle" x="595" y="-168" font-family="Helvetica,sans-Serif" font-size="10.00"> analogin</text>
</g>
<!-- Node12 -->
<g id="node12" class="node"><title>Node12</title>
<g id="a_node12"><a xlink:href="$classAP__HAL_1_1Scheduler.html" xlink:title="AP_HAL::Scheduler">
<polygon fill="white" stroke="black" points="429,-114.5 429,-133.5 533,-133.5 533,-114.5 429,-114.5"/>
<text text-anchor="middle" x="481" y="-121.5" font-family="Helvetica,sans-Serif" font-size="10.00">AP_HAL::Scheduler</text>
</a>
</g>
</g>
<!-- Node12&#45;&gt;Node2 -->
<g id="edge11" class="edge"><title>Node12&#45;&gt;Node2</title>
<path fill="none" stroke="#9a32cd" stroke-dasharray="5,2" d="M543.147,-129.62C566.993,-133.022 594.249,-138.433 618,-147 633.919,-152.742 650.483,-162.874 661.625,-170.402"/>
<polygon fill="#9a32cd" stroke="#9a32cd" points="543.533,-126.14 533.156,-128.281 542.603,-133.078 543.533,-126.14"/>
<text text-anchor="middle" x="595" y="-150" font-family="Helvetica,sans-Serif" font-size="10.00"> scheduler</text>
</g>
<!-- Node13 -->
<g id="node13" class="node"><title>Node13</title>
<g id="a_node13"><a xlink:href="$classAP__HAL_1_1I2CDriver.html" xlink:title="AP_HAL::I2CDriver">
<polygon fill="white" stroke="black" points="429.5,-76.5 429.5,-95.5 532.5,-95.5 532.5,-76.5 429.5,-76.5"/>
<text text-anchor="middle" x="481" y="-83.5" font-family="Helvetica,sans-Serif" font-size="10.00">AP_HAL::I2CDriver</text>
</a>
</g>
</g>
<!-- Node13&#45;&gt;Node2 -->
<g id="edge12" class="edge"><title>Node13&#45;&gt;Node2</title>
<path fill="none" stroke="#9a32cd" stroke-dasharray="5,2" d="M542.621,-94.2057C567.204,-99.3681 595.13,-107.684 618,-121 639.909,-133.756 658.908,-157.297 668.451,-170.459"/>
<polygon fill="#9a32cd" stroke="#9a32cd" points="543.161,-90.7447 532.673,-92.2467 541.808,-97.6129 543.161,-90.7447"/>
<text text-anchor="middle" x="595" y="-124" font-family="Helvetica,sans-Serif" font-size="10.00"> i2c</text>
</g>
<!-- Node14 -->
<g id="node14" class="node"><title>Node14</title>
<g id="a_node14"><a xlink:href="$classAP__HAL_1_1Storage.html" xlink:title="AP_HAL::Storage">
<polygon fill="white" stroke="black" points="433.5,-38.5 433.5,-57.5 528.5,-57.5 528.5,-38.5 433.5,-38.5"/>
<text text-anchor="middle" x="481" y="-45.5" font-family="Helvetica,sans-Serif" font-size="10.00">AP_HAL::Storage</text>
</a>
</g>
</g>
<!-- Node14&#45;&gt;Node2 -->
<g id="edge13" class="edge"><title>Node14&#45;&gt;Node2</title>
<path fill="none" stroke="#9a32cd" stroke-dasharray="5,2" d="M538.663,-54.3788C564.951,-59.6647 595.322,-69.3295 618,-87 646.98,-109.58 664.771,-151.345 671.689,-170.251"/>
<polygon fill="#9a32cd" stroke="#9a32cd" points="539.281,-50.9339 528.812,-52.5598 538.01,-57.8175 539.281,-50.9339"/>
<text text-anchor="middle" x="595" y="-90" font-family="Helvetica,sans-Serif" font-size="10.00"> storage</text>
</g>
<!-- Node15 -->
<g id="node15" class="node"><title>Node15</title>
<g id="a_node15"><a xlink:href="$classAP__HAL_1_1SPIDeviceManager.html" xlink:title="AP_HAL::SPIDeviceManager">
<polygon fill="white" stroke="black" points="408,-0.5 408,-19.5 554,-19.5 554,-0.5 408,-0.5"/>
<text text-anchor="middle" x="481" y="-7.5" font-family="Helvetica,sans-Serif" font-size="10.00">AP_HAL::SPIDeviceManager</text>
</a>
</g>
</g>
<!-- Node15&#45;&gt;Node2 -->
<g id="edge14" class="edge"><title>Node15&#45;&gt;Node2</title>
<path fill="none" stroke="#9a32cd" stroke-dasharray="5,2" d="M563.916,-20.793C583.413,-26.5875 602.912,-35.453 618,-49 655.649,-82.8036 669.49,-145.919 673.56,-170.165"/>
<polygon fill="#9a32cd" stroke="#9a32cd" points="564.623,-17.3584 554.055,-18.1112 562.786,-24.113 564.623,-17.3584"/>
<text text-anchor="middle" x="595" y="-52" font-family="Helvetica,sans-Serif" font-size="10.00"> spi</text>
</g>
</g>
</svg>
