<?xml version="1.0" encoding="UTF-8" standalone="no"?>
<!DOCTYPE svg PUBLIC "-//W3C//DTD SVG 1.1//EN"
 "http://www.w3.org/Graphics/SVG/1.1/DTD/svg11.dtd">
<!-- Generated by graphviz version 2.36.0 (20140111.2315)
 -->
<!-- Title: AP_RangeFinder_MaxsonarI2CXL::get_reading Pages: 1 -->
<svg width="688pt" height="87pt"
 viewBox="0.00 0.00 688.00 87.00" xmlns="http://www.w3.org/2000/svg" xmlns:xlink="http://www.w3.org/1999/xlink">
<g id="graph0" class="graph" transform="scale(1 1) rotate(0) translate(4 83)">
<title>AP_RangeFinder_MaxsonarI2CXL::get_reading</title>
<polygon fill="white" stroke="none" points="-4,4 -4,-83 684,-83 684,4 -4,4"/>
<!-- Node1 -->
<g id="node1" class="node"><title>Node1</title>
<polygon fill="#bfbfbf" stroke="black" points="0.5,-24 0.5,-54 147.5,-54 147.5,-24 0.5,-24"/>
<text text-anchor="start" x="8.5" y="-42" font-family="Helvetica,sans-Serif" font-size="10.00">AP_RangeFinder_MaxsonarI2</text>
<text text-anchor="middle" x="74" y="-31" font-family="Helvetica,sans-Serif" font-size="10.00">CXL::get_reading</text>
</g>
<!-- Node2 -->
<g id="node2" class="node"><title>Node2</title>
<g id="a_node2"><a xlink:href="$classAP__RangeFinder__MaxsonarI2CXL.html#a63b2fdab67041f94c16928e1764871b2" xlink:title="AP_RangeFinder_MaxsonarI2\lCXL::detect">
<polygon fill="white" stroke="black" points="184.5,-49 184.5,-79 331.5,-79 331.5,-49 184.5,-49"/>
<text text-anchor="start" x="192.5" y="-67" font-family="Helvetica,sans-Serif" font-size="10.00">AP_RangeFinder_MaxsonarI2</text>
<text text-anchor="middle" x="258" y="-56" font-family="Helvetica,sans-Serif" font-size="10.00">CXL::detect</text>
</a>
</g>
</g>
<!-- Node1&#45;&gt;Node2 -->
<g id="edge1" class="edge"><title>Node1&#45;&gt;Node2</title>
<path fill="none" stroke="midnightblue" d="M157.707,-50.3608C166.613,-51.5842 175.625,-52.8222 184.4,-54.0274"/>
<polygon fill="midnightblue" stroke="midnightblue" points="158.099,-46.8819 147.716,-48.9884 157.147,-53.8168 158.099,-46.8819"/>
</g>
<!-- Node6 -->
<g id="node6" class="node"><title>Node6</title>
<g id="a_node6"><a xlink:href="$classAP__RangeFinder__MaxsonarI2CXL.html#a6e990839c7d9bbced27ead7b6f4d3a38" xlink:title="AP_RangeFinder_MaxsonarI2\lCXL::update">
<polygon fill="white" stroke="black" points="184.5,-0 184.5,-30 331.5,-30 331.5,-0 184.5,-0"/>
<text text-anchor="start" x="192.5" y="-18" font-family="Helvetica,sans-Serif" font-size="10.00">AP_RangeFinder_MaxsonarI2</text>
<text text-anchor="middle" x="258" y="-7" font-family="Helvetica,sans-Serif" font-size="10.00">CXL::update</text>
</a>
</g>
</g>
<!-- Node1&#45;&gt;Node6 -->
<g id="edge5" class="edge"><title>Node1&#45;&gt;Node6</title>
<path fill="none" stroke="midnightblue" d="M157.707,-28.0936C166.613,-26.9192 175.625,-25.7307 184.4,-24.5737"/>
<polygon fill="midnightblue" stroke="midnightblue" points="157.172,-24.6337 147.716,-29.4111 158.088,-31.5736 157.172,-24.6337"/>
</g>
<!-- Node3 -->
<g id="node3" class="node"><title>Node3</title>
<g id="a_node3"><a xlink:href="$classRangeFinder.html#a7f7f9dce880eb37d53df67cba39bdda9" xlink:title="RangeFinder::detect\l_instance">
<polygon fill="white" stroke="black" points="368.5,-49 368.5,-79 473.5,-79 473.5,-49 368.5,-49"/>
<text text-anchor="start" x="376.5" y="-67" font-family="Helvetica,sans-Serif" font-size="10.00">RangeFinder::detect</text>
<text text-anchor="middle" x="421" y="-56" font-family="Helvetica,sans-Serif" font-size="10.00">_instance</text>
</a>
</g>
</g>
<!-- Node2&#45;&gt;Node3 -->
<g id="edge2" class="edge"><title>Node2&#45;&gt;Node3</title>
<path fill="none" stroke="midnightblue" d="M342.093,-64C351.071,-64 360.005,-64 368.45,-64"/>
<polygon fill="midnightblue" stroke="midnightblue" points="341.963,-60.5001 331.963,-64 341.963,-67.5001 341.963,-60.5001"/>
</g>
<!-- Node4 -->
<g id="node4" class="node"><title>Node4</title>
<g id="a_node4"><a xlink:href="$classRangeFinder.html#a1c2d6a488e35a856814b5d48ca3d5d9e" xlink:title="RangeFinder::init">
<polygon fill="white" stroke="black" points="510.5,-54.5 510.5,-73.5 601.5,-73.5 601.5,-54.5 510.5,-54.5"/>
<text text-anchor="middle" x="556" y="-61.5" font-family="Helvetica,sans-Serif" font-size="10.00">RangeFinder::init</text>
</a>
</g>
</g>
<!-- Node3&#45;&gt;Node4 -->
<g id="edge3" class="edge"><title>Node3&#45;&gt;Node4</title>
<path fill="none" stroke="midnightblue" d="M483.853,-64C492.828,-64 501.917,-64 510.462,-64"/>
<polygon fill="midnightblue" stroke="midnightblue" points="483.802,-60.5001 473.802,-64 483.802,-67.5001 483.802,-60.5001"/>
</g>
<!-- Node5 -->
<g id="node5" class="node"><title>Node5</title>
<g id="a_node5"><a xlink:href="$RFIND__test_8pde.html#a4fc01d736fe50cf5b977f755b675f11d" xlink:title="setup">
<polygon fill="white" stroke="black" points="638.5,-54.5 638.5,-73.5 679.5,-73.5 679.5,-54.5 638.5,-54.5"/>
<text text-anchor="middle" x="659" y="-61.5" font-family="Helvetica,sans-Serif" font-size="10.00">setup</text>
</a>
</g>
</g>
<!-- Node4&#45;&gt;Node5 -->
<g id="edge4" class="edge"><title>Node4&#45;&gt;Node5</title>
<path fill="none" stroke="midnightblue" d="M611.612,-64C621.212,-64 630.613,-64 638.414,-64"/>
<polygon fill="midnightblue" stroke="midnightblue" points="611.594,-60.5001 601.594,-64 611.594,-67.5001 611.594,-60.5001"/>
</g>
</g>
</svg>
