<?xml version="1.0" encoding="UTF-8" standalone="no"?>
<!DOCTYPE svg PUBLIC "-//W3C//DTD SVG 1.1//EN"
 "http://www.w3.org/Graphics/SVG/1.1/DTD/svg11.dtd">
<!-- Generated by graphviz version 2.36.0 (20140111.2315)
 -->
<!-- Title: NavEKF::FuseVelPosNED Pages: 1 -->
<svg width="712pt" height="635pt"
 viewBox="0.00 0.00 712.00 635.00" xmlns="http://www.w3.org/2000/svg" xmlns:xlink="http://www.w3.org/1999/xlink">
<g id="graph0" class="graph" transform="scale(1 1) rotate(0) translate(4 631)">
<title>NavEKF::FuseVelPosNED</title>
<polygon fill="white" stroke="none" points="-4,4 -4,-631 708,-631 708,4 -4,4"/>
<!-- Node1 -->
<g id="node1" class="node"><title>Node1</title>
<polygon fill="#bfbfbf" stroke="black" points="0.5,-228.5 0.5,-247.5 135.5,-247.5 135.5,-228.5 0.5,-228.5"/>
<text text-anchor="middle" x="68" y="-235.5" font-family="Helvetica,sans-Serif" font-size="10.00">NavEKF::FuseVelPosNED</text>
</g>
<!-- Node2 -->
<g id="node2" class="node"><title>Node2</title>
<g id="a_node2"><a xlink:href="$classNavEKF.html#a0b17a3410a3c45b35d8bf993098e8f75" xlink:title="NavEKF::useAirspeed">
<polygon fill="white" stroke="black" points="198,-585.5 198,-604.5 312,-604.5 312,-585.5 198,-585.5"/>
<text text-anchor="middle" x="255" y="-592.5" font-family="Helvetica,sans-Serif" font-size="10.00">NavEKF::useAirspeed</text>
</a>
</g>
</g>
<!-- Node1&#45;&gt;Node2 -->
<g id="edge1" class="edge"><title>Node1&#45;&gt;Node2</title>
<path fill="none" stroke="midnightblue" d="M69.0045,-247.689C69.5604,-291.394 77.679,-472.201 172,-568 177.471,-573.557 184.106,-577.971 191.205,-581.476"/>
<polygon fill="midnightblue" stroke="midnightblue" points="189.825,-584.692 200.393,-585.448 192.603,-578.267 189.825,-584.692"/>
</g>
<!-- Node6 -->
<g id="node6" class="node"><title>Node6</title>
<g id="a_node6"><a xlink:href="$AP__Math_8cpp.html#a996fdbe87607543eef5dcb234f6bc017" xlink:title="sq">
<polygon fill="white" stroke="black" points="615.5,-468.5 615.5,-487.5 644.5,-487.5 644.5,-468.5 615.5,-468.5"/>
<text text-anchor="middle" x="630" y="-475.5" font-family="Helvetica,sans-Serif" font-size="10.00">sq</text>
</a>
</g>
</g>
<!-- Node1&#45;&gt;Node6 -->
<g id="edge5" class="edge"><title>Node1&#45;&gt;Node6</title>
<path fill="none" stroke="midnightblue" d="M68.9655,-247.573C69.3921,-289.1 77.1596,-454.704 172,-525 234.154,-571.068 444.869,-553.459 520,-535 552.517,-527.011 586.092,-507.425 607.23,-493.446"/>
<polygon fill="midnightblue" stroke="midnightblue" points="609.443,-496.174 615.754,-487.663 605.513,-490.381 609.443,-496.174"/>
</g>
<!-- Node7 -->
<g id="node7" class="node"><title>Node7</title>
<g id="a_node7"><a xlink:href="$AP__Math_8cpp.html#a08eedb329d8162ddbd344d4f6c8cde20" xlink:title="constrain_float">
<polygon fill="white" stroke="black" points="590,-256.5 590,-275.5 670,-275.5 670,-256.5 590,-256.5"/>
<text text-anchor="middle" x="630" y="-263.5" font-family="Helvetica,sans-Serif" font-size="10.00">constrain_float</text>
</a>
</g>
</g>
<!-- Node1&#45;&gt;Node7 -->
<g id="edge6" class="edge"><title>Node1&#45;&gt;Node7</title>
<path fill="none" stroke="midnightblue" d="M135.715,-241.336C249.579,-247.029 478.869,-258.493 579.613,-263.531"/>
<polygon fill="midnightblue" stroke="midnightblue" points="579.653,-267.037 589.816,-264.041 580.003,-260.046 579.653,-267.037"/>
</g>
<!-- Node8 -->
<g id="node8" class="node"><title>Node8</title>
<g id="a_node8"><a xlink:href="$classNavEKF.html#a3108596d21f107f9b35517900bb82569" xlink:title="NavEKF::getTakeoffExpected">
<polygon fill="white" stroke="black" points="556,-208.5 556,-227.5 704,-227.5 704,-208.5 556,-208.5"/>
<text text-anchor="middle" x="630" y="-215.5" font-family="Helvetica,sans-Serif" font-size="10.00">NavEKF::getTakeoffExpected</text>
</a>
</g>
</g>
<!-- Node1&#45;&gt;Node8 -->
<g id="edge7" class="edge"><title>Node1&#45;&gt;Node8</title>
<path fill="none" stroke="midnightblue" d="M129.87,-228.475C143.688,-226.662 158.322,-225.016 172,-224 302.231,-214.331 453.896,-214.614 545.609,-216.05"/>
<polygon fill="midnightblue" stroke="midnightblue" points="545.61,-219.55 555.667,-216.216 545.726,-212.551 545.61,-219.55"/>
</g>
<!-- Node9 -->
<g id="node9" class="node"><title>Node9</title>
<g id="a_node9"><a xlink:href="$classNavEKF.html#a22250b5dd5beb633d424ed895659039f" xlink:title="NavEKF::getTouchdownExpected">
<polygon fill="white" stroke="black" points="172.5,-114.5 172.5,-133.5 337.5,-133.5 337.5,-114.5 172.5,-114.5"/>
<text text-anchor="middle" x="255" y="-121.5" font-family="Helvetica,sans-Serif" font-size="10.00">NavEKF::getTouchdownExpected</text>
</a>
</g>
</g>
<!-- Node1&#45;&gt;Node9 -->
<g id="edge8" class="edge"><title>Node1&#45;&gt;Node9</title>
<path fill="none" stroke="midnightblue" d="M76.3754,-228.463C91.8648,-209.134 129.849,-165.286 172,-143 176.487,-140.628 181.266,-138.549 186.176,-136.729"/>
<polygon fill="midnightblue" stroke="midnightblue" points="187.358,-140.024 195.734,-133.536 185.14,-133.384 187.358,-140.024"/>
</g>
<!-- Node10 -->
<g id="node10" class="node"><title>Node10</title>
<g id="a_node10"><a xlink:href="$classNavEKF.html#a55a6ae919135e4deef0cffe2eca3ac80" xlink:title="NavEKF::decayGpsOffset">
<polygon fill="white" stroke="black" points="189.5,-310.5 189.5,-329.5 320.5,-329.5 320.5,-310.5 189.5,-310.5"/>
<text text-anchor="middle" x="255" y="-317.5" font-family="Helvetica,sans-Serif" font-size="10.00">NavEKF::decayGpsOffset</text>
</a>
</g>
</g>
<!-- Node1&#45;&gt;Node10 -->
<g id="edge9" class="edge"><title>Node1&#45;&gt;Node10</title>
<path fill="none" stroke="midnightblue" d="M90.5839,-247.567C123.307,-262.071 185.623,-289.692 223.131,-306.318"/>
<polygon fill="midnightblue" stroke="midnightblue" points="221.993,-309.642 232.554,-310.494 224.83,-303.242 221.993,-309.642"/>
</g>
<!-- Node16 -->
<g id="node16" class="node"><title>Node16</title>
<g id="a_node16"><a xlink:href="$classNavEKF.html#affa6086752a2e15969daf07961f9e051" xlink:title="NavEKF::ResetPosition">
<polygon fill="white" stroke="black" points="194,-76.5 194,-95.5 316,-95.5 316,-76.5 194,-76.5"/>
<text text-anchor="middle" x="255" y="-83.5" font-family="Helvetica,sans-Serif" font-size="10.00">NavEKF::ResetPosition</text>
</a>
</g>
</g>
<!-- Node1&#45;&gt;Node16 -->
<g id="edge17" class="edge"><title>Node1&#45;&gt;Node16</title>
<path fill="none" stroke="midnightblue" d="M73.4552,-228.475C85.5169,-203.798 121.342,-137.453 172,-105 175.841,-102.539 179.965,-100.396 184.246,-98.5293"/>
<polygon fill="midnightblue" stroke="midnightblue" points="185.727,-101.71 193.818,-94.8694 183.227,-95.1717 185.727,-101.71"/>
</g>
<!-- Node17 -->
<g id="node17" class="node"><title>Node17</title>
<g id="a_node17"><a xlink:href="$classNavEKF.html#acb20ad8ad982539dcb608533b0fe77d0" xlink:title="NavEKF::ResetVelocity">
<polygon fill="white" stroke="black" points="194,-38.5 194,-57.5 316,-57.5 316,-38.5 194,-38.5"/>
<text text-anchor="middle" x="255" y="-45.5" font-family="Helvetica,sans-Serif" font-size="10.00">NavEKF::ResetVelocity</text>
</a>
</g>
</g>
<!-- Node1&#45;&gt;Node17 -->
<g id="edge18" class="edge"><title>Node1&#45;&gt;Node17</title>
<path fill="none" stroke="midnightblue" d="M71.8139,-228.408C80.9286,-199.113 112.553,-110.178 172,-67 175.861,-64.1956 180.072,-61.7974 184.479,-59.7476"/>
<polygon fill="midnightblue" stroke="midnightblue" points="185.788,-62.994 193.755,-56.0106 183.172,-56.5011 185.788,-62.994"/>
</g>
<!-- Node19 -->
<g id="node19" class="node"><title>Node19</title>
<g id="a_node19"><a xlink:href="$classNavEKF.html#a469538f4ff5dd6886d8db2be0acd3b48" xlink:title="NavEKF::ResetHeight">
<polygon fill="white" stroke="black" points="197.5,-152.5 197.5,-171.5 312.5,-171.5 312.5,-152.5 197.5,-152.5"/>
<text text-anchor="middle" x="255" y="-159.5" font-family="Helvetica,sans-Serif" font-size="10.00">NavEKF::ResetHeight</text>
</a>
</g>
</g>
<!-- Node1&#45;&gt;Node19 -->
<g id="edge20" class="edge"><title>Node1&#45;&gt;Node19</title>
<path fill="none" stroke="midnightblue" d="M85.6925,-228.373C105.711,-217.114 140.513,-198.435 172,-186 182.884,-181.702 194.847,-177.773 206.191,-174.395"/>
<polygon fill="midnightblue" stroke="midnightblue" points="207.322,-177.711 215.957,-171.572 205.378,-170.987 207.322,-177.711"/>
</g>
<!-- Node24 -->
<g id="node24" class="node"><title>Node24</title>
<g id="a_node24"><a xlink:href="$classVector3.html#ac1fd5514e368a1e1c2d13f71eda18345" xlink:title="Vector3::length">
<polygon fill="white" stroke="black" points="213.5,-496.5 213.5,-515.5 296.5,-515.5 296.5,-496.5 213.5,-496.5"/>
<text text-anchor="middle" x="255" y="-503.5" font-family="Helvetica,sans-Serif" font-size="10.00">Vector3::length</text>
</a>
</g>
</g>
<!-- Node1&#45;&gt;Node24 -->
<g id="edge29" class="edge"><title>Node1&#45;&gt;Node24</title>
<path fill="none" stroke="midnightblue" d="M70.8356,-247.618C77.8295,-281.862 105.825,-399.402 172,-467 182.931,-478.166 197.691,-486.533 211.676,-492.593"/>
<polygon fill="midnightblue" stroke="midnightblue" points="210.595,-495.931 221.178,-496.426 213.214,-489.439 210.595,-495.931"/>
</g>
<!-- Node26 -->
<g id="node26" class="node"><title>Node26</title>
<g id="a_node26"><a xlink:href="$classQuaternion.html#a48e6bafb249c895ed25f29dc9170e11e" xlink:title="Quaternion::normalize">
<polygon fill="white" stroke="black" points="199,-438.5 199,-457.5 311,-457.5 311,-438.5 199,-438.5"/>
<text text-anchor="middle" x="255" y="-445.5" font-family="Helvetica,sans-Serif" font-size="10.00">Quaternion::normalize</text>
</a>
</g>
</g>
<!-- Node1&#45;&gt;Node26 -->
<g id="edge32" class="edge"><title>Node1&#45;&gt;Node26</title>
<path fill="none" stroke="midnightblue" d="M74.4476,-247.504C88.5924,-271.721 128.433,-337.077 172,-383 189.994,-401.966 213.671,-420.15 230.955,-432.437"/>
<polygon fill="midnightblue" stroke="midnightblue" points="229.144,-435.442 239.347,-438.298 233.152,-429.703 229.144,-435.442"/>
</g>
<!-- Node28 -->
<g id="node28" class="node"><title>Node28</title>
<g id="a_node28"><a xlink:href="$classNavEKF.html#a3d1ab5eacbcc3b4e98187dff6a4f32bb" xlink:title="NavEKF::ForceSymmetry">
<polygon fill="white" stroke="black" points="190,-0.5 190,-19.5 320,-19.5 320,-0.5 190,-0.5"/>
<text text-anchor="middle" x="255" y="-7.5" font-family="Helvetica,sans-Serif" font-size="10.00">NavEKF::ForceSymmetry</text>
</a>
</g>
</g>
<!-- Node1&#45;&gt;Node28 -->
<g id="edge35" class="edge"><title>Node1&#45;&gt;Node28</title>
<path fill="none" stroke="midnightblue" d="M70.7432,-228.262C77.2757,-194.752 103.529,-83.2796 172,-29 174.634,-26.912 177.456,-25.0459 180.412,-23.3786"/>
<polygon fill="midnightblue" stroke="midnightblue" points="182.129,-26.4369 189.625,-18.95 179.096,-20.1279 182.129,-26.4369"/>
</g>
<!-- Node29 -->
<g id="node29" class="node"><title>Node29</title>
<g id="a_node29"><a xlink:href="$classNavEKF.html#abfa9617589db799ff0a405e34550f0dd" xlink:title="NavEKF::ConstrainVariances">
<polygon fill="white" stroke="black" points="374,-430.5 374,-449.5 520,-449.5 520,-430.5 374,-430.5"/>
<text text-anchor="middle" x="447" y="-437.5" font-family="Helvetica,sans-Serif" font-size="10.00">NavEKF::ConstrainVariances</text>
</a>
</g>
</g>
<!-- Node1&#45;&gt;Node29 -->
<g id="edge36" class="edge"><title>Node1&#45;&gt;Node29</title>
<path fill="none" stroke="midnightblue" d="M76.558,-247.606C92.3842,-267.174 130.957,-312.074 172,-339 241.582,-384.648 334.581,-413.281 392.361,-427.952"/>
<polygon fill="midnightblue" stroke="midnightblue" points="391.826,-431.426 402.375,-430.445 393.517,-424.633 391.826,-431.426"/>
</g>
<!-- Node3 -->
<g id="node3" class="node"><title>Node3</title>
<g id="a_node3"><a xlink:href="$classAP__AHRS.html#a8691156c332da099e3f5952e72ae2a58" xlink:title="AP_AHRS::airspeed_sensor\l_enabled">
<polygon fill="white" stroke="black" points="376.5,-583 376.5,-613 517.5,-613 517.5,-583 376.5,-583"/>
<text text-anchor="start" x="384.5" y="-601" font-family="Helvetica,sans-Serif" font-size="10.00">AP_AHRS::airspeed_sensor</text>
<text text-anchor="middle" x="447" y="-590" font-family="Helvetica,sans-Serif" font-size="10.00">_enabled</text>
</a>
</g>
</g>
<!-- Node2&#45;&gt;Node3 -->
<g id="edge2" class="edge"><title>Node2&#45;&gt;Node3</title>
<path fill="none" stroke="midnightblue" d="M312.235,-595.888C329.224,-596.156 348.208,-596.456 366.417,-596.743"/>
<polygon fill="midnightblue" stroke="midnightblue" points="366.381,-600.243 376.435,-596.902 366.492,-593.244 366.381,-600.243"/>
</g>
<!-- Node4 -->
<g id="node4" class="node"><title>Node4</title>
<g id="a_node4"><a xlink:href="$classAP__Airspeed.html#a6162295b433e3a863c0d4b9086b19014" xlink:title="AP_Airspeed::use">
<polygon fill="white" stroke="black" points="582.5,-607.5 582.5,-626.5 677.5,-626.5 677.5,-607.5 582.5,-607.5"/>
<text text-anchor="middle" x="630" y="-614.5" font-family="Helvetica,sans-Serif" font-size="10.00">AP_Airspeed::use</text>
</a>
</g>
</g>
<!-- Node3&#45;&gt;Node4 -->
<g id="edge3" class="edge"><title>Node3&#45;&gt;Node4</title>
<path fill="none" stroke="midnightblue" d="M517.72,-605.319C535.616,-607.197 554.659,-609.196 571.838,-611"/>
<polygon fill="midnightblue" stroke="midnightblue" points="571.955,-614.531 582.266,-612.094 572.686,-607.569 571.955,-614.531"/>
</g>
<!-- Node5 -->
<g id="node5" class="node"><title>Node5</title>
<g id="a_node5"><a xlink:href="$classAP__Airspeed.html#acddaade777fa87d5b8c904c79be01204" xlink:title="AP_Airspeed::healthy">
<polygon fill="white" stroke="black" points="574.5,-569.5 574.5,-588.5 685.5,-588.5 685.5,-569.5 574.5,-569.5"/>
<text text-anchor="middle" x="630" y="-576.5" font-family="Helvetica,sans-Serif" font-size="10.00">AP_Airspeed::healthy</text>
</a>
</g>
</g>
<!-- Node3&#45;&gt;Node5 -->
<g id="edge4" class="edge"><title>Node3&#45;&gt;Node5</title>
<path fill="none" stroke="midnightblue" d="M517.72,-590.681C533.013,-589.076 549.143,-587.383 564.232,-585.799"/>
<polygon fill="midnightblue" stroke="midnightblue" points="564.908,-589.247 574.488,-584.722 564.178,-582.285 564.908,-589.247"/>
</g>
<!-- Node10&#45;&gt;Node7 -->
<g id="edge15" class="edge"><title>Node10&#45;&gt;Node7</title>
<path fill="none" stroke="midnightblue" d="M296.234,-310.479C318.964,-305.352 347.956,-299.23 374,-295 445.181,-283.439 528.283,-274.905 579.781,-270.191"/>
<polygon fill="midnightblue" stroke="midnightblue" points="580.316,-273.657 589.96,-269.272 579.686,-266.686 580.316,-273.657"/>
</g>
<!-- Node11 -->
<g id="node11" class="node"><title>Node11</title>
<g id="a_node11"><a xlink:href="$classNavEKF.html#aede9e0e542bbf09e7815a71cd3ed3437" xlink:title="NavEKF::assume_zero\l_sideslip">
<polygon fill="white" stroke="black" points="387.5,-305 387.5,-335 506.5,-335 506.5,-305 387.5,-305"/>
<text text-anchor="start" x="395.5" y="-323" font-family="Helvetica,sans-Serif" font-size="10.00">NavEKF::assume_zero</text>
<text text-anchor="middle" x="447" y="-312" font-family="Helvetica,sans-Serif" font-size="10.00">_sideslip</text>
</a>
</g>
</g>
<!-- Node10&#45;&gt;Node11 -->
<g id="edge10" class="edge"><title>Node10&#45;&gt;Node11</title>
<path fill="none" stroke="midnightblue" d="M320.59,-320C338.835,-320 358.753,-320 377.234,-320"/>
<polygon fill="midnightblue" stroke="midnightblue" points="377.334,-323.5 387.333,-320 377.333,-316.5 377.334,-323.5"/>
</g>
<!-- Node14 -->
<g id="node14" class="node"><title>Node14</title>
<g id="a_node14"><a xlink:href="$AP__Math_8cpp.html#afd3767d48a7b20f6d5220a4f8007af00" xlink:title="pythagorous2">
<polygon fill="white" stroke="black" points="409.5,-392.5 409.5,-411.5 484.5,-411.5 484.5,-392.5 409.5,-392.5"/>
<text text-anchor="middle" x="447" y="-399.5" font-family="Helvetica,sans-Serif" font-size="10.00">pythagorous2</text>
</a>
</g>
</g>
<!-- Node10&#45;&gt;Node14 -->
<g id="edge13" class="edge"><title>Node10&#45;&gt;Node14</title>
<path fill="none" stroke="midnightblue" d="M283.062,-329.525C299.465,-335.786 320.528,-344.71 338,-355 355.466,-365.286 355.833,-374.01 374,-383 381.998,-386.958 390.917,-390.162 399.679,-392.733"/>
<polygon fill="midnightblue" stroke="midnightblue" points="398.881,-396.142 409.448,-395.371 400.706,-389.385 398.881,-396.142"/>
</g>
<!-- Node15 -->
<g id="node15" class="node"><title>Node15</title>
<g id="a_node15"><a xlink:href="$structVector2.html#a6b537328ae913e3e7267b539e7a4af92" xlink:title="Vector2::zero">
<polygon fill="white" stroke="black" points="409.5,-354.5 409.5,-373.5 484.5,-373.5 484.5,-354.5 409.5,-354.5"/>
<text text-anchor="middle" x="447" y="-361.5" font-family="Helvetica,sans-Serif" font-size="10.00">Vector2::zero</text>
</a>
</g>
</g>
<!-- Node10&#45;&gt;Node15 -->
<g id="edge16" class="edge"><title>Node10&#45;&gt;Node15</title>
<path fill="none" stroke="midnightblue" d="M297.227,-329.547C327.363,-336.526 368.263,-345.998 399.553,-353.244"/>
<polygon fill="midnightblue" stroke="midnightblue" points="398.817,-356.666 409.349,-355.512 400.396,-349.846 398.817,-356.666"/>
</g>
<!-- Node12 -->
<g id="node12" class="node"><title>Node12</title>
<g id="a_node12"><a xlink:href="$classAP__AHRS.html#a6120b45de751ab784fdfdd04f437b44e" xlink:title="AP_AHRS::get_fly_forward">
<polygon fill="white" stroke="black" points="561.5,-349.5 561.5,-368.5 698.5,-368.5 698.5,-349.5 561.5,-349.5"/>
<text text-anchor="middle" x="630" y="-356.5" font-family="Helvetica,sans-Serif" font-size="10.00">AP_AHRS::get_fly_forward</text>
</a>
</g>
</g>
<!-- Node11&#45;&gt;Node12 -->
<g id="edge11" class="edge"><title>Node11&#45;&gt;Node12</title>
<path fill="none" stroke="midnightblue" d="M506.766,-332.662C528.687,-337.386 553.453,-342.722 574.932,-347.35"/>
<polygon fill="midnightblue" stroke="midnightblue" points="574.352,-350.805 584.865,-349.49 575.827,-343.962 574.352,-350.805"/>
</g>
<!-- Node13 -->
<g id="node13" class="node"><title>Node13</title>
<g id="a_node13"><a xlink:href="$classAP__AHRS.html#a91a73986f61cc338a22047e34230cbb2" xlink:title="AP_AHRS::get_vehicle\l_class">
<polygon fill="white" stroke="black" points="570.5,-300 570.5,-330 689.5,-330 689.5,-300 570.5,-300"/>
<text text-anchor="start" x="578.5" y="-318" font-family="Helvetica,sans-Serif" font-size="10.00">AP_AHRS::get_vehicle</text>
<text text-anchor="middle" x="630" y="-307" font-family="Helvetica,sans-Serif" font-size="10.00">_class</text>
</a>
</g>
</g>
<!-- Node11&#45;&gt;Node13 -->
<g id="edge12" class="edge"><title>Node11&#45;&gt;Node13</title>
<path fill="none" stroke="midnightblue" d="M506.766,-318.377C523.764,-317.907 542.474,-317.39 560.035,-316.905"/>
<polygon fill="midnightblue" stroke="midnightblue" points="560.32,-320.399 570.22,-316.624 560.127,-313.401 560.32,-320.399"/>
</g>
<!-- Node14&#45;&gt;Node6 -->
<g id="edge14" class="edge"><title>Node14&#45;&gt;Node6</title>
<path fill="none" stroke="midnightblue" d="M484.764,-410.013C496.223,-412.957 508.79,-416.653 520,-421 551.219,-433.106 585.086,-451.765 606.645,-464.409"/>
<polygon fill="midnightblue" stroke="midnightblue" points="604.975,-467.488 615.36,-469.586 608.55,-461.47 604.975,-467.488"/>
</g>
<!-- Node18 -->
<g id="node18" class="node"><title>Node18</title>
<g id="a_node18"><a xlink:href="$classVector3.html#adf1769d5ee5df2f8585df2f540fa5efe" xlink:title="Vector3::zero">
<polygon fill="white" stroke="black" points="409.5,-38.5 409.5,-57.5 484.5,-57.5 484.5,-38.5 409.5,-38.5"/>
<text text-anchor="middle" x="447" y="-45.5" font-family="Helvetica,sans-Serif" font-size="10.00">Vector3::zero</text>
</a>
</g>
</g>
<!-- Node17&#45;&gt;Node18 -->
<g id="edge19" class="edge"><title>Node17&#45;&gt;Node18</title>
<path fill="none" stroke="midnightblue" d="M316.117,-48C343.063,-48 374.358,-48 399.476,-48"/>
<polygon fill="midnightblue" stroke="midnightblue" points="399.479,-51.5001 409.479,-48 399.479,-44.5001 399.479,-51.5001"/>
</g>
<!-- Node20 -->
<g id="node20" class="node"><title>Node20</title>
<g id="a_node20"><a xlink:href="$classNavEKF.html#a87c71e92e35c460ff8f026333dc1e813" xlink:title="NavEKF::readHgtData">
<polygon fill="white" stroke="black" points="389,-152.5 389,-171.5 505,-171.5 505,-152.5 389,-152.5"/>
<text text-anchor="middle" x="447" y="-159.5" font-family="Helvetica,sans-Serif" font-size="10.00">NavEKF::readHgtData</text>
</a>
</g>
</g>
<!-- Node19&#45;&gt;Node20 -->
<g id="edge21" class="edge"><title>Node19&#45;&gt;Node20</title>
<path fill="none" stroke="midnightblue" d="M312.749,-162C333.517,-162 357.212,-162 378.806,-162"/>
<polygon fill="midnightblue" stroke="midnightblue" points="378.887,-165.5 388.887,-162 378.887,-158.5 378.887,-165.5"/>
</g>
<!-- Node20&#45;&gt;Node7 -->
<g id="edge28" class="edge"><title>Node20&#45;&gt;Node7</title>
<path fill="none" stroke="midnightblue" d="M460.041,-171.747C479.389,-187.082 518.99,-217.137 556,-237 567.077,-242.945 579.643,-248.369 591.189,-252.876"/>
<polygon fill="midnightblue" stroke="midnightblue" points="590,-256.169 600.592,-256.438 592.48,-249.623 590,-256.169"/>
</g>
<!-- Node20&#45;&gt;Node8 -->
<g id="edge27" class="edge"><title>Node20&#45;&gt;Node8</title>
<path fill="none" stroke="midnightblue" d="M477.133,-171.529C490.258,-175.869 505.934,-181.117 520,-186 536.07,-191.579 539.751,-193.963 556,-199 563.564,-201.345 571.627,-203.642 579.532,-205.783"/>
<polygon fill="midnightblue" stroke="midnightblue" points="578.848,-209.222 589.411,-208.403 580.643,-202.456 578.848,-209.222"/>
</g>
<!-- Node21 -->
<g id="node21" class="node"><title>Node21</title>
<g id="a_node21"><a xlink:href="$classAP__Baro.html#aae5b3ae28aca807eb20b722a04685061" xlink:title="AP_Baro::get_last_update">
<polygon fill="white" stroke="black" points="564.5,-58.5 564.5,-77.5 695.5,-77.5 695.5,-58.5 564.5,-58.5"/>
<text text-anchor="middle" x="630" y="-65.5" font-family="Helvetica,sans-Serif" font-size="10.00">AP_Baro::get_last_update</text>
</a>
</g>
</g>
<!-- Node20&#45;&gt;Node21 -->
<g id="edge22" class="edge"><title>Node20&#45;&gt;Node21</title>
<path fill="none" stroke="midnightblue" d="M465.915,-152.429C487.302,-141.03 524.176,-121.462 556,-105 570.624,-97.4357 586.965,-89.1386 600.473,-82.3218"/>
<polygon fill="midnightblue" stroke="midnightblue" points="602.388,-85.2765 609.743,-77.6515 599.238,-79.0251 602.388,-85.2765"/>
</g>
<!-- Node22 -->
<g id="node22" class="node"><title>Node22</title>
<g id="a_node22"><a xlink:href="$classAP__Baro.html#a984b4dbc11e276e832467253590da933" xlink:title="AP_Baro::get_altitude">
<polygon fill="white" stroke="black" points="574,-152.5 574,-171.5 686,-171.5 686,-152.5 574,-152.5"/>
<text text-anchor="middle" x="630" y="-159.5" font-family="Helvetica,sans-Serif" font-size="10.00">AP_Baro::get_altitude</text>
</a>
</g>
</g>
<!-- Node20&#45;&gt;Node22 -->
<g id="edge24" class="edge"><title>Node20&#45;&gt;Node22</title>
<path fill="none" stroke="midnightblue" d="M505.27,-162C523.881,-162 544.67,-162 563.816,-162"/>
<polygon fill="midnightblue" stroke="midnightblue" points="563.957,-165.5 573.957,-162 563.957,-158.5 563.957,-165.5"/>
</g>
<!-- Node23 -->
<g id="node23" class="node"><title>Node23</title>
<g id="a_node23"><a xlink:href="$classNavEKF.html#a46acab5de021fea9824f4b5bed04e3e9" xlink:title="NavEKF::RecallStates">
<polygon fill="white" stroke="black" points="572,-114.5 572,-133.5 688,-133.5 688,-114.5 572,-114.5"/>
<text text-anchor="middle" x="630" y="-121.5" font-family="Helvetica,sans-Serif" font-size="10.00">NavEKF::RecallStates</text>
</a>
</g>
</g>
<!-- Node20&#45;&gt;Node23 -->
<g id="edge26" class="edge"><title>Node20&#45;&gt;Node23</title>
<path fill="none" stroke="midnightblue" d="M493.674,-152.411C517.989,-147.306 548.08,-140.989 573.708,-135.608"/>
<polygon fill="midnightblue" stroke="midnightblue" points="574.587,-139 583.654,-133.52 573.149,-132.149 574.587,-139"/>
</g>
<!-- Node21&#45;&gt;Node21 -->
<g id="edge23" class="edge"><title>Node21&#45;&gt;Node21</title>
<path fill="none" stroke="midnightblue" d="M601.949,-77.7571C588.302,-86.5653 597.652,-96 630,-96 652.239,-96 663.608,-91.5406 664.108,-85.8913"/>
<polygon fill="midnightblue" stroke="midnightblue" points="666.831,-83.6878 658.051,-77.7571 661.216,-87.8682 666.831,-83.6878"/>
</g>
<!-- Node22&#45;&gt;Node22 -->
<g id="edge25" class="edge"><title>Node22&#45;&gt;Node22</title>
<path fill="none" stroke="midnightblue" d="M601.949,-171.757C588.302,-180.565 597.652,-190 630,-190 652.239,-190 663.608,-185.541 664.108,-179.891"/>
<polygon fill="midnightblue" stroke="midnightblue" points="666.831,-177.688 658.051,-171.757 661.216,-181.868 666.831,-177.688"/>
</g>
<!-- Node25 -->
<g id="node25" class="node"><title>Node25</title>
<g id="a_node25"><a xlink:href="$AP__Math_8cpp.html#ac09c78b18c2ad21b9a04081f119f11c0" xlink:title="pythagorous3">
<polygon fill="white" stroke="black" points="409.5,-506.5 409.5,-525.5 484.5,-525.5 484.5,-506.5 409.5,-506.5"/>
<text text-anchor="middle" x="447" y="-513.5" font-family="Helvetica,sans-Serif" font-size="10.00">pythagorous3</text>
</a>
</g>
</g>
<!-- Node24&#45;&gt;Node25 -->
<g id="edge30" class="edge"><title>Node24&#45;&gt;Node25</title>
<path fill="none" stroke="midnightblue" d="M296.76,-508.145C326.835,-509.728 367.818,-511.885 399.227,-513.538"/>
<polygon fill="midnightblue" stroke="midnightblue" points="399.313,-517.048 409.483,-514.078 399.681,-510.057 399.313,-517.048"/>
</g>
<!-- Node25&#45;&gt;Node6 -->
<g id="edge31" class="edge"><title>Node25&#45;&gt;Node6</title>
<path fill="none" stroke="midnightblue" d="M484.628,-508.31C520.665,-500.744 574.621,-489.416 605.346,-482.966"/>
<polygon fill="midnightblue" stroke="midnightblue" points="606.11,-486.382 615.177,-480.902 604.671,-479.531 606.11,-486.382"/>
</g>
<!-- Node27 -->
<g id="node27" class="node"><title>Node27</title>
<g id="a_node27"><a xlink:href="$classQuaternion.html#a6f5e82dd828c59392a3133d6d5877f39" xlink:title="Quaternion::length">
<polygon fill="white" stroke="black" points="399,-468.5 399,-487.5 495,-487.5 495,-468.5 399,-468.5"/>
<text text-anchor="middle" x="447" y="-475.5" font-family="Helvetica,sans-Serif" font-size="10.00">Quaternion::length</text>
</a>
</g>
</g>
<!-- Node26&#45;&gt;Node27 -->
<g id="edge33" class="edge"><title>Node26&#45;&gt;Node27</title>
<path fill="none" stroke="midnightblue" d="M311.211,-456.718C335.575,-460.564 364.2,-465.084 388.789,-468.967"/>
<polygon fill="midnightblue" stroke="midnightblue" points="388.278,-472.429 398.701,-470.532 389.37,-465.515 388.278,-472.429"/>
</g>
<!-- Node27&#45;&gt;Node6 -->
<g id="edge34" class="edge"><title>Node27&#45;&gt;Node6</title>
<path fill="none" stroke="midnightblue" d="M495.083,-478C530.407,-478 577.296,-478 605.19,-478"/>
<polygon fill="midnightblue" stroke="midnightblue" points="605.223,-481.5 615.223,-478 605.223,-474.5 605.223,-481.5"/>
</g>
<!-- Node29&#45;&gt;Node6 -->
<g id="edge38" class="edge"><title>Node29&#45;&gt;Node6</title>
<path fill="none" stroke="midnightblue" d="M493.674,-449.589C529.176,-457.042 576.991,-467.081 605.25,-473.014"/>
<polygon fill="midnightblue" stroke="midnightblue" points="604.89,-476.514 615.396,-475.144 606.328,-469.664 604.89,-476.514"/>
</g>
<!-- Node29&#45;&gt;Node7 -->
<g id="edge37" class="edge"><title>Node29&#45;&gt;Node7</title>
<path fill="none" stroke="midnightblue" d="M506.732,-430.374C511.61,-427.898 516.141,-424.82 520,-421 562.912,-378.522 514.373,-333.738 556,-290 562.621,-283.043 571.292,-278.101 580.335,-274.59"/>
<polygon fill="midnightblue" stroke="midnightblue" points="581.445,-277.91 589.824,-271.426 579.23,-271.269 581.445,-277.91"/>
</g>
</g>
</svg>
