<?xml version="1.0" encoding="UTF-8" standalone="no"?>
<!DOCTYPE svg PUBLIC "-//W3C//DTD SVG 1.1//EN"
 "http://www.w3.org/Graphics/SVG/1.1/DTD/svg11.dtd">
<!-- Generated by graphviz version 2.36.0 (20140111.2315)
 -->
<!-- Title: RC_Channel::set_angle Pages: 1 -->
<svg width="786pt" height="203pt"
 viewBox="0.00 0.00 786.00 203.00" xmlns="http://www.w3.org/2000/svg" xmlns:xlink="http://www.w3.org/1999/xlink">
<g id="graph0" class="graph" transform="scale(1 1) rotate(0) translate(4 199)">
<title>RC_Channel::set_angle</title>
<polygon fill="white" stroke="none" points="-4,4 -4,-199 782,-199 782,4 -4,4"/>
<!-- Node1 -->
<g id="node1" class="node"><title>Node1</title>
<polygon fill="#bfbfbf" stroke="black" points="0.5,-93.5 0.5,-112.5 121.5,-112.5 121.5,-93.5 0.5,-93.5"/>
<text text-anchor="middle" x="61" y="-100.5" font-family="Helvetica,sans-Serif" font-size="10.00">RC_Channel::set_angle</text>
</g>
<!-- Node2 -->
<g id="node2" class="node"><title>Node2</title>
<g id="a_node2"><a xlink:href="$classAP__MotorsCoax.html#ad24085ea1d544ba1e46f3ed3fba4a909" xlink:title="AP_MotorsCoax::Init">
<polygon fill="white" stroke="black" points="169,-175.5 169,-194.5 277,-194.5 277,-175.5 169,-175.5"/>
<text text-anchor="middle" x="223" y="-182.5" font-family="Helvetica,sans-Serif" font-size="10.00">AP_MotorsCoax::Init</text>
</a>
</g>
</g>
<!-- Node1&#45;&gt;Node2 -->
<g id="edge1" class="edge"><title>Node1&#45;&gt;Node2</title>
<path fill="none" stroke="midnightblue" d="M82.1224,-118.733C100.871,-132.761 130.06,-153.028 158,-166 165.884,-169.661 174.642,-172.807 183.085,-175.427"/>
<polygon fill="midnightblue" stroke="midnightblue" points="84.1248,-115.859 74.0463,-112.592 79.8874,-121.431 84.1248,-115.859"/>
</g>
<!-- Node3 -->
<g id="node3" class="node"><title>Node3</title>
<g id="a_node3"><a xlink:href="$classAP__MotorsSingle.html#af5dde6531e240a179f0812874f9fa681" xlink:title="AP_MotorsSingle::Init">
<polygon fill="white" stroke="black" points="167,-137.5 167,-156.5 279,-156.5 279,-137.5 167,-137.5"/>
<text text-anchor="middle" x="223" y="-144.5" font-family="Helvetica,sans-Serif" font-size="10.00">AP_MotorsSingle::Init</text>
</a>
</g>
</g>
<!-- Node1&#45;&gt;Node3 -->
<g id="edge2" class="edge"><title>Node1&#45;&gt;Node3</title>
<path fill="none" stroke="midnightblue" d="M106.538,-115.248C132.082,-122.272 163.673,-130.96 187.35,-137.471"/>
<polygon fill="midnightblue" stroke="midnightblue" points="107.288,-111.824 96.7176,-112.547 105.432,-118.574 107.288,-111.824"/>
</g>
<!-- Node4 -->
<g id="node4" class="node"><title>Node4</title>
<g id="a_node4"><a xlink:href="$classAP__MotorsHeli.html#a783736842493d797e15a43a8746b0eea" xlink:title="AP_MotorsHeli::init\l_swash">
<polygon fill="white" stroke="black" points="172.5,-88 172.5,-118 273.5,-118 273.5,-88 172.5,-88"/>
<text text-anchor="start" x="180.5" y="-106" font-family="Helvetica,sans-Serif" font-size="10.00">AP_MotorsHeli::init</text>
<text text-anchor="middle" x="223" y="-95" font-family="Helvetica,sans-Serif" font-size="10.00">_swash</text>
</a>
</g>
</g>
<!-- Node1&#45;&gt;Node4 -->
<g id="edge3" class="edge"><title>Node1&#45;&gt;Node4</title>
<path fill="none" stroke="midnightblue" d="M131.888,-103C145.505,-103 159.521,-103 172.32,-103"/>
<polygon fill="midnightblue" stroke="midnightblue" points="131.578,-99.5001 121.578,-103 131.578,-106.5 131.578,-99.5001"/>
</g>
<!-- Node12 -->
<g id="node12" class="node"><title>Node12</title>
<g id="a_node12"><a xlink:href="$AP__Motors__test_8pde.html#a4fc01d736fe50cf5b977f755b675f11d" xlink:title="setup">
<polygon fill="white" stroke="black" points="202.5,-49.5 202.5,-68.5 243.5,-68.5 243.5,-49.5 202.5,-49.5"/>
<text text-anchor="middle" x="223" y="-56.5" font-family="Helvetica,sans-Serif" font-size="10.00">setup</text>
</a>
</g>
</g>
<!-- Node1&#45;&gt;Node12 -->
<g id="edge11" class="edge"><title>Node1&#45;&gt;Node12</title>
<path fill="none" stroke="midnightblue" d="M106.584,-90.7394C138.067,-82.0816 178.718,-70.9025 202.421,-64.3843"/>
<polygon fill="midnightblue" stroke="midnightblue" points="105.432,-87.4263 96.7176,-93.4527 107.288,-94.1757 105.432,-87.4263"/>
</g>
<!-- Node13 -->
<g id="node13" class="node"><title>Node13</title>
<g id="a_node13"><a xlink:href="$classRC__Channel__aux.html#a4f62563746d0fb95dcf49532728f3d00" xlink:title="RC_Channel_aux::update\l_aux_servo_function">
<polygon fill="white" stroke="black" points="158.5,-0 158.5,-30 287.5,-30 287.5,-0 158.5,-0"/>
<text text-anchor="start" x="166.5" y="-18" font-family="Helvetica,sans-Serif" font-size="10.00">RC_Channel_aux::update</text>
<text text-anchor="middle" x="223" y="-7" font-family="Helvetica,sans-Serif" font-size="10.00">_aux_servo_function</text>
</a>
</g>
</g>
<!-- Node1&#45;&gt;Node13 -->
<g id="edge12" class="edge"><title>Node1&#45;&gt;Node13</title>
<path fill="none" stroke="midnightblue" d="M83.0285,-87.3529C101.976,-73.7108 130.933,-53.9737 158,-40 164.89,-36.4431 172.407,-33.0807 179.788,-30.0434"/>
<polygon fill="midnightblue" stroke="midnightblue" points="80.8479,-84.6112 74.8266,-93.3287 84.9699,-90.2688 80.8479,-84.6112"/>
</g>
<!-- Node5 -->
<g id="node5" class="node"><title>Node5</title>
<g id="a_node5"><a xlink:href="$classAP__MotorsHeli.html#aecd9fdd0ac06f1ab94da6ca46a9a1551" xlink:title="AP_MotorsHeli::Init">
<polygon fill="white" stroke="black" points="337,-117.5 337,-136.5 439,-136.5 439,-117.5 337,-117.5"/>
<text text-anchor="middle" x="388" y="-124.5" font-family="Helvetica,sans-Serif" font-size="10.00">AP_MotorsHeli::Init</text>
</a>
</g>
</g>
<!-- Node4&#45;&gt;Node5 -->
<g id="edge4" class="edge"><title>Node4&#45;&gt;Node5</title>
<path fill="none" stroke="midnightblue" d="M283.87,-111.815C301.314,-114.384 320.182,-117.162 336.952,-119.631"/>
<polygon fill="midnightblue" stroke="midnightblue" points="284.194,-108.325 273.791,-110.331 283.175,-115.251 284.194,-108.325"/>
</g>
<!-- Node6 -->
<g id="node6" class="node"><title>Node6</title>
<g id="a_node6"><a xlink:href="$classAP__MotorsHeli.html#a50457b8a60a8486755d6673c6631d2d8" xlink:title="AP_MotorsHeli::move\l_swash">
<polygon fill="white" stroke="black" points="331.5,-68 331.5,-98 444.5,-98 444.5,-68 331.5,-68"/>
<text text-anchor="start" x="339.5" y="-86" font-family="Helvetica,sans-Serif" font-size="10.00">AP_MotorsHeli::move</text>
<text text-anchor="middle" x="388" y="-75" font-family="Helvetica,sans-Serif" font-size="10.00">_swash</text>
</a>
</g>
</g>
<!-- Node4&#45;&gt;Node6 -->
<g id="edge5" class="edge"><title>Node4&#45;&gt;Node6</title>
<path fill="none" stroke="midnightblue" d="M283.797,-95.6629C299.311,-93.7594 315.957,-91.7169 331.254,-89.84"/>
<polygon fill="midnightblue" stroke="midnightblue" points="283.29,-92.1988 273.791,-96.8907 284.143,-99.1467 283.29,-92.1988"/>
</g>
<!-- Node7 -->
<g id="node7" class="node"><title>Node7</title>
<g id="a_node7"><a xlink:href="$classAP__MotorsHeli.html#a85918ee9be140eee1738ca2898fc6513" xlink:title="AP_MotorsHeli::output\l_armed_stabilizing">
<polygon fill="white" stroke="black" points="499,-90 499,-120 615,-120 615,-90 499,-90"/>
<text text-anchor="start" x="507" y="-108" font-family="Helvetica,sans-Serif" font-size="10.00">AP_MotorsHeli::output</text>
<text text-anchor="middle" x="557" y="-97" font-family="Helvetica,sans-Serif" font-size="10.00">_armed_stabilizing</text>
</a>
</g>
</g>
<!-- Node6&#45;&gt;Node7 -->
<g id="edge6" class="edge"><title>Node6&#45;&gt;Node7</title>
<path fill="none" stroke="midnightblue" d="M454.599,-91.6418C469.242,-93.5708 484.656,-95.6014 498.922,-97.4808"/>
<polygon fill="midnightblue" stroke="midnightblue" points="454.98,-88.1618 444.609,-90.3257 454.066,-95.1019 454.98,-88.1618"/>
</g>
<!-- Node11 -->
<g id="node11" class="node"><title>Node11</title>
<g id="a_node11"><a xlink:href="$classAP__MotorsHeli.html#a42fa16716c5bd1f3e06f89c3f0579672" xlink:title="AP_MotorsHeli::output_min">
<polygon fill="white" stroke="black" points="488.5,-51.5 488.5,-70.5 625.5,-70.5 625.5,-51.5 488.5,-51.5"/>
<text text-anchor="middle" x="557" y="-58.5" font-family="Helvetica,sans-Serif" font-size="10.00">AP_MotorsHeli::output_min</text>
</a>
</g>
</g>
<!-- Node6&#45;&gt;Node11 -->
<g id="edge10" class="edge"><title>Node6&#45;&gt;Node11</title>
<path fill="none" stroke="midnightblue" d="M454.654,-74.3509C465.754,-72.8886 477.296,-71.3682 488.443,-69.8997"/>
<polygon fill="midnightblue" stroke="midnightblue" points="454.066,-70.8981 444.609,-75.6743 454.98,-77.8382 454.066,-70.8981"/>
</g>
<!-- Node8 -->
<g id="node8" class="node"><title>Node8</title>
<g id="a_node8"><a xlink:href="$classAP__MotorsHeli.html#af02bef1b954fa23247b9940113c9a59a" xlink:title="AP_MotorsHeli::output\l_armed_not_stabilizing">
<polygon fill="white" stroke="black" points="662,-139 662,-169 778,-169 778,-139 662,-139"/>
<text text-anchor="start" x="670" y="-157" font-family="Helvetica,sans-Serif" font-size="10.00">AP_MotorsHeli::output</text>
<text text-anchor="middle" x="720" y="-146" font-family="Helvetica,sans-Serif" font-size="10.00">_armed_not_stabilizing</text>
</a>
</g>
</g>
<!-- Node7&#45;&gt;Node8 -->
<g id="edge7" class="edge"><title>Node7&#45;&gt;Node8</title>
<path fill="none" stroke="midnightblue" d="M617.514,-123.113C634.63,-128.322 653.107,-133.946 669.545,-138.948"/>
<polygon fill="midnightblue" stroke="midnightblue" points="618.205,-119.665 607.619,-120.101 616.167,-126.361 618.205,-119.665"/>
</g>
<!-- Node9 -->
<g id="node9" class="node"><title>Node9</title>
<g id="a_node9"><a xlink:href="$classAP__MotorsHeli.html#ad5752cdd84e25803d1889ac66817c221" xlink:title="AP_MotorsHeli::output\l_armed_zero_throttle">
<polygon fill="white" stroke="black" points="662,-90 662,-120 778,-120 778,-90 662,-90"/>
<text text-anchor="start" x="670" y="-108" font-family="Helvetica,sans-Serif" font-size="10.00">AP_MotorsHeli::output</text>
<text text-anchor="middle" x="720" y="-97" font-family="Helvetica,sans-Serif" font-size="10.00">_armed_zero_throttle</text>
</a>
</g>
</g>
<!-- Node7&#45;&gt;Node9 -->
<g id="edge8" class="edge"><title>Node7&#45;&gt;Node9</title>
<path fill="none" stroke="midnightblue" d="M625.329,-105C637.514,-105 650.113,-105 661.968,-105"/>
<polygon fill="midnightblue" stroke="midnightblue" points="625.216,-101.5 615.216,-105 625.216,-108.5 625.216,-101.5"/>
</g>
<!-- Node10 -->
<g id="node10" class="node"><title>Node10</title>
<g id="a_node10"><a xlink:href="$classAP__MotorsHeli.html#a82bbdd9f88cb6a1e2ab13fafddafe639" xlink:title="AP_MotorsHeli::output\l_disarmed">
<polygon fill="white" stroke="black" points="662,-41 662,-71 778,-71 778,-41 662,-41"/>
<text text-anchor="start" x="670" y="-59" font-family="Helvetica,sans-Serif" font-size="10.00">AP_MotorsHeli::output</text>
<text text-anchor="middle" x="720" y="-48" font-family="Helvetica,sans-Serif" font-size="10.00">_disarmed</text>
</a>
</g>
</g>
<!-- Node7&#45;&gt;Node10 -->
<g id="edge9" class="edge"><title>Node7&#45;&gt;Node10</title>
<path fill="none" stroke="midnightblue" d="M617.514,-86.8871C634.63,-81.6778 653.107,-76.0543 669.545,-71.0516"/>
<polygon fill="midnightblue" stroke="midnightblue" points="616.167,-83.6385 607.619,-89.8986 618.205,-90.3352 616.167,-83.6385"/>
</g>
<!-- Node14 -->
<g id="node14" class="node"><title>Node14</title>
<g id="a_node14"><a xlink:href="$classRC__Channel__aux.html#a94bef65abca366d677d6d0a2c31af9c1" xlink:title="Should be called after the the servo functions have been initialized. ">
<polygon fill="white" stroke="black" points="324,-0 324,-30 452,-30 452,-0 324,-0"/>
<text text-anchor="start" x="332" y="-18" font-family="Helvetica,sans-Serif" font-size="10.00">RC_Channel_aux::enable</text>
<text text-anchor="middle" x="388" y="-7" font-family="Helvetica,sans-Serif" font-size="10.00">_aux_servos</text>
</a>
</g>
</g>
<!-- Node13&#45;&gt;Node14 -->
<g id="edge13" class="edge"><title>Node13&#45;&gt;Node14</title>
<path fill="none" stroke="midnightblue" d="M297.986,-15C306.596,-15 315.318,-15 323.765,-15"/>
<polygon fill="midnightblue" stroke="midnightblue" points="297.954,-11.5001 287.954,-15 297.954,-18.5001 297.954,-11.5001"/>
</g>
</g>
</svg>
