<?xml version="1.0" encoding="UTF-8" standalone="no"?>
<!DOCTYPE svg PUBLIC "-//W3C//DTD SVG 1.1//EN"
 "http://www.w3.org/Graphics/SVG/1.1/DTD/svg11.dtd">
<!-- Generated by graphviz version 2.36.0 (20140111.2315)
 -->
<!-- Title: AP_InertialSensor::healthy Pages: 1 -->
<svg width="498pt" height="38pt"
 viewBox="0.00 0.00 498.00 38.00" xmlns="http://www.w3.org/2000/svg" xmlns:xlink="http://www.w3.org/1999/xlink">
<g id="graph0" class="graph" transform="scale(1 1) rotate(0) translate(4 34)">
<title>AP_InertialSensor::healthy</title>
<polygon fill="white" stroke="none" points="-4,4 -4,-34 494,-34 494,4 -4,4"/>
<!-- Node1 -->
<g id="node1" class="node"><title>Node1</title>
<polygon fill="#bfbfbf" stroke="black" points="0.5,-0 0.5,-30 101.5,-30 101.5,-0 0.5,-0"/>
<text text-anchor="start" x="8.5" y="-18" font-family="Helvetica,sans-Serif" font-size="10.00">AP_InertialSensor::</text>
<text text-anchor="middle" x="51" y="-7" font-family="Helvetica,sans-Serif" font-size="10.00">healthy</text>
</g>
<!-- Node2 -->
<g id="node2" class="node"><title>Node2</title>
<g id="a_node2"><a xlink:href="$classAP__AHRS__DCM.html#a8c3304b59bc6a27f24c686985c100549" xlink:title="AP_AHRS_DCM::drift\l_correction">
<polygon fill="white" stroke="black" points="138.5,-0 138.5,-30 253.5,-30 253.5,-0 138.5,-0"/>
<text text-anchor="start" x="146.5" y="-18" font-family="Helvetica,sans-Serif" font-size="10.00">AP_AHRS_DCM::drift</text>
<text text-anchor="middle" x="196" y="-7" font-family="Helvetica,sans-Serif" font-size="10.00">_correction</text>
</a>
</g>
</g>
<!-- Node1&#45;&gt;Node2 -->
<g id="edge1" class="edge"><title>Node1&#45;&gt;Node2</title>
<path fill="none" stroke="midnightblue" d="M111.726,-15C120.463,-15 129.441,-15 138.118,-15"/>
<polygon fill="midnightblue" stroke="midnightblue" points="111.613,-11.5001 101.613,-15 111.613,-18.5001 111.613,-11.5001"/>
</g>
<!-- Node3 -->
<g id="node3" class="node"><title>Node3</title>
<g id="a_node3"><a xlink:href="$classAP__AHRS__DCM.html#a6bf59b99999767fdbf4dfd363bc51bfd" xlink:title="AP_AHRS_DCM::update">
<polygon fill="white" stroke="black" points="290,-5.5 290,-24.5 418,-24.5 418,-5.5 290,-5.5"/>
<text text-anchor="middle" x="354" y="-12.5" font-family="Helvetica,sans-Serif" font-size="10.00">AP_AHRS_DCM::update</text>
</a>
</g>
</g>
<!-- Node2&#45;&gt;Node3 -->
<g id="edge2" class="edge"><title>Node2&#45;&gt;Node3</title>
<path fill="none" stroke="midnightblue" d="M263.823,-15C272.491,-15 281.347,-15 289.95,-15"/>
<polygon fill="midnightblue" stroke="midnightblue" points="263.761,-11.5001 253.761,-15 263.761,-18.5001 263.761,-11.5001"/>
</g>
<!-- Node4 -->
<g id="node4" class="node"><title>Node4</title>
<g id="a_node4"><a xlink:href="$AHRS__Test_8pde.html#a0b33edabd7f1c4e4a0bf32c67269be2f" xlink:title="loop">
<polygon fill="white" stroke="black" points="454.5,-5.5 454.5,-24.5 489.5,-24.5 489.5,-5.5 454.5,-5.5"/>
<text text-anchor="middle" x="472" y="-12.5" font-family="Helvetica,sans-Serif" font-size="10.00">loop</text>
</a>
</g>
</g>
<!-- Node3&#45;&gt;Node4 -->
<g id="edge3" class="edge"><title>Node3&#45;&gt;Node4</title>
<path fill="none" stroke="midnightblue" d="M428.327,-15C437.983,-15 447.029,-15 454.285,-15"/>
<polygon fill="midnightblue" stroke="midnightblue" points="428.092,-11.5001 418.092,-15 428.092,-18.5001 428.092,-11.5001"/>
</g>
</g>
</svg>
