<?xml version="1.0" encoding="UTF-8" standalone="no"?>
<!DOCTYPE svg PUBLIC "-//W3C//DTD SVG 1.1//EN"
 "http://www.w3.org/Graphics/SVG/1.1/DTD/svg11.dtd">
<!-- Generated by graphviz version 2.36.0 (20140111.2315)
 -->
<!-- Title: PX4::PX4UARTDriver::try_initialise Pages: 1 -->
<svg width="276pt" height="185pt"
 viewBox="0.00 0.00 276.00 185.00" xmlns="http://www.w3.org/2000/svg" xmlns:xlink="http://www.w3.org/1999/xlink">
<g id="graph0" class="graph" transform="scale(1 1) rotate(0) translate(4 181)">
<title>PX4::PX4UARTDriver::try_initialise</title>
<polygon fill="white" stroke="none" points="-4,4 -4,-181 272,-181 272,4 -4,4"/>
<!-- Node1 -->
<g id="node1" class="node"><title>Node1</title>
<polygon fill="#bfbfbf" stroke="black" points="0,-73 0,-103 114,-103 114,-73 0,-73"/>
<text text-anchor="start" x="8" y="-91" font-family="Helvetica,sans-Serif" font-size="10.00">PX4::PX4UARTDriver</text>
<text text-anchor="middle" x="57" y="-80" font-family="Helvetica,sans-Serif" font-size="10.00">::try_initialise</text>
</g>
<!-- Node2 -->
<g id="node2" class="node"><title>Node2</title>
<g id="a_node2"><a xlink:href="$classAP__HAL_1_1Scheduler.html#a26b68339fc68a562d8d3a1238d0ec8c1" xlink:title="AP_HAL::Scheduler::\lmillis">
<polygon fill="white" stroke="black" points="154,-147 154,-177 264,-177 264,-147 154,-147"/>
<text text-anchor="start" x="162" y="-165" font-family="Helvetica,sans-Serif" font-size="10.00">AP_HAL::Scheduler::</text>
<text text-anchor="middle" x="209" y="-154" font-family="Helvetica,sans-Serif" font-size="10.00">millis</text>
</a>
</g>
</g>
<!-- Node1&#45;&gt;Node2 -->
<g id="edge1" class="edge"><title>Node1&#45;&gt;Node2</title>
<path fill="none" stroke="midnightblue" d="M85.0722,-103.176C103.241,-113.173 127.82,-126.335 150,-137 154.056,-138.95 158.303,-140.918 162.575,-142.847"/>
<polygon fill="midnightblue" stroke="midnightblue" points="161.342,-146.129 171.902,-146.988 164.182,-139.731 161.342,-146.129"/>
</g>
<!-- Node3 -->
<g id="node3" class="node"><title>Node3</title>
<g id="a_node3"><a xlink:href="$classAP__HAL_1_1Util.html#a9cd8bcd13d4c3c74c665b0702f86451b" xlink:title="AP_HAL::Util::safety\l_switch_state">
<polygon fill="white" stroke="black" points="154.5,-98 154.5,-128 263.5,-128 263.5,-98 154.5,-98"/>
<text text-anchor="start" x="162.5" y="-116" font-family="Helvetica,sans-Serif" font-size="10.00">AP_HAL::Util::safety</text>
<text text-anchor="middle" x="209" y="-105" font-family="Helvetica,sans-Serif" font-size="10.00">_switch_state</text>
</a>
</g>
</g>
<!-- Node1&#45;&gt;Node3 -->
<g id="edge2" class="edge"><title>Node1&#45;&gt;Node3</title>
<path fill="none" stroke="midnightblue" d="M114.281,-97.3802C124.132,-99.022 134.444,-100.741 144.474,-102.412"/>
<polygon fill="midnightblue" stroke="midnightblue" points="143.945,-105.872 154.384,-104.064 145.096,-98.9676 143.945,-105.872"/>
</g>
<!-- Node4 -->
<g id="node4" class="node"><title>Node4</title>
<g id="a_node4"><a xlink:href="$classAP__HAL_1_1Util.html#a973ee89f8eee7af3a4d2a3eb700cbf3c" xlink:title="AP_HAL::Util::get_soft\l_armed">
<polygon fill="white" stroke="black" points="150.5,-49 150.5,-79 267.5,-79 267.5,-49 150.5,-49"/>
<text text-anchor="start" x="158.5" y="-67" font-family="Helvetica,sans-Serif" font-size="10.00">AP_HAL::Util::get_soft</text>
<text text-anchor="middle" x="209" y="-56" font-family="Helvetica,sans-Serif" font-size="10.00">_armed</text>
</a>
</g>
</g>
<!-- Node1&#45;&gt;Node4 -->
<g id="edge3" class="edge"><title>Node1&#45;&gt;Node4</title>
<path fill="none" stroke="midnightblue" d="M114.281,-78.995C122.766,-77.6375 131.592,-76.2253 140.286,-74.8342"/>
<polygon fill="midnightblue" stroke="midnightblue" points="141.082,-78.2515 150.403,-73.2155 139.976,-71.3394 141.082,-78.2515"/>
</g>
<!-- Node5 -->
<g id="node5" class="node"><title>Node5</title>
<g id="a_node5"><a xlink:href="$classPX4_1_1PX4UARTDriver.html#a8eced50889d2c31d1e6095c4c7aef8b4" xlink:title="PX4::PX4UARTDriver\l::begin">
<polygon fill="white" stroke="black" points="152,-0 152,-30 266,-30 266,-0 152,-0"/>
<text text-anchor="start" x="160" y="-18" font-family="Helvetica,sans-Serif" font-size="10.00">PX4::PX4UARTDriver</text>
<text text-anchor="middle" x="209" y="-7" font-family="Helvetica,sans-Serif" font-size="10.00">::begin</text>
</a>
</g>
</g>
<!-- Node1&#45;&gt;Node5 -->
<g id="edge4" class="edge"><title>Node1&#45;&gt;Node5</title>
<path fill="none" stroke="midnightblue" d="M85.5102,-72.9675C103.653,-63.2227 128.037,-50.4456 150,-40 154.065,-38.0669 158.317,-36.1111 162.592,-34.1894"/>
<polygon fill="midnightblue" stroke="midnightblue" points="164.196,-37.3069 171.924,-30.0592 161.363,-30.9058 164.196,-37.3069"/>
</g>
</g>
</svg>
