<?xml version="1.0" encoding="UTF-8" standalone="no"?>
<!DOCTYPE svg PUBLIC "-//W3C//DTD SVG 1.1//EN"
 "http://www.w3.org/Graphics/SVG/1.1/DTD/svg11.dtd">
<!-- Generated by graphviz version 2.36.0 (20140111.2315)
 -->
<!-- Title: AP_InertialSensor_MPU6000::_register_write_check Pages: 1 -->
<svg width="502pt" height="87pt"
 viewBox="0.00 0.00 502.00 87.00" xmlns="http://www.w3.org/2000/svg" xmlns:xlink="http://www.w3.org/1999/xlink">
<g id="graph0" class="graph" transform="scale(1 1) rotate(0) translate(4 83)">
<title>AP_InertialSensor_MPU6000::_register_write_check</title>
<polygon fill="white" stroke="none" points="-4,4 -4,-83 498,-83 498,4 -4,4"/>
<!-- Node1 -->
<g id="node1" class="node"><title>Node1</title>
<polygon fill="#bfbfbf" stroke="black" points="0,-24 0,-54 144,-54 144,-24 0,-24"/>
<text text-anchor="start" x="8" y="-42" font-family="Helvetica,sans-Serif" font-size="10.00">AP_InertialSensor_MPU6000</text>
<text text-anchor="middle" x="72" y="-31" font-family="Helvetica,sans-Serif" font-size="10.00">::_register_write_check</text>
</g>
<!-- Node2 -->
<g id="node2" class="node"><title>Node2</title>
<g id="a_node2"><a xlink:href="$classAP__InertialSensor__MPU6000.html#a0262e2e60afd5701c43e848d38fcb80e" xlink:title="AP_InertialSensor_MPU6000\l::_register_write">
<polygon fill="white" stroke="black" points="180,-49 180,-79 324,-79 324,-49 180,-49"/>
<text text-anchor="start" x="188" y="-67" font-family="Helvetica,sans-Serif" font-size="10.00">AP_InertialSensor_MPU6000</text>
<text text-anchor="middle" x="252" y="-56" font-family="Helvetica,sans-Serif" font-size="10.00">::_register_write</text>
</a>
</g>
</g>
<!-- Node1&#45;&gt;Node2 -->
<g id="edge1" class="edge"><title>Node1&#45;&gt;Node2</title>
<path fill="none" stroke="midnightblue" d="M144.118,-48.9884C152.609,-50.181 161.327,-51.4054 169.944,-52.6158"/>
<polygon fill="midnightblue" stroke="midnightblue" points="169.606,-56.1025 179.995,-54.0274 170.579,-49.1705 169.606,-56.1025"/>
</g>
<!-- Node4 -->
<g id="node4" class="node"><title>Node4</title>
<g id="a_node4"><a xlink:href="$classAP__InertialSensor__MPU6000.html#a532e33493278a4a7b5312db3ed9e264c" xlink:title="AP_InertialSensor_MPU6000\l::_register_read">
<polygon fill="white" stroke="black" points="180,-0 180,-30 324,-30 324,-0 180,-0"/>
<text text-anchor="start" x="188" y="-18" font-family="Helvetica,sans-Serif" font-size="10.00">AP_InertialSensor_MPU6000</text>
<text text-anchor="middle" x="252" y="-7" font-family="Helvetica,sans-Serif" font-size="10.00">::_register_read</text>
</a>
</g>
</g>
<!-- Node1&#45;&gt;Node4 -->
<g id="edge3" class="edge"><title>Node1&#45;&gt;Node4</title>
<path fill="none" stroke="midnightblue" d="M144.118,-29.4111C152.609,-28.2662 161.327,-27.0908 169.944,-25.9288"/>
<polygon fill="midnightblue" stroke="midnightblue" points="170.553,-29.3786 179.995,-24.5737 169.617,-22.4414 170.553,-29.3786"/>
</g>
<!-- Node3 -->
<g id="node3" class="node"><title>Node3</title>
<g id="a_node3"><a xlink:href="$classAP__HAL_1_1SPIDeviceDriver.html#a3ff2614355f59ee6712d345792f12cb9" xlink:title="AP_HAL::SPIDeviceDriver\l::transaction">
<polygon fill="white" stroke="black" points="360,-24 360,-54 494,-54 494,-24 360,-24"/>
<text text-anchor="start" x="368" y="-42" font-family="Helvetica,sans-Serif" font-size="10.00">AP_HAL::SPIDeviceDriver</text>
<text text-anchor="middle" x="427" y="-31" font-family="Helvetica,sans-Serif" font-size="10.00">::transaction</text>
</a>
</g>
</g>
<!-- Node2&#45;&gt;Node3 -->
<g id="edge2" class="edge"><title>Node2&#45;&gt;Node3</title>
<path fill="none" stroke="midnightblue" d="M324.365,-53.6872C332.702,-52.4824 341.233,-51.2495 349.635,-50.0354"/>
<polygon fill="midnightblue" stroke="midnightblue" points="350.401,-53.4611 359.798,-48.5668 349.4,-46.5331 350.401,-53.4611"/>
</g>
<!-- Node4&#45;&gt;Node3 -->
<g id="edge4" class="edge"><title>Node4&#45;&gt;Node3</title>
<path fill="none" stroke="midnightblue" d="M324.365,-24.9003C332.702,-26.0569 341.233,-27.2405 349.635,-28.406"/>
<polygon fill="midnightblue" stroke="midnightblue" points="349.412,-31.9085 359.798,-29.8159 350.374,-24.9749 349.412,-31.9085"/>
</g>
</g>
</svg>
