<?xml version="1.0" encoding="UTF-8" standalone="no"?>
<!DOCTYPE svg PUBLIC "-//W3C//DTD SVG 1.1//EN"
 "http://www.w3.org/Graphics/SVG/1.1/DTD/svg11.dtd">
<!-- Generated by graphviz version 2.36.0 (20140111.2315)
 -->
<!-- Title: AP_GPS::time_week_ms Pages: 1 -->
<svg width="286pt" height="126pt"
 viewBox="0.00 0.00 286.00 126.00" xmlns="http://www.w3.org/2000/svg" xmlns:xlink="http://www.w3.org/1999/xlink">
<g id="graph0" class="graph" transform="scale(1 1) rotate(0) translate(4 122)">
<title>AP_GPS::time_week_ms</title>
<polygon fill="white" stroke="none" points="-4,4 -4,-122 282,-122 282,4 -4,4"/>
<!-- Node1 -->
<g id="node1" class="node"><title>Node1</title>
<polygon fill="#bfbfbf" stroke="black" points="0,-44.5 0,-63.5 128,-63.5 128,-44.5 0,-44.5"/>
<text text-anchor="middle" x="64" y="-51.5" font-family="Helvetica,sans-Serif" font-size="10.00">AP_GPS::time_week_ms</text>
</g>
<!-- Node2 -->
<g id="node2" class="node"><title>Node2</title>
<g id="a_node2"><a xlink:href="$classDataFlash__Class.html#aedee68bf7de37e2ce874dce5651ae5a4" xlink:title="DataFlash_Class::Log\l_Write_Camera">
<polygon fill="white" stroke="black" points="164,-88 164,-118 278,-118 278,-88 164,-88"/>
<text text-anchor="start" x="172" y="-106" font-family="Helvetica,sans-Serif" font-size="10.00">DataFlash_Class::Log</text>
<text text-anchor="middle" x="221" y="-95" font-family="Helvetica,sans-Serif" font-size="10.00">_Write_Camera</text>
</a>
</g>
</g>
<!-- Node1&#45;&gt;Node2 -->
<g id="edge1" class="edge"><title>Node1&#45;&gt;Node2</title>
<path fill="none" stroke="midnightblue" d="M104.956,-66.6313C125.559,-73.1446 150.83,-81.1334 172.434,-87.963"/>
<polygon fill="midnightblue" stroke="midnightblue" points="105.843,-63.2411 95.2535,-63.564 103.733,-69.9156 105.843,-63.2411"/>
</g>
<!-- Node3 -->
<g id="node3" class="node"><title>Node3</title>
<g id="a_node3"><a xlink:href="$classDataFlash__Class.html#a99edf88e150050fa323babcd07954c34" xlink:title="DataFlash_Class::Log\l_Write_GPS">
<polygon fill="white" stroke="black" points="164,-39 164,-69 278,-69 278,-39 164,-39"/>
<text text-anchor="start" x="172" y="-57" font-family="Helvetica,sans-Serif" font-size="10.00">DataFlash_Class::Log</text>
<text text-anchor="middle" x="221" y="-46" font-family="Helvetica,sans-Serif" font-size="10.00">_Write_GPS</text>
</a>
</g>
</g>
<!-- Node1&#45;&gt;Node3 -->
<g id="edge2" class="edge"><title>Node1&#45;&gt;Node3</title>
<path fill="none" stroke="midnightblue" d="M138.172,-54C146.85,-54 155.601,-54 163.987,-54"/>
<polygon fill="midnightblue" stroke="midnightblue" points="138.044,-50.5001 128.044,-54 138.044,-57.5001 138.044,-50.5001"/>
</g>
<!-- Node4 -->
<g id="node4" class="node"><title>Node4</title>
<g id="a_node4"><a xlink:href="$GPS__AUTO__test_8pde.html#afe461d27b9c48d5921c00d521181f12f" xlink:title="loop">
<polygon fill="white" stroke="black" points="203.5,-0.5 203.5,-19.5 238.5,-19.5 238.5,-0.5 203.5,-0.5"/>
<text text-anchor="middle" x="221" y="-7.5" font-family="Helvetica,sans-Serif" font-size="10.00">loop</text>
</a>
</g>
</g>
<!-- Node1&#45;&gt;Node4 -->
<g id="edge3" class="edge"><title>Node1&#45;&gt;Node4</title>
<path fill="none" stroke="midnightblue" d="M108.472,-41.6595C139.894,-32.7398 180.627,-21.1769 203.152,-14.7827"/>
<polygon fill="midnightblue" stroke="midnightblue" points="107.297,-38.3548 98.6327,-44.4527 109.208,-45.0887 107.297,-38.3548"/>
</g>
</g>
</svg>
