<?xml version="1.0" encoding="UTF-8" standalone="no"?>
<!DOCTYPE svg PUBLIC "-//W3C//DTD SVG 1.1//EN"
 "http://www.w3.org/Graphics/SVG/1.1/DTD/svg11.dtd">
<!-- Generated by graphviz version 2.36.0 (20140111.2315)
 -->
<!-- Title: AC_WPNav::calculate_wp_leash_length Pages: 1 -->
<svg width="346pt" height="263pt"
 viewBox="0.00 0.00 346.00 263.00" xmlns="http://www.w3.org/2000/svg" xmlns:xlink="http://www.w3.org/1999/xlink">
<g id="graph0" class="graph" transform="scale(1 1) rotate(0) translate(4 259)">
<title>AC_WPNav::calculate_wp_leash_length</title>
<polygon fill="white" stroke="none" points="-4,4 -4,-259 342,-259 342,4 -4,4"/>
<!-- Node1 -->
<g id="node1" class="node"><title>Node1</title>
<polygon fill="#bfbfbf" stroke="black" points="0,-115 0,-145 116,-145 116,-115 0,-115"/>
<text text-anchor="start" x="8" y="-133" font-family="Helvetica,sans-Serif" font-size="10.00">AC_WPNav::calculate</text>
<text text-anchor="middle" x="58" y="-122" font-family="Helvetica,sans-Serif" font-size="10.00">_wp_leash_length</text>
</g>
<!-- Node2 -->
<g id="node2" class="node"><title>Node2</title>
<g id="a_node2"><a xlink:href="$AP__Math_8cpp.html#afd3767d48a7b20f6d5220a4f8007af00" xlink:title="pythagorous2">
<polygon fill="white" stroke="black" points="174.5,-235.5 174.5,-254.5 249.5,-254.5 249.5,-235.5 174.5,-235.5"/>
<text text-anchor="middle" x="212" y="-242.5" font-family="Helvetica,sans-Serif" font-size="10.00">pythagorous2</text>
</a>
</g>
</g>
<!-- Node1&#45;&gt;Node2 -->
<g id="edge1" class="edge"><title>Node1&#45;&gt;Node2</title>
<path fill="none" stroke="midnightblue" d="M70.2236,-145.343C86.1989,-166.162 117.419,-203.25 152,-225 156.023,-227.53 160.402,-229.781 164.898,-231.773"/>
<polygon fill="midnightblue" stroke="midnightblue" points="163.628,-235.035 174.212,-235.508 166.233,-228.538 163.628,-235.035"/>
</g>
<!-- Node4 -->
<g id="node4" class="node"><title>Node4</title>
<g id="a_node4"><a xlink:href="$classAC__PosControl.html#ab17ea3a4f6f232c9944712b39e76aac8" xlink:title="AC_PosControl::get\l_leash_up_z">
<polygon fill="white" stroke="black" points="160,-186 160,-216 264,-216 264,-186 160,-186"/>
<text text-anchor="start" x="168" y="-204" font-family="Helvetica,sans-Serif" font-size="10.00">AC_PosControl::get</text>
<text text-anchor="middle" x="212" y="-193" font-family="Helvetica,sans-Serif" font-size="10.00">_leash_up_z</text>
</a>
</g>
</g>
<!-- Node1&#45;&gt;Node4 -->
<g id="edge3" class="edge"><title>Node1&#45;&gt;Node4</title>
<path fill="none" stroke="midnightblue" d="M88.5246,-145.155C106.702,-154.347 130.552,-166.162 152,-176 156.323,-177.983 160.847,-180.001 165.385,-181.986"/>
<polygon fill="midnightblue" stroke="midnightblue" points="164.091,-185.24 174.659,-185.996 166.869,-178.815 164.091,-185.24"/>
</g>
<!-- Node5 -->
<g id="node5" class="node"><title>Node5</title>
<g id="a_node5"><a xlink:href="$classAC__PosControl.html#aeba418c057fc5aa5aa784d809da98f14" xlink:title="AC_PosControl::get\l_leash_down_z">
<polygon fill="white" stroke="black" points="160,-137 160,-167 264,-167 264,-137 160,-137"/>
<text text-anchor="start" x="168" y="-155" font-family="Helvetica,sans-Serif" font-size="10.00">AC_PosControl::get</text>
<text text-anchor="middle" x="212" y="-144" font-family="Helvetica,sans-Serif" font-size="10.00">_leash_down_z</text>
</a>
</g>
</g>
<!-- Node1&#45;&gt;Node5 -->
<g id="edge4" class="edge"><title>Node1&#45;&gt;Node5</title>
<path fill="none" stroke="midnightblue" d="M116.032,-138.255C126.996,-139.842 138.523,-141.51 149.618,-143.116"/>
<polygon fill="midnightblue" stroke="midnightblue" points="149.259,-146.6 159.657,-144.569 150.262,-139.672 149.259,-146.6"/>
</g>
<!-- Node6 -->
<g id="node6" class="node"><title>Node6</title>
<g id="a_node6"><a xlink:href="$AP__Math_8h.html#a108b79eeb35c5d58f324458ec9e1e9f2" xlink:title="is_zero">
<polygon fill="white" stroke="black" points="188,-98.5 188,-117.5 236,-117.5 236,-98.5 188,-98.5"/>
<text text-anchor="middle" x="212" y="-105.5" font-family="Helvetica,sans-Serif" font-size="10.00">is_zero</text>
</a>
</g>
</g>
<!-- Node1&#45;&gt;Node6 -->
<g id="edge5" class="edge"><title>Node1&#45;&gt;Node6</title>
<path fill="none" stroke="midnightblue" d="M116.032,-121.745C136.876,-118.729 159.753,-115.417 177.831,-112.801"/>
<polygon fill="midnightblue" stroke="midnightblue" points="178.472,-116.244 187.868,-111.348 177.47,-109.317 178.472,-116.244"/>
</g>
<!-- Node7 -->
<g id="node7" class="node"><title>Node7</title>
<g id="a_node7"><a xlink:href="$classAC__PosControl.html#aa5759b18c7c1208b6979c728fb85f1e4" xlink:title="AC_PosControl::get\l_leash_xy">
<polygon fill="white" stroke="black" points="160,-49 160,-79 264,-79 264,-49 160,-49"/>
<text text-anchor="start" x="168" y="-67" font-family="Helvetica,sans-Serif" font-size="10.00">AC_PosControl::get</text>
<text text-anchor="middle" x="212" y="-56" font-family="Helvetica,sans-Serif" font-size="10.00">_leash_xy</text>
</a>
</g>
</g>
<!-- Node1&#45;&gt;Node7 -->
<g id="edge6" class="edge"><title>Node1&#45;&gt;Node7</title>
<path fill="none" stroke="midnightblue" d="M92.9605,-114.888C110.554,-107.094 132.402,-97.4716 152,-89 156.426,-87.0868 161.045,-85.1047 165.664,-83.1321"/>
<polygon fill="midnightblue" stroke="midnightblue" points="167.255,-86.2588 175.084,-79.121 164.512,-79.8183 167.255,-86.2588"/>
</g>
<!-- Node8 -->
<g id="node8" class="node"><title>Node8</title>
<g id="a_node8"><a xlink:href="$classAC__WPNav.html#a4bbed458f180899ecffd17e508ddf408" xlink:title="calc_slow_down_distance &#45; calculates distance before waypoint that target point should begin to slow&#45;...">
<polygon fill="white" stroke="black" points="152,-0 152,-30 272,-30 272,-0 152,-0"/>
<text text-anchor="start" x="160" y="-18" font-family="Helvetica,sans-Serif" font-size="10.00">AC_WPNav::calc_slow</text>
<text text-anchor="middle" x="212" y="-7" font-family="Helvetica,sans-Serif" font-size="10.00">_down_distance</text>
</a>
</g>
</g>
<!-- Node1&#45;&gt;Node8 -->
<g id="edge7" class="edge"><title>Node1&#45;&gt;Node8</title>
<path fill="none" stroke="midnightblue" d="M71.4796,-114.857C88.1544,-95.4056 119.404,-61.585 152,-40 154.87,-38.0998 157.907,-36.2937 161.03,-34.5868"/>
<polygon fill="midnightblue" stroke="midnightblue" points="162.655,-37.6876 169.99,-30.0432 159.489,-31.4445 162.655,-37.6876"/>
</g>
<!-- Node3 -->
<g id="node3" class="node"><title>Node3</title>
<g id="a_node3"><a xlink:href="$AP__Math_8cpp.html#a996fdbe87607543eef5dcb234f6bc017" xlink:title="sq">
<polygon fill="white" stroke="black" points="308.5,-235.5 308.5,-254.5 337.5,-254.5 337.5,-235.5 308.5,-235.5"/>
<text text-anchor="middle" x="323" y="-242.5" font-family="Helvetica,sans-Serif" font-size="10.00">sq</text>
</a>
</g>
</g>
<!-- Node2&#45;&gt;Node3 -->
<g id="edge2" class="edge"><title>Node2&#45;&gt;Node3</title>
<path fill="none" stroke="midnightblue" d="M249.599,-245C265.508,-245 283.706,-245 297.878,-245"/>
<polygon fill="midnightblue" stroke="midnightblue" points="298.26,-248.5 308.26,-245 298.26,-241.5 298.26,-248.5"/>
</g>
</g>
</svg>
