<?xml version="1.0" encoding="UTF-8" standalone="no"?>
<!DOCTYPE svg PUBLIC "-//W3C//DTD SVG 1.1//EN"
 "http://www.w3.org/Graphics/SVG/1.1/DTD/svg11.dtd">
<!-- Generated by graphviz version 2.36.0 (20140111.2315)
 -->
<!-- Title: AP_Relay::on Pages: 1 -->
<svg width="562pt" height="174pt"
 viewBox="0.00 0.00 562.00 174.00" xmlns="http://www.w3.org/2000/svg" xmlns:xlink="http://www.w3.org/1999/xlink">
<g id="graph0" class="graph" transform="scale(1 1) rotate(0) translate(4 170)">
<title>AP_Relay::on</title>
<polygon fill="white" stroke="none" points="-4,4 -4,-170 558,-170 558,4 -4,4"/>
<!-- Node1 -->
<g id="node1" class="node"><title>Node1</title>
<polygon fill="#bfbfbf" stroke="black" points="0.5,-79.5 0.5,-98.5 77.5,-98.5 77.5,-79.5 0.5,-79.5"/>
<text text-anchor="middle" x="39" y="-86.5" font-family="Helvetica,sans-Serif" font-size="10.00">AP_Relay::on</text>
</g>
<!-- Node2 -->
<g id="node2" class="node"><title>Node2</title>
<g id="a_node2"><a xlink:href="$classAP__ServoRelayEvents.html#a97e7a71ad2ed00b9b4ceb20bc617be4c" xlink:title="AP_ServoRelayEvents\l::do_set_relay">
<polygon fill="white" stroke="black" points="268.5,-136 268.5,-166 385.5,-166 385.5,-136 268.5,-136"/>
<text text-anchor="start" x="276.5" y="-154" font-family="Helvetica,sans-Serif" font-size="10.00">AP_ServoRelayEvents</text>
<text text-anchor="middle" x="327" y="-143" font-family="Helvetica,sans-Serif" font-size="10.00">::do_set_relay</text>
</a>
</g>
</g>
<!-- Node1&#45;&gt;Node2 -->
<g id="edge1" class="edge"><title>Node1&#45;&gt;Node2</title>
<path fill="none" stroke="midnightblue" d="M55.63,-105.925C69.4688,-119.6 90.9956,-137.863 114,-146 163.981,-163.678 224.811,-163.05 268.471,-159.117"/>
<polygon fill="midnightblue" stroke="midnightblue" points="57.9004,-103.239 48.4173,-98.5147 52.8842,-108.122 57.9004,-103.239"/>
</g>
<!-- Node3 -->
<g id="node3" class="node"><title>Node3</title>
<g id="a_node3"><a xlink:href="$classAP__Relay.html#aa13db0b0f4e316fe33459b659a642d9f" xlink:title="AP_Relay::init">
<polygon fill="white" stroke="black" points="132,-117.5 132,-136.5 212,-136.5 212,-117.5 132,-117.5"/>
<text text-anchor="middle" x="172" y="-124.5" font-family="Helvetica,sans-Serif" font-size="10.00">AP_Relay::init</text>
</a>
</g>
</g>
<!-- Node1&#45;&gt;Node3 -->
<g id="edge2" class="edge"><title>Node1&#45;&gt;Node3</title>
<path fill="none" stroke="midnightblue" d="M82.7148,-101.391C100.655,-106.594 121.2,-112.554 137.954,-117.414"/>
<polygon fill="midnightblue" stroke="midnightblue" points="83.636,-98.0136 73.0568,-98.589 81.6858,-104.736 83.636,-98.0136"/>
</g>
<!-- Node4 -->
<g id="node4" class="node"><title>Node4</title>
<g id="a_node4"><a xlink:href="$classAP__Camera.html#a73b785894a0650a4dd8b1ffc24c4c250" xlink:title="basic relay activation ">
<polygon fill="white" stroke="black" points="114.5,-41.5 114.5,-60.5 229.5,-60.5 229.5,-41.5 114.5,-41.5"/>
<text text-anchor="middle" x="172" y="-48.5" font-family="Helvetica,sans-Serif" font-size="10.00">AP_Camera::relay_pic</text>
</a>
</g>
</g>
<!-- Node1&#45;&gt;Node4 -->
<g id="edge3" class="edge"><title>Node1&#45;&gt;Node4</title>
<path fill="none" stroke="midnightblue" d="M82.7148,-76.6094C100.655,-71.4055 121.2,-65.4459 137.954,-60.5859"/>
<polygon fill="midnightblue" stroke="midnightblue" points="81.6858,-73.2636 73.0568,-79.411 83.636,-79.9864 81.6858,-73.2636"/>
</g>
<!-- Node8 -->
<g id="node8" class="node"><title>Node8</title>
<g id="a_node8"><a xlink:href="$classAP__Relay.html#acadbe252379390594091edd75953456a" xlink:title="AP_Relay::toggle">
<polygon fill="white" stroke="black" points="125.5,-79.5 125.5,-98.5 218.5,-98.5 218.5,-79.5 125.5,-79.5"/>
<text text-anchor="middle" x="172" y="-86.5" font-family="Helvetica,sans-Serif" font-size="10.00">AP_Relay::toggle</text>
</a>
</g>
</g>
<!-- Node1&#45;&gt;Node8 -->
<g id="edge7" class="edge"><title>Node1&#45;&gt;Node8</title>
<path fill="none" stroke="midnightblue" d="M87.56,-89C99.7922,-89 112.929,-89 125.076,-89"/>
<polygon fill="midnightblue" stroke="midnightblue" points="87.5394,-85.5001 77.5393,-89 87.5393,-92.5001 87.5394,-85.5001"/>
</g>
<!-- Node12 -->
<g id="node12" class="node"><title>Node12</title>
<g id="a_node12"><a xlink:href="$classAP__Parachute.html#a986da5e4faa8be2479c695317263a1cc" xlink:title="update &#45; shuts off the trigger should be called at about 10hz ">
<polygon fill="white" stroke="black" points="114.5,-3.5 114.5,-22.5 229.5,-22.5 229.5,-3.5 114.5,-3.5"/>
<text text-anchor="middle" x="172" y="-10.5" font-family="Helvetica,sans-Serif" font-size="10.00">AP_Parachute::update</text>
</a>
</g>
</g>
<!-- Node1&#45;&gt;Node12 -->
<g id="edge12" class="edge"><title>Node1&#45;&gt;Node12</title>
<path fill="none" stroke="midnightblue" d="M57.8308,-72.4919C72.1276,-59.9712 93.1774,-43.0811 114,-32 120.906,-28.3247 128.658,-25.1721 136.168,-22.5514"/>
<polygon fill="midnightblue" stroke="midnightblue" points="55.3622,-70.0043 50.2462,-79.2821 60.0313,-75.2196 55.3622,-70.0043"/>
</g>
<!-- Node5 -->
<g id="node5" class="node"><title>Node5</title>
<g id="a_node5"><a xlink:href="$classAP__Camera.html#a74372e2b8e5d3cd3b464f2ef417cb0f6" xlink:title="AP_Camera::trigger_pic">
<polygon fill="white" stroke="black" points="266.5,-38.5 266.5,-57.5 387.5,-57.5 387.5,-38.5 266.5,-38.5"/>
<text text-anchor="middle" x="327" y="-45.5" font-family="Helvetica,sans-Serif" font-size="10.00">AP_Camera::trigger_pic</text>
</a>
</g>
</g>
<!-- Node4&#45;&gt;Node5 -->
<g id="edge4" class="edge"><title>Node4&#45;&gt;Node5</title>
<path fill="none" stroke="midnightblue" d="M239.802,-49.6901C248.641,-49.5169 257.654,-49.3401 266.361,-49.1694"/>
<polygon fill="midnightblue" stroke="midnightblue" points="239.466,-46.196 229.537,-49.8914 239.604,-53.1946 239.466,-46.196"/>
</g>
<!-- Node6 -->
<g id="node6" class="node"><title>Node6</title>
<g id="a_node6"><a xlink:href="$classAP__Camera.html#a8c38ae3e667768f0564aed16722453f3" xlink:title="AP_Camera::control_cmd">
<polygon fill="white" stroke="black" points="424.5,-38.5 424.5,-57.5 553.5,-57.5 553.5,-38.5 424.5,-38.5"/>
<text text-anchor="middle" x="489" y="-45.5" font-family="Helvetica,sans-Serif" font-size="10.00">AP_Camera::control_cmd</text>
</a>
</g>
</g>
<!-- Node5&#45;&gt;Node6 -->
<g id="edge5" class="edge"><title>Node5&#45;&gt;Node6</title>
<path fill="none" stroke="midnightblue" d="M397.828,-48C406.647,-48 415.634,-48 424.351,-48"/>
<polygon fill="midnightblue" stroke="midnightblue" points="397.578,-44.5001 387.578,-48 397.578,-51.5001 397.578,-44.5001"/>
</g>
<!-- Node7 -->
<g id="node7" class="node"><title>Node7</title>
<g id="a_node7"><a xlink:href="$classAP__Camera.html#a27664cf70d78d5af17d66a3d715048db" xlink:title="decode MavLink that controls camera ">
<polygon fill="white" stroke="black" points="424.5,-0.5 424.5,-19.5 553.5,-19.5 553.5,-0.5 424.5,-0.5"/>
<text text-anchor="middle" x="489" y="-7.5" font-family="Helvetica,sans-Serif" font-size="10.00">AP_Camera::control_msg</text>
</a>
</g>
</g>
<!-- Node5&#45;&gt;Node7 -->
<g id="edge6" class="edge"><title>Node5&#45;&gt;Node7</title>
<path fill="none" stroke="midnightblue" d="M378.392,-36.032C400.813,-30.7069 426.847,-24.5238 447.916,-19.5201"/>
<polygon fill="midnightblue" stroke="midnightblue" points="377.295,-32.6949 368.375,-38.411 378.913,-39.5055 377.295,-32.6949"/>
</g>
<!-- Node8&#45;&gt;Node2 -->
<g id="edge8" class="edge"><title>Node8&#45;&gt;Node2</title>
<path fill="none" stroke="midnightblue" d="M212.929,-101.748C218.69,-103.75 224.52,-105.866 230,-108 251.782,-116.484 275.782,-127.234 294.336,-135.863"/>
<polygon fill="midnightblue" stroke="midnightblue" points="213.968,-98.4046 203.374,-98.5037 211.717,-105.033 213.968,-98.4046"/>
</g>
<!-- Node9 -->
<g id="node9" class="node"><title>Node9</title>
<g id="a_node9"><a xlink:href="$classAP__ServoRelayEvents.html#abae99d08dbec323313058baebc468f0e" xlink:title="AP_ServoRelayEvents\l::update_events">
<polygon fill="white" stroke="black" points="268.5,-77 268.5,-107 385.5,-107 385.5,-77 268.5,-77"/>
<text text-anchor="start" x="276.5" y="-95" font-family="Helvetica,sans-Serif" font-size="10.00">AP_ServoRelayEvents</text>
<text text-anchor="middle" x="327" y="-84" font-family="Helvetica,sans-Serif" font-size="10.00">::update_events</text>
</a>
</g>
</g>
<!-- Node8&#45;&gt;Node9 -->
<g id="edge9" class="edge"><title>Node8&#45;&gt;Node9</title>
<path fill="none" stroke="midnightblue" d="M229.004,-90.0981C241.858,-90.3502 255.545,-90.6185 268.462,-90.8718"/>
<polygon fill="midnightblue" stroke="midnightblue" points="228.972,-86.5969 218.905,-89.9001 228.834,-93.5956 228.972,-86.5969"/>
</g>
<!-- Node10 -->
<g id="node10" class="node"><title>Node10</title>
<g id="a_node10"><a xlink:href="$classAP__ServoRelayEvents.html#af3cde3623c5f0fa9368aa46eb85f916e" xlink:title="AP_ServoRelayEvents\l::do_repeat_servo">
<polygon fill="white" stroke="black" points="430.5,-126 430.5,-156 547.5,-156 547.5,-126 430.5,-126"/>
<text text-anchor="start" x="438.5" y="-144" font-family="Helvetica,sans-Serif" font-size="10.00">AP_ServoRelayEvents</text>
<text text-anchor="middle" x="489" y="-133" font-family="Helvetica,sans-Serif" font-size="10.00">::do_repeat_servo</text>
</a>
</g>
</g>
<!-- Node9&#45;&gt;Node10 -->
<g id="edge10" class="edge"><title>Node9&#45;&gt;Node10</title>
<path fill="none" stroke="midnightblue" d="M387.144,-110.113C404.154,-115.322 422.516,-120.946 438.852,-125.948"/>
<polygon fill="midnightblue" stroke="midnightblue" points="387.897,-106.683 377.311,-107.101 385.848,-113.376 387.897,-106.683"/>
</g>
<!-- Node11 -->
<g id="node11" class="node"><title>Node11</title>
<g id="a_node11"><a xlink:href="$classAP__ServoRelayEvents.html#a7bc553c3358ab805cc1ff315ca60ff97" xlink:title="AP_ServoRelayEvents\l::do_repeat_relay">
<polygon fill="white" stroke="black" points="430.5,-77 430.5,-107 547.5,-107 547.5,-77 430.5,-77"/>
<text text-anchor="start" x="438.5" y="-95" font-family="Helvetica,sans-Serif" font-size="10.00">AP_ServoRelayEvents</text>
<text text-anchor="middle" x="489" y="-84" font-family="Helvetica,sans-Serif" font-size="10.00">::do_repeat_relay</text>
</a>
</g>
</g>
<!-- Node9&#45;&gt;Node11 -->
<g id="edge11" class="edge"><title>Node9&#45;&gt;Node11</title>
<path fill="none" stroke="midnightblue" d="M396.107,-92C407.5,-92 419.222,-92 430.321,-92"/>
<polygon fill="midnightblue" stroke="midnightblue" points="395.764,-88.5001 385.764,-92 395.764,-95.5001 395.764,-88.5001"/>
</g>
</g>
</svg>
