<?xml version="1.0" encoding="UTF-8" standalone="no"?>
<!DOCTYPE svg PUBLIC "-//W3C//DTD SVG 1.1//EN"
 "http://www.w3.org/Graphics/SVG/1.1/DTD/svg11.dtd">
<!-- Generated by graphviz version 2.36.0 (20140111.2315)
 -->
<!-- Title: AP_HAL_FLYMAPLE_NS::FLYMAPLEAnalogIn::board_voltage Pages: 1 -->
<svg width="484pt" height="48pt"
 viewBox="0.00 0.00 484.00 48.00" xmlns="http://www.w3.org/2000/svg" xmlns:xlink="http://www.w3.org/1999/xlink">
<g id="graph0" class="graph" transform="scale(1 1) rotate(0) translate(4 44)">
<title>AP_HAL_FLYMAPLE_NS::FLYMAPLEAnalogIn::board_voltage</title>
<polygon fill="white" stroke="none" points="-4,4 -4,-44 480,-44 480,4 -4,4"/>
<!-- Node1 -->
<g id="node1" class="node"><title>Node1</title>
<polygon fill="#bfbfbf" stroke="black" points="0.5,0.5 0.5,-40.5 131.5,-40.5 131.5,0.5 0.5,0.5"/>
<text text-anchor="start" x="8.5" y="-28.5" font-family="Helvetica,sans-Serif" font-size="10.00">AP_HAL_FLYMAPLE_NS</text>
<text text-anchor="start" x="8.5" y="-17.5" font-family="Helvetica,sans-Serif" font-size="10.00">::FLYMAPLEAnalogIn::</text>
<text text-anchor="middle" x="66" y="-6.5" font-family="Helvetica,sans-Serif" font-size="10.00">board_voltage</text>
</g>
<!-- Node2 -->
<g id="node2" class="node"><title>Node2</title>
<g id="a_node2"><a xlink:href="$classAP__HAL__FLYMAPLE__NS_1_1FLYMAPLEAnalogSource.html#aee448690c1b7f5d5ff8bc9a3b2f6c365" xlink:title="AP_HAL_FLYMAPLE_NS\l::FLYMAPLEAnalogSource\l::voltage_latest">
<polygon fill="white" stroke="black" points="168.5,0.5 168.5,-40.5 303.5,-40.5 303.5,0.5 168.5,0.5"/>
<text text-anchor="start" x="176.5" y="-28.5" font-family="Helvetica,sans-Serif" font-size="10.00">AP_HAL_FLYMAPLE_NS</text>
<text text-anchor="start" x="176.5" y="-17.5" font-family="Helvetica,sans-Serif" font-size="10.00">::FLYMAPLEAnalogSource</text>
<text text-anchor="middle" x="236" y="-6.5" font-family="Helvetica,sans-Serif" font-size="10.00">::voltage_latest</text>
</a>
</g>
</g>
<!-- Node1&#45;&gt;Node2 -->
<g id="edge1" class="edge"><title>Node1&#45;&gt;Node2</title>
<path fill="none" stroke="midnightblue" d="M131.953,-20C140.514,-20 149.354,-20 158.091,-20"/>
<polygon fill="midnightblue" stroke="midnightblue" points="158.277,-23.5001 168.277,-20 158.277,-16.5001 158.277,-23.5001"/>
</g>
<!-- Node3 -->
<g id="node3" class="node"><title>Node3</title>
<g id="a_node3"><a xlink:href="$classAP__HAL__FLYMAPLE__NS_1_1FLYMAPLEAnalogSource.html#af3076de1483893329f24e5b7cacf65bf" xlink:title="AP_HAL_FLYMAPLE_NS\l::FLYMAPLEAnalogSource\l::read_latest">
<polygon fill="white" stroke="black" points="340.5,0.5 340.5,-40.5 475.5,-40.5 475.5,0.5 340.5,0.5"/>
<text text-anchor="start" x="348.5" y="-28.5" font-family="Helvetica,sans-Serif" font-size="10.00">AP_HAL_FLYMAPLE_NS</text>
<text text-anchor="start" x="348.5" y="-17.5" font-family="Helvetica,sans-Serif" font-size="10.00">::FLYMAPLEAnalogSource</text>
<text text-anchor="middle" x="408" y="-6.5" font-family="Helvetica,sans-Serif" font-size="10.00">::read_latest</text>
</a>
</g>
</g>
<!-- Node2&#45;&gt;Node3 -->
<g id="edge2" class="edge"><title>Node2&#45;&gt;Node3</title>
<path fill="none" stroke="midnightblue" d="M303.701,-20C312.487,-20 321.547,-20 330.48,-20"/>
<polygon fill="midnightblue" stroke="midnightblue" points="330.492,-23.5001 340.492,-20 330.492,-16.5001 330.492,-23.5001"/>
</g>
</g>
</svg>
