<?xml version="1.0" encoding="UTF-8" standalone="no"?>
<!DOCTYPE svg PUBLIC "-//W3C//DTD SVG 1.1//EN"
 "http://www.w3.org/Graphics/SVG/1.1/DTD/svg11.dtd">
<!-- Generated by graphviz version 2.36.0 (20140111.2315)
 -->
<!-- Title: AP_GPS_NMEA::_from_hex Pages: 1 -->
<svg width="632pt" height="38pt"
 viewBox="0.00 0.00 632.00 38.00" xmlns="http://www.w3.org/2000/svg" xmlns:xlink="http://www.w3.org/1999/xlink">
<g id="graph0" class="graph" transform="scale(1 1) rotate(0) translate(4 34)">
<title>AP_GPS_NMEA::_from_hex</title>
<polygon fill="white" stroke="none" points="-4,4 -4,-34 628,-34 628,4 -4,4"/>
<!-- Node1 -->
<g id="node1" class="node"><title>Node1</title>
<polygon fill="#bfbfbf" stroke="black" points="0.5,-5.5 0.5,-24.5 143.5,-24.5 143.5,-5.5 0.5,-5.5"/>
<text text-anchor="middle" x="72" y="-12.5" font-family="Helvetica,sans-Serif" font-size="10.00">AP_GPS_NMEA::_from_hex</text>
</g>
<!-- Node2 -->
<g id="node2" class="node"><title>Node2</title>
<g id="a_node2"><a xlink:href="$classAP__GPS__NMEA.html#ab82936a41e41786f03aea079978de6bc" xlink:title="AP_GPS_NMEA::_term\l_complete">
<polygon fill="white" stroke="black" points="180,-0 180,-30 302,-30 302,-0 180,-0"/>
<text text-anchor="start" x="188" y="-18" font-family="Helvetica,sans-Serif" font-size="10.00">AP_GPS_NMEA::_term</text>
<text text-anchor="middle" x="241" y="-7" font-family="Helvetica,sans-Serif" font-size="10.00">_complete</text>
</a>
</g>
</g>
<!-- Node1&#45;&gt;Node2 -->
<g id="edge1" class="edge"><title>Node1&#45;&gt;Node2</title>
<path fill="none" stroke="midnightblue" d="M154.011,-15C162.724,-15 171.472,-15 179.877,-15"/>
<polygon fill="midnightblue" stroke="midnightblue" points="153.823,-11.5001 143.823,-15 153.823,-18.5001 153.823,-11.5001"/>
</g>
<!-- Node3 -->
<g id="node3" class="node"><title>Node3</title>
<g id="a_node3"><a xlink:href="$classAP__GPS__NMEA.html#a955545b788a23ec083d91b961391429b" xlink:title="AP_GPS_NMEA::_decode">
<polygon fill="white" stroke="black" points="338,-5.5 338,-24.5 472,-24.5 472,-5.5 338,-5.5"/>
<text text-anchor="middle" x="405" y="-12.5" font-family="Helvetica,sans-Serif" font-size="10.00">AP_GPS_NMEA::_decode</text>
</a>
</g>
</g>
<!-- Node2&#45;&gt;Node3 -->
<g id="edge2" class="edge"><title>Node2&#45;&gt;Node3</title>
<path fill="none" stroke="midnightblue" d="M312.513,-15C320.951,-15 329.543,-15 337.915,-15"/>
<polygon fill="midnightblue" stroke="midnightblue" points="312.323,-11.5001 302.323,-15 312.323,-18.5001 312.323,-11.5001"/>
</g>
<!-- Node4 -->
<g id="node4" class="node"><title>Node4</title>
<g id="a_node4"><a xlink:href="$classAP__GPS__NMEA.html#a57afd3ecfcdc92db462c09e55399fa91" xlink:title="AP_GPS_NMEA::read">
<polygon fill="white" stroke="black" points="508,-5.5 508,-24.5 624,-24.5 624,-5.5 508,-5.5"/>
<text text-anchor="middle" x="566" y="-12.5" font-family="Helvetica,sans-Serif" font-size="10.00">AP_GPS_NMEA::read</text>
</a>
</g>
</g>
<!-- Node3&#45;&gt;Node4 -->
<g id="edge3" class="edge"><title>Node3&#45;&gt;Node4</title>
<path fill="none" stroke="midnightblue" d="M482.129,-15C490.757,-15 499.438,-15 507.765,-15"/>
<polygon fill="midnightblue" stroke="midnightblue" points="482.049,-11.5001 472.049,-15 482.049,-18.5001 482.049,-11.5001"/>
</g>
</g>
</svg>
