<?xml version="1.0" encoding="UTF-8" standalone="no"?>
<!DOCTYPE svg PUBLIC "-//W3C//DTD SVG 1.1//EN"
 "http://www.w3.org/Graphics/SVG/1.1/DTD/svg11.dtd">
<!-- Generated by graphviz version 2.36.0 (20140111.2315)
 -->
<!-- Title: AP_GPS::send_blob_update Pages: 1 -->
<svg width="688pt" height="47pt"
 viewBox="0.00 0.00 688.00 47.00" xmlns="http://www.w3.org/2000/svg" xmlns:xlink="http://www.w3.org/1999/xlink">
<g id="graph0" class="graph" transform="scale(1 1) rotate(0) translate(4 43)">
<title>AP_GPS::send_blob_update</title>
<polygon fill="white" stroke="none" points="-4,4 -4,-43 684,-43 684,4 -4,4"/>
<!-- Node1 -->
<g id="node1" class="node"><title>Node1</title>
<polygon fill="#bfbfbf" stroke="black" points="0.5,-0.5 0.5,-19.5 141.5,-19.5 141.5,-0.5 0.5,-0.5"/>
<text text-anchor="middle" x="71" y="-7.5" font-family="Helvetica,sans-Serif" font-size="10.00">AP_GPS::send_blob_update</text>
</g>
<!-- Node2 -->
<g id="node2" class="node"><title>Node2</title>
<g id="a_node2"><a xlink:href="$classAP__GPS.html#a4bdd5c70ed358b4147a58c7d09f040dd" xlink:title="AP_GPS::detect_instance">
<polygon fill="white" stroke="black" points="178.5,-19.5 178.5,-38.5 309.5,-38.5 309.5,-19.5 178.5,-19.5"/>
<text text-anchor="middle" x="244" y="-26.5" font-family="Helvetica,sans-Serif" font-size="10.00">AP_GPS::detect_instance</text>
</a>
</g>
</g>
<!-- Node1&#45;&gt;Node2 -->
<g id="edge1" class="edge"><title>Node1&#45;&gt;Node2</title>
<path fill="none" stroke="midnightblue" d="M151.644,-18.8493C160.634,-19.8482 169.711,-20.8567 178.474,-21.8305"/>
<polygon fill="midnightblue" stroke="midnightblue" points="151.878,-15.3538 141.552,-17.728 151.105,-22.311 151.878,-15.3538"/>
</g>
<!-- Node3 -->
<g id="node3" class="node"><title>Node3</title>
<g id="a_node3"><a xlink:href="$classAP__GPS.html#a83302e8b52e5d01ae67375b3542eb460" xlink:title="AP_GPS::update_instance">
<polygon fill="white" stroke="black" points="346,-0.5 346,-19.5 480,-19.5 480,-0.5 346,-0.5"/>
<text text-anchor="middle" x="413" y="-7.5" font-family="Helvetica,sans-Serif" font-size="10.00">AP_GPS::update_instance</text>
</a>
</g>
</g>
<!-- Node1&#45;&gt;Node3 -->
<g id="edge5" class="edge"><title>Node1&#45;&gt;Node3</title>
<path fill="none" stroke="midnightblue" d="M151.665,-10C210.755,-10 290.366,-10 345.934,-10"/>
<polygon fill="midnightblue" stroke="midnightblue" points="151.625,-6.5001 141.625,-10 151.624,-13.5001 151.625,-6.5001"/>
</g>
<!-- Node2&#45;&gt;Node3 -->
<g id="edge2" class="edge"><title>Node2&#45;&gt;Node3</title>
<path fill="none" stroke="midnightblue" d="M319.74,-20.4966C328.477,-19.5026 337.343,-18.4939 345.95,-17.5146"/>
<polygon fill="midnightblue" stroke="midnightblue" points="319.107,-17.046 309.567,-21.6541 319.898,-24.0012 319.107,-17.046"/>
</g>
<!-- Node4 -->
<g id="node4" class="node"><title>Node4</title>
<g id="a_node4"><a xlink:href="$classAP__GPS.html#afe04427a47ab5e630cb979815abd911e" xlink:title="AP_GPS::update">
<polygon fill="white" stroke="black" points="516,-0.5 516,-19.5 608,-19.5 608,-0.5 516,-0.5"/>
<text text-anchor="middle" x="562" y="-7.5" font-family="Helvetica,sans-Serif" font-size="10.00">AP_GPS::update</text>
</a>
</g>
</g>
<!-- Node3&#45;&gt;Node4 -->
<g id="edge3" class="edge"><title>Node3&#45;&gt;Node4</title>
<path fill="none" stroke="midnightblue" d="M490.382,-10C499.069,-10 507.702,-10 515.794,-10"/>
<polygon fill="midnightblue" stroke="midnightblue" points="490.19,-6.5001 480.189,-10 490.189,-13.5001 490.19,-6.5001"/>
</g>
<!-- Node5 -->
<g id="node5" class="node"><title>Node5</title>
<g id="a_node5"><a xlink:href="$GPS__AUTO__test_8pde.html#afe461d27b9c48d5921c00d521181f12f" xlink:title="loop">
<polygon fill="white" stroke="black" points="644.5,-0.5 644.5,-19.5 679.5,-19.5 679.5,-0.5 644.5,-0.5"/>
<text text-anchor="middle" x="662" y="-7.5" font-family="Helvetica,sans-Serif" font-size="10.00">loop</text>
</a>
</g>
</g>
<!-- Node4&#45;&gt;Node5 -->
<g id="edge4" class="edge"><title>Node4&#45;&gt;Node5</title>
<path fill="none" stroke="midnightblue" d="M618.508,-10C627.886,-10 636.941,-10 644.265,-10"/>
<polygon fill="midnightblue" stroke="midnightblue" points="618.271,-6.5001 608.271,-10 618.271,-13.5001 618.271,-6.5001"/>
</g>
</g>
</svg>
