<?xml version="1.0" encoding="UTF-8" standalone="no"?>
<!DOCTYPE svg PUBLIC "-//W3C//DTD SVG 1.1//EN"
 "http://www.w3.org/Graphics/SVG/1.1/DTD/svg11.dtd">
<!-- Generated by graphviz version 2.36.0 (20140111.2315)
 -->
<!-- Title: Linux::LinuxStorage::write_block Pages: 1 -->
<svg width="538pt" height="109pt"
 viewBox="0.00 0.00 538.00 109.00" xmlns="http://www.w3.org/2000/svg" xmlns:xlink="http://www.w3.org/1999/xlink">
<g id="graph0" class="graph" transform="scale(1 1) rotate(0) translate(4 105)">
<title>Linux::LinuxStorage::write_block</title>
<polygon fill="white" stroke="none" points="-4,4 -4,-105 534,-105 534,4 -4,4"/>
<!-- Node1 -->
<g id="node1" class="node"><title>Node1</title>
<polygon fill="#bfbfbf" stroke="black" points="0.5,-24 0.5,-54 103.5,-54 103.5,-24 0.5,-24"/>
<text text-anchor="start" x="8.5" y="-42" font-family="Helvetica,sans-Serif" font-size="10.00">Linux::LinuxStorage</text>
<text text-anchor="middle" x="52" y="-31" font-family="Helvetica,sans-Serif" font-size="10.00">::write_block</text>
</g>
<!-- Node2 -->
<g id="node2" class="node"><title>Node2</title>
<g id="a_node2"><a xlink:href="$classLinux_1_1LinuxStorage.html#a39c46a72fd5c4229af9c3ed5763628ab" xlink:title="Linux::LinuxStorage\l::_storage_open">
<polygon fill="white" stroke="black" points="140.5,-49 140.5,-79 243.5,-79 243.5,-49 140.5,-49"/>
<text text-anchor="start" x="148.5" y="-67" font-family="Helvetica,sans-Serif" font-size="10.00">Linux::LinuxStorage</text>
<text text-anchor="middle" x="192" y="-56" font-family="Helvetica,sans-Serif" font-size="10.00">::_storage_open</text>
</a>
</g>
</g>
<!-- Node1&#45;&gt;Node2 -->
<g id="edge1" class="edge"><title>Node1&#45;&gt;Node2</title>
<path fill="none" stroke="midnightblue" d="M103.603,-48.1671C112.321,-49.7466 121.463,-51.4027 130.413,-53.0241"/>
<polygon fill="midnightblue" stroke="midnightblue" points="129.94,-56.4953 140.404,-54.834 131.188,-49.6074 129.94,-56.4953"/>
</g>
<!-- Node5 -->
<g id="node5" class="node"><title>Node5</title>
<g id="a_node5"><a xlink:href="$classLinux_1_1LinuxStorage.html#aa1d444f57b04b450b10775a9c02e6c66" xlink:title="Linux::LinuxStorage\l::_mark_dirty">
<polygon fill="white" stroke="black" points="140.5,-0 140.5,-30 243.5,-30 243.5,-0 140.5,-0"/>
<text text-anchor="start" x="148.5" y="-18" font-family="Helvetica,sans-Serif" font-size="10.00">Linux::LinuxStorage</text>
<text text-anchor="middle" x="192" y="-7" font-family="Helvetica,sans-Serif" font-size="10.00">::_mark_dirty</text>
</a>
</g>
</g>
<!-- Node1&#45;&gt;Node5 -->
<g id="edge5" class="edge"><title>Node1&#45;&gt;Node5</title>
<path fill="none" stroke="midnightblue" d="M103.603,-30.1996C112.321,-28.6832 121.463,-27.0934 130.413,-25.5369"/>
<polygon fill="midnightblue" stroke="midnightblue" points="131.151,-28.9611 140.404,-23.7994 129.952,-22.0646 131.151,-28.9611"/>
</g>
<!-- Node3 -->
<g id="node3" class="node"><title>Node3</title>
<g id="a_node3"><a xlink:href="$classLinux_1_1LinuxStorage.html#af4f8a892d54a216d29db836aeab2b07e" xlink:title="Linux::LinuxStorage\l::_storage_create">
<polygon fill="white" stroke="black" points="280.5,-71 280.5,-101 383.5,-101 383.5,-71 280.5,-71"/>
<text text-anchor="start" x="288.5" y="-89" font-family="Helvetica,sans-Serif" font-size="10.00">Linux::LinuxStorage</text>
<text text-anchor="middle" x="332" y="-78" font-family="Helvetica,sans-Serif" font-size="10.00">::_storage_create</text>
</a>
</g>
</g>
<!-- Node2&#45;&gt;Node3 -->
<g id="edge2" class="edge"><title>Node2&#45;&gt;Node3</title>
<path fill="none" stroke="midnightblue" d="M243.603,-72.0671C252.321,-73.457 261.463,-74.9144 270.413,-76.3412"/>
<polygon fill="midnightblue" stroke="midnightblue" points="269.977,-79.8159 280.404,-77.9339 271.079,-72.9031 269.977,-79.8159"/>
</g>
<!-- Node4 -->
<g id="node4" class="node"><title>Node4</title>
<g id="a_node4"><a xlink:href="$classAP__HAL_1_1Scheduler.html#a65f0d4e404d3e6fda4d8b0b101c9780f" xlink:title="AP_HAL::Scheduler::\lpanic">
<polygon fill="white" stroke="black" points="420,-49 420,-79 530,-79 530,-49 420,-49"/>
<text text-anchor="start" x="428" y="-67" font-family="Helvetica,sans-Serif" font-size="10.00">AP_HAL::Scheduler::</text>
<text text-anchor="middle" x="475" y="-56" font-family="Helvetica,sans-Serif" font-size="10.00">panic</text>
</a>
</g>
</g>
<!-- Node2&#45;&gt;Node4 -->
<g id="edge4" class="edge"><title>Node2&#45;&gt;Node4</title>
<path fill="none" stroke="midnightblue" d="M243.601,-62.6403C255.537,-62.374 268.216,-62.1354 280,-62 326.219,-61.4688 337.781,-61.4865 384,-62 392.312,-62.0923 401.055,-62.2326 409.691,-62.397"/>
<polygon fill="midnightblue" stroke="midnightblue" points="409.68,-65.8974 419.748,-62.5995 409.821,-58.8988 409.68,-65.8974"/>
</g>
<!-- Node3&#45;&gt;Node4 -->
<g id="edge3" class="edge"><title>Node3&#45;&gt;Node4</title>
<path fill="none" stroke="midnightblue" d="M383.506,-78.1196C391.912,-76.8081 400.731,-75.432 409.429,-74.0749"/>
<polygon fill="midnightblue" stroke="midnightblue" points="410.211,-77.4953 419.552,-72.4954 409.132,-70.579 410.211,-77.4953"/>
</g>
</g>
</svg>
