<?xml version="1.0" encoding="UTF-8" standalone="no"?>
<!DOCTYPE svg PUBLIC "-//W3C//DTD SVG 1.1//EN"
 "http://www.w3.org/Graphics/SVG/1.1/DTD/svg11.dtd">
<!-- Generated by graphviz version 2.36.0 (20140111.2315)
 -->
<!-- Title: AP_HAL_FLYMAPLE_NS::FLYMAPLEDigitalSource::toggle Pages: 1 -->
<svg width="286pt" height="66pt"
 viewBox="0.00 0.00 286.00 66.00" xmlns="http://www.w3.org/2000/svg" xmlns:xlink="http://www.w3.org/1999/xlink">
<g id="graph0" class="graph" transform="scale(1 1) rotate(0) translate(4 62)">
<title>AP_HAL_FLYMAPLE_NS::FLYMAPLEDigitalSource::toggle</title>
<polygon fill="white" stroke="none" points="-4,4 -4,-62 282,-62 282,4 -4,4"/>
<!-- Node1 -->
<g id="node1" class="node"><title>Node1</title>
<polygon fill="#bfbfbf" stroke="black" points="0.5,-8.5 0.5,-49.5 133.5,-49.5 133.5,-8.5 0.5,-8.5"/>
<text text-anchor="start" x="8.5" y="-37.5" font-family="Helvetica,sans-Serif" font-size="10.00">AP_HAL_FLYMAPLE_NS</text>
<text text-anchor="start" x="8.5" y="-26.5" font-family="Helvetica,sans-Serif" font-size="10.00">::FLYMAPLEDigitalSource</text>
<text text-anchor="middle" x="67" y="-15.5" font-family="Helvetica,sans-Serif" font-size="10.00">::toggle</text>
</g>
<!-- Node2 -->
<g id="node2" class="node"><title>Node2</title>
<g id="a_node2"><a xlink:href="$AP__HAL__FLYMAPLE_2GPIO_8cpp.html#ac4b46c3a0ee91de0fbb7065a14e2ac62" xlink:title="libmaple_digitalWrite">
<polygon fill="white" stroke="black" points="170.5,-38.5 170.5,-57.5 277.5,-57.5 277.5,-38.5 170.5,-38.5"/>
<text text-anchor="middle" x="224" y="-45.5" font-family="Helvetica,sans-Serif" font-size="10.00">libmaple_digitalWrite</text>
</a>
</g>
</g>
<!-- Node1&#45;&gt;Node2 -->
<g id="edge1" class="edge"><title>Node1&#45;&gt;Node2</title>
<path fill="none" stroke="midnightblue" d="M133.734,-37.0577C142.511,-38.1336 151.494,-39.2348 160.219,-40.3043"/>
<polygon fill="midnightblue" stroke="midnightblue" points="159.963,-43.799 170.315,-41.5418 160.815,-36.851 159.963,-43.799"/>
</g>
<!-- Node3 -->
<g id="node3" class="node"><title>Node3</title>
<g id="a_node3"><a xlink:href="$AP__HAL__FLYMAPLE_2GPIO_8cpp.html#adea255e832d3c12b358ffaf228f9cb8c" xlink:title="libmaple_digitalRead">
<polygon fill="white" stroke="black" points="170.5,-0.5 170.5,-19.5 277.5,-19.5 277.5,-0.5 170.5,-0.5"/>
<text text-anchor="middle" x="224" y="-7.5" font-family="Helvetica,sans-Serif" font-size="10.00">libmaple_digitalRead</text>
</a>
</g>
</g>
<!-- Node1&#45;&gt;Node3 -->
<g id="edge2" class="edge"><title>Node1&#45;&gt;Node3</title>
<path fill="none" stroke="midnightblue" d="M133.734,-20.9423C142.511,-19.8664 151.494,-18.7652 160.219,-17.6957"/>
<polygon fill="midnightblue" stroke="midnightblue" points="160.815,-21.149 170.315,-16.4582 159.963,-14.201 160.815,-21.149"/>
</g>
</g>
</svg>
