<?xml version="1.0" encoding="UTF-8" standalone="no"?>
<!DOCTYPE svg PUBLIC "-//W3C//DTD SVG 1.1//EN"
 "http://www.w3.org/Graphics/SVG/1.1/DTD/svg11.dtd">
<!-- Generated by graphviz version 2.36.0 (20140111.2315)
 -->
<!-- Title: AC_PosControl::set_speed_xy Pages: 1 -->
<svg width="404pt" height="77pt"
 viewBox="0.00 0.00 404.00 77.00" xmlns="http://www.w3.org/2000/svg" xmlns:xlink="http://www.w3.org/1999/xlink">
<g id="graph0" class="graph" transform="scale(1 1) rotate(0) translate(4 73)">
<title>AC_PosControl::set_speed_xy</title>
<polygon fill="white" stroke="none" points="-4,4 -4,-73 400,-73 400,4 -4,4"/>
<!-- Node1 -->
<g id="node1" class="node"><title>Node1</title>
<polygon fill="#bfbfbf" stroke="black" points="0,-17 0,-47 104,-47 104,-17 0,-17"/>
<text text-anchor="start" x="8" y="-35" font-family="Helvetica,sans-Serif" font-size="10.00">AC_PosControl::set</text>
<text text-anchor="middle" x="52" y="-24" font-family="Helvetica,sans-Serif" font-size="10.00">_speed_xy</text>
</g>
<!-- Node2 -->
<g id="node2" class="node"><title>Node2</title>
<g id="a_node2"><a xlink:href="$classAC__PosControl.html#ac4f923c39399266568b9ae9419a0596f" xlink:title="AC_PosControl::calc\l_leash_length_xy">
<polygon fill="white" stroke="black" points="140.5,-17 140.5,-47 249.5,-47 249.5,-17 140.5,-17"/>
<text text-anchor="start" x="148.5" y="-35" font-family="Helvetica,sans-Serif" font-size="10.00">AC_PosControl::calc</text>
<text text-anchor="middle" x="195" y="-24" font-family="Helvetica,sans-Serif" font-size="10.00">_leash_length_xy</text>
</a>
</g>
</g>
<!-- Node1&#45;&gt;Node2 -->
<g id="edge1" class="edge"><title>Node1&#45;&gt;Node2</title>
<path fill="none" stroke="midnightblue" d="M104.303,-32C112.679,-32 121.447,-32 130.081,-32"/>
<polygon fill="midnightblue" stroke="midnightblue" points="130.125,-35.5001 140.125,-32 130.125,-28.5001 130.125,-35.5001"/>
</g>
<!-- Node3 -->
<g id="node3" class="node"><title>Node3</title>
<g id="a_node3"><a xlink:href="$classAC__PosControl.html#a92e0998be57c8a917a7a7514c542e314" xlink:title="calc_leash_length &#45; calculates the horizontal leash length given a maximum speed, acceleration and po...">
<polygon fill="white" stroke="black" points="286.5,-39 286.5,-69 395.5,-69 395.5,-39 286.5,-39"/>
<text text-anchor="start" x="294.5" y="-57" font-family="Helvetica,sans-Serif" font-size="10.00">AC_PosControl::calc</text>
<text text-anchor="middle" x="341" y="-46" font-family="Helvetica,sans-Serif" font-size="10.00">_leash_length</text>
</a>
</g>
</g>
<!-- Node2&#45;&gt;Node3 -->
<g id="edge2" class="edge"><title>Node2&#45;&gt;Node3</title>
<path fill="none" stroke="midnightblue" d="M249.62,-40.192C258.335,-41.5234 267.435,-42.9137 276.361,-44.2773"/>
<polygon fill="midnightblue" stroke="midnightblue" points="275.921,-47.7507 286.335,-45.8012 276.978,-40.831 275.921,-47.7507"/>
</g>
<!-- Node4 -->
<g id="node4" class="node"><title>Node4</title>
<g id="a_node4"><a xlink:href="$classAC__P.html#a9378b33d8cfb4bf2417880c038f1b7a2" xlink:title="AC_P::kP">
<polygon fill="white" stroke="black" points="310.5,-0.5 310.5,-19.5 371.5,-19.5 371.5,-0.5 310.5,-0.5"/>
<text text-anchor="middle" x="341" y="-7.5" font-family="Helvetica,sans-Serif" font-size="10.00">AC_P::kP</text>
</a>
</g>
</g>
<!-- Node2&#45;&gt;Node4 -->
<g id="edge3" class="edge"><title>Node2&#45;&gt;Node4</title>
<path fill="none" stroke="midnightblue" d="M249.62,-23.808C266.253,-21.267 284.287,-18.5116 299.84,-16.1355"/>
<polygon fill="midnightblue" stroke="midnightblue" points="300.806,-19.5286 310.163,-14.5584 299.749,-12.6089 300.806,-19.5286"/>
</g>
</g>
</svg>
