<?xml version="1.0" encoding="UTF-8" standalone="no"?>
<!DOCTYPE svg PUBLIC "-//W3C//DTD SVG 1.1//EN"
 "http://www.w3.org/Graphics/SVG/1.1/DTD/svg11.dtd">
<!-- Generated by graphviz version 2.36.0 (20140111.2315)
 -->
<!-- Title: Linux::LinuxSPIDeviceDriver::init Pages: 1 -->
<svg width="314pt" height="175pt"
 viewBox="0.00 0.00 314.00 175.00" xmlns="http://www.w3.org/2000/svg" xmlns:xlink="http://www.w3.org/1999/xlink">
<g id="graph0" class="graph" transform="scale(1 1) rotate(0) translate(4 171)">
<title>Linux::LinuxSPIDeviceDriver::init</title>
<polygon fill="white" stroke="none" points="-4,4 -4,-171 310,-171 310,4 -4,4"/>
<!-- Node1 -->
<g id="node1" class="node"><title>Node1</title>
<polygon fill="#bfbfbf" stroke="black" points="0.5,-73 0.5,-103 143.5,-103 143.5,-73 0.5,-73"/>
<text text-anchor="start" x="8.5" y="-91" font-family="Helvetica,sans-Serif" font-size="10.00">Linux::LinuxSPIDeviceDriver</text>
<text text-anchor="middle" x="72" y="-80" font-family="Helvetica,sans-Serif" font-size="10.00">::init</text>
</g>
<!-- Node2 -->
<g id="node2" class="node"><title>Node2</title>
<g id="a_node2"><a xlink:href="$classAP__HAL_1_1GPIO.html#a4e8955091af056240f447b68b76725bb" xlink:title="AP_HAL::GPIO::channel">
<polygon fill="white" stroke="black" points="180.5,-147.5 180.5,-166.5 305.5,-166.5 305.5,-147.5 180.5,-147.5"/>
<text text-anchor="middle" x="243" y="-154.5" font-family="Helvetica,sans-Serif" font-size="10.00">AP_HAL::GPIO::channel</text>
</a>
</g>
</g>
<!-- Node1&#45;&gt;Node2 -->
<g id="edge1" class="edge"><title>Node1&#45;&gt;Node2</title>
<path fill="none" stroke="midnightblue" d="M103.493,-103.124C124.68,-113.344 153.72,-126.785 180,-137 186.445,-139.505 193.348,-141.955 200.123,-144.232"/>
<polygon fill="midnightblue" stroke="midnightblue" points="199.296,-147.644 209.888,-147.432 201.475,-140.992 199.296,-147.644"/>
</g>
<!-- Node3 -->
<g id="node3" class="node"><title>Node3</title>
<g id="a_node3"><a xlink:href="$classAP__HAL_1_1Scheduler.html#a65f0d4e404d3e6fda4d8b0b101c9780f" xlink:title="AP_HAL::Scheduler::\lpanic">
<polygon fill="white" stroke="black" points="188,-98 188,-128 298,-128 298,-98 188,-98"/>
<text text-anchor="start" x="196" y="-116" font-family="Helvetica,sans-Serif" font-size="10.00">AP_HAL::Scheduler::</text>
<text text-anchor="middle" x="243" y="-105" font-family="Helvetica,sans-Serif" font-size="10.00">panic</text>
</a>
</g>
</g>
<!-- Node1&#45;&gt;Node3 -->
<g id="edge2" class="edge"><title>Node1&#45;&gt;Node3</title>
<path fill="none" stroke="midnightblue" d="M143.692,-98.4574C154.98,-100.127 166.606,-101.847 177.734,-103.493"/>
<polygon fill="midnightblue" stroke="midnightblue" points="177.385,-106.98 187.79,-104.981 178.41,-100.055 177.385,-106.98"/>
</g>
<!-- Node4 -->
<g id="node4" class="node"><title>Node4</title>
<g id="a_node4"><a xlink:href="$classAP__HAL_1_1DigitalSource.html#af16b96dab1499f30659a1fd892df6c2d" xlink:title="AP_HAL::DigitalSource\l::mode">
<polygon fill="white" stroke="black" points="183.5,-49 183.5,-79 302.5,-79 302.5,-49 183.5,-49"/>
<text text-anchor="start" x="191.5" y="-67" font-family="Helvetica,sans-Serif" font-size="10.00">AP_HAL::DigitalSource</text>
<text text-anchor="middle" x="243" y="-56" font-family="Helvetica,sans-Serif" font-size="10.00">::mode</text>
</a>
</g>
</g>
<!-- Node1&#45;&gt;Node4 -->
<g id="edge3" class="edge"><title>Node1&#45;&gt;Node4</title>
<path fill="none" stroke="midnightblue" d="M143.692,-77.9609C153.493,-76.569 163.549,-75.141 173.313,-73.7544"/>
<polygon fill="midnightblue" stroke="midnightblue" points="173.95,-77.1991 183.359,-72.3277 172.966,-70.2686 173.95,-77.1991"/>
</g>
<!-- Node5 -->
<g id="node5" class="node"><title>Node5</title>
<g id="a_node5"><a xlink:href="$classAP__HAL_1_1DigitalSource.html#a43392c05a7dae030a78dd1c4800bf5fe" xlink:title="AP_HAL::DigitalSource\l::write">
<polygon fill="white" stroke="black" points="183.5,-0 183.5,-30 302.5,-30 302.5,-0 183.5,-0"/>
<text text-anchor="start" x="191.5" y="-18" font-family="Helvetica,sans-Serif" font-size="10.00">AP_HAL::DigitalSource</text>
<text text-anchor="middle" x="243" y="-7" font-family="Helvetica,sans-Serif" font-size="10.00">::write</text>
</a>
</g>
</g>
<!-- Node1&#45;&gt;Node5 -->
<g id="edge4" class="edge"><title>Node1&#45;&gt;Node5</title>
<path fill="none" stroke="midnightblue" d="M105.638,-72.9675C126.758,-63.3371 154.898,-50.6867 180,-40 184.685,-38.0054 189.586,-35.9601 194.49,-33.9402"/>
<polygon fill="midnightblue" stroke="midnightblue" points="195.937,-37.1298 203.87,-30.1069 193.289,-30.6499 195.937,-37.1298"/>
</g>
</g>
</svg>
