<?xml version="1.0" encoding="UTF-8" standalone="no"?>
<!DOCTYPE svg PUBLIC "-//W3C//DTD SVG 1.1//EN"
 "http://www.w3.org/Graphics/SVG/1.1/DTD/svg11.dtd">
<!-- Generated by graphviz version 2.36.0 (20140111.2315)
 -->
<!-- Title: AP_GPS_SIRF::read Pages: 1 -->
<svg width="466pt" height="196pt"
 viewBox="0.00 0.00 466.00 196.00" xmlns="http://www.w3.org/2000/svg" xmlns:xlink="http://www.w3.org/1999/xlink">
<g id="graph0" class="graph" transform="scale(1 1) rotate(0) translate(4 192)">
<title>AP_GPS_SIRF::read</title>
<polygon fill="white" stroke="none" points="-4,4 -4,-192 462,-192 462,4 -4,4"/>
<!-- Node1 -->
<g id="node1" class="node"><title>Node1</title>
<polygon fill="#bfbfbf" stroke="black" points="0,-111.5 0,-130.5 110,-130.5 110,-111.5 0,-111.5"/>
<text text-anchor="middle" x="55" y="-118.5" font-family="Helvetica,sans-Serif" font-size="10.00">AP_GPS_SIRF::read</text>
</g>
<!-- Node2 -->
<g id="node2" class="node"><title>Node2</title>
<g id="a_node2"><a xlink:href="$classAP__HAL_1_1Stream.html#ae687e48f5689af94d66fb88822923e12" xlink:title="AP_HAL::Stream::available">
<polygon fill="white" stroke="black" points="150.5,-168.5 150.5,-187.5 287.5,-187.5 287.5,-168.5 150.5,-168.5"/>
<text text-anchor="middle" x="219" y="-175.5" font-family="Helvetica,sans-Serif" font-size="10.00">AP_HAL::Stream::available</text>
</a>
</g>
</g>
<!-- Node1&#45;&gt;Node2 -->
<g id="edge1" class="edge"><title>Node1&#45;&gt;Node2</title>
<path fill="none" stroke="midnightblue" d="M76.4115,-130.598C94.4469,-138.841 121.601,-150.676 146,-159 153.061,-161.409 160.598,-163.697 168.037,-165.797"/>
<polygon fill="midnightblue" stroke="midnightblue" points="167.142,-169.181 177.711,-168.443 168.989,-162.429 167.142,-169.181"/>
</g>
<!-- Node3 -->
<g id="node3" class="node"><title>Node3</title>
<g id="a_node3"><a xlink:href="$classAP__HAL_1_1Stream.html#ae42ff362cc2a7e527c22f92a3740c2ac" xlink:title="AP_HAL::Stream::read">
<polygon fill="white" stroke="black" points="160.5,-130.5 160.5,-149.5 277.5,-149.5 277.5,-130.5 160.5,-130.5"/>
<text text-anchor="middle" x="219" y="-137.5" font-family="Helvetica,sans-Serif" font-size="10.00">AP_HAL::Stream::read</text>
</a>
</g>
</g>
<!-- Node1&#45;&gt;Node3 -->
<g id="edge2" class="edge"><title>Node1&#45;&gt;Node3</title>
<path fill="none" stroke="midnightblue" d="M110.394,-127.38C123.213,-128.883 137.031,-130.504 150.354,-132.066"/>
<polygon fill="midnightblue" stroke="midnightblue" points="150.081,-135.558 160.421,-133.247 150.897,-128.606 150.081,-135.558"/>
</g>
<!-- Node4 -->
<g id="node4" class="node"><title>Node4</title>
<g id="a_node4"><a xlink:href="$classAP__GPS__SIRF.html#aff6e450be59be2839fda3e495d5e269d" xlink:title="AP_GPS_SIRF::_accumulate">
<polygon fill="white" stroke="black" points="146,-92.5 146,-111.5 292,-111.5 292,-92.5 146,-92.5"/>
<text text-anchor="middle" x="219" y="-99.5" font-family="Helvetica,sans-Serif" font-size="10.00">AP_GPS_SIRF::_accumulate</text>
</a>
</g>
</g>
<!-- Node1&#45;&gt;Node4 -->
<g id="edge3" class="edge"><title>Node1&#45;&gt;Node4</title>
<path fill="none" stroke="midnightblue" d="M110.394,-114.62C118.587,-113.66 127.187,-112.651 135.806,-111.64"/>
<polygon fill="midnightblue" stroke="midnightblue" points="136.385,-115.096 145.909,-110.455 135.569,-108.144 136.385,-115.096"/>
</g>
<!-- Node5 -->
<g id="node5" class="node"><title>Node5</title>
<g id="a_node5"><a xlink:href="$classAP__GPS__SIRF.html#a8f00a5a9874a5be15024cd1895b387fc" xlink:title="AP_GPS_SIRF::_parse_gps">
<polygon fill="white" stroke="black" points="148.5,-54.5 148.5,-73.5 289.5,-73.5 289.5,-54.5 148.5,-54.5"/>
<text text-anchor="middle" x="219" y="-61.5" font-family="Helvetica,sans-Serif" font-size="10.00">AP_GPS_SIRF::_parse_gps</text>
</a>
</g>
</g>
<!-- Node1&#45;&gt;Node5 -->
<g id="edge4" class="edge"><title>Node1&#45;&gt;Node5</title>
<path fill="none" stroke="midnightblue" d="M76.4115,-111.402C94.4469,-103.159 121.601,-91.3237 146,-83 153.061,-80.5911 160.598,-78.3027 168.037,-76.2029"/>
<polygon fill="midnightblue" stroke="midnightblue" points="168.989,-79.5712 177.711,-73.5569 167.142,-72.8191 168.989,-79.5712"/>
</g>
<!-- Node6 -->
<g id="node6" class="node"><title>Node6</title>
<g id="a_node6"><a xlink:href="$classAP__GPS__Backend.html#a8e71e2e307aeb48d4d4aecaa64b00c20" xlink:title="AP_GPS_Backend::swap\l_int32">
<polygon fill="white" stroke="black" points="328.5,-98 328.5,-128 457.5,-128 457.5,-98 328.5,-98"/>
<text text-anchor="start" x="336.5" y="-116" font-family="Helvetica,sans-Serif" font-size="10.00">AP_GPS_Backend::swap</text>
<text text-anchor="middle" x="393" y="-105" font-family="Helvetica,sans-Serif" font-size="10.00">_int32</text>
</a>
</g>
</g>
<!-- Node5&#45;&gt;Node6 -->
<g id="edge5" class="edge"><title>Node5&#45;&gt;Node6</title>
<path fill="none" stroke="midnightblue" d="M257.063,-73.5269C268.306,-76.4851 280.677,-79.8084 292,-83 305.407,-86.7788 319.776,-90.9923 333.321,-95.0389"/>
<polygon fill="midnightblue" stroke="midnightblue" points="332.429,-98.4253 343.013,-97.9474 334.441,-91.7207 332.429,-98.4253"/>
</g>
<!-- Node7 -->
<g id="node7" class="node"><title>Node7</title>
<g id="a_node7"><a xlink:href="$classAP__GPS__Backend.html#a61dba442002a3dc1b50269c23d70a9c8" xlink:title="AP_GPS_Backend::swap\l_int16">
<polygon fill="white" stroke="black" points="328.5,-49 328.5,-79 457.5,-79 457.5,-49 328.5,-49"/>
<text text-anchor="start" x="336.5" y="-67" font-family="Helvetica,sans-Serif" font-size="10.00">AP_GPS_Backend::swap</text>
<text text-anchor="middle" x="393" y="-56" font-family="Helvetica,sans-Serif" font-size="10.00">_int16</text>
</a>
</g>
</g>
<!-- Node5&#45;&gt;Node7 -->
<g id="edge6" class="edge"><title>Node5&#45;&gt;Node7</title>
<path fill="none" stroke="midnightblue" d="M289.959,-64C299.316,-64 308.936,-64 318.354,-64"/>
<polygon fill="midnightblue" stroke="midnightblue" points="318.473,-67.5001 328.473,-64 318.473,-60.5001 318.473,-67.5001"/>
</g>
<!-- Node8 -->
<g id="node8" class="node"><title>Node8</title>
<g id="a_node8"><a xlink:href="$classAP__GPS__Backend.html#a349cb407ea3c09c424ed77bcf72a488b" xlink:title="AP_GPS_Backend::fill\l_3d_velocity">
<polygon fill="white" stroke="black" points="335,-0 335,-30 451,-30 451,-0 335,-0"/>
<text text-anchor="start" x="343" y="-18" font-family="Helvetica,sans-Serif" font-size="10.00">AP_GPS_Backend::fill</text>
<text text-anchor="middle" x="393" y="-7" font-family="Helvetica,sans-Serif" font-size="10.00">_3d_velocity</text>
</a>
</g>
</g>
<!-- Node5&#45;&gt;Node8 -->
<g id="edge7" class="edge"><title>Node5&#45;&gt;Node8</title>
<path fill="none" stroke="midnightblue" d="M253.572,-54.436C275.157,-48.2866 303.869,-40.1072 329.546,-32.7922"/>
<polygon fill="midnightblue" stroke="midnightblue" points="330.559,-36.1429 339.217,-30.037 328.641,-29.4108 330.559,-36.1429"/>
</g>
</g>
</svg>
