<?xml version="1.0" encoding="UTF-8" standalone="no"?>
<!DOCTYPE svg PUBLIC "-//W3C//DTD SVG 1.1//EN"
 "http://www.w3.org/Graphics/SVG/1.1/DTD/svg11.dtd">
<!-- Generated by graphviz version 2.36.0 (20140111.2315)
 -->
<!-- Title: AP_AHRS::sin_roll Pages: 1 -->
<svg width="646pt" height="476pt"
 viewBox="0.00 0.00 646.00 476.00" xmlns="http://www.w3.org/2000/svg" xmlns:xlink="http://www.w3.org/1999/xlink">
<g id="graph0" class="graph" transform="scale(1 1) rotate(0) translate(4 472)">
<title>AP_AHRS::sin_roll</title>
<polygon fill="white" stroke="none" points="-4,4 -4,-472 642,-472 642,4 -4,4"/>
<!-- Node1 -->
<g id="node1" class="node"><title>Node1</title>
<polygon fill="#bfbfbf" stroke="black" points="0.5,-269.5 0.5,-288.5 101.5,-288.5 101.5,-269.5 0.5,-269.5"/>
<text text-anchor="middle" x="51" y="-276.5" font-family="Helvetica,sans-Serif" font-size="10.00">AP_AHRS::sin_roll</text>
</g>
<!-- Node2 -->
<g id="node2" class="node"><title>Node2</title>
<g id="a_node2"><a xlink:href="$classAC__AttitudeControl.html#aaf361db790682e5ab8d1077cddfaebf0" xlink:title="AC_AttitudeControl\l::frame_conversion_bf_to_ef">
<polygon fill="white" stroke="black" points="138,-378 138,-408 278,-408 278,-378 138,-378"/>
<text text-anchor="start" x="146" y="-396" font-family="Helvetica,sans-Serif" font-size="10.00">AC_AttitudeControl</text>
<text text-anchor="middle" x="208" y="-385" font-family="Helvetica,sans-Serif" font-size="10.00">::frame_conversion_bf_to_ef</text>
</a>
</g>
</g>
<!-- Node1&#45;&gt;Node2 -->
<g id="edge1" class="edge"><title>Node1&#45;&gt;Node2</title>
<path fill="none" stroke="midnightblue" d="M73.0117,-294.454C102.805,-316.366 156.979,-356.21 186.493,-377.918"/>
<polygon fill="midnightblue" stroke="midnightblue" points="75.0781,-291.629 64.9486,-288.523 70.9307,-297.268 75.0781,-291.629"/>
</g>
<!-- Node5 -->
<g id="node5" class="node"><title>Node5</title>
<g id="a_node5"><a xlink:href="$classAC__AttitudeControl.html#a77b57ff5b579c859e590e3fcd04466b5" xlink:title="AC_AttitudeControl\l::frame_conversion_ef_to_bf">
<polygon fill="white" stroke="black" points="138,-264 138,-294 278,-294 278,-264 138,-264"/>
<text text-anchor="start" x="146" y="-282" font-family="Helvetica,sans-Serif" font-size="10.00">AC_AttitudeControl</text>
<text text-anchor="middle" x="208" y="-271" font-family="Helvetica,sans-Serif" font-size="10.00">::frame_conversion_ef_to_bf</text>
</a>
</g>
</g>
<!-- Node1&#45;&gt;Node5 -->
<g id="edge4" class="edge"><title>Node1&#45;&gt;Node5</title>
<path fill="none" stroke="midnightblue" d="M112.078,-279C120.568,-279 129.353,-279 137.996,-279"/>
<polygon fill="midnightblue" stroke="midnightblue" points="111.896,-275.5 101.896,-279 111.896,-282.5 111.896,-275.5"/>
</g>
<!-- Node10 -->
<g id="node10" class="node"><title>Node10</title>
<g id="a_node10"><a xlink:href="$classAC__PosControl.html#a146634dd74332c97600e933213a75d5a" xlink:title="AC_PosControl::lean\l_angles_to_accel">
<polygon fill="white" stroke="black" points="153.5,-112 153.5,-142 262.5,-142 262.5,-112 153.5,-112"/>
<text text-anchor="start" x="161.5" y="-130" font-family="Helvetica,sans-Serif" font-size="10.00">AC_PosControl::lean</text>
<text text-anchor="middle" x="208" y="-119" font-family="Helvetica,sans-Serif" font-size="10.00">_angles_to_accel</text>
</a>
</g>
</g>
<!-- Node1&#45;&gt;Node10 -->
<g id="edge10" class="edge"><title>Node1&#45;&gt;Node10</title>
<path fill="none" stroke="midnightblue" d="M69.0004,-262.329C99.3458,-232.571 162.386,-170.751 191.565,-142.137"/>
<polygon fill="midnightblue" stroke="midnightblue" points="66.3852,-259.991 61.6959,-269.492 71.2864,-264.989 66.3852,-259.991"/>
</g>
<!-- Node3 -->
<g id="node3" class="node"><title>Node3</title>
<g id="a_node3"><a xlink:href="$classAC__AttitudeControl__Heli.html#adcf61fba6788547660fa2237e46a459e" xlink:title="AC_AttitudeControl\l_Heli::passthrough_bf\l_roll_pitch_rate_yaw">
<polygon fill="white" stroke="black" points="322,-426.5 322,-467.5 434,-467.5 434,-426.5 322,-426.5"/>
<text text-anchor="start" x="330" y="-455.5" font-family="Helvetica,sans-Serif" font-size="10.00">AC_AttitudeControl</text>
<text text-anchor="start" x="330" y="-444.5" font-family="Helvetica,sans-Serif" font-size="10.00">_Heli::passthrough_bf</text>
<text text-anchor="middle" x="378" y="-433.5" font-family="Helvetica,sans-Serif" font-size="10.00">_roll_pitch_rate_yaw</text>
</a>
</g>
</g>
<!-- Node2&#45;&gt;Node3 -->
<g id="edge2" class="edge"><title>Node2&#45;&gt;Node3</title>
<path fill="none" stroke="midnightblue" d="M265.395,-411.127C283.587,-416.974 303.722,-423.446 321.825,-429.265"/>
<polygon fill="midnightblue" stroke="midnightblue" points="266.389,-407.77 255.797,-408.042 264.247,-414.434 266.389,-407.77"/>
</g>
<!-- Node4 -->
<g id="node4" class="node"><title>Node4</title>
<g id="a_node4"><a xlink:href="$classAC__AttitudeControl.html#a716b26f41dfc5cf956b360affd045946" xlink:title="AC_AttitudeControl\l::rate_bf_roll_pitch_yaw">
<polygon fill="white" stroke="black" points="318,-378 318,-408 438,-408 438,-378 318,-378"/>
<text text-anchor="start" x="326" y="-396" font-family="Helvetica,sans-Serif" font-size="10.00">AC_AttitudeControl</text>
<text text-anchor="middle" x="378" y="-385" font-family="Helvetica,sans-Serif" font-size="10.00">::rate_bf_roll_pitch_yaw</text>
</a>
</g>
</g>
<!-- Node2&#45;&gt;Node4 -->
<g id="edge3" class="edge"><title>Node2&#45;&gt;Node4</title>
<path fill="none" stroke="midnightblue" d="M288.514,-393C298.364,-393 308.297,-393 317.768,-393"/>
<polygon fill="midnightblue" stroke="midnightblue" points="288.302,-389.5 278.302,-393 288.302,-396.5 288.302,-389.5"/>
</g>
<!-- Node5&#45;&gt;Node4 -->
<g id="edge8" class="edge"><title>Node5&#45;&gt;Node4</title>
<path fill="none" stroke="midnightblue" d="M230.93,-301.339C251.102,-320.925 282.566,-349.139 314,-368 320.054,-371.633 326.731,-374.936 333.406,-377.864"/>
<polygon fill="midnightblue" stroke="midnightblue" points="233.357,-298.816 223.776,-294.292 228.445,-303.803 233.357,-298.816"/>
</g>
<!-- Node6 -->
<g id="node6" class="node"><title>Node6</title>
<g id="a_node6"><a xlink:href="$classAC__AttitudeControl.html#a7f3ea9078e44d94c66da20f5e1f12612" xlink:title="AC_AttitudeControl\l::angle_ef_roll_pitch\l_rate_ef_yaw">
<polygon fill="white" stroke="black" points="326,-318.5 326,-359.5 430,-359.5 430,-318.5 326,-318.5"/>
<text text-anchor="start" x="334" y="-347.5" font-family="Helvetica,sans-Serif" font-size="10.00">AC_AttitudeControl</text>
<text text-anchor="start" x="334" y="-336.5" font-family="Helvetica,sans-Serif" font-size="10.00">::angle_ef_roll_pitch</text>
<text text-anchor="middle" x="378" y="-325.5" font-family="Helvetica,sans-Serif" font-size="10.00">_rate_ef_yaw</text>
</a>
</g>
</g>
<!-- Node5&#45;&gt;Node6 -->
<g id="edge5" class="edge"><title>Node5&#45;&gt;Node6</title>
<path fill="none" stroke="midnightblue" d="M260.961,-297.558C281.633,-304.94 305.349,-313.41 325.932,-320.761"/>
<polygon fill="midnightblue" stroke="midnightblue" points="261.988,-294.208 251.393,-294.141 259.634,-300.8 261.988,-294.208"/>
</g>
<!-- Node7 -->
<g id="node7" class="node"><title>Node7</title>
<g id="a_node7"><a xlink:href="$classAC__AttitudeControl.html#afbe614d708bc9de386fda48ee3c65069" xlink:title="AC_AttitudeControl\l::angle_ef_roll_pitch\l_rate_ef_yaw_smooth">
<polygon fill="white" stroke="black" points="321.5,-258.5 321.5,-299.5 434.5,-299.5 434.5,-258.5 321.5,-258.5"/>
<text text-anchor="start" x="329.5" y="-287.5" font-family="Helvetica,sans-Serif" font-size="10.00">AC_AttitudeControl</text>
<text text-anchor="start" x="329.5" y="-276.5" font-family="Helvetica,sans-Serif" font-size="10.00">::angle_ef_roll_pitch</text>
<text text-anchor="middle" x="378" y="-265.5" font-family="Helvetica,sans-Serif" font-size="10.00">_rate_ef_yaw_smooth</text>
</a>
</g>
</g>
<!-- Node5&#45;&gt;Node7 -->
<g id="edge6" class="edge"><title>Node5&#45;&gt;Node7</title>
<path fill="none" stroke="midnightblue" d="M288.482,-279C299.624,-279 310.872,-279 321.439,-279"/>
<polygon fill="midnightblue" stroke="midnightblue" points="288.302,-275.5 278.302,-279 288.302,-282.5 288.302,-275.5"/>
</g>
<!-- Node8 -->
<g id="node8" class="node"><title>Node8</title>
<g id="a_node8"><a xlink:href="$classAC__AttitudeControl.html#a436fd54f740d502a04b86f5b8a25bb42" xlink:title="AC_AttitudeControl\l::angle_ef_roll_pitch_yaw">
<polygon fill="white" stroke="black" points="314.5,-210 314.5,-240 441.5,-240 441.5,-210 314.5,-210"/>
<text text-anchor="start" x="322.5" y="-228" font-family="Helvetica,sans-Serif" font-size="10.00">AC_AttitudeControl</text>
<text text-anchor="middle" x="378" y="-217" font-family="Helvetica,sans-Serif" font-size="10.00">::angle_ef_roll_pitch_yaw</text>
</a>
</g>
</g>
<!-- Node5&#45;&gt;Node8 -->
<g id="edge7" class="edge"><title>Node5&#45;&gt;Node8</title>
<path fill="none" stroke="midnightblue" d="M265.557,-260.821C286.556,-254.071 310.126,-246.495 330.163,-240.055"/>
<polygon fill="midnightblue" stroke="midnightblue" points="264.247,-257.566 255.797,-263.958 266.389,-264.23 264.247,-257.566"/>
</g>
<!-- Node9 -->
<g id="node9" class="node"><title>Node9</title>
<g id="a_node9"><a xlink:href="$classAC__AttitudeControl.html#a2f434d94c7265c3e09c0c7555ec92efb" xlink:title="AC_AttitudeControl\l::rate_ef_roll_pitch_yaw">
<polygon fill="white" stroke="black" points="318,-161 318,-191 438,-191 438,-161 318,-161"/>
<text text-anchor="start" x="326" y="-179" font-family="Helvetica,sans-Serif" font-size="10.00">AC_AttitudeControl</text>
<text text-anchor="middle" x="378" y="-168" font-family="Helvetica,sans-Serif" font-size="10.00">::rate_ef_roll_pitch_yaw</text>
</a>
</g>
</g>
<!-- Node5&#45;&gt;Node9 -->
<g id="edge9" class="edge"><title>Node5&#45;&gt;Node9</title>
<path fill="none" stroke="midnightblue" d="M234.13,-257.38C254.638,-240.484 284.884,-217.223 314,-201 320.476,-197.392 327.58,-194.045 334.611,-191.05"/>
<polygon fill="midnightblue" stroke="midnightblue" points="231.673,-254.872 226.236,-263.966 236.157,-260.247 231.673,-254.872"/>
</g>
<!-- Node11 -->
<g id="node11" class="node"><title>Node11</title>
<g id="a_node11"><a xlink:href="$classAC__PosControl.html#ae2897de0075f8f8aaa94eb7e8cad100b" xlink:title="xyz velocity controller ">
<polygon fill="white" stroke="black" points="326,-112 326,-142 430,-142 430,-112 326,-112"/>
<text text-anchor="start" x="334" y="-130" font-family="Helvetica,sans-Serif" font-size="10.00">AC_PosControl::init</text>
<text text-anchor="middle" x="378" y="-119" font-family="Helvetica,sans-Serif" font-size="10.00">_vel_controller_xyz</text>
</a>
</g>
</g>
<!-- Node10&#45;&gt;Node11 -->
<g id="edge11" class="edge"><title>Node10&#45;&gt;Node11</title>
<path fill="none" stroke="midnightblue" d="M272.786,-127C290.343,-127 309.153,-127 325.893,-127"/>
<polygon fill="midnightblue" stroke="midnightblue" points="272.618,-123.5 262.618,-127 272.618,-130.5 272.618,-123.5"/>
</g>
<!-- Node12 -->
<g id="node12" class="node"><title>Node12</title>
<g id="a_node12"><a xlink:href="$classAC__PosControl.html#ae1676c283b03793693b7c94cecdcd0b2" xlink:title="AC_PosControl::init\l_xy_controller">
<polygon fill="white" stroke="black" points="326,-63 326,-93 430,-93 430,-63 326,-63"/>
<text text-anchor="start" x="334" y="-81" font-family="Helvetica,sans-Serif" font-size="10.00">AC_PosControl::init</text>
<text text-anchor="middle" x="378" y="-70" font-family="Helvetica,sans-Serif" font-size="10.00">_xy_controller</text>
</a>
</g>
</g>
<!-- Node10&#45;&gt;Node12 -->
<g id="edge12" class="edge"><title>Node10&#45;&gt;Node12</title>
<path fill="none" stroke="midnightblue" d="M270.443,-109.079C288.687,-103.758 308.465,-97.9894 325.972,-92.8832"/>
<polygon fill="midnightblue" stroke="midnightblue" points="269.396,-105.738 260.776,-111.899 271.356,-112.458 269.396,-105.738"/>
</g>
<!-- Node13 -->
<g id="node13" class="node"><title>Node13</title>
<g id="a_node13"><a xlink:href="$classAC__Circle.html#aeecf8efd6d546820ee831e749935df8b" xlink:title="AC_Circle::init">
<polygon fill="white" stroke="black" points="518,-137.5 518,-156.5 598,-156.5 598,-137.5 518,-137.5"/>
<text text-anchor="middle" x="558" y="-144.5" font-family="Helvetica,sans-Serif" font-size="10.00">AC_Circle::init</text>
</a>
</g>
</g>
<!-- Node12&#45;&gt;Node13 -->
<g id="edge13" class="edge"><title>Node12&#45;&gt;Node13</title>
<path fill="none" stroke="midnightblue" d="M429.773,-97.058C433.96,-98.9576 438.084,-100.947 442,-103 459.031,-111.929 460.426,-119.194 478,-127 490.542,-132.571 504.922,-136.791 517.946,-139.885"/>
<polygon fill="midnightblue" stroke="midnightblue" points="431.132,-93.8321 420.565,-93.0523 428.339,-100.251 431.132,-93.8321"/>
</g>
<!-- Node14 -->
<g id="node14" class="node"><title>Node14</title>
<g id="a_node14"><a xlink:href="$classAC__WPNav.html#a2ed86e41fc51c2ea822711ea95d055f0" xlink:title="init_brake_target &#45; initializes stop position from current position and velocity ">
<polygon fill="white" stroke="black" points="498.5,-88 498.5,-118 617.5,-118 617.5,-88 498.5,-88"/>
<text text-anchor="start" x="506.5" y="-106" font-family="Helvetica,sans-Serif" font-size="10.00">AC_WPNav::init_brake</text>
<text text-anchor="middle" x="558" y="-95" font-family="Helvetica,sans-Serif" font-size="10.00">_target</text>
</a>
</g>
</g>
<!-- Node12&#45;&gt;Node14 -->
<g id="edge14" class="edge"><title>Node12&#45;&gt;Node14</title>
<path fill="none" stroke="midnightblue" d="M440.001,-86.5676C458.916,-89.2242 479.71,-92.1446 498.454,-94.7773"/>
<polygon fill="midnightblue" stroke="midnightblue" points="440.397,-83.0889 430.008,-85.164 439.424,-90.0209 440.397,-83.0889"/>
</g>
<!-- Node15 -->
<g id="node15" class="node"><title>Node15</title>
<g id="a_node15"><a xlink:href="$classAC__WPNav.html#a3bd3abac616805d338d31255d76e978e" xlink:title="init_loiter_target in cm from home ">
<polygon fill="white" stroke="black" points="500,-39 500,-69 616,-69 616,-39 500,-39"/>
<text text-anchor="start" x="508" y="-57" font-family="Helvetica,sans-Serif" font-size="10.00">AC_WPNav::init_loiter</text>
<text text-anchor="middle" x="558" y="-46" font-family="Helvetica,sans-Serif" font-size="10.00">_target</text>
</a>
</g>
</g>
<!-- Node12&#45;&gt;Node15 -->
<g id="edge15" class="edge"><title>Node12&#45;&gt;Node15</title>
<path fill="none" stroke="midnightblue" d="M439.931,-69.7846C459.294,-67.1739 480.631,-64.2969 499.727,-61.7222"/>
<polygon fill="midnightblue" stroke="midnightblue" points="439.45,-66.3176 430.008,-71.1226 440.386,-73.2549 439.45,-66.3176"/>
</g>
<!-- Node16 -->
<g id="node16" class="node"><title>Node16</title>
<g id="a_node16"><a xlink:href="$classAC__WPNav.html#a47964df8ebcc78bb101f328a23187e65" xlink:title="AC_WPNav::wp_and_spline_init">
<polygon fill="white" stroke="black" points="478.5,-0.5 478.5,-19.5 637.5,-19.5 637.5,-0.5 478.5,-0.5"/>
<text text-anchor="middle" x="558" y="-7.5" font-family="Helvetica,sans-Serif" font-size="10.00">AC_WPNav::wp_and_spline_init</text>
</a>
</g>
</g>
<!-- Node12&#45;&gt;Node16 -->
<g id="edge16" class="edge"><title>Node12&#45;&gt;Node16</title>
<path fill="none" stroke="midnightblue" d="M414.531,-57.9985C433.021,-48.2172 456.253,-36.8844 478,-29 488.079,-25.3459 499.136,-22.1869 509.702,-19.551"/>
<polygon fill="midnightblue" stroke="midnightblue" points="412.748,-54.9831 405.595,-62.7992 416.061,-61.1496 412.748,-54.9831"/>
</g>
</g>
</svg>
