<?xml version="1.0" encoding="UTF-8" standalone="no"?>
<!DOCTYPE svg PUBLIC "-//W3C//DTD SVG 1.1//EN"
 "http://www.w3.org/Graphics/SVG/1.1/DTD/svg11.dtd">
<!-- Generated by graphviz version 2.36.0 (20140111.2315)
 -->
<!-- Title: Buzzer::update Pages: 1 -->
<svg width="388pt" height="115pt"
 viewBox="0.00 0.00 388.00 115.00" xmlns="http://www.w3.org/2000/svg" xmlns:xlink="http://www.w3.org/1999/xlink">
<g id="graph0" class="graph" transform="scale(1 1) rotate(0) translate(4 111)">
<title>Buzzer::update</title>
<polygon fill="white" stroke="none" points="-4,4 -4,-111 384,-111 384,4 -4,4"/>
<!-- Node1 -->
<g id="node1" class="node"><title>Node1</title>
<polygon fill="#bfbfbf" stroke="black" points="0.5,-49.5 0.5,-68.5 83.5,-68.5 83.5,-49.5 0.5,-49.5"/>
<text text-anchor="middle" x="42" y="-56.5" font-family="Helvetica,sans-Serif" font-size="10.00">Buzzer::update</text>
</g>
<!-- Node2 -->
<g id="node2" class="node"><title>Node2</title>
<g id="a_node2"><a xlink:href="$classBuzzer.html#a5e47c30f008abc15520ea1aa14822680" xlink:title="play_pattern &#45; plays the defined buzzer pattern ">
<polygon fill="white" stroke="black" points="121.5,-87.5 121.5,-106.5 228.5,-106.5 228.5,-87.5 121.5,-87.5"/>
<text text-anchor="middle" x="175" y="-94.5" font-family="Helvetica,sans-Serif" font-size="10.00">Buzzer::play_pattern</text>
</a>
</g>
</g>
<!-- Node1&#45;&gt;Node2 -->
<g id="edge1" class="edge"><title>Node1&#45;&gt;Node2</title>
<path fill="none" stroke="midnightblue" d="M76.0568,-68.589C92.8125,-73.4494 113.358,-79.4091 131.297,-84.6127"/>
<polygon fill="midnightblue" stroke="midnightblue" points="130.375,-87.9895 140.954,-87.4141 132.325,-81.2666 130.375,-87.9895"/>
</g>
<!-- Node3 -->
<g id="node3" class="node"><title>Node3</title>
<g id="a_node3"><a xlink:href="$classBuzzer.html#a7febd0198541a90c55bae1fd5db8aa0a" xlink:title="on &#45; turns the buzzer on or off ">
<polygon fill="white" stroke="black" points="143,-49.5 143,-68.5 207,-68.5 207,-49.5 143,-49.5"/>
<text text-anchor="middle" x="175" y="-56.5" font-family="Helvetica,sans-Serif" font-size="10.00">Buzzer::on</text>
</a>
</g>
</g>
<!-- Node1&#45;&gt;Node3 -->
<g id="edge2" class="edge"><title>Node1&#45;&gt;Node3</title>
<path fill="none" stroke="midnightblue" d="M83.7311,-59C99.2316,-59 116.902,-59 132.475,-59"/>
<polygon fill="midnightblue" stroke="midnightblue" points="132.869,-62.5001 142.869,-59 132.869,-55.5001 132.869,-62.5001"/>
</g>
<!-- Node5 -->
<g id="node5" class="node"><title>Node5</title>
<g id="a_node5"><a xlink:href="$classAP__HAL_1_1Scheduler.html#a26b68339fc68a562d8d3a1238d0ec8c1" xlink:title="AP_HAL::Scheduler::\lmillis">
<polygon fill="white" stroke="black" points="120,-0 120,-30 230,-30 230,-0 120,-0"/>
<text text-anchor="start" x="128" y="-18" font-family="Helvetica,sans-Serif" font-size="10.00">AP_HAL::Scheduler::</text>
<text text-anchor="middle" x="175" y="-7" font-family="Helvetica,sans-Serif" font-size="10.00">millis</text>
</a>
</g>
</g>
<!-- Node1&#45;&gt;Node5 -->
<g id="edge4" class="edge"><title>Node1&#45;&gt;Node5</title>
<path fill="none" stroke="midnightblue" d="M71.425,-49.4527C85.5157,-44.7199 103.019,-38.8408 119.555,-33.2868"/>
<polygon fill="midnightblue" stroke="midnightblue" points="120.781,-36.5673 129.146,-30.0654 118.552,-29.9316 120.781,-36.5673"/>
</g>
<!-- Node4 -->
<g id="node4" class="node"><title>Node4</title>
<g id="a_node4"><a xlink:href="$classAP__HAL_1_1GPIO.html#a2b0664bdab1876e3b0bbcd9064eec88e" xlink:title="AP_HAL::GPIO::write">
<polygon fill="white" stroke="black" points="266.5,-49.5 266.5,-68.5 379.5,-68.5 379.5,-49.5 266.5,-49.5"/>
<text text-anchor="middle" x="323" y="-56.5" font-family="Helvetica,sans-Serif" font-size="10.00">AP_HAL::GPIO::write</text>
</a>
</g>
</g>
<!-- Node3&#45;&gt;Node4 -->
<g id="edge3" class="edge"><title>Node3&#45;&gt;Node4</title>
<path fill="none" stroke="midnightblue" d="M207.321,-59C221.545,-59 238.945,-59 255.85,-59"/>
<polygon fill="midnightblue" stroke="midnightblue" points="256.279,-62.5001 266.279,-59 256.279,-55.5001 256.279,-62.5001"/>
</g>
</g>
</svg>
