<?xml version="1.0" encoding="UTF-8" standalone="no"?>
<!DOCTYPE svg PUBLIC "-//W3C//DTD SVG 1.1//EN"
 "http://www.w3.org/Graphics/SVG/1.1/DTD/svg11.dtd">
<!-- Generated by graphviz version 2.36.0 (20140111.2315)
 -->
<!-- Title: AP_Param Pages: 1 -->
<svg width="350pt" height="164pt"
 viewBox="0.00 0.00 350.00 164.00" xmlns="http://www.w3.org/2000/svg" xmlns:xlink="http://www.w3.org/1999/xlink">
<g id="graph0" class="graph" transform="scale(1 1) rotate(0) translate(4 160)">
<title>AP_Param</title>
<polygon fill="white" stroke="none" points="-4,4 -4,-160 346,-160 346,4 -4,4"/>
<!-- Node1 -->
<g id="node1" class="node"><title>Node1</title>
<polygon fill="#bfbfbf" stroke="black" points="112,-0.5 112,-19.5 176,-19.5 176,-0.5 112,-0.5"/>
<text text-anchor="middle" x="144" y="-7.5" font-family="Helvetica,sans-Serif" font-size="10.00">AP_Param</text>
</g>
<!-- Node2 -->
<g id="node2" class="node"><title>Node2</title>
<g id="a_node2"><a xlink:href="$classStorageAccess.html" xlink:title="StorageAccess">
<polygon fill="white" stroke="black" points="-0.5,-68.5 -0.5,-87.5 82.5,-87.5 82.5,-68.5 -0.5,-68.5"/>
<text text-anchor="middle" x="41" y="-75.5" font-family="Helvetica,sans-Serif" font-size="10.00">StorageAccess</text>
</a>
</g>
</g>
<!-- Node2&#45;&gt;Node1 -->
<g id="edge1" class="edge"><title>Node2&#45;&gt;Node1</title>
<path fill="none" stroke="#9a32cd" stroke-dasharray="5,2" d="M61.8021,-62.6341C72.7765,-55.1517 86.5193,-45.9329 99,-38 108.996,-31.6465 120.444,-24.7832 129.292,-19.5663"/>
<polygon fill="#9a32cd" stroke="#9a32cd" points="59.5937,-59.9045 53.3232,-68.4446 63.5507,-65.6788 59.5937,-59.9045"/>
<text text-anchor="middle" x="119.5" y="-41.5" font-family="Helvetica,sans-Serif" font-size="10.00"> _storage</text>
</g>
<!-- Node3 -->
<g id="node3" class="node"><title>Node3</title>
<g id="a_node3"><a xlink:href="$structAP__Param_1_1Info.html" xlink:title="AP_Param::Info">
<polygon fill="white" stroke="black" points="101,-68.5 101,-87.5 187,-87.5 187,-68.5 101,-68.5"/>
<text text-anchor="middle" x="144" y="-75.5" font-family="Helvetica,sans-Serif" font-size="10.00">AP_Param::Info</text>
</a>
</g>
</g>
<!-- Node3&#45;&gt;Node1 -->
<g id="edge2" class="edge"><title>Node3&#45;&gt;Node1</title>
<path fill="none" stroke="#9a32cd" stroke-dasharray="5,2" d="M144,-58.0413C144,-45.4724 144,-29.5631 144,-19.8411"/>
<polygon fill="#9a32cd" stroke="#9a32cd" points="140.5,-58.3716 144,-68.3717 147.5,-58.3717 140.5,-58.3716"/>
<text text-anchor="middle" x="165.5" y="-41.5" font-family="Helvetica,sans-Serif" font-size="10.00"> _var_info</text>
</g>
<!-- Node4 -->
<g id="node4" class="node"><title>Node4</title>
<g id="a_node4"><a xlink:href="$structAP__Param_1_1GroupInfo.html" xlink:title="AP_Param::GroupInfo">
<polygon fill="white" stroke="black" points="87.5,-136.5 87.5,-155.5 200.5,-155.5 200.5,-136.5 87.5,-136.5"/>
<text text-anchor="middle" x="144" y="-143.5" font-family="Helvetica,sans-Serif" font-size="10.00">AP_Param::GroupInfo</text>
</a>
</g>
</g>
<!-- Node4&#45;&gt;Node3 -->
<g id="edge3" class="edge"><title>Node4&#45;&gt;Node3</title>
<path fill="none" stroke="#9a32cd" stroke-dasharray="5,2" d="M144,-126.041C144,-113.472 144,-97.5631 144,-87.8411"/>
<polygon fill="#9a32cd" stroke="#9a32cd" points="140.5,-126.372 144,-136.372 147.5,-126.372 140.5,-126.372"/>
<text text-anchor="middle" x="168.5" y="-109.5" font-family="Helvetica,sans-Serif" font-size="10.00"> group_info</text>
</g>
<!-- Node4&#45;&gt;Node4 -->
<g id="edge4" class="edge"><title>Node4&#45;&gt;Node4</title>
<path fill="none" stroke="#9a32cd" stroke-dasharray="5,2" d="M210.683,-150.609C215.233,-149.549 218,-148.013 218,-146 218,-142.779 210.917,-140.779 200.777,-139.999"/>
<polygon fill="#9a32cd" stroke="#9a32cd" points="210.193,-147.143 200.777,-152.001 211.167,-154.075 210.193,-147.143"/>
<text text-anchor="middle" x="242.5" y="-143.5" font-family="Helvetica,sans-Serif" font-size="10.00"> group_info</text>
</g>
<!-- Node5 -->
<g id="node5" class="node"><title>Node5</title>
<g id="a_node5"><a xlink:href="$structAP__Param_1_1param__override.html" xlink:title="AP_Param::param_override">
<polygon fill="white" stroke="black" points="205.5,-68.5 205.5,-87.5 342.5,-87.5 342.5,-68.5 205.5,-68.5"/>
<text text-anchor="middle" x="274" y="-75.5" font-family="Helvetica,sans-Serif" font-size="10.00">AP_Param::param_override</text>
</a>
</g>
</g>
<!-- Node5&#45;&gt;Node1 -->
<g id="edge5" class="edge"><title>Node5&#45;&gt;Node1</title>
<path fill="none" stroke="#9a32cd" stroke-dasharray="5,2" d="M247.781,-63.6889C221.902,-50.5502 183.094,-30.8475 160.999,-19.6305"/>
<polygon fill="#9a32cd" stroke="#9a32cd" points="246.504,-66.9655 257.005,-68.3717 249.673,-60.7238 246.504,-66.9655"/>
<text text-anchor="middle" x="259" y="-41.5" font-family="Helvetica,sans-Serif" font-size="10.00"> param_overrides</text>
</g>
</g>
</svg>
