<?xml version="1.0" encoding="UTF-8" standalone="no"?>
<!DOCTYPE svg PUBLIC "-//W3C//DTD SVG 1.1//EN"
 "http://www.w3.org/Graphics/SVG/1.1/DTD/svg11.dtd">
<!-- Generated by graphviz version 2.36.0 (20140111.2315)
 -->
<!-- Title: ToneAlarm_PX4::play_string Pages: 1 -->
<svg width="608pt" height="126pt"
 viewBox="0.00 0.00 608.00 126.00" xmlns="http://www.w3.org/2000/svg" xmlns:xlink="http://www.w3.org/1999/xlink">
<g id="graph0" class="graph" transform="scale(1 1) rotate(0) translate(4 122)">
<title>ToneAlarm_PX4::play_string</title>
<polygon fill="white" stroke="none" points="-4,4 -4,-122 604,-122 604,4 -4,4"/>
<!-- Node1 -->
<g id="node1" class="node"><title>Node1</title>
<polygon fill="#bfbfbf" stroke="black" points="0,-23 0,-53 112,-53 112,-23 0,-23"/>
<text text-anchor="start" x="8" y="-41" font-family="Helvetica,sans-Serif" font-size="10.00">ToneAlarm_PX4::play</text>
<text text-anchor="middle" x="56" y="-30" font-family="Helvetica,sans-Serif" font-size="10.00">_string</text>
</g>
<!-- Node2 -->
<g id="node2" class="node"><title>Node2</title>
<g id="a_node2"><a xlink:href="$classToneAlarm__PX4.html#a6b00305a172a33a394db378444bc4683" xlink:title="play_tune &#45; play one of the pre&#45;defined tunes ">
<polygon fill="white" stroke="black" points="148,-49.5 148,-68.5 284,-68.5 284,-49.5 148,-49.5"/>
<text text-anchor="middle" x="216" y="-56.5" font-family="Helvetica,sans-Serif" font-size="10.00">ToneAlarm_PX4::play_tone</text>
</a>
</g>
</g>
<!-- Node1&#45;&gt;Node2 -->
<g id="edge1" class="edge"><title>Node1&#45;&gt;Node2</title>
<path fill="none" stroke="midnightblue" d="M122.374,-46.6889C130.773,-47.8053 139.384,-48.9497 147.811,-50.0698"/>
<polygon fill="midnightblue" stroke="midnightblue" points="122.635,-43.1929 112.261,-45.3448 121.712,-50.1319 122.635,-43.1929"/>
</g>
<!-- Node5 -->
<g id="node5" class="node"><title>Node5</title>
<g id="a_node5"><a xlink:href="$classToneAlarm__PX4.html#a0b17c9ed107d3b0e3c94cbcf5ac15b62" xlink:title="ToneAlarm_PX4::stop\l_cont_tone">
<polygon fill="white" stroke="black" points="323.5,-0 323.5,-30 436.5,-30 436.5,-0 323.5,-0"/>
<text text-anchor="start" x="331.5" y="-18" font-family="Helvetica,sans-Serif" font-size="10.00">ToneAlarm_PX4::stop</text>
<text text-anchor="middle" x="380" y="-7" font-family="Helvetica,sans-Serif" font-size="10.00">_cont_tone</text>
</a>
</g>
</g>
<!-- Node1&#45;&gt;Node5 -->
<g id="edge5" class="edge"><title>Node1&#45;&gt;Node5</title>
<path fill="none" stroke="midnightblue" d="M122.689,-33.3079C181.742,-29.0899 267.525,-22.9625 323.291,-18.9792"/>
<polygon fill="midnightblue" stroke="midnightblue" points="122.079,-29.8425 112.354,-34.0462 122.578,-36.8247 122.079,-29.8425"/>
</g>
<!-- Node3 -->
<g id="node3" class="node"><title>Node3</title>
<g id="a_node3"><a xlink:href="$classToneAlarm__PX4.html#abb5cda80288f2d2dca9d9e5c7e5fd920" xlink:title="ToneAlarm_PX4::check\l_cont_tone">
<polygon fill="white" stroke="black" points="320,-88 320,-118 440,-118 440,-88 320,-88"/>
<text text-anchor="start" x="328" y="-106" font-family="Helvetica,sans-Serif" font-size="10.00">ToneAlarm_PX4::check</text>
<text text-anchor="middle" x="380" y="-95" font-family="Helvetica,sans-Serif" font-size="10.00">_cont_tone</text>
</a>
</g>
</g>
<!-- Node2&#45;&gt;Node3 -->
<g id="edge2" class="edge"><title>Node2&#45;&gt;Node3</title>
<path fill="none" stroke="midnightblue" d="M261.803,-71.1687C280.907,-76.3574 303.392,-82.4646 323.532,-87.9346"/>
<polygon fill="midnightblue" stroke="midnightblue" points="262.719,-67.7909 252.152,-68.5473 260.885,-74.5461 262.719,-67.7909"/>
</g>
<!-- Node4 -->
<g id="node4" class="node"><title>Node4</title>
<g id="a_node4"><a xlink:href="$classToneAlarm__PX4.html#afa62a6241bf150720d1f8d16c9e41cc2" xlink:title="update &#45; updates led according to timed_updated. Should be called at 50Hz ">
<polygon fill="white" stroke="black" points="476.5,-49.5 476.5,-68.5 599.5,-68.5 599.5,-49.5 476.5,-49.5"/>
<text text-anchor="middle" x="538" y="-56.5" font-family="Helvetica,sans-Serif" font-size="10.00">ToneAlarm_PX4::update</text>
</a>
</g>
</g>
<!-- Node2&#45;&gt;Node4 -->
<g id="edge4" class="edge"><title>Node2&#45;&gt;Node4</title>
<path fill="none" stroke="midnightblue" d="M294.306,-59C350.268,-59 424.844,-59 476.49,-59"/>
<polygon fill="midnightblue" stroke="midnightblue" points="294.083,-55.5001 284.082,-59 294.082,-62.5001 294.083,-55.5001"/>
</g>
<!-- Node3&#45;&gt;Node4 -->
<g id="edge3" class="edge"><title>Node3&#45;&gt;Node4</title>
<path fill="none" stroke="midnightblue" d="M444.019,-85.2255C464.196,-79.5346 485.762,-73.4516 503.041,-68.5783"/>
<polygon fill="midnightblue" stroke="midnightblue" points="442.924,-81.8975 434.25,-87.9808 444.825,-88.6347 442.924,-81.8975"/>
</g>
<!-- Node5&#45;&gt;Node4 -->
<g id="edge6" class="edge"><title>Node5&#45;&gt;Node4</title>
<path fill="none" stroke="midnightblue" d="M444.019,-32.7745C464.196,-38.4654 485.762,-44.5484 503.041,-49.4217"/>
<polygon fill="midnightblue" stroke="midnightblue" points="444.825,-29.3653 434.25,-30.0192 442.924,-36.1025 444.825,-29.3653"/>
</g>
</g>
</svg>
