<?xml version="1.0" encoding="UTF-8" standalone="no"?>
<!DOCTYPE svg PUBLIC "-//W3C//DTD SVG 1.1//EN"
 "http://www.w3.org/Graphics/SVG/1.1/DTD/svg11.dtd">
<!-- Generated by graphviz version 2.36.0 (20140111.2315)
 -->
<!-- Title: AP_GPS_MTK::read Pages: 1 -->
<svg width="290pt" height="213pt"
 viewBox="0.00 0.00 290.00 213.00" xmlns="http://www.w3.org/2000/svg" xmlns:xlink="http://www.w3.org/1999/xlink">
<g id="graph0" class="graph" transform="scale(1 1) rotate(0) translate(4 209)">
<title>AP_GPS_MTK::read</title>
<polygon fill="white" stroke="none" points="-4,4 -4,-209 286,-209 286,4 -4,4"/>
<!-- Node1 -->
<g id="node1" class="node"><title>Node1</title>
<polygon fill="#bfbfbf" stroke="black" points="0.5,-103.5 0.5,-122.5 107.5,-122.5 107.5,-103.5 0.5,-103.5"/>
<text text-anchor="middle" x="54" y="-110.5" font-family="Helvetica,sans-Serif" font-size="10.00">AP_GPS_MTK::read</text>
</g>
<!-- Node2 -->
<g id="node2" class="node"><title>Node2</title>
<g id="a_node2"><a xlink:href="$classAP__HAL_1_1Stream.html#ae687e48f5689af94d66fb88822923e12" xlink:title="AP_HAL::Stream::available">
<polygon fill="white" stroke="black" points="144.5,-185.5 144.5,-204.5 281.5,-204.5 281.5,-185.5 144.5,-185.5"/>
<text text-anchor="middle" x="213" y="-192.5" font-family="Helvetica,sans-Serif" font-size="10.00">AP_HAL::Stream::available</text>
</a>
</g>
</g>
<!-- Node1&#45;&gt;Node2 -->
<g id="edge1" class="edge"><title>Node1&#45;&gt;Node2</title>
<path fill="none" stroke="midnightblue" d="M66.0073,-122.718C82.0811,-136.438 113.403,-161.437 144,-176 148.911,-178.338 154.163,-180.436 159.49,-182.307"/>
<polygon fill="midnightblue" stroke="midnightblue" points="158.51,-185.669 169.102,-185.433 160.675,-179.012 158.51,-185.669"/>
</g>
<!-- Node3 -->
<g id="node3" class="node"><title>Node3</title>
<g id="a_node3"><a xlink:href="$classAP__HAL_1_1Stream.html#ae42ff362cc2a7e527c22f92a3740c2ac" xlink:title="AP_HAL::Stream::read">
<polygon fill="white" stroke="black" points="154.5,-147.5 154.5,-166.5 271.5,-166.5 271.5,-147.5 154.5,-147.5"/>
<text text-anchor="middle" x="213" y="-154.5" font-family="Helvetica,sans-Serif" font-size="10.00">AP_HAL::Stream::read</text>
</a>
</g>
</g>
<!-- Node1&#45;&gt;Node3 -->
<g id="edge2" class="edge"><title>Node1&#45;&gt;Node3</title>
<path fill="none" stroke="midnightblue" d="M89.0667,-122.547C112.315,-129.063 143.316,-137.751 168.369,-144.772"/>
<polygon fill="midnightblue" stroke="midnightblue" points="167.426,-148.143 178,-147.471 169.315,-141.402 167.426,-148.143"/>
</g>
<!-- Node4 -->
<g id="node4" class="node"><title>Node4</title>
<g id="a_node4"><a xlink:href="$classAP__GPS__Backend.html#a8e71e2e307aeb48d4d4aecaa64b00c20" xlink:title="AP_GPS_Backend::swap\l_int32">
<polygon fill="white" stroke="black" points="148.5,-98 148.5,-128 277.5,-128 277.5,-98 148.5,-98"/>
<text text-anchor="start" x="156.5" y="-116" font-family="Helvetica,sans-Serif" font-size="10.00">AP_GPS_Backend::swap</text>
<text text-anchor="middle" x="213" y="-105" font-family="Helvetica,sans-Serif" font-size="10.00">_int32</text>
</a>
</g>
</g>
<!-- Node1&#45;&gt;Node4 -->
<g id="edge3" class="edge"><title>Node1&#45;&gt;Node4</title>
<path fill="none" stroke="midnightblue" d="M107.715,-113C117.47,-113 127.822,-113 138.07,-113"/>
<polygon fill="midnightblue" stroke="midnightblue" points="138.257,-116.5 148.257,-113 138.257,-109.5 138.257,-116.5"/>
</g>
<!-- Node5 -->
<g id="node5" class="node"><title>Node5</title>
<g id="a_node5"><a xlink:href="$classAP__GPS__Backend.html#a61d3376fe67c0f2f8b0cb865dfc863b1" xlink:title="AP_GPS_Backend::make\l_gps_time">
<polygon fill="white" stroke="black" points="148,-49 148,-79 278,-79 278,-49 148,-49"/>
<text text-anchor="start" x="156" y="-67" font-family="Helvetica,sans-Serif" font-size="10.00">AP_GPS_Backend::make</text>
<text text-anchor="middle" x="213" y="-56" font-family="Helvetica,sans-Serif" font-size="10.00">_gps_time</text>
</a>
</g>
</g>
<!-- Node1&#45;&gt;Node5 -->
<g id="edge4" class="edge"><title>Node1&#45;&gt;Node5</title>
<path fill="none" stroke="midnightblue" d="M85.6439,-103.436C105.087,-97.3679 130.863,-89.323 154.062,-82.0826"/>
<polygon fill="midnightblue" stroke="midnightblue" points="155.317,-85.3574 163.82,-79.037 153.232,-78.6753 155.317,-85.3574"/>
</g>
<!-- Node6 -->
<g id="node6" class="node"><title>Node6</title>
<g id="a_node6"><a xlink:href="$classAP__GPS__Backend.html#a349cb407ea3c09c424ed77bcf72a488b" xlink:title="AP_GPS_Backend::fill\l_3d_velocity">
<polygon fill="white" stroke="black" points="155,-0 155,-30 271,-30 271,-0 155,-0"/>
<text text-anchor="start" x="163" y="-18" font-family="Helvetica,sans-Serif" font-size="10.00">AP_GPS_Backend::fill</text>
<text text-anchor="middle" x="213" y="-7" font-family="Helvetica,sans-Serif" font-size="10.00">_3d_velocity</text>
</a>
</g>
</g>
<!-- Node1&#45;&gt;Node6 -->
<g id="edge5" class="edge"><title>Node1&#45;&gt;Node6</title>
<path fill="none" stroke="midnightblue" d="M64.586,-103.258C80.0691,-87.9825 112.083,-58.2589 144,-40 147.623,-37.9272 151.45,-35.9716 155.367,-34.1378"/>
<polygon fill="midnightblue" stroke="midnightblue" points="156.862,-37.3037 164.614,-30.0818 154.051,-30.8932 156.862,-37.3037"/>
</g>
</g>
</svg>
