<?xml version="1.0" encoding="UTF-8" standalone="no"?>
<!DOCTYPE svg PUBLIC "-//W3C//DTD SVG 1.1//EN"
 "http://www.w3.org/Graphics/SVG/1.1/DTD/svg11.dtd">
<!-- Generated by graphviz version 2.36.0 (20140111.2315)
 -->
<!-- Title: APM_PI::APM_PI Pages: 1 -->
<svg width="420pt" height="77pt"
 viewBox="0.00 0.00 420.00 77.00" xmlns="http://www.w3.org/2000/svg" xmlns:xlink="http://www.w3.org/1999/xlink">
<g id="graph0" class="graph" transform="scale(1 1) rotate(0) translate(4 73)">
<title>APM_PI::APM_PI</title>
<polygon fill="white" stroke="none" points="-4,4 -4,-73 416,-73 416,4 -4,4"/>
<!-- Node1 -->
<g id="node1" class="node"><title>Node1</title>
<polygon fill="#bfbfbf" stroke="black" points="0,-27.5 0,-46.5 96,-46.5 96,-27.5 0,-27.5"/>
<text text-anchor="middle" x="48" y="-34.5" font-family="Helvetica,sans-Serif" font-size="10.00">APM_PI::APM_PI</text>
</g>
<!-- Node2 -->
<g id="node2" class="node"><title>Node2</title>
<g id="a_node2"><a xlink:href="$classAP__Param.html#a5f6dcfce1c0a79cf5bd81283e22f3201" xlink:title="AP_Param::setup_object\l_defaults">
<polygon fill="white" stroke="black" points="132.5,-22 132.5,-52 257.5,-52 257.5,-22 132.5,-22"/>
<text text-anchor="start" x="140.5" y="-40" font-family="Helvetica,sans-Serif" font-size="10.00">AP_Param::setup_object</text>
<text text-anchor="middle" x="195" y="-29" font-family="Helvetica,sans-Serif" font-size="10.00">_defaults</text>
</a>
</g>
</g>
<!-- Node1&#45;&gt;Node2 -->
<g id="edge1" class="edge"><title>Node1&#45;&gt;Node2</title>
<path fill="none" stroke="midnightblue" d="M96.0773,-37C104.489,-37 113.423,-37 122.34,-37"/>
<polygon fill="midnightblue" stroke="midnightblue" points="122.372,-40.5001 132.372,-37 122.372,-33.5001 122.372,-40.5001"/>
</g>
<!-- Node3 -->
<g id="node3" class="node"><title>Node3</title>
<g id="a_node3"><a xlink:href="$classAP__Param.html#acd4b14f793c37f162e298761d2155ca6" xlink:title="AP_Param::set_value">
<polygon fill="white" stroke="black" points="297,-49.5 297,-68.5 409,-68.5 409,-49.5 297,-49.5"/>
<text text-anchor="middle" x="353" y="-56.5" font-family="Helvetica,sans-Serif" font-size="10.00">AP_Param::set_value</text>
</a>
</g>
</g>
<!-- Node2&#45;&gt;Node3 -->
<g id="edge2" class="edge"><title>Node2&#45;&gt;Node3</title>
<path fill="none" stroke="midnightblue" d="M257.655,-45.695C267.263,-47.0499 277.217,-48.4537 286.899,-49.819"/>
<polygon fill="midnightblue" stroke="midnightblue" points="286.472,-53.2935 296.863,-51.2243 287.45,-46.362 286.472,-53.2935"/>
</g>
<!-- Node4 -->
<g id="node4" class="node"><title>Node4</title>
<g id="a_node4"><a xlink:href="$classAP__Param.html#a1f6efebd94bc8bfd16db8d73ad3018c6" xlink:title="AP_Param::get_default\l_value">
<polygon fill="white" stroke="black" points="294,-0 294,-30 412,-30 412,-0 294,-0"/>
<text text-anchor="start" x="302" y="-18" font-family="Helvetica,sans-Serif" font-size="10.00">AP_Param::get_default</text>
<text text-anchor="middle" x="353" y="-7" font-family="Helvetica,sans-Serif" font-size="10.00">_value</text>
</a>
</g>
</g>
<!-- Node2&#45;&gt;Node4 -->
<g id="edge3" class="edge"><title>Node2&#45;&gt;Node4</title>
<path fill="none" stroke="midnightblue" d="M257.655,-28.305C266.225,-27.0965 275.07,-25.849 283.752,-24.6247"/>
<polygon fill="midnightblue" stroke="midnightblue" points="284.429,-28.064 293.842,-23.2018 283.451,-21.1326 284.429,-28.064"/>
</g>
</g>
</svg>
