<?xml version="1.0" encoding="UTF-8" standalone="no"?>
<!DOCTYPE svg PUBLIC "-//W3C//DTD SVG 1.1//EN"
 "http://www.w3.org/Graphics/SVG/1.1/DTD/svg11.dtd">
<!-- Generated by graphviz version 2.36.0 (20140111.2315)
 -->
<!-- Title: AP_GPS::num_sats Pages: 1 -->
<svg width="802pt" height="301pt"
 viewBox="0.00 0.00 802.00 301.00" xmlns="http://www.w3.org/2000/svg" xmlns:xlink="http://www.w3.org/1999/xlink">
<g id="graph0" class="graph" transform="scale(1 1) rotate(0) translate(4 297)">
<title>AP_GPS::num_sats</title>
<polygon fill="white" stroke="none" points="-4,4 -4,-297 798,-297 798,4 -4,4"/>
<!-- Node1 -->
<g id="node1" class="node"><title>Node1</title>
<polygon fill="#bfbfbf" stroke="black" points="0.5,-115.5 0.5,-134.5 105.5,-134.5 105.5,-115.5 0.5,-115.5"/>
<text text-anchor="middle" x="53" y="-122.5" font-family="Helvetica,sans-Serif" font-size="10.00">AP_GPS::num_sats</text>
</g>
<!-- Node2 -->
<g id="node2" class="node"><title>Node2</title>
<g id="a_node2"><a xlink:href="$classAP__Frsky__Telem.html#ae2f281a86844f1853ea072f3e6d6c130" xlink:title="AP_Frsky_Telem::calc\l_gps_sats">
<polygon fill="white" stroke="black" points="160,-219 160,-249 276,-249 276,-219 160,-219"/>
<text text-anchor="start" x="168" y="-237" font-family="Helvetica,sans-Serif" font-size="10.00">AP_Frsky_Telem::calc</text>
<text text-anchor="middle" x="218" y="-226" font-family="Helvetica,sans-Serif" font-size="10.00">_gps_sats</text>
</a>
</g>
</g>
<!-- Node1&#45;&gt;Node2 -->
<g id="edge1" class="edge"><title>Node1&#45;&gt;Node2</title>
<path fill="none" stroke="midnightblue" d="M69.8545,-142.452C86.4585,-159.903 113.976,-186.585 142,-204 151.172,-209.7 161.611,-214.685 171.726,-218.869"/>
<polygon fill="midnightblue" stroke="midnightblue" points="72.0078,-139.629 62.6257,-134.707 66.8905,-144.406 72.0078,-139.629"/>
</g>
<!-- Node5 -->
<g id="node5" class="node"><title>Node5</title>
<g id="a_node5"><a xlink:href="$classNavEKF.html#a442aeaf3f7b83e2be7f737ac81486c65" xlink:title="NavEKF::calcGpsGoodToAlign">
<polygon fill="white" stroke="black" points="142,-175.5 142,-194.5 294,-194.5 294,-175.5 142,-175.5"/>
<text text-anchor="middle" x="218" y="-182.5" font-family="Helvetica,sans-Serif" font-size="10.00">NavEKF::calcGpsGoodToAlign</text>
</a>
</g>
</g>
<!-- Node1&#45;&gt;Node5 -->
<g id="edge5" class="edge"><title>Node1&#45;&gt;Node5</title>
<path fill="none" stroke="midnightblue" d="M85.1755,-138.452C101.901,-145.491 122.939,-154.064 142,-161 156.003,-166.096 171.679,-171.203 185.063,-175.389"/>
<polygon fill="midnightblue" stroke="midnightblue" points="86.4467,-135.19 75.8738,-134.509 83.7144,-141.634 86.4467,-135.19"/>
</g>
<!-- Node6 -->
<g id="node6" class="node"><title>Node6</title>
<g id="a_node6"><a xlink:href="$classNavEKF.html#a4c44a7b25f5b5584b755142c6198fd1e" xlink:title="NavEKF::readGpsData">
<polygon fill="white" stroke="black" points="335,-170.5 335,-189.5 453,-189.5 453,-170.5 335,-170.5"/>
<text text-anchor="middle" x="394" y="-177.5" font-family="Helvetica,sans-Serif" font-size="10.00">NavEKF::readGpsData</text>
</a>
</g>
</g>
<!-- Node1&#45;&gt;Node6 -->
<g id="edge16" class="edge"><title>Node1&#45;&gt;Node6</title>
<path fill="none" stroke="midnightblue" d="M115.958,-135.052C178.364,-145.177 273.902,-160.677 334.898,-170.573"/>
<polygon fill="midnightblue" stroke="midnightblue" points="116.287,-131.56 105.856,-133.413 115.166,-138.47 116.287,-131.56"/>
</g>
<!-- Node11 -->
<g id="node11" class="node"><title>Node11</title>
<g id="a_node11"><a xlink:href="$classAP__AHRS__DCM.html#a8c3304b59bc6a27f24c686985c100549" xlink:title="AP_AHRS_DCM::drift\l_correction">
<polygon fill="white" stroke="black" points="160.5,-88 160.5,-118 275.5,-118 275.5,-88 160.5,-88"/>
<text text-anchor="start" x="168.5" y="-106" font-family="Helvetica,sans-Serif" font-size="10.00">AP_AHRS_DCM::drift</text>
<text text-anchor="middle" x="218" y="-95" font-family="Helvetica,sans-Serif" font-size="10.00">_correction</text>
</a>
</g>
</g>
<!-- Node1&#45;&gt;Node11 -->
<g id="edge11" class="edge"><title>Node1&#45;&gt;Node11</title>
<path fill="none" stroke="midnightblue" d="M115.583,-116.688C130.291,-114.703 145.92,-112.594 160.391,-110.641"/>
<polygon fill="midnightblue" stroke="midnightblue" points="115.016,-113.233 105.574,-118.039 115.953,-120.17 115.016,-113.233"/>
</g>
<!-- Node14 -->
<g id="node14" class="node"><title>Node14</title>
<g id="a_node14"><a xlink:href="$classDataFlash__Class.html#a99edf88e150050fa323babcd07954c34" xlink:title="DataFlash_Class::Log\l_Write_GPS">
<polygon fill="white" stroke="black" points="161,-39 161,-69 275,-69 275,-39 161,-39"/>
<text text-anchor="start" x="169" y="-57" font-family="Helvetica,sans-Serif" font-size="10.00">DataFlash_Class::Log</text>
<text text-anchor="middle" x="218" y="-46" font-family="Helvetica,sans-Serif" font-size="10.00">_Write_GPS</text>
</a>
</g>
</g>
<!-- Node1&#45;&gt;Node14 -->
<g id="edge14" class="edge"><title>Node1&#45;&gt;Node14</title>
<path fill="none" stroke="midnightblue" d="M79.3945,-110.342C96.6963,-100.702 120.312,-88.2132 142,-79 150.337,-75.4582 159.361,-72.0809 168.163,-69.0188"/>
<polygon fill="midnightblue" stroke="midnightblue" points="77.4763,-107.405 70.4842,-115.365 80.9141,-113.503 77.4763,-107.405"/>
</g>
<!-- Node15 -->
<g id="node15" class="node"><title>Node15</title>
<g id="a_node15"><a xlink:href="$GPS__AUTO__test_8pde.html#afe461d27b9c48d5921c00d521181f12f" xlink:title="loop">
<polygon fill="white" stroke="black" points="200.5,-0.5 200.5,-19.5 235.5,-19.5 235.5,-0.5 200.5,-0.5"/>
<text text-anchor="middle" x="218" y="-7.5" font-family="Helvetica,sans-Serif" font-size="10.00">loop</text>
</a>
</g>
</g>
<!-- Node1&#45;&gt;Node15 -->
<g id="edge15" class="edge"><title>Node1&#45;&gt;Node15</title>
<path fill="none" stroke="midnightblue" d="M65.87,-106.953C80.9909,-85.4025 109.14,-49.7916 142,-30 160.239,-19.0145 184.533,-13.9708 200.461,-11.7191"/>
<polygon fill="midnightblue" stroke="midnightblue" points="62.9594,-105.009 60.2116,-115.242 68.7406,-108.956 62.9594,-105.009"/>
</g>
<!-- Node3 -->
<g id="node3" class="node"><title>Node3</title>
<g id="a_node3"><a xlink:href="$classAP__Frsky__Telem.html#a9c09b9a14c083f48e845d81484de9c0e" xlink:title="AP_Frsky_Telem::send\l_frames">
<polygon fill="white" stroke="black" points="509.5,-263 509.5,-293 628.5,-293 628.5,-263 509.5,-263"/>
<text text-anchor="start" x="517.5" y="-281" font-family="Helvetica,sans-Serif" font-size="10.00">AP_Frsky_Telem::send</text>
<text text-anchor="middle" x="569" y="-270" font-family="Helvetica,sans-Serif" font-size="10.00">_frames</text>
</a>
</g>
</g>
<!-- Node2&#45;&gt;Node3 -->
<g id="edge2" class="edge"><title>Node2&#45;&gt;Node3</title>
<path fill="none" stroke="midnightblue" d="M285.935,-249.931C300.403,-252.965 315.662,-255.857 330,-258 390.694,-267.073 460.757,-272.34 509.07,-275.169"/>
<polygon fill="midnightblue" stroke="midnightblue" points="286.577,-246.489 276.066,-247.815 285.11,-253.333 286.577,-246.489"/>
</g>
<!-- Node4 -->
<g id="node4" class="node"><title>Node4</title>
<g id="a_node4"><a xlink:href="$classAP__Frsky__Telem.html#ae386d05deadb794547df5a4e22edcc8a" xlink:title="AP_Frsky_Telem::send\l_hub_frame">
<polygon fill="white" stroke="black" points="334.5,-219 334.5,-249 453.5,-249 453.5,-219 334.5,-219"/>
<text text-anchor="start" x="342.5" y="-237" font-family="Helvetica,sans-Serif" font-size="10.00">AP_Frsky_Telem::send</text>
<text text-anchor="middle" x="394" y="-226" font-family="Helvetica,sans-Serif" font-size="10.00">_hub_frame</text>
</a>
</g>
</g>
<!-- Node2&#45;&gt;Node4 -->
<g id="edge3" class="edge"><title>Node2&#45;&gt;Node4</title>
<path fill="none" stroke="midnightblue" d="M286.663,-234C302.426,-234 319.081,-234 334.414,-234"/>
<polygon fill="midnightblue" stroke="midnightblue" points="286.456,-230.5 276.456,-234 286.456,-237.5 286.456,-230.5"/>
</g>
<!-- Node4&#45;&gt;Node3 -->
<g id="edge4" class="edge"><title>Node4&#45;&gt;Node3</title>
<path fill="none" stroke="midnightblue" d="M463.447,-251.409C478.682,-255.283 494.698,-259.357 509.49,-263.119"/>
<polygon fill="midnightblue" stroke="midnightblue" points="464.124,-247.969 453.57,-248.896 462.399,-254.753 464.124,-247.969"/>
</g>
<!-- Node5&#45;&gt;Node6 -->
<g id="edge6" class="edge"><title>Node5&#45;&gt;Node6</title>
<path fill="none" stroke="midnightblue" d="M304.063,-182.556C314.534,-182.255 325.043,-181.953 334.983,-181.667"/>
<polygon fill="midnightblue" stroke="midnightblue" points="303.949,-179.057 294.054,-182.843 304.151,-186.054 303.949,-179.057"/>
</g>
<!-- Node7 -->
<g id="node7" class="node"><title>Node7</title>
<g id="a_node7"><a xlink:href="$classNavEKF.html#a12500a621febd8f914f6e16db4c28759" xlink:title="NavEKF::InitialiseFilter\lDynamic">
<polygon fill="white" stroke="black" points="510,-214 510,-244 628,-244 628,-214 510,-214"/>
<text text-anchor="start" x="518" y="-232" font-family="Helvetica,sans-Serif" font-size="10.00">NavEKF::InitialiseFilter</text>
<text text-anchor="middle" x="569" y="-221" font-family="Helvetica,sans-Serif" font-size="10.00">Dynamic</text>
</a>
</g>
</g>
<!-- Node6&#45;&gt;Node7 -->
<g id="edge7" class="edge"><title>Node6&#45;&gt;Node7</title>
<path fill="none" stroke="midnightblue" d="M438.659,-192.366C461.822,-198.926 490.469,-207.04 514.91,-213.963"/>
<polygon fill="midnightblue" stroke="midnightblue" points="439.342,-188.922 428.767,-189.564 437.435,-195.657 439.342,-188.922"/>
</g>
<!-- Node8 -->
<g id="node8" class="node"><title>Node8</title>
<g id="a_node8"><a xlink:href="$classNavEKF.html#a290932b02347c5247f036fbc3c7af9d8" xlink:title="NavEKF::InitialiseFilter\lBootstrap">
<polygon fill="white" stroke="black" points="510,-165 510,-195 628,-195 628,-165 510,-165"/>
<text text-anchor="start" x="518" y="-183" font-family="Helvetica,sans-Serif" font-size="10.00">NavEKF::InitialiseFilter</text>
<text text-anchor="middle" x="569" y="-172" font-family="Helvetica,sans-Serif" font-size="10.00">Bootstrap</text>
</a>
</g>
</g>
<!-- Node6&#45;&gt;Node8 -->
<g id="edge8" class="edge"><title>Node6&#45;&gt;Node8</title>
<path fill="none" stroke="midnightblue" d="M463.092,-180C478.529,-180 494.786,-180 509.771,-180"/>
<polygon fill="midnightblue" stroke="midnightblue" points="463.088,-176.5 453.088,-180 463.088,-183.5 463.088,-176.5"/>
</g>
<!-- Node9 -->
<g id="node9" class="node"><title>Node9</title>
<g id="a_node9"><a xlink:href="$classNavEKF.html#a58fc44f797a61b7f760baa4961f43342" xlink:title="NavEKF::SelectVelPosFusion">
<polygon fill="white" stroke="black" points="494.5,-126.5 494.5,-145.5 643.5,-145.5 643.5,-126.5 494.5,-126.5"/>
<text text-anchor="middle" x="569" y="-133.5" font-family="Helvetica,sans-Serif" font-size="10.00">NavEKF::SelectVelPosFusion</text>
</a>
</g>
</g>
<!-- Node6&#45;&gt;Node9 -->
<g id="edge9" class="edge"><title>Node6&#45;&gt;Node9</title>
<path fill="none" stroke="midnightblue" d="M442.425,-167.938C470.17,-160.882 504.707,-152.098 530.535,-145.529"/>
<polygon fill="midnightblue" stroke="midnightblue" points="441.367,-164.596 432.538,-170.453 443.093,-171.38 441.367,-164.596"/>
</g>
<!-- Node10 -->
<g id="node10" class="node"><title>Node10</title>
<g id="a_node10"><a xlink:href="$classNavEKF.html#a58d3c9694abab421e8eadd78e72ac67c" xlink:title="NavEKF::UpdateFilter">
<polygon fill="white" stroke="black" points="680.5,-126.5 680.5,-145.5 793.5,-145.5 793.5,-126.5 680.5,-126.5"/>
<text text-anchor="middle" x="737" y="-133.5" font-family="Helvetica,sans-Serif" font-size="10.00">NavEKF::UpdateFilter</text>
</a>
</g>
</g>
<!-- Node9&#45;&gt;Node10 -->
<g id="edge10" class="edge"><title>Node9&#45;&gt;Node10</title>
<path fill="none" stroke="midnightblue" d="M653.902,-136C662.885,-136 671.854,-136 680.387,-136"/>
<polygon fill="midnightblue" stroke="midnightblue" points="653.777,-132.5 643.777,-136 653.777,-139.5 653.777,-132.5"/>
</g>
<!-- Node12 -->
<g id="node12" class="node"><title>Node12</title>
<g id="a_node12"><a xlink:href="$classAP__AHRS__DCM.html#a6bf59b99999767fdbf4dfd363bc51bfd" xlink:title="AP_AHRS_DCM::update">
<polygon fill="white" stroke="black" points="330,-91.5 330,-110.5 458,-110.5 458,-91.5 330,-91.5"/>
<text text-anchor="middle" x="394" y="-98.5" font-family="Helvetica,sans-Serif" font-size="10.00">AP_AHRS_DCM::update</text>
</a>
</g>
</g>
<!-- Node11&#45;&gt;Node12 -->
<g id="edge12" class="edge"><title>Node11&#45;&gt;Node12</title>
<path fill="none" stroke="midnightblue" d="M286.26,-102.227C300.603,-102.062 315.701,-101.888 329.882,-101.725"/>
<polygon fill="midnightblue" stroke="midnightblue" points="285.933,-98.7303 275.974,-102.345 286.014,-105.73 285.933,-98.7303"/>
</g>
<!-- Node13 -->
<g id="node13" class="node"><title>Node13</title>
<g id="a_node13"><a xlink:href="$AHRS__Test_8pde.html#a0b33edabd7f1c4e4a0bf32c67269be2f" xlink:title="loop">
<polygon fill="white" stroke="black" points="551.5,-88.5 551.5,-107.5 586.5,-107.5 586.5,-88.5 551.5,-88.5"/>
<text text-anchor="middle" x="569" y="-95.5" font-family="Helvetica,sans-Serif" font-size="10.00">loop</text>
</a>
</g>
</g>
<!-- Node12&#45;&gt;Node13 -->
<g id="edge13" class="edge"><title>Node12&#45;&gt;Node13</title>
<path fill="none" stroke="midnightblue" d="M468.733,-99.7214C499.408,-99.1895 532.274,-98.6195 551.439,-98.2872"/>
<polygon fill="midnightblue" stroke="midnightblue" points="468.374,-96.227 458.436,-99.8999 468.496,-103.226 468.374,-96.227"/>
</g>
</g>
</svg>
