<?xml version="1.0" encoding="UTF-8" standalone="no"?>
<!DOCTYPE svg PUBLIC "-//W3C//DTD SVG 1.1//EN"
 "http://www.w3.org/Graphics/SVG/1.1/DTD/svg11.dtd">
<!-- Generated by graphviz version 2.36.0 (20140111.2315)
 -->
<!-- Title: RC_Channel::get_limit_pwm Pages: 1 -->
<svg width="632pt" height="128pt"
 viewBox="0.00 0.00 632.00 127.97" xmlns="http://www.w3.org/2000/svg" xmlns:xlink="http://www.w3.org/1999/xlink">
<g id="graph0" class="graph" transform="scale(1 1) rotate(0) translate(4 123.967)">
<title>RC_Channel::get_limit_pwm</title>
<polygon fill="white" stroke="none" points="-4,4 -4,-123.967 628,-123.967 628,4 -4,4"/>
<!-- Node1 -->
<g id="node1" class="node"><title>Node1</title>
<polygon fill="#bfbfbf" stroke="black" points="0,-55.5 0,-74.5 142,-74.5 142,-55.5 0,-55.5"/>
<text text-anchor="middle" x="71" y="-62.5" font-family="Helvetica,sans-Serif" font-size="10.00">RC_Channel::get_limit_pwm</text>
</g>
<!-- Node2 -->
<g id="node2" class="node"><title>Node2</title>
<g id="a_node2"><a xlink:href="$classAPM__OBC.html#acfedfcd0f28b1d53b722766e321b534e" xlink:title="APM_OBC::check_crash\l_plane">
<polygon fill="white" stroke="black" points="496.5,-53 496.5,-83 623.5,-83 623.5,-53 496.5,-53"/>
<text text-anchor="start" x="504.5" y="-71" font-family="Helvetica,sans-Serif" font-size="10.00">APM_OBC::check_crash</text>
<text text-anchor="middle" x="560" y="-60" font-family="Helvetica,sans-Serif" font-size="10.00">_plane</text>
</a>
</g>
</g>
<!-- Node1&#45;&gt;Node2 -->
<g id="edge1" class="edge"><title>Node1&#45;&gt;Node2</title>
<path fill="none" stroke="midnightblue" d="M97.0354,-79.3655C117.923,-90.4764 148.873,-104.952 178,-111 296.294,-135.561 438.364,-103.681 511.035,-83.0457"/>
<polygon fill="midnightblue" stroke="midnightblue" points="98.6439,-76.2561 88.189,-74.5397 95.2916,-82.4012 98.6439,-76.2561"/>
</g>
<!-- Node3 -->
<g id="node3" class="node"><title>Node3</title>
<g id="a_node3"><a xlink:href="$classRC__Channel__aux.html#a987891f25f46d7795db08233cf68d81b" xlink:title="RC_Channel_aux::set\l_servo_failsafe">
<polygon fill="white" stroke="black" points="178.5,-72 178.5,-102 291.5,-102 291.5,-72 178.5,-72"/>
<text text-anchor="start" x="186.5" y="-90" font-family="Helvetica,sans-Serif" font-size="10.00">RC_Channel_aux::set</text>
<text text-anchor="middle" x="235" y="-79" font-family="Helvetica,sans-Serif" font-size="10.00">_servo_failsafe</text>
</a>
</g>
</g>
<!-- Node1&#45;&gt;Node3 -->
<g id="edge2" class="edge"><title>Node1&#45;&gt;Node3</title>
<path fill="none" stroke="midnightblue" d="M152.126,-75.8813C161.02,-77.0891 169.928,-78.2988 178.421,-79.4522"/>
<polygon fill="midnightblue" stroke="midnightblue" points="152.493,-72.3992 142.113,-74.5216 151.551,-79.3355 152.493,-72.3992"/>
</g>
<!-- Node4 -->
<g id="node4" class="node"><title>Node4</title>
<g id="a_node4"><a xlink:href="$classAPM__OBC.html#adf90097b54be3e9ffbf21f675e411b6c" xlink:title="APM_OBC::setup_failsafe">
<polygon fill="white" stroke="black" points="328,-58.5 328,-77.5 460,-77.5 460,-58.5 328,-58.5"/>
<text text-anchor="middle" x="394" y="-65.5" font-family="Helvetica,sans-Serif" font-size="10.00">APM_OBC::setup_failsafe</text>
</a>
</g>
</g>
<!-- Node1&#45;&gt;Node4 -->
<g id="edge7" class="edge"><title>Node1&#45;&gt;Node4</title>
<path fill="none" stroke="midnightblue" d="M152.449,-62.2338C194.107,-61.2244 245.793,-60.6287 292,-62 303.588,-62.3439 315.914,-62.9093 327.828,-63.5591"/>
<polygon fill="midnightblue" stroke="midnightblue" points="152.266,-58.7372 142.358,-62.491 152.444,-65.735 152.266,-58.7372"/>
</g>
<!-- Node5 -->
<g id="node5" class="node"><title>Node5</title>
<g id="a_node5"><a xlink:href="$classRC__Channel__aux.html#a51ae109c0c7a23ad9735a8571ac9ee95" xlink:title="RC_Channel_aux::set\l_servo_limit">
<polygon fill="white" stroke="black" points="337.5,-0 337.5,-30 450.5,-30 450.5,-0 337.5,-0"/>
<text text-anchor="start" x="345.5" y="-18" font-family="Helvetica,sans-Serif" font-size="10.00">RC_Channel_aux::set</text>
<text text-anchor="middle" x="394" y="-7" font-family="Helvetica,sans-Serif" font-size="10.00">_servo_limit</text>
</a>
</g>
</g>
<!-- Node1&#45;&gt;Node5 -->
<g id="edge5" class="edge"><title>Node1&#45;&gt;Node5</title>
<path fill="none" stroke="midnightblue" d="M143.057,-53.9319C201.646,-44.8059 283.595,-32.0412 337.458,-23.6514"/>
<polygon fill="midnightblue" stroke="midnightblue" points="142.475,-50.4802 133.133,-55.4777 143.553,-57.3968 142.475,-50.4802"/>
</g>
<!-- Node3&#45;&gt;Node4 -->
<g id="edge3" class="edge"><title>Node3&#45;&gt;Node4</title>
<path fill="none" stroke="midnightblue" d="M301.758,-79.042C310.349,-78.0024 319.149,-76.9374 327.732,-75.8987"/>
<polygon fill="midnightblue" stroke="midnightblue" points="301.301,-75.5717 291.794,-80.2478 302.142,-82.5209 301.301,-75.5717"/>
</g>
<!-- Node4&#45;&gt;Node2 -->
<g id="edge4" class="edge"><title>Node4&#45;&gt;Node2</title>
<path fill="none" stroke="midnightblue" d="M470.405,-68C479.081,-68 487.857,-68 496.34,-68"/>
<polygon fill="midnightblue" stroke="midnightblue" points="470.288,-64.5001 460.288,-68 470.288,-71.5001 470.288,-64.5001"/>
</g>
<!-- Node5&#45;&gt;Node2 -->
<g id="edge6" class="edge"><title>Node5&#45;&gt;Node2</title>
<path fill="none" stroke="midnightblue" d="M451.136,-33.1414C471.067,-39.5827 493.27,-46.7581 512.326,-52.9165"/>
<polygon fill="midnightblue" stroke="midnightblue" points="452.149,-29.7907 441.557,-30.0459 449.996,-36.4515 452.149,-29.7907"/>
</g>
</g>
</svg>
