<?xml version="1.0" encoding="UTF-8" standalone="no"?>
<!DOCTYPE svg PUBLIC "-//W3C//DTD SVG 1.1//EN"
 "http://www.w3.org/Graphics/SVG/1.1/DTD/svg11.dtd">
<!-- Generated by graphviz version 2.36.0 (20140111.2315)
 -->
<!-- Title: AP_PitchController::autotune_start Pages: 1 -->
<svg width="394pt" height="115pt"
 viewBox="0.00 0.00 394.00 115.00" xmlns="http://www.w3.org/2000/svg" xmlns:xlink="http://www.w3.org/1999/xlink">
<g id="graph0" class="graph" transform="scale(1 1) rotate(0) translate(4 111)">
<title>AP_PitchController::autotune_start</title>
<polygon fill="white" stroke="none" points="-4,4 -4,-111 390,-111 390,4 -4,4"/>
<!-- Node1 -->
<g id="node1" class="node"><title>Node1</title>
<polygon fill="#bfbfbf" stroke="black" points="0,-33 0,-63 100,-63 100,-33 0,-33"/>
<text text-anchor="start" x="8" y="-51" font-family="Helvetica,sans-Serif" font-size="10.00">AP_PitchController</text>
<text text-anchor="middle" x="50" y="-40" font-family="Helvetica,sans-Serif" font-size="10.00">::autotune_start</text>
</g>
<!-- Node2 -->
<g id="node2" class="node"><title>Node2</title>
<g id="a_node2"><a xlink:href="$classAP__AutoTune.html#a110fe2abe9d166b62092a16d0fa2c70a" xlink:title="AP_AutoTune::start">
<polygon fill="white" stroke="black" points="136.5,-38.5 136.5,-57.5 239.5,-57.5 239.5,-38.5 136.5,-38.5"/>
<text text-anchor="middle" x="188" y="-45.5" font-family="Helvetica,sans-Serif" font-size="10.00">AP_AutoTune::start</text>
</a>
</g>
</g>
<!-- Node1&#45;&gt;Node2 -->
<g id="edge1" class="edge"><title>Node1&#45;&gt;Node2</title>
<path fill="none" stroke="midnightblue" d="M100.099,-48C108.521,-48 117.363,-48 126.049,-48"/>
<polygon fill="midnightblue" stroke="midnightblue" points="126.141,-51.5001 136.141,-48 126.141,-44.5001 126.141,-51.5001"/>
</g>
<!-- Node3 -->
<g id="node3" class="node"><title>Node3</title>
<g id="a_node3"><a xlink:href="$classAP__HAL_1_1Scheduler.html#a26b68339fc68a562d8d3a1238d0ec8c1" xlink:title="AP_HAL::Scheduler::\lmillis">
<polygon fill="white" stroke="black" points="276,-77 276,-107 386,-107 386,-77 276,-77"/>
<text text-anchor="start" x="284" y="-95" font-family="Helvetica,sans-Serif" font-size="10.00">AP_HAL::Scheduler::</text>
<text text-anchor="middle" x="331" y="-84" font-family="Helvetica,sans-Serif" font-size="10.00">millis</text>
</a>
</g>
</g>
<!-- Node2&#45;&gt;Node3 -->
<g id="edge2" class="edge"><title>Node2&#45;&gt;Node3</title>
<path fill="none" stroke="midnightblue" d="M219.595,-57.5473C234.903,-62.3243 253.954,-68.2692 271.898,-73.8689"/>
<polygon fill="midnightblue" stroke="midnightblue" points="271.134,-77.2968 281.722,-76.9346 273.219,-70.6146 271.134,-77.2968"/>
</g>
<!-- Node4 -->
<g id="node4" class="node"><title>Node4</title>
<g id="a_node4"><a xlink:href="$AP__Progmem__Identity_8h.html#a90f10dd78145eef44fb2092a65a6d5db" xlink:title="pgm_read_float">
<polygon fill="white" stroke="black" points="289.5,-38.5 289.5,-57.5 372.5,-57.5 372.5,-38.5 289.5,-38.5"/>
<text text-anchor="middle" x="331" y="-45.5" font-family="Helvetica,sans-Serif" font-size="10.00">pgm_read_float</text>
</a>
</g>
</g>
<!-- Node2&#45;&gt;Node4 -->
<g id="edge3" class="edge"><title>Node2&#45;&gt;Node4</title>
<path fill="none" stroke="midnightblue" d="M239.506,-48C252.35,-48 266.16,-48 279.028,-48"/>
<polygon fill="midnightblue" stroke="midnightblue" points="279.109,-51.5001 289.109,-48 279.109,-44.5001 279.109,-51.5001"/>
</g>
<!-- Node5 -->
<g id="node5" class="node"><title>Node5</title>
<g id="a_node5"><a xlink:href="$AP__Math_8cpp.html#a08eedb329d8162ddbd344d4f6c8cde20" xlink:title="constrain_float">
<polygon fill="white" stroke="black" points="291,-0.5 291,-19.5 371,-19.5 371,-0.5 291,-0.5"/>
<text text-anchor="middle" x="331" y="-7.5" font-family="Helvetica,sans-Serif" font-size="10.00">constrain_float</text>
</a>
</g>
</g>
<!-- Node2&#45;&gt;Node5 -->
<g id="edge4" class="edge"><title>Node2&#45;&gt;Node5</title>
<path fill="none" stroke="midnightblue" d="M224.58,-38.411C242.782,-33.5056 265.138,-27.4804 284.572,-22.2429"/>
<polygon fill="midnightblue" stroke="midnightblue" points="285.686,-25.5676 294.431,-19.5859 283.865,-18.8088 285.686,-25.5676"/>
</g>
</g>
</svg>
