<?xml version="1.0" encoding="UTF-8" standalone="no"?>
<!DOCTYPE svg PUBLIC "-//W3C//DTD SVG 1.1//EN"
 "http://www.w3.org/Graphics/SVG/1.1/DTD/svg11.dtd">
<!-- Generated by graphviz version 2.36.0 (20140111.2315)
 -->
<!-- Title: AP_TECS::_update_pitch Pages: 1 -->
<svg width="464pt" height="154pt"
 viewBox="0.00 0.00 464.00 154.00" xmlns="http://www.w3.org/2000/svg" xmlns:xlink="http://www.w3.org/1999/xlink">
<g id="graph0" class="graph" transform="scale(1 1) rotate(0) translate(4 150)">
<title>AP_TECS::_update_pitch</title>
<polygon fill="white" stroke="none" points="-4,4 -4,-150 460,-150 460,4 -4,4"/>
<!-- Node1 -->
<g id="node1" class="node"><title>Node1</title>
<polygon fill="#bfbfbf" stroke="black" points="0.5,-60.5 0.5,-79.5 129.5,-79.5 129.5,-60.5 0.5,-60.5"/>
<text text-anchor="middle" x="65" y="-67.5" font-family="Helvetica,sans-Serif" font-size="10.00">AP_TECS::_update_pitch</text>
</g>
<!-- Node2 -->
<g id="node2" class="node"><title>Node2</title>
<g id="a_node2"><a xlink:href="$AP__Math_8cpp.html#a08eedb329d8162ddbd344d4f6c8cde20" xlink:title="constrain_float">
<polygon fill="white" stroke="black" points="197,-126.5 197,-145.5 277,-145.5 277,-126.5 197,-126.5"/>
<text text-anchor="middle" x="237" y="-133.5" font-family="Helvetica,sans-Serif" font-size="10.00">constrain_float</text>
</a>
</g>
</g>
<!-- Node1&#45;&gt;Node2 -->
<g id="edge1" class="edge"><title>Node1&#45;&gt;Node2</title>
<path fill="none" stroke="midnightblue" d="M84.4385,-79.5181C104.236,-89.4905 136.79,-105.181 166,-116 173.334,-118.716 181.211,-121.288 188.942,-123.626"/>
<polygon fill="midnightblue" stroke="midnightblue" points="188.023,-127.004 198.603,-126.456 189.99,-120.286 188.023,-127.004"/>
</g>
<!-- Node3 -->
<g id="node3" class="node"><title>Node3</title>
<g id="a_node3"><a xlink:href="$classAP__AHRS.html#a8691156c332da099e3f5952e72ae2a58" xlink:title="AP_AHRS::airspeed_sensor\l_enabled">
<polygon fill="white" stroke="black" points="166.5,-77 166.5,-107 307.5,-107 307.5,-77 166.5,-77"/>
<text text-anchor="start" x="174.5" y="-95" font-family="Helvetica,sans-Serif" font-size="10.00">AP_AHRS::airspeed_sensor</text>
<text text-anchor="middle" x="237" y="-84" font-family="Helvetica,sans-Serif" font-size="10.00">_enabled</text>
</a>
</g>
</g>
<!-- Node1&#45;&gt;Node3 -->
<g id="edge2" class="edge"><title>Node1&#45;&gt;Node3</title>
<path fill="none" stroke="midnightblue" d="M129.785,-78.2546C138.479,-79.3796 147.489,-80.5456 156.419,-81.7012"/>
<polygon fill="midnightblue" stroke="midnightblue" points="156.079,-85.1864 166.445,-82.9988 156.977,-78.2443 156.079,-85.1864"/>
</g>
<!-- Node6 -->
<g id="node6" class="node"><title>Node6</title>
<g id="a_node6"><a xlink:href="$AP__Math_8cpp.html#a08666a85f465dfe5701cc8c878e4b2c5" xlink:title="degrees">
<polygon fill="white" stroke="black" points="211.5,-38.5 211.5,-57.5 262.5,-57.5 262.5,-38.5 211.5,-38.5"/>
<text text-anchor="middle" x="237" y="-45.5" font-family="Helvetica,sans-Serif" font-size="10.00">degrees</text>
</a>
</g>
</g>
<!-- Node1&#45;&gt;Node6 -->
<g id="edge5" class="edge"><title>Node1&#45;&gt;Node6</title>
<path fill="none" stroke="midnightblue" d="M129.785,-61.7454C154.015,-58.6098 180.701,-55.1563 201.263,-52.4953"/>
<polygon fill="midnightblue" stroke="midnightblue" points="201.944,-55.9365 211.413,-51.1819 201.046,-48.9944 201.944,-55.9365"/>
</g>
<!-- Node7 -->
<g id="node7" class="node"><title>Node7</title>
<g id="a_node7"><a xlink:href="$classAP__TECS.html#a10c1bce8067ade79dfebc3c8ad4b0e42" xlink:title="AP_TECS::timeConstant">
<polygon fill="white" stroke="black" points="173.5,-0.5 173.5,-19.5 300.5,-19.5 300.5,-0.5 173.5,-0.5"/>
<text text-anchor="middle" x="237" y="-7.5" font-family="Helvetica,sans-Serif" font-size="10.00">AP_TECS::timeConstant</text>
</a>
</g>
</g>
<!-- Node1&#45;&gt;Node7 -->
<g id="edge6" class="edge"><title>Node1&#45;&gt;Node7</title>
<path fill="none" stroke="midnightblue" d="M87.1664,-60.4241C107.21,-51.5717 138.28,-38.404 166,-29 172.969,-26.6359 180.403,-24.361 187.728,-22.2579"/>
<polygon fill="midnightblue" stroke="midnightblue" points="188.904,-25.5637 197.595,-19.5041 187.022,-18.8213 188.904,-25.5637"/>
</g>
<!-- Node4 -->
<g id="node4" class="node"><title>Node4</title>
<g id="a_node4"><a xlink:href="$classAP__Airspeed.html#a6162295b433e3a863c0d4b9086b19014" xlink:title="AP_Airspeed::use">
<polygon fill="white" stroke="black" points="352.5,-101.5 352.5,-120.5 447.5,-120.5 447.5,-101.5 352.5,-101.5"/>
<text text-anchor="middle" x="400" y="-108.5" font-family="Helvetica,sans-Serif" font-size="10.00">AP_Airspeed::use</text>
</a>
</g>
</g>
<!-- Node3&#45;&gt;Node4 -->
<g id="edge3" class="edge"><title>Node3&#45;&gt;Node4</title>
<path fill="none" stroke="midnightblue" d="M307.681,-100.223C319.262,-101.59 331.148,-102.993 342.356,-104.315"/>
<polygon fill="midnightblue" stroke="midnightblue" points="342.089,-107.808 352.43,-105.504 342.91,-100.856 342.089,-107.808"/>
</g>
<!-- Node5 -->
<g id="node5" class="node"><title>Node5</title>
<g id="a_node5"><a xlink:href="$classAP__Airspeed.html#acddaade777fa87d5b8c904c79be01204" xlink:title="AP_Airspeed::healthy">
<polygon fill="white" stroke="black" points="344.5,-63.5 344.5,-82.5 455.5,-82.5 455.5,-63.5 344.5,-63.5"/>
<text text-anchor="middle" x="400" y="-70.5" font-family="Helvetica,sans-Serif" font-size="10.00">AP_Airspeed::healthy</text>
</a>
</g>
</g>
<!-- Node3&#45;&gt;Node5 -->
<g id="edge4" class="edge"><title>Node3&#45;&gt;Node5</title>
<path fill="none" stroke="midnightblue" d="M307.681,-83.7768C316.476,-82.7388 325.448,-81.6801 334.164,-80.6514"/>
<polygon fill="midnightblue" stroke="midnightblue" points="334.733,-84.1087 344.254,-79.4607 333.913,-77.1569 334.733,-84.1087"/>
</g>
</g>
</svg>
