<?xml version="1.0" encoding="UTF-8" standalone="no"?>
<!DOCTYPE svg PUBLIC "-//W3C//DTD SVG 1.1//EN"
 "http://www.w3.org/Graphics/SVG/1.1/DTD/svg11.dtd">
<!-- Generated by graphviz version 2.36.0 (20140111.2315)
 -->
<!-- Title: AP_ADC_ADS1115::_convert_register_data_to_mv Pages: 1 -->
<svg width="634pt" height="38pt"
 viewBox="0.00 0.00 634.00 38.00" xmlns="http://www.w3.org/2000/svg" xmlns:xlink="http://www.w3.org/1999/xlink">
<g id="graph0" class="graph" transform="scale(1 1) rotate(0) translate(4 34)">
<title>AP_ADC_ADS1115::_convert_register_data_to_mv</title>
<polygon fill="white" stroke="none" points="-4,4 -4,-34 630,-34 630,4 -4,4"/>
<!-- Node1 -->
<g id="node1" class="node"><title>Node1</title>
<polygon fill="#bfbfbf" stroke="black" points="0,-0 0,-30 148,-30 148,-0 0,-0"/>
<text text-anchor="start" x="8" y="-18" font-family="Helvetica,sans-Serif" font-size="10.00">AP_ADC_ADS1115::_convert</text>
<text text-anchor="middle" x="74" y="-7" font-family="Helvetica,sans-Serif" font-size="10.00">_register_data_to_mv</text>
</g>
<!-- Node2 -->
<g id="node2" class="node"><title>Node2</title>
<g id="a_node2"><a xlink:href="$classAP__ADC__ADS1115.html#a1c523a000d6cb67770e04e3821cc54b3" xlink:title="AP_ADC_ADS1115::_update">
<polygon fill="white" stroke="black" points="184.5,-5.5 184.5,-24.5 329.5,-24.5 329.5,-5.5 184.5,-5.5"/>
<text text-anchor="middle" x="257" y="-12.5" font-family="Helvetica,sans-Serif" font-size="10.00">AP_ADC_ADS1115::_update</text>
</a>
</g>
</g>
<!-- Node1&#45;&gt;Node2 -->
<g id="edge1" class="edge"><title>Node1&#45;&gt;Node2</title>
<path fill="none" stroke="midnightblue" d="M158.278,-15C167.002,-15 175.816,-15 184.393,-15"/>
<polygon fill="midnightblue" stroke="midnightblue" points="158.098,-11.5001 148.098,-15 158.098,-18.5001 158.098,-11.5001"/>
</g>
<!-- Node3 -->
<g id="node3" class="node"><title>Node3</title>
<g id="a_node3"><a xlink:href="$classAP__ADC__ADS1115.html#ab9dda3a5715a514b78effc0164e6a1c9" xlink:title="AP_ADC_ADS1115::init">
<polygon fill="white" stroke="black" points="366.5,-5.5 366.5,-24.5 489.5,-24.5 489.5,-5.5 366.5,-5.5"/>
<text text-anchor="middle" x="428" y="-12.5" font-family="Helvetica,sans-Serif" font-size="10.00">AP_ADC_ADS1115::init</text>
</a>
</g>
</g>
<!-- Node2&#45;&gt;Node3 -->
<g id="edge2" class="edge"><title>Node2&#45;&gt;Node3</title>
<path fill="none" stroke="midnightblue" d="M339.768,-15C348.746,-15 357.765,-15 366.42,-15"/>
<polygon fill="midnightblue" stroke="midnightblue" points="339.671,-11.5001 329.671,-15 339.671,-18.5001 339.671,-11.5001"/>
</g>
<!-- Node4 -->
<g id="node4" class="node"><title>Node4</title>
<g id="a_node4"><a xlink:href="$classNavioAnalogIn.html#a86419e9f2486bef44753fb15f5bb3ae9" xlink:title="NavioAnalogIn::init">
<polygon fill="white" stroke="black" points="526.5,-5.5 526.5,-24.5 625.5,-24.5 625.5,-5.5 526.5,-5.5"/>
<text text-anchor="middle" x="576" y="-12.5" font-family="Helvetica,sans-Serif" font-size="10.00">NavioAnalogIn::init</text>
</a>
</g>
</g>
<!-- Node3&#45;&gt;Node4 -->
<g id="edge3" class="edge"><title>Node3&#45;&gt;Node4</title>
<path fill="none" stroke="midnightblue" d="M499.752,-15C508.744,-15 517.781,-15 526.318,-15"/>
<polygon fill="midnightblue" stroke="midnightblue" points="499.649,-11.5001 489.649,-15 499.649,-18.5001 499.649,-11.5001"/>
</g>
</g>
</svg>
