<?xml version="1.0" encoding="UTF-8" standalone="no"?>
<!DOCTYPE svg PUBLIC "-//W3C//DTD SVG 1.1//EN"
 "http://www.w3.org/Graphics/SVG/1.1/DTD/svg11.dtd">
<!-- Generated by graphviz version 2.36.0 (20140111.2315)
 -->
<!-- Title: AC_PosControl::set_speed_xy Pages: 1 -->
<svg width="476pt" height="213pt"
 viewBox="0.00 0.00 476.00 213.00" xmlns="http://www.w3.org/2000/svg" xmlns:xlink="http://www.w3.org/1999/xlink">
<g id="graph0" class="graph" transform="scale(1 1) rotate(0) translate(4 209)">
<title>AC_PosControl::set_speed_xy</title>
<polygon fill="white" stroke="none" points="-4,4 -4,-209 472,-209 472,4 -4,4"/>
<!-- Node1 -->
<g id="node1" class="node"><title>Node1</title>
<polygon fill="#bfbfbf" stroke="black" points="0,-77 0,-107 104,-107 104,-77 0,-77"/>
<text text-anchor="start" x="8" y="-95" font-family="Helvetica,sans-Serif" font-size="10.00">AC_PosControl::set</text>
<text text-anchor="middle" x="52" y="-84" font-family="Helvetica,sans-Serif" font-size="10.00">_speed_xy</text>
</g>
<!-- Node2 -->
<g id="node2" class="node"><title>Node2</title>
<g id="a_node2"><a xlink:href="$classAC__WPNav.html#a3dbf7bda89b127cdc81bca29e2af25de" xlink:title="AC_WPNav::calc_loiter\l_desired_velocity">
<polygon fill="white" stroke="black" points="159.5,-175 159.5,-205 280.5,-205 280.5,-175 159.5,-175"/>
<text text-anchor="start" x="167.5" y="-193" font-family="Helvetica,sans-Serif" font-size="10.00">AC_WPNav::calc_loiter</text>
<text text-anchor="middle" x="220" y="-182" font-family="Helvetica,sans-Serif" font-size="10.00">_desired_velocity</text>
</a>
</g>
</g>
<!-- Node1&#45;&gt;Node2 -->
<g id="edge1" class="edge"><title>Node1&#45;&gt;Node2</title>
<path fill="none" stroke="midnightblue" d="M74.8641,-114.585C91.4453,-130.594 115.496,-151.54 140,-165 146.809,-168.74 154.26,-172.015 161.78,-174.854"/>
<polygon fill="midnightblue" stroke="midnightblue" points="76.9319,-111.709 67.355,-107.177 72.0158,-116.692 76.9319,-111.709"/>
</g>
<!-- Node4 -->
<g id="node4" class="node"><title>Node4</title>
<g id="a_node4"><a xlink:href="$classAC__WPNav.html#a2ed86e41fc51c2ea822711ea95d055f0" xlink:title="init_brake_target &#45; initializes stop position from current position and velocity ">
<polygon fill="white" stroke="black" points="160.5,-126 160.5,-156 279.5,-156 279.5,-126 160.5,-126"/>
<text text-anchor="start" x="168.5" y="-144" font-family="Helvetica,sans-Serif" font-size="10.00">AC_WPNav::init_brake</text>
<text text-anchor="middle" x="220" y="-133" font-family="Helvetica,sans-Serif" font-size="10.00">_target</text>
</a>
</g>
</g>
<!-- Node1&#45;&gt;Node4 -->
<g id="edge3" class="edge"><title>Node1&#45;&gt;Node4</title>
<path fill="none" stroke="midnightblue" d="M113.868,-109.967C131.654,-115.217 150.902,-120.899 168.009,-125.948"/>
<polygon fill="midnightblue" stroke="midnightblue" points="114.742,-106.576 104.16,-107.101 112.76,-113.289 114.742,-106.576"/>
</g>
<!-- Node5 -->
<g id="node5" class="node"><title>Node5</title>
<g id="a_node5"><a xlink:href="$classAC__WPNav.html#a3bd3abac616805d338d31255d76e978e" xlink:title="init_loiter_target in cm from home ">
<polygon fill="white" stroke="black" points="162,-77 162,-107 278,-107 278,-77 162,-77"/>
<text text-anchor="start" x="170" y="-95" font-family="Helvetica,sans-Serif" font-size="10.00">AC_WPNav::init_loiter</text>
<text text-anchor="middle" x="220" y="-84" font-family="Helvetica,sans-Serif" font-size="10.00">_target</text>
</a>
</g>
</g>
<!-- Node1&#45;&gt;Node5 -->
<g id="edge4" class="edge"><title>Node1&#45;&gt;Node5</title>
<path fill="none" stroke="midnightblue" d="M114.23,-92C129.834,-92 146.543,-92 161.93,-92"/>
<polygon fill="midnightblue" stroke="midnightblue" points="114.16,-88.5001 104.16,-92 114.16,-95.5001 114.16,-88.5001"/>
</g>
<!-- Node6 -->
<g id="node6" class="node"><title>Node6</title>
<g id="a_node6"><a xlink:href="$classAC__WPNav.html#a0ff7209545f3c7169054b2ee79cd4216" xlink:title="set_speed_xy &#45; allows main code to pass target horizontal velocity for wp navigation ...">
<polygon fill="white" stroke="black" points="151.5,-38.5 151.5,-57.5 288.5,-57.5 288.5,-38.5 151.5,-38.5"/>
<text text-anchor="middle" x="220" y="-45.5" font-family="Helvetica,sans-Serif" font-size="10.00">AC_WPNav::set_speed_xy</text>
</a>
</g>
</g>
<!-- Node1&#45;&gt;Node6 -->
<g id="edge5" class="edge"><title>Node1&#45;&gt;Node6</title>
<path fill="none" stroke="midnightblue" d="M113.826,-75.0438C122.6,-72.6492 131.526,-70.2413 140,-68 153.267,-64.491 167.823,-60.7698 180.785,-57.501"/>
<polygon fill="midnightblue" stroke="midnightblue" points="112.735,-71.7137 104.015,-77.7322 114.585,-78.4648 112.735,-71.7137"/>
</g>
<!-- Node7 -->
<g id="node7" class="node"><title>Node7</title>
<g id="a_node7"><a xlink:href="$classAC__WPNav.html#a47964df8ebcc78bb101f328a23187e65" xlink:title="AC_WPNav::wp_and_spline_init">
<polygon fill="white" stroke="black" points="140.5,-0.5 140.5,-19.5 299.5,-19.5 299.5,-0.5 140.5,-0.5"/>
<text text-anchor="middle" x="220" y="-7.5" font-family="Helvetica,sans-Serif" font-size="10.00">AC_WPNav::wp_and_spline_init</text>
</a>
</g>
</g>
<!-- Node1&#45;&gt;Node7 -->
<g id="edge6" class="edge"><title>Node1&#45;&gt;Node7</title>
<path fill="none" stroke="midnightblue" d="M77.7753,-69.9987C94.3417,-56.357 117.208,-39.4912 140,-29 148.329,-25.1661 157.522,-22.0542 166.602,-19.5449"/>
<polygon fill="midnightblue" stroke="midnightblue" points="75.1109,-67.6669 69.7201,-76.7877 79.6221,-73.0194 75.1109,-67.6669"/>
</g>
<!-- Node3 -->
<g id="node3" class="node"><title>Node3</title>
<g id="a_node3"><a xlink:href="$classAC__WPNav.html#a0a434270245fd8641352af387700dc82" xlink:title="update_loiter &#45; run the loiter controller &#45; should be called at 10hz ">
<polygon fill="white" stroke="black" points="336,-180.5 336,-199.5 468,-199.5 468,-180.5 336,-180.5"/>
<text text-anchor="middle" x="402" y="-187.5" font-family="Helvetica,sans-Serif" font-size="10.00">AC_WPNav::update_loiter</text>
</a>
</g>
</g>
<!-- Node2&#45;&gt;Node3 -->
<g id="edge2" class="edge"><title>Node2&#45;&gt;Node3</title>
<path fill="none" stroke="midnightblue" d="M290.994,-190C305.723,-190 321.206,-190 335.753,-190"/>
<polygon fill="midnightblue" stroke="midnightblue" points="290.937,-186.5 280.937,-190 290.937,-193.5 290.937,-186.5"/>
</g>
</g>
</svg>
