<?xml version="1.0" encoding="UTF-8" standalone="no"?>
<!DOCTYPE svg PUBLIC "-//W3C//DTD SVG 1.1//EN"
 "http://www.w3.org/Graphics/SVG/1.1/DTD/svg11.dtd">
<!-- Generated by graphviz version 2.36.0 (20140111.2315)
 -->
<!-- Title: Linux::LinuxRCInput Pages: 1 -->
<svg width="424pt" height="164pt"
 viewBox="0.00 0.00 424.00 164.00" xmlns="http://www.w3.org/2000/svg" xmlns:xlink="http://www.w3.org/1999/xlink">
<g id="graph0" class="graph" transform="scale(1 1) rotate(0) translate(4 160)">
<title>Linux::LinuxRCInput</title>
<polygon fill="white" stroke="none" points="-4,4 -4,-160 420,-160 420,4 -4,4"/>
<!-- Node1 -->
<g id="node1" class="node"><title>Node1</title>
<polygon fill="#bfbfbf" stroke="black" points="134,-60.5 134,-79.5 240,-79.5 240,-60.5 134,-60.5"/>
<text text-anchor="middle" x="187" y="-67.5" font-family="Helvetica,sans-Serif" font-size="10.00">Linux::LinuxRCInput</text>
</g>
<!-- Node3 -->
<g id="node3" class="node"><title>Node3</title>
<g id="a_node3"><a xlink:href="$classLinux_1_1LinuxRCInput__AioPRU.html" xlink:title="Linux::LinuxRCInput\l_AioPRU">
<polygon fill="white" stroke="black" points="293,-126 293,-156 399,-156 399,-126 293,-126"/>
<text text-anchor="start" x="301" y="-144" font-family="Helvetica,sans-Serif" font-size="10.00">Linux::LinuxRCInput</text>
<text text-anchor="middle" x="346" y="-133" font-family="Helvetica,sans-Serif" font-size="10.00">_AioPRU</text>
</a>
</g>
</g>
<!-- Node1&#45;&gt;Node3 -->
<g id="edge2" class="edge"><title>Node1&#45;&gt;Node3</title>
<path fill="none" stroke="midnightblue" d="M213.473,-84.4761C230.809,-94.0375 254.433,-106.507 276,-116 283.813,-119.439 292.263,-122.79 300.481,-125.864"/>
<polygon fill="midnightblue" stroke="midnightblue" points="214.981,-81.3098 204.542,-79.5008 211.575,-87.425 214.981,-81.3098"/>
</g>
<!-- Node4 -->
<g id="node4" class="node"><title>Node4</title>
<g id="a_node4"><a xlink:href="$classLinux_1_1LinuxRCInput__Navio.html" xlink:title="Linux::LinuxRCInput\l_Navio">
<polygon fill="white" stroke="black" points="293,-77 293,-107 399,-107 399,-77 293,-77"/>
<text text-anchor="start" x="301" y="-95" font-family="Helvetica,sans-Serif" font-size="10.00">Linux::LinuxRCInput</text>
<text text-anchor="middle" x="346" y="-84" font-family="Helvetica,sans-Serif" font-size="10.00">_Navio</text>
</a>
</g>
</g>
<!-- Node1&#45;&gt;Node4 -->
<g id="edge3" class="edge"><title>Node1&#45;&gt;Node4</title>
<path fill="none" stroke="midnightblue" d="M250.393,-78.7429C264.496,-80.7192 279.325,-82.7971 292.95,-84.7063"/>
<polygon fill="midnightblue" stroke="midnightblue" points="250.668,-75.2473 240.279,-77.3257 249.696,-82.1796 250.668,-75.2473"/>
</g>
<!-- Node5 -->
<g id="node5" class="node"><title>Node5</title>
<g id="a_node5"><a xlink:href="$classLinux_1_1LinuxRCInput__PRU.html" xlink:title="Linux::LinuxRCInput_PRU">
<polygon fill="white" stroke="black" points="279.5,-38.5 279.5,-57.5 412.5,-57.5 412.5,-38.5 279.5,-38.5"/>
<text text-anchor="middle" x="346" y="-45.5" font-family="Helvetica,sans-Serif" font-size="10.00">Linux::LinuxRCInput_PRU</text>
</a>
</g>
</g>
<!-- Node1&#45;&gt;Node5 -->
<g id="edge4" class="edge"><title>Node1&#45;&gt;Node5</title>
<path fill="none" stroke="midnightblue" d="M250.414,-61.254C259.899,-59.925 269.711,-58.5501 279.264,-57.2115"/>
<polygon fill="midnightblue" stroke="midnightblue" points="249.696,-57.8204 240.279,-62.6743 250.668,-64.7527 249.696,-57.8204"/>
</g>
<!-- Node6 -->
<g id="node6" class="node"><title>Node6</title>
<g id="a_node6"><a xlink:href="$classLinux_1_1LinuxRCInput__ZYNQ.html" xlink:title="Linux::LinuxRCInput_ZYNQ">
<polygon fill="white" stroke="black" points="276.5,-0.5 276.5,-19.5 415.5,-19.5 415.5,-0.5 276.5,-0.5"/>
<text text-anchor="middle" x="346" y="-7.5" font-family="Helvetica,sans-Serif" font-size="10.00">Linux::LinuxRCInput_ZYNQ</text>
</a>
</g>
</g>
<!-- Node1&#45;&gt;Node6 -->
<g id="edge5" class="edge"><title>Node1&#45;&gt;Node6</title>
<path fill="none" stroke="midnightblue" d="M215.536,-55.7178C232.636,-47.2164 255.239,-36.6339 276,-29 285.563,-25.4839 296.079,-22.2708 305.956,-19.5275"/>
<polygon fill="midnightblue" stroke="midnightblue" points="213.514,-52.8178 206.16,-60.4448 216.665,-59.0684 213.514,-52.8178"/>
</g>
<!-- Node2 -->
<g id="node2" class="node"><title>Node2</title>
<g id="a_node2"><a xlink:href="$classAP__HAL_1_1RCInput.html" xlink:title="AP_HAL::RCInput">
<polygon fill="white" stroke="black" points="0,-60.5 0,-79.5 98,-79.5 98,-60.5 0,-60.5"/>
<text text-anchor="middle" x="49" y="-67.5" font-family="Helvetica,sans-Serif" font-size="10.00">AP_HAL::RCInput</text>
</a>
</g>
</g>
<!-- Node2&#45;&gt;Node1 -->
<g id="edge1" class="edge"><title>Node2&#45;&gt;Node1</title>
<path fill="none" stroke="midnightblue" d="M108.432,-70C116.821,-70 125.409,-70 133.671,-70"/>
<polygon fill="midnightblue" stroke="midnightblue" points="108.331,-66.5001 98.3314,-70 108.331,-73.5001 108.331,-66.5001"/>
</g>
</g>
</svg>
