<?xml version="1.0" encoding="UTF-8" standalone="no"?>
<!DOCTYPE svg PUBLIC "-//W3C//DTD SVG 1.1//EN"
 "http://www.w3.org/Graphics/SVG/1.1/DTD/svg11.dtd">
<!-- Generated by graphviz version 2.36.0 (20140111.2315)
 -->
<!-- Title: Linux::LinuxSPIDeviceManager::init Pages: 1 -->
<svg width="504pt" height="175pt"
 viewBox="0.00 0.00 504.00 175.00" xmlns="http://www.w3.org/2000/svg" xmlns:xlink="http://www.w3.org/1999/xlink">
<g id="graph0" class="graph" transform="scale(1 1) rotate(0) translate(4 171)">
<title>Linux::LinuxSPIDeviceManager::init</title>
<polygon fill="white" stroke="none" points="-4,4 -4,-171 500,-171 500,4 -4,4"/>
<!-- Node1 -->
<g id="node1" class="node"><title>Node1</title>
<polygon fill="#bfbfbf" stroke="black" points="0,-115 0,-145 154,-145 154,-115 0,-115"/>
<text text-anchor="start" x="8" y="-133" font-family="Helvetica,sans-Serif" font-size="10.00">Linux::LinuxSPIDeviceManager</text>
<text text-anchor="middle" x="77" y="-122" font-family="Helvetica,sans-Serif" font-size="10.00">::init</text>
</g>
<!-- Node2 -->
<g id="node2" class="node"><title>Node2</title>
<g id="a_node2"><a xlink:href="$classAP__HAL_1_1Scheduler.html#a65f0d4e404d3e6fda4d8b0b101c9780f" xlink:title="AP_HAL::Scheduler::\lpanic">
<polygon fill="white" stroke="black" points="378,-137 378,-167 488,-167 488,-137 378,-137"/>
<text text-anchor="start" x="386" y="-155" font-family="Helvetica,sans-Serif" font-size="10.00">AP_HAL::Scheduler::</text>
<text text-anchor="middle" x="433" y="-144" font-family="Helvetica,sans-Serif" font-size="10.00">panic</text>
</a>
</g>
</g>
<!-- Node1&#45;&gt;Node2 -->
<g id="edge1" class="edge"><title>Node1&#45;&gt;Node2</title>
<path fill="none" stroke="midnightblue" d="M154.377,-134.747C218.071,-138.705 307.797,-144.281 367.828,-148.012"/>
<polygon fill="midnightblue" stroke="midnightblue" points="367.74,-151.513 377.938,-148.64 368.175,-144.527 367.74,-151.513"/>
</g>
<!-- Node3 -->
<g id="node3" class="node"><title>Node3</title>
<g id="a_node3"><a xlink:href="$classLinux_1_1LinuxSPIDeviceDriver.html#aa907674903f474b4db19e20f478c2a61" xlink:title="Linux::LinuxSPIDeviceDriver\l::init">
<polygon fill="white" stroke="black" points="190.5,-93 190.5,-123 333.5,-123 333.5,-93 190.5,-93"/>
<text text-anchor="start" x="198.5" y="-111" font-family="Helvetica,sans-Serif" font-size="10.00">Linux::LinuxSPIDeviceDriver</text>
<text text-anchor="middle" x="262" y="-100" font-family="Helvetica,sans-Serif" font-size="10.00">::init</text>
</a>
</g>
</g>
<!-- Node1&#45;&gt;Node3 -->
<g id="edge2" class="edge"><title>Node1&#45;&gt;Node3</title>
<path fill="none" stroke="midnightblue" d="M154.019,-120.861C162.7,-119.817 171.573,-118.751 180.313,-117.7"/>
<polygon fill="midnightblue" stroke="midnightblue" points="180.981,-121.145 190.492,-116.476 180.146,-114.195 180.981,-121.145"/>
</g>
<!-- Node3&#45;&gt;Node2 -->
<g id="edge4" class="edge"><title>Node3&#45;&gt;Node2</title>
<path fill="none" stroke="midnightblue" d="M320.688,-123.019C335.905,-126.981 352.416,-131.28 367.947,-135.324"/>
<polygon fill="midnightblue" stroke="midnightblue" points="367.429,-138.805 377.988,-137.938 369.193,-132.031 367.429,-138.805"/>
</g>
<!-- Node4 -->
<g id="node4" class="node"><title>Node4</title>
<g id="a_node4"><a xlink:href="$classAP__HAL_1_1GPIO.html#a4e8955091af056240f447b68b76725bb" xlink:title="AP_HAL::GPIO::channel">
<polygon fill="white" stroke="black" points="370.5,-98.5 370.5,-117.5 495.5,-117.5 495.5,-98.5 370.5,-98.5"/>
<text text-anchor="middle" x="433" y="-105.5" font-family="Helvetica,sans-Serif" font-size="10.00">AP_HAL::GPIO::channel</text>
</a>
</g>
</g>
<!-- Node3&#45;&gt;Node4 -->
<g id="edge3" class="edge"><title>Node3&#45;&gt;Node4</title>
<path fill="none" stroke="midnightblue" d="M333.692,-108C342.468,-108 351.449,-108 360.242,-108"/>
<polygon fill="midnightblue" stroke="midnightblue" points="360.453,-111.5 370.453,-108 360.453,-104.5 360.453,-111.5"/>
</g>
<!-- Node5 -->
<g id="node5" class="node"><title>Node5</title>
<g id="a_node5"><a xlink:href="$classAP__HAL_1_1DigitalSource.html#af16b96dab1499f30659a1fd892df6c2d" xlink:title="AP_HAL::DigitalSource\l::mode">
<polygon fill="white" stroke="black" points="373.5,-49 373.5,-79 492.5,-79 492.5,-49 373.5,-49"/>
<text text-anchor="start" x="381.5" y="-67" font-family="Helvetica,sans-Serif" font-size="10.00">AP_HAL::DigitalSource</text>
<text text-anchor="middle" x="433" y="-56" font-family="Helvetica,sans-Serif" font-size="10.00">::mode</text>
</a>
</g>
</g>
<!-- Node3&#45;&gt;Node5 -->
<g id="edge5" class="edge"><title>Node3&#45;&gt;Node5</title>
<path fill="none" stroke="midnightblue" d="M320.688,-92.9808C334.75,-89.3196 349.917,-85.3706 364.395,-81.6013"/>
<polygon fill="midnightblue" stroke="midnightblue" points="365.49,-84.9329 374.286,-79.0262 363.726,-78.1587 365.49,-84.9329"/>
</g>
<!-- Node6 -->
<g id="node6" class="node"><title>Node6</title>
<g id="a_node6"><a xlink:href="$classAP__HAL_1_1DigitalSource.html#a43392c05a7dae030a78dd1c4800bf5fe" xlink:title="AP_HAL::DigitalSource\l::write">
<polygon fill="white" stroke="black" points="373.5,-0 373.5,-30 492.5,-30 492.5,-0 373.5,-0"/>
<text text-anchor="start" x="381.5" y="-18" font-family="Helvetica,sans-Serif" font-size="10.00">AP_HAL::DigitalSource</text>
<text text-anchor="middle" x="433" y="-7" font-family="Helvetica,sans-Serif" font-size="10.00">::write</text>
</a>
</g>
</g>
<!-- Node3&#45;&gt;Node6 -->
<g id="edge6" class="edge"><title>Node3&#45;&gt;Node6</title>
<path fill="none" stroke="midnightblue" d="M283.56,-92.939C304.567,-77.9905 338.485,-55.0498 370,-39 373.278,-37.3304 376.702,-35.7044 380.183,-34.1372"/>
<polygon fill="midnightblue" stroke="midnightblue" points="381.673,-37.3062 389.473,-30.1361 378.904,-30.8771 381.673,-37.3062"/>
</g>
</g>
</svg>
