<?xml version="1.0" encoding="UTF-8" standalone="no"?>
<!DOCTYPE svg PUBLIC "-//W3C//DTD SVG 1.1//EN"
 "http://www.w3.org/Graphics/SVG/1.1/DTD/svg11.dtd">
<!-- Generated by graphviz version 2.36.0 (20140111.2315)
 -->
<!-- Title: AP_AHRS_NavEKF::get_accel_ef Pages: 1 -->
<svg width="272pt" height="56pt"
 viewBox="0.00 0.00 272.00 56.00" xmlns="http://www.w3.org/2000/svg" xmlns:xlink="http://www.w3.org/1999/xlink">
<g id="graph0" class="graph" transform="scale(1 1) rotate(0) translate(4 52)">
<title>AP_AHRS_NavEKF::get_accel_ef</title>
<polygon fill="white" stroke="none" points="-4,4 -4,-52 268,-52 268,4 -4,4"/>
<!-- Node1 -->
<g id="node1" class="node"><title>Node1</title>
<polygon fill="#bfbfbf" stroke="black" points="0,-0 0,-30 126,-30 126,-0 0,-0"/>
<text text-anchor="start" x="8" y="-18" font-family="Helvetica,sans-Serif" font-size="10.00">AP_AHRS_NavEKF::get</text>
<text text-anchor="middle" x="63" y="-7" font-family="Helvetica,sans-Serif" font-size="10.00">_accel_ef</text>
</g>
<!-- Node1&#45;&gt;Node1 -->
<g id="edge1" class="edge"><title>Node1&#45;&gt;Node1</title>
<path fill="none" stroke="midnightblue" d="M36.6328,-30.2754C30.7734,-39.4062 39.5625,-48 63,-48 76.916,-48 85.6679,-44.9704 89.2556,-40.5975"/>
<polygon fill="midnightblue" stroke="midnightblue" points="92.7588,-40.3127 89.3672,-30.2754 85.7592,-40.2369 92.7588,-40.3127"/>
</g>
<!-- Node2 -->
<g id="node2" class="node"><title>Node2</title>
<g id="a_node2"><a xlink:href="$classAP__InertialSensor.html#ab7e75af54a874d77240c89c6e5152a99" xlink:title="AP_InertialSensor::\lget_primary_accel">
<polygon fill="white" stroke="black" points="162.5,-0 162.5,-30 263.5,-30 263.5,-0 162.5,-0"/>
<text text-anchor="start" x="170.5" y="-18" font-family="Helvetica,sans-Serif" font-size="10.00">AP_InertialSensor::</text>
<text text-anchor="middle" x="213" y="-7" font-family="Helvetica,sans-Serif" font-size="10.00">get_primary_accel</text>
</a>
</g>
</g>
<!-- Node1&#45;&gt;Node2 -->
<g id="edge2" class="edge"><title>Node1&#45;&gt;Node2</title>
<path fill="none" stroke="midnightblue" d="M126.336,-15C134.873,-15 143.622,-15 152.114,-15"/>
<polygon fill="midnightblue" stroke="midnightblue" points="152.313,-18.5001 162.313,-15 152.313,-11.5001 152.313,-18.5001"/>
</g>
</g>
</svg>
