<?xml version="1.0" encoding="UTF-8" standalone="no"?>
<!DOCTYPE svg PUBLIC "-//W3C//DTD SVG 1.1//EN"
 "http://www.w3.org/Graphics/SVG/1.1/DTD/svg11.dtd">
<!-- Generated by graphviz version 2.36.0 (20140111.2315)
 -->
<!-- Title: AP_HAL_AVR::AVRUARTDriver Pages: 1 -->
<svg width="305pt" height="292pt"
 viewBox="0.00 0.00 305.00 292.00" xmlns="http://www.w3.org/2000/svg" xmlns:xlink="http://www.w3.org/1999/xlink">
<g id="graph0" class="graph" transform="scale(1 1) rotate(0) translate(4 288)">
<title>AP_HAL_AVR::AVRUARTDriver</title>
<polygon fill="white" stroke="none" points="-4,4 -4,-288 301,-288 301,4 -4,4"/>
<!-- Node1 -->
<g id="node1" class="node"><title>Node1</title>
<polygon fill="#bfbfbf" stroke="black" points="95,-0.5 95,-19.5 257,-19.5 257,-0.5 95,-0.5"/>
<text text-anchor="middle" x="176" y="-7.5" font-family="Helvetica,sans-Serif" font-size="10.00">AP_HAL_AVR::AVRUARTDriver</text>
</g>
<!-- Node2 -->
<g id="node2" class="node"><title>Node2</title>
<g id="a_node2"><a xlink:href="$classAP__HAL_1_1UARTDriver.html" xlink:title="AP_HAL::UARTDriver">
<polygon fill="white" stroke="black" points="1.5,-84.5 1.5,-103.5 116.5,-103.5 116.5,-84.5 1.5,-84.5"/>
<text text-anchor="middle" x="59" y="-91.5" font-family="Helvetica,sans-Serif" font-size="10.00">AP_HAL::UARTDriver</text>
</a>
</g>
</g>
<!-- Node2&#45;&gt;Node1 -->
<g id="edge1" class="edge"><title>Node2&#45;&gt;Node1</title>
<path fill="none" stroke="midnightblue" d="M79.7271,-78.4733C104.043,-61.4311 143.571,-33.7278 163.569,-19.7123"/>
<polygon fill="midnightblue" stroke="midnightblue" points="77.7013,-75.619 71.521,-84.2246 81.7189,-81.3514 77.7013,-75.619"/>
</g>
<!-- Node3 -->
<g id="node3" class="node"><title>Node3</title>
<g id="a_node3"><a xlink:href="$classAP__HAL_1_1BetterStream.html" xlink:title="AP_HAL::BetterStream">
<polygon fill="white" stroke="black" points="-0.5,-148.5 -0.5,-167.5 118.5,-167.5 118.5,-148.5 -0.5,-148.5"/>
<text text-anchor="middle" x="59" y="-155.5" font-family="Helvetica,sans-Serif" font-size="10.00">AP_HAL::BetterStream</text>
</a>
</g>
</g>
<!-- Node3&#45;&gt;Node2 -->
<g id="edge2" class="edge"><title>Node3&#45;&gt;Node2</title>
<path fill="none" stroke="midnightblue" d="M59,-138.037C59,-126.53 59,-112.403 59,-103.548"/>
<polygon fill="midnightblue" stroke="midnightblue" points="55.5001,-138.379 59,-148.379 62.5001,-138.379 55.5001,-138.379"/>
</g>
<!-- Node4 -->
<g id="node4" class="node"><title>Node4</title>
<g id="a_node4"><a xlink:href="$classAP__HAL_1_1Stream.html" xlink:title="AP_HAL::Stream">
<polygon fill="white" stroke="black" points="13,-206.5 13,-225.5 105,-225.5 105,-206.5 13,-206.5"/>
<text text-anchor="middle" x="59" y="-213.5" font-family="Helvetica,sans-Serif" font-size="10.00">AP_HAL::Stream</text>
</a>
</g>
</g>
<!-- Node4&#45;&gt;Node3 -->
<g id="edge3" class="edge"><title>Node4&#45;&gt;Node3</title>
<path fill="none" stroke="midnightblue" d="M59,-195.953C59,-186.287 59,-175.031 59,-167.505"/>
<polygon fill="midnightblue" stroke="midnightblue" points="55.5001,-196.25 59,-206.25 62.5001,-196.25 55.5001,-196.25"/>
</g>
<!-- Node5 -->
<g id="node5" class="node"><title>Node5</title>
<g id="a_node5"><a xlink:href="$classAP__HAL_1_1Print.html" xlink:title="AP_HAL::Print">
<polygon fill="white" stroke="black" points="18.5,-264.5 18.5,-283.5 99.5,-283.5 99.5,-264.5 18.5,-264.5"/>
<text text-anchor="middle" x="59" y="-271.5" font-family="Helvetica,sans-Serif" font-size="10.00">AP_HAL::Print</text>
</a>
</g>
</g>
<!-- Node5&#45;&gt;Node4 -->
<g id="edge4" class="edge"><title>Node5&#45;&gt;Node4</title>
<path fill="none" stroke="midnightblue" d="M59,-253.953C59,-244.287 59,-233.031 59,-225.505"/>
<polygon fill="midnightblue" stroke="midnightblue" points="55.5001,-254.25 59,-264.25 62.5001,-254.25 55.5001,-254.25"/>
</g>
<!-- Node6 -->
<g id="node6" class="node"><title>Node6</title>
<g id="a_node6"><a xlink:href="$structAP__HAL__AVR_1_1AVRUARTDriver_1_1Buffer.html" xlink:title="AP_HAL_AVR::AVRUARTDriver\l::Buffer">
<polygon fill="white" stroke="black" points="135,-79 135,-109 297,-109 297,-79 135,-79"/>
<text text-anchor="start" x="143" y="-97" font-family="Helvetica,sans-Serif" font-size="10.00">AP_HAL_AVR::AVRUARTDriver</text>
<text text-anchor="middle" x="216" y="-86" font-family="Helvetica,sans-Serif" font-size="10.00">::Buffer</text>
</a>
</g>
</g>
<!-- Node6&#45;&gt;Node1 -->
<g id="edge5" class="edge"><title>Node6&#45;&gt;Node1</title>
<path fill="none" stroke="#9a32cd" stroke-dasharray="5,2" d="M204.557,-69.5417C196.406,-52.8316 185.917,-31.3307 180.191,-19.5915"/>
<polygon fill="#9a32cd" stroke="#9a32cd" points="201.503,-71.2635 209.033,-78.7167 207.794,-68.1945 201.503,-71.2635"/>
<text text-anchor="middle" x="221.5" y="-52" font-family="Helvetica,sans-Serif" font-size="10.00"> _txBuffer</text>
<text text-anchor="middle" x="221.5" y="-41" font-family="Helvetica,sans-Serif" font-size="10.00">_rxBuffer</text>
</g>
</g>
</svg>
