<?xml version="1.0" encoding="UTF-8" standalone="no"?>
<!DOCTYPE svg PUBLIC "-//W3C//DTD SVG 1.1//EN"
 "http://www.w3.org/Graphics/SVG/1.1/DTD/svg11.dtd">
<!-- Generated by graphviz version 2.36.0 (20140111.2315)
 -->
<!-- Title: JSBSim::update Pages: 1 -->
<svg width="592pt" height="530pt"
 viewBox="0.00 0.00 592.00 530.00" xmlns="http://www.w3.org/2000/svg" xmlns:xlink="http://www.w3.org/1999/xlink">
<g id="graph0" class="graph" transform="scale(1 1) rotate(0) translate(4 526)">
<title>JSBSim::update</title>
<polygon fill="white" stroke="none" points="-4,4 -4,-526 588,-526 588,4 -4,4"/>
<!-- Node1 -->
<g id="node1" class="node"><title>Node1</title>
<polygon fill="#bfbfbf" stroke="black" points="0,-246.5 0,-265.5 88,-265.5 88,-246.5 0,-246.5"/>
<text text-anchor="middle" x="44" y="-253.5" font-family="Helvetica,sans-Serif" font-size="10.00">JSBSim::update</text>
</g>
<!-- Node2 -->
<g id="node2" class="node"><title>Node2</title>
<g id="a_node2"><a xlink:href="$classJSBSim.html#a3c9432b767ace46a5a71eaadeb89c5ab" xlink:title="JSBSim::create_templates">
<polygon fill="white" stroke="black" points="124,-270.5 124,-289.5 258,-289.5 258,-270.5 124,-270.5"/>
<text text-anchor="middle" x="191" y="-277.5" font-family="Helvetica,sans-Serif" font-size="10.00">JSBSim::create_templates</text>
</a>
</g>
</g>
<!-- Node1&#45;&gt;Node2 -->
<g id="edge1" class="edge"><title>Node1&#45;&gt;Node2</title>
<path fill="none" stroke="midnightblue" d="M88.1122,-263.136C98.8949,-264.921 110.722,-266.878 122.379,-268.808"/>
<polygon fill="midnightblue" stroke="midnightblue" points="122.112,-272.311 132.55,-270.491 123.256,-265.405 122.112,-272.311"/>
</g>
<!-- Node7 -->
<g id="node7" class="node"><title>Node7</title>
<g id="a_node7"><a xlink:href="$classJSBSim.html#a2d834b58ab0702e7801752bcf5fa0fee" xlink:title="JSBSim::start_JSBSim">
<polygon fill="white" stroke="black" points="131.5,-402.5 131.5,-421.5 250.5,-421.5 250.5,-402.5 131.5,-402.5"/>
<text text-anchor="middle" x="191" y="-409.5" font-family="Helvetica,sans-Serif" font-size="10.00">JSBSim::start_JSBSim</text>
</a>
</g>
</g>
<!-- Node1&#45;&gt;Node7 -->
<g id="edge6" class="edge"><title>Node1&#45;&gt;Node7</title>
<path fill="none" stroke="midnightblue" d="M48.9221,-265.647C58.5674,-288.33 85.4917,-345.711 124,-380 132.288,-387.38 142.582,-393.444 152.555,-398.232"/>
<polygon fill="midnightblue" stroke="midnightblue" points="151.386,-401.543 161.943,-402.434 154.246,-395.154 151.386,-401.543"/>
</g>
<!-- Node8 -->
<g id="node8" class="node"><title>Node8</title>
<g id="a_node8"><a xlink:href="$classJSBSim.html#aedcd4c940f82212c3405d0a18dec5d6f" xlink:title="JSBSim::open_fdm_socket">
<polygon fill="white" stroke="black" points="294,-502.5 294,-521.5 430,-521.5 430,-502.5 294,-502.5"/>
<text text-anchor="middle" x="362" y="-509.5" font-family="Helvetica,sans-Serif" font-size="10.00">JSBSim::open_fdm_socket</text>
</a>
</g>
</g>
<!-- Node1&#45;&gt;Node8 -->
<g id="edge14" class="edge"><title>Node1&#45;&gt;Node8</title>
<path fill="none" stroke="midnightblue" d="M46.6865,-265.885C52.2101,-295.293 72.452,-383.148 124,-431 167.843,-471.7 233.012,-492.048 283.922,-502.165"/>
<polygon fill="midnightblue" stroke="midnightblue" points="283.426,-505.633 293.903,-504.055 284.729,-498.756 283.426,-505.633"/>
</g>
<!-- Node11 -->
<g id="node11" class="node"><title>Node11</title>
<g id="a_node11"><a xlink:href="$classJSBSim.html#a115d24ebbc407535cfdac991e70d0386" xlink:title="JSBSim::open_control\l_socket">
<polygon fill="white" stroke="black" points="305,-377 305,-407 419,-407 419,-377 305,-377"/>
<text text-anchor="start" x="313" y="-395" font-family="Helvetica,sans-Serif" font-size="10.00">JSBSim::open_control</text>
<text text-anchor="middle" x="362" y="-384" font-family="Helvetica,sans-Serif" font-size="10.00">_socket</text>
</a>
</g>
</g>
<!-- Node1&#45;&gt;Node11 -->
<g id="edge13" class="edge"><title>Node1&#45;&gt;Node11</title>
<path fill="none" stroke="midnightblue" d="M61.3518,-265.639C77.1272,-274.759 101.814,-288.569 124,-299 197.643,-333.623 218.096,-337.663 294,-367 299.416,-369.093 305.089,-371.256 310.744,-373.393"/>
<polygon fill="midnightblue" stroke="midnightblue" points="309.605,-376.704 320.197,-376.948 312.069,-370.152 309.605,-376.704"/>
</g>
<!-- Node12 -->
<g id="node12" class="node"><title>Node12</title>
<g id="a_node12"><a xlink:href="$classJSBSim.html#a1082b88474db722f4b897d7f18e94cd2" xlink:title="JSBSim::send_servos">
<polygon fill="white" stroke="black" points="305,-213.5 305,-232.5 419,-232.5 419,-213.5 305,-213.5"/>
<text text-anchor="middle" x="362" y="-220.5" font-family="Helvetica,sans-Serif" font-size="10.00">JSBSim::send_servos</text>
</a>
</g>
</g>
<!-- Node1&#45;&gt;Node12 -->
<g id="edge15" class="edge"><title>Node1&#45;&gt;Node12</title>
<path fill="none" stroke="midnightblue" d="M88.2759,-251.481C141.595,-245.913 232.733,-236.395 294.852,-229.908"/>
<polygon fill="midnightblue" stroke="midnightblue" points="295.363,-233.374 304.945,-228.854 294.635,-226.412 295.363,-233.374"/>
</g>
<!-- Node13 -->
<g id="node13" class="node"><title>Node13</title>
<g id="a_node13"><a xlink:href="$classJSBSim.html#abad0f6f9ffe6ec49ae911c2ab54df3ef" xlink:title="JSBSim::recv_fdm">
<polygon fill="white" stroke="black" points="141.5,-184.5 141.5,-203.5 240.5,-203.5 240.5,-184.5 141.5,-184.5"/>
<text text-anchor="middle" x="191" y="-191.5" font-family="Helvetica,sans-Serif" font-size="10.00">JSBSim::recv_fdm</text>
</a>
</g>
</g>
<!-- Node1&#45;&gt;Node13 -->
<g id="edge16" class="edge"><title>Node1&#45;&gt;Node13</title>
<path fill="none" stroke="midnightblue" d="M63.595,-246.407C79.4538,-238.383 102.96,-226.86 124,-218 133.09,-214.172 143.026,-210.367 152.366,-206.952"/>
<polygon fill="midnightblue" stroke="midnightblue" points="153.597,-210.229 161.822,-203.55 151.227,-203.642 153.597,-210.229"/>
</g>
<!-- Node17 -->
<g id="node17" class="node"><title>Node17</title>
<g id="a_node17"><a xlink:href="$classAircraft.html#a5f84bfcd9f230a834844f094445e4e3a" xlink:title="Aircraft::adjust_frame_time">
<polygon fill="white" stroke="black" points="124,-146.5 124,-165.5 258,-165.5 258,-146.5 124,-146.5"/>
<text text-anchor="middle" x="191" y="-153.5" font-family="Helvetica,sans-Serif" font-size="10.00">Aircraft::adjust_frame_time</text>
</a>
</g>
</g>
<!-- Node1&#45;&gt;Node17 -->
<g id="edge23" class="edge"><title>Node1&#45;&gt;Node17</title>
<path fill="none" stroke="midnightblue" d="M51.6586,-246.445C63.9685,-229.498 91.9709,-194.16 124,-175 127.626,-172.831 131.513,-170.898 135.519,-169.178"/>
<polygon fill="midnightblue" stroke="midnightblue" points="136.931,-172.385 145.016,-165.539 134.426,-165.849 136.931,-172.385"/>
</g>
<!-- Node18 -->
<g id="node18" class="node"><title>Node18</title>
<g id="a_node18"><a xlink:href="$classAircraft.html#a6072b8c60fbcfe0d4b9c45913f84e697" xlink:title="Aircraft::sync_frame_time">
<polygon fill="white" stroke="black" points="126.5,-61.5 126.5,-80.5 255.5,-80.5 255.5,-61.5 126.5,-61.5"/>
<text text-anchor="middle" x="191" y="-68.5" font-family="Helvetica,sans-Serif" font-size="10.00">Aircraft::sync_frame_time</text>
</a>
</g>
</g>
<!-- Node1&#45;&gt;Node18 -->
<g id="edge24" class="edge"><title>Node1&#45;&gt;Node18</title>
<path fill="none" stroke="midnightblue" d="M50.54,-246.295C62.6533,-225.406 92.9082,-175.001 124,-137 138.754,-118.968 157.754,-100.371 171.577,-87.5329"/>
<polygon fill="midnightblue" stroke="midnightblue" points="174.039,-90.0241 179.046,-80.687 169.309,-84.8637 174.039,-90.0241"/>
</g>
<!-- Node3 -->
<g id="node3" class="node"><title>Node3</title>
<g id="a_node3"><a xlink:href="$classAP__HAL_1_1Scheduler.html#a65f0d4e404d3e6fda4d8b0b101c9780f" xlink:title="AP_HAL::Scheduler::\lpanic">
<polygon fill="white" stroke="black" points="307,-328 307,-358 417,-358 417,-328 307,-328"/>
<text text-anchor="start" x="315" y="-346" font-family="Helvetica,sans-Serif" font-size="10.00">AP_HAL::Scheduler::</text>
<text text-anchor="middle" x="362" y="-335" font-family="Helvetica,sans-Serif" font-size="10.00">panic</text>
</a>
</g>
</g>
<!-- Node2&#45;&gt;Node3 -->
<g id="edge2" class="edge"><title>Node2&#45;&gt;Node3</title>
<path fill="none" stroke="midnightblue" d="M217.667,-289.568C242.33,-298.762 280.268,-312.905 310.918,-324.33"/>
<polygon fill="midnightblue" stroke="midnightblue" points="309.995,-327.721 320.587,-327.935 312.44,-321.162 309.995,-327.721"/>
</g>
<!-- Node4 -->
<g id="node4" class="node"><title>Node4</title>
<g id="a_node4"><a xlink:href="$classMatrix3.html#a893c6a712d52e47dbb7ed2d7a548046e" xlink:title="Matrix3::to_euler">
<polygon fill="white" stroke="black" points="317.5,-289.5 317.5,-308.5 406.5,-308.5 406.5,-289.5 317.5,-289.5"/>
<text text-anchor="middle" x="362" y="-296.5" font-family="Helvetica,sans-Serif" font-size="10.00">Matrix3::to_euler</text>
</a>
</g>
</g>
<!-- Node2&#45;&gt;Node4 -->
<g id="edge3" class="edge"><title>Node2&#45;&gt;Node4</title>
<path fill="none" stroke="midnightblue" d="M258.308,-287.455C274.617,-289.288 291.876,-291.229 307.494,-292.985"/>
<polygon fill="midnightblue" stroke="midnightblue" points="307.166,-296.47 317.495,-294.109 307.948,-289.513 307.166,-296.47"/>
</g>
<!-- Node6 -->
<g id="node6" class="node"><title>Node6</title>
<g id="a_node6"><a xlink:href="$AP__Math_8cpp.html#a08666a85f465dfe5701cc8c878e4b2c5" xlink:title="degrees">
<polygon fill="white" stroke="black" points="336.5,-251.5 336.5,-270.5 387.5,-270.5 387.5,-251.5 336.5,-251.5"/>
<text text-anchor="middle" x="362" y="-258.5" font-family="Helvetica,sans-Serif" font-size="10.00">degrees</text>
</a>
</g>
</g>
<!-- Node2&#45;&gt;Node6 -->
<g id="edge5" class="edge"><title>Node2&#45;&gt;Node6</title>
<path fill="none" stroke="midnightblue" d="M258.308,-272.545C281.51,-269.937 306.633,-267.112 326.223,-264.91"/>
<polygon fill="midnightblue" stroke="midnightblue" points="326.659,-268.383 336.205,-263.788 325.877,-261.427 326.659,-268.383"/>
</g>
<!-- Node5 -->
<g id="node5" class="node"><title>Node5</title>
<g id="a_node5"><a xlink:href="$AP__Math_8cpp.html#a2706fd969ad73bc8ef977d964c04f4a3" xlink:title="safe_asin">
<polygon fill="white" stroke="black" points="495.5,-289.5 495.5,-308.5 554.5,-308.5 554.5,-289.5 495.5,-289.5"/>
<text text-anchor="middle" x="525" y="-296.5" font-family="Helvetica,sans-Serif" font-size="10.00">safe_asin</text>
</a>
</g>
</g>
<!-- Node4&#45;&gt;Node5 -->
<g id="edge4" class="edge"><title>Node4&#45;&gt;Node5</title>
<path fill="none" stroke="midnightblue" d="M406.569,-299C431.068,-299 461.393,-299 485.09,-299"/>
<polygon fill="midnightblue" stroke="midnightblue" points="485.134,-302.5 495.134,-299 485.134,-295.5 485.134,-302.5"/>
</g>
<!-- Node7&#45;&gt;Node3 -->
<g id="edge9" class="edge"><title>Node7&#45;&gt;Node3</title>
<path fill="none" stroke="midnightblue" d="M213.36,-402.415C233.908,-393.283 265.906,-379.293 294,-368 299.184,-365.916 304.615,-363.793 310.048,-361.708"/>
<polygon fill="midnightblue" stroke="midnightblue" points="311.667,-364.836 319.772,-358.013 309.181,-358.293 311.667,-364.836"/>
</g>
<!-- Node7&#45;&gt;Node8 -->
<g id="edge7" class="edge"><title>Node7&#45;&gt;Node8</title>
<path fill="none" stroke="midnightblue" d="M201.488,-421.734C218.497,-438.644 255.969,-473.502 294,-493 298.524,-495.319 303.369,-497.389 308.308,-499.229"/>
<polygon fill="midnightblue" stroke="midnightblue" points="307.267,-502.572 317.862,-502.489 309.528,-495.947 307.267,-502.572"/>
</g>
<!-- Node9 -->
<g id="node9" class="node"><title>Node9</title>
<g id="a_node9"><a xlink:href="$classJSBSim.html#a842f65f4b8f329088a315473442030f7" xlink:title="JSBSim::check_stdout">
<polygon fill="white" stroke="black" points="466.5,-426.5 466.5,-445.5 583.5,-445.5 583.5,-426.5 466.5,-426.5"/>
<text text-anchor="middle" x="525" y="-433.5" font-family="Helvetica,sans-Serif" font-size="10.00">JSBSim::check_stdout</text>
</a>
</g>
</g>
<!-- Node7&#45;&gt;Node9 -->
<g id="edge12" class="edge"><title>Node7&#45;&gt;Node9</title>
<path fill="none" stroke="midnightblue" d="M250.591,-416.235C308.046,-420.389 395.586,-426.717 456.06,-431.089"/>
<polygon fill="midnightblue" stroke="midnightblue" points="456.047,-434.597 466.273,-431.827 456.551,-427.615 456.047,-434.597"/>
</g>
<!-- Node10 -->
<g id="node10" class="node"><title>Node10</title>
<g id="a_node10"><a xlink:href="$classJSBSim.html#ab0d6109b1ed55d3c5b71e27c5de6e8ca" xlink:title="JSBSim::expect">
<polygon fill="white" stroke="black" points="318,-464.5 318,-483.5 406,-483.5 406,-464.5 318,-464.5"/>
<text text-anchor="middle" x="362" y="-471.5" font-family="Helvetica,sans-Serif" font-size="10.00">JSBSim::expect</text>
</a>
</g>
</g>
<!-- Node7&#45;&gt;Node10 -->
<g id="edge10" class="edge"><title>Node7&#45;&gt;Node10</title>
<path fill="none" stroke="midnightblue" d="M217.537,-421.616C238.149,-429.352 267.908,-440.467 294,-450 303.836,-453.594 314.502,-457.438 324.371,-460.974"/>
<polygon fill="midnightblue" stroke="midnightblue" points="323.319,-464.315 333.914,-464.385 325.676,-457.723 323.319,-464.315"/>
</g>
<!-- Node7&#45;&gt;Node11 -->
<g id="edge11" class="edge"><title>Node7&#45;&gt;Node11</title>
<path fill="none" stroke="midnightblue" d="M250.634,-405.061C264.886,-403.374 280.225,-401.559 294.801,-399.834"/>
<polygon fill="midnightblue" stroke="midnightblue" points="295.228,-403.308 304.747,-398.657 294.405,-396.357 295.228,-403.308"/>
</g>
<!-- Node8&#45;&gt;Node9 -->
<g id="edge8" class="edge"><title>Node8&#45;&gt;Node9</title>
<path fill="none" stroke="midnightblue" d="M403.296,-502.471C412.248,-499.834 421.575,-496.669 430,-493 456.316,-481.54 484.153,-463.873 502.642,-451.247"/>
<polygon fill="midnightblue" stroke="midnightblue" points="504.7,-454.08 510.92,-445.503 500.709,-448.329 504.7,-454.08"/>
</g>
<!-- Node13&#45;&gt;Node6 -->
<g id="edge21" class="edge"><title>Node13&#45;&gt;Node6</title>
<path fill="none" stroke="midnightblue" d="M210.038,-203.593C230.125,-214.014 263.756,-230.682 294,-242 304.383,-245.886 315.924,-249.425 326.461,-252.368"/>
<polygon fill="midnightblue" stroke="midnightblue" points="325.619,-255.766 336.186,-254.999 327.447,-249.009 325.619,-255.766"/>
</g>
<!-- Node13&#45;&gt;Node9 -->
<g id="edge17" class="edge"><title>Node13&#45;&gt;Node9</title>
<path fill="none" stroke="midnightblue" d="M225.595,-184.454C275.68,-172.414 370.402,-158.368 430,-204 472.187,-236.301 446.225,-268.684 466,-318 480.505,-354.174 501.461,-394.583 513.811,-417.488"/>
<polygon fill="midnightblue" stroke="midnightblue" points="510.826,-419.325 518.68,-426.436 516.975,-415.979 510.826,-419.325"/>
</g>
<!-- Node13&#45;&gt;Node12 -->
<g id="edge18" class="edge"><title>Node13&#45;&gt;Node12</title>
<path fill="none" stroke="midnightblue" d="M240.882,-202.388C257.908,-205.31 277.296,-208.637 295.453,-211.752"/>
<polygon fill="midnightblue" stroke="midnightblue" points="294.943,-215.216 305.391,-213.458 296.127,-208.317 294.943,-215.216"/>
</g>
<!-- Node14 -->
<g id="node14" class="node"><title>Node14</title>
<g id="a_node14"><a xlink:href="$classFGNetFDM.html#a8decfab0b5fc6aba8b3d49e82d84b074" xlink:title="FGNetFDM::ByteSwap">
<polygon fill="white" stroke="black" points="302.5,-49.5 302.5,-68.5 421.5,-68.5 421.5,-49.5 302.5,-49.5"/>
<text text-anchor="middle" x="362" y="-56.5" font-family="Helvetica,sans-Serif" font-size="10.00">FGNetFDM::ByteSwap</text>
</a>
</g>
</g>
<!-- Node13&#45;&gt;Node14 -->
<g id="edge19" class="edge"><title>Node13&#45;&gt;Node14</title>
<path fill="none" stroke="midnightblue" d="M240.608,-185.785C246.981,-183.128 253.017,-179.622 258,-175 291.713,-143.727 260.225,-109.206 294,-78 295.696,-76.4334 297.511,-74.9948 299.419,-73.6738"/>
<polygon fill="midnightblue" stroke="midnightblue" points="301.346,-76.6037 308.292,-68.603 297.873,-70.5262 301.346,-76.6037"/>
</g>
<!-- Node15 -->
<g id="node15" class="node"><title>Node15</title>
<g id="a_node15"><a xlink:href="$classSITL.html#a1c235bebd5a5c2ca1b88b8cf6ccf18ff" xlink:title="SITL::convert_body\l_frame">
<polygon fill="white" stroke="black" points="311,-126 311,-156 413,-156 413,-126 311,-126"/>
<text text-anchor="start" x="319" y="-144" font-family="Helvetica,sans-Serif" font-size="10.00">SITL::convert_body</text>
<text text-anchor="middle" x="362" y="-133" font-family="Helvetica,sans-Serif" font-size="10.00">_frame</text>
</a>
</g>
</g>
<!-- Node13&#45;&gt;Node15 -->
<g id="edge20" class="edge"><title>Node13&#45;&gt;Node15</title>
<path fill="none" stroke="midnightblue" d="M225.99,-184.486C236.296,-181.528 247.633,-178.202 258,-175 274.017,-170.053 291.35,-164.435 307.147,-159.211"/>
<polygon fill="midnightblue" stroke="midnightblue" points="308.372,-162.492 316.759,-156.019 306.165,-155.849 308.372,-162.492"/>
</g>
<!-- Node16 -->
<g id="node16" class="node"><title>Node16</title>
<g id="a_node16"><a xlink:href="$classMatrix3.html#a62587bd216436f09f06b9e1330f84bc0" xlink:title="&#45;*&#45; tab&#45;width: 4; Mode: C++; c&#45;basic&#45;offset: 4; indent&#45;tabs&#45;mode: nil &#45;*&#45; ">
<polygon fill="white" stroke="black" points="311.5,-87.5 311.5,-106.5 412.5,-106.5 412.5,-87.5 311.5,-87.5"/>
<text text-anchor="middle" x="362" y="-94.5" font-family="Helvetica,sans-Serif" font-size="10.00">Matrix3::from_euler</text>
</a>
</g>
</g>
<!-- Node13&#45;&gt;Node16 -->
<g id="edge22" class="edge"><title>Node13&#45;&gt;Node16</title>
<path fill="none" stroke="midnightblue" d="M240.526,-184.61C246.765,-182.123 252.786,-178.977 258,-175 282.424,-156.37 269.539,-134.581 294,-116 296.6,-114.025 299.396,-112.256 302.319,-110.67"/>
<polygon fill="midnightblue" stroke="midnightblue" points="303.809,-113.838 311.397,-106.444 300.854,-107.492 303.809,-113.838"/>
</g>
<!-- Node19 -->
<g id="node19" class="node"><title>Node19</title>
<g id="a_node19"><a xlink:href="$classAircraft.html#a54eb1a4b4dfdfbfd3e73cba819f55815" xlink:title="Aircraft::get_wall\l_time_us">
<polygon fill="white" stroke="black" points="317,-0 317,-30 407,-30 407,-0 317,-0"/>
<text text-anchor="start" x="325" y="-18" font-family="Helvetica,sans-Serif" font-size="10.00">Aircraft::get_wall</text>
<text text-anchor="middle" x="362" y="-7" font-family="Helvetica,sans-Serif" font-size="10.00">_time_us</text>
</a>
</g>
</g>
<!-- Node18&#45;&gt;Node19 -->
<g id="edge25" class="edge"><title>Node18&#45;&gt;Node19</title>
<path fill="none" stroke="midnightblue" d="M221.052,-61.3733C244.606,-53.5686 278.449,-42.3541 306.955,-32.9084"/>
<polygon fill="midnightblue" stroke="midnightblue" points="308.398,-36.1175 316.79,-29.6496 306.196,-29.4728 308.398,-36.1175"/>
</g>
</g>
</svg>
