<?xml version="1.0" encoding="UTF-8" standalone="no"?>
<!DOCTYPE svg PUBLIC "-//W3C//DTD SVG 1.1//EN"
 "http://www.w3.org/Graphics/SVG/1.1/DTD/svg11.dtd">
<!-- Generated by graphviz version 2.36.0 (20140111.2315)
 -->
<!-- Title: Aircraft::update Pages: 1 -->
<svg width="870pt" height="38pt"
 viewBox="0.00 0.00 870.00 38.00" xmlns="http://www.w3.org/2000/svg" xmlns:xlink="http://www.w3.org/1999/xlink">
<g id="graph0" class="graph" transform="scale(1 1) rotate(0) translate(4 34)">
<title>Aircraft::update</title>
<polygon fill="white" stroke="none" points="-4,4 -4,-34 866,-34 866,4 -4,4"/>
<!-- Node1 -->
<g id="node1" class="node"><title>Node1</title>
<polygon fill="#bfbfbf" stroke="black" points="0.5,-5.5 0.5,-24.5 83.5,-24.5 83.5,-5.5 0.5,-5.5"/>
<text text-anchor="middle" x="42" y="-12.5" font-family="Helvetica,sans-Serif" font-size="10.00">Aircraft::update</text>
</g>
<!-- Node2 -->
<g id="node2" class="node"><title>Node2</title>
<g id="a_node2"><a xlink:href="$classHALSITL_1_1SITL__State.html#a141fe78b0702ab2f2ac4cafc221fdb97" xlink:title="HALSITL::SITL_State\l::_fdm_input_local">
<polygon fill="white" stroke="black" points="120.5,-0 120.5,-30 233.5,-30 233.5,-0 120.5,-0"/>
<text text-anchor="start" x="128.5" y="-18" font-family="Helvetica,sans-Serif" font-size="10.00">HALSITL::SITL_State</text>
<text text-anchor="middle" x="177" y="-7" font-family="Helvetica,sans-Serif" font-size="10.00">::_fdm_input_local</text>
</a>
</g>
</g>
<!-- Node1&#45;&gt;Node2 -->
<g id="edge1" class="edge"><title>Node1&#45;&gt;Node2</title>
<path fill="none" stroke="midnightblue" d="M93.681,-15C102.431,-15 111.568,-15 120.439,-15"/>
<polygon fill="midnightblue" stroke="midnightblue" points="93.6271,-11.5001 83.6271,-15 93.627,-18.5001 93.6271,-11.5001"/>
</g>
<!-- Node3 -->
<g id="node3" class="node"><title>Node3</title>
<g id="a_node3"><a xlink:href="$classHALSITL_1_1SITL__State.html#ae31c93a26ca780bb508dded2498e2e93" xlink:title="HALSITL::SITL_State\l::_fdm_input_step">
<polygon fill="white" stroke="black" points="270.5,-0 270.5,-30 383.5,-30 383.5,-0 270.5,-0"/>
<text text-anchor="start" x="278.5" y="-18" font-family="Helvetica,sans-Serif" font-size="10.00">HALSITL::SITL_State</text>
<text text-anchor="middle" x="327" y="-7" font-family="Helvetica,sans-Serif" font-size="10.00">::_fdm_input_step</text>
</a>
</g>
</g>
<!-- Node2&#45;&gt;Node3 -->
<g id="edge2" class="edge"><title>Node2&#45;&gt;Node3</title>
<path fill="none" stroke="midnightblue" d="M243.768,-15C252.576,-15 261.542,-15 270.158,-15"/>
<polygon fill="midnightblue" stroke="midnightblue" points="243.531,-11.5001 233.531,-15 243.531,-18.5001 243.531,-11.5001"/>
</g>
<!-- Node4 -->
<g id="node4" class="node"><title>Node4</title>
<g id="a_node4"><a xlink:href="$classHALSITL_1_1SITL__State.html#a3eeaf330efded46259bbf64fc53e6b9f" xlink:title="HALSITL::SITL_State\l::wait_clock">
<polygon fill="white" stroke="black" points="420.5,-0 420.5,-30 533.5,-30 533.5,-0 420.5,-0"/>
<text text-anchor="start" x="428.5" y="-18" font-family="Helvetica,sans-Serif" font-size="10.00">HALSITL::SITL_State</text>
<text text-anchor="middle" x="477" y="-7" font-family="Helvetica,sans-Serif" font-size="10.00">::wait_clock</text>
</a>
</g>
</g>
<!-- Node3&#45;&gt;Node4 -->
<g id="edge3" class="edge"><title>Node3&#45;&gt;Node4</title>
<path fill="none" stroke="midnightblue" d="M393.768,-15C402.576,-15 411.542,-15 420.158,-15"/>
<polygon fill="midnightblue" stroke="midnightblue" points="393.531,-11.5001 383.531,-15 393.531,-18.5001 393.531,-11.5001"/>
</g>
<!-- Node5 -->
<g id="node5" class="node"><title>Node5</title>
<g id="a_node5"><a xlink:href="$classHALSITL_1_1SITLScheduler.html#a4128e7f01b3e88fcb890ed98d91e9b10" xlink:title="HALSITL::SITLScheduler\l::delay_microseconds">
<polygon fill="white" stroke="black" points="570,-0 570,-30 698,-30 698,-0 570,-0"/>
<text text-anchor="start" x="578" y="-18" font-family="Helvetica,sans-Serif" font-size="10.00">HALSITL::SITLScheduler</text>
<text text-anchor="middle" x="634" y="-7" font-family="Helvetica,sans-Serif" font-size="10.00">::delay_microseconds</text>
</a>
</g>
</g>
<!-- Node4&#45;&gt;Node5 -->
<g id="edge4" class="edge"><title>Node4&#45;&gt;Node5</title>
<path fill="none" stroke="midnightblue" d="M543.638,-15C552.359,-15 561.286,-15 569.963,-15"/>
<polygon fill="midnightblue" stroke="midnightblue" points="543.521,-11.5001 533.521,-15 543.521,-18.5001 543.521,-11.5001"/>
</g>
<!-- Node6 -->
<g id="node6" class="node"><title>Node6</title>
<g id="a_node6"><a xlink:href="$classHALSITL_1_1SITLScheduler.html#af7f89d00311bc23d39e38d1a0861cc42" xlink:title="HALSITL::SITLScheduler\l::delay">
<polygon fill="white" stroke="black" points="734,-0 734,-30 862,-30 862,-0 734,-0"/>
<text text-anchor="start" x="742" y="-18" font-family="Helvetica,sans-Serif" font-size="10.00">HALSITL::SITLScheduler</text>
<text text-anchor="middle" x="798" y="-7" font-family="Helvetica,sans-Serif" font-size="10.00">::delay</text>
</a>
</g>
</g>
<!-- Node5&#45;&gt;Node6 -->
<g id="edge5" class="edge"><title>Node5&#45;&gt;Node6</title>
<path fill="none" stroke="midnightblue" d="M708.374,-15C716.865,-15 725.469,-15 733.808,-15"/>
<polygon fill="midnightblue" stroke="midnightblue" points="708.097,-11.5001 698.097,-15 708.097,-18.5001 708.097,-11.5001"/>
</g>
</g>
</svg>
