<?xml version="1.0" encoding="UTF-8" standalone="no"?>
<!DOCTYPE svg PUBLIC "-//W3C//DTD SVG 1.1//EN"
 "http://www.w3.org/Graphics/SVG/1.1/DTD/svg11.dtd">
<!-- Generated by graphviz version 2.36.0 (20140111.2315)
 -->
<!-- Title: AP_Baro::get_calibration_temperature Pages: 1 -->
<svg width="302pt" height="95pt"
 viewBox="0.00 0.00 302.00 95.00" xmlns="http://www.w3.org/2000/svg" xmlns:xlink="http://www.w3.org/1999/xlink">
<g id="graph0" class="graph" transform="scale(1 1) rotate(0) translate(4 91)">
<title>AP_Baro::get_calibration_temperature</title>
<polygon fill="white" stroke="none" points="-4,4 -4,-91 298,-91 298,4 -4,4"/>
<!-- Node1 -->
<g id="node1" class="node"><title>Node1</title>
<polygon fill="#bfbfbf" stroke="black" points="0.5,-26 0.5,-56 125.5,-56 125.5,-26 0.5,-26"/>
<text text-anchor="start" x="8.5" y="-44" font-family="Helvetica,sans-Serif" font-size="10.00">AP_Baro::get_calibration</text>
<text text-anchor="middle" x="63" y="-33" font-family="Helvetica,sans-Serif" font-size="10.00">_temperature</text>
</g>
<!-- Node2 -->
<g id="node2" class="node"><title>Node2</title>
<g id="a_node2"><a xlink:href="$classAP__HAL_1_1Scheduler.html#a26b68339fc68a562d8d3a1238d0ec8c1" xlink:title="AP_HAL::Scheduler::\lmillis">
<polygon fill="white" stroke="black" points="173,-57 173,-87 283,-87 283,-57 173,-57"/>
<text text-anchor="start" x="181" y="-75" font-family="Helvetica,sans-Serif" font-size="10.00">AP_HAL::Scheduler::</text>
<text text-anchor="middle" x="228" y="-64" font-family="Helvetica,sans-Serif" font-size="10.00">millis</text>
</a>
</g>
</g>
<!-- Node1&#45;&gt;Node2 -->
<g id="edge1" class="edge"><title>Node1&#45;&gt;Node2</title>
<path fill="none" stroke="midnightblue" d="M125.623,-52.7198C137.738,-55.0237 150.476,-57.4464 162.677,-59.7667"/>
<polygon fill="midnightblue" stroke="midnightblue" points="162.295,-63.2568 172.773,-61.6869 163.603,-56.3801 162.295,-63.2568"/>
</g>
<!-- Node3 -->
<g id="node3" class="node"><title>Node3</title>
<g id="a_node3"><a xlink:href="$classAP__Baro.html#a08986d0a15b5b74601f505c9ffb258c2" xlink:title="AP_Baro::get_temperature">
<polygon fill="white" stroke="black" points="162,-0.5 162,-19.5 294,-19.5 294,-0.5 162,-0.5"/>
<text text-anchor="middle" x="228" y="-7.5" font-family="Helvetica,sans-Serif" font-size="10.00">AP_Baro::get_temperature</text>
</a>
</g>
</g>
<!-- Node1&#45;&gt;Node3 -->
<g id="edge2" class="edge"><title>Node1&#45;&gt;Node3</title>
<path fill="none" stroke="midnightblue" d="M125.623,-29.2802C139.129,-26.7116 153.411,-23.9954 166.858,-21.438"/>
<polygon fill="midnightblue" stroke="midnightblue" points="167.782,-24.8251 176.952,-19.5183 166.474,-17.9484 167.782,-24.8251"/>
</g>
<!-- Node3&#45;&gt;Node3 -->
<g id="edge3" class="edge"><title>Node3&#45;&gt;Node3</title>
<path fill="none" stroke="midnightblue" d="M202.723,-19.7571C190.426,-28.5653 198.852,-38 228,-38 247.584,-38 257.814,-33.741 258.689,-28.2746"/>
<polygon fill="midnightblue" stroke="midnightblue" points="261.594,-26.3207 253.277,-19.7571 255.686,-30.0745 261.594,-26.3207"/>
</g>
</g>
</svg>
