<?xml version="1.0" encoding="UTF-8" standalone="no"?>
<!DOCTYPE svg PUBLIC "-//W3C//DTD SVG 1.1//EN"
 "http://www.w3.org/Graphics/SVG/1.1/DTD/svg11.dtd">
<!-- Generated by graphviz version 2.36.0 (20140111.2315)
 -->
<!-- Title: AP_HAL::Util::vsnprintf Pages: 1 -->
<svg width="406pt" height="180pt"
 viewBox="0.00 0.00 406.00 180.00" xmlns="http://www.w3.org/2000/svg" xmlns:xlink="http://www.w3.org/1999/xlink">
<g id="graph0" class="graph" transform="scale(1 1) rotate(0) translate(4 176)">
<title>AP_HAL::Util::vsnprintf</title>
<polygon fill="white" stroke="none" points="-4,4 -4,-176 402,-176 402,4 -4,4"/>
<!-- Node1 -->
<g id="node1" class="node"><title>Node1</title>
<polygon fill="#bfbfbf" stroke="black" points="0.5,-57.5 0.5,-76.5 119.5,-76.5 119.5,-57.5 0.5,-57.5"/>
<text text-anchor="middle" x="60" y="-64.5" font-family="Helvetica,sans-Serif" font-size="10.00">AP_HAL::Util::vsnprintf</text>
</g>
<!-- Node2 -->
<g id="node2" class="node"><title>Node2</title>
<g id="a_node2"><a xlink:href="$print__vprintf_8cpp.html#a473b9349f4b086b552a21eb8fe057016" xlink:title="print_vprintf">
<polygon fill="white" stroke="black" points="171,-76.5 171,-95.5 239,-95.5 239,-76.5 171,-76.5"/>
<text text-anchor="middle" x="205" y="-83.5" font-family="Helvetica,sans-Serif" font-size="10.00">print_vprintf</text>
</a>
</g>
</g>
<!-- Node1&#45;&gt;Node2 -->
<g id="edge1" class="edge"><title>Node1&#45;&gt;Node2</title>
<path fill="none" stroke="midnightblue" d="M119.576,-74.7828C133.331,-76.6104 147.746,-78.5257 160.692,-80.2458"/>
<polygon fill="midnightblue" stroke="midnightblue" points="160.346,-83.7304 170.72,-81.5781 161.268,-76.7914 160.346,-83.7304"/>
</g>
<!-- Node8 -->
<g id="node8" class="node"><title>Node8</title>
<g id="a_node8"><a xlink:href="$classBufferPrinter.html#a0b98d7f59a6591097d2011d68359b8a0" xlink:title="BufferPrinter::write">
<polygon fill="white" stroke="black" points="156,-38.5 156,-57.5 254,-57.5 254,-38.5 156,-38.5"/>
<text text-anchor="middle" x="205" y="-45.5" font-family="Helvetica,sans-Serif" font-size="10.00">BufferPrinter::write</text>
</a>
</g>
</g>
<!-- Node1&#45;&gt;Node8 -->
<g id="edge7" class="edge"><title>Node1&#45;&gt;Node8</title>
<path fill="none" stroke="midnightblue" d="M119.576,-59.2172C128.225,-58.0681 137.134,-56.8843 145.775,-55.7362"/>
<polygon fill="midnightblue" stroke="midnightblue" points="146.312,-59.1956 155.764,-54.4089 145.39,-52.2566 146.312,-59.1956"/>
</g>
<!-- Node3 -->
<g id="node3" class="node"><title>Node3</title>
<g id="a_node3"><a xlink:href="$classAP__HAL_1_1Print.html#acc65391952a43334f8f5c9bef341f501" xlink:title="AP_HAL::Print::write">
<polygon fill="white" stroke="black" points="290,-152.5 290,-171.5 398,-171.5 398,-152.5 290,-152.5"/>
<text text-anchor="middle" x="344" y="-159.5" font-family="Helvetica,sans-Serif" font-size="10.00">AP_HAL::Print::write</text>
</a>
</g>
</g>
<!-- Node2&#45;&gt;Node3 -->
<g id="edge2" class="edge"><title>Node2&#45;&gt;Node3</title>
<path fill="none" stroke="midnightblue" d="M217.92,-95.5216C233.681,-107.767 262.662,-129.106 290,-143 294.03,-145.048 298.334,-146.977 302.681,-148.761"/>
<polygon fill="midnightblue" stroke="midnightblue" points="301.588,-152.091 312.177,-152.431 304.111,-145.562 301.588,-152.091"/>
</g>
<!-- Node4 -->
<g id="node4" class="node"><title>Node4</title>
<g id="a_node4"><a xlink:href="$ftoa__engine_8cpp.html#a1c28234da8f20b43c85890d4bb452947" xlink:title="ftoa_engine">
<polygon fill="white" stroke="black" points="310.5,-114.5 310.5,-133.5 377.5,-133.5 377.5,-114.5 310.5,-114.5"/>
<text text-anchor="middle" x="344" y="-121.5" font-family="Helvetica,sans-Serif" font-size="10.00">ftoa_engine</text>
</a>
</g>
</g>
<!-- Node2&#45;&gt;Node4 -->
<g id="edge3" class="edge"><title>Node2&#45;&gt;Node4</title>
<path fill="none" stroke="midnightblue" d="M239.164,-95.1987C257.591,-100.31 280.715,-106.724 300.461,-112.201"/>
<polygon fill="midnightblue" stroke="midnightblue" points="299.57,-115.586 310.142,-114.886 301.441,-108.84 299.57,-115.586"/>
</g>
<!-- Node5 -->
<g id="node5" class="node"><title>Node5</title>
<g id="a_node5"><a xlink:href="$AP__Progmem__Identity_8h.html#a1514e0408e036062b4af844baaf567da" xlink:title="pgm_read_byte">
<polygon fill="white" stroke="black" points="302.5,-76.5 302.5,-95.5 385.5,-95.5 385.5,-76.5 302.5,-76.5"/>
<text text-anchor="middle" x="344" y="-83.5" font-family="Helvetica,sans-Serif" font-size="10.00">pgm_read_byte</text>
</a>
</g>
</g>
<!-- Node2&#45;&gt;Node5 -->
<g id="edge4" class="edge"><title>Node2&#45;&gt;Node5</title>
<path fill="none" stroke="midnightblue" d="M239.164,-86C255.051,-86 274.431,-86 292.127,-86"/>
<polygon fill="midnightblue" stroke="midnightblue" points="292.313,-89.5001 302.313,-86 292.313,-82.5001 292.313,-89.5001"/>
</g>
<!-- Node6 -->
<g id="node6" class="node"><title>Node6</title>
<g id="a_node6"><a xlink:href="$AP__Progmem__Identity_8h.html#a7c38516a089d1799b00c59fbb0820841" xlink:title="strnlen_P">
<polygon fill="white" stroke="black" points="315,-38.5 315,-57.5 373,-57.5 373,-38.5 315,-38.5"/>
<text text-anchor="middle" x="344" y="-45.5" font-family="Helvetica,sans-Serif" font-size="10.00">strnlen_P</text>
</a>
</g>
</g>
<!-- Node2&#45;&gt;Node6 -->
<g id="edge5" class="edge"><title>Node2&#45;&gt;Node6</title>
<path fill="none" stroke="midnightblue" d="M239.164,-76.8013C259.036,-71.2894 284.371,-64.262 305.041,-58.5287"/>
<polygon fill="midnightblue" stroke="midnightblue" points="306.069,-61.876 314.769,-55.8304 304.198,-55.1306 306.069,-61.876"/>
</g>
<!-- Node7 -->
<g id="node7" class="node"><title>Node7</title>
<g id="a_node7"><a xlink:href="$utoa__invert_8cpp.html#a5d99bba8e697c1e11da489d88fca8559" xlink:title="ultoa_invert">
<polygon fill="white" stroke="black" points="310.5,-0.5 310.5,-19.5 377.5,-19.5 377.5,-0.5 310.5,-0.5"/>
<text text-anchor="middle" x="344" y="-7.5" font-family="Helvetica,sans-Serif" font-size="10.00">ultoa_invert</text>
</a>
</g>
</g>
<!-- Node2&#45;&gt;Node7 -->
<g id="edge6" class="edge"><title>Node2&#45;&gt;Node7</title>
<path fill="none" stroke="midnightblue" d="M235.956,-76.4788C242.178,-73.8707 248.506,-70.7156 254,-67 273.271,-53.9665 270.519,-41.7167 290,-29 293.499,-26.7158 297.308,-24.6647 301.225,-22.8325"/>
<polygon fill="midnightblue" stroke="midnightblue" points="302.604,-26.0494 310.466,-18.9479 299.891,-19.5963 302.604,-26.0494"/>
</g>
</g>
</svg>
