<?xml version="1.0" encoding="UTF-8" standalone="no"?>
<!DOCTYPE svg PUBLIC "-//W3C//DTD SVG 1.1//EN"
 "http://www.w3.org/Graphics/SVG/1.1/DTD/svg11.dtd">
<!-- Generated by graphviz version 2.36.0 (20140111.2315)
 -->
<!-- Title: Linux::ToneAlarm::play Pages: 1 -->
<svg width="280pt" height="77pt"
 viewBox="0.00 0.00 280.00 77.00" xmlns="http://www.w3.org/2000/svg" xmlns:xlink="http://www.w3.org/1999/xlink">
<g id="graph0" class="graph" transform="scale(1 1) rotate(0) translate(4 73)">
<title>Linux::ToneAlarm::play</title>
<polygon fill="white" stroke="none" points="-4,4 -4,-73 276,-73 276,4 -4,4"/>
<!-- Node1 -->
<g id="node1" class="node"><title>Node1</title>
<polygon fill="#bfbfbf" stroke="black" points="0.5,-22.5 0.5,-41.5 117.5,-41.5 117.5,-22.5 0.5,-22.5"/>
<text text-anchor="middle" x="59" y="-29.5" font-family="Helvetica,sans-Serif" font-size="10.00">Linux::ToneAlarm::play</text>
</g>
<!-- Node2 -->
<g id="node2" class="node"><title>Node2</title>
<g id="a_node2"><a xlink:href="$classAP__HAL_1_1Scheduler.html#a26b68339fc68a562d8d3a1238d0ec8c1" xlink:title="AP_HAL::Scheduler::\lmillis">
<polygon fill="white" stroke="black" points="158,-39 158,-69 268,-69 268,-39 158,-39"/>
<text text-anchor="start" x="166" y="-57" font-family="Helvetica,sans-Serif" font-size="10.00">AP_HAL::Scheduler::</text>
<text text-anchor="middle" x="213" y="-46" font-family="Helvetica,sans-Serif" font-size="10.00">millis</text>
</a>
</g>
</g>
<!-- Node1&#45;&gt;Node2 -->
<g id="edge1" class="edge"><title>Node1&#45;&gt;Node2</title>
<path fill="none" stroke="midnightblue" d="M117.898,-40.38C127.612,-41.7859 137.745,-43.2525 147.61,-44.6804"/>
<polygon fill="midnightblue" stroke="midnightblue" points="147.367,-48.1816 157.765,-46.1502 148.369,-41.2538 147.367,-48.1816"/>
</g>
<!-- Node3 -->
<g id="node3" class="node"><title>Node3</title>
<g id="a_node3"><a xlink:href="$classLinux_1_1ToneAlarm.html#ab53fe81105dd427f3309e0e054e8002a" xlink:title="Linux::ToneAlarm::stop">
<polygon fill="white" stroke="black" points="154,-0.5 154,-19.5 272,-19.5 272,-0.5 154,-0.5"/>
<text text-anchor="middle" x="213" y="-7.5" font-family="Helvetica,sans-Serif" font-size="10.00">Linux::ToneAlarm::stop</text>
</a>
</g>
</g>
<!-- Node1&#45;&gt;Node3 -->
<g id="edge2" class="edge"><title>Node1&#45;&gt;Node3</title>
<path fill="none" stroke="midnightblue" d="M117.898,-23.62C126.34,-22.3981 135.099,-21.1304 143.723,-19.8821"/>
<polygon fill="midnightblue" stroke="midnightblue" points="144.364,-23.326 153.759,-18.4296 143.361,-16.3982 144.364,-23.326"/>
</g>
</g>
</svg>
