<?xml version="1.0" encoding="UTF-8" standalone="no"?>
<!DOCTYPE svg PUBLIC "-//W3C//DTD SVG 1.1//EN"
 "http://www.w3.org/Graphics/SVG/1.1/DTD/svg11.dtd">
<!-- Generated by graphviz version 2.36.0 (20140111.2315)
 -->
<!-- Title: AP_Mount_Alexmos::update Pages: 1 -->
<svg width="886pt" height="432pt"
 viewBox="0.00 0.00 886.00 432.00" xmlns="http://www.w3.org/2000/svg" xmlns:xlink="http://www.w3.org/1999/xlink">
<g id="graph0" class="graph" transform="scale(1 1) rotate(0) translate(4 428)">
<title>AP_Mount_Alexmos::update</title>
<polygon fill="white" stroke="none" points="-4,4 -4,-428 882,-428 882,4 -4,4"/>
<!-- Node1 -->
<g id="node1" class="node"><title>Node1</title>
<polygon fill="#bfbfbf" stroke="black" points="0.5,-246.5 0.5,-265.5 141.5,-265.5 141.5,-246.5 0.5,-246.5"/>
<text text-anchor="middle" x="71" y="-253.5" font-family="Helvetica,sans-Serif" font-size="10.00">AP_Mount_Alexmos::update</text>
</g>
<!-- Node2 -->
<g id="node2" class="node"><title>Node2</title>
<g id="a_node2"><a xlink:href="$classAP__Mount__Alexmos.html#ae8cbf59b4d11fb8f9d74e9283c6173df" xlink:title="AP_Mount_Alexmos::read\l_incoming">
<polygon fill="white" stroke="black" points="194.5,-343 194.5,-373 325.5,-373 325.5,-343 194.5,-343"/>
<text text-anchor="start" x="202.5" y="-361" font-family="Helvetica,sans-Serif" font-size="10.00">AP_Mount_Alexmos::read</text>
<text text-anchor="middle" x="260" y="-350" font-family="Helvetica,sans-Serif" font-size="10.00">_incoming</text>
</a>
</g>
</g>
<!-- Node1&#45;&gt;Node2 -->
<g id="edge1" class="edge"><title>Node1&#45;&gt;Node2</title>
<path fill="none" stroke="midnightblue" d="M88.42,-265.542C109.165,-277.541 146.024,-298.667 178,-316 191.691,-323.421 206.813,-331.337 220.247,-338.272"/>
<polygon fill="midnightblue" stroke="midnightblue" points="218.746,-341.436 229.239,-342.899 221.949,-335.212 218.746,-341.436"/>
</g>
<!-- Node6 -->
<g id="node6" class="node"><title>Node6</title>
<g id="a_node6"><a xlink:href="$classAP__Mount__Backend.html#a5b180d2237a8e70d512762f651291f49" xlink:title="AP_Mount_Backend::get_mode">
<polygon fill="white" stroke="black" points="182.5,-287.5 182.5,-306.5 337.5,-306.5 337.5,-287.5 182.5,-287.5"/>
<text text-anchor="middle" x="260" y="-294.5" font-family="Helvetica,sans-Serif" font-size="10.00">AP_Mount_Backend::get_mode</text>
</a>
</g>
</g>
<!-- Node1&#45;&gt;Node6 -->
<g id="edge5" class="edge"><title>Node1&#45;&gt;Node6</title>
<path fill="none" stroke="midnightblue" d="M115.372,-265.509C142.299,-271.413 177.102,-279.044 205.705,-285.315"/>
<polygon fill="midnightblue" stroke="midnightblue" points="205.023,-288.748 215.54,-287.471 206.522,-281.911 205.023,-288.748"/>
</g>
<!-- Node8 -->
<g id="node8" class="node"><title>Node8</title>
<g id="a_node8"><a xlink:href="$classAP__Mount__Alexmos.html#a1f6761ce850ccd070fddd623eb9d577a" xlink:title="AP_Mount_Alexmos::control_axis">
<polygon fill="white" stroke="black" points="178,-246.5 178,-265.5 342,-265.5 342,-246.5 178,-246.5"/>
<text text-anchor="middle" x="260" y="-253.5" font-family="Helvetica,sans-Serif" font-size="10.00">AP_Mount_Alexmos::control_axis</text>
</a>
</g>
</g>
<!-- Node1&#45;&gt;Node8 -->
<g id="edge7" class="edge"><title>Node1&#45;&gt;Node8</title>
<path fill="none" stroke="midnightblue" d="M141.632,-256C150.14,-256 158.931,-256 167.697,-256"/>
<polygon fill="midnightblue" stroke="midnightblue" points="167.956,-259.5 177.956,-256 167.956,-252.5 167.956,-259.5"/>
</g>
<!-- Node12 -->
<g id="node12" class="node"><title>Node12</title>
<g id="a_node12"><a xlink:href="$classAP__Mount__Backend.html#ab4be0d28626c019ba59dc179f728c9c9" xlink:title="AP_Mount_Backend::update\l_targets_from_rc">
<polygon fill="white" stroke="black" points="189.5,-178 189.5,-208 330.5,-208 330.5,-178 189.5,-178"/>
<text text-anchor="start" x="197.5" y="-196" font-family="Helvetica,sans-Serif" font-size="10.00">AP_Mount_Backend::update</text>
<text text-anchor="middle" x="260" y="-185" font-family="Helvetica,sans-Serif" font-size="10.00">_targets_from_rc</text>
</a>
</g>
</g>
<!-- Node1&#45;&gt;Node12 -->
<g id="edge11" class="edge"><title>Node1&#45;&gt;Node12</title>
<path fill="none" stroke="midnightblue" d="M100.401,-246.432C127.927,-237.158 170.397,-222.85 204.463,-211.373"/>
<polygon fill="midnightblue" stroke="midnightblue" points="205.924,-214.575 214.283,-208.065 203.689,-207.941 205.924,-214.575"/>
</g>
<!-- Node18 -->
<g id="node18" class="node"><title>Node18</title>
<g id="a_node18"><a xlink:href="$classAP__Mount__Backend.html#ab0207ef4fbcb40f1592a85cc75ddad37" xlink:title="AP_Mount_Backend::calc\l_angle_to_location">
<polygon fill="white" stroke="black" points="195,-52 195,-82 325,-82 325,-52 195,-52"/>
<text text-anchor="start" x="203" y="-70" font-family="Helvetica,sans-Serif" font-size="10.00">AP_Mount_Backend::calc</text>
<text text-anchor="middle" x="260" y="-59" font-family="Helvetica,sans-Serif" font-size="10.00">_angle_to_location</text>
</a>
</g>
</g>
<!-- Node1&#45;&gt;Node18 -->
<g id="edge18" class="edge"><title>Node1&#45;&gt;Node18</title>
<path fill="none" stroke="midnightblue" d="M81.5304,-246.368C110.188,-217.404 196.109,-130.564 236.96,-89.2761"/>
<polygon fill="midnightblue" stroke="midnightblue" points="239.494,-91.6914 244.039,-82.1211 234.518,-86.768 239.494,-91.6914"/>
</g>
<!-- Node3 -->
<g id="node3" class="node"><title>Node3</title>
<g id="a_node3"><a xlink:href="$classAP__HAL_1_1Stream.html#ae687e48f5689af94d66fb88822923e12" xlink:title="AP_HAL::Stream::available">
<polygon fill="white" stroke="black" points="390.5,-404.5 390.5,-423.5 527.5,-423.5 527.5,-404.5 390.5,-404.5"/>
<text text-anchor="middle" x="459" y="-411.5" font-family="Helvetica,sans-Serif" font-size="10.00">AP_HAL::Stream::available</text>
</a>
</g>
</g>
<!-- Node2&#45;&gt;Node3 -->
<g id="edge2" class="edge"><title>Node2&#45;&gt;Node3</title>
<path fill="none" stroke="midnightblue" d="M305.774,-373.004C327.472,-380.059 353.976,-388.358 378,-395 386.791,-397.43 396.177,-399.831 405.313,-402.066"/>
<polygon fill="midnightblue" stroke="midnightblue" points="404.547,-405.481 415.089,-404.419 406.186,-398.676 404.547,-405.481"/>
</g>
<!-- Node4 -->
<g id="node4" class="node"><title>Node4</title>
<g id="a_node4"><a xlink:href="$classAP__HAL_1_1Stream.html#ae42ff362cc2a7e527c22f92a3740c2ac" xlink:title="AP_HAL::Stream::read">
<polygon fill="white" stroke="black" points="400.5,-366.5 400.5,-385.5 517.5,-385.5 517.5,-366.5 400.5,-366.5"/>
<text text-anchor="middle" x="459" y="-373.5" font-family="Helvetica,sans-Serif" font-size="10.00">AP_HAL::Stream::read</text>
</a>
</g>
</g>
<!-- Node2&#45;&gt;Node4 -->
<g id="edge3" class="edge"><title>Node2&#45;&gt;Node4</title>
<path fill="none" stroke="midnightblue" d="M325.505,-363.894C346.238,-365.788 369.262,-367.892 390.223,-369.807"/>
<polygon fill="midnightblue" stroke="midnightblue" points="390.051,-373.306 400.328,-370.731 390.688,-366.335 390.051,-373.306"/>
</g>
<!-- Node5 -->
<g id="node5" class="node"><title>Node5</title>
<g id="a_node5"><a xlink:href="$classAP__Mount__Alexmos.html#a86d97ef92dce997f93ad929d09d9ed52" xlink:title="AP_Mount_Alexmos::parse_body">
<polygon fill="white" stroke="black" points="378,-328.5 378,-347.5 540,-347.5 540,-328.5 378,-328.5"/>
<text text-anchor="middle" x="459" y="-335.5" font-family="Helvetica,sans-Serif" font-size="10.00">AP_Mount_Alexmos::parse_body</text>
</a>
</g>
</g>
<!-- Node2&#45;&gt;Node5 -->
<g id="edge4" class="edge"><title>Node2&#45;&gt;Node5</title>
<path fill="none" stroke="midnightblue" d="M325.505,-351.451C338.959,-350.085 353.378,-348.622 367.572,-347.181"/>
<polygon fill="midnightblue" stroke="midnightblue" points="368.255,-350.629 377.85,-346.137 367.548,-343.665 368.255,-350.629"/>
</g>
<!-- Node7 -->
<g id="node7" class="node"><title>Node7</title>
<g id="a_node7"><a xlink:href="$classAP__Mount.html#a26ea3e1c86204271b6b90f1fb4f3ee92" xlink:title="AP_Mount::get_mode">
<polygon fill="white" stroke="black" points="403.5,-290.5 403.5,-309.5 514.5,-309.5 514.5,-290.5 403.5,-290.5"/>
<text text-anchor="middle" x="459" y="-297.5" font-family="Helvetica,sans-Serif" font-size="10.00">AP_Mount::get_mode</text>
</a>
</g>
</g>
<!-- Node6&#45;&gt;Node7 -->
<g id="edge6" class="edge"><title>Node6&#45;&gt;Node7</title>
<path fill="none" stroke="midnightblue" d="M337.729,-298.168C356.063,-298.448 375.455,-298.743 393.19,-299.013"/>
<polygon fill="midnightblue" stroke="midnightblue" points="393.369,-302.516 403.421,-299.169 393.475,-295.517 393.369,-302.516"/>
</g>
<!-- Node9 -->
<g id="node9" class="node"><title>Node9</title>
<g id="a_node9"><a xlink:href="$classAP__Mount__Alexmos.html#aad80a69937fd3356ed8f2e338bde3605" xlink:title="AP_Mount_Alexmos::send\l_command">
<polygon fill="white" stroke="black" points="392.5,-241 392.5,-271 525.5,-271 525.5,-241 392.5,-241"/>
<text text-anchor="start" x="400.5" y="-259" font-family="Helvetica,sans-Serif" font-size="10.00">AP_Mount_Alexmos::send</text>
<text text-anchor="middle" x="459" y="-248" font-family="Helvetica,sans-Serif" font-size="10.00">_command</text>
</a>
</g>
</g>
<!-- Node8&#45;&gt;Node9 -->
<g id="edge8" class="edge"><title>Node8&#45;&gt;Node9</title>
<path fill="none" stroke="midnightblue" d="M342.265,-256C355.395,-256 368.947,-256 381.947,-256"/>
<polygon fill="midnightblue" stroke="midnightblue" points="382.237,-259.5 392.237,-256 382.237,-252.5 382.237,-259.5"/>
</g>
<!-- Node10 -->
<g id="node10" class="node"><title>Node10</title>
<g id="a_node10"><a xlink:href="$classAP__HAL_1_1Stream.html#a7028834212873394e906bcaf7f4a06b3" xlink:title="AP_HAL::Stream::txspace">
<polygon fill="white" stroke="black" points="577.5,-265.5 577.5,-284.5 710.5,-284.5 710.5,-265.5 577.5,-265.5"/>
<text text-anchor="middle" x="644" y="-272.5" font-family="Helvetica,sans-Serif" font-size="10.00">AP_HAL::Stream::txspace</text>
</a>
</g>
</g>
<!-- Node9&#45;&gt;Node10 -->
<g id="edge9" class="edge"><title>Node9&#45;&gt;Node10</title>
<path fill="none" stroke="midnightblue" d="M525.55,-262.806C539.085,-264.211 553.445,-265.702 567.306,-267.141"/>
<polygon fill="midnightblue" stroke="midnightblue" points="566.984,-270.626 577.292,-268.178 567.707,-263.664 566.984,-270.626"/>
</g>
<!-- Node11 -->
<g id="node11" class="node"><title>Node11</title>
<g id="a_node11"><a xlink:href="$classAP__HAL_1_1Print.html#acc65391952a43334f8f5c9bef341f501" xlink:title="AP_HAL::Print::write">
<polygon fill="white" stroke="black" points="590,-227.5 590,-246.5 698,-246.5 698,-227.5 590,-227.5"/>
<text text-anchor="middle" x="644" y="-234.5" font-family="Helvetica,sans-Serif" font-size="10.00">AP_HAL::Print::write</text>
</a>
</g>
</g>
<!-- Node9&#45;&gt;Node11 -->
<g id="edge10" class="edge"><title>Node9&#45;&gt;Node11</title>
<path fill="none" stroke="midnightblue" d="M525.55,-249.194C543.211,-247.361 562.278,-245.381 579.808,-243.561"/>
<polygon fill="midnightblue" stroke="midnightblue" points="580.344,-247.024 589.929,-242.51 579.621,-240.062 580.344,-247.024"/>
</g>
<!-- Node13 -->
<g id="node13" class="node"><title>Node13</title>
<g id="a_node13"><a xlink:href="$AP__Math_8cpp.html#a08eedb329d8162ddbd344d4f6c8cde20" xlink:title="constrain_float">
<polygon fill="white" stroke="black" points="419,-202.5 419,-221.5 499,-221.5 499,-202.5 419,-202.5"/>
<text text-anchor="middle" x="459" y="-209.5" font-family="Helvetica,sans-Serif" font-size="10.00">constrain_float</text>
</a>
</g>
</g>
<!-- Node12&#45;&gt;Node13 -->
<g id="edge12" class="edge"><title>Node12&#45;&gt;Node13</title>
<path fill="none" stroke="midnightblue" d="M330.732,-199.725C356.475,-202.208 385.093,-204.968 408.66,-207.241"/>
<polygon fill="midnightblue" stroke="midnightblue" points="408.476,-210.74 418.766,-208.216 409.148,-203.772 408.476,-210.74"/>
</g>
<!-- Node14 -->
<g id="node14" class="node"><title>Node14</title>
<g id="a_node14"><a xlink:href="$AP__Math_8cpp.html#aa3adb05231060d239e5b91940e001f85" xlink:title="radians">
<polygon fill="white" stroke="black" points="620,-164.5 620,-183.5 668,-183.5 668,-164.5 620,-164.5"/>
<text text-anchor="middle" x="644" y="-171.5" font-family="Helvetica,sans-Serif" font-size="10.00">radians</text>
</a>
</g>
</g>
<!-- Node12&#45;&gt;Node14 -->
<g id="edge13" class="edge"><title>Node12&#45;&gt;Node14</title>
<path fill="none" stroke="midnightblue" d="M330.621,-189.537C413.213,-185.429 547.51,-178.75 609.587,-175.662"/>
<polygon fill="midnightblue" stroke="midnightblue" points="609.797,-179.156 619.611,-175.163 609.449,-172.165 609.797,-179.156"/>
</g>
<!-- Node15 -->
<g id="node15" class="node"><title>Node15</title>
<g id="a_node15"><a xlink:href="$classAP__Mount__Backend.html#a7cbf9f6695f80998e1cc39b9a3a5a0ae" xlink:title="AP_Mount_Backend::angle\l_input_rad">
<polygon fill="white" stroke="black" points="391.5,-115 391.5,-145 526.5,-145 526.5,-115 391.5,-115"/>
<text text-anchor="start" x="399.5" y="-133" font-family="Helvetica,sans-Serif" font-size="10.00">AP_Mount_Backend::angle</text>
<text text-anchor="middle" x="459" y="-122" font-family="Helvetica,sans-Serif" font-size="10.00">_input_rad</text>
</a>
</g>
</g>
<!-- Node12&#45;&gt;Node15 -->
<g id="edge14" class="edge"><title>Node12&#45;&gt;Node15</title>
<path fill="none" stroke="midnightblue" d="M307.936,-177.99C335.952,-169.031 371.718,-157.593 401.305,-148.131"/>
<polygon fill="midnightblue" stroke="midnightblue" points="402.624,-151.384 411.082,-145.004 400.492,-144.716 402.624,-151.384"/>
</g>
<!-- Node15&#45;&gt;Node14 -->
<g id="edge15" class="edge"><title>Node15&#45;&gt;Node14</title>
<path fill="none" stroke="midnightblue" d="M522.466,-145.019C551.821,-152.077 585.622,-160.204 609.947,-166.053"/>
<polygon fill="midnightblue" stroke="midnightblue" points="609.209,-169.475 619.75,-168.41 610.846,-162.669 609.209,-169.475"/>
</g>
<!-- Node16 -->
<g id="node16" class="node"><title>Node16</title>
<g id="a_node16"><a xlink:href="$classAP__Mount__Backend.html#aca1f2d5e9e859d8458772006a5e9a178" xlink:title="AP_Mount_Backend::angle\l_input">
<polygon fill="white" stroke="black" points="576.5,-115 576.5,-145 711.5,-145 711.5,-115 576.5,-115"/>
<text text-anchor="start" x="584.5" y="-133" font-family="Helvetica,sans-Serif" font-size="10.00">AP_Mount_Backend::angle</text>
<text text-anchor="middle" x="644" y="-122" font-family="Helvetica,sans-Serif" font-size="10.00">_input</text>
</a>
</g>
</g>
<!-- Node15&#45;&gt;Node16 -->
<g id="edge16" class="edge"><title>Node15&#45;&gt;Node16</title>
<path fill="none" stroke="midnightblue" d="M526.585,-130C539.533,-130 553.203,-130 566.443,-130"/>
<polygon fill="midnightblue" stroke="midnightblue" points="566.465,-133.5 576.465,-130 566.465,-126.5 566.465,-133.5"/>
</g>
<!-- Node17 -->
<g id="node17" class="node"><title>Node17</title>
<g id="a_node17"><a xlink:href="$classRC__Channel.html#a34a93842b1cf847373104b682fa28cd5" xlink:title="RC_Channel::get_reverse">
<polygon fill="white" stroke="black" points="748,-120.5 748,-139.5 878,-139.5 878,-120.5 748,-120.5"/>
<text text-anchor="middle" x="813" y="-127.5" font-family="Helvetica,sans-Serif" font-size="10.00">RC_Channel::get_reverse</text>
</a>
</g>
</g>
<!-- Node16&#45;&gt;Node17 -->
<g id="edge17" class="edge"><title>Node16&#45;&gt;Node17</title>
<path fill="none" stroke="midnightblue" d="M711.963,-130C720.35,-130 728.968,-130 737.462,-130"/>
<polygon fill="midnightblue" stroke="midnightblue" points="737.736,-133.5 747.736,-130 737.736,-126.5 737.736,-133.5"/>
</g>
<!-- Node19 -->
<g id="node19" class="node"><title>Node19</title>
<g id="a_node19"><a xlink:href="$AP__Math_8cpp.html#afd3767d48a7b20f6d5220a4f8007af00" xlink:title="pythagorous2">
<polygon fill="white" stroke="black" points="421.5,-76.5 421.5,-95.5 496.5,-95.5 496.5,-76.5 421.5,-76.5"/>
<text text-anchor="middle" x="459" y="-83.5" font-family="Helvetica,sans-Serif" font-size="10.00">pythagorous2</text>
</a>
</g>
</g>
<!-- Node18&#45;&gt;Node19 -->
<g id="edge19" class="edge"><title>Node18&#45;&gt;Node19</title>
<path fill="none" stroke="midnightblue" d="M325.233,-73.195C353.259,-75.8981 385.514,-79.009 411.214,-81.4876"/>
<polygon fill="midnightblue" stroke="midnightblue" points="411.145,-84.9971 421.434,-82.4734 411.817,-78.0294 411.145,-84.9971"/>
</g>
<!-- Node21 -->
<g id="node21" class="node"><title>Node21</title>
<g id="a_node21"><a xlink:href="$classVector3.html#adf1769d5ee5df2f8585df2f540fa5efe" xlink:title="Vector3::zero">
<polygon fill="white" stroke="black" points="421.5,-38.5 421.5,-57.5 496.5,-57.5 496.5,-38.5 421.5,-38.5"/>
<text text-anchor="middle" x="459" y="-45.5" font-family="Helvetica,sans-Serif" font-size="10.00">Vector3::zero</text>
</a>
</g>
</g>
<!-- Node18&#45;&gt;Node21 -->
<g id="edge21" class="edge"><title>Node18&#45;&gt;Node21</title>
<path fill="none" stroke="midnightblue" d="M325.233,-60.805C353.259,-58.1019 385.514,-54.991 411.214,-52.5124"/>
<polygon fill="midnightblue" stroke="midnightblue" points="411.817,-55.9706 421.434,-51.5266 411.145,-49.0029 411.817,-55.9706"/>
</g>
<!-- Node22 -->
<g id="node22" class="node"><title>Node22</title>
<g id="a_node22"><a xlink:href="$AP__Math_8h.html#ada62278a4b460237f914e1c6a5355e55" xlink:title="wrap_PI">
<polygon fill="white" stroke="black" points="432.5,-0.5 432.5,-19.5 485.5,-19.5 485.5,-0.5 432.5,-0.5"/>
<text text-anchor="middle" x="459" y="-7.5" font-family="Helvetica,sans-Serif" font-size="10.00">wrap_PI</text>
</a>
</g>
</g>
<!-- Node18&#45;&gt;Node22 -->
<g id="edge22" class="edge"><title>Node18&#45;&gt;Node22</title>
<path fill="none" stroke="midnightblue" d="M304.361,-51.992C326.302,-44.6343 353.428,-35.8961 378,-29 392.348,-24.9734 408.297,-21.0713 422.155,-17.8618"/>
<polygon fill="midnightblue" stroke="midnightblue" points="423.313,-21.1877 432.284,-15.5519 421.756,-14.363 423.313,-21.1877"/>
</g>
<!-- Node20 -->
<g id="node20" class="node"><title>Node20</title>
<g id="a_node20"><a xlink:href="$AP__Math_8cpp.html#a996fdbe87607543eef5dcb234f6bc017" xlink:title="sq">
<polygon fill="white" stroke="black" points="629.5,-76.5 629.5,-95.5 658.5,-95.5 658.5,-76.5 629.5,-76.5"/>
<text text-anchor="middle" x="644" y="-83.5" font-family="Helvetica,sans-Serif" font-size="10.00">sq</text>
</a>
</g>
</g>
<!-- Node19&#45;&gt;Node20 -->
<g id="edge20" class="edge"><title>Node19&#45;&gt;Node20</title>
<path fill="none" stroke="midnightblue" d="M496.593,-86C533.008,-86 587.836,-86 619.034,-86"/>
<polygon fill="midnightblue" stroke="midnightblue" points="619.381,-89.5001 629.381,-86 619.381,-82.5001 619.381,-89.5001"/>
</g>
</g>
</svg>
