<?xml version="1.0" encoding="UTF-8" standalone="no"?>
<!DOCTYPE svg PUBLIC "-//W3C//DTD SVG 1.1//EN"
 "http://www.w3.org/Graphics/SVG/1.1/DTD/svg11.dtd">
<!-- Generated by graphviz version 2.36.0 (20140111.2315)
 -->
<!-- Title: LowPassFilter2p::LowPassFilter2p Pages: 1 -->
<svg width="424pt" height="38pt"
 viewBox="0.00 0.00 424.00 38.00" xmlns="http://www.w3.org/2000/svg" xmlns:xlink="http://www.w3.org/1999/xlink">
<g id="graph0" class="graph" transform="scale(1 1) rotate(0) translate(4 34)">
<title>LowPassFilter2p::LowPassFilter2p</title>
<polygon fill="white" stroke="none" points="-4,4 -4,-34 420,-34 420,4 -4,4"/>
<!-- Node1 -->
<g id="node1" class="node"><title>Node1</title>
<polygon fill="#bfbfbf" stroke="black" points="0,-0 0,-30 136,-30 136,-0 0,-0"/>
<text text-anchor="start" x="8" y="-18" font-family="Helvetica,sans-Serif" font-size="10.00">LowPassFilter2p::LowPass</text>
<text text-anchor="middle" x="68" y="-7" font-family="Helvetica,sans-Serif" font-size="10.00">Filter2p</text>
</g>
<!-- Node2 -->
<g id="node2" class="node"><title>Node2</title>
<g id="a_node2"><a xlink:href="$classLowPassFilter2p.html#a354e914d7d8979e54134c3077ee8359a" xlink:title="LowPassFilter2p::set\l_cutoff_frequency">
<polygon fill="white" stroke="black" points="172.5,-0 172.5,-30 281.5,-30 281.5,-0 172.5,-0"/>
<text text-anchor="start" x="180.5" y="-18" font-family="Helvetica,sans-Serif" font-size="10.00">LowPassFilter2p::set</text>
<text text-anchor="middle" x="227" y="-7" font-family="Helvetica,sans-Serif" font-size="10.00">_cutoff_frequency</text>
</a>
</g>
</g>
<!-- Node1&#45;&gt;Node2 -->
<g id="edge1" class="edge"><title>Node1&#45;&gt;Node2</title>
<path fill="none" stroke="midnightblue" d="M136.038,-15C144.783,-15 153.723,-15 162.41,-15"/>
<polygon fill="midnightblue" stroke="midnightblue" points="162.465,-18.5001 172.465,-15 162.465,-11.5001 162.465,-18.5001"/>
</g>
<!-- Node3 -->
<g id="node3" class="node"><title>Node3</title>
<g id="a_node3"><a xlink:href="$classDigitalBiquadFilter.html#a24c076203eb25a5744c867093da51d83" xlink:title="DigitalBiquadFilter\l::compute_params">
<polygon fill="white" stroke="black" points="318,-0 318,-30 416,-30 416,-0 318,-0"/>
<text text-anchor="start" x="326" y="-18" font-family="Helvetica,sans-Serif" font-size="10.00">DigitalBiquadFilter</text>
<text text-anchor="middle" x="367" y="-7" font-family="Helvetica,sans-Serif" font-size="10.00">::compute_params</text>
</a>
</g>
</g>
<!-- Node2&#45;&gt;Node3 -->
<g id="edge2" class="edge"><title>Node2&#45;&gt;Node3</title>
<path fill="none" stroke="midnightblue" d="M281.75,-15C290.143,-15 298.853,-15 307.349,-15"/>
<polygon fill="midnightblue" stroke="midnightblue" points="307.571,-18.5001 317.571,-15 307.571,-11.5001 307.571,-18.5001"/>
</g>
</g>
</svg>
