<?xml version="1.0" encoding="UTF-8" standalone="no"?>
<!DOCTYPE svg PUBLIC "-//W3C//DTD SVG 1.1//EN"
 "http://www.w3.org/Graphics/SVG/1.1/DTD/svg11.dtd">
<!-- Generated by graphviz version 2.36.0 (20140111.2315)
 -->
<!-- Title: AP_Motors::output Pages: 1 -->
<svg width="286pt" height="28pt"
 viewBox="0.00 0.00 286.00 28.00" xmlns="http://www.w3.org/2000/svg" xmlns:xlink="http://www.w3.org/1999/xlink">
<g id="graph0" class="graph" transform="scale(1 1) rotate(0) translate(4 24)">
<title>AP_Motors::output</title>
<polygon fill="white" stroke="none" points="-4,4 -4,-24 282,-24 282,4 -4,4"/>
<!-- Node1 -->
<g id="node1" class="node"><title>Node1</title>
<polygon fill="#bfbfbf" stroke="black" points="0,-0.5 0,-19.5 98,-19.5 98,-0.5 0,-0.5"/>
<text text-anchor="middle" x="49" y="-7.5" font-family="Helvetica,sans-Serif" font-size="10.00">AP_Motors::output</text>
</g>
<!-- Node2 -->
<g id="node2" class="node"><title>Node2</title>
<g id="a_node2"><a xlink:href="$AP__Motors__test_8pde.html#a7f47bb79f883994514efee9d8de3ec0c" xlink:title="stability_test">
<polygon fill="white" stroke="black" points="134,-0.5 134,-19.5 206,-19.5 206,-0.5 134,-0.5"/>
<text text-anchor="middle" x="170" y="-7.5" font-family="Helvetica,sans-Serif" font-size="10.00">stability_test</text>
</a>
</g>
</g>
<!-- Node1&#45;&gt;Node2 -->
<g id="edge1" class="edge"><title>Node1&#45;&gt;Node2</title>
<path fill="none" stroke="midnightblue" d="M108.29,-10C117.057,-10 125.86,-10 133.936,-10"/>
<polygon fill="midnightblue" stroke="midnightblue" points="108.059,-6.5001 98.0588,-10 108.059,-13.5001 108.059,-6.5001"/>
</g>
<!-- Node3 -->
<g id="node3" class="node"><title>Node3</title>
<g id="a_node3"><a xlink:href="$AP__Motors__test_8pde.html#afe461d27b9c48d5921c00d521181f12f" xlink:title="loop">
<polygon fill="white" stroke="black" points="242.5,-0.5 242.5,-19.5 277.5,-19.5 277.5,-0.5 242.5,-0.5"/>
<text text-anchor="middle" x="260" y="-7.5" font-family="Helvetica,sans-Serif" font-size="10.00">loop</text>
</a>
</g>
</g>
<!-- Node2&#45;&gt;Node3 -->
<g id="edge2" class="edge"><title>Node2&#45;&gt;Node3</title>
<path fill="none" stroke="midnightblue" d="M216.096,-10C225.42,-10 234.677,-10 242.194,-10"/>
<polygon fill="midnightblue" stroke="midnightblue" points="216.033,-6.5001 206.033,-10 216.033,-13.5001 216.033,-6.5001"/>
</g>
</g>
</svg>
