<?xml version="1.0" encoding="UTF-8" standalone="no"?>
<!DOCTYPE svg PUBLIC "-//W3C//DTD SVG 1.1//EN"
 "http://www.w3.org/Graphics/SVG/1.1/DTD/svg11.dtd">
<!-- Generated by graphviz version 2.36.0 (20140111.2315)
 -->
<!-- Title: DataFlash_Block::start_new_log Pages: 1 -->
<svg width="850pt" height="289pt"
 viewBox="0.00 0.00 850.00 289.46" xmlns="http://www.w3.org/2000/svg" xmlns:xlink="http://www.w3.org/1999/xlink">
<g id="graph0" class="graph" transform="scale(1 1) rotate(0) translate(4 285.463)">
<title>DataFlash_Block::start_new_log</title>
<polygon fill="white" stroke="none" points="-4,4 -4,-285.463 846,-285.463 846,4 -4,4"/>
<!-- Node1 -->
<g id="node1" class="node"><title>Node1</title>
<polygon fill="#bfbfbf" stroke="black" points="0.5,-120 0.5,-150 117.5,-150 117.5,-120 0.5,-120"/>
<text text-anchor="start" x="8.5" y="-138" font-family="Helvetica,sans-Serif" font-size="10.00">DataFlash_Block::start</text>
<text text-anchor="middle" x="59" y="-127" font-family="Helvetica,sans-Serif" font-size="10.00">_new_log</text>
</g>
<!-- Node2 -->
<g id="node2" class="node"><title>Node2</title>
<g id="a_node2"><a xlink:href="$classDataFlash__Block.html#a78f15fabdc088a5011a475bb258cc2cf" xlink:title="DataFlash_Block::find\l_last_page">
<polygon fill="white" stroke="black" points="332.5,-164 332.5,-194 445.5,-194 445.5,-164 332.5,-164"/>
<text text-anchor="start" x="340.5" y="-182" font-family="Helvetica,sans-Serif" font-size="10.00">DataFlash_Block::find</text>
<text text-anchor="middle" x="389" y="-171" font-family="Helvetica,sans-Serif" font-size="10.00">_last_page</text>
</a>
</g>
</g>
<!-- Node1&#45;&gt;Node2 -->
<g id="edge1" class="edge"><title>Node1&#45;&gt;Node2</title>
<path fill="none" stroke="midnightblue" d="M117.639,-143.774C129.649,-145.549 142.233,-147.37 154,-149 210.695,-156.855 275.222,-165.074 322.135,-170.919"/>
<polygon fill="midnightblue" stroke="midnightblue" points="321.812,-174.406 332.167,-172.166 322.676,-167.459 321.812,-174.406"/>
</g>
<!-- Node3 -->
<g id="node3" class="node"><title>Node3</title>
<g id="a_node3"><a xlink:href="$classDataFlash__Block.html#a7e3413fd597032d4f4692129d2c5d076" xlink:title="DataFlash_Block::StartRead">
<polygon fill="white" stroke="black" points="501,-232.5 501,-251.5 643,-251.5 643,-232.5 501,-232.5"/>
<text text-anchor="middle" x="572" y="-239.5" font-family="Helvetica,sans-Serif" font-size="10.00">DataFlash_Block::StartRead</text>
</a>
</g>
</g>
<!-- Node1&#45;&gt;Node3 -->
<g id="edge8" class="edge"><title>Node1&#45;&gt;Node3</title>
<path fill="none" stroke="midnightblue" d="M67.5625,-150.318C80.9816,-175.576 111.59,-225.231 154,-246 278.609,-307.025 450.347,-274.44 528.817,-254.2"/>
<polygon fill="midnightblue" stroke="midnightblue" points="530.036,-257.498 538.809,-251.559 528.247,-250.731 530.036,-257.498"/>
</g>
<!-- Node7 -->
<g id="node7" class="node"><title>Node7</title>
<g id="a_node7"><a xlink:href="$classDataFlash__Block.html#a48f708866996c334cff053400f452c7b" xlink:title="DataFlash_Block::GetFile\lNumber">
<polygon fill="white" stroke="black" points="507.5,-164 507.5,-194 636.5,-194 636.5,-164 507.5,-164"/>
<text text-anchor="start" x="515.5" y="-182" font-family="Helvetica,sans-Serif" font-size="10.00">DataFlash_Block::GetFile</text>
<text text-anchor="middle" x="572" y="-171" font-family="Helvetica,sans-Serif" font-size="10.00">Number</text>
</a>
</g>
</g>
<!-- Node1&#45;&gt;Node7 -->
<g id="edge13" class="edge"><title>Node1&#45;&gt;Node7</title>
<path fill="none" stroke="midnightblue" d="M117.563,-134.942C195.521,-135.532 338.853,-138.983 460,-155 473.084,-156.73 486.914,-159.196 500.206,-161.895"/>
<polygon fill="midnightblue" stroke="midnightblue" points="499.74,-165.373 510.245,-163.996 501.174,-158.521 499.74,-165.373"/>
</g>
<!-- Node8 -->
<g id="node8" class="node"><title>Node8</title>
<g id="a_node8"><a xlink:href="$classDataFlash__Block.html#a16fa3b75588895152474c93c6f0be088" xlink:title="DataFlash_Block::GetFilePage">
<polygon fill="white" stroke="black" points="496,-106.5 496,-125.5 648,-125.5 648,-106.5 496,-106.5"/>
<text text-anchor="middle" x="572" y="-113.5" font-family="Helvetica,sans-Serif" font-size="10.00">DataFlash_Block::GetFilePage</text>
</a>
</g>
</g>
<!-- Node1&#45;&gt;Node8 -->
<g id="edge17" class="edge"><title>Node1&#45;&gt;Node8</title>
<path fill="none" stroke="midnightblue" d="M117.524,-125.169C129.542,-123.471 142.158,-121.948 154,-121 268.602,-111.821 401.477,-112.106 485.861,-113.645"/>
<polygon fill="midnightblue" stroke="midnightblue" points="485.841,-117.145 495.906,-113.839 485.976,-110.147 485.841,-117.145"/>
</g>
<!-- Node9 -->
<g id="node9" class="node"><title>Node9</title>
<g id="a_node9"><a xlink:href="$classDataFlash__Block.html#ae6a5a7283d23359b18c7ee97c888f4b0" xlink:title="DataFlash_Block::find\l_last_log">
<polygon fill="white" stroke="black" points="161.5,-207 161.5,-237 274.5,-237 274.5,-207 161.5,-207"/>
<text text-anchor="start" x="169.5" y="-225" font-family="Helvetica,sans-Serif" font-size="10.00">DataFlash_Block::find</text>
<text text-anchor="middle" x="218" y="-214" font-family="Helvetica,sans-Serif" font-size="10.00">_last_log</text>
</a>
</g>
</g>
<!-- Node1&#45;&gt;Node9 -->
<g id="edge9" class="edge"><title>Node1&#45;&gt;Node9</title>
<path fill="none" stroke="midnightblue" d="M84.9042,-150.116C103.718,-161.401 130.268,-177.045 154,-190 161.507,-194.098 169.598,-198.337 177.398,-202.337"/>
<polygon fill="midnightblue" stroke="midnightblue" points="175.868,-205.486 186.368,-206.9 179.041,-199.246 175.868,-205.486"/>
</g>
<!-- Node10 -->
<g id="node10" class="node"><title>Node10</title>
<g id="a_node10"><a xlink:href="$classDataFlash__Block.html#a7ce3d55cc0a690e44bbd3bafe9a26be5" xlink:title="DataFlash_Block::SetFile\lNumber">
<polygon fill="white" stroke="black" points="154,-0 154,-30 282,-30 282,-0 154,-0"/>
<text text-anchor="start" x="162" y="-18" font-family="Helvetica,sans-Serif" font-size="10.00">DataFlash_Block::SetFile</text>
<text text-anchor="middle" x="218" y="-7" font-family="Helvetica,sans-Serif" font-size="10.00">Number</text>
</a>
</g>
</g>
<!-- Node1&#45;&gt;Node10 -->
<g id="edge14" class="edge"><title>Node1&#45;&gt;Node10</title>
<path fill="none" stroke="midnightblue" d="M73.091,-119.754C90.2117,-100.497 121.83,-67.2002 154,-45 159.3,-41.3425 165.115,-37.9105 171.003,-34.768"/>
<polygon fill="midnightblue" stroke="midnightblue" points="172.917,-37.722 180.252,-30.0772 169.75,-31.479 172.917,-37.722"/>
</g>
<!-- Node11 -->
<g id="node11" class="node"><title>Node11</title>
<g id="a_node11"><a xlink:href="$classDataFlash__Block.html#ae2287cdccb1f0ee57b5af530ba6db48e" xlink:title="DataFlash_Block::StartWrite">
<polygon fill="white" stroke="black" points="318,-49.5 318,-68.5 460,-68.5 460,-49.5 318,-49.5"/>
<text text-anchor="middle" x="389" y="-56.5" font-family="Helvetica,sans-Serif" font-size="10.00">DataFlash_Block::StartWrite</text>
</a>
</g>
</g>
<!-- Node1&#45;&gt;Node11 -->
<g id="edge15" class="edge"><title>Node1&#45;&gt;Node11</title>
<path fill="none" stroke="midnightblue" d="M81.272,-119.941C99.6213,-107.782 127.306,-91.3673 154,-83 203.633,-67.4425 261.802,-61.4248 307.726,-59.3052"/>
<polygon fill="midnightblue" stroke="midnightblue" points="308.078,-62.7939 317.927,-58.8888 307.793,-55.7997 308.078,-62.7939"/>
</g>
<!-- Node2&#45;&gt;Node3 -->
<g id="edge2" class="edge"><title>Node2&#45;&gt;Node3</title>
<path fill="none" stroke="midnightblue" d="M433.354,-194.09C463.946,-204.738 504.51,-218.857 533.667,-229.006"/>
<polygon fill="midnightblue" stroke="midnightblue" points="532.874,-232.436 543.469,-232.417 535.176,-225.825 532.874,-232.436"/>
</g>
<!-- Node2&#45;&gt;Node7 -->
<g id="edge6" class="edge"><title>Node2&#45;&gt;Node7</title>
<path fill="none" stroke="midnightblue" d="M445.783,-179C462.107,-179 480.207,-179 497.455,-179"/>
<polygon fill="midnightblue" stroke="midnightblue" points="497.492,-182.5 507.492,-179 497.492,-175.5 497.492,-182.5"/>
</g>
<!-- Node2&#45;&gt;Node8 -->
<g id="edge7" class="edge"><title>Node2&#45;&gt;Node8</title>
<path fill="none" stroke="midnightblue" d="M433.354,-163.91C463.946,-153.262 504.51,-139.143 533.667,-128.994"/>
<polygon fill="midnightblue" stroke="midnightblue" points="535.176,-132.175 543.469,-125.583 532.874,-125.564 535.176,-132.175"/>
</g>
<!-- Node4 -->
<g id="node4" class="node"><title>Node4</title>
<g id="a_node4"><a xlink:href="$classDataFlash__Block.html#a5adc35354a63752dc3c855b18e83c175" xlink:title="DataFlash_Block::WaitReady">
<polygon fill="white" stroke="black" points="690,-131.5 690,-150.5 836,-150.5 836,-131.5 690,-131.5"/>
<text text-anchor="middle" x="763" y="-138.5" font-family="Helvetica,sans-Serif" font-size="10.00">DataFlash_Block::WaitReady</text>
</a>
</g>
</g>
<!-- Node3&#45;&gt;Node4 -->
<g id="edge3" class="edge"><title>Node3&#45;&gt;Node4</title>
<path fill="none" stroke="midnightblue" d="M591.543,-232.479C606.752,-224.641 628.823,-213.2 648,-203 678.244,-186.914 712.778,-168.064 735.836,-155.409"/>
<polygon fill="midnightblue" stroke="midnightblue" points="737.593,-158.437 744.672,-150.554 734.222,-152.302 737.593,-158.437"/>
</g>
<!-- Node5 -->
<g id="node5" class="node"><title>Node5</title>
<g id="a_node5"><a xlink:href="$classDataFlash__Block.html#a0bc13dd2c8ec2d928e3409c431fb1430" xlink:title="DataFlash_Block::PageToBuffer">
<polygon fill="white" stroke="black" points="684,-251.5 684,-270.5 842,-270.5 842,-251.5 684,-251.5"/>
<text text-anchor="middle" x="763" y="-258.5" font-family="Helvetica,sans-Serif" font-size="10.00">DataFlash_Block::PageToBuffer</text>
</a>
</g>
</g>
<!-- Node3&#45;&gt;Node5 -->
<g id="edge4" class="edge"><title>Node3&#45;&gt;Node5</title>
<path fill="none" stroke="midnightblue" d="M643.108,-249.048C653.036,-250.046 663.349,-251.083 673.567,-252.11"/>
<polygon fill="midnightblue" stroke="midnightblue" points="673.436,-255.614 683.735,-253.132 674.136,-248.649 673.436,-255.614"/>
</g>
<!-- Node6 -->
<g id="node6" class="node"><title>Node6</title>
<g id="a_node6"><a xlink:href="$classDataFlash__Block.html#a4ba0e8bf9f8028d04422e8688efff2c2" xlink:title="DataFlash_Block::BlockRead">
<polygon fill="white" stroke="black" points="690,-213.5 690,-232.5 836,-232.5 836,-213.5 690,-213.5"/>
<text text-anchor="middle" x="763" y="-220.5" font-family="Helvetica,sans-Serif" font-size="10.00">DataFlash_Block::BlockRead</text>
</a>
</g>
</g>
<!-- Node3&#45;&gt;Node6 -->
<g id="edge5" class="edge"><title>Node3&#45;&gt;Node6</title>
<path fill="none" stroke="midnightblue" d="M643.108,-234.952C655.009,-233.756 667.463,-232.504 679.644,-231.279"/>
<polygon fill="midnightblue" stroke="midnightblue" points="680.194,-234.742 689.794,-230.259 679.494,-227.777 680.194,-234.742"/>
</g>
<!-- Node9&#45;&gt;Node2 -->
<g id="edge10" class="edge"><title>Node9&#45;&gt;Node2</title>
<path fill="none" stroke="midnightblue" d="M274.805,-207.801C289.948,-203.948 306.486,-199.74 322.128,-195.76"/>
<polygon fill="midnightblue" stroke="midnightblue" points="323.425,-199.042 332.253,-193.184 321.699,-192.258 323.425,-199.042"/>
</g>
<!-- Node9&#45;&gt;Node3 -->
<g id="edge11" class="edge"><title>Node9&#45;&gt;Node3</title>
<path fill="none" stroke="midnightblue" d="M274.61,-231.729C288.721,-233.839 303.884,-235.796 318,-237 375.64,-241.915 440.921,-243.097 490.732,-243.085"/>
<polygon fill="midnightblue" stroke="midnightblue" points="490.806,-246.585 500.8,-243.067 490.793,-239.585 490.806,-246.585"/>
</g>
<!-- Node9&#45;&gt;Node7 -->
<g id="edge12" class="edge"><title>Node9&#45;&gt;Node7</title>
<path fill="none" stroke="midnightblue" d="M274.756,-219.73C323.755,-217.229 396.882,-212.269 460,-203 472.468,-201.169 485.629,-198.756 498.36,-196.167"/>
<polygon fill="midnightblue" stroke="midnightblue" points="499.382,-199.529 508.456,-194.059 497.952,-192.676 499.382,-199.529"/>
</g>
<!-- Node11&#45;&gt;Node4 -->
<g id="edge16" class="edge"><title>Node11&#45;&gt;Node4</title>
<path fill="none" stroke="midnightblue" d="M460.105,-65.0748C512.478,-70.6336 585.498,-80.5541 648,-97 677.31,-104.712 709.408,-117.519 732.056,-127.333"/>
<polygon fill="midnightblue" stroke="midnightblue" points="730.887,-130.642 741.449,-131.467 733.706,-124.235 730.887,-130.642"/>
</g>
</g>
</svg>
