<?xml version="1.0" encoding="UTF-8" standalone="no"?>
<!DOCTYPE svg PUBLIC "-//W3C//DTD SVG 1.1//EN"
 "http://www.w3.org/Graphics/SVG/1.1/DTD/svg11.dtd">
<!-- Generated by graphviz version 2.36.0 (20140111.2315)
 -->
<!-- Title: DataFlash_Class::Log_Write_Airspeed Pages: 1 -->
<svg width="462pt" height="306pt"
 viewBox="0.00 0.00 462.00 306.00" xmlns="http://www.w3.org/2000/svg" xmlns:xlink="http://www.w3.org/1999/xlink">
<g id="graph0" class="graph" transform="scale(1 1) rotate(0) translate(4 302)">
<title>DataFlash_Class::Log_Write_Airspeed</title>
<polygon fill="white" stroke="none" points="-4,4 -4,-302 458,-302 458,4 -4,4"/>
<!-- Node1 -->
<g id="node1" class="node"><title>Node1</title>
<polygon fill="#bfbfbf" stroke="black" points="0,-126 0,-156 114,-156 114,-126 0,-126"/>
<text text-anchor="start" x="8" y="-144" font-family="Helvetica,sans-Serif" font-size="10.00">DataFlash_Class::Log</text>
<text text-anchor="middle" x="57" y="-133" font-family="Helvetica,sans-Serif" font-size="10.00">_Write_Airspeed</text>
</g>
<!-- Node2 -->
<g id="node2" class="node"><title>Node2</title>
<g id="a_node2"><a xlink:href="$classAP__Airspeed.html#a0cb43b5b98b7b503b7e440a59b7ce3dd" xlink:title="AP_Airspeed::get_temperature">
<polygon fill="white" stroke="black" points="150,-273.5 150,-292.5 300,-292.5 300,-273.5 150,-273.5"/>
<text text-anchor="middle" x="225" y="-280.5" font-family="Helvetica,sans-Serif" font-size="10.00">AP_Airspeed::get_temperature</text>
</a>
</g>
</g>
<!-- Node1&#45;&gt;Node2 -->
<g id="edge1" class="edge"><title>Node1&#45;&gt;Node2</title>
<path fill="none" stroke="midnightblue" d="M65.2788,-156.34C78.4322,-182.369 108.679,-235.074 150,-263 153.697,-265.499 157.695,-267.686 161.852,-269.6"/>
<polygon fill="midnightblue" stroke="midnightblue" points="160.569,-272.857 171.151,-273.371 163.199,-266.37 160.569,-272.857"/>
</g>
<!-- Node4 -->
<g id="node4" class="node"><title>Node4</title>
<g id="a_node4"><a xlink:href="$classAP__HAL_1_1Scheduler.html#a26b68339fc68a562d8d3a1238d0ec8c1" xlink:title="AP_HAL::Scheduler::\lmillis">
<polygon fill="white" stroke="black" points="170,-224 170,-254 280,-254 280,-224 170,-224"/>
<text text-anchor="start" x="178" y="-242" font-family="Helvetica,sans-Serif" font-size="10.00">AP_HAL::Scheduler::</text>
<text text-anchor="middle" x="225" y="-231" font-family="Helvetica,sans-Serif" font-size="10.00">millis</text>
</a>
</g>
</g>
<!-- Node1&#45;&gt;Node4 -->
<g id="edge3" class="edge"><title>Node1&#45;&gt;Node4</title>
<path fill="none" stroke="midnightblue" d="M73.4078,-156.02C90.7717,-172.244 120.448,-197.922 150,-214 153.925,-216.136 158.066,-218.136 162.302,-220"/>
<polygon fill="midnightblue" stroke="midnightblue" points="161.101,-223.29 171.68,-223.863 163.767,-216.818 161.101,-223.29"/>
</g>
<!-- Node5 -->
<g id="node5" class="node"><title>Node5</title>
<g id="a_node5"><a xlink:href="$classAP__Airspeed.html#a4aa0b49e31992b2ad67e8db45583d091" xlink:title="AP_Airspeed::get_raw\l_airspeed">
<polygon fill="white" stroke="black" points="168,-175 168,-205 282,-205 282,-175 168,-175"/>
<text text-anchor="start" x="176" y="-193" font-family="Helvetica,sans-Serif" font-size="10.00">AP_Airspeed::get_raw</text>
<text text-anchor="middle" x="225" y="-182" font-family="Helvetica,sans-Serif" font-size="10.00">_airspeed</text>
</a>
</g>
</g>
<!-- Node1&#45;&gt;Node5 -->
<g id="edge4" class="edge"><title>Node1&#45;&gt;Node5</title>
<path fill="none" stroke="midnightblue" d="M109.16,-156.101C126.281,-161.155 145.532,-166.838 163.308,-172.085"/>
<polygon fill="midnightblue" stroke="midnightblue" points="162.427,-175.474 173.009,-174.948 164.409,-168.76 162.427,-175.474"/>
</g>
<!-- Node6 -->
<g id="node6" class="node"><title>Node6</title>
<g id="a_node6"><a xlink:href="$classAP__Airspeed.html#a4aa4fe1b6d9a60710cfe170dfcab47c1" xlink:title="AP_Airspeed::get_differential\l_pressure">
<polygon fill="white" stroke="black" points="153.5,-126 153.5,-156 296.5,-156 296.5,-126 153.5,-126"/>
<text text-anchor="start" x="161.5" y="-144" font-family="Helvetica,sans-Serif" font-size="10.00">AP_Airspeed::get_differential</text>
<text text-anchor="middle" x="225" y="-133" font-family="Helvetica,sans-Serif" font-size="10.00">_pressure</text>
</a>
</g>
</g>
<!-- Node1&#45;&gt;Node6 -->
<g id="edge5" class="edge"><title>Node1&#45;&gt;Node6</title>
<path fill="none" stroke="midnightblue" d="M114.2,-141C123.554,-141 133.418,-141 143.239,-141"/>
<polygon fill="midnightblue" stroke="midnightblue" points="143.436,-144.5 153.436,-141 143.436,-137.5 143.436,-144.5"/>
</g>
<!-- Node7 -->
<g id="node7" class="node"><title>Node7</title>
<g id="a_node7"><a xlink:href="$classAP__Airspeed.html#aacb73faa6b5dd8f292f76f17328807cf" xlink:title="AP_Airspeed::get_raw\l_pressure">
<polygon fill="white" stroke="black" points="168,-77 168,-107 282,-107 282,-77 168,-77"/>
<text text-anchor="start" x="176" y="-95" font-family="Helvetica,sans-Serif" font-size="10.00">AP_Airspeed::get_raw</text>
<text text-anchor="middle" x="225" y="-84" font-family="Helvetica,sans-Serif" font-size="10.00">_pressure</text>
</a>
</g>
</g>
<!-- Node1&#45;&gt;Node7 -->
<g id="edge6" class="edge"><title>Node1&#45;&gt;Node7</title>
<path fill="none" stroke="midnightblue" d="M109.16,-125.899C126.281,-120.845 145.532,-115.162 163.308,-109.915"/>
<polygon fill="midnightblue" stroke="midnightblue" points="164.409,-113.24 173.009,-107.052 162.427,-106.526 164.409,-113.24"/>
</g>
<!-- Node8 -->
<g id="node8" class="node"><title>Node8</title>
<g id="a_node8"><a xlink:href="$classAP__Airspeed.html#a14e9ec0b2c5bd8a44a3428a06aacfb73" xlink:title="AP_Airspeed::get_offset">
<polygon fill="white" stroke="black" points="163.5,-38.5 163.5,-57.5 286.5,-57.5 286.5,-38.5 163.5,-38.5"/>
<text text-anchor="middle" x="225" y="-45.5" font-family="Helvetica,sans-Serif" font-size="10.00">AP_Airspeed::get_offset</text>
</a>
</g>
</g>
<!-- Node1&#45;&gt;Node8 -->
<g id="edge7" class="edge"><title>Node1&#45;&gt;Node8</title>
<path fill="none" stroke="midnightblue" d="M72.9133,-125.931C90.0704,-109.416 119.783,-83.2489 150,-68 155.536,-65.2064 161.508,-62.7671 167.574,-60.6458"/>
<polygon fill="midnightblue" stroke="midnightblue" points="168.688,-63.9642 177.135,-57.5688 166.543,-57.3008 168.688,-63.9642"/>
</g>
<!-- Node9 -->
<g id="node9" class="node"><title>Node9</title>
<g id="a_node9"><a xlink:href="$classDataFlash__Class.html#af5e6aefb8f2136e9104be836dac88625" xlink:title="DataFlash_Class::WriteBlock">
<polygon fill="white" stroke="black" points="152,-0.5 152,-19.5 298,-19.5 298,-0.5 152,-0.5"/>
<text text-anchor="middle" x="225" y="-7.5" font-family="Helvetica,sans-Serif" font-size="10.00">DataFlash_Class::WriteBlock</text>
</a>
</g>
</g>
<!-- Node1&#45;&gt;Node9 -->
<g id="edge8" class="edge"><title>Node1&#45;&gt;Node9</title>
<path fill="none" stroke="midnightblue" d="M66.2445,-125.705C80.1765,-101.364 110.738,-54.0123 150,-29 153.304,-26.8954 156.83,-25.0235 160.483,-23.3587"/>
<polygon fill="midnightblue" stroke="midnightblue" points="161.794,-26.6039 169.772,-19.6322 159.188,-20.1072 161.794,-26.6039"/>
</g>
<!-- Node3 -->
<g id="node3" class="node"><title>Node3</title>
<g id="a_node3"><a xlink:href="$classAP__Airspeed__PX4.html#a7c28132a255cf739a8019beb31c7b890" xlink:title="AP_Airspeed_PX4::get\l_temperature">
<polygon fill="white" stroke="black" points="336.5,-268 336.5,-298 453.5,-298 453.5,-268 336.5,-268"/>
<text text-anchor="start" x="344.5" y="-286" font-family="Helvetica,sans-Serif" font-size="10.00">AP_Airspeed_PX4::get</text>
<text text-anchor="middle" x="395" y="-275" font-family="Helvetica,sans-Serif" font-size="10.00">_temperature</text>
</a>
</g>
</g>
<!-- Node2&#45;&gt;Node3 -->
<g id="edge2" class="edge"><title>Node2&#45;&gt;Node3</title>
<path fill="none" stroke="midnightblue" d="M300.176,-283C308.8,-283 317.564,-283 326.098,-283"/>
<polygon fill="midnightblue" stroke="midnightblue" points="326.368,-286.5 336.368,-283 326.368,-279.5 326.368,-286.5"/>
</g>
</g>
</svg>
