<?xml version="1.0" encoding="UTF-8" standalone="no"?>
<!DOCTYPE svg PUBLIC "-//W3C//DTD SVG 1.1//EN"
 "http://www.w3.org/Graphics/SVG/1.1/DTD/svg11.dtd">
<!-- Generated by graphviz version 2.36.0 (20140111.2315)
 -->
<!-- Title: DataFlash_APM1::BlockErase Pages: 1 -->
<svg width="722pt" height="316pt"
 viewBox="0.00 0.00 722.00 316.00" xmlns="http://www.w3.org/2000/svg" xmlns:xlink="http://www.w3.org/1999/xlink">
<g id="graph0" class="graph" transform="scale(1 1) rotate(0) translate(4 312)">
<title>DataFlash_APM1::BlockErase</title>
<polygon fill="white" stroke="none" points="-4,4 -4,-312 718,-312 718,4 -4,4"/>
<!-- Node1 -->
<g id="node1" class="node"><title>Node1</title>
<polygon fill="#bfbfbf" stroke="black" points="0,-95.5 0,-114.5 150,-114.5 150,-95.5 0,-95.5"/>
<text text-anchor="middle" x="75" y="-102.5" font-family="Helvetica,sans-Serif" font-size="10.00">DataFlash_APM1::BlockErase</text>
</g>
<!-- Node2 -->
<g id="node2" class="node"><title>Node2</title>
<g id="a_node2"><a xlink:href="$classDataFlash__APM1.html#a08dfc6388a7a6f4dbe306edff23b410e" xlink:title="DataFlash_APM1::_sem_take">
<polygon fill="white" stroke="black" points="188,-212.5 188,-231.5 336,-231.5 336,-212.5 188,-212.5"/>
<text text-anchor="middle" x="262" y="-219.5" font-family="Helvetica,sans-Serif" font-size="10.00">DataFlash_APM1::_sem_take</text>
</a>
</g>
</g>
<!-- Node1&#45;&gt;Node2 -->
<g id="edge1" class="edge"><title>Node1&#45;&gt;Node2</title>
<path fill="none" stroke="midnightblue" d="M90.5223,-114.525C111.505,-128.252 151.564,-154.33 186,-176 202.65,-186.477 221.529,-198.055 236.181,-206.974"/>
<polygon fill="midnightblue" stroke="midnightblue" points="234.769,-210.212 245.132,-212.413 238.404,-204.229 234.769,-210.212"/>
</g>
<!-- Node6 -->
<g id="node6" class="node"><title>Node6</title>
<g id="a_node6"><a xlink:href="$classAP__HAL_1_1SPIDeviceDriver.html#adcf5550715404a610251a05f19c5d7f7" xlink:title="AP_HAL::SPIDeviceDriver\l::cs_assert">
<polygon fill="white" stroke="black" points="580,-145 580,-175 714,-175 714,-145 580,-145"/>
<text text-anchor="start" x="588" y="-163" font-family="Helvetica,sans-Serif" font-size="10.00">AP_HAL::SPIDeviceDriver</text>
<text text-anchor="middle" x="647" y="-152" font-family="Helvetica,sans-Serif" font-size="10.00">::cs_assert</text>
</a>
</g>
</g>
<!-- Node1&#45;&gt;Node6 -->
<g id="edge5" class="edge"><title>Node1&#45;&gt;Node6</title>
<path fill="none" stroke="midnightblue" d="M141.955,-114.527C156.449,-116.472 171.729,-118.408 186,-120 320.765,-135.039 478.279,-147.668 569.636,-154.506"/>
<polygon fill="midnightblue" stroke="midnightblue" points="569.394,-157.997 579.626,-155.25 569.914,-151.017 569.394,-157.997"/>
</g>
<!-- Node7 -->
<g id="node7" class="node"><title>Node7</title>
<g id="a_node7"><a xlink:href="$classAP__HAL_1_1SPIDeviceDriver.html#ab5464ab7f3f7936ba955e7ac111a8991" xlink:title="AP_HAL::SPIDeviceDriver\l::transfer">
<polygon fill="white" stroke="black" points="580,-94 580,-124 714,-124 714,-94 580,-94"/>
<text text-anchor="start" x="588" y="-112" font-family="Helvetica,sans-Serif" font-size="10.00">AP_HAL::SPIDeviceDriver</text>
<text text-anchor="middle" x="647" y="-101" font-family="Helvetica,sans-Serif" font-size="10.00">::transfer</text>
</a>
</g>
</g>
<!-- Node1&#45;&gt;Node7 -->
<g id="edge6" class="edge"><title>Node1&#45;&gt;Node7</title>
<path fill="none" stroke="midnightblue" d="M150.225,-105.521C258.841,-106.283 460.057,-107.695 569.789,-108.465"/>
<polygon fill="midnightblue" stroke="midnightblue" points="569.768,-111.965 579.793,-108.535 569.818,-104.965 569.768,-111.965"/>
</g>
<!-- Node8 -->
<g id="node8" class="node"><title>Node8</title>
<g id="a_node8"><a xlink:href="$classAP__HAL_1_1SPIDeviceDriver.html#ac4f961b121a7f66fb189e63e617d4715" xlink:title="AP_HAL::SPIDeviceDriver\l::cs_release">
<polygon fill="white" stroke="black" points="580,-41 580,-71 714,-71 714,-41 580,-41"/>
<text text-anchor="start" x="588" y="-59" font-family="Helvetica,sans-Serif" font-size="10.00">AP_HAL::SPIDeviceDriver</text>
<text text-anchor="middle" x="647" y="-48" font-family="Helvetica,sans-Serif" font-size="10.00">::cs_release</text>
</a>
</g>
</g>
<!-- Node1&#45;&gt;Node8 -->
<g id="edge7" class="edge"><title>Node1&#45;&gt;Node8</title>
<path fill="none" stroke="midnightblue" d="M97.3827,-95.3949C119.17,-86.143 154.185,-72.7323 186,-67 319.368,-42.9702 477.975,-45.9572 569.807,-50.7071"/>
<polygon fill="midnightblue" stroke="midnightblue" points="569.674,-54.2049 579.848,-51.2474 570.05,-47.215 569.674,-54.2049"/>
</g>
<!-- Node9 -->
<g id="node9" class="node"><title>Node9</title>
<g id="a_node9"><a xlink:href="$classDataFlash__APM1.html#ac6237807304039f6a9152285ea4733d9" xlink:title="DataFlash_APM1::ReadStatus">
<polygon fill="white" stroke="black" points="186,-76.5 186,-95.5 338,-95.5 338,-76.5 186,-76.5"/>
<text text-anchor="middle" x="262" y="-83.5" font-family="Helvetica,sans-Serif" font-size="10.00">DataFlash_APM1::ReadStatus</text>
</a>
</g>
</g>
<!-- Node1&#45;&gt;Node9 -->
<g id="edge8" class="edge"><title>Node1&#45;&gt;Node9</title>
<path fill="none" stroke="midnightblue" d="M150.181,-97.3815C158.634,-96.5133 167.3,-95.6232 175.881,-94.7419"/>
<polygon fill="midnightblue" stroke="midnightblue" points="176.307,-98.2167 185.897,-93.7133 175.592,-91.2533 176.307,-98.2167"/>
</g>
<!-- Node11 -->
<g id="node11" class="node"><title>Node11</title>
<g id="a_node11"><a xlink:href="$classAP__HAL_1_1Semaphore.html#afcdbf03d5bea9d83037acc93bfaea7ce" xlink:title="AP_HAL::Semaphore::give">
<polygon fill="white" stroke="black" points="195,-0.5 195,-19.5 329,-19.5 329,-0.5 195,-0.5"/>
<text text-anchor="middle" x="262" y="-7.5" font-family="Helvetica,sans-Serif" font-size="10.00">AP_HAL::Semaphore::give</text>
</a>
</g>
</g>
<!-- Node1&#45;&gt;Node11 -->
<g id="edge13" class="edge"><title>Node1&#45;&gt;Node11</title>
<path fill="none" stroke="midnightblue" d="M88.5583,-95.3079C108.341,-80.4163 148.392,-51.7713 186,-34 195.085,-29.7069 205.136,-25.9007 214.849,-22.6555"/>
<polygon fill="midnightblue" stroke="midnightblue" points="215.942,-25.9805 224.401,-19.6002 213.81,-19.3132 215.942,-25.9805"/>
</g>
<!-- Node3 -->
<g id="node3" class="node"><title>Node3</title>
<g id="a_node3"><a xlink:href="$classAP__HAL_1_1Scheduler.html#a5eb9be7ed92b52a7eadcfd82072f3bc6" xlink:title="AP_HAL::Scheduler::\lin_timerprocess">
<polygon fill="white" stroke="black" points="404,-278 404,-308 514,-308 514,-278 404,-278"/>
<text text-anchor="start" x="412" y="-296" font-family="Helvetica,sans-Serif" font-size="10.00">AP_HAL::Scheduler::</text>
<text text-anchor="middle" x="459" y="-285" font-family="Helvetica,sans-Serif" font-size="10.00">in_timerprocess</text>
</a>
</g>
</g>
<!-- Node2&#45;&gt;Node3 -->
<g id="edge2" class="edge"><title>Node2&#45;&gt;Node3</title>
<path fill="none" stroke="midnightblue" d="M284.437,-231.661C306.607,-241.468 342.35,-256.766 374,-268 380.704,-270.379 387.76,-272.723 394.817,-274.966"/>
<polygon fill="midnightblue" stroke="midnightblue" points="393.819,-278.321 404.407,-277.954 395.901,-271.638 393.819,-278.321"/>
</g>
<!-- Node4 -->
<g id="node4" class="node"><title>Node4</title>
<g id="a_node4"><a xlink:href="$classAP__HAL_1_1Semaphore.html#a266e91db5eecb64d8b934d09f5e972cf" xlink:title="AP_HAL::Semaphore::\ltake_nonblocking">
<polygon fill="white" stroke="black" points="401,-229 401,-259 517,-259 517,-229 401,-229"/>
<text text-anchor="start" x="409" y="-247" font-family="Helvetica,sans-Serif" font-size="10.00">AP_HAL::Semaphore::</text>
<text text-anchor="middle" x="459" y="-236" font-family="Helvetica,sans-Serif" font-size="10.00">take_nonblocking</text>
</a>
</g>
</g>
<!-- Node2&#45;&gt;Node4 -->
<g id="edge3" class="edge"><title>Node2&#45;&gt;Node4</title>
<path fill="none" stroke="midnightblue" d="M336.166,-230.255C354.053,-232.273 373.108,-234.422 390.706,-236.408"/>
<polygon fill="midnightblue" stroke="midnightblue" points="390.55,-239.912 400.879,-237.556 391.334,-232.956 390.55,-239.912"/>
</g>
<!-- Node5 -->
<g id="node5" class="node"><title>Node5</title>
<g id="a_node5"><a xlink:href="$classAP__HAL_1_1Semaphore.html#abd3a0affad8bb211981a979f30386589" xlink:title="AP_HAL::Semaphore::take">
<polygon fill="white" stroke="black" points="391.5,-190.5 391.5,-209.5 526.5,-209.5 526.5,-190.5 391.5,-190.5"/>
<text text-anchor="middle" x="459" y="-197.5" font-family="Helvetica,sans-Serif" font-size="10.00">AP_HAL::Semaphore::take</text>
</a>
</g>
</g>
<!-- Node2&#45;&gt;Node5 -->
<g id="edge4" class="edge"><title>Node2&#45;&gt;Node5</title>
<path fill="none" stroke="midnightblue" d="M336.166,-213.745C350.917,-212.081 366.463,-210.327 381.33,-208.65"/>
<polygon fill="midnightblue" stroke="midnightblue" points="381.953,-212.102 391.497,-207.503 381.168,-205.146 381.953,-212.102"/>
</g>
<!-- Node10 -->
<g id="node10" class="node"><title>Node10</title>
<g id="a_node10"><a xlink:href="$classDataFlash__APM1.html#a45d36ee2aec52e9a91d273d73af1b9b9" xlink:title="DataFlash_APM1::ReadStatusReg">
<polygon fill="white" stroke="black" points="374,-76.5 374,-95.5 544,-95.5 544,-76.5 374,-76.5"/>
<text text-anchor="middle" x="459" y="-83.5" font-family="Helvetica,sans-Serif" font-size="10.00">DataFlash_APM1::ReadStatusReg</text>
</a>
</g>
</g>
<!-- Node9&#45;&gt;Node10 -->
<g id="edge9" class="edge"><title>Node9&#45;&gt;Node10</title>
<path fill="none" stroke="midnightblue" d="M338.113,-86C346.519,-86 355.159,-86 363.765,-86"/>
<polygon fill="midnightblue" stroke="midnightblue" points="363.836,-89.5001 373.836,-86 363.836,-82.5001 363.836,-89.5001"/>
</g>
<!-- Node10&#45;&gt;Node6 -->
<g id="edge10" class="edge"><title>Node10&#45;&gt;Node6</title>
<path fill="none" stroke="midnightblue" d="M483.935,-95.5227C512.757,-106.989 561.853,-126.522 598.473,-141.091"/>
<polygon fill="midnightblue" stroke="midnightblue" points="597.382,-144.424 607.967,-144.869 599.97,-137.92 597.382,-144.424"/>
</g>
<!-- Node10&#45;&gt;Node7 -->
<g id="edge11" class="edge"><title>Node10&#45;&gt;Node7</title>
<path fill="none" stroke="midnightblue" d="M536.996,-95.521C547.751,-96.8509 558.8,-98.2171 569.544,-99.5458"/>
<polygon fill="midnightblue" stroke="midnightblue" points="569.379,-103.052 579.733,-100.806 570.238,-96.1048 569.379,-103.052"/>
</g>
<!-- Node10&#45;&gt;Node8 -->
<g id="edge12" class="edge"><title>Node10&#45;&gt;Node8</title>
<path fill="none" stroke="midnightblue" d="M519.107,-76.4666C535.291,-73.8563 553.061,-70.9901 570.046,-68.2507"/>
<polygon fill="midnightblue" stroke="midnightblue" points="570.622,-71.703 579.938,-66.6552 569.508,-64.7923 570.622,-71.703"/>
</g>
</g>
</svg>
