<?xml version="1.0" encoding="UTF-8" standalone="no"?>
<!DOCTYPE svg PUBLIC "-//W3C//DTD SVG 1.1//EN"
 "http://www.w3.org/Graphics/SVG/1.1/DTD/svg11.dtd">
<!-- Generated by graphviz version 2.36.0 (20140111.2315)
 -->
<!-- Title: AP_Mount::set_mode_to_default Pages: 1 -->
<svg width="268pt" height="51pt"
 viewBox="0.00 0.00 268.00 51.00" xmlns="http://www.w3.org/2000/svg" xmlns:xlink="http://www.w3.org/1999/xlink">
<g id="graph0" class="graph" transform="scale(1 1) rotate(0) translate(4 47)">
<title>AP_Mount::set_mode_to_default</title>
<polygon fill="white" stroke="none" points="-4,4 -4,-47 264,-47 264,4 -4,4"/>
<!-- Node1 -->
<g id="node1" class="node"><title>Node1</title>
<polygon fill="#bfbfbf" stroke="black" points="0.5,-0 0.5,-30 111.5,-30 111.5,-0 0.5,-0"/>
<text text-anchor="start" x="8.5" y="-18" font-family="Helvetica,sans-Serif" font-size="10.00">AP_Mount::set_mode</text>
<text text-anchor="middle" x="56" y="-7" font-family="Helvetica,sans-Serif" font-size="10.00">_to_default</text>
</g>
<!-- Node2 -->
<g id="node2" class="node"><title>Node2</title>
<g id="a_node2"><a xlink:href="$classAP__Mount.html#a4510126670698c1b0b2d2066049ac28e" xlink:title="AP_Mount::set_mode">
<polygon fill="white" stroke="black" points="148.5,-5.5 148.5,-24.5 259.5,-24.5 259.5,-5.5 148.5,-5.5"/>
<text text-anchor="middle" x="204" y="-12.5" font-family="Helvetica,sans-Serif" font-size="10.00">AP_Mount::set_mode</text>
</a>
</g>
</g>
<!-- Node1&#45;&gt;Node2 -->
<g id="edge1" class="edge"><title>Node1&#45;&gt;Node2</title>
<path fill="none" stroke="midnightblue" d="M111.78,-15C120.388,-15 129.356,-15 138.164,-15"/>
<polygon fill="midnightblue" stroke="midnightblue" points="138.398,-18.5001 148.398,-15 138.398,-11.5001 138.398,-18.5001"/>
</g>
<!-- Node2&#45;&gt;Node2 -->
<g id="edge2" class="edge"><title>Node2&#45;&gt;Node2</title>
<path fill="none" stroke="midnightblue" d="M181.189,-24.7571C170.092,-33.5653 177.695,-43 204,-43 221.262,-43 230.471,-38.9368 231.626,-33.6539"/>
<polygon fill="midnightblue" stroke="midnightblue" points="234.649,-31.886 226.811,-24.7571 228.492,-35.2176 234.649,-31.886"/>
</g>
</g>
</svg>
