<?xml version="1.0" encoding="UTF-8" standalone="no"?>
<!DOCTYPE svg PUBLIC "-//W3C//DTD SVG 1.1//EN"
 "http://www.w3.org/Graphics/SVG/1.1/DTD/svg11.dtd">
<!-- Generated by graphviz version 2.36.0 (20140111.2315)
 -->
<!-- Title: EEPROMClass::EE_ErasePage Pages: 1 -->
<svg width="840pt" height="123pt"
 viewBox="0.00 0.00 840.00 123.00" xmlns="http://www.w3.org/2000/svg" xmlns:xlink="http://www.w3.org/1999/xlink">
<g id="graph0" class="graph" transform="scale(1 1) rotate(0) translate(4 119)">
<title>EEPROMClass::EE_ErasePage</title>
<polygon fill="white" stroke="none" points="-4,4 -4,-119 836,-119 836,4 -4,4"/>
<!-- Node1 -->
<g id="node1" class="node"><title>Node1</title>
<polygon fill="#bfbfbf" stroke="black" points="0,-38.5 0,-57.5 158,-57.5 158,-38.5 0,-38.5"/>
<text text-anchor="middle" x="79" y="-45.5" font-family="Helvetica,sans-Serif" font-size="10.00">EEPROMClass::EE_ErasePage</text>
</g>
<!-- Node2 -->
<g id="node2" class="node"><title>Node2</title>
<g id="a_node2"><a xlink:href="$flash__stm32_8h.html#ab10d4a1c191d1d7f5b3a3b70927e6e69" xlink:title="Erases a specified FLASH page. ">
<polygon fill="white" stroke="black" points="209,-19.5 209,-38.5 311,-38.5 311,-19.5 209,-19.5"/>
<text text-anchor="middle" x="260" y="-26.5" font-family="Helvetica,sans-Serif" font-size="10.00">FLASH_ErasePage</text>
</a>
</g>
</g>
<!-- Node1&#45;&gt;Node2 -->
<g id="edge1" class="edge"><title>Node1&#45;&gt;Node2</title>
<path fill="none" stroke="midnightblue" d="M158.252,-39.694C171.836,-38.2521 185.771,-36.7729 198.779,-35.3921"/>
<polygon fill="midnightblue" stroke="midnightblue" points="199.414,-38.8446 208.988,-34.3085 198.675,-31.8837 199.414,-38.8446"/>
</g>
<!-- Node10 -->
<g id="node10" class="node"><title>Node10</title>
<g id="a_node10"><a xlink:href="$flash__stm32_8h.html#a67623617a6efb2676988073df8b08b23" xlink:title="Programs a half word at a specified address. ">
<polygon fill="white" stroke="black" points="194,-57.5 194,-76.5 326,-76.5 326,-57.5 194,-57.5"/>
<text text-anchor="middle" x="260" y="-64.5" font-family="Helvetica,sans-Serif" font-size="10.00">FLASH_ProgramHalfWord</text>
</a>
</g>
</g>
<!-- Node1&#45;&gt;Node10 -->
<g id="edge9" class="edge"><title>Node1&#45;&gt;Node10</title>
<path fill="none" stroke="midnightblue" d="M158.252,-56.306C166.679,-57.2005 175.241,-58.1094 183.633,-59.0001"/>
<polygon fill="midnightblue" stroke="midnightblue" points="183.451,-62.5004 193.765,-60.0756 184.19,-55.5395 183.451,-62.5004"/>
</g>
<!-- Node3 -->
<g id="node3" class="node"><title>Node3</title>
<g id="a_node3"><a xlink:href="$flash__stm32F1_8h.html#a32f1f24182bcef29414d7b59c1669595" xlink:title="Waits for a Flash operation to complete or a TIMEOUT to occur. ">
<polygon fill="white" stroke="black" points="362.5,-57.5 362.5,-76.5 511.5,-76.5 511.5,-57.5 362.5,-57.5"/>
<text text-anchor="middle" x="437" y="-64.5" font-family="Helvetica,sans-Serif" font-size="10.00">FLASH_WaitForLastOperation</text>
</a>
</g>
</g>
<!-- Node2&#45;&gt;Node3 -->
<g id="edge2" class="edge"><title>Node2&#45;&gt;Node3</title>
<path fill="none" stroke="midnightblue" d="M305.16,-38.589C328.565,-43.6713 357.505,-49.9554 382.212,-55.3203"/>
<polygon fill="midnightblue" stroke="midnightblue" points="381.643,-58.7782 392.158,-57.4799 383.128,-51.9376 381.643,-58.7782"/>
</g>
<!-- Node6 -->
<g id="node6" class="node"><title>Node6</title>
<g id="a_node6"><a xlink:href="$flash__stm32F2_8h.html#ae687b99f868242c3478fe2f070861abc" xlink:title="Erases a specified FLASH Sector. ">
<polygon fill="white" stroke="black" points="383,-19.5 383,-38.5 491,-38.5 491,-19.5 383,-19.5"/>
<text text-anchor="middle" x="437" y="-26.5" font-family="Helvetica,sans-Serif" font-size="10.00">FLASH_EraseSector</text>
</a>
</g>
</g>
<!-- Node2&#45;&gt;Node6 -->
<g id="edge5" class="edge"><title>Node2&#45;&gt;Node6</title>
<path fill="none" stroke="midnightblue" d="M311.148,-29C330.329,-29 352.459,-29 372.71,-29"/>
<polygon fill="midnightblue" stroke="midnightblue" points="372.791,-32.5001 382.791,-29 372.791,-25.5001 372.791,-32.5001"/>
</g>
<!-- Node4 -->
<g id="node4" class="node"><title>Node4</title>
<g id="a_node4"><a xlink:href="$flash__stm32F1_8h.html#ac265b8d1e7ea11e44ceee28797c3debb" xlink:title="Returns the FLASH Status. ">
<polygon fill="white" stroke="black" points="574,-95.5 574,-114.5 672,-114.5 672,-95.5 574,-95.5"/>
<text text-anchor="middle" x="623" y="-102.5" font-family="Helvetica,sans-Serif" font-size="10.00">FLASH_GetStatus</text>
</a>
</g>
</g>
<!-- Node3&#45;&gt;Node4 -->
<g id="edge3" class="edge"><title>Node3&#45;&gt;Node4</title>
<path fill="none" stroke="midnightblue" d="M484.431,-76.589C509.149,-81.6939 539.739,-88.0113 565.792,-93.3918"/>
<polygon fill="midnightblue" stroke="midnightblue" points="565.402,-96.885 575.903,-95.4799 566.817,-90.0297 565.402,-96.885"/>
</g>
<!-- Node5 -->
<g id="node5" class="node"><title>Node5</title>
<g id="a_node5"><a xlink:href="$flash__stm32F1_8h.html#a6cb8040e5f4a9a8ac17286fd20c740ae" xlink:title="Inserts a time delay. ">
<polygon fill="white" stroke="black" points="603,-57.5 603,-76.5 643,-76.5 643,-57.5 603,-57.5"/>
<text text-anchor="middle" x="623" y="-64.5" font-family="Helvetica,sans-Serif" font-size="10.00">delay</text>
</a>
</g>
</g>
<!-- Node3&#45;&gt;Node5 -->
<g id="edge4" class="edge"><title>Node3&#45;&gt;Node5</title>
<path fill="none" stroke="midnightblue" d="M511.515,-67C539.945,-67 570.831,-67 592.7,-67"/>
<polygon fill="midnightblue" stroke="midnightblue" points="592.957,-70.5001 602.957,-67 592.957,-63.5001 592.957,-70.5001"/>
</g>
<!-- Node7 -->
<g id="node7" class="node"><title>Node7</title>
<g id="a_node7"><a xlink:href="$flash__stm32F2_8h.html#a32f1f24182bcef29414d7b59c1669595" xlink:title="Waits for a Flash operation to complete or a TIMEOUT to occur. ">
<polygon fill="white" stroke="black" points="548.5,-19.5 548.5,-38.5 697.5,-38.5 697.5,-19.5 548.5,-19.5"/>
<text text-anchor="middle" x="623" y="-26.5" font-family="Helvetica,sans-Serif" font-size="10.00">FLASH_WaitForLastOperation</text>
</a>
</g>
</g>
<!-- Node6&#45;&gt;Node7 -->
<g id="edge6" class="edge"><title>Node6&#45;&gt;Node7</title>
<path fill="none" stroke="midnightblue" d="M491.22,-29C505.847,-29 522.075,-29 537.982,-29"/>
<polygon fill="midnightblue" stroke="midnightblue" points="538.369,-32.5001 548.369,-29 538.369,-25.5001 538.369,-32.5001"/>
</g>
<!-- Node8 -->
<g id="node8" class="node"><title>Node8</title>
<g id="a_node8"><a xlink:href="$flash__stm32F2_8h.html#ac265b8d1e7ea11e44ceee28797c3debb" xlink:title="Returns the FLASH Status. ">
<polygon fill="white" stroke="black" points="734,-38.5 734,-57.5 832,-57.5 832,-38.5 734,-38.5"/>
<text text-anchor="middle" x="783" y="-45.5" font-family="Helvetica,sans-Serif" font-size="10.00">FLASH_GetStatus</text>
</a>
</g>
</g>
<!-- Node7&#45;&gt;Node8 -->
<g id="edge7" class="edge"><title>Node7&#45;&gt;Node8</title>
<path fill="none" stroke="midnightblue" d="M697.911,-37.8881C706.59,-38.9318 715.352,-39.9853 723.774,-40.9981"/>
<polygon fill="midnightblue" stroke="midnightblue" points="723.504,-44.4908 733.851,-42.2099 724.34,-37.5409 723.504,-44.4908"/>
</g>
<!-- Node9 -->
<g id="node9" class="node"><title>Node9</title>
<g id="a_node9"><a xlink:href="$flash__stm32F2_8h.html#a6cb8040e5f4a9a8ac17286fd20c740ae" xlink:title="Inserts a time delay. ">
<polygon fill="white" stroke="black" points="763,-0.5 763,-19.5 803,-19.5 803,-0.5 763,-0.5"/>
<text text-anchor="middle" x="783" y="-7.5" font-family="Helvetica,sans-Serif" font-size="10.00">delay</text>
</a>
</g>
</g>
<!-- Node7&#45;&gt;Node9 -->
<g id="edge8" class="edge"><title>Node7&#45;&gt;Node9</title>
<path fill="none" stroke="midnightblue" d="M697.911,-20.1119C717.358,-17.7735 737.217,-15.3853 752.749,-13.5175"/>
<polygon fill="midnightblue" stroke="midnightblue" points="753.243,-16.9835 762.753,-12.3145 752.407,-10.0335 753.243,-16.9835"/>
</g>
<!-- Node10&#45;&gt;Node3 -->
<g id="edge10" class="edge"><title>Node10&#45;&gt;Node3</title>
<path fill="none" stroke="midnightblue" d="M326.164,-67C334.615,-67 343.364,-67 352.067,-67"/>
<polygon fill="midnightblue" stroke="midnightblue" points="352.24,-70.5001 362.24,-67 352.24,-63.5001 352.24,-70.5001"/>
</g>
</g>
</svg>
