<?xml version="1.0" encoding="UTF-8" standalone="no"?>
<!DOCTYPE svg PUBLIC "-//W3C//DTD SVG 1.1//EN"
 "http://www.w3.org/Graphics/SVG/1.1/DTD/svg11.dtd">
<!-- Generated by graphviz version 2.36.0 (20140111.2315)
 -->
<!-- Title: AC_PosControl::set_dt_xy Pages: 1 -->
<svg width="470pt" height="38pt"
 viewBox="0.00 0.00 470.00 38.00" xmlns="http://www.w3.org/2000/svg" xmlns:xlink="http://www.w3.org/1999/xlink">
<g id="graph0" class="graph" transform="scale(1 1) rotate(0) translate(4 34)">
<title>AC_PosControl::set_dt_xy</title>
<polygon fill="white" stroke="none" points="-4,4 -4,-34 466,-34 466,4 -4,4"/>
<!-- Node1 -->
<g id="node1" class="node"><title>Node1</title>
<polygon fill="#bfbfbf" stroke="black" points="0,-0 0,-30 104,-30 104,-0 0,-0"/>
<text text-anchor="start" x="8" y="-18" font-family="Helvetica,sans-Serif" font-size="10.00">AC_PosControl::set</text>
<text text-anchor="middle" x="52" y="-7" font-family="Helvetica,sans-Serif" font-size="10.00">_dt_xy</text>
</g>
<!-- Node2 -->
<g id="node2" class="node"><title>Node2</title>
<g id="a_node2"><a xlink:href="$classAC__PI__2D.html#a2d3227639a76856e0300fc7ac919c38e" xlink:title="AC_PI_2D::set_dt">
<polygon fill="white" stroke="black" points="140.5,-5.5 140.5,-24.5 237.5,-24.5 237.5,-5.5 140.5,-5.5"/>
<text text-anchor="middle" x="189" y="-12.5" font-family="Helvetica,sans-Serif" font-size="10.00">AC_PI_2D::set_dt</text>
</a>
</g>
</g>
<!-- Node1&#45;&gt;Node2 -->
<g id="edge1" class="edge"><title>Node1&#45;&gt;Node2</title>
<path fill="none" stroke="midnightblue" d="M104.038,-15C112.624,-15 121.59,-15 130.33,-15"/>
<polygon fill="midnightblue" stroke="midnightblue" points="130.452,-18.5001 140.452,-15 130.451,-11.5001 130.452,-18.5001"/>
</g>
<!-- Node3 -->
<g id="node3" class="node"><title>Node3</title>
<g id="a_node3"><a xlink:href="$classAC__PI__2D.html#ad06c3792dacb8c3ebfdffca3697ed727" xlink:title="AC_PI_2D::calc_filt\l_alpha">
<polygon fill="white" stroke="black" points="274,-0 274,-30 378,-30 378,-0 274,-0"/>
<text text-anchor="start" x="282" y="-18" font-family="Helvetica,sans-Serif" font-size="10.00">AC_PI_2D::calc_filt</text>
<text text-anchor="middle" x="326" y="-7" font-family="Helvetica,sans-Serif" font-size="10.00">_alpha</text>
</a>
</g>
</g>
<!-- Node2&#45;&gt;Node3 -->
<g id="edge2" class="edge"><title>Node2&#45;&gt;Node3</title>
<path fill="none" stroke="midnightblue" d="M237.596,-15C245.999,-15 254.853,-15 263.571,-15"/>
<polygon fill="midnightblue" stroke="midnightblue" points="263.708,-18.5001 273.708,-15 263.708,-11.5001 263.708,-18.5001"/>
</g>
<!-- Node4 -->
<g id="node4" class="node"><title>Node4</title>
<g id="a_node4"><a xlink:href="$AP__Math_8h.html#a108b79eeb35c5d58f324458ec9e1e9f2" xlink:title="is_zero">
<polygon fill="white" stroke="black" points="414,-5.5 414,-24.5 462,-24.5 462,-5.5 414,-5.5"/>
<text text-anchor="middle" x="438" y="-12.5" font-family="Helvetica,sans-Serif" font-size="10.00">is_zero</text>
</a>
</g>
</g>
<!-- Node3&#45;&gt;Node4 -->
<g id="edge3" class="edge"><title>Node3&#45;&gt;Node4</title>
<path fill="none" stroke="midnightblue" d="M378.136,-15C386.796,-15 395.585,-15 403.637,-15"/>
<polygon fill="midnightblue" stroke="midnightblue" points="403.726,-18.5001 413.726,-15 403.726,-11.5001 403.726,-18.5001"/>
</g>
</g>
</svg>
