<?xml version="1.0" encoding="UTF-8" standalone="no"?>
<!DOCTYPE svg PUBLIC "-//W3C//DTD SVG 1.1//EN"
 "http://www.w3.org/Graphics/SVG/1.1/DTD/svg11.dtd">
<!-- Generated by graphviz version 2.36.0 (20140111.2315)
 -->
<!-- Title: AP_GPS_SBP::logging_log_raw_sbp Pages: 1 -->
<svg width="928pt" height="175pt"
 viewBox="0.00 0.00 928.00 175.00" xmlns="http://www.w3.org/2000/svg" xmlns:xlink="http://www.w3.org/1999/xlink">
<g id="graph0" class="graph" transform="scale(1 1) rotate(0) translate(4 171)">
<title>AP_GPS_SBP::logging_log_raw_sbp</title>
<polygon fill="white" stroke="none" points="-4,4 -4,-171 924,-171 924,4 -4,4"/>
<!-- Node1 -->
<g id="node1" class="node"><title>Node1</title>
<polygon fill="#bfbfbf" stroke="black" points="0.5,-66 0.5,-96 119.5,-96 119.5,-66 0.5,-66"/>
<text text-anchor="start" x="8.5" y="-84" font-family="Helvetica,sans-Serif" font-size="10.00">AP_GPS_SBP::logging</text>
<text text-anchor="middle" x="60" y="-73" font-family="Helvetica,sans-Serif" font-size="10.00">_log_raw_sbp</text>
</g>
<!-- Node2 -->
<g id="node2" class="node"><title>Node2</title>
<g id="a_node2"><a xlink:href="$classDataFlash__Class.html#ad15905fd635a59cc510a7781a9c4f3d9" xlink:title="DataFlash_Class::logging\l_started">
<polygon fill="white" stroke="black" points="156.5,-137 156.5,-167 285.5,-167 285.5,-137 156.5,-137"/>
<text text-anchor="start" x="164.5" y="-155" font-family="Helvetica,sans-Serif" font-size="10.00">DataFlash_Class::logging</text>
<text text-anchor="middle" x="221" y="-144" font-family="Helvetica,sans-Serif" font-size="10.00">_started</text>
</a>
</g>
</g>
<!-- Node1&#45;&gt;Node2 -->
<g id="edge1" class="edge"><title>Node1&#45;&gt;Node2</title>
<path fill="none" stroke="midnightblue" d="M90.6711,-96.1097C109.267,-105.394 133.832,-117.321 156,-127 160.663,-129.036 165.549,-131.088 170.455,-133.093"/>
<polygon fill="midnightblue" stroke="midnightblue" points="169.274,-136.391 179.858,-136.877 171.887,-129.897 169.274,-136.391"/>
</g>
<!-- Node3 -->
<g id="node3" class="node"><title>Node3</title>
<g id="a_node3"><a xlink:href="$classAP__GPS__SBP.html#ad7b0b15f5b06d35e0537da4c29447e7c" xlink:title="AP_GPS_SBP::logging\l_write_headers">
<polygon fill="white" stroke="black" points="161.5,-88 161.5,-118 280.5,-118 280.5,-88 161.5,-88"/>
<text text-anchor="start" x="169.5" y="-106" font-family="Helvetica,sans-Serif" font-size="10.00">AP_GPS_SBP::logging</text>
<text text-anchor="middle" x="221" y="-95" font-family="Helvetica,sans-Serif" font-size="10.00">_write_headers</text>
</a>
</g>
</g>
<!-- Node1&#45;&gt;Node3 -->
<g id="edge2" class="edge"><title>Node1&#45;&gt;Node3</title>
<path fill="none" stroke="midnightblue" d="M119.754,-89.1295C130.078,-90.558 140.904,-92.0559 151.466,-93.5173"/>
<polygon fill="midnightblue" stroke="midnightblue" points="151.102,-97.0002 161.488,-94.9039 152.062,-90.0663 151.102,-97.0002"/>
</g>
<!-- Node8 -->
<g id="node8" class="node"><title>Node8</title>
<g id="a_node8"><a xlink:href="$classDataFlash__Class.html#af5e6aefb8f2136e9104be836dac88625" xlink:title="DataFlash_Class::WriteBlock">
<polygon fill="white" stroke="black" points="676,-49.5 676,-68.5 822,-68.5 822,-49.5 676,-49.5"/>
<text text-anchor="middle" x="749" y="-56.5" font-family="Helvetica,sans-Serif" font-size="10.00">DataFlash_Class::WriteBlock</text>
</a>
</g>
</g>
<!-- Node1&#45;&gt;Node8 -->
<g id="edge9" class="edge"><title>Node1&#45;&gt;Node8</title>
<path fill="none" stroke="midnightblue" d="M119.573,-79.1243C241.924,-75.2062 524.899,-66.1444 665.555,-61.6401"/>
<polygon fill="midnightblue" stroke="midnightblue" points="665.96,-65.1291 675.843,-61.3107 665.736,-58.1327 665.96,-65.1291"/>
</g>
<!-- Node9 -->
<g id="node9" class="node"><title>Node9</title>
<g id="a_node9"><a xlink:href="$classAP__HAL_1_1Scheduler.html#a26b68339fc68a562d8d3a1238d0ec8c1" xlink:title="AP_HAL::Scheduler::\lmillis">
<polygon fill="white" stroke="black" points="166,-0 166,-30 276,-30 276,-0 166,-0"/>
<text text-anchor="start" x="174" y="-18" font-family="Helvetica,sans-Serif" font-size="10.00">AP_HAL::Scheduler::</text>
<text text-anchor="middle" x="221" y="-7" font-family="Helvetica,sans-Serif" font-size="10.00">millis</text>
</a>
</g>
</g>
<!-- Node1&#45;&gt;Node9 -->
<g id="edge8" class="edge"><title>Node1&#45;&gt;Node9</title>
<path fill="none" stroke="midnightblue" d="M97.4778,-65.8583C120.303,-56.3837 149.899,-44.0987 174.284,-33.9763"/>
<polygon fill="midnightblue" stroke="midnightblue" points="175.798,-37.1377 183.692,-30.0713 173.114,-30.6725 175.798,-37.1377"/>
</g>
<!-- Node4 -->
<g id="node4" class="node"><title>Node4</title>
<g id="a_node4"><a xlink:href="$classDataFlash__Class.html#a29bebad0ba87297f083ecc1bc23bed51" xlink:title="DataFlash_Class::AddLogFormats">
<polygon fill="white" stroke="black" points="322.5,-93.5 322.5,-112.5 489.5,-112.5 489.5,-93.5 322.5,-93.5"/>
<text text-anchor="middle" x="406" y="-100.5" font-family="Helvetica,sans-Serif" font-size="10.00">DataFlash_Class::AddLogFormats</text>
</a>
</g>
</g>
<!-- Node3&#45;&gt;Node4 -->
<g id="edge3" class="edge"><title>Node3&#45;&gt;Node4</title>
<path fill="none" stroke="midnightblue" d="M280.657,-103C290.719,-103 301.392,-103 312.09,-103"/>
<polygon fill="midnightblue" stroke="midnightblue" points="312.336,-106.5 322.336,-103 312.335,-99.5001 312.336,-106.5"/>
</g>
<!-- Node5 -->
<g id="node5" class="node"><title>Node5</title>
<g id="a_node5"><a xlink:href="$classDataFlash__Class.html#a258d0eb16b61ced019be5a17bfe51b21" xlink:title="DataFlash_Class::Log\l_Write_Format">
<polygon fill="white" stroke="black" points="526,-88 526,-118 640,-118 640,-88 526,-88"/>
<text text-anchor="start" x="534" y="-106" font-family="Helvetica,sans-Serif" font-size="10.00">DataFlash_Class::Log</text>
<text text-anchor="middle" x="583" y="-95" font-family="Helvetica,sans-Serif" font-size="10.00">_Write_Format</text>
</a>
</g>
</g>
<!-- Node4&#45;&gt;Node5 -->
<g id="edge4" class="edge"><title>Node4&#45;&gt;Node5</title>
<path fill="none" stroke="midnightblue" d="M489.632,-103C498.314,-103 507.061,-103 515.528,-103"/>
<polygon fill="midnightblue" stroke="midnightblue" points="515.695,-106.5 525.695,-103 515.695,-99.5001 515.695,-106.5"/>
</g>
<!-- Node6 -->
<g id="node6" class="node"><title>Node6</title>
<g id="a_node6"><a xlink:href="$classDataFlash__Class.html#a972466284a00ba479b9752a8fa43415e" xlink:title="DataFlash_Class::Log\l_Fill_Format">
<polygon fill="white" stroke="black" points="692,-88 692,-118 806,-118 806,-88 692,-88"/>
<text text-anchor="start" x="700" y="-106" font-family="Helvetica,sans-Serif" font-size="10.00">DataFlash_Class::Log</text>
<text text-anchor="middle" x="749" y="-95" font-family="Helvetica,sans-Serif" font-size="10.00">_Fill_Format</text>
</a>
</g>
</g>
<!-- Node5&#45;&gt;Node6 -->
<g id="edge5" class="edge"><title>Node5&#45;&gt;Node6</title>
<path fill="none" stroke="midnightblue" d="M640.439,-103C653.656,-103 667.857,-103 681.467,-103"/>
<polygon fill="midnightblue" stroke="midnightblue" points="681.734,-106.5 691.734,-103 681.734,-99.5001 681.734,-106.5"/>
</g>
<!-- Node5&#45;&gt;Node8 -->
<g id="edge7" class="edge"><title>Node5&#45;&gt;Node8</title>
<path fill="none" stroke="midnightblue" d="M639.981,-87.9808C660.368,-82.5112 683.148,-76.3993 702.514,-71.2036"/>
<polygon fill="midnightblue" stroke="midnightblue" points="703.548,-74.5501 712.299,-68.5783 701.734,-67.7892 703.548,-74.5501"/>
</g>
<!-- Node7 -->
<g id="node7" class="node"><title>Node7</title>
<g id="a_node7"><a xlink:href="$AP__Progmem__AVR_8h.html#a00eef44be35a92b1ef4067ea49bea7a3" xlink:title="strncpy_P">
<polygon fill="white" stroke="black" points="858.5,-93.5 858.5,-112.5 919.5,-112.5 919.5,-93.5 858.5,-93.5"/>
<text text-anchor="middle" x="889" y="-100.5" font-family="Helvetica,sans-Serif" font-size="10.00">strncpy_P</text>
</a>
</g>
</g>
<!-- Node6&#45;&gt;Node7 -->
<g id="edge6" class="edge"><title>Node6&#45;&gt;Node7</title>
<path fill="none" stroke="midnightblue" d="M806.13,-103C820.261,-103 835.139,-103 848.278,-103"/>
<polygon fill="midnightblue" stroke="midnightblue" points="848.396,-106.5 858.396,-103 848.396,-99.5001 848.396,-106.5"/>
</g>
</g>
</svg>
