<?xml version="1.0" encoding="UTF-8" standalone="no"?>
<!DOCTYPE svg PUBLIC "-//W3C//DTD SVG 1.1//EN"
 "http://www.w3.org/Graphics/SVG/1.1/DTD/svg11.dtd">
<!-- Generated by graphviz version 2.36.0 (20140111.2315)
 -->
<!-- Title: AP_SerialBus::write Pages: 1 -->
<svg width="636pt" height="77pt"
 viewBox="0.00 0.00 636.00 77.00" xmlns="http://www.w3.org/2000/svg" xmlns:xlink="http://www.w3.org/1999/xlink">
<g id="graph0" class="graph" transform="scale(1 1) rotate(0) translate(4 73)">
<title>AP_SerialBus::write</title>
<polygon fill="white" stroke="none" points="-4,4 -4,-73 632,-73 632,4 -4,4"/>
<!-- Node1 -->
<g id="node1" class="node"><title>Node1</title>
<polygon fill="#bfbfbf" stroke="black" points="0,-24.5 0,-43.5 104,-43.5 104,-24.5 0,-24.5"/>
<text text-anchor="middle" x="52" y="-31.5" font-family="Helvetica,sans-Serif" font-size="10.00">AP_SerialBus::write</text>
</g>
<!-- Node2 -->
<g id="node2" class="node"><title>Node2</title>
<g id="a_node2"><a xlink:href="$classAP__Baro__MS5611.html#a754a45cd1e595ebd27fc4516341f3528" xlink:title="AP_Baro_MS5611::_timer">
<polygon fill="white" stroke="black" points="140,-43.5 140,-62.5 270,-62.5 270,-43.5 140,-43.5"/>
<text text-anchor="middle" x="205" y="-50.5" font-family="Helvetica,sans-Serif" font-size="10.00">AP_Baro_MS5611::_timer</text>
</a>
</g>
</g>
<!-- Node1&#45;&gt;Node2 -->
<g id="edge1" class="edge"><title>Node1&#45;&gt;Node2</title>
<path fill="none" stroke="midnightblue" d="M114.245,-41.7063C122.668,-42.7662 131.337,-43.857 139.812,-44.9233"/>
<polygon fill="midnightblue" stroke="midnightblue" points="114.48,-38.2084 104.122,-40.4325 113.606,-45.1537 114.48,-38.2084"/>
</g>
<!-- Node5 -->
<g id="node5" class="node"><title>Node5</title>
<g id="a_node5"><a xlink:href="$classAP__Baro__MS5611.html#a5e36586ae33638288843d7bc9ba5c607" xlink:title="AP_Baro_MS5611::AP\l_Baro_MS5611">
<polygon fill="white" stroke="black" points="325,-0 325,-30 441,-30 441,-0 325,-0"/>
<text text-anchor="start" x="333" y="-18" font-family="Helvetica,sans-Serif" font-size="10.00">AP_Baro_MS5611::AP</text>
<text text-anchor="middle" x="383" y="-7" font-family="Helvetica,sans-Serif" font-size="10.00">_Baro_MS5611</text>
</a>
</g>
</g>
<!-- Node1&#45;&gt;Node5 -->
<g id="edge5" class="edge"><title>Node1&#45;&gt;Node5</title>
<path fill="none" stroke="midnightblue" d="M114.184,-30.4666C174.47,-26.985 265.86,-21.7072 324.748,-18.3064"/>
<polygon fill="midnightblue" stroke="midnightblue" points="113.827,-26.9813 104.045,-31.0521 114.23,-33.9696 113.827,-26.9813"/>
</g>
<!-- Node3 -->
<g id="node3" class="node"><title>Node3</title>
<g id="a_node3"><a xlink:href="$classAP__Baro__MS5611.html#ab150f02d7a128f50c583578a411ed34d" xlink:title="AP_Baro_MS5611::accumulate">
<polygon fill="white" stroke="black" points="306.5,-49.5 306.5,-68.5 459.5,-68.5 459.5,-49.5 306.5,-49.5"/>
<text text-anchor="middle" x="383" y="-56.5" font-family="Helvetica,sans-Serif" font-size="10.00">AP_Baro_MS5611::accumulate</text>
</a>
</g>
</g>
<!-- Node2&#45;&gt;Node3 -->
<g id="edge2" class="edge"><title>Node2&#45;&gt;Node3</title>
<path fill="none" stroke="midnightblue" d="M280.116,-55.5267C288.791,-55.8224 297.651,-56.1245 306.347,-56.4209"/>
<polygon fill="midnightblue" stroke="midnightblue" points="280.151,-52.0259 270.038,-55.1831 279.913,-59.0219 280.151,-52.0259"/>
</g>
<!-- Node2&#45;&gt;Node5 -->
<g id="edge4" class="edge"><title>Node2&#45;&gt;Node5</title>
<path fill="none" stroke="midnightblue" d="M260.23,-41.2913C280.751,-36.8606 304.16,-31.8064 324.934,-27.3211"/>
<polygon fill="midnightblue" stroke="midnightblue" points="259.448,-37.8793 250.412,-43.411 260.926,-44.7216 259.448,-37.8793"/>
</g>
<!-- Node4 -->
<g id="node4" class="node"><title>Node4</title>
<g id="a_node4"><a xlink:href="$classAP__Baro__MS5611.html#aaabf16d34651abefbe5a9c81f1eb7016" xlink:title="AP_Baro_MS5611::update">
<polygon fill="white" stroke="black" points="496,-49.5 496,-68.5 628,-68.5 628,-49.5 496,-49.5"/>
<text text-anchor="middle" x="562" y="-56.5" font-family="Helvetica,sans-Serif" font-size="10.00">AP_Baro_MS5611::update</text>
</a>
</g>
</g>
<!-- Node3&#45;&gt;Node4 -->
<g id="edge3" class="edge"><title>Node3&#45;&gt;Node4</title>
<path fill="none" stroke="midnightblue" d="M469.862,-59C478.654,-59 487.482,-59 495.996,-59"/>
<polygon fill="midnightblue" stroke="midnightblue" points="469.577,-55.5001 459.577,-59 469.577,-62.5001 469.577,-55.5001"/>
</g>
</g>
</svg>
