<?xml version="1.0" encoding="UTF-8" standalone="no"?>
<!DOCTYPE svg PUBLIC "-//W3C//DTD SVG 1.1//EN"
 "http://www.w3.org/Graphics/SVG/1.1/DTD/svg11.dtd">
<!-- Generated by graphviz version 2.36.0 (20140111.2315)
 -->
<!-- Title: AP_Motors::set_roll Pages: 1 -->
<svg width="430pt" height="176pt"
 viewBox="0.00 0.00 430.00 176.00" xmlns="http://www.w3.org/2000/svg" xmlns:xlink="http://www.w3.org/1999/xlink">
<g id="graph0" class="graph" transform="scale(1 1) rotate(0) translate(4 172)">
<title>AP_Motors::set_roll</title>
<polygon fill="white" stroke="none" points="-4,4 -4,-172 426,-172 426,4 -4,4"/>
<!-- Node1 -->
<g id="node1" class="node"><title>Node1</title>
<polygon fill="#bfbfbf" stroke="black" points="0.5,-66.5 0.5,-85.5 103.5,-85.5 103.5,-66.5 0.5,-66.5"/>
<text text-anchor="middle" x="52" y="-73.5" font-family="Helvetica,sans-Serif" font-size="10.00">AP_Motors::set_roll</text>
</g>
<!-- Node2 -->
<g id="node2" class="node"><title>Node2</title>
<g id="a_node2"><a xlink:href="$classAC__AttitudeControl__Heli.html#a29ff02c0f413c83ac91a47f2adfab773" xlink:title="AC_AttitudeControl\l_Heli::rate_bf_to_motor\l_roll_pitch">
<polygon fill="white" stroke="black" points="140.5,-126.5 140.5,-167.5 259.5,-167.5 259.5,-126.5 140.5,-126.5"/>
<text text-anchor="start" x="148.5" y="-155.5" font-family="Helvetica,sans-Serif" font-size="10.00">AC_AttitudeControl</text>
<text text-anchor="start" x="148.5" y="-144.5" font-family="Helvetica,sans-Serif" font-size="10.00">_Heli::rate_bf_to_motor</text>
<text text-anchor="middle" x="200" y="-133.5" font-family="Helvetica,sans-Serif" font-size="10.00">_roll_pitch</text>
</a>
</g>
</g>
<!-- Node1&#45;&gt;Node2 -->
<g id="edge1" class="edge"><title>Node1&#45;&gt;Node2</title>
<path fill="none" stroke="midnightblue" d="M81.8819,-90.0453C103.225,-100.425 132.621,-114.72 156.622,-126.392"/>
<polygon fill="midnightblue" stroke="midnightblue" points="83.2139,-86.8012 72.6902,-85.5754 80.1525,-93.0963 83.2139,-86.8012"/>
</g>
<!-- Node3 -->
<g id="node3" class="node"><title>Node3</title>
<g id="a_node3"><a xlink:href="$classAC__AttitudeControl__Heli.html#a38cb1684d4155d8f1f319d7385d3f2c6" xlink:title="AC_AttitudeControl\l_Heli::rate_controller_run">
<polygon fill="white" stroke="black" points="296.5,-107 296.5,-137 421.5,-137 421.5,-107 296.5,-107"/>
<text text-anchor="start" x="304.5" y="-125" font-family="Helvetica,sans-Serif" font-size="10.00">AC_AttitudeControl</text>
<text text-anchor="middle" x="359" y="-114" font-family="Helvetica,sans-Serif" font-size="10.00">_Heli::rate_controller_run</text>
</a>
</g>
</g>
<!-- Node1&#45;&gt;Node3 -->
<g id="edge3" class="edge"><title>Node1&#45;&gt;Node3</title>
<path fill="none" stroke="midnightblue" d="M113.641,-85.1458C166.602,-93.1333 243.122,-104.674 296.373,-112.705"/>
<polygon fill="midnightblue" stroke="midnightblue" points="114.117,-81.6782 103.707,-83.6476 113.073,-88.5999 114.117,-81.6782"/>
</g>
<!-- Node4 -->
<g id="node4" class="node"><title>Node4</title>
<g id="a_node4"><a xlink:href="$classAC__AttitudeControl.html#a1c2565af20755e769d3bd9d1a9de826d" xlink:title="AC_AttitudeControl\l::rate_controller_run">
<polygon fill="white" stroke="black" points="148.5,-39 148.5,-69 251.5,-69 251.5,-39 148.5,-39"/>
<text text-anchor="start" x="156.5" y="-57" font-family="Helvetica,sans-Serif" font-size="10.00">AC_AttitudeControl</text>
<text text-anchor="middle" x="200" y="-46" font-family="Helvetica,sans-Serif" font-size="10.00">::rate_controller_run</text>
</a>
</g>
</g>
<!-- Node1&#45;&gt;Node4 -->
<g id="edge4" class="edge"><title>Node1&#45;&gt;Node4</title>
<path fill="none" stroke="midnightblue" d="M113.676,-66.857C125.24,-65.1145 137.228,-63.308 148.436,-61.6193"/>
<polygon fill="midnightblue" stroke="midnightblue" points="113.021,-63.4162 103.654,-68.3672 114.064,-70.338 113.021,-63.4162"/>
</g>
<!-- Node5 -->
<g id="node5" class="node"><title>Node5</title>
<g id="a_node5"><a xlink:href="$AP__Motors__test_8pde.html#a7f47bb79f883994514efee9d8de3ec0c" xlink:title="stability_test">
<polygon fill="white" stroke="black" points="164,-0.5 164,-19.5 236,-19.5 236,-0.5 164,-0.5"/>
<text text-anchor="middle" x="200" y="-7.5" font-family="Helvetica,sans-Serif" font-size="10.00">stability_test</text>
</a>
</g>
</g>
<!-- Node1&#45;&gt;Node5 -->
<g id="edge5" class="edge"><title>Node1&#45;&gt;Node5</title>
<path fill="none" stroke="midnightblue" d="M77.3853,-61.2573C94.5039,-51.3018 118.152,-38.3257 140,-29 148.116,-25.5359 157.086,-22.3416 165.53,-19.5996"/>
<polygon fill="midnightblue" stroke="midnightblue" points="75.4378,-58.3424 68.5996,-66.435 78.9919,-64.3731 75.4378,-58.3424"/>
</g>
<!-- Node2&#45;&gt;Node3 -->
<g id="edge2" class="edge"><title>Node2&#45;&gt;Node3</title>
<path fill="none" stroke="midnightblue" d="M269.806,-136.044C278.658,-134.634 287.677,-133.198 296.403,-131.808"/>
<polygon fill="midnightblue" stroke="midnightblue" points="269.233,-132.591 259.908,-137.62 270.334,-139.504 269.233,-132.591"/>
</g>
<!-- Node6 -->
<g id="node6" class="node"><title>Node6</title>
<g id="a_node6"><a xlink:href="$AP__Motors__test_8pde.html#afe461d27b9c48d5921c00d521181f12f" xlink:title="loop">
<polygon fill="white" stroke="black" points="341.5,-0.5 341.5,-19.5 376.5,-19.5 376.5,-0.5 341.5,-0.5"/>
<text text-anchor="middle" x="359" y="-7.5" font-family="Helvetica,sans-Serif" font-size="10.00">loop</text>
</a>
</g>
</g>
<!-- Node5&#45;&gt;Node6 -->
<g id="edge6" class="edge"><title>Node5&#45;&gt;Node6</title>
<path fill="none" stroke="midnightblue" d="M246.618,-10C278.342,-10 318.811,-10 341.197,-10"/>
<polygon fill="midnightblue" stroke="midnightblue" points="246.234,-6.5001 236.234,-10 246.234,-13.5001 246.234,-6.5001"/>
</g>
</g>
</svg>
