<?xml version="1.0" encoding="UTF-8" standalone="no"?>
<!DOCTYPE svg PUBLIC "-//W3C//DTD SVG 1.1//EN"
 "http://www.w3.org/Graphics/SVG/1.1/DTD/svg11.dtd">
<!-- Generated by graphviz version 2.36.0 (20140111.2315)
 -->
<!-- Title: AP_Frsky_Telem::calc_gps_sats Pages: 1 -->
<svg width="266pt" height="104pt"
 viewBox="0.00 0.00 266.00 104.00" xmlns="http://www.w3.org/2000/svg" xmlns:xlink="http://www.w3.org/1999/xlink">
<g id="graph0" class="graph" transform="scale(1 1) rotate(0) translate(4 100)">
<title>AP_Frsky_Telem::calc_gps_sats</title>
<polygon fill="white" stroke="none" points="-4,4 -4,-100 262,-100 262,4 -4,4"/>
<!-- Node1 -->
<g id="node1" class="node"><title>Node1</title>
<polygon fill="#bfbfbf" stroke="black" points="0,-33 0,-63 116,-63 116,-33 0,-33"/>
<text text-anchor="start" x="8" y="-51" font-family="Helvetica,sans-Serif" font-size="10.00">AP_Frsky_Telem::calc</text>
<text text-anchor="middle" x="58" y="-40" font-family="Helvetica,sans-Serif" font-size="10.00">_gps_sats</text>
</g>
<!-- Node2 -->
<g id="node2" class="node"><title>Node2</title>
<g id="a_node2"><a xlink:href="$classAP__AHRS.html#a3316284b2bf12b8db1b4a39539799efc" xlink:title="AP_AHRS::get_gps">
<polygon fill="white" stroke="black" points="153,-76.5 153,-95.5 257,-95.5 257,-76.5 153,-76.5"/>
<text text-anchor="middle" x="205" y="-83.5" font-family="Helvetica,sans-Serif" font-size="10.00">AP_AHRS::get_gps</text>
</a>
</g>
</g>
<!-- Node1&#45;&gt;Node2 -->
<g id="edge1" class="edge"><title>Node1&#45;&gt;Node2</title>
<path fill="none" stroke="midnightblue" d="M116.308,-63.0186C130.059,-66.6225 144.575,-70.4264 157.752,-73.8798"/>
<polygon fill="midnightblue" stroke="midnightblue" points="156.973,-77.2937 167.533,-76.4432 158.747,-70.5224 156.973,-77.2937"/>
</g>
<!-- Node3 -->
<g id="node3" class="node"><title>Node3</title>
<g id="a_node3"><a xlink:href="$classAP__GPS.html#af74c8da8ab7394a33b0f0e64582d8648" xlink:title="AP_GPS::num_sats">
<polygon fill="white" stroke="black" points="152.5,-38.5 152.5,-57.5 257.5,-57.5 257.5,-38.5 152.5,-38.5"/>
<text text-anchor="middle" x="205" y="-45.5" font-family="Helvetica,sans-Serif" font-size="10.00">AP_GPS::num_sats</text>
</a>
</g>
</g>
<!-- Node1&#45;&gt;Node3 -->
<g id="edge2" class="edge"><title>Node1&#45;&gt;Node3</title>
<path fill="none" stroke="midnightblue" d="M116.308,-48C124.75,-48 133.479,-48 142.01,-48"/>
<polygon fill="midnightblue" stroke="midnightblue" points="142.285,-51.5001 152.285,-48 142.285,-44.5001 142.285,-51.5001"/>
</g>
<!-- Node4 -->
<g id="node4" class="node"><title>Node4</title>
<g id="a_node4"><a xlink:href="$classAP__GPS.html#a9093c8cf1d5a78ccd8677229bb314d37" xlink:title="Query GPS status. ">
<polygon fill="white" stroke="black" points="160.5,-0.5 160.5,-19.5 249.5,-19.5 249.5,-0.5 160.5,-0.5"/>
<text text-anchor="middle" x="205" y="-7.5" font-family="Helvetica,sans-Serif" font-size="10.00">AP_GPS::status</text>
</a>
</g>
</g>
<!-- Node1&#45;&gt;Node4 -->
<g id="edge3" class="edge"><title>Node1&#45;&gt;Node4</title>
<path fill="none" stroke="midnightblue" d="M116.308,-32.9814C130.059,-29.3775 144.575,-25.5736 157.752,-22.1202"/>
<polygon fill="midnightblue" stroke="midnightblue" points="158.747,-25.4776 167.533,-19.5568 156.973,-18.7063 158.747,-25.4776"/>
</g>
</g>
</svg>
