<?xml version="1.0" encoding="UTF-8" standalone="no"?>
<!DOCTYPE svg PUBLIC "-//W3C//DTD SVG 1.1//EN"
 "http://www.w3.org/Graphics/SVG/1.1/DTD/svg11.dtd">
<!-- Generated by graphviz version 2.36.0 (20140111.2315)
 -->
<!-- Title: AP_Mount_Backend::set_roi_target Pages: 1 -->
<svg width="494pt" height="66pt"
 viewBox="0.00 0.00 494.00 66.00" xmlns="http://www.w3.org/2000/svg" xmlns:xlink="http://www.w3.org/1999/xlink">
<g id="graph0" class="graph" transform="scale(1 1) rotate(0) translate(4 62)">
<title>AP_Mount_Backend::set_roi_target</title>
<polygon fill="white" stroke="none" points="-4,4 -4,-62 490,-62 490,4 -4,4"/>
<!-- Node1 -->
<g id="node1" class="node"><title>Node1</title>
<polygon fill="#bfbfbf" stroke="black" points="0.5,-14 0.5,-44 125.5,-44 125.5,-14 0.5,-14"/>
<text text-anchor="start" x="8.5" y="-32" font-family="Helvetica,sans-Serif" font-size="10.00">AP_Mount_Backend::set</text>
<text text-anchor="middle" x="63" y="-21" font-family="Helvetica,sans-Serif" font-size="10.00">_roi_target</text>
</g>
<!-- Node2 -->
<g id="node2" class="node"><title>Node2</title>
<g id="a_node2"><a xlink:href="$classAP__Mount__Backend.html#ae975fe1daaa9722be740772fcb20e0ff" xlink:title="AP_Mount_Backend::control_msg">
<polygon fill="white" stroke="black" points="162.5,-38.5 162.5,-57.5 327.5,-57.5 327.5,-38.5 162.5,-38.5"/>
<text text-anchor="middle" x="245" y="-45.5" font-family="Helvetica,sans-Serif" font-size="10.00">AP_Mount_Backend::control_msg</text>
</a>
</g>
</g>
<!-- Node1&#45;&gt;Node2 -->
<g id="edge1" class="edge"><title>Node1&#45;&gt;Node2</title>
<path fill="none" stroke="midnightblue" d="M135.806,-36.5795C144.53,-37.5004 153.493,-38.4464 162.346,-39.381"/>
<polygon fill="midnightblue" stroke="midnightblue" points="136.006,-33.0813 125.694,-35.5121 135.271,-40.0426 136.006,-33.0813"/>
</g>
<!-- Node4 -->
<g id="node4" class="node"><title>Node4</title>
<g id="a_node4"><a xlink:href="$classAP__Mount.html#ae4b2f2cdc38afb507339161d60c801dd" xlink:title="AP_Mount::set_roi_target">
<polygon fill="white" stroke="black" points="181,-0.5 181,-19.5 309,-19.5 309,-0.5 181,-0.5"/>
<text text-anchor="middle" x="245" y="-7.5" font-family="Helvetica,sans-Serif" font-size="10.00">AP_Mount::set_roi_target</text>
</a>
</g>
</g>
<!-- Node1&#45;&gt;Node4 -->
<g id="edge3" class="edge"><title>Node1&#45;&gt;Node4</title>
<path fill="none" stroke="midnightblue" d="M135.864,-21.4143C150.745,-19.8436 166.316,-18.2 180.857,-16.6651"/>
<polygon fill="midnightblue" stroke="midnightblue" points="135.271,-17.9574 125.694,-22.4879 136.006,-24.9187 135.271,-17.9574"/>
</g>
<!-- Node3 -->
<g id="node3" class="node"><title>Node3</title>
<g id="a_node3"><a xlink:href="$classAP__Mount.html#a88ddd07ac8d62ca4b93f06667ecb1fdc" xlink:title="AP_Mount::control_msg">
<polygon fill="white" stroke="black" points="364,-38.5 364,-57.5 486,-57.5 486,-38.5 364,-38.5"/>
<text text-anchor="middle" x="425" y="-45.5" font-family="Helvetica,sans-Serif" font-size="10.00">AP_Mount::control_msg</text>
</a>
</g>
</g>
<!-- Node2&#45;&gt;Node3 -->
<g id="edge2" class="edge"><title>Node2&#45;&gt;Node3</title>
<path fill="none" stroke="midnightblue" d="M337.985,-48C346.744,-48 355.464,-48 363.805,-48"/>
<polygon fill="midnightblue" stroke="midnightblue" points="337.707,-44.5001 327.706,-48 337.706,-51.5001 337.707,-44.5001"/>
</g>
</g>
</svg>
