<?xml version="1.0" encoding="UTF-8" standalone="no"?>
<!DOCTYPE svg PUBLIC "-//W3C//DTD SVG 1.1//EN"
 "http://www.w3.org/Graphics/SVG/1.1/DTD/svg11.dtd">
<!-- Generated by graphviz version 2.36.0 (20140111.2315)
 -->
<!-- Title: AP_Baro_Backend::_copy_to_frontend Pages: 1 -->
<svg width="492pt" height="104pt"
 viewBox="0.00 0.00 492.00 104.00" xmlns="http://www.w3.org/2000/svg" xmlns:xlink="http://www.w3.org/1999/xlink">
<g id="graph0" class="graph" transform="scale(1 1) rotate(0) translate(4 100)">
<title>AP_Baro_Backend::_copy_to_frontend</title>
<polygon fill="white" stroke="none" points="-4,4 -4,-100 488,-100 488,4 -4,4"/>
<!-- Node1 -->
<g id="node1" class="node"><title>Node1</title>
<polygon fill="#bfbfbf" stroke="black" points="0.5,-33 0.5,-63 131.5,-63 131.5,-33 0.5,-33"/>
<text text-anchor="start" x="8.5" y="-51" font-family="Helvetica,sans-Serif" font-size="10.00">AP_Baro_Backend::_copy</text>
<text text-anchor="middle" x="66" y="-40" font-family="Helvetica,sans-Serif" font-size="10.00">_to_frontend</text>
</g>
<!-- Node2 -->
<g id="node2" class="node"><title>Node2</title>
<g id="a_node2"><a xlink:href="$classAP__Baro__MS5611.html#af4231d950df2a9656c6cf8ff6dee7d60" xlink:title="AP_Baro_MS5611::_calculate">
<polygon fill="white" stroke="black" points="168.5,-76.5 168.5,-95.5 315.5,-95.5 315.5,-76.5 168.5,-76.5"/>
<text text-anchor="middle" x="242" y="-83.5" font-family="Helvetica,sans-Serif" font-size="10.00">AP_Baro_MS5611::_calculate</text>
</a>
</g>
</g>
<!-- Node1&#45;&gt;Node2 -->
<g id="edge1" class="edge"><title>Node1&#45;&gt;Node2</title>
<path fill="none" stroke="midnightblue" d="M141.628,-64.298C160.616,-68.4449 180.407,-72.767 197.282,-76.4524"/>
<polygon fill="midnightblue" stroke="midnightblue" points="142.308,-60.8641 131.791,-62.1498 140.814,-67.7029 142.308,-60.8641"/>
</g>
<!-- Node4 -->
<g id="node4" class="node"><title>Node4</title>
<g id="a_node4"><a xlink:href="$classAP__Baro__PX4.html#ad1567a4cad0762451ae7d01a5471d000" xlink:title="AP_Baro_PX4::update">
<polygon fill="white" stroke="black" points="184.5,-38.5 184.5,-57.5 299.5,-57.5 299.5,-38.5 184.5,-38.5"/>
<text text-anchor="middle" x="242" y="-45.5" font-family="Helvetica,sans-Serif" font-size="10.00">AP_Baro_PX4::update</text>
</a>
</g>
</g>
<!-- Node1&#45;&gt;Node4 -->
<g id="edge3" class="edge"><title>Node1&#45;&gt;Node4</title>
<path fill="none" stroke="midnightblue" d="M142.047,-48C156.267,-48 170.921,-48 184.451,-48"/>
<polygon fill="midnightblue" stroke="midnightblue" points="141.791,-44.5001 131.791,-48 141.791,-51.5001 141.791,-44.5001"/>
</g>
<!-- Node5 -->
<g id="node5" class="node"><title>Node5</title>
<g id="a_node5"><a xlink:href="$classAP__Baro__BMP085.html#a2aa3463e9e908fef68b1f5ab699f1357" xlink:title="AP_Baro_BMP085::update">
<polygon fill="white" stroke="black" points="175,-0.5 175,-19.5 309,-19.5 309,-0.5 175,-0.5"/>
<text text-anchor="middle" x="242" y="-7.5" font-family="Helvetica,sans-Serif" font-size="10.00">AP_Baro_BMP085::update</text>
</a>
</g>
</g>
<!-- Node1&#45;&gt;Node5 -->
<g id="edge4" class="edge"><title>Node1&#45;&gt;Node5</title>
<path fill="none" stroke="midnightblue" d="M141.628,-31.702C160.616,-27.5551 180.407,-23.233 197.282,-19.5476"/>
<polygon fill="midnightblue" stroke="midnightblue" points="140.814,-28.2971 131.791,-33.8502 142.308,-35.1359 140.814,-28.2971"/>
</g>
<!-- Node3 -->
<g id="node3" class="node"><title>Node3</title>
<g id="a_node3"><a xlink:href="$classAP__Baro__MS5611.html#aaabf16d34651abefbe5a9c81f1eb7016" xlink:title="AP_Baro_MS5611::update">
<polygon fill="white" stroke="black" points="352,-76.5 352,-95.5 484,-95.5 484,-76.5 352,-76.5"/>
<text text-anchor="middle" x="418" y="-83.5" font-family="Helvetica,sans-Serif" font-size="10.00">AP_Baro_MS5611::update</text>
</a>
</g>
</g>
<!-- Node2&#45;&gt;Node3 -->
<g id="edge2" class="edge"><title>Node2&#45;&gt;Node3</title>
<path fill="none" stroke="midnightblue" d="M325.75,-86C334.495,-86 343.298,-86 351.803,-86"/>
<polygon fill="midnightblue" stroke="midnightblue" points="325.532,-82.5001 315.532,-86 325.532,-89.5001 325.532,-82.5001"/>
</g>
</g>
</svg>
