<?xml version="1.0" encoding="UTF-8" standalone="no"?>
<!DOCTYPE svg PUBLIC "-//W3C//DTD SVG 1.1//EN"
 "http://www.w3.org/Graphics/SVG/1.1/DTD/svg11.dtd">
<!-- Generated by graphviz version 2.36.0 (20140111.2315)
 -->
<!-- Title: AP_SerialBus::read_16bits Pages: 1 -->
<svg width="452pt" height="53pt"
 viewBox="0.00 0.00 452.00 53.00" xmlns="http://www.w3.org/2000/svg" xmlns:xlink="http://www.w3.org/1999/xlink">
<g id="graph0" class="graph" transform="scale(1 1) rotate(0) translate(4 49)">
<title>AP_SerialBus::read_16bits</title>
<polygon fill="white" stroke="none" points="-4,4 -4,-49 448,-49 448,4 -4,4"/>
<!-- Node1 -->
<g id="node1" class="node"><title>Node1</title>
<polygon fill="#bfbfbf" stroke="black" points="0,-1 0,-31 102,-31 102,-1 0,-1"/>
<text text-anchor="start" x="8" y="-19" font-family="Helvetica,sans-Serif" font-size="10.00">AP_SerialBus::read</text>
<text text-anchor="middle" x="51" y="-8" font-family="Helvetica,sans-Serif" font-size="10.00">_16bits</text>
</g>
<!-- Node2 -->
<g id="node2" class="node"><title>Node2</title>
<g id="a_node2"><a xlink:href="$classAP__Baro__MS5611.html#a4246dcfab6c1645a3a111eb975aaa1a0" xlink:title="AP_Baro_MS5611::_check_crc">
<polygon fill="white" stroke="black" points="138.5,-25.5 138.5,-44.5 291.5,-44.5 291.5,-25.5 138.5,-25.5"/>
<text text-anchor="middle" x="215" y="-32.5" font-family="Helvetica,sans-Serif" font-size="10.00">AP_Baro_MS5611::_check_crc</text>
</a>
</g>
</g>
<!-- Node1&#45;&gt;Node2 -->
<g id="edge1" class="edge"><title>Node1&#45;&gt;Node2</title>
<path fill="none" stroke="midnightblue" d="M112.489,-23.0944C120.936,-24.0851 129.703,-25.1133 138.386,-26.1317"/>
<polygon fill="midnightblue" stroke="midnightblue" points="112.709,-19.5963 102.37,-21.9076 111.894,-26.5487 112.709,-19.5963"/>
</g>
<!-- Node3 -->
<g id="node3" class="node"><title>Node3</title>
<g id="a_node3"><a xlink:href="$classAP__Baro__MS5611.html#a5e36586ae33638288843d7bc9ba5c607" xlink:title="AP_Baro_MS5611::AP\l_Baro_MS5611">
<polygon fill="white" stroke="black" points="328,-1 328,-31 444,-31 444,-1 328,-1"/>
<text text-anchor="start" x="336" y="-19" font-family="Helvetica,sans-Serif" font-size="10.00">AP_Baro_MS5611::AP</text>
<text text-anchor="middle" x="386" y="-8" font-family="Helvetica,sans-Serif" font-size="10.00">_Baro_MS5611</text>
</a>
</g>
</g>
<!-- Node1&#45;&gt;Node3 -->
<g id="edge3" class="edge"><title>Node1&#45;&gt;Node3</title>
<path fill="none" stroke="midnightblue" d="M112.511,-16C173.811,-16 267.917,-16 327.947,-16"/>
<polygon fill="midnightblue" stroke="midnightblue" points="112.214,-12.5001 102.214,-16 112.214,-19.5001 112.214,-12.5001"/>
</g>
<!-- Node2&#45;&gt;Node3 -->
<g id="edge2" class="edge"><title>Node2&#45;&gt;Node3</title>
<path fill="none" stroke="midnightblue" d="M301.659,-25.3697C310.578,-24.367 319.479,-23.3662 327.967,-22.412"/>
<polygon fill="midnightblue" stroke="midnightblue" points="301.149,-21.9049 291.603,-26.5003 301.931,-28.8611 301.149,-21.9049"/>
</g>
</g>
</svg>
