<?xml version="1.0" encoding="UTF-8" standalone="no"?>
<!DOCTYPE svg PUBLIC "-//W3C//DTD SVG 1.1//EN"
 "http://www.w3.org/Graphics/SVG/1.1/DTD/svg11.dtd">
<!-- Generated by graphviz version 2.36.0 (20140111.2315)
 -->
<!-- Title: VRBRAIN::VRBRAINScheduler Pages: 1 -->
<svg width="838pt" height="88pt"
 viewBox="0.00 0.00 838.00 88.00" xmlns="http://www.w3.org/2000/svg" xmlns:xlink="http://www.w3.org/1999/xlink">
<g id="graph0" class="graph" transform="scale(1 1) rotate(0) translate(4 84)">
<title>VRBRAIN::VRBRAINScheduler</title>
<polygon fill="white" stroke="none" points="-4,4 -4,-84 834,-84 834,4 -4,4"/>
<!-- Node1 -->
<g id="node1" class="node"><title>Node1</title>
<polygon fill="#bfbfbf" stroke="black" points="672,-40.5 672,-59.5 830,-59.5 830,-40.5 672,-40.5"/>
<text text-anchor="middle" x="751" y="-47.5" font-family="Helvetica,sans-Serif" font-size="10.00">VRBRAIN::VRBRAINScheduler</text>
</g>
<!-- Node2 -->
<g id="node2" class="node"><title>Node2</title>
<g id="a_node2"><a xlink:href="$classAP__HAL_1_1Scheduler.html" xlink:title="AP_HAL::Scheduler">
<polygon fill="white" stroke="black" points="458,-60.5 458,-79.5 562,-79.5 562,-60.5 458,-60.5"/>
<text text-anchor="middle" x="510" y="-67.5" font-family="Helvetica,sans-Serif" font-size="10.00">AP_HAL::Scheduler</text>
</a>
</g>
</g>
<!-- Node2&#45;&gt;Node1 -->
<g id="edge1" class="edge"><title>Node2&#45;&gt;Node1</title>
<path fill="none" stroke="midnightblue" d="M572.296,-64.8707C602.651,-62.3305 639.636,-59.2355 671.989,-56.5281"/>
<polygon fill="midnightblue" stroke="midnightblue" points="571.945,-61.3877 562.271,-65.7095 572.529,-68.3633 571.945,-61.3877"/>
</g>
<!-- Node3 -->
<g id="node3" class="node"><title>Node3</title>
<g id="a_node3"><a xlink:href="$classfastdelegate_1_1FastDelegate0.html" xlink:title="fastdelegate::FastDelegate0\l\&lt; RetType \&gt;">
<polygon fill="white" stroke="black" points="440,-11 440,-41 580,-41 580,-11 440,-11"/>
<text text-anchor="start" x="448" y="-29" font-family="Helvetica,sans-Serif" font-size="10.00">fastdelegate::FastDelegate0</text>
<text text-anchor="middle" x="510" y="-18" font-family="Helvetica,sans-Serif" font-size="10.00">&lt; RetType &gt;</text>
</a>
</g>
</g>
<!-- Node3&#45;&gt;Node1 -->
<g id="edge2" class="edge"><title>Node3&#45;&gt;Node1</title>
<path fill="none" stroke="#9a32cd" stroke-dasharray="5,2" d="M590.296,-28.0947C611.067,-29.1319 633.41,-30.6824 654,-33 669.979,-34.7986 687.319,-37.6034 702.809,-40.4199"/>
<polygon fill="#9a32cd" stroke="#9a32cd" points="590.392,-24.5955 580.24,-27.6256 590.066,-31.5879 590.392,-24.5955"/>
<text text-anchor="middle" x="626" y="-47" font-family="Helvetica,sans-Serif" font-size="10.00"> _timer_proc</text>
<text text-anchor="middle" x="626" y="-36" font-family="Helvetica,sans-Serif" font-size="10.00">_io_proc</text>
</g>
<!-- Node4 -->
<g id="node4" class="node"><title>Node4</title>
<g id="a_node4"><a xlink:href="$classfastdelegate_1_1detail_1_1ClosurePtr.html" xlink:title="fastdelegate::detail\l::ClosurePtr\&lt; GenericMemFn,\l StaticFunctionPtr, UnvoidStatic\lFunctionPtr \&gt;">
<polygon fill="white" stroke="black" points="194,-0 194,-52 352,-52 352,-0 194,-0"/>
<text text-anchor="start" x="202" y="-40" font-family="Helvetica,sans-Serif" font-size="10.00">fastdelegate::detail</text>
<text text-anchor="start" x="202" y="-29" font-family="Helvetica,sans-Serif" font-size="10.00">::ClosurePtr&lt; GenericMemFn,</text>
<text text-anchor="start" x="202" y="-18" font-family="Helvetica,sans-Serif" font-size="10.00"> StaticFunctionPtr, UnvoidStatic</text>
<text text-anchor="middle" x="273" y="-7" font-family="Helvetica,sans-Serif" font-size="10.00">FunctionPtr &gt;</text>
</a>
</g>
</g>
<!-- Node4&#45;&gt;Node3 -->
<g id="edge3" class="edge"><title>Node4&#45;&gt;Node3</title>
<path fill="none" stroke="#9a32cd" stroke-dasharray="5,2" d="M362.332,-26C387.938,-26 415.517,-26 439.773,-26"/>
<polygon fill="#9a32cd" stroke="#9a32cd" points="362.252,-22.5001 352.252,-26 362.252,-29.5001 362.252,-22.5001"/>
<text text-anchor="middle" x="396" y="-29" font-family="Helvetica,sans-Serif" font-size="10.00"> m_Closure</text>
</g>
<!-- Node5 -->
<g id="node5" class="node"><title>Node5</title>
<g id="a_node5"><a xlink:href="$classfastdelegate_1_1DelegateMemento.html" xlink:title="fastdelegate::DelegateMemento">
<polygon fill="white" stroke="black" points="0.5,-16.5 0.5,-35.5 155.5,-35.5 155.5,-16.5 0.5,-16.5"/>
<text text-anchor="middle" x="78" y="-23.5" font-family="Helvetica,sans-Serif" font-size="10.00">fastdelegate::DelegateMemento</text>
</a>
</g>
</g>
<!-- Node5&#45;&gt;Node4 -->
<g id="edge4" class="edge"><title>Node5&#45;&gt;Node4</title>
<path fill="none" stroke="midnightblue" d="M165.703,-26C175.116,-26 184.655,-26 193.956,-26"/>
<polygon fill="midnightblue" stroke="midnightblue" points="165.556,-22.5001 155.556,-26 165.556,-29.5001 165.556,-22.5001"/>
</g>
</g>
</svg>
