<?xml version="1.0" encoding="UTF-8" standalone="no"?>
<!DOCTYPE svg PUBLIC "-//W3C//DTD SVG 1.1//EN"
 "http://www.w3.org/Graphics/SVG/1.1/DTD/svg11.dtd">
<!-- Generated by graphviz version 2.36.0 (20140111.2315)
 -->
<!-- Title: AP_ADC::Ch Pages: 1 -->
<svg width="426pt" height="136pt"
 viewBox="0.00 0.00 426.00 136.00" xmlns="http://www.w3.org/2000/svg" xmlns:xlink="http://www.w3.org/1999/xlink">
<g id="graph0" class="graph" transform="scale(1 1) rotate(0) translate(4 132)">
<title>AP_ADC::Ch</title>
<polygon fill="white" stroke="none" points="-4,4 -4,-132 422,-132 422,4 -4,4"/>
<!-- Node1 -->
<g id="node1" class="node"><title>Node1</title>
<polygon fill="#bfbfbf" stroke="black" points="0,-78.5 0,-97.5 76,-97.5 76,-78.5 0,-78.5"/>
<text text-anchor="middle" x="38" y="-85.5" font-family="Helvetica,sans-Serif" font-size="10.00">AP_ADC::Ch</text>
</g>
<!-- Node2 -->
<g id="node2" class="node"><title>Node2</title>
<g id="a_node2"><a xlink:href="$classAP__ADC__AnalogSource.html#a7d83c1ca360a21e964c610b0a49bc1ae" xlink:title="AP_ADC_AnalogSource\l::read_average">
<polygon fill="white" stroke="black" points="112.5,-98 112.5,-128 235.5,-128 235.5,-98 112.5,-98"/>
<text text-anchor="start" x="120.5" y="-116" font-family="Helvetica,sans-Serif" font-size="10.00">AP_ADC_AnalogSource</text>
<text text-anchor="middle" x="174" y="-105" font-family="Helvetica,sans-Serif" font-size="10.00">::read_average</text>
</a>
</g>
</g>
<!-- Node1&#45;&gt;Node2 -->
<g id="edge1" class="edge"><title>Node1&#45;&gt;Node2</title>
<path fill="none" stroke="midnightblue" d="M86.3014,-96.8249C94.6959,-98.391 103.543,-100.042 112.249,-101.666"/>
<polygon fill="midnightblue" stroke="midnightblue" points="86.7988,-93.3574 76.3265,-94.9639 85.5149,-100.239 86.7988,-93.3574"/>
</g>
<!-- Node4 -->
<g id="node4" class="node"><title>Node4</title>
<g id="a_node4"><a xlink:href="$classAP__ADC__AnalogSource.html#acb33da3d90943c66de0e65de47685ce6" xlink:title="AP_ADC_AnalogSource\l::voltage_average">
<polygon fill="white" stroke="black" points="112.5,-49 112.5,-79 235.5,-79 235.5,-49 112.5,-49"/>
<text text-anchor="start" x="120.5" y="-67" font-family="Helvetica,sans-Serif" font-size="10.00">AP_ADC_AnalogSource</text>
<text text-anchor="middle" x="174" y="-56" font-family="Helvetica,sans-Serif" font-size="10.00">::voltage_average</text>
</a>
</g>
</g>
<!-- Node1&#45;&gt;Node4 -->
<g id="edge3" class="edge"><title>Node1&#45;&gt;Node4</title>
<path fill="none" stroke="midnightblue" d="M86.3014,-79.5281C94.6959,-78.0246 103.543,-76.44 112.249,-74.8808"/>
<polygon fill="midnightblue" stroke="midnightblue" points="85.5528,-76.1064 76.3265,-81.3147 86.7869,-82.9968 85.5528,-76.1064"/>
</g>
<!-- Node3 -->
<g id="node3" class="node"><title>Node3</title>
<g id="a_node3"><a xlink:href="$classAP__ADC__AnalogSource.html#a428959a713e7afbf329345a0633d2307" xlink:title="AP_ADC_AnalogSource\l::read_latest">
<polygon fill="white" stroke="black" points="283.5,-98 283.5,-128 406.5,-128 406.5,-98 283.5,-98"/>
<text text-anchor="start" x="291.5" y="-116" font-family="Helvetica,sans-Serif" font-size="10.00">AP_ADC_AnalogSource</text>
<text text-anchor="middle" x="345" y="-105" font-family="Helvetica,sans-Serif" font-size="10.00">::read_latest</text>
</a>
</g>
</g>
<!-- Node2&#45;&gt;Node3 -->
<g id="edge2" class="edge"><title>Node2&#45;&gt;Node3</title>
<path fill="none" stroke="midnightblue" d="M245.873,-113C258.323,-113 271.178,-113 283.319,-113"/>
<polygon fill="midnightblue" stroke="midnightblue" points="245.536,-109.5 235.536,-113 245.535,-116.5 245.536,-109.5"/>
</g>
<!-- Node5 -->
<g id="node5" class="node"><title>Node5</title>
<g id="a_node5"><a xlink:href="$classAP__ADC__AnalogSource.html#a48233afb06760757da0627051349cd4b" xlink:title="AP_ADC_AnalogSource\l::voltage_latest">
<polygon fill="white" stroke="black" points="283.5,-49 283.5,-79 406.5,-79 406.5,-49 283.5,-49"/>
<text text-anchor="start" x="291.5" y="-67" font-family="Helvetica,sans-Serif" font-size="10.00">AP_ADC_AnalogSource</text>
<text text-anchor="middle" x="345" y="-56" font-family="Helvetica,sans-Serif" font-size="10.00">::voltage_latest</text>
</a>
</g>
</g>
<!-- Node4&#45;&gt;Node5 -->
<g id="edge4" class="edge"><title>Node4&#45;&gt;Node5</title>
<path fill="none" stroke="midnightblue" d="M245.873,-64C258.323,-64 271.178,-64 283.319,-64"/>
<polygon fill="midnightblue" stroke="midnightblue" points="245.536,-60.5001 235.536,-64 245.535,-67.5001 245.536,-60.5001"/>
</g>
<!-- Node6 -->
<g id="node6" class="node"><title>Node6</title>
<g id="a_node6"><a xlink:href="$classAP__ADC__AnalogSource.html#acde2528ff902560c113803987607947a" xlink:title="AP_ADC_AnalogSource\l::voltage_average_ratiometric">
<polygon fill="white" stroke="black" points="272.5,-0 272.5,-30 417.5,-30 417.5,-0 272.5,-0"/>
<text text-anchor="start" x="280.5" y="-18" font-family="Helvetica,sans-Serif" font-size="10.00">AP_ADC_AnalogSource</text>
<text text-anchor="middle" x="345" y="-7" font-family="Helvetica,sans-Serif" font-size="10.00">::voltage_average_ratiometric</text>
</a>
</g>
</g>
<!-- Node4&#45;&gt;Node6 -->
<g id="edge5" class="edge"><title>Node4&#45;&gt;Node6</title>
<path fill="none" stroke="midnightblue" d="M236.716,-46.1059C254.894,-40.8356 274.591,-35.1245 292.087,-30.0516"/>
<polygon fill="midnightblue" stroke="midnightblue" points="235.714,-42.7522 227.085,-48.8986 237.664,-49.4753 235.714,-42.7522"/>
</g>
</g>
</svg>
