<?xml version="1.0" encoding="UTF-8" standalone="no"?>
<!DOCTYPE svg PUBLIC "-//W3C//DTD SVG 1.1//EN"
 "http://www.w3.org/Graphics/SVG/1.1/DTD/svg11.dtd">
<!-- Generated by graphviz version 2.36.0 (20140111.2315)
 -->
<!-- Title: AP_InertialSensor_Flymaple::detect Pages: 1 -->
<svg width="514pt" height="38pt"
 viewBox="0.00 0.00 514.00 38.00" xmlns="http://www.w3.org/2000/svg" xmlns:xlink="http://www.w3.org/1999/xlink">
<g id="graph0" class="graph" transform="scale(1 1) rotate(0) translate(4 34)">
<title>AP_InertialSensor_Flymaple::detect</title>
<polygon fill="white" stroke="none" points="-4,4 -4,-34 510,-34 510,4 -4,4"/>
<!-- Node1 -->
<g id="node1" class="node"><title>Node1</title>
<polygon fill="#bfbfbf" stroke="black" points="0,-0 0,-30 140,-30 140,-0 0,-0"/>
<text text-anchor="start" x="8" y="-18" font-family="Helvetica,sans-Serif" font-size="10.00">AP_InertialSensor_Flymaple</text>
<text text-anchor="middle" x="70" y="-7" font-family="Helvetica,sans-Serif" font-size="10.00">::detect</text>
</g>
<!-- Node2 -->
<g id="node2" class="node"><title>Node2</title>
<g id="a_node2"><a xlink:href="$classAP__InertialSensor.html#abcf5d2923286a28097d2b3f8ca18e915" xlink:title="AP_InertialSensor::\l_detect_backends">
<polygon fill="white" stroke="black" points="176.5,-0 176.5,-30 277.5,-30 277.5,-0 176.5,-0"/>
<text text-anchor="start" x="184.5" y="-18" font-family="Helvetica,sans-Serif" font-size="10.00">AP_InertialSensor::</text>
<text text-anchor="middle" x="227" y="-7" font-family="Helvetica,sans-Serif" font-size="10.00">_detect_backends</text>
</a>
</g>
</g>
<!-- Node1&#45;&gt;Node2 -->
<g id="edge1" class="edge"><title>Node1&#45;&gt;Node2</title>
<path fill="none" stroke="midnightblue" d="M150.578,-15C159.309,-15 168.004,-15 176.221,-15"/>
<polygon fill="midnightblue" stroke="midnightblue" points="150.34,-11.5001 140.34,-15 150.34,-18.5001 150.34,-11.5001"/>
</g>
<!-- Node3 -->
<g id="node3" class="node"><title>Node3</title>
<g id="a_node3"><a xlink:href="$classAP__InertialSensor.html#ab0534f593e07f2d483ddd8c2b1bbf4d9" xlink:title="AP_InertialSensor::init">
<polygon fill="white" stroke="black" points="314,-5.5 314,-24.5 428,-24.5 428,-5.5 314,-5.5"/>
<text text-anchor="middle" x="371" y="-12.5" font-family="Helvetica,sans-Serif" font-size="10.00">AP_InertialSensor::init</text>
</a>
</g>
</g>
<!-- Node2&#45;&gt;Node3 -->
<g id="edge2" class="edge"><title>Node2&#45;&gt;Node3</title>
<path fill="none" stroke="midnightblue" d="M287.687,-15C296.341,-15 305.225,-15 313.808,-15"/>
<polygon fill="midnightblue" stroke="midnightblue" points="287.665,-11.5001 277.665,-15 287.665,-18.5001 287.665,-11.5001"/>
</g>
<!-- Node4 -->
<g id="node4" class="node"><title>Node4</title>
<g id="a_node4"><a xlink:href="$AHRS__Test_8pde.html#a7dfd9b79bc5a37d7df40207afbc5431f" xlink:title="setup">
<polygon fill="white" stroke="black" points="464.5,-5.5 464.5,-24.5 505.5,-24.5 505.5,-5.5 464.5,-5.5"/>
<text text-anchor="middle" x="485" y="-12.5" font-family="Helvetica,sans-Serif" font-size="10.00">setup</text>
</a>
</g>
</g>
<!-- Node3&#45;&gt;Node4 -->
<g id="edge3" class="edge"><title>Node3&#45;&gt;Node4</title>
<path fill="none" stroke="midnightblue" d="M438.602,-15C447.97,-15 456.927,-15 464.372,-15"/>
<polygon fill="midnightblue" stroke="midnightblue" points="438.328,-11.5001 428.328,-15 438.328,-18.5001 438.328,-11.5001"/>
</g>
</g>
</svg>
