<?xml version="1.0" encoding="UTF-8" standalone="no"?>
<!DOCTYPE svg PUBLIC "-//W3C//DTD SVG 1.1//EN"
 "http://www.w3.org/Graphics/SVG/1.1/DTD/svg11.dtd">
<!-- Generated by graphviz version 2.36.0 (20140111.2315)
 -->
<!-- Title: AP_RollController::autotune_restore Pages: 1 -->
<svg width="1098pt" height="126pt"
 viewBox="0.00 0.00 1098.00 126.00" xmlns="http://www.w3.org/2000/svg" xmlns:xlink="http://www.w3.org/1999/xlink">
<g id="graph0" class="graph" transform="scale(1 1) rotate(0) translate(4 122)">
<title>AP_RollController::autotune_restore</title>
<polygon fill="white" stroke="none" points="-4,4 -4,-122 1094,-122 1094,4 -4,4"/>
<!-- Node1 -->
<g id="node1" class="node"><title>Node1</title>
<polygon fill="#bfbfbf" stroke="black" points="0.5,-44 0.5,-74 101.5,-74 101.5,-44 0.5,-44"/>
<text text-anchor="start" x="8.5" y="-62" font-family="Helvetica,sans-Serif" font-size="10.00">AP_RollController::</text>
<text text-anchor="middle" x="51" y="-51" font-family="Helvetica,sans-Serif" font-size="10.00">autotune_restore</text>
</g>
<!-- Node2 -->
<g id="node2" class="node"><title>Node2</title>
<g id="a_node2"><a xlink:href="$classAP__AutoTune.html#ae452d4a3f9648538afc6d7dce6a5e8a3" xlink:title="AP_AutoTune::stop">
<polygon fill="white" stroke="black" points="138,-49.5 138,-68.5 240,-68.5 240,-49.5 138,-49.5"/>
<text text-anchor="middle" x="189" y="-56.5" font-family="Helvetica,sans-Serif" font-size="10.00">AP_AutoTune::stop</text>
</a>
</g>
</g>
<!-- Node1&#45;&gt;Node2 -->
<g id="edge1" class="edge"><title>Node1&#45;&gt;Node2</title>
<path fill="none" stroke="midnightblue" d="M101.869,-59C110.26,-59 119.049,-59 127.671,-59"/>
<polygon fill="midnightblue" stroke="midnightblue" points="127.682,-62.5001 137.682,-59 127.682,-55.5001 127.682,-62.5001"/>
</g>
<!-- Node3 -->
<g id="node3" class="node"><title>Node3</title>
<g id="a_node3"><a xlink:href="$classAP__AutoTune.html#a258aa8bcc03defe55967c97931af95d5" xlink:title="AP_AutoTune::save_gains">
<polygon fill="white" stroke="black" points="276.5,-49.5 276.5,-68.5 409.5,-68.5 409.5,-49.5 276.5,-49.5"/>
<text text-anchor="middle" x="343" y="-56.5" font-family="Helvetica,sans-Serif" font-size="10.00">AP_AutoTune::save_gains</text>
</a>
</g>
</g>
<!-- Node2&#45;&gt;Node3 -->
<g id="edge2" class="edge"><title>Node2&#45;&gt;Node3</title>
<path fill="none" stroke="midnightblue" d="M240.192,-59C248.611,-59 257.509,-59 266.4,-59"/>
<polygon fill="midnightblue" stroke="midnightblue" points="266.41,-62.5001 276.41,-59 266.41,-55.5001 266.41,-62.5001"/>
</g>
<!-- Node4 -->
<g id="node4" class="node"><title>Node4</title>
<g id="a_node4"><a xlink:href="$classAP__AutoTune.html#aeddf254d10081d997137a08585ca7f31" xlink:title="AP_AutoTune::save_float\l_if_changed">
<polygon fill="white" stroke="black" points="448,-69 448,-99 576,-99 576,-69 448,-69"/>
<text text-anchor="start" x="456" y="-87" font-family="Helvetica,sans-Serif" font-size="10.00">AP_AutoTune::save_float</text>
<text text-anchor="middle" x="512" y="-76" font-family="Helvetica,sans-Serif" font-size="10.00">_if_changed</text>
</a>
</g>
</g>
<!-- Node3&#45;&gt;Node4 -->
<g id="edge3" class="edge"><title>Node3&#45;&gt;Node4</title>
<path fill="none" stroke="midnightblue" d="M407.612,-68.5227C417.498,-70.0027 427.779,-71.5417 437.855,-73.0502"/>
<polygon fill="midnightblue" stroke="midnightblue" points="437.433,-76.5259 447.841,-74.5451 438.47,-69.6031 437.433,-76.5259"/>
</g>
<!-- Node10 -->
<g id="node10" class="node"><title>Node10</title>
<g id="a_node10"><a xlink:href="$classAP__AutoTune.html#a7b5cf04b738143f385c5a79228ca989a" xlink:title="AP_AutoTune::save_int16\l_if_changed">
<polygon fill="white" stroke="black" points="446.5,-20 446.5,-50 577.5,-50 577.5,-20 446.5,-20"/>
<text text-anchor="start" x="454.5" y="-38" font-family="Helvetica,sans-Serif" font-size="10.00">AP_AutoTune::save_int16</text>
<text text-anchor="middle" x="512" y="-27" font-family="Helvetica,sans-Serif" font-size="10.00">_if_changed</text>
</a>
</g>
</g>
<!-- Node3&#45;&gt;Node10 -->
<g id="edge9" class="edge"><title>Node3&#45;&gt;Node10</title>
<path fill="none" stroke="midnightblue" d="M409.524,-49.5834C418.354,-48.3144 427.465,-47.005 436.438,-45.7155"/>
<polygon fill="midnightblue" stroke="midnightblue" points="437.086,-49.1584 446.487,-44.2714 436.09,-42.2296 437.086,-49.1584"/>
</g>
<!-- Node5 -->
<g id="node5" class="node"><title>Node5</title>
<g id="a_node5"><a xlink:href="$classAP__AutoTune.html#a1c95b6055ee1b2333fbe753e2a9fa66d" xlink:title="AP_AutoTune::log_param\l_change">
<polygon fill="white" stroke="black" points="614,-44 614,-74 742,-74 742,-44 614,-44"/>
<text text-anchor="start" x="622" y="-62" font-family="Helvetica,sans-Serif" font-size="10.00">AP_AutoTune::log_param</text>
<text text-anchor="middle" x="678" y="-51" font-family="Helvetica,sans-Serif" font-size="10.00">_change</text>
</a>
</g>
</g>
<!-- Node4&#45;&gt;Node5 -->
<g id="edge4" class="edge"><title>Node4&#45;&gt;Node5</title>
<path fill="none" stroke="midnightblue" d="M576.407,-74.3343C585.313,-72.9766 594.529,-71.5718 603.602,-70.1887"/>
<polygon fill="midnightblue" stroke="midnightblue" points="604.404,-73.607 613.762,-68.6399 603.349,-66.687 604.404,-73.607"/>
</g>
<!-- Node6 -->
<g id="node6" class="node"><title>Node6</title>
<g id="a_node6"><a xlink:href="$classDataFlash__Class.html#ad15905fd635a59cc510a7781a9c4f3d9" xlink:title="DataFlash_Class::logging\l_started">
<polygon fill="white" stroke="black" points="778.5,-88 778.5,-118 907.5,-118 907.5,-88 778.5,-88"/>
<text text-anchor="start" x="786.5" y="-106" font-family="Helvetica,sans-Serif" font-size="10.00">DataFlash_Class::logging</text>
<text text-anchor="middle" x="843" y="-95" font-family="Helvetica,sans-Serif" font-size="10.00">_started</text>
</a>
</g>
</g>
<!-- Node5&#45;&gt;Node6 -->
<g id="edge5" class="edge"><title>Node5&#45;&gt;Node6</title>
<path fill="none" stroke="midnightblue" d="M734.639,-74.0192C748.072,-77.6452 762.55,-81.5534 776.392,-85.2899"/>
<polygon fill="midnightblue" stroke="midnightblue" points="775.768,-88.7467 786.335,-87.9738 777.592,-81.9886 775.768,-88.7467"/>
</g>
<!-- Node7 -->
<g id="node7" class="node"><title>Node7</title>
<g id="a_node7"><a xlink:href="$AP__Progmem__AVR_8h.html#a00eef44be35a92b1ef4067ea49bea7a3" xlink:title="strncpy_P">
<polygon fill="white" stroke="black" points="812.5,-49.5 812.5,-68.5 873.5,-68.5 873.5,-49.5 812.5,-49.5"/>
<text text-anchor="middle" x="843" y="-56.5" font-family="Helvetica,sans-Serif" font-size="10.00">strncpy_P</text>
</a>
</g>
</g>
<!-- Node5&#45;&gt;Node7 -->
<g id="edge6" class="edge"><title>Node5&#45;&gt;Node7</title>
<path fill="none" stroke="midnightblue" d="M742.02,-59C762.24,-59 784.062,-59 802.144,-59"/>
<polygon fill="midnightblue" stroke="midnightblue" points="802.318,-62.5001 812.318,-59 802.318,-55.5001 802.318,-62.5001"/>
</g>
<!-- Node8 -->
<g id="node8" class="node"><title>Node8</title>
<g id="a_node8"><a xlink:href="$classDataFlash__Class.html#a488ee9ba241f827fcb979dbccfdab76d" xlink:title="DataFlash_Class::Log\l_Write_Parameter">
<polygon fill="white" stroke="black" points="786,-0 786,-30 900,-30 900,-0 786,-0"/>
<text text-anchor="start" x="794" y="-18" font-family="Helvetica,sans-Serif" font-size="10.00">DataFlash_Class::Log</text>
<text text-anchor="middle" x="843" y="-7" font-family="Helvetica,sans-Serif" font-size="10.00">_Write_Parameter</text>
</a>
</g>
</g>
<!-- Node5&#45;&gt;Node8 -->
<g id="edge7" class="edge"><title>Node5&#45;&gt;Node8</title>
<path fill="none" stroke="midnightblue" d="M734.639,-43.9808C748.072,-40.3548 762.55,-36.4466 776.392,-32.7101"/>
<polygon fill="midnightblue" stroke="midnightblue" points="777.592,-36.0114 786.335,-30.0262 775.768,-29.2533 777.592,-36.0114"/>
</g>
<!-- Node9 -->
<g id="node9" class="node"><title>Node9</title>
<g id="a_node9"><a xlink:href="$classDataFlash__Class.html#af5e6aefb8f2136e9104be836dac88625" xlink:title="DataFlash_Class::WriteBlock">
<polygon fill="white" stroke="black" points="944,-5.5 944,-24.5 1090,-24.5 1090,-5.5 944,-5.5"/>
<text text-anchor="middle" x="1017" y="-12.5" font-family="Helvetica,sans-Serif" font-size="10.00">DataFlash_Class::WriteBlock</text>
</a>
</g>
</g>
<!-- Node8&#45;&gt;Node9 -->
<g id="edge8" class="edge"><title>Node8&#45;&gt;Node9</title>
<path fill="none" stroke="midnightblue" d="M900.319,-15C910.971,-15 922.315,-15 933.577,-15"/>
<polygon fill="midnightblue" stroke="midnightblue" points="933.874,-18.5001 943.874,-15 933.874,-11.5001 933.874,-18.5001"/>
</g>
<!-- Node10&#45;&gt;Node5 -->
<g id="edge10" class="edge"><title>Node10&#45;&gt;Node5</title>
<path fill="none" stroke="midnightblue" d="M577.817,-44.4854C586.376,-45.7379 595.196,-47.0287 603.882,-48.2998"/>
<polygon fill="midnightblue" stroke="midnightblue" points="603.591,-51.7945 613.993,-49.7794 604.605,-44.8682 603.591,-51.7945"/>
</g>
</g>
</svg>
