<?xml version="1.0" encoding="UTF-8" standalone="no"?>
<!DOCTYPE svg PUBLIC "-//W3C//DTD SVG 1.1//EN"
 "http://www.w3.org/Graphics/SVG/1.1/DTD/svg11.dtd">
<!-- Generated by graphviz version 2.36.0 (20140111.2315)
 -->
<!-- Title: AP_Camera::servo_pic Pages: 1 -->
<svg width="450pt" height="66pt"
 viewBox="0.00 0.00 450.00 66.00" xmlns="http://www.w3.org/2000/svg" xmlns:xlink="http://www.w3.org/1999/xlink">
<g id="graph0" class="graph" transform="scale(1 1) rotate(0) translate(4 62)">
<title>AP_Camera::servo_pic</title>
<polygon fill="white" stroke="none" points="-4,4 -4,-62 446,-62 446,4 -4,4"/>
<!-- Node1 -->
<g id="node1" class="node"><title>Node1</title>
<polygon fill="#bfbfbf" stroke="black" points="0,-19.5 0,-38.5 118,-38.5 118,-19.5 0,-19.5"/>
<text text-anchor="middle" x="59" y="-26.5" font-family="Helvetica,sans-Serif" font-size="10.00">AP_Camera::servo_pic</text>
</g>
<!-- Node2 -->
<g id="node2" class="node"><title>Node2</title>
<g id="a_node2"><a xlink:href="$classAP__Camera.html#a74372e2b8e5d3cd3b464f2ef417cb0f6" xlink:title="AP_Camera::trigger_pic">
<polygon fill="white" stroke="black" points="154.5,-19.5 154.5,-38.5 275.5,-38.5 275.5,-19.5 154.5,-19.5"/>
<text text-anchor="middle" x="215" y="-26.5" font-family="Helvetica,sans-Serif" font-size="10.00">AP_Camera::trigger_pic</text>
</a>
</g>
</g>
<!-- Node1&#45;&gt;Node2 -->
<g id="edge1" class="edge"><title>Node1&#45;&gt;Node2</title>
<path fill="none" stroke="midnightblue" d="M128.333,-29C137.029,-29 145.873,-29 154.417,-29"/>
<polygon fill="midnightblue" stroke="midnightblue" points="128.221,-25.5001 118.221,-29 128.221,-32.5001 128.221,-25.5001"/>
</g>
<!-- Node3 -->
<g id="node3" class="node"><title>Node3</title>
<g id="a_node3"><a xlink:href="$classAP__Camera.html#a27664cf70d78d5af17d66a3d715048db" xlink:title="decode MavLink that controls camera ">
<polygon fill="white" stroke="black" points="312.5,-38.5 312.5,-57.5 441.5,-57.5 441.5,-38.5 312.5,-38.5"/>
<text text-anchor="middle" x="377" y="-45.5" font-family="Helvetica,sans-Serif" font-size="10.00">AP_Camera::control_msg</text>
</a>
</g>
</g>
<!-- Node2&#45;&gt;Node3 -->
<g id="edge2" class="edge"><title>Node2&#45;&gt;Node3</title>
<path fill="none" stroke="midnightblue" d="M285.54,-37.2579C294.452,-38.3162 303.54,-39.3953 312.351,-40.4417"/>
<polygon fill="midnightblue" stroke="midnightblue" points="285.921,-33.7786 275.578,-36.0749 285.096,-40.7298 285.921,-33.7786"/>
</g>
<!-- Node4 -->
<g id="node4" class="node"><title>Node4</title>
<g id="a_node4"><a xlink:href="$classAP__Camera.html#a8c38ae3e667768f0564aed16722453f3" xlink:title="AP_Camera::control_cmd">
<polygon fill="white" stroke="black" points="312.5,-0.5 312.5,-19.5 441.5,-19.5 441.5,-0.5 312.5,-0.5"/>
<text text-anchor="middle" x="377" y="-7.5" font-family="Helvetica,sans-Serif" font-size="10.00">AP_Camera::control_cmd</text>
</a>
</g>
</g>
<!-- Node2&#45;&gt;Node4 -->
<g id="edge3" class="edge"><title>Node2&#45;&gt;Node4</title>
<path fill="none" stroke="midnightblue" d="M285.54,-20.7421C294.452,-19.6838 303.54,-18.6047 312.351,-17.5583"/>
<polygon fill="midnightblue" stroke="midnightblue" points="285.096,-17.2702 275.578,-21.9251 285.921,-24.2214 285.096,-17.2702"/>
</g>
</g>
</svg>
