<?xml version="1.0" encoding="UTF-8" standalone="no"?>
<!DOCTYPE svg PUBLIC "-//W3C//DTD SVG 1.1//EN"
 "http://www.w3.org/Graphics/SVG/1.1/DTD/svg11.dtd">
<!-- Generated by graphviz version 2.36.0 (20140111.2315)
 -->
<!-- Title: AP_Compass_HMC5843::read_register Pages: 1 -->
<svg width="836pt" height="38pt"
 viewBox="0.00 0.00 836.00 38.00" xmlns="http://www.w3.org/2000/svg" xmlns:xlink="http://www.w3.org/1999/xlink">
<g id="graph0" class="graph" transform="scale(1 1) rotate(0) translate(4 34)">
<title>AP_Compass_HMC5843::read_register</title>
<polygon fill="white" stroke="none" points="-4,4 -4,-34 832,-34 832,4 -4,4"/>
<!-- Node1 -->
<g id="node1" class="node"><title>Node1</title>
<polygon fill="#bfbfbf" stroke="black" points="0.5,-0 0.5,-30 127.5,-30 127.5,-0 0.5,-0"/>
<text text-anchor="start" x="8.5" y="-18" font-family="Helvetica,sans-Serif" font-size="10.00">AP_Compass_HMC5843</text>
<text text-anchor="middle" x="64" y="-7" font-family="Helvetica,sans-Serif" font-size="10.00">::read_register</text>
</g>
<!-- Node2 -->
<g id="node2" class="node"><title>Node2</title>
<g id="a_node2"><a xlink:href="$classAP__Compass__HMC5843.html#ae8fe5f87eb75452d7cfd4293a9bbfc7e" xlink:title="AP_Compass_HMC5843\l::init">
<polygon fill="white" stroke="black" points="164.5,-0 164.5,-30 291.5,-30 291.5,-0 164.5,-0"/>
<text text-anchor="start" x="172.5" y="-18" font-family="Helvetica,sans-Serif" font-size="10.00">AP_Compass_HMC5843</text>
<text text-anchor="middle" x="228" y="-7" font-family="Helvetica,sans-Serif" font-size="10.00">::init</text>
</a>
</g>
</g>
<!-- Node1&#45;&gt;Node2 -->
<g id="edge1" class="edge"><title>Node1&#45;&gt;Node2</title>
<path fill="none" stroke="midnightblue" d="M137.885,-15C146.69,-15 155.624,-15 164.266,-15"/>
<polygon fill="midnightblue" stroke="midnightblue" points="137.633,-11.5001 127.633,-15 137.633,-18.5001 137.633,-11.5001"/>
</g>
<!-- Node3 -->
<g id="node3" class="node"><title>Node3</title>
<g id="a_node3"><a xlink:href="$classAP__Compass__HMC5843.html#a24c7d88a8f69532e40f96c5a0db25364" xlink:title="AP_Compass_HMC5843\l::detect">
<polygon fill="white" stroke="black" points="328.5,-0 328.5,-30 455.5,-30 455.5,-0 328.5,-0"/>
<text text-anchor="start" x="336.5" y="-18" font-family="Helvetica,sans-Serif" font-size="10.00">AP_Compass_HMC5843</text>
<text text-anchor="middle" x="392" y="-7" font-family="Helvetica,sans-Serif" font-size="10.00">::detect</text>
</a>
</g>
</g>
<!-- Node2&#45;&gt;Node3 -->
<g id="edge2" class="edge"><title>Node2&#45;&gt;Node3</title>
<path fill="none" stroke="midnightblue" d="M301.885,-15C310.69,-15 319.624,-15 328.266,-15"/>
<polygon fill="midnightblue" stroke="midnightblue" points="301.633,-11.5001 291.633,-15 301.633,-18.5001 301.633,-11.5001"/>
</g>
<!-- Node4 -->
<g id="node4" class="node"><title>Node4</title>
<g id="a_node4"><a xlink:href="$classCompass.html#a1c48170d8c8966b22fb150b1634443ec" xlink:title="Compass::_detect_backends">
<polygon fill="white" stroke="black" points="492,-5.5 492,-24.5 636,-24.5 636,-5.5 492,-5.5"/>
<text text-anchor="middle" x="564" y="-12.5" font-family="Helvetica,sans-Serif" font-size="10.00">Compass::_detect_backends</text>
</a>
</g>
</g>
<!-- Node3&#45;&gt;Node4 -->
<g id="edge3" class="edge"><title>Node3&#45;&gt;Node4</title>
<path fill="none" stroke="midnightblue" d="M465.836,-15C474.455,-15 483.245,-15 491.84,-15"/>
<polygon fill="midnightblue" stroke="midnightblue" points="465.819,-11.5001 455.819,-15 465.819,-18.5001 465.819,-11.5001"/>
</g>
<!-- Node5 -->
<g id="node5" class="node"><title>Node5</title>
<g id="a_node5"><a xlink:href="$classCompass.html#a190aefc281aba88c7b16e4fc58035c5e" xlink:title="Compass::init">
<polygon fill="white" stroke="black" points="672.5,-5.5 672.5,-24.5 749.5,-24.5 749.5,-5.5 672.5,-5.5"/>
<text text-anchor="middle" x="711" y="-12.5" font-family="Helvetica,sans-Serif" font-size="10.00">Compass::init</text>
</a>
</g>
</g>
<!-- Node4&#45;&gt;Node5 -->
<g id="edge4" class="edge"><title>Node4&#45;&gt;Node5</title>
<path fill="none" stroke="midnightblue" d="M646.43,-15C655.424,-15 664.232,-15 672.289,-15"/>
<polygon fill="midnightblue" stroke="midnightblue" points="646.226,-11.5001 636.226,-15 646.226,-18.5001 646.226,-11.5001"/>
</g>
<!-- Node6 -->
<g id="node6" class="node"><title>Node6</title>
<g id="a_node6"><a xlink:href="$AHRS__Test_8pde.html#a7dfd9b79bc5a37d7df40207afbc5431f" xlink:title="setup">
<polygon fill="white" stroke="black" points="786.5,-5.5 786.5,-24.5 827.5,-24.5 827.5,-5.5 786.5,-5.5"/>
<text text-anchor="middle" x="807" y="-12.5" font-family="Helvetica,sans-Serif" font-size="10.00">setup</text>
</a>
</g>
</g>
<!-- Node5&#45;&gt;Node6 -->
<g id="edge5" class="edge"><title>Node5&#45;&gt;Node6</title>
<path fill="none" stroke="midnightblue" d="M759.829,-15C769.221,-15 778.569,-15 786.371,-15"/>
<polygon fill="midnightblue" stroke="midnightblue" points="759.692,-11.5001 749.692,-15 759.692,-18.5001 759.692,-11.5001"/>
</g>
</g>
</svg>
