<?xml version="1.0" encoding="UTF-8" standalone="no"?>
<!DOCTYPE svg PUBLIC "-//W3C//DTD SVG 1.1//EN"
 "http://www.w3.org/Graphics/SVG/1.1/DTD/svg11.dtd">
<!-- Generated by graphviz version 2.36.0 (20140111.2315)
 -->
<!-- Title: AP_Compass_PX4::accumulate Pages: 1 -->
<svg width="870pt" height="66pt"
 viewBox="0.00 0.00 870.00 66.00" xmlns="http://www.w3.org/2000/svg" xmlns:xlink="http://www.w3.org/1999/xlink">
<g id="graph0" class="graph" transform="scale(1 1) rotate(0) translate(4 62)">
<title>AP_Compass_PX4::accumulate</title>
<polygon fill="white" stroke="none" points="-4,4 -4,-62 866,-62 866,4 -4,4"/>
<!-- Node1 -->
<g id="node1" class="node"><title>Node1</title>
<polygon fill="#bfbfbf" stroke="black" points="0,-0.5 0,-19.5 158,-19.5 158,-0.5 0,-0.5"/>
<text text-anchor="middle" x="79" y="-7.5" font-family="Helvetica,sans-Serif" font-size="10.00">AP_Compass_PX4::accumulate</text>
</g>
<!-- Node2 -->
<g id="node2" class="node"><title>Node2</title>
<g id="a_node2"><a xlink:href="$classAP__Compass__PX4.html#a107c003aea3eff458ade1c3f263d0600" xlink:title="AP_Compass_PX4::init">
<polygon fill="white" stroke="black" points="197,-38.5 197,-57.5 317,-57.5 317,-38.5 197,-38.5"/>
<text text-anchor="middle" x="257" y="-45.5" font-family="Helvetica,sans-Serif" font-size="10.00">AP_Compass_PX4::init</text>
</a>
</g>
</g>
<!-- Node1&#45;&gt;Node2 -->
<g id="edge1" class="edge"><title>Node1&#45;&gt;Node2</title>
<path fill="none" stroke="midnightblue" d="M134.433,-21.7526C159.319,-27.1258 188.419,-33.4086 211.907,-38.4799"/>
<polygon fill="midnightblue" stroke="midnightblue" points="134.926,-18.2784 124.412,-19.589 133.448,-25.1207 134.926,-18.2784"/>
</g>
<!-- Node7 -->
<g id="node7" class="node"><title>Node7</title>
<g id="a_node7"><a xlink:href="$classAP__Compass__PX4.html#a4e20dea88905e71e94524c33a95ff76c" xlink:title="AP_Compass_PX4::read">
<polygon fill="white" stroke="black" points="194,-0.5 194,-19.5 320,-19.5 320,-0.5 194,-0.5"/>
<text text-anchor="middle" x="257" y="-7.5" font-family="Helvetica,sans-Serif" font-size="10.00">AP_Compass_PX4::read</text>
</a>
</g>
</g>
<!-- Node1&#45;&gt;Node7 -->
<g id="edge6" class="edge"><title>Node1&#45;&gt;Node7</title>
<path fill="none" stroke="midnightblue" d="M168.329,-3.25004C176.955,-3.25224 185.576,-3.34091 193.862,-3.51605"/>
<polygon fill="midnightblue" stroke="midnightblue" points="168.208,0.249636 158.221,-3.28718 168.234,-6.75032 168.208,0.249636"/>
</g>
<!-- Node3 -->
<g id="node3" class="node"><title>Node3</title>
<g id="a_node3"><a xlink:href="$classAP__Compass__PX4.html#a31f9519f4a0c078771749e2bce1dd988" xlink:title="AP_Compass_PX4::detect">
<polygon fill="white" stroke="black" points="356,-38.5 356,-57.5 490,-57.5 490,-38.5 356,-38.5"/>
<text text-anchor="middle" x="423" y="-45.5" font-family="Helvetica,sans-Serif" font-size="10.00">AP_Compass_PX4::detect</text>
</a>
</g>
</g>
<!-- Node2&#45;&gt;Node3 -->
<g id="edge2" class="edge"><title>Node2&#45;&gt;Node3</title>
<path fill="none" stroke="midnightblue" d="M327.364,-48C336.829,-48 346.525,-48 355.93,-48"/>
<polygon fill="midnightblue" stroke="midnightblue" points="327.208,-44.5001 317.208,-48 327.208,-51.5001 327.208,-44.5001"/>
</g>
<!-- Node4 -->
<g id="node4" class="node"><title>Node4</title>
<g id="a_node4"><a xlink:href="$classCompass.html#a1c48170d8c8966b22fb150b1634443ec" xlink:title="Compass::_detect_backends">
<polygon fill="white" stroke="black" points="526,-38.5 526,-57.5 670,-57.5 670,-38.5 526,-38.5"/>
<text text-anchor="middle" x="598" y="-45.5" font-family="Helvetica,sans-Serif" font-size="10.00">Compass::_detect_backends</text>
</a>
</g>
</g>
<!-- Node3&#45;&gt;Node4 -->
<g id="edge3" class="edge"><title>Node3&#45;&gt;Node4</title>
<path fill="none" stroke="midnightblue" d="M500.579,-48C509.001,-48 517.55,-48 525.901,-48"/>
<polygon fill="midnightblue" stroke="midnightblue" points="500.392,-44.5001 490.392,-48 500.392,-51.5001 500.392,-44.5001"/>
</g>
<!-- Node5 -->
<g id="node5" class="node"><title>Node5</title>
<g id="a_node5"><a xlink:href="$classCompass.html#a190aefc281aba88c7b16e4fc58035c5e" xlink:title="Compass::init">
<polygon fill="white" stroke="black" points="706.5,-38.5 706.5,-57.5 783.5,-57.5 783.5,-38.5 706.5,-38.5"/>
<text text-anchor="middle" x="745" y="-45.5" font-family="Helvetica,sans-Serif" font-size="10.00">Compass::init</text>
</a>
</g>
</g>
<!-- Node4&#45;&gt;Node5 -->
<g id="edge4" class="edge"><title>Node4&#45;&gt;Node5</title>
<path fill="none" stroke="midnightblue" d="M680.43,-48C689.424,-48 698.232,-48 706.289,-48"/>
<polygon fill="midnightblue" stroke="midnightblue" points="680.226,-44.5001 670.226,-48 680.226,-51.5001 680.226,-44.5001"/>
</g>
<!-- Node6 -->
<g id="node6" class="node"><title>Node6</title>
<g id="a_node6"><a xlink:href="$AHRS__Test_8pde.html#a7dfd9b79bc5a37d7df40207afbc5431f" xlink:title="setup">
<polygon fill="white" stroke="black" points="820.5,-38.5 820.5,-57.5 861.5,-57.5 861.5,-38.5 820.5,-38.5"/>
<text text-anchor="middle" x="841" y="-45.5" font-family="Helvetica,sans-Serif" font-size="10.00">setup</text>
</a>
</g>
</g>
<!-- Node5&#45;&gt;Node6 -->
<g id="edge5" class="edge"><title>Node5&#45;&gt;Node6</title>
<path fill="none" stroke="midnightblue" d="M793.829,-48C803.221,-48 812.569,-48 820.371,-48"/>
<polygon fill="midnightblue" stroke="midnightblue" points="793.692,-44.5001 783.692,-48 793.692,-51.5001 793.692,-44.5001"/>
</g>
<!-- Node7&#45;&gt;Node1 -->
<g id="edge7" class="edge"><title>Node7&#45;&gt;Node1</title>
<path fill="none" stroke="midnightblue" d="M183.724,-16.6533C175.314,-16.7577 166.706,-16.7776 158.221,-16.7128"/>
<polygon fill="midnightblue" stroke="midnightblue" points="183.922,-20.1506 193.862,-16.4839 183.805,-13.1516 183.922,-20.1506"/>
</g>
</g>
</svg>
