<?xml version="1.0" encoding="UTF-8" standalone="no"?>
<!DOCTYPE svg PUBLIC "-//W3C//DTD SVG 1.1//EN"
 "http://www.w3.org/Graphics/SVG/1.1/DTD/svg11.dtd">
<!-- Generated by graphviz version 2.36.0 (20140111.2315)
 -->
<!-- Title: JSBSim::open_fdm_socket Pages: 1 -->
<svg width="424pt" height="47pt"
 viewBox="0.00 0.00 424.00 47.00" xmlns="http://www.w3.org/2000/svg" xmlns:xlink="http://www.w3.org/1999/xlink">
<g id="graph0" class="graph" transform="scale(1 1) rotate(0) translate(4 43)">
<title>JSBSim::open_fdm_socket</title>
<polygon fill="white" stroke="none" points="-4,4 -4,-43 420,-43 420,4 -4,4"/>
<!-- Node1 -->
<g id="node1" class="node"><title>Node1</title>
<polygon fill="#bfbfbf" stroke="black" points="0,-0.5 0,-19.5 136,-19.5 136,-0.5 0,-0.5"/>
<text text-anchor="middle" x="68" y="-7.5" font-family="Helvetica,sans-Serif" font-size="10.00">JSBSim::open_fdm_socket</text>
</g>
<!-- Node2 -->
<g id="node2" class="node"><title>Node2</title>
<g id="a_node2"><a xlink:href="$classJSBSim.html#a2d834b58ab0702e7801752bcf5fa0fee" xlink:title="JSBSim::start_JSBSim">
<polygon fill="white" stroke="black" points="172.5,-19.5 172.5,-38.5 291.5,-38.5 291.5,-19.5 172.5,-19.5"/>
<text text-anchor="middle" x="232" y="-26.5" font-family="Helvetica,sans-Serif" font-size="10.00">JSBSim::start_JSBSim</text>
</a>
</g>
</g>
<!-- Node1&#45;&gt;Node2 -->
<g id="edge1" class="edge"><title>Node1&#45;&gt;Node2</title>
<path fill="none" stroke="midnightblue" d="M146.491,-19.0885C155.218,-20.112 164,-21.142 172.43,-22.1307"/>
<polygon fill="midnightblue" stroke="midnightblue" points="146.635,-15.5814 136.295,-17.8926 145.819,-22.5338 146.635,-15.5814"/>
</g>
<!-- Node3 -->
<g id="node3" class="node"><title>Node3</title>
<g id="a_node3"><a xlink:href="$classJSBSim.html#af578b81cce90bf59daea6eccc4c09549" xlink:title="JSBSim::update">
<polygon fill="white" stroke="black" points="328,-0.5 328,-19.5 416,-19.5 416,-0.5 328,-0.5"/>
<text text-anchor="middle" x="372" y="-7.5" font-family="Helvetica,sans-Serif" font-size="10.00">JSBSim::update</text>
</a>
</g>
</g>
<!-- Node1&#45;&gt;Node3 -->
<g id="edge3" class="edge"><title>Node1&#45;&gt;Node3</title>
<path fill="none" stroke="midnightblue" d="M146.202,-10C203.911,-10 280.692,-10 327.936,-10"/>
<polygon fill="midnightblue" stroke="midnightblue" points="146.024,-6.5001 136.024,-10 146.024,-13.5001 146.024,-6.5001"/>
</g>
<!-- Node2&#45;&gt;Node3 -->
<g id="edge2" class="edge"><title>Node2&#45;&gt;Node3</title>
<path fill="none" stroke="midnightblue" d="M301.596,-19.5556C310.548,-18.3231 319.509,-17.0893 327.877,-15.9372"/>
<polygon fill="midnightblue" stroke="midnightblue" points="300.954,-16.111 291.524,-20.9423 301.908,-23.0456 300.954,-16.111"/>
</g>
</g>
</svg>
