<?xml version="1.0" encoding="UTF-8" standalone="no"?>
<!DOCTYPE svg PUBLIC "-//W3C//DTD SVG 1.1//EN"
 "http://www.w3.org/Graphics/SVG/1.1/DTD/svg11.dtd">
<!-- Generated by graphviz version 2.36.0 (20140111.2315)
 -->
<!-- Title: AP_AHRS_DCM::renorm Pages: 1 -->
<svg width="434pt" height="28pt"
 viewBox="0.00 0.00 434.00 28.00" xmlns="http://www.w3.org/2000/svg" xmlns:xlink="http://www.w3.org/1999/xlink">
<g id="graph0" class="graph" transform="scale(1 1) rotate(0) translate(4 24)">
<title>AP_AHRS_DCM::renorm</title>
<polygon fill="white" stroke="none" points="-4,4 -4,-24 430,-24 430,4 -4,4"/>
<!-- Node1 -->
<g id="node1" class="node"><title>Node1</title>
<polygon fill="#bfbfbf" stroke="black" points="0,-0.5 0,-19.5 128,-19.5 128,-0.5 0,-0.5"/>
<text text-anchor="middle" x="64" y="-7.5" font-family="Helvetica,sans-Serif" font-size="10.00">AP_AHRS_DCM::renorm</text>
</g>
<!-- Node2 -->
<g id="node2" class="node"><title>Node2</title>
<g id="a_node2"><a xlink:href="$classVector3.html#ac1fd5514e368a1e1c2d13f71eda18345" xlink:title="Vector3::length">
<polygon fill="white" stroke="black" points="164.5,-0.5 164.5,-19.5 247.5,-19.5 247.5,-0.5 164.5,-0.5"/>
<text text-anchor="middle" x="206" y="-7.5" font-family="Helvetica,sans-Serif" font-size="10.00">Vector3::length</text>
</a>
</g>
</g>
<!-- Node1&#45;&gt;Node2 -->
<g id="edge1" class="edge"><title>Node1&#45;&gt;Node2</title>
<path fill="none" stroke="midnightblue" d="M128.038,-10C136.809,-10 145.728,-10 154.236,-10"/>
<polygon fill="midnightblue" stroke="midnightblue" points="154.373,-13.5001 164.373,-10 154.372,-6.5001 154.373,-13.5001"/>
</g>
<!-- Node3 -->
<g id="node3" class="node"><title>Node3</title>
<g id="a_node3"><a xlink:href="$AP__Math_8cpp.html#ac09c78b18c2ad21b9a04081f119f11c0" xlink:title="pythagorous3">
<polygon fill="white" stroke="black" points="284.5,-0.5 284.5,-19.5 359.5,-19.5 359.5,-0.5 284.5,-0.5"/>
<text text-anchor="middle" x="322" y="-7.5" font-family="Helvetica,sans-Serif" font-size="10.00">pythagorous3</text>
</a>
</g>
</g>
<!-- Node2&#45;&gt;Node3 -->
<g id="edge2" class="edge"><title>Node2&#45;&gt;Node3</title>
<path fill="none" stroke="midnightblue" d="M247.513,-10C256.161,-10 265.362,-10 274.223,-10"/>
<polygon fill="midnightblue" stroke="midnightblue" points="274.415,-13.5001 284.415,-10 274.415,-6.5001 274.415,-13.5001"/>
</g>
<!-- Node4 -->
<g id="node4" class="node"><title>Node4</title>
<g id="a_node4"><a xlink:href="$AP__Math_8cpp.html#a996fdbe87607543eef5dcb234f6bc017" xlink:title="sq">
<polygon fill="white" stroke="black" points="396.5,-0.5 396.5,-19.5 425.5,-19.5 425.5,-0.5 396.5,-0.5"/>
<text text-anchor="middle" x="411" y="-7.5" font-family="Helvetica,sans-Serif" font-size="10.00">sq</text>
</a>
</g>
</g>
<!-- Node3&#45;&gt;Node4 -->
<g id="edge3" class="edge"><title>Node3&#45;&gt;Node4</title>
<path fill="none" stroke="midnightblue" d="M359.644,-10C368.583,-10 377.919,-10 386.089,-10"/>
<polygon fill="midnightblue" stroke="midnightblue" points="386.361,-13.5001 396.361,-10 386.361,-6.5001 386.361,-13.5001"/>
</g>
</g>
</svg>
