<?xml version="1.0" encoding="UTF-8" standalone="no"?>
<!DOCTYPE svg PUBLIC "-//W3C//DTD SVG 1.1//EN"
 "http://www.w3.org/Graphics/SVG/1.1/DTD/svg11.dtd">
<!-- Generated by graphviz version 2.36.0 (20140111.2315)
 -->
<!-- Title: fastdelegate::detail::ClosurePtr::bindstaticfunc Pages: 1 -->
<svg width="320pt" height="430pt"
 viewBox="0.00 0.00 320.00 430.00" xmlns="http://www.w3.org/2000/svg" xmlns:xlink="http://www.w3.org/1999/xlink">
<g id="graph0" class="graph" transform="scale(1 1) rotate(0) translate(4 426)">
<title>fastdelegate::detail::ClosurePtr::bindstaticfunc</title>
<polygon fill="white" stroke="none" points="-4,4 -4,-426 316,-426 316,4 -4,4"/>
<!-- Node1 -->
<g id="node1" class="node"><title>Node1</title>
<polygon fill="#bfbfbf" stroke="black" points="0,-196 0,-226 136,-226 136,-196 0,-196"/>
<text text-anchor="start" x="8" y="-214" font-family="Helvetica,sans-Serif" font-size="10.00">fastdelegate::detail</text>
<text text-anchor="middle" x="68" y="-203" font-family="Helvetica,sans-Serif" font-size="10.00">::ClosurePtr::bindstaticfunc</text>
</g>
<!-- Node2 -->
<g id="node2" class="node"><title>Node2</title>
<g id="a_node2"><a xlink:href="$classfastdelegate_1_1FastDelegate0.html#acf2df2704cbe82aa94d39ab1330ed944" xlink:title="fastdelegate::FastDelegate0\l::bind">
<polygon fill="white" stroke="black" points="172,-392 172,-422 312,-422 312,-392 172,-392"/>
<text text-anchor="start" x="180" y="-410" font-family="Helvetica,sans-Serif" font-size="10.00">fastdelegate::FastDelegate0</text>
<text text-anchor="middle" x="242" y="-399" font-family="Helvetica,sans-Serif" font-size="10.00">::bind</text>
</a>
</g>
</g>
<!-- Node1&#45;&gt;Node2 -->
<g id="edge1" class="edge"><title>Node1&#45;&gt;Node2</title>
<path fill="none" stroke="midnightblue" d="M77.6541,-235.624C91.8083,-272.489 123.305,-341.963 172,-382 176.724,-385.884 182.102,-389.191 187.723,-391.999"/>
<polygon fill="midnightblue" stroke="midnightblue" points="80.8927,-234.292 74.1219,-226.143 74.3331,-236.736 80.8927,-234.292"/>
</g>
<!-- Node3 -->
<g id="node3" class="node"><title>Node3</title>
<g id="a_node3"><a xlink:href="$classfastdelegate_1_1FastDelegate1.html#a21a4f4526b757dfdf998b39822ea61e8" xlink:title="fastdelegate::FastDelegate1\l::bind">
<polygon fill="white" stroke="black" points="172,-343 172,-373 312,-373 312,-343 172,-343"/>
<text text-anchor="start" x="180" y="-361" font-family="Helvetica,sans-Serif" font-size="10.00">fastdelegate::FastDelegate1</text>
<text text-anchor="middle" x="242" y="-350" font-family="Helvetica,sans-Serif" font-size="10.00">::bind</text>
</a>
</g>
</g>
<!-- Node1&#45;&gt;Node3 -->
<g id="edge2" class="edge"><title>Node1&#45;&gt;Node3</title>
<path fill="none" stroke="midnightblue" d="M83.5987,-234.895C101.371,-262.15 133.791,-306.373 172,-333 177.436,-336.788 183.51,-340.069 189.739,-342.892"/>
<polygon fill="midnightblue" stroke="midnightblue" points="86.4765,-232.898 78.1458,-226.352 80.5761,-236.664 86.4765,-232.898"/>
</g>
<!-- Node4 -->
<g id="node4" class="node"><title>Node4</title>
<g id="a_node4"><a xlink:href="$classfastdelegate_1_1FastDelegate2.html#ab1918db8f802d3cee0407d340e9f7dd7" xlink:title="fastdelegate::FastDelegate2\l::bind">
<polygon fill="white" stroke="black" points="172,-294 172,-324 312,-324 312,-294 172,-294"/>
<text text-anchor="start" x="180" y="-312" font-family="Helvetica,sans-Serif" font-size="10.00">fastdelegate::FastDelegate2</text>
<text text-anchor="middle" x="242" y="-301" font-family="Helvetica,sans-Serif" font-size="10.00">::bind</text>
</a>
</g>
</g>
<!-- Node1&#45;&gt;Node4 -->
<g id="edge3" class="edge"><title>Node1&#45;&gt;Node4</title>
<path fill="none" stroke="midnightblue" d="M95.0461,-232.454C115.143,-248.246 144.133,-269.418 172,-284 178.999,-287.662 186.655,-291.017 194.24,-293.999"/>
<polygon fill="midnightblue" stroke="midnightblue" points="97.0092,-229.543 87.0066,-226.051 92.6479,-235.019 97.0092,-229.543"/>
</g>
<!-- Node5 -->
<g id="node5" class="node"><title>Node5</title>
<g id="a_node5"><a xlink:href="$classfastdelegate_1_1FastDelegate3.html#a26746ce78d3b02301e4df9c3a3808b18" xlink:title="fastdelegate::FastDelegate3\l::bind">
<polygon fill="white" stroke="black" points="172,-245 172,-275 312,-275 312,-245 172,-245"/>
<text text-anchor="start" x="180" y="-263" font-family="Helvetica,sans-Serif" font-size="10.00">fastdelegate::FastDelegate3</text>
<text text-anchor="middle" x="242" y="-252" font-family="Helvetica,sans-Serif" font-size="10.00">::bind</text>
</a>
</g>
</g>
<!-- Node1&#45;&gt;Node5 -->
<g id="edge4" class="edge"><title>Node1&#45;&gt;Node5</title>
<path fill="none" stroke="midnightblue" d="M131.812,-228.894C150.312,-234.164 170.359,-239.876 188.166,-244.948"/>
<polygon fill="midnightblue" stroke="midnightblue" points="132.585,-225.475 122.009,-226.101 130.668,-232.207 132.585,-225.475"/>
</g>
<!-- Node6 -->
<g id="node6" class="node"><title>Node6</title>
<g id="a_node6"><a xlink:href="$classfastdelegate_1_1FastDelegate4.html#a88533dd4a6657c1c2bb2879ed56e127e" xlink:title="fastdelegate::FastDelegate4\l::bind">
<polygon fill="white" stroke="black" points="172,-196 172,-226 312,-226 312,-196 172,-196"/>
<text text-anchor="start" x="180" y="-214" font-family="Helvetica,sans-Serif" font-size="10.00">fastdelegate::FastDelegate4</text>
<text text-anchor="middle" x="242" y="-203" font-family="Helvetica,sans-Serif" font-size="10.00">::bind</text>
</a>
</g>
</g>
<!-- Node1&#45;&gt;Node6 -->
<g id="edge5" class="edge"><title>Node1&#45;&gt;Node6</title>
<path fill="none" stroke="midnightblue" d="M146.62,-211C154.99,-211 163.467,-211 171.729,-211"/>
<polygon fill="midnightblue" stroke="midnightblue" points="146.485,-207.5 136.485,-211 146.485,-214.5 146.485,-207.5"/>
</g>
<!-- Node7 -->
<g id="node7" class="node"><title>Node7</title>
<g id="a_node7"><a xlink:href="$classfastdelegate_1_1FastDelegate5.html#a10b6067757f1b28561d9ebef59bd43a4" xlink:title="fastdelegate::FastDelegate5\l::bind">
<polygon fill="white" stroke="black" points="172,-147 172,-177 312,-177 312,-147 172,-147"/>
<text text-anchor="start" x="180" y="-165" font-family="Helvetica,sans-Serif" font-size="10.00">fastdelegate::FastDelegate5</text>
<text text-anchor="middle" x="242" y="-154" font-family="Helvetica,sans-Serif" font-size="10.00">::bind</text>
</a>
</g>
</g>
<!-- Node1&#45;&gt;Node7 -->
<g id="edge6" class="edge"><title>Node1&#45;&gt;Node7</title>
<path fill="none" stroke="midnightblue" d="M131.812,-193.106C150.312,-187.836 170.359,-182.124 188.166,-177.052"/>
<polygon fill="midnightblue" stroke="midnightblue" points="130.668,-189.793 122.009,-195.899 132.585,-196.525 130.668,-189.793"/>
</g>
<!-- Node8 -->
<g id="node8" class="node"><title>Node8</title>
<g id="a_node8"><a xlink:href="$classfastdelegate_1_1FastDelegate6.html#a38307d42a1b8d232b1a7191f69dc6ce4" xlink:title="fastdelegate::FastDelegate6\l::bind">
<polygon fill="white" stroke="black" points="172,-98 172,-128 312,-128 312,-98 172,-98"/>
<text text-anchor="start" x="180" y="-116" font-family="Helvetica,sans-Serif" font-size="10.00">fastdelegate::FastDelegate6</text>
<text text-anchor="middle" x="242" y="-105" font-family="Helvetica,sans-Serif" font-size="10.00">::bind</text>
</a>
</g>
</g>
<!-- Node1&#45;&gt;Node8 -->
<g id="edge7" class="edge"><title>Node1&#45;&gt;Node8</title>
<path fill="none" stroke="midnightblue" d="M95.0461,-189.546C115.143,-173.754 144.133,-152.582 172,-138 178.999,-134.338 186.655,-130.983 194.24,-128.001"/>
<polygon fill="midnightblue" stroke="midnightblue" points="92.6479,-186.981 87.0066,-195.949 97.0092,-192.457 92.6479,-186.981"/>
</g>
<!-- Node9 -->
<g id="node9" class="node"><title>Node9</title>
<g id="a_node9"><a xlink:href="$classfastdelegate_1_1FastDelegate7.html#a4bb3e259225ebf657fdd327d4c372409" xlink:title="fastdelegate::FastDelegate7\l::bind">
<polygon fill="white" stroke="black" points="172,-49 172,-79 312,-79 312,-49 172,-49"/>
<text text-anchor="start" x="180" y="-67" font-family="Helvetica,sans-Serif" font-size="10.00">fastdelegate::FastDelegate7</text>
<text text-anchor="middle" x="242" y="-56" font-family="Helvetica,sans-Serif" font-size="10.00">::bind</text>
</a>
</g>
</g>
<!-- Node1&#45;&gt;Node9 -->
<g id="edge8" class="edge"><title>Node1&#45;&gt;Node9</title>
<path fill="none" stroke="midnightblue" d="M83.5987,-187.105C101.371,-159.85 133.791,-115.627 172,-89 177.436,-85.212 183.51,-81.9313 189.739,-79.1083"/>
<polygon fill="midnightblue" stroke="midnightblue" points="80.5761,-185.336 78.1458,-195.648 86.4765,-189.102 80.5761,-185.336"/>
</g>
<!-- Node10 -->
<g id="node10" class="node"><title>Node10</title>
<g id="a_node10"><a xlink:href="$classfastdelegate_1_1FastDelegate8.html#ada2e3de28f6be04ef684877801443207" xlink:title="fastdelegate::FastDelegate8\l::bind">
<polygon fill="white" stroke="black" points="172,-0 172,-30 312,-30 312,-0 172,-0"/>
<text text-anchor="start" x="180" y="-18" font-family="Helvetica,sans-Serif" font-size="10.00">fastdelegate::FastDelegate8</text>
<text text-anchor="middle" x="242" y="-7" font-family="Helvetica,sans-Serif" font-size="10.00">::bind</text>
</a>
</g>
</g>
<!-- Node1&#45;&gt;Node10 -->
<g id="edge9" class="edge"><title>Node1&#45;&gt;Node10</title>
<path fill="none" stroke="midnightblue" d="M77.6541,-186.376C91.8083,-149.511 123.305,-80.0369 172,-40 176.724,-36.1159 182.102,-32.8094 187.723,-30.0005"/>
<polygon fill="midnightblue" stroke="midnightblue" points="74.3331,-185.264 74.1219,-195.857 80.8927,-187.708 74.3331,-185.264"/>
</g>
</g>
</svg>
