<?xml version="1.0" encoding="UTF-8" standalone="no"?>
<!DOCTYPE svg PUBLIC "-//W3C//DTD SVG 1.1//EN"
 "http://www.w3.org/Graphics/SVG/1.1/DTD/svg11.dtd">
<!-- Generated by graphviz version 2.36.0 (20140111.2315)
 -->
<!-- Title: Buzzer Pages: 1 -->
<svg width="228pt" height="96pt"
 viewBox="0.00 0.00 228.00 96.00" xmlns="http://www.w3.org/2000/svg" xmlns:xlink="http://www.w3.org/1999/xlink">
<g id="graph0" class="graph" transform="scale(1 1) rotate(0) translate(4 92)">
<title>Buzzer</title>
<polygon fill="white" stroke="none" points="-4,4 -4,-92 224,-92 224,4 -4,4"/>
<!-- Node1 -->
<g id="node1" class="node"><title>Node1</title>
<polygon fill="#bfbfbf" stroke="black" points="72.5,-0.5 72.5,-19.5 119.5,-19.5 119.5,-0.5 72.5,-0.5"/>
<text text-anchor="middle" x="96" y="-7.5" font-family="Helvetica,sans-Serif" font-size="10.00">Buzzer</text>
</g>
<!-- Node2 -->
<g id="node2" class="node"><title>Node2</title>
<g id="a_node2"><a xlink:href="$classNotifyDevice.html" xlink:title="NotifyDevice">
<polygon fill="white" stroke="black" points="0,-68.5 0,-87.5 74,-87.5 74,-68.5 0,-68.5"/>
<text text-anchor="middle" x="37" y="-75.5" font-family="Helvetica,sans-Serif" font-size="10.00">NotifyDevice</text>
</a>
</g>
</g>
<!-- Node2&#45;&gt;Node1 -->
<g id="edge1" class="edge"><title>Node2&#45;&gt;Node1</title>
<path fill="none" stroke="midnightblue" d="M51.5891,-60.68C63.1238,-47.7768 78.7849,-30.2575 88.0966,-19.8411"/>
<polygon fill="midnightblue" stroke="midnightblue" points="48.7685,-58.5836 44.7132,-68.3717 53.9873,-63.2489 48.7685,-58.5836"/>
</g>
<!-- Node3 -->
<g id="node3" class="node"><title>Node3</title>
<g id="a_node3"><a xlink:href="$structBuzzer_1_1buzzer__flag__type.html" xlink:title="buzzer_flag_type &#45; bitmask of current state and ap_notify states we track ">
<polygon fill="white" stroke="black" points="92,-68.5 92,-87.5 220,-87.5 220,-68.5 92,-68.5"/>
<text text-anchor="middle" x="156" y="-75.5" font-family="Helvetica,sans-Serif" font-size="10.00">Buzzer::buzzer_flag_type</text>
</a>
</g>
</g>
<!-- Node3&#45;&gt;Node1 -->
<g id="edge2" class="edge"><title>Node3&#45;&gt;Node1</title>
<path fill="none" stroke="#9a32cd" stroke-dasharray="5,2" d="M141.164,-60.68C129.433,-47.7768 113.507,-30.2575 104.037,-19.8411"/>
<polygon fill="#9a32cd" stroke="#9a32cd" points="138.839,-63.3266 148.156,-68.3717 144.019,-58.6179 138.839,-63.3266"/>
<text text-anchor="middle" x="146" y="-41.5" font-family="Helvetica,sans-Serif" font-size="10.00"> _flags</text>
</g>
</g>
</svg>
