<?xml version="1.0" encoding="UTF-8" standalone="no"?>
<!DOCTYPE svg PUBLIC "-//W3C//DTD SVG 1.1//EN"
 "http://www.w3.org/Graphics/SVG/1.1/DTD/svg11.dtd">
<!-- Generated by graphviz version 2.36.0 (20140111.2315)
 -->
<!-- Title: AP_OpticalFlow_HIL Pages: 1 -->
<svg width="506pt" height="216pt"
 viewBox="0.00 0.00 506.00 216.00" xmlns="http://www.w3.org/2000/svg" xmlns:xlink="http://www.w3.org/1999/xlink">
<g id="graph0" class="graph" transform="scale(1 1) rotate(0) translate(4 212)">
<title>AP_OpticalFlow_HIL</title>
<polygon fill="white" stroke="none" points="-4,4 -4,-212 502,-212 502,4 -4,4"/>
<!-- Node1 -->
<g id="node1" class="node"><title>Node1</title>
<polygon fill="#bfbfbf" stroke="black" points="390,-188.5 390,-207.5 498,-207.5 498,-188.5 390,-188.5"/>
<text text-anchor="middle" x="444" y="-195.5" font-family="Helvetica,sans-Serif" font-size="10.00">AP_OpticalFlow_HIL</text>
</g>
<!-- Node2 -->
<g id="node2" class="node"><title>Node2</title>
<g id="a_node2"><a xlink:href="$classOpticalFlow__backend.html" xlink:title="OpticalFlow_backend">
<polygon fill="white" stroke="black" points="186,-165.5 186,-184.5 296,-184.5 296,-165.5 186,-165.5"/>
<text text-anchor="middle" x="241" y="-172.5" font-family="Helvetica,sans-Serif" font-size="10.00">OpticalFlow_backend</text>
</a>
</g>
</g>
<!-- Node2&#45;&gt;Node1 -->
<g id="edge1" class="edge"><title>Node2&#45;&gt;Node1</title>
<path fill="none" stroke="midnightblue" d="M306.243,-182.351C333.199,-185.436 364.172,-188.98 389.819,-191.915"/>
<polygon fill="midnightblue" stroke="midnightblue" points="306.462,-178.853 296.129,-181.194 305.666,-185.808 306.462,-178.853"/>
</g>
<!-- Node3 -->
<g id="node3" class="node"><title>Node3</title>
<g id="a_node3"><a xlink:href="$classOpticalFlow.html" xlink:title="OpticalFlow">
<polygon fill="white" stroke="black" points="410,-94.5 410,-113.5 478,-113.5 478,-94.5 410,-94.5"/>
<text text-anchor="middle" x="444" y="-101.5" font-family="Helvetica,sans-Serif" font-size="10.00">OpticalFlow</text>
</a>
</g>
</g>
<!-- Node2&#45;&gt;Node3 -->
<g id="edge7" class="edge"><title>Node2&#45;&gt;Node3</title>
<path fill="none" stroke="#9a32cd" stroke-dasharray="5,2" d="M306.137,-167.69C327.586,-163.937 351.292,-158.33 372,-150 394.62,-140.901 417.758,-124.261 431.231,-113.685"/>
<polygon fill="#9a32cd" stroke="#9a32cd" points="305.435,-164.258 296.137,-169.336 306.573,-171.165 305.435,-164.258"/>
<text text-anchor="middle" x="352" y="-165" font-family="Helvetica,sans-Serif" font-size="10.00"> backend</text>
</g>
<!-- Node3&#45;&gt;Node2 -->
<g id="edge2" class="edge"><title>Node3&#45;&gt;Node2</title>
<path fill="none" stroke="#9a32cd" stroke-dasharray="5,2" d="M400.003,-112.74C378.601,-118.261 352.906,-126.719 332,-139 322.512,-144.574 323.617,-150.653 314,-156 307.108,-159.832 299.412,-162.917 291.687,-165.392"/>
<polygon fill="#9a32cd" stroke="#9a32cd" points="400.933,-116.116 409.812,-110.335 399.266,-109.317 400.933,-116.116"/>
<text text-anchor="middle" x="352" y="-142" font-family="Helvetica,sans-Serif" font-size="10.00"> frontend</text>
</g>
<!-- Node4 -->
<g id="node4" class="node"><title>Node4</title>
<g id="a_node4"><a xlink:href="$structAP__Param_1_1GroupInfo.html" xlink:title="AP_Param::GroupInfo">
<polygon fill="white" stroke="black" points="184.5,-98.5 184.5,-117.5 297.5,-117.5 297.5,-98.5 184.5,-98.5"/>
<text text-anchor="middle" x="241" y="-105.5" font-family="Helvetica,sans-Serif" font-size="10.00">AP_Param::GroupInfo</text>
</a>
</g>
</g>
<!-- Node4&#45;&gt;Node3 -->
<g id="edge3" class="edge"><title>Node4&#45;&gt;Node3</title>
<path fill="none" stroke="#9a32cd" stroke-dasharray="5,2" d="M307.898,-105.619C316.015,-105.38 324.197,-105.165 332,-105 358.204,-104.445 387.893,-104.198 409.969,-104.088"/>
<polygon fill="#9a32cd" stroke="#9a32cd" points="307.573,-102.127 297.685,-105.932 307.788,-109.124 307.573,-102.127"/>
<text text-anchor="middle" x="352" y="-108" font-family="Helvetica,sans-Serif" font-size="10.00"> var_info</text>
</g>
<!-- Node4&#45;&gt;Node4 -->
<g id="edge4" class="edge"><title>Node4&#45;&gt;Node4</title>
<path fill="none" stroke="#9a32cd" stroke-dasharray="5,2" d="M220.631,-127.4C221.991,-132.315 228.781,-136 241,-136 260.551,-136 266.202,-126.565 257.954,-117.757"/>
<polygon fill="#9a32cd" stroke="#9a32cd" points="224.007,-128.352 224.046,-117.757 217.408,-126.015 224.007,-128.352"/>
<text text-anchor="middle" x="241" y="-139" font-family="Helvetica,sans-Serif" font-size="10.00"> group_info</text>
</g>
<!-- Node5 -->
<g id="node5" class="node"><title>Node5</title>
<g id="a_node5"><a xlink:href="$structOpticalFlow_1_1OpticalFlow__state.html" xlink:title="OpticalFlow::OpticalFlow\l_state">
<polygon fill="white" stroke="black" points="178,-49 178,-79 304,-79 304,-49 178,-49"/>
<text text-anchor="start" x="186" y="-67" font-family="Helvetica,sans-Serif" font-size="10.00">OpticalFlow::OpticalFlow</text>
<text text-anchor="middle" x="241" y="-56" font-family="Helvetica,sans-Serif" font-size="10.00">_state</text>
</a>
</g>
</g>
<!-- Node5&#45;&gt;Node3 -->
<g id="edge5" class="edge"><title>Node5&#45;&gt;Node3</title>
<path fill="none" stroke="#9a32cd" stroke-dasharray="5,2" d="M314.221,-78.3723C346.947,-84.885 384.029,-92.2645 409.969,-97.4266"/>
<polygon fill="#9a32cd" stroke="#9a32cd" points="314.712,-74.9015 304.221,-76.3823 313.346,-81.7669 314.712,-74.9015"/>
<text text-anchor="middle" x="352" y="-92" font-family="Helvetica,sans-Serif" font-size="10.00"> _state</text>
</g>
<!-- Node6 -->
<g id="node6" class="node"><title>Node6</title>
<g id="a_node6"><a xlink:href="$structVector2.html" xlink:title="Vector2\&lt; float \&gt;">
<polygon fill="white" stroke="black" points="0.5,-54.5 0.5,-73.5 87.5,-73.5 87.5,-54.5 0.5,-54.5"/>
<text text-anchor="middle" x="44" y="-61.5" font-family="Helvetica,sans-Serif" font-size="10.00">Vector2&lt; float &gt;</text>
</a>
</g>
</g>
<!-- Node6&#45;&gt;Node5 -->
<g id="edge6" class="edge"><title>Node6&#45;&gt;Node5</title>
<path fill="none" stroke="#9a32cd" stroke-dasharray="5,2" d="M98.0179,-64C122.62,-64 152.031,-64 177.688,-64"/>
<polygon fill="#9a32cd" stroke="#9a32cd" points="97.7936,-60.5001 87.7936,-64 97.7935,-67.5001 97.7936,-60.5001"/>
<text text-anchor="middle" x="128" y="-78" font-family="Helvetica,sans-Serif" font-size="10.00"> flowRate</text>
<text text-anchor="middle" x="128" y="-67" font-family="Helvetica,sans-Serif" font-size="10.00">bodyRate</text>
</g>
<!-- Node7 -->
<g id="node7" class="node"><title>Node7</title>
<g id="a_node7"><a xlink:href="$structOpticalFlow_1_1AP__OpticalFlow__Flags.html" xlink:title="OpticalFlow::AP_OpticalFlow\l_Flags">
<polygon fill="white" stroke="black" points="168.5,-0 168.5,-30 313.5,-30 313.5,-0 168.5,-0"/>
<text text-anchor="start" x="176.5" y="-18" font-family="Helvetica,sans-Serif" font-size="10.00">OpticalFlow::AP_OpticalFlow</text>
<text text-anchor="middle" x="241" y="-7" font-family="Helvetica,sans-Serif" font-size="10.00">_Flags</text>
</a>
</g>
</g>
<!-- Node7&#45;&gt;Node3 -->
<g id="edge8" class="edge"><title>Node7&#45;&gt;Node3</title>
<path fill="none" stroke="#9a32cd" stroke-dasharray="5,2" d="M300.106,-33.5717C304.837,-35.3252 309.519,-37.1438 314,-39 355.241,-56.0827 401.498,-80.8346 425.857,-94.332"/>
<polygon fill="#9a32cd" stroke="#9a32cd" points="300.968,-30.1621 290.373,-30.0727 298.6,-36.7494 300.968,-30.1621"/>
<text text-anchor="middle" x="352" y="-69" font-family="Helvetica,sans-Serif" font-size="10.00"> _flags</text>
</g>
</g>
</svg>
