<?xml version="1.0" encoding="UTF-8" standalone="no"?>
<!DOCTYPE svg PUBLIC "-//W3C//DTD SVG 1.1//EN"
 "http://www.w3.org/Graphics/SVG/1.1/DTD/svg11.dtd">
<!-- Generated by graphviz version 2.36.0 (20140111.2315)
 -->
<!-- Title: AC_AttitudeControl::AC_AttitudeControl Pages: 1 -->
<svg width="432pt" height="77pt"
 viewBox="0.00 0.00 432.00 77.00" xmlns="http://www.w3.org/2000/svg" xmlns:xlink="http://www.w3.org/1999/xlink">
<g id="graph0" class="graph" transform="scale(1 1) rotate(0) translate(4 73)">
<title>AC_AttitudeControl::AC_AttitudeControl</title>
<polygon fill="white" stroke="none" points="-4,4 -4,-73 428,-73 428,4 -4,4"/>
<!-- Node1 -->
<g id="node1" class="node"><title>Node1</title>
<polygon fill="#bfbfbf" stroke="black" points="0.5,-22 0.5,-52 107.5,-52 107.5,-22 0.5,-22"/>
<text text-anchor="start" x="8.5" y="-40" font-family="Helvetica,sans-Serif" font-size="10.00">AC_AttitudeControl</text>
<text text-anchor="middle" x="54" y="-29" font-family="Helvetica,sans-Serif" font-size="10.00">::AC_AttitudeControl</text>
</g>
<!-- Node2 -->
<g id="node2" class="node"><title>Node2</title>
<g id="a_node2"><a xlink:href="$classAP__Param.html#a5f6dcfce1c0a79cf5bd81283e22f3201" xlink:title="AP_Param::setup_object\l_defaults">
<polygon fill="white" stroke="black" points="144.5,-22 144.5,-52 269.5,-52 269.5,-22 144.5,-22"/>
<text text-anchor="start" x="152.5" y="-40" font-family="Helvetica,sans-Serif" font-size="10.00">AP_Param::setup_object</text>
<text text-anchor="middle" x="207" y="-29" font-family="Helvetica,sans-Serif" font-size="10.00">_defaults</text>
</a>
</g>
</g>
<!-- Node1&#45;&gt;Node2 -->
<g id="edge1" class="edge"><title>Node1&#45;&gt;Node2</title>
<path fill="none" stroke="midnightblue" d="M107.812,-37C116.402,-37 125.422,-37 134.371,-37"/>
<polygon fill="midnightblue" stroke="midnightblue" points="134.416,-40.5001 144.416,-37 134.416,-33.5001 134.416,-40.5001"/>
</g>
<!-- Node3 -->
<g id="node3" class="node"><title>Node3</title>
<g id="a_node3"><a xlink:href="$classAP__Param.html#acd4b14f793c37f162e298761d2155ca6" xlink:title="AP_Param::set_value">
<polygon fill="white" stroke="black" points="309,-49.5 309,-68.5 421,-68.5 421,-49.5 309,-49.5"/>
<text text-anchor="middle" x="365" y="-56.5" font-family="Helvetica,sans-Serif" font-size="10.00">AP_Param::set_value</text>
</a>
</g>
</g>
<!-- Node2&#45;&gt;Node3 -->
<g id="edge2" class="edge"><title>Node2&#45;&gt;Node3</title>
<path fill="none" stroke="midnightblue" d="M269.655,-45.695C279.263,-47.0499 289.217,-48.4537 298.899,-49.819"/>
<polygon fill="midnightblue" stroke="midnightblue" points="298.472,-53.2935 308.863,-51.2243 299.45,-46.362 298.472,-53.2935"/>
</g>
<!-- Node4 -->
<g id="node4" class="node"><title>Node4</title>
<g id="a_node4"><a xlink:href="$classAP__Param.html#a1f6efebd94bc8bfd16db8d73ad3018c6" xlink:title="AP_Param::get_default\l_value">
<polygon fill="white" stroke="black" points="306,-0 306,-30 424,-30 424,-0 306,-0"/>
<text text-anchor="start" x="314" y="-18" font-family="Helvetica,sans-Serif" font-size="10.00">AP_Param::get_default</text>
<text text-anchor="middle" x="365" y="-7" font-family="Helvetica,sans-Serif" font-size="10.00">_value</text>
</a>
</g>
</g>
<!-- Node2&#45;&gt;Node4 -->
<g id="edge3" class="edge"><title>Node2&#45;&gt;Node4</title>
<path fill="none" stroke="midnightblue" d="M269.655,-28.305C278.225,-27.0965 287.07,-25.849 295.752,-24.6247"/>
<polygon fill="midnightblue" stroke="midnightblue" points="296.429,-28.064 305.842,-23.2018 295.451,-21.1326 296.429,-28.064"/>
</g>
</g>
</svg>
