<?xml version="1.0" encoding="UTF-8" standalone="no"?>
<!DOCTYPE svg PUBLIC "-//W3C//DTD SVG 1.1//EN"
 "http://www.w3.org/Graphics/SVG/1.1/DTD/svg11.dtd">
<!-- Generated by graphviz version 2.36.0 (20140111.2315)
 -->
<!-- Title: AP_PerfMon::stop Pages: 1 -->
<svg width="548pt" height="104pt"
 viewBox="0.00 0.00 548.00 104.00" xmlns="http://www.w3.org/2000/svg" xmlns:xlink="http://www.w3.org/1999/xlink">
<g id="graph0" class="graph" transform="scale(1 1) rotate(0) translate(4 100)">
<title>AP_PerfMon::stop</title>
<polygon fill="white" stroke="none" points="-4,4 -4,-100 544,-100 544,4 -4,4"/>
<!-- Node1 -->
<g id="node1" class="node"><title>Node1</title>
<polygon fill="#bfbfbf" stroke="black" points="0.5,-38.5 0.5,-57.5 97.5,-57.5 97.5,-38.5 0.5,-38.5"/>
<text text-anchor="middle" x="49" y="-45.5" font-family="Helvetica,sans-Serif" font-size="10.00">AP_PerfMon::stop</text>
</g>
<!-- Node2 -->
<g id="node2" class="node"><title>Node2</title>
<g id="a_node2"><a xlink:href="$classAP__PerfMon.html#aa5ca0faefe3a72059cbd497cb04a3593" xlink:title="AP_PerfMon::AP_PerfMon">
<polygon fill="white" stroke="black" points="140,-76.5 140,-95.5 274,-95.5 274,-76.5 140,-76.5"/>
<text text-anchor="middle" x="207" y="-83.5" font-family="Helvetica,sans-Serif" font-size="10.00">AP_PerfMon::AP_PerfMon</text>
</a>
</g>
</g>
<!-- Node1&#45;&gt;Node2 -->
<g id="edge1" class="edge"><title>Node1&#45;&gt;Node2</title>
<path fill="none" stroke="midnightblue" d="M99.1317,-59.968C120.993,-65.2931 146.376,-71.4762 166.918,-76.4799"/>
<polygon fill="midnightblue" stroke="midnightblue" points="99.9097,-56.5552 89.3654,-57.589 98.2529,-63.3563 99.9097,-56.5552"/>
</g>
<!-- Node3 -->
<g id="node3" class="node"><title>Node3</title>
<g id="a_node3"><a xlink:href="$classAP__PerfMon.html#a8ec00aed03b87f42dea000040d1ddcc6" xlink:title="AP_PerfMon::DisplayResults">
<polygon fill="white" stroke="black" points="134.5,-38.5 134.5,-57.5 279.5,-57.5 279.5,-38.5 134.5,-38.5"/>
<text text-anchor="middle" x="207" y="-45.5" font-family="Helvetica,sans-Serif" font-size="10.00">AP_PerfMon::DisplayResults</text>
</a>
</g>
</g>
<!-- Node1&#45;&gt;Node3 -->
<g id="edge2" class="edge"><title>Node1&#45;&gt;Node3</title>
<path fill="none" stroke="midnightblue" d="M107.91,-48C116.485,-48 125.408,-48 134.225,-48"/>
<polygon fill="midnightblue" stroke="midnightblue" points="107.653,-44.5001 97.6528,-48 107.653,-51.5001 107.653,-44.5001"/>
</g>
<!-- Node6 -->
<g id="node6" class="node"><title>Node6</title>
<g id="a_node6"><a xlink:href="$classAP__PerfMon.html#a561baec931656ce878fd82e9e5903c5e" xlink:title="AP_PerfMon::~AP_PerfMon">
<polygon fill="white" stroke="black" points="137,-0.5 137,-19.5 277,-19.5 277,-0.5 137,-0.5"/>
<text text-anchor="middle" x="207" y="-7.5" font-family="Helvetica,sans-Serif" font-size="10.00">AP_PerfMon::~AP_PerfMon</text>
</a>
</g>
</g>
<!-- Node1&#45;&gt;Node6 -->
<g id="edge5" class="edge"><title>Node1&#45;&gt;Node6</title>
<path fill="none" stroke="midnightblue" d="M99.1317,-36.032C120.993,-30.7069 146.376,-24.5238 166.918,-19.5201"/>
<polygon fill="midnightblue" stroke="midnightblue" points="98.2529,-32.6437 89.3654,-38.411 99.9097,-39.4448 98.2529,-32.6437"/>
</g>
<!-- Node4 -->
<g id="node4" class="node"><title>Node4</title>
<g id="a_node4"><a xlink:href="$classAP__PerfMon.html#aac40c63619a0ae2e26f27100f23dba3e" xlink:title="AP_PerfMon::DisplayAndClear">
<polygon fill="white" stroke="black" points="316,-38.5 316,-57.5 468,-57.5 468,-38.5 316,-38.5"/>
<text text-anchor="middle" x="392" y="-45.5" font-family="Helvetica,sans-Serif" font-size="10.00">AP_PerfMon::DisplayAndClear</text>
</a>
</g>
</g>
<!-- Node3&#45;&gt;Node4 -->
<g id="edge3" class="edge"><title>Node3&#45;&gt;Node4</title>
<path fill="none" stroke="midnightblue" d="M289.698,-48C298.415,-48 307.253,-48 315.889,-48"/>
<polygon fill="midnightblue" stroke="midnightblue" points="289.539,-44.5001 279.539,-48 289.539,-51.5001 289.539,-44.5001"/>
</g>
<!-- Node5 -->
<g id="node5" class="node"><title>Node5</title>
<g id="a_node5"><a xlink:href="$AP__PerfMon__test_8pde.html#afe461d27b9c48d5921c00d521181f12f" xlink:title="loop">
<polygon fill="white" stroke="black" points="504.5,-38.5 504.5,-57.5 539.5,-57.5 539.5,-38.5 504.5,-38.5"/>
<text text-anchor="middle" x="522" y="-45.5" font-family="Helvetica,sans-Serif" font-size="10.00">loop</text>
</a>
</g>
</g>
<!-- Node4&#45;&gt;Node5 -->
<g id="edge4" class="edge"><title>Node4&#45;&gt;Node5</title>
<path fill="none" stroke="midnightblue" d="M478.457,-48C488.087,-48 496.985,-48 504.126,-48"/>
<polygon fill="midnightblue" stroke="midnightblue" points="478.199,-44.5001 468.199,-48 478.198,-51.5001 478.199,-44.5001"/>
</g>
</g>
</svg>
