<?xml version="1.0" encoding="UTF-8" standalone="no"?>
<!DOCTYPE svg PUBLIC "-//W3C//DTD SVG 1.1//EN"
 "http://www.w3.org/Graphics/SVG/1.1/DTD/svg11.dtd">
<!-- Generated by graphviz version 2.36.0 (20140111.2315)
 -->
<!-- Title: PX4::PX4Storage::read_block Pages: 1 -->
<svg width="650pt" height="156pt"
 viewBox="0.00 0.00 650.00 155.55" xmlns="http://www.w3.org/2000/svg" xmlns:xlink="http://www.w3.org/1999/xlink">
<g id="graph0" class="graph" transform="scale(1 1) rotate(0) translate(4 151.547)">
<title>PX4::PX4Storage::read_block</title>
<polygon fill="white" stroke="none" points="-4,4 -4,-151.547 646,-151.547 646,4 -4,4"/>
<!-- Node1 -->
<g id="node1" class="node"><title>Node1</title>
<polygon fill="#bfbfbf" stroke="black" points="0.5,-73 0.5,-103 119.5,-103 119.5,-73 0.5,-73"/>
<text text-anchor="start" x="8.5" y="-91" font-family="Helvetica,sans-Serif" font-size="10.00">PX4::PX4Storage::read</text>
<text text-anchor="middle" x="60" y="-80" font-family="Helvetica,sans-Serif" font-size="10.00">_block</text>
</g>
<!-- Node2 -->
<g id="node2" class="node"><title>Node2</title>
<g id="a_node2"><a xlink:href="$classPX4_1_1PX4Storage.html#a02878fb502221c2389d3758bbab18170" xlink:title="PX4::PX4Storage::_storage_open">
<polygon fill="white" stroke="black" points="156,-78.5 156,-97.5 320,-97.5 320,-78.5 156,-78.5"/>
<text text-anchor="middle" x="238" y="-85.5" font-family="Helvetica,sans-Serif" font-size="10.00">PX4::PX4Storage::_storage_open</text>
</a>
</g>
</g>
<!-- Node1&#45;&gt;Node2 -->
<g id="edge1" class="edge"><title>Node1&#45;&gt;Node2</title>
<path fill="none" stroke="midnightblue" d="M119.605,-88C128.033,-88 136.868,-88 145.746,-88"/>
<polygon fill="midnightblue" stroke="midnightblue" points="145.77,-91.5001 155.77,-88 145.77,-84.5001 145.77,-91.5001"/>
</g>
<!-- Node3 -->
<g id="node3" class="node"><title>Node3</title>
<g id="a_node3"><a xlink:href="$classAP__HAL_1_1Scheduler.html#a65f0d4e404d3e6fda4d8b0b101c9780f" xlink:title="AP_HAL::Scheduler::\lpanic">
<polygon fill="white" stroke="black" points="532,-73 532,-103 642,-103 642,-73 532,-73"/>
<text text-anchor="start" x="540" y="-91" font-family="Helvetica,sans-Serif" font-size="10.00">AP_HAL::Scheduler::</text>
<text text-anchor="middle" x="587" y="-80" font-family="Helvetica,sans-Serif" font-size="10.00">panic</text>
</a>
</g>
</g>
<!-- Node2&#45;&gt;Node3 -->
<g id="edge2" class="edge"><title>Node2&#45;&gt;Node3</title>
<path fill="none" stroke="midnightblue" d="M255.759,-97.538C277.882,-109.527 318.433,-129.451 356,-137 417.003,-149.258 435.701,-152.351 496,-137 517.675,-131.482 539.766,-119.566 556.638,-108.868"/>
<polygon fill="midnightblue" stroke="midnightblue" points="558.995,-111.508 565.438,-103.097 555.156,-105.654 558.995,-111.508"/>
</g>
<!-- Node4 -->
<g id="node4" class="node"><title>Node4</title>
<g id="a_node4"><a xlink:href="$classPX4_1_1PX4Storage.html#a8877582e882dd9f3786c3e22f12c936b" xlink:title="PX4::PX4Storage::_mtd\l_signature">
<polygon fill="white" stroke="black" points="365,-98 365,-128 487,-128 487,-98 365,-98"/>
<text text-anchor="start" x="373" y="-116" font-family="Helvetica,sans-Serif" font-size="10.00">PX4::PX4Storage::_mtd</text>
<text text-anchor="middle" x="426" y="-105" font-family="Helvetica,sans-Serif" font-size="10.00">_signature</text>
</a>
</g>
</g>
<!-- Node2&#45;&gt;Node4 -->
<g id="edge3" class="edge"><title>Node2&#45;&gt;Node4</title>
<path fill="none" stroke="midnightblue" d="M309.849,-97.5227C324.613,-99.5072 340.169,-101.598 354.905,-103.579"/>
<polygon fill="midnightblue" stroke="midnightblue" points="354.58,-107.066 364.957,-104.93 355.513,-100.129 354.58,-107.066"/>
</g>
<!-- Node5 -->
<g id="node5" class="node"><title>Node5</title>
<g id="a_node5"><a xlink:href="$classPX4_1_1PX4Storage.html#a6443cc23c118b406165fbed2d56310a0" xlink:title="PX4::PX4Storage::_upgrade\l_to_mtd">
<polygon fill="white" stroke="black" points="356,-49 356,-79 496,-79 496,-49 356,-49"/>
<text text-anchor="start" x="364" y="-67" font-family="Helvetica,sans-Serif" font-size="10.00">PX4::PX4Storage::_upgrade</text>
<text text-anchor="middle" x="426" y="-56" font-family="Helvetica,sans-Serif" font-size="10.00">_to_mtd</text>
</a>
</g>
</g>
<!-- Node2&#45;&gt;Node5 -->
<g id="edge5" class="edge"><title>Node2&#45;&gt;Node5</title>
<path fill="none" stroke="midnightblue" d="M312.779,-78.4801C323.651,-77.0773 334.889,-75.6272 345.863,-74.2112"/>
<polygon fill="midnightblue" stroke="midnightblue" points="346.38,-77.6736 355.85,-72.9226 345.484,-70.7312 346.38,-77.6736"/>
</g>
<!-- Node6 -->
<g id="node6" class="node"><title>Node6</title>
<g id="a_node6"><a xlink:href="$classPX4_1_1PX4Storage.html#a99dc51d1dd4bb37a413027d8b6881fd6" xlink:title="PX4::PX4Storage::_mtd\l_write_signature">
<polygon fill="white" stroke="black" points="365,-0 365,-30 487,-30 487,-0 365,-0"/>
<text text-anchor="start" x="373" y="-18" font-family="Helvetica,sans-Serif" font-size="10.00">PX4::PX4Storage::_mtd</text>
<text text-anchor="middle" x="426" y="-7" font-family="Helvetica,sans-Serif" font-size="10.00">_write_signature</text>
</a>
</g>
</g>
<!-- Node2&#45;&gt;Node6 -->
<g id="edge7" class="edge"><title>Node2&#45;&gt;Node6</title>
<path fill="none" stroke="midnightblue" d="M261.755,-78.3355C285.25,-68.4345 323.024,-52.7318 356,-40 361.482,-37.8833 367.229,-35.7177 372.967,-33.5896"/>
<polygon fill="midnightblue" stroke="midnightblue" points="374.39,-36.7957 382.567,-30.0589 371.974,-30.2259 374.39,-36.7957"/>
</g>
<!-- Node4&#45;&gt;Node3 -->
<g id="edge4" class="edge"><title>Node4&#45;&gt;Node3</title>
<path fill="none" stroke="midnightblue" d="M487.111,-103.549C498.47,-101.763 510.391,-99.8882 521.868,-98.0836"/>
<polygon fill="midnightblue" stroke="midnightblue" points="522.479,-101.531 531.814,-96.5197 521.392,-94.6155 522.479,-101.531"/>
</g>
<!-- Node5&#45;&gt;Node3 -->
<g id="edge6" class="edge"><title>Node5&#45;&gt;Node3</title>
<path fill="none" stroke="midnightblue" d="M496.277,-74.4569C504.726,-75.7322 513.331,-77.031 521.702,-78.2946"/>
<polygon fill="midnightblue" stroke="midnightblue" points="521.361,-81.7827 531.771,-79.8145 522.405,-74.8611 521.361,-81.7827"/>
</g>
<!-- Node6&#45;&gt;Node3 -->
<g id="edge8" class="edge"><title>Node6&#45;&gt;Node3</title>
<path fill="none" stroke="midnightblue" d="M471.542,-30.0827C479.758,-33.1618 488.201,-36.5286 496,-40 514.701,-48.324 534.863,-58.9173 551.354,-68.0335"/>
<polygon fill="midnightblue" stroke="midnightblue" points="549.669,-71.1009 560.106,-72.9223 553.083,-64.9898 549.669,-71.1009"/>
</g>
</g>
</svg>
