<?xml version="1.0" encoding="UTF-8" standalone="no"?>
<!DOCTYPE svg PUBLIC "-//W3C//DTD SVG 1.1//EN"
 "http://www.w3.org/Graphics/SVG/1.1/DTD/svg11.dtd">
<!-- Generated by graphviz version 2.36.0 (20140111.2315)
 -->
<!-- Title: AP_MotorsHeli::write_aux Pages: 1 -->
<svg width="792pt" height="161pt"
 viewBox="0.00 0.00 792.00 161.00" xmlns="http://www.w3.org/2000/svg" xmlns:xlink="http://www.w3.org/1999/xlink">
<g id="graph0" class="graph" transform="scale(1 1) rotate(0) translate(4 157)">
<title>AP_MotorsHeli::write_aux</title>
<polygon fill="white" stroke="none" points="-4,4 -4,-157 788,-157 788,4 -4,4"/>
<!-- Node1 -->
<g id="node1" class="node"><title>Node1</title>
<polygon fill="#bfbfbf" stroke="black" points="0.5,-57.5 0.5,-76.5 131.5,-76.5 131.5,-57.5 0.5,-57.5"/>
<text text-anchor="middle" x="66" y="-64.5" font-family="Helvetica,sans-Serif" font-size="10.00">AP_MotorsHeli::write_aux</text>
</g>
<!-- Node2 -->
<g id="node2" class="node"><title>Node2</title>
<g id="a_node2"><a xlink:href="$classAP__MotorsHeli.html#a50457b8a60a8486755d6673c6631d2d8" xlink:title="AP_MotorsHeli::move\l_swash">
<polygon fill="white" stroke="black" points="180.5,-115 180.5,-145 293.5,-145 293.5,-115 180.5,-115"/>
<text text-anchor="start" x="188.5" y="-133" font-family="Helvetica,sans-Serif" font-size="10.00">AP_MotorsHeli::move</text>
<text text-anchor="middle" x="237" y="-122" font-family="Helvetica,sans-Serif" font-size="10.00">_swash</text>
</a>
</g>
</g>
<!-- Node1&#45;&gt;Node2 -->
<g id="edge1" class="edge"><title>Node1&#45;&gt;Node2</title>
<path fill="none" stroke="midnightblue" d="M101.681,-80.1222C121.159,-87.4734 145.918,-96.787 168,-105 176.724,-108.245 186.086,-111.703 194.989,-114.979"/>
<polygon fill="midnightblue" stroke="midnightblue" points="102.892,-76.838 92.2999,-76.5791 100.418,-83.3865 102.892,-76.838"/>
</g>
<!-- Node8 -->
<g id="node8" class="node"><title>Node8</title>
<g id="a_node8"><a xlink:href="$classAP__MotorsHeli.html#a9ff3335ed128d02af4c8120cd55caa4b" xlink:title="AP_MotorsHeli::output_test">
<polygon fill="white" stroke="black" points="168.5,-76.5 168.5,-95.5 305.5,-95.5 305.5,-76.5 168.5,-76.5"/>
<text text-anchor="middle" x="237" y="-83.5" font-family="Helvetica,sans-Serif" font-size="10.00">AP_MotorsHeli::output_test</text>
</a>
</g>
</g>
<!-- Node1&#45;&gt;Node8 -->
<g id="edge7" class="edge"><title>Node1&#45;&gt;Node8</title>
<path fill="none" stroke="midnightblue" d="M142.018,-75.4339C150.746,-76.4153 159.612,-77.412 168.235,-78.3815"/>
<polygon fill="midnightblue" stroke="midnightblue" points="142.185,-71.9308 131.856,-74.2916 141.403,-78.887 142.185,-71.9308"/>
</g>
<!-- Node9 -->
<g id="node9" class="node"><title>Node9</title>
<g id="a_node9"><a xlink:href="$classAP__MotorsHeli.html#a550e49233caad251454b835e0d083187" xlink:title="AP_MotorsHeli::rsc\l_control">
<polygon fill="white" stroke="black" points="360,-33 360,-63 462,-63 462,-33 360,-33"/>
<text text-anchor="start" x="368" y="-51" font-family="Helvetica,sans-Serif" font-size="10.00">AP_MotorsHeli::rsc</text>
<text text-anchor="middle" x="411" y="-40" font-family="Helvetica,sans-Serif" font-size="10.00">_control</text>
</a>
</g>
</g>
<!-- Node1&#45;&gt;Node9 -->
<g id="edge8" class="edge"><title>Node1&#45;&gt;Node9</title>
<path fill="none" stroke="midnightblue" d="M141.876,-62.8523C208.015,-59.1887 302.614,-53.9485 359.969,-50.7714"/>
<polygon fill="midnightblue" stroke="midnightblue" points="141.307,-59.3784 131.516,-63.4262 141.694,-66.3677 141.307,-59.3784"/>
</g>
<!-- Node10 -->
<g id="node10" class="node"><title>Node10</title>
<g id="a_node10"><a xlink:href="$classAP__MotorsHeli.html#a9c2207f78e61cb24cd34150cada0970f" xlink:title="AP_MotorsHeli::tail_ramp">
<polygon fill="white" stroke="black" points="173,-0.5 173,-19.5 301,-19.5 301,-0.5 173,-0.5"/>
<text text-anchor="middle" x="237" y="-7.5" font-family="Helvetica,sans-Serif" font-size="10.00">AP_MotorsHeli::tail_ramp</text>
</a>
</g>
</g>
<!-- Node1&#45;&gt;Node10 -->
<g id="edge10" class="edge"><title>Node1&#45;&gt;Node10</title>
<path fill="none" stroke="midnightblue" d="M104.927,-54.2081C136.052,-43.7102 179.438,-29.0772 207.621,-19.5716"/>
<polygon fill="midnightblue" stroke="midnightblue" points="103.644,-50.9471 95.2868,-57.4595 105.881,-57.58 103.644,-50.9471"/>
</g>
<!-- Node3 -->
<g id="node3" class="node"><title>Node3</title>
<g id="a_node3"><a xlink:href="$classAP__MotorsHeli.html#a85918ee9be140eee1738ca2898fc6513" xlink:title="AP_MotorsHeli::output\l_armed_stabilizing">
<polygon fill="white" stroke="black" points="516,-74 516,-104 632,-104 632,-74 516,-74"/>
<text text-anchor="start" x="524" y="-92" font-family="Helvetica,sans-Serif" font-size="10.00">AP_MotorsHeli::output</text>
<text text-anchor="middle" x="574" y="-81" font-family="Helvetica,sans-Serif" font-size="10.00">_armed_stabilizing</text>
</a>
</g>
</g>
<!-- Node2&#45;&gt;Node3 -->
<g id="edge2" class="edge"><title>Node2&#45;&gt;Node3</title>
<path fill="none" stroke="midnightblue" d="M303.67,-127.579C352.528,-125.116 420.722,-120.282 480,-111 491.638,-109.178 503.974,-106.674 515.726,-104.007"/>
<polygon fill="midnightblue" stroke="midnightblue" points="303.367,-124.09 293.548,-128.07 303.706,-131.081 303.367,-124.09"/>
</g>
<!-- Node7 -->
<g id="node7" class="node"><title>Node7</title>
<g id="a_node7"><a xlink:href="$classAP__MotorsHeli.html#a42fa16716c5bd1f3e06f89c3f0579672" xlink:title="AP_MotorsHeli::output_min">
<polygon fill="white" stroke="black" points="342.5,-82.5 342.5,-101.5 479.5,-101.5 479.5,-82.5 342.5,-82.5"/>
<text text-anchor="middle" x="411" y="-89.5" font-family="Helvetica,sans-Serif" font-size="10.00">AP_MotorsHeli::output_min</text>
</a>
</g>
</g>
<!-- Node2&#45;&gt;Node7 -->
<g id="edge6" class="edge"><title>Node2&#45;&gt;Node7</title>
<path fill="none" stroke="midnightblue" d="M303.755,-115.473C324.937,-110.793 347.856,-105.729 366.966,-101.507"/>
<polygon fill="midnightblue" stroke="midnightblue" points="302.853,-112.088 293.843,-117.662 304.363,-118.923 302.853,-112.088"/>
</g>
<!-- Node4 -->
<g id="node4" class="node"><title>Node4</title>
<g id="a_node4"><a xlink:href="$classAP__MotorsHeli.html#af02bef1b954fa23247b9940113c9a59a" xlink:title="AP_MotorsHeli::output\l_armed_not_stabilizing">
<polygon fill="white" stroke="black" points="668,-123 668,-153 784,-153 784,-123 668,-123"/>
<text text-anchor="start" x="676" y="-141" font-family="Helvetica,sans-Serif" font-size="10.00">AP_MotorsHeli::output</text>
<text text-anchor="middle" x="726" y="-130" font-family="Helvetica,sans-Serif" font-size="10.00">_armed_not_stabilizing</text>
</a>
</g>
</g>
<!-- Node3&#45;&gt;Node4 -->
<g id="edge3" class="edge"><title>Node3&#45;&gt;Node4</title>
<path fill="none" stroke="midnightblue" d="M630.895,-107.259C646.716,-112.427 663.752,-117.992 678.924,-122.948"/>
<polygon fill="midnightblue" stroke="midnightblue" points="631.821,-103.88 621.229,-104.101 629.648,-110.534 631.821,-103.88"/>
</g>
<!-- Node5 -->
<g id="node5" class="node"><title>Node5</title>
<g id="a_node5"><a xlink:href="$classAP__MotorsHeli.html#ad5752cdd84e25803d1889ac66817c221" xlink:title="AP_MotorsHeli::output\l_armed_zero_throttle">
<polygon fill="white" stroke="black" points="668,-74 668,-104 784,-104 784,-74 668,-74"/>
<text text-anchor="start" x="676" y="-92" font-family="Helvetica,sans-Serif" font-size="10.00">AP_MotorsHeli::output</text>
<text text-anchor="middle" x="726" y="-81" font-family="Helvetica,sans-Serif" font-size="10.00">_armed_zero_throttle</text>
</a>
</g>
</g>
<!-- Node3&#45;&gt;Node5 -->
<g id="edge4" class="edge"><title>Node3&#45;&gt;Node5</title>
<path fill="none" stroke="midnightblue" d="M642.311,-89C650.728,-89 659.277,-89 667.525,-89"/>
<polygon fill="midnightblue" stroke="midnightblue" points="642.137,-85.5001 632.136,-89 642.136,-92.5001 642.137,-85.5001"/>
</g>
<!-- Node6 -->
<g id="node6" class="node"><title>Node6</title>
<g id="a_node6"><a xlink:href="$classAP__MotorsHeli.html#a82bbdd9f88cb6a1e2ab13fafddafe639" xlink:title="AP_MotorsHeli::output\l_disarmed">
<polygon fill="white" stroke="black" points="668,-25 668,-55 784,-55 784,-25 668,-25"/>
<text text-anchor="start" x="676" y="-43" font-family="Helvetica,sans-Serif" font-size="10.00">AP_MotorsHeli::output</text>
<text text-anchor="middle" x="726" y="-32" font-family="Helvetica,sans-Serif" font-size="10.00">_disarmed</text>
</a>
</g>
</g>
<!-- Node3&#45;&gt;Node6 -->
<g id="edge5" class="edge"><title>Node3&#45;&gt;Node6</title>
<path fill="none" stroke="midnightblue" d="M630.895,-70.7409C646.716,-65.5727 663.752,-60.0076 678.924,-55.0516"/>
<polygon fill="midnightblue" stroke="midnightblue" points="629.648,-67.4663 621.229,-73.8986 631.821,-74.1203 629.648,-67.4663"/>
</g>
<!-- Node9&#45;&gt;Node3 -->
<g id="edge9" class="edge"><title>Node9&#45;&gt;Node3</title>
<path fill="none" stroke="midnightblue" d="M471.866,-63.2453C486.286,-66.9176 501.654,-70.8311 515.942,-74.4696"/>
<polygon fill="midnightblue" stroke="midnightblue" points="472.613,-59.8241 462.059,-60.7479 470.886,-66.6076 472.613,-59.8241"/>
</g>
<!-- Node10&#45;&gt;Node9 -->
<g id="edge11" class="edge"><title>Node10&#45;&gt;Node9</title>
<path fill="none" stroke="midnightblue" d="M291.204,-21.7545C313.103,-26.5926 338.339,-32.1679 359.904,-36.9322"/>
<polygon fill="midnightblue" stroke="midnightblue" points="291.922,-18.3288 281.403,-19.589 290.412,-25.164 291.922,-18.3288"/>
</g>
</g>
</svg>
