<?xml version="1.0" encoding="UTF-8" standalone="no"?>
<!DOCTYPE svg PUBLIC "-//W3C//DTD SVG 1.1//EN"
 "http://www.w3.org/Graphics/SVG/1.1/DTD/svg11.dtd">
<!-- Generated by graphviz version 2.36.0 (20140111.2315)
 -->
<!-- Title: Aircraft::add_noise Pages: 1 -->
<svg width="244pt" height="66pt"
 viewBox="0.00 0.00 244.00 66.00" xmlns="http://www.w3.org/2000/svg" xmlns:xlink="http://www.w3.org/1999/xlink">
<g id="graph0" class="graph" transform="scale(1 1) rotate(0) translate(4 62)">
<title>Aircraft::add_noise</title>
<polygon fill="white" stroke="none" points="-4,4 -4,-62 240,-62 240,4 -4,4"/>
<!-- Node1 -->
<g id="node1" class="node"><title>Node1</title>
<polygon fill="#bfbfbf" stroke="black" points="0,-19.5 0,-38.5 98,-38.5 98,-19.5 0,-19.5"/>
<text text-anchor="middle" x="49" y="-26.5" font-family="Helvetica,sans-Serif" font-size="10.00">Aircraft::add_noise</text>
</g>
<!-- Node2 -->
<g id="node2" class="node"><title>Node2</title>
<g id="a_node2"><a xlink:href="$classHelicopter.html#a679e4dbbeca418ad17aa98aafdc99385" xlink:title="Helicopter::update">
<polygon fill="white" stroke="black" points="137,-38.5 137,-57.5 233,-57.5 233,-38.5 137,-38.5"/>
<text text-anchor="middle" x="185" y="-45.5" font-family="Helvetica,sans-Serif" font-size="10.00">Helicopter::update</text>
</a>
</g>
</g>
<!-- Node1&#45;&gt;Node2 -->
<g id="edge1" class="edge"><title>Node1&#45;&gt;Node2</title>
<path fill="none" stroke="midnightblue" d="M108.455,-37.2884C117.858,-38.6217 127.489,-39.9873 136.592,-41.2779"/>
<polygon fill="midnightblue" stroke="midnightblue" points="108.769,-33.7981 98.3771,-35.8594 107.787,-40.7287 108.769,-33.7981"/>
</g>
<!-- Node3 -->
<g id="node3" class="node"><title>Node3</title>
<g id="a_node3"><a xlink:href="$classMultiCopter.html#ad4df8bcd20625ce425cc9d73f9aa6a20" xlink:title="MultiCopter::update">
<polygon fill="white" stroke="black" points="134,-0.5 134,-19.5 236,-19.5 236,-0.5 134,-0.5"/>
<text text-anchor="middle" x="185" y="-7.5" font-family="Helvetica,sans-Serif" font-size="10.00">MultiCopter::update</text>
</a>
</g>
</g>
<!-- Node1&#45;&gt;Node3 -->
<g id="edge2" class="edge"><title>Node1&#45;&gt;Node3</title>
<path fill="none" stroke="midnightblue" d="M108.553,-20.6978C116.999,-19.5002 125.627,-18.2767 133.889,-17.1053"/>
<polygon fill="midnightblue" stroke="midnightblue" points="107.787,-17.2713 98.3771,-22.1406 108.769,-24.202 107.787,-17.2713"/>
</g>
</g>
</svg>
