<?xml version="1.0" encoding="UTF-8" standalone="no"?>
<!DOCTYPE svg PUBLIC "-//W3C//DTD SVG 1.1//EN"
 "http://www.w3.org/Graphics/SVG/1.1/DTD/svg11.dtd">
<!-- Generated by graphviz version 2.36.0 (20140111.2315)
 -->
<!-- Title: EEPROMClass::EE_ErasePage Pages: 1 -->
<svg width="1354pt" height="236pt"
 viewBox="0.00 0.00 1354.00 236.00" xmlns="http://www.w3.org/2000/svg" xmlns:xlink="http://www.w3.org/1999/xlink">
<g id="graph0" class="graph" transform="scale(1 1) rotate(0) translate(4 232)">
<title>EEPROMClass::EE_ErasePage</title>
<polygon fill="white" stroke="none" points="-4,4 -4,-232 1350,-232 1350,4 -4,4"/>
<!-- Node1 -->
<g id="node1" class="node"><title>Node1</title>
<polygon fill="#bfbfbf" stroke="black" points="0,-125.5 0,-144.5 158,-144.5 158,-125.5 0,-125.5"/>
<text text-anchor="middle" x="79" y="-132.5" font-family="Helvetica,sans-Serif" font-size="10.00">EEPROMClass::EE_ErasePage</text>
</g>
<!-- Node2 -->
<g id="node2" class="node"><title>Node2</title>
<g id="a_node2"><a xlink:href="$classEEPROMClass.html#a42fc5632d6e320e5c08b8acc86a144d6" xlink:title="Check page for blank and erase it. ">
<polygon fill="white" stroke="black" points="194.5,-125.5 194.5,-144.5 381.5,-144.5 381.5,-125.5 194.5,-125.5"/>
<text text-anchor="middle" x="288" y="-132.5" font-family="Helvetica,sans-Serif" font-size="10.00">EEPROMClass::EE_CheckErasePage</text>
</a>
</g>
</g>
<!-- Node1&#45;&gt;Node2 -->
<g id="edge1" class="edge"><title>Node1&#45;&gt;Node2</title>
<path fill="none" stroke="midnightblue" d="M168.303,-135C176.93,-135 185.7,-135 194.367,-135"/>
<polygon fill="midnightblue" stroke="midnightblue" points="168.258,-131.5 158.258,-135 168.258,-138.5 168.258,-131.5"/>
</g>
<!-- Node3 -->
<g id="node3" class="node"><title>Node3</title>
<g id="a_node3"><a xlink:href="$classEEPROMClass.html#a3d12060444d8cc649f0264ce23f7bbaf" xlink:title="Transfers last updated variables data from the full Page to an empty one. ">
<polygon fill="white" stroke="black" points="418.5,-163.5 418.5,-182.5 587.5,-182.5 587.5,-163.5 418.5,-163.5"/>
<text text-anchor="middle" x="503" y="-170.5" font-family="Helvetica,sans-Serif" font-size="10.00">EEPROMClass::EE_PageTransfer</text>
</a>
</g>
</g>
<!-- Node2&#45;&gt;Node3 -->
<g id="edge2" class="edge"><title>Node2&#45;&gt;Node3</title>
<path fill="none" stroke="midnightblue" d="M352.603,-146.347C383.163,-151.799 419.382,-158.261 448.504,-163.456"/>
<polygon fill="midnightblue" stroke="midnightblue" points="352.933,-142.851 342.474,-144.54 351.704,-149.742 352.933,-142.851"/>
</g>
<!-- Node8 -->
<g id="node8" class="node"><title>Node8</title>
<g id="a_node8"><a xlink:href="$classEEPROMClass.html#a9e3825e66fd8112ed3768f726537c8c6" xlink:title="EEPROMClass::init">
<polygon fill="white" stroke="black" points="651,-114.5 651,-133.5 755,-133.5 755,-114.5 651,-114.5"/>
<text text-anchor="middle" x="703" y="-121.5" font-family="Helvetica,sans-Serif" font-size="10.00">EEPROMClass::init</text>
</a>
</g>
</g>
<!-- Node2&#45;&gt;Node8 -->
<g id="edge16" class="edge"><title>Node2&#45;&gt;Node8</title>
<path fill="none" stroke="midnightblue" d="M391.836,-132.261C474.243,-130.066 586.389,-127.079 650.802,-125.364"/>
<polygon fill="midnightblue" stroke="midnightblue" points="391.588,-128.766 381.685,-132.531 391.775,-135.764 391.588,-128.766"/>
</g>
<!-- Node14 -->
<g id="node14" class="node"><title>Node14</title>
<g id="a_node14"><a xlink:href="$classEEPROMClass.html#ac7d841bc2db8825c19444dff0a7409c5" xlink:title="Erases PAGE0 and PAGE1 and writes EEPROM_VALID_PAGE / 0 header to PAGE0. ">
<polygon fill="white" stroke="black" points="443.5,-87.5 443.5,-106.5 562.5,-106.5 562.5,-87.5 443.5,-87.5"/>
<text text-anchor="middle" x="503" y="-94.5" font-family="Helvetica,sans-Serif" font-size="10.00">EEPROMClass::format</text>
</a>
</g>
</g>
<!-- Node2&#45;&gt;Node14 -->
<g id="edge14" class="edge"><title>Node2&#45;&gt;Node14</title>
<path fill="none" stroke="midnightblue" d="M352.603,-123.653C383.163,-118.201 419.382,-111.739 448.504,-106.544"/>
<polygon fill="midnightblue" stroke="midnightblue" points="351.704,-120.258 342.474,-125.46 352.933,-127.149 351.704,-120.258"/>
</g>
<!-- Node4 -->
<g id="node4" class="node"><title>Node4</title>
<g id="a_node4"><a xlink:href="$classEEPROMClass.html#a1ec32c6c58e3845274ab08e8944d2f46" xlink:title="Verify if active page is full and Writes variable in EEPROM. ">
<polygon fill="white" stroke="black" points="624,-169 624,-199 782,-199 782,-169 624,-169"/>
<text text-anchor="start" x="632" y="-187" font-family="Helvetica,sans-Serif" font-size="10.00">EEPROMClass::EE_VerifyPage</text>
<text text-anchor="middle" x="703" y="-176" font-family="Helvetica,sans-Serif" font-size="10.00">FullWriteVariable</text>
</a>
</g>
</g>
<!-- Node3&#45;&gt;Node4 -->
<g id="edge3" class="edge"><title>Node3&#45;&gt;Node4</title>
<path fill="none" stroke="midnightblue" d="M597.892,-178.216C606.623,-178.701 615.408,-179.189 623.973,-179.665"/>
<polygon fill="midnightblue" stroke="midnightblue" points="597.862,-174.709 587.683,-177.649 597.473,-181.698 597.862,-174.709"/>
</g>
<!-- Node3&#45;&gt;Node8 -->
<g id="edge7" class="edge"><title>Node3&#45;&gt;Node8</title>
<path fill="none" stroke="midnightblue" d="M552.418,-161.018C586.578,-152.564 631.725,-141.391 663.451,-133.54"/>
<polygon fill="midnightblue" stroke="midnightblue" points="551.513,-157.636 542.646,-163.436 553.194,-164.431 551.513,-157.636"/>
</g>
<!-- Node5 -->
<g id="node5" class="node"><title>Node5</title>
<g id="a_node5"><a xlink:href="$classEEPROMClass.html#a94dfba95e7cbc16dd5cbfeb344a749c1" xlink:title="Writes/upadtes variable data in EEPROM. ">
<polygon fill="white" stroke="black" points="827.5,-202.5 827.5,-221.5 940.5,-221.5 940.5,-202.5 827.5,-202.5"/>
<text text-anchor="middle" x="884" y="-209.5" font-family="Helvetica,sans-Serif" font-size="10.00">EEPROMClass::write</text>
</a>
</g>
</g>
<!-- Node4&#45;&gt;Node5 -->
<g id="edge4" class="edge"><title>Node4&#45;&gt;Node5</title>
<path fill="none" stroke="midnightblue" d="M792.297,-197.812C804.287,-199.687 816.306,-201.567 827.493,-203.317"/>
<polygon fill="midnightblue" stroke="midnightblue" points="792.672,-194.328 782.252,-196.24 791.591,-201.244 792.672,-194.328"/>
</g>
<!-- Node6 -->
<g id="node6" class="node"><title>Node6</title>
<g id="a_node6"><a xlink:href="$classAP__HAL__FLYMAPLE__NS_1_1FLYMAPLEStorage.html#a0aa3116d7a310753eea45c784330aa37" xlink:title="AP_HAL_FLYMAPLE_NS\l::FLYMAPLEStorage::write_byte">
<polygon fill="white" stroke="black" points="986.5,-197 986.5,-227 1145.5,-227 1145.5,-197 986.5,-197"/>
<text text-anchor="start" x="994.5" y="-215" font-family="Helvetica,sans-Serif" font-size="10.00">AP_HAL_FLYMAPLE_NS</text>
<text text-anchor="middle" x="1066" y="-204" font-family="Helvetica,sans-Serif" font-size="10.00">::FLYMAPLEStorage::write_byte</text>
</a>
</g>
</g>
<!-- Node5&#45;&gt;Node6 -->
<g id="edge5" class="edge"><title>Node5&#45;&gt;Node6</title>
<path fill="none" stroke="midnightblue" d="M951.253,-212C962.646,-212 974.586,-212 986.268,-212"/>
<polygon fill="midnightblue" stroke="midnightblue" points="950.966,-208.5 940.966,-212 950.966,-215.5 950.966,-208.5"/>
</g>
<!-- Node7 -->
<g id="node7" class="node"><title>Node7</title>
<g id="a_node7"><a xlink:href="$classAP__HAL__FLYMAPLE__NS_1_1FLYMAPLEStorage.html#a3cebced9065ea52b7c7684aed8f3435b" xlink:title="AP_HAL_FLYMAPLE_NS\l::FLYMAPLEStorage::write_block">
<polygon fill="white" stroke="black" points="1182,-197 1182,-227 1346,-227 1346,-197 1182,-197"/>
<text text-anchor="start" x="1190" y="-215" font-family="Helvetica,sans-Serif" font-size="10.00">AP_HAL_FLYMAPLE_NS</text>
<text text-anchor="middle" x="1264" y="-204" font-family="Helvetica,sans-Serif" font-size="10.00">::FLYMAPLEStorage::write_block</text>
</a>
</g>
</g>
<!-- Node6&#45;&gt;Node7 -->
<g id="edge6" class="edge"><title>Node6&#45;&gt;Node7</title>
<path fill="none" stroke="midnightblue" d="M1155.73,-212C1164.43,-212 1173.22,-212 1181.83,-212"/>
<polygon fill="midnightblue" stroke="midnightblue" points="1155.59,-208.5 1145.59,-212 1155.59,-215.5 1155.59,-208.5"/>
</g>
<!-- Node8&#45;&gt;Node5 -->
<g id="edge12" class="edge"><title>Node8&#45;&gt;Node5</title>
<path fill="none" stroke="midnightblue" d="M740.278,-137.424C753.87,-143.177 769.128,-150.532 782,-159 800.133,-170.929 799.166,-181.211 818,-192 825.376,-196.226 833.745,-199.656 841.965,-202.405"/>
<polygon fill="midnightblue" stroke="midnightblue" points="741.314,-134.067 730.733,-133.526 738.667,-140.547 741.314,-134.067"/>
</g>
<!-- Node9 -->
<g id="node9" class="node"><title>Node9</title>
<g id="a_node9"><a xlink:href="$classAP__HAL__FLYMAPLE__NS_1_1FLYMAPLEStorage.html#a25a3355ea68af27fd28ec211b93ec2ca" xlink:title="AP_HAL_FLYMAPLE_NS\l::FLYMAPLEStorage::init">
<polygon fill="white" stroke="black" points="818.5,-153 818.5,-183 949.5,-183 949.5,-153 818.5,-153"/>
<text text-anchor="start" x="826.5" y="-171" font-family="Helvetica,sans-Serif" font-size="10.00">AP_HAL_FLYMAPLE_NS</text>
<text text-anchor="middle" x="884" y="-160" font-family="Helvetica,sans-Serif" font-size="10.00">::FLYMAPLEStorage::init</text>
</a>
</g>
</g>
<!-- Node8&#45;&gt;Node9 -->
<g id="edge8" class="edge"><title>Node8&#45;&gt;Node9</title>
<path fill="none" stroke="midnightblue" d="M752.635,-135.955C773.929,-141.189 799.152,-147.389 821.711,-152.935"/>
<polygon fill="midnightblue" stroke="midnightblue" points="753.387,-132.536 742.84,-133.547 751.716,-139.333 753.387,-132.536"/>
</g>
<!-- Node10 -->
<g id="node10" class="node"><title>Node10</title>
<g id="a_node10"><a xlink:href="$classEEPROMClass.html#aa2aa9b1e1f3f7ec3924aacc22e7de722" xlink:title="EEPROMClass::init">
<polygon fill="white" stroke="black" points="832,-114.5 832,-133.5 936,-133.5 936,-114.5 832,-114.5"/>
<text text-anchor="middle" x="884" y="-121.5" font-family="Helvetica,sans-Serif" font-size="10.00">EEPROMClass::init</text>
</a>
</g>
</g>
<!-- Node8&#45;&gt;Node10 -->
<g id="edge9" class="edge"><title>Node8&#45;&gt;Node10</title>
<path fill="none" stroke="midnightblue" d="M765.354,-124C786.962,-124 811.007,-124 831.698,-124"/>
<polygon fill="midnightblue" stroke="midnightblue" points="765.294,-120.5 755.294,-124 765.294,-127.5 765.294,-120.5"/>
</g>
<!-- Node11 -->
<g id="node11" class="node"><title>Node11</title>
<g id="a_node11"><a xlink:href="$classEEPROMClass.html#a7b4057d24e48bfad9b294d5acd9e7b56" xlink:title="Returns the erase counter for current page. ">
<polygon fill="white" stroke="black" points="823.5,-76.5 823.5,-95.5 944.5,-95.5 944.5,-76.5 823.5,-76.5"/>
<text text-anchor="middle" x="884" y="-83.5" font-family="Helvetica,sans-Serif" font-size="10.00">EEPROMClass::erases</text>
</a>
</g>
</g>
<!-- Node8&#45;&gt;Node11 -->
<g id="edge10" class="edge"><title>Node8&#45;&gt;Node11</title>
<path fill="none" stroke="midnightblue" d="M759.024,-112.319C784.408,-106.93 814.161,-100.614 838.156,-95.5201"/>
<polygon fill="midnightblue" stroke="midnightblue" points="758.224,-108.911 749.169,-114.411 759.678,-115.758 758.224,-108.911"/>
</g>
<!-- Node12 -->
<g id="node12" class="node"><title>Node12</title>
<g id="a_node12"><a xlink:href="$classEEPROMClass.html#a039849dd231854ce6b71bb558684d54e" xlink:title="Returns the last stored variable data, if found, which correspond to the passed virtual address...">
<polygon fill="white" stroke="black" points="829,-38.5 829,-57.5 939,-57.5 939,-38.5 829,-38.5"/>
<text text-anchor="middle" x="884" y="-45.5" font-family="Helvetica,sans-Serif" font-size="10.00">EEPROMClass::read</text>
</a>
</g>
</g>
<!-- Node8&#45;&gt;Node12 -->
<g id="edge11" class="edge"><title>Node8&#45;&gt;Node12</title>
<path fill="none" stroke="midnightblue" d="M729.936,-109.352C752.654,-96.9329 786.82,-79.238 818,-67 826.974,-63.4777 836.868,-60.2625 846.172,-57.519"/>
<polygon fill="midnightblue" stroke="midnightblue" points="728.003,-106.422 720.942,-114.321 731.388,-112.549 728.003,-106.422"/>
</g>
<!-- Node13 -->
<g id="node13" class="node"><title>Node13</title>
<g id="a_node13"><a xlink:href="$classEEPROMClass.html#a11daf35eb9821e9c9761533f555bb1ed" xlink:title="Return number of variable. ">
<polygon fill="white" stroke="black" points="826,-0.5 826,-19.5 942,-19.5 942,-0.5 826,-0.5"/>
<text text-anchor="middle" x="884" y="-7.5" font-family="Helvetica,sans-Serif" font-size="10.00">EEPROMClass::count</text>
</a>
</g>
</g>
<!-- Node8&#45;&gt;Node13 -->
<g id="edge13" class="edge"><title>Node8&#45;&gt;Node13</title>
<path fill="none" stroke="midnightblue" d="M719.808,-107.093C740.472,-85.9375 778.686,-49.9476 818,-29 825.056,-25.2406 832.949,-22.1378 840.738,-19.608"/>
<polygon fill="midnightblue" stroke="midnightblue" points="717.182,-104.775 712.781,-114.413 722.231,-109.622 717.182,-104.775"/>
</g>
<!-- Node14&#45;&gt;Node8 -->
<g id="edge15" class="edge"><title>Node14&#45;&gt;Node8</title>
<path fill="none" stroke="midnightblue" d="M572.662,-106.363C598.368,-109.868 627.095,-113.786 650.935,-117.037"/>
<polygon fill="midnightblue" stroke="midnightblue" points="572.984,-102.875 562.603,-104.991 572.038,-109.81 572.984,-102.875"/>
</g>
</g>
</svg>
