<?xml version="1.0" encoding="UTF-8" standalone="no"?>
<!DOCTYPE svg PUBLIC "-//W3C//DTD SVG 1.1//EN"
 "http://www.w3.org/Graphics/SVG/1.1/DTD/svg11.dtd">
<!-- Generated by graphviz version 2.36.0 (20140111.2315)
 -->
<!-- Title: Linux::LinuxScheduler::init Pages: 1 -->
<svg width="750pt" height="321pt"
 viewBox="0.00 0.00 750.00 321.00" xmlns="http://www.w3.org/2000/svg" xmlns:xlink="http://www.w3.org/1999/xlink">
<g id="graph0" class="graph" transform="scale(1 1) rotate(0) translate(4 317)">
<title>Linux::LinuxScheduler::init</title>
<polygon fill="white" stroke="none" points="-4,4 -4,-317 746,-317 746,4 -4,4"/>
<!-- Node1 -->
<g id="node1" class="node"><title>Node1</title>
<polygon fill="#bfbfbf" stroke="black" points="0.5,-160 0.5,-190 113.5,-190 113.5,-160 0.5,-160"/>
<text text-anchor="start" x="8.5" y="-178" font-family="Helvetica,sans-Serif" font-size="10.00">Linux::LinuxScheduler</text>
<text text-anchor="middle" x="57" y="-167" font-family="Helvetica,sans-Serif" font-size="10.00">::init</text>
</g>
<!-- Node2 -->
<g id="node2" class="node"><title>Node2</title>
<g id="a_node2"><a xlink:href="$classLinux_1_1LinuxScheduler.html#a85f014765f99e48c2e7f14563dfc9a00" xlink:title="Linux::LinuxScheduler\l::_timer_thread">
<polygon fill="white" stroke="black" points="157.5,-87 157.5,-117 270.5,-117 270.5,-87 157.5,-87"/>
<text text-anchor="start" x="165.5" y="-105" font-family="Helvetica,sans-Serif" font-size="10.00">Linux::LinuxScheduler</text>
<text text-anchor="middle" x="214" y="-94" font-family="Helvetica,sans-Serif" font-size="10.00">::_timer_thread</text>
</a>
</g>
</g>
<!-- Node1&#45;&gt;Node2 -->
<g id="edge1" class="edge"><title>Node1&#45;&gt;Node2</title>
<path fill="none" stroke="midnightblue" d="M84.1299,-159.953C102.308,-149.767 127.266,-136.335 150,-126 153.836,-124.256 157.839,-122.528 161.886,-120.846"/>
<polygon fill="midnightblue" stroke="midnightblue" points="163.392,-124.012 171.351,-117.019 160.768,-117.523 163.392,-124.012"/>
</g>
<!-- Node12 -->
<g id="node12" class="node"><title>Node12</title>
<g id="a_node12"><a xlink:href="$classLinux_1_1LinuxScheduler.html#a9411b1b52ba34479f5ecad4ef8687d6a" xlink:title="Linux::LinuxScheduler\l::_uart_thread">
<polygon fill="white" stroke="black" points="157.5,-234 157.5,-264 270.5,-264 270.5,-234 157.5,-234"/>
<text text-anchor="start" x="165.5" y="-252" font-family="Helvetica,sans-Serif" font-size="10.00">Linux::LinuxScheduler</text>
<text text-anchor="middle" x="214" y="-241" font-family="Helvetica,sans-Serif" font-size="10.00">::_uart_thread</text>
</a>
</g>
</g>
<!-- Node1&#45;&gt;Node12 -->
<g id="edge11" class="edge"><title>Node1&#45;&gt;Node12</title>
<path fill="none" stroke="midnightblue" d="M84.5723,-190.168C102.736,-200.283 127.502,-213.584 150,-224 154.375,-226.025 158.963,-228.043 163.584,-230.003"/>
<polygon fill="midnightblue" stroke="midnightblue" points="162.48,-233.334 173.058,-233.93 165.16,-226.867 162.48,-233.334"/>
</g>
<!-- Node13 -->
<g id="node13" class="node"><title>Node13</title>
<g id="a_node13"><a xlink:href="$classLinux_1_1LinuxScheduler.html#aca4c1781ac226dd44f8df03a498e8bbc" xlink:title="Linux::LinuxScheduler\l::_rcin_thread">
<polygon fill="white" stroke="black" points="157.5,-185 157.5,-215 270.5,-215 270.5,-185 157.5,-185"/>
<text text-anchor="start" x="165.5" y="-203" font-family="Helvetica,sans-Serif" font-size="10.00">Linux::LinuxScheduler</text>
<text text-anchor="middle" x="214" y="-192" font-family="Helvetica,sans-Serif" font-size="10.00">::_rcin_thread</text>
</a>
</g>
</g>
<!-- Node1&#45;&gt;Node13 -->
<g id="edge14" class="edge"><title>Node1&#45;&gt;Node13</title>
<path fill="none" stroke="midnightblue" d="M113.521,-183.955C124.428,-185.714 135.968,-187.576 147.175,-189.383"/>
<polygon fill="midnightblue" stroke="midnightblue" points="146.916,-192.886 157.346,-191.024 148.031,-185.976 146.916,-192.886"/>
</g>
<!-- Node14 -->
<g id="node14" class="node"><title>Node14</title>
<g id="a_node14"><a xlink:href="$classLinux_1_1LinuxScheduler.html#a059307cc2d5424aa7d80381ecfaec830" xlink:title="Linux::LinuxScheduler\l::_tonealarm_thread">
<polygon fill="white" stroke="black" points="157.5,-136 157.5,-166 270.5,-166 270.5,-136 157.5,-136"/>
<text text-anchor="start" x="165.5" y="-154" font-family="Helvetica,sans-Serif" font-size="10.00">Linux::LinuxScheduler</text>
<text text-anchor="middle" x="214" y="-143" font-family="Helvetica,sans-Serif" font-size="10.00">::_tonealarm_thread</text>
</a>
</g>
</g>
<!-- Node1&#45;&gt;Node14 -->
<g id="edge17" class="edge"><title>Node1&#45;&gt;Node14</title>
<path fill="none" stroke="midnightblue" d="M113.521,-166.403C124.428,-164.714 135.968,-162.927 147.175,-161.192"/>
<polygon fill="midnightblue" stroke="midnightblue" points="147.999,-164.606 157.346,-159.617 146.928,-157.689 147.999,-164.606"/>
</g>
<!-- Node15 -->
<g id="node15" class="node"><title>Node15</title>
<g id="a_node15"><a xlink:href="$classLinux_1_1LinuxScheduler.html#a1df8eefe812e9771393d66dac35e0d1c" xlink:title="Linux::LinuxScheduler\l::_io_thread">
<polygon fill="white" stroke="black" points="157.5,-283 157.5,-313 270.5,-313 270.5,-283 157.5,-283"/>
<text text-anchor="start" x="165.5" y="-301" font-family="Helvetica,sans-Serif" font-size="10.00">Linux::LinuxScheduler</text>
<text text-anchor="middle" x="214" y="-290" font-family="Helvetica,sans-Serif" font-size="10.00">::_io_thread</text>
</a>
</g>
</g>
<!-- Node1&#45;&gt;Node15 -->
<g id="edge20" class="edge"><title>Node1&#45;&gt;Node15</title>
<path fill="none" stroke="midnightblue" d="M68.8526,-190.242C84.5928,-211.383 115.655,-249.636 150,-273 152.724,-274.853 155.606,-276.6 158.579,-278.242"/>
<polygon fill="midnightblue" stroke="midnightblue" points="157.198,-281.465 167.701,-282.852 160.355,-275.218 157.198,-281.465"/>
</g>
<!-- Node17 -->
<g id="node17" class="node"><title>Node17</title>
<g id="a_node17"><a xlink:href="$classLinux_1_1LinuxScheduler.html#a19b16f9b871684e8c64d69bb94ad7a5f" xlink:title="Linux::LinuxScheduler\l::_create_realtime_thread">
<polygon fill="white" stroke="black" points="150.5,-38 150.5,-68 277.5,-68 277.5,-38 150.5,-38"/>
<text text-anchor="start" x="158.5" y="-56" font-family="Helvetica,sans-Serif" font-size="10.00">Linux::LinuxScheduler</text>
<text text-anchor="middle" x="214" y="-45" font-family="Helvetica,sans-Serif" font-size="10.00">::_create_realtime_thread</text>
</a>
</g>
</g>
<!-- Node1&#45;&gt;Node17 -->
<g id="edge26" class="edge"><title>Node1&#45;&gt;Node17</title>
<path fill="none" stroke="midnightblue" d="M68.808,-159.692C84.4951,-138.472 115.495,-100.127 150,-77 152.247,-75.4941 154.601,-74.0645 157.026,-72.7097"/>
<polygon fill="midnightblue" stroke="midnightblue" points="158.713,-75.7783 166.044,-68.1286 155.543,-69.5374 158.713,-75.7783"/>
</g>
<!-- Node3 -->
<g id="node3" class="node"><title>Node3</title>
<g id="a_node3"><a xlink:href="$classLinux_1_1LinuxScheduler.html#acf4c1f7a42bd83c072bb166aa2c6ebf6" xlink:title="Linux::LinuxScheduler\l::system_initializing">
<polygon fill="white" stroke="black" points="315.5,-185 315.5,-215 428.5,-215 428.5,-185 315.5,-185"/>
<text text-anchor="start" x="323.5" y="-203" font-family="Helvetica,sans-Serif" font-size="10.00">Linux::LinuxScheduler</text>
<text text-anchor="middle" x="372" y="-192" font-family="Helvetica,sans-Serif" font-size="10.00">::system_initializing</text>
</a>
</g>
</g>
<!-- Node2&#45;&gt;Node3 -->
<g id="edge2" class="edge"><title>Node2&#45;&gt;Node3</title>
<path fill="none" stroke="midnightblue" d="M263.332,-117.047C268.521,-119.627 273.53,-122.597 278,-126 299.504,-142.367 292.907,-158.108 314,-175 316.066,-176.655 318.259,-178.222 320.536,-179.703"/>
<polygon fill="midnightblue" stroke="midnightblue" points="319.233,-182.994 329.638,-184.992 322.75,-176.941 319.233,-182.994"/>
</g>
<!-- Node4 -->
<g id="node4" class="node"><title>Node4</title>
<g id="a_node4"><a xlink:href="$classLinux_1_1LinuxScheduler.html#a65db143a95c6cc281a8c5c01a7afbf5d" xlink:title="Linux::LinuxScheduler\l::micros64">
<polygon fill="white" stroke="black" points="315.5,-136 315.5,-166 428.5,-166 428.5,-136 315.5,-136"/>
<text text-anchor="start" x="323.5" y="-154" font-family="Helvetica,sans-Serif" font-size="10.00">Linux::LinuxScheduler</text>
<text text-anchor="middle" x="372" y="-143" font-family="Helvetica,sans-Serif" font-size="10.00">::micros64</text>
</a>
</g>
</g>
<!-- Node2&#45;&gt;Node4 -->
<g id="edge3" class="edge"><title>Node2&#45;&gt;Node4</title>
<path fill="none" stroke="midnightblue" d="M263.078,-117.101C279.018,-122.108 296.924,-127.732 313.5,-132.939"/>
<polygon fill="midnightblue" stroke="midnightblue" points="312.491,-136.291 323.081,-135.948 314.589,-129.613 312.491,-136.291"/>
</g>
<!-- Node5 -->
<g id="node5" class="node"><title>Node5</title>
<g id="a_node5"><a xlink:href="$classLinux_1_1LinuxScheduler.html#ab0d73f88e3e8c93b6d389921b52b5257" xlink:title="Linux::LinuxScheduler\l::_microsleep">
<polygon fill="white" stroke="black" points="315.5,-234 315.5,-264 428.5,-264 428.5,-234 315.5,-234"/>
<text text-anchor="start" x="323.5" y="-252" font-family="Helvetica,sans-Serif" font-size="10.00">Linux::LinuxScheduler</text>
<text text-anchor="middle" x="372" y="-241" font-family="Helvetica,sans-Serif" font-size="10.00">::_microsleep</text>
</a>
</g>
</g>
<!-- Node2&#45;&gt;Node5 -->
<g id="edge4" class="edge"><title>Node2&#45;&gt;Node5</title>
<path fill="none" stroke="midnightblue" d="M266.533,-117.128C270.719,-119.651 274.627,-122.587 278,-126 310.614,-159.006 282.21,-190.199 314,-224 315.36,-225.446 316.819,-226.814 318.355,-228.106"/>
<polygon fill="midnightblue" stroke="midnightblue" points="316.404,-231.014 326.581,-233.962 320.464,-225.312 316.404,-231.014"/>
</g>
<!-- Node6 -->
<g id="node6" class="node"><title>Node6</title>
<g id="a_node6"><a xlink:href="$classLinux_1_1LinuxScheduler.html#ab6c47de85c733b200bd687a4be4235f2" xlink:title="Linux::LinuxScheduler\l::_run_timers">
<polygon fill="white" stroke="black" points="315.5,-87 315.5,-117 428.5,-117 428.5,-87 315.5,-87"/>
<text text-anchor="start" x="323.5" y="-105" font-family="Helvetica,sans-Serif" font-size="10.00">Linux::LinuxScheduler</text>
<text text-anchor="middle" x="372" y="-94" font-family="Helvetica,sans-Serif" font-size="10.00">::_run_timers</text>
</a>
</g>
</g>
<!-- Node2&#45;&gt;Node6 -->
<g id="edge5" class="edge"><title>Node2&#45;&gt;Node6</title>
<path fill="none" stroke="midnightblue" d="M270.879,-102C281.923,-102 293.613,-102 304.957,-102"/>
<polygon fill="midnightblue" stroke="midnightblue" points="305.249,-105.5 315.249,-102 305.249,-98.5001 305.249,-105.5"/>
</g>
<!-- Node7 -->
<g id="node7" class="node"><title>Node7</title>
<g id="a_node7"><a xlink:href="$classLinux_1_1LinuxSemaphore.html#aeb67a6316045bb520884a0e1518faf60" xlink:title="Linux::LinuxSemaphore\l::take">
<polygon fill="white" stroke="black" points="466.5,-87 466.5,-117 585.5,-117 585.5,-87 466.5,-87"/>
<text text-anchor="start" x="474.5" y="-105" font-family="Helvetica,sans-Serif" font-size="10.00">Linux::LinuxSemaphore</text>
<text text-anchor="middle" x="526" y="-94" font-family="Helvetica,sans-Serif" font-size="10.00">::take</text>
</a>
</g>
</g>
<!-- Node6&#45;&gt;Node7 -->
<g id="edge6" class="edge"><title>Node6&#45;&gt;Node7</title>
<path fill="none" stroke="midnightblue" d="M428.736,-102C437.662,-102 446.991,-102 456.178,-102"/>
<polygon fill="midnightblue" stroke="midnightblue" points="456.462,-105.5 466.462,-102 456.462,-98.5001 456.462,-105.5"/>
</g>
<!-- Node11 -->
<g id="node11" class="node"><title>Node11</title>
<g id="a_node11"><a xlink:href="$classLinux_1_1LinuxSemaphore.html#aace5e39da9e309e2ffbd3fabff4e52e1" xlink:title="Linux::LinuxSemaphore\l::give">
<polygon fill="white" stroke="black" points="466.5,-209 466.5,-239 585.5,-239 585.5,-209 466.5,-209"/>
<text text-anchor="start" x="474.5" y="-227" font-family="Helvetica,sans-Serif" font-size="10.00">Linux::LinuxSemaphore</text>
<text text-anchor="middle" x="526" y="-216" font-family="Helvetica,sans-Serif" font-size="10.00">::give</text>
</a>
</g>
</g>
<!-- Node6&#45;&gt;Node11 -->
<g id="edge10" class="edge"><title>Node6&#45;&gt;Node11</title>
<path fill="none" stroke="midnightblue" d="M414.521,-117.134C419.91,-119.768 425.214,-122.727 430,-126 460.738,-147.017 489.535,-179.157 507.192,-200.846"/>
<polygon fill="midnightblue" stroke="midnightblue" points="504.636,-203.254 513.613,-208.881 510.104,-198.884 504.636,-203.254"/>
</g>
<!-- Node8 -->
<g id="node8" class="node"><title>Node8</title>
<g id="a_node8"><a xlink:href="$classLinux_1_1LinuxSemaphore.html#a95fab6c6751022e98592f3d2f1a031e2" xlink:title="Linux::LinuxSemaphore\l::take_nonblocking">
<polygon fill="white" stroke="black" points="622.5,-65 622.5,-95 741.5,-95 741.5,-65 622.5,-65"/>
<text text-anchor="start" x="630.5" y="-83" font-family="Helvetica,sans-Serif" font-size="10.00">Linux::LinuxSemaphore</text>
<text text-anchor="middle" x="682" y="-72" font-family="Helvetica,sans-Serif" font-size="10.00">::take_nonblocking</text>
</a>
</g>
</g>
<!-- Node7&#45;&gt;Node8 -->
<g id="edge7" class="edge"><title>Node7&#45;&gt;Node8</title>
<path fill="none" stroke="midnightblue" d="M585.66,-93.62C594.368,-92.376 603.408,-91.0845 612.299,-89.8144"/>
<polygon fill="midnightblue" stroke="midnightblue" points="612.844,-93.2723 622.248,-88.3931 611.854,-86.3426 612.844,-93.2723"/>
</g>
<!-- Node9 -->
<g id="node9" class="node"><title>Node9</title>
<g id="a_node9"><a xlink:href="$classAP__HAL_1_1Scheduler.html#acfe178fdca7f8d9b22a939b3aac1a84f" xlink:title="AP_HAL::Scheduler::\lmicros64">
<polygon fill="white" stroke="black" points="627,-114 627,-144 737,-144 737,-114 627,-114"/>
<text text-anchor="start" x="635" y="-132" font-family="Helvetica,sans-Serif" font-size="10.00">AP_HAL::Scheduler::</text>
<text text-anchor="middle" x="682" y="-121" font-family="Helvetica,sans-Serif" font-size="10.00">micros64</text>
</a>
</g>
</g>
<!-- Node7&#45;&gt;Node9 -->
<g id="edge8" class="edge"><title>Node7&#45;&gt;Node9</title>
<path fill="none" stroke="midnightblue" d="M585.66,-112.285C595.796,-114.062 606.383,-115.918 616.66,-117.72"/>
<polygon fill="midnightblue" stroke="midnightblue" points="616.352,-121.219 626.806,-119.498 617.561,-114.324 616.352,-121.219"/>
</g>
<!-- Node10 -->
<g id="node10" class="node"><title>Node10</title>
<g id="a_node10"><a xlink:href="$classAP__HAL_1_1Scheduler.html#a78c4f1b1f192ac1c99544b6cc8f099b0" xlink:title="AP_HAL::Scheduler::\ldelay_microseconds">
<polygon fill="white" stroke="black" points="627,-5 627,-35 737,-35 737,-5 627,-5"/>
<text text-anchor="start" x="635" y="-23" font-family="Helvetica,sans-Serif" font-size="10.00">AP_HAL::Scheduler::</text>
<text text-anchor="middle" x="682" y="-12" font-family="Helvetica,sans-Serif" font-size="10.00">delay_microseconds</text>
</a>
</g>
</g>
<!-- Node7&#45;&gt;Node10 -->
<g id="edge9" class="edge"><title>Node7&#45;&gt;Node10</title>
<path fill="none" stroke="midnightblue" d="M555.246,-86.9599C580.132,-73.7087 616.561,-54.3114 643.813,-39.801"/>
<polygon fill="midnightblue" stroke="midnightblue" points="645.491,-42.8727 652.673,-35.0833 642.201,-36.694 645.491,-42.8727"/>
</g>
<!-- Node12&#45;&gt;Node3 -->
<g id="edge12" class="edge"><title>Node12&#45;&gt;Node3</title>
<path fill="none" stroke="midnightblue" d="M263.078,-233.899C279.018,-228.892 296.924,-223.268 313.5,-218.061"/>
<polygon fill="midnightblue" stroke="midnightblue" points="314.589,-221.387 323.081,-215.052 312.491,-214.709 314.589,-221.387"/>
</g>
<!-- Node12&#45;&gt;Node5 -->
<g id="edge13" class="edge"><title>Node12&#45;&gt;Node5</title>
<path fill="none" stroke="midnightblue" d="M270.879,-249C281.923,-249 293.613,-249 304.957,-249"/>
<polygon fill="midnightblue" stroke="midnightblue" points="305.249,-252.5 315.249,-249 305.249,-245.5 305.249,-252.5"/>
</g>
<!-- Node13&#45;&gt;Node3 -->
<g id="edge15" class="edge"><title>Node13&#45;&gt;Node3</title>
<path fill="none" stroke="midnightblue" d="M270.879,-200C281.923,-200 293.613,-200 304.957,-200"/>
<polygon fill="midnightblue" stroke="midnightblue" points="305.249,-203.5 315.249,-200 305.249,-196.5 305.249,-203.5"/>
</g>
<!-- Node13&#45;&gt;Node5 -->
<g id="edge16" class="edge"><title>Node13&#45;&gt;Node5</title>
<path fill="none" stroke="midnightblue" d="M263.078,-215.101C279.018,-220.108 296.924,-225.732 313.5,-230.939"/>
<polygon fill="midnightblue" stroke="midnightblue" points="312.491,-234.291 323.081,-233.948 314.589,-227.613 312.491,-234.291"/>
</g>
<!-- Node14&#45;&gt;Node3 -->
<g id="edge18" class="edge"><title>Node14&#45;&gt;Node3</title>
<path fill="none" stroke="midnightblue" d="M263.078,-166.101C279.018,-171.108 296.924,-176.732 313.5,-181.939"/>
<polygon fill="midnightblue" stroke="midnightblue" points="312.491,-185.291 323.081,-184.948 314.589,-178.613 312.491,-185.291"/>
</g>
<!-- Node14&#45;&gt;Node5 -->
<g id="edge19" class="edge"><title>Node14&#45;&gt;Node5</title>
<path fill="none" stroke="midnightblue" d="M263.332,-166.047C268.521,-168.627 273.53,-171.597 278,-175 299.504,-191.367 292.907,-207.108 314,-224 316.066,-225.655 318.259,-227.222 320.536,-228.703"/>
<polygon fill="midnightblue" stroke="midnightblue" points="319.233,-231.994 329.638,-233.992 322.75,-225.941 319.233,-231.994"/>
</g>
<!-- Node15&#45;&gt;Node3 -->
<g id="edge21" class="edge"><title>Node15&#45;&gt;Node3</title>
<path fill="none" stroke="midnightblue" d="M261.705,-282.961C267.471,-280.116 273.063,-276.811 278,-273 299.39,-256.486 292.782,-240.736 314,-224 315.581,-222.753 317.236,-221.56 318.945,-220.42"/>
<polygon fill="midnightblue" stroke="midnightblue" points="321.033,-223.252 327.862,-215.152 317.472,-217.225 321.033,-223.252"/>
</g>
<!-- Node15&#45;&gt;Node5 -->
<g id="edge22" class="edge"><title>Node15&#45;&gt;Node5</title>
<path fill="none" stroke="midnightblue" d="M263.078,-282.899C279.018,-277.892 296.924,-272.268 313.5,-267.061"/>
<polygon fill="midnightblue" stroke="midnightblue" points="314.589,-270.387 323.081,-264.052 312.491,-263.709 314.589,-270.387"/>
</g>
<!-- Node16 -->
<g id="node16" class="node"><title>Node16</title>
<g id="a_node16"><a xlink:href="$classLinux_1_1LinuxScheduler.html#a8ce627229b5357fc187d2829a551d8a5" xlink:title="Linux::LinuxScheduler\l::_run_io">
<polygon fill="white" stroke="black" points="315.5,-283 315.5,-313 428.5,-313 428.5,-283 315.5,-283"/>
<text text-anchor="start" x="323.5" y="-301" font-family="Helvetica,sans-Serif" font-size="10.00">Linux::LinuxScheduler</text>
<text text-anchor="middle" x="372" y="-290" font-family="Helvetica,sans-Serif" font-size="10.00">::_run_io</text>
</a>
</g>
</g>
<!-- Node15&#45;&gt;Node16 -->
<g id="edge23" class="edge"><title>Node15&#45;&gt;Node16</title>
<path fill="none" stroke="midnightblue" d="M270.879,-298C281.923,-298 293.613,-298 304.957,-298"/>
<polygon fill="midnightblue" stroke="midnightblue" points="305.249,-301.5 315.249,-298 305.249,-294.5 305.249,-301.5"/>
</g>
<!-- Node16&#45;&gt;Node7 -->
<g id="edge24" class="edge"><title>Node16&#45;&gt;Node7</title>
<path fill="none" stroke="midnightblue" d="M416.472,-282.929C421.375,-280.109 426.027,-276.819 430,-273 456.367,-247.653 448.478,-231.104 466,-199 479.94,-173.459 497.422,-145.12 509.725,-125.703"/>
<polygon fill="midnightblue" stroke="midnightblue" points="512.724,-127.509 515.147,-117.195 506.821,-123.747 512.724,-127.509"/>
</g>
<!-- Node16&#45;&gt;Node11 -->
<g id="edge25" class="edge"><title>Node16&#45;&gt;Node11</title>
<path fill="none" stroke="midnightblue" d="M408.428,-282.874C415.606,-279.694 423.074,-276.301 430,-273 449.223,-263.838 470.301,-253.044 487.708,-243.923"/>
<polygon fill="midnightblue" stroke="midnightblue" points="489.748,-246.804 496.965,-239.048 486.486,-240.61 489.748,-246.804"/>
</g>
<!-- Node18 -->
<g id="node18" class="node"><title>Node18</title>
<g id="a_node18"><a xlink:href="$classAP__HAL_1_1UARTDriver.html#a4b1ae6fcec3dfe651d08faf589f4ad6d" xlink:title="AP_HAL::UARTDriver\l::printf">
<polygon fill="white" stroke="black" points="314.5,-38 314.5,-68 429.5,-68 429.5,-38 314.5,-38"/>
<text text-anchor="start" x="322.5" y="-56" font-family="Helvetica,sans-Serif" font-size="10.00">AP_HAL::UARTDriver</text>
<text text-anchor="middle" x="372" y="-45" font-family="Helvetica,sans-Serif" font-size="10.00">::printf</text>
</a>
</g>
</g>
<!-- Node17&#45;&gt;Node18 -->
<g id="edge27" class="edge"><title>Node17&#45;&gt;Node18</title>
<path fill="none" stroke="midnightblue" d="M277.552,-53C286.326,-53 295.371,-53 304.219,-53"/>
<polygon fill="midnightblue" stroke="midnightblue" points="304.487,-56.5001 314.487,-53 304.487,-49.5001 304.487,-56.5001"/>
</g>
<!-- Node19 -->
<g id="node19" class="node"><title>Node19</title>
<g id="a_node19"><a xlink:href="$classLinux_1_1LinuxScheduler.html#a4cad7ecdf1bc3bbe8969aab017b964f8" xlink:title="Linux::LinuxScheduler\l::panic">
<polygon fill="white" stroke="black" points="469.5,-0 469.5,-30 582.5,-30 582.5,-0 469.5,-0"/>
<text text-anchor="start" x="477.5" y="-18" font-family="Helvetica,sans-Serif" font-size="10.00">Linux::LinuxScheduler</text>
<text text-anchor="middle" x="526" y="-7" font-family="Helvetica,sans-Serif" font-size="10.00">::panic</text>
</a>
</g>
</g>
<!-- Node17&#45;&gt;Node19 -->
<g id="edge28" class="edge"><title>Node17&#45;&gt;Node19</title>
<path fill="none" stroke="midnightblue" d="M266.777,-37.997C281.883,-34.1459 298.498,-30.4134 314,-28 362.243,-20.4893 417.325,-17.274 459.111,-15.9181"/>
<polygon fill="midnightblue" stroke="midnightblue" points="459.273,-19.4149 469.164,-15.6192 459.065,-12.418 459.273,-19.4149"/>
</g>
<!-- Node19&#45;&gt;Node10 -->
<g id="edge29" class="edge"><title>Node19&#45;&gt;Node10</title>
<path fill="none" stroke="midnightblue" d="M582.598,-16.8051C593.613,-17.1628 605.264,-17.541 616.545,-17.9073"/>
<polygon fill="midnightblue" stroke="midnightblue" points="616.665,-21.4129 626.773,-18.2394 616.892,-14.4166 616.665,-21.4129"/>
</g>
</g>
</svg>
