<?xml version="1.0" encoding="UTF-8" standalone="no"?>
<!DOCTYPE svg PUBLIC "-//W3C//DTD SVG 1.1//EN"
 "http://www.w3.org/Graphics/SVG/1.1/DTD/svg11.dtd">
<!-- Generated by graphviz version 2.36.0 (20140111.2315)
 -->
<!-- Title: AP_Compass_PX4::detect Pages: 1 -->
<svg width="514pt" height="28pt"
 viewBox="0.00 0.00 514.00 28.00" xmlns="http://www.w3.org/2000/svg" xmlns:xlink="http://www.w3.org/1999/xlink">
<g id="graph0" class="graph" transform="scale(1 1) rotate(0) translate(4 24)">
<title>AP_Compass_PX4::detect</title>
<polygon fill="white" stroke="none" points="-4,4 -4,-24 510,-24 510,4 -4,4"/>
<!-- Node1 -->
<g id="node1" class="node"><title>Node1</title>
<polygon fill="#bfbfbf" stroke="black" points="0,-0.5 0,-19.5 134,-19.5 134,-0.5 0,-0.5"/>
<text text-anchor="middle" x="67" y="-7.5" font-family="Helvetica,sans-Serif" font-size="10.00">AP_Compass_PX4::detect</text>
</g>
<!-- Node2 -->
<g id="node2" class="node"><title>Node2</title>
<g id="a_node2"><a xlink:href="$classCompass.html#a1c48170d8c8966b22fb150b1634443ec" xlink:title="Compass::_detect_backends">
<polygon fill="white" stroke="black" points="170,-0.5 170,-19.5 314,-19.5 314,-0.5 170,-0.5"/>
<text text-anchor="middle" x="242" y="-7.5" font-family="Helvetica,sans-Serif" font-size="10.00">Compass::_detect_backends</text>
</a>
</g>
</g>
<!-- Node1&#45;&gt;Node2 -->
<g id="edge1" class="edge"><title>Node1&#45;&gt;Node2</title>
<path fill="none" stroke="midnightblue" d="M144.579,-10C153.001,-10 161.55,-10 169.901,-10"/>
<polygon fill="midnightblue" stroke="midnightblue" points="144.392,-6.5001 134.392,-10 144.392,-13.5001 144.392,-6.5001"/>
</g>
<!-- Node3 -->
<g id="node3" class="node"><title>Node3</title>
<g id="a_node3"><a xlink:href="$classCompass.html#a190aefc281aba88c7b16e4fc58035c5e" xlink:title="Compass::init">
<polygon fill="white" stroke="black" points="350.5,-0.5 350.5,-19.5 427.5,-19.5 427.5,-0.5 350.5,-0.5"/>
<text text-anchor="middle" x="389" y="-7.5" font-family="Helvetica,sans-Serif" font-size="10.00">Compass::init</text>
</a>
</g>
</g>
<!-- Node2&#45;&gt;Node3 -->
<g id="edge2" class="edge"><title>Node2&#45;&gt;Node3</title>
<path fill="none" stroke="midnightblue" d="M324.43,-10C333.424,-10 342.232,-10 350.289,-10"/>
<polygon fill="midnightblue" stroke="midnightblue" points="324.226,-6.5001 314.226,-10 324.226,-13.5001 324.226,-6.5001"/>
</g>
<!-- Node4 -->
<g id="node4" class="node"><title>Node4</title>
<g id="a_node4"><a xlink:href="$AHRS__Test_8pde.html#a7dfd9b79bc5a37d7df40207afbc5431f" xlink:title="setup">
<polygon fill="white" stroke="black" points="464.5,-0.5 464.5,-19.5 505.5,-19.5 505.5,-0.5 464.5,-0.5"/>
<text text-anchor="middle" x="485" y="-7.5" font-family="Helvetica,sans-Serif" font-size="10.00">setup</text>
</a>
</g>
</g>
<!-- Node3&#45;&gt;Node4 -->
<g id="edge3" class="edge"><title>Node3&#45;&gt;Node4</title>
<path fill="none" stroke="midnightblue" d="M437.829,-10C447.221,-10 456.569,-10 464.371,-10"/>
<polygon fill="midnightblue" stroke="midnightblue" points="437.692,-6.5001 427.692,-10 437.692,-13.5001 437.692,-6.5001"/>
</g>
</g>
</svg>
