<?xml version="1.0" encoding="UTF-8" standalone="no"?>
<!DOCTYPE svg PUBLIC "-//W3C//DTD SVG 1.1//EN"
 "http://www.w3.org/Graphics/SVG/1.1/DTD/svg11.dtd">
<!-- Generated by graphviz version 2.36.0 (20140111.2315)
 -->
<!-- Title: PX4::PX4Storage::_storage_open Pages: 1 -->
<svg width="330pt" height="87pt"
 viewBox="0.00 0.00 330.00 87.00" xmlns="http://www.w3.org/2000/svg" xmlns:xlink="http://www.w3.org/1999/xlink">
<g id="graph0" class="graph" transform="scale(1 1) rotate(0) translate(4 83)">
<title>PX4::PX4Storage::_storage_open</title>
<polygon fill="white" stroke="none" points="-4,4 -4,-83 326,-83 326,4 -4,4"/>
<!-- Node1 -->
<g id="node1" class="node"><title>Node1</title>
<polygon fill="#bfbfbf" stroke="black" points="0,-29.5 0,-48.5 164,-48.5 164,-29.5 0,-29.5"/>
<text text-anchor="middle" x="82" y="-36.5" font-family="Helvetica,sans-Serif" font-size="10.00">PX4::PX4Storage::_storage_open</text>
</g>
<!-- Node2 -->
<g id="node2" class="node"><title>Node2</title>
<g id="a_node2"><a xlink:href="$classPX4_1_1PX4Storage.html#a905f7ce49985c0670a8f05e196e18c1f" xlink:title="PX4::PX4Storage::read\l_block">
<polygon fill="white" stroke="black" points="201.5,-49 201.5,-79 320.5,-79 320.5,-49 201.5,-49"/>
<text text-anchor="start" x="209.5" y="-67" font-family="Helvetica,sans-Serif" font-size="10.00">PX4::PX4Storage::read</text>
<text text-anchor="middle" x="261" y="-56" font-family="Helvetica,sans-Serif" font-size="10.00">_block</text>
</a>
</g>
</g>
<!-- Node1&#45;&gt;Node2 -->
<g id="edge1" class="edge"><title>Node1&#45;&gt;Node2</title>
<path fill="none" stroke="midnightblue" d="M160.371,-49.928C174.15,-51.8743 188.296,-53.8723 201.442,-55.7291"/>
<polygon fill="midnightblue" stroke="midnightblue" points="160.812,-46.4558 150.421,-48.5227 159.833,-53.387 160.812,-46.4558"/>
</g>
<!-- Node3 -->
<g id="node3" class="node"><title>Node3</title>
<g id="a_node3"><a xlink:href="$classPX4_1_1PX4Storage.html#aae27b43fbe4428f430fad9f8d035a67f" xlink:title="PX4::PX4Storage::write\l_block">
<polygon fill="white" stroke="black" points="200.5,-0 200.5,-30 321.5,-30 321.5,-0 200.5,-0"/>
<text text-anchor="start" x="208.5" y="-18" font-family="Helvetica,sans-Serif" font-size="10.00">PX4::PX4Storage::write</text>
<text text-anchor="middle" x="261" y="-7" font-family="Helvetica,sans-Serif" font-size="10.00">_block</text>
</a>
</g>
</g>
<!-- Node1&#45;&gt;Node3 -->
<g id="edge2" class="edge"><title>Node1&#45;&gt;Node3</title>
<path fill="none" stroke="midnightblue" d="M163.191,-28.1267C175.721,-26.4277 188.475,-24.6982 200.437,-23.0763"/>
<polygon fill="midnightblue" stroke="midnightblue" points="162.648,-24.6681 153.209,-29.4801 163.589,-31.6046 162.648,-24.6681"/>
</g>
</g>
</svg>
