<?xml version="1.0" encoding="UTF-8" standalone="no"?>
<!DOCTYPE svg PUBLIC "-//W3C//DTD SVG 1.1//EN"
 "http://www.w3.org/Graphics/SVG/1.1/DTD/svg11.dtd">
<!-- Generated by graphviz version 2.36.0 (20140111.2315)
 -->
<!-- Title: DataFlash_Block::find_last_page_of_log Pages: 1 -->
<svg width="480pt" height="116pt"
 viewBox="0.00 0.00 480.00 116.00" xmlns="http://www.w3.org/2000/svg" xmlns:xlink="http://www.w3.org/1999/xlink">
<g id="graph0" class="graph" transform="scale(1 1) rotate(0) translate(4 112)">
<title>DataFlash_Block::find_last_page_of_log</title>
<polygon fill="white" stroke="none" points="-4,4 -4,-112 476,-112 476,4 -4,4"/>
<!-- Node1 -->
<g id="node1" class="node"><title>Node1</title>
<polygon fill="#bfbfbf" stroke="black" points="0.5,-39 0.5,-69 113.5,-69 113.5,-39 0.5,-39"/>
<text text-anchor="start" x="8.5" y="-57" font-family="Helvetica,sans-Serif" font-size="10.00">DataFlash_Block::find</text>
<text text-anchor="middle" x="57" y="-46" font-family="Helvetica,sans-Serif" font-size="10.00">_last_page_of_log</text>
</g>
<!-- Node2 -->
<g id="node2" class="node"><title>Node2</title>
<g id="a_node2"><a xlink:href="$classDataFlash__Block.html#a3367c846e32366ff58ddebbf025e42d7" xlink:title="DataFlash_Block::get\l_log_boundaries">
<polygon fill="white" stroke="black" points="150.5,-39 150.5,-69 261.5,-69 261.5,-39 150.5,-39"/>
<text text-anchor="start" x="158.5" y="-57" font-family="Helvetica,sans-Serif" font-size="10.00">DataFlash_Block::get</text>
<text text-anchor="middle" x="206" y="-46" font-family="Helvetica,sans-Serif" font-size="10.00">_log_boundaries</text>
</a>
</g>
</g>
<!-- Node1&#45;&gt;Node2 -->
<g id="edge1" class="edge"><title>Node1&#45;&gt;Node2</title>
<path fill="none" stroke="midnightblue" d="M123.858,-54C132.703,-54 141.698,-54 150.321,-54"/>
<polygon fill="midnightblue" stroke="midnightblue" points="123.574,-50.5001 113.574,-54 123.574,-57.5001 123.574,-50.5001"/>
</g>
<!-- Node3 -->
<g id="node3" class="node"><title>Node3</title>
<g id="a_node3"><a xlink:href="$DataFlash__test_8pde.html#afe461d27b9c48d5921c00d521181f12f" xlink:title="loop">
<polygon fill="white" stroke="black" points="367.5,-88.5 367.5,-107.5 402.5,-107.5 402.5,-88.5 367.5,-88.5"/>
<text text-anchor="middle" x="385" y="-95.5" font-family="Helvetica,sans-Serif" font-size="10.00">loop</text>
</a>
</g>
</g>
<!-- Node2&#45;&gt;Node3 -->
<g id="edge2" class="edge"><title>Node2&#45;&gt;Node3</title>
<path fill="none" stroke="midnightblue" d="M271.681,-71.3086C280.515,-73.5993 289.474,-75.8847 298,-78 322.102,-83.9795 350.139,-90.4003 367.479,-94.3093"/>
<polygon fill="midnightblue" stroke="midnightblue" points="272.351,-67.8661 261.791,-68.7288 270.584,-74.6395 272.351,-67.8661"/>
</g>
<!-- Node4 -->
<g id="node4" class="node"><title>Node4</title>
<g id="a_node4"><a xlink:href="$classDataFlash__Block.html#af70a34ead0a9c81d39ea717fb392abfd" xlink:title="DataFlash_Block::get\l_log_info">
<polygon fill="white" stroke="black" points="329.5,-39 329.5,-69 440.5,-69 440.5,-39 329.5,-39"/>
<text text-anchor="start" x="337.5" y="-57" font-family="Helvetica,sans-Serif" font-size="10.00">DataFlash_Block::get</text>
<text text-anchor="middle" x="385" y="-46" font-family="Helvetica,sans-Serif" font-size="10.00">_log_info</text>
</a>
</g>
</g>
<!-- Node2&#45;&gt;Node4 -->
<g id="edge3" class="edge"><title>Node2&#45;&gt;Node4</title>
<path fill="none" stroke="midnightblue" d="M271.59,-54C290.535,-54 311.062,-54 329.325,-54"/>
<polygon fill="midnightblue" stroke="midnightblue" points="271.55,-50.5001 261.55,-54 271.55,-57.5001 271.55,-50.5001"/>
</g>
<!-- Node5 -->
<g id="node5" class="node"><title>Node5</title>
<g id="a_node5"><a xlink:href="$classDataFlash__Block.html#af69dc258faab0de2a9b38e87d4c67799" xlink:title="DataFlash_Block::ListAvailableLogs">
<polygon fill="white" stroke="black" points="298,-0.5 298,-19.5 472,-19.5 472,-0.5 298,-0.5"/>
<text text-anchor="middle" x="385" y="-7.5" font-family="Helvetica,sans-Serif" font-size="10.00">DataFlash_Block::ListAvailableLogs</text>
</a>
</g>
</g>
<!-- Node2&#45;&gt;Node5 -->
<g id="edge4" class="edge"><title>Node2&#45;&gt;Node5</title>
<path fill="none" stroke="midnightblue" d="M271.681,-36.6914C280.515,-34.4007 289.474,-32.1153 298,-30 312.283,-26.4566 327.947,-22.7582 341.949,-19.5194"/>
<polygon fill="midnightblue" stroke="midnightblue" points="270.584,-33.3605 261.791,-39.2712 272.351,-40.1339 270.584,-33.3605"/>
</g>
</g>
</svg>
