<?xml version="1.0" encoding="UTF-8" standalone="no"?>
<!DOCTYPE svg PUBLIC "-//W3C//DTD SVG 1.1//EN"
 "http://www.w3.org/Graphics/SVG/1.1/DTD/svg11.dtd">
<!-- Generated by graphviz version 2.36.0 (20140111.2315)
 -->
<!-- Title: Airspeed_Calibration Pages: 1 -->
<svg width="289pt" height="186pt"
 viewBox="0.00 0.00 289.00 186.00" xmlns="http://www.w3.org/2000/svg" xmlns:xlink="http://www.w3.org/1999/xlink">
<g id="graph0" class="graph" transform="scale(1 1) rotate(0) translate(4 182)">
<title>Airspeed_Calibration</title>
<polygon fill="white" stroke="none" points="-4,4 -4,-182 285,-182 285,4 -4,4"/>
<!-- Node1 -->
<g id="node1" class="node"><title>Node1</title>
<polygon fill="#bfbfbf" stroke="black" points="46.5,-0.5 46.5,-19.5 153.5,-19.5 153.5,-0.5 46.5,-0.5"/>
<text text-anchor="middle" x="100" y="-7.5" font-family="Helvetica,sans-Serif" font-size="10.00">Airspeed_Calibration</text>
</g>
<!-- Node2 -->
<g id="node2" class="node"><title>Node2</title>
<g id="a_node2"><a xlink:href="$classMatrix3.html" xlink:title="Matrix3\&lt; float \&gt;">
<polygon fill="white" stroke="black" points="57,-68.5 57,-87.5 143,-87.5 143,-68.5 57,-68.5"/>
<text text-anchor="middle" x="100" y="-75.5" font-family="Helvetica,sans-Serif" font-size="10.00">Matrix3&lt; float &gt;</text>
</a>
</g>
</g>
<!-- Node2&#45;&gt;Node1 -->
<g id="edge1" class="edge"><title>Node2&#45;&gt;Node1</title>
<path fill="none" stroke="#9a32cd" stroke-dasharray="5,2" d="M100,-58.0413C100,-45.4724 100,-29.5631 100,-19.8411"/>
<polygon fill="#9a32cd" stroke="#9a32cd" points="96.5001,-58.3716 100,-68.3717 103.5,-58.3717 96.5001,-58.3716"/>
<text text-anchor="middle" x="105" y="-41.5" font-family="Helvetica,sans-Serif" font-size="10.00"> P</text>
</g>
<!-- Node3 -->
<g id="node3" class="node"><title>Node3</title>
<g id="a_node3"><a xlink:href="$classVector3.html" xlink:title="Vector3\&lt; float \&gt;">
<polygon fill="white" stroke="black" points="-0.5,-158.5 -0.5,-177.5 86.5,-177.5 86.5,-158.5 -0.5,-158.5"/>
<text text-anchor="middle" x="43" y="-165.5" font-family="Helvetica,sans-Serif" font-size="10.00">Vector3&lt; float &gt;</text>
</a>
</g>
</g>
<!-- Node3&#45;&gt;Node1 -->
<g id="edge3" class="edge"><title>Node3&#45;&gt;Node1</title>
<path fill="none" stroke="#9a32cd" stroke-dasharray="5,2" d="M32.9162,-149.434C22.566,-128.901 9.70887,-94.3755 23,-68 34.751,-44.6808 61.0494,-28.5256 79.6323,-19.5179"/>
<polygon fill="#9a32cd" stroke="#9a32cd" points="29.8576,-151.136 37.6704,-158.292 36.0255,-147.826 29.8576,-151.136"/>
<text text-anchor="middle" x="35.5" y="-75.5" font-family="Helvetica,sans-Serif" font-size="10.00"> state</text>
</g>
<!-- Node3&#45;&gt;Node2 -->
<g id="edge2" class="edge"><title>Node3&#45;&gt;Node2</title>
<path fill="none" stroke="#9a32cd" stroke-dasharray="5,2" d="M54.1425,-149.798C66.2212,-131.15 85.018,-102.13 94.3492,-87.7241"/>
<polygon fill="#9a32cd" stroke="#9a32cd" points="51.1727,-147.945 48.6738,-158.241 57.0479,-151.75 51.1727,-147.945"/>
<text text-anchor="middle" x="86.5" y="-131.5" font-family="Helvetica,sans-Serif" font-size="10.00"> a</text>
<text text-anchor="middle" x="86.5" y="-120.5" font-family="Helvetica,sans-Serif" font-size="10.00">b</text>
<text text-anchor="middle" x="86.5" y="-109.5" font-family="Helvetica,sans-Serif" font-size="10.00">c</text>
</g>
<!-- Node4 -->
<g id="node4" class="node"><title>Node4</title>
<g id="a_node4"><a xlink:href="$structAP__Vehicle_1_1FixedWing.html" xlink:title="AP_Vehicle::FixedWing">
<polygon fill="white" stroke="black" points="161,-68.5 161,-87.5 281,-87.5 281,-68.5 161,-68.5"/>
<text text-anchor="middle" x="221" y="-75.5" font-family="Helvetica,sans-Serif" font-size="10.00">AP_Vehicle::FixedWing</text>
</a>
</g>
</g>
<!-- Node4&#45;&gt;Node1 -->
<g id="edge4" class="edge"><title>Node4&#45;&gt;Node1</title>
<path fill="none" stroke="#9a32cd" stroke-dasharray="5,2" d="M196.277,-63.5149C172.191,-50.3767 136.297,-30.7981 115.823,-19.6305"/>
<polygon fill="#9a32cd" stroke="#9a32cd" points="194.726,-66.6557 205.181,-68.3717 198.078,-60.5104 194.726,-66.6557"/>
<text text-anchor="middle" x="186.5" y="-41.5" font-family="Helvetica,sans-Serif" font-size="10.00"> aparm</text>
</g>
</g>
</svg>
