<?xml version="1.0" encoding="UTF-8" standalone="no"?>
<!DOCTYPE svg PUBLIC "-//W3C//DTD SVG 1.1//EN"
 "http://www.w3.org/Graphics/SVG/1.1/DTD/svg11.dtd">
<!-- Generated by graphviz version 2.36.0 (20140111.2315)
 -->
<!-- Title: AP_Compass_HIL::AP_Compass_HIL Pages: 1 -->
<svg width="450pt" height="66pt"
 viewBox="0.00 0.00 450.00 66.00" xmlns="http://www.w3.org/2000/svg" xmlns:xlink="http://www.w3.org/1999/xlink">
<g id="graph0" class="graph" transform="scale(1 1) rotate(0) translate(4 62)">
<title>AP_Compass_HIL::AP_Compass_HIL</title>
<polygon fill="white" stroke="none" points="-4,4 -4,-62 446,-62 446,4 -4,4"/>
<!-- Node1 -->
<g id="node1" class="node"><title>Node1</title>
<polygon fill="#bfbfbf" stroke="black" points="0,-14 0,-44 118,-44 118,-14 0,-14"/>
<text text-anchor="start" x="8" y="-32" font-family="Helvetica,sans-Serif" font-size="10.00">AP_Compass_HIL::AP</text>
<text text-anchor="middle" x="59" y="-21" font-family="Helvetica,sans-Serif" font-size="10.00">_Compass_HIL</text>
</g>
<!-- Node2 -->
<g id="node2" class="node"><title>Node2</title>
<g id="a_node2"><a xlink:href="$classCompass.html#a0bc30e897c2c0c412120e1b1337bd1cb" xlink:title="Compass::_setup_earth\l_field">
<polygon fill="white" stroke="black" points="154.5,-14 154.5,-44 275.5,-44 275.5,-14 154.5,-14"/>
<text text-anchor="start" x="162.5" y="-32" font-family="Helvetica,sans-Serif" font-size="10.00">Compass::_setup_earth</text>
<text text-anchor="middle" x="215" y="-21" font-family="Helvetica,sans-Serif" font-size="10.00">_field</text>
</a>
</g>
</g>
<!-- Node1&#45;&gt;Node2 -->
<g id="edge1" class="edge"><title>Node1&#45;&gt;Node2</title>
<path fill="none" stroke="midnightblue" d="M118.221,-29C126.73,-29 135.566,-29 144.276,-29"/>
<polygon fill="midnightblue" stroke="midnightblue" points="144.417,-32.5001 154.417,-29 144.417,-25.5001 144.417,-32.5001"/>
</g>
<!-- Node3 -->
<g id="node3" class="node"><title>Node3</title>
<g id="a_node3"><a xlink:href="$classMatrix3.html#a62587bd216436f09f06b9e1330f84bc0" xlink:title="&#45;*&#45; tab&#45;width: 4; Mode: C++; c&#45;basic&#45;offset: 4; indent&#45;tabs&#45;mode: nil &#45;*&#45; ">
<polygon fill="white" stroke="black" points="326.5,-38.5 326.5,-57.5 427.5,-57.5 427.5,-38.5 326.5,-38.5"/>
<text text-anchor="middle" x="377" y="-45.5" font-family="Helvetica,sans-Serif" font-size="10.00">Matrix3::from_euler</text>
</a>
</g>
</g>
<!-- Node2&#45;&gt;Node3 -->
<g id="edge2" class="edge"><title>Node2&#45;&gt;Node3</title>
<path fill="none" stroke="midnightblue" d="M275.578,-36.0749C288.889,-37.6555 303.008,-39.3321 316.322,-40.9133"/>
<polygon fill="midnightblue" stroke="midnightblue" points="315.977,-44.3968 326.32,-42.1005 316.803,-37.4457 315.977,-44.3968"/>
</g>
<!-- Node4 -->
<g id="node4" class="node"><title>Node4</title>
<g id="a_node4"><a xlink:href="$classCompass.html#a5051de1d15ee203600422235ab93c88c" xlink:title="Compass::get_declination">
<polygon fill="white" stroke="black" points="312,-0.5 312,-19.5 442,-19.5 442,-0.5 312,-0.5"/>
<text text-anchor="middle" x="377" y="-7.5" font-family="Helvetica,sans-Serif" font-size="10.00">Compass::get_declination</text>
</a>
</g>
</g>
<!-- Node2&#45;&gt;Node4 -->
<g id="edge3" class="edge"><title>Node2&#45;&gt;Node4</title>
<path fill="none" stroke="midnightblue" d="M275.578,-21.9251C284.071,-20.9165 292.894,-19.8689 301.626,-18.8319"/>
<polygon fill="midnightblue" stroke="midnightblue" points="302.294,-22.2773 311.811,-17.6224 301.468,-15.3261 302.294,-22.2773"/>
</g>
</g>
</svg>
