<?xml version="1.0" encoding="UTF-8" standalone="no"?>
<!DOCTYPE svg PUBLIC "-//W3C//DTD SVG 1.1//EN"
 "http://www.w3.org/Graphics/SVG/1.1/DTD/svg11.dtd">
<!-- Generated by graphviz version 2.36.0 (20140111.2315)
 -->
<!-- Title: AP_InertialSensor_UserInteract_MAVLink::_printf_P Pages: 1 -->
<svg width="704pt" height="292pt"
 viewBox="0.00 0.00 704.00 292.00" xmlns="http://www.w3.org/2000/svg" xmlns:xlink="http://www.w3.org/1999/xlink">
<g id="graph0" class="graph" transform="scale(1 1) rotate(0) translate(4 288)">
<title>AP_InertialSensor_UserInteract_MAVLink::_printf_P</title>
<polygon fill="white" stroke="none" points="-4,4 -4,-288 700,-288 700,4 -4,4"/>
<!-- Node1 -->
<g id="node1" class="node"><title>Node1</title>
<polygon fill="#bfbfbf" stroke="black" points="0.5,-88 0.5,-118 155.5,-118 155.5,-88 0.5,-88"/>
<text text-anchor="start" x="8.5" y="-106" font-family="Helvetica,sans-Serif" font-size="10.00">AP_InertialSensor_UserInteract</text>
<text text-anchor="middle" x="78" y="-95" font-family="Helvetica,sans-Serif" font-size="10.00">_MAVLink::_printf_P</text>
</g>
<!-- Node2 -->
<g id="node2" class="node"><title>Node2</title>
<g id="a_node2"><a xlink:href="$classAP__HAL_1_1Util.html#ac312dcc904caef4322f17eb76f34cd2c" xlink:title="AP_HAL::Util::vsnprintf_P">
<polygon fill="white" stroke="black" points="195.5,-169.5 195.5,-188.5 326.5,-188.5 326.5,-169.5 195.5,-169.5"/>
<text text-anchor="middle" x="261" y="-176.5" font-family="Helvetica,sans-Serif" font-size="10.00">AP_HAL::Util::vsnprintf_P</text>
</a>
</g>
</g>
<!-- Node1&#45;&gt;Node2 -->
<g id="edge1" class="edge"><title>Node1&#45;&gt;Node2</title>
<path fill="none" stroke="midnightblue" d="M105.271,-118.097C127.756,-130.565 161.269,-148.087 192,-160 198,-162.326 204.399,-164.497 210.781,-166.479"/>
<polygon fill="midnightblue" stroke="midnightblue" points="210.154,-169.944 220.736,-169.433 212.145,-163.233 210.154,-169.944"/>
</g>
<!-- Node10 -->
<g id="node10" class="node"><title>Node10</title>
<g id="a_node10"><a xlink:href="$classGCS__MAVLINK.html#a3f9b42c24244e69cae430155c4fe1255" xlink:title="GCS_MAVLINK::get_uart">
<polygon fill="white" stroke="black" points="196.5,-131.5 196.5,-150.5 325.5,-150.5 325.5,-131.5 196.5,-131.5"/>
<text text-anchor="middle" x="261" y="-138.5" font-family="Helvetica,sans-Serif" font-size="10.00">GCS_MAVLINK::get_uart</text>
</a>
</g>
</g>
<!-- Node1&#45;&gt;Node10 -->
<g id="edge9" class="edge"><title>Node1&#45;&gt;Node10</title>
<path fill="none" stroke="midnightblue" d="M150.536,-118.019C168.626,-121.816 187.774,-125.837 204.911,-129.434"/>
<polygon fill="midnightblue" stroke="midnightblue" points="204.24,-132.87 214.746,-131.499 205.678,-126.019 204.24,-132.87"/>
</g>
<!-- Node11 -->
<g id="node11" class="node"><title>Node11</title>
<g id="a_node11"><a xlink:href="$classAP__HAL_1_1Stream.html#a7028834212873394e906bcaf7f4a06b3" xlink:title="AP_HAL::Stream::txspace">
<polygon fill="white" stroke="black" points="562.5,-62.5 562.5,-81.5 695.5,-81.5 695.5,-62.5 562.5,-62.5"/>
<text text-anchor="middle" x="629" y="-69.5" font-family="Helvetica,sans-Serif" font-size="10.00">AP_HAL::Stream::txspace</text>
</a>
</g>
</g>
<!-- Node1&#45;&gt;Node11 -->
<g id="edge10" class="edge"><title>Node1&#45;&gt;Node11</title>
<path fill="none" stroke="midnightblue" d="M155.727,-98.7762C244.771,-93.8588 396.024,-85.4575 526,-78 534.557,-77.509 543.517,-76.9897 552.423,-76.4701"/>
<polygon fill="midnightblue" stroke="midnightblue" points="552.653,-79.9628 562.432,-75.885 552.245,-72.9747 552.653,-79.9628"/>
</g>
<!-- Node12 -->
<g id="node12" class="node"><title>Node12</title>
<g id="a_node12"><a xlink:href="$classAP__HAL_1_1Scheduler.html#ab3175e2e6223ccfe82f957e41cc12b26" xlink:title="AP_HAL::Scheduler::\ldelay">
<polygon fill="white" stroke="black" points="206,-44 206,-74 316,-74 316,-44 206,-44"/>
<text text-anchor="start" x="214" y="-62" font-family="Helvetica,sans-Serif" font-size="10.00">AP_HAL::Scheduler::</text>
<text text-anchor="middle" x="261" y="-51" font-family="Helvetica,sans-Serif" font-size="10.00">delay</text>
</a>
</g>
</g>
<!-- Node1&#45;&gt;Node12 -->
<g id="edge11" class="edge"><title>Node1&#45;&gt;Node12</title>
<path fill="none" stroke="midnightblue" d="M140.784,-87.9808C158.584,-83.6536 178.038,-78.9245 195.971,-74.5651"/>
<polygon fill="midnightblue" stroke="midnightblue" points="196.867,-77.9493 205.757,-72.1861 195.213,-71.1473 196.867,-77.9493"/>
</g>
<!-- Node13 -->
<g id="node13" class="node"><title>Node13</title>
<g id="a_node13"><a xlink:href="$classGCS__MAVLINK.html#a1cde0c4232c296db943613ab2e378427" xlink:title="GCS_MAVLINK::send_text">
<polygon fill="white" stroke="black" points="192.5,-5.5 192.5,-24.5 329.5,-24.5 329.5,-5.5 192.5,-5.5"/>
<text text-anchor="middle" x="261" y="-12.5" font-family="Helvetica,sans-Serif" font-size="10.00">GCS_MAVLINK::send_text</text>
</a>
</g>
</g>
<!-- Node1&#45;&gt;Node13 -->
<g id="edge12" class="edge"><title>Node1&#45;&gt;Node13</title>
<path fill="none" stroke="midnightblue" d="M99.7061,-87.9311C121.673,-72.5399 157.853,-48.8545 192,-34 197.401,-31.6506 203.169,-29.5139 208.978,-27.5927"/>
<polygon fill="midnightblue" stroke="midnightblue" points="210.22,-30.8718 218.732,-24.5634 208.144,-24.1867 210.22,-30.8718"/>
</g>
<!-- Node3 -->
<g id="node3" class="node"><title>Node3</title>
<g id="a_node3"><a xlink:href="$print__vprintf_8cpp.html#a473b9349f4b086b552a21eb8fe057016" xlink:title="print_vprintf">
<polygon fill="white" stroke="black" points="412,-188.5 412,-207.5 480,-207.5 480,-188.5 412,-188.5"/>
<text text-anchor="middle" x="446" y="-195.5" font-family="Helvetica,sans-Serif" font-size="10.00">print_vprintf</text>
</a>
</g>
</g>
<!-- Node2&#45;&gt;Node3 -->
<g id="edge2" class="edge"><title>Node2&#45;&gt;Node3</title>
<path fill="none" stroke="midnightblue" d="M326.519,-185.699C351.393,-188.281 379.188,-191.167 401.602,-193.494"/>
<polygon fill="midnightblue" stroke="midnightblue" points="401.506,-197.003 411.814,-194.554 402.229,-190.04 401.506,-197.003"/>
</g>
<!-- Node9 -->
<g id="node9" class="node"><title>Node9</title>
<g id="a_node9"><a xlink:href="$classBufferPrinter.html#a0b98d7f59a6591097d2011d68359b8a0" xlink:title="BufferPrinter::write">
<polygon fill="white" stroke="black" points="397,-150.5 397,-169.5 495,-169.5 495,-150.5 397,-150.5"/>
<text text-anchor="middle" x="446" y="-157.5" font-family="Helvetica,sans-Serif" font-size="10.00">BufferPrinter::write</text>
</a>
</g>
</g>
<!-- Node2&#45;&gt;Node9 -->
<g id="edge8" class="edge"><title>Node2&#45;&gt;Node9</title>
<path fill="none" stroke="midnightblue" d="M326.519,-172.301C346.145,-170.264 367.59,-168.037 386.775,-166.045"/>
<polygon fill="midnightblue" stroke="midnightblue" points="387.292,-169.51 396.877,-164.996 386.569,-162.548 387.292,-169.51"/>
</g>
<!-- Node4 -->
<g id="node4" class="node"><title>Node4</title>
<g id="a_node4"><a xlink:href="$classAP__HAL_1_1Print.html#acc65391952a43334f8f5c9bef341f501" xlink:title="AP_HAL::Print::write">
<polygon fill="white" stroke="black" points="575,-264.5 575,-283.5 683,-283.5 683,-264.5 575,-264.5"/>
<text text-anchor="middle" x="629" y="-271.5" font-family="Helvetica,sans-Serif" font-size="10.00">AP_HAL::Print::write</text>
</a>
</g>
</g>
<!-- Node3&#45;&gt;Node4 -->
<g id="edge3" class="edge"><title>Node3&#45;&gt;Node4</title>
<path fill="none" stroke="midnightblue" d="M464.094,-207.691C486.178,-219.924 526.062,-241.051 562,-255 567.909,-257.293 574.209,-259.454 580.484,-261.437"/>
<polygon fill="midnightblue" stroke="midnightblue" points="579.678,-264.85 590.263,-264.402 581.709,-258.151 579.678,-264.85"/>
</g>
<!-- Node5 -->
<g id="node5" class="node"><title>Node5</title>
<g id="a_node5"><a xlink:href="$ftoa__engine_8cpp.html#a1c28234da8f20b43c85890d4bb452947" xlink:title="ftoa_engine">
<polygon fill="white" stroke="black" points="595.5,-226.5 595.5,-245.5 662.5,-245.5 662.5,-226.5 595.5,-226.5"/>
<text text-anchor="middle" x="629" y="-233.5" font-family="Helvetica,sans-Serif" font-size="10.00">ftoa_engine</text>
</a>
</g>
</g>
<!-- Node3&#45;&gt;Node5 -->
<g id="edge4" class="edge"><title>Node3&#45;&gt;Node5</title>
<path fill="none" stroke="midnightblue" d="M480.198,-204.97C509.759,-211.176 553.177,-220.291 585.312,-227.038"/>
<polygon fill="midnightblue" stroke="midnightblue" points="584.811,-230.509 595.317,-229.138 586.25,-223.658 584.811,-230.509"/>
</g>
<!-- Node6 -->
<g id="node6" class="node"><title>Node6</title>
<g id="a_node6"><a xlink:href="$AP__Progmem__Identity_8h.html#a1514e0408e036062b4af844baaf567da" xlink:title="pgm_read_byte">
<polygon fill="white" stroke="black" points="587.5,-188.5 587.5,-207.5 670.5,-207.5 670.5,-188.5 587.5,-188.5"/>
<text text-anchor="middle" x="629" y="-195.5" font-family="Helvetica,sans-Serif" font-size="10.00">pgm_read_byte</text>
</a>
</g>
</g>
<!-- Node3&#45;&gt;Node6 -->
<g id="edge5" class="edge"><title>Node3&#45;&gt;Node6</title>
<path fill="none" stroke="midnightblue" d="M480.198,-198C507.339,-198 546.16,-198 577.206,-198"/>
<polygon fill="midnightblue" stroke="midnightblue" points="577.408,-201.5 587.408,-198 577.408,-194.5 577.408,-201.5"/>
</g>
<!-- Node7 -->
<g id="node7" class="node"><title>Node7</title>
<g id="a_node7"><a xlink:href="$AP__Progmem__Identity_8h.html#a7c38516a089d1799b00c59fbb0820841" xlink:title="strnlen_P">
<polygon fill="white" stroke="black" points="600,-150.5 600,-169.5 658,-169.5 658,-150.5 600,-150.5"/>
<text text-anchor="middle" x="629" y="-157.5" font-family="Helvetica,sans-Serif" font-size="10.00">strnlen_P</text>
</a>
</g>
</g>
<!-- Node3&#45;&gt;Node7 -->
<g id="edge6" class="edge"><title>Node3&#45;&gt;Node7</title>
<path fill="none" stroke="midnightblue" d="M480.198,-191.03C511.141,-184.534 557.265,-174.85 589.741,-168.032"/>
<polygon fill="midnightblue" stroke="midnightblue" points="590.701,-171.407 599.768,-165.927 589.263,-164.556 590.701,-171.407"/>
</g>
<!-- Node8 -->
<g id="node8" class="node"><title>Node8</title>
<g id="a_node8"><a xlink:href="$utoa__invert_8cpp.html#a5d99bba8e697c1e11da489d88fca8559" xlink:title="ultoa_invert">
<polygon fill="white" stroke="black" points="595.5,-112.5 595.5,-131.5 662.5,-131.5 662.5,-112.5 595.5,-112.5"/>
<text text-anchor="middle" x="629" y="-119.5" font-family="Helvetica,sans-Serif" font-size="10.00">ultoa_invert</text>
</a>
</g>
</g>
<!-- Node3&#45;&gt;Node8 -->
<g id="edge7" class="edge"><title>Node3&#45;&gt;Node8</title>
<path fill="none" stroke="midnightblue" d="M480.104,-194.377C494.89,-191.697 512.078,-187.049 526,-179 546.14,-167.355 542.122,-153.088 562,-141 569.171,-136.64 577.387,-133.241 585.532,-130.604"/>
<polygon fill="midnightblue" stroke="midnightblue" points="586.729,-133.901 595.357,-127.753 584.778,-127.179 586.729,-133.901"/>
</g>
<!-- Node14 -->
<g id="node14" class="node"><title>Node14</title>
<g id="a_node14"><a xlink:href="$GCS__MAVLink_8cpp.html#a2a0fd455fd37f642e9eb67373a14b7d9" xlink:title="comm_get_txspace">
<polygon fill="white" stroke="black" points="395,-49.5 395,-68.5 497,-68.5 497,-49.5 395,-49.5"/>
<text text-anchor="middle" x="446" y="-56.5" font-family="Helvetica,sans-Serif" font-size="10.00">comm_get_txspace</text>
</a>
</g>
</g>
<!-- Node13&#45;&gt;Node14 -->
<g id="edge13" class="edge"><title>Node13&#45;&gt;Node14</title>
<path fill="none" stroke="midnightblue" d="M301.708,-24.5473C329.166,-31.1492 365.902,-39.9819 395.303,-47.051"/>
<polygon fill="midnightblue" stroke="midnightblue" points="394.828,-50.5365 405.369,-49.4713 396.465,-43.7304 394.828,-50.5365"/>
</g>
<!-- Node15 -->
<g id="node15" class="node"><title>Node15</title>
<g id="a_node15"><a xlink:href="$classGCS__MAVLINK.html#a4902306dab46ff02b2296f99eb1f1c9c" xlink:title="GCS_MAVLINK::send_message">
<polygon fill="white" stroke="black" points="366,-5.5 366,-24.5 526,-24.5 526,-5.5 366,-5.5"/>
<text text-anchor="middle" x="446" y="-12.5" font-family="Helvetica,sans-Serif" font-size="10.00">GCS_MAVLINK::send_message</text>
</a>
</g>
</g>
<!-- Node13&#45;&gt;Node15 -->
<g id="edge15" class="edge"><title>Node13&#45;&gt;Node15</title>
<path fill="none" stroke="midnightblue" d="M329.623,-15C338.111,-15 346.895,-15 355.653,-15"/>
<polygon fill="midnightblue" stroke="midnightblue" points="355.902,-18.5001 365.902,-15 355.902,-11.5001 355.902,-18.5001"/>
</g>
<!-- Node14&#45;&gt;Node11 -->
<g id="edge14" class="edge"><title>Node14&#45;&gt;Node11</title>
<path fill="none" stroke="midnightblue" d="M497.419,-62.6212C514.364,-63.8383 533.659,-65.2241 552.121,-66.5501"/>
<polygon fill="midnightblue" stroke="midnightblue" points="552.046,-70.0537 562.271,-67.2791 552.547,-63.0716 552.046,-70.0537"/>
</g>
<!-- Node16 -->
<g id="node16" class="node"><title>Node16</title>
<g id="a_node16"><a xlink:href="$classGCS__MAVLINK.html#a30034cdbd89bcfb86392411f9b5935db" xlink:title="GCS_MAVLINK::try_send\l_message">
<polygon fill="white" stroke="black" points="563.5,-0 563.5,-30 694.5,-30 694.5,-0 563.5,-0"/>
<text text-anchor="start" x="571.5" y="-18" font-family="Helvetica,sans-Serif" font-size="10.00">GCS_MAVLINK::try_send</text>
<text text-anchor="middle" x="629" y="-7" font-family="Helvetica,sans-Serif" font-size="10.00">_message</text>
</a>
</g>
</g>
<!-- Node15&#45;&gt;Node16 -->
<g id="edge16" class="edge"><title>Node15&#45;&gt;Node16</title>
<path fill="none" stroke="midnightblue" d="M526.126,-15C535.18,-15 544.388,-15 553.381,-15"/>
<polygon fill="midnightblue" stroke="midnightblue" points="553.422,-18.5001 563.422,-15 553.422,-11.5001 553.422,-18.5001"/>
</g>
</g>
</svg>
