<?xml version="1.0" encoding="UTF-8" standalone="no"?>
<!DOCTYPE svg PUBLIC "-//W3C//DTD SVG 1.1//EN"
 "http://www.w3.org/Graphics/SVG/1.1/DTD/svg11.dtd">
<!-- Generated by graphviz version 2.36.0 (20140111.2315)
 -->
<!-- Title: VRBoard_LED::hw_init Pages: 1 -->
<svg width="290pt" height="66pt"
 viewBox="0.00 0.00 290.00 66.00" xmlns="http://www.w3.org/2000/svg" xmlns:xlink="http://www.w3.org/1999/xlink">
<g id="graph0" class="graph" transform="scale(1 1) rotate(0) translate(4 62)">
<title>VRBoard_LED::hw_init</title>
<polygon fill="white" stroke="none" points="-4,4 -4,-62 286,-62 286,4 -4,4"/>
<!-- Node1 -->
<g id="node1" class="node"><title>Node1</title>
<polygon fill="#bfbfbf" stroke="black" points="0,-19.5 0,-38.5 118,-38.5 118,-19.5 0,-19.5"/>
<text text-anchor="middle" x="59" y="-26.5" font-family="Helvetica,sans-Serif" font-size="10.00">VRBoard_LED::hw_init</text>
</g>
<!-- Node2 -->
<g id="node2" class="node"><title>Node2</title>
<g id="a_node2"><a xlink:href="$classAP__HAL_1_1GPIO.html#a3dfc60214bd1aa4936d51ca72c045b95" xlink:title="AP_HAL::GPIO::pinMode">
<polygon fill="white" stroke="black" points="154,-38.5 154,-57.5 282,-57.5 282,-38.5 154,-38.5"/>
<text text-anchor="middle" x="218" y="-45.5" font-family="Helvetica,sans-Serif" font-size="10.00">AP_HAL::GPIO::pinMode</text>
</a>
</g>
</g>
<!-- Node1&#45;&gt;Node2 -->
<g id="edge1" class="edge"><title>Node1&#45;&gt;Node2</title>
<path fill="none" stroke="midnightblue" d="M118.015,-36.0209C126.428,-37.039 135.178,-38.098 143.842,-39.1464"/>
<polygon fill="midnightblue" stroke="midnightblue" points="143.598,-42.6424 153.946,-40.3693 144.439,-35.6931 143.598,-42.6424"/>
</g>
<!-- Node3 -->
<g id="node3" class="node"><title>Node3</title>
<g id="a_node3"><a xlink:href="$classAP__HAL_1_1GPIO.html#a2b0664bdab1876e3b0bbcd9064eec88e" xlink:title="AP_HAL::GPIO::write">
<polygon fill="white" stroke="black" points="161.5,-0.5 161.5,-19.5 274.5,-19.5 274.5,-0.5 161.5,-0.5"/>
<text text-anchor="middle" x="218" y="-7.5" font-family="Helvetica,sans-Serif" font-size="10.00">AP_HAL::GPIO::write</text>
</a>
</g>
</g>
<!-- Node1&#45;&gt;Node3 -->
<g id="edge2" class="edge"><title>Node1&#45;&gt;Node3</title>
<path fill="none" stroke="midnightblue" d="M118.015,-21.9791C128.849,-20.6679 140.243,-19.2891 151.29,-17.9522"/>
<polygon fill="midnightblue" stroke="midnightblue" points="151.804,-21.4156 161.311,-16.7394 150.963,-14.4663 151.804,-21.4156"/>
</g>
</g>
</svg>
