<?xml version="1.0" encoding="UTF-8" standalone="no"?>
<!DOCTYPE svg PUBLIC "-//W3C//DTD SVG 1.1//EN"
 "http://www.w3.org/Graphics/SVG/1.1/DTD/svg11.dtd">
<!-- Generated by graphviz version 2.36.0 (20140111.2315)
 -->
<!-- Title: Linux::LinuxSPIDeviceDriver::transaction Pages: 1 -->
<svg width="688pt" height="136pt"
 viewBox="0.00 0.00 688.00 136.00" xmlns="http://www.w3.org/2000/svg" xmlns:xlink="http://www.w3.org/1999/xlink">
<g id="graph0" class="graph" transform="scale(1 1) rotate(0) translate(4 132)">
<title>Linux::LinuxSPIDeviceDriver::transaction</title>
<polygon fill="white" stroke="none" points="-4,4 -4,-132 684,-132 684,4 -4,4"/>
<!-- Node1 -->
<g id="node1" class="node"><title>Node1</title>
<polygon fill="#bfbfbf" stroke="black" points="0.5,-73 0.5,-103 143.5,-103 143.5,-73 0.5,-73"/>
<text text-anchor="start" x="8.5" y="-91" font-family="Helvetica,sans-Serif" font-size="10.00">Linux::LinuxSPIDeviceDriver</text>
<text text-anchor="middle" x="72" y="-80" font-family="Helvetica,sans-Serif" font-size="10.00">::transaction</text>
</g>
<!-- Node2 -->
<g id="node2" class="node"><title>Node2</title>
<g id="a_node2"><a xlink:href="$classLinux_1_1LinuxSPIDeviceManager.html#affbdb3be9bca74c25a0ee3ff75881542" xlink:title="Linux::LinuxSPIDeviceManager\l::transaction">
<polygon fill="white" stroke="black" points="180,-73 180,-103 334,-103 334,-73 180,-73"/>
<text text-anchor="start" x="188" y="-91" font-family="Helvetica,sans-Serif" font-size="10.00">Linux::LinuxSPIDeviceManager</text>
<text text-anchor="middle" x="257" y="-80" font-family="Helvetica,sans-Serif" font-size="10.00">::transaction</text>
</a>
</g>
</g>
<!-- Node1&#45;&gt;Node2 -->
<g id="edge1" class="edge"><title>Node1&#45;&gt;Node2</title>
<path fill="none" stroke="midnightblue" d="M143.753,-88C152.283,-88 161.067,-88 169.787,-88"/>
<polygon fill="midnightblue" stroke="midnightblue" points="169.975,-91.5001 179.975,-88 169.975,-84.5001 169.975,-91.5001"/>
</g>
<!-- Node3 -->
<g id="node3" class="node"><title>Node3</title>
<g id="a_node3"><a xlink:href="$classLinux_1_1LinuxSPIDeviceManager.html#a4798b518244cd9fc33d88366a535be3a" xlink:title="Linux::LinuxSPIDeviceManager\l::cs_assert">
<polygon fill="white" stroke="black" points="370,-49 370,-79 524,-79 524,-49 370,-49"/>
<text text-anchor="start" x="378" y="-67" font-family="Helvetica,sans-Serif" font-size="10.00">Linux::LinuxSPIDeviceManager</text>
<text text-anchor="middle" x="447" y="-56" font-family="Helvetica,sans-Serif" font-size="10.00">::cs_assert</text>
</a>
</g>
</g>
<!-- Node2&#45;&gt;Node3 -->
<g id="edge2" class="edge"><title>Node2&#45;&gt;Node3</title>
<path fill="none" stroke="midnightblue" d="M334.196,-78.2729C342.609,-77.1989 351.219,-76.0997 359.744,-75.0114"/>
<polygon fill="midnightblue" stroke="midnightblue" points="360.219,-78.4792 369.696,-73.741 359.333,-71.5356 360.219,-78.4792"/>
</g>
<!-- Node7 -->
<g id="node7" class="node"><title>Node7</title>
<g id="a_node7"><a xlink:href="$classLinux_1_1LinuxSPIDeviceManager.html#a76b5b04bfea39a2bde6f3ebff3964f0f" xlink:title="Linux::LinuxSPIDeviceManager\l::cs_release">
<polygon fill="white" stroke="black" points="370,-98 370,-128 524,-128 524,-98 370,-98"/>
<text text-anchor="start" x="378" y="-116" font-family="Helvetica,sans-Serif" font-size="10.00">Linux::LinuxSPIDeviceManager</text>
<text text-anchor="middle" x="447" y="-105" font-family="Helvetica,sans-Serif" font-size="10.00">::cs_release</text>
</a>
</g>
</g>
<!-- Node2&#45;&gt;Node7 -->
<g id="edge6" class="edge"><title>Node2&#45;&gt;Node7</title>
<path fill="none" stroke="midnightblue" d="M334.196,-98.1324C342.609,-99.2512 351.219,-100.396 359.744,-101.53"/>
<polygon fill="midnightblue" stroke="midnightblue" points="359.322,-105.004 369.696,-102.853 360.244,-98.0654 359.322,-105.004"/>
</g>
<!-- Node4 -->
<g id="node4" class="node"><title>Node4</title>
<g id="a_node4"><a xlink:href="$classAP__HAL_1_1Scheduler.html#a65f0d4e404d3e6fda4d8b0b101c9780f" xlink:title="AP_HAL::Scheduler::\lpanic">
<polygon fill="white" stroke="black" points="565,-49 565,-79 675,-79 675,-49 565,-49"/>
<text text-anchor="start" x="573" y="-67" font-family="Helvetica,sans-Serif" font-size="10.00">AP_HAL::Scheduler::</text>
<text text-anchor="middle" x="620" y="-56" font-family="Helvetica,sans-Serif" font-size="10.00">panic</text>
</a>
</g>
</g>
<!-- Node3&#45;&gt;Node4 -->
<g id="edge3" class="edge"><title>Node3&#45;&gt;Node4</title>
<path fill="none" stroke="midnightblue" d="M524.497,-64C534.595,-64 544.862,-64 554.727,-64"/>
<polygon fill="midnightblue" stroke="midnightblue" points="554.838,-67.5001 564.838,-64 554.838,-60.5001 554.838,-67.5001"/>
</g>
<!-- Node5 -->
<g id="node5" class="node"><title>Node5</title>
<g id="a_node5"><a xlink:href="$classAP__HAL_1_1UARTDriver.html#a4b1ae6fcec3dfe651d08faf589f4ad6d" xlink:title="AP_HAL::UARTDriver\l::printf">
<polygon fill="white" stroke="black" points="562.5,-0 562.5,-30 677.5,-30 677.5,-0 562.5,-0"/>
<text text-anchor="start" x="570.5" y="-18" font-family="Helvetica,sans-Serif" font-size="10.00">AP_HAL::UARTDriver</text>
<text text-anchor="middle" x="620" y="-7" font-family="Helvetica,sans-Serif" font-size="10.00">::printf</text>
</a>
</g>
</g>
<!-- Node3&#45;&gt;Node5 -->
<g id="edge4" class="edge"><title>Node3&#45;&gt;Node5</title>
<path fill="none" stroke="midnightblue" d="M500.701,-48.8986C518.419,-43.8215 538.352,-38.1098 556.734,-32.8423"/>
<polygon fill="midnightblue" stroke="midnightblue" points="557.824,-36.1709 566.473,-30.0516 555.896,-29.4417 557.824,-36.1709"/>
</g>
<!-- Node6 -->
<g id="node6" class="node"><title>Node6</title>
<g id="a_node6"><a xlink:href="$classAP__HAL_1_1DigitalSource.html#a43392c05a7dae030a78dd1c4800bf5fe" xlink:title="AP_HAL::DigitalSource\l::write">
<polygon fill="white" stroke="black" points="560.5,-98 560.5,-128 679.5,-128 679.5,-98 560.5,-98"/>
<text text-anchor="start" x="568.5" y="-116" font-family="Helvetica,sans-Serif" font-size="10.00">AP_HAL::DigitalSource</text>
<text text-anchor="middle" x="620" y="-105" font-family="Helvetica,sans-Serif" font-size="10.00">::write</text>
</a>
</g>
</g>
<!-- Node3&#45;&gt;Node6 -->
<g id="edge5" class="edge"><title>Node3&#45;&gt;Node6</title>
<path fill="none" stroke="midnightblue" d="M500.701,-79.1014C518.419,-84.1785 538.352,-89.8902 556.734,-95.1577"/>
<polygon fill="midnightblue" stroke="midnightblue" points="555.896,-98.5583 566.473,-97.9484 557.824,-91.8291 555.896,-98.5583"/>
</g>
<!-- Node7&#45;&gt;Node4 -->
<g id="edge7" class="edge"><title>Node7&#45;&gt;Node4</title>
<path fill="none" stroke="midnightblue" d="M500.701,-97.8986C518.419,-92.8215 538.352,-87.1098 556.734,-81.8423"/>
<polygon fill="midnightblue" stroke="midnightblue" points="557.824,-85.1709 566.473,-79.0516 555.896,-78.4417 557.824,-85.1709"/>
</g>
<!-- Node7&#45;&gt;Node6 -->
<g id="edge8" class="edge"><title>Node7&#45;&gt;Node6</title>
<path fill="none" stroke="midnightblue" d="M524.497,-113C533.032,-113 541.688,-113 550.119,-113"/>
<polygon fill="midnightblue" stroke="midnightblue" points="550.269,-116.5 560.269,-113 550.269,-109.5 550.269,-116.5"/>
</g>
</g>
</svg>
