<?xml version="1.0" encoding="UTF-8" standalone="no"?>
<!DOCTYPE svg PUBLIC "-//W3C//DTD SVG 1.1//EN"
 "http://www.w3.org/Graphics/SVG/1.1/DTD/svg11.dtd">
<!-- Generated by graphviz version 2.36.0 (20140111.2315)
 -->
<!-- Title: AC_AttitudeControl::rate_bf_to_motor_yaw Pages: 1 -->
<svg width="268pt" height="38pt"
 viewBox="0.00 0.00 268.00 38.00" xmlns="http://www.w3.org/2000/svg" xmlns:xlink="http://www.w3.org/1999/xlink">
<g id="graph0" class="graph" transform="scale(1 1) rotate(0) translate(4 34)">
<title>AC_AttitudeControl::rate_bf_to_motor_yaw</title>
<polygon fill="white" stroke="none" points="-4,4 -4,-34 264,-34 264,4 -4,4"/>
<!-- Node1 -->
<g id="node1" class="node"><title>Node1</title>
<polygon fill="#bfbfbf" stroke="black" points="0.5,-0 0.5,-30 119.5,-30 119.5,-0 0.5,-0"/>
<text text-anchor="start" x="8.5" y="-18" font-family="Helvetica,sans-Serif" font-size="10.00">AC_AttitudeControl</text>
<text text-anchor="middle" x="60" y="-7" font-family="Helvetica,sans-Serif" font-size="10.00">::rate_bf_to_motor_yaw</text>
</g>
<!-- Node2 -->
<g id="node2" class="node"><title>Node2</title>
<g id="a_node2"><a xlink:href="$classAC__AttitudeControl.html#a1c2565af20755e769d3bd9d1a9de826d" xlink:title="AC_AttitudeControl\l::rate_controller_run">
<polygon fill="white" stroke="black" points="156.5,-0 156.5,-30 259.5,-30 259.5,-0 156.5,-0"/>
<text text-anchor="start" x="164.5" y="-18" font-family="Helvetica,sans-Serif" font-size="10.00">AC_AttitudeControl</text>
<text text-anchor="middle" x="208" y="-7" font-family="Helvetica,sans-Serif" font-size="10.00">::rate_controller_run</text>
</a>
</g>
</g>
<!-- Node1&#45;&gt;Node2 -->
<g id="edge1" class="edge"><title>Node1&#45;&gt;Node2</title>
<path fill="none" stroke="midnightblue" d="M129.661,-15C138.683,-15 147.793,-15 156.439,-15"/>
<polygon fill="midnightblue" stroke="midnightblue" points="129.543,-11.5001 119.543,-15 129.543,-18.5001 129.543,-11.5001"/>
</g>
</g>
</svg>
