<?xml version="1.0" encoding="UTF-8" standalone="no"?>
<!DOCTYPE svg PUBLIC "-//W3C//DTD SVG 1.1//EN"
 "http://www.w3.org/Graphics/SVG/1.1/DTD/svg11.dtd">
<!-- Generated by graphviz version 2.36.0 (20140111.2315)
 -->
<!-- Title: Linux::LinuxI2CDriver::set_address Pages: 1 -->
<svg width="416pt" height="185pt"
 viewBox="0.00 0.00 416.00 185.00" xmlns="http://www.w3.org/2000/svg" xmlns:xlink="http://www.w3.org/1999/xlink">
<g id="graph0" class="graph" transform="scale(1 1) rotate(0) translate(4 181)">
<title>Linux::LinuxI2CDriver::set_address</title>
<polygon fill="white" stroke="none" points="-4,4 -4,-181 412,-181 412,4 -4,4"/>
<!-- Node1 -->
<g id="node1" class="node"><title>Node1</title>
<polygon fill="#bfbfbf" stroke="black" points="0.5,-73 0.5,-103 111.5,-103 111.5,-73 0.5,-73"/>
<text text-anchor="start" x="8.5" y="-91" font-family="Helvetica,sans-Serif" font-size="10.00">Linux::LinuxI2CDriver</text>
<text text-anchor="middle" x="56" y="-80" font-family="Helvetica,sans-Serif" font-size="10.00">::set_address</text>
</g>
<!-- Node2 -->
<g id="node2" class="node"><title>Node2</title>
<g id="a_node2"><a xlink:href="$classLinux_1_1LinuxI2CDriver.html#a6787c6dc254a3dd16869942daa481735" xlink:title="Linux::LinuxI2CDriver\l::read">
<polygon fill="white" stroke="black" points="148.5,-147 148.5,-177 259.5,-177 259.5,-147 148.5,-147"/>
<text text-anchor="start" x="156.5" y="-165" font-family="Helvetica,sans-Serif" font-size="10.00">Linux::LinuxI2CDriver</text>
<text text-anchor="middle" x="204" y="-154" font-family="Helvetica,sans-Serif" font-size="10.00">::read</text>
</a>
</g>
</g>
<!-- Node1&#45;&gt;Node2 -->
<g id="edge1" class="edge"><title>Node1&#45;&gt;Node2</title>
<path fill="none" stroke="midnightblue" d="M92.6918,-107.937C109.359,-117.062 129.553,-127.854 148,-137 154.672,-140.308 161.874,-143.704 168.798,-146.885"/>
<polygon fill="midnightblue" stroke="midnightblue" points="94.2768,-104.815 83.8281,-103.061 90.9024,-110.948 94.2768,-104.815"/>
</g>
<!-- Node3 -->
<g id="node3" class="node"><title>Node3</title>
<g id="a_node3"><a xlink:href="$classLinux_1_1LinuxI2CDriver.html#aedd574f2895015fdf6385862f438f1cb" xlink:title="Linux::LinuxI2CDriver\l::readRegister">
<polygon fill="white" stroke="black" points="148.5,-98 148.5,-128 259.5,-128 259.5,-98 148.5,-98"/>
<text text-anchor="start" x="156.5" y="-116" font-family="Helvetica,sans-Serif" font-size="10.00">Linux::LinuxI2CDriver</text>
<text text-anchor="middle" x="204" y="-105" font-family="Helvetica,sans-Serif" font-size="10.00">::readRegister</text>
</a>
</g>
</g>
<!-- Node1&#45;&gt;Node3 -->
<g id="edge2" class="edge"><title>Node1&#45;&gt;Node3</title>
<path fill="none" stroke="midnightblue" d="M121.732,-99.0842C130.634,-100.609 139.702,-102.161 148.398,-103.65"/>
<polygon fill="midnightblue" stroke="midnightblue" points="122.228,-95.6183 111.78,-97.3802 121.046,-102.518 122.228,-95.6183"/>
</g>
<!-- Node4 -->
<g id="node4" class="node"><title>Node4</title>
<g id="a_node4"><a xlink:href="$classLinux_1_1LinuxI2CDriver.html#aaa2c671ac80b0ab631281af3e228b352" xlink:title="Linux::LinuxI2CDriver\l::write">
<polygon fill="white" stroke="black" points="148.5,-49 148.5,-79 259.5,-79 259.5,-49 148.5,-49"/>
<text text-anchor="start" x="156.5" y="-67" font-family="Helvetica,sans-Serif" font-size="10.00">Linux::LinuxI2CDriver</text>
<text text-anchor="middle" x="204" y="-56" font-family="Helvetica,sans-Serif" font-size="10.00">::write</text>
</a>
</g>
</g>
<!-- Node1&#45;&gt;Node4 -->
<g id="edge3" class="edge"><title>Node1&#45;&gt;Node4</title>
<path fill="none" stroke="midnightblue" d="M121.732,-77.3591C130.634,-75.8958 139.702,-74.4051 148.398,-72.9756"/>
<polygon fill="midnightblue" stroke="midnightblue" points="121.08,-73.9192 111.78,-78.995 122.216,-80.8265 121.08,-73.9192"/>
</g>
<!-- Node6 -->
<g id="node6" class="node"><title>Node6</title>
<g id="a_node6"><a xlink:href="$classLinux_1_1LinuxI2CDriver.html#ae72eff15ea613b9b27de68309277f8a2" xlink:title="Linux::LinuxI2CDriver\l::writeRegister">
<polygon fill="white" stroke="black" points="148.5,-0 148.5,-30 259.5,-30 259.5,-0 148.5,-0"/>
<text text-anchor="start" x="156.5" y="-18" font-family="Helvetica,sans-Serif" font-size="10.00">Linux::LinuxI2CDriver</text>
<text text-anchor="middle" x="204" y="-7" font-family="Helvetica,sans-Serif" font-size="10.00">::writeRegister</text>
</a>
</g>
</g>
<!-- Node1&#45;&gt;Node6 -->
<g id="edge5" class="edge"><title>Node1&#45;&gt;Node6</title>
<path fill="none" stroke="midnightblue" d="M93.9311,-67.8893C110.37,-59.1011 130.037,-48.8108 148,-40 154.78,-36.6744 162.097,-33.2419 169.113,-30.0257"/>
<polygon fill="midnightblue" stroke="midnightblue" points="91.8157,-65.0525 84.6619,-72.8675 95.1278,-71.2194 91.8157,-65.0525"/>
</g>
<!-- Node5 -->
<g id="node5" class="node"><title>Node5</title>
<g id="a_node5"><a xlink:href="$classLinux_1_1LinuxI2CDriver.html#a74f69537b9ba27be6bc5f6bba519927b" xlink:title="Linux::LinuxI2CDriver\l::writeRegisters">
<polygon fill="white" stroke="black" points="296.5,-49 296.5,-79 407.5,-79 407.5,-49 296.5,-49"/>
<text text-anchor="start" x="304.5" y="-67" font-family="Helvetica,sans-Serif" font-size="10.00">Linux::LinuxI2CDriver</text>
<text text-anchor="middle" x="352" y="-56" font-family="Helvetica,sans-Serif" font-size="10.00">::writeRegisters</text>
</a>
</g>
</g>
<!-- Node4&#45;&gt;Node5 -->
<g id="edge4" class="edge"><title>Node4&#45;&gt;Node5</title>
<path fill="none" stroke="midnightblue" d="M270.019,-64C278.829,-64 287.796,-64 296.398,-64"/>
<polygon fill="midnightblue" stroke="midnightblue" points="269.78,-60.5001 259.78,-64 269.78,-67.5001 269.78,-60.5001"/>
</g>
</g>
</svg>
