<?xml version="1.0" encoding="UTF-8" standalone="no"?>
<!DOCTYPE svg PUBLIC "-//W3C//DTD SVG 1.1//EN"
 "http://www.w3.org/Graphics/SVG/1.1/DTD/svg11.dtd">
<!-- Generated by graphviz version 2.36.0 (20140111.2315)
 -->
<!-- Title: AP_HAL_AVR::AVRI2CDriver::_stop Pages: 1 -->
<svg width="530pt" height="185pt"
 viewBox="0.00 0.00 530.00 185.00" xmlns="http://www.w3.org/2000/svg" xmlns:xlink="http://www.w3.org/1999/xlink">
<g id="graph0" class="graph" transform="scale(1 1) rotate(0) translate(4 181)">
<title>AP_HAL_AVR::AVRI2CDriver::_stop</title>
<polygon fill="white" stroke="none" points="-4,4 -4,-181 526,-181 526,4 -4,4"/>
<!-- Node1 -->
<g id="node1" class="node"><title>Node1</title>
<polygon fill="#bfbfbf" stroke="black" points="0,-73 0,-103 150,-103 150,-73 0,-73"/>
<text text-anchor="start" x="8" y="-91" font-family="Helvetica,sans-Serif" font-size="10.00">AP_HAL_AVR::AVRI2CDriver</text>
<text text-anchor="middle" x="75" y="-80" font-family="Helvetica,sans-Serif" font-size="10.00">::_stop</text>
</g>
<!-- Node2 -->
<g id="node2" class="node"><title>Node2</title>
<g id="a_node2"><a xlink:href="$classAP__HAL__AVR_1_1AVRI2CDriver.html#a68a3d248c8d8f924e3543f68ff4558ba" xlink:title="AP_HAL_AVR::AVRI2CDriver\l::read">
<polygon fill="white" stroke="black" points="186,-147 186,-177 336,-177 336,-147 186,-147"/>
<text text-anchor="start" x="194" y="-165" font-family="Helvetica,sans-Serif" font-size="10.00">AP_HAL_AVR::AVRI2CDriver</text>
<text text-anchor="middle" x="261" y="-154" font-family="Helvetica,sans-Serif" font-size="10.00">::read</text>
</a>
</g>
</g>
<!-- Node1&#45;&gt;Node2 -->
<g id="edge1" class="edge"><title>Node1&#45;&gt;Node2</title>
<path fill="none" stroke="midnightblue" d="M117.261,-107.475C137.741,-116.86 162.969,-128.003 186,-137 194.715,-140.405 204.108,-143.79 213.181,-146.92"/>
<polygon fill="midnightblue" stroke="midnightblue" points="118.462,-104.175 107.915,-103.164 115.529,-110.531 118.462,-104.175"/>
</g>
<!-- Node3 -->
<g id="node3" class="node"><title>Node3</title>
<g id="a_node3"><a xlink:href="$classAP__HAL__AVR_1_1AVRI2CDriver.html#a670d461aa076a280f94c4a4310a1ab28" xlink:title="AP_HAL_AVR::AVRI2CDriver\l::readRegisters">
<polygon fill="white" stroke="black" points="186,-98 186,-128 336,-128 336,-98 186,-98"/>
<text text-anchor="start" x="194" y="-116" font-family="Helvetica,sans-Serif" font-size="10.00">AP_HAL_AVR::AVRI2CDriver</text>
<text text-anchor="middle" x="261" y="-105" font-family="Helvetica,sans-Serif" font-size="10.00">::readRegisters</text>
</a>
</g>
</g>
<!-- Node1&#45;&gt;Node3 -->
<g id="edge2" class="edge"><title>Node1&#45;&gt;Node3</title>
<path fill="none" stroke="midnightblue" d="M160.066,-99.422C168.654,-100.589 177.336,-101.768 185.808,-102.919"/>
<polygon fill="midnightblue" stroke="midnightblue" points="160.425,-95.9387 150.044,-98.0604 159.482,-102.875 160.425,-95.9387"/>
</g>
<!-- Node5 -->
<g id="node5" class="node"><title>Node5</title>
<g id="a_node5"><a xlink:href="$classAP__HAL__AVR_1_1AVRI2CDriver.html#abcfcfda9279d3a135f3e717573be29d5" xlink:title="AP_HAL_AVR::AVRI2CDriver\l::write">
<polygon fill="white" stroke="black" points="186,-49 186,-79 336,-79 336,-49 186,-49"/>
<text text-anchor="start" x="194" y="-67" font-family="Helvetica,sans-Serif" font-size="10.00">AP_HAL_AVR::AVRI2CDriver</text>
<text text-anchor="middle" x="261" y="-56" font-family="Helvetica,sans-Serif" font-size="10.00">::write</text>
</a>
</g>
</g>
<!-- Node1&#45;&gt;Node5 -->
<g id="edge4" class="edge"><title>Node1&#45;&gt;Node5</title>
<path fill="none" stroke="midnightblue" d="M160.066,-77.0349C168.654,-75.9147 177.336,-74.7823 185.808,-73.6773"/>
<polygon fill="midnightblue" stroke="midnightblue" points="159.508,-73.5779 150.044,-78.342 160.413,-80.5191 159.508,-73.5779"/>
</g>
<!-- Node6 -->
<g id="node6" class="node"><title>Node6</title>
<g id="a_node6"><a xlink:href="$classAP__HAL__AVR_1_1AVRI2CDriver.html#adc48d72cd3e1ebfeefa92475fc94ebd8" xlink:title="AP_HAL_AVR::AVRI2CDriver\l::writeRegisters">
<polygon fill="white" stroke="black" points="186,-0 186,-30 336,-30 336,-0 186,-0"/>
<text text-anchor="start" x="194" y="-18" font-family="Helvetica,sans-Serif" font-size="10.00">AP_HAL_AVR::AVRI2CDriver</text>
<text text-anchor="middle" x="261" y="-7" font-family="Helvetica,sans-Serif" font-size="10.00">::writeRegisters</text>
</a>
</g>
</g>
<!-- Node1&#45;&gt;Node6 -->
<g id="edge5" class="edge"><title>Node1&#45;&gt;Node6</title>
<path fill="none" stroke="midnightblue" d="M117.747,-68.7781C138.155,-59.6403 163.18,-48.8149 186,-40 194.728,-36.6284 204.127,-33.2581 213.201,-30.1334"/>
<polygon fill="midnightblue" stroke="midnightblue" points="116.106,-65.679 108.426,-72.9779 118.981,-72.0611 116.106,-65.679"/>
</g>
<!-- Node4 -->
<g id="node4" class="node"><title>Node4</title>
<g id="a_node4"><a xlink:href="$classAP__HAL__AVR_1_1AVRI2CDriver.html#ad7b1213f22eab08e296a7ff9424930c2" xlink:title="AP_HAL_AVR::AVRI2CDriver\l::readRegister">
<polygon fill="white" stroke="black" points="372,-98 372,-128 522,-128 522,-98 372,-98"/>
<text text-anchor="start" x="380" y="-116" font-family="Helvetica,sans-Serif" font-size="10.00">AP_HAL_AVR::AVRI2CDriver</text>
<text text-anchor="middle" x="447" y="-105" font-family="Helvetica,sans-Serif" font-size="10.00">::readRegister</text>
</a>
</g>
</g>
<!-- Node3&#45;&gt;Node4 -->
<g id="edge3" class="edge"><title>Node3&#45;&gt;Node4</title>
<path fill="none" stroke="midnightblue" d="M346.066,-113C354.654,-113 363.336,-113 371.808,-113"/>
<polygon fill="midnightblue" stroke="midnightblue" points="346.045,-109.5 336.044,-113 346.044,-116.5 346.045,-109.5"/>
</g>
<!-- Node7 -->
<g id="node7" class="node"><title>Node7</title>
<g id="a_node7"><a xlink:href="$classAP__HAL__AVR_1_1AVRI2CDriver.html#a10aac714efd03ad9d3fa9c2a7bf78ffd" xlink:title="AP_HAL_AVR::AVRI2CDriver\l::writeRegister">
<polygon fill="white" stroke="black" points="372,-0 372,-30 522,-30 522,-0 372,-0"/>
<text text-anchor="start" x="380" y="-18" font-family="Helvetica,sans-Serif" font-size="10.00">AP_HAL_AVR::AVRI2CDriver</text>
<text text-anchor="middle" x="447" y="-7" font-family="Helvetica,sans-Serif" font-size="10.00">::writeRegister</text>
</a>
</g>
</g>
<!-- Node6&#45;&gt;Node7 -->
<g id="edge6" class="edge"><title>Node6&#45;&gt;Node7</title>
<path fill="none" stroke="midnightblue" d="M346.066,-15C354.654,-15 363.336,-15 371.808,-15"/>
<polygon fill="midnightblue" stroke="midnightblue" points="346.045,-11.5001 336.044,-15 346.044,-18.5001 346.045,-11.5001"/>
</g>
</g>
</svg>
