<?xml version="1.0" encoding="UTF-8" standalone="no"?>
<!DOCTYPE svg PUBLIC "-//W3C//DTD SVG 1.1//EN"
 "http://www.w3.org/Graphics/SVG/1.1/DTD/svg11.dtd">
<!-- Generated by graphviz version 2.36.0 (20140111.2315)
 -->
<!-- Title: GCS_MAVLINK::send_statustext_all Pages: 1 -->
<svg width="496pt" height="66pt"
 viewBox="0.00 0.00 496.00 66.00" xmlns="http://www.w3.org/2000/svg" xmlns:xlink="http://www.w3.org/1999/xlink">
<g id="graph0" class="graph" transform="scale(1 1) rotate(0) translate(4 62)">
<title>GCS_MAVLINK::send_statustext_all</title>
<polygon fill="white" stroke="none" points="-4,4 -4,-62 492,-62 492,4 -4,4"/>
<!-- Node1 -->
<g id="node1" class="node"><title>Node1</title>
<polygon fill="#bfbfbf" stroke="black" points="0.5,-19.5 0.5,-38.5 179.5,-38.5 179.5,-19.5 0.5,-19.5"/>
<text text-anchor="middle" x="90" y="-26.5" font-family="Helvetica,sans-Serif" font-size="10.00">GCS_MAVLINK::send_statustext_all</text>
</g>
<!-- Node2 -->
<g id="node2" class="node"><title>Node2</title>
<g id="a_node2"><a xlink:href="$GCS__MAVLink_8cpp.html#a2a0fd455fd37f642e9eb67373a14b7d9" xlink:title="comm_get_txspace">
<polygon fill="white" stroke="black" points="216,-38.5 216,-57.5 318,-57.5 318,-38.5 216,-38.5"/>
<text text-anchor="middle" x="267" y="-45.5" font-family="Helvetica,sans-Serif" font-size="10.00">comm_get_txspace</text>
</a>
</g>
</g>
<!-- Node1&#45;&gt;Node2 -->
<g id="edge1" class="edge"><title>Node1&#45;&gt;Node2</title>
<path fill="none" stroke="midnightblue" d="M178.756,-38.5278C187.828,-39.5128 196.896,-40.4973 205.571,-41.4391"/>
<polygon fill="midnightblue" stroke="midnightblue" points="205.23,-44.9226 215.55,-42.5225 205.986,-37.9635 205.23,-44.9226"/>
</g>
<!-- Node4 -->
<g id="node4" class="node"><title>Node4</title>
<g id="a_node4"><a xlink:href="$AP__Progmem__AVR_8h.html#a00eef44be35a92b1ef4067ea49bea7a3" xlink:title="strncpy_P">
<polygon fill="white" stroke="black" points="236.5,-0.5 236.5,-19.5 297.5,-19.5 297.5,-0.5 236.5,-0.5"/>
<text text-anchor="middle" x="267" y="-7.5" font-family="Helvetica,sans-Serif" font-size="10.00">strncpy_P</text>
</a>
</g>
</g>
<!-- Node1&#45;&gt;Node4 -->
<g id="edge3" class="edge"><title>Node1&#45;&gt;Node4</title>
<path fill="none" stroke="midnightblue" d="M178.756,-19.4722C195.338,-17.6718 211.908,-15.8728 226.083,-14.3338"/>
<polygon fill="midnightblue" stroke="midnightblue" points="226.854,-17.7708 236.417,-13.2118 226.098,-10.8117 226.854,-17.7708"/>
</g>
<!-- Node3 -->
<g id="node3" class="node"><title>Node3</title>
<g id="a_node3"><a xlink:href="$classAP__HAL_1_1Stream.html#a7028834212873394e906bcaf7f4a06b3" xlink:title="AP_HAL::Stream::txspace">
<polygon fill="white" stroke="black" points="354.5,-38.5 354.5,-57.5 487.5,-57.5 487.5,-38.5 354.5,-38.5"/>
<text text-anchor="middle" x="421" y="-45.5" font-family="Helvetica,sans-Serif" font-size="10.00">AP_HAL::Stream::txspace</text>
</a>
</g>
</g>
<!-- Node2&#45;&gt;Node3 -->
<g id="edge2" class="edge"><title>Node2&#45;&gt;Node3</title>
<path fill="none" stroke="midnightblue" d="M318.192,-48C326.611,-48 335.509,-48 344.4,-48"/>
<polygon fill="midnightblue" stroke="midnightblue" points="344.41,-51.5001 354.41,-48 344.41,-44.5001 344.41,-51.5001"/>
</g>
</g>
</svg>
