<?xml version="1.0" encoding="UTF-8" standalone="no"?>
<!DOCTYPE svg PUBLIC "-//W3C//DTD SVG 1.1//EN"
 "http://www.w3.org/Graphics/SVG/1.1/DTD/svg11.dtd">
<!-- Generated by graphviz version 2.36.0 (20140111.2315)
 -->
<!-- Title: DataFlash_Class::Log_Write_Current Pages: 1 -->
<svg width="310pt" height="291pt"
 viewBox="0.00 0.00 310.00 291.00" xmlns="http://www.w3.org/2000/svg" xmlns:xlink="http://www.w3.org/1999/xlink">
<g id="graph0" class="graph" transform="scale(1 1) rotate(0) translate(4 287)">
<title>DataFlash_Class::Log_Write_Current</title>
<polygon fill="white" stroke="none" points="-4,4 -4,-287 306,-287 306,4 -4,4"/>
<!-- Node1 -->
<g id="node1" class="node"><title>Node1</title>
<polygon fill="#bfbfbf" stroke="black" points="0,-132 0,-162 114,-162 114,-132 0,-132"/>
<text text-anchor="start" x="8" y="-150" font-family="Helvetica,sans-Serif" font-size="10.00">DataFlash_Class::Log</text>
<text text-anchor="middle" x="57" y="-139" font-family="Helvetica,sans-Serif" font-size="10.00">_Write_Current</text>
</g>
<!-- Node2 -->
<g id="node2" class="node"><title>Node2</title>
<g id="a_node2"><a xlink:href="$classAP__BattMonitor.html#a08b53e709a3bd620196721e561afb6f3" xlink:title="AP_BattMonitor::voltage2">
<polygon fill="white" stroke="black" points="162,-263.5 162,-282.5 290,-282.5 290,-263.5 162,-263.5"/>
<text text-anchor="middle" x="226" y="-270.5" font-family="Helvetica,sans-Serif" font-size="10.00">AP_BattMonitor::voltage2</text>
</a>
</g>
</g>
<!-- Node1&#45;&gt;Node2 -->
<g id="edge1" class="edge"><title>Node1&#45;&gt;Node2</title>
<path fill="none" stroke="midnightblue" d="M66.95,-162.18C81.4178,-185.362 112.178,-229.378 150,-253 154.14,-255.586 158.609,-257.84 163.232,-259.805"/>
<polygon fill="midnightblue" stroke="midnightblue" points="162.29,-263.19 172.882,-263.445 164.761,-256.641 162.29,-263.19"/>
</g>
<!-- Node3 -->
<g id="node3" class="node"><title>Node3</title>
<g id="a_node3"><a xlink:href="$classAP__HAL_1_1Scheduler.html#a26b68339fc68a562d8d3a1238d0ec8c1" xlink:title="AP_HAL::Scheduler::\lmillis">
<polygon fill="white" stroke="black" points="171,-214 171,-244 281,-244 281,-214 171,-214"/>
<text text-anchor="start" x="179" y="-232" font-family="Helvetica,sans-Serif" font-size="10.00">AP_HAL::Scheduler::</text>
<text text-anchor="middle" x="226" y="-221" font-family="Helvetica,sans-Serif" font-size="10.00">millis</text>
</a>
</g>
</g>
<!-- Node1&#45;&gt;Node3 -->
<g id="edge2" class="edge"><title>Node1&#45;&gt;Node3</title>
<path fill="none" stroke="midnightblue" d="M79.1309,-162.074C97.2798,-174.527 124.479,-192.041 150,-204 154.696,-206.2 159.639,-208.296 164.654,-210.269"/>
<polygon fill="midnightblue" stroke="midnightblue" points="163.75,-213.668 174.342,-213.91 166.212,-207.116 163.75,-213.668"/>
</g>
<!-- Node4 -->
<g id="node4" class="node"><title>Node4</title>
<g id="a_node4"><a xlink:href="$classAP__BattMonitor.html#ab5789eb7d45ec25b685adfaaf9167284" xlink:title="voltage &#45; returns battery voltage in millivolts ">
<polygon fill="white" stroke="black" points="164.5,-175.5 164.5,-194.5 287.5,-194.5 287.5,-175.5 164.5,-175.5"/>
<text text-anchor="middle" x="226" y="-182.5" font-family="Helvetica,sans-Serif" font-size="10.00">AP_BattMonitor::voltage</text>
</a>
</g>
</g>
<!-- Node1&#45;&gt;Node4 -->
<g id="edge3" class="edge"><title>Node1&#45;&gt;Node4</title>
<path fill="none" stroke="midnightblue" d="M114.073,-159.759C133.19,-164.109 154.463,-168.95 173.227,-173.219"/>
<polygon fill="midnightblue" stroke="midnightblue" points="172.545,-176.654 183.073,-175.46 174.099,-169.828 172.545,-176.654"/>
</g>
<!-- Node5 -->
<g id="node5" class="node"><title>Node5</title>
<g id="a_node5"><a xlink:href="$classAP__BattMonitor.html#af73075a42b0aa50dca77e16625fb1122" xlink:title="current_amps &#45; returns the instantaneous current draw in amperes ">
<polygon fill="white" stroke="black" points="150.5,-137.5 150.5,-156.5 301.5,-156.5 301.5,-137.5 150.5,-137.5"/>
<text text-anchor="middle" x="226" y="-144.5" font-family="Helvetica,sans-Serif" font-size="10.00">AP_BattMonitor::current_amps</text>
</a>
</g>
</g>
<!-- Node1&#45;&gt;Node5 -->
<g id="edge4" class="edge"><title>Node1&#45;&gt;Node5</title>
<path fill="none" stroke="midnightblue" d="M114.073,-147C122.541,-147 131.433,-147 140.342,-147"/>
<polygon fill="midnightblue" stroke="midnightblue" points="140.386,-150.5 150.386,-147 140.386,-143.5 140.386,-150.5"/>
</g>
<!-- Node6 -->
<g id="node6" class="node"><title>Node6</title>
<g id="a_node6"><a xlink:href="$classAP__HAL_1_1AnalogIn.html#a84c87bc57f06182afc85725cafe22698" xlink:title="AP_HAL::AnalogIn::board\l_voltage">
<polygon fill="white" stroke="black" points="161.5,-88 161.5,-118 290.5,-118 290.5,-88 161.5,-88"/>
<text text-anchor="start" x="169.5" y="-106" font-family="Helvetica,sans-Serif" font-size="10.00">AP_HAL::AnalogIn::board</text>
<text text-anchor="middle" x="226" y="-95" font-family="Helvetica,sans-Serif" font-size="10.00">_voltage</text>
</a>
</g>
</g>
<!-- Node1&#45;&gt;Node6 -->
<g id="edge5" class="edge"><title>Node1&#45;&gt;Node6</title>
<path fill="none" stroke="midnightblue" d="M114.073,-132.226C128.162,-128.514 143.423,-124.493 157.987,-120.656"/>
<polygon fill="midnightblue" stroke="midnightblue" points="159.158,-123.967 167.936,-118.035 157.374,-117.198 159.158,-123.967"/>
</g>
<!-- Node7 -->
<g id="node7" class="node"><title>Node7</title>
<g id="a_node7"><a xlink:href="$classAP__BattMonitor.html#a5744db673ce4cbaffe3da159451c3d5f" xlink:title="current_total_mah &#45; returns total current drawn since start&#45;up in amp&#45;hours ">
<polygon fill="white" stroke="black" points="165,-39 165,-69 287,-69 287,-39 165,-39"/>
<text text-anchor="start" x="173" y="-57" font-family="Helvetica,sans-Serif" font-size="10.00">AP_BattMonitor::current</text>
<text text-anchor="middle" x="226" y="-46" font-family="Helvetica,sans-Serif" font-size="10.00">_total_mah</text>
</a>
</g>
</g>
<!-- Node1&#45;&gt;Node7 -->
<g id="edge6" class="edge"><title>Node1&#45;&gt;Node7</title>
<path fill="none" stroke="midnightblue" d="M74.8819,-131.947C92.5512,-116.837 121.624,-93.7417 150,-79 154.194,-76.821 158.617,-74.7759 163.132,-72.868"/>
<polygon fill="midnightblue" stroke="midnightblue" points="164.486,-76.0961 172.482,-69.1456 161.897,-69.5924 164.486,-76.0961"/>
</g>
<!-- Node8 -->
<g id="node8" class="node"><title>Node8</title>
<g id="a_node8"><a xlink:href="$classDataFlash__Class.html#af5e6aefb8f2136e9104be836dac88625" xlink:title="DataFlash_Class::WriteBlock">
<polygon fill="white" stroke="black" points="153,-0.5 153,-19.5 299,-19.5 299,-0.5 153,-0.5"/>
<text text-anchor="middle" x="226" y="-7.5" font-family="Helvetica,sans-Serif" font-size="10.00">DataFlash_Class::WriteBlock</text>
</a>
</g>
</g>
<!-- Node1&#45;&gt;Node8 -->
<g id="edge7" class="edge"><title>Node1&#45;&gt;Node8</title>
<path fill="none" stroke="midnightblue" d="M65.6535,-131.876C79.1582,-106.759 109.648,-56.583 150,-30 153.838,-27.4713 157.985,-25.2614 162.291,-23.3302"/>
<polygon fill="midnightblue" stroke="midnightblue" points="163.894,-26.4601 171.91,-19.5322 161.323,-19.9492 163.894,-26.4601"/>
</g>
</g>
</svg>
