<?xml version="1.0" encoding="UTF-8" standalone="no"?>
<!DOCTYPE svg PUBLIC "-//W3C//DTD SVG 1.1//EN"
 "http://www.w3.org/Graphics/SVG/1.1/DTD/svg11.dtd">
<!-- Generated by graphviz version 2.36.0 (20140111.2315)
 -->
<!-- Title: Vector3::normalize Pages: 1 -->
<svg width="1058pt" height="182pt"
 viewBox="0.00 0.00 1058.00 182.00" xmlns="http://www.w3.org/2000/svg" xmlns:xlink="http://www.w3.org/1999/xlink">
<g id="graph0" class="graph" transform="scale(1 1) rotate(0) translate(4 178)">
<title>Vector3::normalize</title>
<polygon fill="white" stroke="none" points="-4,4 -4,-178 1054,-178 1054,4 -4,4"/>
<!-- Node1 -->
<g id="node1" class="node"><title>Node1</title>
<polygon fill="#bfbfbf" stroke="black" points="0,-54.5 0,-73.5 98,-73.5 98,-54.5 0,-54.5"/>
<text text-anchor="middle" x="49" y="-61.5" font-family="Helvetica,sans-Serif" font-size="10.00">Vector3::normalize</text>
</g>
<!-- Node2 -->
<g id="node2" class="node"><title>Node2</title>
<g id="a_node2"><a xlink:href="$classHALSITL_1_1SITL__State.html#a1977515f421635a43a22c057f5a2f59c" xlink:title="HALSITL::SITL_State\l::_rand_vec3f">
<polygon fill="white" stroke="black" points="136.5,-98 136.5,-128 249.5,-128 249.5,-98 136.5,-98"/>
<text text-anchor="start" x="144.5" y="-116" font-family="Helvetica,sans-Serif" font-size="10.00">HALSITL::SITL_State</text>
<text text-anchor="middle" x="193" y="-105" font-family="Helvetica,sans-Serif" font-size="10.00">::_rand_vec3f</text>
</a>
</g>
</g>
<!-- Node1&#45;&gt;Node2 -->
<g id="edge1" class="edge"><title>Node1&#45;&gt;Node2</title>
<path fill="none" stroke="midnightblue" d="M87.3796,-76.8986C106.111,-83.3622 128.901,-91.2265 148.423,-97.963"/>
<polygon fill="midnightblue" stroke="midnightblue" points="88.3109,-73.5175 77.7161,-73.564 86.0274,-80.1346 88.3109,-73.5175"/>
</g>
<!-- Node12 -->
<g id="node12" class="node"><title>Node12</title>
<g id="a_node12"><a xlink:href="$classAP__AHRS__DCM.html#a8c3304b59bc6a27f24c686985c100549" xlink:title="AP_AHRS_DCM::drift\l_correction">
<polygon fill="white" stroke="black" points="135.5,-49 135.5,-79 250.5,-79 250.5,-49 135.5,-49"/>
<text text-anchor="start" x="143.5" y="-67" font-family="Helvetica,sans-Serif" font-size="10.00">AP_AHRS_DCM::drift</text>
<text text-anchor="middle" x="193" y="-56" font-family="Helvetica,sans-Serif" font-size="10.00">_correction</text>
</a>
</g>
</g>
<!-- Node1&#45;&gt;Node12 -->
<g id="edge11" class="edge"><title>Node1&#45;&gt;Node12</title>
<path fill="none" stroke="midnightblue" d="M108.316,-64C117.177,-64 126.309,-64 135.138,-64"/>
<polygon fill="midnightblue" stroke="midnightblue" points="108.075,-60.5001 98.0747,-64 108.075,-67.5001 108.075,-60.5001"/>
</g>
<!-- Node15 -->
<g id="node15" class="node"><title>Node15</title>
<g id="a_node15"><a xlink:href="$classNavEKF.html#a290932b02347c5247f036fbc3c7af9d8" xlink:title="NavEKF::InitialiseFilter\lBootstrap">
<polygon fill="white" stroke="black" points="134,-0 134,-30 252,-30 252,-0 134,-0"/>
<text text-anchor="start" x="142" y="-18" font-family="Helvetica,sans-Serif" font-size="10.00">NavEKF::InitialiseFilter</text>
<text text-anchor="middle" x="193" y="-7" font-family="Helvetica,sans-Serif" font-size="10.00">Bootstrap</text>
</a>
</g>
</g>
<!-- Node1&#45;&gt;Node15 -->
<g id="edge14" class="edge"><title>Node1&#45;&gt;Node15</title>
<path fill="none" stroke="midnightblue" d="M87.3796,-51.1014C106.111,-44.6378 128.901,-36.7735 148.423,-30.037"/>
<polygon fill="midnightblue" stroke="midnightblue" points="86.0274,-47.8654 77.7161,-54.436 88.3109,-54.4825 86.0274,-47.8654"/>
</g>
<!-- Node3 -->
<g id="node3" class="node"><title>Node3</title>
<g id="a_node3"><a xlink:href="$classHALSITL_1_1SITL__State.html#aa519ffad661a850c5b8534c2973fd888" xlink:title="HALSITL::SITL_State\l::_update_compass">
<polygon fill="white" stroke="black" points="295.5,-98 295.5,-128 408.5,-128 408.5,-98 295.5,-98"/>
<text text-anchor="start" x="303.5" y="-116" font-family="Helvetica,sans-Serif" font-size="10.00">HALSITL::SITL_State</text>
<text text-anchor="middle" x="352" y="-105" font-family="Helvetica,sans-Serif" font-size="10.00">::_update_compass</text>
</a>
</g>
</g>
<!-- Node2&#45;&gt;Node3 -->
<g id="edge2" class="edge"><title>Node2&#45;&gt;Node3</title>
<path fill="none" stroke="midnightblue" d="M260.013,-113C271.784,-113 283.94,-113 295.385,-113"/>
<polygon fill="midnightblue" stroke="midnightblue" points="259.794,-109.5 249.794,-113 259.794,-116.5 259.794,-109.5"/>
</g>
<!-- Node4 -->
<g id="node4" class="node"><title>Node4</title>
<g id="a_node4"><a xlink:href="$classHALSITL_1_1SITL__State.html#a431cc90b2798830af85bcd65d0dade9f" xlink:title="HALSITL::SITL_State\l::_sitl_setup">
<polygon fill="white" stroke="black" points="452.5,-144 452.5,-174 565.5,-174 565.5,-144 452.5,-144"/>
<text text-anchor="start" x="460.5" y="-162" font-family="Helvetica,sans-Serif" font-size="10.00">HALSITL::SITL_State</text>
<text text-anchor="middle" x="509" y="-151" font-family="Helvetica,sans-Serif" font-size="10.00">::_sitl_setup</text>
</a>
</g>
</g>
<!-- Node3&#45;&gt;Node4 -->
<g id="edge3" class="edge"><title>Node3&#45;&gt;Node4</title>
<path fill="none" stroke="midnightblue" d="M413.622,-130.991C428.107,-135.29 443.419,-139.834 457.398,-143.983"/>
<polygon fill="midnightblue" stroke="midnightblue" points="414.335,-127.552 403.753,-128.062 412.344,-134.263 414.335,-127.552"/>
</g>
<!-- Node8 -->
<g id="node8" class="node"><title>Node8</title>
<g id="a_node8"><a xlink:href="$classHALSITL_1_1SITL__State.html#ae31c93a26ca780bb508dded2498e2e93" xlink:title="HALSITL::SITL_State\l::_fdm_input_step">
<polygon fill="white" stroke="black" points="452.5,-95 452.5,-125 565.5,-125 565.5,-95 452.5,-95"/>
<text text-anchor="start" x="460.5" y="-113" font-family="Helvetica,sans-Serif" font-size="10.00">HALSITL::SITL_State</text>
<text text-anchor="middle" x="509" y="-102" font-family="Helvetica,sans-Serif" font-size="10.00">::_fdm_input_step</text>
</a>
</g>
</g>
<!-- Node3&#45;&gt;Node8 -->
<g id="edge7" class="edge"><title>Node3&#45;&gt;Node8</title>
<path fill="none" stroke="midnightblue" d="M418.688,-111.729C429.892,-111.512 441.434,-111.288 452.346,-111.077"/>
<polygon fill="midnightblue" stroke="midnightblue" points="418.451,-108.232 408.521,-111.925 418.587,-115.231 418.451,-108.232"/>
</g>
<!-- Node5 -->
<g id="node5" class="node"><title>Node5</title>
<g id="a_node5"><a xlink:href="$classHALSITL_1_1SITL__State.html#a5211ba971055052489d9817c3388c4c2" xlink:title="HALSITL::SITL_State\l::_parse_command_line">
<polygon fill="white" stroke="black" points="602,-144 602,-174 722,-174 722,-144 602,-144"/>
<text text-anchor="start" x="610" y="-162" font-family="Helvetica,sans-Serif" font-size="10.00">HALSITL::SITL_State</text>
<text text-anchor="middle" x="662" y="-151" font-family="Helvetica,sans-Serif" font-size="10.00">::_parse_command_line</text>
</a>
</g>
</g>
<!-- Node4&#45;&gt;Node5 -->
<g id="edge4" class="edge"><title>Node4&#45;&gt;Node5</title>
<path fill="none" stroke="midnightblue" d="M575.857,-159C584.516,-159 593.348,-159 601.886,-159"/>
<polygon fill="midnightblue" stroke="midnightblue" points="575.798,-155.5 565.798,-159 575.798,-162.5 575.798,-155.5"/>
</g>
<!-- Node6 -->
<g id="node6" class="node"><title>Node6</title>
<g id="a_node6"><a xlink:href="$classHALSITL_1_1SITL__State.html#a7059cb4e279007aae9b06757a68c15af" xlink:title="HALSITL::SITL_State\l::init">
<polygon fill="white" stroke="black" points="765.5,-144 765.5,-174 878.5,-174 878.5,-144 765.5,-144"/>
<text text-anchor="start" x="773.5" y="-162" font-family="Helvetica,sans-Serif" font-size="10.00">HALSITL::SITL_State</text>
<text text-anchor="middle" x="822" y="-151" font-family="Helvetica,sans-Serif" font-size="10.00">::init</text>
</a>
</g>
</g>
<!-- Node5&#45;&gt;Node6 -->
<g id="edge5" class="edge"><title>Node5&#45;&gt;Node6</title>
<path fill="none" stroke="midnightblue" d="M732.318,-159C743.35,-159 754.639,-159 765.305,-159"/>
<polygon fill="midnightblue" stroke="midnightblue" points="732.283,-155.5 722.283,-159 732.283,-162.5 732.283,-155.5"/>
</g>
<!-- Node7 -->
<g id="node7" class="node"><title>Node7</title>
<g id="a_node7"><a xlink:href="$classHAL__SITL.html#aaee5180f1c92899c19422d24a3ec42d3" xlink:title="HAL_SITL::init">
<polygon fill="white" stroke="black" points="945.5,-149.5 945.5,-168.5 1026.5,-168.5 1026.5,-149.5 945.5,-149.5"/>
<text text-anchor="middle" x="986" y="-156.5" font-family="Helvetica,sans-Serif" font-size="10.00">HAL_SITL::init</text>
</a>
</g>
</g>
<!-- Node6&#45;&gt;Node7 -->
<g id="edge6" class="edge"><title>Node6&#45;&gt;Node7</title>
<path fill="none" stroke="midnightblue" d="M888.956,-159C908.141,-159 928.492,-159 945.5,-159"/>
<polygon fill="midnightblue" stroke="midnightblue" points="888.751,-155.5 878.751,-159 888.751,-162.5 888.751,-155.5"/>
</g>
<!-- Node9 -->
<g id="node9" class="node"><title>Node9</title>
<g id="a_node9"><a xlink:href="$classHALSITL_1_1SITL__State.html#a3eeaf330efded46259bbf64fc53e6b9f" xlink:title="HALSITL::SITL_State\l::wait_clock">
<polygon fill="white" stroke="black" points="605.5,-95 605.5,-125 718.5,-125 718.5,-95 605.5,-95"/>
<text text-anchor="start" x="613.5" y="-113" font-family="Helvetica,sans-Serif" font-size="10.00">HALSITL::SITL_State</text>
<text text-anchor="middle" x="662" y="-102" font-family="Helvetica,sans-Serif" font-size="10.00">::wait_clock</text>
</a>
</g>
</g>
<!-- Node8&#45;&gt;Node9 -->
<g id="edge8" class="edge"><title>Node8&#45;&gt;Node9</title>
<path fill="none" stroke="midnightblue" d="M575.941,-110C585.779,-110 595.837,-110 605.432,-110"/>
<polygon fill="midnightblue" stroke="midnightblue" points="575.798,-106.5 565.798,-110 575.798,-113.5 575.798,-106.5"/>
</g>
<!-- Node10 -->
<g id="node10" class="node"><title>Node10</title>
<g id="a_node10"><a xlink:href="$classHALSITL_1_1SITLScheduler.html#a4128e7f01b3e88fcb890ed98d91e9b10" xlink:title="HALSITL::SITLScheduler\l::delay_microseconds">
<polygon fill="white" stroke="black" points="758,-95 758,-125 886,-125 886,-95 758,-95"/>
<text text-anchor="start" x="766" y="-113" font-family="Helvetica,sans-Serif" font-size="10.00">HALSITL::SITLScheduler</text>
<text text-anchor="middle" x="822" y="-102" font-family="Helvetica,sans-Serif" font-size="10.00">::delay_microseconds</text>
</a>
</g>
</g>
<!-- Node9&#45;&gt;Node10 -->
<g id="edge9" class="edge"><title>Node9&#45;&gt;Node10</title>
<path fill="none" stroke="midnightblue" d="M728.988,-110C738.586,-110 748.447,-110 757.984,-110"/>
<polygon fill="midnightblue" stroke="midnightblue" points="728.705,-106.5 718.705,-110 728.705,-113.5 728.705,-106.5"/>
</g>
<!-- Node11 -->
<g id="node11" class="node"><title>Node11</title>
<g id="a_node11"><a xlink:href="$classHALSITL_1_1SITLScheduler.html#af7f89d00311bc23d39e38d1a0861cc42" xlink:title="HALSITL::SITLScheduler\l::delay">
<polygon fill="white" stroke="black" points="922,-95 922,-125 1050,-125 1050,-95 922,-95"/>
<text text-anchor="start" x="930" y="-113" font-family="Helvetica,sans-Serif" font-size="10.00">HALSITL::SITLScheduler</text>
<text text-anchor="middle" x="986" y="-102" font-family="Helvetica,sans-Serif" font-size="10.00">::delay</text>
</a>
</g>
</g>
<!-- Node10&#45;&gt;Node11 -->
<g id="edge10" class="edge"><title>Node10&#45;&gt;Node11</title>
<path fill="none" stroke="midnightblue" d="M896.374,-110C904.865,-110 913.469,-110 921.808,-110"/>
<polygon fill="midnightblue" stroke="midnightblue" points="896.097,-106.5 886.097,-110 896.097,-113.5 896.097,-106.5"/>
</g>
<!-- Node13 -->
<g id="node13" class="node"><title>Node13</title>
<g id="a_node13"><a xlink:href="$classAP__AHRS__DCM.html#a6bf59b99999767fdbf4dfd363bc51bfd" xlink:title="AP_AHRS_DCM::update">
<polygon fill="white" stroke="black" points="288,-54.5 288,-73.5 416,-73.5 416,-54.5 288,-54.5"/>
<text text-anchor="middle" x="352" y="-61.5" font-family="Helvetica,sans-Serif" font-size="10.00">AP_AHRS_DCM::update</text>
</a>
</g>
</g>
<!-- Node12&#45;&gt;Node13 -->
<g id="edge12" class="edge"><title>Node12&#45;&gt;Node13</title>
<path fill="none" stroke="midnightblue" d="M260.693,-64C269.662,-64 278.842,-64 287.75,-64"/>
<polygon fill="midnightblue" stroke="midnightblue" points="260.681,-60.5001 250.681,-64 260.681,-67.5001 260.681,-60.5001"/>
</g>
<!-- Node14 -->
<g id="node14" class="node"><title>Node14</title>
<g id="a_node14"><a xlink:href="$AHRS__Test_8pde.html#a0b33edabd7f1c4e4a0bf32c67269be2f" xlink:title="loop">
<polygon fill="white" stroke="black" points="491.5,-54.5 491.5,-73.5 526.5,-73.5 526.5,-54.5 491.5,-54.5"/>
<text text-anchor="middle" x="509" y="-61.5" font-family="Helvetica,sans-Serif" font-size="10.00">loop</text>
</a>
</g>
</g>
<!-- Node13&#45;&gt;Node14 -->
<g id="edge13" class="edge"><title>Node13&#45;&gt;Node14</title>
<path fill="none" stroke="midnightblue" d="M426.055,-64C450.415,-64 475.362,-64 491.228,-64"/>
<polygon fill="midnightblue" stroke="midnightblue" points="426.044,-60.5001 416.044,-64 426.044,-67.5001 426.044,-60.5001"/>
</g>
</g>
</svg>
