<?xml version="1.0" encoding="UTF-8" standalone="no"?>
<!DOCTYPE svg PUBLIC "-//W3C//DTD SVG 1.1//EN"
 "http://www.w3.org/Graphics/SVG/1.1/DTD/svg11.dtd">
<!-- Generated by graphviz version 2.36.0 (20140111.2315)
 -->
<!-- Title: CRRCSim::send_servos_heli Pages: 1 -->
<svg width="598pt" height="47pt"
 viewBox="0.00 0.00 598.00 47.00" xmlns="http://www.w3.org/2000/svg" xmlns:xlink="http://www.w3.org/1999/xlink">
<g id="graph0" class="graph" transform="scale(1 1) rotate(0) translate(4 43)">
<title>CRRCSim::send_servos_heli</title>
<polygon fill="white" stroke="none" points="-4,4 -4,-43 594,-43 594,4 -4,4"/>
<!-- Node1 -->
<g id="node1" class="node"><title>Node1</title>
<polygon fill="#bfbfbf" stroke="black" points="0,-0.5 0,-19.5 146,-19.5 146,-0.5 0,-0.5"/>
<text text-anchor="middle" x="73" y="-7.5" font-family="Helvetica,sans-Serif" font-size="10.00">CRRCSim::send_servos_heli</text>
</g>
<!-- Node2 -->
<g id="node2" class="node"><title>Node2</title>
<g id="a_node2"><a xlink:href="$classCRRCSim.html#afc2aa7813970f3eeba2585f7fc7db092" xlink:title="CRRCSim::send_servos">
<polygon fill="white" stroke="black" points="182.5,-0.5 182.5,-19.5 307.5,-19.5 307.5,-0.5 182.5,-0.5"/>
<text text-anchor="middle" x="245" y="-7.5" font-family="Helvetica,sans-Serif" font-size="10.00">CRRCSim::send_servos</text>
</a>
</g>
</g>
<!-- Node1&#45;&gt;Node2 -->
<g id="edge1" class="edge"><title>Node1&#45;&gt;Node2</title>
<path fill="none" stroke="midnightblue" d="M156.312,-10C165.049,-10 173.824,-10 182.267,-10"/>
<polygon fill="midnightblue" stroke="midnightblue" points="156.095,-6.5001 146.095,-10 156.095,-13.5001 156.095,-6.5001"/>
</g>
<!-- Node3 -->
<g id="node3" class="node"><title>Node3</title>
<g id="a_node3"><a xlink:href="$classCRRCSim.html#a372323133793618a7ff4bd13c156e91f" xlink:title="CRRCSim::recv_fdm">
<polygon fill="white" stroke="black" points="344,-19.5 344,-38.5 454,-38.5 454,-19.5 344,-19.5"/>
<text text-anchor="middle" x="399" y="-26.5" font-family="Helvetica,sans-Serif" font-size="10.00">CRRCSim::recv_fdm</text>
</a>
</g>
</g>
<!-- Node2&#45;&gt;Node3 -->
<g id="edge2" class="edge"><title>Node2&#45;&gt;Node3</title>
<path fill="none" stroke="midnightblue" d="M317.897,-18.9871C326.527,-20.0659 335.229,-21.1536 343.554,-22.1942"/>
<polygon fill="midnightblue" stroke="midnightblue" points="318.181,-15.4955 307.824,-17.728 317.313,-22.4414 318.181,-15.4955"/>
</g>
<!-- Node4 -->
<g id="node4" class="node"><title>Node4</title>
<g id="a_node4"><a xlink:href="$classCRRCSim.html#ab08e79ebbb84fd46e62c3da83f2c650f" xlink:title="CRRCSim::update">
<polygon fill="white" stroke="black" points="490.5,-0.5 490.5,-19.5 589.5,-19.5 589.5,-0.5 490.5,-0.5"/>
<text text-anchor="middle" x="540" y="-7.5" font-family="Helvetica,sans-Serif" font-size="10.00">CRRCSim::update</text>
</a>
</g>
</g>
<!-- Node2&#45;&gt;Node4 -->
<g id="edge4" class="edge"><title>Node2&#45;&gt;Node4</title>
<path fill="none" stroke="midnightblue" d="M317.91,-10C371.538,-10 443.352,-10 490.373,-10"/>
<polygon fill="midnightblue" stroke="midnightblue" points="317.78,-6.5001 307.78,-10 317.78,-13.5001 317.78,-6.5001"/>
</g>
<!-- Node3&#45;&gt;Node4 -->
<g id="edge3" class="edge"><title>Node3&#45;&gt;Node4</title>
<path fill="none" stroke="midnightblue" d="M464.289,-20.2122C473.007,-19.0206 481.835,-17.8139 490.22,-16.6678"/>
<polygon fill="midnightblue" stroke="midnightblue" points="463.573,-16.7775 454.139,-21.5997 464.521,-23.7131 463.573,-16.7775"/>
</g>
</g>
</svg>
