<?xml version="1.0" encoding="UTF-8" standalone="no"?>
<!DOCTYPE svg PUBLIC "-//W3C//DTD SVG 1.1//EN"
 "http://www.w3.org/Graphics/SVG/1.1/DTD/svg11.dtd">
<!-- Generated by graphviz version 2.36.0 (20140111.2315)
 -->
<!-- Title: Butter2::filter Pages: 1 -->
<svg width="250pt" height="28pt"
 viewBox="0.00 0.00 250.00 28.00" xmlns="http://www.w3.org/2000/svg" xmlns:xlink="http://www.w3.org/1999/xlink">
<g id="graph0" class="graph" transform="scale(1 1) rotate(0) translate(4 24)">
<title>Butter2::filter</title>
<polygon fill="white" stroke="none" points="-4,4 -4,-24 246,-24 246,4 -4,4"/>
<!-- Node1 -->
<g id="node1" class="node"><title>Node1</title>
<polygon fill="#bfbfbf" stroke="black" points="0.5,-0.5 0.5,-19.5 73.5,-19.5 73.5,-0.5 0.5,-0.5"/>
<text text-anchor="middle" x="37" y="-7.5" font-family="Helvetica,sans-Serif" font-size="10.00">Butter2::filter</text>
</g>
<!-- Node2 -->
<g id="node2" class="node"><title>Node2</title>
<g id="a_node2"><a xlink:href="$Filter_8pde.html#a935a644f2f83fada63bde53d71d2c357" xlink:title="readTemp">
<polygon fill="white" stroke="black" points="110,-0.5 110,-19.5 170,-19.5 170,-0.5 110,-0.5"/>
<text text-anchor="middle" x="140" y="-7.5" font-family="Helvetica,sans-Serif" font-size="10.00">readTemp</text>
</a>
</g>
</g>
<!-- Node1&#45;&gt;Node2 -->
<g id="edge1" class="edge"><title>Node1&#45;&gt;Node2</title>
<path fill="none" stroke="midnightblue" d="M83.7945,-10C92.6019,-10 101.602,-10 109.71,-10"/>
<polygon fill="midnightblue" stroke="midnightblue" points="83.6089,-6.5001 73.6088,-10 83.6088,-13.5001 83.6089,-6.5001"/>
</g>
<!-- Node3 -->
<g id="node3" class="node"><title>Node3</title>
<g id="a_node3"><a xlink:href="$Filter_8pde.html#afe461d27b9c48d5921c00d521181f12f" xlink:title="loop">
<polygon fill="white" stroke="black" points="206.5,-0.5 206.5,-19.5 241.5,-19.5 241.5,-0.5 206.5,-0.5"/>
<text text-anchor="middle" x="224" y="-7.5" font-family="Helvetica,sans-Serif" font-size="10.00">loop</text>
</a>
</g>
</g>
<!-- Node2&#45;&gt;Node3 -->
<g id="edge2" class="edge"><title>Node2&#45;&gt;Node3</title>
<path fill="none" stroke="midnightblue" d="M180.353,-10C189.527,-10 198.81,-10 206.363,-10"/>
<polygon fill="midnightblue" stroke="midnightblue" points="180.141,-6.5001 170.141,-10 180.141,-13.5001 180.141,-6.5001"/>
</g>
</g>
</svg>
