<?xml version="1.0" encoding="UTF-8" standalone="no"?>
<!DOCTYPE svg PUBLIC "-//W3C//DTD SVG 1.1//EN"
 "http://www.w3.org/Graphics/SVG/1.1/DTD/svg11.dtd">
<!-- Generated by graphviz version 2.36.0 (20140111.2315)
 -->
<!-- Title: AP_InertialSensor_MPU9150::_set_gyro_filter_frequency Pages: 1 -->
<svg width="432pt" height="38pt"
 viewBox="0.00 0.00 432.00 38.00" xmlns="http://www.w3.org/2000/svg" xmlns:xlink="http://www.w3.org/1999/xlink">
<g id="graph0" class="graph" transform="scale(1 1) rotate(0) translate(4 34)">
<title>AP_InertialSensor_MPU9150::_set_gyro_filter_frequency</title>
<polygon fill="white" stroke="none" points="-4,4 -4,-34 428,-34 428,4 -4,4"/>
<!-- Node1 -->
<g id="node1" class="node"><title>Node1</title>
<polygon fill="#bfbfbf" stroke="black" points="0,-0 0,-30 144,-30 144,-0 0,-0"/>
<text text-anchor="start" x="8" y="-18" font-family="Helvetica,sans-Serif" font-size="10.00">AP_InertialSensor_MPU9150</text>
<text text-anchor="middle" x="72" y="-7" font-family="Helvetica,sans-Serif" font-size="10.00">::_set_gyro_filter_frequency</text>
</g>
<!-- Node2 -->
<g id="node2" class="node"><title>Node2</title>
<g id="a_node2"><a xlink:href="$classLowPassFilter2p.html#a354e914d7d8979e54134c3077ee8359a" xlink:title="LowPassFilter2p::set\l_cutoff_frequency">
<polygon fill="white" stroke="black" points="180.5,-0 180.5,-30 289.5,-30 289.5,-0 180.5,-0"/>
<text text-anchor="start" x="188.5" y="-18" font-family="Helvetica,sans-Serif" font-size="10.00">LowPassFilter2p::set</text>
<text text-anchor="middle" x="235" y="-7" font-family="Helvetica,sans-Serif" font-size="10.00">_cutoff_frequency</text>
</a>
</g>
</g>
<!-- Node1&#45;&gt;Node2 -->
<g id="edge1" class="edge"><title>Node1&#45;&gt;Node2</title>
<path fill="none" stroke="midnightblue" d="M144.086,-15C152.709,-15 161.479,-15 169.992,-15"/>
<polygon fill="midnightblue" stroke="midnightblue" points="170.222,-18.5001 180.221,-15 170.221,-11.5001 170.222,-18.5001"/>
</g>
<!-- Node3 -->
<g id="node3" class="node"><title>Node3</title>
<g id="a_node3"><a xlink:href="$classDigitalBiquadFilter.html#a24c076203eb25a5744c867093da51d83" xlink:title="DigitalBiquadFilter\l::compute_params">
<polygon fill="white" stroke="black" points="326,-0 326,-30 424,-30 424,-0 326,-0"/>
<text text-anchor="start" x="334" y="-18" font-family="Helvetica,sans-Serif" font-size="10.00">DigitalBiquadFilter</text>
<text text-anchor="middle" x="375" y="-7" font-family="Helvetica,sans-Serif" font-size="10.00">::compute_params</text>
</a>
</g>
</g>
<!-- Node2&#45;&gt;Node3 -->
<g id="edge2" class="edge"><title>Node2&#45;&gt;Node3</title>
<path fill="none" stroke="midnightblue" d="M289.75,-15C298.143,-15 306.853,-15 315.349,-15"/>
<polygon fill="midnightblue" stroke="midnightblue" points="315.571,-18.5001 325.571,-15 315.571,-11.5001 315.571,-18.5001"/>
</g>
</g>
</svg>
