<?xml version="1.0" encoding="UTF-8" standalone="no"?>
<!DOCTYPE svg PUBLIC "-//W3C//DTD SVG 1.1//EN"
 "http://www.w3.org/Graphics/SVG/1.1/DTD/svg11.dtd">
<!-- Generated by graphviz version 2.36.0 (20140111.2315)
 -->
<!-- Title: AP_HAL::UARTDriver::begin Pages: 1 -->
<svg width="726pt" height="595pt"
 viewBox="0.00 0.00 726.00 595.00" xmlns="http://www.w3.org/2000/svg" xmlns:xlink="http://www.w3.org/1999/xlink">
<g id="graph0" class="graph" transform="scale(1 1) rotate(0) translate(4 591)">
<title>AP_HAL::UARTDriver::begin</title>
<polygon fill="white" stroke="none" points="-4,4 -4,-591 722,-591 722,4 -4,4"/>
<!-- Node1 -->
<g id="node1" class="node"><title>Node1</title>
<polygon fill="#bfbfbf" stroke="black" points="0.5,-273 0.5,-303 115.5,-303 115.5,-273 0.5,-273"/>
<text text-anchor="start" x="8.5" y="-291" font-family="Helvetica,sans-Serif" font-size="10.00">AP_HAL::UARTDriver</text>
<text text-anchor="middle" x="58" y="-280" font-family="Helvetica,sans-Serif" font-size="10.00">::begin</text>
</g>
<!-- Node2 -->
<g id="node2" class="node"><title>Node2</title>
<g id="a_node2"><a xlink:href="$classAP__GPS__UBLOX.html#afb91ccbcc4849251ee0a39e3ef419375" xlink:title="AP_GPS_UBLOX::_configure_gps">
<polygon fill="white" stroke="black" points="152.5,-559.5 152.5,-578.5 319.5,-578.5 319.5,-559.5 152.5,-559.5"/>
<text text-anchor="middle" x="236" y="-566.5" font-family="Helvetica,sans-Serif" font-size="10.00">AP_GPS_UBLOX::_configure_gps</text>
</a>
</g>
</g>
<!-- Node1&#45;&gt;Node2 -->
<g id="edge1" class="edge"><title>Node1&#45;&gt;Node2</title>
<path fill="none" stroke="midnightblue" d="M60.5261,-313.165C65.0523,-364.869 82.8285,-483.512 152,-547 157.711,-552.242 164.526,-556.262 171.762,-559.34"/>
<polygon fill="midnightblue" stroke="midnightblue" points="64.0153,-312.889 59.7476,-303.192 57.0365,-313.434 64.0153,-312.889"/>
</g>
<!-- Node4 -->
<g id="node4" class="node"><title>Node4</title>
<g id="a_node4"><a xlink:href="$classAP__GPS__UBLOX.html#a16ae8ab4b0babfbc2245beb0a438ec33" xlink:title="AP_GPS_UBLOX::_parse_gps">
<polygon fill="white" stroke="black" points="160,-518.5 160,-537.5 312,-537.5 312,-518.5 160,-518.5"/>
<text text-anchor="middle" x="236" y="-525.5" font-family="Helvetica,sans-Serif" font-size="10.00">AP_GPS_UBLOX::_parse_gps</text>
</a>
</g>
</g>
<!-- Node1&#45;&gt;Node4 -->
<g id="edge3" class="edge"><title>Node1&#45;&gt;Node4</title>
<path fill="none" stroke="midnightblue" d="M62.0977,-313.154C69.1734,-359.354 90.9229,-457.685 152,-509 156.527,-512.804 161.666,-515.882 167.115,-518.37"/>
<polygon fill="midnightblue" stroke="midnightblue" points="65.5407,-312.505 60.6661,-303.098 58.6106,-313.492 65.5407,-312.505"/>
</g>
<!-- Node6 -->
<g id="node6" class="node"><title>Node6</title>
<g id="a_node6"><a xlink:href="$classAP__GPS.html#a4bdd5c70ed358b4147a58c7d09f040dd" xlink:title="AP_GPS::detect_instance">
<polygon fill="white" stroke="black" points="170.5,-480.5 170.5,-499.5 301.5,-499.5 301.5,-480.5 170.5,-480.5"/>
<text text-anchor="middle" x="236" y="-487.5" font-family="Helvetica,sans-Serif" font-size="10.00">AP_GPS::detect_instance</text>
</a>
</g>
</g>
<!-- Node1&#45;&gt;Node6 -->
<g id="edge5" class="edge"><title>Node1&#45;&gt;Node6</title>
<path fill="none" stroke="midnightblue" d="M64.6655,-313.129C74.9509,-352.767 100.56,-429.461 152,-470 157.472,-474.312 163.732,-477.715 170.306,-480.397"/>
<polygon fill="midnightblue" stroke="midnightblue" points="68.0128,-312.084 62.2148,-303.217 61.2174,-313.764 68.0128,-312.084"/>
</g>
<!-- Node10 -->
<g id="node10" class="node"><title>Node10</title>
<g id="a_node10"><a xlink:href="$classGCS__MAVLINK.html#adecc982b9dd27229f29b0756733ed137" xlink:title="GCS_MAVLINK::handle\l_serial_control">
<polygon fill="white" stroke="black" points="175,-431 175,-461 297,-461 297,-431 175,-431"/>
<text text-anchor="start" x="183" y="-449" font-family="Helvetica,sans-Serif" font-size="10.00">GCS_MAVLINK::handle</text>
<text text-anchor="middle" x="236" y="-438" font-family="Helvetica,sans-Serif" font-size="10.00">_serial_control</text>
</a>
</g>
</g>
<!-- Node1&#45;&gt;Node10 -->
<g id="edge9" class="edge"><title>Node1&#45;&gt;Node10</title>
<path fill="none" stroke="midnightblue" d="M69.889,-312.591C84.3886,-342.546 112.835,-392.649 152,-421 158.827,-425.942 166.638,-429.918 174.677,-433.114"/>
<polygon fill="midnightblue" stroke="midnightblue" points="72.9289,-310.831 65.5111,-303.266 66.5924,-313.805 72.9289,-310.831"/>
</g>
<!-- Node11 -->
<g id="node11" class="node"><title>Node11</title>
<g id="a_node11"><a xlink:href="$classHAL__Linux.html#a4cd7be623bd42aaaa4253ec74b89ca38" xlink:title="HAL_Linux::init">
<polygon fill="white" stroke="black" points="194.5,-392.5 194.5,-411.5 277.5,-411.5 277.5,-392.5 194.5,-392.5"/>
<text text-anchor="middle" x="236" y="-399.5" font-family="Helvetica,sans-Serif" font-size="10.00">HAL_Linux::init</text>
</a>
</g>
</g>
<!-- Node1&#45;&gt;Node11 -->
<g id="edge10" class="edge"><title>Node1&#45;&gt;Node11</title>
<path fill="none" stroke="midnightblue" d="M75.4563,-311.263C92.2063,-333.16 120.178,-365.178 152,-383 164.897,-390.223 180.384,-394.703 194.468,-397.479"/>
<polygon fill="midnightblue" stroke="midnightblue" points="78.1796,-309.06 69.3965,-303.134 72.5675,-313.244 78.1796,-309.06"/>
</g>
<!-- Node12 -->
<g id="node12" class="node"><title>Node12</title>
<g id="a_node12"><a xlink:href="$classHAL__Empty.html#a3c5f4d1bb4da8a2d4a472fd34198a5c4" xlink:title="HAL_Empty::init">
<polygon fill="white" stroke="black" points="191.5,-354.5 191.5,-373.5 280.5,-373.5 280.5,-354.5 191.5,-354.5"/>
<text text-anchor="middle" x="236" y="-361.5" font-family="Helvetica,sans-Serif" font-size="10.00">HAL_Empty::init</text>
</a>
</g>
</g>
<!-- Node1&#45;&gt;Node12 -->
<g id="edge11" class="edge"><title>Node1&#45;&gt;Node12</title>
<path fill="none" stroke="midnightblue" d="M88.0757,-309.229C105.785,-321.271 129.305,-335.739 152,-345 164.318,-350.027 178.233,-353.867 191.101,-356.735"/>
<polygon fill="midnightblue" stroke="midnightblue" points="89.5907,-306.02 79.3798,-303.194 85.5993,-311.771 89.5907,-306.02"/>
</g>
<!-- Node13 -->
<g id="node13" class="node"><title>Node13</title>
<g id="a_node13"><a xlink:href="$classHAL__SITL.html#aaee5180f1c92899c19422d24a3ec42d3" xlink:title="HAL_SITL::init">
<polygon fill="white" stroke="black" points="195.5,-316.5 195.5,-335.5 276.5,-335.5 276.5,-316.5 195.5,-316.5"/>
<text text-anchor="middle" x="236" y="-323.5" font-family="Helvetica,sans-Serif" font-size="10.00">HAL_SITL::init</text>
</a>
</g>
</g>
<!-- Node1&#45;&gt;Node13 -->
<g id="edge12" class="edge"><title>Node1&#45;&gt;Node13</title>
<path fill="none" stroke="midnightblue" d="M125.592,-302.378C149.137,-307.461 174.858,-313.015 195.442,-317.459"/>
<polygon fill="midnightblue" stroke="midnightblue" points="126.17,-298.922 115.656,-300.233 124.692,-305.764 126.17,-298.922"/>
</g>
<!-- Node14 -->
<g id="node14" class="node"><title>Node14</title>
<g id="a_node14"><a xlink:href="$classHAL__AVR__APM2.html#ac32e2a2c80ae57587bfc9a96a04287fc" xlink:title="HAL_AVR_APM2::init">
<polygon fill="white" stroke="black" points="179.5,-278.5 179.5,-297.5 292.5,-297.5 292.5,-278.5 179.5,-278.5"/>
<text text-anchor="middle" x="236" y="-285.5" font-family="Helvetica,sans-Serif" font-size="10.00">HAL_AVR_APM2::init</text>
</a>
</g>
</g>
<!-- Node1&#45;&gt;Node14 -->
<g id="edge13" class="edge"><title>Node1&#45;&gt;Node14</title>
<path fill="none" stroke="midnightblue" d="M125.882,-288C143.525,-288 162.372,-288 179.352,-288"/>
<polygon fill="midnightblue" stroke="midnightblue" points="125.656,-284.5 115.656,-288 125.656,-291.5 125.656,-284.5"/>
</g>
<!-- Node15 -->
<g id="node15" class="node"><title>Node15</title>
<g id="a_node15"><a xlink:href="$classHAL__AVR__APM1.html#a240163745580c3161b1690fc6f643b67" xlink:title="HAL_AVR_APM1::init">
<polygon fill="white" stroke="black" points="179.5,-240.5 179.5,-259.5 292.5,-259.5 292.5,-240.5 179.5,-240.5"/>
<text text-anchor="middle" x="236" y="-247.5" font-family="Helvetica,sans-Serif" font-size="10.00">HAL_AVR_APM1::init</text>
</a>
</g>
</g>
<!-- Node1&#45;&gt;Node15 -->
<g id="edge14" class="edge"><title>Node1&#45;&gt;Node15</title>
<path fill="none" stroke="midnightblue" d="M125.519,-273.638C147.318,-268.931 170.989,-263.821 190.726,-259.559"/>
<polygon fill="midnightblue" stroke="midnightblue" points="124.692,-270.236 115.656,-275.767 126.17,-277.078 124.692,-270.236"/>
</g>
<!-- Node16 -->
<g id="node16" class="node"><title>Node16</title>
<g id="a_node16"><a xlink:href="$classHAL__FLYMAPLE.html#a2f1f5a4eb60873257c8e809e742576a6" xlink:title="HAL_FLYMAPLE::init">
<polygon fill="white" stroke="black" points="180,-202.5 180,-221.5 292,-221.5 292,-202.5 180,-202.5"/>
<text text-anchor="middle" x="236" y="-209.5" font-family="Helvetica,sans-Serif" font-size="10.00">HAL_FLYMAPLE::init</text>
</a>
</g>
</g>
<!-- Node1&#45;&gt;Node16 -->
<g id="edge15" class="edge"><title>Node1&#45;&gt;Node16</title>
<path fill="none" stroke="midnightblue" d="M88.0757,-266.771C105.785,-254.729 129.305,-240.261 152,-231 161.307,-227.202 171.526,-224.081 181.515,-221.546"/>
<polygon fill="midnightblue" stroke="midnightblue" points="85.5993,-264.229 79.3798,-272.806 89.5907,-269.98 85.5993,-264.229"/>
</g>
<!-- Node17 -->
<g id="node17" class="node"><title>Node17</title>
<g id="a_node17"><a xlink:href="$classAP__Frsky__Telem.html#a34085237c3e3912dbddebf5afcb7b8c5" xlink:title="AP_Frsky_Telem::init\l_uart_for_sport">
<polygon fill="white" stroke="black" points="180.5,-153 180.5,-183 291.5,-183 291.5,-153 180.5,-153"/>
<text text-anchor="start" x="188.5" y="-171" font-family="Helvetica,sans-Serif" font-size="10.00">AP_Frsky_Telem::init</text>
<text text-anchor="middle" x="236" y="-160" font-family="Helvetica,sans-Serif" font-size="10.00">_uart_for_sport</text>
</a>
</g>
</g>
<!-- Node1&#45;&gt;Node17 -->
<g id="edge16" class="edge"><title>Node1&#45;&gt;Node17</title>
<path fill="none" stroke="midnightblue" d="M76.0138,-264.843C92.9949,-243.3 120.972,-211.781 152,-193 160.626,-187.779 170.422,-183.578 180.185,-180.222"/>
<polygon fill="midnightblue" stroke="midnightblue" points="73.182,-262.784 69.8513,-272.841 78.7271,-267.056 73.182,-262.784"/>
</g>
<!-- Node20 -->
<g id="node20" class="node"><title>Node20</title>
<g id="a_node20"><a xlink:href="$HAL__PX4__Class_8cpp.html#a9bd6e6ad19a651d2c83ab3edb8d51924" xlink:title="main_loop">
<polygon fill="white" stroke="black" points="205.5,-114.5 205.5,-133.5 266.5,-133.5 266.5,-114.5 205.5,-114.5"/>
<text text-anchor="middle" x="236" y="-121.5" font-family="Helvetica,sans-Serif" font-size="10.00">main_loop</text>
</a>
</g>
</g>
<!-- Node1&#45;&gt;Node20 -->
<g id="edge19" class="edge"><title>Node1&#45;&gt;Node20</title>
<path fill="none" stroke="midnightblue" d="M67.9646,-263.215C81.1448,-230.428 108.952,-173.265 152,-143 167.479,-132.118 188.229,-127.368 205.109,-125.338"/>
<polygon fill="midnightblue" stroke="midnightblue" points="64.5465,-262.349 64.1985,-272.938 71.074,-264.877 64.5465,-262.349"/>
</g>
<!-- Node22 -->
<g id="node22" class="node"><title>Node22</title>
<g id="a_node22"><a xlink:href="$GPS__UBLOX__passthrough_8pde.html#a4fc01d736fe50cf5b977f755b675f11d" xlink:title="setup">
<polygon fill="white" stroke="black" points="215.5,-76.5 215.5,-95.5 256.5,-95.5 256.5,-76.5 215.5,-76.5"/>
<text text-anchor="middle" x="236" y="-83.5" font-family="Helvetica,sans-Serif" font-size="10.00">setup</text>
</a>
</g>
</g>
<!-- Node1&#45;&gt;Node22 -->
<g id="edge21" class="edge"><title>Node1&#45;&gt;Node22</title>
<path fill="none" stroke="midnightblue" d="M64.4943,-262.964C74.5956,-223.102 100.02,-145.578 152,-105 170.178,-90.8097 197.022,-86.8584 215.221,-85.9367"/>
<polygon fill="midnightblue" stroke="midnightblue" points="61.0351,-262.379 62.0936,-272.921 67.8401,-264.02 61.0351,-262.379"/>
</g>
<!-- Node23 -->
<g id="node23" class="node"><title>Node23</title>
<g id="a_node23"><a xlink:href="$UART__test_8pde.html#a437f0b278eef26b876fd7f0e4cf85503" xlink:title="setup_uart">
<polygon fill="white" stroke="black" points="205,-38.5 205,-57.5 267,-57.5 267,-38.5 205,-38.5"/>
<text text-anchor="middle" x="236" y="-45.5" font-family="Helvetica,sans-Serif" font-size="10.00">setup_uart</text>
</a>
</g>
</g>
<!-- Node1&#45;&gt;Node23 -->
<g id="edge22" class="edge"><title>Node1&#45;&gt;Node23</title>
<path fill="none" stroke="midnightblue" d="M62.0977,-262.846C69.1734,-216.646 90.9229,-118.315 152,-67 166.6,-54.7333 187.562,-50.0046 204.766,-48.3318"/>
<polygon fill="midnightblue" stroke="midnightblue" points="58.6106,-262.508 60.6661,-272.902 65.5407,-263.495 58.6106,-262.508"/>
</g>
<!-- Node25 -->
<g id="node25" class="node"><title>Node25</title>
<g id="a_node25"><a xlink:href="$classGCS__MAVLINK.html#a0680c93d81d7de3273931c5bccc890f5" xlink:title="GCS_MAVLINK::setup_uart">
<polygon fill="white" stroke="black" points="166,-0.5 166,-19.5 306,-19.5 306,-0.5 166,-0.5"/>
<text text-anchor="middle" x="236" y="-7.5" font-family="Helvetica,sans-Serif" font-size="10.00">GCS_MAVLINK::setup_uart</text>
</a>
</g>
</g>
<!-- Node1&#45;&gt;Node25 -->
<g id="edge24" class="edge"><title>Node1&#45;&gt;Node25</title>
<path fill="none" stroke="midnightblue" d="M60.3526,-262.643C64.5545,-210.58 81.7573,-91.3007 152,-29 156.313,-25.1745 161.238,-22.0737 166.489,-19.5655"/>
<polygon fill="midnightblue" stroke="midnightblue" points="56.8565,-262.464 59.6389,-272.687 63.8389,-262.961 56.8565,-262.464"/>
</g>
<!-- Node3 -->
<g id="node3" class="node"><title>Node3</title>
<g id="a_node3"><a xlink:href="$classAP__GPS__UBLOX.html#a0544590f35bd965c5ac93f8d98a340df" xlink:title="AP_GPS_UBLOX::AP_GPS\l_UBLOX">
<polygon fill="white" stroke="black" points="356.5,-557 356.5,-587 497.5,-587 497.5,-557 356.5,-557"/>
<text text-anchor="start" x="364.5" y="-575" font-family="Helvetica,sans-Serif" font-size="10.00">AP_GPS_UBLOX::AP_GPS</text>
<text text-anchor="middle" x="427" y="-564" font-family="Helvetica,sans-Serif" font-size="10.00">_UBLOX</text>
</a>
</g>
</g>
<!-- Node2&#45;&gt;Node3 -->
<g id="edge2" class="edge"><title>Node2&#45;&gt;Node3</title>
<path fill="none" stroke="midnightblue" d="M329.689,-570.471C338.627,-570.613 347.587,-570.755 356.249,-570.893"/>
<polygon fill="midnightblue" stroke="midnightblue" points="329.678,-566.971 319.623,-570.311 329.566,-573.97 329.678,-566.971"/>
</g>
<!-- Node5 -->
<g id="node5" class="node"><title>Node5</title>
<g id="a_node5"><a xlink:href="$classAP__GPS__UBLOX.html#a09825f5ca37ee9bdb5e0939a4073a84e" xlink:title="AP_GPS_UBLOX::read">
<polygon fill="white" stroke="black" points="367,-518.5 367,-537.5 487,-537.5 487,-518.5 367,-518.5"/>
<text text-anchor="middle" x="427" y="-525.5" font-family="Helvetica,sans-Serif" font-size="10.00">AP_GPS_UBLOX::read</text>
</a>
</g>
</g>
<!-- Node4&#45;&gt;Node5 -->
<g id="edge4" class="edge"><title>Node4&#45;&gt;Node5</title>
<path fill="none" stroke="midnightblue" d="M322.518,-528C337.458,-528 352.701,-528 366.734,-528"/>
<polygon fill="midnightblue" stroke="midnightblue" points="322.241,-524.5 312.241,-528 322.241,-531.5 322.241,-524.5"/>
</g>
<!-- Node7 -->
<g id="node7" class="node"><title>Node7</title>
<g id="a_node7"><a xlink:href="$classAP__GPS.html#a83302e8b52e5d01ae67375b3542eb460" xlink:title="AP_GPS::update_instance">
<polygon fill="white" stroke="black" points="360,-480.5 360,-499.5 494,-499.5 494,-480.5 360,-480.5"/>
<text text-anchor="middle" x="427" y="-487.5" font-family="Helvetica,sans-Serif" font-size="10.00">AP_GPS::update_instance</text>
</a>
</g>
</g>
<!-- Node6&#45;&gt;Node7 -->
<g id="edge6" class="edge"><title>Node6&#45;&gt;Node7</title>
<path fill="none" stroke="midnightblue" d="M311.812,-490C327.681,-490 344.326,-490 359.847,-490"/>
<polygon fill="midnightblue" stroke="midnightblue" points="311.514,-486.5 301.514,-490 311.514,-493.5 311.514,-486.5"/>
</g>
<!-- Node8 -->
<g id="node8" class="node"><title>Node8</title>
<g id="a_node8"><a xlink:href="$classAP__GPS.html#afe04427a47ab5e630cb979815abd911e" xlink:title="AP_GPS::update">
<polygon fill="white" stroke="black" points="544,-480.5 544,-499.5 636,-499.5 636,-480.5 544,-480.5"/>
<text text-anchor="middle" x="590" y="-487.5" font-family="Helvetica,sans-Serif" font-size="10.00">AP_GPS::update</text>
</a>
</g>
</g>
<!-- Node7&#45;&gt;Node8 -->
<g id="edge7" class="edge"><title>Node7&#45;&gt;Node8</title>
<path fill="none" stroke="midnightblue" d="M504.627,-490C518.05,-490 531.618,-490 543.831,-490"/>
<polygon fill="midnightblue" stroke="midnightblue" points="504.414,-486.5 494.414,-490 504.414,-493.5 504.414,-486.5"/>
</g>
<!-- Node9 -->
<g id="node9" class="node"><title>Node9</title>
<g id="a_node9"><a xlink:href="$GPS__AUTO__test_8pde.html#afe461d27b9c48d5921c00d521181f12f" xlink:title="loop">
<polygon fill="white" stroke="black" points="682.5,-480.5 682.5,-499.5 717.5,-499.5 717.5,-480.5 682.5,-480.5"/>
<text text-anchor="middle" x="700" y="-487.5" font-family="Helvetica,sans-Serif" font-size="10.00">loop</text>
</a>
</g>
</g>
<!-- Node8&#45;&gt;Node9 -->
<g id="edge8" class="edge"><title>Node8&#45;&gt;Node9</title>
<path fill="none" stroke="midnightblue" d="M646.265,-490C659.502,-490 672.637,-490 682.487,-490"/>
<polygon fill="midnightblue" stroke="midnightblue" points="646.176,-486.5 636.176,-490 646.176,-493.5 646.176,-486.5"/>
</g>
<!-- Node18 -->
<g id="node18" class="node"><title>Node18</title>
<g id="a_node18"><a xlink:href="$classAP__Frsky__Telem.html#a89ada57d816dfa4246726c17aa7fd32f" xlink:title="AP_Frsky_Telem::sport_tick">
<polygon fill="white" stroke="black" points="356.5,-158.5 356.5,-177.5 497.5,-177.5 497.5,-158.5 356.5,-158.5"/>
<text text-anchor="middle" x="427" y="-165.5" font-family="Helvetica,sans-Serif" font-size="10.00">AP_Frsky_Telem::sport_tick</text>
</a>
</g>
</g>
<!-- Node17&#45;&gt;Node18 -->
<g id="edge17" class="edge"><title>Node17&#45;&gt;Node18</title>
<path fill="none" stroke="midnightblue" d="M301.812,-168C319.377,-168 338.466,-168 356.288,-168"/>
<polygon fill="midnightblue" stroke="midnightblue" points="301.667,-164.5 291.667,-168 301.667,-171.5 301.667,-164.5"/>
</g>
<!-- Node19 -->
<g id="node19" class="node"><title>Node19</title>
<g id="a_node19"><a xlink:href="$classAP__Frsky__Telem.html#a081d1787f8ec08ca8c489fb5dc86393c" xlink:title="AP_Frsky_Telem::init">
<polygon fill="white" stroke="black" points="534.5,-158.5 534.5,-177.5 645.5,-177.5 645.5,-158.5 534.5,-158.5"/>
<text text-anchor="middle" x="590" y="-165.5" font-family="Helvetica,sans-Serif" font-size="10.00">AP_Frsky_Telem::init</text>
</a>
</g>
</g>
<!-- Node18&#45;&gt;Node19 -->
<g id="edge18" class="edge"><title>Node18&#45;&gt;Node19</title>
<path fill="none" stroke="midnightblue" d="M507.772,-168C516.735,-168 525.711,-168 534.254,-168"/>
<polygon fill="midnightblue" stroke="midnightblue" points="507.681,-164.5 497.681,-168 507.681,-171.5 507.681,-164.5"/>
</g>
<!-- Node21 -->
<g id="node21" class="node"><title>Node21</title>
<g id="a_node21"><a xlink:href="$classHAL__PX4.html#aa30a8fe0c2c42ede8ced6fc21e1c748a" xlink:title="HAL_PX4::init">
<polygon fill="white" stroke="black" points="387.5,-114.5 387.5,-133.5 466.5,-133.5 466.5,-114.5 387.5,-114.5"/>
<text text-anchor="middle" x="427" y="-121.5" font-family="Helvetica,sans-Serif" font-size="10.00">HAL_PX4::init</text>
</a>
</g>
</g>
<!-- Node20&#45;&gt;Node21 -->
<g id="edge20" class="edge"><title>Node20&#45;&gt;Node21</title>
<path fill="none" stroke="midnightblue" d="M276.586,-124C309.096,-124 354.884,-124 387.183,-124"/>
<polygon fill="midnightblue" stroke="midnightblue" points="276.531,-120.5 266.531,-124 276.531,-127.5 276.531,-120.5"/>
</g>
<!-- Node24 -->
<g id="node24" class="node"><title>Node24</title>
<g id="a_node24"><a xlink:href="$UART__test_8pde.html#a7dfd9b79bc5a37d7df40207afbc5431f" xlink:title="setup">
<polygon fill="white" stroke="black" points="406.5,-38.5 406.5,-57.5 447.5,-57.5 447.5,-38.5 406.5,-38.5"/>
<text text-anchor="middle" x="427" y="-45.5" font-family="Helvetica,sans-Serif" font-size="10.00">setup</text>
</a>
</g>
</g>
<!-- Node23&#45;&gt;Node24 -->
<g id="edge23" class="edge"><title>Node23&#45;&gt;Node24</title>
<path fill="none" stroke="midnightblue" d="M277.523,-48C317.245,-48 376.112,-48 406.41,-48"/>
<polygon fill="midnightblue" stroke="midnightblue" points="277.366,-44.5001 267.366,-48 277.366,-51.5001 277.366,-44.5001"/>
</g>
</g>
</svg>
