<?xml version="1.0" encoding="UTF-8" standalone="no"?>
<!DOCTYPE svg PUBLIC "-//W3C//DTD SVG 1.1//EN"
 "http://www.w3.org/Graphics/SVG/1.1/DTD/svg11.dtd">
<!-- Generated by graphviz version 2.36.0 (20140111.2315)
 -->
<!-- Title: AP_HAL::AnalogSource::voltage_average_ratiometric Pages: 1 -->
<svg width="722pt" height="101pt"
 viewBox="0.00 0.00 722.00 101.00" xmlns="http://www.w3.org/2000/svg" xmlns:xlink="http://www.w3.org/1999/xlink">
<g id="graph0" class="graph" transform="scale(1 1) rotate(0) translate(4 97)">
<title>AP_HAL::AnalogSource::voltage_average_ratiometric</title>
<polygon fill="white" stroke="none" points="-4,4 -4,-97 718,-97 718,4 -4,4"/>
<!-- Node1 -->
<g id="node1" class="node"><title>Node1</title>
<polygon fill="#bfbfbf" stroke="black" points="0.5,-24 0.5,-54 145.5,-54 145.5,-24 0.5,-24"/>
<text text-anchor="start" x="8.5" y="-42" font-family="Helvetica,sans-Serif" font-size="10.00">AP_HAL::AnalogSource</text>
<text text-anchor="middle" x="73" y="-31" font-family="Helvetica,sans-Serif" font-size="10.00">::voltage_average_ratiometric</text>
</g>
<!-- Node2 -->
<g id="node2" class="node"><title>Node2</title>
<g id="a_node2"><a xlink:href="$classAP__Airspeed__Analog.html#a33da45ef81801b4971ed1afe3e2183fb" xlink:title="AP_Airspeed_Analog\l::get_differential_pressure">
<polygon fill="white" stroke="black" points="182.5,-49 182.5,-79 311.5,-79 311.5,-49 182.5,-49"/>
<text text-anchor="start" x="190.5" y="-67" font-family="Helvetica,sans-Serif" font-size="10.00">AP_Airspeed_Analog</text>
<text text-anchor="middle" x="247" y="-56" font-family="Helvetica,sans-Serif" font-size="10.00">::get_differential_pressure</text>
</a>
</g>
</g>
<!-- Node1&#45;&gt;Node2 -->
<g id="edge1" class="edge"><title>Node1&#45;&gt;Node2</title>
<path fill="none" stroke="midnightblue" d="M155.904,-50.9047C164.763,-52.1923 173.68,-53.4884 182.278,-54.7381"/>
<polygon fill="midnightblue" stroke="midnightblue" points="156.346,-47.4323 145.947,-49.4574 155.339,-54.3595 156.346,-47.4323"/>
</g>
<!-- Node8 -->
<g id="node8" class="node"><title>Node8</title>
<g id="a_node8"><a xlink:href="$classAP__RangeFinder__analog.html#a79298166e180b5de2cf9f7c9dbcf56ea" xlink:title="AP_RangeFinder_analog\l::update_voltage">
<polygon fill="white" stroke="black" points="184.5,-0 184.5,-30 309.5,-30 309.5,-0 184.5,-0"/>
<text text-anchor="start" x="192.5" y="-18" font-family="Helvetica,sans-Serif" font-size="10.00">AP_RangeFinder_analog</text>
<text text-anchor="middle" x="247" y="-7" font-family="Helvetica,sans-Serif" font-size="10.00">::update_voltage</text>
</a>
</g>
</g>
<!-- Node1&#45;&gt;Node8 -->
<g id="edge7" class="edge"><title>Node1&#45;&gt;Node8</title>
<path fill="none" stroke="midnightblue" d="M155.909,-27.5709C165.511,-26.2311 175.181,-24.8817 184.439,-23.5899"/>
<polygon fill="midnightblue" stroke="midnightblue" points="155.367,-24.1124 145.947,-28.9609 156.335,-31.0453 155.367,-24.1124"/>
</g>
<!-- Node3 -->
<g id="node3" class="node"><title>Node3</title>
<g id="a_node3"><a xlink:href="$classAP__Airspeed.html#a2d265701a127bd336882e930cb996e86" xlink:title="AP_Airspeed::get_pressure">
<polygon fill="white" stroke="black" points="348,-54.5 348,-73.5 484,-73.5 484,-54.5 348,-54.5"/>
<text text-anchor="middle" x="416" y="-61.5" font-family="Helvetica,sans-Serif" font-size="10.00">AP_Airspeed::get_pressure</text>
</a>
</g>
</g>
<!-- Node2&#45;&gt;Node3 -->
<g id="edge2" class="edge"><title>Node2&#45;&gt;Node3</title>
<path fill="none" stroke="midnightblue" d="M321.757,-64C330.475,-64 339.337,-64 347.955,-64"/>
<polygon fill="midnightblue" stroke="midnightblue" points="321.612,-60.5001 311.612,-64 321.612,-67.5001 321.612,-60.5001"/>
</g>
<!-- Node4 -->
<g id="node4" class="node"><title>Node4</title>
<g id="a_node4"><a xlink:href="$classAP__Airspeed.html#afb7c91590b3efc00ee2d72cc6bcc856f" xlink:title="AP_Airspeed::calibrate">
<polygon fill="white" stroke="black" points="520,-73.5 520,-92.5 636,-92.5 636,-73.5 520,-73.5"/>
<text text-anchor="middle" x="578" y="-80.5" font-family="Helvetica,sans-Serif" font-size="10.00">AP_Airspeed::calibrate</text>
</a>
</g>
</g>
<!-- Node3&#45;&gt;Node4 -->
<g id="edge3" class="edge"><title>Node3&#45;&gt;Node4</title>
<path fill="none" stroke="midnightblue" d="M494.4,-73.1913C502.963,-74.2081 511.565,-75.2295 519.813,-76.2091"/>
<polygon fill="midnightblue" stroke="midnightblue" points="494.734,-69.7064 484.391,-72.0026 493.908,-76.6575 494.734,-69.7064"/>
</g>
<!-- Node6 -->
<g id="node6" class="node"><title>Node6</title>
<g id="a_node6"><a xlink:href="$classAP__Airspeed.html#af713d23fce3c9a5e78e043d4e3b2d012" xlink:title="AP_Airspeed::read">
<polygon fill="white" stroke="black" points="529,-35.5 529,-54.5 627,-54.5 627,-35.5 529,-35.5"/>
<text text-anchor="middle" x="578" y="-42.5" font-family="Helvetica,sans-Serif" font-size="10.00">AP_Airspeed::read</text>
</a>
</g>
</g>
<!-- Node3&#45;&gt;Node6 -->
<g id="edge5" class="edge"><title>Node3&#45;&gt;Node6</title>
<path fill="none" stroke="midnightblue" d="M494.558,-54.79C506.176,-53.4103 517.863,-52.0225 528.637,-50.7431"/>
<polygon fill="midnightblue" stroke="midnightblue" points="493.908,-51.3425 484.391,-55.9974 494.734,-58.2936 493.908,-51.3425"/>
</g>
<!-- Node5 -->
<g id="node5" class="node"><title>Node5</title>
<g id="a_node5"><a xlink:href="$Airspeed_8pde.html#a4fc01d736fe50cf5b977f755b675f11d" xlink:title="setup">
<polygon fill="white" stroke="black" points="672.5,-73.5 672.5,-92.5 713.5,-92.5 713.5,-73.5 672.5,-73.5"/>
<text text-anchor="middle" x="693" y="-80.5" font-family="Helvetica,sans-Serif" font-size="10.00">setup</text>
</a>
</g>
</g>
<!-- Node4&#45;&gt;Node5 -->
<g id="edge4" class="edge"><title>Node4&#45;&gt;Node5</title>
<path fill="none" stroke="midnightblue" d="M646.182,-83C655.697,-83 664.792,-83 672.335,-83"/>
<polygon fill="midnightblue" stroke="midnightblue" points="646.162,-79.5001 636.162,-83 646.162,-86.5001 646.162,-79.5001"/>
</g>
<!-- Node7 -->
<g id="node7" class="node"><title>Node7</title>
<g id="a_node7"><a xlink:href="$Airspeed_8pde.html#a0b33edabd7f1c4e4a0bf32c67269be2f" xlink:title="loop">
<polygon fill="white" stroke="black" points="675.5,-35.5 675.5,-54.5 710.5,-54.5 710.5,-35.5 675.5,-35.5"/>
<text text-anchor="middle" x="693" y="-42.5" font-family="Helvetica,sans-Serif" font-size="10.00">loop</text>
</a>
</g>
</g>
<!-- Node6&#45;&gt;Node7 -->
<g id="edge6" class="edge"><title>Node6&#45;&gt;Node7</title>
<path fill="none" stroke="midnightblue" d="M637.373,-45C651.304,-45 665.083,-45 675.318,-45"/>
<polygon fill="midnightblue" stroke="midnightblue" points="637.25,-41.5001 627.25,-45 637.25,-48.5001 637.25,-41.5001"/>
</g>
<!-- Node9 -->
<g id="node9" class="node"><title>Node9</title>
<g id="a_node9"><a xlink:href="$classAP__RangeFinder__analog.html#ad997f109f592a3c9f875655af6ad6de0" xlink:title="AP_RangeFinder_analog\l::update">
<polygon fill="white" stroke="black" points="353.5,-0 353.5,-30 478.5,-30 478.5,-0 353.5,-0"/>
<text text-anchor="start" x="361.5" y="-18" font-family="Helvetica,sans-Serif" font-size="10.00">AP_RangeFinder_analog</text>
<text text-anchor="middle" x="416" y="-7" font-family="Helvetica,sans-Serif" font-size="10.00">::update</text>
</a>
</g>
</g>
<!-- Node8&#45;&gt;Node9 -->
<g id="edge8" class="edge"><title>Node8&#45;&gt;Node9</title>
<path fill="none" stroke="midnightblue" d="M319.832,-15C330.965,-15 342.38,-15 353.265,-15"/>
<polygon fill="midnightblue" stroke="midnightblue" points="319.71,-11.5001 309.71,-15 319.71,-18.5001 319.71,-11.5001"/>
</g>
</g>
</svg>
