<?xml version="1.0" encoding="UTF-8" standalone="no"?>
<!DOCTYPE svg PUBLIC "-//W3C//DTD SVG 1.1//EN"
 "http://www.w3.org/Graphics/SVG/1.1/DTD/svg11.dtd">
<!-- Generated by graphviz version 2.36.0 (20140111.2315)
 -->
<!-- Title: AP_Param::first Pages: 1 -->
<svg width="530pt" height="218pt"
 viewBox="0.00 0.00 530.00 218.00" xmlns="http://www.w3.org/2000/svg" xmlns:xlink="http://www.w3.org/1999/xlink">
<g id="graph0" class="graph" transform="scale(1 1) rotate(0) translate(4 214)">
<title>AP_Param::first</title>
<polygon fill="white" stroke="none" points="-4,4 -4,-214 526,-214 526,4 -4,4"/>
<!-- Node1 -->
<g id="node1" class="node"><title>Node1</title>
<polygon fill="#bfbfbf" stroke="black" points="0,-88.5 0,-107.5 86,-107.5 86,-88.5 0,-88.5"/>
<text text-anchor="middle" x="43" y="-95.5" font-family="Helvetica,sans-Serif" font-size="10.00">AP_Param::first</text>
</g>
<!-- Node2 -->
<g id="node2" class="node"><title>Node2</title>
<g id="a_node2"><a xlink:href="$classGCS__MAVLINK.html#a8b3f812eeae85cfbd01cfb8df44d5f58" xlink:title="so that we can report to a GCS the number of parameters it should ">
<polygon fill="white" stroke="black" points="125.5,-129 125.5,-159 248.5,-159 248.5,-129 125.5,-129"/>
<text text-anchor="start" x="133.5" y="-147" font-family="Helvetica,sans-Serif" font-size="10.00">GCS_MAVLINK::_count</text>
<text text-anchor="middle" x="187" y="-136" font-family="Helvetica,sans-Serif" font-size="10.00">_parameters</text>
</a>
</g>
</g>
<!-- Node1&#45;&gt;Node2 -->
<g id="edge1" class="edge"><title>Node1&#45;&gt;Node2</title>
<path fill="none" stroke="midnightblue" d="M83.2757,-110.723C100.714,-116.372 121.367,-123.062 139.564,-128.957"/>
<polygon fill="midnightblue" stroke="midnightblue" points="84.0144,-107.283 73.4225,-107.531 81.8571,-113.943 84.0144,-107.283"/>
</g>
<!-- Node3 -->
<g id="node3" class="node"><title>Node3</title>
<g id="a_node3"><a xlink:href="$classGCS__MAVLINK.html#a45f2a7f8ba45e6d161ba4d6971e3fd66" xlink:title="GCS_MAVLINK::handle\l_param_request_list">
<polygon fill="white" stroke="black" points="305,-180 305,-210 427,-210 427,-180 305,-180"/>
<text text-anchor="start" x="313" y="-198" font-family="Helvetica,sans-Serif" font-size="10.00">GCS_MAVLINK::handle</text>
<text text-anchor="middle" x="366" y="-187" font-family="Helvetica,sans-Serif" font-size="10.00">_param_request_list</text>
</a>
</g>
</g>
<!-- Node1&#45;&gt;Node3 -->
<g id="edge7" class="edge"><title>Node1&#45;&gt;Node3</title>
<path fill="none" stroke="midnightblue" d="M57.8999,-115.632C72.0834,-132.222 95.6973,-156.222 122,-168 180.304,-194.109 254.04,-198.851 304.912,-198.325"/>
<polygon fill="midnightblue" stroke="midnightblue" points="60.4451,-113.218 51.3782,-107.737 55.0481,-117.676 60.4451,-113.218"/>
</g>
<!-- Node6 -->
<g id="node6" class="node"><title>Node6</title>
<g id="a_node6"><a xlink:href="$classAP__Param.html#acab771c52831e63c3985007ff9f59330" xlink:title="AP_Param::find_by_index">
<polygon fill="white" stroke="black" points="122,-88.5 122,-107.5 252,-107.5 252,-88.5 122,-88.5"/>
<text text-anchor="middle" x="187" y="-95.5" font-family="Helvetica,sans-Serif" font-size="10.00">AP_Param::find_by_index</text>
</a>
</g>
</g>
<!-- Node1&#45;&gt;Node6 -->
<g id="edge5" class="edge"><title>Node1&#45;&gt;Node6</title>
<path fill="none" stroke="midnightblue" d="M96.4624,-98C104.73,-98 113.358,-98 121.854,-98"/>
<polygon fill="midnightblue" stroke="midnightblue" points="96.2203,-94.5001 86.2202,-98 96.2202,-101.5 96.2203,-94.5001"/>
</g>
<!-- Node7 -->
<g id="node7" class="node"><title>Node7</title>
<g id="a_node7"><a xlink:href="$classDataFlash__Class.html#aabd681cff3b516f691fdfb907e37b560" xlink:title="DataFlash_Class::Log\l_Write_Parameters">
<polygon fill="white" stroke="black" points="130,-39 130,-69 244,-69 244,-39 130,-39"/>
<text text-anchor="start" x="138" y="-57" font-family="Helvetica,sans-Serif" font-size="10.00">DataFlash_Class::Log</text>
<text text-anchor="middle" x="187" y="-46" font-family="Helvetica,sans-Serif" font-size="10.00">_Write_Parameters</text>
</a>
</g>
</g>
<!-- Node1&#45;&gt;Node7 -->
<g id="edge8" class="edge"><title>Node1&#45;&gt;Node7</title>
<path fill="none" stroke="midnightblue" d="M84.661,-85.4008C101.1,-80.3069 120.212,-74.3849 137.38,-69.0654"/>
<polygon fill="midnightblue" stroke="midnightblue" points="83.3279,-82.1496 74.8119,-88.4527 85.3998,-88.836 83.3279,-82.1496"/>
</g>
<!-- Node10 -->
<g id="node10" class="node"><title>Node10</title>
<g id="a_node10"><a xlink:href="$classAP__Param.html#a091ba1553c935207c783991a72cf59f0" xlink:title="print the value of all variables ">
<polygon fill="white" stroke="black" points="133,-0.5 133,-19.5 241,-19.5 241,-0.5 133,-0.5"/>
<text text-anchor="middle" x="187" y="-7.5" font-family="Helvetica,sans-Serif" font-size="10.00">AP_Param::show_all</text>
</a>
</g>
</g>
<!-- Node1&#45;&gt;Node10 -->
<g id="edge11" class="edge"><title>Node1&#45;&gt;Node10</title>
<path fill="none" stroke="midnightblue" d="M59.404,-80.5968C74.0735,-65.0159 97.4962,-42.5914 122,-29 128.892,-25.1771 136.639,-22.0445 144.299,-19.5053"/>
<polygon fill="midnightblue" stroke="midnightblue" points="56.757,-78.3047 52.5714,-88.0377 61.913,-83.0392 56.757,-78.3047"/>
</g>
<!-- Node2&#45;&gt;Node3 -->
<g id="edge2" class="edge"><title>Node2&#45;&gt;Node3</title>
<path fill="none" stroke="midnightblue" d="M249.76,-161.795C270.371,-167.734 293.118,-174.288 312.919,-179.994"/>
<polygon fill="midnightblue" stroke="midnightblue" points="250.727,-158.431 240.149,-159.026 248.789,-165.158 250.727,-158.431"/>
</g>
<!-- Node4 -->
<g id="node4" class="node"><title>Node4</title>
<g id="a_node4"><a xlink:href="$classGCS__MAVLINK.html#a5049292431ff6787cd0c4fe69e7fa494" xlink:title="GCS_MAVLINK::handle\l_param_request_read">
<polygon fill="white" stroke="black" points="305,-82 305,-112 427,-112 427,-82 305,-82"/>
<text text-anchor="start" x="313" y="-100" font-family="Helvetica,sans-Serif" font-size="10.00">GCS_MAVLINK::handle</text>
<text text-anchor="middle" x="366" y="-89" font-family="Helvetica,sans-Serif" font-size="10.00">_param_request_read</text>
</a>
</g>
</g>
<!-- Node2&#45;&gt;Node4 -->
<g id="edge3" class="edge"><title>Node2&#45;&gt;Node4</title>
<path fill="none" stroke="midnightblue" d="M254.243,-126.41C272.072,-121.676 291.19,-116.599 308.439,-112.019"/>
<polygon fill="midnightblue" stroke="midnightblue" points="253.257,-123.05 244.491,-129 255.054,-129.816 253.257,-123.05"/>
</g>
<!-- Node5 -->
<g id="node5" class="node"><title>Node5</title>
<g id="a_node5"><a xlink:href="$classGCS__MAVLINK.html#ae8138868be824c9478307c705a0e6763" xlink:title="GCS_MAVLINK::handle\l_param_set">
<polygon fill="white" stroke="black" points="305,-131 305,-161 427,-161 427,-131 305,-131"/>
<text text-anchor="start" x="313" y="-149" font-family="Helvetica,sans-Serif" font-size="10.00">GCS_MAVLINK::handle</text>
<text text-anchor="middle" x="366" y="-138" font-family="Helvetica,sans-Serif" font-size="10.00">_param_set</text>
</a>
</g>
</g>
<!-- Node2&#45;&gt;Node5 -->
<g id="edge4" class="edge"><title>Node2&#45;&gt;Node5</title>
<path fill="none" stroke="midnightblue" d="M259.252,-144.805C274.38,-144.976 290.208,-145.155 304.873,-145.321"/>
<polygon fill="midnightblue" stroke="midnightblue" points="258.952,-141.302 248.913,-144.688 258.873,-148.301 258.952,-141.302"/>
</g>
<!-- Node6&#45;&gt;Node4 -->
<g id="edge6" class="edge"><title>Node6&#45;&gt;Node4</title>
<path fill="none" stroke="midnightblue" d="M262.369,-97.5798C276.551,-97.4997 291.231,-97.4168 304.899,-97.3396"/>
<polygon fill="midnightblue" stroke="midnightblue" points="262.131,-94.081 252.151,-97.6376 262.171,-101.081 262.131,-94.081"/>
</g>
<!-- Node8 -->
<g id="node8" class="node"><title>Node8</title>
<g id="a_node8"><a xlink:href="$classDataFlash__Class.html#a0801c32eb59382ffe15f9205ac79c04f" xlink:title="DataFlash_Class::StartNewLog">
<polygon fill="white" stroke="black" points="288.5,-43.5 288.5,-62.5 443.5,-62.5 443.5,-43.5 288.5,-43.5"/>
<text text-anchor="middle" x="366" y="-50.5" font-family="Helvetica,sans-Serif" font-size="10.00">DataFlash_Class::StartNewLog</text>
</a>
</g>
</g>
<!-- Node7&#45;&gt;Node8 -->
<g id="edge9" class="edge"><title>Node7&#45;&gt;Node8</title>
<path fill="none" stroke="midnightblue" d="M254.09,-53.6266C265.253,-53.5635 276.925,-53.4976 288.33,-53.4332"/>
<polygon fill="midnightblue" stroke="midnightblue" points="253.984,-50.1271 244.004,-53.6836 254.024,-57.1269 253.984,-50.1271"/>
</g>
<!-- Node9 -->
<g id="node9" class="node"><title>Node9</title>
<g id="a_node9"><a xlink:href="$VibTest_8pde.html#a7dfd9b79bc5a37d7df40207afbc5431f" xlink:title="setup">
<polygon fill="white" stroke="black" points="480.5,-43.5 480.5,-62.5 521.5,-62.5 521.5,-43.5 480.5,-43.5"/>
<text text-anchor="middle" x="501" y="-50.5" font-family="Helvetica,sans-Serif" font-size="10.00">setup</text>
</a>
</g>
</g>
<!-- Node8&#45;&gt;Node9 -->
<g id="edge10" class="edge"><title>Node8&#45;&gt;Node9</title>
<path fill="none" stroke="midnightblue" d="M453.671,-53C463.564,-53 472.799,-53 480.38,-53"/>
<polygon fill="midnightblue" stroke="midnightblue" points="453.596,-49.5001 443.596,-53 453.596,-56.5001 453.596,-49.5001"/>
</g>
</g>
</svg>
