<?xml version="1.0" encoding="UTF-8" standalone="no"?>
<!DOCTYPE svg PUBLIC "-//W3C//DTD SVG 1.1//EN"
 "http://www.w3.org/Graphics/SVG/1.1/DTD/svg11.dtd">
<!-- Generated by graphviz version 2.36.0 (20140111.2315)
 -->
<!-- Title: AC_WPNav::update_loiter Pages: 1 -->
<svg width="1056pt" height="825pt"
 viewBox="0.00 0.00 1056.00 825.00" xmlns="http://www.w3.org/2000/svg" xmlns:xlink="http://www.w3.org/1999/xlink">
<g id="graph0" class="graph" transform="scale(1 1) rotate(0) translate(4 821)">
<title>AC_WPNav::update_loiter</title>
<polygon fill="white" stroke="none" points="-4,4 -4,-821 1052,-821 1052,4 -4,4"/>
<!-- Node1 -->
<g id="node1" class="node"><title>Node1</title>
<polygon fill="#bfbfbf" stroke="black" points="0,-419.5 0,-438.5 132,-438.5 132,-419.5 0,-419.5"/>
<text text-anchor="middle" x="66" y="-426.5" font-family="Helvetica,sans-Serif" font-size="10.00">AC_WPNav::update_loiter</text>
</g>
<!-- Node2 -->
<g id="node2" class="node"><title>Node2</title>
<g id="a_node2"><a xlink:href="$classAC__PosControl.html#aba69e5af4db360bb85275fe843f7e95e" xlink:title="AC_PosControl::time\l_since_last_xy_update">
<polygon fill="white" stroke="black" points="170,-638 170,-668 286,-668 286,-638 170,-638"/>
<text text-anchor="start" x="178" y="-656" font-family="Helvetica,sans-Serif" font-size="10.00">AC_PosControl::time</text>
<text text-anchor="middle" x="228" y="-645" font-family="Helvetica,sans-Serif" font-size="10.00">_since_last_xy_update</text>
</a>
</g>
</g>
<!-- Node1&#45;&gt;Node2 -->
<g id="edge1" class="edge"><title>Node1&#45;&gt;Node2</title>
<path fill="none" stroke="midnightblue" d="M73.875,-438.625C97.4688,-471.656 175.593,-581.03 210.223,-629.512"/>
<polygon fill="midnightblue" stroke="midnightblue" points="207.499,-631.721 216.16,-637.824 213.195,-627.652 207.499,-631.721"/>
</g>
<!-- Node4 -->
<g id="node4" class="node"><title>Node4</title>
<g id="a_node4"><a xlink:href="$classAC__PosControl.html#ab4a37d0f0ce8ea8038758158f8d06562" xlink:title="AC_PosControl::get\l_dt_xy">
<polygon fill="white" stroke="black" points="176,-348 176,-378 280,-378 280,-348 176,-348"/>
<text text-anchor="start" x="184" y="-366" font-family="Helvetica,sans-Serif" font-size="10.00">AC_PosControl::get</text>
<text text-anchor="middle" x="228" y="-355" font-family="Helvetica,sans-Serif" font-size="10.00">_dt_xy</text>
</a>
</g>
</g>
<!-- Node1&#45;&gt;Node4 -->
<g id="edge3" class="edge"><title>Node1&#45;&gt;Node4</title>
<path fill="none" stroke="midnightblue" d="M90.2654,-419.403C113.962,-409.628 151.342,-394.209 181.034,-381.961"/>
<polygon fill="midnightblue" stroke="midnightblue" points="182.467,-385.156 190.377,-378.107 179.798,-378.685 182.467,-385.156"/>
</g>
<!-- Node5 -->
<g id="node5" class="node"><title>Node5</title>
<g id="a_node5"><a xlink:href="$classAC__WPNav.html#a3dbf7bda89b127cdc81bca29e2af25de" xlink:title="AC_WPNav::calc_loiter\l_desired_velocity">
<polygon fill="white" stroke="black" points="482.5,-398 482.5,-428 603.5,-428 603.5,-398 482.5,-398"/>
<text text-anchor="start" x="490.5" y="-416" font-family="Helvetica,sans-Serif" font-size="10.00">AC_WPNav::calc_loiter</text>
<text text-anchor="middle" x="543" y="-405" font-family="Helvetica,sans-Serif" font-size="10.00">_desired_velocity</text>
</a>
</g>
</g>
<!-- Node1&#45;&gt;Node5 -->
<g id="edge4" class="edge"><title>Node1&#45;&gt;Node5</title>
<path fill="none" stroke="midnightblue" d="M132.051,-426.809C221.195,-423.806 380.666,-418.434 472.221,-415.35"/>
<polygon fill="midnightblue" stroke="midnightblue" points="472.348,-418.848 482.224,-415.013 472.112,-411.852 472.348,-418.848"/>
</g>
<!-- Node19 -->
<g id="node19" class="node"><title>Node19</title>
<g id="a_node19"><a xlink:href="$classAC__PosControl.html#ae8b8e5c5812ab2419c570ae7f44a70f3" xlink:title="update_xy_controller &#45; run the horizontal position controller &#45; should be called at 100hz or higher ...">
<polygon fill="white" stroke="black" points="168,-436 168,-466 288,-466 288,-436 168,-436"/>
<text text-anchor="start" x="176" y="-454" font-family="Helvetica,sans-Serif" font-size="10.00">AC_PosControl::update</text>
<text text-anchor="middle" x="228" y="-443" font-family="Helvetica,sans-Serif" font-size="10.00">_xy_controller</text>
</a>
</g>
</g>
<!-- Node1&#45;&gt;Node19 -->
<g id="edge21" class="edge"><title>Node1&#45;&gt;Node19</title>
<path fill="none" stroke="midnightblue" d="M132.078,-437.948C140.597,-439.12 149.351,-440.323 157.933,-441.503"/>
<polygon fill="midnightblue" stroke="midnightblue" points="157.521,-444.98 167.905,-442.874 158.475,-438.045 157.521,-444.98"/>
</g>
<!-- Node3 -->
<g id="node3" class="node"><title>Node3</title>
<g id="a_node3"><a xlink:href="$classAP__HAL_1_1Scheduler.html#a26b68339fc68a562d8d3a1238d0ec8c1" xlink:title="AP_HAL::Scheduler::\lmillis">
<polygon fill="white" stroke="black" points="330,-787 330,-817 440,-817 440,-787 330,-787"/>
<text text-anchor="start" x="338" y="-805" font-family="Helvetica,sans-Serif" font-size="10.00">AP_HAL::Scheduler::</text>
<text text-anchor="middle" x="385" y="-794" font-family="Helvetica,sans-Serif" font-size="10.00">millis</text>
</a>
</g>
</g>
<!-- Node2&#45;&gt;Node3 -->
<g id="edge2" class="edge"><title>Node2&#45;&gt;Node3</title>
<path fill="none" stroke="midnightblue" d="M238.096,-668.284C253.301,-692.789 285.983,-741.234 324,-772 328.524,-775.661 333.567,-779.036 338.756,-782.096"/>
<polygon fill="midnightblue" stroke="midnightblue" points="337.11,-785.186 347.558,-786.946 340.488,-779.055 337.11,-785.186"/>
</g>
<!-- Node6 -->
<g id="node6" class="node"><title>Node6</title>
<g id="a_node6"><a xlink:href="$classAC__PosControl.html#aeb636a56d87a2495d86e394ff6ac7549" xlink:title="AC_PosControl::set\l_speed_xy">
<polygon fill="white" stroke="black" points="646,-699 646,-729 750,-729 750,-699 646,-699"/>
<text text-anchor="start" x="654" y="-717" font-family="Helvetica,sans-Serif" font-size="10.00">AC_PosControl::set</text>
<text text-anchor="middle" x="698" y="-706" font-family="Helvetica,sans-Serif" font-size="10.00">_speed_xy</text>
</a>
</g>
</g>
<!-- Node5&#45;&gt;Node6 -->
<g id="edge5" class="edge"><title>Node5&#45;&gt;Node6</title>
<path fill="none" stroke="midnightblue" d="M593.318,-428.155C597.361,-430.912 601.028,-434.164 604,-438 673.028,-527.083 571.801,-599.281 640,-689 640.92,-690.21 641.91,-691.362 642.961,-692.459"/>
<polygon fill="midnightblue" stroke="midnightblue" points="640.756,-695.178 650.662,-698.935 645.261,-689.82 640.756,-695.178"/>
</g>
<!-- Node10 -->
<g id="node10" class="node"><title>Node10</title>
<g id="a_node10"><a xlink:href="$classAC__PosControl.html#a5e47fd89f68af7f00d9bd59cfcb422a8" xlink:title="AC_PosControl::set\l_accel_xy">
<polygon fill="white" stroke="black" points="646,-650 646,-680 750,-680 750,-650 646,-650"/>
<text text-anchor="start" x="654" y="-668" font-family="Helvetica,sans-Serif" font-size="10.00">AC_PosControl::set</text>
<text text-anchor="middle" x="698" y="-657" font-family="Helvetica,sans-Serif" font-size="10.00">_accel_xy</text>
</a>
</g>
</g>
<!-- Node5&#45;&gt;Node10 -->
<g id="edge9" class="edge"><title>Node5&#45;&gt;Node10</title>
<path fill="none" stroke="midnightblue" d="M592.881,-428.085C597.067,-430.859 600.884,-434.134 604,-438 659.854,-507.299 587.309,-563.267 640,-635 642.426,-638.302 645.325,-641.274 648.512,-643.942"/>
<polygon fill="midnightblue" stroke="midnightblue" points="646.754,-646.988 656.922,-649.963 650.829,-641.296 646.754,-646.988"/>
</g>
<!-- Node11 -->
<g id="node11" class="node"><title>Node11</title>
<g id="a_node11"><a xlink:href="$classAP__AHRS.html#a1aaffcffc239930cb651fad539362fa0" xlink:title="AP_AHRS::cos_yaw">
<polygon fill="white" stroke="black" points="643.5,-360.5 643.5,-379.5 752.5,-379.5 752.5,-360.5 643.5,-360.5"/>
<text text-anchor="middle" x="698" y="-367.5" font-family="Helvetica,sans-Serif" font-size="10.00">AP_AHRS::cos_yaw</text>
</a>
</g>
</g>
<!-- Node5&#45;&gt;Node11 -->
<g id="edge11" class="edge"><title>Node5&#45;&gt;Node11</title>
<path fill="none" stroke="midnightblue" d="M597.512,-397.961C615.665,-392.859 635.722,-387.222 653.043,-382.354"/>
<polygon fill="midnightblue" stroke="midnightblue" points="654.21,-385.662 662.89,-379.586 652.316,-378.923 654.21,-385.662"/>
</g>
<!-- Node12 -->
<g id="node12" class="node"><title>Node12</title>
<g id="a_node12"><a xlink:href="$classAP__AHRS.html#ae559b9d6fdd1e8ed3001258f58c98c39" xlink:title="AP_AHRS::sin_yaw">
<polygon fill="white" stroke="black" points="645,-322.5 645,-341.5 751,-341.5 751,-322.5 645,-322.5"/>
<text text-anchor="middle" x="698" y="-329.5" font-family="Helvetica,sans-Serif" font-size="10.00">AP_AHRS::sin_yaw</text>
</a>
</g>
</g>
<!-- Node5&#45;&gt;Node12 -->
<g id="edge12" class="edge"><title>Node5&#45;&gt;Node12</title>
<path fill="none" stroke="midnightblue" d="M586.441,-397.871C592.547,-394.974 598.587,-391.679 604,-388 622.976,-375.103 620.566,-363.196 640,-351 643.192,-348.997 646.618,-347.181 650.148,-345.539"/>
<polygon fill="midnightblue" stroke="midnightblue" points="651.758,-348.66 659.649,-341.59 649.072,-342.196 651.758,-348.66"/>
</g>
<!-- Node13 -->
<g id="node13" class="node"><title>Node13</title>
<g id="a_node13"><a xlink:href="$AP__Math_8cpp.html#afd3767d48a7b20f6d5220a4f8007af00" xlink:title="pythagorous2">
<polygon fill="white" stroke="black" points="809.5,-436.5 809.5,-455.5 884.5,-455.5 884.5,-436.5 809.5,-436.5"/>
<text text-anchor="middle" x="847" y="-443.5" font-family="Helvetica,sans-Serif" font-size="10.00">pythagorous2</text>
</a>
</g>
</g>
<!-- Node5&#45;&gt;Node13 -->
<g id="edge13" class="edge"><title>Node5&#45;&gt;Node13</title>
<path fill="none" stroke="midnightblue" d="M603.595,-422.19C615.631,-423.906 628.209,-425.597 640,-427 694.577,-433.492 757.516,-439.012 799.317,-442.402"/>
<polygon fill="midnightblue" stroke="midnightblue" points="799.223,-445.906 809.471,-443.217 799.784,-438.928 799.223,-445.906"/>
</g>
<!-- Node14 -->
<g id="node14" class="node"><title>Node14</title>
<g id="a_node14"><a xlink:href="$AP__Math_8cpp.html#a996fdbe87607543eef5dcb234f6bc017" xlink:title="sq">
<polygon fill="white" stroke="black" points="978.5,-523.5 978.5,-542.5 1007.5,-542.5 1007.5,-523.5 978.5,-523.5"/>
<text text-anchor="middle" x="993" y="-530.5" font-family="Helvetica,sans-Serif" font-size="10.00">sq</text>
</a>
</g>
</g>
<!-- Node5&#45;&gt;Node14 -->
<g id="edge19" class="edge"><title>Node5&#45;&gt;Node14</title>
<path fill="none" stroke="midnightblue" d="M591.91,-428.047C596.395,-430.836 600.545,-434.126 604,-438 642.477,-481.15 593.808,-528.234 640,-563 741.427,-639.339 908.941,-572.626 969.378,-544.277"/>
<polygon fill="midnightblue" stroke="midnightblue" points="970.941,-547.409 978.446,-539.93 967.916,-541.097 970.941,-547.409"/>
</g>
<!-- Node15 -->
<g id="node15" class="node"><title>Node15</title>
<g id="a_node15"><a xlink:href="$classAC__PosControl.html#a3d9cd8d29a9ce76bb5b6d757aac7626f" xlink:title="get_desired_velocity &#45; returns xy desired velocity (i.e. feed forward) in cm/s in lat and lon directi...">
<polygon fill="white" stroke="black" points="646,-524 646,-554 750,-554 750,-524 646,-524"/>
<text text-anchor="start" x="654" y="-542" font-family="Helvetica,sans-Serif" font-size="10.00">AC_PosControl::get</text>
<text text-anchor="middle" x="698" y="-531" font-family="Helvetica,sans-Serif" font-size="10.00">_desired_velocity</text>
</a>
</g>
</g>
<!-- Node5&#45;&gt;Node15 -->
<g id="edge15" class="edge"><title>Node5&#45;&gt;Node15</title>
<path fill="none" stroke="midnightblue" d="M590.397,-428.118C595.33,-430.913 599.998,-434.184 604,-438 631.05,-463.792 613.19,-487.958 640,-514 641.606,-515.56 643.325,-517.031 645.129,-518.418"/>
<polygon fill="midnightblue" stroke="midnightblue" points="643.223,-521.353 653.49,-523.968 647.094,-515.521 643.223,-521.353"/>
</g>
<!-- Node16 -->
<g id="node16" class="node"><title>Node16</title>
<g id="a_node16"><a xlink:href="$structVector2.html#ad8ebafde96f43521d3647e2552387529" xlink:title="&#45;*&#45; tab&#45;width: 4; Mode: C++; c&#45;basic&#45;offset: 4; indent&#45;tabs&#45;mode: nil &#45;*&#45; ">
<polygon fill="white" stroke="black" points="656.5,-284.5 656.5,-303.5 739.5,-303.5 739.5,-284.5 656.5,-284.5"/>
<text text-anchor="middle" x="698" y="-291.5" font-family="Helvetica,sans-Serif" font-size="10.00">Vector2::length</text>
</a>
</g>
</g>
<!-- Node5&#45;&gt;Node16 -->
<g id="edge16" class="edge"><title>Node5&#45;&gt;Node16</title>
<path fill="none" stroke="midnightblue" d="M590.378,-397.862C595.314,-395.07 599.988,-391.806 604,-388 630.825,-362.553 612.264,-337.45 640,-313 642.312,-310.962 644.85,-309.141 647.53,-307.515"/>
<polygon fill="midnightblue" stroke="midnightblue" points="649.156,-310.614 656.475,-302.954 645.976,-304.378 649.156,-310.614"/>
</g>
<!-- Node17 -->
<g id="node17" class="node"><title>Node17</title>
<g id="a_node17"><a xlink:href="$AP__Math_8h.html#a108b79eeb35c5d58f324458ec9e1e9f2" xlink:title="is_zero">
<polygon fill="white" stroke="black" points="674,-398.5 674,-417.5 722,-417.5 722,-398.5 674,-398.5"/>
<text text-anchor="middle" x="698" y="-405.5" font-family="Helvetica,sans-Serif" font-size="10.00">is_zero</text>
</a>
</g>
</g>
<!-- Node5&#45;&gt;Node17 -->
<g id="edge18" class="edge"><title>Node5&#45;&gt;Node17</title>
<path fill="none" stroke="midnightblue" d="M603.592,-411.053C623.881,-410.389 645.841,-409.672 663.368,-409.099"/>
<polygon fill="midnightblue" stroke="midnightblue" points="663.773,-412.588 673.653,-408.763 663.544,-405.592 663.773,-412.588"/>
</g>
<!-- Node18 -->
<g id="node18" class="node"><title>Node18</title>
<g id="a_node18"><a xlink:href="$classAC__PosControl.html#a86db328ce60f79e07a417e55bb5deb5f" xlink:title="AC_PosControl::set\l_desired_velocity_xy">
<polygon fill="white" stroke="black" points="644,-475 644,-505 752,-505 752,-475 644,-475"/>
<text text-anchor="start" x="652" y="-493" font-family="Helvetica,sans-Serif" font-size="10.00">AC_PosControl::set</text>
<text text-anchor="middle" x="698" y="-482" font-family="Helvetica,sans-Serif" font-size="10.00">_desired_velocity_xy</text>
</a>
</g>
</g>
<!-- Node5&#45;&gt;Node18 -->
<g id="edge20" class="edge"><title>Node5&#45;&gt;Node18</title>
<path fill="none" stroke="midnightblue" d="M582.489,-428.004C589.727,-431.115 597.164,-434.513 604,-438 620.704,-446.52 623.695,-450.74 640,-460 645.945,-463.377 652.302,-466.851 658.535,-470.185"/>
<polygon fill="midnightblue" stroke="midnightblue" points="657.039,-473.354 667.515,-474.94 660.315,-467.168 657.039,-473.354"/>
</g>
<!-- Node7 -->
<g id="node7" class="node"><title>Node7</title>
<g id="a_node7"><a xlink:href="$classAC__PosControl.html#ac4f923c39399266568b9ae9419a0596f" xlink:title="AC_PosControl::calc\l_leash_length_xy">
<polygon fill="white" stroke="black" points="792.5,-674 792.5,-704 901.5,-704 901.5,-674 792.5,-674"/>
<text text-anchor="start" x="800.5" y="-692" font-family="Helvetica,sans-Serif" font-size="10.00">AC_PosControl::calc</text>
<text text-anchor="middle" x="847" y="-681" font-family="Helvetica,sans-Serif" font-size="10.00">_leash_length_xy</text>
</a>
</g>
</g>
<!-- Node6&#45;&gt;Node7 -->
<g id="edge6" class="edge"><title>Node6&#45;&gt;Node7</title>
<path fill="none" stroke="midnightblue" d="M750.001,-705.326C760.37,-703.563 771.4,-701.687 782.149,-699.859"/>
<polygon fill="midnightblue" stroke="midnightblue" points="783.067,-703.253 792.339,-698.126 781.894,-696.352 783.067,-703.253"/>
</g>
<!-- Node8 -->
<g id="node8" class="node"><title>Node8</title>
<g id="a_node8"><a xlink:href="$classAC__PosControl.html#a92e0998be57c8a917a7a7514c542e314" xlink:title="calc_leash_length &#45; calculates the horizontal leash length given a maximum speed, acceleration and po...">
<polygon fill="white" stroke="black" points="938.5,-674 938.5,-704 1047.5,-704 1047.5,-674 938.5,-674"/>
<text text-anchor="start" x="946.5" y="-692" font-family="Helvetica,sans-Serif" font-size="10.00">AC_PosControl::calc</text>
<text text-anchor="middle" x="993" y="-681" font-family="Helvetica,sans-Serif" font-size="10.00">_leash_length</text>
</a>
</g>
</g>
<!-- Node7&#45;&gt;Node8 -->
<g id="edge7" class="edge"><title>Node7&#45;&gt;Node8</title>
<path fill="none" stroke="midnightblue" d="M901.62,-689C910.241,-689 919.239,-689 928.073,-689"/>
<polygon fill="midnightblue" stroke="midnightblue" points="928.335,-692.5 938.335,-689 928.335,-685.5 928.335,-692.5"/>
</g>
<!-- Node9 -->
<g id="node9" class="node"><title>Node9</title>
<g id="a_node9"><a xlink:href="$classAC__P.html#a9378b33d8cfb4bf2417880c038f1b7a2" xlink:title="AC_P::kP">
<polygon fill="white" stroke="black" points="962.5,-372.5 962.5,-391.5 1023.5,-391.5 1023.5,-372.5 962.5,-372.5"/>
<text text-anchor="middle" x="993" y="-379.5" font-family="Helvetica,sans-Serif" font-size="10.00">AC_P::kP</text>
</a>
</g>
</g>
<!-- Node7&#45;&gt;Node9 -->
<g id="edge8" class="edge"><title>Node7&#45;&gt;Node9</title>
<path fill="none" stroke="midnightblue" d="M855.141,-673.776C879.129,-622.635 956.788,-457.071 983.15,-400.868"/>
<polygon fill="midnightblue" stroke="midnightblue" points="986.373,-402.238 987.451,-391.698 980.036,-399.265 986.373,-402.238"/>
</g>
<!-- Node10&#45;&gt;Node7 -->
<g id="edge10" class="edge"><title>Node10&#45;&gt;Node7</title>
<path fill="none" stroke="midnightblue" d="M750.001,-673.327C760.37,-675.02 771.4,-676.82 782.149,-678.575"/>
<polygon fill="midnightblue" stroke="midnightblue" points="781.906,-682.082 792.339,-680.239 783.034,-675.173 781.906,-682.082"/>
</g>
<!-- Node13&#45;&gt;Node14 -->
<g id="edge14" class="edge"><title>Node13&#45;&gt;Node14</title>
<path fill="none" stroke="midnightblue" d="M863.961,-455.643C889.598,-471.132 940.044,-501.61 969.381,-519.335"/>
<polygon fill="midnightblue" stroke="midnightblue" points="967.738,-522.431 978.107,-524.606 971.358,-516.439 967.738,-522.431"/>
</g>
<!-- Node16&#45;&gt;Node13 -->
<g id="edge17" class="edge"><title>Node16&#45;&gt;Node13</title>
<path fill="none" stroke="midnightblue" d="M739.008,-303.585C745.04,-306.064 750.93,-309.155 756,-313 796.559,-343.758 825.044,-398.293 838.046,-427.045"/>
<polygon fill="midnightblue" stroke="midnightblue" points="834.915,-428.621 842.13,-436.38 841.328,-425.815 834.915,-428.621"/>
</g>
<!-- Node19&#45;&gt;Node3 -->
<g id="edge22" class="edge"><title>Node19&#45;&gt;Node3</title>
<path fill="none" stroke="midnightblue" d="M234.43,-466.121C245.309,-496.674 270.252,-568.047 288,-629 306.322,-691.925 282.949,-720.911 324,-772 326.708,-775.37 329.893,-778.394 333.359,-781.101"/>
<polygon fill="midnightblue" stroke="midnightblue" points="331.62,-784.151 341.864,-786.856 335.543,-778.353 331.62,-784.151"/>
</g>
<!-- Node19&#45;&gt;Node7 -->
<g id="edge23" class="edge"><title>Node19&#45;&gt;Node7</title>
<path fill="none" stroke="midnightblue" d="M243.142,-466.147C292.024,-517.223 460.698,-683 640,-738 689.289,-753.119 706.038,-750.719 756,-738 777.675,-732.482 799.766,-720.566 816.638,-709.868"/>
<polygon fill="midnightblue" stroke="midnightblue" points="818.995,-712.508 825.438,-704.097 815.156,-706.654 818.995,-712.508"/>
</g>
<!-- Node20 -->
<g id="node20" class="node"><title>Node20</title>
<g id="a_node20"><a xlink:href="$classAC__PosControl.html#ae717003af936b0d465b82d150d611963" xlink:title="desired_vel_to_pos &#45; move position target using desired velocities ">
<polygon fill="white" stroke="black" points="324,-436 324,-466 446,-466 446,-436 324,-436"/>
<text text-anchor="start" x="332" y="-454" font-family="Helvetica,sans-Serif" font-size="10.00">AC_PosControl::desired</text>
<text text-anchor="middle" x="385" y="-443" font-family="Helvetica,sans-Serif" font-size="10.00">_vel_to_pos</text>
</a>
</g>
</g>
<!-- Node19&#45;&gt;Node20 -->
<g id="edge24" class="edge"><title>Node19&#45;&gt;Node20</title>
<path fill="none" stroke="midnightblue" d="M288.041,-451C296.465,-451 305.198,-451 313.81,-451"/>
<polygon fill="midnightblue" stroke="midnightblue" points="313.838,-454.5 323.838,-451 313.838,-447.5 313.838,-454.5"/>
</g>
<!-- Node21 -->
<g id="node21" class="node"><title>Node21</title>
<g id="a_node21"><a xlink:href="$classAC__PosControl.html#a3a8f35e4cc0c50f6d0bb663966e47830" xlink:title="AC_PosControl::pos\l_to_rate_xy">
<polygon fill="white" stroke="black" points="644.5,-235 644.5,-265 751.5,-265 751.5,-235 644.5,-235"/>
<text text-anchor="start" x="652.5" y="-253" font-family="Helvetica,sans-Serif" font-size="10.00">AC_PosControl::pos</text>
<text text-anchor="middle" x="698" y="-242" font-family="Helvetica,sans-Serif" font-size="10.00">_to_rate_xy</text>
</a>
</g>
</g>
<!-- Node19&#45;&gt;Node21 -->
<g id="edge25" class="edge"><title>Node19&#45;&gt;Node21</title>
<path fill="none" stroke="midnightblue" d="M252.195,-435.95C295.727,-408.237 393.292,-348.627 482,-312 531.802,-291.437 590.749,-274.957 634.313,-264.171"/>
<polygon fill="midnightblue" stroke="midnightblue" points="635.318,-267.528 644.202,-261.755 633.657,-260.728 635.318,-267.528"/>
</g>
<!-- Node24 -->
<g id="node24" class="node"><title>Node24</title>
<g id="a_node24"><a xlink:href="$classAC__PosControl.html#a5b3282ea40c7d2ef6d44e51670094ccf" xlink:title="AC_PosControl::rate\l_to_accel_xy">
<polygon fill="white" stroke="black" points="331.5,-485 331.5,-515 438.5,-515 438.5,-485 331.5,-485"/>
<text text-anchor="start" x="339.5" y="-503" font-family="Helvetica,sans-Serif" font-size="10.00">AC_PosControl::rate</text>
<text text-anchor="middle" x="385" y="-492" font-family="Helvetica,sans-Serif" font-size="10.00">_to_accel_xy</text>
</a>
</g>
</g>
<!-- Node19&#45;&gt;Node24 -->
<g id="edge30" class="edge"><title>Node19&#45;&gt;Node24</title>
<path fill="none" stroke="midnightblue" d="M276.77,-466.101C292.46,-471.062 310.066,-476.627 326.406,-481.793"/>
<polygon fill="midnightblue" stroke="midnightblue" points="325.798,-485.271 336.388,-484.948 327.908,-478.597 325.798,-485.271"/>
</g>
<!-- Node30 -->
<g id="node30" class="node"><title>Node30</title>
<g id="a_node30"><a xlink:href="$classAC__PosControl.html#a46019950532852f60edd1a68bef9d1b2" xlink:title="AC_PosControl::accel\l_to_lean_angles">
<polygon fill="white" stroke="black" points="486,-186 486,-216 600,-216 600,-186 486,-186"/>
<text text-anchor="start" x="494" y="-204" font-family="Helvetica,sans-Serif" font-size="10.00">AC_PosControl::accel</text>
<text text-anchor="middle" x="543" y="-193" font-family="Helvetica,sans-Serif" font-size="10.00">_to_lean_angles</text>
</a>
</g>
</g>
<!-- Node19&#45;&gt;Node30 -->
<g id="edge41" class="edge"><title>Node19&#45;&gt;Node30</title>
<path fill="none" stroke="midnightblue" d="M246.821,-435.832C259.921,-423.803 277.244,-405.918 288,-387 315.731,-338.225 284.338,-305.686 324,-266 364.008,-225.968 427.538,-210.386 475.718,-204.425"/>
<polygon fill="midnightblue" stroke="midnightblue" points="476.207,-207.893 485.752,-203.294 475.422,-200.937 476.207,-207.893"/>
</g>
<!-- Node21&#45;&gt;Node9 -->
<g id="edge27" class="edge"><title>Node21&#45;&gt;Node9</title>
<path fill="none" stroke="midnightblue" d="M751.553,-251.067C794.366,-253.928 855.174,-262.656 902,-288 936.077,-306.444 964.888,-342.362 980.194,-364.065"/>
<polygon fill="midnightblue" stroke="midnightblue" points="977.366,-366.13 985.904,-372.403 983.142,-362.175 977.366,-366.13"/>
</g>
<!-- Node21&#45;&gt;Node13 -->
<g id="edge28" class="edge"><title>Node21&#45;&gt;Node13</title>
<path fill="none" stroke="midnightblue" d="M742.066,-265.029C747.095,-267.865 751.888,-271.171 756,-275 762.194,-280.768 814.558,-383.72 836.445,-427.039"/>
<polygon fill="midnightblue" stroke="midnightblue" points="833.452,-428.876 841.082,-436.227 839.701,-425.723 833.452,-428.876"/>
</g>
<!-- Node22 -->
<g id="node22" class="node"><title>Node22</title>
<g id="a_node22"><a xlink:href="$classAP__InertialNav.html#a39348dd51a8c32fe16d01dfef284e31a" xlink:title="AP_InertialNav::get\l_position">
<polygon fill="white" stroke="black" points="796,-298 796,-328 898,-328 898,-298 796,-298"/>
<text text-anchor="start" x="804" y="-316" font-family="Helvetica,sans-Serif" font-size="10.00">AP_InertialNav::get</text>
<text text-anchor="middle" x="847" y="-305" font-family="Helvetica,sans-Serif" font-size="10.00">_position</text>
</a>
</g>
</g>
<!-- Node21&#45;&gt;Node22 -->
<g id="edge26" class="edge"><title>Node21&#45;&gt;Node22</title>
<path fill="none" stroke="midnightblue" d="M734.21,-265.09C754.409,-273.747 779.961,-284.698 801.536,-293.944"/>
<polygon fill="midnightblue" stroke="midnightblue" points="800.252,-297.202 810.823,-297.924 803.01,-290.768 800.252,-297.202"/>
</g>
<!-- Node23 -->
<g id="node23" class="node"><title>Node23</title>
<g id="a_node23"><a xlink:href="$AP__Math_8cpp.html#a7b812b7e8008b90ab24bcd9c3b0e8e3b" xlink:title="safe_sqrt">
<polygon fill="white" stroke="black" points="818.5,-221.5 818.5,-240.5 875.5,-240.5 875.5,-221.5 818.5,-221.5"/>
<text text-anchor="middle" x="847" y="-228.5" font-family="Helvetica,sans-Serif" font-size="10.00">safe_sqrt</text>
</a>
</g>
</g>
<!-- Node21&#45;&gt;Node23 -->
<g id="edge29" class="edge"><title>Node21&#45;&gt;Node23</title>
<path fill="none" stroke="midnightblue" d="M751.655,-243.194C770.348,-240.778 791.003,-238.109 808.208,-235.885"/>
<polygon fill="midnightblue" stroke="midnightblue" points="808.958,-239.317 818.427,-234.564 808.061,-232.375 808.958,-239.317"/>
</g>
<!-- Node24&#45;&gt;Node13 -->
<g id="edge40" class="edge"><title>Node24&#45;&gt;Node13</title>
<path fill="none" stroke="midnightblue" d="M402.477,-515.219C420.46,-530.7 450.866,-553.696 482,-563 598.68,-597.867 646.749,-616.796 756,-563 797.588,-542.522 825.34,-492.567 838.044,-465.016"/>
<polygon fill="midnightblue" stroke="midnightblue" points="841.337,-466.224 842.174,-455.662 834.933,-463.397 841.337,-466.224"/>
</g>
<!-- Node25 -->
<g id="node25" class="node"><title>Node25</title>
<g id="a_node25"><a xlink:href="$classAP__InertialNav.html#a5bfad40c8a4e0ca98aa09c80e17c4ff5" xlink:title="AP_InertialNav::get\l_velocity">
<polygon fill="white" stroke="black" points="492,-524 492,-554 594,-554 594,-524 492,-524"/>
<text text-anchor="start" x="500" y="-542" font-family="Helvetica,sans-Serif" font-size="10.00">AP_InertialNav::get</text>
<text text-anchor="middle" x="543" y="-531" font-family="Helvetica,sans-Serif" font-size="10.00">_velocity</text>
</a>
</g>
</g>
<!-- Node24&#45;&gt;Node25 -->
<g id="edge31" class="edge"><title>Node24&#45;&gt;Node25</title>
<path fill="none" stroke="midnightblue" d="M438.814,-513.204C452.747,-516.687 467.881,-520.47 482.156,-524.039"/>
<polygon fill="midnightblue" stroke="midnightblue" points="481.326,-527.439 491.876,-526.469 483.023,-520.648 481.326,-527.439"/>
</g>
<!-- Node26 -->
<g id="node26" class="node"><title>Node26</title>
<g id="a_node26"><a xlink:href="$classAC__PI__2D.html#a2aeddba42e425e6e02264165220b11d8" xlink:title="AC_PI_2D::set_input">
<polygon fill="white" stroke="black" points="488,-485.5 488,-504.5 598,-504.5 598,-485.5 488,-485.5"/>
<text text-anchor="middle" x="543" y="-492.5" font-family="Helvetica,sans-Serif" font-size="10.00">AC_PI_2D::set_input</text>
</a>
</g>
</g>
<!-- Node24&#45;&gt;Node26 -->
<g id="edge32" class="edge"><title>Node24&#45;&gt;Node26</title>
<path fill="none" stroke="midnightblue" d="M438.814,-498.307C451.299,-497.907 464.748,-497.476 477.679,-497.062"/>
<polygon fill="midnightblue" stroke="midnightblue" points="478.028,-500.552 487.911,-496.734 477.804,-493.556 478.028,-500.552"/>
</g>
<!-- Node27 -->
<g id="node27" class="node"><title>Node27</title>
<g id="a_node27"><a xlink:href="$classAC__PI__2D.html#aa8564949b84f613cad26c7b9f557bb3e" xlink:title="AC_PI_2D::get_p">
<polygon fill="white" stroke="black" points="496,-447.5 496,-466.5 590,-466.5 590,-447.5 496,-447.5"/>
<text text-anchor="middle" x="543" y="-454.5" font-family="Helvetica,sans-Serif" font-size="10.00">AC_PI_2D::get_p</text>
</a>
</g>
</g>
<!-- Node24&#45;&gt;Node27 -->
<g id="edge33" class="edge"><title>Node24&#45;&gt;Node27</title>
<path fill="none" stroke="midnightblue" d="M438.814,-485.442C457.907,-480.179 479.255,-474.295 497.558,-469.25"/>
<polygon fill="midnightblue" stroke="midnightblue" points="498.668,-472.575 507.379,-466.543 496.808,-465.826 498.668,-472.575"/>
</g>
<!-- Node28 -->
<g id="node28" class="node"><title>Node28</title>
<g id="a_node28"><a xlink:href="$classAC__PI__2D.html#af464bd8936fccc9a0b11ab183e9ca384" xlink:title="AC_PI_2D::get_i">
<polygon fill="white" stroke="black" points="497.5,-321.5 497.5,-340.5 588.5,-340.5 588.5,-321.5 497.5,-321.5"/>
<text text-anchor="middle" x="543" y="-328.5" font-family="Helvetica,sans-Serif" font-size="10.00">AC_PI_2D::get_i</text>
</a>
</g>
</g>
<!-- Node24&#45;&gt;Node28 -->
<g id="edge34" class="edge"><title>Node24&#45;&gt;Node28</title>
<path fill="none" stroke="midnightblue" d="M433.91,-484.953C438.395,-482.164 442.545,-478.874 446,-475 484.477,-431.85 441.66,-391.414 482,-350 484.037,-347.909 486.302,-346.047 488.726,-344.39"/>
<polygon fill="midnightblue" stroke="midnightblue" points="490.45,-347.436 497.477,-339.506 487.039,-341.323 490.45,-347.436"/>
</g>
<!-- Node29 -->
<g id="node29" class="node"><title>Node29</title>
<g id="a_node29"><a xlink:href="$classAC__PI__2D.html#ae8bc307e280fa7d11b67742491223fb1" xlink:title="AC_PI_2D::get_i_shrink">
<polygon fill="white" stroke="black" points="482,-359.5 482,-378.5 604,-378.5 604,-359.5 482,-359.5"/>
<text text-anchor="middle" x="543" y="-366.5" font-family="Helvetica,sans-Serif" font-size="10.00">AC_PI_2D::get_i_shrink</text>
</a>
</g>
</g>
<!-- Node24&#45;&gt;Node29 -->
<g id="edge37" class="edge"><title>Node24&#45;&gt;Node29</title>
<path fill="none" stroke="midnightblue" d="M432.887,-484.902C437.674,-482.111 442.175,-478.835 446,-475 475.554,-445.374 451.17,-416.296 482,-388 483.733,-386.409 485.599,-384.952 487.564,-383.616"/>
<polygon fill="midnightblue" stroke="midnightblue" points="489.679,-386.443 496.699,-378.507 486.262,-380.334 489.679,-386.443"/>
</g>
<!-- Node28&#45;&gt;Node16 -->
<g id="edge36" class="edge"><title>Node28&#45;&gt;Node16</title>
<path fill="none" stroke="midnightblue" d="M583.401,-321.472C602.956,-316.743 626.779,-310.982 647.548,-305.959"/>
<polygon fill="midnightblue" stroke="midnightblue" points="648.569,-309.313 657.467,-303.56 646.924,-302.509 648.569,-309.313"/>
</g>
<!-- Node28&#45;&gt;Node17 -->
<g id="edge35" class="edge"><title>Node28&#45;&gt;Node17</title>
<path fill="none" stroke="midnightblue" d="M584.349,-340.587C591.187,-343.092 598.005,-346.191 604,-350 623.91,-362.65 620.186,-376.2 640,-389 647.288,-393.708 655.858,-397.363 664.107,-400.151"/>
<polygon fill="midnightblue" stroke="midnightblue" points="663.316,-403.569 673.902,-403.136 665.356,-396.873 663.316,-403.569"/>
</g>
<!-- Node29&#45;&gt;Node16 -->
<g id="edge39" class="edge"><title>Node29&#45;&gt;Node16</title>
<path fill="none" stroke="midnightblue" d="M583.951,-359.396C590.902,-356.884 597.863,-353.787 604,-350 623.525,-337.951 620.566,-325.196 640,-313 643.192,-310.997 646.618,-309.181 650.148,-307.539"/>
<polygon fill="midnightblue" stroke="midnightblue" points="651.758,-310.66 659.649,-303.59 649.072,-304.196 651.758,-310.66"/>
</g>
<!-- Node29&#45;&gt;Node17 -->
<g id="edge38" class="edge"><title>Node29&#45;&gt;Node17</title>
<path fill="none" stroke="midnightblue" d="M581.428,-378.54C606.663,-384.973 639.653,-393.382 663.923,-399.569"/>
<polygon fill="midnightblue" stroke="midnightblue" points="663.188,-402.993 673.743,-402.072 664.917,-396.21 663.188,-402.993"/>
</g>
<!-- Node30&#45;&gt;Node11 -->
<g id="edge50" class="edge"><title>Node30&#45;&gt;Node11</title>
<path fill="none" stroke="midnightblue" d="M551.995,-216.152C570.284,-250.326 615.483,-331.909 640,-351 642.315,-352.802 644.809,-354.438 647.415,-355.922"/>
<polygon fill="midnightblue" stroke="midnightblue" points="646.087,-359.168 656.609,-360.404 649.154,-352.876 646.087,-359.168"/>
</g>
<!-- Node30&#45;&gt;Node12 -->
<g id="edge51" class="edge"><title>Node30&#45;&gt;Node12</title>
<path fill="none" stroke="midnightblue" d="M553.23,-216.355C568.41,-240.35 600.896,-286.706 640,-313 642.946,-314.981 646.116,-316.771 649.398,-318.385"/>
<polygon fill="midnightblue" stroke="midnightblue" points="648.286,-321.718 658.853,-322.486 651.071,-315.296 648.286,-321.718"/>
</g>
<!-- Node30&#45;&gt;Node16 -->
<g id="edge45" class="edge"><title>Node30&#45;&gt;Node16</title>
<path fill="none" stroke="midnightblue" d="M560.569,-216.202C578.869,-232.343 609.764,-257.725 640,-274 644.614,-276.484 649.599,-278.76 654.634,-280.815"/>
<polygon fill="midnightblue" stroke="midnightblue" points="653.702,-284.205 664.293,-284.49 656.191,-277.663 653.702,-284.205"/>
</g>
<!-- Node31 -->
<g id="node31" class="node"><title>Node31</title>
<g id="a_node31"><a xlink:href="$classAC__AttitudeControl.html#a85dc24e26f3d1b7b2394a8c3380c7bde" xlink:title="AC_AttitudeControl\l::lean_angle_max">
<polygon fill="white" stroke="black" points="647.5,-49 647.5,-79 748.5,-79 748.5,-49 647.5,-49"/>
<text text-anchor="start" x="655.5" y="-67" font-family="Helvetica,sans-Serif" font-size="10.00">AC_AttitudeControl</text>
<text text-anchor="middle" x="698" y="-56" font-family="Helvetica,sans-Serif" font-size="10.00">::lean_angle_max</text>
</a>
</g>
</g>
<!-- Node30&#45;&gt;Node31 -->
<g id="edge42" class="edge"><title>Node30&#45;&gt;Node31</title>
<path fill="none" stroke="midnightblue" d="M554.717,-185.979C571.133,-163.759 604.37,-121.768 640,-94 644.577,-90.433 649.64,-87.0795 654.805,-83.9994"/>
<polygon fill="midnightblue" stroke="midnightblue" points="656.532,-87.0441 663.524,-79.0847 653.094,-80.9461 656.532,-87.0441"/>
</g>
<!-- Node32 -->
<g id="node32" class="node"><title>Node32</title>
<g id="a_node32"><a xlink:href="$classLowPassFilterVector2f.html#a5dd23c93efc92d418089d2c5b5ddc5e6" xlink:title="LowPassFilterVector2f\l::reset">
<polygon fill="white" stroke="black" points="640,-0 640,-30 756,-30 756,-0 640,-0"/>
<text text-anchor="start" x="648" y="-18" font-family="Helvetica,sans-Serif" font-size="10.00">LowPassFilterVector2f</text>
<text text-anchor="middle" x="698" y="-7" font-family="Helvetica,sans-Serif" font-size="10.00">::reset</text>
</a>
</g>
</g>
<!-- Node30&#45;&gt;Node32 -->
<g id="edge43" class="edge"><title>Node30&#45;&gt;Node32</title>
<path fill="none" stroke="midnightblue" d="M549.212,-185.897C560.778,-154.445 591.461,-81.3304 640,-39 641.335,-37.8356 642.735,-36.7215 644.186,-35.6562"/>
<polygon fill="midnightblue" stroke="midnightblue" points="646.396,-38.3984 652.953,-30.0764 642.637,-32.493 646.396,-38.3984"/>
</g>
<!-- Node34 -->
<g id="node34" class="node"><title>Node34</title>
<g id="a_node34"><a xlink:href="$classLowPassFilter.html#a5c3c8a444566f57ef2bb95775fe7be5e" xlink:title="LowPassFilter::set\l_cutoff_frequency">
<polygon fill="white" stroke="black" points="649,-186 649,-216 747,-216 747,-186 649,-186"/>
<text text-anchor="start" x="657" y="-204" font-family="Helvetica,sans-Serif" font-size="10.00">LowPassFilter::set</text>
<text text-anchor="middle" x="698" y="-193" font-family="Helvetica,sans-Serif" font-size="10.00">_cutoff_frequency</text>
</a>
</g>
</g>
<!-- Node30&#45;&gt;Node34 -->
<g id="edge46" class="edge"><title>Node30&#45;&gt;Node34</title>
<path fill="none" stroke="midnightblue" d="M600.103,-201C612.754,-201 626.209,-201 638.939,-201"/>
<polygon fill="midnightblue" stroke="midnightblue" points="638.964,-204.5 648.964,-201 638.964,-197.5 638.964,-204.5"/>
</g>
<!-- Node35 -->
<g id="node35" class="node"><title>Node35</title>
<g id="a_node35"><a xlink:href="$classLowPassFilterVector2f.html#a1c0d92749dd36e4f70bd735914db0813" xlink:title="LowPassFilterVector2f\l::apply">
<polygon fill="white" stroke="black" points="640,-137 640,-167 756,-167 756,-137 640,-137"/>
<text text-anchor="start" x="648" y="-155" font-family="Helvetica,sans-Serif" font-size="10.00">LowPassFilterVector2f</text>
<text text-anchor="middle" x="698" y="-144" font-family="Helvetica,sans-Serif" font-size="10.00">::apply</text>
</a>
</g>
</g>
<!-- Node30&#45;&gt;Node35 -->
<g id="edge47" class="edge"><title>Node30&#45;&gt;Node35</title>
<path fill="none" stroke="midnightblue" d="M591.153,-185.899C606.641,-180.938 624.02,-175.373 640.149,-170.207"/>
<polygon fill="midnightblue" stroke="midnightblue" points="641.546,-173.435 650.002,-167.052 639.411,-166.768 641.546,-173.435"/>
</g>
<!-- Node37 -->
<g id="node37" class="node"><title>Node37</title>
<g id="a_node37"><a xlink:href="$AP__Math_8cpp.html#a08eedb329d8162ddbd344d4f6c8cde20" xlink:title="constrain_float">
<polygon fill="white" stroke="black" points="953,-119.5 953,-138.5 1033,-138.5 1033,-119.5 953,-119.5"/>
<text text-anchor="middle" x="993" y="-126.5" font-family="Helvetica,sans-Serif" font-size="10.00">constrain_float</text>
</a>
</g>
</g>
<!-- Node30&#45;&gt;Node37 -->
<g id="edge52" class="edge"><title>Node30&#45;&gt;Node37</title>
<path fill="none" stroke="midnightblue" d="M557.457,-185.781C574.547,-167.723 605.938,-138.604 640,-127 743.03,-91.8994 873.08,-106.608 942.682,-118.808"/>
<polygon fill="midnightblue" stroke="midnightblue" points="942.448,-122.323 952.911,-120.66 943.695,-115.435 942.448,-122.323"/>
</g>
<!-- Node33 -->
<g id="node33" class="node"><title>Node33</title>
<g id="a_node33"><a xlink:href="$classDigitalLPF.html#a3b7217283a52a01a86e7ab0c68a3ca96" xlink:title="DigitalLPF::reset">
<polygon fill="white" stroke="black" points="802,-5.5 802,-24.5 892,-24.5 892,-5.5 802,-5.5"/>
<text text-anchor="middle" x="847" y="-12.5" font-family="Helvetica,sans-Serif" font-size="10.00">DigitalLPF::reset</text>
</a>
</g>
</g>
<!-- Node32&#45;&gt;Node33 -->
<g id="edge44" class="edge"><title>Node32&#45;&gt;Node33</title>
<path fill="none" stroke="midnightblue" d="M756.255,-15C767.859,-15 780.031,-15 791.535,-15"/>
<polygon fill="midnightblue" stroke="midnightblue" points="791.877,-18.5001 801.876,-15 791.876,-11.5001 791.877,-18.5001"/>
</g>
<!-- Node36 -->
<g id="node36" class="node"><title>Node36</title>
<g id="a_node36"><a xlink:href="$classDigitalLPF.html#aec513ab9bc5165163c6ec87692f804e8" xlink:title="DigitalLPF::apply">
<polygon fill="white" stroke="black" points="801,-139.5 801,-158.5 893,-158.5 893,-139.5 801,-139.5"/>
<text text-anchor="middle" x="847" y="-146.5" font-family="Helvetica,sans-Serif" font-size="10.00">DigitalLPF::apply</text>
</a>
</g>
</g>
<!-- Node35&#45;&gt;Node36 -->
<g id="edge48" class="edge"><title>Node35&#45;&gt;Node36</title>
<path fill="none" stroke="midnightblue" d="M756.255,-150.832C767.612,-150.6 779.513,-150.357 790.8,-150.127"/>
<polygon fill="midnightblue" stroke="midnightblue" points="791.032,-153.623 800.959,-149.919 790.889,-146.624 791.032,-153.623"/>
</g>
<!-- Node36&#45;&gt;Node37 -->
<g id="edge49" class="edge"><title>Node36&#45;&gt;Node37</title>
<path fill="none" stroke="midnightblue" d="M893.167,-142.727C908.865,-140.547 926.548,-138.091 942.571,-135.865"/>
<polygon fill="midnightblue" stroke="midnightblue" points="943.4,-139.284 952.824,-134.441 942.437,-132.35 943.4,-139.284"/>
</g>
</g>
</svg>
