<?xml version="1.0" encoding="UTF-8" standalone="no"?>
<!DOCTYPE svg PUBLIC "-//W3C//DTD SVG 1.1//EN"
 "http://www.w3.org/Graphics/SVG/1.1/DTD/svg11.dtd">
<!-- Generated by graphviz version 2.36.0 (20140111.2315)
 -->
<!-- Title: DerivativeFilter::update Pages: 1 -->
<svg width="466pt" height="85pt"
 viewBox="0.00 0.00 466.00 85.00" xmlns="http://www.w3.org/2000/svg" xmlns:xlink="http://www.w3.org/1999/xlink">
<g id="graph0" class="graph" transform="scale(1 1) rotate(0) translate(4 81)">
<title>DerivativeFilter::update</title>
<polygon fill="white" stroke="none" points="-4,4 -4,-81 462,-81 462,4 -4,4"/>
<!-- Node1 -->
<g id="node1" class="node"><title>Node1</title>
<polygon fill="#bfbfbf" stroke="black" points="0,-38.5 0,-57.5 118,-57.5 118,-38.5 0,-38.5"/>
<text text-anchor="middle" x="59" y="-45.5" font-family="Helvetica,sans-Serif" font-size="10.00">DerivativeFilter::update</text>
</g>
<!-- Node2 -->
<g id="node2" class="node"><title>Node2</title>
<g id="a_node2"><a xlink:href="$Derivative_8pde.html#afe461d27b9c48d5921c00d521181f12f" xlink:title="loop">
<polygon fill="white" stroke="black" points="182.5,-57.5 182.5,-76.5 217.5,-76.5 217.5,-57.5 182.5,-57.5"/>
<text text-anchor="middle" x="200" y="-64.5" font-family="Helvetica,sans-Serif" font-size="10.00">loop</text>
</a>
</g>
</g>
<!-- Node1&#45;&gt;Node2 -->
<g id="edge1" class="edge"><title>Node1&#45;&gt;Node2</title>
<path fill="none" stroke="midnightblue" d="M128.284,-57.3337C148.377,-60.0804 168.607,-62.8456 182.251,-64.7105"/>
<polygon fill="midnightblue" stroke="midnightblue" points="128.525,-53.8343 118.143,-55.9476 127.577,-60.7698 128.525,-53.8343"/>
</g>
<!-- Node3 -->
<g id="node3" class="node"><title>Node3</title>
<g id="a_node3"><a xlink:href="$classAP__Baro.html#a51144302ade095d22cafe8fa4928fd29" xlink:title="AP_Baro::update">
<polygon fill="white" stroke="black" points="154.5,-19.5 154.5,-38.5 245.5,-38.5 245.5,-19.5 154.5,-19.5"/>
<text text-anchor="middle" x="200" y="-26.5" font-family="Helvetica,sans-Serif" font-size="10.00">AP_Baro::update</text>
</a>
</g>
</g>
<!-- Node1&#45;&gt;Node3 -->
<g id="edge2" class="edge"><title>Node1&#45;&gt;Node3</title>
<path fill="none" stroke="midnightblue" d="M128.104,-38.6909C136.964,-37.4797 145.856,-36.2643 154.2,-35.1237"/>
<polygon fill="midnightblue" stroke="midnightblue" points="127.577,-35.2302 118.143,-40.0524 128.525,-42.1657 127.577,-35.2302"/>
</g>
<!-- Node4 -->
<g id="node4" class="node"><title>Node4</title>
<g id="a_node4"><a xlink:href="$classAP__Baro.html#aead101a2ea48cacf195ea157e8b5c7da" xlink:title="AP_Baro::calibrate">
<polygon fill="white" stroke="black" points="282,-38.5 282,-57.5 380,-57.5 380,-38.5 282,-38.5"/>
<text text-anchor="middle" x="331" y="-45.5" font-family="Helvetica,sans-Serif" font-size="10.00">AP_Baro::calibrate</text>
</a>
</g>
</g>
<!-- Node3&#45;&gt;Node4 -->
<g id="edge3" class="edge"><title>Node3&#45;&gt;Node4</title>
<path fill="none" stroke="midnightblue" d="M255.767,-37.0664C264.421,-38.3411 273.315,-39.651 281.805,-40.9015"/>
<polygon fill="midnightblue" stroke="midnightblue" points="256.159,-33.5865 245.756,-35.592 255.139,-40.5118 256.159,-33.5865"/>
</g>
<!-- Node6 -->
<g id="node6" class="node"><title>Node6</title>
<g id="a_node6"><a xlink:href="$BARO__generic_8pde.html#afe461d27b9c48d5921c00d521181f12f" xlink:title="loop">
<polygon fill="white" stroke="black" points="313.5,-0.5 313.5,-19.5 348.5,-19.5 348.5,-0.5 313.5,-0.5"/>
<text text-anchor="middle" x="331" y="-7.5" font-family="Helvetica,sans-Serif" font-size="10.00">loop</text>
</a>
</g>
</g>
<!-- Node3&#45;&gt;Node6 -->
<g id="edge5" class="edge"><title>Node3&#45;&gt;Node6</title>
<path fill="none" stroke="midnightblue" d="M255.83,-20.9242C276.657,-17.8567 298.861,-14.5864 313.487,-12.4322"/>
<polygon fill="midnightblue" stroke="midnightblue" points="255.139,-17.4882 245.756,-22.408 256.159,-24.4135 255.139,-17.4882"/>
</g>
<!-- Node5 -->
<g id="node5" class="node"><title>Node5</title>
<g id="a_node5"><a xlink:href="$BARO__generic_8pde.html#a4fc01d736fe50cf5b977f755b675f11d" xlink:title="setup">
<polygon fill="white" stroke="black" points="416.5,-38.5 416.5,-57.5 457.5,-57.5 457.5,-38.5 416.5,-38.5"/>
<text text-anchor="middle" x="437" y="-45.5" font-family="Helvetica,sans-Serif" font-size="10.00">setup</text>
</a>
</g>
</g>
<!-- Node4&#45;&gt;Node5 -->
<g id="edge4" class="edge"><title>Node4&#45;&gt;Node5</title>
<path fill="none" stroke="midnightblue" d="M390.315,-48C399.736,-48 408.876,-48 416.474,-48"/>
<polygon fill="midnightblue" stroke="midnightblue" points="390.043,-44.5001 380.042,-48 390.042,-51.5001 390.043,-44.5001"/>
</g>
</g>
</svg>
