<?xml version="1.0" encoding="UTF-8" standalone="no"?>
<!DOCTYPE svg PUBLIC "-//W3C//DTD SVG 1.1//EN"
 "http://www.w3.org/Graphics/SVG/1.1/DTD/svg11.dtd">
<!-- Generated by graphviz version 2.36.0 (20140111.2315)
 -->
<!-- Title: AP_Declination::get_lookup_value Pages: 1 -->
<svg width="394pt" height="77pt"
 viewBox="0.00 0.00 394.00 77.00" xmlns="http://www.w3.org/2000/svg" xmlns:xlink="http://www.w3.org/1999/xlink">
<g id="graph0" class="graph" transform="scale(1 1) rotate(0) translate(4 73)">
<title>AP_Declination::get_lookup_value</title>
<polygon fill="white" stroke="none" points="-4,4 -4,-73 390,-73 390,4 -4,4"/>
<!-- Node1 -->
<g id="node1" class="node"><title>Node1</title>
<polygon fill="#bfbfbf" stroke="black" points="0,-17 0,-47 104,-47 104,-17 0,-17"/>
<text text-anchor="start" x="8" y="-35" font-family="Helvetica,sans-Serif" font-size="10.00">AP_Declination::get</text>
<text text-anchor="middle" x="52" y="-24" font-family="Helvetica,sans-Serif" font-size="10.00">_lookup_value</text>
</g>
<!-- Node2 -->
<g id="node2" class="node"><title>Node2</title>
<g id="a_node2"><a xlink:href="$classAP__Declination.html#a8819112a0ea684422948a1ae8bc4f0de" xlink:title="AP_Declination::get\l_declination">
<polygon fill="white" stroke="black" points="140,-17 140,-47 244,-47 244,-17 140,-17"/>
<text text-anchor="start" x="148" y="-35" font-family="Helvetica,sans-Serif" font-size="10.00">AP_Declination::get</text>
<text text-anchor="middle" x="192" y="-24" font-family="Helvetica,sans-Serif" font-size="10.00">_declination</text>
</a>
</g>
</g>
<!-- Node1&#45;&gt;Node2 -->
<g id="edge1" class="edge"><title>Node1&#45;&gt;Node2</title>
<path fill="none" stroke="midnightblue" d="M114.496,-32C122.872,-32 131.398,-32 139.571,-32"/>
<polygon fill="midnightblue" stroke="midnightblue" points="114.386,-28.5001 104.386,-32 114.386,-35.5001 114.386,-28.5001"/>
</g>
<!-- Node3 -->
<g id="node3" class="node"><title>Node3</title>
<g id="a_node3"><a xlink:href="$classCompass.html#a95d49517b12183412d9d0ed481b785bf" xlink:title="Compass::set_initial\l_location">
<polygon fill="white" stroke="black" points="280,-39 280,-69 386,-69 386,-39 280,-39"/>
<text text-anchor="start" x="288" y="-57" font-family="Helvetica,sans-Serif" font-size="10.00">Compass::set_initial</text>
<text text-anchor="middle" x="333" y="-46" font-family="Helvetica,sans-Serif" font-size="10.00">_location</text>
</a>
</g>
</g>
<!-- Node2&#45;&gt;Node3 -->
<g id="edge2" class="edge"><title>Node2&#45;&gt;Node3</title>
<path fill="none" stroke="midnightblue" d="M254.292,-41.7009C262.842,-43.0541 271.56,-44.4339 279.919,-45.7569"/>
<polygon fill="midnightblue" stroke="midnightblue" points="254.788,-38.2359 244.364,-40.1295 253.693,-45.1498 254.788,-38.2359"/>
</g>
<!-- Node4 -->
<g id="node4" class="node"><title>Node4</title>
<g id="a_node4"><a xlink:href="$AP__Declination__test_8pde.html#a7dfd9b79bc5a37d7df40207afbc5431f" xlink:title="setup">
<polygon fill="white" stroke="black" points="312.5,-0.5 312.5,-19.5 353.5,-19.5 353.5,-0.5 312.5,-0.5"/>
<text text-anchor="middle" x="333" y="-7.5" font-family="Helvetica,sans-Serif" font-size="10.00">setup</text>
</a>
</g>
</g>
<!-- Node2&#45;&gt;Node4 -->
<g id="edge3" class="edge"><title>Node2&#45;&gt;Node4</title>
<path fill="none" stroke="midnightblue" d="M254.493,-22.2674C275.354,-18.9656 297.19,-15.5095 312.348,-13.1103"/>
<polygon fill="midnightblue" stroke="midnightblue" points="253.693,-18.8502 244.364,-23.8705 254.788,-25.7641 253.693,-18.8502"/>
</g>
</g>
</svg>
