<?xml version="1.0" encoding="UTF-8" standalone="no"?>
<!DOCTYPE svg PUBLIC "-//W3C//DTD SVG 1.1//EN"
 "http://www.w3.org/Graphics/SVG/1.1/DTD/svg11.dtd">
<!-- Generated by graphviz version 2.36.0 (20140111.2315)
 -->
<!-- Title: libraries/AC_Sprayer Pages: 1 -->
<svg width="307pt" height="439pt"
 viewBox="0.00 0.00 307.16 439.00" xmlns="http://www.w3.org/2000/svg" xmlns:xlink="http://www.w3.org/1999/xlink">
<g id="graph0" class="graph" transform="scale(1 1) rotate(0) translate(4 435)">
<title>libraries/AC_Sprayer</title>
<polygon fill="white" stroke="none" points="-4,4 -4,-435 303.159,-435 303.159,4 -4,4"/>
<g id="clust1" class="cluster"><title>clusterdir_bc0718b08fb2015b8e59c47b2805f60c</title>
<g id="a_clust1"><a xlink:href="dir_bc0718b08fb2015b8e59c47b2805f60c.html" xlink:title="libraries">
<polygon fill="#ddddee" stroke="black" points="92,-352 92,-423 178,-423 178,-352 92,-352"/>
<text text-anchor="middle" x="135" y="-411" font-family="Helvetica,sans-Serif" font-size="10.00">libraries</text>
</a>
</g>
</g>
<!-- dir_7cef611b6147667c01ebf29f2582ae5e -->
<g id="node1" class="node"><title>dir_7cef611b6147667c01ebf29f2582ae5e</title>
<g id="a_node1"><a xlink:href="dir_7cef611b6147667c01ebf29f2582ae5e.html" xlink:title="AC_Sprayer">
<polygon fill="#eeeeff" stroke="black" points="170,-396 100,-396 100,-360 170,-360 170,-396"/>
<text text-anchor="middle" x="135" y="-375.5" font-family="Helvetica,sans-Serif" font-size="10.00">AC_Sprayer</text>
</a>
</g>
</g>
<!-- dir_9517a59ccb1d85d9df7fc09e86ba5740 -->
<g id="node2" class="node"><title>dir_9517a59ccb1d85d9df7fc09e86ba5740</title>
<g id="a_node2"><a xlink:href="dir_9517a59ccb1d85d9df7fc09e86ba5740.html" xlink:title="RC_Channel">
<polygon fill="white" stroke="red" points="139.25,-324 66.75,-324 66.75,-288 139.25,-288 139.25,-324"/>
<text text-anchor="middle" x="103" y="-303.5" font-family="Helvetica,sans-Serif" font-size="10.00">RC_Channel</text>
</a>
</g>
</g>
<!-- dir_7cef611b6147667c01ebf29f2582ae5e&#45;&gt;dir_9517a59ccb1d85d9df7fc09e86ba5740 -->
<g id="edge18" class="edge"><title>dir_7cef611b6147667c01ebf29f2582ae5e&#45;&gt;dir_9517a59ccb1d85d9df7fc09e86ba5740</title>
<path fill="none" stroke="black" d="M127.09,-359.697C123.447,-351.728 119.046,-342.1 115.006,-333.264"/>
<polygon fill="black" stroke="black" points="118.16,-331.744 110.819,-324.104 111.794,-334.654 118.16,-331.744"/>
<g id="a_edge18&#45;headlabel"><a xlink:href="dir_000006_000191.html" xlink:title="1">
<text text-anchor="middle" x="122.237" y="-331.333" font-family="Helvetica,sans-Serif" font-size="10.00">1</text>
</a>
</g>
</g>
<!-- dir_1cbc10423b2512b31103883361e0123b -->
<g id="node3" class="node"><title>dir_1cbc10423b2512b31103883361e0123b</title>
<g id="a_node3"><a xlink:href="dir_1cbc10423b2512b31103883361e0123b.html" xlink:title="AP_HAL">
<polygon fill="white" stroke="red" points="257.25,-252 202.75,-252 202.75,-216 257.25,-216 257.25,-252"/>
<text text-anchor="middle" x="230" y="-231.5" font-family="Helvetica,sans-Serif" font-size="10.00">AP_HAL</text>
</a>
</g>
</g>
<!-- dir_7cef611b6147667c01ebf29f2582ae5e&#45;&gt;dir_1cbc10423b2512b31103883361e0123b -->
<g id="edge19" class="edge"><title>dir_7cef611b6147667c01ebf29f2582ae5e&#45;&gt;dir_1cbc10423b2512b31103883361e0123b</title>
<path fill="none" stroke="black" d="M144.031,-359.795C153.861,-341.511 170.405,-311.989 187,-288 193.539,-278.548 201.296,-268.649 208.409,-260"/>
<polygon fill="black" stroke="black" points="211.246,-262.064 214.971,-252.145 205.874,-257.576 211.246,-262.064"/>
<g id="a_edge19&#45;headlabel"><a xlink:href="dir_000006_000044.html" xlink:title="1">
<text text-anchor="middle" x="211.12" y="-264.143" font-family="Helvetica,sans-Serif" font-size="10.00">1</text>
</a>
</g>
</g>
<!-- dir_e2bd83a63617af771129da87c3dea2f2 -->
<g id="node4" class="node"><title>dir_e2bd83a63617af771129da87c3dea2f2</title>
<g id="a_node4"><a xlink:href="dir_e2bd83a63617af771129da87c3dea2f2.html" xlink:title="AP_InertialNav">
<polygon fill="none" stroke="black" points="279.25,-324 196.75,-324 196.75,-288 279.25,-288 279.25,-324"/>
<text text-anchor="middle" x="238" y="-303.5" font-family="Helvetica,sans-Serif" font-size="10.00">AP_InertialNav</text>
</a>
</g>
</g>
<!-- dir_7cef611b6147667c01ebf29f2582ae5e&#45;&gt;dir_e2bd83a63617af771129da87c3dea2f2 -->
<g id="edge20" class="edge"><title>dir_7cef611b6147667c01ebf29f2582ae5e&#45;&gt;dir_e2bd83a63617af771129da87c3dea2f2</title>
<path fill="none" stroke="black" d="M160.197,-359.876C173.414,-350.893 189.792,-339.763 204.107,-330.034"/>
<polygon fill="black" stroke="black" points="206.403,-332.705 212.707,-324.19 202.468,-326.916 206.403,-332.705"/>
<g id="a_edge20&#45;headlabel"><a xlink:href="dir_000006_000102.html" xlink:title="1">
<text text-anchor="middle" x="205.026" y="-334.574" font-family="Helvetica,sans-Serif" font-size="10.00">1</text>
</a>
</g>
</g>
<!-- dir_200d929b8d5577e7f19dc05ce443c612 -->
<g id="node5" class="node"><title>dir_200d929b8d5577e7f19dc05ce443c612</title>
<g id="a_node5"><a xlink:href="dir_200d929b8d5577e7f19dc05ce443c612.html" xlink:title="AP_Param">
<polygon fill="white" stroke="red" points="262,-180 198,-180 198,-144 262,-144 262,-180"/>
<text text-anchor="middle" x="230" y="-159.5" font-family="Helvetica,sans-Serif" font-size="10.00">AP_Param</text>
</a>
</g>
</g>
<!-- dir_7cef611b6147667c01ebf29f2582ae5e&#45;&gt;dir_200d929b8d5577e7f19dc05ce443c612 -->
<g id="edge21" class="edge"><title>dir_7cef611b6147667c01ebf29f2582ae5e&#45;&gt;dir_200d929b8d5577e7f19dc05ce443c612</title>
<path fill="none" stroke="black" d="M170.051,-375.907C206.328,-372.677 261.345,-361.443 288,-324 318.18,-281.607 279.909,-221.855 252.728,-188.344"/>
<polygon fill="black" stroke="black" points="255.203,-185.847 246.105,-180.416 249.831,-190.334 255.203,-185.847"/>
<g id="a_edge21&#45;headlabel"><a xlink:href="dir_000006_000144.html" xlink:title="1">
<text text-anchor="middle" x="259.686" y="-184.285" font-family="Helvetica,sans-Serif" font-size="10.00">1</text>
</a>
</g>
</g>
<!-- dir_93fb9127672489656ce87df72f6e986d -->
<g id="node6" class="node"><title>dir_93fb9127672489656ce87df72f6e986d</title>
<g id="a_node6"><a xlink:href="dir_93fb9127672489656ce87df72f6e986d.html" xlink:title="AP_Math">
<polygon fill="white" stroke="red" points="223.25,-36 166.75,-36 166.75,-0 223.25,-0 223.25,-36"/>
<text text-anchor="middle" x="195" y="-15.5" font-family="Helvetica,sans-Serif" font-size="10.00">AP_Math</text>
</a>
</g>
</g>
<!-- dir_7cef611b6147667c01ebf29f2582ae5e&#45;&gt;dir_93fb9127672489656ce87df72f6e986d -->
<g id="edge22" class="edge"><title>dir_7cef611b6147667c01ebf29f2582ae5e&#45;&gt;dir_93fb9127672489656ce87df72f6e986d</title>
<path fill="none" stroke="black" d="M99.8371,-360.696C82.9862,-351.63 63.3914,-339.115 49,-324 17.8633,-291.298 0,-280.154 0,-235 0,-235 0,-235 0,-161 0,-84.1587 100.172,-44.5206 156.924,-28.2299"/>
<polygon fill="black" stroke="black" points="157.938,-31.5809 166.645,-25.5451 156.074,-24.8335 157.938,-31.5809"/>
<g id="a_edge22&#45;headlabel"><a xlink:href="dir_000006_000111.html" xlink:title="1">
<text text-anchor="middle" x="155.229" y="-32.7746" font-family="Helvetica,sans-Serif" font-size="10.00">1</text>
</a>
</g>
</g>
<!-- dir_df3f4256615fd4197927a84a019a8bd8 -->
<g id="node7" class="node"><title>dir_df3f4256615fd4197927a84a019a8bd8</title>
<g id="a_node7"><a xlink:href="dir_df3f4256615fd4197927a84a019a8bd8.html" xlink:title="AP_Common">
<polygon fill="white" stroke="red" points="195.25,-108 120.75,-108 120.75,-72 195.25,-72 195.25,-108"/>
<text text-anchor="middle" x="158" y="-87.5" font-family="Helvetica,sans-Serif" font-size="10.00">AP_Common</text>
</a>
</g>
</g>
<!-- dir_7cef611b6147667c01ebf29f2582ae5e&#45;&gt;dir_df3f4256615fd4197927a84a019a8bd8 -->
<g id="edge23" class="edge"><title>dir_7cef611b6147667c01ebf29f2582ae5e&#45;&gt;dir_df3f4256615fd4197927a84a019a8bd8</title>
<path fill="none" stroke="black" d="M99.7268,-362.503C83.6125,-353.881 66.1172,-341.218 57,-324 49.5126,-309.86 53.2454,-303.553 57,-288 73.0056,-221.699 115.355,-152.653 139.833,-116.528"/>
<polygon fill="black" stroke="black" points="142.864,-118.298 145.645,-108.074 137.095,-114.332 142.864,-118.298"/>
<g id="a_edge23&#45;headlabel"><a xlink:href="dir_000006_000028.html" xlink:title="1">
<text text-anchor="middle" x="143.167" y="-120.368" font-family="Helvetica,sans-Serif" font-size="10.00">1</text>
</a>
</g>
</g>
<!-- dir_9517a59ccb1d85d9df7fc09e86ba5740&#45;&gt;dir_1cbc10423b2512b31103883361e0123b -->
<g id="edge1" class="edge"><title>dir_9517a59ccb1d85d9df7fc09e86ba5740&#45;&gt;dir_1cbc10423b2512b31103883361e0123b</title>
<path fill="none" stroke="black" d="M134.068,-287.876C152.116,-277.928 174.943,-265.346 193.802,-254.952"/>
<polygon fill="black" stroke="black" points="195.635,-257.938 202.703,-250.046 192.256,-251.808 195.635,-257.938"/>
<g id="a_edge1&#45;headlabel"><a xlink:href="dir_000191_000044.html" xlink:title="4">
<text text-anchor="middle" x="193.857" y="-259.66" font-family="Helvetica,sans-Serif" font-size="10.00">4</text>
</a>
</g>
</g>
<!-- dir_9517a59ccb1d85d9df7fc09e86ba5740&#45;&gt;dir_200d929b8d5577e7f19dc05ce443c612 -->
<g id="edge2" class="edge"><title>dir_9517a59ccb1d85d9df7fc09e86ba5740&#45;&gt;dir_200d929b8d5577e7f19dc05ce443c612</title>
<path fill="none" stroke="black" d="M118.319,-287.871C140.631,-262.924 182.197,-216.45 207.844,-187.773"/>
<polygon fill="black" stroke="black" points="210.569,-189.976 214.627,-180.189 205.351,-185.31 210.569,-189.976"/>
<g id="a_edge2&#45;headlabel"><a xlink:href="dir_000191_000144.html" xlink:title="2">
<text text-anchor="middle" x="210.289" y="-192.048" font-family="Helvetica,sans-Serif" font-size="10.00">2</text>
</a>
</g>
</g>
<!-- dir_9517a59ccb1d85d9df7fc09e86ba5740&#45;&gt;dir_93fb9127672489656ce87df72f6e986d -->
<g id="edge3" class="edge"><title>dir_9517a59ccb1d85d9df7fc09e86ba5740&#45;&gt;dir_93fb9127672489656ce87df72f6e986d</title>
<path fill="none" stroke="black" d="M98.4843,-287.737C88.8468,-246.984 70.2953,-142.907 111,-72 121.213,-54.2087 140.075,-41.5072 157.341,-33.0071"/>
<polygon fill="black" stroke="black" points="159.075,-36.0626 166.704,-28.7115 156.156,-29.7002 159.075,-36.0626"/>
<g id="a_edge3&#45;headlabel"><a xlink:href="dir_000191_000111.html" xlink:title="3">
<text text-anchor="middle" x="156.992" y="-37.6421" font-family="Helvetica,sans-Serif" font-size="10.00">3</text>
</a>
</g>
</g>
<!-- dir_9517a59ccb1d85d9df7fc09e86ba5740&#45;&gt;dir_df3f4256615fd4197927a84a019a8bd8 -->
<g id="edge4" class="edge"><title>dir_9517a59ccb1d85d9df7fc09e86ba5740&#45;&gt;dir_df3f4256615fd4197927a84a019a8bd8</title>
<path fill="none" stroke="black" d="M107.408,-287.849C116.942,-250.753 139.544,-162.81 151.034,-118.103"/>
<polygon fill="black" stroke="black" points="154.472,-118.789 153.571,-108.232 147.692,-117.046 154.472,-118.789"/>
<g id="a_edge4&#45;headlabel"><a xlink:href="dir_000191_000028.html" xlink:title="2">
<text text-anchor="middle" x="156.327" y="-120.477" font-family="Helvetica,sans-Serif" font-size="10.00">2</text>
</a>
</g>
</g>
<!-- dir_1cbc10423b2512b31103883361e0123b&#45;&gt;dir_200d929b8d5577e7f19dc05ce443c612 -->
<g id="edge5" class="edge"><title>dir_1cbc10423b2512b31103883361e0123b&#45;&gt;dir_200d929b8d5577e7f19dc05ce443c612</title>
<path fill="none" stroke="black" d="M224.084,-215.697C223.289,-207.983 223.062,-198.712 223.405,-190.112"/>
<polygon fill="black" stroke="black" points="226.898,-190.324 224.105,-180.104 219.915,-189.836 226.898,-190.324"/>
<g id="a_edge5&#45;headlabel"><a xlink:href="dir_000044_000144.html" xlink:title="6">
<text text-anchor="middle" x="229.48" y="-191.608" font-family="Helvetica,sans-Serif" font-size="10.00">6</text>
</a>
</g>
</g>
<!-- dir_1cbc10423b2512b31103883361e0123b&#45;&gt;dir_93fb9127672489656ce87df72f6e986d -->
<g id="edge6" class="edge"><title>dir_1cbc10423b2512b31103883361e0123b&#45;&gt;dir_93fb9127672489656ce87df72f6e986d</title>
<path fill="none" stroke="black" d="M240.143,-215.677C247.885,-206.097 257.412,-193.43 262,-180 267.173,-164.859 265.589,-159.592 262,-144 253.171,-105.644 227.182,-67.9201 210.039,-44.118"/>
<polygon fill="black" stroke="black" points="212.868,-42.0563 204.172,-36.0033 207.195,-46.1578 212.868,-42.0563"/>
<g id="a_edge6&#45;headlabel"><a xlink:href="dir_000044_000111.html" xlink:title="7">
<text text-anchor="middle" x="217.275" y="-40.8057" font-family="Helvetica,sans-Serif" font-size="10.00">7</text>
</a>
</g>
</g>
<!-- dir_1cbc10423b2512b31103883361e0123b&#45;&gt;dir_df3f4256615fd4197927a84a019a8bd8 -->
<g id="edge7" class="edge"><title>dir_1cbc10423b2512b31103883361e0123b&#45;&gt;dir_df3f4256615fd4197927a84a019a8bd8</title>
<path fill="none" stroke="black" d="M206.497,-215.848C197.027,-205.926 186.986,-192.886 180,-180 169.309,-160.281 161.178,-136.158 157.314,-118.003"/>
<polygon fill="black" stroke="black" points="160.746,-117.312 155.544,-108.082 153.855,-118.541 160.746,-117.312"/>
<g id="a_edge7&#45;headlabel"><a xlink:href="dir_000044_000028.html" xlink:title="7">
<text text-anchor="middle" x="164.172" y="-117.852" font-family="Helvetica,sans-Serif" font-size="10.00">7</text>
</a>
</g>
</g>
<!-- dir_e2bd83a63617af771129da87c3dea2f2&#45;&gt;dir_1cbc10423b2512b31103883361e0123b -->
<g id="edge8" class="edge"><title>dir_e2bd83a63617af771129da87c3dea2f2&#45;&gt;dir_1cbc10423b2512b31103883361e0123b</title>
<path fill="none" stroke="black" d="M236.022,-287.697C235.141,-279.983 234.081,-270.712 233.099,-262.112"/>
<polygon fill="black" stroke="black" points="236.568,-261.642 231.955,-252.104 229.613,-262.437 236.568,-261.642"/>
<g id="a_edge8&#45;headlabel"><a xlink:href="dir_000102_000044.html" xlink:title="1">
<text text-anchor="middle" x="239.797" y="-262.391" font-family="Helvetica,sans-Serif" font-size="10.00">1</text>
</a>
</g>
</g>
<!-- dir_200d929b8d5577e7f19dc05ce443c612&#45;&gt;dir_1cbc10423b2512b31103883361e0123b -->
<g id="edge9" class="edge"><title>dir_200d929b8d5577e7f19dc05ce443c612&#45;&gt;dir_1cbc10423b2512b31103883361e0123b</title>
<path fill="none" stroke="black" d="M235.895,-180.104C236.701,-187.791 236.937,-197.054 236.604,-205.665"/>
<polygon fill="black" stroke="black" points="233.109,-205.48 235.916,-215.697 240.092,-205.96 233.109,-205.48"/>
<g id="a_edge9&#45;headlabel"><a xlink:href="dir_000144_000044.html" xlink:title="2">
<text text-anchor="middle" x="230.522" y="-199.2" font-family="Helvetica,sans-Serif" font-size="10.00">2</text>
</a>
</g>
</g>
<!-- dir_200d929b8d5577e7f19dc05ce443c612&#45;&gt;dir_93fb9127672489656ce87df72f6e986d -->
<g id="edge10" class="edge"><title>dir_200d929b8d5577e7f19dc05ce443c612&#45;&gt;dir_93fb9127672489656ce87df72f6e986d</title>
<path fill="none" stroke="black" d="M221.194,-143.871C212.67,-119.67 201.42,-75.2108 196.293,-46.3932"/>
<polygon fill="black" stroke="black" points="199.695,-45.5038 194.646,-36.1893 192.784,-46.6192 199.695,-45.5038"/>
<g id="a_edge10&#45;headlabel"><a xlink:href="dir_000144_000111.html" xlink:title="1">
<text text-anchor="middle" x="203.07" y="-46.1001" font-family="Helvetica,sans-Serif" font-size="10.00">1</text>
</a>
</g>
</g>
<!-- dir_200d929b8d5577e7f19dc05ce443c612&#45;&gt;dir_df3f4256615fd4197927a84a019a8bd8 -->
<g id="edge11" class="edge"><title>dir_200d929b8d5577e7f19dc05ce443c612&#45;&gt;dir_df3f4256615fd4197927a84a019a8bd8</title>
<path fill="none" stroke="black" d="M206.287,-143.697C196.693,-135.22 185.854,-124.864 176.808,-115.583"/>
<polygon fill="black" stroke="black" points="179.125,-112.94 169.698,-108.104 174.052,-117.763 179.125,-112.94"/>
<g id="a_edge11&#45;headlabel"><a xlink:href="dir_000144_000028.html" xlink:title="1">
<text text-anchor="middle" x="183.659" y="-111.089" font-family="Helvetica,sans-Serif" font-size="10.00">1</text>
</a>
</g>
</g>
<!-- dir_93fb9127672489656ce87df72f6e986d&#45;&gt;dir_1cbc10423b2512b31103883361e0123b -->
<g id="edge12" class="edge"><title>dir_93fb9127672489656ce87df72f6e986d&#45;&gt;dir_1cbc10423b2512b31103883361e0123b</title>
<path fill="none" stroke="black" d="M216.52,-36.0033C238.539,-58.664 270.087,-100.934 280,-144 283.589,-159.592 285.173,-164.859 280,-180 276.523,-190.178 270.21,-199.917 263.139,-208.206"/>
<polygon fill="black" stroke="black" points="260.439,-205.97 256.195,-215.677 265.566,-210.735 260.439,-205.97"/>
<g id="a_edge12&#45;headlabel"><a xlink:href="dir_000111_000044.html" xlink:title="5">
<text text-anchor="middle" x="260.807" y="-198.904" font-family="Helvetica,sans-Serif" font-size="10.00">5</text>
</a>
</g>
</g>
<!-- dir_93fb9127672489656ce87df72f6e986d&#45;&gt;dir_200d929b8d5577e7f19dc05ce443c612 -->
<g id="edge13" class="edge"><title>dir_93fb9127672489656ce87df72f6e986d&#45;&gt;dir_200d929b8d5577e7f19dc05ce443c612</title>
<path fill="none" stroke="black" d="M203.828,-36.1893C212.356,-60.4244 223.603,-104.888 228.72,-133.679"/>
<polygon fill="black" stroke="black" points="225.316,-134.556 230.363,-143.871 232.227,-133.442 225.316,-134.556"/>
<g id="a_edge13&#45;headlabel"><a xlink:href="dir_000111_000144.html" xlink:title="5">
<text text-anchor="middle" x="221.941" y="-128.959" font-family="Helvetica,sans-Serif" font-size="10.00">5</text>
</a>
</g>
</g>
<!-- dir_93fb9127672489656ce87df72f6e986d&#45;&gt;dir_df3f4256615fd4197927a84a019a8bd8 -->
<g id="edge14" class="edge"><title>dir_93fb9127672489656ce87df72f6e986d&#45;&gt;dir_df3f4256615fd4197927a84a019a8bd8</title>
<path fill="none" stroke="black" d="M191.854,-36.1043C188.418,-44.2136 183.421,-54.0763 178.245,-63.0783"/>
<polygon fill="black" stroke="black" points="175.217,-61.3233 173.062,-71.6966 181.215,-64.9312 175.217,-61.3233"/>
<g id="a_edge14&#45;headlabel"><a xlink:href="dir_000111_000028.html" xlink:title="5">
<text text-anchor="middle" x="174.636" y="-54.2795" font-family="Helvetica,sans-Serif" font-size="10.00">5</text>
</a>
</g>
</g>
<!-- dir_df3f4256615fd4197927a84a019a8bd8&#45;&gt;dir_1cbc10423b2512b31103883361e0123b -->
<g id="edge15" class="edge"><title>dir_df3f4256615fd4197927a84a019a8bd8&#45;&gt;dir_1cbc10423b2512b31103883361e0123b</title>
<path fill="none" stroke="black" d="M168.812,-108.082C176.085,-126.519 185.211,-156.41 198,-180 203.185,-189.564 210.053,-199.213 216.244,-207.608"/>
<polygon fill="black" stroke="black" points="213.584,-209.898 222.351,-215.848 219.208,-205.73 213.584,-209.898"/>
<g id="a_edge15&#45;headlabel"><a xlink:href="dir_000028_000044.html" xlink:title="3">
<text text-anchor="middle" x="209.163" y="-206.201" font-family="Helvetica,sans-Serif" font-size="10.00">3</text>
</a>
</g>
</g>
<!-- dir_df3f4256615fd4197927a84a019a8bd8&#45;&gt;dir_200d929b8d5577e7f19dc05ce443c612 -->
<g id="edge16" class="edge"><title>dir_df3f4256615fd4197927a84a019a8bd8&#45;&gt;dir_200d929b8d5577e7f19dc05ce443c612</title>
<path fill="none" stroke="black" d="M181.488,-108.104C191.062,-116.552 201.905,-126.901 210.979,-136.199"/>
<polygon fill="black" stroke="black" points="208.687,-138.868 218.118,-143.697 213.757,-134.041 208.687,-138.868"/>
<g id="a_edge16&#45;headlabel"><a xlink:href="dir_000028_000144.html" xlink:title="1">
<text text-anchor="middle" x="204.152" y="-135.723" font-family="Helvetica,sans-Serif" font-size="10.00">1</text>
</a>
</g>
</g>
<!-- dir_df3f4256615fd4197927a84a019a8bd8&#45;&gt;dir_93fb9127672489656ce87df72f6e986d -->
<g id="edge17" class="edge"><title>dir_df3f4256615fd4197927a84a019a8bd8&#45;&gt;dir_93fb9127672489656ce87df72f6e986d</title>
<path fill="none" stroke="black" d="M161.23,-71.6966C164.692,-63.5589 169.703,-53.689 174.881,-44.7013"/>
<polygon fill="black" stroke="black" points="177.899,-46.4755 180.064,-36.1043 171.904,-42.8614 177.899,-46.4755"/>
<g id="a_edge17&#45;headlabel"><a xlink:href="dir_000028_000111.html" xlink:title="1">
<text text-anchor="middle" x="178.474" y="-48.5199" font-family="Helvetica,sans-Serif" font-size="10.00">1</text>
</a>
</g>
</g>
</g>
</svg>
