<?xml version="1.0" encoding="UTF-8" standalone="no"?>
<!DOCTYPE svg PUBLIC "-//W3C//DTD SVG 1.1//EN"
 "http://www.w3.org/Graphics/SVG/1.1/DTD/svg11.dtd">
<!-- Generated by graphviz version 2.36.0 (20140111.2315)
 -->
<!-- Title: libraries/AP_ADC/examples/AP_ADC_test Pages: 1 -->
<svg width="847pt" height="655pt"
 viewBox="0.00 0.00 847.00 655.00" xmlns="http://www.w3.org/2000/svg" xmlns:xlink="http://www.w3.org/1999/xlink">
<g id="graph0" class="graph" transform="scale(1 1) rotate(0) translate(4 651)">
<title>libraries/AP_ADC/examples/AP_ADC_test</title>
<polygon fill="white" stroke="none" points="-4,4 -4,-651 843,-651 843,4 -4,4"/>
<g id="clust1" class="cluster"><title>clusterdir_391e24b6cd18563e8e87270811549673</title>
<g id="a_clust1"><a xlink:href="dir_391e24b6cd18563e8e87270811549673.html" xlink:title="examples">
<polygon fill="#ddddee" stroke="black" points="464,-568 464,-639 558,-639 558,-568 464,-568"/>
<text text-anchor="middle" x="511" y="-627" font-family="Helvetica,sans-Serif" font-size="10.00">examples</text>
</a>
</g>
</g>
<!-- dir_13ea0dd0506d1472cf109788ab7e0643 -->
<g id="node1" class="node"><title>dir_13ea0dd0506d1472cf109788ab7e0643</title>
<g id="a_node1"><a xlink:href="dir_13ea0dd0506d1472cf109788ab7e0643.html" xlink:title="AP_ADC_test">
<polygon fill="#eeeeff" stroke="black" points="550.25,-612 471.75,-612 471.75,-576 550.25,-576 550.25,-612"/>
<text text-anchor="middle" x="511" y="-591.5" font-family="Helvetica,sans-Serif" font-size="10.00">AP_ADC_test</text>
</a>
</g>
</g>
<!-- dir_8368ee2f250655722bce4ae7bccd6615 -->
<g id="node2" class="node"><title>dir_8368ee2f250655722bce4ae7bccd6615</title>
<g id="a_node2"><a xlink:href="dir_8368ee2f250655722bce4ae7bccd6615.html" xlink:title="AP_HAL_Linux">
<polygon fill="white" stroke="red" points="677.25,-540 594.75,-540 594.75,-504 677.25,-504 677.25,-540"/>
<text text-anchor="middle" x="636" y="-519.5" font-family="Helvetica,sans-Serif" font-size="10.00">AP_HAL_Linux</text>
</a>
</g>
</g>
<!-- dir_13ea0dd0506d1472cf109788ab7e0643&#45;&gt;dir_8368ee2f250655722bce4ae7bccd6615 -->
<g id="edge13" class="edge"><title>dir_13ea0dd0506d1472cf109788ab7e0643&#45;&gt;dir_8368ee2f250655722bce4ae7bccd6615</title>
<path fill="none" stroke="black" d="M541.578,-575.876C558.074,-566.639 578.624,-555.131 596.336,-545.212"/>
<polygon fill="black" stroke="black" points="598.289,-548.13 605.304,-540.19 594.869,-542.022 598.289,-548.13"/>
<g id="a_edge13&#45;headlabel"><a xlink:href="dir_000010_000048.html" xlink:title="1">
<text text-anchor="middle" x="596.54" y="-549.863" font-family="Helvetica,sans-Serif" font-size="10.00">1</text>
</a>
</g>
</g>
<!-- dir_a788fa8059992b455dc670fb6cc9c1a5 -->
<g id="node3" class="node"><title>dir_a788fa8059992b455dc670fb6cc9c1a5</title>
<g id="a_node3"><a xlink:href="dir_a788fa8059992b455dc670fb6cc9c1a5.html" xlink:title="AP_HAL_AVR">
<polygon fill="white" stroke="red" points="266.25,-324 185.75,-324 185.75,-288 266.25,-288 266.25,-324"/>
<text text-anchor="middle" x="226" y="-303.5" font-family="Helvetica,sans-Serif" font-size="10.00">AP_HAL_AVR</text>
</a>
</g>
</g>
<!-- dir_13ea0dd0506d1472cf109788ab7e0643&#45;&gt;dir_a788fa8059992b455dc670fb6cc9c1a5 -->
<g id="edge14" class="edge"><title>dir_13ea0dd0506d1472cf109788ab7e0643&#45;&gt;dir_a788fa8059992b455dc670fb6cc9c1a5</title>
<path fill="none" stroke="black" d="M471.574,-584.637C416.256,-570.694 316.808,-537.121 267,-468 237.938,-427.669 229.424,-368.67 226.963,-334.419"/>
<polygon fill="black" stroke="black" points="230.444,-333.998 226.358,-324.223 223.457,-334.413 230.444,-333.998"/>
<g id="a_edge14&#45;headlabel"><a xlink:href="dir_000010_000045.html" xlink:title="1">
<text text-anchor="middle" x="233.491" y="-334.918" font-family="Helvetica,sans-Serif" font-size="10.00">1</text>
</a>
</g>
</g>
<!-- dir_1cbc10423b2512b31103883361e0123b -->
<g id="node4" class="node"><title>dir_1cbc10423b2512b31103883361e0123b</title>
<g id="a_node4"><a xlink:href="dir_1cbc10423b2512b31103883361e0123b.html" xlink:title="AP_HAL">
<polygon fill="white" stroke="red" points="331.25,-468 276.75,-468 276.75,-432 331.25,-432 331.25,-468"/>
<text text-anchor="middle" x="304" y="-447.5" font-family="Helvetica,sans-Serif" font-size="10.00">AP_HAL</text>
</a>
</g>
</g>
<!-- dir_13ea0dd0506d1472cf109788ab7e0643&#45;&gt;dir_1cbc10423b2512b31103883361e0123b -->
<g id="edge15" class="edge"><title>dir_13ea0dd0506d1472cf109788ab7e0643&#45;&gt;dir_1cbc10423b2512b31103883361e0123b</title>
<path fill="none" stroke="black" d="M486.031,-575.871C448.887,-550.391 379.006,-502.454 337.469,-473.959"/>
<polygon fill="black" stroke="black" points="339.284,-470.96 329.058,-468.189 335.324,-476.732 339.284,-470.96"/>
<g id="a_edge15&#45;headlabel"><a xlink:href="dir_000010_000044.html" xlink:title="1">
<text text-anchor="middle" x="343.854" y="-468.152" font-family="Helvetica,sans-Serif" font-size="10.00">1</text>
</a>
</g>
</g>
<!-- dir_200d929b8d5577e7f19dc05ce443c612 -->
<g id="node5" class="node"><title>dir_200d929b8d5577e7f19dc05ce443c612</title>
<g id="a_node5"><a xlink:href="dir_200d929b8d5577e7f19dc05ce443c612.html" xlink:title="AP_Param">
<polygon fill="white" stroke="red" points="504,-252 440,-252 440,-216 504,-216 504,-252"/>
<text text-anchor="middle" x="472" y="-231.5" font-family="Helvetica,sans-Serif" font-size="10.00">AP_Param</text>
</a>
</g>
</g>
<!-- dir_13ea0dd0506d1472cf109788ab7e0643&#45;&gt;dir_200d929b8d5577e7f19dc05ce443c612 -->
<g id="edge16" class="edge"><title>dir_13ea0dd0506d1472cf109788ab7e0643&#45;&gt;dir_200d929b8d5577e7f19dc05ce443c612</title>
<path fill="none" stroke="black" d="M513.648,-575.91C519.18,-537.201 530.463,-439.974 518,-360 512.467,-324.499 496.706,-286.046 485.17,-261.301"/>
<polygon fill="black" stroke="black" points="488.298,-259.729 480.833,-252.21 481.98,-262.743 488.298,-259.729"/>
<g id="a_edge16&#45;headlabel"><a xlink:href="dir_000010_000144.html" xlink:title="1">
<text text-anchor="middle" x="492.408" y="-259.251" font-family="Helvetica,sans-Serif" font-size="10.00">1</text>
</a>
</g>
</g>
<!-- dir_943e52f8581fabc839a1d5cc5644b223 -->
<g id="node6" class="node"><title>dir_943e52f8581fabc839a1d5cc5644b223</title>
<g id="a_node6"><a xlink:href="dir_943e52f8581fabc839a1d5cc5644b223.html" xlink:title="StorageManager">
<polygon fill="white" stroke="red" points="521.5,-180 434.5,-180 434.5,-144 521.5,-144 521.5,-180"/>
<text text-anchor="middle" x="478" y="-159.5" font-family="Helvetica,sans-Serif" font-size="10.00">StorageManager</text>
</a>
</g>
</g>
<!-- dir_13ea0dd0506d1472cf109788ab7e0643&#45;&gt;dir_943e52f8581fabc839a1d5cc5644b223 -->
<g id="edge17" class="edge"><title>dir_13ea0dd0506d1472cf109788ab7e0643&#45;&gt;dir_943e52f8581fabc839a1d5cc5644b223</title>
<path fill="none" stroke="black" d="M550.412,-591.426C629.704,-585.931 801,-561.296 801,-451 801,-451 801,-451 801,-377 801,-249.272 623.299,-193.288 531.508,-172.891"/>
<polygon fill="black" stroke="black" points="532.074,-169.432 521.561,-170.745 530.598,-176.275 532.074,-169.432"/>
<g id="a_edge17&#45;headlabel"><a xlink:href="dir_000010_000195.html" xlink:title="1">
<text text-anchor="middle" x="536.187" y="-164.915" font-family="Helvetica,sans-Serif" font-size="10.00">1</text>
</a>
</g>
</g>
<!-- dir_93fb9127672489656ce87df72f6e986d -->
<g id="node7" class="node"><title>dir_93fb9127672489656ce87df72f6e986d</title>
<g id="a_node7"><a xlink:href="dir_93fb9127672489656ce87df72f6e986d.html" xlink:title="AP_Math">
<polygon fill="white" stroke="red" points="369.25,-108 312.75,-108 312.75,-72 369.25,-72 369.25,-108"/>
<text text-anchor="middle" x="341" y="-87.5" font-family="Helvetica,sans-Serif" font-size="10.00">AP_Math</text>
</a>
</g>
</g>
<!-- dir_13ea0dd0506d1472cf109788ab7e0643&#45;&gt;dir_93fb9127672489656ce87df72f6e986d -->
<g id="edge18" class="edge"><title>dir_13ea0dd0506d1472cf109788ab7e0643&#45;&gt;dir_93fb9127672489656ce87df72f6e986d</title>
<path fill="none" stroke="black" d="M471.328,-590.537C351.266,-582.011 0,-548.717 0,-451 0,-451 0,-451 0,-305 0,-163.477 213.33,-111.951 302.523,-96.592"/>
<polygon fill="black" stroke="black" points="303.221,-100.024 312.513,-94.9345 302.075,-93.1186 303.221,-100.024"/>
<g id="a_edge18&#45;headlabel"><a xlink:href="dir_000010_000111.html" xlink:title="1">
<text text-anchor="middle" x="300.139" y="-100.914" font-family="Helvetica,sans-Serif" font-size="10.00">1</text>
</a>
</g>
</g>
<!-- dir_76c3a7c075633ea7df6dd8cefcefbb8f -->
<g id="node8" class="node"><title>dir_76c3a7c075633ea7df6dd8cefcefbb8f</title>
<g id="a_node8"><a xlink:href="dir_76c3a7c075633ea7df6dd8cefcefbb8f.html" xlink:title="AP_Progmem">
<polygon fill="none" stroke="black" points="379.25,-36 302.75,-36 302.75,-0 379.25,-0 379.25,-36"/>
<text text-anchor="middle" x="341" y="-15.5" font-family="Helvetica,sans-Serif" font-size="10.00">AP_Progmem</text>
</a>
</g>
</g>
<!-- dir_13ea0dd0506d1472cf109788ab7e0643&#45;&gt;dir_76c3a7c075633ea7df6dd8cefcefbb8f -->
<g id="edge19" class="edge"><title>dir_13ea0dd0506d1472cf109788ab7e0643&#45;&gt;dir_76c3a7c075633ea7df6dd8cefcefbb8f</title>
<path fill="none" stroke="black" d="M550.564,-593.414C637.802,-592.049 839,-575.414 839,-451 839,-451 839,-451 839,-161 839,-68.0885 514.372,-32.6423 389.313,-22.4342"/>
<polygon fill="black" stroke="black" points="389.497,-18.9379 379.25,-21.6324 388.941,-25.9158 389.497,-18.9379"/>
<g id="a_edge19&#45;headlabel"><a xlink:href="dir_000010_000148.html" xlink:title="1">
<text text-anchor="middle" x="393.306" y="-13.893" font-family="Helvetica,sans-Serif" font-size="10.00">1</text>
</a>
</g>
</g>
<!-- dir_df3f4256615fd4197927a84a019a8bd8 -->
<g id="node9" class="node"><title>dir_df3f4256615fd4197927a84a019a8bd8</title>
<g id="a_node9"><a xlink:href="dir_df3f4256615fd4197927a84a019a8bd8.html" xlink:title="AP_Common">
<polygon fill="white" stroke="red" points="509.25,-396 434.75,-396 434.75,-360 509.25,-360 509.25,-396"/>
<text text-anchor="middle" x="472" y="-375.5" font-family="Helvetica,sans-Serif" font-size="10.00">AP_Common</text>
</a>
</g>
</g>
<!-- dir_13ea0dd0506d1472cf109788ab7e0643&#45;&gt;dir_df3f4256615fd4197927a84a019a8bd8 -->
<g id="edge20" class="edge"><title>dir_13ea0dd0506d1472cf109788ab7e0643&#45;&gt;dir_df3f4256615fd4197927a84a019a8bd8</title>
<path fill="none" stroke="black" d="M507.874,-575.849C501.114,-538.753 485.087,-450.81 476.939,-406.103"/>
<polygon fill="black" stroke="black" points="480.377,-405.443 475.14,-396.232 473.49,-406.698 480.377,-405.443"/>
<g id="a_edge20&#45;headlabel"><a xlink:href="dir_000010_000028.html" xlink:title="1">
<text text-anchor="middle" x="483.814" y="-405.97" font-family="Helvetica,sans-Serif" font-size="10.00">1</text>
</a>
</g>
</g>
<!-- dir_8368ee2f250655722bce4ae7bccd6615&#45;&gt;dir_1cbc10423b2512b31103883361e0123b -->
<g id="edge1" class="edge"><title>dir_8368ee2f250655722bce4ae7bccd6615&#45;&gt;dir_1cbc10423b2512b31103883361e0123b</title>
<path fill="none" stroke="black" d="M594.434,-513.174C529.087,-500.028 403.673,-473.6 341.157,-459.818"/>
<polygon fill="black" stroke="black" points="341.843,-456.385 331.322,-457.638 340.328,-463.219 341.843,-456.385"/>
<g id="a_edge1&#45;headlabel"><a xlink:href="dir_000048_000044.html" xlink:title="35">
<text text-anchor="middle" x="345.967" y="-451.89" font-family="Helvetica,sans-Serif" font-size="10.00">35</text>
</a>
</g>
</g>
<!-- dir_8368ee2f250655722bce4ae7bccd6615&#45;&gt;dir_200d929b8d5577e7f19dc05ce443c612 -->
<g id="edge2" class="edge"><title>dir_8368ee2f250655722bce4ae7bccd6615&#45;&gt;dir_200d929b8d5577e7f19dc05ce443c612</title>
<path fill="none" stroke="black" d="M634.545,-503.735C630.187,-455.688 615.855,-321.74 589,-288 570.427,-264.665 539.325,-251.246 513.856,-243.751"/>
<polygon fill="black" stroke="black" points="514.623,-240.332 504.054,-241.071 512.776,-247.085 514.623,-240.332"/>
<g id="a_edge2&#45;headlabel"><a xlink:href="dir_000048_000144.html" xlink:title="1">
<text text-anchor="middle" x="518.839" y="-236.042" font-family="Helvetica,sans-Serif" font-size="10.00">1</text>
</a>
</g>
</g>
<!-- dir_8368ee2f250655722bce4ae7bccd6615&#45;&gt;dir_943e52f8581fabc839a1d5cc5644b223 -->
<g id="edge3" class="edge"><title>dir_8368ee2f250655722bce4ae7bccd6615&#45;&gt;dir_943e52f8581fabc839a1d5cc5644b223</title>
<path fill="none" stroke="black" d="M635.091,-503.671C638.87,-477.079 651,-424.504 651,-379 651,-379 651,-379 651,-305 651,-241.936 582.234,-202.748 531.331,-181.912"/>
<polygon fill="black" stroke="black" points="532.321,-178.539 521.735,-178.11 529.743,-185.047 532.321,-178.539"/>
<g id="a_edge3&#45;headlabel"><a xlink:href="dir_000048_000195.html" xlink:title="1">
<text text-anchor="middle" x="536.709" y="-174.723" font-family="Helvetica,sans-Serif" font-size="10.00">1</text>
</a>
</g>
</g>
<!-- dir_8368ee2f250655722bce4ae7bccd6615&#45;&gt;dir_93fb9127672489656ce87df72f6e986d -->
<g id="edge4" class="edge"><title>dir_8368ee2f250655722bce4ae7bccd6615&#45;&gt;dir_93fb9127672489656ce87df72f6e986d</title>
<path fill="none" stroke="black" d="M647.435,-503.935C667.887,-478.894 707,-429.65 707,-379 707,-379 707,-379 707,-233 707,-162.713 473.679,-114.958 379.536,-97.9214"/>
<polygon fill="black" stroke="black" points="380.016,-94.4516 369.555,-96.1353 378.782,-101.342 380.016,-94.4516"/>
<g id="a_edge4&#45;headlabel"><a xlink:href="dir_000048_000111.html" xlink:title="1">
<text text-anchor="middle" x="384.054" y="-89.7898" font-family="Helvetica,sans-Serif" font-size="10.00">1</text>
</a>
</g>
</g>
<!-- dir_8368ee2f250655722bce4ae7bccd6615&#45;&gt;dir_76c3a7c075633ea7df6dd8cefcefbb8f -->
<g id="edge5" class="edge"><title>dir_8368ee2f250655722bce4ae7bccd6615&#45;&gt;dir_76c3a7c075633ea7df6dd8cefcefbb8f</title>
<path fill="none" stroke="black" d="M672.37,-503.92C687.727,-495.103 704.645,-483.016 716,-468 783.833,-378.294 787.442,-317.498 739,-216 674.808,-81.5019 480.639,-37.7987 389.377,-24.4592"/>
<polygon fill="black" stroke="black" points="389.686,-20.9684 379.297,-23.0487 388.716,-27.9008 389.686,-20.9684"/>
<g id="a_edge5&#45;headlabel"><a xlink:href="dir_000048_000148.html" xlink:title="1">
<text text-anchor="middle" x="393.639" y="-16.1545" font-family="Helvetica,sans-Serif" font-size="10.00">1</text>
</a>
</g>
</g>
<!-- dir_8368ee2f250655722bce4ae7bccd6615&#45;&gt;dir_df3f4256615fd4197927a84a019a8bd8 -->
<g id="edge6" class="edge"><title>dir_8368ee2f250655722bce4ae7bccd6615&#45;&gt;dir_df3f4256615fd4197927a84a019a8bd8</title>
<path fill="none" stroke="black" d="M616.218,-503.871C587.159,-478.711 532.811,-431.654 499.766,-403.042"/>
<polygon fill="black" stroke="black" points="501.703,-400.089 491.852,-396.189 497.121,-405.381 501.703,-400.089"/>
<g id="a_edge6&#45;headlabel"><a xlink:href="dir_000048_000028.html" xlink:title="1">
<text text-anchor="middle" x="506.279" y="-397.796" font-family="Helvetica,sans-Serif" font-size="10.00">1</text>
</a>
</g>
</g>
<!-- dir_a788fa8059992b455dc670fb6cc9c1a5&#45;&gt;dir_1cbc10423b2512b31103883361e0123b -->
<g id="edge7" class="edge"><title>dir_a788fa8059992b455dc670fb6cc9c1a5&#45;&gt;dir_1cbc10423b2512b31103883361e0123b</title>
<path fill="none" stroke="black" d="M240.033,-324.189C256.04,-348.638 281.047,-393.673 294.81,-422.436"/>
<polygon fill="black" stroke="black" points="291.8,-424.266 299.176,-431.871 298.153,-421.326 291.8,-424.266"/>
<g id="a_edge7&#45;headlabel"><a xlink:href="dir_000045_000044.html" xlink:title="56">
<text text-anchor="middle" x="287.714" y="-419.696" font-family="Helvetica,sans-Serif" font-size="10.00">56</text>
</a>
</g>
</g>
<!-- dir_a788fa8059992b455dc670fb6cc9c1a5&#45;&gt;dir_200d929b8d5577e7f19dc05ce443c612 -->
<g id="edge8" class="edge"><title>dir_a788fa8059992b455dc670fb6cc9c1a5&#45;&gt;dir_200d929b8d5577e7f19dc05ce443c612</title>
<path fill="none" stroke="black" d="M266.346,-293.519C311.46,-280.682 384.184,-259.988 429.971,-246.96"/>
<polygon fill="black" stroke="black" points="431.213,-250.245 439.873,-244.142 429.297,-243.512 431.213,-250.245"/>
<g id="a_edge8&#45;headlabel"><a xlink:href="dir_000045_000144.html" xlink:title="15">
<text text-anchor="middle" x="428.533" y="-251.46" font-family="Helvetica,sans-Serif" font-size="10.00">15</text>
</a>
</g>
</g>
<!-- dir_a788fa8059992b455dc670fb6cc9c1a5&#45;&gt;dir_943e52f8581fabc839a1d5cc5644b223 -->
<g id="edge9" class="edge"><title>dir_a788fa8059992b455dc670fb6cc9c1a5&#45;&gt;dir_943e52f8581fabc839a1d5cc5644b223</title>
<path fill="none" stroke="black" d="M248.398,-287.857C276.957,-269.751 327.203,-240.492 371,-216 389.63,-205.581 410.41,-194.296 428.744,-184.828"/>
<polygon fill="black" stroke="black" points="430.493,-187.865 437.805,-180.198 427.308,-181.632 430.493,-187.865"/>
<g id="a_edge9&#45;headlabel"><a xlink:href="dir_000045_000195.html" xlink:title="12">
<text text-anchor="middle" x="428.584" y="-189.529" font-family="Helvetica,sans-Serif" font-size="10.00">12</text>
</a>
</g>
</g>
<!-- dir_a788fa8059992b455dc670fb6cc9c1a5&#45;&gt;dir_93fb9127672489656ce87df72f6e986d -->
<g id="edge10" class="edge"><title>dir_a788fa8059992b455dc670fb6cc9c1a5&#45;&gt;dir_93fb9127672489656ce87df72f6e986d</title>
<path fill="none" stroke="black" d="M231.339,-287.849C247.869,-250.44 295.52,-161.322 322.443,-116.98"/>
<polygon fill="black" stroke="black" points="325.57,-118.578 327.854,-108.232 319.617,-114.895 325.57,-118.578"/>
<g id="a_edge10&#45;headlabel"><a xlink:href="dir_000045_000111.html" xlink:title="16">
<text text-anchor="middle" x="326.093" y="-120.629" font-family="Helvetica,sans-Serif" font-size="10.00">16</text>
</a>
</g>
</g>
<!-- dir_a788fa8059992b455dc670fb6cc9c1a5&#45;&gt;dir_76c3a7c075633ea7df6dd8cefcefbb8f -->
<g id="edge11" class="edge"><title>dir_a788fa8059992b455dc670fb6cc9c1a5&#45;&gt;dir_76c3a7c075633ea7df6dd8cefcefbb8f</title>
<path fill="none" stroke="black" d="M229.647,-287.868C238.501,-248.254 263.365,-147.907 303,-72 307.952,-62.5157 314.426,-52.8115 320.624,-44.342"/>
<polygon fill="black" stroke="black" points="323.434,-46.4289 326.663,-36.3381 317.846,-42.2128 323.434,-46.4289"/>
<g id="a_edge11&#45;headlabel"><a xlink:href="dir_000045_000148.html" xlink:title="15">
<text text-anchor="middle" x="323.535" y="-48.5084" font-family="Helvetica,sans-Serif" font-size="10.00">15</text>
</a>
</g>
</g>
<!-- dir_a788fa8059992b455dc670fb6cc9c1a5&#45;&gt;dir_df3f4256615fd4197927a84a019a8bd8 -->
<g id="edge12" class="edge"><title>dir_a788fa8059992b455dc670fb6cc9c1a5&#45;&gt;dir_df3f4256615fd4197927a84a019a8bd8</title>
<path fill="none" stroke="black" d="M266.59,-317.149C310.161,-328.932 379.089,-348.477 424.976,-362.01"/>
<polygon fill="black" stroke="black" points="424.103,-365.402 434.685,-364.887 426.092,-358.69 424.103,-365.402"/>
<g id="a_edge12&#45;headlabel"><a xlink:href="dir_000045_000028.html" xlink:title="15">
<text text-anchor="middle" x="419.85" y="-364.603" font-family="Helvetica,sans-Serif" font-size="10.00">15</text>
</a>
</g>
</g>
<!-- dir_1cbc10423b2512b31103883361e0123b&#45;&gt;dir_8368ee2f250655722bce4ae7bccd6615 -->
<g id="edge21" class="edge"><title>dir_1cbc10423b2512b31103883361e0123b&#45;&gt;dir_8368ee2f250655722bce4ae7bccd6615</title>
<path fill="none" stroke="black" d="M331.269,-455.973C386.785,-466.943 513.158,-493.48 584.561,-509.052"/>
<polygon fill="black" stroke="black" points="584.165,-512.548 594.682,-511.267 585.661,-505.71 584.165,-512.548"/>
<g id="a_edge21&#45;headlabel"><a xlink:href="dir_000044_000048.html" xlink:title="5">
<text text-anchor="middle" x="580.046" y="-512.053" font-family="Helvetica,sans-Serif" font-size="10.00">5</text>
</a>
</g>
</g>
<!-- dir_1cbc10423b2512b31103883361e0123b&#45;&gt;dir_a788fa8059992b455dc670fb6cc9c1a5 -->
<g id="edge22" class="edge"><title>dir_1cbc10423b2512b31103883361e0123b&#45;&gt;dir_a788fa8059992b455dc670fb6cc9c1a5</title>
<path fill="none" stroke="black" d="M290.007,-431.871C274.015,-407.457 249.006,-362.426 235.224,-333.635"/>
<polygon fill="black" stroke="black" points="238.229,-331.793 230.851,-324.189 231.876,-334.734 238.229,-331.793"/>
<g id="a_edge22&#45;headlabel"><a xlink:href="dir_000044_000045.html" xlink:title="6">
<text text-anchor="middle" x="242.315" y="-331.362" font-family="Helvetica,sans-Serif" font-size="10.00">6</text>
</a>
</g>
</g>
<!-- dir_1cbc10423b2512b31103883361e0123b&#45;&gt;dir_200d929b8d5577e7f19dc05ce443c612 -->
<g id="edge23" class="edge"><title>dir_1cbc10423b2512b31103883361e0123b&#45;&gt;dir_200d929b8d5577e7f19dc05ce443c612</title>
<path fill="none" stroke="black" d="M313.587,-431.849C339.597,-394.127 410.274,-303.827 447.953,-259.876"/>
<polygon fill="black" stroke="black" points="450.676,-262.079 454.586,-252.232 445.389,-257.491 450.676,-262.079"/>
<g id="a_edge23&#45;headlabel"><a xlink:href="dir_000044_000144.html" xlink:title="6">
<text text-anchor="middle" x="450.464" y="-264.155" font-family="Helvetica,sans-Serif" font-size="10.00">6</text>
</a>
</g>
</g>
<!-- dir_1cbc10423b2512b31103883361e0123b&#45;&gt;dir_943e52f8581fabc839a1d5cc5644b223 -->
<g id="edge24" class="edge"><title>dir_1cbc10423b2512b31103883361e0123b&#45;&gt;dir_943e52f8581fabc839a1d5cc5644b223</title>
<path fill="none" stroke="black" d="M303.99,-431.95C308.949,-413.796 321.283,-384.381 334,-360 368.687,-293.498 377.388,-276.294 422,-216 429.242,-206.213 437.911,-196.069 446.342,-187.308"/>
<polygon fill="black" stroke="black" points="449.047,-189.553 453.647,-180.009 444.099,-184.601 449.047,-189.553"/>
<g id="a_edge24&#45;headlabel"><a xlink:href="dir_000044_000195.html" xlink:title="6">
<text text-anchor="middle" x="448.511" y="-191.602" font-family="Helvetica,sans-Serif" font-size="10.00">6</text>
</a>
</g>
</g>
<!-- dir_1cbc10423b2512b31103883361e0123b&#45;&gt;dir_93fb9127672489656ce87df72f6e986d -->
<g id="edge25" class="edge"><title>dir_1cbc10423b2512b31103883361e0123b&#45;&gt;dir_93fb9127672489656ce87df72f6e986d</title>
<path fill="none" stroke="black" d="M276.741,-437.135C230.363,-412.756 144.119,-353.765 167,-288 192.975,-213.341 262.038,-147.657 305.083,-114.29"/>
<polygon fill="black" stroke="black" points="307.462,-116.879 313.325,-108.054 303.239,-111.296 307.462,-116.879"/>
<g id="a_edge25&#45;headlabel"><a xlink:href="dir_000044_000111.html" xlink:title="7">
<text text-anchor="middle" x="306.309" y="-118.812" font-family="Helvetica,sans-Serif" font-size="10.00">7</text>
</a>
</g>
</g>
<!-- dir_1cbc10423b2512b31103883361e0123b&#45;&gt;dir_76c3a7c075633ea7df6dd8cefcefbb8f -->
<g id="edge26" class="edge"><title>dir_1cbc10423b2512b31103883361e0123b&#45;&gt;dir_76c3a7c075633ea7df6dd8cefcefbb8f</title>
<path fill="none" stroke="black" d="M276.649,-445.241C247.455,-439.414 202.711,-425.625 178,-396 125.741,-333.35 126,-296 142,-216 156.575,-143.125 169.823,-119.475 227,-72 246.364,-55.9214 271.423,-43.0392 293.208,-34.0027"/>
<polygon fill="black" stroke="black" points="294.642,-37.1992 302.636,-30.2458 292.05,-30.6966 294.642,-37.1992"/>
<g id="a_edge26&#45;headlabel"><a xlink:href="dir_000044_000148.html" xlink:title="10">
<text text-anchor="middle" x="292.354" y="-38.6674" font-family="Helvetica,sans-Serif" font-size="10.00">10</text>
</a>
</g>
</g>
<!-- dir_1cbc10423b2512b31103883361e0123b&#45;&gt;dir_df3f4256615fd4197927a84a019a8bd8 -->
<g id="edge27" class="edge"><title>dir_1cbc10423b2512b31103883361e0123b&#45;&gt;dir_df3f4256615fd4197927a84a019a8bd8</title>
<path fill="none" stroke="black" d="M331.31,-435.337C356.737,-424.1 394.959,-408.117 425.206,-396.044"/>
<polygon fill="black" stroke="black" points="426.714,-399.211 434.72,-392.272 424.134,-392.704 426.714,-399.211"/>
<g id="a_edge27&#45;headlabel"><a xlink:href="dir_000044_000028.html" xlink:title="7">
<text text-anchor="middle" x="424.418" y="-400.675" font-family="Helvetica,sans-Serif" font-size="10.00">7</text>
</a>
</g>
</g>
<!-- dir_200d929b8d5577e7f19dc05ce443c612&#45;&gt;dir_1cbc10423b2512b31103883361e0123b -->
<g id="edge28" class="edge"><title>dir_200d929b8d5577e7f19dc05ce443c612&#45;&gt;dir_1cbc10423b2512b31103883361e0123b</title>
<path fill="none" stroke="black" d="M462.357,-252.232C436.282,-290.03 365.597,-380.335 327.966,-424.219"/>
<polygon fill="black" stroke="black" points="325.254,-422.003 321.342,-431.849 330.54,-426.592 325.254,-422.003"/>
<g id="a_edge28&#45;headlabel"><a xlink:href="dir_000144_000044.html" xlink:title="2">
<text text-anchor="middle" x="325.466" y="-414.927" font-family="Helvetica,sans-Serif" font-size="10.00">2</text>
</a>
</g>
</g>
<!-- dir_200d929b8d5577e7f19dc05ce443c612&#45;&gt;dir_943e52f8581fabc839a1d5cc5644b223 -->
<g id="edge29" class="edge"><title>dir_200d929b8d5577e7f19dc05ce443c612&#45;&gt;dir_943e52f8581fabc839a1d5cc5644b223</title>
<path fill="none" stroke="black" d="M467.567,-215.697C467.433,-207.983 468.001,-198.712 469.081,-190.112"/>
<polygon fill="black" stroke="black" points="472.559,-190.524 470.639,-180.104 465.642,-189.447 472.559,-190.524"/>
<g id="a_edge29&#45;headlabel"><a xlink:href="dir_000144_000195.html" xlink:title="1">
<text text-anchor="middle" x="474.811" y="-192.012" font-family="Helvetica,sans-Serif" font-size="10.00">1</text>
</a>
</g>
</g>
<!-- dir_200d929b8d5577e7f19dc05ce443c612&#45;&gt;dir_93fb9127672489656ce87df72f6e986d -->
<g id="edge30" class="edge"><title>dir_200d929b8d5577e7f19dc05ce443c612&#45;&gt;dir_93fb9127672489656ce87df72f6e986d</title>
<path fill="none" stroke="black" d="M451.614,-215.871C426.071,-191.031 383.227,-144.846 358.896,-116.142"/>
<polygon fill="black" stroke="black" points="361.359,-113.629 352.267,-108.189 355.982,-118.111 361.359,-113.629"/>
<g id="a_edge30&#45;headlabel"><a xlink:href="dir_000144_000111.html" xlink:title="1">
<text text-anchor="middle" x="365.841" y="-112.072" font-family="Helvetica,sans-Serif" font-size="10.00">1</text>
</a>
</g>
</g>
<!-- dir_200d929b8d5577e7f19dc05ce443c612&#45;&gt;dir_76c3a7c075633ea7df6dd8cefcefbb8f -->
<g id="edge31" class="edge"><title>dir_200d929b8d5577e7f19dc05ce443c612&#45;&gt;dir_76c3a7c075633ea7df6dd8cefcefbb8f</title>
<path fill="none" stroke="black" d="M499.34,-215.775C511.11,-206.718 523.617,-194.478 530,-180 536.454,-165.359 537.489,-158.139 530,-144 500.606,-88.4999 434.372,-53.6094 388.677,-35.2072"/>
<polygon fill="black" stroke="black" points="389.847,-31.9066 379.259,-31.5292 387.301,-38.4271 389.847,-31.9066"/>
<g id="a_edge31&#45;headlabel"><a xlink:href="dir_000144_000148.html" xlink:title="1">
<text text-anchor="middle" x="394.228" y="-28.0694" font-family="Helvetica,sans-Serif" font-size="10.00">1</text>
</a>
</g>
</g>
<!-- dir_200d929b8d5577e7f19dc05ce443c612&#45;&gt;dir_df3f4256615fd4197927a84a019a8bd8 -->
<g id="edge32" class="edge"><title>dir_200d929b8d5577e7f19dc05ce443c612&#45;&gt;dir_df3f4256615fd4197927a84a019a8bd8</title>
<path fill="none" stroke="black" d="M476.591,-252.189C479.145,-276.424 479.433,-320.888 477.454,-349.679"/>
<polygon fill="black" stroke="black" points="473.947,-349.61 476.584,-359.871 480.922,-350.205 473.947,-349.61"/>
<g id="a_edge32&#45;headlabel"><a xlink:href="dir_000144_000028.html" xlink:title="1">
<text text-anchor="middle" x="471.424" y="-343.287" font-family="Helvetica,sans-Serif" font-size="10.00">1</text>
</a>
</g>
</g>
<!-- dir_943e52f8581fabc839a1d5cc5644b223&#45;&gt;dir_8368ee2f250655722bce4ae7bccd6615 -->
<g id="edge33" class="edge"><title>dir_943e52f8581fabc839a1d5cc5644b223&#45;&gt;dir_8368ee2f250655722bce4ae7bccd6615</title>
<path fill="none" stroke="black" d="M521.53,-173.744C578.019,-191.512 669,-232.461 669,-305 669,-379 669,-379 669,-379 669,-419.527 659.378,-465.663 650.034,-494.056"/>
<polygon fill="black" stroke="black" points="646.668,-493.076 646.623,-503.671 653.265,-495.417 646.668,-493.076"/>
<g id="a_edge33&#45;headlabel"><a xlink:href="dir_000195_000048.html" xlink:title="1">
<text text-anchor="middle" x="645.194" y="-486.239" font-family="Helvetica,sans-Serif" font-size="10.00">1</text>
</a>
</g>
</g>
<!-- dir_943e52f8581fabc839a1d5cc5644b223&#45;&gt;dir_a788fa8059992b455dc670fb6cc9c1a5 -->
<g id="edge34" class="edge"><title>dir_943e52f8581fabc839a1d5cc5644b223&#45;&gt;dir_a788fa8059992b455dc670fb6cc9c1a5</title>
<path fill="none" stroke="black" d="M453.502,-180.198C435.492,-190.459 410.778,-203.821 389,-216 348.967,-238.387 303.546,-264.758 270.708,-282.952"/>
<polygon fill="black" stroke="black" points="268.868,-279.969 261.794,-287.857 272.243,-286.102 268.868,-279.969"/>
<g id="a_edge34&#45;headlabel"><a xlink:href="dir_000195_000045.html" xlink:title="1">
<text text-anchor="middle" x="270.648" y="-273.249" font-family="Helvetica,sans-Serif" font-size="10.00">1</text>
</a>
</g>
</g>
<!-- dir_943e52f8581fabc839a1d5cc5644b223&#45;&gt;dir_1cbc10423b2512b31103883361e0123b -->
<g id="edge35" class="edge"><title>dir_943e52f8581fabc839a1d5cc5644b223&#45;&gt;dir_1cbc10423b2512b31103883361e0123b</title>
<path fill="none" stroke="black" d="M469.397,-180.009C461.113,-190.096 449.363,-203.346 440,-216 395.388,-276.294 386.687,-293.498 352,-360 341.27,-380.571 330.813,-404.726 322.037,-422.677"/>
<polygon fill="black" stroke="black" points="318.737,-421.447 317.343,-431.95 324.982,-424.609 318.737,-421.447"/>
<g id="a_edge35&#45;headlabel"><a xlink:href="dir_000195_000044.html" xlink:title="3">
<text text-anchor="middle" x="317.827" y="-414.458" font-family="Helvetica,sans-Serif" font-size="10.00">3</text>
</a>
</g>
</g>
<!-- dir_943e52f8581fabc839a1d5cc5644b223&#45;&gt;dir_200d929b8d5577e7f19dc05ce443c612 -->
<g id="edge36" class="edge"><title>dir_943e52f8581fabc839a1d5cc5644b223&#45;&gt;dir_200d929b8d5577e7f19dc05ce443c612</title>
<path fill="none" stroke="black" d="M482.429,-180.104C482.576,-187.791 482.018,-197.054 480.947,-205.665"/>
<polygon fill="black" stroke="black" points="477.465,-205.28 479.399,-215.697 484.383,-206.347 477.465,-205.28"/>
<g id="a_edge36&#45;headlabel"><a xlink:href="dir_000195_000144.html" xlink:title="1">
<text text-anchor="middle" x="475.207" y="-198.794" font-family="Helvetica,sans-Serif" font-size="10.00">1</text>
</a>
</g>
</g>
<!-- dir_943e52f8581fabc839a1d5cc5644b223&#45;&gt;dir_93fb9127672489656ce87df72f6e986d -->
<g id="edge37" class="edge"><title>dir_943e52f8581fabc839a1d5cc5644b223&#45;&gt;dir_93fb9127672489656ce87df72f6e986d</title>
<path fill="none" stroke="black" d="M438.589,-143.876C419.369,-134.554 396.46,-122.919 377.624,-112.939"/>
<polygon fill="black" stroke="black" points="379.208,-109.817 368.739,-108.19 375.908,-115.99 379.208,-109.817"/>
<g id="a_edge37&#45;headlabel"><a xlink:href="dir_000195_000111.html" xlink:title="1">
<text text-anchor="middle" x="383.717" y="-106.507" font-family="Helvetica,sans-Serif" font-size="10.00">1</text>
</a>
</g>
</g>
<!-- dir_943e52f8581fabc839a1d5cc5644b223&#45;&gt;dir_76c3a7c075633ea7df6dd8cefcefbb8f -->
<g id="edge38" class="edge"><title>dir_943e52f8581fabc839a1d5cc5644b223&#45;&gt;dir_76c3a7c075633ea7df6dd8cefcefbb8f</title>
<path fill="none" stroke="black" d="M461.475,-143.871C437.303,-118.817 392.184,-72.0519 364.547,-43.4062"/>
<polygon fill="black" stroke="black" points="367.046,-40.9558 357.584,-36.1893 362.008,-45.8161 367.046,-40.9558"/>
<g id="a_edge38&#45;headlabel"><a xlink:href="dir_000195_000148.html" xlink:title="1">
<text text-anchor="middle" x="371.585" y="-39.0713" font-family="Helvetica,sans-Serif" font-size="10.00">1</text>
</a>
</g>
</g>
<!-- dir_943e52f8581fabc839a1d5cc5644b223&#45;&gt;dir_df3f4256615fd4197927a84a019a8bd8 -->
<g id="edge39" class="edge"><title>dir_943e52f8581fabc839a1d5cc5644b223&#45;&gt;dir_df3f4256615fd4197927a84a019a8bd8</title>
<path fill="none" stroke="black" d="M501.16,-180.297C509.732,-190.061 518.066,-202.905 522,-216 536.199,-263.267 513.1,-319.275 493.532,-351.223"/>
<polygon fill="black" stroke="black" points="490.379,-349.653 487.879,-359.949 496.254,-353.459 490.379,-349.653"/>
<g id="a_edge39&#45;headlabel"><a xlink:href="dir_000195_000028.html" xlink:title="1">
<text text-anchor="middle" x="489.95" y="-342.592" font-family="Helvetica,sans-Serif" font-size="10.00">1</text>
</a>
</g>
</g>
<!-- dir_93fb9127672489656ce87df72f6e986d&#45;&gt;dir_8368ee2f250655722bce4ae7bccd6615 -->
<g id="edge40" class="edge"><title>dir_93fb9127672489656ce87df72f6e986d&#45;&gt;dir_8368ee2f250655722bce4ae7bccd6615</title>
<path fill="none" stroke="black" d="M369.508,-94.8577C458.65,-108.527 725,-157.902 725,-233 725,-379 725,-379 725,-379 725,-425.099 692.6,-470.034 666.719,-496.616"/>
<polygon fill="black" stroke="black" points="663.954,-494.426 659.282,-503.935 668.864,-499.415 663.954,-494.426"/>
<g id="a_edge40&#45;headlabel"><a xlink:href="dir_000111_000048.html" xlink:title="4">
<text text-anchor="middle" x="664.524" y="-487.381" font-family="Helvetica,sans-Serif" font-size="10.00">4</text>
</a>
</g>
</g>
<!-- dir_93fb9127672489656ce87df72f6e986d&#45;&gt;dir_a788fa8059992b455dc670fb6cc9c1a5 -->
<g id="edge41" class="edge"><title>dir_93fb9127672489656ce87df72f6e986d&#45;&gt;dir_a788fa8059992b455dc670fb6cc9c1a5</title>
<path fill="none" stroke="black" d="M335.625,-108.232C319.05,-145.716 271.391,-234.84 244.499,-279.116"/>
<polygon fill="black" stroke="black" points="241.381,-277.504 239.094,-287.849 247.333,-281.188 241.381,-277.504"/>
<g id="a_edge41&#45;headlabel"><a xlink:href="dir_000111_000045.html" xlink:title="4">
<text text-anchor="middle" x="240.858" y="-270.453" font-family="Helvetica,sans-Serif" font-size="10.00">4</text>
</a>
</g>
</g>
<!-- dir_93fb9127672489656ce87df72f6e986d&#45;&gt;dir_1cbc10423b2512b31103883361e0123b -->
<g id="edge42" class="edge"><title>dir_93fb9127672489656ce87df72f6e986d&#45;&gt;dir_1cbc10423b2512b31103883361e0123b</title>
<path fill="none" stroke="black" d="M324.082,-108.054C289.438,-138.939 212.707,-208.364 185,-288 165.021,-345.425 228.243,-397.684 270.18,-426.246"/>
<polygon fill="black" stroke="black" points="268.249,-429.166 278.51,-431.806 272.135,-423.343 268.249,-429.166"/>
<g id="a_edge42&#45;headlabel"><a xlink:href="dir_000111_000044.html" xlink:title="5">
<text text-anchor="middle" x="263.683" y="-427.032" font-family="Helvetica,sans-Serif" font-size="10.00">5</text>
</a>
</g>
</g>
<!-- dir_93fb9127672489656ce87df72f6e986d&#45;&gt;dir_200d929b8d5577e7f19dc05ce443c612 -->
<g id="edge43" class="edge"><title>dir_93fb9127672489656ce87df72f6e986d&#45;&gt;dir_200d929b8d5577e7f19dc05ce443c612</title>
<path fill="none" stroke="black" d="M361.449,-108.189C387.019,-133.065 429.863,-179.252 454.163,-207.929"/>
<polygon fill="black" stroke="black" points="451.692,-210.43 460.783,-215.871 457.069,-205.949 451.692,-210.43"/>
<g id="a_edge43&#45;headlabel"><a xlink:href="dir_000111_000144.html" xlink:title="5">
<text text-anchor="middle" x="447.209" y="-206.987" font-family="Helvetica,sans-Serif" font-size="10.00">5</text>
</a>
</g>
</g>
<!-- dir_93fb9127672489656ce87df72f6e986d&#45;&gt;dir_943e52f8581fabc839a1d5cc5644b223 -->
<g id="edge44" class="edge"><title>dir_93fb9127672489656ce87df72f6e986d&#45;&gt;dir_943e52f8581fabc839a1d5cc5644b223</title>
<path fill="none" stroke="black" d="M369.521,-102.905C390.444,-112.796 418.865,-127.132 441.426,-139.088"/>
<polygon fill="black" stroke="black" points="439.914,-142.248 450.383,-143.876 443.214,-136.075 439.914,-142.248"/>
<g id="a_edge44&#45;headlabel"><a xlink:href="dir_000111_000195.html" xlink:title="4">
<text text-anchor="middle" x="435.405" y="-140.557" font-family="Helvetica,sans-Serif" font-size="10.00">4</text>
</a>
</g>
</g>
<!-- dir_93fb9127672489656ce87df72f6e986d&#45;&gt;dir_76c3a7c075633ea7df6dd8cefcefbb8f -->
<g id="edge45" class="edge"><title>dir_93fb9127672489656ce87df72f6e986d&#45;&gt;dir_76c3a7c075633ea7df6dd8cefcefbb8f</title>
<path fill="none" stroke="black" d="M341,-71.6966C341,-63.9827 341,-54.7125 341,-46.1124"/>
<polygon fill="black" stroke="black" points="344.5,-46.1043 341,-36.1043 337.5,-46.1044 344.5,-46.1043"/>
<g id="a_edge45&#45;headlabel"><a xlink:href="dir_000111_000148.html" xlink:title="5">
<text text-anchor="middle" x="347.339" y="-47.199" font-family="Helvetica,sans-Serif" font-size="10.00">5</text>
</a>
</g>
</g>
<!-- dir_93fb9127672489656ce87df72f6e986d&#45;&gt;dir_df3f4256615fd4197927a84a019a8bd8 -->
<g id="edge46" class="edge"><title>dir_93fb9127672489656ce87df72f6e986d&#45;&gt;dir_df3f4256615fd4197927a84a019a8bd8</title>
<path fill="none" stroke="black" d="M352.364,-108.306C378.619,-156.512 441.166,-292.564 463.953,-350.425"/>
<polygon fill="black" stroke="black" points="460.762,-351.882 467.611,-359.966 467.299,-349.376 460.762,-351.882"/>
<g id="a_edge46&#45;headlabel"><a xlink:href="dir_000111_000028.html" xlink:title="5">
<text text-anchor="middle" x="456.825" y="-347.042" font-family="Helvetica,sans-Serif" font-size="10.00">5</text>
</a>
</g>
</g>
<!-- dir_76c3a7c075633ea7df6dd8cefcefbb8f&#45;&gt;dir_1cbc10423b2512b31103883361e0123b -->
<g id="edge47" class="edge"><title>dir_76c3a7c075633ea7df6dd8cefcefbb8f&#45;&gt;dir_1cbc10423b2512b31103883361e0123b</title>
<path fill="none" stroke="black" d="M304.657,-36.1041C285.69,-44.9927 262.91,-57.1293 245,-72 187.823,-119.475 174.575,-143.125 160,-216 144,-296 143.741,-333.35 196,-396 214.248,-417.876 243.419,-431.117 266.95,-438.893"/>
<polygon fill="black" stroke="black" points="266.052,-442.28 276.64,-441.901 268.127,-435.594 266.052,-442.28"/>
<g id="a_edge47&#45;headlabel"><a xlink:href="dir_000148_000044.html" xlink:title="1">
<text text-anchor="middle" x="261.778" y="-441.426" font-family="Helvetica,sans-Serif" font-size="10.00">1</text>
</a>
</g>
</g>
<!-- dir_df3f4256615fd4197927a84a019a8bd8&#45;&gt;dir_a788fa8059992b455dc670fb6cc9c1a5 -->
<g id="edge48" class="edge"><title>dir_df3f4256615fd4197927a84a019a8bd8&#45;&gt;dir_a788fa8059992b455dc670fb6cc9c1a5</title>
<path fill="none" stroke="black" d="M434.573,-367.705C392.168,-356.281 323.079,-336.717 276.082,-322.891"/>
<polygon fill="black" stroke="black" points="276.988,-319.509 266.407,-320.032 275.005,-326.222 276.988,-319.509"/>
<g id="a_edge48&#45;headlabel"><a xlink:href="dir_000028_000045.html" xlink:title="1">
<text text-anchor="middle" x="281.24" y="-315.304" font-family="Helvetica,sans-Serif" font-size="10.00">1</text>
</a>
</g>
</g>
<!-- dir_df3f4256615fd4197927a84a019a8bd8&#45;&gt;dir_1cbc10423b2512b31103883361e0123b -->
<g id="edge49" class="edge"><title>dir_df3f4256615fd4197927a84a019a8bd8&#45;&gt;dir_1cbc10423b2512b31103883361e0123b</title>
<path fill="none" stroke="black" d="M436.931,-396.067C408.845,-408.305 369.695,-424.552 341.089,-435.803"/>
<polygon fill="black" stroke="black" points="339.493,-432.668 331.446,-439.559 342.034,-439.191 339.493,-432.668"/>
<g id="a_edge49&#45;headlabel"><a xlink:href="dir_000028_000044.html" xlink:title="3">
<text text-anchor="middle" x="341.812" y="-426.218" font-family="Helvetica,sans-Serif" font-size="10.00">3</text>
</a>
</g>
</g>
<!-- dir_df3f4256615fd4197927a84a019a8bd8&#45;&gt;dir_200d929b8d5577e7f19dc05ce443c612 -->
<g id="edge50" class="edge"><title>dir_df3f4256615fd4197927a84a019a8bd8&#45;&gt;dir_200d929b8d5577e7f19dc05ce443c612</title>
<path fill="none" stroke="black" d="M467.416,-359.871C464.857,-335.67 464.566,-291.211 466.541,-262.393"/>
<polygon fill="black" stroke="black" points="470.049,-262.45 467.409,-252.189 463.074,-261.857 470.049,-262.45"/>
<g id="a_edge50&#45;headlabel"><a xlink:href="dir_000028_000144.html" xlink:title="1">
<text text-anchor="middle" x="472.573" y="-263.772" font-family="Helvetica,sans-Serif" font-size="10.00">1</text>
</a>
</g>
</g>
<!-- dir_df3f4256615fd4197927a84a019a8bd8&#45;&gt;dir_943e52f8581fabc839a1d5cc5644b223 -->
<g id="edge51" class="edge"><title>dir_df3f4256615fd4197927a84a019a8bd8&#45;&gt;dir_943e52f8581fabc839a1d5cc5644b223</title>
<path fill="none" stroke="black" d="M477.008,-359.949C490.176,-330.418 519.6,-267.933 504,-216 501.111,-206.383 495.849,-196.902 490.672,-188.677"/>
<polygon fill="black" stroke="black" points="493.601,-186.76 485.205,-180.297 487.738,-190.585 493.601,-186.76"/>
<g id="a_edge51&#45;headlabel"><a xlink:href="dir_000028_000195.html" xlink:title="1">
<text text-anchor="middle" x="497.943" y="-185.719" font-family="Helvetica,sans-Serif" font-size="10.00">1</text>
</a>
</g>
</g>
<!-- dir_df3f4256615fd4197927a84a019a8bd8&#45;&gt;dir_93fb9127672489656ce87df72f6e986d -->
<g id="edge52" class="edge"><title>dir_df3f4256615fd4197927a84a019a8bd8&#45;&gt;dir_93fb9127672489656ce87df72f6e986d</title>
<path fill="none" stroke="black" d="M460.785,-359.966C434.667,-312.093 372.114,-176.06 349.177,-117.904"/>
<polygon fill="black" stroke="black" points="352.344,-116.386 345.49,-108.306 345.809,-118.897 352.344,-116.386"/>
<g id="a_edge52&#45;headlabel"><a xlink:href="dir_000028_000111.html" xlink:title="1">
<text text-anchor="middle" x="356.283" y="-116.224" font-family="Helvetica,sans-Serif" font-size="10.00">1</text>
</a>
</g>
</g>
<!-- dir_df3f4256615fd4197927a84a019a8bd8&#45;&gt;dir_76c3a7c075633ea7df6dd8cefcefbb8f -->
<g id="edge53" class="edge"><title>dir_df3f4256615fd4197927a84a019a8bd8&#45;&gt;dir_76c3a7c075633ea7df6dd8cefcefbb8f</title>
<path fill="none" stroke="black" d="M434.6,-376.035C362.519,-373.301 208.583,-362.936 176,-324 98.5609,-231.464 243.518,-96.8702 310.102,-42.796"/>
<polygon fill="black" stroke="black" points="312.58,-45.2956 318.192,-36.3092 308.201,-39.8345 312.58,-45.2956"/>
<g id="a_edge53&#45;headlabel"><a xlink:href="dir_000028_000148.html" xlink:title="1">
<text text-anchor="middle" x="311.552" y="-47.2594" font-family="Helvetica,sans-Serif" font-size="10.00">1</text>
</a>
</g>
</g>
</g>
</svg>
