<?xml version="1.0" encoding="UTF-8" standalone="no"?>
<!DOCTYPE svg PUBLIC "-//W3C//DTD SVG 1.1//EN"
 "http://www.w3.org/Graphics/SVG/1.1/DTD/svg11.dtd">
<!-- Generated by graphviz version 2.36.0 (20140111.2315)
 -->
<!-- Title: dsm_guess_format Pages: 1 -->
<svg width="658pt" height="185pt"
 viewBox="0.00 0.00 658.00 185.00" xmlns="http://www.w3.org/2000/svg" xmlns:xlink="http://www.w3.org/1999/xlink">
<g id="graph0" class="graph" transform="scale(1 1) rotate(0) translate(4 181)">
<title>dsm_guess_format</title>
<polygon fill="white" stroke="none" points="-4,4 -4,-181 654,-181 654,4 -4,4"/>
<!-- Node1 -->
<g id="node1" class="node"><title>Node1</title>
<polygon fill="#bfbfbf" stroke="black" points="0,-78.5 0,-97.5 100,-97.5 100,-78.5 0,-78.5"/>
<text text-anchor="middle" x="50" y="-85.5" font-family="Helvetica,sans-Serif" font-size="10.00">dsm_guess_format</text>
</g>
<!-- Node2 -->
<g id="node2" class="node"><title>Node2</title>
<g id="a_node2"><a xlink:href="$dsm_8h.html#a7b7c65c600dd4eacc1eb714df3621192" xlink:title="dsm_decode">
<polygon fill="white" stroke="black" points="136,-78.5 136,-97.5 208,-97.5 208,-78.5 136,-78.5"/>
<text text-anchor="middle" x="172" y="-85.5" font-family="Helvetica,sans-Serif" font-size="10.00">dsm_decode</text>
</a>
</g>
</g>
<!-- Node1&#45;&gt;Node2 -->
<g id="edge1" class="edge"><title>Node1&#45;&gt;Node2</title>
<path fill="none" stroke="midnightblue" d="M110.3,-88C118.987,-88 127.693,-88 135.691,-88"/>
<polygon fill="midnightblue" stroke="midnightblue" points="110.155,-84.5001 100.155,-88 110.155,-91.5001 110.155,-84.5001"/>
</g>
<!-- Node3 -->
<g id="node3" class="node"><title>Node3</title>
<g id="a_node3"><a xlink:href="$classLinux_1_1LinuxRCInput.html#aca15a09ff68965606c20a93cf1c752f8" xlink:title="Linux::LinuxRCInput\l::_process_dsm_pulse">
<polygon fill="white" stroke="black" points="244.5,-73 244.5,-103 359.5,-103 359.5,-73 244.5,-73"/>
<text text-anchor="start" x="252.5" y="-91" font-family="Helvetica,sans-Serif" font-size="10.00">Linux::LinuxRCInput</text>
<text text-anchor="middle" x="302" y="-80" font-family="Helvetica,sans-Serif" font-size="10.00">::_process_dsm_pulse</text>
</a>
</g>
</g>
<!-- Node2&#45;&gt;Node3 -->
<g id="edge2" class="edge"><title>Node2&#45;&gt;Node3</title>
<path fill="none" stroke="midnightblue" d="M218.538,-88C226.836,-88 235.588,-88 244.166,-88"/>
<polygon fill="midnightblue" stroke="midnightblue" points="218.315,-84.5001 208.315,-88 218.315,-91.5001 218.315,-84.5001"/>
</g>
<!-- Node4 -->
<g id="node4" class="node"><title>Node4</title>
<g id="a_node4"><a xlink:href="$classLinux_1_1LinuxRCInput.html#a4c7b9d3b8575c8ccd3c17b696d4ee32e" xlink:title="Linux::LinuxRCInput\l::_process_rc_pulse">
<polygon fill="white" stroke="black" points="396,-73 396,-103 502,-103 502,-73 396,-73"/>
<text text-anchor="start" x="404" y="-91" font-family="Helvetica,sans-Serif" font-size="10.00">Linux::LinuxRCInput</text>
<text text-anchor="middle" x="449" y="-80" font-family="Helvetica,sans-Serif" font-size="10.00">::_process_rc_pulse</text>
</a>
</g>
</g>
<!-- Node3&#45;&gt;Node4 -->
<g id="edge3" class="edge"><title>Node3&#45;&gt;Node4</title>
<path fill="none" stroke="midnightblue" d="M370.043,-88C378.757,-88 387.577,-88 395.996,-88"/>
<polygon fill="midnightblue" stroke="midnightblue" points="369.892,-84.5001 359.892,-88 369.892,-91.5001 369.892,-84.5001"/>
</g>
<!-- Node5 -->
<g id="node5" class="node"><title>Node5</title>
<g id="a_node5"><a xlink:href="$classLinux_1_1LinuxRCInput__AioPRU.html#aa08cf9bc4bcbfcf2bdd8c388554c7a0c" xlink:title="Linux::LinuxRCInput\l_AioPRU::_timer_tick">
<polygon fill="white" stroke="black" points="538,-147 538,-177 650,-177 650,-147 538,-147"/>
<text text-anchor="start" x="546" y="-165" font-family="Helvetica,sans-Serif" font-size="10.00">Linux::LinuxRCInput</text>
<text text-anchor="middle" x="594" y="-154" font-family="Helvetica,sans-Serif" font-size="10.00">_AioPRU::_timer_tick</text>
</a>
</g>
</g>
<!-- Node4&#45;&gt;Node5 -->
<g id="edge4" class="edge"><title>Node4&#45;&gt;Node5</title>
<path fill="none" stroke="midnightblue" d="M484.895,-108.289C500.912,-117.379 520.252,-128.044 538,-137 544.648,-140.355 551.84,-143.772 558.761,-146.959"/>
<polygon fill="midnightblue" stroke="midnightblue" points="486.304,-105.063 475.885,-103.144 482.833,-111.142 486.304,-105.063"/>
</g>
<!-- Node6 -->
<g id="node6" class="node"><title>Node6</title>
<g id="a_node6"><a xlink:href="$classLinux_1_1LinuxRCInput__Navio.html#a59c2db95c339a99f051fb26426c2cf50" xlink:title="Linux::LinuxRCInput\l_Navio::_timer_tick">
<polygon fill="white" stroke="black" points="541,-98 541,-128 647,-128 647,-98 541,-98"/>
<text text-anchor="start" x="549" y="-116" font-family="Helvetica,sans-Serif" font-size="10.00">Linux::LinuxRCInput</text>
<text text-anchor="middle" x="594" y="-105" font-family="Helvetica,sans-Serif" font-size="10.00">_Navio::_timer_tick</text>
</a>
</g>
</g>
<!-- Node4&#45;&gt;Node6 -->
<g id="edge5" class="edge"><title>Node4&#45;&gt;Node6</title>
<path fill="none" stroke="midnightblue" d="M511.934,-98.8277C521.548,-100.508 531.397,-102.23 540.768,-103.869"/>
<polygon fill="midnightblue" stroke="midnightblue" points="512.484,-95.3708 502.031,-97.0963 511.279,-102.266 512.484,-95.3708"/>
</g>
<!-- Node7 -->
<g id="node7" class="node"><title>Node7</title>
<g id="a_node7"><a xlink:href="$classLinux_1_1LinuxRCInput__PRU.html#a1e30e9faaee05771f4f1d60af53a1171" xlink:title="Linux::LinuxRCInput\l_PRU::_timer_tick">
<polygon fill="white" stroke="black" points="541,-49 541,-79 647,-79 647,-49 541,-49"/>
<text text-anchor="start" x="549" y="-67" font-family="Helvetica,sans-Serif" font-size="10.00">Linux::LinuxRCInput</text>
<text text-anchor="middle" x="594" y="-56" font-family="Helvetica,sans-Serif" font-size="10.00">_PRU::_timer_tick</text>
</a>
</g>
</g>
<!-- Node4&#45;&gt;Node7 -->
<g id="edge6" class="edge"><title>Node4&#45;&gt;Node7</title>
<path fill="none" stroke="midnightblue" d="M511.934,-77.6054C521.548,-75.9919 531.397,-74.339 540.768,-72.7662"/>
<polygon fill="midnightblue" stroke="midnightblue" points="511.314,-74.1606 502.031,-79.2676 512.472,-81.064 511.314,-74.1606"/>
</g>
<!-- Node8 -->
<g id="node8" class="node"><title>Node8</title>
<g id="a_node8"><a xlink:href="$classLinux_1_1LinuxRCInput__ZYNQ.html#a33625c99a8cc5db604ef5b8a4aa9fddd" xlink:title="Linux::LinuxRCInput\l_ZYNQ::_timer_tick">
<polygon fill="white" stroke="black" points="541,-0 541,-30 647,-30 647,-0 541,-0"/>
<text text-anchor="start" x="549" y="-18" font-family="Helvetica,sans-Serif" font-size="10.00">Linux::LinuxRCInput</text>
<text text-anchor="middle" x="594" y="-7" font-family="Helvetica,sans-Serif" font-size="10.00">_ZYNQ::_timer_tick</text>
</a>
</g>
</g>
<!-- Node4&#45;&gt;Node8 -->
<g id="edge7" class="edge"><title>Node4&#45;&gt;Node8</title>
<path fill="none" stroke="midnightblue" d="M485.292,-67.9871C501.248,-59.1371 520.428,-48.7713 538,-40 544.663,-36.674 551.861,-33.2699 558.784,-30.0868"/>
<polygon fill="midnightblue" stroke="midnightblue" points="483.334,-65.0712 476.306,-72.9992 486.744,-71.1845 483.334,-65.0712"/>
</g>
</g>
</svg>
