<?xml version="1.0" encoding="UTF-8" standalone="no"?>
<!DOCTYPE svg PUBLIC "-//W3C//DTD SVG 1.1//EN"
 "http://www.w3.org/Graphics/SVG/1.1/DTD/svg11.dtd">
<!-- Generated by graphviz version 2.36.0 (20140111.2315)
 -->
<!-- Title: libraries/AP_HAL_FLYMAPLE/utility/EEPROM.cpp Pages: 1 -->
<svg width="1440pt" height="488pt"
 viewBox="0.00 0.00 1440.00 488.00" xmlns="http://www.w3.org/2000/svg" xmlns:xlink="http://www.w3.org/1999/xlink">
<g id="graph0" class="graph" transform="scale(1 1) rotate(0) translate(4 484)">
<title>libraries/AP_HAL_FLYMAPLE/utility/EEPROM.cpp</title>
<polygon fill="white" stroke="none" points="-4,4 -4,-484 1436,-484 1436,4 -4,4"/>
<!-- Node1 -->
<g id="node1" class="node"><title>Node1</title>
<polygon fill="#bfbfbf" stroke="black" points="1205.5,-449 1205.5,-479 1354.5,-479 1354.5,-449 1205.5,-449"/>
<text text-anchor="start" x="1213.5" y="-467" font-family="Helvetica,sans-Serif" font-size="10.00">libraries/AP_HAL_FLYMAPLE</text>
<text text-anchor="middle" x="1280" y="-456" font-family="Helvetica,sans-Serif" font-size="10.00">/utility/EEPROM.cpp</text>
</g>
<!-- Node2 -->
<g id="node2" class="node"><title>Node2</title>
<g id="a_node2"><a xlink:href="$AP__HAL_8h.html" xlink:title="AP_HAL.h">
<polygon fill="white" stroke="black" points="700.5,-392.5 700.5,-411.5 763.5,-411.5 763.5,-392.5 700.5,-392.5"/>
<text text-anchor="middle" x="732" y="-399.5" font-family="Helvetica,sans-Serif" font-size="10.00">AP_HAL.h</text>
</a>
</g>
</g>
<!-- Node1&#45;&gt;Node2 -->
<g id="edge1" class="edge"><title>Node1&#45;&gt;Node2</title>
<path fill="none" stroke="midnightblue" d="M1205.24,-454.814C1088.34,-442.015 866.124,-417.685 773.82,-407.579"/>
<polygon fill="midnightblue" stroke="midnightblue" points="774.062,-404.084 763.74,-406.475 773.3,-411.043 774.062,-404.084"/>
</g>
<!-- Node29 -->
<g id="node29" class="node"><title>Node29</title>
<polygon fill="white" stroke="#bfbfbf" points="1286,-336.5 1286,-355.5 1336,-355.5 1336,-336.5 1286,-336.5"/>
<text text-anchor="middle" x="1311" y="-343.5" font-family="Helvetica,sans-Serif" font-size="10.00">wirish.h</text>
</g>
<!-- Node1&#45;&gt;Node29 -->
<g id="edge66" class="edge"><title>Node1&#45;&gt;Node29</title>
<path fill="none" stroke="midnightblue" d="M1283.8,-448.776C1289.39,-427.876 1299.82,-388.844 1306.01,-365.664"/>
<polygon fill="midnightblue" stroke="midnightblue" points="1309.47,-366.272 1308.67,-355.707 1302.71,-364.464 1309.47,-366.272"/>
</g>
<!-- Node30 -->
<g id="node30" class="node"><title>Node30</title>
<g id="a_node30"><a xlink:href="$EEPROM_8h.html" xlink:title="EEPROM.h">
<polygon fill="white" stroke="black" points="1308,-392.5 1308,-411.5 1376,-411.5 1376,-392.5 1308,-392.5"/>
<text text-anchor="middle" x="1342" y="-399.5" font-family="Helvetica,sans-Serif" font-size="10.00">EEPROM.h</text>
</a>
</g>
</g>
<!-- Node1&#45;&gt;Node30 -->
<g id="edge67" class="edge"><title>Node1&#45;&gt;Node30</title>
<path fill="none" stroke="midnightblue" d="M1294.69,-448.781C1303.98,-439.792 1316,-428.162 1325.6,-418.873"/>
<polygon fill="midnightblue" stroke="midnightblue" points="1328.23,-421.2 1332.98,-411.731 1323.36,-416.17 1328.23,-421.2"/>
</g>
<!-- Node3 -->
<g id="node3" class="node"><title>Node3</title>
<polygon fill="white" stroke="#bfbfbf" points="333.5,-56.5 333.5,-75.5 382.5,-75.5 382.5,-56.5 333.5,-56.5"/>
<text text-anchor="middle" x="358" y="-63.5" font-family="Helvetica,sans-Serif" font-size="10.00">stdint.h</text>
</g>
<!-- Node2&#45;&gt;Node3 -->
<g id="edge2" class="edge"><title>Node2&#45;&gt;Node3</title>
<path fill="none" stroke="midnightblue" d="M700.493,-400.252C592.671,-397.441 239.115,-386.096 130,-356 67.7278,-338.824 0,-355.598 0,-291 0,-291 0,-291 0,-177 0,-141.864 15.1194,-130.486 45,-112 90.9616,-83.5658 251.374,-72.2508 322.998,-68.5416"/>
<polygon fill="midnightblue" stroke="midnightblue" points="323.485,-72.0217 333.299,-68.0292 323.138,-65.0304 323.485,-72.0217"/>
</g>
<!-- Node4 -->
<g id="node4" class="node"><title>Node4</title>
<polygon fill="white" stroke="#bfbfbf" points="798,-336.5 798,-355.5 854,-355.5 854,-336.5 798,-336.5"/>
<text text-anchor="middle" x="826" y="-343.5" font-family="Helvetica,sans-Serif" font-size="10.00">stdbool.h</text>
</g>
<!-- Node2&#45;&gt;Node4 -->
<g id="edge3" class="edge"><title>Node2&#45;&gt;Node4</title>
<path fill="none" stroke="midnightblue" d="M747.103,-392.324C761.903,-383.822 784.694,-370.729 801.982,-360.797"/>
<polygon fill="midnightblue" stroke="midnightblue" points="804.007,-363.671 810.935,-355.655 800.52,-357.601 804.007,-363.671"/>
</g>
<!-- Node5 -->
<g id="node5" class="node"><title>Node5</title>
<g id="a_node5"><a xlink:href="$AP__HAL__Namespace_8h.html" xlink:title="AP_HAL_Namespace.h">
<polygon fill="white" stroke="black" points="727.5,-56.5 727.5,-75.5 848.5,-75.5 848.5,-56.5 727.5,-56.5"/>
<text text-anchor="middle" x="788" y="-63.5" font-family="Helvetica,sans-Serif" font-size="10.00">AP_HAL_Namespace.h</text>
</a>
</g>
</g>
<!-- Node2&#45;&gt;Node5 -->
<g id="edge4" class="edge"><title>Node2&#45;&gt;Node5</title>
<path fill="none" stroke="midnightblue" d="M763.643,-400.659C871.781,-398.654 1220,-384.904 1220,-291 1220,-291 1220,-291 1220,-177 1220,-103.323 981.039,-78.3925 858.568,-70.4536"/>
<polygon fill="midnightblue" stroke="midnightblue" points="858.722,-66.9565 848.523,-69.8236 858.284,-73.9428 858.722,-66.9565"/>
</g>
<!-- Node8 -->
<g id="node8" class="node"><title>Node8</title>
<g id="a_node8"><a xlink:href="$AP__HAL__Boards_8h.html" xlink:title="AP_HAL_Boards.h">
<polygon fill="white" stroke="black" points="66.5,-112.5 66.5,-131.5 165.5,-131.5 165.5,-112.5 66.5,-112.5"/>
<text text-anchor="middle" x="116" y="-119.5" font-family="Helvetica,sans-Serif" font-size="10.00">AP_HAL_Boards.h</text>
</a>
</g>
</g>
<!-- Node2&#45;&gt;Node8 -->
<g id="edge7" class="edge"><title>Node2&#45;&gt;Node8</title>
<path fill="none" stroke="midnightblue" d="M700.404,-399.374C624.764,-395.103 435.315,-382.055 378,-356 263.428,-303.917 163.024,-183.981 128.636,-139.766"/>
<polygon fill="midnightblue" stroke="midnightblue" points="131.351,-137.555 122.485,-131.753 125.798,-141.817 131.351,-137.555"/>
</g>
<!-- Node9 -->
<g id="node9" class="node"><title>Node9</title>
<g id="a_node9"><a xlink:href="$AP__HAL__Macros_8h.html" xlink:title="AP_HAL_Macros.h">
<polygon fill="white" stroke="black" points="872.5,-336.5 872.5,-355.5 973.5,-355.5 973.5,-336.5 872.5,-336.5"/>
<text text-anchor="middle" x="923" y="-343.5" font-family="Helvetica,sans-Serif" font-size="10.00">AP_HAL_Macros.h</text>
</a>
</g>
</g>
<!-- Node2&#45;&gt;Node9 -->
<g id="edge8" class="edge"><title>Node2&#45;&gt;Node9</title>
<path fill="none" stroke="midnightblue" d="M762.265,-392.444C794.955,-383.201 847.182,-368.436 883.183,-358.257"/>
<polygon fill="midnightblue" stroke="midnightblue" points="884.206,-361.605 892.877,-355.516 882.302,-354.869 884.206,-361.605"/>
</g>
<!-- Node10 -->
<g id="node10" class="node"><title>Node10</title>
<g id="a_node10"><a xlink:href="$UARTDriver_8h.html" xlink:title="UARTDriver.h">
<polygon fill="white" stroke="black" points="548.5,-280.5 548.5,-299.5 627.5,-299.5 627.5,-280.5 548.5,-280.5"/>
<text text-anchor="middle" x="588" y="-287.5" font-family="Helvetica,sans-Serif" font-size="10.00">UARTDriver.h</text>
</a>
</g>
</g>
<!-- Node2&#45;&gt;Node10 -->
<g id="edge9" class="edge"><title>Node2&#45;&gt;Node10</title>
<path fill="none" stroke="midnightblue" d="M708.662,-392.465C689.535,-384.767 662.392,-372.176 642,-356 624.652,-342.238 608.988,-322.109 599.054,-307.904"/>
<polygon fill="midnightblue" stroke="midnightblue" points="601.901,-305.866 593.393,-299.552 596.106,-309.793 601.901,-305.866"/>
</g>
<!-- Node11 -->
<g id="node11" class="node"><title>Node11</title>
<g id="a_node11"><a xlink:href="$BetterStream_8h.html" xlink:title="utility/BetterStream.h">
<polygon fill="white" stroke="black" points="465.5,-224.5 465.5,-243.5 574.5,-243.5 574.5,-224.5 465.5,-224.5"/>
<text text-anchor="middle" x="520" y="-231.5" font-family="Helvetica,sans-Serif" font-size="10.00">utility/BetterStream.h</text>
</a>
</g>
</g>
<!-- Node2&#45;&gt;Node11 -->
<g id="edge56" class="edge"><title>Node2&#45;&gt;Node11</title>
<path fill="none" stroke="midnightblue" d="M700.418,-393.949C656.556,-382.386 578.182,-354.969 539,-300 529.297,-286.387 524.511,-267.844 522.173,-254.047"/>
<polygon fill="midnightblue" stroke="midnightblue" points="525.589,-253.202 520.732,-243.786 518.657,-254.176 525.589,-253.202"/>
</g>
<!-- Node13 -->
<g id="node13" class="node"><title>Node13</title>
<g id="a_node13"><a xlink:href="$Stream_8h.html" xlink:title="Stream.h">
<polygon fill="white" stroke="black" points="577,-168.5 577,-187.5 633,-187.5 633,-168.5 577,-168.5"/>
<text text-anchor="middle" x="605" y="-175.5" font-family="Helvetica,sans-Serif" font-size="10.00">Stream.h</text>
</a>
</g>
</g>
<!-- Node2&#45;&gt;Node13 -->
<g id="edge55" class="edge"><title>Node2&#45;&gt;Node13</title>
<path fill="none" stroke="midnightblue" d="M727.021,-392.297C708.176,-359.356 640.982,-241.898 615.186,-196.805"/>
<polygon fill="midnightblue" stroke="midnightblue" points="618.086,-194.826 610.082,-187.884 612.01,-198.302 618.086,-194.826"/>
</g>
<!-- Node14 -->
<g id="node14" class="node"><title>Node14</title>
<g id="a_node14"><a xlink:href="$Print_8h.html" xlink:title="Print.h">
<polygon fill="white" stroke="black" points="562.5,-112.5 562.5,-131.5 607.5,-131.5 607.5,-112.5 562.5,-112.5"/>
<text text-anchor="middle" x="585" y="-119.5" font-family="Helvetica,sans-Serif" font-size="10.00">Print.h</text>
</a>
</g>
</g>
<!-- Node2&#45;&gt;Node14 -->
<g id="edge54" class="edge"><title>Node2&#45;&gt;Node14</title>
<path fill="none" stroke="midnightblue" d="M700.428,-397.941C629.682,-389.134 459.819,-356.614 398,-244 361.601,-177.693 490.008,-142.071 552.615,-128.954"/>
<polygon fill="midnightblue" stroke="midnightblue" points="553.311,-132.384 562.419,-126.971 551.924,-125.523 553.311,-132.384"/>
</g>
<!-- Node18 -->
<g id="node18" class="node"><title>Node18</title>
<g id="a_node18"><a xlink:href="$I2CDriver_8h.html" xlink:title="I2CDriver.h">
<polygon fill="white" stroke="black" points="324.5,-112.5 324.5,-131.5 391.5,-131.5 391.5,-112.5 324.5,-112.5"/>
<text text-anchor="middle" x="358" y="-119.5" font-family="Helvetica,sans-Serif" font-size="10.00">I2CDriver.h</text>
</a>
</g>
</g>
<!-- Node2&#45;&gt;Node18 -->
<g id="edge26" class="edge"><title>Node2&#45;&gt;Node18</title>
<path fill="none" stroke="midnightblue" d="M700.334,-398.919C607.25,-391.944 341,-365.484 341,-291 341,-291 341,-291 341,-233 341,-200.583 348.3,-163.415 353.333,-141.644"/>
<polygon fill="midnightblue" stroke="midnightblue" points="356.772,-142.31 355.707,-131.769 349.966,-140.674 356.772,-142.31"/>
</g>
<!-- Node19 -->
<g id="node19" class="node"><title>Node19</title>
<g id="a_node19"><a xlink:href="$SPIDriver_8h.html" xlink:title="SPIDriver.h">
<polygon fill="white" stroke="black" points="798,-280.5 798,-299.5 866,-299.5 866,-280.5 798,-280.5"/>
<text text-anchor="middle" x="832" y="-287.5" font-family="Helvetica,sans-Serif" font-size="10.00">SPIDriver.h</text>
</a>
</g>
</g>
<!-- Node2&#45;&gt;Node19 -->
<g id="edge29" class="edge"><title>Node2&#45;&gt;Node19</title>
<path fill="none" stroke="midnightblue" d="M739.265,-392.484C749.988,-379.967 770.757,-355.927 789,-336 797.958,-326.215 808.213,-315.466 816.461,-306.928"/>
<polygon fill="midnightblue" stroke="midnightblue" points="819.194,-309.138 823.646,-299.523 814.17,-304.263 819.194,-309.138"/>
</g>
<!-- Node20 -->
<g id="node20" class="node"><title>Node20</title>
<g id="a_node20"><a xlink:href="$AnalogIn_8h.html" xlink:title="AnalogIn.h">
<polygon fill="white" stroke="black" points="960.5,-280.5 960.5,-299.5 1023.5,-299.5 1023.5,-280.5 960.5,-280.5"/>
<text text-anchor="middle" x="992" y="-287.5" font-family="Helvetica,sans-Serif" font-size="10.00">AnalogIn.h</text>
</a>
</g>
</g>
<!-- Node2&#45;&gt;Node20 -->
<g id="edge31" class="edge"><title>Node2&#45;&gt;Node20</title>
<path fill="none" stroke="midnightblue" d="M763.761,-401.417C835.761,-401.615 1007.95,-397.627 1044,-356 1058.84,-338.872 1035.99,-318.341 1016.06,-305.001"/>
<polygon fill="midnightblue" stroke="midnightblue" points="1017.85,-301.993 1007.53,-299.586 1014.1,-307.902 1017.85,-301.993"/>
</g>
<!-- Node21 -->
<g id="node21" class="node"><title>Node21</title>
<g id="a_node21"><a xlink:href="$Storage_8h.html" xlink:title="Storage.h">
<polygon fill="white" stroke="black" points="707.5,-224.5 707.5,-243.5 766.5,-243.5 766.5,-224.5 707.5,-224.5"/>
<text text-anchor="middle" x="737" y="-231.5" font-family="Helvetica,sans-Serif" font-size="10.00">Storage.h</text>
</a>
</g>
</g>
<!-- Node2&#45;&gt;Node21 -->
<g id="edge33" class="edge"><title>Node2&#45;&gt;Node21</title>
<path fill="none" stroke="midnightblue" d="M728.4,-392.222C724.944,-383.285 719.967,-368.942 718,-356 712.457,-319.521 723.157,-276.903 730.628,-253.228"/>
<polygon fill="midnightblue" stroke="midnightblue" points="734.027,-254.098 733.857,-243.504 727.383,-251.891 734.027,-254.098"/>
</g>
<!-- Node22 -->
<g id="node22" class="node"><title>Node22</title>
<g id="a_node22"><a xlink:href="$GPIO_8h.html" xlink:title="GPIO.h">
<polygon fill="white" stroke="black" points="816,-168.5 816,-187.5 866,-187.5 866,-168.5 816,-168.5"/>
<text text-anchor="middle" x="841" y="-175.5" font-family="Helvetica,sans-Serif" font-size="10.00">GPIO.h</text>
</a>
</g>
</g>
<!-- Node2&#45;&gt;Node22 -->
<g id="edge36" class="edge"><title>Node2&#45;&gt;Node22</title>
<path fill="none" stroke="midnightblue" d="M735.906,-392.442C744.996,-372.583 768.369,-321.867 789,-280 803.542,-250.489 821.212,-216.552 831.759,-196.488"/>
<polygon fill="midnightblue" stroke="midnightblue" points="834.88,-198.073 836.445,-187.595 828.687,-194.81 834.88,-198.073"/>
</g>
<!-- Node23 -->
<g id="node23" class="node"><title>Node23</title>
<g id="a_node23"><a xlink:href="$RCInput_8h.html" xlink:title="RCInput.h">
<polygon fill="white" stroke="black" points="1042,-280.5 1042,-299.5 1104,-299.5 1104,-280.5 1042,-280.5"/>
<text text-anchor="middle" x="1073" y="-287.5" font-family="Helvetica,sans-Serif" font-size="10.00">RCInput.h</text>
</a>
</g>
</g>
<!-- Node2&#45;&gt;Node23 -->
<g id="edge39" class="edge"><title>Node2&#45;&gt;Node23</title>
<path fill="none" stroke="midnightblue" d="M763.568,-401.206C837.494,-401.001 1018.77,-396.301 1061,-356 1073.3,-344.257 1075.38,-324.322 1074.95,-309.619"/>
<polygon fill="midnightblue" stroke="midnightblue" points="1078.44,-309.352 1074.26,-299.616 1071.46,-309.834 1078.44,-309.352"/>
</g>
<!-- Node24 -->
<g id="node24" class="node"><title>Node24</title>
<g id="a_node24"><a xlink:href="$RCOutput_8h.html" xlink:title="RCOutput.h">
<polygon fill="white" stroke="black" points="1122.5,-280.5 1122.5,-299.5 1191.5,-299.5 1191.5,-280.5 1122.5,-280.5"/>
<text text-anchor="middle" x="1157" y="-287.5" font-family="Helvetica,sans-Serif" font-size="10.00">RCOutput.h</text>
</a>
</g>
</g>
<!-- Node2&#45;&gt;Node24 -->
<g id="edge41" class="edge"><title>Node2&#45;&gt;Node24</title>
<path fill="none" stroke="midnightblue" d="M763.672,-399.231C838.542,-394.682 1024.4,-381.134 1081,-356 1106.17,-344.823 1129.33,-322.541 1143.3,-307.208"/>
<polygon fill="midnightblue" stroke="midnightblue" points="1146.09,-309.336 1150.08,-299.518 1140.84,-304.708 1146.09,-309.336"/>
</g>
<!-- Node25 -->
<g id="node25" class="node"><title>Node25</title>
<g id="a_node25"><a xlink:href="$Scheduler_8h.html" xlink:title="Scheduler.h">
<polygon fill="white" stroke="black" points="70,-224.5 70,-243.5 138,-243.5 138,-224.5 70,-224.5"/>
<text text-anchor="middle" x="104" y="-231.5" font-family="Helvetica,sans-Serif" font-size="10.00">Scheduler.h</text>
</a>
</g>
</g>
<!-- Node2&#45;&gt;Node25 -->
<g id="edge43" class="edge"><title>Node2&#45;&gt;Node25</title>
<path fill="none" stroke="midnightblue" d="M700.384,-400.479C585.745,-398.329 196.305,-388.663 152,-356 119.053,-331.71 108.699,-281.221 105.461,-253.764"/>
<polygon fill="midnightblue" stroke="midnightblue" points="108.919,-253.163 104.464,-243.551 101.952,-253.844 108.919,-253.163"/>
</g>
<!-- Node26 -->
<g id="node26" class="node"><title>Node26</title>
<g id="a_node26"><a xlink:href="$Semaphores_8h.html" xlink:title="Semaphores.h">
<polygon fill="white" stroke="black" points="1248,-224.5 1248,-243.5 1328,-243.5 1328,-224.5 1248,-224.5"/>
<text text-anchor="middle" x="1288" y="-231.5" font-family="Helvetica,sans-Serif" font-size="10.00">Semaphores.h</text>
</a>
</g>
</g>
<!-- Node2&#45;&gt;Node26 -->
<g id="edge48" class="edge"><title>Node2&#45;&gt;Node26</title>
<path fill="none" stroke="midnightblue" d="M763.559,-400.01C867.661,-396.496 1195.73,-383.336 1234,-356 1267.91,-331.783 1280.87,-281.263 1285.55,-253.783"/>
<polygon fill="midnightblue" stroke="midnightblue" points="1289.06,-253.969 1287.08,-243.56 1282.13,-252.929 1289.06,-253.969"/>
</g>
<!-- Node27 -->
<g id="node27" class="node"><title>Node27</title>
<g id="a_node27"><a xlink:href="$Util_8h.html" xlink:title="Util.h">
<polygon fill="white" stroke="black" points="407,-224.5 407,-243.5 447,-243.5 447,-224.5 407,-224.5"/>
<text text-anchor="middle" x="427" y="-231.5" font-family="Helvetica,sans-Serif" font-size="10.00">Util.h</text>
</a>
</g>
</g>
<!-- Node2&#45;&gt;Node27 -->
<g id="edge50" class="edge"><title>Node2&#45;&gt;Node27</title>
<path fill="none" stroke="midnightblue" d="M700.287,-395.935C667.32,-389.782 614.918,-377.462 574,-356 519.852,-327.598 467.205,-277.065 442.161,-251.213"/>
<polygon fill="midnightblue" stroke="midnightblue" points="444.47,-248.562 435.033,-243.746 439.406,-253.396 444.47,-248.562"/>
</g>
<!-- Node28 -->
<g id="node28" class="node"><title>Node28</title>
<g id="a_node28"><a xlink:href="$HAL_8h.html" xlink:title="HAL.h">
<polygon fill="white" stroke="black" points="992,-336.5 992,-355.5 1036,-355.5 1036,-336.5 992,-336.5"/>
<text text-anchor="middle" x="1014" y="-343.5" font-family="Helvetica,sans-Serif" font-size="10.00">HAL.h</text>
</a>
</g>
</g>
<!-- Node2&#45;&gt;Node28 -->
<g id="edge57" class="edge"><title>Node2&#45;&gt;Node28</title>
<path fill="none" stroke="midnightblue" d="M763.77,-396.284C809.678,-389.252 897.388,-375.005 981.933,-355.811"/>
<polygon fill="midnightblue" stroke="midnightblue" points="982.728,-359.219 991.691,-353.57 981.161,-352.397 982.728,-359.219"/>
</g>
<!-- Node6 -->
<g id="node6" class="node"><title>Node6</title>
<polygon fill="white" stroke="#bfbfbf" points="531.5,-0.5 531.5,-19.5 580.5,-19.5 580.5,-0.5 531.5,-0.5"/>
<text text-anchor="middle" x="556" y="-7.5" font-family="Helvetica,sans-Serif" font-size="10.00">string.h</text>
</g>
<!-- Node5&#45;&gt;Node6 -->
<g id="edge5" class="edge"><title>Node5&#45;&gt;Node6</title>
<path fill="none" stroke="midnightblue" d="M751.239,-56.4435C707.118,-46.1741 633.702,-29.0858 590.576,-19.0478"/>
<polygon fill="midnightblue" stroke="midnightblue" points="591.352,-15.6349 580.819,-16.7767 589.765,-22.4527 591.352,-15.6349"/>
</g>
<!-- Node7 -->
<g id="node7" class="node"><title>Node7</title>
<g id="a_node7"><a xlink:href="$FastDelegate_8h.html" xlink:title="utility/FastDelegate.h">
<polygon fill="white" stroke="black" points="733,-0.5 733,-19.5 843,-19.5 843,-0.5 733,-0.5"/>
<text text-anchor="middle" x="788" y="-7.5" font-family="Helvetica,sans-Serif" font-size="10.00">utility/FastDelegate.h</text>
</a>
</g>
</g>
<!-- Node5&#45;&gt;Node7 -->
<g id="edge6" class="edge"><title>Node5&#45;&gt;Node7</title>
<path fill="none" stroke="midnightblue" d="M788,-56.083C788,-49.0059 788,-38.8611 788,-29.9865"/>
<polygon fill="midnightblue" stroke="midnightblue" points="791.5,-29.751 788,-19.7511 784.5,-29.7511 791.5,-29.751"/>
</g>
<!-- Node10&#45;&gt;Node3 -->
<g id="edge10" class="edge"><title>Node10&#45;&gt;Node3</title>
<path fill="none" stroke="midnightblue" d="M589.123,-280.139C590.375,-267.193 591.257,-242.624 583,-224 569.11,-192.673 556.819,-189.332 530,-168 516.965,-157.632 426.385,-105.807 382.171,-80.6905"/>
<polygon fill="midnightblue" stroke="midnightblue" points="383.661,-77.5117 373.236,-75.62 380.206,-83.5997 383.661,-77.5117"/>
</g>
<!-- Node10&#45;&gt;Node5 -->
<g id="edge11" class="edge"><title>Node10&#45;&gt;Node5</title>
<path fill="none" stroke="midnightblue" d="M596.601,-280.38C619.766,-257.058 685.145,-190.533 736,-132 749.862,-116.045 764.857,-97.106 775.166,-83.7993"/>
<polygon fill="midnightblue" stroke="midnightblue" points="778.157,-85.652 781.483,-75.5928 772.61,-81.3821 778.157,-85.652"/>
</g>
<!-- Node10&#45;&gt;Node11 -->
<g id="edge12" class="edge"><title>Node10&#45;&gt;Node11</title>
<path fill="none" stroke="midnightblue" d="M577.075,-280.324C566.825,-272.185 551.279,-259.839 538.999,-250.087"/>
<polygon fill="midnightblue" stroke="midnightblue" points="541.132,-247.312 531.124,-243.834 536.779,-252.794 541.132,-247.312"/>
</g>
<!-- Node11&#45;&gt;Node5 -->
<g id="edge14" class="edge"><title>Node11&#45;&gt;Node5</title>
<path fill="none" stroke="midnightblue" d="M551.343,-224.49C576.546,-216.92 612.35,-204.494 641,-188 655.056,-179.908 733.962,-113.103 770.02,-82.3678"/>
<polygon fill="midnightblue" stroke="midnightblue" points="772.476,-84.8736 777.811,-75.72 767.932,-79.5487 772.476,-84.8736"/>
</g>
<!-- Node12 -->
<g id="node12" class="node"><title>Node12</title>
<polygon fill="white" stroke="#bfbfbf" points="469,-168.5 469,-187.5 521,-187.5 521,-168.5 469,-168.5"/>
<text text-anchor="middle" x="495" y="-175.5" font-family="Helvetica,sans-Serif" font-size="10.00">stdarg.h</text>
</g>
<!-- Node11&#45;&gt;Node12 -->
<g id="edge13" class="edge"><title>Node11&#45;&gt;Node12</title>
<path fill="none" stroke="midnightblue" d="M515.872,-224.083C512.486,-216.77 507.584,-206.181 503.381,-197.103"/>
<polygon fill="midnightblue" stroke="midnightblue" points="506.429,-195.355 499.051,-187.751 500.077,-198.296 506.429,-195.355"/>
</g>
<!-- Node11&#45;&gt;Node13 -->
<g id="edge15" class="edge"><title>Node11&#45;&gt;Node13</title>
<path fill="none" stroke="midnightblue" d="M533.657,-224.324C546.916,-215.9 567.268,-202.971 582.846,-193.074"/>
<polygon fill="midnightblue" stroke="midnightblue" points="584.813,-195.971 591.377,-187.655 581.06,-190.063 584.813,-195.971"/>
</g>
<!-- Node16 -->
<g id="node16" class="node"><title>Node16</title>
<g id="a_node16"><a xlink:href="$AP__Progmem_8h.html" xlink:title="AP_Progmem.h">
<polygon fill="white" stroke="black" points="227,-168.5 227,-187.5 313,-187.5 313,-168.5 227,-168.5"/>
<text text-anchor="middle" x="270" y="-175.5" font-family="Helvetica,sans-Serif" font-size="10.00">AP_Progmem.h</text>
</a>
</g>
</g>
<!-- Node11&#45;&gt;Node16 -->
<g id="edge21" class="edge"><title>Node11&#45;&gt;Node16</title>
<path fill="none" stroke="midnightblue" d="M480.387,-224.444C436.775,-215.023 366.6,-199.866 319.422,-189.675"/>
<polygon fill="midnightblue" stroke="midnightblue" points="319.941,-186.207 309.428,-187.516 318.464,-193.049 319.941,-186.207"/>
</g>
<!-- Node13&#45;&gt;Node5 -->
<g id="edge16" class="edge"><title>Node13&#45;&gt;Node5</title>
<path fill="none" stroke="midnightblue" d="M616.097,-168.442C633.184,-155.453 667.192,-130.335 698,-112 718.013,-100.09 741.589,-88.381 759.589,-79.8936"/>
<polygon fill="midnightblue" stroke="midnightblue" points="761.372,-82.9245 768.958,-75.5289 758.416,-76.5793 761.372,-82.9245"/>
</g>
<!-- Node13&#45;&gt;Node14 -->
<g id="edge17" class="edge"><title>Node13&#45;&gt;Node14</title>
<path fill="none" stroke="midnightblue" d="M601.697,-168.083C599.018,-160.849 595.151,-150.409 591.814,-141.397"/>
<polygon fill="midnightblue" stroke="midnightblue" points="594.996,-139.913 588.241,-131.751 588.432,-142.344 594.996,-139.913"/>
</g>
<!-- Node14&#45;&gt;Node5 -->
<g id="edge18" class="edge"><title>Node14&#45;&gt;Node5</title>
<path fill="none" stroke="midnightblue" d="M607.5,-115.015C640.853,-106.142 703.991,-89.3472 746.04,-78.1618"/>
<polygon fill="midnightblue" stroke="midnightblue" points="746.956,-81.5399 755.72,-75.5868 745.156,-74.7752 746.956,-81.5399"/>
</g>
<!-- Node14&#45;&gt;Node6 -->
<g id="edge20" class="edge"><title>Node14&#45;&gt;Node6</title>
<path fill="none" stroke="midnightblue" d="M582.724,-112.368C578.023,-94.5366 567.151,-53.2953 560.817,-29.2717"/>
<polygon fill="midnightblue" stroke="midnightblue" points="564.199,-28.3688 558.265,-19.5914 557.43,-30.1533 564.199,-28.3688"/>
</g>
<!-- Node15 -->
<g id="node15" class="node"><title>Node15</title>
<polygon fill="white" stroke="#bfbfbf" points="584.5,-56.5 584.5,-75.5 643.5,-75.5 643.5,-56.5 584.5,-56.5"/>
<text text-anchor="middle" x="614" y="-63.5" font-family="Helvetica,sans-Serif" font-size="10.00">inttypes.h</text>
</g>
<!-- Node14&#45;&gt;Node15 -->
<g id="edge19" class="edge"><title>Node14&#45;&gt;Node15</title>
<path fill="none" stroke="midnightblue" d="M589.789,-112.083C593.758,-104.691 599.525,-93.9533 604.435,-84.8111"/>
<polygon fill="midnightblue" stroke="midnightblue" points="607.653,-86.217 609.3,-75.7511 601.486,-82.9051 607.653,-86.217"/>
</g>
<!-- Node16&#45;&gt;Node8 -->
<g id="edge22" class="edge"><title>Node16&#45;&gt;Node8</title>
<path fill="none" stroke="midnightblue" d="M245.598,-168.444C219.803,-159.399 178.923,-145.064 149.982,-134.916"/>
<polygon fill="midnightblue" stroke="midnightblue" points="150.882,-131.523 140.288,-131.516 148.566,-138.128 150.882,-131.523"/>
</g>
<!-- Node17 -->
<g id="node17" class="node"><title>Node17</title>
<g id="a_node17"><a xlink:href="$AP__Progmem__Identity_8h.html" xlink:title="AP_Progmem_Identity.h">
<polygon fill="white" stroke="black" points="183.5,-112.5 183.5,-131.5 306.5,-131.5 306.5,-112.5 183.5,-112.5"/>
<text text-anchor="middle" x="245" y="-119.5" font-family="Helvetica,sans-Serif" font-size="10.00">AP_Progmem_Identity.h</text>
</a>
</g>
</g>
<!-- Node16&#45;&gt;Node17 -->
<g id="edge23" class="edge"><title>Node16&#45;&gt;Node17</title>
<path fill="none" stroke="midnightblue" d="M265.872,-168.083C262.486,-160.77 257.584,-150.181 253.381,-141.103"/>
<polygon fill="midnightblue" stroke="midnightblue" points="256.429,-139.355 249.051,-131.751 250.077,-142.296 256.429,-139.355"/>
</g>
<!-- Node17&#45;&gt;Node3 -->
<g id="edge25" class="edge"><title>Node17&#45;&gt;Node3</title>
<path fill="none" stroke="midnightblue" d="M262.905,-112.444C281.254,-103.675 310.005,-89.9355 331.094,-79.8579"/>
<polygon fill="midnightblue" stroke="midnightblue" points="332.665,-82.9862 340.179,-75.5164 329.647,-76.6703 332.665,-82.9862"/>
</g>
<!-- Node17&#45;&gt;Node6 -->
<g id="edge24" class="edge"><title>Node17&#45;&gt;Node6</title>
<path fill="none" stroke="midnightblue" d="M252.786,-112.234C265.951,-98.0087 294.112,-70.0721 324,-56 389.259,-25.2746 474.3,-15.5274 521.176,-12.4357"/>
<polygon fill="midnightblue" stroke="midnightblue" points="521.633,-15.9148 531.408,-11.8276 521.218,-8.92714 521.633,-15.9148"/>
</g>
<!-- Node18&#45;&gt;Node3 -->
<g id="edge27" class="edge"><title>Node18&#45;&gt;Node3</title>
<path fill="none" stroke="midnightblue" d="M358,-112.083C358,-105.006 358,-94.8611 358,-85.9865"/>
<polygon fill="midnightblue" stroke="midnightblue" points="361.5,-85.751 358,-75.7511 354.5,-85.7511 361.5,-85.751"/>
</g>
<!-- Node18&#45;&gt;Node5 -->
<g id="edge28" class="edge"><title>Node18&#45;&gt;Node5</title>
<path fill="none" stroke="midnightblue" d="M391.52,-114.414C396.369,-113.549 401.306,-112.716 406,-112 514.193,-95.5038 640.421,-81.6858 717.248,-73.8779"/>
<polygon fill="midnightblue" stroke="midnightblue" points="717.694,-77.3507 727.292,-72.8629 716.99,-70.3862 717.694,-77.3507"/>
</g>
<!-- Node19&#45;&gt;Node5 -->
<g id="edge30" class="edge"><title>Node19&#45;&gt;Node5</title>
<path fill="none" stroke="midnightblue" d="M839.193,-280.486C854.983,-260.721 890.106,-210.188 875,-168 861.983,-131.646 828.977,-99.7757 807.567,-81.9879"/>
<polygon fill="midnightblue" stroke="midnightblue" points="809.711,-79.2204 799.728,-75.6711 805.319,-84.671 809.711,-79.2204"/>
</g>
<!-- Node20&#45;&gt;Node5 -->
<g id="edge32" class="edge"><title>Node20&#45;&gt;Node5</title>
<path fill="none" stroke="midnightblue" d="M992.526,-280.195C993.725,-251.632 993.484,-160.598 946,-112 923.257,-88.723 889.4,-77.256 858.854,-71.6954"/>
<polygon fill="midnightblue" stroke="midnightblue" points="859.076,-68.1854 848.642,-70.0276 857.947,-75.0939 859.076,-68.1854"/>
</g>
<!-- Node21&#45;&gt;Node3 -->
<g id="edge34" class="edge"><title>Node21&#45;&gt;Node3</title>
<path fill="none" stroke="midnightblue" d="M726.747,-224.369C709.894,-210.587 674.82,-183.58 641,-168 586.158,-142.737 566.155,-154.191 510,-132 492.25,-124.986 489.346,-119.96 472,-112 445.383,-99.786 414.435,-87.6982 391.507,-79.1313"/>
<polygon fill="midnightblue" stroke="midnightblue" points="392.488,-75.7623 381.895,-75.5703 390.056,-82.3263 392.488,-75.7623"/>
</g>
<!-- Node21&#45;&gt;Node5 -->
<g id="edge35" class="edge"><title>Node21&#45;&gt;Node5</title>
<path fill="none" stroke="midnightblue" d="M743.33,-224.5C749.519,-215.779 758.754,-201.601 764,-188 777.373,-153.328 783.643,-110.068 786.296,-85.7904"/>
<polygon fill="midnightblue" stroke="midnightblue" points="789.783,-86.0932 787.298,-75.794 782.818,-85.3951 789.783,-86.0932"/>
</g>
<!-- Node22&#45;&gt;Node3 -->
<g id="edge37" class="edge"><title>Node22&#45;&gt;Node3</title>
<path fill="none" stroke="midnightblue" d="M815.819,-175.442C765.097,-171.791 647.415,-160.708 553,-132 532.834,-125.868 529.714,-119.456 510,-112 470.453,-97.0424 423.629,-83.8308 392.505,-75.6566"/>
<polygon fill="midnightblue" stroke="midnightblue" points="393.144,-72.2065 382.586,-73.0824 391.386,-78.9821 393.144,-72.2065"/>
</g>
<!-- Node22&#45;&gt;Node5 -->
<g id="edge38" class="edge"><title>Node22&#45;&gt;Node5</title>
<path fill="none" stroke="midnightblue" d="M836.841,-168.368C828.172,-150.376 808.02,-108.55 796.493,-84.6267"/>
<polygon fill="midnightblue" stroke="midnightblue" points="799.633,-83.081 792.14,-75.5914 793.327,-86.1195 799.633,-83.081"/>
</g>
<!-- Node23&#45;&gt;Node5 -->
<g id="edge40" class="edge"><title>Node23&#45;&gt;Node5</title>
<path fill="none" stroke="midnightblue" d="M1070.52,-280.365C1061.79,-251.543 1029.61,-157.886 968,-112 936.611,-88.6207 894.469,-77.2971 858.852,-71.852"/>
<polygon fill="midnightblue" stroke="midnightblue" points="858.901,-68.3248 848.512,-70.4054 857.931,-75.2573 858.901,-68.3248"/>
</g>
<!-- Node24&#45;&gt;Node5 -->
<g id="edge42" class="edge"><title>Node24&#45;&gt;Node5</title>
<path fill="none" stroke="midnightblue" d="M1151.74,-280.277C1133.71,-251.175 1071.17,-156.737 993,-112 952.097,-88.592 900.199,-77.3502 858.855,-71.9563"/>
<polygon fill="midnightblue" stroke="midnightblue" points="859.206,-68.4732 848.856,-70.7378 858.359,-75.4218 859.206,-68.4732"/>
</g>
<!-- Node25&#45;&gt;Node3 -->
<g id="edge46" class="edge"><title>Node25&#45;&gt;Node3</title>
<path fill="none" stroke="midnightblue" d="M95.2557,-224.362C74.6544,-202.985 26.9912,-146.829 57,-112 90.9535,-72.5931 250.73,-67.1838 322.701,-66.7867"/>
<polygon fill="midnightblue" stroke="midnightblue" points="323.071,-70.2859 333.062,-66.7613 323.054,-63.2859 323.071,-70.2859"/>
</g>
<!-- Node25&#45;&gt;Node5 -->
<g id="edge44" class="edge"><title>Node25&#45;&gt;Node5</title>
<path fill="none" stroke="midnightblue" d="M115.97,-224.309C136.025,-210.189 178.147,-182.403 218,-168 241.941,-159.348 585.115,-101.111 727.144,-77.2084"/>
<polygon fill="midnightblue" stroke="midnightblue" points="727.735,-80.6583 737.016,-75.5479 726.573,-73.7553 727.735,-80.6583"/>
</g>
<!-- Node25&#45;&gt;Node8 -->
<g id="edge45" class="edge"><title>Node25&#45;&gt;Node8</title>
<path fill="none" stroke="midnightblue" d="M104.942,-224.368C106.878,-206.617 111.345,-165.666 113.971,-141.597"/>
<polygon fill="midnightblue" stroke="midnightblue" points="117.458,-141.912 115.063,-131.591 110.499,-141.153 117.458,-141.912"/>
</g>
<!-- Node25&#45;&gt;Node16 -->
<g id="edge47" class="edge"><title>Node25&#45;&gt;Node16</title>
<path fill="none" stroke="midnightblue" d="M130.303,-224.444C158.351,-215.32 202.944,-200.813 234.184,-190.651"/>
<polygon fill="midnightblue" stroke="midnightblue" points="235.393,-193.938 243.82,-187.516 233.228,-187.282 235.393,-193.938"/>
</g>
<!-- Node26&#45;&gt;Node5 -->
<g id="edge49" class="edge"><title>Node26&#45;&gt;Node5</title>
<path fill="none" stroke="midnightblue" d="M1287.06,-224.464C1284.08,-201.79 1272.59,-139.892 1234,-112 1204.31,-90.5452 977.086,-76.3095 858.916,-70.2781"/>
<polygon fill="midnightblue" stroke="midnightblue" points="859.033,-66.7796 848.87,-69.7717 858.681,-73.7707 859.033,-66.7796"/>
</g>
<!-- Node27&#45;&gt;Node5 -->
<g id="edge52" class="edge"><title>Node27&#45;&gt;Node5</title>
<path fill="none" stroke="midnightblue" d="M428.894,-224.332C432.441,-210.246 441.46,-182.505 460,-168 516.041,-124.154 548.1,-153.276 616,-132 638.839,-124.844 643.659,-120.587 666,-112 695.819,-100.539 729.948,-87.9995 754.511,-79.0751"/>
<polygon fill="midnightblue" stroke="midnightblue" points="755.875,-82.3036 764.083,-75.6045 753.489,-75.7228 755.875,-82.3036"/>
</g>
<!-- Node27&#45;&gt;Node12 -->
<g id="edge51" class="edge"><title>Node27&#45;&gt;Node12</title>
<path fill="none" stroke="midnightblue" d="M437.925,-224.324C448.175,-216.185 463.721,-203.839 476.001,-194.087"/>
<polygon fill="midnightblue" stroke="midnightblue" points="478.221,-196.794 483.876,-187.834 473.868,-191.312 478.221,-196.794"/>
</g>
<!-- Node27&#45;&gt;Node16 -->
<g id="edge53" class="edge"><title>Node27&#45;&gt;Node16</title>
<path fill="none" stroke="midnightblue" d="M406.796,-226.051C380.939,-217.158 335.751,-201.615 304.421,-190.839"/>
<polygon fill="midnightblue" stroke="midnightblue" points="305.373,-187.465 294.778,-187.522 303.096,-194.085 305.373,-187.465"/>
</g>
<!-- Node28&#45;&gt;Node5 -->
<g id="edge58" class="edge"><title>Node28&#45;&gt;Node5</title>
<path fill="none" stroke="midnightblue" d="M995.972,-336.391C981.774,-328.726 962.517,-316.22 951,-300 933.574,-275.46 932,-265.098 932,-235 932,-235 932,-235 932,-177 932,-124.757 871.405,-94.0051 828.83,-78.846"/>
<polygon fill="midnightblue" stroke="midnightblue" points="829.84,-75.4928 819.246,-75.5847 827.585,-82.1197 829.84,-75.4928"/>
</g>
<!-- Node28&#45;&gt;Node10 -->
<g id="edge59" class="edge"><title>Node28&#45;&gt;Node10</title>
<path fill="none" stroke="midnightblue" d="M991.731,-338.244C988.486,-337.404 985.171,-336.623 982,-336 859.57,-311.953 713.029,-299.401 637.87,-294.12"/>
<polygon fill="midnightblue" stroke="midnightblue" points="637.965,-290.618 627.748,-293.423 637.484,-297.602 637.965,-290.618"/>
</g>
<!-- Node28&#45;&gt;Node19 -->
<g id="edge60" class="edge"><title>Node28&#45;&gt;Node19</title>
<path fill="none" stroke="midnightblue" d="M991.683,-338.379C961.576,-329.446 907.49,-313.398 870.688,-302.479"/>
<polygon fill="midnightblue" stroke="midnightblue" points="871.383,-299.034 860.801,-299.545 869.392,-305.745 871.383,-299.034"/>
</g>
<!-- Node28&#45;&gt;Node20 -->
<g id="edge61" class="edge"><title>Node28&#45;&gt;Node20</title>
<path fill="none" stroke="midnightblue" d="M1010.37,-336.083C1007.39,-328.77 1003.07,-318.181 999.375,-309.103"/>
<polygon fill="midnightblue" stroke="midnightblue" points="1002.58,-307.691 995.565,-299.751 996.097,-310.333 1002.58,-307.691"/>
</g>
<!-- Node28&#45;&gt;Node21 -->
<g id="edge62" class="edge"><title>Node28&#45;&gt;Node21</title>
<path fill="none" stroke="midnightblue" d="M991.687,-338.449C988.449,-337.578 985.147,-336.735 982,-336 897.026,-316.168 863.831,-344.879 789,-300 770.09,-288.659 755.25,-267.747 746.345,-252.701"/>
<polygon fill="midnightblue" stroke="midnightblue" points="749.31,-250.833 741.367,-243.821 743.203,-254.255 749.31,-250.833"/>
</g>
<!-- Node28&#45;&gt;Node22 -->
<g id="edge63" class="edge"><title>Node28&#45;&gt;Node22</title>
<path fill="none" stroke="midnightblue" d="M991.771,-338.577C970.893,-331.683 939.703,-319.082 918,-300 884.471,-270.522 860.137,-222.981 848.565,-197.139"/>
<polygon fill="midnightblue" stroke="midnightblue" points="851.705,-195.582 844.518,-187.798 845.282,-198.365 851.705,-195.582"/>
</g>
<!-- Node28&#45;&gt;Node23 -->
<g id="edge64" class="edge"><title>Node28&#45;&gt;Node23</title>
<path fill="none" stroke="midnightblue" d="M1023.48,-336.324C1032.2,-328.341 1045.34,-316.313 1055.9,-306.653"/>
<polygon fill="midnightblue" stroke="midnightblue" points="1058.33,-309.167 1063.35,-299.834 1053.61,-304.004 1058.33,-309.167"/>
</g>
<!-- Node28&#45;&gt;Node24 -->
<g id="edge65" class="edge"><title>Node28&#45;&gt;Node24</title>
<path fill="none" stroke="midnightblue" d="M1036.03,-336.681C1059.75,-327.722 1097.73,-313.382 1124.8,-303.159"/>
<polygon fill="midnightblue" stroke="midnightblue" points="1126.12,-306.404 1134.24,-299.597 1123.64,-299.855 1126.12,-306.404"/>
</g>
<!-- Node30&#45;&gt;Node29 -->
<g id="edge68" class="edge"><title>Node30&#45;&gt;Node29</title>
<path fill="none" stroke="midnightblue" d="M1336.88,-392.083C1332.59,-384.613 1326.34,-373.724 1321.06,-364.52"/>
<polygon fill="midnightblue" stroke="midnightblue" points="1324.04,-362.681 1316.02,-355.751 1317.97,-366.166 1324.04,-362.681"/>
</g>
<!-- Node31 -->
<g id="node31" class="node"><title>Node31</title>
<g id="a_node31"><a xlink:href="$flash__stm32_8h.html" xlink:title="flash_stm32.h">
<polygon fill="white" stroke="black" points="1354,-336.5 1354,-355.5 1432,-355.5 1432,-336.5 1354,-336.5"/>
<text text-anchor="middle" x="1393" y="-343.5" font-family="Helvetica,sans-Serif" font-size="10.00">flash_stm32.h</text>
</a>
</g>
</g>
<!-- Node30&#45;&gt;Node31 -->
<g id="edge69" class="edge"><title>Node30&#45;&gt;Node31</title>
<path fill="none" stroke="midnightblue" d="M1350.42,-392.083C1357.85,-384.22 1368.85,-372.569 1377.81,-363.081"/>
<polygon fill="midnightblue" stroke="midnightblue" points="1380.41,-365.424 1384.74,-355.751 1375.32,-360.618 1380.41,-365.424"/>
</g>
</g>
</svg>
