<?xml version="1.0" encoding="UTF-8" standalone="no"?>
<!DOCTYPE svg PUBLIC "-//W3C//DTD SVG 1.1//EN"
 "http://www.w3.org/Graphics/SVG/1.1/DTD/svg11.dtd">
<!-- Generated by graphviz version 2.36.0 (20140111.2315)
 -->
<!-- Title: test_quaternion Pages: 1 -->
<svg width="522pt" height="334pt"
 viewBox="0.00 0.00 522.00 334.00" xmlns="http://www.w3.org/2000/svg" xmlns:xlink="http://www.w3.org/1999/xlink">
<g id="graph0" class="graph" transform="scale(1 1) rotate(0) translate(4 330)">
<title>test_quaternion</title>
<polygon fill="white" stroke="none" points="-4,4 -4,-330 518,-330 518,4 -4,4"/>
<!-- Node1 -->
<g id="node1" class="node"><title>Node1</title>
<polygon fill="#bfbfbf" stroke="black" points="0.5,-136.5 0.5,-155.5 83.5,-155.5 83.5,-136.5 0.5,-136.5"/>
<text text-anchor="middle" x="42" y="-143.5" font-family="Helvetica,sans-Serif" font-size="10.00">test_quaternion</text>
</g>
<!-- Node2 -->
<g id="node2" class="node"><title>Node2</title>
<g id="a_node2"><a xlink:href="$classQuaternion.html#aff2d2d3d1c5937523df8357deae4eeab" xlink:title="Quaternion::from_euler">
<polygon fill="white" stroke="black" points="126,-256.5 126,-275.5 242,-275.5 242,-256.5 126,-256.5"/>
<text text-anchor="middle" x="184" y="-263.5" font-family="Helvetica,sans-Serif" font-size="10.00">Quaternion::from_euler</text>
</a>
</g>
</g>
<!-- Node1&#45;&gt;Node2 -->
<g id="edge1" class="edge"><title>Node1&#45;&gt;Node2</title>
<path fill="none" stroke="midnightblue" d="M47.6961,-155.678C57.9476,-175.783 84.3017,-222.253 120,-247 122.856,-248.98 125.923,-250.758 129.111,-252.353"/>
<polygon fill="midnightblue" stroke="midnightblue" points="127.772,-255.588 138.337,-256.384 130.575,-249.174 127.772,-255.588"/>
</g>
<!-- Node3 -->
<g id="node3" class="node"><title>Node3</title>
<g id="a_node3"><a xlink:href="$classQuaternion.html#ab3049efa36b211699ca03ea53970f0fd" xlink:title="Quaternion::to_euler">
<polygon fill="white" stroke="black" points="132,-218.5 132,-237.5 236,-237.5 236,-218.5 132,-218.5"/>
<text text-anchor="middle" x="184" y="-225.5" font-family="Helvetica,sans-Serif" font-size="10.00">Quaternion::to_euler</text>
</a>
</g>
</g>
<!-- Node1&#45;&gt;Node3 -->
<g id="edge2" class="edge"><title>Node1&#45;&gt;Node3</title>
<path fill="none" stroke="midnightblue" d="M54.1035,-155.68C68.5292,-167.901 94.8528,-189.016 120,-203 127.846,-207.363 136.61,-211.346 145.049,-214.787"/>
<polygon fill="midnightblue" stroke="midnightblue" points="143.784,-218.051 154.372,-218.435 146.334,-211.532 143.784,-218.051"/>
</g>
<!-- Node8 -->
<g id="node8" class="node"><title>Node8</title>
<g id="a_node8"><a xlink:href="$eulers_8pde.html#a6bfa6320a080694c8cdf18de74004189" xlink:title="check_result">
<polygon fill="white" stroke="black" points="148,-174.5 148,-193.5 220,-193.5 220,-174.5 148,-174.5"/>
<text text-anchor="middle" x="184" y="-181.5" font-family="Helvetica,sans-Serif" font-size="10.00">check_result</text>
</a>
</g>
</g>
<!-- Node1&#45;&gt;Node8 -->
<g id="edge7" class="edge"><title>Node1&#45;&gt;Node8</title>
<path fill="none" stroke="midnightblue" d="M78.3279,-155.589C96.4006,-160.494 118.598,-166.52 137.895,-171.757"/>
<polygon fill="midnightblue" stroke="midnightblue" points="137.116,-175.172 147.683,-174.414 138.949,-168.417 137.116,-175.172"/>
</g>
<!-- Node11 -->
<g id="node11" class="node"><title>Node11</title>
<g id="a_node11"><a xlink:href="$classMatrix3.html#a62587bd216436f09f06b9e1330f84bc0" xlink:title="&#45;*&#45; tab&#45;width: 4; Mode: C++; c&#45;basic&#45;offset: 4; indent&#45;tabs&#45;mode: nil &#45;*&#45; ">
<polygon fill="white" stroke="black" points="133.5,-136.5 133.5,-155.5 234.5,-155.5 234.5,-136.5 133.5,-136.5"/>
<text text-anchor="middle" x="184" y="-143.5" font-family="Helvetica,sans-Serif" font-size="10.00">Matrix3::from_euler</text>
</a>
</g>
</g>
<!-- Node1&#45;&gt;Node11 -->
<g id="edge10" class="edge"><title>Node1&#45;&gt;Node11</title>
<path fill="none" stroke="midnightblue" d="M83.8701,-146C96.2186,-146 110.039,-146 123.349,-146"/>
<polygon fill="midnightblue" stroke="midnightblue" points="123.395,-149.5 133.395,-146 123.395,-142.5 123.395,-149.5"/>
</g>
<!-- Node12 -->
<g id="node12" class="node"><title>Node12</title>
<g id="a_node12"><a xlink:href="$classMatrix3.html#a893c6a712d52e47dbb7ed2d7a548046e" xlink:title="Matrix3::to_euler">
<polygon fill="white" stroke="black" points="306.5,-92.5 306.5,-111.5 395.5,-111.5 395.5,-92.5 306.5,-92.5"/>
<text text-anchor="middle" x="351" y="-99.5" font-family="Helvetica,sans-Serif" font-size="10.00">Matrix3::to_euler</text>
</a>
</g>
</g>
<!-- Node1&#45;&gt;Node12 -->
<g id="edge11" class="edge"><title>Node1&#45;&gt;Node12</title>
<path fill="none" stroke="midnightblue" d="M77.288,-136.498C90.5473,-133.098 105.899,-129.495 120,-127 179.752,-116.429 249.08,-109.628 295.873,-105.829"/>
<polygon fill="midnightblue" stroke="midnightblue" points="296.397,-109.299 306.089,-105.018 295.843,-102.321 296.397,-109.299"/>
</g>
<!-- Node13 -->
<g id="node13" class="node"><title>Node13</title>
<g id="a_node13"><a xlink:href="$classQuaternion.html#a5ee01ee833114be6181887d0dcfb33b1" xlink:title="Quaternion::from_rotation\l_matrix">
<polygon fill="white" stroke="black" points="120.5,-49 120.5,-79 247.5,-79 247.5,-49 120.5,-49"/>
<text text-anchor="start" x="128.5" y="-67" font-family="Helvetica,sans-Serif" font-size="10.00">Quaternion::from_rotation</text>
<text text-anchor="middle" x="184" y="-56" font-family="Helvetica,sans-Serif" font-size="10.00">_matrix</text>
</a>
</g>
</g>
<!-- Node1&#45;&gt;Node13 -->
<g id="edge13" class="edge"><title>Node1&#45;&gt;Node13</title>
<path fill="none" stroke="midnightblue" d="M55.9682,-136.362C70.9701,-125.423 96.6114,-107.366 120,-94 126.291,-90.4047 133.081,-86.8518 139.794,-83.5177"/>
<polygon fill="midnightblue" stroke="midnightblue" points="141.379,-86.6392 148.846,-79.1234 138.322,-80.342 141.379,-86.6392"/>
</g>
<!-- Node14 -->
<g id="node14" class="node"><title>Node14</title>
<g id="a_node14"><a xlink:href="$classQuaternion.html#afb7132c9c69a984a40be950a17effeaa" xlink:title="&#45;*&#45; tab&#45;width: 4; Mode: C++; c&#45;basic&#45;offset: 4; indent&#45;tabs&#45;mode: nil &#45;*&#45; ">
<polygon fill="white" stroke="black" points="133,-0 133,-30 235,-30 235,-0 133,-0"/>
<text text-anchor="start" x="141" y="-18" font-family="Helvetica,sans-Serif" font-size="10.00">Quaternion::rotation</text>
<text text-anchor="middle" x="184" y="-7" font-family="Helvetica,sans-Serif" font-size="10.00">_matrix</text>
</a>
</g>
</g>
<!-- Node1&#45;&gt;Node14 -->
<g id="edge14" class="edge"><title>Node1&#45;&gt;Node14</title>
<path fill="none" stroke="midnightblue" d="M47.5345,-136.265C57.6605,-115.524 84.0768,-66.622 120,-39 121.809,-37.6088 123.709,-36.2903 125.673,-35.0414"/>
<polygon fill="midnightblue" stroke="midnightblue" points="127.633,-37.955 134.634,-30.003 124.202,-31.8533 127.633,-37.955"/>
</g>
<!-- Node4 -->
<g id="node4" class="node"><title>Node4</title>
<g id="a_node4"><a xlink:href="$classQuaternion.html#a9ae6c42349ddc744022a4a1cf7868eb0" xlink:title="Quaternion::get_euler_roll">
<polygon fill="white" stroke="black" points="287,-306.5 287,-325.5 415,-325.5 415,-306.5 287,-306.5"/>
<text text-anchor="middle" x="351" y="-313.5" font-family="Helvetica,sans-Serif" font-size="10.00">Quaternion::get_euler_roll</text>
</a>
</g>
</g>
<!-- Node3&#45;&gt;Node4 -->
<g id="edge3" class="edge"><title>Node3&#45;&gt;Node4</title>
<path fill="none" stroke="midnightblue" d="M229.724,-237.529C236.181,-240.005 242.495,-243.111 248,-247 270.072,-262.592 261.939,-280.393 284,-296 287.464,-298.45 291.233,-300.606 295.158,-302.5"/>
<polygon fill="midnightblue" stroke="midnightblue" points="293.951,-305.79 304.524,-306.466 296.679,-299.344 293.951,-305.79"/>
</g>
<!-- Node5 -->
<g id="node5" class="node"><title>Node5</title>
<g id="a_node5"><a xlink:href="$classQuaternion.html#a0bfe50c332309932cd833b83f6524e5f" xlink:title="Quaternion::get_euler\l_pitch">
<polygon fill="white" stroke="black" points="296,-257 296,-287 406,-287 406,-257 296,-257"/>
<text text-anchor="start" x="304" y="-275" font-family="Helvetica,sans-Serif" font-size="10.00">Quaternion::get_euler</text>
<text text-anchor="middle" x="351" y="-264" font-family="Helvetica,sans-Serif" font-size="10.00">_pitch</text>
</a>
</g>
</g>
<!-- Node3&#45;&gt;Node5 -->
<g id="edge4" class="edge"><title>Node3&#45;&gt;Node5</title>
<path fill="none" stroke="midnightblue" d="M220.803,-237.547C239.875,-242.633 263.911,-249.043 286.064,-254.951"/>
<polygon fill="midnightblue" stroke="midnightblue" points="285.189,-258.339 295.753,-257.534 286.993,-251.576 285.189,-258.339"/>
</g>
<!-- Node7 -->
<g id="node7" class="node"><title>Node7</title>
<g id="a_node7"><a xlink:href="$classQuaternion.html#a35c2a1030832728574363ed8655da625" xlink:title="Quaternion::get_euler_yaw">
<polygon fill="white" stroke="black" points="284.5,-218.5 284.5,-237.5 417.5,-237.5 417.5,-218.5 284.5,-218.5"/>
<text text-anchor="middle" x="351" y="-225.5" font-family="Helvetica,sans-Serif" font-size="10.00">Quaternion::get_euler_yaw</text>
</a>
</g>
</g>
<!-- Node3&#45;&gt;Node7 -->
<g id="edge6" class="edge"><title>Node3&#45;&gt;Node7</title>
<path fill="none" stroke="midnightblue" d="M236.303,-228C248.321,-228 261.375,-228 274.211,-228"/>
<polygon fill="midnightblue" stroke="midnightblue" points="274.434,-231.5 284.434,-228 274.434,-224.5 274.434,-231.5"/>
</g>
<!-- Node6 -->
<g id="node6" class="node"><title>Node6</title>
<g id="a_node6"><a xlink:href="$AP__Math_8cpp.html#a2706fd969ad73bc8ef977d964c04f4a3" xlink:title="safe_asin">
<polygon fill="white" stroke="black" points="454.5,-177.5 454.5,-196.5 513.5,-196.5 513.5,-177.5 454.5,-177.5"/>
<text text-anchor="middle" x="484" y="-184.5" font-family="Helvetica,sans-Serif" font-size="10.00">safe_asin</text>
</a>
</g>
</g>
<!-- Node5&#45;&gt;Node6 -->
<g id="edge5" class="edge"><title>Node5&#45;&gt;Node6</title>
<path fill="none" stroke="midnightblue" d="M398.524,-256.975C405.262,-254.064 411.955,-250.737 418,-247 437.038,-235.229 455.468,-217.413 467.81,-204.25"/>
<polygon fill="midnightblue" stroke="midnightblue" points="470.499,-206.496 474.66,-196.752 465.331,-201.775 470.499,-206.496"/>
</g>
<!-- Node9 -->
<g id="node9" class="node"><title>Node9</title>
<g id="a_node9"><a xlink:href="$classAP__HAL_1_1UARTDriver.html#a4b1ae6fcec3dfe651d08faf589f4ad6d" xlink:title="AP_HAL::UARTDriver\l::printf">
<polygon fill="white" stroke="black" points="293.5,-169 293.5,-199 408.5,-199 408.5,-169 293.5,-169"/>
<text text-anchor="start" x="301.5" y="-187" font-family="Helvetica,sans-Serif" font-size="10.00">AP_HAL::UARTDriver</text>
<text text-anchor="middle" x="351" y="-176" font-family="Helvetica,sans-Serif" font-size="10.00">::printf</text>
</a>
</g>
</g>
<!-- Node8&#45;&gt;Node9 -->
<g id="edge8" class="edge"><title>Node8&#45;&gt;Node9</title>
<path fill="none" stroke="midnightblue" d="M220.397,-184C238.708,-184 261.675,-184 283.168,-184"/>
<polygon fill="midnightblue" stroke="midnightblue" points="283.245,-187.5 293.245,-184 283.245,-180.5 283.245,-187.5"/>
</g>
<!-- Node10 -->
<g id="node10" class="node"><title>Node10</title>
<g id="a_node10"><a xlink:href="$eulers_8pde.html#aa94c06a1eb86dc7dd817303e608203b6" xlink:title="rad_diff">
<polygon fill="white" stroke="black" points="326.5,-130.5 326.5,-149.5 375.5,-149.5 375.5,-130.5 326.5,-130.5"/>
<text text-anchor="middle" x="351" y="-137.5" font-family="Helvetica,sans-Serif" font-size="10.00">rad_diff</text>
</a>
</g>
</g>
<!-- Node8&#45;&gt;Node10 -->
<g id="edge9" class="edge"><title>Node8&#45;&gt;Node10</title>
<path fill="none" stroke="midnightblue" d="M220.397,-174.561C248.902,-166.959 288.69,-156.349 316.639,-148.896"/>
<polygon fill="midnightblue" stroke="midnightblue" points="317.598,-152.263 326.358,-146.304 315.794,-145.499 317.598,-152.263"/>
</g>
<!-- Node12&#45;&gt;Node6 -->
<g id="edge12" class="edge"><title>Node12&#45;&gt;Node6</title>
<path fill="none" stroke="midnightblue" d="M395.577,-111.098C403.341,-113.668 411.134,-116.916 418,-121 439.028,-133.51 458.02,-154.461 469.968,-169.402"/>
<polygon fill="midnightblue" stroke="midnightblue" points="467.265,-171.627 476.152,-177.395 472.801,-167.344 467.265,-171.627"/>
</g>
</g>
</svg>
