<?xml version="1.0" encoding="UTF-8" standalone="no"?>
<!DOCTYPE svg PUBLIC "-//W3C//DTD SVG 1.1//EN"
 "http://www.w3.org/Graphics/SVG/1.1/DTD/svg11.dtd">
<!-- Generated by graphviz version 2.36.0 (20140111.2315)
 -->
<!-- Title: setup Pages: 1 -->
<svg width="848pt" height="648pt"
 viewBox="0.00 0.00 848.00 647.91" xmlns="http://www.w3.org/2000/svg" xmlns:xlink="http://www.w3.org/1999/xlink">
<g id="graph0" class="graph" transform="scale(1 1) rotate(0) translate(4 643.905)">
<title>setup</title>
<polygon fill="white" stroke="none" points="-4,4 -4,-643.905 844,-643.905 844,4 -4,4"/>
<!-- Node1 -->
<g id="node1" class="node"><title>Node1</title>
<polygon fill="#bfbfbf" stroke="black" points="0.5,-405.5 0.5,-424.5 41.5,-424.5 41.5,-405.5 0.5,-405.5"/>
<text text-anchor="middle" x="21" y="-412.5" font-family="Helvetica,sans-Serif" font-size="10.00">setup</text>
</g>
<!-- Node2 -->
<g id="node2" class="node"><title>Node2</title>
<g id="a_node2"><a xlink:href="$classAP__HAL_1_1Print.html#ad337ce3f7977411b7d34d47a51e5737e" xlink:title="AP_HAL::Print::println">
<polygon fill="white" stroke="black" points="239.5,-519.5 239.5,-538.5 352.5,-538.5 352.5,-519.5 239.5,-519.5"/>
<text text-anchor="middle" x="296" y="-526.5" font-family="Helvetica,sans-Serif" font-size="10.00">AP_HAL::Print::println</text>
</a>
</g>
</g>
<!-- Node1&#45;&gt;Node2 -->
<g id="edge1" class="edge"><title>Node1&#45;&gt;Node2</title>
<path fill="none" stroke="midnightblue" d="M24.4692,-424.606C30.134,-444.468 46.0998,-489.878 78,-510 122.754,-538.23 183.41,-541.277 229.216,-538.236"/>
<polygon fill="midnightblue" stroke="midnightblue" points="229.642,-541.714 239.341,-537.45 229.1,-534.735 229.642,-541.714"/>
</g>
<!-- Node6 -->
<g id="node6" class="node"><title>Node6</title>
<g id="a_node6"><a xlink:href="$eulers_8pde.html#ada3aa00f3fc83688f3bb0c2c847b7e50" xlink:title="test_conversion">
<polygon fill="white" stroke="black" points="253,-367.5 253,-386.5 339,-386.5 339,-367.5 253,-367.5"/>
<text text-anchor="middle" x="296" y="-374.5" font-family="Helvetica,sans-Serif" font-size="10.00">test_conversion</text>
</a>
</g>
</g>
<!-- Node1&#45;&gt;Node6 -->
<g id="edge6" class="edge"><title>Node1&#45;&gt;Node6</title>
<path fill="none" stroke="midnightblue" d="M41.6333,-407.047C52.2319,-403.086 65.6423,-398.598 78,-396 133.504,-384.331 198.453,-379.813 242.729,-378.073"/>
<polygon fill="midnightblue" stroke="midnightblue" points="243.096,-381.562 252.964,-377.706 242.845,-374.567 243.096,-381.562"/>
</g>
<!-- Node20 -->
<g id="node20" class="node"><title>Node20</title>
<g id="a_node20"><a xlink:href="$eulers_8pde.html#a97831e3cea863b581f8e989164514a25" xlink:title="test_frame_transforms">
<polygon fill="white" stroke="black" points="78.5,-329.5 78.5,-348.5 193.5,-348.5 193.5,-329.5 78.5,-329.5"/>
<text text-anchor="middle" x="136" y="-336.5" font-family="Helvetica,sans-Serif" font-size="10.00">test_frame_transforms</text>
</a>
</g>
</g>
<!-- Node1&#45;&gt;Node20 -->
<g id="edge22" class="edge"><title>Node1&#45;&gt;Node20</title>
<path fill="none" stroke="midnightblue" d="M30.2988,-405.48C40.5755,-394.152 59.0535,-375.237 78,-363 83.9995,-359.125 90.7294,-355.644 97.4051,-352.613"/>
<polygon fill="midnightblue" stroke="midnightblue" points="99.2278,-355.641 107.056,-348.501 96.484,-349.201 99.2278,-355.641"/>
</g>
<!-- Node25 -->
<g id="node25" class="node"><title>Node25</title>
<g id="a_node25"><a xlink:href="$eulers_8pde.html#ac5851b63c32809e725e1fadbec137224" xlink:title="test_conversions">
<polygon fill="white" stroke="black" points="90.5,-405.5 90.5,-424.5 181.5,-424.5 181.5,-405.5 90.5,-405.5"/>
<text text-anchor="middle" x="136" y="-412.5" font-family="Helvetica,sans-Serif" font-size="10.00">test_conversions</text>
</a>
</g>
</g>
<!-- Node1&#45;&gt;Node25 -->
<g id="edge32" class="edge"><title>Node1&#45;&gt;Node25</title>
<path fill="none" stroke="midnightblue" d="M41.6831,-415C52.3655,-415 66.158,-415 79.8451,-415"/>
<polygon fill="midnightblue" stroke="midnightblue" points="80.238,-418.5 90.238,-415 80.2379,-411.5 80.238,-418.5"/>
</g>
<!-- Node26 -->
<g id="node26" class="node"><title>Node26</title>
<g id="a_node26"><a xlink:href="$eulers_8pde.html#a1e4ca41feae51e8f6dc923cde8d1ad39" xlink:title="test_quaternion_eulers">
<polygon fill="white" stroke="black" points="78.5,-443.5 78.5,-462.5 193.5,-462.5 193.5,-443.5 78.5,-443.5"/>
<text text-anchor="middle" x="136" y="-450.5" font-family="Helvetica,sans-Serif" font-size="10.00">test_quaternion_eulers</text>
</a>
</g>
</g>
<!-- Node1&#45;&gt;Node26 -->
<g id="edge35" class="edge"><title>Node1&#45;&gt;Node26</title>
<path fill="none" stroke="midnightblue" d="M41.6878,-421.708C52.4178,-425.357 65.9336,-429.942 78,-434 84.0341,-436.029 90.4308,-438.171 96.6742,-440.256"/>
<polygon fill="midnightblue" stroke="midnightblue" points="95.6913,-443.618 106.285,-443.462 97.9062,-436.977 95.6913,-443.618"/>
</g>
<!-- Node29 -->
<g id="node29" class="node"><title>Node29</title>
<g id="a_node29"><a xlink:href="$eulers_8pde.html#aceb2646dd2a8910fd27813e20e13c6a4" xlink:title="test_matrix_eulers">
<polygon fill="white" stroke="black" points="87.5,-481.5 87.5,-500.5 184.5,-500.5 184.5,-481.5 87.5,-481.5"/>
<text text-anchor="middle" x="136" y="-488.5" font-family="Helvetica,sans-Serif" font-size="10.00">test_matrix_eulers</text>
</a>
</g>
</g>
<!-- Node1&#45;&gt;Node29 -->
<g id="edge45" class="edge"><title>Node1&#45;&gt;Node29</title>
<path fill="none" stroke="midnightblue" d="M29.2532,-424.864C39.0114,-437.48 57.5231,-459.219 78,-472 81.3391,-474.084 84.9322,-475.967 88.632,-477.662"/>
<polygon fill="midnightblue" stroke="midnightblue" points="87.3844,-480.933 97.9642,-481.497 90.0455,-474.459 87.3844,-480.933"/>
</g>
<!-- Node31 -->
<g id="node31" class="node"><title>Node31</title>
<g id="a_node31"><a xlink:href="$eulers_8pde.html#a399d6b75c71672b952b356e8ad32ff9f" xlink:title="test_matrix_rotate">
<polygon fill="white" stroke="black" points="88.5,-76.5 88.5,-95.5 183.5,-95.5 183.5,-76.5 88.5,-76.5"/>
<text text-anchor="middle" x="136" y="-83.5" font-family="Helvetica,sans-Serif" font-size="10.00">test_matrix_rotate</text>
</a>
</g>
</g>
<!-- Node1&#45;&gt;Node31 -->
<g id="edge51" class="edge"><title>Node1&#45;&gt;Node31</title>
<path fill="none" stroke="midnightblue" d="M25.3819,-405.154C41.0748,-359.464 106.936,-167.708 128.287,-105.544"/>
<polygon fill="midnightblue" stroke="midnightblue" points="131.693,-106.403 131.631,-95.8079 125.073,-104.129 131.693,-106.403"/>
</g>
<!-- Node3 -->
<g id="node3" class="node"><title>Node3</title>
<g id="a_node3"><a xlink:href="$classAP__HAL_1_1Print.html#acfe80773011eb17dfb52c2fba517a093" xlink:title="AP_HAL::Print::print">
<polygon fill="white" stroke="black" points="576,-613.5 576,-632.5 682,-632.5 682,-613.5 576,-613.5"/>
<text text-anchor="middle" x="629" y="-620.5" font-family="Helvetica,sans-Serif" font-size="10.00">AP_HAL::Print::print</text>
</a>
</g>
</g>
<!-- Node2&#45;&gt;Node3 -->
<g id="edge2" class="edge"><title>Node2&#45;&gt;Node3</title>
<path fill="none" stroke="midnightblue" d="M303.407,-538.615C317.582,-558.902 353.863,-605.639 398,-623 454.256,-645.128 524.412,-641.084 572.353,-634.085"/>
<polygon fill="midnightblue" stroke="midnightblue" points="573.188,-637.497 582.533,-632.505 572.115,-630.58 573.188,-637.497"/>
</g>
<!-- Node5 -->
<g id="node5" class="node"><title>Node5</title>
<g id="a_node5"><a xlink:href="$classAP__HAL_1_1Print.html#a169b128f9e22f0c15883768f580541a2" xlink:title="AP_HAL::Print::println">
<polygon fill="white" stroke="black" points="405.5,-594.5 405.5,-613.5 518.5,-613.5 518.5,-594.5 405.5,-594.5"/>
<text text-anchor="middle" x="462" y="-601.5" font-family="Helvetica,sans-Serif" font-size="10.00">AP_HAL::Print::println</text>
</a>
</g>
</g>
<!-- Node2&#45;&gt;Node5 -->
<g id="edge4" class="edge"><title>Node2&#45;&gt;Node5</title>
<path fill="none" stroke="midnightblue" d="M312.283,-538.528C331.676,-550.333 366.41,-570.531 398,-584 404.17,-586.631 410.807,-589.103 417.376,-591.352"/>
<polygon fill="midnightblue" stroke="midnightblue" points="416.297,-594.681 426.89,-594.479 418.483,-588.031 416.297,-594.681"/>
</g>
<!-- Node4 -->
<g id="node4" class="node"><title>Node4</title>
<g id="a_node4"><a xlink:href="$classAP__HAL_1_1Print.html#acc65391952a43334f8f5c9bef341f501" xlink:title="AP_HAL::Print::write">
<polygon fill="white" stroke="black" points="732,-613.5 732,-632.5 840,-632.5 840,-613.5 732,-613.5"/>
<text text-anchor="middle" x="786" y="-620.5" font-family="Helvetica,sans-Serif" font-size="10.00">AP_HAL::Print::write</text>
</a>
</g>
</g>
<!-- Node3&#45;&gt;Node4 -->
<g id="edge3" class="edge"><title>Node3&#45;&gt;Node4</title>
<path fill="none" stroke="midnightblue" d="M682.044,-623C694.674,-623 708.319,-623 721.415,-623"/>
<polygon fill="midnightblue" stroke="midnightblue" points="721.771,-626.5 731.771,-623 721.771,-619.5 721.771,-626.5"/>
</g>
<!-- Node5&#45;&gt;Node3 -->
<g id="edge5" class="edge"><title>Node5&#45;&gt;Node3</title>
<path fill="none" stroke="midnightblue" d="M518.861,-610.433C533.97,-612.172 550.414,-614.066 565.844,-615.843"/>
<polygon fill="midnightblue" stroke="midnightblue" points="565.479,-619.324 575.814,-616.991 566.28,-612.37 565.479,-619.324"/>
</g>
<!-- Node7 -->
<g id="node7" class="node"><title>Node7</title>
<g id="a_node7"><a xlink:href="$classQuaternion.html#aff2d2d3d1c5937523df8357deae4eeab" xlink:title="Quaternion::from_euler">
<polygon fill="white" stroke="black" points="404,-304.5 404,-323.5 520,-323.5 520,-304.5 404,-304.5"/>
<text text-anchor="middle" x="462" y="-311.5" font-family="Helvetica,sans-Serif" font-size="10.00">Quaternion::from_euler</text>
</a>
</g>
</g>
<!-- Node6&#45;&gt;Node7 -->
<g id="edge7" class="edge"><title>Node6&#45;&gt;Node7</title>
<path fill="none" stroke="midnightblue" d="M337.286,-367.426C345.643,-364.834 354.256,-361.7 362,-358 379.577,-349.603 380.459,-341.472 398,-333 402.639,-330.759 407.598,-328.719 412.621,-326.877"/>
<polygon fill="midnightblue" stroke="midnightblue" points="413.956,-330.12 422.292,-323.58 411.697,-323.494 413.956,-330.12"/>
</g>
<!-- Node8 -->
<g id="node8" class="node"><title>Node8</title>
<g id="a_node8"><a xlink:href="$classQuaternion.html#ab3049efa36b211699ca03ea53970f0fd" xlink:title="Quaternion::to_euler">
<polygon fill="white" stroke="black" points="410,-392.5 410,-411.5 514,-411.5 514,-392.5 410,-392.5"/>
<text text-anchor="middle" x="462" y="-399.5" font-family="Helvetica,sans-Serif" font-size="10.00">Quaternion::to_euler</text>
</a>
</g>
</g>
<!-- Node6&#45;&gt;Node8 -->
<g id="edge8" class="edge"><title>Node6&#45;&gt;Node8</title>
<path fill="none" stroke="midnightblue" d="M339.234,-383.438C357.664,-386.248 379.63,-389.596 399.799,-392.671"/>
<polygon fill="midnightblue" stroke="midnightblue" points="399.429,-396.154 409.842,-394.202 400.484,-389.234 399.429,-396.154"/>
</g>
<!-- Node13 -->
<g id="node13" class="node"><title>Node13</title>
<g id="a_node13"><a xlink:href="$eulers_8pde.html#a6bfa6320a080694c8cdf18de74004189" xlink:title="check_result">
<polygon fill="white" stroke="black" points="426,-468.5 426,-487.5 498,-487.5 498,-468.5 426,-468.5"/>
<text text-anchor="middle" x="462" y="-475.5" font-family="Helvetica,sans-Serif" font-size="10.00">check_result</text>
</a>
</g>
</g>
<!-- Node6&#45;&gt;Node13 -->
<g id="edge13" class="edge"><title>Node6&#45;&gt;Node13</title>
<path fill="none" stroke="midnightblue" d="M307.821,-386.693C329.628,-406.074 378.443,-448.633 398,-459 403.63,-461.985 409.798,-464.571 416.002,-466.79"/>
<polygon fill="midnightblue" stroke="midnightblue" points="415.115,-470.183 425.708,-469.981 417.301,-463.533 415.115,-470.183"/>
</g>
<!-- Node14 -->
<g id="node14" class="node"><title>Node14</title>
<g id="a_node14"><a xlink:href="$classAP__HAL_1_1UARTDriver.html#a4b1ae6fcec3dfe651d08faf589f4ad6d" xlink:title="AP_HAL::UARTDriver\l::printf">
<polygon fill="white" stroke="black" points="571.5,-207 571.5,-237 686.5,-237 686.5,-207 571.5,-207"/>
<text text-anchor="start" x="579.5" y="-225" font-family="Helvetica,sans-Serif" font-size="10.00">AP_HAL::UARTDriver</text>
<text text-anchor="middle" x="629" y="-214" font-family="Helvetica,sans-Serif" font-size="10.00">::printf</text>
</a>
</g>
</g>
<!-- Node6&#45;&gt;Node14 -->
<g id="edge21" class="edge"><title>Node6&#45;&gt;Node14</title>
<path fill="none" stroke="midnightblue" d="M339.252,-370.899C347.572,-368.077 355.672,-363.971 362,-358 396.66,-325.294 361.237,-287.324 398,-257 443.183,-219.731 510.976,-213.454 561.267,-215.016"/>
<polygon fill="midnightblue" stroke="midnightblue" points="561.261,-218.519 571.399,-215.443 561.556,-211.525 561.261,-218.519"/>
</g>
<!-- Node16 -->
<g id="node16" class="node"><title>Node16</title>
<g id="a_node16"><a xlink:href="$classQuaternion.html#afb7132c9c69a984a40be950a17effeaa" xlink:title="&#45;*&#45; tab&#45;width: 4; Mode: C++; c&#45;basic&#45;offset: 4; indent&#45;tabs&#45;mode: nil &#45;*&#45; ">
<polygon fill="white" stroke="black" points="411,-343 411,-373 513,-373 513,-343 411,-343"/>
<text text-anchor="start" x="419" y="-361" font-family="Helvetica,sans-Serif" font-size="10.00">Quaternion::rotation</text>
<text text-anchor="middle" x="462" y="-350" font-family="Helvetica,sans-Serif" font-size="10.00">_matrix</text>
</a>
</g>
</g>
<!-- Node6&#45;&gt;Node16 -->
<g id="edge16" class="edge"><title>Node6&#45;&gt;Node16</title>
<path fill="none" stroke="midnightblue" d="M339.234,-372.107C357.908,-369.944 380.211,-367.36 400.598,-364.998"/>
<polygon fill="midnightblue" stroke="midnightblue" points="401.209,-368.451 410.739,-363.823 400.403,-361.497 401.209,-368.451"/>
</g>
<!-- Node17 -->
<g id="node17" class="node"><title>Node17</title>
<g id="a_node17"><a xlink:href="$classMatrix3.html#a893c6a712d52e47dbb7ed2d7a548046e" xlink:title="Matrix3::to_euler">
<polygon fill="white" stroke="black" points="417.5,-506.5 417.5,-525.5 506.5,-525.5 506.5,-506.5 417.5,-506.5"/>
<text text-anchor="middle" x="462" y="-513.5" font-family="Helvetica,sans-Serif" font-size="10.00">Matrix3::to_euler</text>
</a>
</g>
</g>
<!-- Node6&#45;&gt;Node17 -->
<g id="edge17" class="edge"><title>Node6&#45;&gt;Node17</title>
<path fill="none" stroke="midnightblue" d="M310.374,-386.601C324.402,-397.126 346.522,-415.054 362,-434 382.403,-458.974 372.768,-476.916 398,-497 401.128,-499.49 404.579,-501.654 408.205,-503.536"/>
<polygon fill="midnightblue" stroke="midnightblue" points="406.936,-506.802 417.497,-507.653 409.772,-500.402 406.936,-506.802"/>
</g>
<!-- Node18 -->
<g id="node18" class="node"><title>Node18</title>
<g id="a_node18"><a xlink:href="$classMatrix3.html#a62587bd216436f09f06b9e1330f84bc0" xlink:title="&#45;*&#45; tab&#45;width: 4; Mode: C++; c&#45;basic&#45;offset: 4; indent&#45;tabs&#45;mode: nil &#45;*&#45; ">
<polygon fill="white" stroke="black" points="411.5,-430.5 411.5,-449.5 512.5,-449.5 512.5,-430.5 411.5,-430.5"/>
<text text-anchor="middle" x="462" y="-437.5" font-family="Helvetica,sans-Serif" font-size="10.00">Matrix3::from_euler</text>
</a>
</g>
</g>
<!-- Node6&#45;&gt;Node18 -->
<g id="edge19" class="edge"><title>Node6&#45;&gt;Node18</title>
<path fill="none" stroke="midnightblue" d="M325.861,-386.584C337.276,-390.651 350.412,-395.68 362,-401 378.634,-408.637 381.142,-413.872 398,-421 403.393,-423.28 409.151,-425.409 414.913,-427.355"/>
<polygon fill="midnightblue" stroke="midnightblue" points="413.957,-430.724 424.548,-430.453 416.1,-424.06 413.957,-430.724"/>
</g>
<!-- Node19 -->
<g id="node19" class="node"><title>Node19</title>
<g id="a_node19"><a xlink:href="$classMatrix3.html#a2c69227a793818d8a8f47e99ffa99885" xlink:title="Matrix3::is_nan">
<polygon fill="white" stroke="black" points="420.5,-266.5 420.5,-285.5 503.5,-285.5 503.5,-266.5 420.5,-266.5"/>
<text text-anchor="middle" x="462" y="-273.5" font-family="Helvetica,sans-Serif" font-size="10.00">Matrix3::is_nan</text>
</a>
</g>
</g>
<!-- Node6&#45;&gt;Node19 -->
<g id="edge20" class="edge"><title>Node6&#45;&gt;Node19</title>
<path fill="none" stroke="midnightblue" d="M339.168,-369.79C347.306,-367.04 355.355,-363.243 362,-358 387.317,-338.024 372.768,-315.084 398,-295 401.874,-291.916 406.242,-289.332 410.826,-287.167"/>
<polygon fill="midnightblue" stroke="midnightblue" points="412.485,-290.272 420.449,-283.284 409.866,-283.78 412.485,-290.272"/>
</g>
<!-- Node9 -->
<g id="node9" class="node"><title>Node9</title>
<g id="a_node9"><a xlink:href="$classQuaternion.html#a9ae6c42349ddc744022a4a1cf7868eb0" xlink:title="Quaternion::get_euler_roll">
<polygon fill="white" stroke="black" points="565,-342.5 565,-361.5 693,-361.5 693,-342.5 565,-342.5"/>
<text text-anchor="middle" x="629" y="-349.5" font-family="Helvetica,sans-Serif" font-size="10.00">Quaternion::get_euler_roll</text>
</a>
</g>
</g>
<!-- Node8&#45;&gt;Node9 -->
<g id="edge9" class="edge"><title>Node8&#45;&gt;Node9</title>
<path fill="none" stroke="midnightblue" d="M492.837,-392.459C512.457,-386.235 538.714,-377.996 562,-371 569.305,-368.805 577.08,-366.521 584.634,-364.329"/>
<polygon fill="midnightblue" stroke="midnightblue" points="585.743,-367.652 594.38,-361.516 583.802,-360.926 585.743,-367.652"/>
</g>
<!-- Node10 -->
<g id="node10" class="node"><title>Node10</title>
<g id="a_node10"><a xlink:href="$classQuaternion.html#a0bfe50c332309932cd833b83f6524e5f" xlink:title="Quaternion::get_euler\l_pitch">
<polygon fill="white" stroke="black" points="574,-419 574,-449 684,-449 684,-419 574,-419"/>
<text text-anchor="start" x="582" y="-437" font-family="Helvetica,sans-Serif" font-size="10.00">Quaternion::get_euler</text>
<text text-anchor="middle" x="629" y="-426" font-family="Helvetica,sans-Serif" font-size="10.00">_pitch</text>
</a>
</g>
</g>
<!-- Node8&#45;&gt;Node10 -->
<g id="edge10" class="edge"><title>Node8&#45;&gt;Node10</title>
<path fill="none" stroke="midnightblue" d="M512.059,-411.514C528.338,-414.672 546.708,-418.234 563.946,-421.577"/>
<polygon fill="midnightblue" stroke="midnightblue" points="563.456,-425.048 573.94,-423.516 564.789,-418.176 563.456,-425.048"/>
</g>
<!-- Node12 -->
<g id="node12" class="node"><title>Node12</title>
<g id="a_node12"><a xlink:href="$classQuaternion.html#a35c2a1030832728574363ed8655da625" xlink:title="Quaternion::get_euler_yaw">
<polygon fill="white" stroke="black" points="562.5,-380.5 562.5,-399.5 695.5,-399.5 695.5,-380.5 562.5,-380.5"/>
<text text-anchor="middle" x="629" y="-387.5" font-family="Helvetica,sans-Serif" font-size="10.00">Quaternion::get_euler_yaw</text>
</a>
</g>
</g>
<!-- Node8&#45;&gt;Node12 -->
<g id="edge12" class="edge"><title>Node8&#45;&gt;Node12</title>
<path fill="none" stroke="midnightblue" d="M514.303,-398.269C526.321,-397.395 539.375,-396.445 552.211,-395.512"/>
<polygon fill="midnightblue" stroke="midnightblue" points="552.714,-398.985 562.434,-394.768 552.206,-392.003 552.714,-398.985"/>
</g>
<!-- Node11 -->
<g id="node11" class="node"><title>Node11</title>
<g id="a_node11"><a xlink:href="$AP__Math_8cpp.html#a2706fd969ad73bc8ef977d964c04f4a3" xlink:title="safe_asin">
<polygon fill="white" stroke="black" points="756.5,-465.5 756.5,-484.5 815.5,-484.5 815.5,-465.5 756.5,-465.5"/>
<text text-anchor="middle" x="786" y="-472.5" font-family="Helvetica,sans-Serif" font-size="10.00">safe_asin</text>
</a>
</g>
</g>
<!-- Node10&#45;&gt;Node11 -->
<g id="edge11" class="edge"><title>Node10&#45;&gt;Node11</title>
<path fill="none" stroke="midnightblue" d="M684.211,-448.34C704.784,-453.781 727.769,-459.862 746.589,-464.84"/>
<polygon fill="midnightblue" stroke="midnightblue" points="745.731,-468.233 756.294,-467.407 747.521,-461.466 745.731,-468.233"/>
</g>
<!-- Node13&#45;&gt;Node14 -->
<g id="edge14" class="edge"><title>Node13&#45;&gt;Node14</title>
<path fill="none" stroke="midnightblue" d="M498.028,-473.904C508.189,-471.144 518.543,-466.567 526,-459 566.881,-417.518 538.925,-386.475 562,-333 575.74,-301.157 596.973,-267.268 611.627,-245.433"/>
<polygon fill="midnightblue" stroke="midnightblue" points="614.544,-247.368 617.273,-237.13 608.755,-243.432 614.544,-247.368"/>
</g>
<!-- Node15 -->
<g id="node15" class="node"><title>Node15</title>
<g id="a_node15"><a xlink:href="$eulers_8pde.html#aa94c06a1eb86dc7dd817303e608203b6" xlink:title="rad_diff">
<polygon fill="white" stroke="black" points="604.5,-468.5 604.5,-487.5 653.5,-487.5 653.5,-468.5 604.5,-468.5"/>
<text text-anchor="middle" x="629" y="-475.5" font-family="Helvetica,sans-Serif" font-size="10.00">rad_diff</text>
</a>
</g>
</g>
<!-- Node13&#45;&gt;Node15 -->
<g id="edge15" class="edge"><title>Node13&#45;&gt;Node15</title>
<path fill="none" stroke="midnightblue" d="M498.397,-478C526.777,-478 566.341,-478 594.271,-478"/>
<polygon fill="midnightblue" stroke="midnightblue" points="594.358,-481.5 604.358,-478 594.358,-474.5 594.358,-481.5"/>
</g>
<!-- Node17&#45;&gt;Node11 -->
<g id="edge18" class="edge"><title>Node17&#45;&gt;Node11</title>
<path fill="none" stroke="midnightblue" d="M506.626,-514.539C553.632,-512.478 630.51,-507.693 696,-497 712.752,-494.265 730.991,-489.991 746.571,-485.935"/>
<polygon fill="midnightblue" stroke="midnightblue" points="747.623,-489.277 756.384,-483.319 745.82,-482.513 747.623,-489.277"/>
</g>
<!-- Node20&#45;&gt;Node2 -->
<g id="edge23" class="edge"><title>Node20&#45;&gt;Node2</title>
<path fill="none" stroke="midnightblue" d="M149.653,-348.573C162.534,-358.942 182.234,-376.62 194,-396 221.574,-441.418 192.028,-472.835 230,-510 231.481,-511.449 233.066,-512.789 234.734,-514.028"/>
<polygon fill="midnightblue" stroke="midnightblue" points="233.294,-517.247 243.665,-519.415 236.909,-511.253 233.294,-517.247"/>
</g>
<!-- Node20&#45;&gt;Node7 -->
<g id="edge24" class="edge"><title>Node20&#45;&gt;Node7</title>
<path fill="none" stroke="midnightblue" d="M176.124,-329.417C192.645,-325.786 212.154,-322.039 230,-320 284.843,-313.735 347.463,-312.471 393.658,-312.642"/>
<polygon fill="midnightblue" stroke="midnightblue" points="393.826,-316.143 403.847,-312.704 393.869,-309.143 393.826,-316.143"/>
</g>
<!-- Node20&#45;&gt;Node14 -->
<g id="edge31" class="edge"><title>Node20&#45;&gt;Node14</title>
<path fill="none" stroke="midnightblue" d="M151.153,-329.364C189.05,-304.219 296.828,-236.977 398,-214 452.086,-201.717 515.143,-205.107 561.539,-210.784"/>
<polygon fill="midnightblue" stroke="midnightblue" points="561.107,-214.257 571.473,-212.065 562.003,-207.315 561.107,-214.257"/>
</g>
<!-- Node20&#45;&gt;Node18 -->
<g id="edge28" class="edge"><title>Node20&#45;&gt;Node18</title>
<path fill="none" stroke="midnightblue" d="M149.463,-348.698C166.615,-361.545 198.915,-383.978 230,-396 285.871,-417.609 353.585,-428.901 401.21,-434.605"/>
<polygon fill="midnightblue" stroke="midnightblue" points="401.022,-438.106 411.357,-435.772 401.822,-431.152 401.022,-438.106"/>
</g>
<!-- Node21 -->
<g id="node21" class="node"><title>Node21</title>
<g id="a_node21"><a xlink:href="$classQuaternion.html#a48e6bafb249c895ed25f29dc9170e11e" xlink:title="Quaternion::normalize">
<polygon fill="white" stroke="black" points="240,-152.5 240,-171.5 352,-171.5 352,-152.5 240,-152.5"/>
<text text-anchor="middle" x="296" y="-159.5" font-family="Helvetica,sans-Serif" font-size="10.00">Quaternion::normalize</text>
</a>
</g>
</g>
<!-- Node20&#45;&gt;Node21 -->
<g id="edge25" class="edge"><title>Node20&#45;&gt;Node21</title>
<path fill="none" stroke="midnightblue" d="M140.32,-329.217C149.893,-302.422 180.1,-227.114 230,-186 234.935,-181.934 240.623,-178.522 246.539,-175.667"/>
<polygon fill="midnightblue" stroke="midnightblue" points="248.139,-178.789 255.946,-171.626 245.377,-172.357 248.139,-178.789"/>
</g>
<!-- Node24 -->
<g id="node24" class="node"><title>Node24</title>
<g id="a_node24"><a xlink:href="$classQuaternion.html#a20c1310cb43b19ab1fdcbde038d1e508" xlink:title="Quaternion::earth_to_body">
<polygon fill="white" stroke="black" points="230.5,-329.5 230.5,-348.5 361.5,-348.5 361.5,-329.5 230.5,-329.5"/>
<text text-anchor="middle" x="296" y="-336.5" font-family="Helvetica,sans-Serif" font-size="10.00">Quaternion::earth_to_body</text>
</a>
</g>
</g>
<!-- Node20&#45;&gt;Node24 -->
<g id="edge29" class="edge"><title>Node20&#45;&gt;Node24</title>
<path fill="none" stroke="midnightblue" d="M193.595,-339C202.281,-339 211.36,-339 220.363,-339"/>
<polygon fill="midnightblue" stroke="midnightblue" points="220.471,-342.5 230.471,-339 220.471,-335.5 220.471,-342.5"/>
</g>
<!-- Node22 -->
<g id="node22" class="node"><title>Node22</title>
<g id="a_node22"><a xlink:href="$classQuaternion.html#a6f5e82dd828c59392a3133d6d5877f39" xlink:title="Quaternion::length">
<polygon fill="white" stroke="black" points="414,-152.5 414,-171.5 510,-171.5 510,-152.5 414,-152.5"/>
<text text-anchor="middle" x="462" y="-159.5" font-family="Helvetica,sans-Serif" font-size="10.00">Quaternion::length</text>
</a>
</g>
</g>
<!-- Node21&#45;&gt;Node22 -->
<g id="edge26" class="edge"><title>Node21&#45;&gt;Node22</title>
<path fill="none" stroke="midnightblue" d="M352.066,-162C368.634,-162 386.852,-162 403.569,-162"/>
<polygon fill="midnightblue" stroke="midnightblue" points="403.756,-165.5 413.756,-162 403.756,-158.5 403.756,-165.5"/>
</g>
<!-- Node23 -->
<g id="node23" class="node"><title>Node23</title>
<g id="a_node23"><a xlink:href="$AP__Math_8cpp.html#a996fdbe87607543eef5dcb234f6bc017" xlink:title="sq">
<polygon fill="white" stroke="black" points="614.5,-152.5 614.5,-171.5 643.5,-171.5 643.5,-152.5 614.5,-152.5"/>
<text text-anchor="middle" x="629" y="-159.5" font-family="Helvetica,sans-Serif" font-size="10.00">sq</text>
</a>
</g>
</g>
<!-- Node22&#45;&gt;Node23 -->
<g id="edge27" class="edge"><title>Node22&#45;&gt;Node23</title>
<path fill="none" stroke="midnightblue" d="M510.282,-162C541.003,-162 579.743,-162 604.202,-162"/>
<polygon fill="midnightblue" stroke="midnightblue" points="604.355,-165.5 614.355,-162 604.355,-158.5 604.355,-165.5"/>
</g>
<!-- Node24&#45;&gt;Node16 -->
<g id="edge30" class="edge"><title>Node24&#45;&gt;Node16</title>
<path fill="none" stroke="midnightblue" d="M361.817,-346.509C374.675,-347.999 388.123,-349.557 400.818,-351.028"/>
<polygon fill="midnightblue" stroke="midnightblue" points="400.476,-354.511 410.813,-352.186 401.282,-347.558 400.476,-354.511"/>
</g>
<!-- Node25&#45;&gt;Node2 -->
<g id="edge33" class="edge"><title>Node25&#45;&gt;Node2</title>
<path fill="none" stroke="midnightblue" d="M179.005,-424.577C184.441,-427.038 189.628,-430.126 194,-434 221.974,-458.788 201.568,-485.739 230,-510 231.996,-511.703 234.137,-513.253 236.384,-514.664"/>
<polygon fill="midnightblue" stroke="midnightblue" points="235.006,-517.894 245.486,-519.449 238.263,-511.698 235.006,-517.894"/>
</g>
<!-- Node25&#45;&gt;Node6 -->
<g id="edge34" class="edge"><title>Node25&#45;&gt;Node6</title>
<path fill="none" stroke="midnightblue" d="M176.87,-405.411C197.72,-400.396 223.435,-394.212 245.543,-388.895"/>
<polygon fill="midnightblue" stroke="midnightblue" points="246.512,-392.261 255.417,-386.52 244.875,-385.456 246.512,-392.261"/>
</g>
<!-- Node26&#45;&gt;Node2 -->
<g id="edge36" class="edge"><title>Node26&#45;&gt;Node2</title>
<path fill="none" stroke="midnightblue" d="M174.392,-462.526C181.191,-465.063 188.017,-468.19 194,-472 213.623,-484.497 210.147,-497.872 230,-510 233.555,-512.172 237.372,-514.107 241.309,-515.828"/>
<polygon fill="midnightblue" stroke="midnightblue" points="240.061,-519.098 250.65,-519.47 242.604,-512.576 240.061,-519.098"/>
</g>
<!-- Node27 -->
<g id="node27" class="node"><title>Node27</title>
<g id="a_node27"><a xlink:href="$eulers_8pde.html#a288b88e3267221134f72a170d9895cef" xlink:title="test_quaternion">
<polygon fill="white" stroke="black" points="254.5,-443.5 254.5,-462.5 337.5,-462.5 337.5,-443.5 254.5,-443.5"/>
<text text-anchor="middle" x="296" y="-450.5" font-family="Helvetica,sans-Serif" font-size="10.00">test_quaternion</text>
</a>
</g>
</g>
<!-- Node26&#45;&gt;Node27 -->
<g id="edge37" class="edge"><title>Node26&#45;&gt;Node27</title>
<path fill="none" stroke="midnightblue" d="M193.595,-453C210.011,-453 227.834,-453 243.893,-453"/>
<polygon fill="midnightblue" stroke="midnightblue" points="244.159,-456.5 254.159,-453 244.159,-449.5 244.159,-456.5"/>
</g>
<!-- Node27&#45;&gt;Node7 -->
<g id="edge38" class="edge"><title>Node27&#45;&gt;Node7</title>
<path fill="none" stroke="midnightblue" d="M310.374,-443.399C324.402,-432.874 346.522,-414.946 362,-396 382.403,-371.026 372.768,-353.084 398,-333 400.304,-331.166 402.784,-329.508 405.379,-328.011"/>
<polygon fill="midnightblue" stroke="midnightblue" points="407.126,-331.052 414.566,-323.509 404.046,-324.766 407.126,-331.052"/>
</g>
<!-- Node27&#45;&gt;Node8 -->
<g id="edge39" class="edge"><title>Node27&#45;&gt;Node8</title>
<path fill="none" stroke="midnightblue" d="M327.018,-443.369C347.09,-436.959 374.101,-428.389 398,-421 404.746,-418.914 411.908,-416.728 418.891,-414.611"/>
<polygon fill="midnightblue" stroke="midnightblue" points="420.364,-417.822 428.924,-411.58 418.339,-411.122 420.364,-417.822"/>
</g>
<!-- Node27&#45;&gt;Node13 -->
<g id="edge40" class="edge"><title>Node27&#45;&gt;Node13</title>
<path fill="none" stroke="midnightblue" d="M337.539,-459.18C361.276,-462.798 391.304,-467.376 415.802,-471.11"/>
<polygon fill="midnightblue" stroke="midnightblue" points="415.515,-474.607 425.928,-472.654 416.57,-467.687 415.515,-474.607"/>
</g>
<!-- Node27&#45;&gt;Node16 -->
<g id="edge44" class="edge"><title>Node27&#45;&gt;Node16</title>
<path fill="none" stroke="midnightblue" d="M308.86,-443.432C327.165,-428.983 363.775,-401.339 398,-383 401.734,-380.999 405.664,-379.067 409.66,-377.223"/>
<polygon fill="midnightblue" stroke="midnightblue" points="411.303,-380.324 419.045,-373.091 408.483,-373.917 411.303,-380.324"/>
</g>
<!-- Node27&#45;&gt;Node17 -->
<g id="edge42" class="edge"><title>Node27&#45;&gt;Node17</title>
<path fill="none" stroke="midnightblue" d="M337.286,-462.574C345.643,-465.166 354.256,-468.3 362,-472 379.577,-480.397 380.459,-488.528 398,-497 402.639,-499.241 407.598,-501.281 412.621,-503.123"/>
<polygon fill="midnightblue" stroke="midnightblue" points="411.697,-506.506 422.292,-506.42 413.956,-499.88 411.697,-506.506"/>
</g>
<!-- Node27&#45;&gt;Node18 -->
<g id="edge41" class="edge"><title>Node27&#45;&gt;Node18</title>
<path fill="none" stroke="midnightblue" d="M337.539,-449.787C356.695,-448.268 379.948,-446.425 401.085,-444.749"/>
<polygon fill="midnightblue" stroke="midnightblue" points="401.572,-448.222 411.264,-443.942 401.019,-441.244 401.572,-448.222"/>
</g>
<!-- Node28 -->
<g id="node28" class="node"><title>Node28</title>
<g id="a_node28"><a xlink:href="$classQuaternion.html#a5ee01ee833114be6181887d0dcfb33b1" xlink:title="Quaternion::from_rotation\l_matrix">
<polygon fill="white" stroke="black" points="398.5,-545 398.5,-575 525.5,-575 525.5,-545 398.5,-545"/>
<text text-anchor="start" x="406.5" y="-563" font-family="Helvetica,sans-Serif" font-size="10.00">Quaternion::from_rotation</text>
<text text-anchor="middle" x="462" y="-552" font-family="Helvetica,sans-Serif" font-size="10.00">_matrix</text>
</a>
</g>
</g>
<!-- Node27&#45;&gt;Node28 -->
<g id="edge43" class="edge"><title>Node27&#45;&gt;Node28</title>
<path fill="none" stroke="midnightblue" d="M337.811,-459.762C346.407,-462.542 354.985,-466.465 362,-472 387.317,-491.976 373.643,-513.864 398,-535 399.944,-536.687 402.016,-538.268 404.18,-539.75"/>
<polygon fill="midnightblue" stroke="midnightblue" points="402.527,-542.839 412.903,-544.979 406.126,-536.836 402.527,-542.839"/>
</g>
<!-- Node29&#45;&gt;Node2 -->
<g id="edge46" class="edge"><title>Node29&#45;&gt;Node2</title>
<path fill="none" stroke="midnightblue" d="M176.87,-500.589C197.72,-505.604 223.435,-511.788 245.543,-517.105"/>
<polygon fill="midnightblue" stroke="midnightblue" points="244.875,-520.544 255.417,-519.48 246.512,-513.739 244.875,-520.544"/>
</g>
<!-- Node30 -->
<g id="node30" class="node"><title>Node30</title>
<g id="a_node30"><a xlink:href="$eulers_8pde.html#ab0e4b7cf8126ff5efa48d6f91eaad6ea" xlink:title="test_euler">
<polygon fill="white" stroke="black" points="266.5,-481.5 266.5,-500.5 325.5,-500.5 325.5,-481.5 266.5,-481.5"/>
<text text-anchor="middle" x="296" y="-488.5" font-family="Helvetica,sans-Serif" font-size="10.00">test_euler</text>
</a>
</g>
</g>
<!-- Node29&#45;&gt;Node30 -->
<g id="edge47" class="edge"><title>Node29&#45;&gt;Node30</title>
<path fill="none" stroke="midnightblue" d="M184.834,-491C207.626,-491 234.54,-491 256.06,-491"/>
<polygon fill="midnightblue" stroke="midnightblue" points="256.15,-494.5 266.15,-491 256.15,-487.5 256.15,-494.5"/>
</g>
<!-- Node30&#45;&gt;Node13 -->
<g id="edge50" class="edge"><title>Node30&#45;&gt;Node13</title>
<path fill="none" stroke="midnightblue" d="M325.567,-488.736C350.414,-486.766 386.855,-483.877 415.679,-481.593"/>
<polygon fill="midnightblue" stroke="midnightblue" points="416.226,-485.06 425.919,-480.781 415.673,-478.082 416.226,-485.06"/>
</g>
<!-- Node30&#45;&gt;Node17 -->
<g id="edge49" class="edge"><title>Node30&#45;&gt;Node17</title>
<path fill="none" stroke="midnightblue" d="M325.567,-495.355C348.026,-498.778 379.959,-503.646 407.176,-507.795"/>
<polygon fill="midnightblue" stroke="midnightblue" points="406.934,-511.299 417.347,-509.346 407.989,-504.379 406.934,-511.299"/>
</g>
<!-- Node30&#45;&gt;Node18 -->
<g id="edge48" class="edge"><title>Node30&#45;&gt;Node18</title>
<path fill="none" stroke="midnightblue" d="M325.594,-483.057C336.972,-479.789 350.153,-475.867 362,-472 378.172,-466.722 381.851,-464.347 398,-459 404.558,-456.829 411.533,-454.623 418.362,-452.521"/>
<polygon fill="midnightblue" stroke="midnightblue" points="419.648,-455.788 428.197,-449.53 417.611,-449.091 419.648,-455.788"/>
</g>
<!-- Node31&#45;&gt;Node14 -->
<g id="edge55" class="edge"><title>Node31&#45;&gt;Node14</title>
<path fill="none" stroke="midnightblue" d="M180.404,-95.5593C195.997,-98.8098 213.743,-102.3 230,-105 360.842,-126.734 407.75,-82.9255 526,-143 546.741,-153.537 543.971,-166.297 562,-181 571.136,-188.451 581.727,-195.593 591.714,-201.769"/>
<polygon fill="midnightblue" stroke="midnightblue" points="589.911,-204.769 600.283,-206.931 593.523,-198.773 589.911,-204.769"/>
</g>
<!-- Node32 -->
<g id="node32" class="node"><title>Node32</title>
<g id="a_node32"><a xlink:href="$classMatrix3.html#acfd79fa5d5968b42219a9b6d017ac5b5" xlink:title="Matrix3::identity">
<polygon fill="white" stroke="black" points="253,-0.5 253,-19.5 339,-19.5 339,-0.5 253,-0.5"/>
<text text-anchor="middle" x="296" y="-7.5" font-family="Helvetica,sans-Serif" font-size="10.00">Matrix3::identity</text>
</a>
</g>
</g>
<!-- Node31&#45;&gt;Node32 -->
<g id="edge52" class="edge"><title>Node31&#45;&gt;Node32</title>
<path fill="none" stroke="midnightblue" d="M150.24,-76.3108C167.737,-63.8844 199.875,-42.3492 230,-29 235.106,-26.7375 240.555,-24.6605 246.043,-22.7781"/>
<polygon fill="midnightblue" stroke="midnightblue" points="247.456,-26.0001 255.901,-19.6017 245.309,-19.3374 247.456,-26.0001"/>
</g>
<!-- Node33 -->
<g id="node33" class="node"><title>Node33</title>
<g id="a_node33"><a xlink:href="$eulers_8pde.html#a947c961d7787a2c96e3f6768e6e6c38c" xlink:title="rand_num">
<polygon fill="white" stroke="black" points="266.5,-76.5 266.5,-95.5 325.5,-95.5 325.5,-76.5 266.5,-76.5"/>
<text text-anchor="middle" x="296" y="-83.5" font-family="Helvetica,sans-Serif" font-size="10.00">rand_num</text>
</a>
</g>
</g>
<!-- Node31&#45;&gt;Node33 -->
<g id="edge53" class="edge"><title>Node31&#45;&gt;Node33</title>
<path fill="none" stroke="midnightblue" d="M183.551,-86C206.549,-86 233.989,-86 255.886,-86"/>
<polygon fill="midnightblue" stroke="midnightblue" points="256.147,-89.5001 266.147,-86 256.147,-82.5001 256.147,-89.5001"/>
</g>
<!-- Node34 -->
<g id="node34" class="node"><title>Node34</title>
<g id="a_node34"><a xlink:href="$classMatrix3.html#a6f044e8d64f6f10e054af962487399b9" xlink:title="Matrix3::rotate">
<polygon fill="white" stroke="black" points="256,-38.5 256,-57.5 336,-57.5 336,-38.5 256,-38.5"/>
<text text-anchor="middle" x="296" y="-45.5" font-family="Helvetica,sans-Serif" font-size="10.00">Matrix3::rotate</text>
</a>
</g>
</g>
<!-- Node31&#45;&gt;Node34 -->
<g id="edge54" class="edge"><title>Node31&#45;&gt;Node34</title>
<path fill="none" stroke="midnightblue" d="M176.87,-76.411C197.878,-71.3584 223.826,-65.1178 246.047,-59.7736"/>
<polygon fill="midnightblue" stroke="midnightblue" points="247.059,-63.1301 255.963,-57.3887 245.422,-56.3242 247.059,-63.1301"/>
</g>
</g>
</svg>
