<?xml version="1.0" encoding="UTF-8" standalone="no"?>
<!DOCTYPE svg PUBLIC "-//W3C//DTD SVG 1.1//EN"
 "http://www.w3.org/Graphics/SVG/1.1/DTD/svg11.dtd">
<!-- Generated by graphviz version 2.36.0 (20140111.2315)
 -->
<!-- Title: test_euler Pages: 1 -->
<svg width="280pt" height="28pt"
 viewBox="0.00 0.00 280.00 28.00" xmlns="http://www.w3.org/2000/svg" xmlns:xlink="http://www.w3.org/1999/xlink">
<g id="graph0" class="graph" transform="scale(1 1) rotate(0) translate(4 24)">
<title>test_euler</title>
<polygon fill="white" stroke="none" points="-4,4 -4,-24 276,-24 276,4 -4,4"/>
<!-- Node1 -->
<g id="node1" class="node"><title>Node1</title>
<polygon fill="#bfbfbf" stroke="black" points="0.5,-0.5 0.5,-19.5 59.5,-19.5 59.5,-0.5 0.5,-0.5"/>
<text text-anchor="middle" x="30" y="-7.5" font-family="Helvetica,sans-Serif" font-size="10.00">test_euler</text>
</g>
<!-- Node2 -->
<g id="node2" class="node"><title>Node2</title>
<g id="a_node2"><a xlink:href="$eulers_8pde.html#aceb2646dd2a8910fd27813e20e13c6a4" xlink:title="test_matrix_eulers">
<polygon fill="white" stroke="black" points="96.5,-0.5 96.5,-19.5 193.5,-19.5 193.5,-0.5 96.5,-0.5"/>
<text text-anchor="middle" x="145" y="-7.5" font-family="Helvetica,sans-Serif" font-size="10.00">test_matrix_eulers</text>
</a>
</g>
</g>
<!-- Node1&#45;&gt;Node2 -->
<g id="edge1" class="edge"><title>Node1&#45;&gt;Node2</title>
<path fill="none" stroke="midnightblue" d="M69.5773,-10C78.1248,-10 87.2827,-10 96.1495,-10"/>
<polygon fill="midnightblue" stroke="midnightblue" points="69.5147,-6.5001 59.5147,-10 69.5146,-13.5001 69.5147,-6.5001"/>
</g>
<!-- Node3 -->
<g id="node3" class="node"><title>Node3</title>
<g id="a_node3"><a xlink:href="$eulers_8pde.html#a7dfd9b79bc5a37d7df40207afbc5431f" xlink:title="setup">
<polygon fill="white" stroke="black" points="230.5,-0.5 230.5,-19.5 271.5,-19.5 271.5,-0.5 230.5,-0.5"/>
<text text-anchor="middle" x="251" y="-7.5" font-family="Helvetica,sans-Serif" font-size="10.00">setup</text>
</a>
</g>
</g>
<!-- Node2&#45;&gt;Node3 -->
<g id="edge2" class="edge"><title>Node2&#45;&gt;Node3</title>
<path fill="none" stroke="midnightblue" d="M203.749,-10C213.316,-10 222.62,-10 230.345,-10"/>
<polygon fill="midnightblue" stroke="midnightblue" points="203.739,-6.5001 193.739,-10 203.739,-13.5001 203.739,-6.5001"/>
</g>
</g>
</svg>
