<?xml version="1.0" encoding="UTF-8" standalone="no"?>
<!DOCTYPE svg PUBLIC "-//W3C//DTD SVG 1.1//EN"
 "http://www.w3.org/Graphics/SVG/1.1/DTD/svg11.dtd">
<!-- Generated by graphviz version 2.36.0 (20140111.2315)
 -->
<!-- Title: libraries/AP_HAL_FLYMAPLE/utility/flash_stm32F1.h Pages: 1 -->
<svg width="402pt" height="96pt"
 viewBox="0.00 0.00 402.00 96.00" xmlns="http://www.w3.org/2000/svg" xmlns:xlink="http://www.w3.org/1999/xlink">
<g id="graph0" class="graph" transform="scale(1 1) rotate(0) translate(4 92)">
<title>libraries/AP_HAL_FLYMAPLE/utility/flash_stm32F1.h</title>
<polygon fill="white" stroke="none" points="-4,4 -4,-92 398,-92 398,4 -4,4"/>
<!-- Node1 -->
<g id="node1" class="node"><title>Node1</title>
<polygon fill="#bfbfbf" stroke="black" points="140.5,-57 140.5,-87 289.5,-87 289.5,-57 140.5,-57"/>
<text text-anchor="start" x="148.5" y="-75" font-family="Helvetica,sans-Serif" font-size="10.00">libraries/AP_HAL_FLYMAPLE</text>
<text text-anchor="middle" x="215" y="-64" font-family="Helvetica,sans-Serif" font-size="10.00">/utility/flash_stm32F1.h</text>
</g>
<!-- Node2 -->
<g id="node2" class="node"><title>Node2</title>
<g id="a_node2"><a xlink:href="$AP__HAL__Boards_8h.html" xlink:title="AP_HAL_Boards.h">
<polygon fill="white" stroke="black" points="-0.5,-0.5 -0.5,-19.5 98.5,-19.5 98.5,-0.5 -0.5,-0.5"/>
<text text-anchor="middle" x="49" y="-7.5" font-family="Helvetica,sans-Serif" font-size="10.00">AP_HAL_Boards.h</text>
</a>
</g>
</g>
<!-- Node1&#45;&gt;Node2 -->
<g id="edge1" class="edge"><title>Node1&#45;&gt;Node2</title>
<path fill="none" stroke="midnightblue" d="M176.08,-56.9327C147.574,-46.6292 109.295,-32.7935 82.222,-23.0079"/>
<polygon fill="midnightblue" stroke="midnightblue" points="83.3877,-19.7077 72.7934,-19.6 81.0082,-26.2909 83.3877,-19.7077"/>
</g>
<!-- Node3 -->
<g id="node3" class="node"><title>Node3</title>
<polygon fill="white" stroke="#bfbfbf" points="116.5,-0.5 116.5,-19.5 177.5,-19.5 177.5,-0.5 116.5,-0.5"/>
<text text-anchor="middle" x="147" y="-7.5" font-family="Helvetica,sans-Serif" font-size="10.00">libmaple.h</text>
</g>
<!-- Node1&#45;&gt;Node3 -->
<g id="edge2" class="edge"><title>Node1&#45;&gt;Node3</title>
<path fill="none" stroke="midnightblue" d="M198.885,-56.7808C188.596,-47.7026 175.253,-35.9291 164.674,-26.5951"/>
<polygon fill="midnightblue" stroke="midnightblue" points="166.709,-23.7223 156.895,-19.7305 162.077,-28.9712 166.709,-23.7223"/>
</g>
<!-- Node4 -->
<g id="node4" class="node"><title>Node4</title>
<polygon fill="white" stroke="#bfbfbf" points="196,-0.5 196,-19.5 234,-19.5 234,-0.5 196,-0.5"/>
<text text-anchor="middle" x="215" y="-7.5" font-family="Helvetica,sans-Serif" font-size="10.00">util.h</text>
</g>
<!-- Node1&#45;&gt;Node4 -->
<g id="edge3" class="edge"><title>Node1&#45;&gt;Node4</title>
<path fill="none" stroke="midnightblue" d="M215,-56.7808C215,-48.7812 215,-38.6887 215,-30.0168"/>
<polygon fill="midnightblue" stroke="midnightblue" points="218.5,-29.7305 215,-19.7305 211.5,-29.7306 218.5,-29.7305"/>
</g>
<!-- Node5 -->
<g id="node5" class="node"><title>Node5</title>
<polygon fill="white" stroke="#bfbfbf" points="252,-0.5 252,-19.5 298,-19.5 298,-0.5 252,-0.5"/>
<text text-anchor="middle" x="275" y="-7.5" font-family="Helvetica,sans-Serif" font-size="10.00">flash.h</text>
</g>
<!-- Node1&#45;&gt;Node5 -->
<g id="edge4" class="edge"><title>Node1&#45;&gt;Node5</title>
<path fill="none" stroke="midnightblue" d="M229.219,-56.7808C238.208,-47.7925 249.838,-36.162 259.127,-26.8731"/>
<polygon fill="midnightblue" stroke="midnightblue" points="261.673,-29.2765 266.269,-19.7305 256.723,-24.3267 261.673,-29.2765"/>
</g>
<!-- Node6 -->
<g id="node6" class="node"><title>Node6</title>
<g id="a_node6"><a xlink:href="$flash__stm32_8h.html" xlink:title="flash_stm32.h">
<polygon fill="white" stroke="black" points="316,-0.5 316,-19.5 394,-19.5 394,-0.5 316,-0.5"/>
<text text-anchor="middle" x="355" y="-7.5" font-family="Helvetica,sans-Serif" font-size="10.00">flash_stm32.h</text>
</a>
</g>
</g>
<!-- Node1&#45;&gt;Node6 -->
<g id="edge5" class="edge"><title>Node1&#45;&gt;Node6</title>
<path fill="none" stroke="midnightblue" d="M247.824,-56.9327C271.338,-46.8552 302.737,-33.3986 325.466,-23.6575"/>
<polygon fill="midnightblue" stroke="midnightblue" points="327.121,-26.7563 334.933,-19.6 324.363,-20.3223 327.121,-26.7563"/>
</g>
</g>
</svg>
