<?xml version="1.0" encoding="UTF-8" standalone="no"?>
<!DOCTYPE svg PUBLIC "-//W3C//DTD SVG 1.1//EN"
 "http://www.w3.org/Graphics/SVG/1.1/DTD/svg11.dtd">
<!-- Generated by graphviz version 2.36.0 (20140111.2315)
 -->
<!-- Title: FLASH_ErasePage Pages: 1 -->
<svg width="1492pt" height="236pt"
 viewBox="0.00 0.00 1492.00 236.00" xmlns="http://www.w3.org/2000/svg" xmlns:xlink="http://www.w3.org/1999/xlink">
<g id="graph0" class="graph" transform="scale(1 1) rotate(0) translate(4 232)">
<title>FLASH_ErasePage</title>
<polygon fill="white" stroke="none" points="-4,4 -4,-232 1488,-232 1488,4 -4,4"/>
<!-- Node1 -->
<g id="node1" class="node"><title>Node1</title>
<polygon fill="#bfbfbf" stroke="black" points="0,-125.5 0,-144.5 102,-144.5 102,-125.5 0,-125.5"/>
<text text-anchor="middle" x="51" y="-132.5" font-family="Helvetica,sans-Serif" font-size="10.00">FLASH_ErasePage</text>
</g>
<!-- Node2 -->
<g id="node2" class="node"><title>Node2</title>
<g id="a_node2"><a xlink:href="$classEEPROMClass.html#ad3725e57079ea532ce74bb4e76b211dd" xlink:title="Erase page with increment erase counter (page + 2) ">
<polygon fill="white" stroke="black" points="138,-125.5 138,-144.5 296,-144.5 296,-125.5 138,-125.5"/>
<text text-anchor="middle" x="217" y="-132.5" font-family="Helvetica,sans-Serif" font-size="10.00">EEPROMClass::EE_ErasePage</text>
</a>
</g>
</g>
<!-- Node1&#45;&gt;Node2 -->
<g id="edge1" class="edge"><title>Node1&#45;&gt;Node2</title>
<path fill="none" stroke="midnightblue" d="M112.113,-135C120.48,-135 129.174,-135 137.812,-135"/>
<polygon fill="midnightblue" stroke="midnightblue" points="112.097,-131.5 102.097,-135 112.096,-138.5 112.097,-131.5"/>
</g>
<!-- Node3 -->
<g id="node3" class="node"><title>Node3</title>
<g id="a_node3"><a xlink:href="$classEEPROMClass.html#a42fc5632d6e320e5c08b8acc86a144d6" xlink:title="Check page for blank and erase it. ">
<polygon fill="white" stroke="black" points="332.5,-125.5 332.5,-144.5 519.5,-144.5 519.5,-125.5 332.5,-125.5"/>
<text text-anchor="middle" x="426" y="-132.5" font-family="Helvetica,sans-Serif" font-size="10.00">EEPROMClass::EE_CheckErasePage</text>
</a>
</g>
</g>
<!-- Node2&#45;&gt;Node3 -->
<g id="edge2" class="edge"><title>Node2&#45;&gt;Node3</title>
<path fill="none" stroke="midnightblue" d="M306.303,-135C314.93,-135 323.7,-135 332.367,-135"/>
<polygon fill="midnightblue" stroke="midnightblue" points="306.258,-131.5 296.258,-135 306.258,-138.5 306.258,-131.5"/>
</g>
<!-- Node4 -->
<g id="node4" class="node"><title>Node4</title>
<g id="a_node4"><a xlink:href="$classEEPROMClass.html#a3d12060444d8cc649f0264ce23f7bbaf" xlink:title="Transfers last updated variables data from the full Page to an empty one. ">
<polygon fill="white" stroke="black" points="556.5,-163.5 556.5,-182.5 725.5,-182.5 725.5,-163.5 556.5,-163.5"/>
<text text-anchor="middle" x="641" y="-170.5" font-family="Helvetica,sans-Serif" font-size="10.00">EEPROMClass::EE_PageTransfer</text>
</a>
</g>
</g>
<!-- Node3&#45;&gt;Node4 -->
<g id="edge3" class="edge"><title>Node3&#45;&gt;Node4</title>
<path fill="none" stroke="midnightblue" d="M490.603,-146.347C521.163,-151.799 557.382,-158.261 586.504,-163.456"/>
<polygon fill="midnightblue" stroke="midnightblue" points="490.933,-142.851 480.474,-144.54 489.704,-149.742 490.933,-142.851"/>
</g>
<!-- Node9 -->
<g id="node9" class="node"><title>Node9</title>
<g id="a_node9"><a xlink:href="$classEEPROMClass.html#a9e3825e66fd8112ed3768f726537c8c6" xlink:title="EEPROMClass::init">
<polygon fill="white" stroke="black" points="789,-114.5 789,-133.5 893,-133.5 893,-114.5 789,-114.5"/>
<text text-anchor="middle" x="841" y="-121.5" font-family="Helvetica,sans-Serif" font-size="10.00">EEPROMClass::init</text>
</a>
</g>
</g>
<!-- Node3&#45;&gt;Node9 -->
<g id="edge15" class="edge"><title>Node3&#45;&gt;Node9</title>
<path fill="none" stroke="midnightblue" d="M529.836,-132.261C612.243,-130.066 724.389,-127.079 788.802,-125.364"/>
<polygon fill="midnightblue" stroke="midnightblue" points="529.588,-128.766 519.685,-132.531 529.775,-135.764 529.588,-128.766"/>
</g>
<!-- Node15 -->
<g id="node15" class="node"><title>Node15</title>
<g id="a_node15"><a xlink:href="$classEEPROMClass.html#ac7d841bc2db8825c19444dff0a7409c5" xlink:title="Erases PAGE0 and PAGE1 and writes EEPROM_VALID_PAGE / 0 header to PAGE0. ">
<polygon fill="white" stroke="black" points="581.5,-87.5 581.5,-106.5 700.5,-106.5 700.5,-87.5 581.5,-87.5"/>
<text text-anchor="middle" x="641" y="-94.5" font-family="Helvetica,sans-Serif" font-size="10.00">EEPROMClass::format</text>
</a>
</g>
</g>
<!-- Node3&#45;&gt;Node15 -->
<g id="edge16" class="edge"><title>Node3&#45;&gt;Node15</title>
<path fill="none" stroke="midnightblue" d="M490.603,-123.653C521.163,-118.201 557.382,-111.739 586.504,-106.544"/>
<polygon fill="midnightblue" stroke="midnightblue" points="489.704,-120.258 480.474,-125.46 490.933,-127.149 489.704,-120.258"/>
</g>
<!-- Node5 -->
<g id="node5" class="node"><title>Node5</title>
<g id="a_node5"><a xlink:href="$classEEPROMClass.html#a1ec32c6c58e3845274ab08e8944d2f46" xlink:title="Verify if active page is full and Writes variable in EEPROM. ">
<polygon fill="white" stroke="black" points="762,-169 762,-199 920,-199 920,-169 762,-169"/>
<text text-anchor="start" x="770" y="-187" font-family="Helvetica,sans-Serif" font-size="10.00">EEPROMClass::EE_VerifyPage</text>
<text text-anchor="middle" x="841" y="-176" font-family="Helvetica,sans-Serif" font-size="10.00">FullWriteVariable</text>
</a>
</g>
</g>
<!-- Node4&#45;&gt;Node5 -->
<g id="edge4" class="edge"><title>Node4&#45;&gt;Node5</title>
<path fill="none" stroke="midnightblue" d="M735.892,-178.216C744.623,-178.701 753.408,-179.189 761.973,-179.665"/>
<polygon fill="midnightblue" stroke="midnightblue" points="735.862,-174.709 725.683,-177.649 735.473,-181.698 735.862,-174.709"/>
</g>
<!-- Node4&#45;&gt;Node9 -->
<g id="edge8" class="edge"><title>Node4&#45;&gt;Node9</title>
<path fill="none" stroke="midnightblue" d="M690.418,-161.018C724.578,-152.564 769.725,-141.391 801.451,-133.54"/>
<polygon fill="midnightblue" stroke="midnightblue" points="689.513,-157.636 680.646,-163.436 691.194,-164.431 689.513,-157.636"/>
</g>
<!-- Node6 -->
<g id="node6" class="node"><title>Node6</title>
<g id="a_node6"><a xlink:href="$classEEPROMClass.html#a94dfba95e7cbc16dd5cbfeb344a749c1" xlink:title="Writes/upadtes variable data in EEPROM. ">
<polygon fill="white" stroke="black" points="965.5,-202.5 965.5,-221.5 1078.5,-221.5 1078.5,-202.5 965.5,-202.5"/>
<text text-anchor="middle" x="1022" y="-209.5" font-family="Helvetica,sans-Serif" font-size="10.00">EEPROMClass::write</text>
</a>
</g>
</g>
<!-- Node5&#45;&gt;Node6 -->
<g id="edge5" class="edge"><title>Node5&#45;&gt;Node6</title>
<path fill="none" stroke="midnightblue" d="M930.297,-197.812C942.287,-199.687 954.306,-201.567 965.493,-203.317"/>
<polygon fill="midnightblue" stroke="midnightblue" points="930.672,-194.328 920.252,-196.24 929.591,-201.244 930.672,-194.328"/>
</g>
<!-- Node7 -->
<g id="node7" class="node"><title>Node7</title>
<g id="a_node7"><a xlink:href="$classAP__HAL__FLYMAPLE__NS_1_1FLYMAPLEStorage.html#a0aa3116d7a310753eea45c784330aa37" xlink:title="AP_HAL_FLYMAPLE_NS\l::FLYMAPLEStorage::write_byte">
<polygon fill="white" stroke="black" points="1124.5,-197 1124.5,-227 1283.5,-227 1283.5,-197 1124.5,-197"/>
<text text-anchor="start" x="1132.5" y="-215" font-family="Helvetica,sans-Serif" font-size="10.00">AP_HAL_FLYMAPLE_NS</text>
<text text-anchor="middle" x="1204" y="-204" font-family="Helvetica,sans-Serif" font-size="10.00">::FLYMAPLEStorage::write_byte</text>
</a>
</g>
</g>
<!-- Node6&#45;&gt;Node7 -->
<g id="edge6" class="edge"><title>Node6&#45;&gt;Node7</title>
<path fill="none" stroke="midnightblue" d="M1089.25,-212C1100.65,-212 1112.59,-212 1124.27,-212"/>
<polygon fill="midnightblue" stroke="midnightblue" points="1088.97,-208.5 1078.97,-212 1088.97,-215.5 1088.97,-208.5"/>
</g>
<!-- Node8 -->
<g id="node8" class="node"><title>Node8</title>
<g id="a_node8"><a xlink:href="$classAP__HAL__FLYMAPLE__NS_1_1FLYMAPLEStorage.html#a3cebced9065ea52b7c7684aed8f3435b" xlink:title="AP_HAL_FLYMAPLE_NS\l::FLYMAPLEStorage::write_block">
<polygon fill="white" stroke="black" points="1320,-197 1320,-227 1484,-227 1484,-197 1320,-197"/>
<text text-anchor="start" x="1328" y="-215" font-family="Helvetica,sans-Serif" font-size="10.00">AP_HAL_FLYMAPLE_NS</text>
<text text-anchor="middle" x="1402" y="-204" font-family="Helvetica,sans-Serif" font-size="10.00">::FLYMAPLEStorage::write_block</text>
</a>
</g>
</g>
<!-- Node7&#45;&gt;Node8 -->
<g id="edge7" class="edge"><title>Node7&#45;&gt;Node8</title>
<path fill="none" stroke="midnightblue" d="M1293.73,-212C1302.43,-212 1311.22,-212 1319.83,-212"/>
<polygon fill="midnightblue" stroke="midnightblue" points="1293.59,-208.5 1283.59,-212 1293.59,-215.5 1293.59,-208.5"/>
</g>
<!-- Node9&#45;&gt;Node6 -->
<g id="edge13" class="edge"><title>Node9&#45;&gt;Node6</title>
<path fill="none" stroke="midnightblue" d="M878.278,-137.424C891.87,-143.177 907.128,-150.532 920,-159 938.133,-170.929 937.166,-181.211 956,-192 963.376,-196.226 971.745,-199.656 979.965,-202.405"/>
<polygon fill="midnightblue" stroke="midnightblue" points="879.314,-134.067 868.733,-133.526 876.667,-140.547 879.314,-134.067"/>
</g>
<!-- Node10 -->
<g id="node10" class="node"><title>Node10</title>
<g id="a_node10"><a xlink:href="$classAP__HAL__FLYMAPLE__NS_1_1FLYMAPLEStorage.html#a25a3355ea68af27fd28ec211b93ec2ca" xlink:title="AP_HAL_FLYMAPLE_NS\l::FLYMAPLEStorage::init">
<polygon fill="white" stroke="black" points="956.5,-153 956.5,-183 1087.5,-183 1087.5,-153 956.5,-153"/>
<text text-anchor="start" x="964.5" y="-171" font-family="Helvetica,sans-Serif" font-size="10.00">AP_HAL_FLYMAPLE_NS</text>
<text text-anchor="middle" x="1022" y="-160" font-family="Helvetica,sans-Serif" font-size="10.00">::FLYMAPLEStorage::init</text>
</a>
</g>
</g>
<!-- Node9&#45;&gt;Node10 -->
<g id="edge9" class="edge"><title>Node9&#45;&gt;Node10</title>
<path fill="none" stroke="midnightblue" d="M890.635,-135.955C911.929,-141.189 937.152,-147.389 959.711,-152.935"/>
<polygon fill="midnightblue" stroke="midnightblue" points="891.387,-132.536 880.84,-133.547 889.716,-139.333 891.387,-132.536"/>
</g>
<!-- Node11 -->
<g id="node11" class="node"><title>Node11</title>
<g id="a_node11"><a xlink:href="$classEEPROMClass.html#aa2aa9b1e1f3f7ec3924aacc22e7de722" xlink:title="EEPROMClass::init">
<polygon fill="white" stroke="black" points="970,-114.5 970,-133.5 1074,-133.5 1074,-114.5 970,-114.5"/>
<text text-anchor="middle" x="1022" y="-121.5" font-family="Helvetica,sans-Serif" font-size="10.00">EEPROMClass::init</text>
</a>
</g>
</g>
<!-- Node9&#45;&gt;Node11 -->
<g id="edge10" class="edge"><title>Node9&#45;&gt;Node11</title>
<path fill="none" stroke="midnightblue" d="M903.354,-124C924.962,-124 949.007,-124 969.698,-124"/>
<polygon fill="midnightblue" stroke="midnightblue" points="903.294,-120.5 893.294,-124 903.294,-127.5 903.294,-120.5"/>
</g>
<!-- Node12 -->
<g id="node12" class="node"><title>Node12</title>
<g id="a_node12"><a xlink:href="$classEEPROMClass.html#a7b4057d24e48bfad9b294d5acd9e7b56" xlink:title="Returns the erase counter for current page. ">
<polygon fill="white" stroke="black" points="961.5,-76.5 961.5,-95.5 1082.5,-95.5 1082.5,-76.5 961.5,-76.5"/>
<text text-anchor="middle" x="1022" y="-83.5" font-family="Helvetica,sans-Serif" font-size="10.00">EEPROMClass::erases</text>
</a>
</g>
</g>
<!-- Node9&#45;&gt;Node12 -->
<g id="edge11" class="edge"><title>Node9&#45;&gt;Node12</title>
<path fill="none" stroke="midnightblue" d="M897.024,-112.319C922.408,-106.93 952.161,-100.614 976.156,-95.5201"/>
<polygon fill="midnightblue" stroke="midnightblue" points="896.224,-108.911 887.169,-114.411 897.678,-115.758 896.224,-108.911"/>
</g>
<!-- Node13 -->
<g id="node13" class="node"><title>Node13</title>
<g id="a_node13"><a xlink:href="$classEEPROMClass.html#a039849dd231854ce6b71bb558684d54e" xlink:title="Returns the last stored variable data, if found, which correspond to the passed virtual address...">
<polygon fill="white" stroke="black" points="967,-38.5 967,-57.5 1077,-57.5 1077,-38.5 967,-38.5"/>
<text text-anchor="middle" x="1022" y="-45.5" font-family="Helvetica,sans-Serif" font-size="10.00">EEPROMClass::read</text>
</a>
</g>
</g>
<!-- Node9&#45;&gt;Node13 -->
<g id="edge12" class="edge"><title>Node9&#45;&gt;Node13</title>
<path fill="none" stroke="midnightblue" d="M867.936,-109.352C890.654,-96.9329 924.82,-79.238 956,-67 964.974,-63.4777 974.868,-60.2625 984.172,-57.519"/>
<polygon fill="midnightblue" stroke="midnightblue" points="866.003,-106.422 858.942,-114.321 869.388,-112.549 866.003,-106.422"/>
</g>
<!-- Node14 -->
<g id="node14" class="node"><title>Node14</title>
<g id="a_node14"><a xlink:href="$classEEPROMClass.html#a11daf35eb9821e9c9761533f555bb1ed" xlink:title="Return number of variable. ">
<polygon fill="white" stroke="black" points="964,-0.5 964,-19.5 1080,-19.5 1080,-0.5 964,-0.5"/>
<text text-anchor="middle" x="1022" y="-7.5" font-family="Helvetica,sans-Serif" font-size="10.00">EEPROMClass::count</text>
</a>
</g>
</g>
<!-- Node9&#45;&gt;Node14 -->
<g id="edge14" class="edge"><title>Node9&#45;&gt;Node14</title>
<path fill="none" stroke="midnightblue" d="M857.808,-107.093C878.472,-85.9375 916.686,-49.9476 956,-29 963.056,-25.2406 970.949,-22.1378 978.738,-19.608"/>
<polygon fill="midnightblue" stroke="midnightblue" points="855.182,-104.775 850.781,-114.413 860.231,-109.622 855.182,-104.775"/>
</g>
<!-- Node15&#45;&gt;Node9 -->
<g id="edge17" class="edge"><title>Node15&#45;&gt;Node9</title>
<path fill="none" stroke="midnightblue" d="M710.662,-106.363C736.368,-109.868 765.095,-113.786 788.935,-117.037"/>
<polygon fill="midnightblue" stroke="midnightblue" points="710.984,-102.875 700.603,-104.991 710.038,-109.81 710.984,-102.875"/>
</g>
</g>
</svg>
