<?xml version="1.0" encoding="UTF-8" standalone="no"?>
<!DOCTYPE svg PUBLIC "-//W3C//DTD SVG 1.1//EN"
 "http://www.w3.org/Graphics/SVG/1.1/DTD/svg11.dtd">
<!-- Generated by graphviz version 2.36.0 (20140111.2315)
 -->
<!-- Title: FLASH_WaitForLastOperation Pages: 1 -->
<svg width="1852pt" height="235pt"
 viewBox="0.00 0.00 1852.00 235.00" xmlns="http://www.w3.org/2000/svg" xmlns:xlink="http://www.w3.org/1999/xlink">
<g id="graph0" class="graph" transform="scale(1 1) rotate(0) translate(4 231)">
<title>FLASH_WaitForLastOperation</title>
<polygon fill="white" stroke="none" points="-4,4 -4,-231 1848,-231 1848,4 -4,4"/>
<!-- Node1 -->
<g id="node1" class="node"><title>Node1</title>
<polygon fill="#bfbfbf" stroke="black" points="0.5,-116.5 0.5,-135.5 149.5,-135.5 149.5,-116.5 0.5,-116.5"/>
<text text-anchor="middle" x="75" y="-123.5" font-family="Helvetica,sans-Serif" font-size="10.00">FLASH_WaitForLastOperation</text>
</g>
<!-- Node2 -->
<g id="node2" class="node"><title>Node2</title>
<g id="a_node2"><a xlink:href="$flash__stm32F2_8h.html#ae687b99f868242c3478fe2f070861abc" xlink:title="Erases a specified FLASH Sector. ">
<polygon fill="white" stroke="black" points="186,-140.5 186,-159.5 294,-159.5 294,-140.5 186,-140.5"/>
<text text-anchor="middle" x="240" y="-147.5" font-family="Helvetica,sans-Serif" font-size="10.00">FLASH_EraseSector</text>
</a>
</g>
</g>
<!-- Node1&#45;&gt;Node2 -->
<g id="edge1" class="edge"><title>Node1&#45;&gt;Node2</title>
<path fill="none" stroke="midnightblue" d="M151.123,-137.061C162.846,-138.787 174.747,-140.539 185.846,-142.174"/>
<polygon fill="midnightblue" stroke="midnightblue" points="151.293,-133.548 140.89,-135.554 150.274,-140.474 151.293,-133.548"/>
</g>
<!-- Node18 -->
<g id="node18" class="node"><title>Node18</title>
<g id="a_node18"><a xlink:href="$flash__stm32F2_8h.html#a67623617a6efb2676988073df8b08b23" xlink:title="Programs a half word (16&#45;bit) at a specified address. ">
<polygon fill="white" stroke="black" points="330,-74.5 330,-93.5 462,-93.5 462,-74.5 330,-74.5"/>
<text text-anchor="middle" x="396" y="-81.5" font-family="Helvetica,sans-Serif" font-size="10.00">FLASH_ProgramHalfWord</text>
</a>
</g>
</g>
<!-- Node1&#45;&gt;Node18 -->
<g id="edge20" class="edge"><title>Node1&#45;&gt;Node18</title>
<path fill="none" stroke="midnightblue" d="M158.51,-115.137C211.893,-108.108 280.414,-99.0866 329.944,-92.5654"/>
<polygon fill="midnightblue" stroke="midnightblue" points="157.844,-111.694 148.386,-116.47 158.757,-118.634 157.844,-111.694"/>
</g>
<!-- Node3 -->
<g id="node3" class="node"><title>Node3</title>
<g id="a_node3"><a xlink:href="$flash__stm32F2_8h.html#ab10d4a1c191d1d7f5b3a3b70927e6e69" xlink:title="Erases a specified FLASH page. ">
<polygon fill="white" stroke="black" points="345,-145.5 345,-164.5 447,-164.5 447,-145.5 345,-145.5"/>
<text text-anchor="middle" x="396" y="-152.5" font-family="Helvetica,sans-Serif" font-size="10.00">FLASH_ErasePage</text>
</a>
</g>
</g>
<!-- Node2&#45;&gt;Node3 -->
<g id="edge2" class="edge"><title>Node2&#45;&gt;Node3</title>
<path fill="none" stroke="midnightblue" d="M304.548,-152.063C317.959,-152.499 331.932,-152.952 344.771,-153.369"/>
<polygon fill="midnightblue" stroke="midnightblue" points="304.538,-148.561 294.43,-151.735 304.311,-155.557 304.538,-148.561"/>
</g>
<!-- Node4 -->
<g id="node4" class="node"><title>Node4</title>
<g id="a_node4"><a xlink:href="$classEEPROMClass.html#ad3725e57079ea532ce74bb4e76b211dd" xlink:title="Erase page with increment erase counter (page + 2) ">
<polygon fill="white" stroke="black" points="498,-157.5 498,-176.5 656,-176.5 656,-157.5 498,-157.5"/>
<text text-anchor="middle" x="577" y="-164.5" font-family="Helvetica,sans-Serif" font-size="10.00">EEPROMClass::EE_ErasePage</text>
</a>
</g>
</g>
<!-- Node3&#45;&gt;Node4 -->
<g id="edge3" class="edge"><title>Node3&#45;&gt;Node4</title>
<path fill="none" stroke="midnightblue" d="M457.528,-159.058C470.508,-159.928 484.399,-160.859 497.936,-161.767"/>
<polygon fill="midnightblue" stroke="midnightblue" points="457.55,-155.551 447.338,-158.375 457.081,-162.536 457.55,-155.551"/>
</g>
<!-- Node5 -->
<g id="node5" class="node"><title>Node5</title>
<g id="a_node5"><a xlink:href="$classEEPROMClass.html#a42fc5632d6e320e5c08b8acc86a144d6" xlink:title="Check page for blank and erase it. ">
<polygon fill="white" stroke="black" points="692.5,-100.5 692.5,-119.5 879.5,-119.5 879.5,-100.5 692.5,-100.5"/>
<text text-anchor="middle" x="786" y="-107.5" font-family="Helvetica,sans-Serif" font-size="10.00">EEPROMClass::EE_CheckErasePage</text>
</a>
</g>
</g>
<!-- Node4&#45;&gt;Node5 -->
<g id="edge4" class="edge"><title>Node4&#45;&gt;Node5</title>
<path fill="none" stroke="midnightblue" d="M622.488,-154.75C660.733,-144.219 715.122,-129.242 750.24,-119.572"/>
<polygon fill="midnightblue" stroke="midnightblue" points="621.359,-151.43 612.647,-157.459 623.218,-158.179 621.359,-151.43"/>
</g>
<!-- Node6 -->
<g id="node6" class="node"><title>Node6</title>
<g id="a_node6"><a xlink:href="$classEEPROMClass.html#a3d12060444d8cc649f0264ce23f7bbaf" xlink:title="Transfers last updated variables data from the full Page to an empty one. ">
<polygon fill="white" stroke="black" points="916.5,-24.5 916.5,-43.5 1085.5,-43.5 1085.5,-24.5 916.5,-24.5"/>
<text text-anchor="middle" x="1001" y="-31.5" font-family="Helvetica,sans-Serif" font-size="10.00">EEPROMClass::EE_PageTransfer</text>
</a>
</g>
</g>
<!-- Node5&#45;&gt;Node6 -->
<g id="edge5" class="edge"><title>Node5&#45;&gt;Node6</title>
<path fill="none" stroke="midnightblue" d="M814.923,-95.7716C840.641,-83.1261 880.132,-64.8568 916,-53 926.931,-49.3866 938.886,-46.2279 950.26,-43.5774"/>
<polygon fill="midnightblue" stroke="midnightblue" points="813.174,-92.7324 805.777,-100.318 816.289,-99.0008 813.174,-92.7324"/>
</g>
<!-- Node11 -->
<g id="node11" class="node"><title>Node11</title>
<g id="a_node11"><a xlink:href="$classEEPROMClass.html#a9e3825e66fd8112ed3768f726537c8c6" xlink:title="EEPROMClass::init">
<polygon fill="white" stroke="black" points="1149,-81.5 1149,-100.5 1253,-100.5 1253,-81.5 1149,-81.5"/>
<text text-anchor="middle" x="1201" y="-88.5" font-family="Helvetica,sans-Serif" font-size="10.00">EEPROMClass::init</text>
</a>
</g>
</g>
<!-- Node5&#45;&gt;Node11 -->
<g id="edge17" class="edge"><title>Node5&#45;&gt;Node11</title>
<path fill="none" stroke="midnightblue" d="M889.836,-105.269C972.243,-101.478 1084.39,-96.3187 1148.8,-93.3554"/>
<polygon fill="midnightblue" stroke="midnightblue" points="889.514,-101.78 879.685,-105.736 889.836,-108.773 889.514,-101.78"/>
</g>
<!-- Node17 -->
<g id="node17" class="node"><title>Node17</title>
<g id="a_node17"><a xlink:href="$classEEPROMClass.html#ac7d841bc2db8825c19444dff0a7409c5" xlink:title="Erases PAGE0 and PAGE1 and writes EEPROM_VALID_PAGE / 0 header to PAGE0. ">
<polygon fill="white" stroke="black" points="941.5,-62.5 941.5,-81.5 1060.5,-81.5 1060.5,-62.5 941.5,-62.5"/>
<text text-anchor="middle" x="1001" y="-69.5" font-family="Helvetica,sans-Serif" font-size="10.00">EEPROMClass::format</text>
</a>
</g>
</g>
<!-- Node5&#45;&gt;Node17 -->
<g id="edge18" class="edge"><title>Node5&#45;&gt;Node17</title>
<path fill="none" stroke="midnightblue" d="M850.603,-98.653C881.163,-93.2009 917.382,-86.7393 946.504,-81.5439"/>
<polygon fill="midnightblue" stroke="midnightblue" points="849.704,-95.2581 840.474,-100.46 850.933,-102.149 849.704,-95.2581"/>
</g>
<!-- Node7 -->
<g id="node7" class="node"><title>Node7</title>
<g id="a_node7"><a xlink:href="$classEEPROMClass.html#a1ec32c6c58e3845274ab08e8944d2f46" xlink:title="Verify if active page is full and Writes variable in EEPROM. ">
<polygon fill="white" stroke="black" points="1122,-0 1122,-30 1280,-30 1280,-0 1122,-0"/>
<text text-anchor="start" x="1130" y="-18" font-family="Helvetica,sans-Serif" font-size="10.00">EEPROMClass::EE_VerifyPage</text>
<text text-anchor="middle" x="1201" y="-7" font-family="Helvetica,sans-Serif" font-size="10.00">FullWriteVariable</text>
</a>
</g>
</g>
<!-- Node6&#45;&gt;Node7 -->
<g id="edge6" class="edge"><title>Node6&#45;&gt;Node7</title>
<path fill="none" stroke="midnightblue" d="M1095.89,-24.9902C1104.62,-24.1523 1113.41,-23.3094 1121.97,-22.4875"/>
<polygon fill="midnightblue" stroke="midnightblue" points="1095.3,-21.5305 1085.68,-25.9698 1095.97,-28.4985 1095.3,-21.5305"/>
</g>
<!-- Node6&#45;&gt;Node11 -->
<g id="edge10" class="edge"><title>Node6&#45;&gt;Node11</title>
<path fill="none" stroke="midnightblue" d="M1057.73,-45.7886C1067.21,-48.0256 1076.91,-50.465 1086,-53 1116.34,-61.4663 1150.55,-73.1658 1173.51,-81.3388"/>
<polygon fill="midnightblue" stroke="midnightblue" points="1058.51,-42.3768 1047.98,-43.5351 1056.94,-49.197 1058.51,-42.3768"/>
</g>
<!-- Node8 -->
<g id="node8" class="node"><title>Node8</title>
<g id="a_node8"><a xlink:href="$classEEPROMClass.html#a94dfba95e7cbc16dd5cbfeb344a749c1" xlink:title="Writes/upadtes variable data in EEPROM. ">
<polygon fill="white" stroke="black" points="1325.5,-5.5 1325.5,-24.5 1438.5,-24.5 1438.5,-5.5 1325.5,-5.5"/>
<text text-anchor="middle" x="1382" y="-12.5" font-family="Helvetica,sans-Serif" font-size="10.00">EEPROMClass::write</text>
</a>
</g>
</g>
<!-- Node7&#45;&gt;Node8 -->
<g id="edge7" class="edge"><title>Node7&#45;&gt;Node8</title>
<path fill="none" stroke="midnightblue" d="M1290.3,-15C1302.29,-15 1314.31,-15 1325.49,-15"/>
<polygon fill="midnightblue" stroke="midnightblue" points="1290.25,-11.5001 1280.25,-15 1290.25,-18.5001 1290.25,-11.5001"/>
</g>
<!-- Node9 -->
<g id="node9" class="node"><title>Node9</title>
<g id="a_node9"><a xlink:href="$classAP__HAL__FLYMAPLE__NS_1_1FLYMAPLEStorage.html#a0aa3116d7a310753eea45c784330aa37" xlink:title="AP_HAL_FLYMAPLE_NS\l::FLYMAPLEStorage::write_byte">
<polygon fill="white" stroke="black" points="1484.5,-0 1484.5,-30 1643.5,-30 1643.5,-0 1484.5,-0"/>
<text text-anchor="start" x="1492.5" y="-18" font-family="Helvetica,sans-Serif" font-size="10.00">AP_HAL_FLYMAPLE_NS</text>
<text text-anchor="middle" x="1564" y="-7" font-family="Helvetica,sans-Serif" font-size="10.00">::FLYMAPLEStorage::write_byte</text>
</a>
</g>
</g>
<!-- Node8&#45;&gt;Node9 -->
<g id="edge8" class="edge"><title>Node8&#45;&gt;Node9</title>
<path fill="none" stroke="midnightblue" d="M1449.25,-15C1460.65,-15 1472.59,-15 1484.27,-15"/>
<polygon fill="midnightblue" stroke="midnightblue" points="1448.97,-11.5001 1438.97,-15 1448.97,-18.5001 1448.97,-11.5001"/>
</g>
<!-- Node10 -->
<g id="node10" class="node"><title>Node10</title>
<g id="a_node10"><a xlink:href="$classAP__HAL__FLYMAPLE__NS_1_1FLYMAPLEStorage.html#a3cebced9065ea52b7c7684aed8f3435b" xlink:title="AP_HAL_FLYMAPLE_NS\l::FLYMAPLEStorage::write_block">
<polygon fill="white" stroke="black" points="1680,-0 1680,-30 1844,-30 1844,-0 1680,-0"/>
<text text-anchor="start" x="1688" y="-18" font-family="Helvetica,sans-Serif" font-size="10.00">AP_HAL_FLYMAPLE_NS</text>
<text text-anchor="middle" x="1762" y="-7" font-family="Helvetica,sans-Serif" font-size="10.00">::FLYMAPLEStorage::write_block</text>
</a>
</g>
</g>
<!-- Node9&#45;&gt;Node10 -->
<g id="edge9" class="edge"><title>Node9&#45;&gt;Node10</title>
<path fill="none" stroke="midnightblue" d="M1653.73,-15C1662.43,-15 1671.22,-15 1679.83,-15"/>
<polygon fill="midnightblue" stroke="midnightblue" points="1653.59,-11.5001 1643.59,-15 1653.59,-18.5001 1653.59,-11.5001"/>
</g>
<!-- Node11&#45;&gt;Node8 -->
<g id="edge15" class="edge"><title>Node11&#45;&gt;Node8</title>
<path fill="none" stroke="midnightblue" d="M1227.94,-76.3524C1250.65,-63.9329 1284.82,-46.238 1316,-34 1324.97,-30.4777 1334.87,-27.2625 1344.17,-24.519"/>
<polygon fill="midnightblue" stroke="midnightblue" points="1226,-73.4215 1218.94,-81.3207 1229.39,-79.5487 1226,-73.4215"/>
</g>
<!-- Node12 -->
<g id="node12" class="node"><title>Node12</title>
<g id="a_node12"><a xlink:href="$classAP__HAL__FLYMAPLE__NS_1_1FLYMAPLEStorage.html#a25a3355ea68af27fd28ec211b93ec2ca" xlink:title="AP_HAL_FLYMAPLE_NS\l::FLYMAPLEStorage::init">
<polygon fill="white" stroke="black" points="1316.5,-120 1316.5,-150 1447.5,-150 1447.5,-120 1316.5,-120"/>
<text text-anchor="start" x="1324.5" y="-138" font-family="Helvetica,sans-Serif" font-size="10.00">AP_HAL_FLYMAPLE_NS</text>
<text text-anchor="middle" x="1382" y="-127" font-family="Helvetica,sans-Serif" font-size="10.00">::FLYMAPLEStorage::init</text>
</a>
</g>
</g>
<!-- Node11&#45;&gt;Node12 -->
<g id="edge11" class="edge"><title>Node11&#45;&gt;Node12</title>
<path fill="none" stroke="midnightblue" d="M1250.64,-102.955C1271.93,-108.189 1297.15,-114.389 1319.71,-119.935"/>
<polygon fill="midnightblue" stroke="midnightblue" points="1251.39,-99.5356 1240.84,-100.547 1249.72,-106.333 1251.39,-99.5356"/>
</g>
<!-- Node13 -->
<g id="node13" class="node"><title>Node13</title>
<g id="a_node13"><a xlink:href="$classEEPROMClass.html#aa2aa9b1e1f3f7ec3924aacc22e7de722" xlink:title="EEPROMClass::init">
<polygon fill="white" stroke="black" points="1330,-81.5 1330,-100.5 1434,-100.5 1434,-81.5 1330,-81.5"/>
<text text-anchor="middle" x="1382" y="-88.5" font-family="Helvetica,sans-Serif" font-size="10.00">EEPROMClass::init</text>
</a>
</g>
</g>
<!-- Node11&#45;&gt;Node13 -->
<g id="edge12" class="edge"><title>Node11&#45;&gt;Node13</title>
<path fill="none" stroke="midnightblue" d="M1263.35,-91C1284.96,-91 1309.01,-91 1329.7,-91"/>
<polygon fill="midnightblue" stroke="midnightblue" points="1263.29,-87.5001 1253.29,-91 1263.29,-94.5001 1263.29,-87.5001"/>
</g>
<!-- Node14 -->
<g id="node14" class="node"><title>Node14</title>
<g id="a_node14"><a xlink:href="$classEEPROMClass.html#a7b4057d24e48bfad9b294d5acd9e7b56" xlink:title="Returns the erase counter for current page. ">
<polygon fill="white" stroke="black" points="1321.5,-43.5 1321.5,-62.5 1442.5,-62.5 1442.5,-43.5 1321.5,-43.5"/>
<text text-anchor="middle" x="1382" y="-50.5" font-family="Helvetica,sans-Serif" font-size="10.00">EEPROMClass::erases</text>
</a>
</g>
</g>
<!-- Node11&#45;&gt;Node14 -->
<g id="edge13" class="edge"><title>Node11&#45;&gt;Node14</title>
<path fill="none" stroke="midnightblue" d="M1257.02,-79.319C1282.41,-73.9301 1312.16,-67.6139 1336.16,-62.5201"/>
<polygon fill="midnightblue" stroke="midnightblue" points="1256.22,-75.9106 1247.17,-81.411 1257.68,-82.758 1256.22,-75.9106"/>
</g>
<!-- Node15 -->
<g id="node15" class="node"><title>Node15</title>
<g id="a_node15"><a xlink:href="$classEEPROMClass.html#a039849dd231854ce6b71bb558684d54e" xlink:title="Returns the last stored variable data, if found, which correspond to the passed virtual address...">
<polygon fill="white" stroke="black" points="1327,-207.5 1327,-226.5 1437,-226.5 1437,-207.5 1327,-207.5"/>
<text text-anchor="middle" x="1382" y="-214.5" font-family="Helvetica,sans-Serif" font-size="10.00">EEPROMClass::read</text>
</a>
</g>
</g>
<!-- Node11&#45;&gt;Node15 -->
<g id="edge14" class="edge"><title>Node11&#45;&gt;Node15</title>
<path fill="none" stroke="midnightblue" d="M1215.87,-108.377C1235.65,-132.029 1274.23,-174.135 1316,-198 1322.74,-201.849 1330.32,-204.977 1337.87,-207.498"/>
<polygon fill="midnightblue" stroke="midnightblue" points="1218.51,-106.077 1209.46,-100.566 1213.1,-110.517 1218.51,-106.077"/>
</g>
<!-- Node16 -->
<g id="node16" class="node"><title>Node16</title>
<g id="a_node16"><a xlink:href="$classEEPROMClass.html#a11daf35eb9821e9c9761533f555bb1ed" xlink:title="Return number of variable. ">
<polygon fill="white" stroke="black" points="1324,-169.5 1324,-188.5 1440,-188.5 1440,-169.5 1324,-169.5"/>
<text text-anchor="middle" x="1382" y="-176.5" font-family="Helvetica,sans-Serif" font-size="10.00">EEPROMClass::count</text>
</a>
</g>
</g>
<!-- Node11&#45;&gt;Node16 -->
<g id="edge16" class="edge"><title>Node11&#45;&gt;Node16</title>
<path fill="none" stroke="midnightblue" d="M1224.24,-106.458C1246.61,-121.469 1282.5,-144.113 1316,-159 1324.96,-162.98 1334.94,-166.481 1344.34,-169.396"/>
<polygon fill="midnightblue" stroke="midnightblue" points="1226.04,-103.452 1215.81,-100.728 1222.11,-109.242 1226.04,-103.452"/>
</g>
<!-- Node17&#45;&gt;Node11 -->
<g id="edge19" class="edge"><title>Node17&#45;&gt;Node11</title>
<path fill="none" stroke="midnightblue" d="M1070.66,-78.5888C1096.37,-81.0555 1125.1,-83.8122 1148.93,-86.0998"/>
<polygon fill="midnightblue" stroke="midnightblue" points="1070.89,-75.0948 1060.6,-77.6235 1070.22,-82.0628 1070.89,-75.0948"/>
</g>
<!-- Node18&#45;&gt;Node4 -->
<g id="edge21" class="edge"><title>Node18&#45;&gt;Node4</title>
<path fill="none" stroke="midnightblue" d="M419.565,-99.2201C439.525,-112.18 469.781,-130.614 498,-143 510.974,-148.694 525.713,-153.602 538.86,-157.469"/>
<polygon fill="midnightblue" stroke="midnightblue" points="421.44,-96.2645 411.162,-93.6925 417.593,-102.113 421.44,-96.2645"/>
</g>
<!-- Node18&#45;&gt;Node6 -->
<g id="edge22" class="edge"><title>Node18&#45;&gt;Node6</title>
<path fill="none" stroke="midnightblue" d="M472.407,-77.7474C585.59,-68.3624 798.65,-50.6957 916.431,-40.9295"/>
<polygon fill="midnightblue" stroke="midnightblue" points="471.781,-74.2871 462.104,-78.6016 472.36,-81.2632 471.781,-74.2871"/>
</g>
<!-- Node18&#45;&gt;Node7 -->
<g id="edge23" class="edge"><title>Node18&#45;&gt;Node7</title>
<path fill="none" stroke="midnightblue" d="M442.172,-71.9811C459.528,-67.7025 479.588,-63.1656 498,-60 682.149,-28.3384 729.417,-25.0144 916,-15 985.544,-11.2674 1064.81,-11.6538 1121.89,-12.7501"/>
<polygon fill="midnightblue" stroke="midnightblue" points="441.147,-68.6298 432.299,-74.4582 442.85,-75.4194 441.147,-68.6298"/>
</g>
<!-- Node18&#45;&gt;Node11 -->
<g id="edge25" class="edge"><title>Node18&#45;&gt;Node11</title>
<path fill="none" stroke="midnightblue" d="M454.429,-95.3985C513.663,-106.533 608.86,-122.695 692,-129 866.72,-142.249 912.436,-139.048 1086,-115 1111.34,-111.489 1139.48,-105.587 1161.45,-100.515"/>
<polygon fill="midnightblue" stroke="midnightblue" points="454.996,-91.9437 444.519,-93.5195 453.692,-98.8212 454.996,-91.9437"/>
</g>
<!-- Node18&#45;&gt;Node17 -->
<g id="edge24" class="edge"><title>Node18&#45;&gt;Node17</title>
<path fill="none" stroke="midnightblue" d="M472.45,-82.4985C594.202,-80.0756 831.446,-75.3543 941.424,-73.1657"/>
<polygon fill="midnightblue" stroke="midnightblue" points="472.033,-79.006 462.104,-82.7044 472.172,-86.0046 472.033,-79.006"/>
</g>
</g>
</svg>
