<?xml version="1.0" encoding="UTF-8" standalone="no"?>
<!DOCTYPE svg PUBLIC "-//W3C//DTD SVG 1.1//EN"
 "http://www.w3.org/Graphics/SVG/1.1/DTD/svg11.dtd">
<!-- Generated by graphviz version 2.36.0 (20140111.2315)
 -->
<!-- Title: loop Pages: 1 -->
<svg width="352pt" height="153pt"
 viewBox="0.00 0.00 352.00 153.00" xmlns="http://www.w3.org/2000/svg" xmlns:xlink="http://www.w3.org/1999/xlink">
<g id="graph0" class="graph" transform="scale(1 1) rotate(0) translate(4 149)">
<title>loop</title>
<polygon fill="white" stroke="none" points="-4,4 -4,-149 348,-149 348,4 -4,4"/>
<!-- Node1 -->
<g id="node1" class="node"><title>Node1</title>
<polygon fill="#bfbfbf" stroke="black" points="0.5,-68.5 0.5,-87.5 35.5,-87.5 35.5,-68.5 0.5,-68.5"/>
<text text-anchor="middle" x="18" y="-75.5" font-family="Helvetica,sans-Serif" font-size="10.00">loop</text>
</g>
<!-- Node2 -->
<g id="node2" class="node"><title>Node2</title>
<g id="a_node2"><a xlink:href="$classAP__HAL_1_1GPIO.html#a2b0664bdab1876e3b0bbcd9064eec88e" xlink:title="AP_HAL::GPIO::write">
<polygon fill="white" stroke="black" points="72.5,-125.5 72.5,-144.5 185.5,-144.5 185.5,-125.5 72.5,-125.5"/>
<text text-anchor="middle" x="129" y="-132.5" font-family="Helvetica,sans-Serif" font-size="10.00">AP_HAL::GPIO::write</text>
</a>
</g>
</g>
<!-- Node1&#45;&gt;Node2 -->
<g id="edge1" class="edge"><title>Node1&#45;&gt;Node2</title>
<path fill="none" stroke="midnightblue" d="M30.5551,-87.8253C40.8779,-96.2141 56.6923,-108.136 72,-116 76.0652,-118.088 80.4099,-120.025 84.814,-121.799"/>
<polygon fill="midnightblue" stroke="midnightblue" points="83.8724,-125.184 94.4646,-125.421 86.3319,-118.631 83.8724,-125.184"/>
</g>
<!-- Node3 -->
<g id="node3" class="node"><title>Node3</title>
<g id="a_node3"><a xlink:href="$FLYMAPLE_2examples_2RCInput_2RCInput_8pde.html#a3386c13c098492e383d289443c48e1c0" xlink:title="multiread">
<polygon fill="white" stroke="black" points="101,-87.5 101,-106.5 157,-106.5 157,-87.5 101,-87.5"/>
<text text-anchor="middle" x="129" y="-94.5" font-family="Helvetica,sans-Serif" font-size="10.00">multiread</text>
</a>
</g>
</g>
<!-- Node1&#45;&gt;Node3 -->
<g id="edge2" class="edge"><title>Node1&#45;&gt;Node3</title>
<path fill="none" stroke="midnightblue" d="M35.5548,-80.8857C50.1272,-83.4258 71.8851,-87.2185 90.6322,-90.4863"/>
<polygon fill="midnightblue" stroke="midnightblue" points="90.2202,-93.9672 100.673,-92.2365 91.4223,-87.0712 90.2202,-93.9672"/>
</g>
<!-- Node6 -->
<g id="node6" class="node"><title>Node6</title>
<g id="a_node6"><a xlink:href="$FLYMAPLE_2examples_2RCInput_2RCInput_8pde.html#aeb998f1761a28e512e2dcbc829983e06" xlink:title="individualread">
<polygon fill="white" stroke="black" points="91,-49.5 91,-68.5 167,-68.5 167,-49.5 91,-49.5"/>
<text text-anchor="middle" x="129" y="-56.5" font-family="Helvetica,sans-Serif" font-size="10.00">individualread</text>
</a>
</g>
</g>
<!-- Node1&#45;&gt;Node6 -->
<g id="edge5" class="edge"><title>Node1&#45;&gt;Node6</title>
<path fill="none" stroke="midnightblue" d="M35.5548,-75.1143C47.6873,-72.9995 64.8006,-70.0164 81.0102,-67.1909"/>
<polygon fill="midnightblue" stroke="midnightblue" points="81.6832,-70.6264 90.9336,-65.4611 80.4811,-63.7304 81.6832,-70.6264"/>
</g>
<!-- Node7 -->
<g id="node7" class="node"><title>Node7</title>
<g id="a_node7"><a xlink:href="$classAP__HAL_1_1Scheduler.html#ab3175e2e6223ccfe82f957e41cc12b26" xlink:title="AP_HAL::Scheduler::\ldelay">
<polygon fill="white" stroke="black" points="74,-0 74,-30 184,-30 184,-0 74,-0"/>
<text text-anchor="start" x="82" y="-18" font-family="Helvetica,sans-Serif" font-size="10.00">AP_HAL::Scheduler::</text>
<text text-anchor="middle" x="129" y="-7" font-family="Helvetica,sans-Serif" font-size="10.00">delay</text>
</a>
</g>
</g>
<!-- Node1&#45;&gt;Node7 -->
<g id="edge8" class="edge"><title>Node1&#45;&gt;Node7</title>
<path fill="none" stroke="midnightblue" d="M31.1589,-68.1978C41.6055,-60.0461 57.2698,-48.4526 72,-40 75.2379,-38.142 78.6393,-36.324 82.0988,-34.5698"/>
<polygon fill="midnightblue" stroke="midnightblue" points="83.8528,-37.609 91.3192,-30.0922 80.7948,-31.3122 83.8528,-37.609"/>
</g>
<!-- Node4 -->
<g id="node4" class="node"><title>Node4</title>
<g id="a_node4"><a xlink:href="$classAP__HAL_1_1RCInput.html#a0b019ac5120129c29cdb239576694a85" xlink:title="AP_HAL::RCInput::new\l_input">
<polygon fill="white" stroke="black" points="222,-85 222,-115 344,-115 344,-85 222,-85"/>
<text text-anchor="start" x="230" y="-103" font-family="Helvetica,sans-Serif" font-size="10.00">AP_HAL::RCInput::new</text>
<text text-anchor="middle" x="283" y="-92" font-family="Helvetica,sans-Serif" font-size="10.00">_input</text>
</a>
</g>
</g>
<!-- Node3&#45;&gt;Node4 -->
<g id="edge3" class="edge"><title>Node3&#45;&gt;Node4</title>
<path fill="none" stroke="midnightblue" d="M157.175,-97.5363C172.518,-97.8392 192.465,-98.2329 211.895,-98.6164"/>
<polygon fill="midnightblue" stroke="midnightblue" points="211.915,-102.117 221.982,-98.8154 212.053,-95.1187 211.915,-102.117"/>
</g>
<!-- Node5 -->
<g id="node5" class="node"><title>Node5</title>
<g id="a_node5"><a xlink:href="$classAP__HAL_1_1RCInput.html#a078fd7e6d2e6a899009ec674a8e03498" xlink:title="AP_HAL::RCInput::read">
<polygon fill="white" stroke="black" points="222,-46.5 222,-65.5 344,-65.5 344,-46.5 222,-46.5"/>
<text text-anchor="middle" x="283" y="-53.5" font-family="Helvetica,sans-Serif" font-size="10.00">AP_HAL::RCInput::read</text>
</a>
</g>
</g>
<!-- Node3&#45;&gt;Node5 -->
<g id="edge4" class="edge"><title>Node3&#45;&gt;Node5</title>
<path fill="none" stroke="midnightblue" d="M157.175,-89.67C179.262,-83.7121 210.892,-75.1805 236.784,-68.1963"/>
<polygon fill="midnightblue" stroke="midnightblue" points="238.013,-71.49 246.757,-65.5065 236.19,-64.7316 238.013,-71.49"/>
</g>
<!-- Node6&#45;&gt;Node4 -->
<g id="edge6" class="edge"><title>Node6&#45;&gt;Node4</title>
<path fill="none" stroke="midnightblue" d="M165.254,-68.5093C180.497,-72.621 198.845,-77.5702 216.434,-82.3144"/>
<polygon fill="midnightblue" stroke="midnightblue" points="215.536,-85.6972 226.102,-84.9223 217.359,-78.9387 215.536,-85.6972"/>
</g>
<!-- Node6&#45;&gt;Node5 -->
<g id="edge7" class="edge"><title>Node6&#45;&gt;Node5</title>
<path fill="none" stroke="midnightblue" d="M167.183,-58.2661C180.665,-58 196.375,-57.69 211.768,-57.3862"/>
<polygon fill="midnightblue" stroke="midnightblue" points="211.882,-60.8847 221.81,-57.188 211.743,-53.8861 211.882,-60.8847"/>
</g>
</g>
</svg>
