<?xml version="1.0" encoding="UTF-8" standalone="no"?>
<!DOCTYPE svg PUBLIC "-//W3C//DTD SVG 1.1//EN"
 "http://www.w3.org/Graphics/SVG/1.1/DTD/svg11.dtd">
<!-- Generated by graphviz version 2.36.0 (20140111.2315)
 -->
<!-- Title: libraries/AP_HAL_FLYMAPLE/FlymapleWirish.h Pages: 1 -->
<svg width="1826pt" height="108pt"
 viewBox="0.00 0.00 1826.00 108.00" xmlns="http://www.w3.org/2000/svg" xmlns:xlink="http://www.w3.org/1999/xlink">
<g id="graph0" class="graph" transform="scale(1 1) rotate(0) translate(4 104)">
<title>libraries/AP_HAL_FLYMAPLE/FlymapleWirish.h</title>
<polygon fill="white" stroke="none" points="-4,4 -4,-104 1822,-104 1822,4 -4,4"/>
<!-- Node1 -->
<g id="node1" class="node"><title>Node1</title>
<polygon fill="#bfbfbf" stroke="black" points="834.5,-69 834.5,-99 983.5,-99 983.5,-69 834.5,-69"/>
<text text-anchor="start" x="842.5" y="-87" font-family="Helvetica,sans-Serif" font-size="10.00">libraries/AP_HAL_FLYMAPLE</text>
<text text-anchor="middle" x="909" y="-76" font-family="Helvetica,sans-Serif" font-size="10.00">/FlymapleWirish.h</text>
</g>
<!-- Node2 -->
<g id="node2" class="node"><title>Node2</title>
<g id="a_node2"><a xlink:href="$AP__HAL__FLYMAPLE_2AnalogIn_8cpp.html" xlink:title="libraries/AP_HAL_FLYMAPLE\l/AnalogIn.cpp">
<polygon fill="white" stroke="black" points="-0.5,-1 -0.5,-31 148.5,-31 148.5,-1 -0.5,-1"/>
<text text-anchor="start" x="7.5" y="-19" font-family="Helvetica,sans-Serif" font-size="10.00">libraries/AP_HAL_FLYMAPLE</text>
<text text-anchor="middle" x="74" y="-8" font-family="Helvetica,sans-Serif" font-size="10.00">/AnalogIn.cpp</text>
</a>
</g>
</g>
<!-- Node1&#45;&gt;Node2 -->
<g id="edge1" class="edge"><title>Node1&#45;&gt;Node2</title>
<path fill="none" stroke="midnightblue" d="M824.088,-80.3152C684.473,-75.2124 397.874,-61.84 157,-32 154.239,-31.6579 151.43,-31.284 148.597,-30.8849"/>
<polygon fill="midnightblue" stroke="midnightblue" points="824.171,-83.8204 834.29,-80.6829 824.423,-76.8249 824.171,-83.8204"/>
</g>
<!-- Node3 -->
<g id="node3" class="node"><title>Node3</title>
<g id="a_node3"><a xlink:href="$AnalogSource_8cpp.html" xlink:title="libraries/AP_HAL_FLYMAPLE\l/AnalogSource.cpp">
<polygon fill="white" stroke="black" points="166.5,-1 166.5,-31 315.5,-31 315.5,-1 166.5,-1"/>
<text text-anchor="start" x="174.5" y="-19" font-family="Helvetica,sans-Serif" font-size="10.00">libraries/AP_HAL_FLYMAPLE</text>
<text text-anchor="middle" x="241" y="-8" font-family="Helvetica,sans-Serif" font-size="10.00">/AnalogSource.cpp</text>
</a>
</g>
</g>
<!-- Node1&#45;&gt;Node3 -->
<g id="edge2" class="edge"><title>Node1&#45;&gt;Node3</title>
<path fill="none" stroke="midnightblue" d="M824.362,-78.0688C710.358,-70.8685 501.295,-55.698 324,-32 321.242,-31.6314 318.437,-31.2349 315.606,-30.8166"/>
<polygon fill="midnightblue" stroke="midnightblue" points="824.222,-81.5668 834.421,-78.699 824.659,-74.5805 824.222,-81.5668"/>
</g>
<!-- Node4 -->
<g id="node4" class="node"><title>Node4</title>
<g id="a_node4"><a xlink:href="$AP__HAL__FLYMAPLE_2GPIO_8cpp.html" xlink:title="libraries/AP_HAL_FLYMAPLE\l/GPIO.cpp">
<polygon fill="white" stroke="black" points="333.5,-1 333.5,-31 482.5,-31 482.5,-1 333.5,-1"/>
<text text-anchor="start" x="341.5" y="-19" font-family="Helvetica,sans-Serif" font-size="10.00">libraries/AP_HAL_FLYMAPLE</text>
<text text-anchor="middle" x="408" y="-8" font-family="Helvetica,sans-Serif" font-size="10.00">/GPIO.cpp</text>
</a>
</g>
</g>
<!-- Node1&#45;&gt;Node4 -->
<g id="edge3" class="edge"><title>Node1&#45;&gt;Node4</title>
<path fill="none" stroke="midnightblue" d="M824.384,-74.1172C739.807,-64.8999 606.133,-49.4126 491,-32 488.249,-31.584 485.449,-31.147 482.623,-30.6946"/>
<polygon fill="midnightblue" stroke="midnightblue" points="824.131,-77.6102 834.45,-75.2099 824.886,-70.6511 824.131,-77.6102"/>
</g>
<!-- Node5 -->
<g id="node5" class="node"><title>Node5</title>
<g id="a_node5"><a xlink:href="$AP__HAL__FLYMAPLE_2I2CDriver_8cpp.html" xlink:title="libraries/AP_HAL_FLYMAPLE\l/I2CDriver.cpp">
<polygon fill="white" stroke="black" points="500.5,-1 500.5,-31 649.5,-31 649.5,-1 500.5,-1"/>
<text text-anchor="start" x="508.5" y="-19" font-family="Helvetica,sans-Serif" font-size="10.00">libraries/AP_HAL_FLYMAPLE</text>
<text text-anchor="middle" x="575" y="-8" font-family="Helvetica,sans-Serif" font-size="10.00">/I2CDriver.cpp</text>
</a>
</g>
</g>
<!-- Node1&#45;&gt;Node5 -->
<g id="edge4" class="edge"><title>Node1&#45;&gt;Node5</title>
<path fill="none" stroke="midnightblue" d="M827.605,-66.9159C772.103,-55.9485 699.312,-41.5646 646.132,-31.0561"/>
<polygon fill="midnightblue" stroke="midnightblue" points="827.269,-70.4173 837.758,-68.9223 828.627,-63.5501 827.269,-70.4173"/>
</g>
<!-- Node6 -->
<g id="node6" class="node"><title>Node6</title>
<g id="a_node6"><a xlink:href="$AP__HAL__FLYMAPLE_2RCInput_8cpp.html" xlink:title="libraries/AP_HAL_FLYMAPLE\l/RCInput.cpp">
<polygon fill="white" stroke="black" points="667.5,-1 667.5,-31 816.5,-31 816.5,-1 667.5,-1"/>
<text text-anchor="start" x="675.5" y="-19" font-family="Helvetica,sans-Serif" font-size="10.00">libraries/AP_HAL_FLYMAPLE</text>
<text text-anchor="middle" x="742" y="-8" font-family="Helvetica,sans-Serif" font-size="10.00">/RCInput.cpp</text>
</a>
</g>
</g>
<!-- Node1&#45;&gt;Node6 -->
<g id="edge5" class="edge"><title>Node1&#45;&gt;Node6</title>
<path fill="none" stroke="midnightblue" d="M863.533,-65.0308C836.45,-54.3276 802.58,-40.9417 777.479,-31.0218"/>
<polygon fill="midnightblue" stroke="midnightblue" points="862.588,-68.4208 873.174,-68.8413 865.161,-61.9108 862.588,-68.4208"/>
</g>
<!-- Node7 -->
<g id="node7" class="node"><title>Node7</title>
<g id="a_node7"><a xlink:href="$AP__HAL__FLYMAPLE_2RCOutput_8cpp.html" xlink:title="libraries/AP_HAL_FLYMAPLE\l/RCOutput.cpp">
<polygon fill="white" stroke="black" points="834.5,-1 834.5,-31 983.5,-31 983.5,-1 834.5,-1"/>
<text text-anchor="start" x="842.5" y="-19" font-family="Helvetica,sans-Serif" font-size="10.00">libraries/AP_HAL_FLYMAPLE</text>
<text text-anchor="middle" x="909" y="-8" font-family="Helvetica,sans-Serif" font-size="10.00">/RCOutput.cpp</text>
</a>
</g>
</g>
<!-- Node1&#45;&gt;Node7 -->
<g id="edge6" class="edge"><title>Node1&#45;&gt;Node7</title>
<path fill="none" stroke="midnightblue" d="M909,-58.5322C909,-49.3606 909,-39.2449 909,-31.2931"/>
<polygon fill="midnightblue" stroke="midnightblue" points="905.5,-58.6789 909,-68.679 912.5,-58.679 905.5,-58.6789"/>
</g>
<!-- Node8 -->
<g id="node8" class="node"><title>Node8</title>
<g id="a_node8"><a xlink:href="$AP__HAL__FLYMAPLE_2Scheduler_8cpp.html" xlink:title="libraries/AP_HAL_FLYMAPLE\l/Scheduler.cpp">
<polygon fill="white" stroke="black" points="1001.5,-1 1001.5,-31 1150.5,-31 1150.5,-1 1001.5,-1"/>
<text text-anchor="start" x="1009.5" y="-19" font-family="Helvetica,sans-Serif" font-size="10.00">libraries/AP_HAL_FLYMAPLE</text>
<text text-anchor="middle" x="1076" y="-8" font-family="Helvetica,sans-Serif" font-size="10.00">/Scheduler.cpp</text>
</a>
</g>
</g>
<!-- Node1&#45;&gt;Node8 -->
<g id="edge7" class="edge"><title>Node1&#45;&gt;Node8</title>
<path fill="none" stroke="midnightblue" d="M954.467,-65.0308C981.55,-54.3276 1015.42,-40.9417 1040.52,-31.0218"/>
<polygon fill="midnightblue" stroke="midnightblue" points="952.839,-61.9108 944.826,-68.8413 955.412,-68.4208 952.839,-61.9108"/>
</g>
<!-- Node9 -->
<g id="node9" class="node"><title>Node9</title>
<g id="a_node9"><a xlink:href="$AP__HAL__FLYMAPLE_2Semaphores_8cpp.html" xlink:title="libraries/AP_HAL_FLYMAPLE\l/Semaphores.cpp">
<polygon fill="white" stroke="black" points="1168.5,-1 1168.5,-31 1317.5,-31 1317.5,-1 1168.5,-1"/>
<text text-anchor="start" x="1176.5" y="-19" font-family="Helvetica,sans-Serif" font-size="10.00">libraries/AP_HAL_FLYMAPLE</text>
<text text-anchor="middle" x="1243" y="-8" font-family="Helvetica,sans-Serif" font-size="10.00">/Semaphores.cpp</text>
</a>
</g>
</g>
<!-- Node1&#45;&gt;Node9 -->
<g id="edge8" class="edge"><title>Node1&#45;&gt;Node9</title>
<path fill="none" stroke="midnightblue" d="M990.395,-66.9159C1045.9,-55.9485 1118.69,-41.5646 1171.87,-31.0561"/>
<polygon fill="midnightblue" stroke="midnightblue" points="989.373,-63.5501 980.242,-68.9223 990.731,-70.4173 989.373,-63.5501"/>
</g>
<!-- Node10 -->
<g id="node10" class="node"><title>Node10</title>
<g id="a_node10"><a xlink:href="$AP__HAL__FLYMAPLE_2SPIDriver_8cpp.html" xlink:title="libraries/AP_HAL_FLYMAPLE\l/SPIDriver.cpp">
<polygon fill="white" stroke="black" points="1335.5,-1 1335.5,-31 1484.5,-31 1484.5,-1 1335.5,-1"/>
<text text-anchor="start" x="1343.5" y="-19" font-family="Helvetica,sans-Serif" font-size="10.00">libraries/AP_HAL_FLYMAPLE</text>
<text text-anchor="middle" x="1410" y="-8" font-family="Helvetica,sans-Serif" font-size="10.00">/SPIDriver.cpp</text>
</a>
</g>
</g>
<!-- Node1&#45;&gt;Node10 -->
<g id="edge9" class="edge"><title>Node1&#45;&gt;Node10</title>
<path fill="none" stroke="midnightblue" d="M993.788,-74.0135C1078.18,-64.7441 1211.3,-49.2424 1326,-32 1329.08,-31.5376 1332.21,-31.05 1335.38,-30.5447"/>
<polygon fill="midnightblue" stroke="midnightblue" points="993.302,-70.5456 983.742,-75.1127 994.064,-77.5041 993.302,-70.5456"/>
</g>
<!-- Node11 -->
<g id="node11" class="node"><title>Node11</title>
<g id="a_node11"><a xlink:href="$AP__HAL__FLYMAPLE_2Storage_8cpp.html" xlink:title="libraries/AP_HAL_FLYMAPLE\l/Storage.cpp">
<polygon fill="white" stroke="black" points="1502.5,-1 1502.5,-31 1651.5,-31 1651.5,-1 1502.5,-1"/>
<text text-anchor="start" x="1510.5" y="-19" font-family="Helvetica,sans-Serif" font-size="10.00">libraries/AP_HAL_FLYMAPLE</text>
<text text-anchor="middle" x="1577" y="-8" font-family="Helvetica,sans-Serif" font-size="10.00">/Storage.cpp</text>
</a>
</g>
</g>
<!-- Node1&#45;&gt;Node11 -->
<g id="edge10" class="edge"><title>Node1&#45;&gt;Node11</title>
<path fill="none" stroke="midnightblue" d="M993.959,-77.9758C1107.86,-70.6932 1316.23,-55.4539 1493,-32 1496.08,-31.5908 1499.23,-31.1479 1502.4,-30.6794"/>
<polygon fill="midnightblue" stroke="midnightblue" points="993.665,-74.4873 983.907,-78.6134 994.109,-81.4732 993.665,-74.4873"/>
</g>
<!-- Node12 -->
<g id="node12" class="node"><title>Node12</title>
<g id="a_node12"><a xlink:href="$FLYMAPLE_2UARTDriver_8cpp.html" xlink:title="libraries/AP_HAL_FLYMAPLE\l/UARTDriver.cpp">
<polygon fill="white" stroke="black" points="1669.5,-1 1669.5,-31 1818.5,-31 1818.5,-1 1669.5,-1"/>
<text text-anchor="start" x="1677.5" y="-19" font-family="Helvetica,sans-Serif" font-size="10.00">libraries/AP_HAL_FLYMAPLE</text>
<text text-anchor="middle" x="1744" y="-8" font-family="Helvetica,sans-Serif" font-size="10.00">/UARTDriver.cpp</text>
</a>
</g>
</g>
<!-- Node1&#45;&gt;Node12 -->
<g id="edge11" class="edge"><title>Node1&#45;&gt;Node12</title>
<path fill="none" stroke="midnightblue" d="M993.792,-80.2516C1133.21,-75.0584 1419.42,-61.5606 1660,-32 1663.09,-31.6206 1666.23,-31.2025 1669.41,-30.7547"/>
<polygon fill="midnightblue" stroke="midnightblue" points="993.469,-76.7611 983.604,-80.626 993.726,-83.7563 993.469,-76.7611"/>
</g>
</g>
</svg>
