<?xml version="1.0" encoding="UTF-8" standalone="no"?>
<!DOCTYPE svg PUBLIC "-//W3C//DTD SVG 1.1//EN"
 "http://www.w3.org/Graphics/SVG/1.1/DTD/svg11.dtd">
<!-- Generated by graphviz version 2.36.0 (20140111.2315)
 -->
<!-- Title: comm_receive_ch Pages: 1 -->
<svg width="336pt" height="66pt"
 viewBox="0.00 0.00 336.00 66.00" xmlns="http://www.w3.org/2000/svg" xmlns:xlink="http://www.w3.org/1999/xlink">
<g id="graph0" class="graph" transform="scale(1 1) rotate(0) translate(4 62)">
<title>comm_receive_ch</title>
<polygon fill="white" stroke="none" points="-4,4 -4,-62 332,-62 332,4 -4,4"/>
<!-- Node1 -->
<g id="node1" class="node"><title>Node1</title>
<polygon fill="#bfbfbf" stroke="black" points="0,-19.5 0,-38.5 96,-38.5 96,-19.5 0,-19.5"/>
<text text-anchor="middle" x="48" y="-26.5" font-family="Helvetica,sans-Serif" font-size="10.00">comm_receive_ch</text>
</g>
<!-- Node2 -->
<g id="node2" class="node"><title>Node2</title>
<g id="a_node2"><a xlink:href="$simplegcs_8h.html#a0e026fc9b23210373846b25cc141486d" xlink:title="simplegcs_update">
<polygon fill="white" stroke="black" points="146.5,-38.5 146.5,-57.5 241.5,-57.5 241.5,-38.5 146.5,-38.5"/>
<text text-anchor="middle" x="194" y="-45.5" font-family="Helvetica,sans-Serif" font-size="10.00">simplegcs_update</text>
</a>
</g>
</g>
<!-- Node1&#45;&gt;Node2 -->
<g id="edge1" class="edge"><title>Node1&#45;&gt;Node2</title>
<path fill="none" stroke="midnightblue" d="M106.149,-36.5405C119.445,-38.2949 133.448,-40.1424 146.235,-41.8296"/>
<polygon fill="midnightblue" stroke="midnightblue" points="106.523,-33.0596 96.151,-35.2213 105.607,-39.9994 106.523,-33.0596"/>
</g>
<!-- Node4 -->
<g id="node4" class="node"><title>Node4</title>
<g id="a_node4"><a xlink:href="$classGCS__MAVLINK.html#a7d8788ed53976a200971612229fe2533" xlink:title="GCS_MAVLINK::update">
<polygon fill="white" stroke="black" points="132.5,-0.5 132.5,-19.5 255.5,-19.5 255.5,-0.5 132.5,-0.5"/>
<text text-anchor="middle" x="194" y="-7.5" font-family="Helvetica,sans-Serif" font-size="10.00">GCS_MAVLINK::update</text>
</a>
</g>
</g>
<!-- Node1&#45;&gt;Node4 -->
<g id="edge3" class="edge"><title>Node1&#45;&gt;Node4</title>
<path fill="none" stroke="midnightblue" d="M106.109,-21.4648C114.736,-20.3265 123.66,-19.149 132.358,-18.0014"/>
<polygon fill="midnightblue" stroke="midnightblue" points="105.607,-18.0006 96.151,-22.7787 106.523,-24.9404 105.607,-18.0006"/>
</g>
<!-- Node3 -->
<g id="node3" class="node"><title>Node3</title>
<g id="a_node3"><a xlink:href="$GCS__Console_2examples_2Console_2Console_8pde.html#a0b33edabd7f1c4e4a0bf32c67269be2f" xlink:title="loop">
<polygon fill="white" stroke="black" points="292.5,-38.5 292.5,-57.5 327.5,-57.5 327.5,-38.5 292.5,-38.5"/>
<text text-anchor="middle" x="310" y="-45.5" font-family="Helvetica,sans-Serif" font-size="10.00">loop</text>
</a>
</g>
</g>
<!-- Node2&#45;&gt;Node3 -->
<g id="edge2" class="edge"><title>Node2&#45;&gt;Node3</title>
<path fill="none" stroke="midnightblue" d="M251.896,-48C266.702,-48 281.517,-48 292.345,-48"/>
<polygon fill="midnightblue" stroke="midnightblue" points="251.697,-44.5001 241.697,-48 251.697,-51.5001 251.697,-44.5001"/>
</g>
</g>
</svg>
