<?xml version="1.0" encoding="UTF-8" standalone="no"?>
<!DOCTYPE svg PUBLIC "-//W3C//DTD SVG 1.1//EN"
 "http://www.w3.org/Graphics/SVG/1.1/DTD/svg11.dtd">
<!-- Generated by graphviz version 2.36.0 (20140111.2315)
 -->
<!-- Title: hal_px4_set_priority Pages: 1 -->
<svg width="536pt" height="142pt"
 viewBox="0.00 0.00 536.00 142.00" xmlns="http://www.w3.org/2000/svg" xmlns:xlink="http://www.w3.org/1999/xlink">
<g id="graph0" class="graph" transform="scale(1 1) rotate(0) translate(4 138)">
<title>hal_px4_set_priority</title>
<polygon fill="white" stroke="none" points="-4,4 -4,-138 532,-138 532,4 -4,4"/>
<!-- Node1 -->
<g id="node1" class="node"><title>Node1</title>
<polygon fill="#bfbfbf" stroke="black" points="0,-57.5 0,-76.5 104,-76.5 104,-57.5 0,-57.5"/>
<text text-anchor="middle" x="52" y="-64.5" font-family="Helvetica,sans-Serif" font-size="10.00">hal_px4_set_priority</text>
</g>
<!-- Node2 -->
<g id="node2" class="node"><title>Node2</title>
<g id="a_node2"><a xlink:href="$HAL__PX4__Class_8cpp.html#a40474356ac2f5b07b6f59d651681b740" xlink:title="loop_overtime">
<polygon fill="white" stroke="black" points="151.5,-114.5 151.5,-133.5 228.5,-133.5 228.5,-114.5 151.5,-114.5"/>
<text text-anchor="middle" x="190" y="-121.5" font-family="Helvetica,sans-Serif" font-size="10.00">loop_overtime</text>
</a>
</g>
</g>
<!-- Node1&#45;&gt;Node2 -->
<g id="edge1" class="edge"><title>Node1&#45;&gt;Node2</title>
<path fill="none" stroke="midnightblue" d="M85.1611,-80.4793C110.074,-90.9208 143.973,-105.129 166.162,-114.428"/>
<polygon fill="midnightblue" stroke="midnightblue" points="86.339,-77.178 75.7633,-76.5405 83.6332,-83.6339 86.339,-77.178"/>
</g>
<!-- Node3 -->
<g id="node3" class="node"><title>Node3</title>
<g id="a_node3"><a xlink:href="$HAL__PX4__Class_8cpp.html#a9bd6e6ad19a651d2c83ab3edb8d51924" xlink:title="main_loop">
<polygon fill="white" stroke="black" points="313.5,-87.5 313.5,-106.5 374.5,-106.5 374.5,-87.5 313.5,-87.5"/>
<text text-anchor="middle" x="344" y="-94.5" font-family="Helvetica,sans-Serif" font-size="10.00">main_loop</text>
</a>
</g>
</g>
<!-- Node1&#45;&gt;Node3 -->
<g id="edge4" class="edge"><title>Node1&#45;&gt;Node3</title>
<path fill="none" stroke="midnightblue" d="M114.459,-73.3578C175.513,-79.6737 266.557,-89.0921 313.162,-93.9133"/>
<polygon fill="midnightblue" stroke="midnightblue" points="114.486,-69.842 104.179,-72.2943 113.765,-76.8048 114.486,-69.842"/>
</g>
<!-- Node5 -->
<g id="node5" class="node"><title>Node5</title>
<g id="a_node5"><a xlink:href="$AP__HAL__PX4_2Scheduler_8cpp.html#a89d08a7ad0653f3222b479fe73d3399a" xlink:title="sem_post_boost">
<polygon fill="white" stroke="black" points="145.5,-38.5 145.5,-57.5 234.5,-57.5 234.5,-38.5 145.5,-38.5"/>
<text text-anchor="middle" x="190" y="-45.5" font-family="Helvetica,sans-Serif" font-size="10.00">sem_post_boost</text>
</a>
</g>
</g>
<!-- Node1&#45;&gt;Node5 -->
<g id="edge5" class="edge"><title>Node1&#45;&gt;Node5</title>
<path fill="none" stroke="midnightblue" d="M114.022,-58.4749C124.552,-57.0038 135.307,-55.5012 145.264,-54.1102"/>
<polygon fill="midnightblue" stroke="midnightblue" points="113.448,-55.021 104.028,-59.871 114.416,-61.9537 113.448,-55.021"/>
</g>
<!-- Node7 -->
<g id="node7" class="node"><title>Node7</title>
<g id="a_node7"><a xlink:href="$AP__HAL__PX4_2Scheduler_8cpp.html#a0b35fd667b5bbd34d3588f2c4105c8d9" xlink:title="set_normal_priority">
<polygon fill="white" stroke="black" points="140.5,-0.5 140.5,-19.5 239.5,-19.5 239.5,-0.5 140.5,-0.5"/>
<text text-anchor="middle" x="190" y="-7.5" font-family="Helvetica,sans-Serif" font-size="10.00">set_normal_priority</text>
</a>
</g>
</g>
<!-- Node1&#45;&gt;Node7 -->
<g id="edge7" class="edge"><title>Node1&#45;&gt;Node7</title>
<path fill="none" stroke="midnightblue" d="M83.5797,-53.2699C100.196,-45.9037 121.146,-36.7687 140,-29 147.677,-25.8367 156.087,-22.5216 163.74,-19.5622"/>
<polygon fill="midnightblue" stroke="midnightblue" points="82.0588,-50.1158 74.3454,-57.379 84.9046,-56.5112 82.0588,-50.1158"/>
</g>
<!-- Node2&#45;&gt;Node3 -->
<g id="edge2" class="edge"><title>Node2&#45;&gt;Node3</title>
<path fill="none" stroke="midnightblue" d="M238.421,-115.577C262.968,-111.216 292.171,-106.029 313.47,-102.245"/>
<polygon fill="midnightblue" stroke="midnightblue" points="237.807,-112.131 228.573,-117.326 239.031,-119.023 237.807,-112.131"/>
</g>
<!-- Node4 -->
<g id="node4" class="node"><title>Node4</title>
<g id="a_node4"><a xlink:href="$classHAL__PX4.html#aa30a8fe0c2c42ede8ced6fc21e1c748a" xlink:title="HAL_PX4::init">
<polygon fill="white" stroke="black" points="448.5,-87.5 448.5,-106.5 527.5,-106.5 527.5,-87.5 448.5,-87.5"/>
<text text-anchor="middle" x="488" y="-94.5" font-family="Helvetica,sans-Serif" font-size="10.00">HAL_PX4::init</text>
</a>
</g>
</g>
<!-- Node3&#45;&gt;Node4 -->
<g id="edge3" class="edge"><title>Node3&#45;&gt;Node4</title>
<path fill="none" stroke="midnightblue" d="M385.027,-97C404.865,-97 428.716,-97 448.361,-97"/>
<polygon fill="midnightblue" stroke="midnightblue" points="384.768,-93.5001 374.768,-97 384.768,-100.5 384.768,-93.5001"/>
</g>
<!-- Node6 -->
<g id="node6" class="node"><title>Node6</title>
<g id="a_node6"><a xlink:href="$classPX4_1_1PX4Scheduler.html#a9c3c85945b3b9f6e5867efd79c9920fc" xlink:title="PX4::PX4Scheduler::\ldelay_microseconds_boost">
<polygon fill="white" stroke="black" points="276.5,-22 276.5,-52 411.5,-52 411.5,-22 276.5,-22"/>
<text text-anchor="start" x="284.5" y="-40" font-family="Helvetica,sans-Serif" font-size="10.00">PX4::PX4Scheduler::</text>
<text text-anchor="middle" x="344" y="-29" font-family="Helvetica,sans-Serif" font-size="10.00">delay_microseconds_boost</text>
</a>
</g>
</g>
<!-- Node5&#45;&gt;Node6 -->
<g id="edge6" class="edge"><title>Node5&#45;&gt;Node6</title>
<path fill="none" stroke="midnightblue" d="M244.624,-44.1193C254.924,-43.3739 265.825,-42.585 276.475,-41.8143"/>
<polygon fill="midnightblue" stroke="midnightblue" points="244.278,-40.6351 234.557,-44.8478 244.784,-47.6168 244.278,-40.6351"/>
</g>
<!-- Node7&#45;&gt;Node6 -->
<g id="edge8" class="edge"><title>Node7&#45;&gt;Node6</title>
<path fill="none" stroke="midnightblue" d="M249.618,-20.4124C258.38,-21.9687 267.467,-23.583 276.38,-25.1662"/>
<polygon fill="midnightblue" stroke="midnightblue" points="249.97,-16.9202 239.512,-18.6172 248.745,-23.8123 249.97,-16.9202"/>
</g>
</g>
</svg>
