<?xml version="1.0" encoding="UTF-8" standalone="no"?>
<!DOCTYPE svg PUBLIC "-//W3C//DTD SVG 1.1//EN"
 "http://www.w3.org/Graphics/SVG/1.1/DTD/svg11.dtd">
<!-- Generated by graphviz version 2.36.0 (20140111.2315)
 -->
<!-- Title: libraries/AP_HAL_VRBRAIN/HAL_VRBRAIN_Class.h Pages: 1 -->
<svg width="2130pt" height="264pt"
 viewBox="0.00 0.00 2130.00 264.00" xmlns="http://www.w3.org/2000/svg" xmlns:xlink="http://www.w3.org/1999/xlink">
<g id="graph0" class="graph" transform="scale(1 1) rotate(0) translate(4 260)">
<title>libraries/AP_HAL_VRBRAIN/HAL_VRBRAIN_Class.h</title>
<polygon fill="white" stroke="none" points="-4,4 -4,-260 2126,-260 2126,4 -4,4"/>
<!-- Node1 -->
<g id="node1" class="node"><title>Node1</title>
<polygon fill="#bfbfbf" stroke="black" points="562.5,-225 562.5,-255 705.5,-255 705.5,-225 562.5,-225"/>
<text text-anchor="start" x="570.5" y="-243" font-family="Helvetica,sans-Serif" font-size="10.00">libraries/AP_HAL_VRBRAIN</text>
<text text-anchor="middle" x="634" y="-232" font-family="Helvetica,sans-Serif" font-size="10.00">/HAL_VRBRAIN_Class.h</text>
</g>
<!-- Node2 -->
<g id="node2" class="node"><title>Node2</title>
<g id="a_node2"><a xlink:href="$AP__HAL__VRBRAIN_8h.html" xlink:title="libraries/AP_HAL_VRBRAIN\l/AP_HAL_VRBRAIN.h">
<polygon fill="white" stroke="black" points="562.5,-157 562.5,-187 705.5,-187 705.5,-157 562.5,-157"/>
<text text-anchor="start" x="570.5" y="-175" font-family="Helvetica,sans-Serif" font-size="10.00">libraries/AP_HAL_VRBRAIN</text>
<text text-anchor="middle" x="634" y="-164" font-family="Helvetica,sans-Serif" font-size="10.00">/AP_HAL_VRBRAIN.h</text>
</a>
</g>
</g>
<!-- Node1&#45;&gt;Node2 -->
<g id="edge1" class="edge"><title>Node1&#45;&gt;Node2</title>
<path fill="none" stroke="midnightblue" d="M627.455,-214.532C627.005,-205.361 627.296,-195.245 628.325,-187.293"/>
<polygon fill="midnightblue" stroke="midnightblue" points="623.983,-215.013 628.322,-224.679 630.958,-214.417 623.983,-215.013"/>
</g>
<!-- Node6 -->
<g id="node6" class="node"><title>Node6</title>
<g id="a_node6"><a xlink:href="$HAL__VRBRAIN__Class_8cpp.html" xlink:title="libraries/AP_HAL_VRBRAIN\l/HAL_VRBRAIN_Class.cpp">
<polygon fill="white" stroke="black" points="321.5,-6 321.5,-36 464.5,-36 464.5,-6 321.5,-6"/>
<text text-anchor="start" x="329.5" y="-24" font-family="Helvetica,sans-Serif" font-size="10.00">libraries/AP_HAL_VRBRAIN</text>
<text text-anchor="middle" x="393" y="-13" font-family="Helvetica,sans-Serif" font-size="10.00">/HAL_VRBRAIN_Class.cpp</text>
</a>
</g>
</g>
<!-- Node1&#45;&gt;Node6 -->
<g id="edge31" class="edge"><title>Node1&#45;&gt;Node6</title>
<path fill="none" stroke="midnightblue" d="M551.892,-228.791C436.496,-212.564 235.522,-176.789 192,-120 180.645,-105.184 180.71,-92.8654 192,-78 196.512,-72.0591 278.463,-50.5717 336.312,-36.0083"/>
<polygon fill="midnightblue" stroke="midnightblue" points="551.714,-232.299 562.1,-230.206 552.676,-225.366 551.714,-232.299"/>
</g>
<!-- Node2&#45;&gt;Node1 -->
<g id="edge7" class="edge"><title>Node2&#45;&gt;Node1</title>
<path fill="none" stroke="midnightblue" d="M640.544,-197.436C640.995,-206.605 640.706,-216.722 639.678,-224.679"/>
<polygon fill="midnightblue" stroke="midnightblue" points="644.016,-196.958 639.675,-187.293 637.041,-197.555 644.016,-196.958"/>
</g>
<!-- Node3 -->
<g id="node3" class="node"><title>Node3</title>
<g id="a_node3"><a xlink:href="$AP__Compass__test_8pde.html" xlink:title="libraries/AP_Compass\l/examples/AP_Compass\l_test/AP_Compass_test.pde">
<polygon fill="white" stroke="black" points="1262.5,-78.5 1262.5,-119.5 1405.5,-119.5 1405.5,-78.5 1262.5,-78.5"/>
<text text-anchor="start" x="1270.5" y="-107.5" font-family="Helvetica,sans-Serif" font-size="10.00">libraries/AP_Compass</text>
<text text-anchor="start" x="1270.5" y="-96.5" font-family="Helvetica,sans-Serif" font-size="10.00">/examples/AP_Compass</text>
<text text-anchor="middle" x="1334" y="-85.5" font-family="Helvetica,sans-Serif" font-size="10.00">_test/AP_Compass_test.pde</text>
</a>
</g>
</g>
<!-- Node2&#45;&gt;Node3 -->
<g id="edge2" class="edge"><title>Node2&#45;&gt;Node3</title>
<path fill="none" stroke="midnightblue" d="M716.067,-168.412C835.083,-163.716 1062.22,-151.206 1253,-120 1256,-119.509 1259.06,-118.964 1262.13,-118.377"/>
<polygon fill="midnightblue" stroke="midnightblue" points="715.797,-164.92 705.94,-168.803 716.067,-171.914 715.797,-164.92"/>
</g>
<!-- Node4 -->
<g id="node4" class="node"><title>Node4</title>
<g id="a_node4"><a xlink:href="$VRBRAIN_2AnalogIn_8h.html" xlink:title="libraries/AP_HAL_VRBRAIN\l/AnalogIn.h">
<polygon fill="white" stroke="black" points="401.5,-84 401.5,-114 544.5,-114 544.5,-84 401.5,-84"/>
<text text-anchor="start" x="409.5" y="-102" font-family="Helvetica,sans-Serif" font-size="10.00">libraries/AP_HAL_VRBRAIN</text>
<text text-anchor="middle" x="473" y="-91" font-family="Helvetica,sans-Serif" font-size="10.00">/AnalogIn.h</text>
</a>
</g>
</g>
<!-- Node2&#45;&gt;Node4 -->
<g id="edge3" class="edge"><title>Node2&#45;&gt;Node4</title>
<path fill="none" stroke="midnightblue" d="M592.895,-152.873C565.583,-140.829 530.24,-125.243 505.017,-114.12"/>
<polygon fill="midnightblue" stroke="midnightblue" points="591.63,-156.14 602.192,-156.973 594.454,-149.735 591.63,-156.14"/>
</g>
<!-- Node2&#45;&gt;Node6 -->
<g id="edge11" class="edge"><title>Node2&#45;&gt;Node6</title>
<path fill="none" stroke="midnightblue" d="M552.127,-164.636C490.032,-157.909 412.05,-144.716 392,-120 372.598,-96.0833 381.132,-56.9968 387.797,-36.1473"/>
<polygon fill="midnightblue" stroke="midnightblue" points="552.028,-168.145 562.337,-165.701 552.754,-161.183 552.028,-168.145"/>
</g>
<!-- Node7 -->
<g id="node7" class="node"><title>Node7</title>
<g id="a_node7"><a xlink:href="$AP__HAL__VRBRAIN_2Scheduler_8cpp.html" xlink:title="libraries/AP_HAL_VRBRAIN\l/Scheduler.cpp">
<polygon fill="white" stroke="black" points="643.5,-6 643.5,-36 786.5,-36 786.5,-6 643.5,-6"/>
<text text-anchor="start" x="651.5" y="-24" font-family="Helvetica,sans-Serif" font-size="10.00">libraries/AP_HAL_VRBRAIN</text>
<text text-anchor="middle" x="715" y="-13" font-family="Helvetica,sans-Serif" font-size="10.00">/Scheduler.cpp</text>
</a>
</g>
</g>
<!-- Node2&#45;&gt;Node7 -->
<g id="edge30" class="edge"><title>Node2&#45;&gt;Node7</title>
<path fill="none" stroke="midnightblue" d="M680.43,-151.904C693.636,-144.065 706.466,-133.573 714,-120 728.781,-93.3708 723.381,-56.068 718.795,-36.0372"/>
<polygon fill="midnightblue" stroke="midnightblue" points="678.377,-149.038 671.289,-156.913 681.741,-155.177 678.377,-149.038"/>
</g>
<!-- Node8 -->
<g id="node8" class="node"><title>Node8</title>
<g id="a_node8"><a xlink:href="$VRBRAIN_2GPIO_8h.html" xlink:title="libraries/AP_HAL_VRBRAIN\l/GPIO.h">
<polygon fill="white" stroke="black" points="201.5,-84 201.5,-114 344.5,-114 344.5,-84 201.5,-84"/>
<text text-anchor="start" x="209.5" y="-102" font-family="Helvetica,sans-Serif" font-size="10.00">libraries/AP_HAL_VRBRAIN</text>
<text text-anchor="middle" x="273" y="-91" font-family="Helvetica,sans-Serif" font-size="10.00">/GPIO.h</text>
</a>
</g>
</g>
<!-- Node2&#45;&gt;Node8 -->
<g id="edge8" class="edge"><title>Node2&#45;&gt;Node8</title>
<path fill="none" stroke="midnightblue" d="M552.309,-156.846C497.505,-147.107 423.77,-133.53 359,-120 350.147,-118.151 340.807,-116.091 331.674,-114.017"/>
<polygon fill="midnightblue" stroke="midnightblue" points="551.858,-160.321 562.315,-158.619 553.079,-153.428 551.858,-160.321"/>
</g>
<!-- Node10 -->
<g id="node10" class="node"><title>Node10</title>
<g id="a_node10"><a xlink:href="$VRBRAIN_2UARTDriver_8h.html" xlink:title="libraries/AP_HAL_VRBRAIN\l/UARTDriver.h">
<polygon fill="white" stroke="black" points="1101.5,-84 1101.5,-114 1244.5,-114 1244.5,-84 1101.5,-84"/>
<text text-anchor="start" x="1109.5" y="-102" font-family="Helvetica,sans-Serif" font-size="10.00">libraries/AP_HAL_VRBRAIN</text>
<text text-anchor="middle" x="1173" y="-91" font-family="Helvetica,sans-Serif" font-size="10.00">/UARTDriver.h</text>
</a>
</g>
</g>
<!-- Node2&#45;&gt;Node10 -->
<g id="edge12" class="edge"><title>Node2&#45;&gt;Node10</title>
<path fill="none" stroke="midnightblue" d="M715.804,-160.224C820.772,-146.397 1001.2,-122.63 1101.13,-109.467"/>
<polygon fill="midnightblue" stroke="midnightblue" points="715.032,-156.796 705.575,-161.572 715.947,-163.736 715.032,-156.796"/>
</g>
<!-- Node18 -->
<g id="node18" class="node"><title>Node18</title>
<g id="a_node18"><a xlink:href="$VRBRAIN_2RCInput_8h.html" xlink:title="libraries/AP_HAL_VRBRAIN\l/RCInput.h">
<polygon fill="white" stroke="black" points="562.5,-84 562.5,-114 705.5,-114 705.5,-84 562.5,-84"/>
<text text-anchor="start" x="570.5" y="-102" font-family="Helvetica,sans-Serif" font-size="10.00">libraries/AP_HAL_VRBRAIN</text>
<text text-anchor="middle" x="634" y="-91" font-family="Helvetica,sans-Serif" font-size="10.00">/RCInput.h</text>
</a>
</g>
</g>
<!-- Node2&#45;&gt;Node18 -->
<g id="edge22" class="edge"><title>Node2&#45;&gt;Node18</title>
<path fill="none" stroke="midnightblue" d="M634,-146.898C634,-136.131 634,-123.801 634,-114.486"/>
<polygon fill="midnightblue" stroke="midnightblue" points="630.5,-146.973 634,-156.973 637.5,-146.973 630.5,-146.973"/>
</g>
<!-- Node20 -->
<g id="node20" class="node"><title>Node20</title>
<g id="a_node20"><a xlink:href="$VRBRAIN_2RCOutput_8h.html" xlink:title="libraries/AP_HAL_VRBRAIN\l/RCOutput.h">
<polygon fill="white" stroke="black" points="762.5,-84 762.5,-114 905.5,-114 905.5,-84 762.5,-84"/>
<text text-anchor="start" x="770.5" y="-102" font-family="Helvetica,sans-Serif" font-size="10.00">libraries/AP_HAL_VRBRAIN</text>
<text text-anchor="middle" x="834" y="-91" font-family="Helvetica,sans-Serif" font-size="10.00">/RCOutput.h</text>
</a>
</g>
</g>
<!-- Node2&#45;&gt;Node20 -->
<g id="edge26" class="edge"><title>Node2&#45;&gt;Node20</title>
<path fill="none" stroke="midnightblue" d="M683.293,-153.501C717.453,-141.374 762.347,-125.437 794.227,-114.12"/>
<polygon fill="midnightblue" stroke="midnightblue" points="681.766,-150.329 673.514,-156.973 684.108,-156.926 681.766,-150.329"/>
</g>
<!-- Node5 -->
<g id="node5" class="node"><title>Node5</title>
<g id="a_node5"><a xlink:href="$AP__HAL__VRBRAIN_2AnalogIn_8cpp.html" xlink:title="libraries/AP_HAL_VRBRAIN\l/AnalogIn.cpp">
<polygon fill="white" stroke="black" points="160.5,-6 160.5,-36 303.5,-36 303.5,-6 160.5,-6"/>
<text text-anchor="start" x="168.5" y="-24" font-family="Helvetica,sans-Serif" font-size="10.00">libraries/AP_HAL_VRBRAIN</text>
<text text-anchor="middle" x="232" y="-13" font-family="Helvetica,sans-Serif" font-size="10.00">/AnalogIn.cpp</text>
</a>
</g>
</g>
<!-- Node4&#45;&gt;Node5 -->
<g id="edge4" class="edge"><title>Node4&#45;&gt;Node5</title>
<path fill="none" stroke="midnightblue" d="M418.81,-80.9111C375.938,-67.3913 316.804,-48.7431 276.632,-36.0749"/>
<polygon fill="midnightblue" stroke="midnightblue" points="417.926,-84.3022 428.516,-83.9719 420.032,-77.6263 417.926,-84.3022"/>
</g>
<!-- Node4&#45;&gt;Node6 -->
<g id="edge5" class="edge"><title>Node4&#45;&gt;Node6</title>
<path fill="none" stroke="midnightblue" d="M450.403,-76.5332C436.823,-63.6316 419.917,-47.5716 407.98,-36.2309"/>
<polygon fill="midnightblue" stroke="midnightblue" points="448.292,-79.355 457.953,-83.705 453.113,-74.2799 448.292,-79.355"/>
</g>
<!-- Node4&#45;&gt;Node7 -->
<g id="edge6" class="edge"><title>Node4&#45;&gt;Node7</title>
<path fill="none" stroke="midnightblue" d="M527.415,-80.9111C570.465,-67.3913 629.844,-48.7431 670.182,-36.0749"/>
<polygon fill="midnightblue" stroke="midnightblue" points="526.16,-77.6364 517.669,-83.9719 528.258,-84.3148 526.16,-77.6364"/>
</g>
<!-- Node8&#45;&gt;Node6 -->
<g id="edge10" class="edge"><title>Node8&#45;&gt;Node6</title>
<path fill="none" stroke="midnightblue" d="M303.842,-78.467C324.791,-65.1993 352.005,-47.9633 370.83,-36.0413"/>
<polygon fill="midnightblue" stroke="midnightblue" points="301.865,-75.5757 295.29,-83.8831 305.611,-81.4894 301.865,-75.5757"/>
</g>
<!-- Node9 -->
<g id="node9" class="node"><title>Node9</title>
<g id="a_node9"><a xlink:href="$AP__HAL__VRBRAIN_2GPIO_8cpp.html" xlink:title="libraries/AP_HAL_VRBRAIN\l/GPIO.cpp">
<polygon fill="white" stroke="black" points="-0.5,-6 -0.5,-36 142.5,-36 142.5,-6 -0.5,-6"/>
<text text-anchor="start" x="7.5" y="-24" font-family="Helvetica,sans-Serif" font-size="10.00">libraries/AP_HAL_VRBRAIN</text>
<text text-anchor="middle" x="71" y="-13" font-family="Helvetica,sans-Serif" font-size="10.00">/GPIO.cpp</text>
</a>
</g>
</g>
<!-- Node8&#45;&gt;Node9 -->
<g id="edge9" class="edge"><title>Node8&#45;&gt;Node9</title>
<path fill="none" stroke="midnightblue" d="M225.741,-80.2193C189.938,-66.7488 141.422,-48.4956 108.32,-36.0413"/>
<polygon fill="midnightblue" stroke="midnightblue" points="224.887,-83.6375 235.479,-83.8831 227.352,-77.0858 224.887,-83.6375"/>
</g>
<!-- Node10&#45;&gt;Node6 -->
<g id="edge17" class="edge"><title>Node10&#45;&gt;Node6</title>
<path fill="none" stroke="midnightblue" d="M1091.25,-91.6369C909.785,-77.4895 488.092,-44.4728 473,-42 463.534,-40.4491 453.544,-38.34 443.951,-36.0712"/>
<polygon fill="midnightblue" stroke="midnightblue" points="1091.04,-95.1309 1101.28,-92.4188 1091.58,-88.1521 1091.04,-95.1309"/>
</g>
<!-- Node10&#45;&gt;Node7 -->
<g id="edge18" class="edge"><title>Node10&#45;&gt;Node7</title>
<path fill="none" stroke="midnightblue" d="M1091.13,-88.2229C1014.3,-78.4921 896.352,-62.1263 795,-42 786.294,-40.2711 777.112,-38.2066 768.196,-36.0704"/>
<polygon fill="midnightblue" stroke="midnightblue" points="1090.87,-91.7172 1101.23,-89.4932 1091.74,-84.772 1090.87,-91.7172"/>
</g>
<!-- Node11 -->
<g id="node11" class="node"><title>Node11</title>
<g id="a_node11"><a xlink:href="$examples_2RCInput_2RCInput_8pde.html" xlink:title="libraries/AP_HAL/examples\l/RCInput/RCInput.pde">
<polygon fill="white" stroke="black" points="1104.5,-6 1104.5,-36 1241.5,-36 1241.5,-6 1104.5,-6"/>
<text text-anchor="start" x="1112.5" y="-24" font-family="Helvetica,sans-Serif" font-size="10.00">libraries/AP_HAL/examples</text>
<text text-anchor="middle" x="1173" y="-13" font-family="Helvetica,sans-Serif" font-size="10.00">/RCInput/RCInput.pde</text>
</a>
</g>
</g>
<!-- Node10&#45;&gt;Node11 -->
<g id="edge13" class="edge"><title>Node10&#45;&gt;Node11</title>
<path fill="none" stroke="midnightblue" d="M1173,-73.5898C1173,-61.2565 1173,-46.7237 1173,-36.2309"/>
<polygon fill="midnightblue" stroke="midnightblue" points="1169.5,-73.7049 1173,-83.705 1176.5,-73.705 1169.5,-73.7049"/>
</g>
<!-- Node12 -->
<g id="node12" class="node"><title>Node12</title>
<g id="a_node12"><a xlink:href="$RCInputToRCOutput_8pde.html" xlink:title="libraries/AP_HAL/examples\l/RCInputToRCOutput/RCInputToRCOutput.pde">
<polygon fill="white" stroke="black" points="1260,-6 1260,-36 1486,-36 1486,-6 1260,-6"/>
<text text-anchor="start" x="1268" y="-24" font-family="Helvetica,sans-Serif" font-size="10.00">libraries/AP_HAL/examples</text>
<text text-anchor="middle" x="1373" y="-13" font-family="Helvetica,sans-Serif" font-size="10.00">/RCInputToRCOutput/RCInputToRCOutput.pde</text>
</a>
</g>
</g>
<!-- Node10&#45;&gt;Node12 -->
<g id="edge14" class="edge"><title>Node10&#45;&gt;Node12</title>
<path fill="none" stroke="midnightblue" d="M1219.79,-80.2193C1255.24,-66.7488 1303.27,-48.4956 1336.05,-36.0413"/>
<polygon fill="midnightblue" stroke="midnightblue" points="1218.25,-77.0591 1210.15,-83.8831 1220.74,-83.6026 1218.25,-77.0591"/>
</g>
<!-- Node13 -->
<g id="node13" class="node"><title>Node13</title>
<g id="a_node13"><a xlink:href="$RCOutput_8pde.html" xlink:title="libraries/AP_HAL/examples\l/RCOutput/RCOutput.pde">
<polygon fill="white" stroke="black" points="1504.5,-6 1504.5,-36 1641.5,-36 1641.5,-6 1504.5,-6"/>
<text text-anchor="start" x="1512.5" y="-24" font-family="Helvetica,sans-Serif" font-size="10.00">libraries/AP_HAL/examples</text>
<text text-anchor="middle" x="1573" y="-13" font-family="Helvetica,sans-Serif" font-size="10.00">/RCOutput/RCOutput.pde</text>
</a>
</g>
</g>
<!-- Node10&#45;&gt;Node13 -->
<g id="edge15" class="edge"><title>Node10&#45;&gt;Node13</title>
<path fill="none" stroke="midnightblue" d="M1236.67,-81.6841C1242.51,-80.3668 1248.36,-79.1158 1254,-78 1360.24,-56.9964 1388.85,-63.4778 1495,-42 1503.5,-40.2811 1512.45,-38.2217 1521.15,-36.0875"/>
<polygon fill="midnightblue" stroke="midnightblue" points="1235.82,-78.2875 1226.87,-83.9517 1237.4,-85.1073 1235.82,-78.2875"/>
</g>
<!-- Node14 -->
<g id="node14" class="node"><title>Node14</title>
<g id="a_node14"><a xlink:href="$UART__test_8pde.html" xlink:title="libraries/AP_HAL/examples\l/UART_test/UART_test.pde">
<polygon fill="white" stroke="black" points="1660,-6 1660,-36 1800,-36 1800,-6 1660,-6"/>
<text text-anchor="start" x="1668" y="-24" font-family="Helvetica,sans-Serif" font-size="10.00">libraries/AP_HAL/examples</text>
<text text-anchor="middle" x="1730" y="-13" font-family="Helvetica,sans-Serif" font-size="10.00">/UART_test/UART_test.pde</text>
</a>
</g>
</g>
<!-- Node10&#45;&gt;Node14 -->
<g id="edge16" class="edge"><title>Node10&#45;&gt;Node14</title>
<path fill="none" stroke="midnightblue" d="M1235.02,-81.6751C1241.4,-80.2988 1247.81,-79.0389 1254,-78 1428.29,-48.7343 1475.76,-71.519 1650,-42 1659.32,-40.4217 1669.15,-38.3279 1678.61,-36.0893"/>
<polygon fill="midnightblue" stroke="midnightblue" points="1234.03,-78.309 1225.04,-83.9188 1235.57,-85.1383 1234.03,-78.309"/>
</g>
<!-- Node15 -->
<g id="node15" class="node"><title>Node15</title>
<g id="a_node15"><a xlink:href="$VRBRAIN_2UARTDriver_8cpp.html" xlink:title="libraries/AP_HAL_VRBRAIN\l/UARTDriver.cpp">
<polygon fill="white" stroke="black" points="1818.5,-6 1818.5,-36 1961.5,-36 1961.5,-6 1818.5,-6"/>
<text text-anchor="start" x="1826.5" y="-24" font-family="Helvetica,sans-Serif" font-size="10.00">libraries/AP_HAL_VRBRAIN</text>
<text text-anchor="middle" x="1890" y="-13" font-family="Helvetica,sans-Serif" font-size="10.00">/UARTDriver.cpp</text>
</a>
</g>
</g>
<!-- Node10&#45;&gt;Node15 -->
<g id="edge19" class="edge"><title>Node10&#45;&gt;Node15</title>
<path fill="none" stroke="midnightblue" d="M1233.94,-81.7314C1240.67,-80.2987 1247.46,-79.0113 1254,-78 1498.28,-40.2248 1564.72,-79.7752 1809,-42 1818.73,-40.4948 1829.01,-38.378 1838.86,-36.0809"/>
<polygon fill="midnightblue" stroke="midnightblue" points="1233.14,-78.3238 1224.14,-83.9191 1234.66,-85.1555 1233.14,-78.3238"/>
</g>
<!-- Node16 -->
<g id="node16" class="node"><title>Node16</title>
<g id="a_node16"><a xlink:href="$VRBRAIN_2Util_8cpp.html" xlink:title="libraries/AP_HAL_VRBRAIN\l/Util.cpp">
<polygon fill="white" stroke="black" points="1979.5,-6 1979.5,-36 2122.5,-36 2122.5,-6 1979.5,-6"/>
<text text-anchor="start" x="1987.5" y="-24" font-family="Helvetica,sans-Serif" font-size="10.00">libraries/AP_HAL_VRBRAIN</text>
<text text-anchor="middle" x="2051" y="-13" font-family="Helvetica,sans-Serif" font-size="10.00">/Util.cpp</text>
</a>
</g>
</g>
<!-- Node10&#45;&gt;Node16 -->
<g id="edge20" class="edge"><title>Node10&#45;&gt;Node16</title>
<path fill="none" stroke="midnightblue" d="M1233.63,-81.6976C1240.46,-80.2576 1247.36,-78.9779 1254,-78 1569.23,-31.5973 1654.77,-88.4027 1970,-42 1979.89,-40.5445 1990.33,-38.4206 2000.31,-36.0944"/>
<polygon fill="midnightblue" stroke="midnightblue" points="1232.69,-78.3197 1223.69,-83.9056 1234.21,-85.153 1232.69,-78.3197"/>
</g>
<!-- Node17 -->
<g id="node17" class="node"><title>Node17</title>
<g id="a_node17"><a xlink:href="$RC__Channel_8pde.html" xlink:title="libraries/RC_Channel\l/examples/RC_Channel\l/RC_Channel.pde">
<polygon fill="white" stroke="black" points="965.5,-0.5 965.5,-41.5 1086.5,-41.5 1086.5,-0.5 965.5,-0.5"/>
<text text-anchor="start" x="973.5" y="-29.5" font-family="Helvetica,sans-Serif" font-size="10.00">libraries/RC_Channel</text>
<text text-anchor="start" x="973.5" y="-18.5" font-family="Helvetica,sans-Serif" font-size="10.00">/examples/RC_Channel</text>
<text text-anchor="middle" x="1026" y="-7.5" font-family="Helvetica,sans-Serif" font-size="10.00">/RC_Channel.pde</text>
</a>
</g>
</g>
<!-- Node10&#45;&gt;Node17 -->
<g id="edge21" class="edge"><title>Node10&#45;&gt;Node17</title>
<path fill="none" stroke="midnightblue" d="M1136.63,-79.196C1114.53,-67.769 1086.35,-53.2013 1063.96,-41.6279"/>
<polygon fill="midnightblue" stroke="midnightblue" points="1135.2,-82.3995 1145.69,-83.8831 1138.42,-76.1814 1135.2,-82.3995"/>
</g>
<!-- Node18&#45;&gt;Node6 -->
<g id="edge23" class="edge"><title>Node18&#45;&gt;Node6</title>
<path fill="none" stroke="midnightblue" d="M579.81,-80.9111C536.938,-67.3913 477.804,-48.7431 437.632,-36.0749"/>
<polygon fill="midnightblue" stroke="midnightblue" points="578.926,-84.3022 589.516,-83.9719 581.032,-77.6263 578.926,-84.3022"/>
</g>
<!-- Node18&#45;&gt;Node7 -->
<g id="edge25" class="edge"><title>Node18&#45;&gt;Node7</title>
<path fill="none" stroke="midnightblue" d="M656.879,-76.5332C670.629,-63.6316 687.746,-47.5716 699.833,-36.2309"/>
<polygon fill="midnightblue" stroke="midnightblue" points="654.133,-74.3101 649.235,-83.705 658.923,-79.415 654.133,-74.3101"/>
</g>
<!-- Node19 -->
<g id="node19" class="node"><title>Node19</title>
<g id="a_node19"><a xlink:href="$AP__HAL__VRBRAIN_2RCInput_8cpp.html" xlink:title="libraries/AP_HAL_VRBRAIN\l/RCInput.cpp">
<polygon fill="white" stroke="black" points="482.5,-6 482.5,-36 625.5,-36 625.5,-6 482.5,-6"/>
<text text-anchor="start" x="490.5" y="-24" font-family="Helvetica,sans-Serif" font-size="10.00">libraries/AP_HAL_VRBRAIN</text>
<text text-anchor="middle" x="554" y="-13" font-family="Helvetica,sans-Serif" font-size="10.00">/RCInput.cpp</text>
</a>
</g>
</g>
<!-- Node18&#45;&gt;Node19 -->
<g id="edge24" class="edge"><title>Node18&#45;&gt;Node19</title>
<path fill="none" stroke="midnightblue" d="M611.403,-76.5332C597.823,-63.6316 580.917,-47.5716 568.98,-36.2309"/>
<polygon fill="midnightblue" stroke="midnightblue" points="609.292,-79.355 618.953,-83.705 614.113,-74.2799 609.292,-79.355"/>
</g>
<!-- Node20&#45;&gt;Node6 -->
<g id="edge27" class="edge"><title>Node20&#45;&gt;Node6</title>
<path fill="none" stroke="midnightblue" d="M752.167,-84.1716C739.397,-82.0685 726.346,-79.9508 714,-78 607.028,-61.0972 579.213,-63.158 473,-42 464.295,-40.2659 455.114,-38.1987 446.198,-36.0614"/>
<polygon fill="midnightblue" stroke="midnightblue" points="751.892,-87.6736 762.329,-85.8517 753.034,-80.7673 751.892,-87.6736"/>
</g>
<!-- Node20&#45;&gt;Node7 -->
<g id="edge29" class="edge"><title>Node20&#45;&gt;Node7</title>
<path fill="none" stroke="midnightblue" d="M803.415,-78.467C782.641,-65.1993 755.653,-47.9633 736.986,-36.0413"/>
<polygon fill="midnightblue" stroke="midnightblue" points="801.584,-81.4503 811.896,-83.8831 805.352,-75.5508 801.584,-81.4503"/>
</g>
<!-- Node21 -->
<g id="node21" class="node"><title>Node21</title>
<g id="a_node21"><a xlink:href="$AP__HAL__VRBRAIN_2RCOutput_8cpp.html" xlink:title="libraries/AP_HAL_VRBRAIN\l/RCOutput.cpp">
<polygon fill="white" stroke="black" points="804.5,-6 804.5,-36 947.5,-36 947.5,-6 804.5,-6"/>
<text text-anchor="start" x="812.5" y="-24" font-family="Helvetica,sans-Serif" font-size="10.00">libraries/AP_HAL_VRBRAIN</text>
<text text-anchor="middle" x="876" y="-13" font-family="Helvetica,sans-Serif" font-size="10.00">/RCOutput.cpp</text>
</a>
</g>
</g>
<!-- Node20&#45;&gt;Node21 -->
<g id="edge28" class="edge"><title>Node20&#45;&gt;Node21</title>
<path fill="none" stroke="midnightblue" d="M846.874,-74.7047C853.817,-62.141 862.161,-47.0416 868.136,-36.2309"/>
<polygon fill="midnightblue" stroke="midnightblue" points="843.673,-73.2596 841.9,-83.705 849.8,-76.6455 843.673,-73.2596"/>
</g>
</g>
</svg>
