<?xml version="1.0" encoding="UTF-8" standalone="no"?>
<!DOCTYPE svg PUBLIC "-//W3C//DTD SVG 1.1//EN"
 "http://www.w3.org/Graphics/SVG/1.1/DTD/svg11.dtd">
<!-- Generated by graphviz version 2.36.0 (20140111.2315)
 -->
<!-- Title: loop Pages: 1 -->
<svg width="440pt" height="185pt"
 viewBox="0.00 0.00 440.00 185.00" xmlns="http://www.w3.org/2000/svg" xmlns:xlink="http://www.w3.org/1999/xlink">
<g id="graph0" class="graph" transform="scale(1 1) rotate(0) translate(4 181)">
<title>loop</title>
<polygon fill="white" stroke="none" points="-4,4 -4,-181 436,-181 436,4 -4,4"/>
<!-- Node1 -->
<g id="node1" class="node"><title>Node1</title>
<polygon fill="#bfbfbf" stroke="black" points="0.5,-78.5 0.5,-97.5 35.5,-97.5 35.5,-78.5 0.5,-78.5"/>
<text text-anchor="middle" x="18" y="-85.5" font-family="Helvetica,sans-Serif" font-size="10.00">loop</text>
</g>
<!-- Node2 -->
<g id="node2" class="node"><title>Node2</title>
<g id="a_node2"><a xlink:href="$classLowPassFilterFloat.html#a0f1280ed7b46ee6d4f48d960ff65ff0f" xlink:title="LowPassFilterFloat\l::reset">
<polygon fill="white" stroke="black" points="79.5,-147 79.5,-177 180.5,-177 180.5,-147 79.5,-147"/>
<text text-anchor="start" x="87.5" y="-165" font-family="Helvetica,sans-Serif" font-size="10.00">LowPassFilterFloat</text>
<text text-anchor="middle" x="130" y="-154" font-family="Helvetica,sans-Serif" font-size="10.00">::reset</text>
</a>
</g>
</g>
<!-- Node1&#45;&gt;Node2 -->
<g id="edge1" class="edge"><title>Node1&#45;&gt;Node2</title>
<path fill="none" stroke="midnightblue" d="M27.5932,-97.6849C37.4787,-108.384 54.5973,-125.604 72,-137 74.7572,-138.806 77.6665,-140.536 80.6525,-142.183"/>
<polygon fill="midnightblue" stroke="midnightblue" points="79.2715,-145.408 89.7654,-146.867 82.4719,-139.183 79.2715,-145.408"/>
</g>
<!-- Node4 -->
<g id="node4" class="node"><title>Node4</title>
<g id="a_node4"><a xlink:href="$classAP__HAL_1_1UARTDriver.html#a4b1ae6fcec3dfe651d08faf589f4ad6d" xlink:title="AP_HAL::UARTDriver\l::printf">
<polygon fill="white" stroke="black" points="72.5,-98 72.5,-128 187.5,-128 187.5,-98 72.5,-98"/>
<text text-anchor="start" x="80.5" y="-116" font-family="Helvetica,sans-Serif" font-size="10.00">AP_HAL::UARTDriver</text>
<text text-anchor="middle" x="130" y="-105" font-family="Helvetica,sans-Serif" font-size="10.00">::printf</text>
</a>
</g>
</g>
<!-- Node1&#45;&gt;Node4 -->
<g id="edge3" class="edge"><title>Node1&#45;&gt;Node4</title>
<path fill="none" stroke="midnightblue" d="M35.7066,-91.797C43.1893,-93.4976 52.5493,-95.6248 62.4311,-97.8707"/>
<polygon fill="midnightblue" stroke="midnightblue" points="61.9097,-101.341 72.4367,-100.145 63.4611,-94.5155 61.9097,-101.341"/>
</g>
<!-- Node5 -->
<g id="node5" class="node"><title>Node5</title>
<g id="a_node5"><a xlink:href="$classLowPassFilterFloat.html#a2e489f7f440c90e1ed442a70a72bc52d" xlink:title="LowPassFilterFloat\l::apply">
<polygon fill="white" stroke="black" points="79.5,-49 79.5,-79 180.5,-79 180.5,-49 79.5,-49"/>
<text text-anchor="start" x="87.5" y="-67" font-family="Helvetica,sans-Serif" font-size="10.00">LowPassFilterFloat</text>
<text text-anchor="middle" x="130" y="-56" font-family="Helvetica,sans-Serif" font-size="10.00">::apply</text>
</a>
</g>
</g>
<!-- Node1&#45;&gt;Node5 -->
<g id="edge4" class="edge"><title>Node1&#45;&gt;Node5</title>
<path fill="none" stroke="midnightblue" d="M35.7066,-84.3549C44.9069,-82.3476 56.9452,-79.721 69.3021,-77.025"/>
<polygon fill="midnightblue" stroke="midnightblue" points="70.2082,-80.4097 79.2323,-74.8584 68.716,-73.5706 70.2082,-80.4097"/>
</g>
<!-- Node8 -->
<g id="node8" class="node"><title>Node8</title>
<g id="a_node8"><a xlink:href="$classAP__HAL_1_1Scheduler.html#ab3175e2e6223ccfe82f957e41cc12b26" xlink:title="AP_HAL::Scheduler::\ldelay">
<polygon fill="white" stroke="black" points="75,-0 75,-30 185,-30 185,-0 75,-0"/>
<text text-anchor="start" x="83" y="-18" font-family="Helvetica,sans-Serif" font-size="10.00">AP_HAL::Scheduler::</text>
<text text-anchor="middle" x="130" y="-7" font-family="Helvetica,sans-Serif" font-size="10.00">delay</text>
</a>
</g>
</g>
<!-- Node1&#45;&gt;Node8 -->
<g id="edge7" class="edge"><title>Node1&#45;&gt;Node8</title>
<path fill="none" stroke="midnightblue" d="M27.9938,-78.1455C37.9658,-67.6527 54.9107,-51.0657 72,-40 74.8997,-38.1224 77.964,-36.3239 81.1067,-34.614"/>
<polygon fill="midnightblue" stroke="midnightblue" points="82.7743,-37.6925 90.0991,-30.0376 79.5993,-31.4539 82.7743,-37.6925"/>
</g>
<!-- Node3 -->
<g id="node3" class="node"><title>Node3</title>
<g id="a_node3"><a xlink:href="$classDigitalLPF.html#a3b7217283a52a01a86e7ab0c68a3ca96" xlink:title="DigitalLPF::reset">
<polygon fill="white" stroke="black" points="225,-152.5 225,-171.5 315,-171.5 315,-152.5 225,-152.5"/>
<text text-anchor="middle" x="270" y="-159.5" font-family="Helvetica,sans-Serif" font-size="10.00">DigitalLPF::reset</text>
</a>
</g>
</g>
<!-- Node2&#45;&gt;Node3 -->
<g id="edge2" class="edge"><title>Node2&#45;&gt;Node3</title>
<path fill="none" stroke="midnightblue" d="M180.821,-162C191.815,-162 203.516,-162 214.678,-162"/>
<polygon fill="midnightblue" stroke="midnightblue" points="214.743,-165.5 224.743,-162 214.743,-158.5 214.743,-165.5"/>
</g>
<!-- Node6 -->
<g id="node6" class="node"><title>Node6</title>
<g id="a_node6"><a xlink:href="$classDigitalLPF.html#aec513ab9bc5165163c6ec87692f804e8" xlink:title="DigitalLPF::apply">
<polygon fill="white" stroke="black" points="224,-54.5 224,-73.5 316,-73.5 316,-54.5 224,-54.5"/>
<text text-anchor="middle" x="270" y="-61.5" font-family="Helvetica,sans-Serif" font-size="10.00">DigitalLPF::apply</text>
</a>
</g>
</g>
<!-- Node5&#45;&gt;Node6 -->
<g id="edge5" class="edge"><title>Node5&#45;&gt;Node6</title>
<path fill="none" stroke="midnightblue" d="M180.821,-64C191.469,-64 202.779,-64 213.622,-64"/>
<polygon fill="midnightblue" stroke="midnightblue" points="213.838,-67.5001 223.838,-64 213.837,-60.5001 213.838,-67.5001"/>
</g>
<!-- Node7 -->
<g id="node7" class="node"><title>Node7</title>
<g id="a_node7"><a xlink:href="$AP__Math_8cpp.html#a08eedb329d8162ddbd344d4f6c8cde20" xlink:title="constrain_float">
<polygon fill="white" stroke="black" points="352,-54.5 352,-73.5 432,-73.5 432,-54.5 352,-54.5"/>
<text text-anchor="middle" x="392" y="-61.5" font-family="Helvetica,sans-Serif" font-size="10.00">constrain_float</text>
</a>
</g>
</g>
<!-- Node6&#45;&gt;Node7 -->
<g id="edge6" class="edge"><title>Node6&#45;&gt;Node7</title>
<path fill="none" stroke="midnightblue" d="M316.025,-64C324.346,-64 333.078,-64 341.523,-64"/>
<polygon fill="midnightblue" stroke="midnightblue" points="341.635,-67.5001 351.635,-64 341.635,-60.5001 341.635,-67.5001"/>
</g>
</g>
</svg>
