<?xml version="1.0" encoding="UTF-8" standalone="no"?>
<!DOCTYPE svg PUBLIC "-//W3C//DTD SVG 1.1//EN"
 "http://www.w3.org/Graphics/SVG/1.1/DTD/svg11.dtd">
<!-- Generated by graphviz version 2.36.0 (20140111.2315)
 -->
<!-- Title: mavlink_msg_command_int_get_target_component Pages: 1 -->
<svg width="756pt" height="114pt"
 viewBox="0.00 0.00 756.00 114.00" xmlns="http://www.w3.org/2000/svg" xmlns:xlink="http://www.w3.org/1999/xlink">
<g id="graph0" class="graph" transform="scale(1 1) rotate(0) translate(4 110)">
<title>mavlink_msg_command_int_get_target_component</title>
<polygon fill="white" stroke="none" points="-4,4 -4,-110 752,-110 752,4 -4,4"/>
<!-- Node1 -->
<g id="node1" class="node"><title>Node1</title>
<polygon fill="#bfbfbf" stroke="black" points="0,-24 0,-54 134,-54 134,-24 0,-24"/>
<text text-anchor="start" x="8" y="-42" font-family="Helvetica,sans-Serif" font-size="10.00">mavlink_msg_command</text>
<text text-anchor="middle" x="67" y="-31" font-family="Helvetica,sans-Serif" font-size="10.00">_int_get_target_component</text>
</g>
<!-- Node2 -->
<g id="node2" class="node"><title>Node2</title>
<g id="a_node2"><a xlink:href="$classMAVLink__routing.html#afca07626745616e05d03caf5a0601c2f" xlink:title="MAVLink_routing::get\l_targets">
<polygon fill="white" stroke="black" points="176,-49 176,-79 286,-79 286,-49 176,-49"/>
<text text-anchor="start" x="184" y="-67" font-family="Helvetica,sans-Serif" font-size="10.00">MAVLink_routing::get</text>
<text text-anchor="middle" x="231" y="-56" font-family="Helvetica,sans-Serif" font-size="10.00">_targets</text>
</a>
</g>
</g>
<!-- Node1&#45;&gt;Node2 -->
<g id="edge1" class="edge"><title>Node1&#45;&gt;Node2</title>
<path fill="none" stroke="midnightblue" d="M144.469,-50.8008C155.073,-52.4371 165.78,-54.0895 175.861,-55.6452"/>
<polygon fill="midnightblue" stroke="midnightblue" points="144.776,-47.3068 134.359,-49.2406 143.708,-54.2249 144.776,-47.3068"/>
</g>
<!-- Node6 -->
<g id="node6" class="node"><title>Node6</title>
<g id="a_node6"><a xlink:href="$mavlink__msg__command__int_8h.html#a326758807ccf1f9381cb9f6c37f54e06" xlink:title="Decode a command_int message into a struct. ">
<polygon fill="white" stroke="black" points="170,-0 170,-30 292,-30 292,-0 170,-0"/>
<text text-anchor="start" x="178" y="-18" font-family="Helvetica,sans-Serif" font-size="10.00">mavlink_msg_command</text>
<text text-anchor="middle" x="231" y="-7" font-family="Helvetica,sans-Serif" font-size="10.00">_int_decode</text>
</a>
</g>
</g>
<!-- Node1&#45;&gt;Node6 -->
<g id="edge5" class="edge"><title>Node1&#45;&gt;Node6</title>
<path fill="none" stroke="midnightblue" d="M144.391,-27.6829C152.983,-26.4099 161.645,-25.1267 169.987,-23.8908"/>
<polygon fill="midnightblue" stroke="midnightblue" points="143.738,-24.2413 134.359,-29.169 144.764,-31.1657 143.738,-24.2413"/>
</g>
<!-- Node3 -->
<g id="node3" class="node"><title>Node3</title>
<g id="a_node3"><a xlink:href="$classMAVLink__routing.html#a474038c8ab695c57e23fb6fec4664947" xlink:title="MAVLink_routing::check\l_and_forward">
<polygon fill="white" stroke="black" points="334.5,-49 334.5,-79 457.5,-79 457.5,-49 334.5,-49"/>
<text text-anchor="start" x="342.5" y="-67" font-family="Helvetica,sans-Serif" font-size="10.00">MAVLink_routing::check</text>
<text text-anchor="middle" x="396" y="-56" font-family="Helvetica,sans-Serif" font-size="10.00">_and_forward</text>
</a>
</g>
</g>
<!-- Node2&#45;&gt;Node3 -->
<g id="edge2" class="edge"><title>Node2&#45;&gt;Node3</title>
<path fill="none" stroke="midnightblue" d="M296.611,-64C309.101,-64 322.145,-64 334.498,-64"/>
<polygon fill="midnightblue" stroke="midnightblue" points="296.277,-60.5001 286.277,-64 296.277,-67.5001 296.277,-60.5001"/>
</g>
<!-- Node4 -->
<g id="node4" class="node"><title>Node4</title>
<g id="a_node4"><a xlink:href="$routing_8pde.html#a0b33edabd7f1c4e4a0bf32c67269be2f" xlink:title="loop">
<polygon fill="white" stroke="black" points="544.5,-86.5 544.5,-105.5 579.5,-105.5 579.5,-86.5 544.5,-86.5"/>
<text text-anchor="middle" x="562" y="-93.5" font-family="Helvetica,sans-Serif" font-size="10.00">loop</text>
</a>
</g>
</g>
<!-- Node3&#45;&gt;Node4 -->
<g id="edge3" class="edge"><title>Node3&#45;&gt;Node4</title>
<path fill="none" stroke="midnightblue" d="M467.541,-77.7642C495.927,-83.3029 526.182,-89.2063 544.337,-92.7486"/>
<polygon fill="midnightblue" stroke="midnightblue" points="468.087,-74.3047 457.602,-75.8247 466.746,-81.1751 468.087,-74.3047"/>
</g>
<!-- Node5 -->
<g id="node5" class="node"><title>Node5</title>
<g id="a_node5"><a xlink:href="$classGCS__MAVLINK.html#a7d8788ed53976a200971612229fe2533" xlink:title="GCS_MAVLINK::update">
<polygon fill="white" stroke="black" points="500.5,-48.5 500.5,-67.5 623.5,-67.5 623.5,-48.5 500.5,-48.5"/>
<text text-anchor="middle" x="562" y="-55.5" font-family="Helvetica,sans-Serif" font-size="10.00">GCS_MAVLINK::update</text>
</a>
</g>
</g>
<!-- Node3&#45;&gt;Node5 -->
<g id="edge4" class="edge"><title>Node3&#45;&gt;Node5</title>
<path fill="none" stroke="midnightblue" d="M467.876,-61.407C478.703,-61.0109 489.794,-60.6051 500.374,-60.218"/>
<polygon fill="midnightblue" stroke="midnightblue" points="467.467,-57.9195 457.602,-61.7829 467.723,-64.9148 467.467,-57.9195"/>
</g>
<!-- Node7 -->
<g id="node7" class="node"><title>Node7</title>
<g id="a_node7"><a xlink:href="$v1_80_2common_2testsuite_8h.html#a80fcdb1b13086c33c5cc6b7785460215" xlink:title="mavlink_test_command_int">
<polygon fill="white" stroke="black" points="328,-5.5 328,-24.5 464,-24.5 464,-5.5 328,-5.5"/>
<text text-anchor="middle" x="396" y="-12.5" font-family="Helvetica,sans-Serif" font-size="10.00">mavlink_test_command_int</text>
</a>
</g>
</g>
<!-- Node6&#45;&gt;Node7 -->
<g id="edge6" class="edge"><title>Node6&#45;&gt;Node7</title>
<path fill="none" stroke="midnightblue" d="M302.429,-15C310.874,-15 319.481,-15 327.878,-15"/>
<polygon fill="midnightblue" stroke="midnightblue" points="302.232,-11.5001 292.232,-15 302.232,-18.5001 302.232,-11.5001"/>
</g>
<!-- Node8 -->
<g id="node8" class="node"><title>Node8</title>
<g id="a_node8"><a xlink:href="$v1_80_2common_2testsuite_8h.html#af349432601ac003d2c80a69c100c70a4" xlink:title="mavlink_test_common">
<polygon fill="white" stroke="black" points="504.5,-5.5 504.5,-24.5 619.5,-24.5 619.5,-5.5 504.5,-5.5"/>
<text text-anchor="middle" x="562" y="-12.5" font-family="Helvetica,sans-Serif" font-size="10.00">mavlink_test_common</text>
</a>
</g>
</g>
<!-- Node7&#45;&gt;Node8 -->
<g id="edge7" class="edge"><title>Node7&#45;&gt;Node8</title>
<path fill="none" stroke="midnightblue" d="M474.275,-15C484.427,-15 494.676,-15 504.396,-15"/>
<polygon fill="midnightblue" stroke="midnightblue" points="474.178,-11.5001 464.178,-15 474.178,-18.5001 474.178,-11.5001"/>
</g>
<!-- Node9 -->
<g id="node9" class="node"><title>Node9</title>
<g id="a_node9"><a xlink:href="$v1_80_2common_2testsuite_8h.html#a4cc77b6c343679298da5d3c2b4e48759" xlink:title="mavlink_test_all">
<polygon fill="white" stroke="black" points="660.5,-5.5 660.5,-24.5 747.5,-24.5 747.5,-5.5 660.5,-5.5"/>
<text text-anchor="middle" x="704" y="-12.5" font-family="Helvetica,sans-Serif" font-size="10.00">mavlink_test_all</text>
</a>
</g>
</g>
<!-- Node8&#45;&gt;Node9 -->
<g id="edge8" class="edge"><title>Node8&#45;&gt;Node9</title>
<path fill="none" stroke="midnightblue" d="M629.559,-15C640.074,-15 650.693,-15 660.464,-15"/>
<polygon fill="midnightblue" stroke="midnightblue" points="629.54,-11.5001 619.54,-15 629.54,-18.5001 629.54,-11.5001"/>
</g>
</g>
</svg>
