<?xml version="1.0" encoding="UTF-8" standalone="no"?>
<!DOCTYPE svg PUBLIC "-//W3C//DTD SVG 1.1//EN"
 "http://www.w3.org/Graphics/SVG/1.1/DTD/svg11.dtd">
<!-- Generated by graphviz version 2.36.0 (20140111.2315)
 -->
<!-- Title: mavlink_msg_state_correction_get_vzErr Pages: 1 -->
<svg width="756pt" height="38pt"
 viewBox="0.00 0.00 756.00 38.00" xmlns="http://www.w3.org/2000/svg" xmlns:xlink="http://www.w3.org/1999/xlink">
<g id="graph0" class="graph" transform="scale(1 1) rotate(0) translate(4 34)">
<title>mavlink_msg_state_correction_get_vzErr</title>
<polygon fill="white" stroke="none" points="-4,4 -4,-34 752,-34 752,4 -4,4"/>
<!-- Node1 -->
<g id="node1" class="node"><title>Node1</title>
<polygon fill="#bfbfbf" stroke="black" points="0.5,-0 0.5,-30 149.5,-30 149.5,-0 0.5,-0"/>
<text text-anchor="start" x="8.5" y="-18" font-family="Helvetica,sans-Serif" font-size="10.00">mavlink_msg_state_correction</text>
<text text-anchor="middle" x="75" y="-7" font-family="Helvetica,sans-Serif" font-size="10.00">_get_vzErr</text>
</g>
<!-- Node2 -->
<g id="node2" class="node"><title>Node2</title>
<g id="a_node2"><a xlink:href="$mavlink__msg__state__correction_8h.html#a245e2e9f81bcb21b975f7920e92878e1" xlink:title="Decode a state_correction message into a struct. ">
<polygon fill="white" stroke="black" points="186.5,-0 186.5,-30 335.5,-30 335.5,-0 186.5,-0"/>
<text text-anchor="start" x="194.5" y="-18" font-family="Helvetica,sans-Serif" font-size="10.00">mavlink_msg_state_correction</text>
<text text-anchor="middle" x="261" y="-7" font-family="Helvetica,sans-Serif" font-size="10.00">_decode</text>
</a>
</g>
</g>
<!-- Node1&#45;&gt;Node2 -->
<g id="edge1" class="edge"><title>Node1&#45;&gt;Node2</title>
<path fill="none" stroke="midnightblue" d="M159.533,-15C168.462,-15 177.498,-15 186.302,-15"/>
<polygon fill="midnightblue" stroke="midnightblue" points="159.515,-11.5001 149.515,-15 159.515,-18.5001 159.515,-11.5001"/>
</g>
<!-- Node3 -->
<g id="node3" class="node"><title>Node3</title>
<g id="a_node3"><a xlink:href="$v0_89_2common_2testsuite_8h.html#a035f8bf804272ceba495b0869f7b86b6" xlink:title="mavlink_test_state\l_correction">
<polygon fill="white" stroke="black" points="372.5,-0 372.5,-30 471.5,-30 471.5,-0 372.5,-0"/>
<text text-anchor="start" x="380.5" y="-18" font-family="Helvetica,sans-Serif" font-size="10.00">mavlink_test_state</text>
<text text-anchor="middle" x="422" y="-7" font-family="Helvetica,sans-Serif" font-size="10.00">_correction</text>
</a>
</g>
</g>
<!-- Node2&#45;&gt;Node3 -->
<g id="edge2" class="edge"><title>Node2&#45;&gt;Node3</title>
<path fill="none" stroke="midnightblue" d="M346.042,-15C355.005,-15 363.891,-15 372.241,-15"/>
<polygon fill="midnightblue" stroke="midnightblue" points="345.914,-11.5001 335.914,-15 345.914,-18.5001 345.914,-11.5001"/>
</g>
<!-- Node4 -->
<g id="node4" class="node"><title>Node4</title>
<g id="a_node4"><a xlink:href="$v0_89_2common_2testsuite_8h.html#af349432601ac003d2c80a69c100c70a4" xlink:title="mavlink_test_common">
<polygon fill="white" stroke="black" points="508.5,-5.5 508.5,-24.5 623.5,-24.5 623.5,-5.5 508.5,-5.5"/>
<text text-anchor="middle" x="566" y="-12.5" font-family="Helvetica,sans-Serif" font-size="10.00">mavlink_test_common</text>
</a>
</g>
</g>
<!-- Node3&#45;&gt;Node4 -->
<g id="edge3" class="edge"><title>Node3&#45;&gt;Node4</title>
<path fill="none" stroke="midnightblue" d="M481.931,-15C490.627,-15 499.573,-15 508.224,-15"/>
<polygon fill="midnightblue" stroke="midnightblue" points="481.868,-11.5001 471.868,-15 481.868,-18.5001 481.868,-11.5001"/>
</g>
<!-- Node5 -->
<g id="node5" class="node"><title>Node5</title>
<g id="a_node5"><a xlink:href="$v0_89_2common_2testsuite_8h.html#a4cc77b6c343679298da5d3c2b4e48759" xlink:title="mavlink_test_all">
<polygon fill="white" stroke="black" points="660.5,-5.5 660.5,-24.5 747.5,-24.5 747.5,-5.5 660.5,-5.5"/>
<text text-anchor="middle" x="704" y="-12.5" font-family="Helvetica,sans-Serif" font-size="10.00">mavlink_test_all</text>
</a>
</g>
</g>
<!-- Node4&#45;&gt;Node5 -->
<g id="edge4" class="edge"><title>Node4&#45;&gt;Node5</title>
<path fill="none" stroke="midnightblue" d="M633.996,-15C642.988,-15 652.003,-15 660.412,-15"/>
<polygon fill="midnightblue" stroke="midnightblue" points="633.888,-11.5001 623.888,-15 633.888,-18.5001 633.888,-11.5001"/>
</g>
</g>
</svg>
