<?xml version="1.0" encoding="UTF-8" standalone="no"?>
<!DOCTYPE svg PUBLIC "-//W3C//DTD SVG 1.1//EN"
 "http://www.w3.org/Graphics/SVG/1.1/DTD/svg11.dtd">
<!-- Generated by graphviz version 2.36.0 (20140111.2315)
 -->
<!-- Title: mavlink_msg_roll_pitch_yaw_speed_thrust_setpoint_pack_chan Pages: 1 -->
<svg width="344pt" height="48pt"
 viewBox="0.00 0.00 344.00 48.00" xmlns="http://www.w3.org/2000/svg" xmlns:xlink="http://www.w3.org/1999/xlink">
<g id="graph0" class="graph" transform="scale(1 1) rotate(0) translate(4 44)">
<title>mavlink_msg_roll_pitch_yaw_speed_thrust_setpoint_pack_chan</title>
<polygon fill="white" stroke="none" points="-4,4 -4,-44 340,-44 340,4 -4,4"/>
<!-- Node1 -->
<g id="node1" class="node"><title>Node1</title>
<polygon fill="#bfbfbf" stroke="black" points="0.5,0.5 0.5,-40.5 141.5,-40.5 141.5,0.5 0.5,0.5"/>
<text text-anchor="start" x="8.5" y="-28.5" font-family="Helvetica,sans-Serif" font-size="10.00">mavlink_msg_roll_pitch</text>
<text text-anchor="start" x="8.5" y="-17.5" font-family="Helvetica,sans-Serif" font-size="10.00">_yaw_speed_thrust_setpoint</text>
<text text-anchor="middle" x="71" y="-6.5" font-family="Helvetica,sans-Serif" font-size="10.00">_pack_chan</text>
</g>
<!-- Node2 -->
<g id="node2" class="node"><title>Node2</title>
<g id="a_node2"><a xlink:href="$v0_89_2mavlink__helpers_8h.html#aa66131138fc02101dcc73b4b556ab422" xlink:title="Finalize a MAVLink message with channel assignment. ">
<polygon fill="white" stroke="black" points="178,-10.5 178,-29.5 336,-29.5 336,-10.5 178,-10.5"/>
<text text-anchor="middle" x="257" y="-17.5" font-family="Helvetica,sans-Serif" font-size="10.00">mavlink_finalize_message_chan</text>
</a>
</g>
</g>
<!-- Node1&#45;&gt;Node2 -->
<g id="edge1" class="edge"><title>Node1&#45;&gt;Node2</title>
<path fill="none" stroke="midnightblue" d="M141.563,-20C150.047,-20 158.804,-20 167.518,-20"/>
<polygon fill="midnightblue" stroke="midnightblue" points="167.709,-23.5001 177.709,-20 167.709,-16.5001 167.709,-23.5001"/>
</g>
</g>
</svg>
