<?xml version="1.0" encoding="UTF-8" standalone="no"?>
<!DOCTYPE svg PUBLIC "-//W3C//DTD SVG 1.1//EN"
 "http://www.w3.org/Graphics/SVG/1.1/DTD/svg11.dtd">
<!-- Generated by graphviz version 2.36.0 (20140111.2315)
 -->
<!-- Title: mavlink_msg_gimbal_control_pack Pages: 1 -->
<svg width="700pt" height="61pt"
 viewBox="0.00 0.00 700.00 61.00" xmlns="http://www.w3.org/2000/svg" xmlns:xlink="http://www.w3.org/1999/xlink">
<g id="graph0" class="graph" transform="scale(1 1) rotate(0) translate(4 57)">
<title>mavlink_msg_gimbal_control_pack</title>
<polygon fill="white" stroke="none" points="-4,4 -4,-57 696,-57 696,4 -4,4"/>
<!-- Node1 -->
<g id="node1" class="node"><title>Node1</title>
<polygon fill="#bfbfbf" stroke="black" points="0,-1 0,-31 108,-31 108,-1 0,-1"/>
<text text-anchor="start" x="8" y="-19" font-family="Helvetica,sans-Serif" font-size="10.00">mavlink_msg_gimbal</text>
<text text-anchor="middle" x="54" y="-8" font-family="Helvetica,sans-Serif" font-size="10.00">_control_pack</text>
</g>
<!-- Node2 -->
<g id="node2" class="node"><title>Node2</title>
<g id="a_node2"><a xlink:href="$mavlink__msg__gimbal__control_8h.html#a5f8b7cd959ed9f7a4ed5b4aee3ce6ea5" xlink:title="Encode a gimbal_control struct. ">
<polygon fill="white" stroke="black" points="144,-23 144,-53 252,-53 252,-23 144,-23"/>
<text text-anchor="start" x="152" y="-41" font-family="Helvetica,sans-Serif" font-size="10.00">mavlink_msg_gimbal</text>
<text text-anchor="middle" x="198" y="-30" font-family="Helvetica,sans-Serif" font-size="10.00">_control_encode</text>
</a>
</g>
</g>
<!-- Node1&#45;&gt;Node2 -->
<g id="edge1" class="edge"><title>Node1&#45;&gt;Node2</title>
<path fill="none" stroke="midnightblue" d="M118.238,-25.7974C126.806,-27.1249 135.528,-28.4761 143.894,-29.7723"/>
<polygon fill="midnightblue" stroke="midnightblue" points="118.698,-22.327 108.28,-24.2546 117.626,-29.2444 118.698,-22.327"/>
</g>
<!-- Node3 -->
<g id="node3" class="node"><title>Node3</title>
<g id="a_node3"><a xlink:href="$v1_80_2ardupilotmega_2testsuite_8h.html#ad5b3b14d507937fbf55af225957545cf" xlink:title="mavlink_test_gimbal\l_control">
<polygon fill="white" stroke="black" points="288,-1 288,-31 394,-31 394,-1 288,-1"/>
<text text-anchor="start" x="296" y="-19" font-family="Helvetica,sans-Serif" font-size="10.00">mavlink_test_gimbal</text>
<text text-anchor="middle" x="341" y="-8" font-family="Helvetica,sans-Serif" font-size="10.00">_control</text>
</a>
</g>
</g>
<!-- Node1&#45;&gt;Node3 -->
<g id="edge5" class="edge"><title>Node1&#45;&gt;Node3</title>
<path fill="none" stroke="midnightblue" d="M118.248,-14.4037C126.901,-14.2365 135.669,-14.0936 144,-14 191.997,-13.4608 204.003,-13.4547 252,-14 263.613,-14.132 276.087,-14.3618 287.887,-14.6199"/>
<polygon fill="midnightblue" stroke="midnightblue" points="118.103,-10.9058 108.177,-14.6097 118.246,-17.9043 118.103,-10.9058"/>
</g>
<!-- Node2&#45;&gt;Node3 -->
<g id="edge2" class="edge"><title>Node2&#45;&gt;Node3</title>
<path fill="none" stroke="midnightblue" d="M262.447,-28.1005C270.842,-26.7907 279.371,-25.4598 287.553,-24.1832"/>
<polygon fill="midnightblue" stroke="midnightblue" points="261.647,-24.6829 252.306,-29.6827 262.726,-31.5992 261.647,-24.6829"/>
</g>
<!-- Node4 -->
<g id="node4" class="node"><title>Node4</title>
<g id="a_node4"><a xlink:href="$v1_80_2ardupilotmega_2testsuite_8h.html#ab264d471ac2f46584f2bb580704b5e9d" xlink:title="mavlink_test_ardupilotmega">
<polygon fill="white" stroke="black" points="430,-6.5 430,-25.5 568,-25.5 568,-6.5 430,-6.5"/>
<text text-anchor="middle" x="499" y="-13.5" font-family="Helvetica,sans-Serif" font-size="10.00">mavlink_test_ardupilotmega</text>
</a>
</g>
</g>
<!-- Node3&#45;&gt;Node4 -->
<g id="edge3" class="edge"><title>Node3&#45;&gt;Node4</title>
<path fill="none" stroke="midnightblue" d="M404.461,-16C412.849,-16 421.488,-16 429.967,-16"/>
<polygon fill="midnightblue" stroke="midnightblue" points="404.38,-12.5001 394.38,-16 404.38,-19.5001 404.38,-12.5001"/>
</g>
<!-- Node5 -->
<g id="node5" class="node"><title>Node5</title>
<g id="a_node5"><a xlink:href="$v1_80_2ardupilotmega_2testsuite_8h.html#a4cc77b6c343679298da5d3c2b4e48759" xlink:title="mavlink_test_all">
<polygon fill="white" stroke="black" points="604.5,-6.5 604.5,-25.5 691.5,-25.5 691.5,-6.5 604.5,-6.5"/>
<text text-anchor="middle" x="648" y="-13.5" font-family="Helvetica,sans-Serif" font-size="10.00">mavlink_test_all</text>
</a>
</g>
</g>
<!-- Node4&#45;&gt;Node5 -->
<g id="edge4" class="edge"><title>Node4&#45;&gt;Node5</title>
<path fill="none" stroke="midnightblue" d="M578.438,-16C587.373,-16 596.211,-16 604.42,-16"/>
<polygon fill="midnightblue" stroke="midnightblue" points="578.336,-12.5001 568.336,-16 578.336,-19.5001 578.336,-12.5001"/>
</g>
</g>
</svg>
