<?xml version="1.0" encoding="UTF-8" standalone="no"?>
<!DOCTYPE svg PUBLIC "-//W3C//DTD SVG 1.1//EN"
 "http://www.w3.org/Graphics/SVG/1.1/DTD/svg11.dtd">
<!-- Generated by graphviz version 2.36.0 (20140111.2315)
 -->
<!-- Title: mavlink_msg_hil_optical_flow_encode Pages: 1 -->
<svg width="460pt" height="38pt"
 viewBox="0.00 0.00 460.00 38.00" xmlns="http://www.w3.org/2000/svg" xmlns:xlink="http://www.w3.org/1999/xlink">
<g id="graph0" class="graph" transform="scale(1 1) rotate(0) translate(4 34)">
<title>mavlink_msg_hil_optical_flow_encode</title>
<polygon fill="white" stroke="none" points="-4,4 -4,-34 456,-34 456,4 -4,4"/>
<!-- Node1 -->
<g id="node1" class="node"><title>Node1</title>
<polygon fill="#bfbfbf" stroke="black" points="0.5,-0 0.5,-30 123.5,-30 123.5,-0 0.5,-0"/>
<text text-anchor="start" x="8.5" y="-18" font-family="Helvetica,sans-Serif" font-size="10.00">mavlink_msg_hil_optical</text>
<text text-anchor="middle" x="62" y="-7" font-family="Helvetica,sans-Serif" font-size="10.00">_flow_encode</text>
</g>
<!-- Node2 -->
<g id="node2" class="node"><title>Node2</title>
<g id="a_node2"><a xlink:href="$mavlink__msg__hil__optical__flow_8h.html#a42c1fbef3df3933814d06793f88e9201" xlink:title="Pack a hil_optical_flow message. ">
<polygon fill="white" stroke="black" points="160.5,-0 160.5,-30 283.5,-30 283.5,-0 160.5,-0"/>
<text text-anchor="start" x="168.5" y="-18" font-family="Helvetica,sans-Serif" font-size="10.00">mavlink_msg_hil_optical</text>
<text text-anchor="middle" x="222" y="-7" font-family="Helvetica,sans-Serif" font-size="10.00">_flow_pack</text>
</a>
</g>
</g>
<!-- Node1&#45;&gt;Node2 -->
<g id="edge1" class="edge"><title>Node1&#45;&gt;Node2</title>
<path fill="none" stroke="midnightblue" d="M123.635,-15C132.267,-15 141.208,-15 150.016,-15"/>
<polygon fill="midnightblue" stroke="midnightblue" points="150.266,-18.5001 160.266,-15 150.266,-11.5001 150.266,-18.5001"/>
</g>
<!-- Node3 -->
<g id="node3" class="node"><title>Node3</title>
<g id="a_node3"><a xlink:href="$v0_89_2mavlink__helpers_8h.html#af3bea083c5ec83f5b6570b2bd4a817d0" xlink:title="Finalize a MAVLink message with MAVLINK_COMM_0 as default channel. ">
<polygon fill="white" stroke="black" points="320.5,-5.5 320.5,-24.5 451.5,-24.5 451.5,-5.5 320.5,-5.5"/>
<text text-anchor="middle" x="386" y="-12.5" font-family="Helvetica,sans-Serif" font-size="10.00">mavlink_finalize_message</text>
</a>
</g>
</g>
<!-- Node2&#45;&gt;Node3 -->
<g id="edge2" class="edge"><title>Node2&#45;&gt;Node3</title>
<path fill="none" stroke="midnightblue" d="M283.784,-15C292.366,-15 301.272,-15 310.082,-15"/>
<polygon fill="midnightblue" stroke="midnightblue" points="310.354,-18.5001 320.354,-15 310.354,-11.5001 310.354,-18.5001"/>
</g>
</g>
</svg>
