<?xml version="1.0" encoding="UTF-8" standalone="no"?>
<!DOCTYPE svg PUBLIC "-//W3C//DTD SVG 1.1//EN"
 "http://www.w3.org/Graphics/SVG/1.1/DTD/svg11.dtd">
<!-- Generated by graphviz version 2.36.0 (20140111.2315)
 -->
<!-- Title: mavlink_msg_local_position_ned_cov_encode Pages: 1 -->
<svg width="492pt" height="66pt"
 viewBox="0.00 0.00 492.00 66.00" xmlns="http://www.w3.org/2000/svg" xmlns:xlink="http://www.w3.org/1999/xlink">
<g id="graph0" class="graph" transform="scale(1 1) rotate(0) translate(4 62)">
<title>mavlink_msg_local_position_ned_cov_encode</title>
<polygon fill="white" stroke="none" points="-4,4 -4,-62 488,-62 488,4 -4,4"/>
<!-- Node1 -->
<g id="node1" class="node"><title>Node1</title>
<polygon fill="#bfbfbf" stroke="black" points="0.5,-14 0.5,-44 139.5,-44 139.5,-14 0.5,-14"/>
<text text-anchor="start" x="8.5" y="-32" font-family="Helvetica,sans-Serif" font-size="10.00">mavlink_msg_local_position</text>
<text text-anchor="middle" x="70" y="-21" font-family="Helvetica,sans-Serif" font-size="10.00">_ned_cov_encode</text>
</g>
<!-- Node2 -->
<g id="node2" class="node"><title>Node2</title>
<g id="a_node2"><a xlink:href="$mavlink__msg__local__position__ned__cov_8h.html#af5ea61a113f820a3d00b642d87a489b7" xlink:title="Pack a local_position_ned_cov message. ">
<polygon fill="white" stroke="black" points="176.5,-14 176.5,-44 315.5,-44 315.5,-14 176.5,-14"/>
<text text-anchor="start" x="184.5" y="-32" font-family="Helvetica,sans-Serif" font-size="10.00">mavlink_msg_local_position</text>
<text text-anchor="middle" x="246" y="-21" font-family="Helvetica,sans-Serif" font-size="10.00">_ned_cov_pack</text>
</a>
</g>
</g>
<!-- Node1&#45;&gt;Node2 -->
<g id="edge1" class="edge"><title>Node1&#45;&gt;Node2</title>
<path fill="none" stroke="midnightblue" d="M139.769,-29C148.44,-29 157.364,-29 166.176,-29"/>
<polygon fill="midnightblue" stroke="midnightblue" points="166.445,-32.5001 176.445,-29 166.445,-25.5001 166.445,-32.5001"/>
</g>
<!-- Node3 -->
<g id="node3" class="node"><title>Node3</title>
<g id="a_node3"><a xlink:href="$v0_89_2protocol_8h.html#a4486c3d5854cac1cb6a0fb1cc5ba570c" xlink:title="mav_array_memcpy">
<polygon fill="white" stroke="black" points="365.5,-38.5 365.5,-57.5 470.5,-57.5 470.5,-38.5 365.5,-38.5"/>
<text text-anchor="middle" x="418" y="-45.5" font-family="Helvetica,sans-Serif" font-size="10.00">mav_array_memcpy</text>
</a>
</g>
</g>
<!-- Node2&#45;&gt;Node3 -->
<g id="edge2" class="edge"><title>Node2&#45;&gt;Node3</title>
<path fill="none" stroke="midnightblue" d="M315.655,-36.6733C328.744,-38.1361 342.369,-39.6589 355.227,-41.096"/>
<polygon fill="midnightblue" stroke="midnightblue" points="355.022,-44.5948 365.349,-42.2272 355.8,-37.6381 355.022,-44.5948"/>
</g>
<!-- Node4 -->
<g id="node4" class="node"><title>Node4</title>
<g id="a_node4"><a xlink:href="$v0_89_2mavlink__helpers_8h.html#af3bea083c5ec83f5b6570b2bd4a817d0" xlink:title="Finalize a MAVLink message with MAVLINK_COMM_0 as default channel. ">
<polygon fill="white" stroke="black" points="352.5,-0.5 352.5,-19.5 483.5,-19.5 483.5,-0.5 352.5,-0.5"/>
<text text-anchor="middle" x="418" y="-7.5" font-family="Helvetica,sans-Serif" font-size="10.00">mavlink_finalize_message</text>
</a>
</g>
</g>
<!-- Node2&#45;&gt;Node4 -->
<g id="edge3" class="edge"><title>Node2&#45;&gt;Node4</title>
<path fill="none" stroke="midnightblue" d="M315.655,-21.3267C324.493,-20.339 333.576,-19.3238 342.502,-18.3262"/>
<polygon fill="midnightblue" stroke="midnightblue" points="342.942,-21.7989 352.492,-17.2098 342.165,-14.8422 342.942,-21.7989"/>
</g>
</g>
</svg>
