<?xml version="1.0" encoding="UTF-8" standalone="no"?>
<!DOCTYPE svg PUBLIC "-//W3C//DTD SVG 1.1//EN"
 "http://www.w3.org/Graphics/SVG/1.1/DTD/svg11.dtd">
<!-- Generated by graphviz version 2.36.0 (20140111.2315)
 -->
<!-- Title: mavlink_msg_vision_speed_estimate_decode Pages: 1 -->
<svg width="308pt" height="185pt"
 viewBox="0.00 0.00 308.00 185.00" xmlns="http://www.w3.org/2000/svg" xmlns:xlink="http://www.w3.org/1999/xlink">
<g id="graph0" class="graph" transform="scale(1 1) rotate(0) translate(4 181)">
<title>mavlink_msg_vision_speed_estimate_decode</title>
<polygon fill="white" stroke="none" points="-4,4 -4,-181 304,-181 304,4 -4,4"/>
<!-- Node1 -->
<g id="node1" class="node"><title>Node1</title>
<polygon fill="#bfbfbf" stroke="black" points="0,-73 0,-103 128,-103 128,-73 0,-73"/>
<text text-anchor="start" x="8" y="-91" font-family="Helvetica,sans-Serif" font-size="10.00">mavlink_msg_vision</text>
<text text-anchor="middle" x="64" y="-80" font-family="Helvetica,sans-Serif" font-size="10.00">_speed_estimate_decode</text>
</g>
<!-- Node2 -->
<g id="node2" class="node"><title>Node2</title>
<g id="a_node2"><a xlink:href="$mavlink__msg__vision__speed__estimate_8h.html#a11d9a9d3fb9aaf0acb4bf595dda7bd33" xlink:title="Send a vision_speed_estimate message. ">
<polygon fill="white" stroke="black" points="164,-147 164,-177 300,-177 300,-147 164,-147"/>
<text text-anchor="start" x="172" y="-165" font-family="Helvetica,sans-Serif" font-size="10.00">mavlink_msg_vision</text>
<text text-anchor="middle" x="232" y="-154" font-family="Helvetica,sans-Serif" font-size="10.00">_speed_estimate_get_usec</text>
</a>
</g>
</g>
<!-- Node1&#45;&gt;Node2 -->
<g id="edge1" class="edge"><title>Node1&#45;&gt;Node2</title>
<path fill="none" stroke="midnightblue" d="M93.657,-103.157C113.23,-113.267 139.887,-126.567 164,-137 168.791,-139.073 173.816,-141.139 178.868,-143.146"/>
<polygon fill="midnightblue" stroke="midnightblue" points="177.975,-146.554 188.564,-146.915 180.511,-140.029 177.975,-146.554"/>
</g>
<!-- Node3 -->
<g id="node3" class="node"><title>Node3</title>
<g id="a_node3"><a xlink:href="$mavlink__msg__vision__speed__estimate_8h.html#ab86b66249629d9c54de947b8337c42ae" xlink:title="Get field x from vision_speed_estimate message. ">
<polygon fill="white" stroke="black" points="172,-98 172,-128 292,-128 292,-98 172,-98"/>
<text text-anchor="start" x="180" y="-116" font-family="Helvetica,sans-Serif" font-size="10.00">mavlink_msg_vision</text>
<text text-anchor="middle" x="232" y="-105" font-family="Helvetica,sans-Serif" font-size="10.00">_speed_estimate_get_x</text>
</a>
</g>
</g>
<!-- Node1&#45;&gt;Node3 -->
<g id="edge2" class="edge"><title>Node1&#45;&gt;Node3</title>
<path fill="none" stroke="midnightblue" d="M128.231,-97.5227C139.174,-99.1708 150.605,-100.892 161.699,-102.563"/>
<polygon fill="midnightblue" stroke="midnightblue" points="161.36,-106.051 171.77,-104.08 162.402,-99.1295 161.36,-106.051"/>
</g>
<!-- Node4 -->
<g id="node4" class="node"><title>Node4</title>
<g id="a_node4"><a xlink:href="$mavlink__msg__vision__speed__estimate_8h.html#a7452e62cfcc75b5cc791de5b07c7f1dd" xlink:title="Get field y from vision_speed_estimate message. ">
<polygon fill="white" stroke="black" points="172,-49 172,-79 292,-79 292,-49 172,-49"/>
<text text-anchor="start" x="180" y="-67" font-family="Helvetica,sans-Serif" font-size="10.00">mavlink_msg_vision</text>
<text text-anchor="middle" x="232" y="-56" font-family="Helvetica,sans-Serif" font-size="10.00">_speed_estimate_get_y</text>
</a>
</g>
</g>
<!-- Node1&#45;&gt;Node4 -->
<g id="edge3" class="edge"><title>Node1&#45;&gt;Node4</title>
<path fill="none" stroke="midnightblue" d="M128.231,-78.8582C139.174,-77.276 150.605,-75.6234 161.699,-74.0194"/>
<polygon fill="midnightblue" stroke="midnightblue" points="162.373,-77.4584 171.77,-72.5634 161.372,-70.5304 162.373,-77.4584"/>
</g>
<!-- Node5 -->
<g id="node5" class="node"><title>Node5</title>
<g id="a_node5"><a xlink:href="$mavlink__msg__vision__speed__estimate_8h.html#aa7be484f6206c95f1d43e686e4e51967" xlink:title="Get field z from vision_speed_estimate message. ">
<polygon fill="white" stroke="black" points="172,-0 172,-30 292,-30 292,-0 172,-0"/>
<text text-anchor="start" x="180" y="-18" font-family="Helvetica,sans-Serif" font-size="10.00">mavlink_msg_vision</text>
<text text-anchor="middle" x="232" y="-7" font-family="Helvetica,sans-Serif" font-size="10.00">_speed_estimate_get_z</text>
</a>
</g>
</g>
<!-- Node1&#45;&gt;Node5 -->
<g id="edge4" class="edge"><title>Node1&#45;&gt;Node5</title>
<path fill="none" stroke="midnightblue" d="M94.122,-72.9831C113.669,-63.127 140.117,-50.2188 164,-40 168.994,-37.8633 174.238,-35.7268 179.5,-33.6528"/>
<polygon fill="midnightblue" stroke="midnightblue" points="180.879,-36.8724 188.943,-30.0005 178.353,-30.3437 180.879,-36.8724"/>
</g>
</g>
</svg>
