<?xml version="1.0" encoding="UTF-8" standalone="no"?>
<!DOCTYPE svg PUBLIC "-//W3C//DTD SVG 1.1//EN"
 "http://www.w3.org/Graphics/SVG/1.1/DTD/svg11.dtd">
<!-- Generated by graphviz version 2.36.0 (20140111.2315)
 -->
<!-- Title: mavlink_msg_hil_rc_inputs_raw_pack_chan Pages: 1 -->
<svg width="574pt" height="87pt"
 viewBox="0.00 0.00 574.00 87.00" xmlns="http://www.w3.org/2000/svg" xmlns:xlink="http://www.w3.org/1999/xlink">
<g id="graph0" class="graph" transform="scale(1 1) rotate(0) translate(4 83)">
<title>mavlink_msg_hil_rc_inputs_raw_pack_chan</title>
<polygon fill="white" stroke="none" points="-4,4 -4,-83 570,-83 570,4 -4,4"/>
<!-- Node1 -->
<g id="node1" class="node"><title>Node1</title>
<polygon fill="#bfbfbf" stroke="black" points="0,-24 0,-54 122,-54 122,-24 0,-24"/>
<text text-anchor="start" x="8" y="-42" font-family="Helvetica,sans-Serif" font-size="10.00">mavlink_msg_hil_rc</text>
<text text-anchor="middle" x="61" y="-31" font-family="Helvetica,sans-Serif" font-size="10.00">_inputs_raw_pack_chan</text>
</g>
<!-- Node2 -->
<g id="node2" class="node"><title>Node2</title>
<g id="a_node2"><a xlink:href="$mavlink__msg__hil__rc__inputs__raw_8h.html#a56a304c767018bd7456f15f79a388c02" xlink:title="Encode a hil_rc_inputs_raw struct on a channel. ">
<polygon fill="white" stroke="black" points="158,-49 158,-79 290,-79 290,-49 158,-49"/>
<text text-anchor="start" x="166" y="-67" font-family="Helvetica,sans-Serif" font-size="10.00">mavlink_msg_hil_rc</text>
<text text-anchor="middle" x="224" y="-56" font-family="Helvetica,sans-Serif" font-size="10.00">_inputs_raw_encode_chan</text>
</a>
</g>
</g>
<!-- Node1&#45;&gt;Node2 -->
<g id="edge1" class="edge"><title>Node1&#45;&gt;Node2</title>
<path fill="none" stroke="midnightblue" d="M132.313,-49.9182C140.831,-51.2409 149.504,-52.5875 157.941,-53.8977"/>
<polygon fill="midnightblue" stroke="midnightblue" points="132.827,-46.4561 122.409,-48.3802 131.753,-53.3732 132.827,-46.4561"/>
</g>
<!-- Node3 -->
<g id="node3" class="node"><title>Node3</title>
<g id="a_node3"><a xlink:href="$v1_80_2common_2testsuite_8h.html#abb5379d55a7afd4893800e4398b3a77a" xlink:title="mavlink_test_hil_rc\l_inputs_raw">
<polygon fill="white" stroke="black" points="173.5,-0 173.5,-30 274.5,-30 274.5,-0 173.5,-0"/>
<text text-anchor="start" x="181.5" y="-18" font-family="Helvetica,sans-Serif" font-size="10.00">mavlink_test_hil_rc</text>
<text text-anchor="middle" x="224" y="-7" font-family="Helvetica,sans-Serif" font-size="10.00">_inputs_raw</text>
</a>
</g>
</g>
<!-- Node1&#45;&gt;Node3 -->
<g id="edge2" class="edge"><title>Node1&#45;&gt;Node3</title>
<path fill="none" stroke="midnightblue" d="M132.356,-28.5121C146.148,-26.4562 160.343,-24.3401 173.288,-22.4104"/>
<polygon fill="midnightblue" stroke="midnightblue" points="131.783,-25.0588 122.409,-29.995 132.815,-31.9823 131.783,-25.0588"/>
</g>
<!-- Node4 -->
<g id="node4" class="node"><title>Node4</title>
<g id="a_node4"><a xlink:href="$v1_80_2common_2testsuite_8h.html#af349432601ac003d2c80a69c100c70a4" xlink:title="mavlink_test_common">
<polygon fill="white" stroke="black" points="326.5,-5.5 326.5,-24.5 441.5,-24.5 441.5,-5.5 326.5,-5.5"/>
<text text-anchor="middle" x="384" y="-12.5" font-family="Helvetica,sans-Serif" font-size="10.00">mavlink_test_common</text>
</a>
</g>
</g>
<!-- Node3&#45;&gt;Node4 -->
<g id="edge3" class="edge"><title>Node3&#45;&gt;Node4</title>
<path fill="none" stroke="midnightblue" d="M284.813,-15C298.468,-15 312.938,-15 326.452,-15"/>
<polygon fill="midnightblue" stroke="midnightblue" points="284.559,-11.5001 274.559,-15 284.559,-18.5001 284.559,-11.5001"/>
</g>
<!-- Node5 -->
<g id="node5" class="node"><title>Node5</title>
<g id="a_node5"><a xlink:href="$v1_80_2common_2testsuite_8h.html#a4cc77b6c343679298da5d3c2b4e48759" xlink:title="mavlink_test_all">
<polygon fill="white" stroke="black" points="478.5,-5.5 478.5,-24.5 565.5,-24.5 565.5,-5.5 478.5,-5.5"/>
<text text-anchor="middle" x="522" y="-12.5" font-family="Helvetica,sans-Serif" font-size="10.00">mavlink_test_all</text>
</a>
</g>
</g>
<!-- Node4&#45;&gt;Node5 -->
<g id="edge4" class="edge"><title>Node4&#45;&gt;Node5</title>
<path fill="none" stroke="midnightblue" d="M451.996,-15C460.988,-15 470.003,-15 478.412,-15"/>
<polygon fill="midnightblue" stroke="midnightblue" points="451.888,-11.5001 441.888,-15 451.888,-18.5001 451.888,-11.5001"/>
</g>
</g>
</svg>
