<?xml version="1.0" encoding="UTF-8" standalone="no"?>
<!DOCTYPE svg PUBLIC "-//W3C//DTD SVG 1.1//EN"
 "http://www.w3.org/Graphics/SVG/1.1/DTD/svg11.dtd">
<!-- Generated by graphviz version 2.36.0 (20140111.2315)
 -->
<!-- Title: mavlink_msg_action_ack_pack Pages: 1 -->
<svg width="694pt" height="61pt"
 viewBox="0.00 0.00 694.00 61.00" xmlns="http://www.w3.org/2000/svg" xmlns:xlink="http://www.w3.org/1999/xlink">
<g id="graph0" class="graph" transform="scale(1 1) rotate(0) translate(4 57)">
<title>mavlink_msg_action_ack_pack</title>
<polygon fill="white" stroke="none" points="-4,4 -4,-57 690,-57 690,4 -4,4"/>
<!-- Node1 -->
<g id="node1" class="node"><title>Node1</title>
<polygon fill="#bfbfbf" stroke="black" points="0,-1 0,-31 106,-31 106,-1 0,-1"/>
<text text-anchor="start" x="8" y="-19" font-family="Helvetica,sans-Serif" font-size="10.00">mavlink_msg_action</text>
<text text-anchor="middle" x="53" y="-8" font-family="Helvetica,sans-Serif" font-size="10.00">_ack_pack</text>
</g>
<!-- Node2 -->
<g id="node2" class="node"><title>Node2</title>
<g id="a_node2"><a xlink:href="$mavlink__msg__action__ack_8h.html#afd0b9e212dee4d749f85a86f7b280b58" xlink:title="Encode a action_ack struct into a message. ">
<polygon fill="white" stroke="black" points="142,-23 142,-53 248,-53 248,-23 142,-23"/>
<text text-anchor="start" x="150" y="-41" font-family="Helvetica,sans-Serif" font-size="10.00">mavlink_msg_action</text>
<text text-anchor="middle" x="195" y="-30" font-family="Helvetica,sans-Serif" font-size="10.00">_ack_encode</text>
</a>
</g>
</g>
<!-- Node1&#45;&gt;Node2 -->
<g id="edge1" class="edge"><title>Node1&#45;&gt;Node2</title>
<path fill="none" stroke="midnightblue" d="M116.107,-25.7596C124.695,-27.1091 133.443,-28.4839 141.826,-29.8012"/>
<polygon fill="midnightblue" stroke="midnightblue" points="116.553,-22.2869 106.131,-24.192 115.466,-29.202 116.553,-22.2869"/>
</g>
<!-- Node3 -->
<g id="node3" class="node"><title>Node3</title>
<g id="a_node3"><a xlink:href="$v0_89_2common_2testsuite_8h.html#a9cdfd99a6104053813859509acfb4602" xlink:title="mavlink_test_action_ack">
<polygon fill="white" stroke="black" points="284.5,-6.5 284.5,-25.5 409.5,-25.5 409.5,-6.5 284.5,-6.5"/>
<text text-anchor="middle" x="347" y="-13.5" font-family="Helvetica,sans-Serif" font-size="10.00">mavlink_test_action_ack</text>
</a>
</g>
</g>
<!-- Node1&#45;&gt;Node3 -->
<g id="edge5" class="edge"><title>Node1&#45;&gt;Node3</title>
<path fill="none" stroke="midnightblue" d="M116.195,-14.4104C124.861,-14.2403 133.653,-14.0948 142,-14 189.108,-13.4648 200.891,-13.5193 248,-14 259.741,-14.1198 272.273,-14.3203 284.316,-14.5493"/>
<polygon fill="midnightblue" stroke="midnightblue" points="116.038,-10.9128 106.113,-14.6199 116.184,-17.9113 116.038,-10.9128"/>
</g>
<!-- Node2&#45;&gt;Node3 -->
<g id="edge2" class="edge"><title>Node2&#45;&gt;Node3</title>
<path fill="none" stroke="midnightblue" d="M258.061,-28.8978C266.712,-27.6289 275.601,-26.3252 284.247,-25.0571"/>
<polygon fill="midnightblue" stroke="midnightblue" points="257.428,-25.453 248.042,-30.3672 258.444,-32.3789 257.428,-25.453"/>
</g>
<!-- Node4 -->
<g id="node4" class="node"><title>Node4</title>
<g id="a_node4"><a xlink:href="$v0_89_2common_2testsuite_8h.html#af349432601ac003d2c80a69c100c70a4" xlink:title="mavlink_test_common">
<polygon fill="white" stroke="black" points="446.5,-6.5 446.5,-25.5 561.5,-25.5 561.5,-6.5 446.5,-6.5"/>
<text text-anchor="middle" x="504" y="-13.5" font-family="Helvetica,sans-Serif" font-size="10.00">mavlink_test_common</text>
</a>
</g>
</g>
<!-- Node3&#45;&gt;Node4 -->
<g id="edge3" class="edge"><title>Node3&#45;&gt;Node4</title>
<path fill="none" stroke="midnightblue" d="M419.991,-16C428.813,-16 437.731,-16 446.285,-16"/>
<polygon fill="midnightblue" stroke="midnightblue" points="419.706,-12.5001 409.705,-16 419.705,-19.5001 419.706,-12.5001"/>
</g>
<!-- Node5 -->
<g id="node5" class="node"><title>Node5</title>
<g id="a_node5"><a xlink:href="$v0_89_2common_2testsuite_8h.html#a4cc77b6c343679298da5d3c2b4e48759" xlink:title="mavlink_test_all">
<polygon fill="white" stroke="black" points="598.5,-6.5 598.5,-25.5 685.5,-25.5 685.5,-6.5 598.5,-6.5"/>
<text text-anchor="middle" x="642" y="-13.5" font-family="Helvetica,sans-Serif" font-size="10.00">mavlink_test_all</text>
</a>
</g>
</g>
<!-- Node4&#45;&gt;Node5 -->
<g id="edge4" class="edge"><title>Node4&#45;&gt;Node5</title>
<path fill="none" stroke="midnightblue" d="M571.996,-16C580.988,-16 590.003,-16 598.412,-16"/>
<polygon fill="midnightblue" stroke="midnightblue" points="571.888,-12.5001 561.888,-16 571.888,-19.5001 571.888,-12.5001"/>
</g>
</g>
</svg>
