<?xml version="1.0" encoding="UTF-8" standalone="no"?>
<!DOCTYPE svg PUBLIC "-//W3C//DTD SVG 1.1//EN"
 "http://www.w3.org/Graphics/SVG/1.1/DTD/svg11.dtd">
<!-- Generated by graphviz version 2.36.0 (20140111.2315)
 -->
<!-- Title: mavlink_msg_hil_gps_get_vd Pages: 1 -->
<svg width="684pt" height="38pt"
 viewBox="0.00 0.00 684.00 38.00" xmlns="http://www.w3.org/2000/svg" xmlns:xlink="http://www.w3.org/1999/xlink">
<g id="graph0" class="graph" transform="scale(1 1) rotate(0) translate(4 34)">
<title>mavlink_msg_hil_gps_get_vd</title>
<polygon fill="white" stroke="none" points="-4,4 -4,-34 680,-34 680,4 -4,4"/>
<!-- Node1 -->
<g id="node1" class="node"><title>Node1</title>
<polygon fill="#bfbfbf" stroke="black" points="0,-0 0,-30 110,-30 110,-0 0,-0"/>
<text text-anchor="start" x="8" y="-18" font-family="Helvetica,sans-Serif" font-size="10.00">mavlink_msg_hil_gps</text>
<text text-anchor="middle" x="55" y="-7" font-family="Helvetica,sans-Serif" font-size="10.00">_get_vd</text>
</g>
<!-- Node2 -->
<g id="node2" class="node"><title>Node2</title>
<g id="a_node2"><a xlink:href="$mavlink__msg__hil__gps_8h.html#a7eb88bb91b250d0d00ee506d7104c9c0" xlink:title="Decode a hil_gps message into a struct. ">
<polygon fill="white" stroke="black" points="146,-0 146,-30 256,-30 256,-0 146,-0"/>
<text text-anchor="start" x="154" y="-18" font-family="Helvetica,sans-Serif" font-size="10.00">mavlink_msg_hil_gps</text>
<text text-anchor="middle" x="201" y="-7" font-family="Helvetica,sans-Serif" font-size="10.00">_decode</text>
</a>
</g>
</g>
<!-- Node1&#45;&gt;Node2 -->
<g id="edge1" class="edge"><title>Node1&#45;&gt;Node2</title>
<path fill="none" stroke="midnightblue" d="M120.27,-15C128.75,-15 137.375,-15 145.667,-15"/>
<polygon fill="midnightblue" stroke="midnightblue" points="120.03,-11.5001 110.03,-15 120.03,-18.5001 120.03,-11.5001"/>
</g>
<!-- Node3 -->
<g id="node3" class="node"><title>Node3</title>
<g id="a_node3"><a xlink:href="$v1_80_2common_2testsuite_8h.html#ab515771c12adbdddc193072d09a38842" xlink:title="mavlink_test_hil_gps">
<polygon fill="white" stroke="black" points="292,-5.5 292,-24.5 400,-24.5 400,-5.5 292,-5.5"/>
<text text-anchor="middle" x="346" y="-12.5" font-family="Helvetica,sans-Serif" font-size="10.00">mavlink_test_hil_gps</text>
</a>
</g>
</g>
<!-- Node2&#45;&gt;Node3 -->
<g id="edge2" class="edge"><title>Node2&#45;&gt;Node3</title>
<path fill="none" stroke="midnightblue" d="M266.066,-15C274.671,-15 283.42,-15 291.809,-15"/>
<polygon fill="midnightblue" stroke="midnightblue" points="266.062,-11.5001 256.062,-15 266.062,-18.5001 266.062,-11.5001"/>
</g>
<!-- Node4 -->
<g id="node4" class="node"><title>Node4</title>
<g id="a_node4"><a xlink:href="$v1_80_2common_2testsuite_8h.html#af349432601ac003d2c80a69c100c70a4" xlink:title="mavlink_test_common">
<polygon fill="white" stroke="black" points="436.5,-5.5 436.5,-24.5 551.5,-24.5 551.5,-5.5 436.5,-5.5"/>
<text text-anchor="middle" x="494" y="-12.5" font-family="Helvetica,sans-Serif" font-size="10.00">mavlink_test_common</text>
</a>
</g>
</g>
<!-- Node3&#45;&gt;Node4 -->
<g id="edge3" class="edge"><title>Node3&#45;&gt;Node4</title>
<path fill="none" stroke="midnightblue" d="M410.175,-15C418.837,-15 427.688,-15 436.226,-15"/>
<polygon fill="midnightblue" stroke="midnightblue" points="410.122,-11.5001 400.122,-15 410.122,-18.5001 410.122,-11.5001"/>
</g>
<!-- Node5 -->
<g id="node5" class="node"><title>Node5</title>
<g id="a_node5"><a xlink:href="$v1_80_2common_2testsuite_8h.html#a4cc77b6c343679298da5d3c2b4e48759" xlink:title="mavlink_test_all">
<polygon fill="white" stroke="black" points="588.5,-5.5 588.5,-24.5 675.5,-24.5 675.5,-5.5 588.5,-5.5"/>
<text text-anchor="middle" x="632" y="-12.5" font-family="Helvetica,sans-Serif" font-size="10.00">mavlink_test_all</text>
</a>
</g>
</g>
<!-- Node4&#45;&gt;Node5 -->
<g id="edge4" class="edge"><title>Node4&#45;&gt;Node5</title>
<path fill="none" stroke="midnightblue" d="M561.996,-15C570.988,-15 580.003,-15 588.412,-15"/>
<polygon fill="midnightblue" stroke="midnightblue" points="561.888,-11.5001 551.888,-15 561.888,-18.5001 561.888,-11.5001"/>
</g>
</g>
</svg>
