<?xml version="1.0" encoding="UTF-8" standalone="no"?>
<!DOCTYPE svg PUBLIC "-//W3C//DTD SVG 1.1//EN"
 "http://www.w3.org/Graphics/SVG/1.1/DTD/svg11.dtd">
<!-- Generated by graphviz version 2.36.0 (20140111.2315)
 -->
<!-- Title: mavlink_msg_hil_state_quaternion_get_attitude_quaternion Pages: 1 -->
<svg width="710pt" height="48pt"
 viewBox="0.00 0.00 710.00 48.00" xmlns="http://www.w3.org/2000/svg" xmlns:xlink="http://www.w3.org/1999/xlink">
<g id="graph0" class="graph" transform="scale(1 1) rotate(0) translate(4 44)">
<title>mavlink_msg_hil_state_quaternion_get_attitude_quaternion</title>
<polygon fill="white" stroke="none" points="-4,4 -4,-44 706,-44 706,4 -4,4"/>
<!-- Node1 -->
<g id="node1" class="node"><title>Node1</title>
<polygon fill="#bfbfbf" stroke="black" points="0.5,0.5 0.5,-40.5 123.5,-40.5 123.5,0.5 0.5,0.5"/>
<text text-anchor="start" x="8.5" y="-28.5" font-family="Helvetica,sans-Serif" font-size="10.00">mavlink_msg_hil_state</text>
<text text-anchor="start" x="8.5" y="-17.5" font-family="Helvetica,sans-Serif" font-size="10.00">_quaternion_get_attitude</text>
<text text-anchor="middle" x="62" y="-6.5" font-family="Helvetica,sans-Serif" font-size="10.00">_quaternion</text>
</g>
<!-- Node2 -->
<g id="node2" class="node"><title>Node2</title>
<g id="a_node2"><a xlink:href="$mavlink__msg__hil__state__quaternion_8h.html#af3041b37450e1902ff42e1ca6771c495" xlink:title="Decode a hil_state_quaternion message into a struct. ">
<polygon fill="white" stroke="black" points="160,-5 160,-35 276,-35 276,-5 160,-5"/>
<text text-anchor="start" x="168" y="-23" font-family="Helvetica,sans-Serif" font-size="10.00">mavlink_msg_hil_state</text>
<text text-anchor="middle" x="218" y="-12" font-family="Helvetica,sans-Serif" font-size="10.00">_quaternion_decode</text>
</a>
</g>
</g>
<!-- Node1&#45;&gt;Node2 -->
<g id="edge1" class="edge"><title>Node1&#45;&gt;Node2</title>
<path fill="none" stroke="midnightblue" d="M133.895,-20C142.501,-20 151.21,-20 159.588,-20"/>
<polygon fill="midnightblue" stroke="midnightblue" points="133.865,-16.5001 123.865,-20 133.865,-23.5001 133.865,-16.5001"/>
</g>
<!-- Node3 -->
<g id="node3" class="node"><title>Node3</title>
<g id="a_node3"><a xlink:href="$v1_80_2common_2testsuite_8h.html#a32d633b27cf11c6e93320ff53199a622" xlink:title="mavlink_test_hil_state\l_quaternion">
<polygon fill="white" stroke="black" points="312,-5 312,-35 426,-35 426,-5 312,-5"/>
<text text-anchor="start" x="320" y="-23" font-family="Helvetica,sans-Serif" font-size="10.00">mavlink_test_hil_state</text>
<text text-anchor="middle" x="369" y="-12" font-family="Helvetica,sans-Serif" font-size="10.00">_quaternion</text>
</a>
</g>
</g>
<!-- Node2&#45;&gt;Node3 -->
<g id="edge2" class="edge"><title>Node2&#45;&gt;Node3</title>
<path fill="none" stroke="midnightblue" d="M286.407,-20C294.865,-20 303.447,-20 311.709,-20"/>
<polygon fill="midnightblue" stroke="midnightblue" points="286.181,-16.5001 276.181,-20 286.181,-23.5001 286.181,-16.5001"/>
</g>
<!-- Node4 -->
<g id="node4" class="node"><title>Node4</title>
<g id="a_node4"><a xlink:href="$v1_80_2common_2testsuite_8h.html#af349432601ac003d2c80a69c100c70a4" xlink:title="mavlink_test_common">
<polygon fill="white" stroke="black" points="462.5,-10.5 462.5,-29.5 577.5,-29.5 577.5,-10.5 462.5,-10.5"/>
<text text-anchor="middle" x="520" y="-17.5" font-family="Helvetica,sans-Serif" font-size="10.00">mavlink_test_common</text>
</a>
</g>
</g>
<!-- Node3&#45;&gt;Node4 -->
<g id="edge3" class="edge"><title>Node3&#45;&gt;Node4</title>
<path fill="none" stroke="midnightblue" d="M436.608,-20C445.115,-20 453.761,-20 462.095,-20"/>
<polygon fill="midnightblue" stroke="midnightblue" points="436.331,-16.5001 426.331,-20 436.33,-23.5001 436.331,-16.5001"/>
</g>
<!-- Node5 -->
<g id="node5" class="node"><title>Node5</title>
<g id="a_node5"><a xlink:href="$v1_80_2common_2testsuite_8h.html#a4cc77b6c343679298da5d3c2b4e48759" xlink:title="mavlink_test_all">
<polygon fill="white" stroke="black" points="614.5,-10.5 614.5,-29.5 701.5,-29.5 701.5,-10.5 614.5,-10.5"/>
<text text-anchor="middle" x="658" y="-17.5" font-family="Helvetica,sans-Serif" font-size="10.00">mavlink_test_all</text>
</a>
</g>
</g>
<!-- Node4&#45;&gt;Node5 -->
<g id="edge4" class="edge"><title>Node4&#45;&gt;Node5</title>
<path fill="none" stroke="midnightblue" d="M587.996,-20C596.988,-20 606.003,-20 614.412,-20"/>
<polygon fill="midnightblue" stroke="midnightblue" points="587.888,-16.5001 577.888,-20 587.888,-23.5001 587.888,-16.5001"/>
</g>
</g>
</svg>
