<?xml version="1.0" encoding="UTF-8" standalone="no"?>
<!DOCTYPE svg PUBLIC "-//W3C//DTD SVG 1.1//EN"
 "http://www.w3.org/Graphics/SVG/1.1/DTD/svg11.dtd">
<!-- Generated by graphviz version 2.36.0 (20140111.2315)
 -->
<!-- Title: mavlink_msg_gps_rtk_pack Pages: 1 -->
<svg width="716pt" height="55pt"
 viewBox="0.00 0.00 716.00 55.00" xmlns="http://www.w3.org/2000/svg" xmlns:xlink="http://www.w3.org/1999/xlink">
<g id="graph0" class="graph" transform="scale(1 1) rotate(0) translate(4 51)">
<title>mavlink_msg_gps_rtk_pack</title>
<polygon fill="white" stroke="none" points="-4,4 -4,-51 712,-51 712,4 -4,4"/>
<!-- Node1 -->
<g id="node1" class="node"><title>Node1</title>
<polygon fill="#bfbfbf" stroke="black" points="0,-0.5 0,-19.5 138,-19.5 138,-0.5 0,-0.5"/>
<text text-anchor="middle" x="69" y="-7.5" font-family="Helvetica,sans-Serif" font-size="10.00">mavlink_msg_gps_rtk_pack</text>
</g>
<!-- Node2 -->
<g id="node2" class="node"><title>Node2</title>
<g id="a_node2"><a xlink:href="$mavlink__msg__gps__rtk_8h.html#afd9c4ba79bb088c3b49cbd1acc4eb54a" xlink:title="Encode a gps_rtk struct. ">
<polygon fill="white" stroke="black" points="174,-17 174,-47 286,-47 286,-17 174,-17"/>
<text text-anchor="start" x="182" y="-35" font-family="Helvetica,sans-Serif" font-size="10.00">mavlink_msg_gps_rtk</text>
<text text-anchor="middle" x="230" y="-24" font-family="Helvetica,sans-Serif" font-size="10.00">_encode</text>
</a>
</g>
</g>
<!-- Node1&#45;&gt;Node2 -->
<g id="edge1" class="edge"><title>Node1&#45;&gt;Node2</title>
<path fill="none" stroke="midnightblue" d="M148.351,-20.841C156.895,-22.0232 165.456,-23.2078 173.641,-24.3402"/>
<polygon fill="midnightblue" stroke="midnightblue" points="148.738,-17.3614 138.353,-19.4577 147.779,-24.2953 148.738,-17.3614"/>
</g>
<!-- Node3 -->
<g id="node3" class="node"><title>Node3</title>
<g id="a_node3"><a xlink:href="$v1_80_2common_2testsuite_8h.html#aeba936043aaab5b6040887ae08396bc3" xlink:title="mavlink_test_gps_rtk">
<polygon fill="white" stroke="black" points="322,-0.5 322,-19.5 432,-19.5 432,-0.5 322,-0.5"/>
<text text-anchor="middle" x="377" y="-7.5" font-family="Helvetica,sans-Serif" font-size="10.00">mavlink_test_gps_rtk</text>
</a>
</g>
</g>
<!-- Node1&#45;&gt;Node3 -->
<g id="edge5" class="edge"><title>Node1&#45;&gt;Node3</title>
<path fill="none" stroke="midnightblue" d="M148.364,-8.33174C157.014,-8.1956 165.693,-8.07986 174,-8 223.775,-7.52143 236.225,-7.44702 286,-8 297.565,-8.12848 309.964,-8.3498 321.748,-8.59954"/>
<polygon fill="midnightblue" stroke="midnightblue" points="148.188,-4.8341 138.247,-8.50001 148.304,-11.8331 148.188,-4.8341"/>
</g>
<!-- Node2&#45;&gt;Node3 -->
<g id="edge2" class="edge"><title>Node2&#45;&gt;Node3</title>
<path fill="none" stroke="midnightblue" d="M296.213,-22.1057C304.793,-20.8038 313.512,-19.481 321.88,-18.2113"/>
<polygon fill="midnightblue" stroke="midnightblue" points="295.594,-18.6594 286.232,-23.62 296.644,-25.5802 295.594,-18.6594"/>
</g>
<!-- Node4 -->
<g id="node4" class="node"><title>Node4</title>
<g id="a_node4"><a xlink:href="$v1_80_2common_2testsuite_8h.html#af349432601ac003d2c80a69c100c70a4" xlink:title="mavlink_test_common">
<polygon fill="white" stroke="black" points="468.5,-0.5 468.5,-19.5 583.5,-19.5 583.5,-0.5 468.5,-0.5"/>
<text text-anchor="middle" x="526" y="-7.5" font-family="Helvetica,sans-Serif" font-size="10.00">mavlink_test_common</text>
</a>
</g>
</g>
<!-- Node3&#45;&gt;Node4 -->
<g id="edge3" class="edge"><title>Node3&#45;&gt;Node4</title>
<path fill="none" stroke="midnightblue" d="M442.395,-10C451.07,-10 459.917,-10 468.442,-10"/>
<polygon fill="midnightblue" stroke="midnightblue" points="442.32,-6.5001 432.32,-10 442.32,-13.5001 442.32,-6.5001"/>
</g>
<!-- Node5 -->
<g id="node5" class="node"><title>Node5</title>
<g id="a_node5"><a xlink:href="$v1_80_2common_2testsuite_8h.html#a4cc77b6c343679298da5d3c2b4e48759" xlink:title="mavlink_test_all">
<polygon fill="white" stroke="black" points="620.5,-0.5 620.5,-19.5 707.5,-19.5 707.5,-0.5 620.5,-0.5"/>
<text text-anchor="middle" x="664" y="-7.5" font-family="Helvetica,sans-Serif" font-size="10.00">mavlink_test_all</text>
</a>
</g>
</g>
<!-- Node4&#45;&gt;Node5 -->
<g id="edge4" class="edge"><title>Node4&#45;&gt;Node5</title>
<path fill="none" stroke="midnightblue" d="M593.996,-10C602.988,-10 612.003,-10 620.412,-10"/>
<polygon fill="midnightblue" stroke="midnightblue" points="593.888,-6.5001 583.888,-10 593.888,-13.5001 593.888,-6.5001"/>
</g>
</g>
</svg>
