<?xml version="1.0" encoding="UTF-8" standalone="no"?>
<!DOCTYPE svg PUBLIC "-//W3C//DTD SVG 1.1//EN"
 "http://www.w3.org/Graphics/SVG/1.1/DTD/svg11.dtd">
<!-- Generated by graphviz version 2.36.0 (20140111.2315)
 -->
<!-- Title: mavlink_msg_gimbal_report_get_delta_velocity_z Pages: 1 -->
<svg width="734pt" height="38pt"
 viewBox="0.00 0.00 734.00 38.00" xmlns="http://www.w3.org/2000/svg" xmlns:xlink="http://www.w3.org/1999/xlink">
<g id="graph0" class="graph" transform="scale(1 1) rotate(0) translate(4 34)">
<title>mavlink_msg_gimbal_report_get_delta_velocity_z</title>
<polygon fill="white" stroke="none" points="-4,4 -4,-34 730,-34 730,4 -4,4"/>
<!-- Node1 -->
<g id="node1" class="node"><title>Node1</title>
<polygon fill="#bfbfbf" stroke="black" points="0.5,-0 0.5,-30 141.5,-30 141.5,-0 0.5,-0"/>
<text text-anchor="start" x="8.5" y="-18" font-family="Helvetica,sans-Serif" font-size="10.00">mavlink_msg_gimbal</text>
<text text-anchor="middle" x="71" y="-7" font-family="Helvetica,sans-Serif" font-size="10.00">_report_get_delta_velocity_z</text>
</g>
<!-- Node2 -->
<g id="node2" class="node"><title>Node2</title>
<g id="a_node2"><a xlink:href="$mavlink__msg__gimbal__report_8h.html#adc4424b76c1840b0c0e7a02eb4f4c497" xlink:title="Decode a gimbal_report message into a struct. ">
<polygon fill="white" stroke="black" points="178,-0 178,-30 286,-30 286,-0 178,-0"/>
<text text-anchor="start" x="186" y="-18" font-family="Helvetica,sans-Serif" font-size="10.00">mavlink_msg_gimbal</text>
<text text-anchor="middle" x="232" y="-7" font-family="Helvetica,sans-Serif" font-size="10.00">_report_decode</text>
</a>
</g>
</g>
<!-- Node1&#45;&gt;Node2 -->
<g id="edge1" class="edge"><title>Node1&#45;&gt;Node2</title>
<path fill="none" stroke="midnightblue" d="M151.924,-15C160.619,-15 169.307,-15 177.571,-15"/>
<polygon fill="midnightblue" stroke="midnightblue" points="151.74,-11.5001 141.74,-15 151.74,-18.5001 151.74,-11.5001"/>
</g>
<!-- Node3 -->
<g id="node3" class="node"><title>Node3</title>
<g id="a_node3"><a xlink:href="$v1_80_2ardupilotmega_2testsuite_8h.html#aaf13c863258d0b51b182ce4109d55237" xlink:title="mavlink_test_gimbal\l_report">
<polygon fill="white" stroke="black" points="322,-0 322,-30 428,-30 428,-0 322,-0"/>
<text text-anchor="start" x="330" y="-18" font-family="Helvetica,sans-Serif" font-size="10.00">mavlink_test_gimbal</text>
<text text-anchor="middle" x="375" y="-7" font-family="Helvetica,sans-Serif" font-size="10.00">_report</text>
</a>
</g>
</g>
<!-- Node2&#45;&gt;Node3 -->
<g id="edge2" class="edge"><title>Node2&#45;&gt;Node3</title>
<path fill="none" stroke="midnightblue" d="M296.447,-15C304.842,-15 313.371,-15 321.553,-15"/>
<polygon fill="midnightblue" stroke="midnightblue" points="296.306,-11.5001 286.306,-15 296.306,-18.5001 296.306,-11.5001"/>
</g>
<!-- Node4 -->
<g id="node4" class="node"><title>Node4</title>
<g id="a_node4"><a xlink:href="$v1_80_2ardupilotmega_2testsuite_8h.html#ab264d471ac2f46584f2bb580704b5e9d" xlink:title="mavlink_test_ardupilotmega">
<polygon fill="white" stroke="black" points="464,-5.5 464,-24.5 602,-24.5 602,-5.5 464,-5.5"/>
<text text-anchor="middle" x="533" y="-12.5" font-family="Helvetica,sans-Serif" font-size="10.00">mavlink_test_ardupilotmega</text>
</a>
</g>
</g>
<!-- Node3&#45;&gt;Node4 -->
<g id="edge3" class="edge"><title>Node3&#45;&gt;Node4</title>
<path fill="none" stroke="midnightblue" d="M438.461,-15C446.849,-15 455.488,-15 463.967,-15"/>
<polygon fill="midnightblue" stroke="midnightblue" points="438.38,-11.5001 428.38,-15 438.38,-18.5001 438.38,-11.5001"/>
</g>
<!-- Node5 -->
<g id="node5" class="node"><title>Node5</title>
<g id="a_node5"><a xlink:href="$v1_80_2ardupilotmega_2testsuite_8h.html#a4cc77b6c343679298da5d3c2b4e48759" xlink:title="mavlink_test_all">
<polygon fill="white" stroke="black" points="638.5,-5.5 638.5,-24.5 725.5,-24.5 725.5,-5.5 638.5,-5.5"/>
<text text-anchor="middle" x="682" y="-12.5" font-family="Helvetica,sans-Serif" font-size="10.00">mavlink_test_all</text>
</a>
</g>
</g>
<!-- Node4&#45;&gt;Node5 -->
<g id="edge4" class="edge"><title>Node4&#45;&gt;Node5</title>
<path fill="none" stroke="midnightblue" d="M612.438,-15C621.373,-15 630.211,-15 638.42,-15"/>
<polygon fill="midnightblue" stroke="midnightblue" points="612.336,-11.5001 602.336,-15 612.336,-18.5001 612.336,-11.5001"/>
</g>
</g>
</svg>
