<?xml version="1.0" encoding="UTF-8" standalone="no"?>
<!DOCTYPE svg PUBLIC "-//W3C//DTD SVG 1.1//EN"
 "http://www.w3.org/Graphics/SVG/1.1/DTD/svg11.dtd">
<!-- Generated by graphviz version 2.36.0 (20140111.2315)
 -->
<!-- Title: mavlink_msg_log_request_data_pack Pages: 1 -->
<svg width="768pt" height="61pt"
 viewBox="0.00 0.00 768.00 61.00" xmlns="http://www.w3.org/2000/svg" xmlns:xlink="http://www.w3.org/1999/xlink">
<g id="graph0" class="graph" transform="scale(1 1) rotate(0) translate(4 57)">
<title>mavlink_msg_log_request_data_pack</title>
<polygon fill="white" stroke="none" points="-4,4 -4,-57 764,-57 764,4 -4,4"/>
<!-- Node1 -->
<g id="node1" class="node"><title>Node1</title>
<polygon fill="#bfbfbf" stroke="black" points="0,-1 0,-31 130,-31 130,-1 0,-1"/>
<text text-anchor="start" x="8" y="-19" font-family="Helvetica,sans-Serif" font-size="10.00">mavlink_msg_log_request</text>
<text text-anchor="middle" x="65" y="-8" font-family="Helvetica,sans-Serif" font-size="10.00">_data_pack</text>
</g>
<!-- Node2 -->
<g id="node2" class="node"><title>Node2</title>
<g id="a_node2"><a xlink:href="$mavlink__msg__log__request__data_8h.html#aee8ffdcc6a4441f6a5076fb6abce0ca8" xlink:title="Encode a log_request_data struct. ">
<polygon fill="white" stroke="black" points="166,-23 166,-53 296,-53 296,-23 166,-23"/>
<text text-anchor="start" x="174" y="-41" font-family="Helvetica,sans-Serif" font-size="10.00">mavlink_msg_log_request</text>
<text text-anchor="middle" x="231" y="-30" font-family="Helvetica,sans-Serif" font-size="10.00">_data_encode</text>
</a>
</g>
</g>
<!-- Node1&#45;&gt;Node2 -->
<g id="edge1" class="edge"><title>Node1&#45;&gt;Node2</title>
<path fill="none" stroke="midnightblue" d="M140.286,-25.9652C148.816,-27.1094 157.458,-28.2688 165.839,-29.3931"/>
<polygon fill="midnightblue" stroke="midnightblue" points="140.723,-22.4926 130.346,-24.6318 139.792,-29.4304 140.723,-22.4926"/>
</g>
<!-- Node3 -->
<g id="node3" class="node"><title>Node3</title>
<g id="a_node3"><a xlink:href="$v1_80_2common_2testsuite_8h.html#a8fb73ceb034de03cfb257b301cd9f157" xlink:title="mavlink_test_log_request_data">
<polygon fill="white" stroke="black" points="332,-6.5 332,-25.5 484,-25.5 484,-6.5 332,-6.5"/>
<text text-anchor="middle" x="408" y="-13.5" font-family="Helvetica,sans-Serif" font-size="10.00">mavlink_test_log_request_data</text>
</a>
</g>
</g>
<!-- Node1&#45;&gt;Node3 -->
<g id="edge5" class="edge"><title>Node1&#45;&gt;Node3</title>
<path fill="none" stroke="midnightblue" d="M140.18,-14.351C148.884,-14.2065 157.638,-14.0836 166,-14 223.775,-13.4223 238.225,-13.4795 296,-14 307.564,-14.1042 319.805,-14.2694 331.77,-14.4613"/>
<polygon fill="midnightblue" stroke="midnightblue" points="139.95,-10.8544 130.013,-14.5295 140.073,-17.8533 139.95,-10.8544"/>
</g>
<!-- Node2&#45;&gt;Node3 -->
<g id="edge2" class="edge"><title>Node2&#45;&gt;Node3</title>
<path fill="none" stroke="midnightblue" d="M306.363,-28.6515C314.805,-27.5902 323.414,-26.508 331.866,-25.4454"/>
<polygon fill="midnightblue" stroke="midnightblue" points="305.655,-25.2129 296.17,-29.9329 306.528,-32.1582 305.655,-25.2129"/>
</g>
<!-- Node4 -->
<g id="node4" class="node"><title>Node4</title>
<g id="a_node4"><a xlink:href="$v1_80_2common_2testsuite_8h.html#af349432601ac003d2c80a69c100c70a4" xlink:title="mavlink_test_common">
<polygon fill="white" stroke="black" points="520.5,-6.5 520.5,-25.5 635.5,-25.5 635.5,-6.5 520.5,-6.5"/>
<text text-anchor="middle" x="578" y="-13.5" font-family="Helvetica,sans-Serif" font-size="10.00">mavlink_test_common</text>
</a>
</g>
</g>
<!-- Node3&#45;&gt;Node4 -->
<g id="edge3" class="edge"><title>Node3&#45;&gt;Node4</title>
<path fill="none" stroke="midnightblue" d="M494.438,-16C503.208,-16 511.958,-16 520.304,-16"/>
<polygon fill="midnightblue" stroke="midnightblue" points="494.155,-12.5001 484.155,-16 494.155,-19.5001 494.155,-12.5001"/>
</g>
<!-- Node5 -->
<g id="node5" class="node"><title>Node5</title>
<g id="a_node5"><a xlink:href="$v1_80_2common_2testsuite_8h.html#a4cc77b6c343679298da5d3c2b4e48759" xlink:title="mavlink_test_all">
<polygon fill="white" stroke="black" points="672.5,-6.5 672.5,-25.5 759.5,-25.5 759.5,-6.5 672.5,-6.5"/>
<text text-anchor="middle" x="716" y="-13.5" font-family="Helvetica,sans-Serif" font-size="10.00">mavlink_test_all</text>
</a>
</g>
</g>
<!-- Node4&#45;&gt;Node5 -->
<g id="edge4" class="edge"><title>Node4&#45;&gt;Node5</title>
<path fill="none" stroke="midnightblue" d="M645.996,-16C654.988,-16 664.003,-16 672.412,-16"/>
<polygon fill="midnightblue" stroke="midnightblue" points="645.888,-12.5001 635.888,-16 645.888,-19.5001 645.888,-12.5001"/>
</g>
</g>
</svg>
