<?xml version="1.0" encoding="UTF-8" standalone="no"?>
<!DOCTYPE svg PUBLIC "-//W3C//DTD SVG 1.1//EN"
 "http://www.w3.org/Graphics/SVG/1.1/DTD/svg11.dtd">
<!-- Generated by graphviz version 2.36.0 (20140111.2315)
 -->
<!-- Title: mavlink_msg_vicon_position_estimate_encode Pages: 1 -->
<svg width="496pt" height="38pt"
 viewBox="0.00 0.00 496.00 38.00" xmlns="http://www.w3.org/2000/svg" xmlns:xlink="http://www.w3.org/1999/xlink">
<g id="graph0" class="graph" transform="scale(1 1) rotate(0) translate(4 34)">
<title>mavlink_msg_vicon_position_estimate_encode</title>
<polygon fill="white" stroke="none" points="-4,4 -4,-34 492,-34 492,4 -4,4"/>
<!-- Node1 -->
<g id="node1" class="node"><title>Node1</title>
<polygon fill="#bfbfbf" stroke="black" points="0,-0 0,-30 142,-30 142,-0 0,-0"/>
<text text-anchor="start" x="8" y="-18" font-family="Helvetica,sans-Serif" font-size="10.00">mavlink_msg_vicon_position</text>
<text text-anchor="middle" x="71" y="-7" font-family="Helvetica,sans-Serif" font-size="10.00">_estimate_encode</text>
</g>
<!-- Node2 -->
<g id="node2" class="node"><title>Node2</title>
<g id="a_node2"><a xlink:href="$mavlink__msg__vicon__position__estimate_8h.html#afa5006309dded545b96970b918231604" xlink:title="Pack a vicon_position_estimate message. ">
<polygon fill="white" stroke="black" points="178,-0 178,-30 320,-30 320,-0 178,-0"/>
<text text-anchor="start" x="186" y="-18" font-family="Helvetica,sans-Serif" font-size="10.00">mavlink_msg_vicon_position</text>
<text text-anchor="middle" x="249" y="-7" font-family="Helvetica,sans-Serif" font-size="10.00">_estimate_pack</text>
</a>
</g>
</g>
<!-- Node1&#45;&gt;Node2 -->
<g id="edge1" class="edge"><title>Node1&#45;&gt;Node2</title>
<path fill="none" stroke="midnightblue" d="M142.066,-15C150.54,-15 159.247,-15 167.852,-15"/>
<polygon fill="midnightblue" stroke="midnightblue" points="167.888,-18.5001 177.888,-15 167.888,-11.5001 167.888,-18.5001"/>
</g>
<!-- Node3 -->
<g id="node3" class="node"><title>Node3</title>
<g id="a_node3"><a xlink:href="$v0_89_2mavlink__helpers_8h.html#af3bea083c5ec83f5b6570b2bd4a817d0" xlink:title="Finalize a MAVLink message with MAVLINK_COMM_0 as default channel. ">
<polygon fill="white" stroke="black" points="356.5,-5.5 356.5,-24.5 487.5,-24.5 487.5,-5.5 356.5,-5.5"/>
<text text-anchor="middle" x="422" y="-12.5" font-family="Helvetica,sans-Serif" font-size="10.00">mavlink_finalize_message</text>
</a>
</g>
</g>
<!-- Node2&#45;&gt;Node3 -->
<g id="edge2" class="edge"><title>Node2&#45;&gt;Node3</title>
<path fill="none" stroke="midnightblue" d="M320.046,-15C328.664,-15 337.499,-15 346.184,-15"/>
<polygon fill="midnightblue" stroke="midnightblue" points="346.289,-18.5001 356.289,-15 346.289,-11.5001 346.289,-18.5001"/>
</g>
</g>
</svg>
