<?xml version="1.0" encoding="UTF-8" standalone="no"?>
<!DOCTYPE svg PUBLIC "-//W3C//DTD SVG 1.1//EN"
 "http://www.w3.org/Graphics/SVG/1.1/DTD/svg11.dtd">
<!-- Generated by graphviz version 2.36.0 (20140111.2315)
 -->
<!-- Title: mavlink_msg_ahrs2_decode Pages: 1 -->
<svg width="330pt" height="242pt"
 viewBox="0.00 0.00 330.00 242.00" xmlns="http://www.w3.org/2000/svg" xmlns:xlink="http://www.w3.org/1999/xlink">
<g id="graph0" class="graph" transform="scale(1 1) rotate(0) translate(4 238)">
<title>mavlink_msg_ahrs2_decode</title>
<polygon fill="white" stroke="none" points="-4,4 -4,-238 326,-238 326,4 -4,4"/>
<!-- Node1 -->
<g id="node1" class="node"><title>Node1</title>
<polygon fill="#bfbfbf" stroke="black" points="0,-104.5 0,-123.5 140,-123.5 140,-104.5 0,-104.5"/>
<text text-anchor="middle" x="70" y="-111.5" font-family="Helvetica,sans-Serif" font-size="10.00">mavlink_msg_ahrs2_decode</text>
</g>
<!-- Node2 -->
<g id="node2" class="node"><title>Node2</title>
<g id="a_node2"><a xlink:href="$mavlink__msg__ahrs2_8h.html#a234111adb58d99ba9cce0561ff56288e" xlink:title="Send a ahrs2 message. ">
<polygon fill="white" stroke="black" points="179,-214.5 179,-233.5 319,-233.5 319,-214.5 179,-214.5"/>
<text text-anchor="middle" x="249" y="-221.5" font-family="Helvetica,sans-Serif" font-size="10.00">mavlink_msg_ahrs2_get_roll</text>
</a>
</g>
</g>
<!-- Node1&#45;&gt;Node2 -->
<g id="edge1" class="edge"><title>Node1&#45;&gt;Node2</title>
<path fill="none" stroke="midnightblue" d="M79.5181,-123.708C96.1951,-142.117 135.11,-182.201 176,-204 181.134,-206.737 186.678,-209.129 192.332,-211.212"/>
<polygon fill="midnightblue" stroke="midnightblue" points="191.303,-214.559 201.897,-214.434 193.537,-207.925 191.303,-214.559"/>
</g>
<!-- Node3 -->
<g id="node3" class="node"><title>Node3</title>
<g id="a_node3"><a xlink:href="$mavlink__msg__ahrs2_8h.html#aa30f5de95d41f489f95382eb8ef1d887" xlink:title="Get field pitch from ahrs2 message. ">
<polygon fill="white" stroke="black" points="188,-165 188,-195 310,-195 310,-165 188,-165"/>
<text text-anchor="start" x="196" y="-183" font-family="Helvetica,sans-Serif" font-size="10.00">mavlink_msg_ahrs2_get</text>
<text text-anchor="middle" x="249" y="-172" font-family="Helvetica,sans-Serif" font-size="10.00">_pitch</text>
</a>
</g>
</g>
<!-- Node1&#45;&gt;Node3 -->
<g id="edge2" class="edge"><title>Node1&#45;&gt;Node3</title>
<path fill="none" stroke="midnightblue" d="M94.6717,-123.54C115.889,-132.02 147.907,-144.642 176,-155 181.866,-157.163 188.02,-159.379 194.155,-161.555"/>
<polygon fill="midnightblue" stroke="midnightblue" points="193.141,-164.909 203.736,-164.928 195.466,-158.306 193.141,-164.909"/>
</g>
<!-- Node4 -->
<g id="node4" class="node"><title>Node4</title>
<g id="a_node4"><a xlink:href="$mavlink__msg__ahrs2_8h.html#ab2fcd63e95690171fb3ffba549bd4f00" xlink:title="Get field yaw from ahrs2 message. ">
<polygon fill="white" stroke="black" points="176,-126.5 176,-145.5 322,-145.5 322,-126.5 176,-126.5"/>
<text text-anchor="middle" x="249" y="-133.5" font-family="Helvetica,sans-Serif" font-size="10.00">mavlink_msg_ahrs2_get_yaw</text>
</a>
</g>
</g>
<!-- Node1&#45;&gt;Node4 -->
<g id="edge3" class="edge"><title>Node1&#45;&gt;Node4</title>
<path fill="none" stroke="midnightblue" d="M140.193,-122.6C148.626,-123.648 157.304,-124.727 165.901,-125.796"/>
<polygon fill="midnightblue" stroke="midnightblue" points="165.582,-129.283 175.937,-127.043 166.445,-122.336 165.582,-129.283"/>
</g>
<!-- Node5 -->
<g id="node5" class="node"><title>Node5</title>
<g id="a_node5"><a xlink:href="$mavlink__msg__ahrs2_8h.html#a79fc34122442f82055f2f8556f6c0f5d" xlink:title="Get field altitude from ahrs2 message. ">
<polygon fill="white" stroke="black" points="188,-77 188,-107 310,-107 310,-77 188,-77"/>
<text text-anchor="start" x="196" y="-95" font-family="Helvetica,sans-Serif" font-size="10.00">mavlink_msg_ahrs2_get</text>
<text text-anchor="middle" x="249" y="-84" font-family="Helvetica,sans-Serif" font-size="10.00">_altitude</text>
</a>
</g>
</g>
<!-- Node1&#45;&gt;Node5 -->
<g id="edge4" class="edge"><title>Node1&#45;&gt;Node5</title>
<path fill="none" stroke="midnightblue" d="M140.193,-105.4C152.465,-103.874 165.257,-102.284 177.562,-100.755"/>
<polygon fill="midnightblue" stroke="midnightblue" points="178.27,-104.194 187.762,-99.4872 177.407,-97.2474 178.27,-104.194"/>
</g>
<!-- Node6 -->
<g id="node6" class="node"><title>Node6</title>
<g id="a_node6"><a xlink:href="$mavlink__msg__ahrs2_8h.html#a5d5e3b199049f195bef6c14beaf653e5" xlink:title="Get field lat from ahrs2 message. ">
<polygon fill="white" stroke="black" points="180,-38.5 180,-57.5 318,-57.5 318,-38.5 180,-38.5"/>
<text text-anchor="middle" x="249" y="-45.5" font-family="Helvetica,sans-Serif" font-size="10.00">mavlink_msg_ahrs2_get_lat</text>
</a>
</g>
</g>
<!-- Node1&#45;&gt;Node6 -->
<g id="edge5" class="edge"><title>Node1&#45;&gt;Node6</title>
<path fill="none" stroke="midnightblue" d="M90.7881,-104.321C111.646,-94.3597 145.626,-78.8105 176,-68 183.647,-65.2785 191.856,-62.6928 199.896,-60.3389"/>
<polygon fill="midnightblue" stroke="midnightblue" points="200.908,-63.6899 209.57,-57.5892 198.995,-56.9566 200.908,-63.6899"/>
</g>
<!-- Node7 -->
<g id="node7" class="node"><title>Node7</title>
<g id="a_node7"><a xlink:href="$mavlink__msg__ahrs2_8h.html#af149240e81dda8a4d01cbf8667ca76e1" xlink:title="Get field lng from ahrs2 message. ">
<polygon fill="white" stroke="black" points="179,-0.5 179,-19.5 319,-19.5 319,-0.5 179,-0.5"/>
<text text-anchor="middle" x="249" y="-7.5" font-family="Helvetica,sans-Serif" font-size="10.00">mavlink_msg_ahrs2_get_lng</text>
</a>
</g>
</g>
<!-- Node1&#45;&gt;Node7 -->
<g id="edge6" class="edge"><title>Node1&#45;&gt;Node7</title>
<path fill="none" stroke="midnightblue" d="M80.1428,-104.261C97.262,-86.6031 136.046,-49.2582 176,-29 180.567,-26.6843 185.445,-24.6303 190.427,-22.8125"/>
<polygon fill="midnightblue" stroke="midnightblue" points="191.699,-26.0779 200.084,-19.6012 189.491,-19.4356 191.699,-26.0779"/>
</g>
</g>
</svg>
