<?xml version="1.0" encoding="UTF-8" standalone="no"?>
<!DOCTYPE svg PUBLIC "-//W3C//DTD SVG 1.1//EN"
 "http://www.w3.org/Graphics/SVG/1.1/DTD/svg11.dtd">
<!-- Generated by graphviz version 2.36.0 (20140111.2315)
 -->
<!-- Title: mavlink_msg_hil_gps_get_satellites_visible Pages: 1 -->
<svg width="688pt" height="38pt"
 viewBox="0.00 0.00 688.00 38.00" xmlns="http://www.w3.org/2000/svg" xmlns:xlink="http://www.w3.org/1999/xlink">
<g id="graph0" class="graph" transform="scale(1 1) rotate(0) translate(4 34)">
<title>mavlink_msg_hil_gps_get_satellites_visible</title>
<polygon fill="white" stroke="none" points="-4,4 -4,-34 684,-34 684,4 -4,4"/>
<!-- Node1 -->
<g id="node1" class="node"><title>Node1</title>
<polygon fill="#bfbfbf" stroke="black" points="0.5,-0 0.5,-30 113.5,-30 113.5,-0 0.5,-0"/>
<text text-anchor="start" x="8.5" y="-18" font-family="Helvetica,sans-Serif" font-size="10.00">mavlink_msg_hil_gps</text>
<text text-anchor="middle" x="57" y="-7" font-family="Helvetica,sans-Serif" font-size="10.00">_get_satellites_visible</text>
</g>
<!-- Node2 -->
<g id="node2" class="node"><title>Node2</title>
<g id="a_node2"><a xlink:href="$mavlink__msg__hil__gps_8h.html#a7eb88bb91b250d0d00ee506d7104c9c0" xlink:title="Decode a hil_gps message into a struct. ">
<polygon fill="white" stroke="black" points="150,-0 150,-30 260,-30 260,-0 150,-0"/>
<text text-anchor="start" x="158" y="-18" font-family="Helvetica,sans-Serif" font-size="10.00">mavlink_msg_hil_gps</text>
<text text-anchor="middle" x="205" y="-7" font-family="Helvetica,sans-Serif" font-size="10.00">_decode</text>
</a>
</g>
</g>
<!-- Node1&#45;&gt;Node2 -->
<g id="edge1" class="edge"><title>Node1&#45;&gt;Node2</title>
<path fill="none" stroke="midnightblue" d="M123.801,-15C132.561,-15 141.46,-15 149.988,-15"/>
<polygon fill="midnightblue" stroke="midnightblue" points="123.613,-11.5001 113.613,-15 123.613,-18.5001 123.613,-11.5001"/>
</g>
<!-- Node3 -->
<g id="node3" class="node"><title>Node3</title>
<g id="a_node3"><a xlink:href="$v1_80_2common_2testsuite_8h.html#ab515771c12adbdddc193072d09a38842" xlink:title="mavlink_test_hil_gps">
<polygon fill="white" stroke="black" points="296,-5.5 296,-24.5 404,-24.5 404,-5.5 296,-5.5"/>
<text text-anchor="middle" x="350" y="-12.5" font-family="Helvetica,sans-Serif" font-size="10.00">mavlink_test_hil_gps</text>
</a>
</g>
</g>
<!-- Node2&#45;&gt;Node3 -->
<g id="edge2" class="edge"><title>Node2&#45;&gt;Node3</title>
<path fill="none" stroke="midnightblue" d="M270.066,-15C278.671,-15 287.42,-15 295.809,-15"/>
<polygon fill="midnightblue" stroke="midnightblue" points="270.062,-11.5001 260.062,-15 270.062,-18.5001 270.062,-11.5001"/>
</g>
<!-- Node4 -->
<g id="node4" class="node"><title>Node4</title>
<g id="a_node4"><a xlink:href="$v1_80_2common_2testsuite_8h.html#af349432601ac003d2c80a69c100c70a4" xlink:title="mavlink_test_common">
<polygon fill="white" stroke="black" points="440.5,-5.5 440.5,-24.5 555.5,-24.5 555.5,-5.5 440.5,-5.5"/>
<text text-anchor="middle" x="498" y="-12.5" font-family="Helvetica,sans-Serif" font-size="10.00">mavlink_test_common</text>
</a>
</g>
</g>
<!-- Node3&#45;&gt;Node4 -->
<g id="edge3" class="edge"><title>Node3&#45;&gt;Node4</title>
<path fill="none" stroke="midnightblue" d="M414.175,-15C422.837,-15 431.688,-15 440.226,-15"/>
<polygon fill="midnightblue" stroke="midnightblue" points="414.122,-11.5001 404.122,-15 414.122,-18.5001 414.122,-11.5001"/>
</g>
<!-- Node5 -->
<g id="node5" class="node"><title>Node5</title>
<g id="a_node5"><a xlink:href="$v1_80_2common_2testsuite_8h.html#a4cc77b6c343679298da5d3c2b4e48759" xlink:title="mavlink_test_all">
<polygon fill="white" stroke="black" points="592.5,-5.5 592.5,-24.5 679.5,-24.5 679.5,-5.5 592.5,-5.5"/>
<text text-anchor="middle" x="636" y="-12.5" font-family="Helvetica,sans-Serif" font-size="10.00">mavlink_test_all</text>
</a>
</g>
</g>
<!-- Node4&#45;&gt;Node5 -->
<g id="edge4" class="edge"><title>Node4&#45;&gt;Node5</title>
<path fill="none" stroke="midnightblue" d="M565.996,-15C574.988,-15 584.003,-15 592.412,-15"/>
<polygon fill="midnightblue" stroke="midnightblue" points="565.888,-11.5001 555.888,-15 565.888,-18.5001 565.888,-11.5001"/>
</g>
</g>
</svg>
