<?xml version="1.0" encoding="UTF-8" standalone="no"?>
<!DOCTYPE svg PUBLIC "-//W3C//DTD SVG 1.1//EN"
 "http://www.w3.org/Graphics/SVG/1.1/DTD/svg11.dtd">
<!-- Generated by graphviz version 2.36.0 (20140111.2315)
 -->
<!-- Title: mavlink_msg_led_control_encode Pages: 1 -->
<svg width="636pt" height="104pt"
 viewBox="0.00 0.00 636.00 104.00" xmlns="http://www.w3.org/2000/svg" xmlns:xlink="http://www.w3.org/1999/xlink">
<g id="graph0" class="graph" transform="scale(1 1) rotate(0) translate(4 100)">
<title>mavlink_msg_led_control_encode</title>
<polygon fill="white" stroke="none" points="-4,4 -4,-100 632,-100 632,4 -4,4"/>
<!-- Node1 -->
<g id="node1" class="node"><title>Node1</title>
<polygon fill="#bfbfbf" stroke="black" points="0.5,-33 0.5,-63 127.5,-63 127.5,-33 0.5,-33"/>
<text text-anchor="start" x="8.5" y="-51" font-family="Helvetica,sans-Serif" font-size="10.00">mavlink_msg_led_control</text>
<text text-anchor="middle" x="64" y="-40" font-family="Helvetica,sans-Serif" font-size="10.00">_encode</text>
</g>
<!-- Node2 -->
<g id="node2" class="node"><title>Node2</title>
<g id="a_node2"><a xlink:href="$mavlink__msg__led__control_8h.html#add2a31c92e0606aa35a1444241a5bfb8" xlink:title="Pack a led_control message. ">
<polygon fill="white" stroke="black" points="164.5,-38.5 164.5,-57.5 317.5,-57.5 317.5,-38.5 164.5,-38.5"/>
<text text-anchor="middle" x="241" y="-45.5" font-family="Helvetica,sans-Serif" font-size="10.00">mavlink_msg_led_control_pack</text>
</a>
</g>
</g>
<!-- Node1&#45;&gt;Node2 -->
<g id="edge1" class="edge"><title>Node1&#45;&gt;Node2</title>
<path fill="none" stroke="midnightblue" d="M127.685,-48C136.307,-48 145.28,-48 154.228,-48"/>
<polygon fill="midnightblue" stroke="midnightblue" points="154.301,-51.5001 164.301,-48 154.301,-44.5001 154.301,-51.5001"/>
</g>
<!-- Node3 -->
<g id="node3" class="node"><title>Node3</title>
<g id="a_node3"><a xlink:href="$v0_89_2protocol_8h.html#a78cf8b010c1768f8be4b9caa34aba0dc" xlink:title="_mav_put_uint8_t_array">
<polygon fill="white" stroke="black" points="359.5,-76.5 359.5,-95.5 480.5,-95.5 480.5,-76.5 359.5,-76.5"/>
<text text-anchor="middle" x="420" y="-83.5" font-family="Helvetica,sans-Serif" font-size="10.00">_mav_put_uint8_t_array</text>
</a>
</g>
</g>
<!-- Node2&#45;&gt;Node3 -->
<g id="edge2" class="edge"><title>Node2&#45;&gt;Node3</title>
<path fill="none" stroke="midnightblue" d="M286.665,-57.589C310.337,-62.6713 339.608,-68.9554 364.597,-74.3203"/>
<polygon fill="midnightblue" stroke="midnightblue" points="364.145,-77.8028 374.657,-76.4799 365.614,-70.9588 364.145,-77.8028"/>
</g>
<!-- Node4 -->
<g id="node4" class="node"><title>Node4</title>
<g id="a_node4"><a xlink:href="$v0_89_2protocol_8h.html#a4486c3d5854cac1cb6a0fb1cc5ba570c" xlink:title="mav_array_memcpy">
<polygon fill="white" stroke="black" points="522.5,-57.5 522.5,-76.5 627.5,-76.5 627.5,-57.5 522.5,-57.5"/>
<text text-anchor="middle" x="575" y="-64.5" font-family="Helvetica,sans-Serif" font-size="10.00">mav_array_memcpy</text>
</a>
</g>
</g>
<!-- Node2&#45;&gt;Node4 -->
<g id="edge4" class="edge"><title>Node2&#45;&gt;Node4</title>
<path fill="none" stroke="midnightblue" d="M317.751,-52.3352C376.543,-55.6998 457.035,-60.3062 512.021,-63.453"/>
<polygon fill="midnightblue" stroke="midnightblue" points="512.139,-66.9654 522.322,-64.0425 512.539,-59.9768 512.139,-66.9654"/>
</g>
<!-- Node5 -->
<g id="node5" class="node"><title>Node5</title>
<g id="a_node5"><a xlink:href="$v0_89_2mavlink__helpers_8h.html#af3bea083c5ec83f5b6570b2bd4a817d0" xlink:title="Finalize a MAVLink message with MAVLINK_COMM_0 as default channel. ">
<polygon fill="white" stroke="black" points="354.5,-0.5 354.5,-19.5 485.5,-19.5 485.5,-0.5 354.5,-0.5"/>
<text text-anchor="middle" x="420" y="-7.5" font-family="Helvetica,sans-Serif" font-size="10.00">mavlink_finalize_message</text>
</a>
</g>
</g>
<!-- Node2&#45;&gt;Node5 -->
<g id="edge5" class="edge"><title>Node2&#45;&gt;Node5</title>
<path fill="none" stroke="midnightblue" d="M286.665,-38.411C310.337,-33.3287 339.608,-27.0446 364.597,-21.6797"/>
<polygon fill="midnightblue" stroke="midnightblue" points="365.614,-25.0412 374.657,-19.5201 364.145,-18.1972 365.614,-25.0412"/>
</g>
<!-- Node3&#45;&gt;Node4 -->
<g id="edge3" class="edge"><title>Node3&#45;&gt;Node4</title>
<path fill="none" stroke="midnightblue" d="M480.592,-78.5997C490.912,-77.3181 501.665,-75.9828 512.046,-74.6936"/>
<polygon fill="midnightblue" stroke="midnightblue" points="512.782,-78.1292 522.275,-73.4234 511.919,-71.1826 512.782,-78.1292"/>
</g>
</g>
</svg>
