<?xml version="1.0" encoding="UTF-8" standalone="no"?>
<!DOCTYPE svg PUBLIC "-//W3C//DTD SVG 1.1//EN"
 "http://www.w3.org/Graphics/SVG/1.1/DTD/svg11.dtd">
<!-- Generated by graphviz version 2.36.0 (20140111.2315)
 -->
<!-- Title: mavlink_msg_gimbal_home_offset_calibration_result_pack Pages: 1 -->
<svg width="756pt" height="75pt"
 viewBox="0.00 0.00 756.00 75.00" xmlns="http://www.w3.org/2000/svg" xmlns:xlink="http://www.w3.org/1999/xlink">
<g id="graph0" class="graph" transform="scale(1 1) rotate(0) translate(4 71)">
<title>mavlink_msg_gimbal_home_offset_calibration_result_pack</title>
<polygon fill="white" stroke="none" points="-4,4 -4,-71 752,-71 752,4 -4,4"/>
<!-- Node1 -->
<g id="node1" class="node"><title>Node1</title>
<polygon fill="#bfbfbf" stroke="black" points="0.5,-0.5 0.5,-41.5 125.5,-41.5 125.5,-0.5 0.5,-0.5"/>
<text text-anchor="start" x="8.5" y="-29.5" font-family="Helvetica,sans-Serif" font-size="10.00">mavlink_msg_gimbal</text>
<text text-anchor="start" x="8.5" y="-18.5" font-family="Helvetica,sans-Serif" font-size="10.00">_home_offset_calibration</text>
<text text-anchor="middle" x="63" y="-7.5" font-family="Helvetica,sans-Serif" font-size="10.00">_result_pack</text>
</g>
<!-- Node2 -->
<g id="node2" class="node"><title>Node2</title>
<g id="a_node2"><a xlink:href="$mavlink__msg__gimbal__home__offset__calibration__result_8h.html#a42673039703520902295731dad286013" xlink:title="Encode a gimbal_home_offset_calibration_result struct. ">
<polygon fill="white" stroke="black" points="162.5,-25.5 162.5,-66.5 287.5,-66.5 287.5,-25.5 162.5,-25.5"/>
<text text-anchor="start" x="170.5" y="-54.5" font-family="Helvetica,sans-Serif" font-size="10.00">mavlink_msg_gimbal</text>
<text text-anchor="start" x="170.5" y="-43.5" font-family="Helvetica,sans-Serif" font-size="10.00">_home_offset_calibration</text>
<text text-anchor="middle" x="225" y="-32.5" font-family="Helvetica,sans-Serif" font-size="10.00">_result_encode</text>
</a>
</g>
</g>
<!-- Node1&#45;&gt;Node2 -->
<g id="edge1" class="edge"><title>Node1&#45;&gt;Node2</title>
<path fill="none" stroke="midnightblue" d="M135.775,-32.2149C144.629,-33.5983 153.619,-35.0029 162.304,-36.3601"/>
<polygon fill="midnightblue" stroke="midnightblue" points="136.281,-28.7515 125.86,-30.6657 135.2,-35.6675 136.281,-28.7515"/>
</g>
<!-- Node3 -->
<g id="node3" class="node"><title>Node3</title>
<g id="a_node3"><a xlink:href="$v1_80_2ardupilotmega_2testsuite_8h.html#ac4ccbe9466ff40ebb9aa92c6c02cc7f3" xlink:title="mavlink_test_gimbal\l_home_offset_calibration\l_result">
<polygon fill="white" stroke="black" points="324.5,-0.5 324.5,-41.5 449.5,-41.5 449.5,-0.5 324.5,-0.5"/>
<text text-anchor="start" x="332.5" y="-29.5" font-family="Helvetica,sans-Serif" font-size="10.00">mavlink_test_gimbal</text>
<text text-anchor="start" x="332.5" y="-18.5" font-family="Helvetica,sans-Serif" font-size="10.00">_home_offset_calibration</text>
<text text-anchor="middle" x="387" y="-7.5" font-family="Helvetica,sans-Serif" font-size="10.00">_result</text>
</a>
</g>
</g>
<!-- Node1&#45;&gt;Node3 -->
<g id="edge5" class="edge"><title>Node1&#45;&gt;Node3</title>
<path fill="none" stroke="midnightblue" d="M135.92,-16.9102C144.702,-16.5349 153.554,-16.2153 162,-16 217.982,-14.5728 232.018,-14.5728 288,-16 299.751,-16.2996 312.287,-16.8009 324.331,-17.3734"/>
<polygon fill="midnightblue" stroke="midnightblue" points="135.501,-13.4254 125.669,-17.3734 135.817,-20.4183 135.501,-13.4254"/>
</g>
<!-- Node2&#45;&gt;Node3 -->
<g id="edge2" class="edge"><title>Node2&#45;&gt;Node3</title>
<path fill="none" stroke="midnightblue" d="M297.775,-34.7851C306.629,-33.4017 315.619,-31.9971 324.304,-30.6399"/>
<polygon fill="midnightblue" stroke="midnightblue" points="297.2,-31.3325 287.86,-36.3343 298.281,-38.2485 297.2,-31.3325"/>
</g>
<!-- Node4 -->
<g id="node4" class="node"><title>Node4</title>
<g id="a_node4"><a xlink:href="$v1_80_2ardupilotmega_2testsuite_8h.html#ab264d471ac2f46584f2bb580704b5e9d" xlink:title="mavlink_test_ardupilotmega">
<polygon fill="white" stroke="black" points="486,-11.5 486,-30.5 624,-30.5 624,-11.5 486,-11.5"/>
<text text-anchor="middle" x="555" y="-18.5" font-family="Helvetica,sans-Serif" font-size="10.00">mavlink_test_ardupilotmega</text>
</a>
</g>
</g>
<!-- Node3&#45;&gt;Node4 -->
<g id="edge3" class="edge"><title>Node3&#45;&gt;Node4</title>
<path fill="none" stroke="midnightblue" d="M460.091,-21C468.601,-21 477.266,-21 485.722,-21"/>
<polygon fill="midnightblue" stroke="midnightblue" points="459.812,-17.5001 449.812,-21 459.812,-24.5001 459.812,-17.5001"/>
</g>
<!-- Node5 -->
<g id="node5" class="node"><title>Node5</title>
<g id="a_node5"><a xlink:href="$v1_80_2ardupilotmega_2testsuite_8h.html#a4cc77b6c343679298da5d3c2b4e48759" xlink:title="mavlink_test_all">
<polygon fill="white" stroke="black" points="660.5,-11.5 660.5,-30.5 747.5,-30.5 747.5,-11.5 660.5,-11.5"/>
<text text-anchor="middle" x="704" y="-18.5" font-family="Helvetica,sans-Serif" font-size="10.00">mavlink_test_all</text>
</a>
</g>
</g>
<!-- Node4&#45;&gt;Node5 -->
<g id="edge4" class="edge"><title>Node4&#45;&gt;Node5</title>
<path fill="none" stroke="midnightblue" d="M634.438,-21C643.373,-21 652.211,-21 660.42,-21"/>
<polygon fill="midnightblue" stroke="midnightblue" points="634.336,-17.5001 624.336,-21 634.336,-24.5001 634.336,-17.5001"/>
</g>
</g>
</svg>
