<?xml version="1.0" encoding="UTF-8" standalone="no"?>
<!DOCTYPE svg PUBLIC "-//W3C//DTD SVG 1.1//EN"
 "http://www.w3.org/Graphics/SVG/1.1/DTD/svg11.dtd">
<!-- Generated by graphviz version 2.36.0 (20140111.2315)
 -->
<!-- Title: mavlink_msg_global_vision_position_estimate_get_roll Pages: 1 -->
<svg width="746pt" height="48pt"
 viewBox="0.00 0.00 746.00 48.00" xmlns="http://www.w3.org/2000/svg" xmlns:xlink="http://www.w3.org/1999/xlink">
<g id="graph0" class="graph" transform="scale(1 1) rotate(0) translate(4 44)">
<title>mavlink_msg_global_vision_position_estimate_get_roll</title>
<polygon fill="white" stroke="none" points="-4,4 -4,-44 742,-44 742,4 -4,4"/>
<!-- Node1 -->
<g id="node1" class="node"><title>Node1</title>
<polygon fill="#bfbfbf" stroke="black" points="0.5,0.5 0.5,-40.5 129.5,-40.5 129.5,0.5 0.5,0.5"/>
<text text-anchor="start" x="8.5" y="-28.5" font-family="Helvetica,sans-Serif" font-size="10.00">mavlink_msg_global</text>
<text text-anchor="start" x="8.5" y="-17.5" font-family="Helvetica,sans-Serif" font-size="10.00">_vision_position_estimate</text>
<text text-anchor="middle" x="65" y="-6.5" font-family="Helvetica,sans-Serif" font-size="10.00">_get_roll</text>
</g>
<!-- Node2 -->
<g id="node2" class="node"><title>Node2</title>
<g id="a_node2"><a xlink:href="$mavlink__msg__global__vision__position__estimate_8h.html#a22fcc785ddaac4975348ec9dc3181df1" xlink:title="Decode a global_vision_position_estimate message into a struct. ">
<polygon fill="white" stroke="black" points="166.5,0.5 166.5,-40.5 295.5,-40.5 295.5,0.5 166.5,0.5"/>
<text text-anchor="start" x="174.5" y="-28.5" font-family="Helvetica,sans-Serif" font-size="10.00">mavlink_msg_global</text>
<text text-anchor="start" x="174.5" y="-17.5" font-family="Helvetica,sans-Serif" font-size="10.00">_vision_position_estimate</text>
<text text-anchor="middle" x="231" y="-6.5" font-family="Helvetica,sans-Serif" font-size="10.00">_decode</text>
</a>
</g>
</g>
<!-- Node1&#45;&gt;Node2 -->
<g id="edge1" class="edge"><title>Node1&#45;&gt;Node2</title>
<path fill="none" stroke="midnightblue" d="M140.073,-20C148.828,-20 157.704,-20 166.298,-20"/>
<polygon fill="midnightblue" stroke="midnightblue" points="139.876,-16.5001 129.876,-20 139.876,-23.5001 139.876,-16.5001"/>
</g>
<!-- Node3 -->
<g id="node3" class="node"><title>Node3</title>
<g id="a_node3"><a xlink:href="$v1_80_2common_2testsuite_8h.html#ad033a2dd99c45646da4dad339cbf0e62" xlink:title="mavlink_test_global\l_vision_position_estimate">
<polygon fill="white" stroke="black" points="332.5,-5 332.5,-35 461.5,-35 461.5,-5 332.5,-5"/>
<text text-anchor="start" x="340.5" y="-23" font-family="Helvetica,sans-Serif" font-size="10.00">mavlink_test_global</text>
<text text-anchor="middle" x="397" y="-12" font-family="Helvetica,sans-Serif" font-size="10.00">_vision_position_estimate</text>
</a>
</g>
</g>
<!-- Node2&#45;&gt;Node3 -->
<g id="edge2" class="edge"><title>Node2&#45;&gt;Node3</title>
<path fill="none" stroke="midnightblue" d="M306.073,-20C314.828,-20 323.704,-20 332.298,-20"/>
<polygon fill="midnightblue" stroke="midnightblue" points="305.876,-16.5001 295.876,-20 305.876,-23.5001 305.876,-16.5001"/>
</g>
<!-- Node4 -->
<g id="node4" class="node"><title>Node4</title>
<g id="a_node4"><a xlink:href="$v1_80_2common_2testsuite_8h.html#af349432601ac003d2c80a69c100c70a4" xlink:title="mavlink_test_common">
<polygon fill="white" stroke="black" points="498.5,-10.5 498.5,-29.5 613.5,-29.5 613.5,-10.5 498.5,-10.5"/>
<text text-anchor="middle" x="556" y="-17.5" font-family="Helvetica,sans-Serif" font-size="10.00">mavlink_test_common</text>
</a>
</g>
</g>
<!-- Node3&#45;&gt;Node4 -->
<g id="edge3" class="edge"><title>Node3&#45;&gt;Node4</title>
<path fill="none" stroke="midnightblue" d="M472.116,-20C480.906,-20 489.77,-20 498.264,-20"/>
<polygon fill="midnightblue" stroke="midnightblue" points="471.858,-16.5001 461.858,-20 471.858,-23.5001 471.858,-16.5001"/>
</g>
<!-- Node5 -->
<g id="node5" class="node"><title>Node5</title>
<g id="a_node5"><a xlink:href="$v1_80_2common_2testsuite_8h.html#a4cc77b6c343679298da5d3c2b4e48759" xlink:title="mavlink_test_all">
<polygon fill="white" stroke="black" points="650.5,-10.5 650.5,-29.5 737.5,-29.5 737.5,-10.5 650.5,-10.5"/>
<text text-anchor="middle" x="694" y="-17.5" font-family="Helvetica,sans-Serif" font-size="10.00">mavlink_test_all</text>
</a>
</g>
</g>
<!-- Node4&#45;&gt;Node5 -->
<g id="edge4" class="edge"><title>Node4&#45;&gt;Node5</title>
<path fill="none" stroke="midnightblue" d="M623.996,-20C632.988,-20 642.003,-20 650.412,-20"/>
<polygon fill="midnightblue" stroke="midnightblue" points="623.888,-16.5001 613.888,-20 623.888,-23.5001 623.888,-16.5001"/>
</g>
</g>
</svg>
