<?xml version="1.0" encoding="UTF-8" standalone="no"?>
<!DOCTYPE svg PUBLIC "-//W3C//DTD SVG 1.1//EN"
 "http://www.w3.org/Graphics/SVG/1.1/DTD/svg11.dtd">
<!-- Generated by graphviz version 2.36.0 (20140111.2315)
 -->
<!-- Title: mavlink_msg_mission_request_partial_list_get_end_index Pages: 1 -->
<svg width="696pt" height="48pt"
 viewBox="0.00 0.00 696.00 48.00" xmlns="http://www.w3.org/2000/svg" xmlns:xlink="http://www.w3.org/1999/xlink">
<g id="graph0" class="graph" transform="scale(1 1) rotate(0) translate(4 44)">
<title>mavlink_msg_mission_request_partial_list_get_end_index</title>
<polygon fill="white" stroke="none" points="-4,4 -4,-44 692,-44 692,4 -4,4"/>
<!-- Node1 -->
<g id="node1" class="node"><title>Node1</title>
<polygon fill="#bfbfbf" stroke="black" points="0.5,0.5 0.5,-40.5 113.5,-40.5 113.5,0.5 0.5,0.5"/>
<text text-anchor="start" x="8.5" y="-28.5" font-family="Helvetica,sans-Serif" font-size="10.00">mavlink_msg_mission</text>
<text text-anchor="start" x="8.5" y="-17.5" font-family="Helvetica,sans-Serif" font-size="10.00">_request_partial_list</text>
<text text-anchor="middle" x="57" y="-6.5" font-family="Helvetica,sans-Serif" font-size="10.00">_get_end_index</text>
</g>
<!-- Node2 -->
<g id="node2" class="node"><title>Node2</title>
<g id="a_node2"><a xlink:href="$mavlink__msg__mission__request__partial__list_8h.html#a76bfa8e886cb97e9b09da12e151c2c30" xlink:title="Decode a mission_request_partial_list message into a struct. ">
<polygon fill="white" stroke="black" points="150.5,0.5 150.5,-40.5 263.5,-40.5 263.5,0.5 150.5,0.5"/>
<text text-anchor="start" x="158.5" y="-28.5" font-family="Helvetica,sans-Serif" font-size="10.00">mavlink_msg_mission</text>
<text text-anchor="start" x="158.5" y="-17.5" font-family="Helvetica,sans-Serif" font-size="10.00">_request_partial_list</text>
<text text-anchor="middle" x="207" y="-6.5" font-family="Helvetica,sans-Serif" font-size="10.00">_decode</text>
</a>
</g>
</g>
<!-- Node1&#45;&gt;Node2 -->
<g id="edge1" class="edge"><title>Node1&#45;&gt;Node2</title>
<path fill="none" stroke="midnightblue" d="M123.768,-20C132.576,-20 141.542,-20 150.158,-20"/>
<polygon fill="midnightblue" stroke="midnightblue" points="123.531,-16.5001 113.531,-20 123.531,-23.5001 123.531,-16.5001"/>
</g>
<!-- Node3 -->
<g id="node3" class="node"><title>Node3</title>
<g id="a_node3"><a xlink:href="$v1_80_2common_2testsuite_8h.html#ad9479b95e6a9f9da016bbec341a8bc40" xlink:title="mavlink_test_mission\l_request_partial_list">
<polygon fill="white" stroke="black" points="300.5,-5 300.5,-35 411.5,-35 411.5,-5 300.5,-5"/>
<text text-anchor="start" x="308.5" y="-23" font-family="Helvetica,sans-Serif" font-size="10.00">mavlink_test_mission</text>
<text text-anchor="middle" x="356" y="-12" font-family="Helvetica,sans-Serif" font-size="10.00">_request_partial_list</text>
</a>
</g>
</g>
<!-- Node2&#45;&gt;Node3 -->
<g id="edge2" class="edge"><title>Node2&#45;&gt;Node3</title>
<path fill="none" stroke="midnightblue" d="M273.858,-20C282.703,-20 291.698,-20 300.321,-20"/>
<polygon fill="midnightblue" stroke="midnightblue" points="273.574,-16.5001 263.574,-20 273.574,-23.5001 273.574,-16.5001"/>
</g>
<!-- Node4 -->
<g id="node4" class="node"><title>Node4</title>
<g id="a_node4"><a xlink:href="$v1_80_2common_2testsuite_8h.html#af349432601ac003d2c80a69c100c70a4" xlink:title="mavlink_test_common">
<polygon fill="white" stroke="black" points="448.5,-10.5 448.5,-29.5 563.5,-29.5 563.5,-10.5 448.5,-10.5"/>
<text text-anchor="middle" x="506" y="-17.5" font-family="Helvetica,sans-Serif" font-size="10.00">mavlink_test_common</text>
</a>
</g>
</g>
<!-- Node3&#45;&gt;Node4 -->
<g id="edge3" class="edge"><title>Node3&#45;&gt;Node4</title>
<path fill="none" stroke="midnightblue" d="M421.833,-20C430.567,-20 439.474,-20 448.057,-20"/>
<polygon fill="midnightblue" stroke="midnightblue" points="421.689,-16.5001 411.689,-20 421.689,-23.5001 421.689,-16.5001"/>
</g>
<!-- Node5 -->
<g id="node5" class="node"><title>Node5</title>
<g id="a_node5"><a xlink:href="$v1_80_2common_2testsuite_8h.html#a4cc77b6c343679298da5d3c2b4e48759" xlink:title="mavlink_test_all">
<polygon fill="white" stroke="black" points="600.5,-10.5 600.5,-29.5 687.5,-29.5 687.5,-10.5 600.5,-10.5"/>
<text text-anchor="middle" x="644" y="-17.5" font-family="Helvetica,sans-Serif" font-size="10.00">mavlink_test_all</text>
</a>
</g>
</g>
<!-- Node4&#45;&gt;Node5 -->
<g id="edge4" class="edge"><title>Node4&#45;&gt;Node5</title>
<path fill="none" stroke="midnightblue" d="M573.996,-20C582.988,-20 592.003,-20 600.412,-20"/>
<polygon fill="midnightblue" stroke="midnightblue" points="573.888,-16.5001 563.888,-20 573.888,-23.5001 573.888,-16.5001"/>
</g>
</g>
</svg>
