<?xml version="1.0" encoding="UTF-8" standalone="no"?>
<!DOCTYPE svg PUBLIC "-//W3C//DTD SVG 1.1//EN"
 "http://www.w3.org/Graphics/SVG/1.1/DTD/svg11.dtd">
<!-- Generated by graphviz version 2.36.0 (20140111.2315)
 -->
<!-- Title: mavlink_msg_gimbal_set_factory_parameters_decode Pages: 1 -->
<svg width="296pt" height="829pt"
 viewBox="0.00 0.00 296.00 829.00" xmlns="http://www.w3.org/2000/svg" xmlns:xlink="http://www.w3.org/1999/xlink">
<g id="graph0" class="graph" transform="scale(1 1) rotate(0) translate(4 825)">
<title>mavlink_msg_gimbal_set_factory_parameters_decode</title>
<polygon fill="white" stroke="none" points="-4,4 -4,-825 292,-825 292,4 -4,4"/>
<!-- Node1 -->
<g id="node1" class="node"><title>Node1</title>
<polygon fill="#bfbfbf" stroke="black" points="0.5,-389.5 0.5,-430.5 125.5,-430.5 125.5,-389.5 0.5,-389.5"/>
<text text-anchor="start" x="8.5" y="-418.5" font-family="Helvetica,sans-Serif" font-size="10.00">mavlink_msg_gimbal</text>
<text text-anchor="start" x="8.5" y="-407.5" font-family="Helvetica,sans-Serif" font-size="10.00">_set_factory_parameters</text>
<text text-anchor="middle" x="63" y="-396.5" font-family="Helvetica,sans-Serif" font-size="10.00">_decode</text>
</g>
<!-- Node2 -->
<g id="node2" class="node"><title>Node2</title>
<g id="a_node2"><a xlink:href="$mavlink__msg__gimbal__set__factory__parameters_8h.html#a054626d41e9ac9209bebbfceffb8fe42" xlink:title="Get field magic_1 from gimbal_set_factory_parameters message. ">
<polygon fill="white" stroke="black" points="162.5,-779.5 162.5,-820.5 287.5,-820.5 287.5,-779.5 162.5,-779.5"/>
<text text-anchor="start" x="170.5" y="-808.5" font-family="Helvetica,sans-Serif" font-size="10.00">mavlink_msg_gimbal</text>
<text text-anchor="start" x="170.5" y="-797.5" font-family="Helvetica,sans-Serif" font-size="10.00">_set_factory_parameters</text>
<text text-anchor="middle" x="225" y="-786.5" font-family="Helvetica,sans-Serif" font-size="10.00">_get_magic_1</text>
</a>
</g>
</g>
<!-- Node1&#45;&gt;Node2 -->
<g id="edge1" class="edge"><title>Node1&#45;&gt;Node2</title>
<path fill="none" stroke="midnightblue" d="M64.0306,-430.871C65.1901,-490.551 76.1763,-664.337 162,-769 163.102,-770.344 164.276,-771.634 165.512,-772.873"/>
<polygon fill="midnightblue" stroke="midnightblue" points="163.301,-775.588 173.178,-779.423 167.848,-770.266 163.301,-775.588"/>
</g>
<!-- Node3 -->
<g id="node3" class="node"><title>Node3</title>
<g id="a_node3"><a xlink:href="$mavlink__msg__gimbal__set__factory__parameters_8h.html#aecdfabc9129f73793fbc3c1b07e42579" xlink:title="Get field magic_2 from gimbal_set_factory_parameters message. ">
<polygon fill="white" stroke="black" points="162.5,-719.5 162.5,-760.5 287.5,-760.5 287.5,-719.5 162.5,-719.5"/>
<text text-anchor="start" x="170.5" y="-748.5" font-family="Helvetica,sans-Serif" font-size="10.00">mavlink_msg_gimbal</text>
<text text-anchor="start" x="170.5" y="-737.5" font-family="Helvetica,sans-Serif" font-size="10.00">_set_factory_parameters</text>
<text text-anchor="middle" x="225" y="-726.5" font-family="Helvetica,sans-Serif" font-size="10.00">_get_magic_2</text>
</a>
</g>
</g>
<!-- Node1&#45;&gt;Node3 -->
<g id="edge2" class="edge"><title>Node1&#45;&gt;Node3</title>
<path fill="none" stroke="midnightblue" d="M65.4079,-430.777C70.0078,-483.485 88.84,-624.216 162,-709 163.162,-710.347 164.397,-711.641 165.692,-712.885"/>
<polygon fill="midnightblue" stroke="midnightblue" points="163.737,-715.81 173.681,-719.467 168.188,-710.407 163.737,-715.81"/>
</g>
<!-- Node4 -->
<g id="node4" class="node"><title>Node4</title>
<g id="a_node4"><a xlink:href="$mavlink__msg__gimbal__set__factory__parameters_8h.html#a2f5a85e6aeb5115f1f775f661e908315" xlink:title="Get field magic_3 from gimbal_set_factory_parameters message. ">
<polygon fill="white" stroke="black" points="162.5,-659.5 162.5,-700.5 287.5,-700.5 287.5,-659.5 162.5,-659.5"/>
<text text-anchor="start" x="170.5" y="-688.5" font-family="Helvetica,sans-Serif" font-size="10.00">mavlink_msg_gimbal</text>
<text text-anchor="start" x="170.5" y="-677.5" font-family="Helvetica,sans-Serif" font-size="10.00">_set_factory_parameters</text>
<text text-anchor="middle" x="225" y="-666.5" font-family="Helvetica,sans-Serif" font-size="10.00">_get_magic_3</text>
</a>
</g>
</g>
<!-- Node1&#45;&gt;Node4 -->
<g id="edge3" class="edge"><title>Node1&#45;&gt;Node4</title>
<path fill="none" stroke="midnightblue" d="M67.3825,-430.541C75.7472,-475.453 101.29,-583.589 162,-649 163.351,-650.455 164.785,-651.852 166.286,-653.191"/>
<polygon fill="midnightblue" stroke="midnightblue" points="164.237,-656.031 174.276,-659.417 168.54,-650.51 164.237,-656.031"/>
</g>
<!-- Node5 -->
<g id="node5" class="node"><title>Node5</title>
<g id="a_node5"><a xlink:href="$mavlink__msg__gimbal__set__factory__parameters_8h.html#a3cfaecf4890f034bb386a1998dbc4d9a" xlink:title="Get field serial_number_pt_1 from gimbal_set_factory_parameters message. ">
<polygon fill="white" stroke="black" points="162.5,-599.5 162.5,-640.5 287.5,-640.5 287.5,-599.5 162.5,-599.5"/>
<text text-anchor="start" x="170.5" y="-628.5" font-family="Helvetica,sans-Serif" font-size="10.00">mavlink_msg_gimbal</text>
<text text-anchor="start" x="170.5" y="-617.5" font-family="Helvetica,sans-Serif" font-size="10.00">_set_factory_parameters</text>
<text text-anchor="middle" x="225" y="-606.5" font-family="Helvetica,sans-Serif" font-size="10.00">_get_serial_number_pt_1</text>
</a>
</g>
</g>
<!-- Node1&#45;&gt;Node5 -->
<g id="edge4" class="edge"><title>Node1&#45;&gt;Node5</title>
<path fill="none" stroke="midnightblue" d="M70.6153,-430.531C83.1819,-466.717 113.65,-542.419 162,-589 163.62,-590.56 165.333,-592.058 167.118,-593.494"/>
<polygon fill="midnightblue" stroke="midnightblue" points="165.171,-596.404 175.334,-599.397 169.255,-590.719 165.171,-596.404"/>
</g>
<!-- Node6 -->
<g id="node6" class="node"><title>Node6</title>
<g id="a_node6"><a xlink:href="$mavlink__msg__gimbal__set__factory__parameters_8h.html#a970c2eec2b2f95cd62bdf27fb7ccfba8" xlink:title="Get field serial_number_pt_2 from gimbal_set_factory_parameters message. ">
<polygon fill="white" stroke="black" points="162.5,-539.5 162.5,-580.5 287.5,-580.5 287.5,-539.5 162.5,-539.5"/>
<text text-anchor="start" x="170.5" y="-568.5" font-family="Helvetica,sans-Serif" font-size="10.00">mavlink_msg_gimbal</text>
<text text-anchor="start" x="170.5" y="-557.5" font-family="Helvetica,sans-Serif" font-size="10.00">_set_factory_parameters</text>
<text text-anchor="middle" x="225" y="-546.5" font-family="Helvetica,sans-Serif" font-size="10.00">_get_serial_number_pt_2</text>
</a>
</g>
</g>
<!-- Node1&#45;&gt;Node6 -->
<g id="edge5" class="edge"><title>Node1&#45;&gt;Node6</title>
<path fill="none" stroke="midnightblue" d="M77.1006,-430.763C94.1342,-456.457 125.997,-500.314 162,-529 164.059,-530.64 166.219,-532.227 168.447,-533.757"/>
<polygon fill="midnightblue" stroke="midnightblue" points="166.992,-536.978 177.313,-539.37 170.736,-531.063 166.992,-536.978"/>
</g>
<!-- Node7 -->
<g id="node7" class="node"><title>Node7</title>
<g id="a_node7"><a xlink:href="$mavlink__msg__gimbal__set__factory__parameters_8h.html#a46fa74b0f1b30a9ca330b42a2252b172" xlink:title="Get field serial_number_pt_3 from gimbal_set_factory_parameters message. ">
<polygon fill="white" stroke="black" points="162.5,-479.5 162.5,-520.5 287.5,-520.5 287.5,-479.5 162.5,-479.5"/>
<text text-anchor="start" x="170.5" y="-508.5" font-family="Helvetica,sans-Serif" font-size="10.00">mavlink_msg_gimbal</text>
<text text-anchor="start" x="170.5" y="-497.5" font-family="Helvetica,sans-Serif" font-size="10.00">_set_factory_parameters</text>
<text text-anchor="middle" x="225" y="-486.5" font-family="Helvetica,sans-Serif" font-size="10.00">_get_serial_number_pt_3</text>
</a>
</g>
</g>
<!-- Node1&#45;&gt;Node7 -->
<g id="edge6" class="edge"><title>Node1&#45;&gt;Node7</title>
<path fill="none" stroke="midnightblue" d="M96.7392,-430.588C115.609,-442.231 139.9,-456.847 162,-469 165.46,-470.903 169.052,-472.827 172.684,-474.736"/>
<polygon fill="midnightblue" stroke="midnightblue" points="171.258,-477.939 181.747,-479.429 174.477,-471.723 171.258,-477.939"/>
</g>
<!-- Node8 -->
<g id="node8" class="node"><title>Node8</title>
<g id="a_node8"><a xlink:href="$mavlink__msg__gimbal__set__factory__parameters_8h.html#a6ff90b9107c27e3d8f65156a00ed8a47" xlink:title="Get field assembly_year from gimbal_set_factory_parameters message. ">
<polygon fill="white" stroke="black" points="162.5,-419.5 162.5,-460.5 287.5,-460.5 287.5,-419.5 162.5,-419.5"/>
<text text-anchor="start" x="170.5" y="-448.5" font-family="Helvetica,sans-Serif" font-size="10.00">mavlink_msg_gimbal</text>
<text text-anchor="start" x="170.5" y="-437.5" font-family="Helvetica,sans-Serif" font-size="10.00">_set_factory_parameters</text>
<text text-anchor="middle" x="225" y="-426.5" font-family="Helvetica,sans-Serif" font-size="10.00">_get_assembly_year</text>
</a>
</g>
</g>
<!-- Node1&#45;&gt;Node8 -->
<g id="edge7" class="edge"><title>Node1&#45;&gt;Node8</title>
<path fill="none" stroke="midnightblue" d="M125.86,-421.599C134.549,-423.228 143.54,-424.914 152.392,-426.574"/>
<polygon fill="midnightblue" stroke="midnightblue" points="151.831,-430.029 162.304,-428.432 153.121,-423.149 151.831,-430.029"/>
</g>
<!-- Node9 -->
<g id="node9" class="node"><title>Node9</title>
<g id="a_node9"><a xlink:href="$mavlink__msg__gimbal__set__factory__parameters_8h.html#a3e4f5ac3865c1468b027b76064f84795" xlink:title="Send a gimbal_set_factory_parameters message. ">
<polygon fill="white" stroke="black" points="162.5,-359.5 162.5,-400.5 287.5,-400.5 287.5,-359.5 162.5,-359.5"/>
<text text-anchor="start" x="170.5" y="-388.5" font-family="Helvetica,sans-Serif" font-size="10.00">mavlink_msg_gimbal</text>
<text text-anchor="start" x="170.5" y="-377.5" font-family="Helvetica,sans-Serif" font-size="10.00">_set_factory_parameters</text>
<text text-anchor="middle" x="225" y="-366.5" font-family="Helvetica,sans-Serif" font-size="10.00">_get_target_system</text>
</a>
</g>
</g>
<!-- Node1&#45;&gt;Node9 -->
<g id="edge8" class="edge"><title>Node1&#45;&gt;Node9</title>
<path fill="none" stroke="midnightblue" d="M125.86,-398.401C134.549,-396.772 143.54,-395.086 152.392,-393.426"/>
<polygon fill="midnightblue" stroke="midnightblue" points="153.121,-396.851 162.304,-391.568 151.831,-389.971 153.121,-396.851"/>
</g>
<!-- Node10 -->
<g id="node10" class="node"><title>Node10</title>
<g id="a_node10"><a xlink:href="$mavlink__msg__gimbal__set__factory__parameters_8h.html#aa930021be438ca58edd99d03592bc6a6" xlink:title="Get field target_component from gimbal_set_factory_parameters message. ">
<polygon fill="white" stroke="black" points="162.5,-299.5 162.5,-340.5 287.5,-340.5 287.5,-299.5 162.5,-299.5"/>
<text text-anchor="start" x="170.5" y="-328.5" font-family="Helvetica,sans-Serif" font-size="10.00">mavlink_msg_gimbal</text>
<text text-anchor="start" x="170.5" y="-317.5" font-family="Helvetica,sans-Serif" font-size="10.00">_set_factory_parameters</text>
<text text-anchor="middle" x="225" y="-306.5" font-family="Helvetica,sans-Serif" font-size="10.00">_get_target_component</text>
</a>
</g>
</g>
<!-- Node1&#45;&gt;Node10 -->
<g id="edge9" class="edge"><title>Node1&#45;&gt;Node10</title>
<path fill="none" stroke="midnightblue" d="M95.7513,-389.461C114.708,-377.477 139.416,-362.338 162,-350 164.886,-348.423 167.867,-346.839 170.89,-345.268"/>
<polygon fill="midnightblue" stroke="midnightblue" points="172.71,-348.269 180.03,-340.609 169.531,-342.032 172.71,-348.269"/>
</g>
<!-- Node11 -->
<g id="node11" class="node"><title>Node11</title>
<g id="a_node11"><a xlink:href="$mavlink__msg__gimbal__set__factory__parameters_8h.html#a2e4eb2afd18270c2b375f7b7048834ad" xlink:title="Get field assembly_month from gimbal_set_factory_parameters message. ">
<polygon fill="white" stroke="black" points="162.5,-239.5 162.5,-280.5 287.5,-280.5 287.5,-239.5 162.5,-239.5"/>
<text text-anchor="start" x="170.5" y="-268.5" font-family="Helvetica,sans-Serif" font-size="10.00">mavlink_msg_gimbal</text>
<text text-anchor="start" x="170.5" y="-257.5" font-family="Helvetica,sans-Serif" font-size="10.00">_set_factory_parameters</text>
<text text-anchor="middle" x="225" y="-246.5" font-family="Helvetica,sans-Serif" font-size="10.00">_get_assembly_month</text>
</a>
</g>
</g>
<!-- Node1&#45;&gt;Node11 -->
<g id="edge10" class="edge"><title>Node1&#45;&gt;Node11</title>
<path fill="none" stroke="midnightblue" d="M76.7072,-389.43C93.5628,-363.499 125.478,-318.835 162,-290 163.754,-288.615 165.582,-287.273 167.464,-285.974"/>
<polygon fill="midnightblue" stroke="midnightblue" points="169.43,-288.872 176.001,-280.561 165.682,-282.96 169.43,-288.872"/>
</g>
<!-- Node12 -->
<g id="node12" class="node"><title>Node12</title>
<g id="a_node12"><a xlink:href="$mavlink__msg__gimbal__set__factory__parameters_8h.html#aee63bfb7089641d196ba7b0aaebe1bf7" xlink:title="Get field assembly_day from gimbal_set_factory_parameters message. ">
<polygon fill="white" stroke="black" points="162.5,-179.5 162.5,-220.5 287.5,-220.5 287.5,-179.5 162.5,-179.5"/>
<text text-anchor="start" x="170.5" y="-208.5" font-family="Helvetica,sans-Serif" font-size="10.00">mavlink_msg_gimbal</text>
<text text-anchor="start" x="170.5" y="-197.5" font-family="Helvetica,sans-Serif" font-size="10.00">_set_factory_parameters</text>
<text text-anchor="middle" x="225" y="-186.5" font-family="Helvetica,sans-Serif" font-size="10.00">_get_assembly_day</text>
</a>
</g>
</g>
<!-- Node1&#45;&gt;Node12 -->
<g id="edge11" class="edge"><title>Node1&#45;&gt;Node12</title>
<path fill="none" stroke="midnightblue" d="M70.5229,-389.29C82.9449,-352.8 113.194,-276.522 162,-230 163.25,-228.809 164.556,-227.657 165.907,-226.543"/>
<polygon fill="midnightblue" stroke="midnightblue" points="168.066,-229.301 174.08,-220.578 163.939,-223.646 168.066,-229.301"/>
</g>
<!-- Node13 -->
<g id="node13" class="node"><title>Node13</title>
<g id="a_node13"><a xlink:href="$mavlink__msg__gimbal__set__factory__parameters_8h.html#af245fc6f4187a4b3489892176f1dfbef" xlink:title="Get field assembly_hour from gimbal_set_factory_parameters message. ">
<polygon fill="white" stroke="black" points="162.5,-119.5 162.5,-160.5 287.5,-160.5 287.5,-119.5 162.5,-119.5"/>
<text text-anchor="start" x="170.5" y="-148.5" font-family="Helvetica,sans-Serif" font-size="10.00">mavlink_msg_gimbal</text>
<text text-anchor="start" x="170.5" y="-137.5" font-family="Helvetica,sans-Serif" font-size="10.00">_set_factory_parameters</text>
<text text-anchor="middle" x="225" y="-126.5" font-family="Helvetica,sans-Serif" font-size="10.00">_get_assembly_hour</text>
</a>
</g>
</g>
<!-- Node1&#45;&gt;Node13 -->
<g id="edge12" class="edge"><title>Node1&#45;&gt;Node13</title>
<path fill="none" stroke="midnightblue" d="M67.2941,-389.315C75.4824,-344.099 100.695,-235.293 162,-170 163.023,-168.91 164.094,-167.856 165.206,-166.835"/>
<polygon fill="midnightblue" stroke="midnightblue" points="167.415,-169.55 173.06,-160.584 163.056,-164.073 167.415,-169.55"/>
</g>
<!-- Node14 -->
<g id="node14" class="node"><title>Node14</title>
<g id="a_node14"><a xlink:href="$mavlink__msg__gimbal__set__factory__parameters_8h.html#aee6bfefc569863bfcbbe11c17b9aafee" xlink:title="Get field assembly_minute from gimbal_set_factory_parameters message. ">
<polygon fill="white" stroke="black" points="162.5,-59.5 162.5,-100.5 287.5,-100.5 287.5,-59.5 162.5,-59.5"/>
<text text-anchor="start" x="170.5" y="-88.5" font-family="Helvetica,sans-Serif" font-size="10.00">mavlink_msg_gimbal</text>
<text text-anchor="start" x="170.5" y="-77.5" font-family="Helvetica,sans-Serif" font-size="10.00">_set_factory_parameters</text>
<text text-anchor="middle" x="225" y="-66.5" font-family="Helvetica,sans-Serif" font-size="10.00">_get_assembly_minute</text>
</a>
</g>
</g>
<!-- Node1&#45;&gt;Node14 -->
<g id="edge13" class="edge"><title>Node1&#45;&gt;Node14</title>
<path fill="none" stroke="midnightblue" d="M65.289,-389.484C69.6276,-336.773 87.9299,-194.804 162,-110 162.863,-109.012 163.766,-108.054 164.703,-107.124"/>
<polygon fill="midnightblue" stroke="midnightblue" points="167.106,-109.676 172.491,-100.552 162.592,-104.327 167.106,-109.676"/>
</g>
<!-- Node15 -->
<g id="node15" class="node"><title>Node15</title>
<g id="a_node15"><a xlink:href="$mavlink__msg__gimbal__set__factory__parameters_8h.html#ac87ea263f0b4f5ebff709ee6b811e177" xlink:title="Get field assembly_second from gimbal_set_factory_parameters message. ">
<polygon fill="white" stroke="black" points="162.5,0.5 162.5,-40.5 287.5,-40.5 287.5,0.5 162.5,0.5"/>
<text text-anchor="start" x="170.5" y="-28.5" font-family="Helvetica,sans-Serif" font-size="10.00">mavlink_msg_gimbal</text>
<text text-anchor="start" x="170.5" y="-17.5" font-family="Helvetica,sans-Serif" font-size="10.00">_set_factory_parameters</text>
<text text-anchor="middle" x="225" y="-6.5" font-family="Helvetica,sans-Serif" font-size="10.00">_get_assembly_second</text>
</a>
</g>
</g>
<!-- Node1&#45;&gt;Node15 -->
<g id="edge14" class="edge"><title>Node1&#45;&gt;Node15</title>
<path fill="none" stroke="midnightblue" d="M63.9385,-389.444C64.8264,-329.858 75.1043,-154.653 162,-50 162.726,-49.126 163.483,-48.2756 164.268,-47.4482"/>
<polygon fill="midnightblue" stroke="midnightblue" points="166.833,-49.8529 172.008,-40.6079 162.197,-44.6079 166.833,-49.8529"/>
</g>
</g>
</svg>
