<?xml version="1.0" encoding="UTF-8" standalone="no"?>
<!DOCTYPE svg PUBLIC "-//W3C//DTD SVG 1.1//EN"
 "http://www.w3.org/Graphics/SVG/1.1/DTD/svg11.dtd">
<!-- Generated by graphviz version 2.36.0 (20140111.2315)
 -->
<!-- Title: mavlink_msg_gimbal_erase_firmware_and_config_get_target_system Pages: 1 -->
<svg width="732pt" height="48pt"
 viewBox="0.00 0.00 732.00 48.00" xmlns="http://www.w3.org/2000/svg" xmlns:xlink="http://www.w3.org/1999/xlink">
<g id="graph0" class="graph" transform="scale(1 1) rotate(0) translate(4 44)">
<title>mavlink_msg_gimbal_erase_firmware_and_config_get_target_system</title>
<polygon fill="white" stroke="none" points="-4,4 -4,-44 728,-44 728,4 -4,4"/>
<!-- Node1 -->
<g id="node1" class="node"><title>Node1</title>
<polygon fill="#bfbfbf" stroke="black" points="0,0.5 0,-40.5 134,-40.5 134,0.5 0,0.5"/>
<text text-anchor="start" x="8" y="-28.5" font-family="Helvetica,sans-Serif" font-size="10.00">mavlink_msg_gimbal</text>
<text text-anchor="start" x="8" y="-17.5" font-family="Helvetica,sans-Serif" font-size="10.00">_erase_firmware_and</text>
<text text-anchor="middle" x="67" y="-6.5" font-family="Helvetica,sans-Serif" font-size="10.00">_config_get_target_system</text>
</g>
<!-- Node2 -->
<g id="node2" class="node"><title>Node2</title>
<g id="a_node2"><a xlink:href="$mavlink__msg__gimbal__erase__firmware__and__config_8h.html#a9c9474b6bf7993b694ebc03576cd00c5" xlink:title="Decode a gimbal_erase_firmware_and_config message into a struct. ">
<polygon fill="white" stroke="black" points="170,0.5 170,-40.5 280,-40.5 280,0.5 170,0.5"/>
<text text-anchor="start" x="178" y="-28.5" font-family="Helvetica,sans-Serif" font-size="10.00">mavlink_msg_gimbal</text>
<text text-anchor="start" x="178" y="-17.5" font-family="Helvetica,sans-Serif" font-size="10.00">_erase_firmware_and</text>
<text text-anchor="middle" x="225" y="-6.5" font-family="Helvetica,sans-Serif" font-size="10.00">_config_decode</text>
</a>
</g>
</g>
<!-- Node1&#45;&gt;Node2 -->
<g id="edge1" class="edge"><title>Node1&#45;&gt;Node2</title>
<path fill="none" stroke="midnightblue" d="M144.171,-20C152.732,-20 161.324,-20 169.531,-20"/>
<polygon fill="midnightblue" stroke="midnightblue" points="144.158,-16.5001 134.158,-20 144.158,-23.5001 144.158,-16.5001"/>
</g>
<!-- Node3 -->
<g id="node3" class="node"><title>Node3</title>
<g id="a_node3"><a xlink:href="$v1_80_2ardupilotmega_2testsuite_8h.html#ab03bfa150b63c20c80fa78530aafd5eb" xlink:title="mavlink_test_gimbal\l_erase_firmware_and\l_config">
<polygon fill="white" stroke="black" points="316,0.5 316,-40.5 426,-40.5 426,0.5 316,0.5"/>
<text text-anchor="start" x="324" y="-28.5" font-family="Helvetica,sans-Serif" font-size="10.00">mavlink_test_gimbal</text>
<text text-anchor="start" x="324" y="-17.5" font-family="Helvetica,sans-Serif" font-size="10.00">_erase_firmware_and</text>
<text text-anchor="middle" x="371" y="-6.5" font-family="Helvetica,sans-Serif" font-size="10.00">_config</text>
</a>
</g>
</g>
<!-- Node2&#45;&gt;Node3 -->
<g id="edge2" class="edge"><title>Node2&#45;&gt;Node3</title>
<path fill="none" stroke="midnightblue" d="M290.27,-20C298.75,-20 307.375,-20 315.667,-20"/>
<polygon fill="midnightblue" stroke="midnightblue" points="290.03,-16.5001 280.03,-20 290.03,-23.5001 290.03,-16.5001"/>
</g>
<!-- Node4 -->
<g id="node4" class="node"><title>Node4</title>
<g id="a_node4"><a xlink:href="$v1_80_2ardupilotmega_2testsuite_8h.html#ab264d471ac2f46584f2bb580704b5e9d" xlink:title="mavlink_test_ardupilotmega">
<polygon fill="white" stroke="black" points="462,-10.5 462,-29.5 600,-29.5 600,-10.5 462,-10.5"/>
<text text-anchor="middle" x="531" y="-17.5" font-family="Helvetica,sans-Serif" font-size="10.00">mavlink_test_ardupilotmega</text>
</a>
</g>
</g>
<!-- Node3&#45;&gt;Node4 -->
<g id="edge3" class="edge"><title>Node3&#45;&gt;Node4</title>
<path fill="none" stroke="midnightblue" d="M436.448,-20C444.82,-20 453.418,-20 461.847,-20"/>
<polygon fill="midnightblue" stroke="midnightblue" points="436.375,-16.5001 426.375,-20 436.375,-23.5001 436.375,-16.5001"/>
</g>
<!-- Node5 -->
<g id="node5" class="node"><title>Node5</title>
<g id="a_node5"><a xlink:href="$v1_80_2ardupilotmega_2testsuite_8h.html#a4cc77b6c343679298da5d3c2b4e48759" xlink:title="mavlink_test_all">
<polygon fill="white" stroke="black" points="636.5,-10.5 636.5,-29.5 723.5,-29.5 723.5,-10.5 636.5,-10.5"/>
<text text-anchor="middle" x="680" y="-17.5" font-family="Helvetica,sans-Serif" font-size="10.00">mavlink_test_all</text>
</a>
</g>
</g>
<!-- Node4&#45;&gt;Node5 -->
<g id="edge4" class="edge"><title>Node4&#45;&gt;Node5</title>
<path fill="none" stroke="midnightblue" d="M610.438,-20C619.373,-20 628.211,-20 636.42,-20"/>
<polygon fill="midnightblue" stroke="midnightblue" points="610.336,-16.5001 600.336,-20 610.336,-23.5001 610.336,-16.5001"/>
</g>
</g>
</svg>
