<?xml version="1.0" encoding="UTF-8" standalone="no"?>
<!DOCTYPE svg PUBLIC "-//W3C//DTD SVG 1.1//EN"
 "http://www.w3.org/Graphics/SVG/1.1/DTD/svg11.dtd">
<!-- Generated by graphviz version 2.36.0 (20140111.2315)
 -->
<!-- Title: mavlink_msg_mission_request_list_decode Pages: 1 -->
<svg width="556pt" height="87pt"
 viewBox="0.00 0.00 556.00 87.00" xmlns="http://www.w3.org/2000/svg" xmlns:xlink="http://www.w3.org/1999/xlink">
<g id="graph0" class="graph" transform="scale(1 1) rotate(0) translate(4 83)">
<title>mavlink_msg_mission_request_list_decode</title>
<polygon fill="white" stroke="none" points="-4,4 -4,-83 552,-83 552,4 -4,4"/>
<!-- Node1 -->
<g id="node1" class="node"><title>Node1</title>
<polygon fill="#bfbfbf" stroke="black" points="0.5,-24 0.5,-54 113.5,-54 113.5,-24 0.5,-24"/>
<text text-anchor="start" x="8.5" y="-42" font-family="Helvetica,sans-Serif" font-size="10.00">mavlink_msg_mission</text>
<text text-anchor="middle" x="57" y="-31" font-family="Helvetica,sans-Serif" font-size="10.00">_request_list_decode</text>
</g>
<!-- Node2 -->
<g id="node2" class="node"><title>Node2</title>
<g id="a_node2"><a xlink:href="$classGCS__MAVLINK.html#a8c7b2bf35d8b3e370ba291586ea09b71" xlink:title="GCS_MAVLINK::handle\l_mission_request_list">
<polygon fill="white" stroke="black" points="150,-49 150,-79 272,-79 272,-49 150,-49"/>
<text text-anchor="start" x="158" y="-67" font-family="Helvetica,sans-Serif" font-size="10.00">GCS_MAVLINK::handle</text>
<text text-anchor="middle" x="211" y="-56" font-family="Helvetica,sans-Serif" font-size="10.00">_mission_request_list</text>
</a>
</g>
</g>
<!-- Node1&#45;&gt;Node2 -->
<g id="edge1" class="edge"><title>Node1&#45;&gt;Node2</title>
<path fill="none" stroke="midnightblue" d="M123.812,-49.8243C132.489,-51.2514 141.346,-52.7082 149.92,-54.1185"/>
<polygon fill="midnightblue" stroke="midnightblue" points="124.172,-46.3365 113.736,-48.1671 123.035,-53.2437 124.172,-46.3365"/>
</g>
<!-- Node3 -->
<g id="node3" class="node"><title>Node3</title>
<g id="a_node3"><a xlink:href="$v1_80_2common_2testsuite_8h.html#aeda384ae713c98c942ee8e6003286434" xlink:title="mavlink_test_mission\l_request_list">
<polygon fill="white" stroke="black" points="155.5,-0 155.5,-30 266.5,-30 266.5,-0 155.5,-0"/>
<text text-anchor="start" x="163.5" y="-18" font-family="Helvetica,sans-Serif" font-size="10.00">mavlink_test_mission</text>
<text text-anchor="middle" x="211" y="-7" font-family="Helvetica,sans-Serif" font-size="10.00">_request_list</text>
</a>
</g>
</g>
<!-- Node1&#45;&gt;Node3 -->
<g id="edge2" class="edge"><title>Node1&#45;&gt;Node3</title>
<path fill="none" stroke="midnightblue" d="M123.722,-28.6228C134.251,-26.9603 145.049,-25.2555 155.286,-23.6391"/>
<polygon fill="midnightblue" stroke="midnightblue" points="123.068,-25.1827 113.736,-30.1996 124.16,-32.097 123.068,-25.1827"/>
</g>
<!-- Node4 -->
<g id="node4" class="node"><title>Node4</title>
<g id="a_node4"><a xlink:href="$v1_80_2common_2testsuite_8h.html#af349432601ac003d2c80a69c100c70a4" xlink:title="mavlink_test_common">
<polygon fill="white" stroke="black" points="308.5,-5.5 308.5,-24.5 423.5,-24.5 423.5,-5.5 308.5,-5.5"/>
<text text-anchor="middle" x="366" y="-12.5" font-family="Helvetica,sans-Serif" font-size="10.00">mavlink_test_common</text>
</a>
</g>
</g>
<!-- Node3&#45;&gt;Node4 -->
<g id="edge3" class="edge"><title>Node3&#45;&gt;Node4</title>
<path fill="none" stroke="midnightblue" d="M277.055,-15C287.431,-15 298.093,-15 308.257,-15"/>
<polygon fill="midnightblue" stroke="midnightblue" points="276.804,-11.5001 266.804,-15 276.804,-18.5001 276.804,-11.5001"/>
</g>
<!-- Node5 -->
<g id="node5" class="node"><title>Node5</title>
<g id="a_node5"><a xlink:href="$v1_80_2common_2testsuite_8h.html#a4cc77b6c343679298da5d3c2b4e48759" xlink:title="mavlink_test_all">
<polygon fill="white" stroke="black" points="460.5,-5.5 460.5,-24.5 547.5,-24.5 547.5,-5.5 460.5,-5.5"/>
<text text-anchor="middle" x="504" y="-12.5" font-family="Helvetica,sans-Serif" font-size="10.00">mavlink_test_all</text>
</a>
</g>
</g>
<!-- Node4&#45;&gt;Node5 -->
<g id="edge4" class="edge"><title>Node4&#45;&gt;Node5</title>
<path fill="none" stroke="midnightblue" d="M433.996,-15C442.988,-15 452.003,-15 460.412,-15"/>
<polygon fill="midnightblue" stroke="midnightblue" points="433.888,-11.5001 423.888,-15 433.888,-18.5001 433.888,-11.5001"/>
</g>
</g>
</svg>
