<?xml version="1.0" encoding="UTF-8" standalone="no"?>
<!DOCTYPE svg PUBLIC "-//W3C//DTD SVG 1.1//EN"
 "http://www.w3.org/Graphics/SVG/1.1/DTD/svg11.dtd">
<!-- Generated by graphviz version 2.36.0 (20140111.2315)
 -->
<!-- Title: mavlink_msg_hil_optical_flow_decode Pages: 1 -->
<svg width="336pt" height="587pt"
 viewBox="0.00 0.00 336.00 587.00" xmlns="http://www.w3.org/2000/svg" xmlns:xlink="http://www.w3.org/1999/xlink">
<g id="graph0" class="graph" transform="scale(1 1) rotate(0) translate(4 583)">
<title>mavlink_msg_hil_optical_flow_decode</title>
<polygon fill="white" stroke="none" points="-4,4 -4,-583 332,-583 332,4 -4,4"/>
<!-- Node1 -->
<g id="node1" class="node"><title>Node1</title>
<polygon fill="#bfbfbf" stroke="black" points="0.5,-269 0.5,-299 123.5,-299 123.5,-269 0.5,-269"/>
<text text-anchor="start" x="8.5" y="-287" font-family="Helvetica,sans-Serif" font-size="10.00">mavlink_msg_hil_optical</text>
<text text-anchor="middle" x="62" y="-276" font-family="Helvetica,sans-Serif" font-size="10.00">_flow_decode</text>
</g>
<!-- Node2 -->
<g id="node2" class="node"><title>Node2</title>
<g id="a_node2"><a xlink:href="$mavlink__msg__hil__optical__flow_8h.html#abd282bb5bcd0baba2af94df0d7ee02dc" xlink:title="Send a hil_optical_flow message. ">
<polygon fill="white" stroke="black" points="182.5,-549 182.5,-579 305.5,-579 305.5,-549 182.5,-549"/>
<text text-anchor="start" x="190.5" y="-567" font-family="Helvetica,sans-Serif" font-size="10.00">mavlink_msg_hil_optical</text>
<text text-anchor="middle" x="244" y="-556" font-family="Helvetica,sans-Serif" font-size="10.00">_flow_get_time_usec</text>
</a>
</g>
</g>
<!-- Node1&#45;&gt;Node2 -->
<g id="edge1" class="edge"><title>Node1&#45;&gt;Node2</title>
<path fill="none" stroke="midnightblue" d="M64.2201,-299.174C68.5708,-343.043 87.2161,-471.204 160,-539 163.892,-542.625 168.291,-545.726 172.984,-548.378"/>
<polygon fill="midnightblue" stroke="midnightblue" points="171.792,-551.692 182.313,-552.945 174.87,-545.405 171.792,-551.692"/>
</g>
<!-- Node3 -->
<g id="node3" class="node"><title>Node3</title>
<g id="a_node3"><a xlink:href="$mavlink__msg__hil__optical__flow_8h.html#a459ff309986a46b0a9439a52163dc921" xlink:title="Get field integration_time_us from hil_optical_flow message. ">
<polygon fill="white" stroke="black" points="182.5,-489.5 182.5,-530.5 305.5,-530.5 305.5,-489.5 182.5,-489.5"/>
<text text-anchor="start" x="190.5" y="-518.5" font-family="Helvetica,sans-Serif" font-size="10.00">mavlink_msg_hil_optical</text>
<text text-anchor="start" x="190.5" y="-507.5" font-family="Helvetica,sans-Serif" font-size="10.00">_flow_get_integration</text>
<text text-anchor="middle" x="244" y="-496.5" font-family="Helvetica,sans-Serif" font-size="10.00">_time_us</text>
</a>
</g>
</g>
<!-- Node1&#45;&gt;Node3 -->
<g id="edge2" class="edge"><title>Node1&#45;&gt;Node3</title>
<path fill="none" stroke="midnightblue" d="M66.3599,-299.122C75.2053,-335.496 102.518,-428.658 160,-480 164.071,-483.636 168.616,-486.841 173.425,-489.665"/>
<polygon fill="midnightblue" stroke="midnightblue" points="171.841,-492.786 182.32,-494.346 175.101,-486.592 171.841,-492.786"/>
</g>
<!-- Node4 -->
<g id="node4" class="node"><title>Node4</title>
<g id="a_node4"><a xlink:href="$mavlink__msg__hil__optical__flow_8h.html#a01b622381beade9ef2a643477cc0ba5c" xlink:title="Get field integrated_x from hil_optical_flow message. ">
<polygon fill="white" stroke="black" points="182.5,-441 182.5,-471 305.5,-471 305.5,-441 182.5,-441"/>
<text text-anchor="start" x="190.5" y="-459" font-family="Helvetica,sans-Serif" font-size="10.00">mavlink_msg_hil_optical</text>
<text text-anchor="middle" x="244" y="-448" font-family="Helvetica,sans-Serif" font-size="10.00">_flow_get_integrated_x</text>
</a>
</g>
</g>
<!-- Node1&#45;&gt;Node4 -->
<g id="edge3" class="edge"><title>Node1&#45;&gt;Node4</title>
<path fill="none" stroke="midnightblue" d="M68.9408,-299.457C81.2496,-329.421 112.423,-395.574 160,-431 163.942,-433.935 168.229,-436.528 172.708,-438.819"/>
<polygon fill="midnightblue" stroke="midnightblue" points="171.574,-442.148 182.125,-443.108 174.475,-435.778 171.574,-442.148"/>
</g>
<!-- Node5 -->
<g id="node5" class="node"><title>Node5</title>
<g id="a_node5"><a xlink:href="$mavlink__msg__hil__optical__flow_8h.html#a8f78323e3bfdf73e153851f50a359a94" xlink:title="Get field integrated_y from hil_optical_flow message. ">
<polygon fill="white" stroke="black" points="182.5,-392 182.5,-422 305.5,-422 305.5,-392 182.5,-392"/>
<text text-anchor="start" x="190.5" y="-410" font-family="Helvetica,sans-Serif" font-size="10.00">mavlink_msg_hil_optical</text>
<text text-anchor="middle" x="244" y="-399" font-family="Helvetica,sans-Serif" font-size="10.00">_flow_get_integrated_y</text>
</a>
</g>
</g>
<!-- Node1&#45;&gt;Node5 -->
<g id="edge4" class="edge"><title>Node1&#45;&gt;Node5</title>
<path fill="none" stroke="midnightblue" d="M74.0817,-299.27C90.4872,-320.8 123.281,-359.912 160,-382 164.058,-384.441 168.373,-386.66 172.82,-388.674"/>
<polygon fill="midnightblue" stroke="midnightblue" points="171.515,-391.922 182.093,-392.527 174.201,-385.458 171.515,-391.922"/>
</g>
<!-- Node6 -->
<g id="node6" class="node"><title>Node6</title>
<g id="a_node6"><a xlink:href="$mavlink__msg__hil__optical__flow_8h.html#af22d0ee9a84b24c2e6a736c7c3f6d0f5" xlink:title="Get field integrated_xgyro from hil_optical_flow message. ">
<polygon fill="white" stroke="black" points="176,-343 176,-373 312,-373 312,-343 176,-343"/>
<text text-anchor="start" x="184" y="-361" font-family="Helvetica,sans-Serif" font-size="10.00">mavlink_msg_hil_optical</text>
<text text-anchor="middle" x="244" y="-350" font-family="Helvetica,sans-Serif" font-size="10.00">_flow_get_integrated_xgyro</text>
</a>
</g>
</g>
<!-- Node1&#45;&gt;Node6 -->
<g id="edge5" class="edge"><title>Node1&#45;&gt;Node6</title>
<path fill="none" stroke="midnightblue" d="M89.5913,-299.027C108.762,-309.463 135.472,-323.199 160,-333 165.869,-335.345 172.047,-337.594 178.274,-339.715"/>
<polygon fill="midnightblue" stroke="midnightblue" points="177.468,-343.134 188.061,-342.937 179.658,-336.486 177.468,-343.134"/>
</g>
<!-- Node7 -->
<g id="node7" class="node"><title>Node7</title>
<g id="a_node7"><a xlink:href="$mavlink__msg__hil__optical__flow_8h.html#a3046c7a6f8310e4a436793b70fe81145" xlink:title="Get field integrated_ygyro from hil_optical_flow message. ">
<polygon fill="white" stroke="black" points="176,-294 176,-324 312,-324 312,-294 176,-294"/>
<text text-anchor="start" x="184" y="-312" font-family="Helvetica,sans-Serif" font-size="10.00">mavlink_msg_hil_optical</text>
<text text-anchor="middle" x="244" y="-301" font-family="Helvetica,sans-Serif" font-size="10.00">_flow_get_integrated_ygyro</text>
</a>
</g>
</g>
<!-- Node1&#45;&gt;Node7 -->
<g id="edge6" class="edge"><title>Node1&#45;&gt;Node7</title>
<path fill="none" stroke="midnightblue" d="M123.689,-292.429C137.158,-294.3 151.61,-296.307 165.644,-298.256"/>
<polygon fill="midnightblue" stroke="midnightblue" points="165.382,-301.753 175.769,-299.662 166.345,-294.82 165.382,-301.753"/>
</g>
<!-- Node8 -->
<g id="node8" class="node"><title>Node8</title>
<g id="a_node8"><a xlink:href="$mavlink__msg__hil__optical__flow_8h.html#accd3033b1f0dc63335d07ff856315877" xlink:title="Get field integrated_zgyro from hil_optical_flow message. ">
<polygon fill="white" stroke="black" points="176,-245 176,-275 312,-275 312,-245 176,-245"/>
<text text-anchor="start" x="184" y="-263" font-family="Helvetica,sans-Serif" font-size="10.00">mavlink_msg_hil_optical</text>
<text text-anchor="middle" x="244" y="-252" font-family="Helvetica,sans-Serif" font-size="10.00">_flow_get_integrated_zgyro</text>
</a>
</g>
</g>
<!-- Node1&#45;&gt;Node8 -->
<g id="edge7" class="edge"><title>Node1&#45;&gt;Node8</title>
<path fill="none" stroke="midnightblue" d="M123.689,-275.908C137.158,-274.112 151.61,-272.185 165.644,-270.314"/>
<polygon fill="midnightblue" stroke="midnightblue" points="166.319,-273.755 175.769,-268.964 165.394,-266.817 166.319,-273.755"/>
</g>
<!-- Node9 -->
<g id="node9" class="node"><title>Node9</title>
<g id="a_node9"><a xlink:href="$mavlink__msg__hil__optical__flow_8h.html#aaa82f0fa69a8f55ea97b4322e0880adc" xlink:title="Get field time_delta_distance_us from hil_optical_flow message. ">
<polygon fill="white" stroke="black" points="160.5,-196 160.5,-226 327.5,-226 327.5,-196 160.5,-196"/>
<text text-anchor="start" x="168.5" y="-214" font-family="Helvetica,sans-Serif" font-size="10.00">mavlink_msg_hil_optical</text>
<text text-anchor="middle" x="244" y="-203" font-family="Helvetica,sans-Serif" font-size="10.00">_flow_get_time_delta_distance_us</text>
</a>
</g>
</g>
<!-- Node1&#45;&gt;Node9 -->
<g id="edge8" class="edge"><title>Node1&#45;&gt;Node9</title>
<path fill="none" stroke="midnightblue" d="M90.4557,-268.876C109.58,-258.727 135.882,-245.522 160,-236 165.879,-233.679 172.063,-231.446 178.294,-229.336"/>
<polygon fill="midnightblue" stroke="midnightblue" points="179.675,-232.567 188.086,-226.125 177.493,-225.915 179.675,-232.567"/>
</g>
<!-- Node10 -->
<g id="node10" class="node"><title>Node10</title>
<g id="a_node10"><a xlink:href="$mavlink__msg__hil__optical__flow_8h.html#a94fd34a186d254fd9fda39adf4ca4dcb" xlink:title="Get field distance from hil_optical_flow message. ">
<polygon fill="white" stroke="black" points="182.5,-147 182.5,-177 305.5,-177 305.5,-147 182.5,-147"/>
<text text-anchor="start" x="190.5" y="-165" font-family="Helvetica,sans-Serif" font-size="10.00">mavlink_msg_hil_optical</text>
<text text-anchor="middle" x="244" y="-154" font-family="Helvetica,sans-Serif" font-size="10.00">_flow_get_distance</text>
</a>
</g>
</g>
<!-- Node1&#45;&gt;Node10 -->
<g id="edge9" class="edge"><title>Node1&#45;&gt;Node10</title>
<path fill="none" stroke="midnightblue" d="M74.1177,-268.891C90.5669,-247.586 123.413,-208.88 160,-187 164.064,-184.569 168.384,-182.358 172.834,-180.35"/>
<polygon fill="midnightblue" stroke="midnightblue" points="174.213,-183.567 182.113,-176.506 171.534,-177.1 174.213,-183.567"/>
</g>
<!-- Node11 -->
<g id="node11" class="node"><title>Node11</title>
<g id="a_node11"><a xlink:href="$mavlink__msg__hil__optical__flow_8h.html#af5cafbc2ca20d142de9636306dc110d1" xlink:title="Get field temperature from hil_optical_flow message. ">
<polygon fill="white" stroke="black" points="182.5,-98 182.5,-128 305.5,-128 305.5,-98 182.5,-98"/>
<text text-anchor="start" x="190.5" y="-116" font-family="Helvetica,sans-Serif" font-size="10.00">mavlink_msg_hil_optical</text>
<text text-anchor="middle" x="244" y="-105" font-family="Helvetica,sans-Serif" font-size="10.00">_flow_get_temperature</text>
</a>
</g>
</g>
<!-- Node1&#45;&gt;Node11 -->
<g id="edge10" class="edge"><title>Node1&#45;&gt;Node11</title>
<path fill="none" stroke="midnightblue" d="M68.9707,-268.648C81.3319,-238.887 112.593,-173.184 160,-138 163.946,-135.071 168.237,-132.483 172.719,-130.195"/>
<polygon fill="midnightblue" stroke="midnightblue" points="174.485,-133.237 182.139,-125.911 171.588,-126.865 174.485,-133.237"/>
</g>
<!-- Node12 -->
<g id="node12" class="node"><title>Node12</title>
<g id="a_node12"><a xlink:href="$mavlink__msg__hil__optical__flow_8h.html#abe2c2f7c5b40028af9832f3229164254" xlink:title="Get field sensor_id from hil_optical_flow message. ">
<polygon fill="white" stroke="black" points="182.5,-49 182.5,-79 305.5,-79 305.5,-49 182.5,-49"/>
<text text-anchor="start" x="190.5" y="-67" font-family="Helvetica,sans-Serif" font-size="10.00">mavlink_msg_hil_optical</text>
<text text-anchor="middle" x="244" y="-56" font-family="Helvetica,sans-Serif" font-size="10.00">_flow_get_sensor_id</text>
</a>
</g>
</g>
<!-- Node1&#45;&gt;Node12 -->
<g id="edge11" class="edge"><title>Node1&#45;&gt;Node12</title>
<path fill="none" stroke="midnightblue" d="M66.208,-268.752C74.7161,-232.112 101.337,-138.5 160,-89 163.995,-85.629 168.434,-82.7125 173.123,-80.1893"/>
<polygon fill="midnightblue" stroke="midnightblue" points="174.852,-83.2435 182.397,-75.8055 171.86,-76.9149 174.852,-83.2435"/>
</g>
<!-- Node13 -->
<g id="node13" class="node"><title>Node13</title>
<g id="a_node13"><a xlink:href="$mavlink__msg__hil__optical__flow_8h.html#a2131af9d9d046675761dec63e6afac7f" xlink:title="Get field quality from hil_optical_flow message. ">
<polygon fill="white" stroke="black" points="182.5,-0 182.5,-30 305.5,-30 305.5,-0 182.5,-0"/>
<text text-anchor="start" x="190.5" y="-18" font-family="Helvetica,sans-Serif" font-size="10.00">mavlink_msg_hil_optical</text>
<text text-anchor="middle" x="244" y="-7" font-family="Helvetica,sans-Serif" font-size="10.00">_flow_get_quality</text>
</a>
</g>
</g>
<!-- Node1&#45;&gt;Node13 -->
<g id="edge12" class="edge"><title>Node1&#45;&gt;Node13</title>
<path fill="none" stroke="midnightblue" d="M64.5098,-268.86C69.5722,-226.284 89.803,-104.417 160,-40 163.919,-36.4037 168.338,-33.324 173.044,-30.6866"/>
<polygon fill="midnightblue" stroke="midnightblue" points="174.93,-33.6615 182.392,-26.1407 171.868,-27.3664 174.93,-33.6615"/>
</g>
</g>
</svg>
