<?xml version="1.0" encoding="UTF-8" standalone="no"?>
<!DOCTYPE svg PUBLIC "-//W3C//DTD SVG 1.1//EN"
 "http://www.w3.org/Graphics/SVG/1.1/DTD/svg11.dtd">
<!-- Generated by graphviz version 2.36.0 (20140111.2315)
 -->
<!-- Title: mavlink_msg_data_stream_pack Pages: 1 -->
<svg width="782pt" height="55pt"
 viewBox="0.00 0.00 782.00 55.00" xmlns="http://www.w3.org/2000/svg" xmlns:xlink="http://www.w3.org/1999/xlink">
<g id="graph0" class="graph" transform="scale(1 1) rotate(0) translate(4 51)">
<title>mavlink_msg_data_stream_pack</title>
<polygon fill="white" stroke="none" points="-4,4 -4,-51 778,-51 778,4 -4,4"/>
<!-- Node1 -->
<g id="node1" class="node"><title>Node1</title>
<polygon fill="#bfbfbf" stroke="black" points="0,-0.5 0,-19.5 160,-19.5 160,-0.5 0,-0.5"/>
<text text-anchor="middle" x="80" y="-7.5" font-family="Helvetica,sans-Serif" font-size="10.00">mavlink_msg_data_stream_pack</text>
</g>
<!-- Node2 -->
<g id="node2" class="node"><title>Node2</title>
<g id="a_node2"><a xlink:href="$mavlink__msg__data__stream_8h.html#a12ad1fd4fafe9eb8f4427d6a00d24914" xlink:title="Encode a data_stream struct. ">
<polygon fill="white" stroke="black" points="196,-17 196,-47 330,-47 330,-17 196,-17"/>
<text text-anchor="start" x="204" y="-35" font-family="Helvetica,sans-Serif" font-size="10.00">mavlink_msg_data_stream</text>
<text text-anchor="middle" x="263" y="-24" font-family="Helvetica,sans-Serif" font-size="10.00">_encode</text>
</a>
</g>
</g>
<!-- Node1&#45;&gt;Node2 -->
<g id="edge1" class="edge"><title>Node1&#45;&gt;Node2</title>
<path fill="none" stroke="midnightblue" d="M169.338,-20.7373C178.224,-21.8173 187.137,-22.9006 195.735,-23.9457"/>
<polygon fill="midnightblue" stroke="midnightblue" points="169.686,-17.2538 159.337,-19.5216 168.841,-24.2027 169.686,-17.2538"/>
</g>
<!-- Node3 -->
<g id="node3" class="node"><title>Node3</title>
<g id="a_node3"><a xlink:href="$v1_80_2common_2testsuite_8h.html#a4480c6d9a3f701561f4ad1b1ea267b5a" xlink:title="mavlink_test_data_stream">
<polygon fill="white" stroke="black" points="366.5,-0.5 366.5,-19.5 497.5,-19.5 497.5,-0.5 366.5,-0.5"/>
<text text-anchor="middle" x="432" y="-7.5" font-family="Helvetica,sans-Serif" font-size="10.00">mavlink_test_data_stream</text>
</a>
</g>
</g>
<!-- Node1&#45;&gt;Node3 -->
<g id="edge5" class="edge"><title>Node1&#45;&gt;Node3</title>
<path fill="none" stroke="midnightblue" d="M170.343,-8.294C179.014,-8.17422 187.676,-8.07238 196,-8 255.553,-7.48218 270.447,-7.41043 330,-8 341.75,-8.11633 354.268,-8.30875 366.347,-8.52949"/>
<polygon fill="midnightblue" stroke="midnightblue" points="170.13,-4.79665 160.182,-8.44218 170.232,-11.7959 170.13,-4.79665"/>
</g>
<!-- Node2&#45;&gt;Node3 -->
<g id="edge2" class="edge"><title>Node2&#45;&gt;Node3</title>
<path fill="none" stroke="midnightblue" d="M340.176,-21.9649C348.903,-20.8152 357.738,-19.6513 366.295,-18.524"/>
<polygon fill="midnightblue" stroke="midnightblue" points="339.46,-18.5288 330.003,-23.305 340.374,-25.4689 339.46,-18.5288"/>
</g>
<!-- Node4 -->
<g id="node4" class="node"><title>Node4</title>
<g id="a_node4"><a xlink:href="$v1_80_2common_2testsuite_8h.html#af349432601ac003d2c80a69c100c70a4" xlink:title="mavlink_test_common">
<polygon fill="white" stroke="black" points="534.5,-0.5 534.5,-19.5 649.5,-19.5 649.5,-0.5 534.5,-0.5"/>
<text text-anchor="middle" x="592" y="-7.5" font-family="Helvetica,sans-Serif" font-size="10.00">mavlink_test_common</text>
</a>
</g>
</g>
<!-- Node3&#45;&gt;Node4 -->
<g id="edge3" class="edge"><title>Node3&#45;&gt;Node4</title>
<path fill="none" stroke="midnightblue" d="M507.798,-10C516.773,-10 525.82,-10 534.475,-10"/>
<polygon fill="midnightblue" stroke="midnightblue" points="507.721,-6.5001 497.721,-10 507.72,-13.5001 507.721,-6.5001"/>
</g>
<!-- Node5 -->
<g id="node5" class="node"><title>Node5</title>
<g id="a_node5"><a xlink:href="$v1_80_2common_2testsuite_8h.html#a4cc77b6c343679298da5d3c2b4e48759" xlink:title="mavlink_test_all">
<polygon fill="white" stroke="black" points="686.5,-0.5 686.5,-19.5 773.5,-19.5 773.5,-0.5 686.5,-0.5"/>
<text text-anchor="middle" x="730" y="-7.5" font-family="Helvetica,sans-Serif" font-size="10.00">mavlink_test_all</text>
</a>
</g>
</g>
<!-- Node4&#45;&gt;Node5 -->
<g id="edge4" class="edge"><title>Node4&#45;&gt;Node5</title>
<path fill="none" stroke="midnightblue" d="M659.996,-10C668.988,-10 678.003,-10 686.412,-10"/>
<polygon fill="midnightblue" stroke="midnightblue" points="659.888,-6.5001 649.888,-10 659.888,-13.5001 659.888,-6.5001"/>
</g>
</g>
</svg>
