<?xml version="1.0" encoding="UTF-8" standalone="no"?>
<!DOCTYPE svg PUBLIC "-//W3C//DTD SVG 1.1//EN"
 "http://www.w3.org/Graphics/SVG/1.1/DTD/svg11.dtd">
<!-- Generated by graphviz version 2.36.0 (20140111.2315)
 -->
<!-- Title: mavlink_msg_control_status_decode Pages: 1 -->
<svg width="538pt" height="38pt"
 viewBox="0.00 0.00 538.00 38.00" xmlns="http://www.w3.org/2000/svg" xmlns:xlink="http://www.w3.org/1999/xlink">
<g id="graph0" class="graph" transform="scale(1 1) rotate(0) translate(4 34)">
<title>mavlink_msg_control_status_decode</title>
<polygon fill="white" stroke="none" points="-4,4 -4,-34 534,-34 534,4 -4,4"/>
<!-- Node1 -->
<g id="node1" class="node"><title>Node1</title>
<polygon fill="#bfbfbf" stroke="black" points="0.5,-0 0.5,-30 109.5,-30 109.5,-0 0.5,-0"/>
<text text-anchor="start" x="8.5" y="-18" font-family="Helvetica,sans-Serif" font-size="10.00">mavlink_msg_control</text>
<text text-anchor="middle" x="55" y="-7" font-family="Helvetica,sans-Serif" font-size="10.00">_status_decode</text>
</g>
<!-- Node2 -->
<g id="node2" class="node"><title>Node2</title>
<g id="a_node2"><a xlink:href="$v0_89_2common_2testsuite_8h.html#ae48f551aba66e44e3c534a2adc787ccd" xlink:title="mavlink_test_control\l_status">
<polygon fill="white" stroke="black" points="146.5,-0 146.5,-30 253.5,-30 253.5,-0 146.5,-0"/>
<text text-anchor="start" x="154.5" y="-18" font-family="Helvetica,sans-Serif" font-size="10.00">mavlink_test_control</text>
<text text-anchor="middle" x="200" y="-7" font-family="Helvetica,sans-Serif" font-size="10.00">_status</text>
</a>
</g>
</g>
<!-- Node1&#45;&gt;Node2 -->
<g id="edge1" class="edge"><title>Node1&#45;&gt;Node2</title>
<path fill="none" stroke="midnightblue" d="M119.668,-15C128.626,-15 137.75,-15 146.469,-15"/>
<polygon fill="midnightblue" stroke="midnightblue" points="119.655,-11.5001 109.655,-15 119.655,-18.5001 119.655,-11.5001"/>
</g>
<!-- Node3 -->
<g id="node3" class="node"><title>Node3</title>
<g id="a_node3"><a xlink:href="$v0_89_2common_2testsuite_8h.html#af349432601ac003d2c80a69c100c70a4" xlink:title="mavlink_test_common">
<polygon fill="white" stroke="black" points="290.5,-5.5 290.5,-24.5 405.5,-24.5 405.5,-5.5 290.5,-5.5"/>
<text text-anchor="middle" x="348" y="-12.5" font-family="Helvetica,sans-Serif" font-size="10.00">mavlink_test_common</text>
</a>
</g>
</g>
<!-- Node2&#45;&gt;Node3 -->
<g id="edge2" class="edge"><title>Node2&#45;&gt;Node3</title>
<path fill="none" stroke="midnightblue" d="M263.926,-15C272.734,-15 281.741,-15 290.422,-15"/>
<polygon fill="midnightblue" stroke="midnightblue" points="263.709,-11.5001 253.709,-15 263.709,-18.5001 263.709,-11.5001"/>
</g>
<!-- Node4 -->
<g id="node4" class="node"><title>Node4</title>
<g id="a_node4"><a xlink:href="$v0_89_2common_2testsuite_8h.html#a4cc77b6c343679298da5d3c2b4e48759" xlink:title="mavlink_test_all">
<polygon fill="white" stroke="black" points="442.5,-5.5 442.5,-24.5 529.5,-24.5 529.5,-5.5 442.5,-5.5"/>
<text text-anchor="middle" x="486" y="-12.5" font-family="Helvetica,sans-Serif" font-size="10.00">mavlink_test_all</text>
</a>
</g>
</g>
<!-- Node3&#45;&gt;Node4 -->
<g id="edge3" class="edge"><title>Node3&#45;&gt;Node4</title>
<path fill="none" stroke="midnightblue" d="M415.996,-15C424.988,-15 434.003,-15 442.412,-15"/>
<polygon fill="midnightblue" stroke="midnightblue" points="415.888,-11.5001 405.888,-15 415.888,-18.5001 415.888,-11.5001"/>
</g>
</g>
</svg>
