<?xml version="1.0" encoding="UTF-8" standalone="no"?>
<!DOCTYPE svg PUBLIC "-//W3C//DTD SVG 1.1//EN"
 "http://www.w3.org/Graphics/SVG/1.1/DTD/svg11.dtd">
<!-- Generated by graphviz version 2.36.0 (20140111.2315)
 -->
<!-- Title: mavlink_msg_set_position_target_global_int_get_yaw Pages: 1 -->
<svg width="754pt" height="38pt"
 viewBox="0.00 0.00 754.00 38.00" xmlns="http://www.w3.org/2000/svg" xmlns:xlink="http://www.w3.org/1999/xlink">
<g id="graph0" class="graph" transform="scale(1 1) rotate(0) translate(4 34)">
<title>mavlink_msg_set_position_target_global_int_get_yaw</title>
<polygon fill="white" stroke="none" points="-4,4 -4,-34 750,-34 750,4 -4,4"/>
<!-- Node1 -->
<g id="node1" class="node"><title>Node1</title>
<polygon fill="#bfbfbf" stroke="black" points="0.5,-0 0.5,-30 135.5,-30 135.5,-0 0.5,-0"/>
<text text-anchor="start" x="8.5" y="-18" font-family="Helvetica,sans-Serif" font-size="10.00">mavlink_msg_set_position</text>
<text text-anchor="middle" x="68" y="-7" font-family="Helvetica,sans-Serif" font-size="10.00">_target_global_int_get_yaw</text>
</g>
<!-- Node2 -->
<g id="node2" class="node"><title>Node2</title>
<g id="a_node2"><a xlink:href="$mavlink__msg__set__position__target__global__int_8h.html#a2a84e5f08e0870109173fabe8fab2f8f" xlink:title="Decode a set_position_target_global_int message into a struct. ">
<polygon fill="white" stroke="black" points="172,-0 172,-30 304,-30 304,-0 172,-0"/>
<text text-anchor="start" x="180" y="-18" font-family="Helvetica,sans-Serif" font-size="10.00">mavlink_msg_set_position</text>
<text text-anchor="middle" x="238" y="-7" font-family="Helvetica,sans-Serif" font-size="10.00">_target_global_int_decode</text>
</a>
</g>
</g>
<!-- Node1&#45;&gt;Node2 -->
<g id="edge1" class="edge"><title>Node1&#45;&gt;Node2</title>
<path fill="none" stroke="midnightblue" d="M146.009,-15C154.694,-15 163.481,-15 171.992,-15"/>
<polygon fill="midnightblue" stroke="midnightblue" points="145.881,-11.5001 135.881,-15 145.881,-18.5001 145.881,-11.5001"/>
</g>
<!-- Node3 -->
<g id="node3" class="node"><title>Node3</title>
<g id="a_node3"><a xlink:href="$v1_80_2common_2testsuite_8h.html#aa76ba07ce729ea25a88f7204b5358e83" xlink:title="mavlink_test_set_position\l_target_global_int">
<polygon fill="white" stroke="black" points="340,-0 340,-30 470,-30 470,-0 340,-0"/>
<text text-anchor="start" x="348" y="-18" font-family="Helvetica,sans-Serif" font-size="10.00">mavlink_test_set_position</text>
<text text-anchor="middle" x="405" y="-7" font-family="Helvetica,sans-Serif" font-size="10.00">_target_global_int</text>
</a>
</g>
</g>
<!-- Node2&#45;&gt;Node3 -->
<g id="edge2" class="edge"><title>Node2&#45;&gt;Node3</title>
<path fill="none" stroke="midnightblue" d="M314.465,-15C322.931,-15 331.496,-15 339.801,-15"/>
<polygon fill="midnightblue" stroke="midnightblue" points="314.212,-11.5001 304.212,-15 314.212,-18.5001 314.212,-11.5001"/>
</g>
<!-- Node4 -->
<g id="node4" class="node"><title>Node4</title>
<g id="a_node4"><a xlink:href="$v1_80_2common_2testsuite_8h.html#af349432601ac003d2c80a69c100c70a4" xlink:title="mavlink_test_common">
<polygon fill="white" stroke="black" points="506.5,-5.5 506.5,-24.5 621.5,-24.5 621.5,-5.5 506.5,-5.5"/>
<text text-anchor="middle" x="564" y="-12.5" font-family="Helvetica,sans-Serif" font-size="10.00">mavlink_test_common</text>
</a>
</g>
</g>
<!-- Node3&#45;&gt;Node4 -->
<g id="edge3" class="edge"><title>Node3&#45;&gt;Node4</title>
<path fill="none" stroke="midnightblue" d="M480.395,-15C489.032,-15 497.736,-15 506.087,-15"/>
<polygon fill="midnightblue" stroke="midnightblue" points="480.311,-11.5001 470.311,-15 480.311,-18.5001 480.311,-11.5001"/>
</g>
<!-- Node5 -->
<g id="node5" class="node"><title>Node5</title>
<g id="a_node5"><a xlink:href="$v1_80_2common_2testsuite_8h.html#a4cc77b6c343679298da5d3c2b4e48759" xlink:title="mavlink_test_all">
<polygon fill="white" stroke="black" points="658.5,-5.5 658.5,-24.5 745.5,-24.5 745.5,-5.5 658.5,-5.5"/>
<text text-anchor="middle" x="702" y="-12.5" font-family="Helvetica,sans-Serif" font-size="10.00">mavlink_test_all</text>
</a>
</g>
</g>
<!-- Node4&#45;&gt;Node5 -->
<g id="edge4" class="edge"><title>Node4&#45;&gt;Node5</title>
<path fill="none" stroke="midnightblue" d="M631.996,-15C640.988,-15 650.003,-15 658.412,-15"/>
<polygon fill="midnightblue" stroke="midnightblue" points="631.888,-11.5001 621.888,-15 631.888,-18.5001 631.888,-11.5001"/>
</g>
</g>
</svg>
