<?xml version="1.0" encoding="UTF-8" standalone="no"?>
<!DOCTYPE svg PUBLIC "-//W3C//DTD SVG 1.1//EN"
 "http://www.w3.org/Graphics/SVG/1.1/DTD/svg11.dtd">
<!-- Generated by graphviz version 2.36.0 (20140111.2315)
 -->
<!-- Title: mavlink_msg_vision_position_estimate_pack_chan Pages: 1 -->
<svg width="634pt" height="87pt"
 viewBox="0.00 0.00 634.00 87.00" xmlns="http://www.w3.org/2000/svg" xmlns:xlink="http://www.w3.org/1999/xlink">
<g id="graph0" class="graph" transform="scale(1 1) rotate(0) translate(4 83)">
<title>mavlink_msg_vision_position_estimate_pack_chan</title>
<polygon fill="white" stroke="none" points="-4,4 -4,-83 630,-83 630,4 -4,4"/>
<!-- Node1 -->
<g id="node1" class="node"><title>Node1</title>
<polygon fill="#bfbfbf" stroke="black" points="0.5,-24 0.5,-54 151.5,-54 151.5,-24 0.5,-24"/>
<text text-anchor="start" x="8.5" y="-42" font-family="Helvetica,sans-Serif" font-size="10.00">mavlink_msg_vision</text>
<text text-anchor="middle" x="76" y="-31" font-family="Helvetica,sans-Serif" font-size="10.00">_position_estimate_pack_chan</text>
</g>
<!-- Node2 -->
<g id="node2" class="node"><title>Node2</title>
<g id="a_node2"><a xlink:href="$mavlink__msg__vision__position__estimate_8h.html#aeba7e87b7ace780f482adf94219b00b8" xlink:title="Encode a vision_position_estimate struct on a channel. ">
<polygon fill="white" stroke="black" points="188.5,-49 188.5,-79 349.5,-79 349.5,-49 188.5,-49"/>
<text text-anchor="start" x="196.5" y="-67" font-family="Helvetica,sans-Serif" font-size="10.00">mavlink_msg_vision</text>
<text text-anchor="middle" x="269" y="-56" font-family="Helvetica,sans-Serif" font-size="10.00">_position_estimate_encode_chan</text>
</a>
</g>
</g>
<!-- Node1&#45;&gt;Node2 -->
<g id="edge1" class="edge"><title>Node1&#45;&gt;Node2</title>
<path fill="none" stroke="midnightblue" d="M161.624,-50.0764C170.506,-51.239 179.515,-52.4183 188.339,-53.5732"/>
<polygon fill="midnightblue" stroke="midnightblue" points="162.036,-46.6006 151.666,-48.7731 161.127,-53.5414 162.036,-46.6006"/>
</g>
<!-- Node3 -->
<g id="node3" class="node"><title>Node3</title>
<g id="a_node3"><a xlink:href="$v1_80_2common_2testsuite_8h.html#a5d0ceef8c79b3ec00de383dc42865d8d" xlink:title="mavlink_test_vision\l_position_estimate">
<polygon fill="white" stroke="black" points="217.5,-0 217.5,-30 320.5,-30 320.5,-0 217.5,-0"/>
<text text-anchor="start" x="225.5" y="-18" font-family="Helvetica,sans-Serif" font-size="10.00">mavlink_test_vision</text>
<text text-anchor="middle" x="269" y="-7" font-family="Helvetica,sans-Serif" font-size="10.00">_position_estimate</text>
</a>
</g>
</g>
<!-- Node1&#45;&gt;Node3 -->
<g id="edge2" class="edge"><title>Node1&#45;&gt;Node3</title>
<path fill="none" stroke="midnightblue" d="M161.798,-28.3447C180.725,-25.9665 200.219,-23.517 217.257,-21.376"/>
<polygon fill="midnightblue" stroke="midnightblue" points="161.152,-24.8983 151.666,-29.6179 162.025,-31.8437 161.152,-24.8983"/>
</g>
<!-- Node4 -->
<g id="node4" class="node"><title>Node4</title>
<g id="a_node4"><a xlink:href="$v1_80_2common_2testsuite_8h.html#af349432601ac003d2c80a69c100c70a4" xlink:title="mavlink_test_common">
<polygon fill="white" stroke="black" points="386.5,-5.5 386.5,-24.5 501.5,-24.5 501.5,-5.5 386.5,-5.5"/>
<text text-anchor="middle" x="444" y="-12.5" font-family="Helvetica,sans-Serif" font-size="10.00">mavlink_test_common</text>
</a>
</g>
</g>
<!-- Node3&#45;&gt;Node4 -->
<g id="edge3" class="edge"><title>Node3&#45;&gt;Node4</title>
<path fill="none" stroke="midnightblue" d="M330.654,-15C348.758,-15 368.524,-15 386.36,-15"/>
<polygon fill="midnightblue" stroke="midnightblue" points="330.504,-11.5001 320.504,-15 330.504,-18.5001 330.504,-11.5001"/>
</g>
<!-- Node5 -->
<g id="node5" class="node"><title>Node5</title>
<g id="a_node5"><a xlink:href="$v1_80_2common_2testsuite_8h.html#a4cc77b6c343679298da5d3c2b4e48759" xlink:title="mavlink_test_all">
<polygon fill="white" stroke="black" points="538.5,-5.5 538.5,-24.5 625.5,-24.5 625.5,-5.5 538.5,-5.5"/>
<text text-anchor="middle" x="582" y="-12.5" font-family="Helvetica,sans-Serif" font-size="10.00">mavlink_test_all</text>
</a>
</g>
</g>
<!-- Node4&#45;&gt;Node5 -->
<g id="edge4" class="edge"><title>Node4&#45;&gt;Node5</title>
<path fill="none" stroke="midnightblue" d="M511.996,-15C520.988,-15 530.003,-15 538.412,-15"/>
<polygon fill="midnightblue" stroke="midnightblue" points="511.888,-11.5001 501.888,-15 511.888,-18.5001 511.888,-11.5001"/>
</g>
</g>
</svg>
