<?xml version="1.0" encoding="UTF-8" standalone="no"?>
<!DOCTYPE svg PUBLIC "-//W3C//DTD SVG 1.1//EN"
 "http://www.w3.org/Graphics/SVG/1.1/DTD/svg11.dtd">
<!-- Generated by graphviz version 2.36.0 (20140111.2315)
 -->
<!-- Title: mavlink_msg_terrain_request_get_grid_spacing Pages: 1 -->
<svg width="702pt" height="38pt"
 viewBox="0.00 0.00 702.00 38.00" xmlns="http://www.w3.org/2000/svg" xmlns:xlink="http://www.w3.org/1999/xlink">
<g id="graph0" class="graph" transform="scale(1 1) rotate(0) translate(4 34)">
<title>mavlink_msg_terrain_request_get_grid_spacing</title>
<polygon fill="white" stroke="none" points="-4,4 -4,-34 698,-34 698,4 -4,4"/>
<!-- Node1 -->
<g id="node1" class="node"><title>Node1</title>
<polygon fill="#bfbfbf" stroke="black" points="0.5,-0 0.5,-30 133.5,-30 133.5,-0 0.5,-0"/>
<text text-anchor="start" x="8.5" y="-18" font-family="Helvetica,sans-Serif" font-size="10.00">mavlink_msg_terrain</text>
<text text-anchor="middle" x="67" y="-7" font-family="Helvetica,sans-Serif" font-size="10.00">_request_get_grid_spacing</text>
</g>
<!-- Node2 -->
<g id="node2" class="node"><title>Node2</title>
<g id="a_node2"><a xlink:href="$mavlink__msg__terrain__request_8h.html#a3930012422560155553fc7ed8d7fb72a" xlink:title="Decode a terrain_request message into a struct. ">
<polygon fill="white" stroke="black" points="170.5,-0 170.5,-30 277.5,-30 277.5,-0 170.5,-0"/>
<text text-anchor="start" x="178.5" y="-18" font-family="Helvetica,sans-Serif" font-size="10.00">mavlink_msg_terrain</text>
<text text-anchor="middle" x="224" y="-7" font-family="Helvetica,sans-Serif" font-size="10.00">_request_decode</text>
</a>
</g>
</g>
<!-- Node1&#45;&gt;Node2 -->
<g id="edge1" class="edge"><title>Node1&#45;&gt;Node2</title>
<path fill="none" stroke="midnightblue" d="M143.815,-15C152.778,-15 161.771,-15 170.315,-15"/>
<polygon fill="midnightblue" stroke="midnightblue" points="143.734,-11.5001 133.734,-15 143.734,-18.5001 143.734,-11.5001"/>
</g>
<!-- Node3 -->
<g id="node3" class="node"><title>Node3</title>
<g id="a_node3"><a xlink:href="$v1_80_2common_2testsuite_8h.html#ab1e6f933e7edbce862b88625f651cfb1" xlink:title="mavlink_test_terrain\l_request">
<polygon fill="white" stroke="black" points="314,-0 314,-30 418,-30 418,-0 314,-0"/>
<text text-anchor="start" x="322" y="-18" font-family="Helvetica,sans-Serif" font-size="10.00">mavlink_test_terrain</text>
<text text-anchor="middle" x="366" y="-7" font-family="Helvetica,sans-Serif" font-size="10.00">_request</text>
</a>
</g>
</g>
<!-- Node2&#45;&gt;Node3 -->
<g id="edge2" class="edge"><title>Node2&#45;&gt;Node3</title>
<path fill="none" stroke="midnightblue" d="M287.615,-15C296.295,-15 305.127,-15 313.571,-15"/>
<polygon fill="midnightblue" stroke="midnightblue" points="287.529,-11.5001 277.529,-15 287.529,-18.5001 287.529,-11.5001"/>
</g>
<!-- Node4 -->
<g id="node4" class="node"><title>Node4</title>
<g id="a_node4"><a xlink:href="$v1_80_2common_2testsuite_8h.html#af349432601ac003d2c80a69c100c70a4" xlink:title="mavlink_test_common">
<polygon fill="white" stroke="black" points="454.5,-5.5 454.5,-24.5 569.5,-24.5 569.5,-5.5 454.5,-5.5"/>
<text text-anchor="middle" x="512" y="-12.5" font-family="Helvetica,sans-Serif" font-size="10.00">mavlink_test_common</text>
</a>
</g>
</g>
<!-- Node3&#45;&gt;Node4 -->
<g id="edge3" class="edge"><title>Node3&#45;&gt;Node4</title>
<path fill="none" stroke="midnightblue" d="M428.435,-15C436.957,-15 445.68,-15 454.113,-15"/>
<polygon fill="midnightblue" stroke="midnightblue" points="428.175,-11.5001 418.174,-15 428.174,-18.5001 428.175,-11.5001"/>
</g>
<!-- Node5 -->
<g id="node5" class="node"><title>Node5</title>
<g id="a_node5"><a xlink:href="$v1_80_2common_2testsuite_8h.html#a4cc77b6c343679298da5d3c2b4e48759" xlink:title="mavlink_test_all">
<polygon fill="white" stroke="black" points="606.5,-5.5 606.5,-24.5 693.5,-24.5 693.5,-5.5 606.5,-5.5"/>
<text text-anchor="middle" x="650" y="-12.5" font-family="Helvetica,sans-Serif" font-size="10.00">mavlink_test_all</text>
</a>
</g>
</g>
<!-- Node4&#45;&gt;Node5 -->
<g id="edge4" class="edge"><title>Node4&#45;&gt;Node5</title>
<path fill="none" stroke="midnightblue" d="M579.996,-15C588.988,-15 598.003,-15 606.412,-15"/>
<polygon fill="midnightblue" stroke="midnightblue" points="579.888,-11.5001 569.888,-15 579.888,-18.5001 579.888,-11.5001"/>
</g>
</g>
</svg>
