<?xml version="1.0" encoding="UTF-8" standalone="no"?>
<!DOCTYPE svg PUBLIC "-//W3C//DTD SVG 1.1//EN"
 "http://www.w3.org/Graphics/SVG/1.1/DTD/svg11.dtd">
<!-- Generated by graphviz version 2.36.0 (20140111.2315)
 -->
<!-- Title: mavlink_msg_serial_control_encode Pages: 1 -->
<svg width="562pt" height="104pt"
 viewBox="0.00 0.00 562.00 104.00" xmlns="http://www.w3.org/2000/svg" xmlns:xlink="http://www.w3.org/1999/xlink">
<g id="graph0" class="graph" transform="scale(1 1) rotate(0) translate(4 100)">
<title>mavlink_msg_serial_control_encode</title>
<polygon fill="white" stroke="none" points="-4,4 -4,-100 558,-100 558,4 -4,4"/>
<!-- Node1 -->
<g id="node1" class="node"><title>Node1</title>
<polygon fill="#bfbfbf" stroke="black" points="0.5,-33 0.5,-63 103.5,-63 103.5,-33 0.5,-33"/>
<text text-anchor="start" x="8.5" y="-51" font-family="Helvetica,sans-Serif" font-size="10.00">mavlink_msg_serial</text>
<text text-anchor="middle" x="52" y="-40" font-family="Helvetica,sans-Serif" font-size="10.00">_control_encode</text>
</g>
<!-- Node2 -->
<g id="node2" class="node"><title>Node2</title>
<g id="a_node2"><a xlink:href="$mavlink__msg__serial__control_8h.html#a7f7e386f5adec53e196367d332269f11" xlink:title="Pack a serial_control message. ">
<polygon fill="white" stroke="black" points="140.5,-33 140.5,-63 243.5,-63 243.5,-33 140.5,-33"/>
<text text-anchor="start" x="148.5" y="-51" font-family="Helvetica,sans-Serif" font-size="10.00">mavlink_msg_serial</text>
<text text-anchor="middle" x="192" y="-40" font-family="Helvetica,sans-Serif" font-size="10.00">_control_pack</text>
</a>
</g>
</g>
<!-- Node1&#45;&gt;Node2 -->
<g id="edge1" class="edge"><title>Node1&#45;&gt;Node2</title>
<path fill="none" stroke="midnightblue" d="M103.603,-48C112.228,-48 121.266,-48 130.124,-48"/>
<polygon fill="midnightblue" stroke="midnightblue" points="130.404,-51.5001 140.404,-48 130.404,-44.5001 130.404,-51.5001"/>
</g>
<!-- Node3 -->
<g id="node3" class="node"><title>Node3</title>
<g id="a_node3"><a xlink:href="$v0_89_2protocol_8h.html#a78cf8b010c1768f8be4b9caa34aba0dc" xlink:title="_mav_put_uint8_t_array">
<polygon fill="white" stroke="black" points="285.5,-76.5 285.5,-95.5 406.5,-95.5 406.5,-76.5 285.5,-76.5"/>
<text text-anchor="middle" x="346" y="-83.5" font-family="Helvetica,sans-Serif" font-size="10.00">_mav_put_uint8_t_array</text>
</a>
</g>
</g>
<!-- Node2&#45;&gt;Node3 -->
<g id="edge2" class="edge"><title>Node2&#45;&gt;Node3</title>
<path fill="none" stroke="midnightblue" d="M243.614,-60.6534C260.796,-64.9489 279.933,-69.7333 296.912,-73.978"/>
<polygon fill="midnightblue" stroke="midnightblue" points="296.078,-77.3772 306.629,-76.4072 297.776,-70.5862 296.078,-77.3772"/>
</g>
<!-- Node4 -->
<g id="node4" class="node"><title>Node4</title>
<g id="a_node4"><a xlink:href="$v0_89_2protocol_8h.html#a4486c3d5854cac1cb6a0fb1cc5ba570c" xlink:title="mav_array_memcpy">
<polygon fill="white" stroke="black" points="448.5,-57.5 448.5,-76.5 553.5,-76.5 553.5,-57.5 448.5,-57.5"/>
<text text-anchor="middle" x="501" y="-64.5" font-family="Helvetica,sans-Serif" font-size="10.00">mav_array_memcpy</text>
</a>
</g>
</g>
<!-- Node2&#45;&gt;Node4 -->
<g id="edge4" class="edge"><title>Node2&#45;&gt;Node4</title>
<path fill="none" stroke="midnightblue" d="M243.695,-51.1375C297.114,-54.4435 381.276,-59.6523 438.464,-63.1916"/>
<polygon fill="midnightblue" stroke="midnightblue" points="438.264,-66.6858 448.461,-63.8103 438.696,-59.6992 438.264,-66.6858"/>
</g>
<!-- Node5 -->
<g id="node5" class="node"><title>Node5</title>
<g id="a_node5"><a xlink:href="$v0_89_2mavlink__helpers_8h.html#af3bea083c5ec83f5b6570b2bd4a817d0" xlink:title="Finalize a MAVLink message with MAVLINK_COMM_0 as default channel. ">
<polygon fill="white" stroke="black" points="280.5,-0.5 280.5,-19.5 411.5,-19.5 411.5,-0.5 280.5,-0.5"/>
<text text-anchor="middle" x="346" y="-7.5" font-family="Helvetica,sans-Serif" font-size="10.00">mavlink_finalize_message</text>
</a>
</g>
</g>
<!-- Node2&#45;&gt;Node5 -->
<g id="edge5" class="edge"><title>Node2&#45;&gt;Node5</title>
<path fill="none" stroke="midnightblue" d="M243.614,-35.3466C260.796,-31.0511 279.933,-26.2667 296.912,-22.022"/>
<polygon fill="midnightblue" stroke="midnightblue" points="297.776,-25.4138 306.629,-19.5928 296.078,-18.6228 297.776,-25.4138"/>
</g>
<!-- Node3&#45;&gt;Node4 -->
<g id="edge3" class="edge"><title>Node3&#45;&gt;Node4</title>
<path fill="none" stroke="midnightblue" d="M406.592,-78.5997C416.912,-77.3181 427.665,-75.9828 438.046,-74.6936"/>
<polygon fill="midnightblue" stroke="midnightblue" points="438.782,-78.1292 448.275,-73.4234 437.919,-71.1826 438.782,-78.1292"/>
</g>
</g>
</svg>
