<?xml version="1.0" encoding="UTF-8" standalone="no"?>
<!DOCTYPE svg PUBLIC "-//W3C//DTD SVG 1.1//EN"
 "http://www.w3.org/Graphics/SVG/1.1/DTD/svg11.dtd">
<!-- Generated by graphviz version 2.36.0 (20140111.2315)
 -->
<!-- Title: mavlink_msg_rc_channels_decode Pages: 1 -->
<svg width="308pt" height="1018pt"
 viewBox="0.00 0.00 308.00 1018.00" xmlns="http://www.w3.org/2000/svg" xmlns:xlink="http://www.w3.org/1999/xlink">
<g id="graph0" class="graph" transform="scale(1 1) rotate(0) translate(4 1014)">
<title>mavlink_msg_rc_channels_decode</title>
<polygon fill="white" stroke="none" points="-4,4 -4,-1014 304,-1014 304,4 -4,4"/>
<!-- Node1 -->
<g id="node1" class="node"><title>Node1</title>
<polygon fill="#bfbfbf" stroke="black" points="0,-490 0,-520 132,-520 132,-490 0,-490"/>
<text text-anchor="start" x="8" y="-508" font-family="Helvetica,sans-Serif" font-size="10.00">mavlink_msg_rc_channels</text>
<text text-anchor="middle" x="66" y="-497" font-family="Helvetica,sans-Serif" font-size="10.00">_decode</text>
</g>
<!-- Node2 -->
<g id="node2" class="node"><title>Node2</title>
<g id="a_node2"><a xlink:href="$mavlink__msg__rc__channels_8h.html#a5afb2eb2f3f77486738ce087cf69b404" xlink:title="Send a rc_channels message. ">
<polygon fill="white" stroke="black" points="168,-980 168,-1010 300,-1010 300,-980 168,-980"/>
<text text-anchor="start" x="176" y="-998" font-family="Helvetica,sans-Serif" font-size="10.00">mavlink_msg_rc_channels</text>
<text text-anchor="middle" x="234" y="-987" font-family="Helvetica,sans-Serif" font-size="10.00">_get_time_boot_ms</text>
</a>
</g>
</g>
<!-- Node1&#45;&gt;Node2 -->
<g id="edge1" class="edge"><title>Node1&#45;&gt;Node2</title>
<path fill="none" stroke="midnightblue" d="M68.3776,-520.217C75.1866,-592.351 107.373,-899.287 168,-970 169.136,-971.325 170.351,-972.58 171.632,-973.769"/>
<polygon fill="midnightblue" stroke="midnightblue" points="169.538,-976.574 179.604,-979.88 173.796,-971.018 169.538,-976.574"/>
</g>
<!-- Node3 -->
<g id="node3" class="node"><title>Node3</title>
<g id="a_node3"><a xlink:href="$mavlink__msg__rc__channels_8h.html#a9dc9c4cd99a06d46e78f75ae356ec4e8" xlink:title="Get field chan1_raw from rc_channels message. ">
<polygon fill="white" stroke="black" points="168,-931 168,-961 300,-961 300,-931 168,-931"/>
<text text-anchor="start" x="176" y="-949" font-family="Helvetica,sans-Serif" font-size="10.00">mavlink_msg_rc_channels</text>
<text text-anchor="middle" x="234" y="-938" font-family="Helvetica,sans-Serif" font-size="10.00">_get_chan1_raw</text>
</a>
</g>
</g>
<!-- Node1&#45;&gt;Node3 -->
<g id="edge2" class="edge"><title>Node1&#45;&gt;Node3</title>
<path fill="none" stroke="midnightblue" d="M68.8195,-520.395C77.0975,-588.079 113.18,-858.61 168,-921 169.18,-922.343 170.44,-923.613 171.767,-924.816"/>
<polygon fill="midnightblue" stroke="midnightblue" points="169.91,-927.798 180.012,-930.99 174.106,-922.195 169.91,-927.798"/>
</g>
<!-- Node4 -->
<g id="node4" class="node"><title>Node4</title>
<g id="a_node4"><a xlink:href="$mavlink__msg__rc__channels_8h.html#a9bf6230f573091f5c7b9c57f21d62aa9" xlink:title="Get field chan2_raw from rc_channels message. ">
<polygon fill="white" stroke="black" points="168,-882 168,-912 300,-912 300,-882 168,-882"/>
<text text-anchor="start" x="176" y="-900" font-family="Helvetica,sans-Serif" font-size="10.00">mavlink_msg_rc_channels</text>
<text text-anchor="middle" x="234" y="-889" font-family="Helvetica,sans-Serif" font-size="10.00">_get_chan2_raw</text>
</a>
</g>
</g>
<!-- Node1&#45;&gt;Node4 -->
<g id="edge3" class="edge"><title>Node1&#45;&gt;Node4</title>
<path fill="none" stroke="midnightblue" d="M66.6181,-520.177C66.0687,-575.047 71.4985,-765.48 168,-872 169.2,-873.324 170.478,-874.579 171.821,-875.768"/>
<polygon fill="midnightblue" stroke="midnightblue" points="170.005,-878.777 180.135,-881.881 174.151,-873.137 170.005,-878.777"/>
</g>
<!-- Node5 -->
<g id="node5" class="node"><title>Node5</title>
<g id="a_node5"><a xlink:href="$mavlink__msg__rc__channels_8h.html#a73fdfc47d4fecf8e4dd4225059bb3888" xlink:title="Get field chan3_raw from rc_channels message. ">
<polygon fill="white" stroke="black" points="168,-833 168,-863 300,-863 300,-833 168,-833"/>
<text text-anchor="start" x="176" y="-851" font-family="Helvetica,sans-Serif" font-size="10.00">mavlink_msg_rc_channels</text>
<text text-anchor="middle" x="234" y="-840" font-family="Helvetica,sans-Serif" font-size="10.00">_get_chan3_raw</text>
</a>
</g>
</g>
<!-- Node1&#45;&gt;Node5 -->
<g id="edge4" class="edge"><title>Node1&#45;&gt;Node5</title>
<path fill="none" stroke="midnightblue" d="M67.3851,-520.231C69.4683,-570.423 82.7997,-732.56 168,-823 169.368,-824.452 170.83,-825.821 172.367,-827.111"/>
<polygon fill="midnightblue" stroke="midnightblue" points="170.418,-830.019 180.606,-832.928 174.456,-824.301 170.418,-830.019"/>
</g>
<!-- Node6 -->
<g id="node6" class="node"><title>Node6</title>
<g id="a_node6"><a xlink:href="$mavlink__msg__rc__channels_8h.html#a13736029d74893e84e75fb80cf658d2e" xlink:title="Get field chan4_raw from rc_channels message. ">
<polygon fill="white" stroke="black" points="168,-784 168,-814 300,-814 300,-784 168,-784"/>
<text text-anchor="start" x="176" y="-802" font-family="Helvetica,sans-Serif" font-size="10.00">mavlink_msg_rc_channels</text>
<text text-anchor="middle" x="234" y="-791" font-family="Helvetica,sans-Serif" font-size="10.00">_get_chan4_raw</text>
</a>
</g>
</g>
<!-- Node1&#45;&gt;Node6 -->
<g id="edge5" class="edge"><title>Node1&#45;&gt;Node6</title>
<path fill="none" stroke="midnightblue" d="M68.3936,-520.087C73.3258,-564.988 93.8704,-699.275 168,-774 169.437,-775.448 170.967,-776.815 172.571,-778.103"/>
<polygon fill="midnightblue" stroke="midnightblue" points="170.89,-781.192 181.128,-783.918 174.825,-775.402 170.89,-781.192"/>
</g>
<!-- Node7 -->
<g id="node7" class="node"><title>Node7</title>
<g id="a_node7"><a xlink:href="$mavlink__msg__rc__channels_8h.html#a357134a5b53a27d0c44167a5ff8f162f" xlink:title="Get field chan5_raw from rc_channels message. ">
<polygon fill="white" stroke="black" points="168,-735 168,-765 300,-765 300,-735 168,-735"/>
<text text-anchor="start" x="176" y="-753" font-family="Helvetica,sans-Serif" font-size="10.00">mavlink_msg_rc_channels</text>
<text text-anchor="middle" x="234" y="-742" font-family="Helvetica,sans-Serif" font-size="10.00">_get_chan5_raw</text>
</a>
</g>
</g>
<!-- Node1&#45;&gt;Node7 -->
<g id="edge6" class="edge"><title>Node1&#45;&gt;Node7</title>
<path fill="none" stroke="midnightblue" d="M69.8297,-520.118C77.9431,-559.399 104.878,-665.747 168,-725 169.683,-726.58 171.477,-728.063 173.355,-729.456"/>
<polygon fill="midnightblue" stroke="midnightblue" points="171.738,-732.575 182.053,-734.995 175.498,-726.671 171.738,-732.575"/>
</g>
<!-- Node8 -->
<g id="node8" class="node"><title>Node8</title>
<g id="a_node8"><a xlink:href="$mavlink__msg__rc__channels_8h.html#a897eb0e2ee4af65019a77239755df1d4" xlink:title="Get field chan6_raw from rc_channels message. ">
<polygon fill="white" stroke="black" points="168,-686 168,-716 300,-716 300,-686 168,-686"/>
<text text-anchor="start" x="176" y="-704" font-family="Helvetica,sans-Serif" font-size="10.00">mavlink_msg_rc_channels</text>
<text text-anchor="middle" x="234" y="-693" font-family="Helvetica,sans-Serif" font-size="10.00">_get_chan6_raw</text>
</a>
</g>
</g>
<!-- Node1&#45;&gt;Node8 -->
<g id="edge7" class="edge"><title>Node1&#45;&gt;Node8</title>
<path fill="none" stroke="midnightblue" d="M72.0014,-520.066C83.644,-552.935 115.62,-631.681 168,-676 169.979,-677.674 172.082,-679.243 174.275,-680.713"/>
<polygon fill="midnightblue" stroke="midnightblue" points="172.709,-683.853 183.104,-685.903 176.256,-677.818 172.709,-683.853"/>
</g>
<!-- Node9 -->
<g id="node9" class="node"><title>Node9</title>
<g id="a_node9"><a xlink:href="$mavlink__msg__rc__channels_8h.html#a13e932708b913b0afbe69550f02a7868" xlink:title="Get field chan7_raw from rc_channels message. ">
<polygon fill="white" stroke="black" points="168,-637 168,-667 300,-667 300,-637 168,-637"/>
<text text-anchor="start" x="176" y="-655" font-family="Helvetica,sans-Serif" font-size="10.00">mavlink_msg_rc_channels</text>
<text text-anchor="middle" x="234" y="-644" font-family="Helvetica,sans-Serif" font-size="10.00">_get_chan7_raw</text>
</a>
</g>
</g>
<!-- Node1&#45;&gt;Node9 -->
<g id="edge8" class="edge"><title>Node1&#45;&gt;Node9</title>
<path fill="none" stroke="midnightblue" d="M75.9572,-520.27C91.6009,-545.725 126.248,-596.988 168,-627 170.651,-628.905 173.465,-630.687 176.38,-632.35"/>
<polygon fill="midnightblue" stroke="midnightblue" points="174.867,-635.508 185.359,-636.986 178.079,-629.288 174.867,-635.508"/>
</g>
<!-- Node10 -->
<g id="node10" class="node"><title>Node10</title>
<g id="a_node10"><a xlink:href="$mavlink__msg__rc__channels_8h.html#a1e950e900dc7e24f32a2d55105a7391c" xlink:title="Get field chan8_raw from rc_channels message. ">
<polygon fill="white" stroke="black" points="168,-588 168,-618 300,-618 300,-588 168,-588"/>
<text text-anchor="start" x="176" y="-606" font-family="Helvetica,sans-Serif" font-size="10.00">mavlink_msg_rc_channels</text>
<text text-anchor="middle" x="234" y="-595" font-family="Helvetica,sans-Serif" font-size="10.00">_get_chan8_raw</text>
</a>
</g>
</g>
<!-- Node1&#45;&gt;Node10 -->
<g id="edge9" class="edge"><title>Node1&#45;&gt;Node10</title>
<path fill="none" stroke="midnightblue" d="M85.0269,-520.251C104.525,-536.199 136.993,-561.201 168,-578 171.767,-580.041 175.737,-581.996 179.781,-583.85"/>
<polygon fill="midnightblue" stroke="midnightblue" points="178.726,-587.207 189.292,-587.984 181.516,-580.787 178.726,-587.207"/>
</g>
<!-- Node11 -->
<g id="node11" class="node"><title>Node11</title>
<g id="a_node11"><a xlink:href="$mavlink__msg__rc__channels_8h.html#a40eed40bfb8219c0810c83e6540d4846" xlink:title="Get field chan9_raw from rc_channels message. ">
<polygon fill="white" stroke="black" points="168,-539 168,-569 300,-569 300,-539 168,-539"/>
<text text-anchor="start" x="176" y="-557" font-family="Helvetica,sans-Serif" font-size="10.00">mavlink_msg_rc_channels</text>
<text text-anchor="middle" x="234" y="-546" font-family="Helvetica,sans-Serif" font-size="10.00">_get_chan9_raw</text>
</a>
</g>
</g>
<!-- Node1&#45;&gt;Node11 -->
<g id="edge10" class="edge"><title>Node1&#45;&gt;Node11</title>
<path fill="none" stroke="midnightblue" d="M118.16,-520.101C135.281,-525.155 154.532,-530.838 172.308,-536.085"/>
<polygon fill="midnightblue" stroke="midnightblue" points="171.427,-539.474 182.009,-538.948 173.409,-532.76 171.427,-539.474"/>
</g>
<!-- Node12 -->
<g id="node12" class="node"><title>Node12</title>
<g id="a_node12"><a xlink:href="$mavlink__msg__rc__channels_8h.html#a02cfc59388fb269a8e2bf6099cd78302" xlink:title="Get field chan10_raw from rc_channels message. ">
<polygon fill="white" stroke="black" points="168,-490 168,-520 300,-520 300,-490 168,-490"/>
<text text-anchor="start" x="176" y="-508" font-family="Helvetica,sans-Serif" font-size="10.00">mavlink_msg_rc_channels</text>
<text text-anchor="middle" x="234" y="-497" font-family="Helvetica,sans-Serif" font-size="10.00">_get_chan10_raw</text>
</a>
</g>
</g>
<!-- Node1&#45;&gt;Node12 -->
<g id="edge11" class="edge"><title>Node1&#45;&gt;Node12</title>
<path fill="none" stroke="midnightblue" d="M132.131,-505C140.461,-505 149.044,-505 157.521,-505"/>
<polygon fill="midnightblue" stroke="midnightblue" points="157.784,-508.5 167.784,-505 157.784,-501.5 157.784,-508.5"/>
</g>
<!-- Node13 -->
<g id="node13" class="node"><title>Node13</title>
<g id="a_node13"><a xlink:href="$mavlink__msg__rc__channels_8h.html#aa9f13b0c2a2629218f8b7fc1d46973ee" xlink:title="Get field chan11_raw from rc_channels message. ">
<polygon fill="white" stroke="black" points="168,-441 168,-471 300,-471 300,-441 168,-441"/>
<text text-anchor="start" x="176" y="-459" font-family="Helvetica,sans-Serif" font-size="10.00">mavlink_msg_rc_channels</text>
<text text-anchor="middle" x="234" y="-448" font-family="Helvetica,sans-Serif" font-size="10.00">_get_chan11_raw</text>
</a>
</g>
</g>
<!-- Node1&#45;&gt;Node13 -->
<g id="edge12" class="edge"><title>Node1&#45;&gt;Node13</title>
<path fill="none" stroke="midnightblue" d="M118.16,-489.899C135.281,-484.845 154.532,-479.162 172.308,-473.915"/>
<polygon fill="midnightblue" stroke="midnightblue" points="173.409,-477.24 182.009,-471.052 171.427,-470.526 173.409,-477.24"/>
</g>
<!-- Node14 -->
<g id="node14" class="node"><title>Node14</title>
<g id="a_node14"><a xlink:href="$mavlink__msg__rc__channels_8h.html#ad6100b75f82a81ddabe5aeac92936a6b" xlink:title="Get field chan12_raw from rc_channels message. ">
<polygon fill="white" stroke="black" points="168,-392 168,-422 300,-422 300,-392 168,-392"/>
<text text-anchor="start" x="176" y="-410" font-family="Helvetica,sans-Serif" font-size="10.00">mavlink_msg_rc_channels</text>
<text text-anchor="middle" x="234" y="-399" font-family="Helvetica,sans-Serif" font-size="10.00">_get_chan12_raw</text>
</a>
</g>
</g>
<!-- Node1&#45;&gt;Node14 -->
<g id="edge13" class="edge"><title>Node1&#45;&gt;Node14</title>
<path fill="none" stroke="midnightblue" d="M85.0269,-489.749C104.525,-473.801 136.993,-448.799 168,-432 171.767,-429.959 175.737,-428.004 179.781,-426.15"/>
<polygon fill="midnightblue" stroke="midnightblue" points="181.516,-429.213 189.292,-422.016 178.726,-422.793 181.516,-429.213"/>
</g>
<!-- Node15 -->
<g id="node15" class="node"><title>Node15</title>
<g id="a_node15"><a xlink:href="$mavlink__msg__rc__channels_8h.html#ac5020e832d95d24314d9b5f45214d2a2" xlink:title="Get field chan13_raw from rc_channels message. ">
<polygon fill="white" stroke="black" points="168,-343 168,-373 300,-373 300,-343 168,-343"/>
<text text-anchor="start" x="176" y="-361" font-family="Helvetica,sans-Serif" font-size="10.00">mavlink_msg_rc_channels</text>
<text text-anchor="middle" x="234" y="-350" font-family="Helvetica,sans-Serif" font-size="10.00">_get_chan13_raw</text>
</a>
</g>
</g>
<!-- Node1&#45;&gt;Node15 -->
<g id="edge14" class="edge"><title>Node1&#45;&gt;Node15</title>
<path fill="none" stroke="midnightblue" d="M75.9572,-489.73C91.6009,-464.275 126.248,-413.012 168,-383 170.651,-381.095 173.465,-379.313 176.38,-377.65"/>
<polygon fill="midnightblue" stroke="midnightblue" points="178.079,-380.712 185.359,-373.014 174.867,-374.492 178.079,-380.712"/>
</g>
<!-- Node16 -->
<g id="node16" class="node"><title>Node16</title>
<g id="a_node16"><a xlink:href="$mavlink__msg__rc__channels_8h.html#a7f3092a04d0b3f1cd90f8bfa5b2e4c10" xlink:title="Get field chan14_raw from rc_channels message. ">
<polygon fill="white" stroke="black" points="168,-294 168,-324 300,-324 300,-294 168,-294"/>
<text text-anchor="start" x="176" y="-312" font-family="Helvetica,sans-Serif" font-size="10.00">mavlink_msg_rc_channels</text>
<text text-anchor="middle" x="234" y="-301" font-family="Helvetica,sans-Serif" font-size="10.00">_get_chan14_raw</text>
</a>
</g>
</g>
<!-- Node1&#45;&gt;Node16 -->
<g id="edge15" class="edge"><title>Node1&#45;&gt;Node16</title>
<path fill="none" stroke="midnightblue" d="M72.0014,-489.934C83.644,-457.065 115.62,-378.319 168,-334 169.979,-332.326 172.082,-330.757 174.275,-329.287"/>
<polygon fill="midnightblue" stroke="midnightblue" points="176.256,-332.182 183.104,-324.097 172.709,-326.147 176.256,-332.182"/>
</g>
<!-- Node17 -->
<g id="node17" class="node"><title>Node17</title>
<g id="a_node17"><a xlink:href="$mavlink__msg__rc__channels_8h.html#a36f18452196db36a85b9ab5cc8332d95" xlink:title="Get field chan15_raw from rc_channels message. ">
<polygon fill="white" stroke="black" points="168,-245 168,-275 300,-275 300,-245 168,-245"/>
<text text-anchor="start" x="176" y="-263" font-family="Helvetica,sans-Serif" font-size="10.00">mavlink_msg_rc_channels</text>
<text text-anchor="middle" x="234" y="-252" font-family="Helvetica,sans-Serif" font-size="10.00">_get_chan15_raw</text>
</a>
</g>
</g>
<!-- Node1&#45;&gt;Node17 -->
<g id="edge16" class="edge"><title>Node1&#45;&gt;Node17</title>
<path fill="none" stroke="midnightblue" d="M69.8297,-489.882C77.9431,-450.601 104.878,-344.253 168,-285 169.683,-283.42 171.477,-281.937 173.355,-280.544"/>
<polygon fill="midnightblue" stroke="midnightblue" points="175.498,-283.329 182.053,-275.005 171.738,-277.425 175.498,-283.329"/>
</g>
<!-- Node18 -->
<g id="node18" class="node"><title>Node18</title>
<g id="a_node18"><a xlink:href="$mavlink__msg__rc__channels_8h.html#a5829d250fb2461a85d114b90dd586b63" xlink:title="Get field chan16_raw from rc_channels message. ">
<polygon fill="white" stroke="black" points="168,-196 168,-226 300,-226 300,-196 168,-196"/>
<text text-anchor="start" x="176" y="-214" font-family="Helvetica,sans-Serif" font-size="10.00">mavlink_msg_rc_channels</text>
<text text-anchor="middle" x="234" y="-203" font-family="Helvetica,sans-Serif" font-size="10.00">_get_chan16_raw</text>
</a>
</g>
</g>
<!-- Node1&#45;&gt;Node18 -->
<g id="edge17" class="edge"><title>Node1&#45;&gt;Node18</title>
<path fill="none" stroke="midnightblue" d="M68.3936,-489.913C73.3258,-445.012 93.8704,-310.725 168,-236 169.437,-234.552 170.967,-233.185 172.571,-231.897"/>
<polygon fill="midnightblue" stroke="midnightblue" points="174.825,-234.598 181.128,-226.082 170.89,-228.808 174.825,-234.598"/>
</g>
<!-- Node19 -->
<g id="node19" class="node"><title>Node19</title>
<g id="a_node19"><a xlink:href="$mavlink__msg__rc__channels_8h.html#ada3a927f2c6b87a74c3291d1ef49b40f" xlink:title="Get field chan17_raw from rc_channels message. ">
<polygon fill="white" stroke="black" points="168,-147 168,-177 300,-177 300,-147 168,-147"/>
<text text-anchor="start" x="176" y="-165" font-family="Helvetica,sans-Serif" font-size="10.00">mavlink_msg_rc_channels</text>
<text text-anchor="middle" x="234" y="-154" font-family="Helvetica,sans-Serif" font-size="10.00">_get_chan17_raw</text>
</a>
</g>
</g>
<!-- Node1&#45;&gt;Node19 -->
<g id="edge18" class="edge"><title>Node1&#45;&gt;Node19</title>
<path fill="none" stroke="midnightblue" d="M67.3851,-489.769C69.4683,-439.577 82.7997,-277.44 168,-187 169.368,-185.548 170.83,-184.179 172.367,-182.889"/>
<polygon fill="midnightblue" stroke="midnightblue" points="174.456,-185.699 180.606,-177.072 170.418,-179.981 174.456,-185.699"/>
</g>
<!-- Node20 -->
<g id="node20" class="node"><title>Node20</title>
<g id="a_node20"><a xlink:href="$mavlink__msg__rc__channels_8h.html#a932f43d84586ec62e155959a2306e942" xlink:title="Get field chan18_raw from rc_channels message. ">
<polygon fill="white" stroke="black" points="168,-98 168,-128 300,-128 300,-98 168,-98"/>
<text text-anchor="start" x="176" y="-116" font-family="Helvetica,sans-Serif" font-size="10.00">mavlink_msg_rc_channels</text>
<text text-anchor="middle" x="234" y="-105" font-family="Helvetica,sans-Serif" font-size="10.00">_get_chan18_raw</text>
</a>
</g>
</g>
<!-- Node1&#45;&gt;Node20 -->
<g id="edge19" class="edge"><title>Node1&#45;&gt;Node20</title>
<path fill="none" stroke="midnightblue" d="M66.6181,-489.823C66.0687,-434.953 71.4985,-244.52 168,-138 169.2,-136.676 170.478,-135.421 171.821,-134.232"/>
<polygon fill="midnightblue" stroke="midnightblue" points="174.151,-136.863 180.135,-128.119 170.005,-131.223 174.151,-136.863"/>
</g>
<!-- Node21 -->
<g id="node21" class="node"><title>Node21</title>
<g id="a_node21"><a xlink:href="$mavlink__msg__rc__channels_8h.html#a056e901dcf5ee0de4bc641c757f058da" xlink:title="Get field chancount from rc_channels message. ">
<polygon fill="white" stroke="black" points="168,-49 168,-79 300,-79 300,-49 168,-49"/>
<text text-anchor="start" x="176" y="-67" font-family="Helvetica,sans-Serif" font-size="10.00">mavlink_msg_rc_channels</text>
<text text-anchor="middle" x="234" y="-56" font-family="Helvetica,sans-Serif" font-size="10.00">_get_chancount</text>
</a>
</g>
</g>
<!-- Node1&#45;&gt;Node21 -->
<g id="edge20" class="edge"><title>Node1&#45;&gt;Node21</title>
<path fill="none" stroke="midnightblue" d="M68.8195,-489.605C77.0975,-421.921 113.18,-151.39 168,-89 169.18,-87.6575 170.44,-86.3866 171.767,-85.1837"/>
<polygon fill="midnightblue" stroke="midnightblue" points="174.106,-87.8052 180.012,-79.0098 169.91,-82.2019 174.106,-87.8052"/>
</g>
<!-- Node22 -->
<g id="node22" class="node"><title>Node22</title>
<g id="a_node22"><a xlink:href="$mavlink__msg__rc__channels_8h.html#ae787bc14befaab358f6f25a0838fae2e" xlink:title="Get field rssi from rc_channels message. ">
<polygon fill="white" stroke="black" points="168,-0 168,-30 300,-30 300,-0 168,-0"/>
<text text-anchor="start" x="176" y="-18" font-family="Helvetica,sans-Serif" font-size="10.00">mavlink_msg_rc_channels</text>
<text text-anchor="middle" x="234" y="-7" font-family="Helvetica,sans-Serif" font-size="10.00">_get_rssi</text>
</a>
</g>
</g>
<!-- Node1&#45;&gt;Node22 -->
<g id="edge21" class="edge"><title>Node1&#45;&gt;Node22</title>
<path fill="none" stroke="midnightblue" d="M68.3776,-489.783C75.1866,-417.649 107.373,-110.713 168,-40 169.136,-38.6748 170.351,-37.4196 171.632,-36.2306"/>
<polygon fill="midnightblue" stroke="midnightblue" points="173.796,-38.9816 179.604,-30.1203 169.538,-33.4259 173.796,-38.9816"/>
</g>
</g>
</svg>
