<?xml version="1.0" encoding="UTF-8" standalone="no"?>
<!DOCTYPE svg PUBLIC "-//W3C//DTD SVG 1.1//EN"
 "http://www.w3.org/Graphics/SVG/1.1/DTD/svg11.dtd">
<!-- Generated by graphviz version 2.36.0 (20140111.2315)
 -->
<!-- Title: mavlink_msg_rc_channels_get_chan6_raw Pages: 1 -->
<svg width="750pt" height="38pt"
 viewBox="0.00 0.00 750.00 38.00" xmlns="http://www.w3.org/2000/svg" xmlns:xlink="http://www.w3.org/1999/xlink">
<g id="graph0" class="graph" transform="scale(1 1) rotate(0) translate(4 34)">
<title>mavlink_msg_rc_channels_get_chan6_raw</title>
<polygon fill="white" stroke="none" points="-4,4 -4,-34 746,-34 746,4 -4,4"/>
<!-- Node1 -->
<g id="node1" class="node"><title>Node1</title>
<polygon fill="#bfbfbf" stroke="black" points="0,-0 0,-30 132,-30 132,-0 0,-0"/>
<text text-anchor="start" x="8" y="-18" font-family="Helvetica,sans-Serif" font-size="10.00">mavlink_msg_rc_channels</text>
<text text-anchor="middle" x="66" y="-7" font-family="Helvetica,sans-Serif" font-size="10.00">_get_chan6_raw</text>
</g>
<!-- Node2 -->
<g id="node2" class="node"><title>Node2</title>
<g id="a_node2"><a xlink:href="$mavlink__msg__rc__channels_8h.html#a305949923923c9237ea82a7a4fbe53ed" xlink:title="Decode a rc_channels message into a struct. ">
<polygon fill="white" stroke="black" points="168,-0 168,-30 300,-30 300,-0 168,-0"/>
<text text-anchor="start" x="176" y="-18" font-family="Helvetica,sans-Serif" font-size="10.00">mavlink_msg_rc_channels</text>
<text text-anchor="middle" x="234" y="-7" font-family="Helvetica,sans-Serif" font-size="10.00">_decode</text>
</a>
</g>
</g>
<!-- Node1&#45;&gt;Node2 -->
<g id="edge1" class="edge"><title>Node1&#45;&gt;Node2</title>
<path fill="none" stroke="midnightblue" d="M142.393,-15C150.869,-15 159.452,-15 167.784,-15"/>
<polygon fill="midnightblue" stroke="midnightblue" points="142.131,-11.5001 132.131,-15 142.131,-18.5001 142.131,-11.5001"/>
</g>
<!-- Node3 -->
<g id="node3" class="node"><title>Node3</title>
<g id="a_node3"><a xlink:href="$v1_80_2common_2testsuite_8h.html#a75e11f3411ba6456611bf3110a4a84a0" xlink:title="mavlink_test_rc_channels">
<polygon fill="white" stroke="black" points="336,-5.5 336,-24.5 466,-24.5 466,-5.5 336,-5.5"/>
<text text-anchor="middle" x="401" y="-12.5" font-family="Helvetica,sans-Serif" font-size="10.00">mavlink_test_rc_channels</text>
</a>
</g>
</g>
<!-- Node2&#45;&gt;Node3 -->
<g id="edge2" class="edge"><title>Node2&#45;&gt;Node3</title>
<path fill="none" stroke="midnightblue" d="M310.465,-15C318.931,-15 327.496,-15 335.801,-15"/>
<polygon fill="midnightblue" stroke="midnightblue" points="310.212,-11.5001 300.212,-15 310.212,-18.5001 310.212,-11.5001"/>
</g>
<!-- Node4 -->
<g id="node4" class="node"><title>Node4</title>
<g id="a_node4"><a xlink:href="$v1_80_2common_2testsuite_8h.html#af349432601ac003d2c80a69c100c70a4" xlink:title="mavlink_test_common">
<polygon fill="white" stroke="black" points="502.5,-5.5 502.5,-24.5 617.5,-24.5 617.5,-5.5 502.5,-5.5"/>
<text text-anchor="middle" x="560" y="-12.5" font-family="Helvetica,sans-Serif" font-size="10.00">mavlink_test_common</text>
</a>
</g>
</g>
<!-- Node3&#45;&gt;Node4 -->
<g id="edge3" class="edge"><title>Node3&#45;&gt;Node4</title>
<path fill="none" stroke="midnightblue" d="M476.395,-15C485.032,-15 493.736,-15 502.087,-15"/>
<polygon fill="midnightblue" stroke="midnightblue" points="476.311,-11.5001 466.311,-15 476.311,-18.5001 476.311,-11.5001"/>
</g>
<!-- Node5 -->
<g id="node5" class="node"><title>Node5</title>
<g id="a_node5"><a xlink:href="$v1_80_2common_2testsuite_8h.html#a4cc77b6c343679298da5d3c2b4e48759" xlink:title="mavlink_test_all">
<polygon fill="white" stroke="black" points="654.5,-5.5 654.5,-24.5 741.5,-24.5 741.5,-5.5 654.5,-5.5"/>
<text text-anchor="middle" x="698" y="-12.5" font-family="Helvetica,sans-Serif" font-size="10.00">mavlink_test_all</text>
</a>
</g>
</g>
<!-- Node4&#45;&gt;Node5 -->
<g id="edge4" class="edge"><title>Node4&#45;&gt;Node5</title>
<path fill="none" stroke="midnightblue" d="M627.996,-15C636.988,-15 646.003,-15 654.412,-15"/>
<polygon fill="midnightblue" stroke="midnightblue" points="627.888,-11.5001 617.888,-15 627.888,-18.5001 627.888,-11.5001"/>
</g>
</g>
</svg>
