<?xml version="1.0" encoding="UTF-8" standalone="no"?>
<!DOCTYPE svg PUBLIC "-//W3C//DTD SVG 1.1//EN"
 "http://www.w3.org/Graphics/SVG/1.1/DTD/svg11.dtd">
<!-- Generated by graphviz version 2.36.0 (20140111.2315)
 -->
<!-- Title: mavlink_msg_gimbal_report_get_target_component Pages: 1 -->
<svg width="762pt" height="114pt"
 viewBox="0.00 0.00 762.00 114.00" xmlns="http://www.w3.org/2000/svg" xmlns:xlink="http://www.w3.org/1999/xlink">
<g id="graph0" class="graph" transform="scale(1 1) rotate(0) translate(4 110)">
<title>mavlink_msg_gimbal_report_get_target_component</title>
<polygon fill="white" stroke="none" points="-4,4 -4,-110 758,-110 758,4 -4,4"/>
<!-- Node1 -->
<g id="node1" class="node"><title>Node1</title>
<polygon fill="#bfbfbf" stroke="black" points="0.5,-24 0.5,-54 149.5,-54 149.5,-24 0.5,-24"/>
<text text-anchor="start" x="8.5" y="-42" font-family="Helvetica,sans-Serif" font-size="10.00">mavlink_msg_gimbal</text>
<text text-anchor="middle" x="75" y="-31" font-family="Helvetica,sans-Serif" font-size="10.00">_report_get_target_component</text>
</g>
<!-- Node2 -->
<g id="node2" class="node"><title>Node2</title>
<g id="a_node2"><a xlink:href="$classMAVLink__routing.html#afca07626745616e05d03caf5a0601c2f" xlink:title="MAVLink_routing::get\l_targets">
<polygon fill="white" stroke="black" points="186,-49 186,-79 296,-79 296,-49 186,-49"/>
<text text-anchor="start" x="194" y="-67" font-family="Helvetica,sans-Serif" font-size="10.00">MAVLink_routing::get</text>
<text text-anchor="middle" x="241" y="-56" font-family="Helvetica,sans-Serif" font-size="10.00">_targets</text>
</a>
</g>
</g>
<!-- Node1&#45;&gt;Node2 -->
<g id="edge1" class="edge"><title>Node1&#45;&gt;Node2</title>
<path fill="none" stroke="midnightblue" d="M159.779,-51.7712C168.588,-53.114 177.369,-54.4526 185.716,-55.725"/>
<polygon fill="midnightblue" stroke="midnightblue" points="160.257,-48.3037 149.844,-50.2567 159.202,-55.2238 160.257,-48.3037"/>
</g>
<!-- Node6 -->
<g id="node6" class="node"><title>Node6</title>
<g id="a_node6"><a xlink:href="$mavlink__msg__gimbal__report_8h.html#adc4424b76c1840b0c0e7a02eb4f4c497" xlink:title="Decode a gimbal_report message into a struct. ">
<polygon fill="white" stroke="black" points="187,-0 187,-30 295,-30 295,-0 187,-0"/>
<text text-anchor="start" x="195" y="-18" font-family="Helvetica,sans-Serif" font-size="10.00">mavlink_msg_gimbal</text>
<text text-anchor="middle" x="241" y="-7" font-family="Helvetica,sans-Serif" font-size="10.00">_report_decode</text>
</a>
</g>
</g>
<!-- Node1&#45;&gt;Node6 -->
<g id="edge5" class="edge"><title>Node1&#45;&gt;Node6</title>
<path fill="none" stroke="midnightblue" d="M159.767,-26.7414C168.921,-25.4018 178.046,-24.0664 186.685,-22.8022"/>
<polygon fill="midnightblue" stroke="midnightblue" points="159.232,-23.2824 149.844,-28.1936 160.245,-30.2086 159.232,-23.2824"/>
</g>
<!-- Node3 -->
<g id="node3" class="node"><title>Node3</title>
<g id="a_node3"><a xlink:href="$classMAVLink__routing.html#a474038c8ab695c57e23fb6fec4664947" xlink:title="MAVLink_routing::check\l_and_forward">
<polygon fill="white" stroke="black" points="332.5,-49 332.5,-79 455.5,-79 455.5,-49 332.5,-49"/>
<text text-anchor="start" x="340.5" y="-67" font-family="Helvetica,sans-Serif" font-size="10.00">MAVLink_routing::check</text>
<text text-anchor="middle" x="394" y="-56" font-family="Helvetica,sans-Serif" font-size="10.00">_and_forward</text>
</a>
</g>
</g>
<!-- Node2&#45;&gt;Node3 -->
<g id="edge2" class="edge"><title>Node2&#45;&gt;Node3</title>
<path fill="none" stroke="midnightblue" d="M306.164,-64C314.851,-64 323.744,-64 332.367,-64"/>
<polygon fill="midnightblue" stroke="midnightblue" points="306.088,-60.5001 296.088,-64 306.088,-67.5001 306.088,-60.5001"/>
</g>
<!-- Node4 -->
<g id="node4" class="node"><title>Node4</title>
<g id="a_node4"><a xlink:href="$routing_8pde.html#a0b33edabd7f1c4e4a0bf32c67269be2f" xlink:title="loop">
<polygon fill="white" stroke="black" points="543.5,-86.5 543.5,-105.5 578.5,-105.5 578.5,-86.5 543.5,-86.5"/>
<text text-anchor="middle" x="561" y="-93.5" font-family="Helvetica,sans-Serif" font-size="10.00">loop</text>
</a>
</g>
</g>
<!-- Node3&#45;&gt;Node4 -->
<g id="edge3" class="edge"><title>Node3&#45;&gt;Node4</title>
<path fill="none" stroke="midnightblue" d="M465.586,-77.6893C494.391,-83.2758 525.176,-89.2462 543.493,-92.7986"/>
<polygon fill="midnightblue" stroke="midnightblue" points="465.986,-74.2019 455.503,-75.7339 464.654,-81.0739 465.986,-74.2019"/>
</g>
<!-- Node5 -->
<g id="node5" class="node"><title>Node5</title>
<g id="a_node5"><a xlink:href="$classGCS__MAVLINK.html#a7d8788ed53976a200971612229fe2533" xlink:title="GCS_MAVLINK::update">
<polygon fill="white" stroke="black" points="499.5,-48.5 499.5,-67.5 622.5,-67.5 622.5,-48.5 499.5,-48.5"/>
<text text-anchor="middle" x="561" y="-55.5" font-family="Helvetica,sans-Serif" font-size="10.00">GCS_MAVLINK::update</text>
</a>
</g>
</g>
<!-- Node3&#45;&gt;Node5 -->
<g id="edge4" class="edge"><title>Node3&#45;&gt;Node5</title>
<path fill="none" stroke="midnightblue" d="M465.658,-61.4306C476.833,-61.0242 488.304,-60.6071 499.228,-60.2099"/>
<polygon fill="midnightblue" stroke="midnightblue" points="465.369,-57.9387 455.503,-61.7999 465.624,-64.9341 465.369,-57.9387"/>
</g>
<!-- Node7 -->
<g id="node7" class="node"><title>Node7</title>
<g id="a_node7"><a xlink:href="$v1_80_2ardupilotmega_2testsuite_8h.html#aaf13c863258d0b51b182ce4109d55237" xlink:title="mavlink_test_gimbal\l_report">
<polygon fill="white" stroke="black" points="341,-0 341,-30 447,-30 447,-0 341,-0"/>
<text text-anchor="start" x="349" y="-18" font-family="Helvetica,sans-Serif" font-size="10.00">mavlink_test_gimbal</text>
<text text-anchor="middle" x="394" y="-7" font-family="Helvetica,sans-Serif" font-size="10.00">_report</text>
</a>
</g>
</g>
<!-- Node6&#45;&gt;Node7 -->
<g id="edge6" class="edge"><title>Node6&#45;&gt;Node7</title>
<path fill="none" stroke="midnightblue" d="M305.441,-15C317.205,-15 329.369,-15 340.752,-15"/>
<polygon fill="midnightblue" stroke="midnightblue" points="305.237,-11.5001 295.237,-15 305.237,-18.5001 305.237,-11.5001"/>
</g>
<!-- Node8 -->
<g id="node8" class="node"><title>Node8</title>
<g id="a_node8"><a xlink:href="$v1_80_2ardupilotmega_2testsuite_8h.html#ab264d471ac2f46584f2bb580704b5e9d" xlink:title="mavlink_test_ardupilotmega">
<polygon fill="white" stroke="black" points="492,-5.5 492,-24.5 630,-24.5 630,-5.5 492,-5.5"/>
<text text-anchor="middle" x="561" y="-12.5" font-family="Helvetica,sans-Serif" font-size="10.00">mavlink_test_ardupilotmega</text>
</a>
</g>
</g>
<!-- Node7&#45;&gt;Node8 -->
<g id="edge7" class="edge"><title>Node7&#45;&gt;Node8</title>
<path fill="none" stroke="midnightblue" d="M457.367,-15C468.621,-15 480.407,-15 491.816,-15"/>
<polygon fill="midnightblue" stroke="midnightblue" points="457.207,-11.5001 447.207,-15 457.207,-18.5001 457.207,-11.5001"/>
</g>
<!-- Node9 -->
<g id="node9" class="node"><title>Node9</title>
<g id="a_node9"><a xlink:href="$v1_80_2ardupilotmega_2testsuite_8h.html#a4cc77b6c343679298da5d3c2b4e48759" xlink:title="mavlink_test_all">
<polygon fill="white" stroke="black" points="666.5,-5.5 666.5,-24.5 753.5,-24.5 753.5,-5.5 666.5,-5.5"/>
<text text-anchor="middle" x="710" y="-12.5" font-family="Helvetica,sans-Serif" font-size="10.00">mavlink_test_all</text>
</a>
</g>
</g>
<!-- Node8&#45;&gt;Node9 -->
<g id="edge8" class="edge"><title>Node8&#45;&gt;Node9</title>
<path fill="none" stroke="midnightblue" d="M640.438,-15C649.373,-15 658.211,-15 666.42,-15"/>
<polygon fill="midnightblue" stroke="midnightblue" points="640.336,-11.5001 630.336,-15 640.336,-18.5001 640.336,-11.5001"/>
</g>
</g>
</svg>
