<?xml version="1.0" encoding="UTF-8" standalone="no"?>
<!DOCTYPE svg PUBLIC "-//W3C//DTD SVG 1.1//EN"
 "http://www.w3.org/Graphics/SVG/1.1/DTD/svg11.dtd">
<!-- Generated by graphviz version 2.36.0 (20140111.2315)
 -->
<!-- Title: mavlink_msg_battery_status_get_temperature Pages: 1 -->
<svg width="700pt" height="38pt"
 viewBox="0.00 0.00 700.00 38.00" xmlns="http://www.w3.org/2000/svg" xmlns:xlink="http://www.w3.org/1999/xlink">
<g id="graph0" class="graph" transform="scale(1 1) rotate(0) translate(4 34)">
<title>mavlink_msg_battery_status_get_temperature</title>
<polygon fill="white" stroke="none" points="-4,4 -4,-34 696,-34 696,4 -4,4"/>
<!-- Node1 -->
<g id="node1" class="node"><title>Node1</title>
<polygon fill="#bfbfbf" stroke="black" points="0.5,-0 0.5,-30 125.5,-30 125.5,-0 0.5,-0"/>
<text text-anchor="start" x="8.5" y="-18" font-family="Helvetica,sans-Serif" font-size="10.00">mavlink_msg_battery</text>
<text text-anchor="middle" x="63" y="-7" font-family="Helvetica,sans-Serif" font-size="10.00">_status_get_temperature</text>
</g>
<!-- Node2 -->
<g id="node2" class="node"><title>Node2</title>
<g id="a_node2"><a xlink:href="$mavlink__msg__battery__status_8h.html#a2f68f4c93b474c8894a70068259f4ea4" xlink:title="Decode a battery_status message into a struct. ">
<polygon fill="white" stroke="black" points="162,-0 162,-30 272,-30 272,-0 162,-0"/>
<text text-anchor="start" x="170" y="-18" font-family="Helvetica,sans-Serif" font-size="10.00">mavlink_msg_battery</text>
<text text-anchor="middle" x="217" y="-7" font-family="Helvetica,sans-Serif" font-size="10.00">_status_decode</text>
</a>
</g>
</g>
<!-- Node1&#45;&gt;Node2 -->
<g id="edge1" class="edge"><title>Node1&#45;&gt;Node2</title>
<path fill="none" stroke="midnightblue" d="M135.897,-15C144.527,-15 153.229,-15 161.554,-15"/>
<polygon fill="midnightblue" stroke="midnightblue" points="135.824,-11.5001 125.824,-15 135.824,-18.5001 135.824,-11.5001"/>
</g>
<!-- Node3 -->
<g id="node3" class="node"><title>Node3</title>
<g id="a_node3"><a xlink:href="$v1_80_2common_2testsuite_8h.html#ab2fba288dbbf083b8274790d5e26ad80" xlink:title="mavlink_test_battery\l_status">
<polygon fill="white" stroke="black" points="308.5,-0 308.5,-30 415.5,-30 415.5,-0 308.5,-0"/>
<text text-anchor="start" x="316.5" y="-18" font-family="Helvetica,sans-Serif" font-size="10.00">mavlink_test_battery</text>
<text text-anchor="middle" x="362" y="-7" font-family="Helvetica,sans-Serif" font-size="10.00">_status</text>
</a>
</g>
</g>
<!-- Node2&#45;&gt;Node3 -->
<g id="edge2" class="edge"><title>Node2&#45;&gt;Node3</title>
<path fill="none" stroke="midnightblue" d="M282.203,-15C290.925,-15 299.794,-15 308.282,-15"/>
<polygon fill="midnightblue" stroke="midnightblue" points="282.062,-11.5001 272.062,-15 282.062,-18.5001 282.062,-11.5001"/>
</g>
<!-- Node4 -->
<g id="node4" class="node"><title>Node4</title>
<g id="a_node4"><a xlink:href="$v1_80_2common_2testsuite_8h.html#af349432601ac003d2c80a69c100c70a4" xlink:title="mavlink_test_common">
<polygon fill="white" stroke="black" points="452.5,-5.5 452.5,-24.5 567.5,-24.5 567.5,-5.5 452.5,-5.5"/>
<text text-anchor="middle" x="510" y="-12.5" font-family="Helvetica,sans-Serif" font-size="10.00">mavlink_test_common</text>
</a>
</g>
</g>
<!-- Node3&#45;&gt;Node4 -->
<g id="edge3" class="edge"><title>Node3&#45;&gt;Node4</title>
<path fill="none" stroke="midnightblue" d="M425.926,-15C434.734,-15 443.741,-15 452.422,-15"/>
<polygon fill="midnightblue" stroke="midnightblue" points="425.709,-11.5001 415.709,-15 425.709,-18.5001 425.709,-11.5001"/>
</g>
<!-- Node5 -->
<g id="node5" class="node"><title>Node5</title>
<g id="a_node5"><a xlink:href="$v1_80_2common_2testsuite_8h.html#a4cc77b6c343679298da5d3c2b4e48759" xlink:title="mavlink_test_all">
<polygon fill="white" stroke="black" points="604.5,-5.5 604.5,-24.5 691.5,-24.5 691.5,-5.5 604.5,-5.5"/>
<text text-anchor="middle" x="648" y="-12.5" font-family="Helvetica,sans-Serif" font-size="10.00">mavlink_test_all</text>
</a>
</g>
</g>
<!-- Node4&#45;&gt;Node5 -->
<g id="edge4" class="edge"><title>Node4&#45;&gt;Node5</title>
<path fill="none" stroke="midnightblue" d="M577.996,-15C586.988,-15 596.003,-15 604.412,-15"/>
<polygon fill="midnightblue" stroke="midnightblue" points="577.888,-11.5001 567.888,-15 577.888,-18.5001 577.888,-11.5001"/>
</g>
</g>
</svg>
