<?xml version="1.0" encoding="UTF-8" standalone="no"?>
<!DOCTYPE svg PUBLIC "-//W3C//DTD SVG 1.1//EN"
 "http://www.w3.org/Graphics/SVG/1.1/DTD/svg11.dtd">
<!-- Generated by graphviz version 2.36.0 (20140111.2315)
 -->
<!-- Title: mavlink_msg_gps2_raw_decode Pages: 1 -->
<svg width="288pt" height="577pt"
 viewBox="0.00 0.00 288.00 577.00" xmlns="http://www.w3.org/2000/svg" xmlns:xlink="http://www.w3.org/1999/xlink">
<g id="graph0" class="graph" transform="scale(1 1) rotate(0) translate(4 573)">
<title>mavlink_msg_gps2_raw_decode</title>
<polygon fill="white" stroke="none" points="-4,4 -4,-573 284,-573 284,4 -4,4"/>
<!-- Node1 -->
<g id="node1" class="node"><title>Node1</title>
<polygon fill="#bfbfbf" stroke="black" points="0,-269 0,-299 122,-299 122,-269 0,-269"/>
<text text-anchor="start" x="8" y="-287" font-family="Helvetica,sans-Serif" font-size="10.00">mavlink_msg_gps2_raw</text>
<text text-anchor="middle" x="61" y="-276" font-family="Helvetica,sans-Serif" font-size="10.00">_decode</text>
</g>
<!-- Node2 -->
<g id="node2" class="node"><title>Node2</title>
<g id="a_node2"><a xlink:href="$mavlink__msg__gps2__raw_8h.html#a86abc053b53caf95a8603573e67f46dd" xlink:title="Send a gps2_raw message. ">
<polygon fill="white" stroke="black" points="158,-539 158,-569 280,-569 280,-539 158,-539"/>
<text text-anchor="start" x="166" y="-557" font-family="Helvetica,sans-Serif" font-size="10.00">mavlink_msg_gps2_raw</text>
<text text-anchor="middle" x="219" y="-546" font-family="Helvetica,sans-Serif" font-size="10.00">_get_time_usec</text>
</a>
</g>
</g>
<!-- Node1&#45;&gt;Node2 -->
<g id="edge1" class="edge"><title>Node1&#45;&gt;Node2</title>
<path fill="none" stroke="midnightblue" d="M63.807,-299.144C69.5942,-341.224 91.3706,-460.933 158,-529 159.421,-530.452 160.939,-531.823 162.533,-533.117"/>
<polygon fill="midnightblue" stroke="midnightblue" points="160.819,-536.187 171.041,-538.973 164.788,-530.421 160.819,-536.187"/>
</g>
<!-- Node3 -->
<g id="node3" class="node"><title>Node3</title>
<g id="a_node3"><a xlink:href="$mavlink__msg__gps2__raw_8h.html#ab23ca4bfc7351e6a4fa7b613204b7961" xlink:title="Get field lat from gps2_raw message. ">
<polygon fill="white" stroke="black" points="158,-490 158,-520 280,-520 280,-490 158,-490"/>
<text text-anchor="start" x="166" y="-508" font-family="Helvetica,sans-Serif" font-size="10.00">mavlink_msg_gps2_raw</text>
<text text-anchor="middle" x="219" y="-497" font-family="Helvetica,sans-Serif" font-size="10.00">_get_lat</text>
</a>
</g>
</g>
<!-- Node1&#45;&gt;Node3 -->
<g id="edge2" class="edge"><title>Node1&#45;&gt;Node3</title>
<path fill="none" stroke="midnightblue" d="M65.5049,-299.213C74.5783,-335.383 102.125,-427.416 158,-480 159.636,-481.54 161.38,-482.991 163.206,-484.358"/>
<polygon fill="midnightblue" stroke="midnightblue" points="161.356,-487.33 171.651,-489.83 165.162,-481.455 161.356,-487.33"/>
</g>
<!-- Node4 -->
<g id="node4" class="node"><title>Node4</title>
<g id="a_node4"><a xlink:href="$mavlink__msg__gps2__raw_8h.html#ad52389aadf260c6a62f88290467f2bdc" xlink:title="Get field lon from gps2_raw message. ">
<polygon fill="white" stroke="black" points="158,-441 158,-471 280,-471 280,-441 158,-441"/>
<text text-anchor="start" x="166" y="-459" font-family="Helvetica,sans-Serif" font-size="10.00">mavlink_msg_gps2_raw</text>
<text text-anchor="middle" x="219" y="-448" font-family="Helvetica,sans-Serif" font-size="10.00">_get_lon</text>
</a>
</g>
</g>
<!-- Node1&#45;&gt;Node4 -->
<g id="edge3" class="edge"><title>Node1&#45;&gt;Node4</title>
<path fill="none" stroke="midnightblue" d="M68.1635,-299.039C80.8432,-328.271 112.527,-393.199 158,-431 160.012,-432.673 162.152,-434.248 164.38,-435.728"/>
<polygon fill="midnightblue" stroke="midnightblue" points="162.931,-438.936 173.326,-440.983 166.476,-432.901 162.931,-438.936"/>
</g>
<!-- Node5 -->
<g id="node5" class="node"><title>Node5</title>
<g id="a_node5"><a xlink:href="$mavlink__msg__gps2__raw_8h.html#a743645c2cee3af87468a519e7c817f64" xlink:title="Get field alt from gps2_raw message. ">
<polygon fill="white" stroke="black" points="158,-392 158,-422 280,-422 280,-392 158,-392"/>
<text text-anchor="start" x="166" y="-410" font-family="Helvetica,sans-Serif" font-size="10.00">mavlink_msg_gps2_raw</text>
<text text-anchor="middle" x="219" y="-399" font-family="Helvetica,sans-Serif" font-size="10.00">_get_alt</text>
</a>
</g>
</g>
<!-- Node1&#45;&gt;Node5 -->
<g id="edge4" class="edge"><title>Node1&#45;&gt;Node5</title>
<path fill="none" stroke="midnightblue" d="M73.5292,-299.129C90.1971,-320.135 122.897,-358.229 158,-382 160.71,-383.835 163.575,-385.575 166.527,-387.218"/>
<polygon fill="midnightblue" stroke="midnightblue" points="165.074,-390.406 175.57,-391.854 168.268,-384.177 165.074,-390.406"/>
</g>
<!-- Node6 -->
<g id="node6" class="node"><title>Node6</title>
<g id="a_node6"><a xlink:href="$mavlink__msg__gps2__raw_8h.html#afadc97efbdc550f45a5b8029c4d0dba1" xlink:title="Get field dgps_age from gps2_raw message. ">
<polygon fill="white" stroke="black" points="158,-343 158,-373 280,-373 280,-343 158,-343"/>
<text text-anchor="start" x="166" y="-361" font-family="Helvetica,sans-Serif" font-size="10.00">mavlink_msg_gps2_raw</text>
<text text-anchor="middle" x="219" y="-350" font-family="Helvetica,sans-Serif" font-size="10.00">_get_dgps_age</text>
</a>
</g>
</g>
<!-- Node1&#45;&gt;Node6 -->
<g id="edge5" class="edge"><title>Node1&#45;&gt;Node6</title>
<path fill="none" stroke="midnightblue" d="M90.2814,-299.162C109.254,-309.152 134.904,-322.313 158,-333 162.317,-334.998 166.84,-337.015 171.383,-338.992"/>
<polygon fill="midnightblue" stroke="midnightblue" points="170.107,-342.253 180.678,-342.974 172.864,-335.819 170.107,-342.253"/>
</g>
<!-- Node7 -->
<g id="node7" class="node"><title>Node7</title>
<g id="a_node7"><a xlink:href="$mavlink__msg__gps2__raw_8h.html#a239344fea4f9280890e7003aabcbdba2" xlink:title="Get field eph from gps2_raw message. ">
<polygon fill="white" stroke="black" points="158,-294 158,-324 280,-324 280,-294 158,-294"/>
<text text-anchor="start" x="166" y="-312" font-family="Helvetica,sans-Serif" font-size="10.00">mavlink_msg_gps2_raw</text>
<text text-anchor="middle" x="219" y="-301" font-family="Helvetica,sans-Serif" font-size="10.00">_get_eph</text>
</a>
</g>
</g>
<!-- Node1&#45;&gt;Node7 -->
<g id="edge6" class="edge"><title>Node1&#45;&gt;Node7</title>
<path fill="none" stroke="midnightblue" d="M122.314,-293.666C130.695,-295.009 139.363,-296.398 147.904,-297.767"/>
<polygon fill="midnightblue" stroke="midnightblue" points="147.419,-301.233 157.847,-299.36 148.527,-294.322 147.419,-301.233"/>
</g>
<!-- Node8 -->
<g id="node8" class="node"><title>Node8</title>
<g id="a_node8"><a xlink:href="$mavlink__msg__gps2__raw_8h.html#a7f1f4ad45c76b529eeb4cf0854ce3e12" xlink:title="Get field epv from gps2_raw message. ">
<polygon fill="white" stroke="black" points="158,-245 158,-275 280,-275 280,-245 158,-245"/>
<text text-anchor="start" x="166" y="-263" font-family="Helvetica,sans-Serif" font-size="10.00">mavlink_msg_gps2_raw</text>
<text text-anchor="middle" x="219" y="-252" font-family="Helvetica,sans-Serif" font-size="10.00">_get_epv</text>
</a>
</g>
</g>
<!-- Node1&#45;&gt;Node8 -->
<g id="edge7" class="edge"><title>Node1&#45;&gt;Node8</title>
<path fill="none" stroke="midnightblue" d="M122.314,-274.721C130.695,-273.432 139.363,-272.098 147.904,-270.784"/>
<polygon fill="midnightblue" stroke="midnightblue" points="148.495,-274.234 157.847,-269.254 147.431,-267.316 148.495,-274.234"/>
</g>
<!-- Node9 -->
<g id="node9" class="node"><title>Node9</title>
<g id="a_node9"><a xlink:href="$mavlink__msg__gps2__raw_8h.html#ae356530b7399287c9ce3912cb7096b13" xlink:title="Get field vel from gps2_raw message. ">
<polygon fill="white" stroke="black" points="158,-196 158,-226 280,-226 280,-196 158,-196"/>
<text text-anchor="start" x="166" y="-214" font-family="Helvetica,sans-Serif" font-size="10.00">mavlink_msg_gps2_raw</text>
<text text-anchor="middle" x="219" y="-203" font-family="Helvetica,sans-Serif" font-size="10.00">_get_vel</text>
</a>
</g>
</g>
<!-- Node1&#45;&gt;Node9 -->
<g id="edge8" class="edge"><title>Node1&#45;&gt;Node9</title>
<path fill="none" stroke="midnightblue" d="M90.7361,-268.983C109.68,-259.245 135.126,-246.469 158,-236 162.326,-234.02 166.854,-232.015 171.4,-230.045"/>
<polygon fill="midnightblue" stroke="midnightblue" points="172.878,-233.22 180.7,-226.074 170.128,-226.783 172.878,-233.22"/>
</g>
<!-- Node10 -->
<g id="node10" class="node"><title>Node10</title>
<g id="a_node10"><a xlink:href="$mavlink__msg__gps2__raw_8h.html#aa26019adca728911e7822617729456ec" xlink:title="Get field cog from gps2_raw message. ">
<polygon fill="white" stroke="black" points="158,-147 158,-177 280,-177 280,-147 158,-147"/>
<text text-anchor="start" x="166" y="-165" font-family="Helvetica,sans-Serif" font-size="10.00">mavlink_msg_gps2_raw</text>
<text text-anchor="middle" x="219" y="-154" font-family="Helvetica,sans-Serif" font-size="10.00">_get_cog</text>
</a>
</g>
</g>
<!-- Node1&#45;&gt;Node10 -->
<g id="edge9" class="edge"><title>Node1&#45;&gt;Node10</title>
<path fill="none" stroke="midnightblue" d="M73.8463,-268.682C90.6393,-247.828 123.215,-210.426 158,-187 160.848,-185.082 163.866,-183.267 166.973,-181.558"/>
<polygon fill="midnightblue" stroke="midnightblue" points="168.573,-184.671 175.903,-177.021 165.402,-178.43 168.573,-184.671"/>
</g>
<!-- Node11 -->
<g id="node11" class="node"><title>Node11</title>
<g id="a_node11"><a xlink:href="$mavlink__msg__gps2__raw_8h.html#a238ff4df877d183435175ae041d55f5c" xlink:title="Get field fix_type from gps2_raw message. ">
<polygon fill="white" stroke="black" points="158,-98 158,-128 280,-128 280,-98 158,-98"/>
<text text-anchor="start" x="166" y="-116" font-family="Helvetica,sans-Serif" font-size="10.00">mavlink_msg_gps2_raw</text>
<text text-anchor="middle" x="219" y="-105" font-family="Helvetica,sans-Serif" font-size="10.00">_get_fix_type</text>
</a>
</g>
</g>
<!-- Node1&#45;&gt;Node11 -->
<g id="edge10" class="edge"><title>Node1&#45;&gt;Node11</title>
<path fill="none" stroke="midnightblue" d="M68.3896,-268.613C81.2475,-239.369 112.918,-175.357 158,-138 160.015,-136.33 162.157,-134.758 164.387,-133.279"/>
<polygon fill="midnightblue" stroke="midnightblue" points="166.482,-136.108 173.338,-128.03 162.941,-130.07 166.482,-136.108"/>
</g>
<!-- Node12 -->
<g id="node12" class="node"><title>Node12</title>
<g id="a_node12"><a xlink:href="$mavlink__msg__gps2__raw_8h.html#a3537c708c489a259c4e418d9815e49e8" xlink:title="Get field satellites_visible from gps2_raw message. ">
<polygon fill="white" stroke="black" points="158,-49 158,-79 280,-79 280,-49 158,-49"/>
<text text-anchor="start" x="166" y="-67" font-family="Helvetica,sans-Serif" font-size="10.00">mavlink_msg_gps2_raw</text>
<text text-anchor="middle" x="219" y="-56" font-family="Helvetica,sans-Serif" font-size="10.00">_get_satellites_visible</text>
</a>
</g>
</g>
<!-- Node1&#45;&gt;Node12 -->
<g id="edge11" class="edge"><title>Node1&#45;&gt;Node12</title>
<path fill="none" stroke="midnightblue" d="M65.528,-268.864C74.6522,-232.877 102.302,-141.312 158,-89 159.671,-87.4308 161.454,-85.9531 163.322,-84.5625"/>
<polygon fill="midnightblue" stroke="midnightblue" points="165.443,-87.3598 171.962,-79.0078 161.657,-81.4717 165.443,-87.3598"/>
</g>
<!-- Node13 -->
<g id="node13" class="node"><title>Node13</title>
<g id="a_node13"><a xlink:href="$mavlink__msg__gps2__raw_8h.html#a0ed3d24d202330cf7a92316e54908385" xlink:title="Get field dgps_numch from gps2_raw message. ">
<polygon fill="white" stroke="black" points="158,-0 158,-30 280,-30 280,-0 158,-0"/>
<text text-anchor="start" x="166" y="-18" font-family="Helvetica,sans-Serif" font-size="10.00">mavlink_msg_gps2_raw</text>
<text text-anchor="middle" x="219" y="-7" font-family="Helvetica,sans-Serif" font-size="10.00">_get_dgps_numch</text>
</a>
</g>
</g>
<!-- Node1&#45;&gt;Node13 -->
<g id="edge12" class="edge"><title>Node1&#45;&gt;Node13</title>
<path fill="none" stroke="midnightblue" d="M63.8265,-268.917C69.6641,-227.006 91.5591,-107.78 158,-40 159.422,-38.5494 160.94,-37.1793 162.535,-35.8853"/>
<polygon fill="midnightblue" stroke="midnightblue" points="164.79,-38.5824 171.047,-30.0321 160.824,-32.8146 164.79,-38.5824"/>
</g>
</g>
</svg>
