<?xml version="1.0" encoding="UTF-8" standalone="no"?>
<!DOCTYPE svg PUBLIC "-//W3C//DTD SVG 1.1//EN"
 "http://www.w3.org/Graphics/SVG/1.1/DTD/svg11.dtd">
<!-- Generated by graphviz version 2.36.0 (20140111.2315)
 -->
<!-- Title: mavlink_msg_manual_setpoint_decode Pages: 1 -->
<svg width="298pt" height="342pt"
 viewBox="0.00 0.00 298.00 342.00" xmlns="http://www.w3.org/2000/svg" xmlns:xlink="http://www.w3.org/1999/xlink">
<g id="graph0" class="graph" transform="scale(1 1) rotate(0) translate(4 338)">
<title>mavlink_msg_manual_setpoint_decode</title>
<polygon fill="white" stroke="none" points="-4,4 -4,-338 294,-338 294,4 -4,4"/>
<!-- Node1 -->
<g id="node1" class="node"><title>Node1</title>
<polygon fill="#bfbfbf" stroke="black" points="0.5,-157 0.5,-187 111.5,-187 111.5,-157 0.5,-157"/>
<text text-anchor="start" x="8.5" y="-175" font-family="Helvetica,sans-Serif" font-size="10.00">mavlink_msg_manual</text>
<text text-anchor="middle" x="56" y="-164" font-family="Helvetica,sans-Serif" font-size="10.00">_setpoint_decode</text>
</g>
<!-- Node2 -->
<g id="node2" class="node"><title>Node2</title>
<g id="a_node2"><a xlink:href="$mavlink__msg__manual__setpoint_8h.html#a46d17db5376ef9354cdd4e481c7e07ed" xlink:title="Send a manual_setpoint message. ">
<polygon fill="white" stroke="black" points="148,-304 148,-334 290,-334 290,-304 148,-304"/>
<text text-anchor="start" x="156" y="-322" font-family="Helvetica,sans-Serif" font-size="10.00">mavlink_msg_manual</text>
<text text-anchor="middle" x="219" y="-311" font-family="Helvetica,sans-Serif" font-size="10.00">_setpoint_get_time_boot_ms</text>
</a>
</g>
</g>
<!-- Node1&#45;&gt;Node2 -->
<g id="edge1" class="edge"><title>Node1&#45;&gt;Node2</title>
<path fill="none" stroke="midnightblue" d="M64.3948,-187.001C77.6998,-212.519 108.05,-264.474 148,-294 150.513,-295.858 153.178,-297.587 155.942,-299.197"/>
<polygon fill="midnightblue" stroke="midnightblue" points="154.561,-302.424 165.048,-303.938 157.794,-296.216 154.561,-302.424"/>
</g>
<!-- Node3 -->
<g id="node3" class="node"><title>Node3</title>
<g id="a_node3"><a xlink:href="$mavlink__msg__manual__setpoint_8h.html#a63935b74b5d218e76c48f4f4417f479d" xlink:title="Get field roll from manual_setpoint message. ">
<polygon fill="white" stroke="black" points="163.5,-255 163.5,-285 274.5,-285 274.5,-255 163.5,-255"/>
<text text-anchor="start" x="171.5" y="-273" font-family="Helvetica,sans-Serif" font-size="10.00">mavlink_msg_manual</text>
<text text-anchor="middle" x="219" y="-262" font-family="Helvetica,sans-Serif" font-size="10.00">_setpoint_get_roll</text>
</a>
</g>
</g>
<!-- Node1&#45;&gt;Node3 -->
<g id="edge2" class="edge"><title>Node1&#45;&gt;Node3</title>
<path fill="none" stroke="midnightblue" d="M72.5761,-187.23C89.8123,-203.395 119.003,-228.798 148,-245 151.739,-247.089 155.684,-249.057 159.721,-250.899"/>
<polygon fill="midnightblue" stroke="midnightblue" points="158.677,-254.259 169.248,-254.969 161.427,-247.822 158.677,-254.259"/>
</g>
<!-- Node4 -->
<g id="node4" class="node"><title>Node4</title>
<g id="a_node4"><a xlink:href="$mavlink__msg__manual__setpoint_8h.html#aa331043bef24e3ad7a9a9c4158925e16" xlink:title="Get field pitch from manual_setpoint message. ">
<polygon fill="white" stroke="black" points="163.5,-206 163.5,-236 274.5,-236 274.5,-206 163.5,-206"/>
<text text-anchor="start" x="171.5" y="-224" font-family="Helvetica,sans-Serif" font-size="10.00">mavlink_msg_manual</text>
<text text-anchor="middle" x="219" y="-213" font-family="Helvetica,sans-Serif" font-size="10.00">_setpoint_get_pitch</text>
</a>
</g>
</g>
<!-- Node1&#45;&gt;Node4 -->
<g id="edge3" class="edge"><title>Node1&#45;&gt;Node4</title>
<path fill="none" stroke="midnightblue" d="M106.619,-187.101C123.07,-192.108 141.549,-197.732 158.657,-202.939"/>
<polygon fill="midnightblue" stroke="midnightblue" points="157.959,-206.385 168.545,-205.948 159.997,-199.688 157.959,-206.385"/>
</g>
<!-- Node5 -->
<g id="node5" class="node"><title>Node5</title>
<g id="a_node5"><a xlink:href="$mavlink__msg__manual__setpoint_8h.html#aceef7f2e4ef94dabbe18f4fd946ccddf" xlink:title="Get field yaw from manual_setpoint message. ">
<polygon fill="white" stroke="black" points="163.5,-157 163.5,-187 274.5,-187 274.5,-157 163.5,-157"/>
<text text-anchor="start" x="171.5" y="-175" font-family="Helvetica,sans-Serif" font-size="10.00">mavlink_msg_manual</text>
<text text-anchor="middle" x="219" y="-164" font-family="Helvetica,sans-Serif" font-size="10.00">_setpoint_get_yaw</text>
</a>
</g>
</g>
<!-- Node1&#45;&gt;Node5 -->
<g id="edge4" class="edge"><title>Node1&#45;&gt;Node5</title>
<path fill="none" stroke="midnightblue" d="M111.507,-172C124.81,-172 139.175,-172 152.916,-172"/>
<polygon fill="midnightblue" stroke="midnightblue" points="153.275,-175.5 163.275,-172 153.275,-168.5 153.275,-175.5"/>
</g>
<!-- Node6 -->
<g id="node6" class="node"><title>Node6</title>
<g id="a_node6"><a xlink:href="$mavlink__msg__manual__setpoint_8h.html#a90d5f466ae1d1971335f74985869c91f" xlink:title="Get field thrust from manual_setpoint message. ">
<polygon fill="white" stroke="black" points="163.5,-108 163.5,-138 274.5,-138 274.5,-108 163.5,-108"/>
<text text-anchor="start" x="171.5" y="-126" font-family="Helvetica,sans-Serif" font-size="10.00">mavlink_msg_manual</text>
<text text-anchor="middle" x="219" y="-115" font-family="Helvetica,sans-Serif" font-size="10.00">_setpoint_get_thrust</text>
</a>
</g>
</g>
<!-- Node1&#45;&gt;Node6 -->
<g id="edge5" class="edge"><title>Node1&#45;&gt;Node6</title>
<path fill="none" stroke="midnightblue" d="M106.619,-156.899C123.07,-151.892 141.549,-146.268 158.657,-141.061"/>
<polygon fill="midnightblue" stroke="midnightblue" points="159.997,-144.312 168.545,-138.052 157.959,-137.615 159.997,-144.312"/>
</g>
<!-- Node7 -->
<g id="node7" class="node"><title>Node7</title>
<g id="a_node7"><a xlink:href="$mavlink__msg__manual__setpoint_8h.html#a3403f756b9ba807d27bcb087e56f7dc6" xlink:title="Get field mode_switch from manual_setpoint message. ">
<polygon fill="white" stroke="black" points="150,-59 150,-89 288,-89 288,-59 150,-59"/>
<text text-anchor="start" x="158" y="-77" font-family="Helvetica,sans-Serif" font-size="10.00">mavlink_msg_manual</text>
<text text-anchor="middle" x="219" y="-66" font-family="Helvetica,sans-Serif" font-size="10.00">_setpoint_get_mode_switch</text>
</a>
</g>
</g>
<!-- Node1&#45;&gt;Node7 -->
<g id="edge6" class="edge"><title>Node1&#45;&gt;Node7</title>
<path fill="none" stroke="midnightblue" d="M72.5761,-156.77C89.8123,-140.605 119.003,-115.202 148,-99 151.739,-96.911 155.684,-94.9434 159.721,-93.1009"/>
<polygon fill="midnightblue" stroke="midnightblue" points="161.427,-96.1779 169.248,-89.0306 158.677,-89.7407 161.427,-96.1779"/>
</g>
<!-- Node8 -->
<g id="node8" class="node"><title>Node8</title>
<g id="a_node8"><a xlink:href="$mavlink__msg__manual__setpoint_8h.html#a9ed8618cfa15dff780a6067039864bec" xlink:title="Get field manual_override_switch from manual_setpoint message. ">
<polygon fill="white" stroke="black" points="163,0.5 163,-40.5 275,-40.5 275,0.5 163,0.5"/>
<text text-anchor="start" x="171" y="-28.5" font-family="Helvetica,sans-Serif" font-size="10.00">mavlink_msg_manual</text>
<text text-anchor="start" x="171" y="-17.5" font-family="Helvetica,sans-Serif" font-size="10.00">_setpoint_get_manual</text>
<text text-anchor="middle" x="219" y="-6.5" font-family="Helvetica,sans-Serif" font-size="10.00">_override_switch</text>
</a>
</g>
</g>
<!-- Node1&#45;&gt;Node8 -->
<g id="edge7" class="edge"><title>Node1&#45;&gt;Node8</title>
<path fill="none" stroke="midnightblue" d="M64.8107,-156.854C78.5229,-131.584 109.19,-80.5839 148,-50 149.999,-48.4246 152.093,-46.9166 154.257,-45.4746"/>
<polygon fill="midnightblue" stroke="midnightblue" points="156.157,-48.4155 162.894,-40.2377 152.528,-42.4299 156.157,-48.4155"/>
</g>
</g>
</svg>
