<?xml version="1.0" encoding="UTF-8" standalone="no"?>
<!DOCTYPE svg PUBLIC "-//W3C//DTD SVG 1.1//EN"
 "http://www.w3.org/Graphics/SVG/1.1/DTD/svg11.dtd">
<!-- Generated by graphviz version 2.36.0 (20140111.2315)
 -->
<!-- Title: mavlink_msg_encapsulated_data_get_seqnr Pages: 1 -->
<svg width="792pt" height="38pt"
 viewBox="0.00 0.00 792.00 38.00" xmlns="http://www.w3.org/2000/svg" xmlns:xlink="http://www.w3.org/1999/xlink">
<g id="graph0" class="graph" transform="scale(1 1) rotate(0) translate(4 34)">
<title>mavlink_msg_encapsulated_data_get_seqnr</title>
<polygon fill="white" stroke="none" points="-4,4 -4,-34 788,-34 788,4 -4,4"/>
<!-- Node1 -->
<g id="node1" class="node"><title>Node1</title>
<polygon fill="#bfbfbf" stroke="black" points="0.5,-0 0.5,-30 137.5,-30 137.5,-0 0.5,-0"/>
<text text-anchor="start" x="8.5" y="-18" font-family="Helvetica,sans-Serif" font-size="10.00">mavlink_msg_encapsulated</text>
<text text-anchor="middle" x="69" y="-7" font-family="Helvetica,sans-Serif" font-size="10.00">_data_get_seqnr</text>
</g>
<!-- Node2 -->
<g id="node2" class="node"><title>Node2</title>
<g id="a_node2"><a xlink:href="$mavlink__msg__encapsulated__data_8h.html#ac4af484d66b9cfbe8d5b745470376d02" xlink:title="Decode a encapsulated_data message into a struct. ">
<polygon fill="white" stroke="black" points="174.5,-0 174.5,-30 311.5,-30 311.5,-0 174.5,-0"/>
<text text-anchor="start" x="182.5" y="-18" font-family="Helvetica,sans-Serif" font-size="10.00">mavlink_msg_encapsulated</text>
<text text-anchor="middle" x="243" y="-7" font-family="Helvetica,sans-Serif" font-size="10.00">_data_decode</text>
</a>
</g>
</g>
<!-- Node1&#45;&gt;Node2 -->
<g id="edge1" class="edge"><title>Node1&#45;&gt;Node2</title>
<path fill="none" stroke="midnightblue" d="M148.134,-15C156.846,-15 165.666,-15 174.233,-15"/>
<polygon fill="midnightblue" stroke="midnightblue" points="147.979,-11.5001 137.979,-15 147.979,-18.5001 147.979,-11.5001"/>
</g>
<!-- Node3 -->
<g id="node3" class="node"><title>Node3</title>
<g id="a_node3"><a xlink:href="$v1_80_2common_2testsuite_8h.html#a95b55373e70e02fc142aa23cb72c4e8e" xlink:title="mavlink_test_encapsulated_data">
<polygon fill="white" stroke="black" points="348.5,-5.5 348.5,-24.5 507.5,-24.5 507.5,-5.5 348.5,-5.5"/>
<text text-anchor="middle" x="428" y="-12.5" font-family="Helvetica,sans-Serif" font-size="10.00">mavlink_test_encapsulated_data</text>
</a>
</g>
</g>
<!-- Node2&#45;&gt;Node3 -->
<g id="edge2" class="edge"><title>Node2&#45;&gt;Node3</title>
<path fill="none" stroke="midnightblue" d="M321.792,-15C330.538,-15 339.455,-15 348.214,-15"/>
<polygon fill="midnightblue" stroke="midnightblue" points="321.623,-11.5001 311.623,-15 321.622,-18.5001 321.623,-11.5001"/>
</g>
<!-- Node4 -->
<g id="node4" class="node"><title>Node4</title>
<g id="a_node4"><a xlink:href="$v1_80_2common_2testsuite_8h.html#af349432601ac003d2c80a69c100c70a4" xlink:title="mavlink_test_common">
<polygon fill="white" stroke="black" points="544.5,-5.5 544.5,-24.5 659.5,-24.5 659.5,-5.5 544.5,-5.5"/>
<text text-anchor="middle" x="602" y="-12.5" font-family="Helvetica,sans-Serif" font-size="10.00">mavlink_test_common</text>
</a>
</g>
</g>
<!-- Node3&#45;&gt;Node4 -->
<g id="edge3" class="edge"><title>Node3&#45;&gt;Node4</title>
<path fill="none" stroke="midnightblue" d="M517.884,-15C526.906,-15 535.886,-15 544.426,-15"/>
<polygon fill="midnightblue" stroke="midnightblue" points="517.701,-11.5001 507.701,-15 517.701,-18.5001 517.701,-11.5001"/>
</g>
<!-- Node5 -->
<g id="node5" class="node"><title>Node5</title>
<g id="a_node5"><a xlink:href="$v1_80_2common_2testsuite_8h.html#a4cc77b6c343679298da5d3c2b4e48759" xlink:title="mavlink_test_all">
<polygon fill="white" stroke="black" points="696.5,-5.5 696.5,-24.5 783.5,-24.5 783.5,-5.5 696.5,-5.5"/>
<text text-anchor="middle" x="740" y="-12.5" font-family="Helvetica,sans-Serif" font-size="10.00">mavlink_test_all</text>
</a>
</g>
</g>
<!-- Node4&#45;&gt;Node5 -->
<g id="edge4" class="edge"><title>Node4&#45;&gt;Node5</title>
<path fill="none" stroke="midnightblue" d="M669.996,-15C678.988,-15 688.003,-15 696.412,-15"/>
<polygon fill="midnightblue" stroke="midnightblue" points="669.888,-11.5001 659.888,-15 669.888,-18.5001 669.888,-11.5001"/>
</g>
</g>
</svg>
