<?xml version="1.0" encoding="UTF-8" standalone="no"?>
<!DOCTYPE svg PUBLIC "-//W3C//DTD SVG 1.1//EN"
 "http://www.w3.org/Graphics/SVG/1.1/DTD/svg11.dtd">
<!-- Generated by graphviz version 2.36.0 (20140111.2315)
 -->
<!-- Title: mavlink_msg_roll_pitch_yaw_thrust_setpoint_decode Pages: 1 -->
<svg width="346pt" height="255pt"
 viewBox="0.00 0.00 346.00 255.00" xmlns="http://www.w3.org/2000/svg" xmlns:xlink="http://www.w3.org/1999/xlink">
<g id="graph0" class="graph" transform="scale(1 1) rotate(0) translate(4 251)">
<title>mavlink_msg_roll_pitch_yaw_thrust_setpoint_decode</title>
<polygon fill="white" stroke="none" points="-4,4 -4,-251 342,-251 342,4 -4,4"/>
<!-- Node1 -->
<g id="node1" class="node"><title>Node1</title>
<polygon fill="#bfbfbf" stroke="black" points="0,-108 0,-138 146,-138 146,-108 0,-108"/>
<text text-anchor="start" x="8" y="-126" font-family="Helvetica,sans-Serif" font-size="10.00">mavlink_msg_roll_pitch</text>
<text text-anchor="middle" x="73" y="-115" font-family="Helvetica,sans-Serif" font-size="10.00">_yaw_thrust_setpoint_decode</text>
</g>
<!-- Node2 -->
<g id="node2" class="node"><title>Node2</title>
<g id="a_node2"><a xlink:href="$mavlink__msg__roll__pitch__yaw__thrust__setpoint_8h.html#a6a2f04ea64c58c8ba4333faef6d24cd3" xlink:title="Send a roll_pitch_yaw_thrust_setpoint message. ">
<polygon fill="white" stroke="black" points="196,-205.5 196,-246.5 324,-246.5 324,-205.5 196,-205.5"/>
<text text-anchor="start" x="204" y="-234.5" font-family="Helvetica,sans-Serif" font-size="10.00">mavlink_msg_roll_pitch</text>
<text text-anchor="start" x="204" y="-223.5" font-family="Helvetica,sans-Serif" font-size="10.00">_yaw_thrust_setpoint_get</text>
<text text-anchor="middle" x="260" y="-212.5" font-family="Helvetica,sans-Serif" font-size="10.00">_time_us</text>
</a>
</g>
</g>
<!-- Node1&#45;&gt;Node2 -->
<g id="edge1" class="edge"><title>Node1&#45;&gt;Node2</title>
<path fill="none" stroke="midnightblue" d="M93.4688,-138.12C114.479,-153.958 149.33,-178.869 182,-196 185.474,-197.822 189.085,-199.597 192.763,-201.314"/>
<polygon fill="midnightblue" stroke="midnightblue" points="191.449,-204.56 202.006,-205.457 194.312,-198.173 191.449,-204.56"/>
</g>
<!-- Node3 -->
<g id="node3" class="node"><title>Node3</title>
<g id="a_node3"><a xlink:href="$mavlink__msg__roll__pitch__yaw__thrust__setpoint_8h.html#ac5ea2eab12121de82fea21be60fc2408" xlink:title="Get field roll from roll_pitch_yaw_thrust_setpoint message. ">
<polygon fill="white" stroke="black" points="187,-157 187,-187 333,-187 333,-157 187,-157"/>
<text text-anchor="start" x="195" y="-175" font-family="Helvetica,sans-Serif" font-size="10.00">mavlink_msg_roll_pitch</text>
<text text-anchor="middle" x="260" y="-164" font-family="Helvetica,sans-Serif" font-size="10.00">_yaw_thrust_setpoint_get_roll</text>
</a>
</g>
</g>
<!-- Node1&#45;&gt;Node3 -->
<g id="edge2" class="edge"><title>Node1&#45;&gt;Node3</title>
<path fill="none" stroke="midnightblue" d="M130.763,-138.035C150.297,-143.208 172.343,-149.048 192.576,-154.407"/>
<polygon fill="midnightblue" stroke="midnightblue" points="191.781,-157.817 202.344,-156.994 193.573,-151.05 191.781,-157.817"/>
</g>
<!-- Node4 -->
<g id="node4" class="node"><title>Node4</title>
<g id="a_node4"><a xlink:href="$mavlink__msg__roll__pitch__yaw__thrust__setpoint_8h.html#ad3cf4bbc11979b73ef661cdcee735209" xlink:title="Get field pitch from roll_pitch_yaw_thrust_setpoint message. ">
<polygon fill="white" stroke="black" points="182.5,-108 182.5,-138 337.5,-138 337.5,-108 182.5,-108"/>
<text text-anchor="start" x="190.5" y="-126" font-family="Helvetica,sans-Serif" font-size="10.00">mavlink_msg_roll_pitch</text>
<text text-anchor="middle" x="260" y="-115" font-family="Helvetica,sans-Serif" font-size="10.00">_yaw_thrust_setpoint_get_pitch</text>
</a>
</g>
</g>
<!-- Node1&#45;&gt;Node4 -->
<g id="edge3" class="edge"><title>Node1&#45;&gt;Node4</title>
<path fill="none" stroke="midnightblue" d="M146.056,-123C154.587,-123 163.363,-123 172.073,-123"/>
<polygon fill="midnightblue" stroke="midnightblue" points="172.249,-126.5 182.249,-123 172.249,-119.5 172.249,-126.5"/>
</g>
<!-- Node5 -->
<g id="node5" class="node"><title>Node5</title>
<g id="a_node5"><a xlink:href="$mavlink__msg__roll__pitch__yaw__thrust__setpoint_8h.html#a3916f0de76f2d46cc5307838b281b497" xlink:title="Get field yaw from roll_pitch_yaw_thrust_setpoint message. ">
<polygon fill="white" stroke="black" points="184,-59 184,-89 336,-89 336,-59 184,-59"/>
<text text-anchor="start" x="192" y="-77" font-family="Helvetica,sans-Serif" font-size="10.00">mavlink_msg_roll_pitch</text>
<text text-anchor="middle" x="260" y="-66" font-family="Helvetica,sans-Serif" font-size="10.00">_yaw_thrust_setpoint_get_yaw</text>
</a>
</g>
</g>
<!-- Node1&#45;&gt;Node5 -->
<g id="edge4" class="edge"><title>Node1&#45;&gt;Node5</title>
<path fill="none" stroke="midnightblue" d="M130.763,-107.965C150.297,-102.792 172.343,-96.9525 192.576,-91.5934"/>
<polygon fill="midnightblue" stroke="midnightblue" points="193.573,-94.95 202.344,-89.0062 191.781,-88.1833 193.573,-94.95"/>
</g>
<!-- Node6 -->
<g id="node6" class="node"><title>Node6</title>
<g id="a_node6"><a xlink:href="$mavlink__msg__roll__pitch__yaw__thrust__setpoint_8h.html#a3972d8cfaedcf11ca16efc5c91ff1e39" xlink:title="Get field thrust from roll_pitch_yaw_thrust_setpoint message. ">
<polygon fill="white" stroke="black" points="196,0.5 196,-40.5 324,-40.5 324,0.5 196,0.5"/>
<text text-anchor="start" x="204" y="-28.5" font-family="Helvetica,sans-Serif" font-size="10.00">mavlink_msg_roll_pitch</text>
<text text-anchor="start" x="204" y="-17.5" font-family="Helvetica,sans-Serif" font-size="10.00">_yaw_thrust_setpoint_get</text>
<text text-anchor="middle" x="260" y="-6.5" font-family="Helvetica,sans-Serif" font-size="10.00">_thrust</text>
</a>
</g>
</g>
<!-- Node1&#45;&gt;Node6 -->
<g id="edge5" class="edge"><title>Node1&#45;&gt;Node6</title>
<path fill="none" stroke="midnightblue" d="M93.4688,-107.88C114.479,-92.0419 149.33,-67.1312 182,-50 185.474,-48.1782 189.085,-46.4033 192.763,-44.6861"/>
<polygon fill="midnightblue" stroke="midnightblue" points="194.312,-47.8271 202.006,-40.5425 191.449,-41.4396 194.312,-47.8271"/>
</g>
</g>
</svg>
