<?xml version="1.0" encoding="UTF-8" standalone="no"?>
<!DOCTYPE svg PUBLIC "-//W3C//DTD SVG 1.1//EN"
 "http://www.w3.org/Graphics/SVG/1.1/DTD/svg11.dtd">
<!-- Generated by graphviz version 2.36.0 (20140111.2315)
 -->
<!-- Title: mavlink_msg_scaled_imu3_encode Pages: 1 -->
<svg width="560pt" height="38pt"
 viewBox="0.00 0.00 560.00 38.00" xmlns="http://www.w3.org/2000/svg" xmlns:xlink="http://www.w3.org/1999/xlink">
<g id="graph0" class="graph" transform="scale(1 1) rotate(0) translate(4 34)">
<title>mavlink_msg_scaled_imu3_encode</title>
<polygon fill="white" stroke="none" points="-4,4 -4,-34 556,-34 556,4 -4,4"/>
<!-- Node1 -->
<g id="node1" class="node"><title>Node1</title>
<polygon fill="#bfbfbf" stroke="black" points="0,-0 0,-30 108,-30 108,-0 0,-0"/>
<text text-anchor="start" x="8" y="-18" font-family="Helvetica,sans-Serif" font-size="10.00">mavlink_msg_scaled</text>
<text text-anchor="middle" x="54" y="-7" font-family="Helvetica,sans-Serif" font-size="10.00">_imu3_encode</text>
</g>
<!-- Node2 -->
<g id="node2" class="node"><title>Node2</title>
<g id="a_node2"><a xlink:href="$v1_80_2common_2testsuite_8h.html#aa484a0fca5a8853d1b857a4e00d9c912" xlink:title="mavlink_test_scaled_imu3">
<polygon fill="white" stroke="black" points="144,-5.5 144,-24.5 276,-24.5 276,-5.5 144,-5.5"/>
<text text-anchor="middle" x="210" y="-12.5" font-family="Helvetica,sans-Serif" font-size="10.00">mavlink_test_scaled_imu3</text>
</a>
</g>
</g>
<!-- Node1&#45;&gt;Node2 -->
<g id="edge1" class="edge"><title>Node1&#45;&gt;Node2</title>
<path fill="none" stroke="midnightblue" d="M118.539,-15C126.94,-15 135.561,-15 143.987,-15"/>
<polygon fill="midnightblue" stroke="midnightblue" points="118.43,-11.5001 108.43,-15 118.429,-18.5001 118.43,-11.5001"/>
</g>
<!-- Node3 -->
<g id="node3" class="node"><title>Node3</title>
<g id="a_node3"><a xlink:href="$v1_80_2common_2testsuite_8h.html#af349432601ac003d2c80a69c100c70a4" xlink:title="mavlink_test_common">
<polygon fill="white" stroke="black" points="312.5,-5.5 312.5,-24.5 427.5,-24.5 427.5,-5.5 312.5,-5.5"/>
<text text-anchor="middle" x="370" y="-12.5" font-family="Helvetica,sans-Serif" font-size="10.00">mavlink_test_common</text>
</a>
</g>
</g>
<!-- Node2&#45;&gt;Node3 -->
<g id="edge2" class="edge"><title>Node2&#45;&gt;Node3</title>
<path fill="none" stroke="midnightblue" d="M286.296,-15C294.96,-15 303.684,-15 312.049,-15"/>
<polygon fill="midnightblue" stroke="midnightblue" points="286.177,-11.5001 276.177,-15 286.177,-18.5001 286.177,-11.5001"/>
</g>
<!-- Node4 -->
<g id="node4" class="node"><title>Node4</title>
<g id="a_node4"><a xlink:href="$v1_80_2common_2testsuite_8h.html#a4cc77b6c343679298da5d3c2b4e48759" xlink:title="mavlink_test_all">
<polygon fill="white" stroke="black" points="464.5,-5.5 464.5,-24.5 551.5,-24.5 551.5,-5.5 464.5,-5.5"/>
<text text-anchor="middle" x="508" y="-12.5" font-family="Helvetica,sans-Serif" font-size="10.00">mavlink_test_all</text>
</a>
</g>
</g>
<!-- Node3&#45;&gt;Node4 -->
<g id="edge3" class="edge"><title>Node3&#45;&gt;Node4</title>
<path fill="none" stroke="midnightblue" d="M437.996,-15C446.988,-15 456.003,-15 464.412,-15"/>
<polygon fill="midnightblue" stroke="midnightblue" points="437.888,-11.5001 427.888,-15 437.888,-18.5001 437.888,-11.5001"/>
</g>
</g>
</svg>
