<?xml version="1.0" encoding="UTF-8" standalone="no"?>
<!DOCTYPE svg PUBLIC "-//W3C//DTD SVG 1.1//EN"
 "http://www.w3.org/Graphics/SVG/1.1/DTD/svg11.dtd">
<!-- Generated by graphviz version 2.36.0 (20140111.2315)
 -->
<!-- Title: mavlink_msg_airspeed_autocal_pack_chan Pages: 1 -->
<svg width="574pt" height="87pt"
 viewBox="0.00 0.00 574.00 87.00" xmlns="http://www.w3.org/2000/svg" xmlns:xlink="http://www.w3.org/1999/xlink">
<g id="graph0" class="graph" transform="scale(1 1) rotate(0) translate(4 83)">
<title>mavlink_msg_airspeed_autocal_pack_chan</title>
<polygon fill="white" stroke="none" points="-4,4 -4,-83 570,-83 570,4 -4,4"/>
<!-- Node1 -->
<g id="node1" class="node"><title>Node1</title>
<polygon fill="#bfbfbf" stroke="black" points="0,-24 0,-54 116,-54 116,-24 0,-24"/>
<text text-anchor="start" x="8" y="-42" font-family="Helvetica,sans-Serif" font-size="10.00">mavlink_msg_airspeed</text>
<text text-anchor="middle" x="58" y="-31" font-family="Helvetica,sans-Serif" font-size="10.00">_autocal_pack_chan</text>
</g>
<!-- Node2 -->
<g id="node2" class="node"><title>Node2</title>
<g id="a_node2"><a xlink:href="$mavlink__msg__airspeed__autocal_8h.html#a3876ed048aad2f5b8d90e31a2bf4be3c" xlink:title="Encode a airspeed_autocal struct on a channel. ">
<polygon fill="white" stroke="black" points="152,-49 152,-79 268,-79 268,-49 152,-49"/>
<text text-anchor="start" x="160" y="-67" font-family="Helvetica,sans-Serif" font-size="10.00">mavlink_msg_airspeed</text>
<text text-anchor="middle" x="210" y="-56" font-family="Helvetica,sans-Serif" font-size="10.00">_autocal_encode_chan</text>
</a>
</g>
</g>
<!-- Node1&#45;&gt;Node2 -->
<g id="edge1" class="edge"><title>Node1&#45;&gt;Node2</title>
<path fill="none" stroke="midnightblue" d="M126.033,-50.1722C134.54,-51.5901 143.186,-53.031 151.525,-54.4209"/>
<polygon fill="midnightblue" stroke="midnightblue" points="126.576,-46.7144 116.136,-48.5227 125.425,-53.6192 126.576,-46.7144"/>
</g>
<!-- Node3 -->
<g id="node3" class="node"><title>Node3</title>
<g id="a_node3"><a xlink:href="$v1_80_2ardupilotmega_2testsuite_8h.html#a56839dfbdb9818fef8ff1529de3eeffe" xlink:title="mavlink_test_airspeed\l_autocal">
<polygon fill="white" stroke="black" points="153,-0 153,-30 267,-30 267,-0 153,-0"/>
<text text-anchor="start" x="161" y="-18" font-family="Helvetica,sans-Serif" font-size="10.00">mavlink_test_airspeed</text>
<text text-anchor="middle" x="210" y="-7" font-family="Helvetica,sans-Serif" font-size="10.00">_autocal</text>
</a>
</g>
</g>
<!-- Node1&#45;&gt;Node3 -->
<g id="edge2" class="edge"><title>Node1&#45;&gt;Node3</title>
<path fill="none" stroke="midnightblue" d="M126.033,-28.2747C134.879,-26.8594 143.874,-25.4202 152.519,-24.037"/>
<polygon fill="midnightblue" stroke="midnightblue" points="125.458,-24.8221 116.136,-29.8582 126.564,-31.7342 125.458,-24.8221"/>
</g>
<!-- Node4 -->
<g id="node4" class="node"><title>Node4</title>
<g id="a_node4"><a xlink:href="$v1_80_2ardupilotmega_2testsuite_8h.html#ab264d471ac2f46584f2bb580704b5e9d" xlink:title="mavlink_test_ardupilotmega">
<polygon fill="white" stroke="black" points="304,-5.5 304,-24.5 442,-24.5 442,-5.5 304,-5.5"/>
<text text-anchor="middle" x="373" y="-12.5" font-family="Helvetica,sans-Serif" font-size="10.00">mavlink_test_ardupilotmega</text>
</a>
</g>
</g>
<!-- Node3&#45;&gt;Node4 -->
<g id="edge3" class="edge"><title>Node3&#45;&gt;Node4</title>
<path fill="none" stroke="midnightblue" d="M277.412,-15C286.128,-15 295.071,-15 303.816,-15"/>
<polygon fill="midnightblue" stroke="midnightblue" points="277.31,-11.5001 267.31,-15 277.31,-18.5001 277.31,-11.5001"/>
</g>
<!-- Node5 -->
<g id="node5" class="node"><title>Node5</title>
<g id="a_node5"><a xlink:href="$v1_80_2ardupilotmega_2testsuite_8h.html#a4cc77b6c343679298da5d3c2b4e48759" xlink:title="mavlink_test_all">
<polygon fill="white" stroke="black" points="478.5,-5.5 478.5,-24.5 565.5,-24.5 565.5,-5.5 478.5,-5.5"/>
<text text-anchor="middle" x="522" y="-12.5" font-family="Helvetica,sans-Serif" font-size="10.00">mavlink_test_all</text>
</a>
</g>
</g>
<!-- Node4&#45;&gt;Node5 -->
<g id="edge4" class="edge"><title>Node4&#45;&gt;Node5</title>
<path fill="none" stroke="midnightblue" d="M452.438,-15C461.373,-15 470.211,-15 478.42,-15"/>
<polygon fill="midnightblue" stroke="midnightblue" points="452.336,-11.5001 442.336,-15 452.336,-18.5001 452.336,-11.5001"/>
</g>
</g>
</svg>
