<?xml version="1.0" encoding="UTF-8" standalone="no"?>
<!DOCTYPE svg PUBLIC "-//W3C//DTD SVG 1.1//EN"
 "http://www.w3.org/Graphics/SVG/1.1/DTD/svg11.dtd">
<!-- Generated by graphviz version 2.36.0 (20140111.2315)
 -->
<!-- Title: mavlink_msg_hil_state_quaternion_get_ind_airspeed Pages: 1 -->
<svg width="732pt" height="38pt"
 viewBox="0.00 0.00 732.00 38.00" xmlns="http://www.w3.org/2000/svg" xmlns:xlink="http://www.w3.org/1999/xlink">
<g id="graph0" class="graph" transform="scale(1 1) rotate(0) translate(4 34)">
<title>mavlink_msg_hil_state_quaternion_get_ind_airspeed</title>
<polygon fill="white" stroke="none" points="-4,4 -4,-34 728,-34 728,4 -4,4"/>
<!-- Node1 -->
<g id="node1" class="node"><title>Node1</title>
<polygon fill="#bfbfbf" stroke="black" points="0,-0 0,-30 146,-30 146,-0 0,-0"/>
<text text-anchor="start" x="8" y="-18" font-family="Helvetica,sans-Serif" font-size="10.00">mavlink_msg_hil_state</text>
<text text-anchor="middle" x="73" y="-7" font-family="Helvetica,sans-Serif" font-size="10.00">_quaternion_get_ind_airspeed</text>
</g>
<!-- Node2 -->
<g id="node2" class="node"><title>Node2</title>
<g id="a_node2"><a xlink:href="$mavlink__msg__hil__state__quaternion_8h.html#af3041b37450e1902ff42e1ca6771c495" xlink:title="Decode a hil_state_quaternion message into a struct. ">
<polygon fill="white" stroke="black" points="182,-0 182,-30 298,-30 298,-0 182,-0"/>
<text text-anchor="start" x="190" y="-18" font-family="Helvetica,sans-Serif" font-size="10.00">mavlink_msg_hil_state</text>
<text text-anchor="middle" x="240" y="-7" font-family="Helvetica,sans-Serif" font-size="10.00">_quaternion_decode</text>
</a>
</g>
</g>
<!-- Node1&#45;&gt;Node2 -->
<g id="edge1" class="edge"><title>Node1&#45;&gt;Node2</title>
<path fill="none" stroke="midnightblue" d="M156.63,-15C165.059,-15 173.486,-15 181.559,-15"/>
<polygon fill="midnightblue" stroke="midnightblue" points="156.371,-11.5001 146.371,-15 156.371,-18.5001 156.371,-11.5001"/>
</g>
<!-- Node3 -->
<g id="node3" class="node"><title>Node3</title>
<g id="a_node3"><a xlink:href="$v1_80_2common_2testsuite_8h.html#a32d633b27cf11c6e93320ff53199a622" xlink:title="mavlink_test_hil_state\l_quaternion">
<polygon fill="white" stroke="black" points="334,-0 334,-30 448,-30 448,-0 334,-0"/>
<text text-anchor="start" x="342" y="-18" font-family="Helvetica,sans-Serif" font-size="10.00">mavlink_test_hil_state</text>
<text text-anchor="middle" x="391" y="-7" font-family="Helvetica,sans-Serif" font-size="10.00">_quaternion</text>
</a>
</g>
</g>
<!-- Node2&#45;&gt;Node3 -->
<g id="edge2" class="edge"><title>Node2&#45;&gt;Node3</title>
<path fill="none" stroke="midnightblue" d="M308.407,-15C316.865,-15 325.447,-15 333.709,-15"/>
<polygon fill="midnightblue" stroke="midnightblue" points="308.181,-11.5001 298.181,-15 308.181,-18.5001 308.181,-11.5001"/>
</g>
<!-- Node4 -->
<g id="node4" class="node"><title>Node4</title>
<g id="a_node4"><a xlink:href="$v1_80_2common_2testsuite_8h.html#af349432601ac003d2c80a69c100c70a4" xlink:title="mavlink_test_common">
<polygon fill="white" stroke="black" points="484.5,-5.5 484.5,-24.5 599.5,-24.5 599.5,-5.5 484.5,-5.5"/>
<text text-anchor="middle" x="542" y="-12.5" font-family="Helvetica,sans-Serif" font-size="10.00">mavlink_test_common</text>
</a>
</g>
</g>
<!-- Node3&#45;&gt;Node4 -->
<g id="edge3" class="edge"><title>Node3&#45;&gt;Node4</title>
<path fill="none" stroke="midnightblue" d="M458.608,-15C467.115,-15 475.761,-15 484.095,-15"/>
<polygon fill="midnightblue" stroke="midnightblue" points="458.331,-11.5001 448.331,-15 458.33,-18.5001 458.331,-11.5001"/>
</g>
<!-- Node5 -->
<g id="node5" class="node"><title>Node5</title>
<g id="a_node5"><a xlink:href="$v1_80_2common_2testsuite_8h.html#a4cc77b6c343679298da5d3c2b4e48759" xlink:title="mavlink_test_all">
<polygon fill="white" stroke="black" points="636.5,-5.5 636.5,-24.5 723.5,-24.5 723.5,-5.5 636.5,-5.5"/>
<text text-anchor="middle" x="680" y="-12.5" font-family="Helvetica,sans-Serif" font-size="10.00">mavlink_test_all</text>
</a>
</g>
</g>
<!-- Node4&#45;&gt;Node5 -->
<g id="edge4" class="edge"><title>Node4&#45;&gt;Node5</title>
<path fill="none" stroke="midnightblue" d="M609.996,-15C618.988,-15 628.003,-15 636.412,-15"/>
<polygon fill="midnightblue" stroke="midnightblue" points="609.888,-11.5001 599.888,-15 609.888,-18.5001 609.888,-11.5001"/>
</g>
</g>
</svg>
