<?xml version="1.0" encoding="UTF-8" standalone="no"?>
<!DOCTYPE svg PUBLIC "-//W3C//DTD SVG 1.1//EN"
 "http://www.w3.org/Graphics/SVG/1.1/DTD/svg11.dtd">
<!-- Generated by graphviz version 2.36.0 (20140111.2315)
 -->
<!-- Title: mavlink_msg_set_nav_mode_decode Pages: 1 -->
<svg width="274pt" height="87pt"
 viewBox="0.00 0.00 274.00 87.00" xmlns="http://www.w3.org/2000/svg" xmlns:xlink="http://www.w3.org/1999/xlink">
<g id="graph0" class="graph" transform="scale(1 1) rotate(0) translate(4 83)">
<title>mavlink_msg_set_nav_mode_decode</title>
<polygon fill="white" stroke="none" points="-4,4 -4,-83 270,-83 270,4 -4,4"/>
<!-- Node1 -->
<g id="node1" class="node"><title>Node1</title>
<polygon fill="#bfbfbf" stroke="black" points="0,-24 0,-54 114,-54 114,-24 0,-24"/>
<text text-anchor="start" x="8" y="-42" font-family="Helvetica,sans-Serif" font-size="10.00">mavlink_msg_set_nav</text>
<text text-anchor="middle" x="57" y="-31" font-family="Helvetica,sans-Serif" font-size="10.00">_mode_decode</text>
</g>
<!-- Node2 -->
<g id="node2" class="node"><title>Node2</title>
<g id="a_node2"><a xlink:href="$mavlink__msg__set__nav__mode_8h.html#aa25511f3d9a0e83a6b5f31f8a2bdbc85" xlink:title="Send a set_nav_mode message. ">
<polygon fill="white" stroke="black" points="151,-49 151,-79 265,-79 265,-49 151,-49"/>
<text text-anchor="start" x="159" y="-67" font-family="Helvetica,sans-Serif" font-size="10.00">mavlink_msg_set_nav</text>
<text text-anchor="middle" x="208" y="-56" font-family="Helvetica,sans-Serif" font-size="10.00">_mode_get_target</text>
</a>
</g>
</g>
<!-- Node1&#45;&gt;Node2 -->
<g id="edge1" class="edge"><title>Node1&#45;&gt;Node2</title>
<path fill="none" stroke="midnightblue" d="M114.331,-48.4514C122.86,-49.8826 131.728,-51.3705 140.449,-52.8337"/>
<polygon fill="midnightblue" stroke="midnightblue" points="140.149,-56.3322 150.59,-54.5352 141.307,-49.4287 140.149,-56.3322"/>
</g>
<!-- Node3 -->
<g id="node3" class="node"><title>Node3</title>
<g id="a_node3"><a xlink:href="$mavlink__msg__set__nav__mode_8h.html#ac64b1926370ffc793995ddbed7ea26c0" xlink:title="Get field nav_mode from set_nav_mode message. ">
<polygon fill="white" stroke="black" points="150.5,-0 150.5,-30 265.5,-30 265.5,-0 150.5,-0"/>
<text text-anchor="start" x="158.5" y="-18" font-family="Helvetica,sans-Serif" font-size="10.00">mavlink_msg_set_nav</text>
<text text-anchor="middle" x="208" y="-7" font-family="Helvetica,sans-Serif" font-size="10.00">_mode_get_nav_mode</text>
</a>
</g>
</g>
<!-- Node1&#45;&gt;Node3 -->
<g id="edge2" class="edge"><title>Node1&#45;&gt;Node3</title>
<path fill="none" stroke="midnightblue" d="M114.331,-29.9266C122.742,-28.5718 131.482,-27.164 140.085,-25.7782"/>
<polygon fill="midnightblue" stroke="midnightblue" points="140.779,-29.2117 150.095,-24.1659 139.666,-22.3008 140.779,-29.2117"/>
</g>
</g>
</svg>
