<?xml version="1.0" encoding="UTF-8" standalone="no"?>
<!DOCTYPE svg PUBLIC "-//W3C//DTD SVG 1.1//EN"
 "http://www.w3.org/Graphics/SVG/1.1/DTD/svg11.dtd">
<!-- Generated by graphviz version 2.36.0 (20140111.2315)
 -->
<!-- Title: mavlink_msg_serial_control_get_data Pages: 1 -->
<svg width="274pt" height="38pt"
 viewBox="0.00 0.00 274.00 38.00" xmlns="http://www.w3.org/2000/svg" xmlns:xlink="http://www.w3.org/1999/xlink">
<g id="graph0" class="graph" transform="scale(1 1) rotate(0) translate(4 34)">
<title>mavlink_msg_serial_control_get_data</title>
<polygon fill="white" stroke="none" points="-4,4 -4,-34 270,-34 270,4 -4,4"/>
<!-- Node1 -->
<g id="node1" class="node"><title>Node1</title>
<polygon fill="#bfbfbf" stroke="black" points="0.5,-0 0.5,-30 103.5,-30 103.5,-0 0.5,-0"/>
<text text-anchor="start" x="8.5" y="-18" font-family="Helvetica,sans-Serif" font-size="10.00">mavlink_msg_serial</text>
<text text-anchor="middle" x="52" y="-7" font-family="Helvetica,sans-Serif" font-size="10.00">_control_get_data</text>
</g>
<!-- Node2 -->
<g id="node2" class="node"><title>Node2</title>
<g id="a_node2"><a xlink:href="$v0_89_2protocol_8h.html#a0577ed5da38b4eed5472e27dc94026c3" xlink:title="_MAV_RETURN_uint8_t\l_array">
<polygon fill="white" stroke="black" points="140,-0 140,-30 266,-30 266,-0 140,-0"/>
<text text-anchor="start" x="148" y="-18" font-family="Helvetica,sans-Serif" font-size="10.00">_MAV_RETURN_uint8_t</text>
<text text-anchor="middle" x="203" y="-7" font-family="Helvetica,sans-Serif" font-size="10.00">_array</text>
</a>
</g>
</g>
<!-- Node1&#45;&gt;Node2 -->
<g id="edge1" class="edge"><title>Node1&#45;&gt;Node2</title>
<path fill="none" stroke="midnightblue" d="M103.861,-15C112.162,-15 120.9,-15 129.6,-15"/>
<polygon fill="midnightblue" stroke="midnightblue" points="129.767,-18.5001 139.767,-15 129.767,-11.5001 129.767,-18.5001"/>
</g>
</g>
</svg>
