<?xml version="1.0" encoding="UTF-8" standalone="no"?>
<!DOCTYPE svg PUBLIC "-//W3C//DTD SVG 1.1//EN"
 "http://www.w3.org/Graphics/SVG/1.1/DTD/svg11.dtd">
<!-- Generated by graphviz version 2.36.0 (20140111.2315)
 -->
<!-- Title: mavlink_msg_wind_decode Pages: 1 -->
<svg width="302pt" height="136pt"
 viewBox="0.00 0.00 302.00 136.00" xmlns="http://www.w3.org/2000/svg" xmlns:xlink="http://www.w3.org/1999/xlink">
<g id="graph0" class="graph" transform="scale(1 1) rotate(0) translate(4 132)">
<title>mavlink_msg_wind_decode</title>
<polygon fill="white" stroke="none" points="-4,4 -4,-132 298,-132 298,4 -4,4"/>
<!-- Node1 -->
<g id="node1" class="node"><title>Node1</title>
<polygon fill="#bfbfbf" stroke="black" points="0.5,-54.5 0.5,-73.5 137.5,-73.5 137.5,-54.5 0.5,-54.5"/>
<text text-anchor="middle" x="69" y="-61.5" font-family="Helvetica,sans-Serif" font-size="10.00">mavlink_msg_wind_decode</text>
</g>
<!-- Node2 -->
<g id="node2" class="node"><title>Node2</title>
<g id="a_node2"><a xlink:href="$mavlink__msg__wind_8h.html#a6ff24f746800dd3f6f8da8309ff9af9b" xlink:title="Send a wind message. ">
<polygon fill="white" stroke="black" points="174.5,-98 174.5,-128 293.5,-128 293.5,-98 174.5,-98"/>
<text text-anchor="start" x="182.5" y="-116" font-family="Helvetica,sans-Serif" font-size="10.00">mavlink_msg_wind_get</text>
<text text-anchor="middle" x="234" y="-105" font-family="Helvetica,sans-Serif" font-size="10.00">_direction</text>
</a>
</g>
</g>
<!-- Node1&#45;&gt;Node2 -->
<g id="edge1" class="edge"><title>Node1&#45;&gt;Node2</title>
<path fill="none" stroke="midnightblue" d="M101.815,-73.564C122.091,-79.6592 149.001,-87.7488 173.17,-95.0143"/>
<polygon fill="midnightblue" stroke="midnightblue" points="172.395,-98.4359 182.979,-97.963 174.41,-91.7323 172.395,-98.4359"/>
</g>
<!-- Node3 -->
<g id="node3" class="node"><title>Node3</title>
<g id="a_node3"><a xlink:href="$mavlink__msg__wind_8h.html#aa9bcfca072624f76708720f52f40340f" xlink:title="Get field speed from wind message. ">
<polygon fill="white" stroke="black" points="174.5,-49 174.5,-79 293.5,-79 293.5,-49 174.5,-49"/>
<text text-anchor="start" x="182.5" y="-67" font-family="Helvetica,sans-Serif" font-size="10.00">mavlink_msg_wind_get</text>
<text text-anchor="middle" x="234" y="-56" font-family="Helvetica,sans-Serif" font-size="10.00">_speed</text>
</a>
</g>
</g>
<!-- Node1&#45;&gt;Node3 -->
<g id="edge2" class="edge"><title>Node1&#45;&gt;Node3</title>
<path fill="none" stroke="midnightblue" d="M137.711,-64C146.449,-64 155.406,-64 164.162,-64"/>
<polygon fill="midnightblue" stroke="midnightblue" points="164.325,-67.5001 174.325,-64 164.325,-60.5001 164.325,-67.5001"/>
</g>
<!-- Node4 -->
<g id="node4" class="node"><title>Node4</title>
<g id="a_node4"><a xlink:href="$mavlink__msg__wind_8h.html#ab7521575e756b3610643fba71b8aee8d" xlink:title="Get field speed_z from wind message. ">
<polygon fill="white" stroke="black" points="174.5,-0 174.5,-30 293.5,-30 293.5,-0 174.5,-0"/>
<text text-anchor="start" x="182.5" y="-18" font-family="Helvetica,sans-Serif" font-size="10.00">mavlink_msg_wind_get</text>
<text text-anchor="middle" x="234" y="-7" font-family="Helvetica,sans-Serif" font-size="10.00">_speed_z</text>
</a>
</g>
</g>
<!-- Node1&#45;&gt;Node4 -->
<g id="edge3" class="edge"><title>Node1&#45;&gt;Node4</title>
<path fill="none" stroke="midnightblue" d="M101.815,-54.436C122.091,-48.3408 149.001,-40.2512 173.17,-32.9857"/>
<polygon fill="midnightblue" stroke="midnightblue" points="174.41,-36.2677 182.979,-30.037 172.395,-29.5641 174.41,-36.2677"/>
</g>
</g>
</svg>
