<?xml version="1.0" encoding="UTF-8" standalone="no"?>
<!DOCTYPE svg PUBLIC "-//W3C//DTD SVG 1.1//EN"
 "http://www.w3.org/Graphics/SVG/1.1/DTD/svg11.dtd">
<!-- Generated by graphviz version 2.36.0 (20140111.2315)
 -->
<!-- Title: mavlink_msg_autopilot_version_get_middleware_custom_version Pages: 1 -->
<svg width="714pt" height="48pt"
 viewBox="0.00 0.00 714.00 48.00" xmlns="http://www.w3.org/2000/svg" xmlns:xlink="http://www.w3.org/1999/xlink">
<g id="graph0" class="graph" transform="scale(1 1) rotate(0) translate(4 44)">
<title>mavlink_msg_autopilot_version_get_middleware_custom_version</title>
<polygon fill="white" stroke="none" points="-4,4 -4,-44 710,-44 710,4 -4,4"/>
<!-- Node1 -->
<g id="node1" class="node"><title>Node1</title>
<polygon fill="#bfbfbf" stroke="black" points="0.5,0.5 0.5,-40.5 127.5,-40.5 127.5,0.5 0.5,0.5"/>
<text text-anchor="start" x="8.5" y="-28.5" font-family="Helvetica,sans-Serif" font-size="10.00">mavlink_msg_autopilot</text>
<text text-anchor="start" x="8.5" y="-17.5" font-family="Helvetica,sans-Serif" font-size="10.00">_version_get_middleware</text>
<text text-anchor="middle" x="64" y="-6.5" font-family="Helvetica,sans-Serif" font-size="10.00">_custom_version</text>
</g>
<!-- Node2 -->
<g id="node2" class="node"><title>Node2</title>
<g id="a_node2"><a xlink:href="$mavlink__msg__autopilot__version_8h.html#a5566f94ae82d1a5152304d295f9bace8" xlink:title="Decode a autopilot_version message into a struct. ">
<polygon fill="white" stroke="black" points="164,-5 164,-35 280,-35 280,-5 164,-5"/>
<text text-anchor="start" x="172" y="-23" font-family="Helvetica,sans-Serif" font-size="10.00">mavlink_msg_autopilot</text>
<text text-anchor="middle" x="222" y="-12" font-family="Helvetica,sans-Serif" font-size="10.00">_version_decode</text>
</a>
</g>
</g>
<!-- Node1&#45;&gt;Node2 -->
<g id="edge1" class="edge"><title>Node1&#45;&gt;Node2</title>
<path fill="none" stroke="midnightblue" d="M137.803,-20C146.592,-20 155.47,-20 163.987,-20"/>
<polygon fill="midnightblue" stroke="midnightblue" points="137.552,-16.5001 127.552,-20 137.552,-23.5001 137.552,-16.5001"/>
</g>
<!-- Node3 -->
<g id="node3" class="node"><title>Node3</title>
<g id="a_node3"><a xlink:href="$v1_80_2common_2testsuite_8h.html#a9a34e152c8867677d8e68d8c46499df4" xlink:title="mavlink_test_autopilot\l_version">
<polygon fill="white" stroke="black" points="316,-5 316,-35 430,-35 430,-5 316,-5"/>
<text text-anchor="start" x="324" y="-23" font-family="Helvetica,sans-Serif" font-size="10.00">mavlink_test_autopilot</text>
<text text-anchor="middle" x="373" y="-12" font-family="Helvetica,sans-Serif" font-size="10.00">_version</text>
</a>
</g>
</g>
<!-- Node2&#45;&gt;Node3 -->
<g id="edge2" class="edge"><title>Node2&#45;&gt;Node3</title>
<path fill="none" stroke="midnightblue" d="M290.407,-20C298.865,-20 307.447,-20 315.709,-20"/>
<polygon fill="midnightblue" stroke="midnightblue" points="290.181,-16.5001 280.181,-20 290.181,-23.5001 290.181,-16.5001"/>
</g>
<!-- Node4 -->
<g id="node4" class="node"><title>Node4</title>
<g id="a_node4"><a xlink:href="$v1_80_2common_2testsuite_8h.html#af349432601ac003d2c80a69c100c70a4" xlink:title="mavlink_test_common">
<polygon fill="white" stroke="black" points="466.5,-10.5 466.5,-29.5 581.5,-29.5 581.5,-10.5 466.5,-10.5"/>
<text text-anchor="middle" x="524" y="-17.5" font-family="Helvetica,sans-Serif" font-size="10.00">mavlink_test_common</text>
</a>
</g>
</g>
<!-- Node3&#45;&gt;Node4 -->
<g id="edge3" class="edge"><title>Node3&#45;&gt;Node4</title>
<path fill="none" stroke="midnightblue" d="M440.608,-20C449.115,-20 457.761,-20 466.095,-20"/>
<polygon fill="midnightblue" stroke="midnightblue" points="440.331,-16.5001 430.331,-20 440.33,-23.5001 440.331,-16.5001"/>
</g>
<!-- Node5 -->
<g id="node5" class="node"><title>Node5</title>
<g id="a_node5"><a xlink:href="$v1_80_2common_2testsuite_8h.html#a4cc77b6c343679298da5d3c2b4e48759" xlink:title="mavlink_test_all">
<polygon fill="white" stroke="black" points="618.5,-10.5 618.5,-29.5 705.5,-29.5 705.5,-10.5 618.5,-10.5"/>
<text text-anchor="middle" x="662" y="-17.5" font-family="Helvetica,sans-Serif" font-size="10.00">mavlink_test_all</text>
</a>
</g>
</g>
<!-- Node4&#45;&gt;Node5 -->
<g id="edge4" class="edge"><title>Node4&#45;&gt;Node5</title>
<path fill="none" stroke="midnightblue" d="M591.996,-20C600.988,-20 610.003,-20 618.412,-20"/>
<polygon fill="midnightblue" stroke="midnightblue" points="591.888,-16.5001 581.888,-20 591.888,-23.5001 591.888,-16.5001"/>
</g>
</g>
</svg>
