<?xml version="1.0" encoding="UTF-8" standalone="no"?>
<!DOCTYPE svg PUBLIC "-//W3C//DTD SVG 1.1//EN"
 "http://www.w3.org/Graphics/SVG/1.1/DTD/svg11.dtd">
<!-- Generated by graphviz version 2.36.0 (20140111.2315)
 -->
<!-- Title: mavlink_msg_encapsulated_data_encode Pages: 1 -->
<svg width="630pt" height="104pt"
 viewBox="0.00 0.00 630.00 104.00" xmlns="http://www.w3.org/2000/svg" xmlns:xlink="http://www.w3.org/1999/xlink">
<g id="graph0" class="graph" transform="scale(1 1) rotate(0) translate(4 100)">
<title>mavlink_msg_encapsulated_data_encode</title>
<polygon fill="white" stroke="none" points="-4,4 -4,-100 626,-100 626,4 -4,4"/>
<!-- Node1 -->
<g id="node1" class="node"><title>Node1</title>
<polygon fill="#bfbfbf" stroke="black" points="0.5,-33 0.5,-63 137.5,-63 137.5,-33 0.5,-33"/>
<text text-anchor="start" x="8.5" y="-51" font-family="Helvetica,sans-Serif" font-size="10.00">mavlink_msg_encapsulated</text>
<text text-anchor="middle" x="69" y="-40" font-family="Helvetica,sans-Serif" font-size="10.00">_data_encode</text>
</g>
<!-- Node2 -->
<g id="node2" class="node"><title>Node2</title>
<g id="a_node2"><a xlink:href="$mavlink__msg__encapsulated__data_8h.html#a8eb114e49749b39c0f34172f9e7bdcb3" xlink:title="Pack a encapsulated_data message. ">
<polygon fill="white" stroke="black" points="174.5,-33 174.5,-63 311.5,-63 311.5,-33 174.5,-33"/>
<text text-anchor="start" x="182.5" y="-51" font-family="Helvetica,sans-Serif" font-size="10.00">mavlink_msg_encapsulated</text>
<text text-anchor="middle" x="243" y="-40" font-family="Helvetica,sans-Serif" font-size="10.00">_data_pack</text>
</a>
</g>
</g>
<!-- Node1&#45;&gt;Node2 -->
<g id="edge1" class="edge"><title>Node1&#45;&gt;Node2</title>
<path fill="none" stroke="midnightblue" d="M137.979,-48C146.55,-48 155.372,-48 164.082,-48"/>
<polygon fill="midnightblue" stroke="midnightblue" points="164.233,-51.5001 174.233,-48 164.233,-44.5001 164.233,-51.5001"/>
</g>
<!-- Node3 -->
<g id="node3" class="node"><title>Node3</title>
<g id="a_node3"><a xlink:href="$v0_89_2protocol_8h.html#a78cf8b010c1768f8be4b9caa34aba0dc" xlink:title="_mav_put_uint8_t_array">
<polygon fill="white" stroke="black" points="353.5,-76.5 353.5,-95.5 474.5,-95.5 474.5,-76.5 353.5,-76.5"/>
<text text-anchor="middle" x="414" y="-83.5" font-family="Helvetica,sans-Serif" font-size="10.00">_mav_put_uint8_t_array</text>
</a>
</g>
</g>
<!-- Node2&#45;&gt;Node3 -->
<g id="edge2" class="edge"><title>Node2&#45;&gt;Node3</title>
<path fill="none" stroke="midnightblue" d="M310.793,-63.0186C327.292,-66.7285 344.735,-70.6504 360.448,-74.1836"/>
<polygon fill="midnightblue" stroke="midnightblue" points="359.973,-77.6641 370.497,-76.4432 361.509,-70.8346 359.973,-77.6641"/>
</g>
<!-- Node4 -->
<g id="node4" class="node"><title>Node4</title>
<g id="a_node4"><a xlink:href="$v0_89_2protocol_8h.html#a4486c3d5854cac1cb6a0fb1cc5ba570c" xlink:title="mav_array_memcpy">
<polygon fill="white" stroke="black" points="516.5,-57.5 516.5,-76.5 621.5,-76.5 621.5,-57.5 516.5,-57.5"/>
<text text-anchor="middle" x="569" y="-64.5" font-family="Helvetica,sans-Serif" font-size="10.00">mav_array_memcpy</text>
</a>
</g>
</g>
<!-- Node2&#45;&gt;Node4 -->
<g id="edge4" class="edge"><title>Node2&#45;&gt;Node4</title>
<path fill="none" stroke="midnightblue" d="M311.527,-51.9599C368.88,-55.3232 450.518,-60.1106 506.18,-63.3747"/>
<polygon fill="midnightblue" stroke="midnightblue" points="506.071,-66.8743 516.259,-63.9658 506.481,-59.8863 506.071,-66.8743"/>
</g>
<!-- Node5 -->
<g id="node5" class="node"><title>Node5</title>
<g id="a_node5"><a xlink:href="$v0_89_2mavlink__helpers_8h.html#af3bea083c5ec83f5b6570b2bd4a817d0" xlink:title="Finalize a MAVLink message with MAVLINK_COMM_0 as default channel. ">
<polygon fill="white" stroke="black" points="348.5,-0.5 348.5,-19.5 479.5,-19.5 479.5,-0.5 348.5,-0.5"/>
<text text-anchor="middle" x="414" y="-7.5" font-family="Helvetica,sans-Serif" font-size="10.00">mavlink_finalize_message</text>
</a>
</g>
</g>
<!-- Node2&#45;&gt;Node5 -->
<g id="edge5" class="edge"><title>Node2&#45;&gt;Node5</title>
<path fill="none" stroke="midnightblue" d="M310.793,-32.9814C327.292,-29.2715 344.735,-25.3496 360.448,-21.8164"/>
<polygon fill="midnightblue" stroke="midnightblue" points="361.509,-25.1654 370.497,-19.5568 359.973,-18.3359 361.509,-25.1654"/>
</g>
<!-- Node3&#45;&gt;Node4 -->
<g id="edge3" class="edge"><title>Node3&#45;&gt;Node4</title>
<path fill="none" stroke="midnightblue" d="M474.592,-78.5997C484.912,-77.3181 495.665,-75.9828 506.046,-74.6936"/>
<polygon fill="midnightblue" stroke="midnightblue" points="506.782,-78.1292 516.275,-73.4234 505.919,-71.1826 506.782,-78.1292"/>
</g>
</g>
</svg>
