<?xml version="1.0" encoding="UTF-8" standalone="no"?>
<!DOCTYPE svg PUBLIC "-//W3C//DTD SVG 1.1//EN"
 "http://www.w3.org/Graphics/SVG/1.1/DTD/svg11.dtd">
<!-- Generated by graphviz version 2.36.0 (20140111.2315)
 -->
<!-- Title: mavlink_msg_autopilot_version_pack Pages: 1 -->
<svg width="434pt" height="104pt"
 viewBox="0.00 0.00 434.00 104.00" xmlns="http://www.w3.org/2000/svg" xmlns:xlink="http://www.w3.org/1999/xlink">
<g id="graph0" class="graph" transform="scale(1 1) rotate(0) translate(4 100)">
<title>mavlink_msg_autopilot_version_pack</title>
<polygon fill="white" stroke="none" points="-4,4 -4,-100 430,-100 430,4 -4,4"/>
<!-- Node1 -->
<g id="node1" class="node"><title>Node1</title>
<polygon fill="#bfbfbf" stroke="black" points="0,-33 0,-63 116,-63 116,-33 0,-33"/>
<text text-anchor="start" x="8" y="-51" font-family="Helvetica,sans-Serif" font-size="10.00">mavlink_msg_autopilot</text>
<text text-anchor="middle" x="58" y="-40" font-family="Helvetica,sans-Serif" font-size="10.00">_version_pack</text>
</g>
<!-- Node2 -->
<g id="node2" class="node"><title>Node2</title>
<g id="a_node2"><a xlink:href="$v0_89_2protocol_8h.html#a78cf8b010c1768f8be4b9caa34aba0dc" xlink:title="_mav_put_uint8_t_array">
<polygon fill="white" stroke="black" points="157.5,-76.5 157.5,-95.5 278.5,-95.5 278.5,-76.5 157.5,-76.5"/>
<text text-anchor="middle" x="218" y="-83.5" font-family="Helvetica,sans-Serif" font-size="10.00">_mav_put_uint8_t_array</text>
</a>
</g>
</g>
<!-- Node1&#45;&gt;Node2 -->
<g id="edge1" class="edge"><title>Node1&#45;&gt;Node2</title>
<path fill="none" stroke="midnightblue" d="M116.042,-61.7189C132.878,-65.7681 151.159,-70.1649 167.481,-74.0903"/>
<polygon fill="midnightblue" stroke="midnightblue" points="166.818,-77.5307 177.359,-76.4662 168.455,-70.7247 166.818,-77.5307"/>
</g>
<!-- Node3 -->
<g id="node3" class="node"><title>Node3</title>
<g id="a_node3"><a xlink:href="$v0_89_2protocol_8h.html#a4486c3d5854cac1cb6a0fb1cc5ba570c" xlink:title="mav_array_memcpy">
<polygon fill="white" stroke="black" points="320.5,-57.5 320.5,-76.5 425.5,-76.5 425.5,-57.5 320.5,-57.5"/>
<text text-anchor="middle" x="373" y="-64.5" font-family="Helvetica,sans-Serif" font-size="10.00">mav_array_memcpy</text>
</a>
</g>
</g>
<!-- Node1&#45;&gt;Node3 -->
<g id="edge3" class="edge"><title>Node1&#45;&gt;Node3</title>
<path fill="none" stroke="midnightblue" d="M116.045,-51.4628C170.907,-54.7931 253.611,-59.8134 310.059,-63.24"/>
<polygon fill="midnightblue" stroke="midnightblue" points="310.087,-66.748 320.28,-63.8605 310.511,-59.7609 310.087,-66.748"/>
</g>
<!-- Node4 -->
<g id="node4" class="node"><title>Node4</title>
<g id="a_node4"><a xlink:href="$v0_89_2mavlink__helpers_8h.html#af3bea083c5ec83f5b6570b2bd4a817d0" xlink:title="Finalize a MAVLink message with MAVLINK_COMM_0 as default channel. ">
<polygon fill="white" stroke="black" points="152.5,-0.5 152.5,-19.5 283.5,-19.5 283.5,-0.5 152.5,-0.5"/>
<text text-anchor="middle" x="218" y="-7.5" font-family="Helvetica,sans-Serif" font-size="10.00">mavlink_finalize_message</text>
</a>
</g>
</g>
<!-- Node1&#45;&gt;Node4 -->
<g id="edge4" class="edge"><title>Node1&#45;&gt;Node4</title>
<path fill="none" stroke="midnightblue" d="M116.042,-34.2811C132.878,-30.2319 151.159,-25.8351 167.481,-21.9097"/>
<polygon fill="midnightblue" stroke="midnightblue" points="168.455,-25.2753 177.359,-19.5338 166.818,-18.4693 168.455,-25.2753"/>
</g>
<!-- Node2&#45;&gt;Node3 -->
<g id="edge2" class="edge"><title>Node2&#45;&gt;Node3</title>
<path fill="none" stroke="midnightblue" d="M278.592,-78.5997C288.912,-77.3181 299.665,-75.9828 310.046,-74.6936"/>
<polygon fill="midnightblue" stroke="midnightblue" points="310.782,-78.1292 320.275,-73.4234 309.919,-71.1826 310.782,-78.1292"/>
</g>
</g>
</svg>
