<?xml version="1.0" encoding="UTF-8" standalone="no"?>
<!DOCTYPE svg PUBLIC "-//W3C//DTD SVG 1.1//EN"
 "http://www.w3.org/Graphics/SVG/1.1/DTD/svg11.dtd">
<!-- Generated by graphviz version 2.36.0 (20140111.2315)
 -->
<!-- Title: mavlink_msg_position_target_local_ned_get_afx Pages: 1 -->
<svg width="730pt" height="38pt"
 viewBox="0.00 0.00 730.00 38.00" xmlns="http://www.w3.org/2000/svg" xmlns:xlink="http://www.w3.org/1999/xlink">
<g id="graph0" class="graph" transform="scale(1 1) rotate(0) translate(4 34)">
<title>mavlink_msg_position_target_local_ned_get_afx</title>
<polygon fill="white" stroke="none" points="-4,4 -4,-34 726,-34 726,4 -4,4"/>
<!-- Node1 -->
<g id="node1" class="node"><title>Node1</title>
<polygon fill="#bfbfbf" stroke="black" points="0.5,-0 0.5,-30 131.5,-30 131.5,-0 0.5,-0"/>
<text text-anchor="start" x="8.5" y="-18" font-family="Helvetica,sans-Serif" font-size="10.00">mavlink_msg_position</text>
<text text-anchor="middle" x="66" y="-7" font-family="Helvetica,sans-Serif" font-size="10.00">_target_local_ned_get_afx</text>
</g>
<!-- Node2 -->
<g id="node2" class="node"><title>Node2</title>
<g id="a_node2"><a xlink:href="$mavlink__msg__position__target__local__ned_8h.html#a55639fba1a8ed19fbfdc7a72501f4e35" xlink:title="Decode a position_target_local_ned message into a struct. ">
<polygon fill="white" stroke="black" points="168,-0 168,-30 298,-30 298,-0 168,-0"/>
<text text-anchor="start" x="176" y="-18" font-family="Helvetica,sans-Serif" font-size="10.00">mavlink_msg_position</text>
<text text-anchor="middle" x="233" y="-7" font-family="Helvetica,sans-Serif" font-size="10.00">_target_local_ned_decode</text>
</a>
</g>
</g>
<!-- Node1&#45;&gt;Node2 -->
<g id="edge1" class="edge"><title>Node1&#45;&gt;Node2</title>
<path fill="none" stroke="midnightblue" d="M141.894,-15C150.609,-15 159.439,-15 167.989,-15"/>
<polygon fill="midnightblue" stroke="midnightblue" points="141.739,-11.5001 131.739,-15 141.739,-18.5001 141.739,-11.5001"/>
</g>
<!-- Node3 -->
<g id="node3" class="node"><title>Node3</title>
<g id="a_node3"><a xlink:href="$v1_80_2common_2testsuite_8h.html#a898278c6782993c6b2b6c1ea6668febe" xlink:title="mavlink_test_position\l_target_local_ned">
<polygon fill="white" stroke="black" points="334.5,-0 334.5,-30 445.5,-30 445.5,-0 334.5,-0"/>
<text text-anchor="start" x="342.5" y="-18" font-family="Helvetica,sans-Serif" font-size="10.00">mavlink_test_position</text>
<text text-anchor="middle" x="390" y="-7" font-family="Helvetica,sans-Serif" font-size="10.00">_target_local_ned</text>
</a>
</g>
</g>
<!-- Node2&#45;&gt;Node3 -->
<g id="edge2" class="edge"><title>Node2&#45;&gt;Node3</title>
<path fill="none" stroke="midnightblue" d="M308.569,-15C317.284,-15 326.049,-15 334.421,-15"/>
<polygon fill="midnightblue" stroke="midnightblue" points="308.387,-11.5001 298.387,-15 308.387,-18.5001 308.387,-11.5001"/>
</g>
<!-- Node4 -->
<g id="node4" class="node"><title>Node4</title>
<g id="a_node4"><a xlink:href="$v1_80_2common_2testsuite_8h.html#af349432601ac003d2c80a69c100c70a4" xlink:title="mavlink_test_common">
<polygon fill="white" stroke="black" points="482.5,-5.5 482.5,-24.5 597.5,-24.5 597.5,-5.5 482.5,-5.5"/>
<text text-anchor="middle" x="540" y="-12.5" font-family="Helvetica,sans-Serif" font-size="10.00">mavlink_test_common</text>
</a>
</g>
</g>
<!-- Node3&#45;&gt;Node4 -->
<g id="edge3" class="edge"><title>Node3&#45;&gt;Node4</title>
<path fill="none" stroke="midnightblue" d="M455.833,-15C464.567,-15 473.474,-15 482.057,-15"/>
<polygon fill="midnightblue" stroke="midnightblue" points="455.689,-11.5001 445.689,-15 455.689,-18.5001 455.689,-11.5001"/>
</g>
<!-- Node5 -->
<g id="node5" class="node"><title>Node5</title>
<g id="a_node5"><a xlink:href="$v1_80_2common_2testsuite_8h.html#a4cc77b6c343679298da5d3c2b4e48759" xlink:title="mavlink_test_all">
<polygon fill="white" stroke="black" points="634.5,-5.5 634.5,-24.5 721.5,-24.5 721.5,-5.5 634.5,-5.5"/>
<text text-anchor="middle" x="678" y="-12.5" font-family="Helvetica,sans-Serif" font-size="10.00">mavlink_test_all</text>
</a>
</g>
</g>
<!-- Node4&#45;&gt;Node5 -->
<g id="edge4" class="edge"><title>Node4&#45;&gt;Node5</title>
<path fill="none" stroke="midnightblue" d="M607.996,-15C616.988,-15 626.003,-15 634.412,-15"/>
<polygon fill="midnightblue" stroke="midnightblue" points="607.888,-11.5001 597.888,-15 607.888,-18.5001 607.888,-11.5001"/>
</g>
</g>
</svg>
