<?xml version="1.0" encoding="UTF-8" standalone="no"?>
<!DOCTYPE svg PUBLIC "-//W3C//DTD SVG 1.1//EN"
 "http://www.w3.org/Graphics/SVG/1.1/DTD/svg11.dtd">
<!-- Generated by graphviz version 2.36.0 (20140111.2315)
 -->
<!-- Title: mavlink_msg_hil_rc_inputs_raw_get_time_usec Pages: 1 -->
<svg width="702pt" height="38pt"
 viewBox="0.00 0.00 702.00 38.00" xmlns="http://www.w3.org/2000/svg" xmlns:xlink="http://www.w3.org/1999/xlink">
<g id="graph0" class="graph" transform="scale(1 1) rotate(0) translate(4 34)">
<title>mavlink_msg_hil_rc_inputs_raw_get_time_usec</title>
<polygon fill="white" stroke="none" points="-4,4 -4,-34 698,-34 698,4 -4,4"/>
<!-- Node1 -->
<g id="node1" class="node"><title>Node1</title>
<polygon fill="#bfbfbf" stroke="black" points="0,-0 0,-30 138,-30 138,-0 0,-0"/>
<text text-anchor="start" x="8" y="-18" font-family="Helvetica,sans-Serif" font-size="10.00">mavlink_msg_hil_rc</text>
<text text-anchor="middle" x="69" y="-7" font-family="Helvetica,sans-Serif" font-size="10.00">_inputs_raw_get_time_usec</text>
</g>
<!-- Node2 -->
<g id="node2" class="node"><title>Node2</title>
<g id="a_node2"><a xlink:href="$mavlink__msg__hil__rc__inputs__raw_8h.html#aaac5bc4ab1b4f27f928f8937fd388f87" xlink:title="Decode a hil_rc_inputs_raw message into a struct. ">
<polygon fill="white" stroke="black" points="174,-0 174,-30 280,-30 280,-0 174,-0"/>
<text text-anchor="start" x="182" y="-18" font-family="Helvetica,sans-Serif" font-size="10.00">mavlink_msg_hil_rc</text>
<text text-anchor="middle" x="227" y="-7" font-family="Helvetica,sans-Serif" font-size="10.00">_inputs_raw_decode</text>
</a>
</g>
</g>
<!-- Node1&#45;&gt;Node2 -->
<g id="edge1" class="edge"><title>Node1&#45;&gt;Node2</title>
<path fill="none" stroke="midnightblue" d="M148.695,-15C157.132,-15 165.559,-15 173.58,-15"/>
<polygon fill="midnightblue" stroke="midnightblue" points="148.424,-11.5001 138.424,-15 148.424,-18.5001 148.424,-11.5001"/>
</g>
<!-- Node3 -->
<g id="node3" class="node"><title>Node3</title>
<g id="a_node3"><a xlink:href="$v1_80_2common_2testsuite_8h.html#abb5379d55a7afd4893800e4398b3a77a" xlink:title="mavlink_test_hil_rc\l_inputs_raw">
<polygon fill="white" stroke="black" points="316.5,-0 316.5,-30 417.5,-30 417.5,-0 316.5,-0"/>
<text text-anchor="start" x="324.5" y="-18" font-family="Helvetica,sans-Serif" font-size="10.00">mavlink_test_hil_rc</text>
<text text-anchor="middle" x="367" y="-7" font-family="Helvetica,sans-Serif" font-size="10.00">_inputs_raw</text>
</a>
</g>
</g>
<!-- Node2&#45;&gt;Node3 -->
<g id="edge2" class="edge"><title>Node2&#45;&gt;Node3</title>
<path fill="none" stroke="midnightblue" d="M290.353,-15C299.112,-15 308.014,-15 316.489,-15"/>
<polygon fill="midnightblue" stroke="midnightblue" points="290.172,-11.5001 280.172,-15 290.172,-18.5001 290.172,-11.5001"/>
</g>
<!-- Node4 -->
<g id="node4" class="node"><title>Node4</title>
<g id="a_node4"><a xlink:href="$v1_80_2common_2testsuite_8h.html#af349432601ac003d2c80a69c100c70a4" xlink:title="mavlink_test_common">
<polygon fill="white" stroke="black" points="454.5,-5.5 454.5,-24.5 569.5,-24.5 569.5,-5.5 454.5,-5.5"/>
<text text-anchor="middle" x="512" y="-12.5" font-family="Helvetica,sans-Serif" font-size="10.00">mavlink_test_common</text>
</a>
</g>
</g>
<!-- Node3&#45;&gt;Node4 -->
<g id="edge3" class="edge"><title>Node3&#45;&gt;Node4</title>
<path fill="none" stroke="midnightblue" d="M427.726,-15C436.463,-15 445.441,-15 454.118,-15"/>
<polygon fill="midnightblue" stroke="midnightblue" points="427.613,-11.5001 417.613,-15 427.613,-18.5001 427.613,-11.5001"/>
</g>
<!-- Node5 -->
<g id="node5" class="node"><title>Node5</title>
<g id="a_node5"><a xlink:href="$v1_80_2common_2testsuite_8h.html#a4cc77b6c343679298da5d3c2b4e48759" xlink:title="mavlink_test_all">
<polygon fill="white" stroke="black" points="606.5,-5.5 606.5,-24.5 693.5,-24.5 693.5,-5.5 606.5,-5.5"/>
<text text-anchor="middle" x="650" y="-12.5" font-family="Helvetica,sans-Serif" font-size="10.00">mavlink_test_all</text>
</a>
</g>
</g>
<!-- Node4&#45;&gt;Node5 -->
<g id="edge4" class="edge"><title>Node4&#45;&gt;Node5</title>
<path fill="none" stroke="midnightblue" d="M579.996,-15C588.988,-15 598.003,-15 606.412,-15"/>
<polygon fill="midnightblue" stroke="midnightblue" points="579.888,-11.5001 569.888,-15 579.888,-18.5001 579.888,-11.5001"/>
</g>
</g>
</svg>
