<?xml version="1.0" encoding="UTF-8" standalone="no"?>
<!DOCTYPE svg PUBLIC "-//W3C//DTD SVG 1.1//EN"
 "http://www.w3.org/Graphics/SVG/1.1/DTD/svg11.dtd">
<!-- Generated by graphviz version 2.36.0 (20140111.2315)
 -->
<!-- Title: mavlink_msg_mission_set_current_decode Pages: 1 -->
<svg width="278pt" height="157pt"
 viewBox="0.00 0.00 278.00 157.00" xmlns="http://www.w3.org/2000/svg" xmlns:xlink="http://www.w3.org/1999/xlink">
<g id="graph0" class="graph" transform="scale(1 1) rotate(0) translate(4 153)">
<title>mavlink_msg_mission_set_current_decode</title>
<polygon fill="white" stroke="none" points="-4,4 -4,-153 274,-153 274,4 -4,4"/>
<!-- Node1 -->
<g id="node1" class="node"><title>Node1</title>
<polygon fill="#bfbfbf" stroke="black" points="0.5,-65 0.5,-95 113.5,-95 113.5,-65 0.5,-65"/>
<text text-anchor="start" x="8.5" y="-83" font-family="Helvetica,sans-Serif" font-size="10.00">mavlink_msg_mission</text>
<text text-anchor="middle" x="57" y="-72" font-family="Helvetica,sans-Serif" font-size="10.00">_set_current_decode</text>
</g>
<!-- Node2 -->
<g id="node2" class="node"><title>Node2</title>
<g id="a_node2"><a xlink:href="$mavlink__msg__mission__set__current_8h.html#a1fbbd84397bb4488e992cc4aab02f4e4" xlink:title="Get field seq from mission_set_current message. ">
<polygon fill="white" stroke="black" points="153.5,-119 153.5,-149 266.5,-149 266.5,-119 153.5,-119"/>
<text text-anchor="start" x="161.5" y="-137" font-family="Helvetica,sans-Serif" font-size="10.00">mavlink_msg_mission</text>
<text text-anchor="middle" x="210" y="-126" font-family="Helvetica,sans-Serif" font-size="10.00">_set_current_get_seq</text>
</a>
</g>
</g>
<!-- Node1&#45;&gt;Node2 -->
<g id="edge1" class="edge"><title>Node1&#45;&gt;Node2</title>
<path fill="none" stroke="midnightblue" d="M100.062,-95.042C117.822,-101.393 138.677,-108.851 157.358,-115.532"/>
<polygon fill="midnightblue" stroke="midnightblue" points="156.307,-118.873 166.902,-118.945 158.665,-112.282 156.307,-118.873"/>
</g>
<!-- Node3 -->
<g id="node3" class="node"><title>Node3</title>
<g id="a_node3"><a xlink:href="$mavlink__msg__mission__set__current_8h.html#a8f8267540cc78d6a887bc7ac91a9a908" xlink:title="Send a mission_set_current message. ">
<polygon fill="white" stroke="black" points="150.5,-59.5 150.5,-100.5 269.5,-100.5 269.5,-59.5 150.5,-59.5"/>
<text text-anchor="start" x="158.5" y="-88.5" font-family="Helvetica,sans-Serif" font-size="10.00">mavlink_msg_mission</text>
<text text-anchor="start" x="158.5" y="-77.5" font-family="Helvetica,sans-Serif" font-size="10.00">_set_current_get_target</text>
<text text-anchor="middle" x="210" y="-66.5" font-family="Helvetica,sans-Serif" font-size="10.00">_system</text>
</a>
</g>
</g>
<!-- Node1&#45;&gt;Node3 -->
<g id="edge2" class="edge"><title>Node1&#45;&gt;Node3</title>
<path fill="none" stroke="midnightblue" d="M113.798,-80C122.372,-80 131.311,-80 140.129,-80"/>
<polygon fill="midnightblue" stroke="midnightblue" points="140.395,-83.5001 150.395,-80 140.395,-76.5001 140.395,-83.5001"/>
</g>
<!-- Node4 -->
<g id="node4" class="node"><title>Node4</title>
<g id="a_node4"><a xlink:href="$mavlink__msg__mission__set__current_8h.html#a4e6f75dab7034b548ad8b744d4771a1d" xlink:title="Get field target_component from mission_set_current message. ">
<polygon fill="white" stroke="black" points="150.5,0.5 150.5,-40.5 269.5,-40.5 269.5,0.5 150.5,0.5"/>
<text text-anchor="start" x="158.5" y="-28.5" font-family="Helvetica,sans-Serif" font-size="10.00">mavlink_msg_mission</text>
<text text-anchor="start" x="158.5" y="-17.5" font-family="Helvetica,sans-Serif" font-size="10.00">_set_current_get_target</text>
<text text-anchor="middle" x="210" y="-6.5" font-family="Helvetica,sans-Serif" font-size="10.00">_component</text>
</a>
</g>
</g>
<!-- Node1&#45;&gt;Node4 -->
<g id="edge3" class="edge"><title>Node1&#45;&gt;Node4</title>
<path fill="none" stroke="midnightblue" d="M96.1037,-64.8595C111.732,-58.6497 130.22,-51.3035 147.662,-44.3729"/>
<polygon fill="midnightblue" stroke="midnightblue" points="149.218,-47.5205 157.219,-40.5751 146.634,-41.0152 149.218,-47.5205"/>
</g>
</g>
</svg>
