<?xml version="1.0" encoding="UTF-8" standalone="no"?>
<!DOCTYPE svg PUBLIC "-//W3C//DTD SVG 1.1//EN"
 "http://www.w3.org/Graphics/SVG/1.1/DTD/svg11.dtd">
<!-- Generated by graphviz version 2.36.0 (20140111.2315)
 -->
<!-- Title: mavlink_msg_rally_point_get_target_system Pages: 1 -->
<svg width="750pt" height="114pt"
 viewBox="0.00 0.00 750.00 114.00" xmlns="http://www.w3.org/2000/svg" xmlns:xlink="http://www.w3.org/1999/xlink">
<g id="graph0" class="graph" transform="scale(1 1) rotate(0) translate(4 110)">
<title>mavlink_msg_rally_point_get_target_system</title>
<polygon fill="white" stroke="none" points="-4,4 -4,-110 746,-110 746,4 -4,4"/>
<!-- Node1 -->
<g id="node1" class="node"><title>Node1</title>
<polygon fill="#bfbfbf" stroke="black" points="0,-24 0,-54 124,-54 124,-24 0,-24"/>
<text text-anchor="start" x="8" y="-42" font-family="Helvetica,sans-Serif" font-size="10.00">mavlink_msg_rally_point</text>
<text text-anchor="middle" x="62" y="-31" font-family="Helvetica,sans-Serif" font-size="10.00">_get_target_system</text>
</g>
<!-- Node2 -->
<g id="node2" class="node"><title>Node2</title>
<g id="a_node2"><a xlink:href="$classMAVLink__routing.html#afca07626745616e05d03caf5a0601c2f" xlink:title="MAVLink_routing::get\l_targets">
<polygon fill="white" stroke="black" points="167,-49 167,-79 277,-79 277,-49 167,-49"/>
<text text-anchor="start" x="175" y="-67" font-family="Helvetica,sans-Serif" font-size="10.00">MAVLink_routing::get</text>
<text text-anchor="middle" x="222" y="-56" font-family="Helvetica,sans-Serif" font-size="10.00">_targets</text>
</a>
</g>
</g>
<!-- Node1&#45;&gt;Node2 -->
<g id="edge1" class="edge"><title>Node1&#45;&gt;Node2</title>
<path fill="none" stroke="midnightblue" d="M134.086,-50.2477C145.063,-51.9846 156.246,-53.7541 166.776,-55.4202"/>
<polygon fill="midnightblue" stroke="midnightblue" points="134.511,-46.7716 124.087,-48.6657 133.417,-53.6856 134.511,-46.7716"/>
</g>
<!-- Node6 -->
<g id="node6" class="node"><title>Node6</title>
<g id="a_node6"><a xlink:href="$mavlink__msg__rally__point_8h.html#a98500bba8e08464a3a80617ecdcaee4c" xlink:title="Decode a rally_point message into a struct. ">
<polygon fill="white" stroke="black" points="160,-0 160,-30 284,-30 284,-0 160,-0"/>
<text text-anchor="start" x="168" y="-18" font-family="Helvetica,sans-Serif" font-size="10.00">mavlink_msg_rally_point</text>
<text text-anchor="middle" x="222" y="-7" font-family="Helvetica,sans-Serif" font-size="10.00">_decode</text>
</a>
</g>
</g>
<!-- Node1&#45;&gt;Node6 -->
<g id="edge5" class="edge"><title>Node1&#45;&gt;Node6</title>
<path fill="none" stroke="midnightblue" d="M134.086,-28.2022C142.673,-26.8977 151.387,-25.5742 159.815,-24.2939"/>
<polygon fill="midnightblue" stroke="midnightblue" points="133.448,-24.7588 124.087,-29.721 134.499,-31.6794 133.448,-24.7588"/>
</g>
<!-- Node3 -->
<g id="node3" class="node"><title>Node3</title>
<g id="a_node3"><a xlink:href="$classMAVLink__routing.html#a474038c8ab695c57e23fb6fec4664947" xlink:title="MAVLink_routing::check\l_and_forward">
<polygon fill="white" stroke="black" points="320.5,-49 320.5,-79 443.5,-79 443.5,-49 320.5,-49"/>
<text text-anchor="start" x="328.5" y="-67" font-family="Helvetica,sans-Serif" font-size="10.00">MAVLink_routing::check</text>
<text text-anchor="middle" x="382" y="-56" font-family="Helvetica,sans-Serif" font-size="10.00">_and_forward</text>
</a>
</g>
</g>
<!-- Node2&#45;&gt;Node3 -->
<g id="edge2" class="edge"><title>Node2&#45;&gt;Node3</title>
<path fill="none" stroke="midnightblue" d="M287.597,-64C298.407,-64 309.589,-64 320.296,-64"/>
<polygon fill="midnightblue" stroke="midnightblue" points="287.375,-60.5001 277.375,-64 287.375,-67.5001 287.375,-60.5001"/>
</g>
<!-- Node4 -->
<g id="node4" class="node"><title>Node4</title>
<g id="a_node4"><a xlink:href="$routing_8pde.html#a0b33edabd7f1c4e4a0bf32c67269be2f" xlink:title="loop">
<polygon fill="white" stroke="black" points="531.5,-86.5 531.5,-105.5 566.5,-105.5 566.5,-86.5 531.5,-86.5"/>
<text text-anchor="middle" x="549" y="-93.5" font-family="Helvetica,sans-Serif" font-size="10.00">loop</text>
</a>
</g>
</g>
<!-- Node3&#45;&gt;Node4 -->
<g id="edge3" class="edge"><title>Node3&#45;&gt;Node4</title>
<path fill="none" stroke="midnightblue" d="M453.586,-77.6893C482.391,-83.2758 513.176,-89.2462 531.493,-92.7986"/>
<polygon fill="midnightblue" stroke="midnightblue" points="453.986,-74.2019 443.503,-75.7339 452.654,-81.0739 453.986,-74.2019"/>
</g>
<!-- Node5 -->
<g id="node5" class="node"><title>Node5</title>
<g id="a_node5"><a xlink:href="$classGCS__MAVLINK.html#a7d8788ed53976a200971612229fe2533" xlink:title="GCS_MAVLINK::update">
<polygon fill="white" stroke="black" points="487.5,-48.5 487.5,-67.5 610.5,-67.5 610.5,-48.5 487.5,-48.5"/>
<text text-anchor="middle" x="549" y="-55.5" font-family="Helvetica,sans-Serif" font-size="10.00">GCS_MAVLINK::update</text>
</a>
</g>
</g>
<!-- Node3&#45;&gt;Node5 -->
<g id="edge4" class="edge"><title>Node3&#45;&gt;Node5</title>
<path fill="none" stroke="midnightblue" d="M453.658,-61.4306C464.833,-61.0242 476.304,-60.6071 487.228,-60.2099"/>
<polygon fill="midnightblue" stroke="midnightblue" points="453.369,-57.9387 443.503,-61.7999 453.624,-64.9341 453.369,-57.9387"/>
</g>
<!-- Node7 -->
<g id="node7" class="node"><title>Node7</title>
<g id="a_node7"><a xlink:href="$v1_80_2ardupilotmega_2testsuite_8h.html#ab8b2e24941b65200063b3d5872e4e41a" xlink:title="mavlink_test_rally\l_point">
<polygon fill="white" stroke="black" points="334.5,-0 334.5,-30 429.5,-30 429.5,-0 334.5,-0"/>
<text text-anchor="start" x="342.5" y="-18" font-family="Helvetica,sans-Serif" font-size="10.00">mavlink_test_rally</text>
<text text-anchor="middle" x="382" y="-7" font-family="Helvetica,sans-Serif" font-size="10.00">_point</text>
</a>
</g>
</g>
<!-- Node6&#45;&gt;Node7 -->
<g id="edge6" class="edge"><title>Node6&#45;&gt;Node7</title>
<path fill="none" stroke="midnightblue" d="M294.359,-15C307.905,-15 321.752,-15 334.289,-15"/>
<polygon fill="midnightblue" stroke="midnightblue" points="294.087,-11.5001 284.087,-15 294.087,-18.5001 294.087,-11.5001"/>
</g>
<!-- Node8 -->
<g id="node8" class="node"><title>Node8</title>
<g id="a_node8"><a xlink:href="$v1_80_2ardupilotmega_2testsuite_8h.html#ab264d471ac2f46584f2bb580704b5e9d" xlink:title="mavlink_test_ardupilotmega">
<polygon fill="white" stroke="black" points="480,-5.5 480,-24.5 618,-24.5 618,-5.5 480,-5.5"/>
<text text-anchor="middle" x="549" y="-12.5" font-family="Helvetica,sans-Serif" font-size="10.00">mavlink_test_ardupilotmega</text>
</a>
</g>
</g>
<!-- Node7&#45;&gt;Node8 -->
<g id="edge7" class="edge"><title>Node7&#45;&gt;Node8</title>
<path fill="none" stroke="midnightblue" d="M439.92,-15C452.767,-15 466.533,-15 479.79,-15"/>
<polygon fill="midnightblue" stroke="midnightblue" points="439.841,-11.5001 429.841,-15 439.841,-18.5001 439.841,-11.5001"/>
</g>
<!-- Node9 -->
<g id="node9" class="node"><title>Node9</title>
<g id="a_node9"><a xlink:href="$v1_80_2ardupilotmega_2testsuite_8h.html#a4cc77b6c343679298da5d3c2b4e48759" xlink:title="mavlink_test_all">
<polygon fill="white" stroke="black" points="654.5,-5.5 654.5,-24.5 741.5,-24.5 741.5,-5.5 654.5,-5.5"/>
<text text-anchor="middle" x="698" y="-12.5" font-family="Helvetica,sans-Serif" font-size="10.00">mavlink_test_all</text>
</a>
</g>
</g>
<!-- Node8&#45;&gt;Node9 -->
<g id="edge8" class="edge"><title>Node8&#45;&gt;Node9</title>
<path fill="none" stroke="midnightblue" d="M628.438,-15C637.373,-15 646.211,-15 654.42,-15"/>
<polygon fill="midnightblue" stroke="midnightblue" points="628.336,-11.5001 618.336,-15 628.336,-18.5001 628.336,-11.5001"/>
</g>
</g>
</svg>
