<?xml version="1.0" encoding="UTF-8" standalone="no"?>
<!DOCTYPE svg PUBLIC "-//W3C//DTD SVG 1.1//EN"
 "http://www.w3.org/Graphics/SVG/1.1/DTD/svg11.dtd">
<!-- Generated by graphviz version 2.36.0 (20140111.2315)
 -->
<!-- Title: mavlink_msg_waypoint_reached_pack Pages: 1 -->
<svg width="712pt" height="61pt"
 viewBox="0.00 0.00 712.00 61.00" xmlns="http://www.w3.org/2000/svg" xmlns:xlink="http://www.w3.org/1999/xlink">
<g id="graph0" class="graph" transform="scale(1 1) rotate(0) translate(4 57)">
<title>mavlink_msg_waypoint_reached_pack</title>
<polygon fill="white" stroke="none" points="-4,4 -4,-57 708,-57 708,4 -4,4"/>
<!-- Node1 -->
<g id="node1" class="node"><title>Node1</title>
<polygon fill="#bfbfbf" stroke="black" points="0.5,-1 0.5,-31 119.5,-31 119.5,-1 0.5,-1"/>
<text text-anchor="start" x="8.5" y="-19" font-family="Helvetica,sans-Serif" font-size="10.00">mavlink_msg_waypoint</text>
<text text-anchor="middle" x="60" y="-8" font-family="Helvetica,sans-Serif" font-size="10.00">_reached_pack</text>
</g>
<!-- Node2 -->
<g id="node2" class="node"><title>Node2</title>
<g id="a_node2"><a xlink:href="$mavlink__msg__waypoint__reached_8h.html#acdaee6723536c32e6ef202241295d02a" xlink:title="Encode a waypoint_reached struct into a message. ">
<polygon fill="white" stroke="black" points="156.5,-23 156.5,-53 275.5,-53 275.5,-23 156.5,-23"/>
<text text-anchor="start" x="164.5" y="-41" font-family="Helvetica,sans-Serif" font-size="10.00">mavlink_msg_waypoint</text>
<text text-anchor="middle" x="216" y="-30" font-family="Helvetica,sans-Serif" font-size="10.00">_reached_encode</text>
</a>
</g>
</g>
<!-- Node1&#45;&gt;Node2 -->
<g id="edge1" class="edge"><title>Node1&#45;&gt;Node2</title>
<path fill="none" stroke="midnightblue" d="M129.607,-25.801C138.497,-27.071 147.538,-28.3625 156.248,-29.6069"/>
<polygon fill="midnightblue" stroke="midnightblue" points="130.055,-22.3295 119.66,-24.38 129.065,-29.2591 130.055,-22.3295"/>
</g>
<!-- Node3 -->
<g id="node3" class="node"><title>Node3</title>
<g id="a_node3"><a xlink:href="$v0_89_2common_2testsuite_8h.html#aa879b4c2624df20fc69e4268ce67a109" xlink:title="mavlink_test_waypoint\l_reached">
<polygon fill="white" stroke="black" points="312,-1 312,-31 428,-31 428,-1 312,-1"/>
<text text-anchor="start" x="320" y="-19" font-family="Helvetica,sans-Serif" font-size="10.00">mavlink_test_waypoint</text>
<text text-anchor="middle" x="370" y="-8" font-family="Helvetica,sans-Serif" font-size="10.00">_reached</text>
</a>
</g>
</g>
<!-- Node1&#45;&gt;Node3 -->
<g id="edge5" class="edge"><title>Node1&#45;&gt;Node3</title>
<path fill="none" stroke="midnightblue" d="M129.806,-14.3804C138.621,-14.2232 147.523,-14.0892 156,-14 209.33,-13.4387 222.67,-13.4266 276,-14 287.627,-14.125 300.07,-14.3379 311.951,-14.5794"/>
<polygon fill="midnightblue" stroke="midnightblue" points="129.461,-10.8862 119.529,-14.5743 129.593,-17.885 129.461,-10.8862"/>
</g>
<!-- Node2&#45;&gt;Node3 -->
<g id="edge2" class="edge"><title>Node2&#45;&gt;Node3</title>
<path fill="none" stroke="midnightblue" d="M285.889,-28.0292C294.584,-26.7707 303.404,-25.4941 311.889,-24.2661"/>
<polygon fill="midnightblue" stroke="midnightblue" points="285.163,-24.5978 275.767,-29.4942 286.165,-31.5256 285.163,-24.5978"/>
</g>
<!-- Node4 -->
<g id="node4" class="node"><title>Node4</title>
<g id="a_node4"><a xlink:href="$v0_89_2common_2testsuite_8h.html#af349432601ac003d2c80a69c100c70a4" xlink:title="mavlink_test_common">
<polygon fill="white" stroke="black" points="464.5,-6.5 464.5,-25.5 579.5,-25.5 579.5,-6.5 464.5,-6.5"/>
<text text-anchor="middle" x="522" y="-13.5" font-family="Helvetica,sans-Serif" font-size="10.00">mavlink_test_common</text>
</a>
</g>
</g>
<!-- Node3&#45;&gt;Node4 -->
<g id="edge3" class="edge"><title>Node3&#45;&gt;Node4</title>
<path fill="none" stroke="midnightblue" d="M438.176,-16C446.806,-16 455.576,-16 464.022,-16"/>
<polygon fill="midnightblue" stroke="midnightblue" points="438.137,-12.5001 428.136,-16 438.136,-19.5001 438.137,-12.5001"/>
</g>
<!-- Node5 -->
<g id="node5" class="node"><title>Node5</title>
<g id="a_node5"><a xlink:href="$v0_89_2common_2testsuite_8h.html#a4cc77b6c343679298da5d3c2b4e48759" xlink:title="mavlink_test_all">
<polygon fill="white" stroke="black" points="616.5,-6.5 616.5,-25.5 703.5,-25.5 703.5,-6.5 616.5,-6.5"/>
<text text-anchor="middle" x="660" y="-13.5" font-family="Helvetica,sans-Serif" font-size="10.00">mavlink_test_all</text>
</a>
</g>
</g>
<!-- Node4&#45;&gt;Node5 -->
<g id="edge4" class="edge"><title>Node4&#45;&gt;Node5</title>
<path fill="none" stroke="midnightblue" d="M589.996,-16C598.988,-16 608.003,-16 616.412,-16"/>
<polygon fill="midnightblue" stroke="midnightblue" points="589.888,-12.5001 579.888,-16 589.888,-19.5001 589.888,-12.5001"/>
</g>
</g>
</svg>
