<?xml version="1.0" encoding="UTF-8" standalone="no"?>
<!DOCTYPE svg PUBLIC "-//W3C//DTD SVG 1.1//EN"
 "http://www.w3.org/Graphics/SVG/1.1/DTD/svg11.dtd">
<!-- Generated by graphviz version 2.36.0 (20140111.2315)
 -->
<!-- Title: mavlink_msg_ahrs2_get_roll Pages: 1 -->
<svg width="760pt" height="28pt"
 viewBox="0.00 0.00 760.00 28.00" xmlns="http://www.w3.org/2000/svg" xmlns:xlink="http://www.w3.org/1999/xlink">
<g id="graph0" class="graph" transform="scale(1 1) rotate(0) translate(4 24)">
<title>mavlink_msg_ahrs2_get_roll</title>
<polygon fill="white" stroke="none" points="-4,4 -4,-24 756,-24 756,4 -4,4"/>
<!-- Node1 -->
<g id="node1" class="node"><title>Node1</title>
<polygon fill="#bfbfbf" stroke="black" points="0,-0.5 0,-19.5 140,-19.5 140,-0.5 0,-0.5"/>
<text text-anchor="middle" x="70" y="-7.5" font-family="Helvetica,sans-Serif" font-size="10.00">mavlink_msg_ahrs2_get_roll</text>
</g>
<!-- Node2 -->
<g id="node2" class="node"><title>Node2</title>
<g id="a_node2"><a xlink:href="$mavlink__msg__ahrs2_8h.html#a7c22c88ca76c0c52582c38baba384e9b" xlink:title="Decode a ahrs2 message into a struct. ">
<polygon fill="white" stroke="black" points="176,-0.5 176,-19.5 316,-19.5 316,-0.5 176,-0.5"/>
<text text-anchor="middle" x="246" y="-7.5" font-family="Helvetica,sans-Serif" font-size="10.00">mavlink_msg_ahrs2_decode</text>
</a>
</g>
</g>
<!-- Node1&#45;&gt;Node2 -->
<g id="edge1" class="edge"><title>Node1&#45;&gt;Node2</title>
<path fill="none" stroke="midnightblue" d="M150.035,-10C158.625,-10 167.319,-10 175.779,-10"/>
<polygon fill="midnightblue" stroke="midnightblue" points="150.019,-6.5001 140.019,-10 150.019,-13.5001 150.019,-6.5001"/>
</g>
<!-- Node3 -->
<g id="node3" class="node"><title>Node3</title>
<g id="a_node3"><a xlink:href="$v1_80_2ardupilotmega_2testsuite_8h.html#a9ecd1acaa442cd5c423461cfc9d648a2" xlink:title="mavlink_test_ahrs2">
<polygon fill="white" stroke="black" points="352.5,-0.5 352.5,-19.5 453.5,-19.5 453.5,-0.5 352.5,-0.5"/>
<text text-anchor="middle" x="403" y="-7.5" font-family="Helvetica,sans-Serif" font-size="10.00">mavlink_test_ahrs2</text>
</a>
</g>
</g>
<!-- Node2&#45;&gt;Node3 -->
<g id="edge2" class="edge"><title>Node2&#45;&gt;Node3</title>
<path fill="none" stroke="midnightblue" d="M326.578,-10C335.309,-10 344.004,-10 352.221,-10"/>
<polygon fill="midnightblue" stroke="midnightblue" points="326.34,-6.5001 316.34,-10 326.34,-13.5001 326.34,-6.5001"/>
</g>
<!-- Node4 -->
<g id="node4" class="node"><title>Node4</title>
<g id="a_node4"><a xlink:href="$v1_80_2ardupilotmega_2testsuite_8h.html#ab264d471ac2f46584f2bb580704b5e9d" xlink:title="mavlink_test_ardupilotmega">
<polygon fill="white" stroke="black" points="490,-0.5 490,-19.5 628,-19.5 628,-0.5 490,-0.5"/>
<text text-anchor="middle" x="559" y="-7.5" font-family="Helvetica,sans-Serif" font-size="10.00">mavlink_test_ardupilotmega</text>
</a>
</g>
</g>
<!-- Node3&#45;&gt;Node4 -->
<g id="edge3" class="edge"><title>Node3&#45;&gt;Node4</title>
<path fill="none" stroke="midnightblue" d="M463.848,-10C472.418,-10 481.286,-10 489.998,-10"/>
<polygon fill="midnightblue" stroke="midnightblue" points="463.574,-6.5001 453.574,-10 463.574,-13.5001 463.574,-6.5001"/>
</g>
<!-- Node5 -->
<g id="node5" class="node"><title>Node5</title>
<g id="a_node5"><a xlink:href="$v1_80_2ardupilotmega_2testsuite_8h.html#a4cc77b6c343679298da5d3c2b4e48759" xlink:title="mavlink_test_all">
<polygon fill="white" stroke="black" points="664.5,-0.5 664.5,-19.5 751.5,-19.5 751.5,-0.5 664.5,-0.5"/>
<text text-anchor="middle" x="708" y="-7.5" font-family="Helvetica,sans-Serif" font-size="10.00">mavlink_test_all</text>
</a>
</g>
</g>
<!-- Node4&#45;&gt;Node5 -->
<g id="edge4" class="edge"><title>Node4&#45;&gt;Node5</title>
<path fill="none" stroke="midnightblue" d="M638.438,-10C647.373,-10 656.211,-10 664.42,-10"/>
<polygon fill="midnightblue" stroke="midnightblue" points="638.336,-6.5001 628.336,-10 638.336,-13.5001 638.336,-6.5001"/>
</g>
</g>
</svg>
