<?xml version="1.0" encoding="UTF-8" standalone="no"?>
<!DOCTYPE svg PUBLIC "-//W3C//DTD SVG 1.1//EN"
 "http://www.w3.org/Graphics/SVG/1.1/DTD/svg11.dtd">
<!-- Generated by graphviz version 2.36.0 (20140111.2315)
 -->
<!-- Title: mavlink_msg_mission_count_decode Pages: 1 -->
<svg width="306pt" height="136pt"
 viewBox="0.00 0.00 306.00 136.00" xmlns="http://www.w3.org/2000/svg" xmlns:xlink="http://www.w3.org/1999/xlink">
<g id="graph0" class="graph" transform="scale(1 1) rotate(0) translate(4 132)">
<title>mavlink_msg_mission_count_decode</title>
<polygon fill="white" stroke="none" points="-4,4 -4,-132 302,-132 302,4 -4,4"/>
<!-- Node1 -->
<g id="node1" class="node"><title>Node1</title>
<polygon fill="#bfbfbf" stroke="black" points="0.5,-49 0.5,-79 113.5,-79 113.5,-49 0.5,-49"/>
<text text-anchor="start" x="8.5" y="-67" font-family="Helvetica,sans-Serif" font-size="10.00">mavlink_msg_mission</text>
<text text-anchor="middle" x="57" y="-56" font-family="Helvetica,sans-Serif" font-size="10.00">_count_decode</text>
</g>
<!-- Node2 -->
<g id="node2" class="node"><title>Node2</title>
<g id="a_node2"><a xlink:href="$mavlink__msg__mission__count_8h.html#ac24950577c77d9cbaa2a37441c2b7fc7" xlink:title="Get field count from mission_count message. ">
<polygon fill="white" stroke="black" points="167.5,-98 167.5,-128 280.5,-128 280.5,-98 167.5,-98"/>
<text text-anchor="start" x="175.5" y="-116" font-family="Helvetica,sans-Serif" font-size="10.00">mavlink_msg_mission</text>
<text text-anchor="middle" x="224" y="-105" font-family="Helvetica,sans-Serif" font-size="10.00">_count_get_count</text>
</a>
</g>
</g>
<!-- Node1&#45;&gt;Node2 -->
<g id="edge1" class="edge"><title>Node1&#45;&gt;Node2</title>
<path fill="none" stroke="midnightblue" d="M108.852,-79.1014C125.869,-84.1551 145.004,-89.8376 162.673,-95.0848"/>
<polygon fill="midnightblue" stroke="midnightblue" points="161.733,-98.4567 172.316,-97.9484 163.726,-91.7464 161.733,-98.4567"/>
</g>
<!-- Node3 -->
<g id="node3" class="node"><title>Node3</title>
<g id="a_node3"><a xlink:href="$mavlink__msg__mission__count_8h.html#a500da310e43c813a47ee71e2387b8a0a" xlink:title="Send a mission_count message. ">
<polygon fill="white" stroke="black" points="158,-49 158,-79 290,-79 290,-49 158,-49"/>
<text text-anchor="start" x="166" y="-67" font-family="Helvetica,sans-Serif" font-size="10.00">mavlink_msg_mission</text>
<text text-anchor="middle" x="224" y="-56" font-family="Helvetica,sans-Serif" font-size="10.00">_count_get_target_system</text>
</a>
</g>
</g>
<!-- Node1&#45;&gt;Node3 -->
<g id="edge2" class="edge"><title>Node1&#45;&gt;Node3</title>
<path fill="none" stroke="midnightblue" d="M113.861,-64C124.67,-64 136.162,-64 147.477,-64"/>
<polygon fill="midnightblue" stroke="midnightblue" points="147.795,-67.5001 157.795,-64 147.795,-60.5001 147.795,-67.5001"/>
</g>
<!-- Node4 -->
<g id="node4" class="node"><title>Node4</title>
<g id="a_node4"><a xlink:href="$mavlink__msg__mission__count_8h.html#a0f68825d53753bf9db735c8b4902390c" xlink:title="Get field target_component from mission_count message. ">
<polygon fill="white" stroke="black" points="150,-0 150,-30 298,-30 298,-0 150,-0"/>
<text text-anchor="start" x="158" y="-18" font-family="Helvetica,sans-Serif" font-size="10.00">mavlink_msg_mission</text>
<text text-anchor="middle" x="224" y="-7" font-family="Helvetica,sans-Serif" font-size="10.00">_count_get_target_component</text>
</a>
</g>
</g>
<!-- Node1&#45;&gt;Node4 -->
<g id="edge3" class="edge"><title>Node1&#45;&gt;Node4</title>
<path fill="none" stroke="midnightblue" d="M108.852,-48.8986C125.869,-43.8449 145.004,-38.1624 162.673,-32.9152"/>
<polygon fill="midnightblue" stroke="midnightblue" points="163.726,-36.2536 172.316,-30.0516 161.733,-29.5433 163.726,-36.2536"/>
</g>
</g>
</svg>
