<?xml version="1.0" encoding="UTF-8" standalone="no"?>
<!DOCTYPE svg PUBLIC "-//W3C//DTD SVG 1.1//EN"
 "http://www.w3.org/Graphics/SVG/1.1/DTD/svg11.dtd">
<!-- Generated by graphviz version 2.36.0 (20140111.2315)
 -->
<!-- Title: mavlink_msg_rally_point_pack Pages: 1 -->
<svg width="748pt" height="61pt"
 viewBox="0.00 0.00 748.00 61.00" xmlns="http://www.w3.org/2000/svg" xmlns:xlink="http://www.w3.org/1999/xlink">
<g id="graph0" class="graph" transform="scale(1 1) rotate(0) translate(4 57)">
<title>mavlink_msg_rally_point_pack</title>
<polygon fill="white" stroke="none" points="-4,4 -4,-57 744,-57 744,4 -4,4"/>
<!-- Node1 -->
<g id="node1" class="node"><title>Node1</title>
<polygon fill="#bfbfbf" stroke="black" points="0,-6.5 0,-25.5 150,-25.5 150,-6.5 0,-6.5"/>
<text text-anchor="middle" x="75" y="-13.5" font-family="Helvetica,sans-Serif" font-size="10.00">mavlink_msg_rally_point_pack</text>
</g>
<!-- Node2 -->
<g id="node2" class="node"><title>Node2</title>
<g id="a_node2"><a xlink:href="$mavlink__msg__rally__point_8h.html#acff20559cb1c86d887efab4d23df2db5" xlink:title="Encode a rally_point struct. ">
<polygon fill="white" stroke="black" points="186,-23 186,-53 310,-53 310,-23 186,-23"/>
<text text-anchor="start" x="194" y="-41" font-family="Helvetica,sans-Serif" font-size="10.00">mavlink_msg_rally_point</text>
<text text-anchor="middle" x="248" y="-30" font-family="Helvetica,sans-Serif" font-size="10.00">_encode</text>
</a>
</g>
</g>
<!-- Node1&#45;&gt;Node2 -->
<g id="edge1" class="edge"><title>Node1&#45;&gt;Node2</title>
<path fill="none" stroke="midnightblue" d="M160.189,-26.8314C168.887,-27.9504 177.603,-29.0717 185.977,-30.1491"/>
<polygon fill="midnightblue" stroke="midnightblue" points="160.373,-23.3263 150.009,-25.5216 159.48,-30.2691 160.373,-23.3263"/>
</g>
<!-- Node3 -->
<g id="node3" class="node"><title>Node3</title>
<g id="a_node3"><a xlink:href="$v1_80_2ardupilotmega_2testsuite_8h.html#ab8b2e24941b65200063b3d5872e4e41a" xlink:title="mavlink_test_rally\l_point">
<polygon fill="white" stroke="black" points="346.5,-1 346.5,-31 441.5,-31 441.5,-1 346.5,-1"/>
<text text-anchor="start" x="354.5" y="-19" font-family="Helvetica,sans-Serif" font-size="10.00">mavlink_test_rally</text>
<text text-anchor="middle" x="394" y="-8" font-family="Helvetica,sans-Serif" font-size="10.00">_point</text>
</a>
</g>
</g>
<!-- Node1&#45;&gt;Node3 -->
<g id="edge5" class="edge"><title>Node1&#45;&gt;Node3</title>
<path fill="none" stroke="midnightblue" d="M160.386,-14.3096C169.037,-14.1831 177.695,-14.0755 186,-14 241.109,-13.4991 254.893,-13.3362 310,-14 321.819,-14.1424 334.582,-14.3987 346.472,-14.6815"/>
<polygon fill="midnightblue" stroke="midnightblue" points="160.201,-10.8119 150.256,-14.4661 160.309,-17.8111 160.201,-10.8119"/>
</g>
<!-- Node2&#45;&gt;Node3 -->
<g id="edge2" class="edge"><title>Node2&#45;&gt;Node3</title>
<path fill="none" stroke="midnightblue" d="M320.07,-27.1421C328.961,-25.7838 337.87,-24.4226 346.257,-23.1413"/>
<polygon fill="midnightblue" stroke="midnightblue" points="319.426,-23.6998 310.069,-28.67 320.483,-30.6195 319.426,-23.6998"/>
</g>
<!-- Node4 -->
<g id="node4" class="node"><title>Node4</title>
<g id="a_node4"><a xlink:href="$v1_80_2ardupilotmega_2testsuite_8h.html#ab264d471ac2f46584f2bb580704b5e9d" xlink:title="mavlink_test_ardupilotmega">
<polygon fill="white" stroke="black" points="478,-6.5 478,-25.5 616,-25.5 616,-6.5 478,-6.5"/>
<text text-anchor="middle" x="547" y="-13.5" font-family="Helvetica,sans-Serif" font-size="10.00">mavlink_test_ardupilotmega</text>
</a>
</g>
</g>
<!-- Node3&#45;&gt;Node4 -->
<g id="edge3" class="edge"><title>Node3&#45;&gt;Node4</title>
<path fill="none" stroke="midnightblue" d="M451.765,-16C460.316,-16 469.21,-16 477.967,-16"/>
<polygon fill="midnightblue" stroke="midnightblue" points="451.537,-12.5001 441.537,-16 451.537,-19.5001 451.537,-12.5001"/>
</g>
<!-- Node5 -->
<g id="node5" class="node"><title>Node5</title>
<g id="a_node5"><a xlink:href="$v1_80_2ardupilotmega_2testsuite_8h.html#a4cc77b6c343679298da5d3c2b4e48759" xlink:title="mavlink_test_all">
<polygon fill="white" stroke="black" points="652.5,-6.5 652.5,-25.5 739.5,-25.5 739.5,-6.5 652.5,-6.5"/>
<text text-anchor="middle" x="696" y="-13.5" font-family="Helvetica,sans-Serif" font-size="10.00">mavlink_test_all</text>
</a>
</g>
</g>
<!-- Node4&#45;&gt;Node5 -->
<g id="edge4" class="edge"><title>Node4&#45;&gt;Node5</title>
<path fill="none" stroke="midnightblue" d="M626.438,-16C635.373,-16 644.211,-16 652.42,-16"/>
<polygon fill="midnightblue" stroke="midnightblue" points="626.336,-12.5001 616.336,-16 626.336,-19.5001 626.336,-12.5001"/>
</g>
</g>
</svg>
