<?xml version="1.0" encoding="UTF-8" standalone="no"?>
<!DOCTYPE svg PUBLIC "-//W3C//DTD SVG 1.1//EN"
 "http://www.w3.org/Graphics/SVG/1.1/DTD/svg11.dtd">
<!-- Generated by graphviz version 2.36.0 (20140111.2315)
 -->
<!-- Title: mavlink_msg_scaled_pressure2_get_time_boot_ms Pages: 1 -->
<svg width="678pt" height="48pt"
 viewBox="0.00 0.00 678.00 48.00" xmlns="http://www.w3.org/2000/svg" xmlns:xlink="http://www.w3.org/1999/xlink">
<g id="graph0" class="graph" transform="scale(1 1) rotate(0) translate(4 44)">
<title>mavlink_msg_scaled_pressure2_get_time_boot_ms</title>
<polygon fill="white" stroke="none" points="-4,4 -4,-44 674,-44 674,4 -4,4"/>
<!-- Node1 -->
<g id="node1" class="node"><title>Node1</title>
<polygon fill="#bfbfbf" stroke="black" points="0,0.5 0,-40.5 108,-40.5 108,0.5 0,0.5"/>
<text text-anchor="start" x="8" y="-28.5" font-family="Helvetica,sans-Serif" font-size="10.00">mavlink_msg_scaled</text>
<text text-anchor="start" x="8" y="-17.5" font-family="Helvetica,sans-Serif" font-size="10.00">_pressure2_get_time</text>
<text text-anchor="middle" x="54" y="-6.5" font-family="Helvetica,sans-Serif" font-size="10.00">_boot_ms</text>
</g>
<!-- Node2 -->
<g id="node2" class="node"><title>Node2</title>
<g id="a_node2"><a xlink:href="$mavlink__msg__scaled__pressure2_8h.html#a07cfa93d08f7291278412c9e4fb3be19" xlink:title="Decode a scaled_pressure2 message into a struct. ">
<polygon fill="white" stroke="black" points="144,-5 144,-35 252,-35 252,-5 144,-5"/>
<text text-anchor="start" x="152" y="-23" font-family="Helvetica,sans-Serif" font-size="10.00">mavlink_msg_scaled</text>
<text text-anchor="middle" x="198" y="-12" font-family="Helvetica,sans-Serif" font-size="10.00">_pressure2_decode</text>
</a>
</g>
</g>
<!-- Node1&#45;&gt;Node2 -->
<g id="edge1" class="edge"><title>Node1&#45;&gt;Node2</title>
<path fill="none" stroke="midnightblue" d="M118.517,-20C126.996,-20 135.618,-20 143.894,-20"/>
<polygon fill="midnightblue" stroke="midnightblue" points="118.28,-16.5001 108.28,-20 118.28,-23.5001 118.28,-16.5001"/>
</g>
<!-- Node3 -->
<g id="node3" class="node"><title>Node3</title>
<g id="a_node3"><a xlink:href="$v1_80_2common_2testsuite_8h.html#a95f9323f5e09c52e8e4f5c0cb72c6fe1" xlink:title="mavlink_test_scaled\l_pressure2">
<polygon fill="white" stroke="black" points="288,-5 288,-35 394,-35 394,-5 288,-5"/>
<text text-anchor="start" x="296" y="-23" font-family="Helvetica,sans-Serif" font-size="10.00">mavlink_test_scaled</text>
<text text-anchor="middle" x="341" y="-12" font-family="Helvetica,sans-Serif" font-size="10.00">_pressure2</text>
</a>
</g>
</g>
<!-- Node2&#45;&gt;Node3 -->
<g id="edge2" class="edge"><title>Node2&#45;&gt;Node3</title>
<path fill="none" stroke="midnightblue" d="M262.447,-20C270.842,-20 279.371,-20 287.553,-20"/>
<polygon fill="midnightblue" stroke="midnightblue" points="262.306,-16.5001 252.306,-20 262.306,-23.5001 262.306,-16.5001"/>
</g>
<!-- Node4 -->
<g id="node4" class="node"><title>Node4</title>
<g id="a_node4"><a xlink:href="$v1_80_2common_2testsuite_8h.html#af349432601ac003d2c80a69c100c70a4" xlink:title="mavlink_test_common">
<polygon fill="white" stroke="black" points="430.5,-10.5 430.5,-29.5 545.5,-29.5 545.5,-10.5 430.5,-10.5"/>
<text text-anchor="middle" x="488" y="-17.5" font-family="Helvetica,sans-Serif" font-size="10.00">mavlink_test_common</text>
</a>
</g>
</g>
<!-- Node3&#45;&gt;Node4 -->
<g id="edge3" class="edge"><title>Node3&#45;&gt;Node4</title>
<path fill="none" stroke="midnightblue" d="M404.354,-20C412.98,-20 421.801,-20 430.316,-20"/>
<polygon fill="midnightblue" stroke="midnightblue" points="404.348,-16.5001 394.348,-20 404.348,-23.5001 404.348,-16.5001"/>
</g>
<!-- Node5 -->
<g id="node5" class="node"><title>Node5</title>
<g id="a_node5"><a xlink:href="$v1_80_2common_2testsuite_8h.html#a4cc77b6c343679298da5d3c2b4e48759" xlink:title="mavlink_test_all">
<polygon fill="white" stroke="black" points="582.5,-10.5 582.5,-29.5 669.5,-29.5 669.5,-10.5 582.5,-10.5"/>
<text text-anchor="middle" x="626" y="-17.5" font-family="Helvetica,sans-Serif" font-size="10.00">mavlink_test_all</text>
</a>
</g>
</g>
<!-- Node4&#45;&gt;Node5 -->
<g id="edge4" class="edge"><title>Node4&#45;&gt;Node5</title>
<path fill="none" stroke="midnightblue" d="M555.996,-20C564.988,-20 574.003,-20 582.412,-20"/>
<polygon fill="midnightblue" stroke="midnightblue" points="555.888,-16.5001 545.888,-20 555.888,-23.5001 555.888,-16.5001"/>
</g>
</g>
</svg>
