<?xml version="1.0" encoding="UTF-8" standalone="no"?>
<!DOCTYPE svg PUBLIC "-//W3C//DTD SVG 1.1//EN"
 "http://www.w3.org/Graphics/SVG/1.1/DTD/svg11.dtd">
<!-- Generated by graphviz version 2.36.0 (20140111.2315)
 -->
<!-- Title: mavlink_msg_battery2_decode Pages: 1 -->
<svg width="276pt" height="87pt"
 viewBox="0.00 0.00 276.00 87.00" xmlns="http://www.w3.org/2000/svg" xmlns:xlink="http://www.w3.org/1999/xlink">
<g id="graph0" class="graph" transform="scale(1 1) rotate(0) translate(4 83)">
<title>mavlink_msg_battery2_decode</title>
<polygon fill="white" stroke="none" points="-4,4 -4,-83 272,-83 272,4 -4,4"/>
<!-- Node1 -->
<g id="node1" class="node"><title>Node1</title>
<polygon fill="#bfbfbf" stroke="black" points="0.5,-24 0.5,-54 115.5,-54 115.5,-24 0.5,-24"/>
<text text-anchor="start" x="8.5" y="-42" font-family="Helvetica,sans-Serif" font-size="10.00">mavlink_msg_battery2</text>
<text text-anchor="middle" x="58" y="-31" font-family="Helvetica,sans-Serif" font-size="10.00">_decode</text>
</g>
<!-- Node2 -->
<g id="node2" class="node"><title>Node2</title>
<g id="a_node2"><a xlink:href="$mavlink__msg__battery2_8h.html#abb37336feaa0d57be8491133108fbabc" xlink:title="Send a battery2 message. ">
<polygon fill="white" stroke="black" points="152.5,-49 152.5,-79 267.5,-79 267.5,-49 152.5,-49"/>
<text text-anchor="start" x="160.5" y="-67" font-family="Helvetica,sans-Serif" font-size="10.00">mavlink_msg_battery2</text>
<text text-anchor="middle" x="210" y="-56" font-family="Helvetica,sans-Serif" font-size="10.00">_get_voltage</text>
</a>
</g>
</g>
<!-- Node1&#45;&gt;Node2 -->
<g id="edge1" class="edge"><title>Node1&#45;&gt;Node2</title>
<path fill="none" stroke="midnightblue" d="M115.709,-48.4514C124.389,-49.8981 133.417,-51.4028 142.288,-52.8814"/>
<polygon fill="midnightblue" stroke="midnightblue" points="141.772,-56.3435 152.211,-54.5352 142.923,-49.4388 141.772,-56.3435"/>
</g>
<!-- Node3 -->
<g id="node3" class="node"><title>Node3</title>
<g id="a_node3"><a xlink:href="$mavlink__msg__battery2_8h.html#a00bc2ac4e876121633b9145b8a0599a0" xlink:title="Get field current_battery from battery2 message. ">
<polygon fill="white" stroke="black" points="152.5,-0 152.5,-30 267.5,-30 267.5,-0 152.5,-0"/>
<text text-anchor="start" x="160.5" y="-18" font-family="Helvetica,sans-Serif" font-size="10.00">mavlink_msg_battery2</text>
<text text-anchor="middle" x="210" y="-7" font-family="Helvetica,sans-Serif" font-size="10.00">_get_current_battery</text>
</a>
</g>
</g>
<!-- Node1&#45;&gt;Node3 -->
<g id="edge2" class="edge"><title>Node1&#45;&gt;Node3</title>
<path fill="none" stroke="midnightblue" d="M115.709,-29.9266C124.389,-28.5378 133.417,-27.0933 142.288,-25.6739"/>
<polygon fill="midnightblue" stroke="midnightblue" points="142.89,-29.1222 152.211,-24.0862 141.784,-22.2101 142.89,-29.1222"/>
</g>
</g>
</svg>
