<?xml version="1.0" encoding="UTF-8" standalone="no"?>
<!DOCTYPE svg PUBLIC "-//W3C//DTD SVG 1.1//EN"
 "http://www.w3.org/Graphics/SVG/1.1/DTD/svg11.dtd">
<!-- Generated by graphviz version 2.36.0 (20140111.2315)
 -->
<!-- Title: mavlink_msg_gps_global_origin_pack_chan Pages: 1 -->
<svg width="572pt" height="87pt"
 viewBox="0.00 0.00 572.00 87.00" xmlns="http://www.w3.org/2000/svg" xmlns:xlink="http://www.w3.org/1999/xlink">
<g id="graph0" class="graph" transform="scale(1 1) rotate(0) translate(4 83)">
<title>mavlink_msg_gps_global_origin_pack_chan</title>
<polygon fill="white" stroke="none" points="-4,4 -4,-83 568,-83 568,4 -4,4"/>
<!-- Node1 -->
<g id="node1" class="node"><title>Node1</title>
<polygon fill="#bfbfbf" stroke="black" points="0,-24 0,-54 126,-54 126,-24 0,-24"/>
<text text-anchor="start" x="8" y="-42" font-family="Helvetica,sans-Serif" font-size="10.00">mavlink_msg_gps_global</text>
<text text-anchor="middle" x="63" y="-31" font-family="Helvetica,sans-Serif" font-size="10.00">_origin_pack_chan</text>
</g>
<!-- Node2 -->
<g id="node2" class="node"><title>Node2</title>
<g id="a_node2"><a xlink:href="$mavlink__msg__gps__global__origin_8h.html#aa99d5d19f79c9dd7f48e50446e5422e5" xlink:title="Encode a gps_global_origin struct on a channel. ">
<polygon fill="white" stroke="black" points="162,-49 162,-79 288,-79 288,-49 162,-49"/>
<text text-anchor="start" x="170" y="-67" font-family="Helvetica,sans-Serif" font-size="10.00">mavlink_msg_gps_global</text>
<text text-anchor="middle" x="225" y="-56" font-family="Helvetica,sans-Serif" font-size="10.00">_origin_encode_chan</text>
</a>
</g>
</g>
<!-- Node1&#45;&gt;Node2 -->
<g id="edge1" class="edge"><title>Node1&#45;&gt;Node2</title>
<path fill="none" stroke="midnightblue" d="M136.267,-50.2917C144.808,-51.6262 153.468,-52.9793 161.852,-54.2893"/>
<polygon fill="midnightblue" stroke="midnightblue" points="136.739,-46.823 126.318,-48.7372 135.658,-53.7391 136.739,-46.823"/>
</g>
<!-- Node3 -->
<g id="node3" class="node"><title>Node3</title>
<g id="a_node3"><a xlink:href="$v1_80_2common_2testsuite_8h.html#a0148b1aed9025d5ecd51f8ca08993b41" xlink:title="mavlink_test_gps_global\l_origin">
<polygon fill="white" stroke="black" points="163,-0 163,-30 287,-30 287,-0 163,-0"/>
<text text-anchor="start" x="171" y="-18" font-family="Helvetica,sans-Serif" font-size="10.00">mavlink_test_gps_global</text>
<text text-anchor="middle" x="225" y="-7" font-family="Helvetica,sans-Serif" font-size="10.00">_origin</text>
</a>
</g>
</g>
<!-- Node1&#45;&gt;Node3 -->
<g id="edge2" class="edge"><title>Node1&#45;&gt;Node3</title>
<path fill="none" stroke="midnightblue" d="M136.281,-28.1578C145.175,-26.8237 154.197,-25.4704 162.903,-24.1646"/>
<polygon fill="midnightblue" stroke="midnightblue" points="135.688,-24.7075 126.318,-29.6523 136.727,-31.63 135.688,-24.7075"/>
</g>
<!-- Node4 -->
<g id="node4" class="node"><title>Node4</title>
<g id="a_node4"><a xlink:href="$v1_80_2common_2testsuite_8h.html#af349432601ac003d2c80a69c100c70a4" xlink:title="mavlink_test_common">
<polygon fill="white" stroke="black" points="324.5,-5.5 324.5,-24.5 439.5,-24.5 439.5,-5.5 324.5,-5.5"/>
<text text-anchor="middle" x="382" y="-12.5" font-family="Helvetica,sans-Serif" font-size="10.00">mavlink_test_common</text>
</a>
</g>
</g>
<!-- Node3&#45;&gt;Node4 -->
<g id="edge3" class="edge"><title>Node3&#45;&gt;Node4</title>
<path fill="none" stroke="midnightblue" d="M297.355,-15C306.362,-15 315.48,-15 324.219,-15"/>
<polygon fill="midnightblue" stroke="midnightblue" points="297.26,-11.5001 287.26,-15 297.26,-18.5001 297.26,-11.5001"/>
</g>
<!-- Node5 -->
<g id="node5" class="node"><title>Node5</title>
<g id="a_node5"><a xlink:href="$v1_80_2common_2testsuite_8h.html#a4cc77b6c343679298da5d3c2b4e48759" xlink:title="mavlink_test_all">
<polygon fill="white" stroke="black" points="476.5,-5.5 476.5,-24.5 563.5,-24.5 563.5,-5.5 476.5,-5.5"/>
<text text-anchor="middle" x="520" y="-12.5" font-family="Helvetica,sans-Serif" font-size="10.00">mavlink_test_all</text>
</a>
</g>
</g>
<!-- Node4&#45;&gt;Node5 -->
<g id="edge4" class="edge"><title>Node4&#45;&gt;Node5</title>
<path fill="none" stroke="midnightblue" d="M449.996,-15C458.988,-15 468.003,-15 476.412,-15"/>
<polygon fill="midnightblue" stroke="midnightblue" points="449.888,-11.5001 439.888,-15 449.888,-18.5001 449.888,-11.5001"/>
</g>
</g>
</svg>
