<?xml version="1.0" encoding="UTF-8" standalone="no"?>
<!DOCTYPE svg PUBLIC "-//W3C//DTD SVG 1.1//EN"
 "http://www.w3.org/Graphics/SVG/1.1/DTD/svg11.dtd">
<!-- Generated by graphviz version 2.36.0 (20140111.2315)
 -->
<!-- Title: mavlink_msg_attitude_quaternion_cov_encode_chan Pages: 1 -->
<svg width="530pt" height="66pt"
 viewBox="0.00 0.00 530.00 66.00" xmlns="http://www.w3.org/2000/svg" xmlns:xlink="http://www.w3.org/1999/xlink">
<g id="graph0" class="graph" transform="scale(1 1) rotate(0) translate(4 62)">
<title>mavlink_msg_attitude_quaternion_cov_encode_chan</title>
<polygon fill="white" stroke="none" points="-4,4 -4,-62 526,-62 526,4 -4,4"/>
<!-- Node1 -->
<g id="node1" class="node"><title>Node1</title>
<polygon fill="#bfbfbf" stroke="black" points="0.5,-14 0.5,-44 151.5,-44 151.5,-14 0.5,-14"/>
<text text-anchor="start" x="8.5" y="-32" font-family="Helvetica,sans-Serif" font-size="10.00">mavlink_msg_attitude</text>
<text text-anchor="middle" x="76" y="-21" font-family="Helvetica,sans-Serif" font-size="10.00">_quaternion_cov_encode_chan</text>
</g>
<!-- Node2 -->
<g id="node2" class="node"><title>Node2</title>
<g id="a_node2"><a xlink:href="$mavlink__msg__attitude__quaternion__cov_8h.html#a1a39fdbc14db9eb4075b7781536a93b7" xlink:title="Pack a attitude_quaternion_cov message on a channel. ">
<polygon fill="white" stroke="black" points="188,-14 188,-44 328,-44 328,-14 188,-14"/>
<text text-anchor="start" x="196" y="-32" font-family="Helvetica,sans-Serif" font-size="10.00">mavlink_msg_attitude</text>
<text text-anchor="middle" x="258" y="-21" font-family="Helvetica,sans-Serif" font-size="10.00">_quaternion_cov_pack_chan</text>
</a>
</g>
</g>
<!-- Node1&#45;&gt;Node2 -->
<g id="edge1" class="edge"><title>Node1&#45;&gt;Node2</title>
<path fill="none" stroke="midnightblue" d="M151.512,-29C160.132,-29 168.947,-29 177.629,-29"/>
<polygon fill="midnightblue" stroke="midnightblue" points="177.739,-32.5001 187.739,-29 177.739,-25.5001 177.739,-32.5001"/>
</g>
<!-- Node3 -->
<g id="node3" class="node"><title>Node3</title>
<g id="a_node3"><a xlink:href="$v0_89_2protocol_8h.html#a4486c3d5854cac1cb6a0fb1cc5ba570c" xlink:title="mav_array_memcpy">
<polygon fill="white" stroke="black" points="390.5,-38.5 390.5,-57.5 495.5,-57.5 495.5,-38.5 390.5,-38.5"/>
<text text-anchor="middle" x="443" y="-45.5" font-family="Helvetica,sans-Serif" font-size="10.00">mav_array_memcpy</text>
</a>
</g>
</g>
<!-- Node2&#45;&gt;Node3 -->
<g id="edge2" class="edge"><title>Node2&#45;&gt;Node3</title>
<path fill="none" stroke="midnightblue" d="M328.184,-36.1831C345.284,-37.9584 363.49,-39.8487 380.211,-41.5848"/>
<polygon fill="midnightblue" stroke="midnightblue" points="380.1,-45.0919 390.408,-42.6434 380.823,-38.1294 380.1,-45.0919"/>
</g>
<!-- Node4 -->
<g id="node4" class="node"><title>Node4</title>
<g id="a_node4"><a xlink:href="$v0_89_2mavlink__helpers_8h.html#aa66131138fc02101dcc73b4b556ab422" xlink:title="Finalize a MAVLink message with channel assignment. ">
<polygon fill="white" stroke="black" points="364,-0.5 364,-19.5 522,-19.5 522,-0.5 364,-0.5"/>
<text text-anchor="middle" x="443" y="-7.5" font-family="Helvetica,sans-Serif" font-size="10.00">mavlink_finalize_message_chan</text>
</a>
</g>
</g>
<!-- Node2&#45;&gt;Node4 -->
<g id="edge3" class="edge"><title>Node2&#45;&gt;Node4</title>
<path fill="none" stroke="midnightblue" d="M328.184,-21.8169C336.551,-20.9483 345.182,-20.0522 353.774,-19.16"/>
<polygon fill="midnightblue" stroke="midnightblue" points="354.24,-22.6306 363.825,-18.1165 353.517,-15.668 354.24,-22.6306"/>
</g>
</g>
</svg>
