<?xml version="1.0" encoding="UTF-8" standalone="no"?>
<!DOCTYPE svg PUBLIC "-//W3C//DTD SVG 1.1//EN"
 "http://www.w3.org/Graphics/SVG/1.1/DTD/svg11.dtd">
<!-- Generated by graphviz version 2.36.0 (20140111.2315)
 -->
<!-- Title: mavlink_msg_attitude_quaternion_pack_chan Pages: 1 -->
<svg width="570pt" height="87pt"
 viewBox="0.00 0.00 570.00 87.00" xmlns="http://www.w3.org/2000/svg" xmlns:xlink="http://www.w3.org/1999/xlink">
<g id="graph0" class="graph" transform="scale(1 1) rotate(0) translate(4 83)">
<title>mavlink_msg_attitude_quaternion_pack_chan</title>
<polygon fill="white" stroke="none" points="-4,4 -4,-83 566,-83 566,4 -4,4"/>
<!-- Node1 -->
<g id="node1" class="node"><title>Node1</title>
<polygon fill="#bfbfbf" stroke="black" points="0.5,-24 0.5,-54 119.5,-54 119.5,-24 0.5,-24"/>
<text text-anchor="start" x="8.5" y="-42" font-family="Helvetica,sans-Serif" font-size="10.00">mavlink_msg_attitude</text>
<text text-anchor="middle" x="60" y="-31" font-family="Helvetica,sans-Serif" font-size="10.00">_quaternion_pack_chan</text>
</g>
<!-- Node2 -->
<g id="node2" class="node"><title>Node2</title>
<g id="a_node2"><a xlink:href="$mavlink__msg__attitude__quaternion_8h.html#aaaddb82fc87013d1cf1e0467e1a5a4ef" xlink:title="Encode a attitude_quaternion struct on a channel. ">
<polygon fill="white" stroke="black" points="156,-49 156,-79 286,-79 286,-49 156,-49"/>
<text text-anchor="start" x="164" y="-67" font-family="Helvetica,sans-Serif" font-size="10.00">mavlink_msg_attitude</text>
<text text-anchor="middle" x="221" y="-56" font-family="Helvetica,sans-Serif" font-size="10.00">_quaternion_encode_chan</text>
</a>
</g>
</g>
<!-- Node1&#45;&gt;Node2 -->
<g id="edge1" class="edge"><title>Node1&#45;&gt;Node2</title>
<path fill="none" stroke="midnightblue" d="M129.811,-49.8193C138.466,-51.1802 147.294,-52.5683 155.874,-53.9172"/>
<polygon fill="midnightblue" stroke="midnightblue" points="130.176,-46.3339 119.754,-48.238 129.089,-53.2489 130.176,-46.3339"/>
</g>
<!-- Node3 -->
<g id="node3" class="node"><title>Node3</title>
<g id="a_node3"><a xlink:href="$v1_80_2common_2testsuite_8h.html#a76dd8b4da237ec80739825caa7d50845" xlink:title="mavlink_test_attitude\l_quaternion">
<polygon fill="white" stroke="black" points="166,-0 166,-30 276,-30 276,-0 166,-0"/>
<text text-anchor="start" x="174" y="-18" font-family="Helvetica,sans-Serif" font-size="10.00">mavlink_test_attitude</text>
<text text-anchor="middle" x="221" y="-7" font-family="Helvetica,sans-Serif" font-size="10.00">_quaternion</text>
</a>
</g>
</g>
<!-- Node1&#45;&gt;Node3 -->
<g id="edge2" class="edge"><title>Node1&#45;&gt;Node3</title>
<path fill="none" stroke="midnightblue" d="M129.811,-28.6135C141.907,-26.7876 154.34,-24.911 165.961,-23.1568"/>
<polygon fill="midnightblue" stroke="midnightblue" points="129.12,-25.1781 119.754,-30.1315 130.164,-32.0997 129.12,-25.1781"/>
</g>
<!-- Node4 -->
<g id="node4" class="node"><title>Node4</title>
<g id="a_node4"><a xlink:href="$v1_80_2common_2testsuite_8h.html#af349432601ac003d2c80a69c100c70a4" xlink:title="mavlink_test_common">
<polygon fill="white" stroke="black" points="322.5,-5.5 322.5,-24.5 437.5,-24.5 437.5,-5.5 322.5,-5.5"/>
<text text-anchor="middle" x="380" y="-12.5" font-family="Helvetica,sans-Serif" font-size="10.00">mavlink_test_common</text>
</a>
</g>
</g>
<!-- Node3&#45;&gt;Node4 -->
<g id="edge3" class="edge"><title>Node3&#45;&gt;Node4</title>
<path fill="none" stroke="midnightblue" d="M286.032,-15C298.101,-15 310.643,-15 322.463,-15"/>
<polygon fill="midnightblue" stroke="midnightblue" points="286.031,-11.5001 276.03,-15 286.03,-18.5001 286.031,-11.5001"/>
</g>
<!-- Node5 -->
<g id="node5" class="node"><title>Node5</title>
<g id="a_node5"><a xlink:href="$v1_80_2common_2testsuite_8h.html#a4cc77b6c343679298da5d3c2b4e48759" xlink:title="mavlink_test_all">
<polygon fill="white" stroke="black" points="474.5,-5.5 474.5,-24.5 561.5,-24.5 561.5,-5.5 474.5,-5.5"/>
<text text-anchor="middle" x="518" y="-12.5" font-family="Helvetica,sans-Serif" font-size="10.00">mavlink_test_all</text>
</a>
</g>
</g>
<!-- Node4&#45;&gt;Node5 -->
<g id="edge4" class="edge"><title>Node4&#45;&gt;Node5</title>
<path fill="none" stroke="midnightblue" d="M447.996,-15C456.988,-15 466.003,-15 474.412,-15"/>
<polygon fill="midnightblue" stroke="midnightblue" points="447.888,-11.5001 437.888,-15 447.888,-18.5001 447.888,-11.5001"/>
</g>
</g>
</svg>
