<?xml version="1.0" encoding="UTF-8" standalone="no"?>
<!DOCTYPE svg PUBLIC "-//W3C//DTD SVG 1.1//EN"
 "http://www.w3.org/Graphics/SVG/1.1/DTD/svg11.dtd">
<!-- Generated by graphviz version 2.36.0 (20140111.2315)
 -->
<!-- Title: mavlink_msg_data_stream_decode Pages: 1 -->
<svg width="312pt" height="136pt"
 viewBox="0.00 0.00 312.00 136.00" xmlns="http://www.w3.org/2000/svg" xmlns:xlink="http://www.w3.org/1999/xlink">
<g id="graph0" class="graph" transform="scale(1 1) rotate(0) translate(4 132)">
<title>mavlink_msg_data_stream_decode</title>
<polygon fill="white" stroke="none" points="-4,4 -4,-132 308,-132 308,4 -4,4"/>
<!-- Node1 -->
<g id="node1" class="node"><title>Node1</title>
<polygon fill="#bfbfbf" stroke="black" points="0,-49 0,-79 134,-79 134,-49 0,-49"/>
<text text-anchor="start" x="8" y="-67" font-family="Helvetica,sans-Serif" font-size="10.00">mavlink_msg_data_stream</text>
<text text-anchor="middle" x="67" y="-56" font-family="Helvetica,sans-Serif" font-size="10.00">_decode</text>
</g>
<!-- Node2 -->
<g id="node2" class="node"><title>Node2</title>
<g id="a_node2"><a xlink:href="$mavlink__msg__data__stream_8h.html#af810cccd5287ffdbf420cfb0baa5d6cb" xlink:title="Get field message_rate from data_stream message. ">
<polygon fill="white" stroke="black" points="170,-98 170,-128 304,-128 304,-98 170,-98"/>
<text text-anchor="start" x="178" y="-116" font-family="Helvetica,sans-Serif" font-size="10.00">mavlink_msg_data_stream</text>
<text text-anchor="middle" x="237" y="-105" font-family="Helvetica,sans-Serif" font-size="10.00">_get_message_rate</text>
</a>
</g>
</g>
<!-- Node1&#45;&gt;Node2 -->
<g id="edge1" class="edge"><title>Node1&#45;&gt;Node2</title>
<path fill="none" stroke="midnightblue" d="M119.776,-79.1014C137.103,-84.1551 156.586,-89.8376 174.577,-95.0848"/>
<polygon fill="midnightblue" stroke="midnightblue" points="173.815,-98.5084 184.395,-97.9484 175.775,-91.7884 173.815,-98.5084"/>
</g>
<!-- Node3 -->
<g id="node3" class="node"><title>Node3</title>
<g id="a_node3"><a xlink:href="$mavlink__msg__data__stream_8h.html#a1f3ecfa0f0058ba65751bcd737418266" xlink:title="Send a data_stream message. ">
<polygon fill="white" stroke="black" points="170,-49 170,-79 304,-79 304,-49 170,-49"/>
<text text-anchor="start" x="178" y="-67" font-family="Helvetica,sans-Serif" font-size="10.00">mavlink_msg_data_stream</text>
<text text-anchor="middle" x="237" y="-56" font-family="Helvetica,sans-Serif" font-size="10.00">_get_stream_id</text>
</a>
</g>
</g>
<!-- Node1&#45;&gt;Node3 -->
<g id="edge2" class="edge"><title>Node1&#45;&gt;Node3</title>
<path fill="none" stroke="midnightblue" d="M134.398,-64C142.679,-64 151.199,-64 159.616,-64"/>
<polygon fill="midnightblue" stroke="midnightblue" points="159.809,-67.5001 169.809,-64 159.809,-60.5001 159.809,-67.5001"/>
</g>
<!-- Node4 -->
<g id="node4" class="node"><title>Node4</title>
<g id="a_node4"><a xlink:href="$mavlink__msg__data__stream_8h.html#ab896222ae033ab072a58c681b08974d5" xlink:title="Get field on_off from data_stream message. ">
<polygon fill="white" stroke="black" points="170,-0 170,-30 304,-30 304,-0 170,-0"/>
<text text-anchor="start" x="178" y="-18" font-family="Helvetica,sans-Serif" font-size="10.00">mavlink_msg_data_stream</text>
<text text-anchor="middle" x="237" y="-7" font-family="Helvetica,sans-Serif" font-size="10.00">_get_on_off</text>
</a>
</g>
</g>
<!-- Node1&#45;&gt;Node4 -->
<g id="edge3" class="edge"><title>Node1&#45;&gt;Node4</title>
<path fill="none" stroke="midnightblue" d="M119.776,-48.8986C137.103,-43.8449 156.586,-38.1624 174.577,-32.9152"/>
<polygon fill="midnightblue" stroke="midnightblue" points="175.775,-36.2116 184.395,-30.0516 173.815,-29.4916 175.775,-36.2116"/>
</g>
</g>
</svg>
