<?xml version="1.0" encoding="UTF-8" standalone="no"?>
<!DOCTYPE svg PUBLIC "-//W3C//DTD SVG 1.1//EN"
 "http://www.w3.org/Graphics/SVG/1.1/DTD/svg11.dtd">
<!-- Generated by graphviz version 2.36.0 (20140111.2315)
 -->
<!-- Title: mavlink_msg_gopro_heartbeat_get_status Pages: 1 -->
<svg width="780pt" height="38pt"
 viewBox="0.00 0.00 780.00 38.00" xmlns="http://www.w3.org/2000/svg" xmlns:xlink="http://www.w3.org/1999/xlink">
<g id="graph0" class="graph" transform="scale(1 1) rotate(0) translate(4 34)">
<title>mavlink_msg_gopro_heartbeat_get_status</title>
<polygon fill="white" stroke="none" points="-4,4 -4,-34 776,-34 776,4 -4,4"/>
<!-- Node1 -->
<g id="node1" class="node"><title>Node1</title>
<polygon fill="#bfbfbf" stroke="black" points="0.5,-0 0.5,-30 149.5,-30 149.5,-0 0.5,-0"/>
<text text-anchor="start" x="8.5" y="-18" font-family="Helvetica,sans-Serif" font-size="10.00">mavlink_msg_gopro_heartbeat</text>
<text text-anchor="middle" x="75" y="-7" font-family="Helvetica,sans-Serif" font-size="10.00">_get_status</text>
</g>
<!-- Node2 -->
<g id="node2" class="node"><title>Node2</title>
<g id="a_node2"><a xlink:href="$mavlink__msg__gopro__heartbeat_8h.html#af84cf7e4eb44505f0c9a8912f25a7aa8" xlink:title="Decode a gopro_heartbeat message into a struct. ">
<polygon fill="white" stroke="black" points="186.5,-0 186.5,-30 335.5,-30 335.5,-0 186.5,-0"/>
<text text-anchor="start" x="194.5" y="-18" font-family="Helvetica,sans-Serif" font-size="10.00">mavlink_msg_gopro_heartbeat</text>
<text text-anchor="middle" x="261" y="-7" font-family="Helvetica,sans-Serif" font-size="10.00">_decode</text>
</a>
</g>
</g>
<!-- Node1&#45;&gt;Node2 -->
<g id="edge1" class="edge"><title>Node1&#45;&gt;Node2</title>
<path fill="none" stroke="midnightblue" d="M159.533,-15C168.462,-15 177.498,-15 186.302,-15"/>
<polygon fill="midnightblue" stroke="midnightblue" points="159.515,-11.5001 149.515,-15 159.515,-18.5001 159.515,-11.5001"/>
</g>
<!-- Node3 -->
<g id="node3" class="node"><title>Node3</title>
<g id="a_node3"><a xlink:href="$v1_80_2ardupilotmega_2testsuite_8h.html#a844892ff8e7d9fa6030411ae7d608c9f" xlink:title="mavlink_test_gopro\l_heartbeat">
<polygon fill="white" stroke="black" points="372.5,-0 372.5,-30 473.5,-30 473.5,-0 372.5,-0"/>
<text text-anchor="start" x="380.5" y="-18" font-family="Helvetica,sans-Serif" font-size="10.00">mavlink_test_gopro</text>
<text text-anchor="middle" x="423" y="-7" font-family="Helvetica,sans-Serif" font-size="10.00">_heartbeat</text>
</a>
</g>
</g>
<!-- Node2&#45;&gt;Node3 -->
<g id="edge2" class="edge"><title>Node2&#45;&gt;Node3</title>
<path fill="none" stroke="midnightblue" d="M346.006,-15C354.943,-15 363.813,-15 372.168,-15"/>
<polygon fill="midnightblue" stroke="midnightblue" points="345.912,-11.5001 335.911,-15 345.911,-18.5001 345.912,-11.5001"/>
</g>
<!-- Node4 -->
<g id="node4" class="node"><title>Node4</title>
<g id="a_node4"><a xlink:href="$v1_80_2ardupilotmega_2testsuite_8h.html#ab264d471ac2f46584f2bb580704b5e9d" xlink:title="mavlink_test_ardupilotmega">
<polygon fill="white" stroke="black" points="510,-5.5 510,-24.5 648,-24.5 648,-5.5 510,-5.5"/>
<text text-anchor="middle" x="579" y="-12.5" font-family="Helvetica,sans-Serif" font-size="10.00">mavlink_test_ardupilotmega</text>
</a>
</g>
</g>
<!-- Node3&#45;&gt;Node4 -->
<g id="edge3" class="edge"><title>Node3&#45;&gt;Node4</title>
<path fill="none" stroke="midnightblue" d="M483.848,-15C492.418,-15 501.286,-15 509.998,-15"/>
<polygon fill="midnightblue" stroke="midnightblue" points="483.574,-11.5001 473.574,-15 483.574,-18.5001 483.574,-11.5001"/>
</g>
<!-- Node5 -->
<g id="node5" class="node"><title>Node5</title>
<g id="a_node5"><a xlink:href="$v1_80_2ardupilotmega_2testsuite_8h.html#a4cc77b6c343679298da5d3c2b4e48759" xlink:title="mavlink_test_all">
<polygon fill="white" stroke="black" points="684.5,-5.5 684.5,-24.5 771.5,-24.5 771.5,-5.5 684.5,-5.5"/>
<text text-anchor="middle" x="728" y="-12.5" font-family="Helvetica,sans-Serif" font-size="10.00">mavlink_test_all</text>
</a>
</g>
</g>
<!-- Node4&#45;&gt;Node5 -->
<g id="edge4" class="edge"><title>Node4&#45;&gt;Node5</title>
<path fill="none" stroke="midnightblue" d="M658.438,-15C667.373,-15 676.211,-15 684.42,-15"/>
<polygon fill="midnightblue" stroke="midnightblue" points="658.336,-11.5001 648.336,-15 658.336,-18.5001 658.336,-11.5001"/>
</g>
</g>
</svg>
