<?xml version="1.0" encoding="UTF-8" standalone="no"?>
<!DOCTYPE svg PUBLIC "-//W3C//DTD SVG 1.1//EN"
 "http://www.w3.org/Graphics/SVG/1.1/DTD/svg11.dtd">
<!-- Generated by graphviz version 2.36.0 (20140111.2315)
 -->
<!-- Title: mavlink_msg_set_position_target_global_int_get_coordinate_frame Pages: 1 -->
<svg width="750pt" height="48pt"
 viewBox="0.00 0.00 750.00 48.00" xmlns="http://www.w3.org/2000/svg" xmlns:xlink="http://www.w3.org/1999/xlink">
<g id="graph0" class="graph" transform="scale(1 1) rotate(0) translate(4 44)">
<title>mavlink_msg_set_position_target_global_int_get_coordinate_frame</title>
<polygon fill="white" stroke="none" points="-4,4 -4,-44 746,-44 746,4 -4,4"/>
<!-- Node1 -->
<g id="node1" class="node"><title>Node1</title>
<polygon fill="#bfbfbf" stroke="black" points="0,0.5 0,-40.5 132,-40.5 132,0.5 0,0.5"/>
<text text-anchor="start" x="8" y="-28.5" font-family="Helvetica,sans-Serif" font-size="10.00">mavlink_msg_set_position</text>
<text text-anchor="start" x="8" y="-17.5" font-family="Helvetica,sans-Serif" font-size="10.00">_target_global_int_get</text>
<text text-anchor="middle" x="66" y="-6.5" font-family="Helvetica,sans-Serif" font-size="10.00">_coordinate_frame</text>
</g>
<!-- Node2 -->
<g id="node2" class="node"><title>Node2</title>
<g id="a_node2"><a xlink:href="$mavlink__msg__set__position__target__global__int_8h.html#a2a84e5f08e0870109173fabe8fab2f8f" xlink:title="Decode a set_position_target_global_int message into a struct. ">
<polygon fill="white" stroke="black" points="168,-5 168,-35 300,-35 300,-5 168,-5"/>
<text text-anchor="start" x="176" y="-23" font-family="Helvetica,sans-Serif" font-size="10.00">mavlink_msg_set_position</text>
<text text-anchor="middle" x="234" y="-12" font-family="Helvetica,sans-Serif" font-size="10.00">_target_global_int_decode</text>
</a>
</g>
</g>
<!-- Node1&#45;&gt;Node2 -->
<g id="edge1" class="edge"><title>Node1&#45;&gt;Node2</title>
<path fill="none" stroke="midnightblue" d="M142.393,-20C150.869,-20 159.452,-20 167.784,-20"/>
<polygon fill="midnightblue" stroke="midnightblue" points="142.131,-16.5001 132.131,-20 142.131,-23.5001 142.131,-16.5001"/>
</g>
<!-- Node3 -->
<g id="node3" class="node"><title>Node3</title>
<g id="a_node3"><a xlink:href="$v1_80_2common_2testsuite_8h.html#aa76ba07ce729ea25a88f7204b5358e83" xlink:title="mavlink_test_set_position\l_target_global_int">
<polygon fill="white" stroke="black" points="336,-5 336,-35 466,-35 466,-5 336,-5"/>
<text text-anchor="start" x="344" y="-23" font-family="Helvetica,sans-Serif" font-size="10.00">mavlink_test_set_position</text>
<text text-anchor="middle" x="401" y="-12" font-family="Helvetica,sans-Serif" font-size="10.00">_target_global_int</text>
</a>
</g>
</g>
<!-- Node2&#45;&gt;Node3 -->
<g id="edge2" class="edge"><title>Node2&#45;&gt;Node3</title>
<path fill="none" stroke="midnightblue" d="M310.465,-20C318.931,-20 327.496,-20 335.801,-20"/>
<polygon fill="midnightblue" stroke="midnightblue" points="310.212,-16.5001 300.212,-20 310.212,-23.5001 310.212,-16.5001"/>
</g>
<!-- Node4 -->
<g id="node4" class="node"><title>Node4</title>
<g id="a_node4"><a xlink:href="$v1_80_2common_2testsuite_8h.html#af349432601ac003d2c80a69c100c70a4" xlink:title="mavlink_test_common">
<polygon fill="white" stroke="black" points="502.5,-10.5 502.5,-29.5 617.5,-29.5 617.5,-10.5 502.5,-10.5"/>
<text text-anchor="middle" x="560" y="-17.5" font-family="Helvetica,sans-Serif" font-size="10.00">mavlink_test_common</text>
</a>
</g>
</g>
<!-- Node3&#45;&gt;Node4 -->
<g id="edge3" class="edge"><title>Node3&#45;&gt;Node4</title>
<path fill="none" stroke="midnightblue" d="M476.395,-20C485.032,-20 493.736,-20 502.087,-20"/>
<polygon fill="midnightblue" stroke="midnightblue" points="476.311,-16.5001 466.311,-20 476.311,-23.5001 476.311,-16.5001"/>
</g>
<!-- Node5 -->
<g id="node5" class="node"><title>Node5</title>
<g id="a_node5"><a xlink:href="$v1_80_2common_2testsuite_8h.html#a4cc77b6c343679298da5d3c2b4e48759" xlink:title="mavlink_test_all">
<polygon fill="white" stroke="black" points="654.5,-10.5 654.5,-29.5 741.5,-29.5 741.5,-10.5 654.5,-10.5"/>
<text text-anchor="middle" x="698" y="-17.5" font-family="Helvetica,sans-Serif" font-size="10.00">mavlink_test_all</text>
</a>
</g>
</g>
<!-- Node4&#45;&gt;Node5 -->
<g id="edge4" class="edge"><title>Node4&#45;&gt;Node5</title>
<path fill="none" stroke="midnightblue" d="M627.996,-20C636.988,-20 646.003,-20 654.412,-20"/>
<polygon fill="midnightblue" stroke="midnightblue" points="627.888,-16.5001 617.888,-20 627.888,-23.5001 627.888,-16.5001"/>
</g>
</g>
</svg>
