<?xml version="1.0" encoding="UTF-8" standalone="no"?>
<!DOCTYPE svg PUBLIC "-//W3C//DTD SVG 1.1//EN"
 "http://www.w3.org/Graphics/SVG/1.1/DTD/svg11.dtd">
<!-- Generated by graphviz version 2.36.0 (20140111.2315)
 -->
<!-- Title: mavlink_msg_scaled_pressure2_decode Pages: 1 -->
<svg width="292pt" height="196pt"
 viewBox="0.00 0.00 292.00 196.00" xmlns="http://www.w3.org/2000/svg" xmlns:xlink="http://www.w3.org/1999/xlink">
<g id="graph0" class="graph" transform="scale(1 1) rotate(0) translate(4 192)">
<title>mavlink_msg_scaled_pressure2_decode</title>
<polygon fill="white" stroke="none" points="-4,4 -4,-192 288,-192 288,4 -4,4"/>
<!-- Node1 -->
<g id="node1" class="node"><title>Node1</title>
<polygon fill="#bfbfbf" stroke="black" points="0,-73 0,-103 108,-103 108,-73 0,-73"/>
<text text-anchor="start" x="8" y="-91" font-family="Helvetica,sans-Serif" font-size="10.00">mavlink_msg_scaled</text>
<text text-anchor="middle" x="54" y="-80" font-family="Helvetica,sans-Serif" font-size="10.00">_pressure2_decode</text>
</g>
<!-- Node2 -->
<g id="node2" class="node"><title>Node2</title>
<g id="a_node2"><a xlink:href="$mavlink__msg__scaled__pressure2_8h.html#a364bd93bc83157914c6968215550da70" xlink:title="Send a scaled_pressure2 message. ">
<polygon fill="white" stroke="black" points="160,-146.5 160,-187.5 268,-187.5 268,-146.5 160,-146.5"/>
<text text-anchor="start" x="168" y="-175.5" font-family="Helvetica,sans-Serif" font-size="10.00">mavlink_msg_scaled</text>
<text text-anchor="start" x="168" y="-164.5" font-family="Helvetica,sans-Serif" font-size="10.00">_pressure2_get_time</text>
<text text-anchor="middle" x="214" y="-153.5" font-family="Helvetica,sans-Serif" font-size="10.00">_boot_ms</text>
</a>
</g>
</g>
<!-- Node1&#45;&gt;Node2 -->
<g id="edge1" class="edge"><title>Node1&#45;&gt;Node2</title>
<path fill="none" stroke="midnightblue" d="M80.7553,-103.012C98.348,-113.06 122.312,-126.344 144,-137 147.526,-138.733 151.176,-140.472 154.873,-142.193"/>
<polygon fill="midnightblue" stroke="midnightblue" points="153.561,-145.442 164.111,-146.419 156.473,-139.076 153.561,-145.442"/>
</g>
<!-- Node3 -->
<g id="node3" class="node"><title>Node3</title>
<g id="a_node3"><a xlink:href="$mavlink__msg__scaled__pressure2_8h.html#ada0495d0364631fdcd4f2395177f4c82" xlink:title="Get field press_abs from scaled_pressure2 message. ">
<polygon fill="white" stroke="black" points="147,-98 147,-128 281,-128 281,-98 147,-98"/>
<text text-anchor="start" x="155" y="-116" font-family="Helvetica,sans-Serif" font-size="10.00">mavlink_msg_scaled</text>
<text text-anchor="middle" x="214" y="-105" font-family="Helvetica,sans-Serif" font-size="10.00">_pressure2_get_press_abs</text>
</a>
</g>
</g>
<!-- Node1&#45;&gt;Node3 -->
<g id="edge2" class="edge"><title>Node1&#45;&gt;Node3</title>
<path fill="none" stroke="midnightblue" d="M108.051,-96.3942C117.3,-97.8576 127.082,-99.4054 136.808,-100.944"/>
<polygon fill="midnightblue" stroke="midnightblue" points="136.473,-104.435 146.898,-102.541 137.568,-97.5209 136.473,-104.435"/>
</g>
<!-- Node4 -->
<g id="node4" class="node"><title>Node4</title>
<g id="a_node4"><a xlink:href="$mavlink__msg__scaled__pressure2_8h.html#ac3b9f3150ed0720911c3892aaaf14592" xlink:title="Get field press_diff from scaled_pressure2 message. ">
<polygon fill="white" stroke="black" points="148.5,-49 148.5,-79 279.5,-79 279.5,-49 148.5,-49"/>
<text text-anchor="start" x="156.5" y="-67" font-family="Helvetica,sans-Serif" font-size="10.00">mavlink_msg_scaled</text>
<text text-anchor="middle" x="214" y="-56" font-family="Helvetica,sans-Serif" font-size="10.00">_pressure2_get_press_diff</text>
</a>
</g>
</g>
<!-- Node1&#45;&gt;Node4 -->
<g id="edge3" class="edge"><title>Node1&#45;&gt;Node4</title>
<path fill="none" stroke="midnightblue" d="M108.051,-79.9416C117.733,-78.4709 128.001,-76.9113 138.175,-75.3658"/>
<polygon fill="midnightblue" stroke="midnightblue" points="138.933,-78.791 148.294,-73.8288 137.881,-71.8703 138.933,-78.791"/>
</g>
<!-- Node5 -->
<g id="node5" class="node"><title>Node5</title>
<g id="a_node5"><a xlink:href="$mavlink__msg__scaled__pressure2_8h.html#a875dc1223fb6f5fe76baab34320edcb7" xlink:title="Get field temperature from scaled_pressure2 message. ">
<polygon fill="white" stroke="black" points="144,-0 144,-30 284,-30 284,-0 144,-0"/>
<text text-anchor="start" x="152" y="-18" font-family="Helvetica,sans-Serif" font-size="10.00">mavlink_msg_scaled</text>
<text text-anchor="middle" x="214" y="-7" font-family="Helvetica,sans-Serif" font-size="10.00">_pressure2_get_temperature</text>
</a>
</g>
</g>
<!-- Node1&#45;&gt;Node5 -->
<g id="edge4" class="edge"><title>Node1&#45;&gt;Node5</title>
<path fill="none" stroke="midnightblue" d="M80.5858,-72.9001C98.1048,-62.8869 122.05,-49.8313 144,-40 148.748,-37.8736 153.736,-35.7895 158.767,-33.7884"/>
<polygon fill="midnightblue" stroke="midnightblue" points="160.376,-36.9194 168.444,-30.0531 157.855,-30.389 160.376,-36.9194"/>
</g>
</g>
</svg>
