<?xml version="1.0" encoding="UTF-8" standalone="no"?>
<!DOCTYPE svg PUBLIC "-//W3C//DTD SVG 1.1//EN"
 "http://www.w3.org/Graphics/SVG/1.1/DTD/svg11.dtd">
<!-- Generated by graphviz version 2.36.0 (20140111.2315)
 -->
<!-- Title: mavlink_msg_terrain_data_get_grid_spacing Pages: 1 -->
<svg width="712pt" height="38pt"
 viewBox="0.00 0.00 712.00 38.00" xmlns="http://www.w3.org/2000/svg" xmlns:xlink="http://www.w3.org/1999/xlink">
<g id="graph0" class="graph" transform="scale(1 1) rotate(0) translate(4 34)">
<title>mavlink_msg_terrain_data_get_grid_spacing</title>
<polygon fill="white" stroke="none" points="-4,4 -4,-34 708,-34 708,4 -4,4"/>
<!-- Node1 -->
<g id="node1" class="node"><title>Node1</title>
<polygon fill="#bfbfbf" stroke="black" points="0.5,-0 0.5,-30 119.5,-30 119.5,-0 0.5,-0"/>
<text text-anchor="start" x="8.5" y="-18" font-family="Helvetica,sans-Serif" font-size="10.00">mavlink_msg_terrain</text>
<text text-anchor="middle" x="60" y="-7" font-family="Helvetica,sans-Serif" font-size="10.00">_data_get_grid_spacing</text>
</g>
<!-- Node2 -->
<g id="node2" class="node"><title>Node2</title>
<g id="a_node2"><a xlink:href="$mavlink__msg__terrain__data_8h.html#adfc5f1437a575effc61b38454b56c028" xlink:title="Decode a terrain_data message into a struct. ">
<polygon fill="white" stroke="black" points="156.5,-0 156.5,-30 263.5,-30 263.5,-0 156.5,-0"/>
<text text-anchor="start" x="164.5" y="-18" font-family="Helvetica,sans-Serif" font-size="10.00">mavlink_msg_terrain</text>
<text text-anchor="middle" x="210" y="-7" font-family="Helvetica,sans-Serif" font-size="10.00">_data_decode</text>
</a>
</g>
</g>
<!-- Node1&#45;&gt;Node2 -->
<g id="edge1" class="edge"><title>Node1&#45;&gt;Node2</title>
<path fill="none" stroke="midnightblue" d="M130.085,-15C138.806,-15 147.619,-15 156.036,-15"/>
<polygon fill="midnightblue" stroke="midnightblue" points="129.919,-11.5001 119.919,-15 129.919,-18.5001 129.919,-11.5001"/>
</g>
<!-- Node3 -->
<g id="node3" class="node"><title>Node3</title>
<g id="a_node3"><a xlink:href="$v1_80_2common_2testsuite_8h.html#ab1a2673fcff111f7cf1703ee77385596" xlink:title="mavlink_test_terrain_data">
<polygon fill="white" stroke="black" points="300,-5.5 300,-24.5 428,-24.5 428,-5.5 300,-5.5"/>
<text text-anchor="middle" x="364" y="-12.5" font-family="Helvetica,sans-Serif" font-size="10.00">mavlink_test_terrain_data</text>
</a>
</g>
</g>
<!-- Node2&#45;&gt;Node3 -->
<g id="edge2" class="edge"><title>Node2&#45;&gt;Node3</title>
<path fill="none" stroke="midnightblue" d="M273.739,-15C282.376,-15 291.249,-15 299.893,-15"/>
<polygon fill="midnightblue" stroke="midnightblue" points="273.736,-11.5001 263.736,-15 273.736,-18.5001 273.736,-11.5001"/>
</g>
<!-- Node4 -->
<g id="node4" class="node"><title>Node4</title>
<g id="a_node4"><a xlink:href="$v1_80_2common_2testsuite_8h.html#af349432601ac003d2c80a69c100c70a4" xlink:title="mavlink_test_common">
<polygon fill="white" stroke="black" points="464.5,-5.5 464.5,-24.5 579.5,-24.5 579.5,-5.5 464.5,-5.5"/>
<text text-anchor="middle" x="522" y="-12.5" font-family="Helvetica,sans-Serif" font-size="10.00">mavlink_test_common</text>
</a>
</g>
</g>
<!-- Node3&#45;&gt;Node4 -->
<g id="edge3" class="edge"><title>Node3&#45;&gt;Node4</title>
<path fill="none" stroke="midnightblue" d="M438.223,-15C446.985,-15 455.828,-15 464.306,-15"/>
<polygon fill="midnightblue" stroke="midnightblue" points="438.002,-11.5001 428.002,-15 438.001,-18.5001 438.002,-11.5001"/>
</g>
<!-- Node5 -->
<g id="node5" class="node"><title>Node5</title>
<g id="a_node5"><a xlink:href="$v1_80_2common_2testsuite_8h.html#a4cc77b6c343679298da5d3c2b4e48759" xlink:title="mavlink_test_all">
<polygon fill="white" stroke="black" points="616.5,-5.5 616.5,-24.5 703.5,-24.5 703.5,-5.5 616.5,-5.5"/>
<text text-anchor="middle" x="660" y="-12.5" font-family="Helvetica,sans-Serif" font-size="10.00">mavlink_test_all</text>
</a>
</g>
</g>
<!-- Node4&#45;&gt;Node5 -->
<g id="edge4" class="edge"><title>Node4&#45;&gt;Node5</title>
<path fill="none" stroke="midnightblue" d="M589.996,-15C598.988,-15 608.003,-15 616.412,-15"/>
<polygon fill="midnightblue" stroke="midnightblue" points="589.888,-11.5001 579.888,-15 589.888,-18.5001 589.888,-11.5001"/>
</g>
</g>
</svg>
