<?xml version="1.0" encoding="UTF-8" standalone="no"?>
<!DOCTYPE svg PUBLIC "-//W3C//DTD SVG 1.1//EN"
 "http://www.w3.org/Graphics/SVG/1.1/DTD/svg11.dtd">
<!-- Generated by graphviz version 2.36.0 (20140111.2315)
 -->
<!-- Title: mavlink_msg_mission_ack_pack Pages: 1 -->
<svg width="716pt" height="61pt"
 viewBox="0.00 0.00 716.00 61.00" xmlns="http://www.w3.org/2000/svg" xmlns:xlink="http://www.w3.org/1999/xlink">
<g id="graph0" class="graph" transform="scale(1 1) rotate(0) translate(4 57)">
<title>mavlink_msg_mission_ack_pack</title>
<polygon fill="white" stroke="none" points="-4,4 -4,-57 712,-57 712,4 -4,4"/>
<!-- Node1 -->
<g id="node1" class="node"><title>Node1</title>
<polygon fill="#bfbfbf" stroke="black" points="0.5,-1 0.5,-31 113.5,-31 113.5,-1 0.5,-1"/>
<text text-anchor="start" x="8.5" y="-19" font-family="Helvetica,sans-Serif" font-size="10.00">mavlink_msg_mission</text>
<text text-anchor="middle" x="57" y="-8" font-family="Helvetica,sans-Serif" font-size="10.00">_ack_pack</text>
</g>
<!-- Node2 -->
<g id="node2" class="node"><title>Node2</title>
<g id="a_node2"><a xlink:href="$mavlink__msg__mission__ack_8h.html#a32037f62aa92611fc3824497fcc0dac4" xlink:title="Encode a mission_ack struct. ">
<polygon fill="white" stroke="black" points="150.5,-23 150.5,-53 263.5,-53 263.5,-23 150.5,-23"/>
<text text-anchor="start" x="158.5" y="-41" font-family="Helvetica,sans-Serif" font-size="10.00">mavlink_msg_mission</text>
<text text-anchor="middle" x="207" y="-30" font-family="Helvetica,sans-Serif" font-size="10.00">_ack_encode</text>
</a>
</g>
</g>
<!-- Node1&#45;&gt;Node2 -->
<g id="edge1" class="edge"><title>Node1&#45;&gt;Node2</title>
<path fill="none" stroke="midnightblue" d="M123.481,-25.7337C132.381,-27.0567 141.449,-28.4045 150.158,-29.6992"/>
<polygon fill="midnightblue" stroke="midnightblue" points="123.937,-22.263 113.531,-24.2546 122.907,-29.187 123.937,-22.263"/>
</g>
<!-- Node3 -->
<g id="node3" class="node"><title>Node3</title>
<g id="a_node3"><a xlink:href="$v1_80_2common_2testsuite_8h.html#a4686323e0f6bac3ab022e6079527b380" xlink:title="mavlink_test_mission_ack">
<polygon fill="white" stroke="black" points="300,-6.5 300,-25.5 432,-25.5 432,-6.5 300,-6.5"/>
<text text-anchor="middle" x="366" y="-13.5" font-family="Helvetica,sans-Serif" font-size="10.00">mavlink_test_mission_ack</text>
</a>
</g>
</g>
<!-- Node1&#45;&gt;Node3 -->
<g id="edge5" class="edge"><title>Node1&#45;&gt;Node3</title>
<path fill="none" stroke="midnightblue" d="M124.096,-14.3903C132.807,-14.2289 141.618,-14.0911 150,-14 200.664,-13.4494 213.336,-13.4984 264,-14 275.575,-14.1146 287.894,-14.303 299.805,-14.5196"/>
<polygon fill="midnightblue" stroke="midnightblue" points="123.876,-10.8939 113.946,-14.5894 124.013,-17.8926 123.876,-10.8939"/>
</g>
<!-- Node2&#45;&gt;Node3 -->
<g id="edge2" class="edge"><title>Node2&#45;&gt;Node3</title>
<path fill="none" stroke="midnightblue" d="M273.758,-28.7855C282.349,-27.5817 291.149,-26.3485 299.732,-25.1458"/>
<polygon fill="midnightblue" stroke="midnightblue" points="273.212,-25.3277 263.794,-30.1817 274.183,-32.26 273.212,-25.3277"/>
</g>
<!-- Node4 -->
<g id="node4" class="node"><title>Node4</title>
<g id="a_node4"><a xlink:href="$v1_80_2common_2testsuite_8h.html#af349432601ac003d2c80a69c100c70a4" xlink:title="mavlink_test_common">
<polygon fill="white" stroke="black" points="468.5,-6.5 468.5,-25.5 583.5,-25.5 583.5,-6.5 468.5,-6.5"/>
<text text-anchor="middle" x="526" y="-13.5" font-family="Helvetica,sans-Serif" font-size="10.00">mavlink_test_common</text>
</a>
</g>
</g>
<!-- Node3&#45;&gt;Node4 -->
<g id="edge3" class="edge"><title>Node3&#45;&gt;Node4</title>
<path fill="none" stroke="midnightblue" d="M442.296,-16C450.96,-16 459.684,-16 468.049,-16"/>
<polygon fill="midnightblue" stroke="midnightblue" points="442.177,-12.5001 432.177,-16 442.177,-19.5001 442.177,-12.5001"/>
</g>
<!-- Node5 -->
<g id="node5" class="node"><title>Node5</title>
<g id="a_node5"><a xlink:href="$v1_80_2common_2testsuite_8h.html#a4cc77b6c343679298da5d3c2b4e48759" xlink:title="mavlink_test_all">
<polygon fill="white" stroke="black" points="620.5,-6.5 620.5,-25.5 707.5,-25.5 707.5,-6.5 620.5,-6.5"/>
<text text-anchor="middle" x="664" y="-13.5" font-family="Helvetica,sans-Serif" font-size="10.00">mavlink_test_all</text>
</a>
</g>
</g>
<!-- Node4&#45;&gt;Node5 -->
<g id="edge4" class="edge"><title>Node4&#45;&gt;Node5</title>
<path fill="none" stroke="midnightblue" d="M593.996,-16C602.988,-16 612.003,-16 620.412,-16"/>
<polygon fill="midnightblue" stroke="midnightblue" points="593.888,-12.5001 583.888,-16 593.888,-19.5001 593.888,-12.5001"/>
</g>
</g>
</svg>
