<?xml version="1.0" encoding="UTF-8" standalone="no"?>
<!DOCTYPE svg PUBLIC "-//W3C//DTD SVG 1.1//EN"
 "http://www.w3.org/Graphics/SVG/1.1/DTD/svg11.dtd">
<!-- Generated by graphviz version 2.36.0 (20140111.2315)
 -->
<!-- Title: mavlink_msg_camera_feedback_get_foc_len Pages: 1 -->
<svg width="718pt" height="38pt"
 viewBox="0.00 0.00 718.00 38.00" xmlns="http://www.w3.org/2000/svg" xmlns:xlink="http://www.w3.org/1999/xlink">
<g id="graph0" class="graph" transform="scale(1 1) rotate(0) translate(4 34)">
<title>mavlink_msg_camera_feedback_get_foc_len</title>
<polygon fill="white" stroke="none" points="-4,4 -4,-34 714,-34 714,4 -4,4"/>
<!-- Node1 -->
<g id="node1" class="node"><title>Node1</title>
<polygon fill="#bfbfbf" stroke="black" points="0.5,-0 0.5,-30 117.5,-30 117.5,-0 0.5,-0"/>
<text text-anchor="start" x="8.5" y="-18" font-family="Helvetica,sans-Serif" font-size="10.00">mavlink_msg_camera</text>
<text text-anchor="middle" x="59" y="-7" font-family="Helvetica,sans-Serif" font-size="10.00">_feedback_get_foc_len</text>
</g>
<!-- Node2 -->
<g id="node2" class="node"><title>Node2</title>
<g id="a_node2"><a xlink:href="$mavlink__msg__camera__feedback_8h.html#a6cbd0224030fa70105288eacc77dba43" xlink:title="Decode a camera_feedback message into a struct. ">
<polygon fill="white" stroke="black" points="154,-0 154,-30 266,-30 266,-0 154,-0"/>
<text text-anchor="start" x="162" y="-18" font-family="Helvetica,sans-Serif" font-size="10.00">mavlink_msg_camera</text>
<text text-anchor="middle" x="210" y="-7" font-family="Helvetica,sans-Serif" font-size="10.00">_feedback_decode</text>
</a>
</g>
</g>
<!-- Node1&#45;&gt;Node2 -->
<g id="edge1" class="edge"><title>Node1&#45;&gt;Node2</title>
<path fill="none" stroke="midnightblue" d="M127.811,-15C136.577,-15 145.468,-15 153.992,-15"/>
<polygon fill="midnightblue" stroke="midnightblue" points="127.607,-11.5001 117.607,-15 127.607,-18.5001 127.607,-11.5001"/>
</g>
<!-- Node3 -->
<g id="node3" class="node"><title>Node3</title>
<g id="a_node3"><a xlink:href="$v1_80_2ardupilotmega_2testsuite_8h.html#a2e683100bd29cb10eff52f92570607ae" xlink:title="mavlink_test_camera\l_feedback">
<polygon fill="white" stroke="black" points="302,-0 302,-30 412,-30 412,-0 302,-0"/>
<text text-anchor="start" x="310" y="-18" font-family="Helvetica,sans-Serif" font-size="10.00">mavlink_test_camera</text>
<text text-anchor="middle" x="357" y="-7" font-family="Helvetica,sans-Serif" font-size="10.00">_feedback</text>
</a>
</g>
</g>
<!-- Node2&#45;&gt;Node3 -->
<g id="edge2" class="edge"><title>Node2&#45;&gt;Node3</title>
<path fill="none" stroke="midnightblue" d="M276.492,-15C284.983,-15 293.603,-15 301.88,-15"/>
<polygon fill="midnightblue" stroke="midnightblue" points="276.232,-11.5001 266.232,-15 276.232,-18.5001 276.232,-11.5001"/>
</g>
<!-- Node4 -->
<g id="node4" class="node"><title>Node4</title>
<g id="a_node4"><a xlink:href="$v1_80_2ardupilotmega_2testsuite_8h.html#ab264d471ac2f46584f2bb580704b5e9d" xlink:title="mavlink_test_ardupilotmega">
<polygon fill="white" stroke="black" points="448,-5.5 448,-24.5 586,-24.5 586,-5.5 448,-5.5"/>
<text text-anchor="middle" x="517" y="-12.5" font-family="Helvetica,sans-Serif" font-size="10.00">mavlink_test_ardupilotmega</text>
</a>
</g>
</g>
<!-- Node3&#45;&gt;Node4 -->
<g id="edge3" class="edge"><title>Node3&#45;&gt;Node4</title>
<path fill="none" stroke="midnightblue" d="M422.448,-15C430.82,-15 439.418,-15 447.847,-15"/>
<polygon fill="midnightblue" stroke="midnightblue" points="422.375,-11.5001 412.375,-15 422.375,-18.5001 422.375,-11.5001"/>
</g>
<!-- Node5 -->
<g id="node5" class="node"><title>Node5</title>
<g id="a_node5"><a xlink:href="$v1_80_2ardupilotmega_2testsuite_8h.html#a4cc77b6c343679298da5d3c2b4e48759" xlink:title="mavlink_test_all">
<polygon fill="white" stroke="black" points="622.5,-5.5 622.5,-24.5 709.5,-24.5 709.5,-5.5 622.5,-5.5"/>
<text text-anchor="middle" x="666" y="-12.5" font-family="Helvetica,sans-Serif" font-size="10.00">mavlink_test_all</text>
</a>
</g>
</g>
<!-- Node4&#45;&gt;Node5 -->
<g id="edge4" class="edge"><title>Node4&#45;&gt;Node5</title>
<path fill="none" stroke="midnightblue" d="M596.438,-15C605.373,-15 614.211,-15 622.42,-15"/>
<polygon fill="midnightblue" stroke="midnightblue" points="596.336,-11.5001 586.336,-15 596.336,-18.5001 596.336,-11.5001"/>
</g>
</g>
</svg>
