<?xml version="1.0" encoding="UTF-8" standalone="no"?>
<!DOCTYPE svg PUBLIC "-//W3C//DTD SVG 1.1//EN"
 "http://www.w3.org/Graphics/SVG/1.1/DTD/svg11.dtd">
<!-- Generated by graphviz version 2.36.0 (20140111.2315)
 -->
<!-- Title: mavlink_msg_mission_set_current_get_target_system Pages: 1 -->
<svg width="722pt" height="150pt"
 viewBox="0.00 0.00 722.00 150.00" xmlns="http://www.w3.org/2000/svg" xmlns:xlink="http://www.w3.org/1999/xlink">
<g id="graph0" class="graph" transform="scale(1 1) rotate(0) translate(4 146)">
<title>mavlink_msg_mission_set_current_get_target_system</title>
<polygon fill="white" stroke="none" points="-4,4 -4,-146 718,-146 718,4 -4,4"/>
<!-- Node1 -->
<g id="node1" class="node"><title>Node1</title>
<polygon fill="#bfbfbf" stroke="black" points="0.5,-67.5 0.5,-108.5 119.5,-108.5 119.5,-67.5 0.5,-67.5"/>
<text text-anchor="start" x="8.5" y="-96.5" font-family="Helvetica,sans-Serif" font-size="10.00">mavlink_msg_mission</text>
<text text-anchor="start" x="8.5" y="-85.5" font-family="Helvetica,sans-Serif" font-size="10.00">_set_current_get_target</text>
<text text-anchor="middle" x="60" y="-74.5" font-family="Helvetica,sans-Serif" font-size="10.00">_system</text>
</g>
<!-- Node2 -->
<g id="node2" class="node"><title>Node2</title>
<g id="a_node2"><a xlink:href="$classMAVLink__routing.html#afca07626745616e05d03caf5a0601c2f" xlink:title="MAVLink_routing::get\l_targets">
<polygon fill="white" stroke="black" points="158,-98 158,-128 268,-128 268,-98 158,-98"/>
<text text-anchor="start" x="166" y="-116" font-family="Helvetica,sans-Serif" font-size="10.00">MAVLink_routing::get</text>
<text text-anchor="middle" x="213" y="-105" font-family="Helvetica,sans-Serif" font-size="10.00">_targets</text>
</a>
</g>
</g>
<!-- Node1&#45;&gt;Node2 -->
<g id="edge1" class="edge"><title>Node1&#45;&gt;Node2</title>
<path fill="none" stroke="midnightblue" d="M129.819,-99.3938C139.113,-100.933 148.544,-102.494 157.542,-103.984"/>
<polygon fill="midnightblue" stroke="midnightblue" points="130.25,-95.9177 119.813,-97.7372 129.107,-102.824 130.25,-95.9177"/>
</g>
<!-- Node6 -->
<g id="node6" class="node"><title>Node6</title>
<g id="a_node6"><a xlink:href="$mavlink__msg__mission__set__current_8h.html#ac8cddccfd33b1caa65fd61a0fc86758f" xlink:title="Decode a mission_set_current message into a struct. ">
<polygon fill="white" stroke="black" points="156.5,-49 156.5,-79 269.5,-79 269.5,-49 156.5,-49"/>
<text text-anchor="start" x="164.5" y="-67" font-family="Helvetica,sans-Serif" font-size="10.00">mavlink_msg_mission</text>
<text text-anchor="middle" x="213" y="-56" font-family="Helvetica,sans-Serif" font-size="10.00">_set_current_decode</text>
</a>
</g>
</g>
<!-- Node1&#45;&gt;Node6 -->
<g id="edge5" class="edge"><title>Node1&#45;&gt;Node6</title>
<path fill="none" stroke="midnightblue" d="M129.7,-77.0808C138.527,-75.6778 147.479,-74.255 156.068,-72.8898"/>
<polygon fill="midnightblue" stroke="midnightblue" points="129.14,-73.6259 119.813,-78.6523 130.238,-80.5391 129.14,-73.6259"/>
</g>
<!-- Node3 -->
<g id="node3" class="node"><title>Node3</title>
<g id="a_node3"><a xlink:href="$classMAVLink__routing.html#a474038c8ab695c57e23fb6fec4664947" xlink:title="MAVLink_routing::check\l_and_forward">
<polygon fill="white" stroke="black" points="306.5,-98 306.5,-128 429.5,-128 429.5,-98 306.5,-98"/>
<text text-anchor="start" x="314.5" y="-116" font-family="Helvetica,sans-Serif" font-size="10.00">MAVLink_routing::check</text>
<text text-anchor="middle" x="368" y="-105" font-family="Helvetica,sans-Serif" font-size="10.00">_and_forward</text>
</a>
</g>
</g>
<!-- Node2&#45;&gt;Node3 -->
<g id="edge2" class="edge"><title>Node2&#45;&gt;Node3</title>
<path fill="none" stroke="midnightblue" d="M278.606,-113C287.784,-113 297.195,-113 306.295,-113"/>
<polygon fill="midnightblue" stroke="midnightblue" points="278.373,-109.5 268.373,-113 278.373,-116.5 278.373,-109.5"/>
</g>
<!-- Node4 -->
<g id="node4" class="node"><title>Node4</title>
<g id="a_node4"><a xlink:href="$routing_8pde.html#a0b33edabd7f1c4e4a0bf32c67269be2f" xlink:title="loop">
<polygon fill="white" stroke="black" points="510.5,-122.5 510.5,-141.5 545.5,-141.5 545.5,-122.5 510.5,-122.5"/>
<text text-anchor="middle" x="528" y="-129.5" font-family="Helvetica,sans-Serif" font-size="10.00">loop</text>
</a>
</g>
</g>
<!-- Node3&#45;&gt;Node4 -->
<g id="edge3" class="edge"><title>Node3&#45;&gt;Node4</title>
<path fill="none" stroke="midnightblue" d="M439.624,-121.493C465.91,-124.654 493.447,-127.965 510.418,-130.006"/>
<polygon fill="midnightblue" stroke="midnightblue" points="439.981,-118.011 429.635,-120.292 439.146,-124.961 439.981,-118.011"/>
</g>
<!-- Node5 -->
<g id="node5" class="node"><title>Node5</title>
<g id="a_node5"><a xlink:href="$classGCS__MAVLINK.html#a7d8788ed53976a200971612229fe2533" xlink:title="GCS_MAVLINK::update">
<polygon fill="white" stroke="black" points="466.5,-84.5 466.5,-103.5 589.5,-103.5 589.5,-84.5 466.5,-84.5"/>
<text text-anchor="middle" x="528" y="-91.5" font-family="Helvetica,sans-Serif" font-size="10.00">GCS_MAVLINK::update</text>
</a>
</g>
</g>
<!-- Node3&#45;&gt;Node5 -->
<g id="edge4" class="edge"><title>Node3&#45;&gt;Node5</title>
<path fill="none" stroke="midnightblue" d="M439.597,-104.511C448.495,-103.44 457.538,-102.353 466.266,-101.303"/>
<polygon fill="midnightblue" stroke="midnightblue" points="439.146,-101.039 429.635,-105.708 439.981,-107.989 439.146,-101.039"/>
</g>
<!-- Node7 -->
<g id="node7" class="node"><title>Node7</title>
<g id="a_node7"><a xlink:href="$classGCS__MAVLINK.html#ad4e76e7f27bc999e806416e24aa10f26" xlink:title="GCS_MAVLINK::handle\l_mission_set_current">
<polygon fill="white" stroke="black" points="307,-49 307,-79 429,-79 429,-49 307,-49"/>
<text text-anchor="start" x="315" y="-67" font-family="Helvetica,sans-Serif" font-size="10.00">GCS_MAVLINK::handle</text>
<text text-anchor="middle" x="368" y="-56" font-family="Helvetica,sans-Serif" font-size="10.00">_mission_set_current</text>
</a>
</g>
</g>
<!-- Node6&#45;&gt;Node7 -->
<g id="edge6" class="edge"><title>Node6&#45;&gt;Node7</title>
<path fill="none" stroke="midnightblue" d="M279.764,-64C288.807,-64 298.053,-64 306.985,-64"/>
<polygon fill="midnightblue" stroke="midnightblue" points="279.669,-60.5001 269.669,-64 279.669,-67.5001 279.669,-60.5001"/>
</g>
<!-- Node8 -->
<g id="node8" class="node"><title>Node8</title>
<g id="a_node8"><a xlink:href="$v1_80_2common_2testsuite_8h.html#a2f2e3d3be48fd4f9aaae6efa146162da" xlink:title="mavlink_test_mission\l_set_current">
<polygon fill="white" stroke="black" points="312.5,-0 312.5,-30 423.5,-30 423.5,-0 312.5,-0"/>
<text text-anchor="start" x="320.5" y="-18" font-family="Helvetica,sans-Serif" font-size="10.00">mavlink_test_mission</text>
<text text-anchor="middle" x="368" y="-7" font-family="Helvetica,sans-Serif" font-size="10.00">_set_current</text>
</a>
</g>
</g>
<!-- Node6&#45;&gt;Node8 -->
<g id="edge7" class="edge"><title>Node6&#45;&gt;Node8</title>
<path fill="none" stroke="midnightblue" d="M271.013,-45.7409C287.15,-40.5727 304.527,-35.0076 320.002,-30.0516"/>
<polygon fill="midnightblue" stroke="midnightblue" points="269.609,-42.5152 261.153,-48.8986 271.745,-49.1817 269.609,-42.5152"/>
</g>
<!-- Node9 -->
<g id="node9" class="node"><title>Node9</title>
<g id="a_node9"><a xlink:href="$v1_80_2common_2testsuite_8h.html#af349432601ac003d2c80a69c100c70a4" xlink:title="mavlink_test_common">
<polygon fill="white" stroke="black" points="470.5,-5.5 470.5,-24.5 585.5,-24.5 585.5,-5.5 470.5,-5.5"/>
<text text-anchor="middle" x="528" y="-12.5" font-family="Helvetica,sans-Serif" font-size="10.00">mavlink_test_common</text>
</a>
</g>
</g>
<!-- Node8&#45;&gt;Node9 -->
<g id="edge8" class="edge"><title>Node8&#45;&gt;Node9</title>
<path fill="none" stroke="midnightblue" d="M433.862,-15C445.981,-15 458.558,-15 470.402,-15"/>
<polygon fill="midnightblue" stroke="midnightblue" points="433.817,-11.5001 423.817,-15 433.817,-18.5001 433.817,-11.5001"/>
</g>
<!-- Node10 -->
<g id="node10" class="node"><title>Node10</title>
<g id="a_node10"><a xlink:href="$v1_80_2common_2testsuite_8h.html#a4cc77b6c343679298da5d3c2b4e48759" xlink:title="mavlink_test_all">
<polygon fill="white" stroke="black" points="626.5,-5.5 626.5,-24.5 713.5,-24.5 713.5,-5.5 626.5,-5.5"/>
<text text-anchor="middle" x="670" y="-12.5" font-family="Helvetica,sans-Serif" font-size="10.00">mavlink_test_all</text>
</a>
</g>
</g>
<!-- Node9&#45;&gt;Node10 -->
<g id="edge9" class="edge"><title>Node9&#45;&gt;Node10</title>
<path fill="none" stroke="midnightblue" d="M595.559,-15C606.074,-15 616.693,-15 626.464,-15"/>
<polygon fill="midnightblue" stroke="midnightblue" points="595.54,-11.5001 585.54,-15 595.54,-18.5001 595.54,-11.5001"/>
</g>
</g>
</svg>
