<?xml version="1.0" encoding="UTF-8" standalone="no"?>
<!DOCTYPE svg PUBLIC "-//W3C//DTD SVG 1.1//EN"
 "http://www.w3.org/Graphics/SVG/1.1/DTD/svg11.dtd">
<!-- Generated by graphviz version 2.36.0 (20140111.2315)
 -->
<!-- Title: mavlink_msg_hil_state_quaternion_decode Pages: 1 -->
<svg width="306pt" height="793pt"
 viewBox="0.00 0.00 306.00 793.00" xmlns="http://www.w3.org/2000/svg" xmlns:xlink="http://www.w3.org/1999/xlink">
<g id="graph0" class="graph" transform="scale(1 1) rotate(0) translate(4 789)">
<title>mavlink_msg_hil_state_quaternion_decode</title>
<polygon fill="white" stroke="none" points="-4,4 -4,-789 302,-789 302,4 -4,4"/>
<!-- Node1 -->
<g id="node1" class="node"><title>Node1</title>
<polygon fill="#bfbfbf" stroke="black" points="0,-377 0,-407 116,-407 116,-377 0,-377"/>
<text text-anchor="start" x="8" y="-395" font-family="Helvetica,sans-Serif" font-size="10.00">mavlink_msg_hil_state</text>
<text text-anchor="middle" x="58" y="-384" font-family="Helvetica,sans-Serif" font-size="10.00">_quaternion_decode</text>
</g>
<!-- Node2 -->
<g id="node2" class="node"><title>Node2</title>
<g id="a_node2"><a xlink:href="$mavlink__msg__hil__state__quaternion_8h.html#a3b1863c8646daa5938210de8a07f71ef" xlink:title="Send a hil_state_quaternion message. ">
<polygon fill="white" stroke="black" points="157,-755 157,-785 293,-785 293,-755 157,-755"/>
<text text-anchor="start" x="165" y="-773" font-family="Helvetica,sans-Serif" font-size="10.00">mavlink_msg_hil_state</text>
<text text-anchor="middle" x="225" y="-762" font-family="Helvetica,sans-Serif" font-size="10.00">_quaternion_get_time_usec</text>
</a>
</g>
</g>
<!-- Node1&#45;&gt;Node2 -->
<g id="edge1" class="edge"><title>Node1&#45;&gt;Node2</title>
<path fill="none" stroke="midnightblue" d="M58.311,-407.057C56.7043,-460.62 58.5493,-644.103 152,-745 153.236,-746.335 154.548,-747.598 155.922,-748.794"/>
<polygon fill="midnightblue" stroke="midnightblue" points="154.252,-751.906 164.405,-754.934 158.356,-746.236 154.252,-751.906"/>
</g>
<!-- Node3 -->
<g id="node3" class="node"><title>Node3</title>
<g id="a_node3"><a xlink:href="$mavlink__msg__hil__state__quaternion_8h.html#a0ddc81330a98d52eb60081ad2ba4b802" xlink:title="Get field attitude_quaternion from hil_state_quaternion message. ">
<polygon fill="white" stroke="black" points="163.5,-695.5 163.5,-736.5 286.5,-736.5 286.5,-695.5 163.5,-695.5"/>
<text text-anchor="start" x="171.5" y="-724.5" font-family="Helvetica,sans-Serif" font-size="10.00">mavlink_msg_hil_state</text>
<text text-anchor="start" x="171.5" y="-713.5" font-family="Helvetica,sans-Serif" font-size="10.00">_quaternion_get_attitude</text>
<text text-anchor="middle" x="225" y="-702.5" font-family="Helvetica,sans-Serif" font-size="10.00">_quaternion</text>
</a>
</g>
</g>
<!-- Node1&#45;&gt;Node3 -->
<g id="edge2" class="edge"><title>Node1&#45;&gt;Node3</title>
<path fill="none" stroke="midnightblue" d="M59.4901,-407.313C61.8178,-454.906 75.1929,-602.082 152,-686 153.029,-687.124 154.106,-688.207 155.225,-689.25"/>
<polygon fill="midnightblue" stroke="midnightblue" points="153.163,-692.082 163.163,-695.58 157.527,-686.609 153.163,-692.082"/>
</g>
<!-- Node4 -->
<g id="node4" class="node"><title>Node4</title>
<g id="a_node4"><a xlink:href="$mavlink__msg__hil__state__quaternion_8h.html#a7d72bb92ff4040dd2fe510de4176cb77" xlink:title="Get field rollspeed from hil_state_quaternion message. ">
<polygon fill="white" stroke="black" points="160,-647 160,-677 290,-677 290,-647 160,-647"/>
<text text-anchor="start" x="168" y="-665" font-family="Helvetica,sans-Serif" font-size="10.00">mavlink_msg_hil_state</text>
<text text-anchor="middle" x="225" y="-654" font-family="Helvetica,sans-Serif" font-size="10.00">_quaternion_get_rollspeed</text>
</a>
</g>
</g>
<!-- Node1&#45;&gt;Node4 -->
<g id="edge3" class="edge"><title>Node1&#45;&gt;Node4</title>
<path fill="none" stroke="midnightblue" d="M60.3577,-407.041C64.9749,-449.37 83.8092,-570.732 152,-637 153.619,-638.573 155.342,-640.048 157.148,-641.431"/>
<polygon fill="midnightblue" stroke="midnightblue" points="155.249,-644.37 165.533,-646.918 159.082,-638.513 155.249,-644.37"/>
</g>
<!-- Node5 -->
<g id="node5" class="node"><title>Node5</title>
<g id="a_node5"><a xlink:href="$mavlink__msg__hil__state__quaternion_8h.html#a7b8255c11407377caab8cfa1bf2a8ee7" xlink:title="Get field pitchspeed from hil_state_quaternion message. ">
<polygon fill="white" stroke="black" points="156,-598 156,-628 294,-628 294,-598 156,-598"/>
<text text-anchor="start" x="164" y="-616" font-family="Helvetica,sans-Serif" font-size="10.00">mavlink_msg_hil_state</text>
<text text-anchor="middle" x="225" y="-605" font-family="Helvetica,sans-Serif" font-size="10.00">_quaternion_get_pitchspeed</text>
</a>
</g>
</g>
<!-- Node1&#45;&gt;Node5 -->
<g id="edge4" class="edge"><title>Node1&#45;&gt;Node5</title>
<path fill="none" stroke="midnightblue" d="M61.9883,-407.161C69.9514,-443.62 95.0756,-536.957 152,-588 153.761,-589.579 155.627,-591.059 157.575,-592.447"/>
<polygon fill="midnightblue" stroke="midnightblue" points="156.213,-595.717 166.568,-597.958 159.87,-589.749 156.213,-595.717"/>
</g>
<!-- Node6 -->
<g id="node6" class="node"><title>Node6</title>
<g id="a_node6"><a xlink:href="$mavlink__msg__hil__state__quaternion_8h.html#a7e27f504b76cd832eeab550155da0247" xlink:title="Get field yawspeed from hil_state_quaternion message. ">
<polygon fill="white" stroke="black" points="157.5,-549 157.5,-579 292.5,-579 292.5,-549 157.5,-549"/>
<text text-anchor="start" x="165.5" y="-567" font-family="Helvetica,sans-Serif" font-size="10.00">mavlink_msg_hil_state</text>
<text text-anchor="middle" x="225" y="-556" font-family="Helvetica,sans-Serif" font-size="10.00">_quaternion_get_yawspeed</text>
</a>
</g>
</g>
<!-- Node1&#45;&gt;Node6 -->
<g id="edge5" class="edge"><title>Node1&#45;&gt;Node6</title>
<path fill="none" stroke="midnightblue" d="M64.6448,-407.285C76.3568,-436.948 106.095,-502.598 152,-539 154.284,-540.811 156.708,-542.496 159.232,-544.063"/>
<polygon fill="midnightblue" stroke="midnightblue" points="157.682,-547.205 168.133,-548.945 161.049,-541.067 157.682,-547.205"/>
</g>
<!-- Node7 -->
<g id="node7" class="node"><title>Node7</title>
<g id="a_node7"><a xlink:href="$mavlink__msg__hil__state__quaternion_8h.html#abb7f40176d1567fe78dde7f8e5276ca1" xlink:title="Get field lat from hil_state_quaternion message. ">
<polygon fill="white" stroke="black" points="167,-500 167,-530 283,-530 283,-500 167,-500"/>
<text text-anchor="start" x="175" y="-518" font-family="Helvetica,sans-Serif" font-size="10.00">mavlink_msg_hil_state</text>
<text text-anchor="middle" x="225" y="-507" font-family="Helvetica,sans-Serif" font-size="10.00">_quaternion_get_lat</text>
</a>
</g>
</g>
<!-- Node1&#45;&gt;Node7 -->
<g id="edge6" class="edge"><title>Node1&#45;&gt;Node7</title>
<path fill="none" stroke="midnightblue" d="M69.6038,-407.088C85.3073,-428.396 116.718,-467.242 152,-490 155.131,-492.02 158.444,-493.897 161.861,-495.64"/>
<polygon fill="midnightblue" stroke="midnightblue" points="160.555,-498.892 171.097,-499.942 163.51,-492.547 160.555,-498.892"/>
</g>
<!-- Node8 -->
<g id="node8" class="node"><title>Node8</title>
<g id="a_node8"><a xlink:href="$mavlink__msg__hil__state__quaternion_8h.html#aa00ba23a16d7f6023e8ad05404352aff" xlink:title="Get field lon from hil_state_quaternion message. ">
<polygon fill="white" stroke="black" points="167,-451 167,-481 283,-481 283,-451 167,-451"/>
<text text-anchor="start" x="175" y="-469" font-family="Helvetica,sans-Serif" font-size="10.00">mavlink_msg_hil_state</text>
<text text-anchor="middle" x="225" y="-458" font-family="Helvetica,sans-Serif" font-size="10.00">_quaternion_get_lon</text>
</a>
</g>
</g>
<!-- Node1&#45;&gt;Node8 -->
<g id="edge7" class="edge"><title>Node1&#45;&gt;Node8</title>
<path fill="none" stroke="midnightblue" d="M84.9393,-407.02C103.313,-417.321 128.731,-430.899 152,-441 157.007,-443.173 162.27,-445.296 167.576,-447.327"/>
<polygon fill="midnightblue" stroke="midnightblue" points="166.535,-450.674 177.128,-450.875 168.972,-444.112 166.535,-450.674"/>
</g>
<!-- Node9 -->
<g id="node9" class="node"><title>Node9</title>
<g id="a_node9"><a xlink:href="$mavlink__msg__hil__state__quaternion_8h.html#ae3d432855cb90fefdba4d02aca37810f" xlink:title="Get field alt from hil_state_quaternion message. ">
<polygon fill="white" stroke="black" points="167,-402 167,-432 283,-432 283,-402 167,-402"/>
<text text-anchor="start" x="175" y="-420" font-family="Helvetica,sans-Serif" font-size="10.00">mavlink_msg_hil_state</text>
<text text-anchor="middle" x="225" y="-409" font-family="Helvetica,sans-Serif" font-size="10.00">_quaternion_get_alt</text>
</a>
</g>
</g>
<!-- Node1&#45;&gt;Node9 -->
<g id="edge8" class="edge"><title>Node1&#45;&gt;Node9</title>
<path fill="none" stroke="midnightblue" d="M116.246,-400.674C129.3,-402.652 143.288,-404.771 156.718,-406.806"/>
<polygon fill="midnightblue" stroke="midnightblue" points="156.444,-410.304 166.855,-408.342 157.492,-403.383 156.444,-410.304"/>
</g>
<!-- Node10 -->
<g id="node10" class="node"><title>Node10</title>
<g id="a_node10"><a xlink:href="$mavlink__msg__hil__state__quaternion_8h.html#ab23f346e6cb1be1abb17ecfbe31af599" xlink:title="Get field vx from hil_state_quaternion message. ">
<polygon fill="white" stroke="black" points="167,-353 167,-383 283,-383 283,-353 167,-353"/>
<text text-anchor="start" x="175" y="-371" font-family="Helvetica,sans-Serif" font-size="10.00">mavlink_msg_hil_state</text>
<text text-anchor="middle" x="225" y="-360" font-family="Helvetica,sans-Serif" font-size="10.00">_quaternion_get_vx</text>
</a>
</g>
</g>
<!-- Node1&#45;&gt;Node10 -->
<g id="edge9" class="edge"><title>Node1&#45;&gt;Node10</title>
<path fill="none" stroke="midnightblue" d="M116.246,-383.673C129.3,-381.775 143.288,-379.74 156.718,-377.786"/>
<polygon fill="midnightblue" stroke="midnightblue" points="157.463,-381.215 166.855,-376.312 156.456,-374.288 157.463,-381.215"/>
</g>
<!-- Node11 -->
<g id="node11" class="node"><title>Node11</title>
<g id="a_node11"><a xlink:href="$mavlink__msg__hil__state__quaternion_8h.html#af7cbe7616bedc4741d7cb3db05a41632" xlink:title="Get field vy from hil_state_quaternion message. ">
<polygon fill="white" stroke="black" points="167,-304 167,-334 283,-334 283,-304 167,-304"/>
<text text-anchor="start" x="175" y="-322" font-family="Helvetica,sans-Serif" font-size="10.00">mavlink_msg_hil_state</text>
<text text-anchor="middle" x="225" y="-311" font-family="Helvetica,sans-Serif" font-size="10.00">_quaternion_get_vy</text>
</a>
</g>
</g>
<!-- Node1&#45;&gt;Node11 -->
<g id="edge10" class="edge"><title>Node1&#45;&gt;Node11</title>
<path fill="none" stroke="midnightblue" d="M85.7751,-376.89C104.099,-366.872 129.125,-353.816 152,-344 157.092,-341.815 162.445,-339.676 167.836,-337.626"/>
<polygon fill="midnightblue" stroke="midnightblue" points="169.369,-340.792 177.536,-334.043 166.943,-334.225 169.369,-340.792"/>
</g>
<!-- Node12 -->
<g id="node12" class="node"><title>Node12</title>
<g id="a_node12"><a xlink:href="$mavlink__msg__hil__state__quaternion_8h.html#ad90fecf529c78635ee2a6f90ab946f04" xlink:title="Get field vz from hil_state_quaternion message. ">
<polygon fill="white" stroke="black" points="167,-255 167,-285 283,-285 283,-255 167,-255"/>
<text text-anchor="start" x="175" y="-273" font-family="Helvetica,sans-Serif" font-size="10.00">mavlink_msg_hil_state</text>
<text text-anchor="middle" x="225" y="-262" font-family="Helvetica,sans-Serif" font-size="10.00">_quaternion_get_vz</text>
</a>
</g>
</g>
<!-- Node1&#45;&gt;Node12 -->
<g id="edge11" class="edge"><title>Node1&#45;&gt;Node12</title>
<path fill="none" stroke="midnightblue" d="M69.9048,-376.717C85.7379,-355.558 117.045,-317.421 152,-295 155.136,-292.989 158.453,-291.117 161.874,-289.379"/>
<polygon fill="midnightblue" stroke="midnightblue" points="163.521,-292.473 171.116,-285.086 160.572,-286.125 163.521,-292.473"/>
</g>
<!-- Node13 -->
<g id="node13" class="node"><title>Node13</title>
<g id="a_node13"><a xlink:href="$mavlink__msg__hil__state__quaternion_8h.html#adaa0a9958e5f2bce7567ecf2aa483033" xlink:title="Get field ind_airspeed from hil_state_quaternion message. ">
<polygon fill="white" stroke="black" points="152,-206 152,-236 298,-236 298,-206 152,-206"/>
<text text-anchor="start" x="160" y="-224" font-family="Helvetica,sans-Serif" font-size="10.00">mavlink_msg_hil_state</text>
<text text-anchor="middle" x="225" y="-213" font-family="Helvetica,sans-Serif" font-size="10.00">_quaternion_get_ind_airspeed</text>
</a>
</g>
</g>
<!-- Node1&#45;&gt;Node13 -->
<g id="edge12" class="edge"><title>Node1&#45;&gt;Node13</title>
<path fill="none" stroke="midnightblue" d="M64.6742,-376.819C76.4376,-347.358 106.262,-282.155 152,-246 154.287,-244.192 156.714,-242.51 159.239,-240.946"/>
<polygon fill="midnightblue" stroke="midnightblue" points="161.055,-243.942 168.145,-236.07 157.693,-237.802 161.055,-243.942"/>
</g>
<!-- Node14 -->
<g id="node14" class="node"><title>Node14</title>
<g id="a_node14"><a xlink:href="$mavlink__msg__hil__state__quaternion_8h.html#ae8aeb909e656eaf7ba506cdad4f30ff6" xlink:title="Get field true_airspeed from hil_state_quaternion message. ">
<polygon fill="white" stroke="black" points="167,-146.5 167,-187.5 283,-187.5 283,-146.5 167,-146.5"/>
<text text-anchor="start" x="175" y="-175.5" font-family="Helvetica,sans-Serif" font-size="10.00">mavlink_msg_hil_state</text>
<text text-anchor="start" x="175" y="-164.5" font-family="Helvetica,sans-Serif" font-size="10.00">_quaternion_get_true</text>
<text text-anchor="middle" x="225" y="-153.5" font-family="Helvetica,sans-Serif" font-size="10.00">_airspeed</text>
</a>
</g>
</g>
<!-- Node1&#45;&gt;Node14 -->
<g id="edge13" class="edge"><title>Node1&#45;&gt;Node14</title>
<path fill="none" stroke="midnightblue" d="M62.2762,-376.868C70.8052,-340.889 96.9621,-249.341 152,-197 153.932,-195.163 155.992,-193.431 158.151,-191.798"/>
<polygon fill="midnightblue" stroke="midnightblue" points="160.502,-194.438 166.891,-185.987 156.626,-188.609 160.502,-194.438"/>
</g>
<!-- Node15 -->
<g id="node15" class="node"><title>Node15</title>
<g id="a_node15"><a xlink:href="$mavlink__msg__hil__state__quaternion_8h.html#ae3124aa2fb165f1cbf3591ea8a17d7d5" xlink:title="Get field xacc from hil_state_quaternion message. ">
<polygon fill="white" stroke="black" points="167,-98 167,-128 283,-128 283,-98 167,-98"/>
<text text-anchor="start" x="175" y="-116" font-family="Helvetica,sans-Serif" font-size="10.00">mavlink_msg_hil_state</text>
<text text-anchor="middle" x="225" y="-105" font-family="Helvetica,sans-Serif" font-size="10.00">_quaternion_get_xacc</text>
</a>
</g>
</g>
<!-- Node1&#45;&gt;Node15 -->
<g id="edge14" class="edge"><title>Node1&#45;&gt;Node15</title>
<path fill="none" stroke="midnightblue" d="M60.0571,-376.941C63.9229,-333.386 81.0541,-205.989 152,-137 153.901,-135.151 155.948,-133.445 158.107,-131.87"/>
<polygon fill="midnightblue" stroke="midnightblue" points="160.248,-134.661 166.911,-126.424 156.565,-128.708 160.248,-134.661"/>
</g>
<!-- Node16 -->
<g id="node16" class="node"><title>Node16</title>
<g id="a_node16"><a xlink:href="$mavlink__msg__hil__state__quaternion_8h.html#a9d728cf60b73b801e7408b329daff6aa" xlink:title="Get field yacc from hil_state_quaternion message. ">
<polygon fill="white" stroke="black" points="167,-49 167,-79 283,-79 283,-49 167,-49"/>
<text text-anchor="start" x="175" y="-67" font-family="Helvetica,sans-Serif" font-size="10.00">mavlink_msg_hil_state</text>
<text text-anchor="middle" x="225" y="-56" font-family="Helvetica,sans-Serif" font-size="10.00">_quaternion_get_yacc</text>
</a>
</g>
</g>
<!-- Node1&#45;&gt;Node16 -->
<g id="edge15" class="edge"><title>Node1&#45;&gt;Node16</title>
<path fill="none" stroke="midnightblue" d="M59.096,-376.712C60.2398,-327.825 70.4538,-173.569 152,-89 153.848,-87.0831 155.851,-85.313 157.973,-83.6786"/>
<polygon fill="midnightblue" stroke="midnightblue" points="160.193,-86.4095 166.668,-78.0232 156.377,-80.5415 160.193,-86.4095"/>
</g>
<!-- Node17 -->
<g id="node17" class="node"><title>Node17</title>
<g id="a_node17"><a xlink:href="$mavlink__msg__hil__state__quaternion_8h.html#a53d402dcb144954358f57cd50d198531" xlink:title="Get field zacc from hil_state_quaternion message. ">
<polygon fill="white" stroke="black" points="167,-0 167,-30 283,-30 283,-0 167,-0"/>
<text text-anchor="start" x="175" y="-18" font-family="Helvetica,sans-Serif" font-size="10.00">mavlink_msg_hil_state</text>
<text text-anchor="middle" x="225" y="-7" font-family="Helvetica,sans-Serif" font-size="10.00">_quaternion_get_zacc</text>
</a>
</g>
</g>
<!-- Node1&#45;&gt;Node17 -->
<g id="edge16" class="edge"><title>Node1&#45;&gt;Node17</title>
<path fill="none" stroke="midnightblue" d="M58.3258,-376.985C56.769,-323.57 58.7616,-140.598 152,-40 153.85,-38.0045 155.867,-36.1682 158.012,-34.4785"/>
<polygon fill="midnightblue" stroke="midnightblue" points="160.417,-37.0851 166.843,-28.661 156.566,-31.2396 160.417,-37.0851"/>
</g>
</g>
</svg>
