<?xml version="1.0" encoding="UTF-8" standalone="no"?>
<!DOCTYPE svg PUBLIC "-//W3C//DTD SVG 1.1//EN"
 "http://www.w3.org/Graphics/SVG/1.1/DTD/svg11.dtd">
<!-- Generated by graphviz version 2.36.0 (20140111.2315)
 -->
<!-- Title: mavlink_msg_gimbal_control_decode Pages: 1 -->
<svg width="272pt" height="289pt"
 viewBox="0.00 0.00 272.00 289.00" xmlns="http://www.w3.org/2000/svg" xmlns:xlink="http://www.w3.org/1999/xlink">
<g id="graph0" class="graph" transform="scale(1 1) rotate(0) translate(4 285)">
<title>mavlink_msg_gimbal_control_decode</title>
<polygon fill="white" stroke="none" points="-4,4 -4,-285 268,-285 268,4 -4,4"/>
<!-- Node1 -->
<g id="node1" class="node"><title>Node1</title>
<polygon fill="#bfbfbf" stroke="black" points="0,-125 0,-155 108,-155 108,-125 0,-125"/>
<text text-anchor="start" x="8" y="-143" font-family="Helvetica,sans-Serif" font-size="10.00">mavlink_msg_gimbal</text>
<text text-anchor="middle" x="54" y="-132" font-family="Helvetica,sans-Serif" font-size="10.00">_control_decode</text>
</g>
<!-- Node2 -->
<g id="node2" class="node"><title>Node2</title>
<g id="a_node2"><a xlink:href="$mavlink__msg__gimbal__control_8h.html#afa1576d99cda3fe9291ebaf815296cd4" xlink:title="Get field demanded_rate_x from gimbal_control message. ">
<polygon fill="white" stroke="black" points="144,-239.5 144,-280.5 264,-280.5 264,-239.5 144,-239.5"/>
<text text-anchor="start" x="152" y="-268.5" font-family="Helvetica,sans-Serif" font-size="10.00">mavlink_msg_gimbal</text>
<text text-anchor="start" x="152" y="-257.5" font-family="Helvetica,sans-Serif" font-size="10.00">_control_get_demanded</text>
<text text-anchor="middle" x="204" y="-246.5" font-family="Helvetica,sans-Serif" font-size="10.00">_rate_x</text>
</a>
</g>
</g>
<!-- Node1&#45;&gt;Node2 -->
<g id="edge1" class="edge"><title>Node1&#45;&gt;Node2</title>
<path fill="none" stroke="midnightblue" d="M67.6821,-155.261C83.9609,-174.201 113.732,-206.718 144,-229 146.437,-230.794 148.992,-232.545 151.616,-234.244"/>
<polygon fill="midnightblue" stroke="midnightblue" points="149.81,-237.242 160.167,-239.475 153.463,-231.271 149.81,-237.242"/>
</g>
<!-- Node3 -->
<g id="node3" class="node"><title>Node3</title>
<g id="a_node3"><a xlink:href="$mavlink__msg__gimbal__control_8h.html#a97b62b016eeedaeca40b67a5a5611f00" xlink:title="Get field demanded_rate_y from gimbal_control message. ">
<polygon fill="white" stroke="black" points="144,-179.5 144,-220.5 264,-220.5 264,-179.5 144,-179.5"/>
<text text-anchor="start" x="152" y="-208.5" font-family="Helvetica,sans-Serif" font-size="10.00">mavlink_msg_gimbal</text>
<text text-anchor="start" x="152" y="-197.5" font-family="Helvetica,sans-Serif" font-size="10.00">_control_get_demanded</text>
<text text-anchor="middle" x="204" y="-186.5" font-family="Helvetica,sans-Serif" font-size="10.00">_rate_y</text>
</a>
</g>
</g>
<!-- Node1&#45;&gt;Node3 -->
<g id="edge2" class="edge"><title>Node1&#45;&gt;Node3</title>
<path fill="none" stroke="midnightblue" d="M92.3466,-155.141C107.664,-161.35 125.785,-168.697 142.88,-175.627"/>
<polygon fill="midnightblue" stroke="midnightblue" points="141.666,-178.911 152.248,-179.425 144.296,-172.424 141.666,-178.911"/>
</g>
<!-- Node4 -->
<g id="node4" class="node"><title>Node4</title>
<g id="a_node4"><a xlink:href="$mavlink__msg__gimbal__control_8h.html#a57c1d5d237a0c1d5fe5c30dbcb332d38" xlink:title="Get field demanded_rate_z from gimbal_control message. ">
<polygon fill="white" stroke="black" points="144,-119.5 144,-160.5 264,-160.5 264,-119.5 144,-119.5"/>
<text text-anchor="start" x="152" y="-148.5" font-family="Helvetica,sans-Serif" font-size="10.00">mavlink_msg_gimbal</text>
<text text-anchor="start" x="152" y="-137.5" font-family="Helvetica,sans-Serif" font-size="10.00">_control_get_demanded</text>
<text text-anchor="middle" x="204" y="-126.5" font-family="Helvetica,sans-Serif" font-size="10.00">_rate_z</text>
</a>
</g>
</g>
<!-- Node1&#45;&gt;Node4 -->
<g id="edge3" class="edge"><title>Node1&#45;&gt;Node4</title>
<path fill="none" stroke="midnightblue" d="M108.013,-140C116.36,-140 125.094,-140 133.742,-140"/>
<polygon fill="midnightblue" stroke="midnightblue" points="133.825,-143.5 143.825,-140 133.825,-136.5 133.825,-143.5"/>
</g>
<!-- Node5 -->
<g id="node5" class="node"><title>Node5</title>
<g id="a_node5"><a xlink:href="$mavlink__msg__gimbal__control_8h.html#a42874b6a45f8c2392bdc99e808b1ff2e" xlink:title="Send a gimbal_control message. ">
<polygon fill="white" stroke="black" points="150,-59.5 150,-100.5 258,-100.5 258,-59.5 150,-59.5"/>
<text text-anchor="start" x="158" y="-88.5" font-family="Helvetica,sans-Serif" font-size="10.00">mavlink_msg_gimbal</text>
<text text-anchor="start" x="158" y="-77.5" font-family="Helvetica,sans-Serif" font-size="10.00">_control_get_target</text>
<text text-anchor="middle" x="204" y="-66.5" font-family="Helvetica,sans-Serif" font-size="10.00">_system</text>
</a>
</g>
</g>
<!-- Node1&#45;&gt;Node5 -->
<g id="edge4" class="edge"><title>Node1&#45;&gt;Node5</title>
<path fill="none" stroke="midnightblue" d="M92.3466,-124.859C107.664,-118.65 125.785,-111.303 142.88,-104.373"/>
<polygon fill="midnightblue" stroke="midnightblue" points="144.296,-107.576 152.248,-100.575 141.666,-101.089 144.296,-107.576"/>
</g>
<!-- Node6 -->
<g id="node6" class="node"><title>Node6</title>
<g id="a_node6"><a xlink:href="$mavlink__msg__gimbal__control_8h.html#a752e26e69a582e96194bb237c942ec2f" xlink:title="Get field target_component from gimbal_control message. ">
<polygon fill="white" stroke="black" points="150,0.5 150,-40.5 258,-40.5 258,0.5 150,0.5"/>
<text text-anchor="start" x="158" y="-28.5" font-family="Helvetica,sans-Serif" font-size="10.00">mavlink_msg_gimbal</text>
<text text-anchor="start" x="158" y="-17.5" font-family="Helvetica,sans-Serif" font-size="10.00">_control_get_target</text>
<text text-anchor="middle" x="204" y="-6.5" font-family="Helvetica,sans-Serif" font-size="10.00">_component</text>
</a>
</g>
</g>
<!-- Node1&#45;&gt;Node6 -->
<g id="edge5" class="edge"><title>Node1&#45;&gt;Node6</title>
<path fill="none" stroke="midnightblue" d="M67.3179,-124.823C83.4468,-105.638 113.297,-72.4184 144,-50 145.847,-48.6511 147.764,-47.3305 149.729,-46.0421"/>
<polygon fill="midnightblue" stroke="midnightblue" points="151.885,-48.8249 158.577,-40.6105 148.223,-42.8593 151.885,-48.8249"/>
</g>
</g>
</svg>
