<?xml version="1.0" encoding="UTF-8" standalone="no"?>
<!DOCTYPE svg PUBLIC "-//W3C//DTD SVG 1.1//EN"
 "http://www.w3.org/Graphics/SVG/1.1/DTD/svg11.dtd">
<!-- Generated by graphviz version 2.36.0 (20140111.2315)
 -->
<!-- Title: mavlink_msg_scaled_pressure2_encode Pages: 1 -->
<svg width="534pt" height="38pt"
 viewBox="0.00 0.00 534.00 38.00" xmlns="http://www.w3.org/2000/svg" xmlns:xlink="http://www.w3.org/1999/xlink">
<g id="graph0" class="graph" transform="scale(1 1) rotate(0) translate(4 34)">
<title>mavlink_msg_scaled_pressure2_encode</title>
<polygon fill="white" stroke="none" points="-4,4 -4,-34 530,-34 530,4 -4,4"/>
<!-- Node1 -->
<g id="node1" class="node"><title>Node1</title>
<polygon fill="#bfbfbf" stroke="black" points="0,-0 0,-30 108,-30 108,-0 0,-0"/>
<text text-anchor="start" x="8" y="-18" font-family="Helvetica,sans-Serif" font-size="10.00">mavlink_msg_scaled</text>
<text text-anchor="middle" x="54" y="-7" font-family="Helvetica,sans-Serif" font-size="10.00">_pressure2_encode</text>
</g>
<!-- Node2 -->
<g id="node2" class="node"><title>Node2</title>
<g id="a_node2"><a xlink:href="$v1_80_2common_2testsuite_8h.html#a95f9323f5e09c52e8e4f5c0cb72c6fe1" xlink:title="mavlink_test_scaled\l_pressure2">
<polygon fill="white" stroke="black" points="144,-0 144,-30 250,-30 250,-0 144,-0"/>
<text text-anchor="start" x="152" y="-18" font-family="Helvetica,sans-Serif" font-size="10.00">mavlink_test_scaled</text>
<text text-anchor="middle" x="197" y="-7" font-family="Helvetica,sans-Serif" font-size="10.00">_pressure2</text>
</a>
</g>
</g>
<!-- Node1&#45;&gt;Node2 -->
<g id="edge1" class="edge"><title>Node1&#45;&gt;Node2</title>
<path fill="none" stroke="midnightblue" d="M118.447,-15C126.842,-15 135.371,-15 143.553,-15"/>
<polygon fill="midnightblue" stroke="midnightblue" points="118.306,-11.5001 108.306,-15 118.306,-18.5001 118.306,-11.5001"/>
</g>
<!-- Node3 -->
<g id="node3" class="node"><title>Node3</title>
<g id="a_node3"><a xlink:href="$v1_80_2common_2testsuite_8h.html#af349432601ac003d2c80a69c100c70a4" xlink:title="mavlink_test_common">
<polygon fill="white" stroke="black" points="286.5,-5.5 286.5,-24.5 401.5,-24.5 401.5,-5.5 286.5,-5.5"/>
<text text-anchor="middle" x="344" y="-12.5" font-family="Helvetica,sans-Serif" font-size="10.00">mavlink_test_common</text>
</a>
</g>
</g>
<!-- Node2&#45;&gt;Node3 -->
<g id="edge2" class="edge"><title>Node2&#45;&gt;Node3</title>
<path fill="none" stroke="midnightblue" d="M260.354,-15C268.98,-15 277.801,-15 286.316,-15"/>
<polygon fill="midnightblue" stroke="midnightblue" points="260.348,-11.5001 250.348,-15 260.348,-18.5001 260.348,-11.5001"/>
</g>
<!-- Node4 -->
<g id="node4" class="node"><title>Node4</title>
<g id="a_node4"><a xlink:href="$v1_80_2common_2testsuite_8h.html#a4cc77b6c343679298da5d3c2b4e48759" xlink:title="mavlink_test_all">
<polygon fill="white" stroke="black" points="438.5,-5.5 438.5,-24.5 525.5,-24.5 525.5,-5.5 438.5,-5.5"/>
<text text-anchor="middle" x="482" y="-12.5" font-family="Helvetica,sans-Serif" font-size="10.00">mavlink_test_all</text>
</a>
</g>
</g>
<!-- Node3&#45;&gt;Node4 -->
<g id="edge3" class="edge"><title>Node3&#45;&gt;Node4</title>
<path fill="none" stroke="midnightblue" d="M411.996,-15C420.988,-15 430.003,-15 438.412,-15"/>
<polygon fill="midnightblue" stroke="midnightblue" points="411.888,-11.5001 401.888,-15 411.888,-18.5001 411.888,-11.5001"/>
</g>
</g>
</svg>
