<?xml version="1.0" encoding="UTF-8" standalone="no"?>
<!DOCTYPE svg PUBLIC "-//W3C//DTD SVG 1.1//EN"
 "http://www.w3.org/Graphics/SVG/1.1/DTD/svg11.dtd">
<!-- Generated by graphviz version 2.36.0 (20140111.2315)
 -->
<!-- Title: mavlink_msg_set_position_target_global_int_decode Pages: 1 -->
<svg width="312pt" height="860pt"
 viewBox="0.00 0.00 312.00 860.00" xmlns="http://www.w3.org/2000/svg" xmlns:xlink="http://www.w3.org/1999/xlink">
<g id="graph0" class="graph" transform="scale(1 1) rotate(0) translate(4 856)">
<title>mavlink_msg_set_position_target_global_int_decode</title>
<polygon fill="white" stroke="none" points="-4,4 -4,-856 308,-856 308,4 -4,4"/>
<!-- Node1 -->
<g id="node1" class="node"><title>Node1</title>
<polygon fill="#bfbfbf" stroke="black" points="0,-421 0,-451 132,-451 132,-421 0,-421"/>
<text text-anchor="start" x="8" y="-439" font-family="Helvetica,sans-Serif" font-size="10.00">mavlink_msg_set_position</text>
<text text-anchor="middle" x="66" y="-428" font-family="Helvetica,sans-Serif" font-size="10.00">_target_global_int_decode</text>
</g>
<!-- Node2 -->
<g id="node2" class="node"><title>Node2</title>
<g id="a_node2"><a xlink:href="$mavlink__msg__set__position__target__global__int_8h.html#a1a42ab943d7bd1e1aa12c6983da14180" xlink:title="Send a set_position_target_global_int message. ">
<polygon fill="white" stroke="black" points="170,-810.5 170,-851.5 302,-851.5 302,-810.5 170,-810.5"/>
<text text-anchor="start" x="178" y="-839.5" font-family="Helvetica,sans-Serif" font-size="10.00">mavlink_msg_set_position</text>
<text text-anchor="start" x="178" y="-828.5" font-family="Helvetica,sans-Serif" font-size="10.00">_target_global_int_get</text>
<text text-anchor="middle" x="236" y="-817.5" font-family="Helvetica,sans-Serif" font-size="10.00">_time_boot_ms</text>
</a>
</g>
</g>
<!-- Node1&#45;&gt;Node2 -->
<g id="edge1" class="edge"><title>Node1&#45;&gt;Node2</title>
<path fill="none" stroke="midnightblue" d="M66.904,-451.217C67.3613,-505.407 75.879,-691.525 168,-800 169.141,-801.343 170.352,-802.632 171.624,-803.867"/>
<polygon fill="midnightblue" stroke="midnightblue" points="169.55,-806.695 179.484,-810.38 174.016,-801.305 169.55,-806.695"/>
</g>
<!-- Node3 -->
<g id="node3" class="node"><title>Node3</title>
<g id="a_node3"><a xlink:href="$mavlink__msg__set__position__target__global__int_8h.html#a458bd218cd96fda5624fbb9f91e5eb7f" xlink:title="Get field lat_int from set_position_target_global_int message. ">
<polygon fill="white" stroke="black" points="170,-750.5 170,-791.5 302,-791.5 302,-750.5 170,-750.5"/>
<text text-anchor="start" x="178" y="-779.5" font-family="Helvetica,sans-Serif" font-size="10.00">mavlink_msg_set_position</text>
<text text-anchor="start" x="178" y="-768.5" font-family="Helvetica,sans-Serif" font-size="10.00">_target_global_int_get</text>
<text text-anchor="middle" x="236" y="-757.5" font-family="Helvetica,sans-Serif" font-size="10.00">_lat_int</text>
</a>
</g>
</g>
<!-- Node1&#45;&gt;Node3 -->
<g id="edge2" class="edge"><title>Node1&#45;&gt;Node3</title>
<path fill="none" stroke="midnightblue" d="M67.8863,-451.032C71.487,-499.157 88.8975,-651.449 168,-740 169.203,-741.347 170.477,-742.64 171.81,-743.88"/>
<polygon fill="midnightblue" stroke="midnightblue" points="170.013,-746.923 180.013,-750.423 174.378,-741.451 170.013,-746.923"/>
</g>
<!-- Node4 -->
<g id="node4" class="node"><title>Node4</title>
<g id="a_node4"><a xlink:href="$mavlink__msg__set__position__target__global__int_8h.html#a42c952e79963b67eb2bbdea3b3084eb7" xlink:title="Get field lon_int from set_position_target_global_int message. ">
<polygon fill="white" stroke="black" points="170,-690.5 170,-731.5 302,-731.5 302,-690.5 170,-690.5"/>
<text text-anchor="start" x="178" y="-719.5" font-family="Helvetica,sans-Serif" font-size="10.00">mavlink_msg_set_position</text>
<text text-anchor="start" x="178" y="-708.5" font-family="Helvetica,sans-Serif" font-size="10.00">_target_global_int_get</text>
<text text-anchor="middle" x="236" y="-697.5" font-family="Helvetica,sans-Serif" font-size="10.00">_lon_int</text>
</a>
</g>
</g>
<!-- Node1&#45;&gt;Node4 -->
<g id="edge3" class="edge"><title>Node1&#45;&gt;Node4</title>
<path fill="none" stroke="midnightblue" d="M69.2414,-451.064C76.2123,-492.938 101.195,-612.162 168,-681 169.054,-682.086 170.154,-683.136 171.295,-684.151"/>
<polygon fill="midnightblue" stroke="midnightblue" points="169.272,-687.011 179.328,-690.348 173.548,-681.468 169.272,-687.011"/>
</g>
<!-- Node5 -->
<g id="node5" class="node"><title>Node5</title>
<g id="a_node5"><a xlink:href="$mavlink__msg__set__position__target__global__int_8h.html#a8d127c4c9a2fb8d4d1648c2a7f6137e4" xlink:title="Get field alt from set_position_target_global_int message. ">
<polygon fill="white" stroke="black" points="170,-642 170,-672 302,-672 302,-642 170,-642"/>
<text text-anchor="start" x="178" y="-660" font-family="Helvetica,sans-Serif" font-size="10.00">mavlink_msg_set_position</text>
<text text-anchor="middle" x="236" y="-649" font-family="Helvetica,sans-Serif" font-size="10.00">_target_global_int_get_alt</text>
</a>
</g>
</g>
<!-- Node1&#45;&gt;Node5 -->
<g id="edge4" class="edge"><title>Node1&#45;&gt;Node5</title>
<path fill="none" stroke="midnightblue" d="M70.7225,-451.09C80.43,-487.393 109.89,-580.407 168,-632 169.909,-633.695 171.944,-635.279 174.071,-636.759"/>
<polygon fill="midnightblue" stroke="midnightblue" points="172.304,-639.78 182.671,-641.965 175.929,-633.792 172.304,-639.78"/>
</g>
<!-- Node6 -->
<g id="node6" class="node"><title>Node6</title>
<g id="a_node6"><a xlink:href="$mavlink__msg__set__position__target__global__int_8h.html#af8ab9935066302ff5c20730220c142b2" xlink:title="Get field vx from set_position_target_global_int message. ">
<polygon fill="white" stroke="black" points="170,-593 170,-623 302,-623 302,-593 170,-593"/>
<text text-anchor="start" x="178" y="-611" font-family="Helvetica,sans-Serif" font-size="10.00">mavlink_msg_set_position</text>
<text text-anchor="middle" x="236" y="-600" font-family="Helvetica,sans-Serif" font-size="10.00">_target_global_int_get_vx</text>
</a>
</g>
</g>
<!-- Node1&#45;&gt;Node6 -->
<g id="edge5" class="edge"><title>Node1&#45;&gt;Node6</title>
<path fill="none" stroke="midnightblue" d="M73.5717,-451.185C87.0646,-480.673 120.654,-546.029 168,-583 170.293,-584.791 172.729,-586.463 175.26,-588.024"/>
<polygon fill="midnightblue" stroke="midnightblue" points="173.722,-591.172 184.174,-592.91 177.087,-585.034 173.722,-591.172"/>
</g>
<!-- Node7 -->
<g id="node7" class="node"><title>Node7</title>
<g id="a_node7"><a xlink:href="$mavlink__msg__set__position__target__global__int_8h.html#a467c97e17950a8db19239fc05b56da5c" xlink:title="Get field vy from set_position_target_global_int message. ">
<polygon fill="white" stroke="black" points="170,-544 170,-574 302,-574 302,-544 170,-544"/>
<text text-anchor="start" x="178" y="-562" font-family="Helvetica,sans-Serif" font-size="10.00">mavlink_msg_set_position</text>
<text text-anchor="middle" x="236" y="-551" font-family="Helvetica,sans-Serif" font-size="10.00">_target_global_int_get_vy</text>
</a>
</g>
</g>
<!-- Node1&#45;&gt;Node7 -->
<g id="edge6" class="edge"><title>Node1&#45;&gt;Node7</title>
<path fill="none" stroke="midnightblue" d="M79.1773,-451.277C96.7698,-472.46 131.24,-510.762 168,-534 171.122,-535.974 174.423,-537.826 177.82,-539.559"/>
<polygon fill="midnightblue" stroke="midnightblue" points="176.438,-542.777 186.976,-543.868 179.418,-536.443 176.438,-542.777"/>
</g>
<!-- Node8 -->
<g id="node8" class="node"><title>Node8</title>
<g id="a_node8"><a xlink:href="$mavlink__msg__set__position__target__global__int_8h.html#a92fa5582e0751815ad6a10d2a7c2222a" xlink:title="Get field vz from set_position_target_global_int message. ">
<polygon fill="white" stroke="black" points="170,-495 170,-525 302,-525 302,-495 170,-495"/>
<text text-anchor="start" x="178" y="-513" font-family="Helvetica,sans-Serif" font-size="10.00">mavlink_msg_set_position</text>
<text text-anchor="middle" x="236" y="-502" font-family="Helvetica,sans-Serif" font-size="10.00">_target_global_int_get_vz</text>
</a>
</g>
</g>
<!-- Node1&#45;&gt;Node8 -->
<g id="edge7" class="edge"><title>Node1&#45;&gt;Node8</title>
<path fill="none" stroke="midnightblue" d="M96.2706,-451.11C116.254,-461.199 143.453,-474.494 168,-485 172.799,-487.054 177.829,-489.108 182.885,-491.106"/>
<polygon fill="midnightblue" stroke="midnightblue" points="181.996,-494.515 192.585,-494.865 184.526,-487.988 181.996,-494.515"/>
</g>
<!-- Node9 -->
<g id="node9" class="node"><title>Node9</title>
<g id="a_node9"><a xlink:href="$mavlink__msg__set__position__target__global__int_8h.html#abc99b9457453613ea2dece98366e6850" xlink:title="Get field afx from set_position_target_global_int message. ">
<polygon fill="white" stroke="black" points="170,-446 170,-476 302,-476 302,-446 170,-446"/>
<text text-anchor="start" x="178" y="-464" font-family="Helvetica,sans-Serif" font-size="10.00">mavlink_msg_set_position</text>
<text text-anchor="middle" x="236" y="-453" font-family="Helvetica,sans-Serif" font-size="10.00">_target_global_int_get_afx</text>
</a>
</g>
</g>
<!-- Node1&#45;&gt;Node9 -->
<g id="edge8" class="edge"><title>Node1&#45;&gt;Node9</title>
<path fill="none" stroke="midnightblue" d="M132.434,-445.737C141.337,-447.062 150.533,-448.431 159.594,-449.779"/>
<polygon fill="midnightblue" stroke="midnightblue" points="159.338,-453.279 169.744,-451.289 160.368,-446.355 159.338,-453.279"/>
</g>
<!-- Node10 -->
<g id="node10" class="node"><title>Node10</title>
<g id="a_node10"><a xlink:href="$mavlink__msg__set__position__target__global__int_8h.html#aa9ad27ad5bf6f22f0f36da3e12affafe" xlink:title="Get field afy from set_position_target_global_int message. ">
<polygon fill="white" stroke="black" points="170,-397 170,-427 302,-427 302,-397 170,-397"/>
<text text-anchor="start" x="178" y="-415" font-family="Helvetica,sans-Serif" font-size="10.00">mavlink_msg_set_position</text>
<text text-anchor="middle" x="236" y="-404" font-family="Helvetica,sans-Serif" font-size="10.00">_target_global_int_get_afy</text>
</a>
</g>
</g>
<!-- Node1&#45;&gt;Node10 -->
<g id="edge9" class="edge"><title>Node1&#45;&gt;Node10</title>
<path fill="none" stroke="midnightblue" d="M132.434,-426.652C141.337,-425.38 150.533,-424.067 159.594,-422.772"/>
<polygon fill="midnightblue" stroke="midnightblue" points="160.34,-426.201 169.744,-421.322 159.35,-419.272 160.34,-426.201"/>
</g>
<!-- Node11 -->
<g id="node11" class="node"><title>Node11</title>
<g id="a_node11"><a xlink:href="$mavlink__msg__set__position__target__global__int_8h.html#a5bf63ff8bb1c3f055f06281800a718b1" xlink:title="Get field afz from set_position_target_global_int message. ">
<polygon fill="white" stroke="black" points="170,-348 170,-378 302,-378 302,-348 170,-348"/>
<text text-anchor="start" x="178" y="-366" font-family="Helvetica,sans-Serif" font-size="10.00">mavlink_msg_set_position</text>
<text text-anchor="middle" x="236" y="-355" font-family="Helvetica,sans-Serif" font-size="10.00">_target_global_int_get_afz</text>
</a>
</g>
</g>
<!-- Node1&#45;&gt;Node11 -->
<g id="edge10" class="edge"><title>Node1&#45;&gt;Node11</title>
<path fill="none" stroke="midnightblue" d="M97.1852,-420.814C117.096,-411.006 143.864,-398.216 168,-388 173.002,-385.883 178.251,-383.759 183.517,-381.693"/>
<polygon fill="midnightblue" stroke="midnightblue" points="184.893,-384.914 192.964,-378.05 182.374,-378.383 184.893,-384.914"/>
</g>
<!-- Node12 -->
<g id="node12" class="node"><title>Node12</title>
<g id="a_node12"><a xlink:href="$mavlink__msg__set__position__target__global__int_8h.html#ad855c83b0798db9cbe5895cff84c2622" xlink:title="Get field yaw from set_position_target_global_int message. ">
<polygon fill="white" stroke="black" points="168.5,-299 168.5,-329 303.5,-329 303.5,-299 168.5,-299"/>
<text text-anchor="start" x="176.5" y="-317" font-family="Helvetica,sans-Serif" font-size="10.00">mavlink_msg_set_position</text>
<text text-anchor="middle" x="236" y="-306" font-family="Helvetica,sans-Serif" font-size="10.00">_target_global_int_get_yaw</text>
</a>
</g>
</g>
<!-- Node1&#45;&gt;Node12 -->
<g id="edge11" class="edge"><title>Node1&#45;&gt;Node12</title>
<path fill="none" stroke="midnightblue" d="M79.2113,-420.886C96.8443,-399.929 131.362,-362.03 168,-339 171.183,-336.999 174.55,-335.122 178.014,-333.367"/>
<polygon fill="midnightblue" stroke="midnightblue" points="179.768,-336.411 187.347,-329.007 176.805,-330.069 179.768,-336.411"/>
</g>
<!-- Node13 -->
<g id="node13" class="node"><title>Node13</title>
<g id="a_node13"><a xlink:href="$mavlink__msg__set__position__target__global__int_8h.html#ab04c70374e99372b5c64b8858542887c" xlink:title="Get field yaw_rate from set_position_target_global_int message. ">
<polygon fill="white" stroke="black" points="170,-239.5 170,-280.5 302,-280.5 302,-239.5 170,-239.5"/>
<text text-anchor="start" x="178" y="-268.5" font-family="Helvetica,sans-Serif" font-size="10.00">mavlink_msg_set_position</text>
<text text-anchor="start" x="178" y="-257.5" font-family="Helvetica,sans-Serif" font-size="10.00">_target_global_int_get</text>
<text text-anchor="middle" x="236" y="-246.5" font-family="Helvetica,sans-Serif" font-size="10.00">_yaw_rate</text>
</a>
</g>
</g>
<!-- Node1&#45;&gt;Node13 -->
<g id="edge12" class="edge"><title>Node1&#45;&gt;Node13</title>
<path fill="none" stroke="midnightblue" d="M74.0271,-420.733C88.0754,-391.693 122.248,-328.016 168,-290 169.544,-288.717 171.151,-287.479 172.809,-286.284"/>
<polygon fill="midnightblue" stroke="midnightblue" points="174.97,-289.054 181.449,-280.671 171.157,-283.183 174.97,-289.054"/>
</g>
<!-- Node14 -->
<g id="node14" class="node"><title>Node14</title>
<g id="a_node14"><a xlink:href="$mavlink__msg__set__position__target__global__int_8h.html#a3bdda5c92ebeed5cb1499fdb97c22d8b" xlink:title="Get field type_mask from set_position_target_global_int message. ">
<polygon fill="white" stroke="black" points="170,-179.5 170,-220.5 302,-220.5 302,-179.5 170,-179.5"/>
<text text-anchor="start" x="178" y="-208.5" font-family="Helvetica,sans-Serif" font-size="10.00">mavlink_msg_set_position</text>
<text text-anchor="start" x="178" y="-197.5" font-family="Helvetica,sans-Serif" font-size="10.00">_target_global_int_get</text>
<text text-anchor="middle" x="236" y="-186.5" font-family="Helvetica,sans-Serif" font-size="10.00">_type_mask</text>
</a>
</g>
</g>
<!-- Node1&#45;&gt;Node14 -->
<g id="edge13" class="edge"><title>Node1&#45;&gt;Node14</title>
<path fill="none" stroke="midnightblue" d="M70.574,-420.941C80.1191,-383.743 109.551,-286.446 168,-230 169.117,-228.921 170.28,-227.877 171.481,-226.866"/>
<polygon fill="midnightblue" stroke="midnightblue" points="173.913,-229.423 179.898,-220.681 169.767,-223.782 173.913,-229.423"/>
</g>
<!-- Node15 -->
<g id="node15" class="node"><title>Node15</title>
<g id="a_node15"><a xlink:href="$mavlink__msg__set__position__target__global__int_8h.html#a35af3722b651e8d82a9ac4aeda7d6647" xlink:title="Get field target_system from set_position_target_global_int message. ">
<polygon fill="white" stroke="black" points="170,-119.5 170,-160.5 302,-160.5 302,-119.5 170,-119.5"/>
<text text-anchor="start" x="178" y="-148.5" font-family="Helvetica,sans-Serif" font-size="10.00">mavlink_msg_set_position</text>
<text text-anchor="start" x="178" y="-137.5" font-family="Helvetica,sans-Serif" font-size="10.00">_target_global_int_get</text>
<text text-anchor="middle" x="236" y="-126.5" font-family="Helvetica,sans-Serif" font-size="10.00">_target_system</text>
</a>
</g>
</g>
<!-- Node1&#45;&gt;Node15 -->
<g id="edge14" class="edge"><title>Node1&#45;&gt;Node15</title>
<path fill="none" stroke="midnightblue" d="M68.6749,-420.946C74.3458,-376.733 96.6407,-245.631 168,-170 169.039,-168.899 170.125,-167.836 171.253,-166.809"/>
<polygon fill="midnightblue" stroke="midnightblue" points="173.519,-169.48 179.221,-160.55 169.195,-163.975 173.519,-169.48"/>
</g>
<!-- Node16 -->
<g id="node16" class="node"><title>Node16</title>
<g id="a_node16"><a xlink:href="$mavlink__msg__set__position__target__global__int_8h.html#a0d497ab3dda601ec07006fe786cf9492" xlink:title="Get field target_component from set_position_target_global_int message. ">
<polygon fill="white" stroke="black" points="170,-59.5 170,-100.5 302,-100.5 302,-59.5 170,-59.5"/>
<text text-anchor="start" x="178" y="-88.5" font-family="Helvetica,sans-Serif" font-size="10.00">mavlink_msg_set_position</text>
<text text-anchor="start" x="178" y="-77.5" font-family="Helvetica,sans-Serif" font-size="10.00">_target_global_int_get</text>
<text text-anchor="middle" x="236" y="-66.5" font-family="Helvetica,sans-Serif" font-size="10.00">_target_component</text>
</a>
</g>
</g>
<!-- Node1&#45;&gt;Node16 -->
<g id="edge15" class="edge"><title>Node1&#45;&gt;Node16</title>
<path fill="none" stroke="midnightblue" d="M67.4407,-420.929C69.6982,-370.479 83.5114,-205.341 168,-110 168.88,-109.007 169.798,-108.046 170.752,-107.115"/>
<polygon fill="midnightblue" stroke="midnightblue" points="173.199,-109.632 178.661,-100.553 168.73,-104.245 173.199,-109.632"/>
</g>
<!-- Node17 -->
<g id="node17" class="node"><title>Node17</title>
<g id="a_node17"><a xlink:href="$mavlink__msg__set__position__target__global__int_8h.html#abc35ac88d513101f59d6db588cf0b782" xlink:title="Get field coordinate_frame from set_position_target_global_int message. ">
<polygon fill="white" stroke="black" points="170,0.5 170,-40.5 302,-40.5 302,0.5 170,0.5"/>
<text text-anchor="start" x="178" y="-28.5" font-family="Helvetica,sans-Serif" font-size="10.00">mavlink_msg_set_position</text>
<text text-anchor="start" x="178" y="-17.5" font-family="Helvetica,sans-Serif" font-size="10.00">_target_global_int_get</text>
<text text-anchor="middle" x="236" y="-6.5" font-family="Helvetica,sans-Serif" font-size="10.00">_coordinate_frame</text>
</a>
</g>
</g>
<!-- Node1&#45;&gt;Node17 -->
<g id="edge16" class="edge"><title>Node1&#45;&gt;Node17</title>
<path fill="none" stroke="midnightblue" d="M66.5632,-420.626C65.7802,-364.117 70.3874,-165.219 168,-50 168.741,-49.1248 169.514,-48.2741 170.313,-47.4472"/>
<polygon fill="midnightblue" stroke="midnightblue" points="172.911,-49.8269 178.173,-40.631 168.325,-44.5385 172.911,-49.8269"/>
</g>
</g>
</svg>
