<?xml version="1.0" encoding="UTF-8" standalone="no"?>
<!DOCTYPE svg PUBLIC "-//W3C//DTD SVG 1.1//EN"
 "http://www.w3.org/Graphics/SVG/1.1/DTD/svg11.dtd">
<!-- Generated by graphviz version 2.36.0 (20140111.2315)
 -->
<!-- Title: mavlink_msg_boot_pack_chan Pages: 1 -->
<svg width="568pt" height="28pt"
 viewBox="0.00 0.00 568.00 28.00" xmlns="http://www.w3.org/2000/svg" xmlns:xlink="http://www.w3.org/1999/xlink">
<g id="graph0" class="graph" transform="scale(1 1) rotate(0) translate(4 24)">
<title>mavlink_msg_boot_pack_chan</title>
<polygon fill="white" stroke="none" points="-4,4 -4,-24 564,-24 564,4 -4,4"/>
<!-- Node1 -->
<g id="node1" class="node"><title>Node1</title>
<polygon fill="#bfbfbf" stroke="black" points="0.5,-0.5 0.5,-19.5 151.5,-19.5 151.5,-0.5 0.5,-0.5"/>
<text text-anchor="middle" x="76" y="-7.5" font-family="Helvetica,sans-Serif" font-size="10.00">mavlink_msg_boot_pack_chan</text>
</g>
<!-- Node2 -->
<g id="node2" class="node"><title>Node2</title>
<g id="a_node2"><a xlink:href="$v0_89_2common_2testsuite_8h.html#a1ded1118ad441d9a4a2581c12f444ee9" xlink:title="mavlink_test_boot">
<polygon fill="white" stroke="black" points="188,-0.5 188,-19.5 284,-19.5 284,-0.5 188,-0.5"/>
<text text-anchor="middle" x="236" y="-7.5" font-family="Helvetica,sans-Serif" font-size="10.00">mavlink_test_boot</text>
</a>
</g>
</g>
<!-- Node1&#45;&gt;Node2 -->
<g id="edge1" class="edge"><title>Node1&#45;&gt;Node2</title>
<path fill="none" stroke="midnightblue" d="M161.918,-10C170.831,-10 179.643,-10 187.897,-10"/>
<polygon fill="midnightblue" stroke="midnightblue" points="161.836,-6.5001 151.836,-10 161.836,-13.5001 161.836,-6.5001"/>
</g>
<!-- Node3 -->
<g id="node3" class="node"><title>Node3</title>
<g id="a_node3"><a xlink:href="$v0_89_2common_2testsuite_8h.html#af349432601ac003d2c80a69c100c70a4" xlink:title="mavlink_test_common">
<polygon fill="white" stroke="black" points="320.5,-0.5 320.5,-19.5 435.5,-19.5 435.5,-0.5 320.5,-0.5"/>
<text text-anchor="middle" x="378" y="-7.5" font-family="Helvetica,sans-Serif" font-size="10.00">mavlink_test_common</text>
</a>
</g>
</g>
<!-- Node2&#45;&gt;Node3 -->
<g id="edge2" class="edge"><title>Node2&#45;&gt;Node3</title>
<path fill="none" stroke="midnightblue" d="M294.266,-10C302.813,-10 311.622,-10 320.159,-10"/>
<polygon fill="midnightblue" stroke="midnightblue" points="294.007,-6.5001 284.007,-10 294.007,-13.5001 294.007,-6.5001"/>
</g>
<!-- Node4 -->
<g id="node4" class="node"><title>Node4</title>
<g id="a_node4"><a xlink:href="$v0_89_2common_2testsuite_8h.html#a4cc77b6c343679298da5d3c2b4e48759" xlink:title="mavlink_test_all">
<polygon fill="white" stroke="black" points="472.5,-0.5 472.5,-19.5 559.5,-19.5 559.5,-0.5 472.5,-0.5"/>
<text text-anchor="middle" x="516" y="-7.5" font-family="Helvetica,sans-Serif" font-size="10.00">mavlink_test_all</text>
</a>
</g>
</g>
<!-- Node3&#45;&gt;Node4 -->
<g id="edge3" class="edge"><title>Node3&#45;&gt;Node4</title>
<path fill="none" stroke="midnightblue" d="M445.996,-10C454.988,-10 464.003,-10 472.412,-10"/>
<polygon fill="midnightblue" stroke="midnightblue" points="445.888,-6.5001 435.888,-10 445.888,-13.5001 445.888,-6.5001"/>
</g>
</g>
</svg>
