<?xml version="1.0" encoding="UTF-8" standalone="no"?>
<!DOCTYPE svg PUBLIC "-//W3C//DTD SVG 1.1//EN"
 "http://www.w3.org/Graphics/SVG/1.1/DTD/svg11.dtd">
<!-- Generated by graphviz version 2.36.0 (20140111.2315)
 -->
<!-- Title: mavlink_msg_distance_sensor_get_orientation Pages: 1 -->
<svg width="706pt" height="38pt"
 viewBox="0.00 0.00 706.00 38.00" xmlns="http://www.w3.org/2000/svg" xmlns:xlink="http://www.w3.org/1999/xlink">
<g id="graph0" class="graph" transform="scale(1 1) rotate(0) translate(4 34)">
<title>mavlink_msg_distance_sensor_get_orientation</title>
<polygon fill="white" stroke="none" points="-4,4 -4,-34 702,-34 702,4 -4,4"/>
<!-- Node1 -->
<g id="node1" class="node"><title>Node1</title>
<polygon fill="#bfbfbf" stroke="black" points="0,-0 0,-30 120,-30 120,-0 0,-0"/>
<text text-anchor="start" x="8" y="-18" font-family="Helvetica,sans-Serif" font-size="10.00">mavlink_msg_distance</text>
<text text-anchor="middle" x="60" y="-7" font-family="Helvetica,sans-Serif" font-size="10.00">_sensor_get_orientation</text>
</g>
<!-- Node2 -->
<g id="node2" class="node"><title>Node2</title>
<g id="a_node2"><a xlink:href="$mavlink__msg__distance__sensor_8h.html#a77caa9cb0f731a3f9ce539bee9bc165a" xlink:title="Decode a distance_sensor message into a struct. ">
<polygon fill="white" stroke="black" points="156,-0 156,-30 272,-30 272,-0 156,-0"/>
<text text-anchor="start" x="164" y="-18" font-family="Helvetica,sans-Serif" font-size="10.00">mavlink_msg_distance</text>
<text text-anchor="middle" x="214" y="-7" font-family="Helvetica,sans-Serif" font-size="10.00">_sensor_decode</text>
</a>
</g>
</g>
<!-- Node1&#45;&gt;Node2 -->
<g id="edge1" class="edge"><title>Node1&#45;&gt;Node2</title>
<path fill="none" stroke="midnightblue" d="M130.434,-15C138.889,-15 147.454,-15 155.705,-15"/>
<polygon fill="midnightblue" stroke="midnightblue" points="130.202,-11.5001 120.202,-15 130.202,-18.5001 130.202,-11.5001"/>
</g>
<!-- Node3 -->
<g id="node3" class="node"><title>Node3</title>
<g id="a_node3"><a xlink:href="$v1_80_2common_2testsuite_8h.html#aa0fae6bf4294d397d2401e82c171227e" xlink:title="mavlink_test_distance\l_sensor">
<polygon fill="white" stroke="black" points="308,-0 308,-30 422,-30 422,-0 308,-0"/>
<text text-anchor="start" x="316" y="-18" font-family="Helvetica,sans-Serif" font-size="10.00">mavlink_test_distance</text>
<text text-anchor="middle" x="365" y="-7" font-family="Helvetica,sans-Serif" font-size="10.00">_sensor</text>
</a>
</g>
</g>
<!-- Node2&#45;&gt;Node3 -->
<g id="edge2" class="edge"><title>Node2&#45;&gt;Node3</title>
<path fill="none" stroke="midnightblue" d="M282.407,-15C290.865,-15 299.447,-15 307.709,-15"/>
<polygon fill="midnightblue" stroke="midnightblue" points="282.181,-11.5001 272.181,-15 282.181,-18.5001 282.181,-11.5001"/>
</g>
<!-- Node4 -->
<g id="node4" class="node"><title>Node4</title>
<g id="a_node4"><a xlink:href="$v1_80_2common_2testsuite_8h.html#af349432601ac003d2c80a69c100c70a4" xlink:title="mavlink_test_common">
<polygon fill="white" stroke="black" points="458.5,-5.5 458.5,-24.5 573.5,-24.5 573.5,-5.5 458.5,-5.5"/>
<text text-anchor="middle" x="516" y="-12.5" font-family="Helvetica,sans-Serif" font-size="10.00">mavlink_test_common</text>
</a>
</g>
</g>
<!-- Node3&#45;&gt;Node4 -->
<g id="edge3" class="edge"><title>Node3&#45;&gt;Node4</title>
<path fill="none" stroke="midnightblue" d="M432.608,-15C441.115,-15 449.761,-15 458.095,-15"/>
<polygon fill="midnightblue" stroke="midnightblue" points="432.331,-11.5001 422.331,-15 432.33,-18.5001 432.331,-11.5001"/>
</g>
<!-- Node5 -->
<g id="node5" class="node"><title>Node5</title>
<g id="a_node5"><a xlink:href="$v1_80_2common_2testsuite_8h.html#a4cc77b6c343679298da5d3c2b4e48759" xlink:title="mavlink_test_all">
<polygon fill="white" stroke="black" points="610.5,-5.5 610.5,-24.5 697.5,-24.5 697.5,-5.5 610.5,-5.5"/>
<text text-anchor="middle" x="654" y="-12.5" font-family="Helvetica,sans-Serif" font-size="10.00">mavlink_test_all</text>
</a>
</g>
</g>
<!-- Node4&#45;&gt;Node5 -->
<g id="edge4" class="edge"><title>Node4&#45;&gt;Node5</title>
<path fill="none" stroke="midnightblue" d="M583.996,-15C592.988,-15 602.003,-15 610.412,-15"/>
<polygon fill="midnightblue" stroke="midnightblue" points="583.888,-11.5001 573.888,-15 583.888,-18.5001 583.888,-11.5001"/>
</g>
</g>
</svg>
