<?xml version="1.0" encoding="UTF-8" standalone="no"?>
<!DOCTYPE svg PUBLIC "-//W3C//DTD SVG 1.1//EN"
 "http://www.w3.org/Graphics/SVG/1.1/DTD/svg11.dtd">
<!-- Generated by graphviz version 2.36.0 (20140111.2315)
 -->
<!-- Title: mavlink_msg_att_pos_mocap_encode Pages: 1 -->
<svg width="436pt" height="66pt"
 viewBox="0.00 0.00 436.00 66.00" xmlns="http://www.w3.org/2000/svg" xmlns:xlink="http://www.w3.org/1999/xlink">
<g id="graph0" class="graph" transform="scale(1 1) rotate(0) translate(4 62)">
<title>mavlink_msg_att_pos_mocap_encode</title>
<polygon fill="white" stroke="none" points="-4,4 -4,-62 432,-62 432,4 -4,4"/>
<!-- Node1 -->
<g id="node1" class="node"><title>Node1</title>
<polygon fill="#bfbfbf" stroke="black" points="0,-14 0,-44 112,-44 112,-14 0,-14"/>
<text text-anchor="start" x="8" y="-32" font-family="Helvetica,sans-Serif" font-size="10.00">mavlink_msg_att_pos</text>
<text text-anchor="middle" x="56" y="-21" font-family="Helvetica,sans-Serif" font-size="10.00">_mocap_encode</text>
</g>
<!-- Node2 -->
<g id="node2" class="node"><title>Node2</title>
<g id="a_node2"><a xlink:href="$mavlink__msg__att__pos__mocap_8h.html#ac3427d307eda211e54631ccca35338ce" xlink:title="Pack a att_pos_mocap message. ">
<polygon fill="white" stroke="black" points="148,-14 148,-44 260,-44 260,-14 148,-14"/>
<text text-anchor="start" x="156" y="-32" font-family="Helvetica,sans-Serif" font-size="10.00">mavlink_msg_att_pos</text>
<text text-anchor="middle" x="204" y="-21" font-family="Helvetica,sans-Serif" font-size="10.00">_mocap_pack</text>
</a>
</g>
</g>
<!-- Node1&#45;&gt;Node2 -->
<g id="edge1" class="edge"><title>Node1&#45;&gt;Node2</title>
<path fill="none" stroke="midnightblue" d="M112.196,-29C120.463,-29 129.055,-29 137.51,-29"/>
<polygon fill="midnightblue" stroke="midnightblue" points="137.726,-32.5001 147.726,-29 137.726,-25.5001 137.726,-32.5001"/>
</g>
<!-- Node3 -->
<g id="node3" class="node"><title>Node3</title>
<g id="a_node3"><a xlink:href="$v0_89_2protocol_8h.html#a4486c3d5854cac1cb6a0fb1cc5ba570c" xlink:title="mav_array_memcpy">
<polygon fill="white" stroke="black" points="309.5,-38.5 309.5,-57.5 414.5,-57.5 414.5,-38.5 309.5,-38.5"/>
<text text-anchor="middle" x="362" y="-45.5" font-family="Helvetica,sans-Serif" font-size="10.00">mav_array_memcpy</text>
</a>
</g>
</g>
<!-- Node2&#45;&gt;Node3 -->
<g id="edge2" class="edge"><title>Node2&#45;&gt;Node3</title>
<path fill="none" stroke="midnightblue" d="M260.439,-35.7522C273.016,-37.284 286.449,-38.92 299.268,-40.4814"/>
<polygon fill="midnightblue" stroke="midnightblue" points="299.04,-43.9793 309.389,-41.7141 299.886,-37.0307 299.04,-43.9793"/>
</g>
<!-- Node4 -->
<g id="node4" class="node"><title>Node4</title>
<g id="a_node4"><a xlink:href="$v0_89_2mavlink__helpers_8h.html#af3bea083c5ec83f5b6570b2bd4a817d0" xlink:title="Finalize a MAVLink message with MAVLINK_COMM_0 as default channel. ">
<polygon fill="white" stroke="black" points="296.5,-0.5 296.5,-19.5 427.5,-19.5 427.5,-0.5 296.5,-0.5"/>
<text text-anchor="middle" x="362" y="-7.5" font-family="Helvetica,sans-Serif" font-size="10.00">mavlink_finalize_message</text>
</a>
</g>
</g>
<!-- Node2&#45;&gt;Node4 -->
<g id="edge3" class="edge"><title>Node2&#45;&gt;Node4</title>
<path fill="none" stroke="midnightblue" d="M260.439,-22.2478C268.811,-21.2282 277.562,-20.1623 286.259,-19.1031"/>
<polygon fill="midnightblue" stroke="midnightblue" points="286.914,-22.5492 296.417,-17.8658 286.068,-15.6006 286.914,-22.5492"/>
</g>
</g>
</svg>
