<?xml version="1.0" encoding="UTF-8" standalone="no"?>
<!DOCTYPE svg PUBLIC "-//W3C//DTD SVG 1.1//EN"
 "http://www.w3.org/Graphics/SVG/1.1/DTD/svg11.dtd">
<!-- Generated by graphviz version 2.36.0 (20140111.2315)
 -->
<!-- Title: libraries/AP_HAL_AVR/utility/pins_arduino_mega.cpp Pages: 1 -->
<svg width="300pt" height="162pt"
 viewBox="0.00 0.00 300.00 162.00" xmlns="http://www.w3.org/2000/svg" xmlns:xlink="http://www.w3.org/1999/xlink">
<g id="graph0" class="graph" transform="scale(1 1) rotate(0) translate(4 158)">
<title>libraries/AP_HAL_AVR/utility/pins_arduino_mega.cpp</title>
<polygon fill="white" stroke="none" points="-4,4 -4,-158 296,-158 296,4 -4,4"/>
<!-- Node1 -->
<g id="node1" class="node"><title>Node1</title>
<polygon fill="#bfbfbf" stroke="black" points="82,-112.5 82,-153.5 200,-153.5 200,-112.5 82,-112.5"/>
<text text-anchor="start" x="90" y="-141.5" font-family="Helvetica,sans-Serif" font-size="10.00">libraries/AP_HAL_AVR</text>
<text text-anchor="start" x="90" y="-130.5" font-family="Helvetica,sans-Serif" font-size="10.00">/utility/pins_arduino</text>
<text text-anchor="middle" x="141" y="-119.5" font-family="Helvetica,sans-Serif" font-size="10.00">_mega.cpp</text>
</g>
<!-- Node2 -->
<g id="node2" class="node"><title>Node2</title>
<g id="a_node2"><a xlink:href="$AP__HAL__Boards_8h.html" xlink:title="AP_HAL_Boards.h">
<polygon fill="white" stroke="black" points="-0.5,-56.5 -0.5,-75.5 98.5,-75.5 98.5,-56.5 -0.5,-56.5"/>
<text text-anchor="middle" x="49" y="-63.5" font-family="Helvetica,sans-Serif" font-size="10.00">AP_HAL_Boards.h</text>
</a>
</g>
</g>
<!-- Node1&#45;&gt;Node2 -->
<g id="edge1" class="edge"><title>Node1&#45;&gt;Node2</title>
<path fill="none" stroke="midnightblue" d="M113.397,-112.498C99.2916,-102.532 82.4232,-90.6142 69.4896,-81.4764"/>
<polygon fill="midnightblue" stroke="midnightblue" points="71.4335,-78.5643 61.2466,-75.6525 67.3942,-84.2814 71.4335,-78.5643"/>
</g>
<!-- Node3 -->
<g id="node3" class="node"><title>Node3</title>
<polygon fill="white" stroke="#bfbfbf" points="116.5,-56.5 116.5,-75.5 165.5,-75.5 165.5,-56.5 116.5,-56.5"/>
<text text-anchor="middle" x="141" y="-63.5" font-family="Helvetica,sans-Serif" font-size="10.00">avr/io.h</text>
</g>
<!-- Node1&#45;&gt;Node3 -->
<g id="edge2" class="edge"><title>Node1&#45;&gt;Node3</title>
<path fill="none" stroke="midnightblue" d="M141,-112.498C141,-104.065 141,-94.2351 141,-85.874"/>
<polygon fill="midnightblue" stroke="midnightblue" points="144.5,-85.6525 141,-75.6525 137.5,-85.6525 144.5,-85.6525"/>
</g>
<!-- Node4 -->
<g id="node4" class="node"><title>Node4</title>
<g id="a_node4"><a xlink:href="$pins__arduino__mega_8h.html" xlink:title="pins_arduino_mega.h">
<polygon fill="white" stroke="black" points="183.5,-56.5 183.5,-75.5 292.5,-75.5 292.5,-56.5 183.5,-56.5"/>
<text text-anchor="middle" x="238" y="-63.5" font-family="Helvetica,sans-Serif" font-size="10.00">pins_arduino_mega.h</text>
</a>
</g>
</g>
<!-- Node1&#45;&gt;Node4 -->
<g id="edge3" class="edge"><title>Node1&#45;&gt;Node4</title>
<path fill="none" stroke="midnightblue" d="M170.103,-112.498C184.975,-102.532 202.76,-90.6142 216.397,-81.4764"/>
<polygon fill="midnightblue" stroke="midnightblue" points="218.729,-84.1268 225.088,-75.6525 214.832,-78.3117 218.729,-84.1268"/>
</g>
<!-- Node5 -->
<g id="node5" class="node"><title>Node5</title>
<polygon fill="white" stroke="#bfbfbf" points="195,-0.5 195,-19.5 281,-19.5 281,-0.5 195,-0.5"/>
<text text-anchor="middle" x="238" y="-7.5" font-family="Helvetica,sans-Serif" font-size="10.00">avr/pgmspace.h</text>
</g>
<!-- Node4&#45;&gt;Node5 -->
<g id="edge4" class="edge"><title>Node4&#45;&gt;Node5</title>
<path fill="none" stroke="midnightblue" d="M238,-56.083C238,-49.0059 238,-38.8611 238,-29.9865"/>
<polygon fill="midnightblue" stroke="midnightblue" points="241.5,-29.751 238,-19.7511 234.5,-29.7511 241.5,-29.751"/>
</g>
</g>
</svg>
