<?xml version="1.0" encoding="UTF-8" standalone="no"?>
<!DOCTYPE svg PUBLIC "-//W3C//DTD SVG 1.1//EN"
 "http://www.w3.org/Graphics/SVG/1.1/DTD/svg11.dtd">
<!-- Generated by graphviz version 2.36.0 (20140111.2315)
 -->
<!-- Title: Polygon_complete Pages: 1 -->
<svg width="398pt" height="77pt"
 viewBox="0.00 0.00 398.00 77.00" xmlns="http://www.w3.org/2000/svg" xmlns:xlink="http://www.w3.org/1999/xlink">
<g id="graph0" class="graph" transform="scale(1 1) rotate(0) translate(4 73)">
<title>Polygon_complete</title>
<polygon fill="white" stroke="none" points="-4,4 -4,-73 394,-73 394,4 -4,4"/>
<!-- Node1 -->
<g id="node1" class="node"><title>Node1</title>
<polygon fill="#bfbfbf" stroke="black" points="0.5,-22.5 0.5,-41.5 97.5,-41.5 97.5,-22.5 0.5,-22.5"/>
<text text-anchor="middle" x="49" y="-29.5" font-family="Helvetica,sans-Serif" font-size="10.00">Polygon_complete</text>
</g>
<!-- Node2 -->
<g id="node2" class="node"><title>Node2</title>
<g id="a_node2"><a xlink:href="$classAP__Limit__Geofence.html#af512ccd37cd0a072ad04d3f89275f2c6" xlink:title="AP_Limit_Geofence::\lboundary_correct">
<polygon fill="white" stroke="black" points="134,-39 134,-69 244,-69 244,-39 134,-39"/>
<text text-anchor="start" x="142" y="-57" font-family="Helvetica,sans-Serif" font-size="10.00">AP_Limit_Geofence::</text>
<text text-anchor="middle" x="189" y="-46" font-family="Helvetica,sans-Serif" font-size="10.00">boundary_correct</text>
</a>
</g>
</g>
<!-- Node1&#45;&gt;Node2 -->
<g id="edge1" class="edge"><title>Node1&#45;&gt;Node2</title>
<path fill="none" stroke="midnightblue" d="M107.773,-41.2102C116.323,-42.5732 125.108,-43.9737 133.586,-45.3253"/>
<polygon fill="midnightblue" stroke="midnightblue" points="108.305,-37.7508 97.8784,-39.6328 107.203,-44.6636 108.305,-37.7508"/>
</g>
<!-- Node4 -->
<g id="node4" class="node"><title>Node4</title>
<g id="a_node4"><a xlink:href="$polygon_8pde.html#a7dfd9b79bc5a37d7df40207afbc5431f" xlink:title="setup">
<polygon fill="white" stroke="black" points="168.5,-0.5 168.5,-19.5 209.5,-19.5 209.5,-0.5 168.5,-0.5"/>
<text text-anchor="middle" x="189" y="-7.5" font-family="Helvetica,sans-Serif" font-size="10.00">setup</text>
</a>
</g>
</g>
<!-- Node1&#45;&gt;Node4 -->
<g id="edge3" class="edge"><title>Node1&#45;&gt;Node4</title>
<path fill="none" stroke="midnightblue" d="M107.956,-22.7606C129.472,-19.3305 152.46,-15.6658 168.254,-13.1479"/>
<polygon fill="midnightblue" stroke="midnightblue" points="107.203,-19.3364 97.8784,-24.3672 108.305,-26.2492 107.203,-19.3364"/>
</g>
<!-- Node3 -->
<g id="node3" class="node"><title>Node3</title>
<g id="a_node3"><a xlink:href="$classAP__Limit__Geofence.html#afb1a696f2769594a81383413f8931016" xlink:title="AP_Limit_Geofence::\ltriggered">
<polygon fill="white" stroke="black" points="280,-39 280,-69 390,-69 390,-39 280,-39"/>
<text text-anchor="start" x="288" y="-57" font-family="Helvetica,sans-Serif" font-size="10.00">AP_Limit_Geofence::</text>
<text text-anchor="middle" x="335" y="-46" font-family="Helvetica,sans-Serif" font-size="10.00">triggered</text>
</a>
</g>
</g>
<!-- Node2&#45;&gt;Node3 -->
<g id="edge2" class="edge"><title>Node2&#45;&gt;Node3</title>
<path fill="none" stroke="midnightblue" d="M254.27,-54C262.75,-54 271.375,-54 279.667,-54"/>
<polygon fill="midnightblue" stroke="midnightblue" points="254.03,-50.5001 244.03,-54 254.03,-57.5001 254.03,-50.5001"/>
</g>
</g>
</svg>
