<?xml version="1.0" encoding="UTF-8" standalone="no"?>
<!DOCTYPE svg PUBLIC "-//W3C//DTD SVG 1.1//EN"
 "http://www.w3.org/Graphics/SVG/1.1/DTD/svg11.dtd">
<!-- Generated by graphviz version 2.36.0 (20140111.2315)
 -->
<!-- Title: libraries/AP_HAL/utility/print_vprintf.h Pages: 1 -->
<svg width="1369pt" height="488pt"
 viewBox="0.00 0.00 1369.36 488.00" xmlns="http://www.w3.org/2000/svg" xmlns:xlink="http://www.w3.org/1999/xlink">
<g id="graph0" class="graph" transform="scale(1 1) rotate(0) translate(4 484)">
<title>libraries/AP_HAL/utility/print_vprintf.h</title>
<polygon fill="white" stroke="none" points="-4,4 -4,-484 1365.36,-484 1365.36,4 -4,4"/>
<!-- Node1 -->
<g id="node1" class="node"><title>Node1</title>
<polygon fill="#bfbfbf" stroke="black" points="382.461,-449 382.461,-479 500.461,-479 500.461,-449 382.461,-449"/>
<text text-anchor="start" x="390.461" y="-467" font-family="Helvetica,sans-Serif" font-size="10.00">libraries/AP_HAL/utility</text>
<text text-anchor="middle" x="441.461" y="-456" font-family="Helvetica,sans-Serif" font-size="10.00">/print_vprintf.h</text>
</g>
<!-- Node2 -->
<g id="node2" class="node"><title>Node2</title>
<g id="a_node2"><a xlink:href="$AP__HAL_8h.html" xlink:title="AP_HAL.h">
<polygon fill="white" stroke="black" points="722.961,-392.5 722.961,-411.5 785.961,-411.5 785.961,-392.5 722.961,-392.5"/>
<text text-anchor="middle" x="754.461" y="-399.5" font-family="Helvetica,sans-Serif" font-size="10.00">AP_HAL.h</text>
</a>
</g>
</g>
<!-- Node1&#45;&gt;Node2 -->
<g id="edge1" class="edge"><title>Node1&#45;&gt;Node2</title>
<path fill="none" stroke="midnightblue" d="M500.701,-451.644C562.639,-439.771 658.25,-421.443 712.709,-411.003"/>
<polygon fill="midnightblue" stroke="midnightblue" points="713.543,-414.407 722.705,-409.087 712.225,-407.533 713.543,-414.407"/>
</g>
<!-- Node12 -->
<g id="node12" class="node"><title>Node12</title>
<polygon fill="white" stroke="#bfbfbf" points="392.461,-168.5 392.461,-187.5 444.461,-187.5 444.461,-168.5 392.461,-168.5"/>
<text text-anchor="middle" x="418.461" y="-175.5" font-family="Helvetica,sans-Serif" font-size="10.00">stdarg.h</text>
</g>
<!-- Node1&#45;&gt;Node12 -->
<g id="edge66" class="edge"><title>Node1&#45;&gt;Node12</title>
<path fill="none" stroke="midnightblue" d="M440.32,-448.916C436.52,-401.993 424.287,-250.942 419.979,-197.749"/>
<polygon fill="midnightblue" stroke="midnightblue" points="423.461,-197.384 419.165,-187.7 416.484,-197.95 423.461,-197.384"/>
</g>
<!-- Node3 -->
<g id="node3" class="node"><title>Node3</title>
<polygon fill="white" stroke="#bfbfbf" points="339.961,-56.5 339.961,-75.5 388.961,-75.5 388.961,-56.5 339.961,-56.5"/>
<text text-anchor="middle" x="364.461" y="-63.5" font-family="Helvetica,sans-Serif" font-size="10.00">stdint.h</text>
</g>
<!-- Node2&#45;&gt;Node3 -->
<g id="edge2" class="edge"><title>Node2&#45;&gt;Node3</title>
<path fill="none" stroke="midnightblue" d="M722.83,-400.179C647.662,-397.712 460.715,-388.4 408.461,-356 357.546,-324.43 350.88,-301.319 333.461,-244 316.264,-187.415 341.535,-117.575 355.808,-85.1392"/>
<polygon fill="midnightblue" stroke="midnightblue" points="359.173,-86.1962 360.149,-75.6465 352.807,-83.2848 359.173,-86.1962"/>
</g>
<!-- Node4 -->
<g id="node4" class="node"><title>Node4</title>
<polygon fill="white" stroke="#bfbfbf" points="1156.46,-336.5 1156.46,-355.5 1212.46,-355.5 1212.46,-336.5 1156.46,-336.5"/>
<text text-anchor="middle" x="1184.46" y="-343.5" font-family="Helvetica,sans-Serif" font-size="10.00">stdbool.h</text>
</g>
<!-- Node2&#45;&gt;Node4 -->
<g id="edge3" class="edge"><title>Node2&#45;&gt;Node4</title>
<path fill="none" stroke="midnightblue" d="M786.036,-398.37C852.34,-392.62 1010.81,-377.688 1142.46,-356 1143.7,-355.795 1144.96,-355.579 1146.23,-355.352"/>
<polygon fill="midnightblue" stroke="midnightblue" points="1146.9,-358.788 1156.06,-353.47 1145.58,-351.913 1146.9,-358.788"/>
</g>
<!-- Node5 -->
<g id="node5" class="node"><title>Node5</title>
<g id="a_node5"><a xlink:href="$AP__HAL__Namespace_8h.html" xlink:title="AP_HAL_Namespace.h">
<polygon fill="white" stroke="black" points="718.961,-56.5 718.961,-75.5 839.961,-75.5 839.961,-56.5 718.961,-56.5"/>
<text text-anchor="middle" x="779.461" y="-63.5" font-family="Helvetica,sans-Serif" font-size="10.00">AP_HAL_Namespace.h</text>
</a>
</g>
</g>
<!-- Node2&#45;&gt;Node5 -->
<g id="edge4" class="edge"><title>Node2&#45;&gt;Node5</title>
<path fill="none" stroke="midnightblue" d="M786.093,-400.621C901.718,-398.961 1296.98,-390.767 1340.46,-356 1364.07,-337.125 1360.46,-321.225 1360.46,-291 1360.46,-291 1360.46,-291 1360.46,-177 1360.46,-112.8 1293.11,-129.926 1231.46,-112 1100.58,-73.9413 940.393,-66.7611 850.131,-66.1123"/>
<polygon fill="midnightblue" stroke="midnightblue" points="850.029,-62.6119 840.013,-66.065 849.996,-69.6118 850.029,-62.6119"/>
</g>
<!-- Node8 -->
<g id="node8" class="node"><title>Node8</title>
<g id="a_node8"><a xlink:href="$AP__HAL__Boards_8h.html" xlink:title="AP_HAL_Boards.h">
<polygon fill="white" stroke="black" points="19.9605,-112.5 19.9605,-131.5 118.961,-131.5 118.961,-112.5 19.9605,-112.5"/>
<text text-anchor="middle" x="69.4605" y="-119.5" font-family="Helvetica,sans-Serif" font-size="10.00">AP_HAL_Boards.h</text>
</a>
</g>
</g>
<!-- Node2&#45;&gt;Node8 -->
<g id="edge7" class="edge"><title>Node2&#45;&gt;Node8</title>
<path fill="none" stroke="midnightblue" d="M722.789,-401.414C632.102,-402.051 373.465,-399.883 303.461,-356 245.14,-319.442 270.32,-273.47 222.461,-224 184.794,-185.067 129.584,-153.259 96.8069,-136.311"/>
<polygon fill="midnightblue" stroke="midnightblue" points="98.2954,-133.142 87.7945,-131.734 95.1257,-139.383 98.2954,-133.142"/>
</g>
<!-- Node9 -->
<g id="node9" class="node"><title>Node9</title>
<g id="a_node9"><a xlink:href="$AP__HAL__Macros_8h.html" xlink:title="AP_HAL_Macros.h">
<polygon fill="white" stroke="black" points="1230.96,-336.5 1230.96,-355.5 1331.96,-355.5 1331.96,-336.5 1230.96,-336.5"/>
<text text-anchor="middle" x="1281.46" y="-343.5" font-family="Helvetica,sans-Serif" font-size="10.00">AP_HAL_Macros.h</text>
</a>
</g>
</g>
<!-- Node2&#45;&gt;Node9 -->
<g id="edge8" class="edge"><title>Node2&#45;&gt;Node9</title>
<path fill="none" stroke="midnightblue" d="M786.162,-398.491C861.564,-392.404 1057.48,-375.879 1220.46,-356 1220.57,-355.987 1220.67,-355.974 1220.78,-355.961"/>
<polygon fill="midnightblue" stroke="midnightblue" points="1221.42,-359.408 1230.89,-354.661 1220.53,-352.465 1221.42,-359.408"/>
</g>
<!-- Node10 -->
<g id="node10" class="node"><title>Node10</title>
<g id="a_node10"><a xlink:href="$UARTDriver_8h.html" xlink:title="UARTDriver.h">
<polygon fill="white" stroke="black" points="608.961,-280.5 608.961,-299.5 687.961,-299.5 687.961,-280.5 608.961,-280.5"/>
<text text-anchor="middle" x="648.461" y="-287.5" font-family="Helvetica,sans-Serif" font-size="10.00">UARTDriver.h</text>
</a>
</g>
</g>
<!-- Node2&#45;&gt;Node10 -->
<g id="edge9" class="edge"><title>Node2&#45;&gt;Node10</title>
<path fill="none" stroke="midnightblue" d="M743.238,-392.188C732.377,-383.456 715.664,-369.472 702.461,-356 687.298,-340.529 671.662,-321.281 661.143,-307.759"/>
<polygon fill="midnightblue" stroke="midnightblue" points="663.894,-305.595 655.025,-299.798 658.343,-309.86 663.894,-305.595"/>
</g>
<!-- Node11 -->
<g id="node11" class="node"><title>Node11</title>
<g id="a_node11"><a xlink:href="$BetterStream_8h.html" xlink:title="utility/BetterStream.h">
<polygon fill="white" stroke="black" points="514.961,-224.5 514.961,-243.5 623.961,-243.5 623.961,-224.5 514.961,-224.5"/>
<text text-anchor="middle" x="569.461" y="-231.5" font-family="Helvetica,sans-Serif" font-size="10.00">utility/BetterStream.h</text>
</a>
</g>
</g>
<!-- Node2&#45;&gt;Node11 -->
<g id="edge56" class="edge"><title>Node2&#45;&gt;Node11</title>
<path fill="none" stroke="midnightblue" d="M734.161,-392.472C701.69,-377.911 637.831,-345.369 599.461,-300 587.935,-286.372 579.899,-267.579 575.066,-253.704"/>
<polygon fill="midnightblue" stroke="midnightblue" points="578.278,-252.262 571.87,-243.824 571.617,-254.416 578.278,-252.262"/>
</g>
<!-- Node13 -->
<g id="node13" class="node"><title>Node13</title>
<g id="a_node13"><a xlink:href="$Stream_8h.html" xlink:title="Stream.h">
<polygon fill="white" stroke="black" points="588.461,-168.5 588.461,-187.5 644.461,-187.5 644.461,-168.5 588.461,-168.5"/>
<text text-anchor="middle" x="616.461" y="-175.5" font-family="Helvetica,sans-Serif" font-size="10.00">Stream.h</text>
</a>
</g>
</g>
<!-- Node2&#45;&gt;Node13 -->
<g id="edge55" class="edge"><title>Node2&#45;&gt;Node13</title>
<path fill="none" stroke="midnightblue" d="M751.533,-392.185C742.24,-365.067 711.348,-281.255 666.461,-224 657.767,-212.911 646.161,-202.278 636.32,-194.136"/>
<polygon fill="midnightblue" stroke="midnightblue" points="638.237,-191.187 628.243,-187.672 633.863,-196.653 638.237,-191.187"/>
</g>
<!-- Node14 -->
<g id="node14" class="node"><title>Node14</title>
<g id="a_node14"><a xlink:href="$Print_8h.html" xlink:title="Print.h">
<polygon fill="white" stroke="black" points="553.961,-112.5 553.961,-131.5 598.961,-131.5 598.961,-112.5 553.961,-112.5"/>
<text text-anchor="middle" x="576.461" y="-119.5" font-family="Helvetica,sans-Serif" font-size="10.00">Print.h</text>
</a>
</g>
</g>
<!-- Node2&#45;&gt;Node14 -->
<g id="edge54" class="edge"><title>Node2&#45;&gt;Node14</title>
<path fill="none" stroke="midnightblue" d="M722.772,-393.065C665.344,-376.683 546.242,-332.964 505.461,-244 487.235,-204.242 529.51,-160.727 556.378,-138.286"/>
<polygon fill="midnightblue" stroke="midnightblue" points="558.873,-140.771 564.464,-131.772 554.481,-135.32 558.873,-140.771"/>
</g>
<!-- Node18 -->
<g id="node18" class="node"><title>Node18</title>
<g id="a_node18"><a xlink:href="$I2CDriver_8h.html" xlink:title="I2CDriver.h">
<polygon fill="white" stroke="black" points="468.961,-112.5 468.961,-131.5 535.961,-131.5 535.961,-112.5 468.961,-112.5"/>
<text text-anchor="middle" x="502.461" y="-119.5" font-family="Helvetica,sans-Serif" font-size="10.00">I2CDriver.h</text>
</a>
</g>
</g>
<!-- Node2&#45;&gt;Node18 -->
<g id="edge26" class="edge"><title>Node2&#45;&gt;Node18</title>
<path fill="none" stroke="midnightblue" d="M722.91,-396.803C688.296,-391.233 631.89,-379.264 588.461,-356 555.143,-338.153 547.353,-330.075 524.461,-300 507.725,-278.014 503.615,-270.937 497.461,-244 489.334,-208.434 494.521,-165.492 498.707,-141.512"/>
<polygon fill="midnightblue" stroke="midnightblue" points="502.153,-142.126 500.564,-131.651 495.274,-140.83 502.153,-142.126"/>
</g>
<!-- Node19 -->
<g id="node19" class="node"><title>Node19</title>
<g id="a_node19"><a xlink:href="$SPIDriver_8h.html" xlink:title="SPIDriver.h">
<polygon fill="white" stroke="black" points="1222.46,-280.5 1222.46,-299.5 1290.46,-299.5 1290.46,-280.5 1222.46,-280.5"/>
<text text-anchor="middle" x="1256.46" y="-287.5" font-family="Helvetica,sans-Serif" font-size="10.00">SPIDriver.h</text>
</a>
</g>
</g>
<!-- Node2&#45;&gt;Node19 -->
<g id="edge29" class="edge"><title>Node2&#45;&gt;Node19</title>
<path fill="none" stroke="midnightblue" d="M786.127,-400.745C849.167,-399.426 994.214,-392.318 1109.46,-356 1127.66,-350.264 1130.18,-344.095 1147.46,-336 1173.02,-324.027 1202.67,-311.897 1224.59,-303.253"/>
<polygon fill="midnightblue" stroke="midnightblue" points="1226.03,-306.445 1234.07,-299.539 1223.48,-299.927 1226.03,-306.445"/>
</g>
<!-- Node20 -->
<g id="node20" class="node"><title>Node20</title>
<g id="a_node20"><a xlink:href="$AnalogIn_8h.html" xlink:title="AnalogIn.h">
<polygon fill="white" stroke="black" points="858.961,-280.5 858.961,-299.5 921.961,-299.5 921.961,-280.5 858.961,-280.5"/>
<text text-anchor="middle" x="890.461" y="-287.5" font-family="Helvetica,sans-Serif" font-size="10.00">AnalogIn.h</text>
</a>
</g>
</g>
<!-- Node2&#45;&gt;Node20 -->
<g id="edge31" class="edge"><title>Node2&#45;&gt;Node20</title>
<path fill="none" stroke="midnightblue" d="M771.985,-392.492C788.017,-384.289 811.979,-370.945 830.461,-356 848.459,-341.446 866.062,-321.499 877.496,-307.554"/>
<polygon fill="midnightblue" stroke="midnightblue" points="880.232,-309.736 883.767,-299.748 874.775,-305.352 880.232,-309.736"/>
</g>
<!-- Node21 -->
<g id="node21" class="node"><title>Node21</title>
<g id="a_node21"><a xlink:href="$Storage_8h.html" xlink:title="Storage.h">
<polygon fill="white" stroke="black" points="832.961,-224.5 832.961,-243.5 891.961,-243.5 891.961,-224.5 832.961,-224.5"/>
<text text-anchor="middle" x="862.461" y="-231.5" font-family="Helvetica,sans-Serif" font-size="10.00">Storage.h</text>
</a>
</g>
</g>
<!-- Node2&#45;&gt;Node21 -->
<g id="edge33" class="edge"><title>Node2&#45;&gt;Node21</title>
<path fill="none" stroke="midnightblue" d="M760.267,-392.075C777.488,-365.606 828.493,-287.209 851.264,-252.21"/>
<polygon fill="midnightblue" stroke="midnightblue" points="854.366,-253.859 856.886,-243.568 848.499,-250.042 854.366,-253.859"/>
</g>
<!-- Node22 -->
<g id="node22" class="node"><title>Node22</title>
<g id="a_node22"><a xlink:href="$GPIO_8h.html" xlink:title="GPIO.h">
<polygon fill="white" stroke="black" points="743.461,-168.5 743.461,-187.5 793.461,-187.5 793.461,-168.5 743.461,-168.5"/>
<text text-anchor="middle" x="768.461" y="-175.5" font-family="Helvetica,sans-Serif" font-size="10.00">GPIO.h</text>
</a>
</g>
</g>
<!-- Node2&#45;&gt;Node22 -->
<g id="edge36" class="edge"><title>Node2&#45;&gt;Node22</title>
<path fill="none" stroke="midnightblue" d="M755.009,-392.297C757.069,-359.633 764.37,-243.866 767.265,-197.957"/>
<polygon fill="midnightblue" stroke="midnightblue" points="770.764,-198.084 767.9,-187.884 763.778,-197.644 770.764,-198.084"/>
</g>
<!-- Node23 -->
<g id="node23" class="node"><title>Node23</title>
<g id="a_node23"><a xlink:href="$RCInput_8h.html" xlink:title="RCInput.h">
<polygon fill="white" stroke="black" points="1016.46,-280.5 1016.46,-299.5 1078.46,-299.5 1078.46,-280.5 1016.46,-280.5"/>
<text text-anchor="middle" x="1047.46" y="-287.5" font-family="Helvetica,sans-Serif" font-size="10.00">RCInput.h</text>
</a>
</g>
</g>
<!-- Node2&#45;&gt;Node23 -->
<g id="edge39" class="edge"><title>Node2&#45;&gt;Node23</title>
<path fill="none" stroke="midnightblue" d="M786.183,-395.822C822.807,-389.223 884.425,-376.188 934.461,-356 968.435,-342.292 1004.63,-319.931 1026.64,-305.34"/>
<polygon fill="midnightblue" stroke="midnightblue" points="1028.82,-308.095 1035.17,-299.611 1024.91,-302.286 1028.82,-308.095"/>
</g>
<!-- Node24 -->
<g id="node24" class="node"><title>Node24</title>
<g id="a_node24"><a xlink:href="$RCOutput_8h.html" xlink:title="RCOutput.h">
<polygon fill="white" stroke="black" points="1096.96,-280.5 1096.96,-299.5 1165.96,-299.5 1165.96,-280.5 1096.96,-280.5"/>
<text text-anchor="middle" x="1131.46" y="-287.5" font-family="Helvetica,sans-Serif" font-size="10.00">RCOutput.h</text>
</a>
</g>
</g>
<!-- Node2&#45;&gt;Node24 -->
<g id="edge41" class="edge"><title>Node2&#45;&gt;Node24</title>
<path fill="none" stroke="midnightblue" d="M786.242,-396.637C828.566,-390.306 905.421,-376.982 968.461,-356 988.459,-349.344 992.023,-344.151 1011.46,-336 1040.13,-323.976 1073.26,-311.67 1097.44,-302.973"/>
<polygon fill="midnightblue" stroke="midnightblue" points="1098.65,-306.257 1106.88,-299.594 1096.29,-299.666 1098.65,-306.257"/>
</g>
<!-- Node25 -->
<g id="node25" class="node"><title>Node25</title>
<g id="a_node25"><a xlink:href="$Scheduler_8h.html" xlink:title="Scheduler.h">
<polygon fill="white" stroke="black" points="145.461,-224.5 145.461,-243.5 213.461,-243.5 213.461,-224.5 145.461,-224.5"/>
<text text-anchor="middle" x="179.461" y="-231.5" font-family="Helvetica,sans-Serif" font-size="10.00">Scheduler.h</text>
</a>
</g>
</g>
<!-- Node2&#45;&gt;Node25 -->
<g id="edge43" class="edge"><title>Node2&#45;&gt;Node25</title>
<path fill="none" stroke="midnightblue" d="M722.797,-400.214C615.076,-397.28 267.258,-385.579 227.461,-356 194.608,-331.582 184.215,-281.146 180.946,-253.731"/>
<polygon fill="midnightblue" stroke="midnightblue" points="184.405,-253.141 179.936,-243.535 177.439,-253.831 184.405,-253.141"/>
</g>
<!-- Node26 -->
<g id="node26" class="node"><title>Node26</title>
<g id="a_node26"><a xlink:href="$Semaphores_8h.html" xlink:title="Semaphores.h">
<polygon fill="white" stroke="black" points="1020.46,-336.5 1020.46,-355.5 1100.46,-355.5 1100.46,-336.5 1020.46,-336.5"/>
<text text-anchor="middle" x="1060.46" y="-343.5" font-family="Helvetica,sans-Serif" font-size="10.00">Semaphores.h</text>
</a>
</g>
</g>
<!-- Node2&#45;&gt;Node26 -->
<g id="edge48" class="edge"><title>Node2&#45;&gt;Node26</title>
<path fill="none" stroke="midnightblue" d="M786.055,-395.424C839.141,-386.056 946.648,-367.085 1010.2,-355.87"/>
<polygon fill="midnightblue" stroke="midnightblue" points="1011.15,-359.257 1020.39,-354.072 1009.93,-352.363 1011.15,-359.257"/>
</g>
<!-- Node27 -->
<g id="node27" class="node"><title>Node27</title>
<g id="a_node27"><a xlink:href="$Util_8h.html" xlink:title="Util.h">
<polygon fill="white" stroke="black" points="342.461,-224.5 342.461,-243.5 382.461,-243.5 382.461,-224.5 342.461,-224.5"/>
<text text-anchor="middle" x="362.461" y="-231.5" font-family="Helvetica,sans-Serif" font-size="10.00">Util.h</text>
</a>
</g>
</g>
<!-- Node2&#45;&gt;Node27 -->
<g id="edge50" class="edge"><title>Node2&#45;&gt;Node27</title>
<path fill="none" stroke="midnightblue" d="M722.731,-399.974C651.48,-397.132 481.351,-387.183 434.461,-356 397.429,-331.373 376.668,-280.637 367.754,-253.34"/>
<polygon fill="midnightblue" stroke="midnightblue" points="371.02,-252.051 364.733,-243.522 364.329,-254.109 371.02,-252.051"/>
</g>
<!-- Node28 -->
<g id="node28" class="node"><title>Node28</title>
<g id="a_node28"><a xlink:href="$HAL_8h.html" xlink:title="HAL.h">
<polygon fill="white" stroke="black" points="882.461,-336.5 882.461,-355.5 926.461,-355.5 926.461,-336.5 882.461,-336.5"/>
<text text-anchor="middle" x="904.461" y="-343.5" font-family="Helvetica,sans-Serif" font-size="10.00">HAL.h</text>
</a>
</g>
</g>
<!-- Node2&#45;&gt;Node28 -->
<g id="edge57" class="edge"><title>Node2&#45;&gt;Node28</title>
<path fill="none" stroke="midnightblue" d="M778.228,-392.444C803.797,-383.239 844.581,-368.556 872.842,-358.383"/>
<polygon fill="midnightblue" stroke="midnightblue" points="874.047,-361.669 882.271,-354.988 871.676,-355.082 874.047,-361.669"/>
</g>
<!-- Node6 -->
<g id="node6" class="node"><title>Node6</title>
<polygon fill="white" stroke="#bfbfbf" points="522.961,-0.5 522.961,-19.5 571.961,-19.5 571.961,-0.5 522.961,-0.5"/>
<text text-anchor="middle" x="547.461" y="-7.5" font-family="Helvetica,sans-Serif" font-size="10.00">string.h</text>
</g>
<!-- Node5&#45;&gt;Node6 -->
<g id="edge5" class="edge"><title>Node5&#45;&gt;Node6</title>
<path fill="none" stroke="midnightblue" d="M742.699,-56.4435C698.579,-46.1741 625.162,-29.0858 582.036,-19.0478"/>
<polygon fill="midnightblue" stroke="midnightblue" points="582.812,-15.6349 572.279,-16.7767 581.225,-22.4527 582.812,-15.6349"/>
</g>
<!-- Node7 -->
<g id="node7" class="node"><title>Node7</title>
<g id="a_node7"><a xlink:href="$FastDelegate_8h.html" xlink:title="utility/FastDelegate.h">
<polygon fill="white" stroke="black" points="724.461,-0.5 724.461,-19.5 834.461,-19.5 834.461,-0.5 724.461,-0.5"/>
<text text-anchor="middle" x="779.461" y="-7.5" font-family="Helvetica,sans-Serif" font-size="10.00">utility/FastDelegate.h</text>
</a>
</g>
</g>
<!-- Node5&#45;&gt;Node7 -->
<g id="edge6" class="edge"><title>Node5&#45;&gt;Node7</title>
<path fill="none" stroke="midnightblue" d="M779.461,-56.083C779.461,-49.0059 779.461,-38.8611 779.461,-29.9865"/>
<polygon fill="midnightblue" stroke="midnightblue" points="782.961,-29.751 779.461,-19.7511 775.961,-29.7511 782.961,-29.751"/>
</g>
<!-- Node10&#45;&gt;Node3 -->
<g id="edge10" class="edge"><title>Node10&#45;&gt;Node3</title>
<path fill="none" stroke="midnightblue" d="M648.72,-280.284C648.653,-266.626 646.553,-240.083 632.461,-224 595.502,-181.819 438.985,-169.694 397.461,-132 383.721,-119.528 374.894,-100.019 369.86,-85.6265"/>
<polygon fill="midnightblue" stroke="midnightblue" points="373.105,-84.2817 366.732,-75.8185 366.436,-86.4092 373.105,-84.2817"/>
</g>
<!-- Node10&#45;&gt;Node5 -->
<g id="edge11" class="edge"><title>Node10&#45;&gt;Node5</title>
<path fill="none" stroke="midnightblue" d="M653.596,-280.297C673.075,-247.286 742.636,-129.404 769.121,-84.522"/>
<polygon fill="midnightblue" stroke="midnightblue" points="772.151,-86.2749 774.218,-75.8837 766.122,-82.7174 772.151,-86.2749"/>
</g>
<!-- Node10&#45;&gt;Node11 -->
<g id="edge12" class="edge"><title>Node10&#45;&gt;Node11</title>
<path fill="none" stroke="midnightblue" d="M635.768,-280.324C623.559,-271.979 604.882,-259.212 590.458,-249.352"/>
<polygon fill="midnightblue" stroke="midnightblue" points="592.352,-246.408 582.122,-243.655 588.402,-252.187 592.352,-246.408"/>
</g>
<!-- Node11&#45;&gt;Node5 -->
<g id="edge14" class="edge"><title>Node11&#45;&gt;Node5</title>
<path fill="none" stroke="midnightblue" d="M588.879,-224.483C606.344,-216.368 632.28,-203.164 652.461,-188 690.399,-159.492 692.825,-144.441 727.461,-112 738.353,-101.798 751.006,-90.8303 761.103,-82.2767"/>
<polygon fill="midnightblue" stroke="midnightblue" points="763.488,-84.8441 768.889,-75.7293 758.983,-79.4866 763.488,-84.8441"/>
</g>
<!-- Node11&#45;&gt;Node12 -->
<g id="edge13" class="edge"><title>Node11&#45;&gt;Node12</title>
<path fill="none" stroke="midnightblue" d="M545.534,-224.444C520.242,-215.399 480.158,-201.064 451.781,-190.916"/>
<polygon fill="midnightblue" stroke="midnightblue" points="452.87,-187.588 442.275,-187.516 450.512,-194.179 452.87,-187.588"/>
</g>
<!-- Node11&#45;&gt;Node13 -->
<g id="edge15" class="edge"><title>Node11&#45;&gt;Node13</title>
<path fill="none" stroke="midnightblue" d="M577.222,-224.083C583.997,-216.298 594.004,-204.801 602.216,-195.367"/>
<polygon fill="midnightblue" stroke="midnightblue" points="604.919,-197.592 608.844,-187.751 599.638,-192.996 604.919,-197.592"/>
</g>
<!-- Node16 -->
<g id="node16" class="node"><title>Node16</title>
<g id="a_node16"><a xlink:href="$AP__Progmem_8h.html" xlink:title="AP_Progmem.h">
<polygon fill="white" stroke="black" points="212.461,-168.5 212.461,-187.5 298.461,-187.5 298.461,-168.5 212.461,-168.5"/>
<text text-anchor="middle" x="255.461" y="-175.5" font-family="Helvetica,sans-Serif" font-size="10.00">AP_Progmem.h</text>
</a>
</g>
</g>
<!-- Node11&#45;&gt;Node16 -->
<g id="edge21" class="edge"><title>Node11&#45;&gt;Node16</title>
<path fill="none" stroke="midnightblue" d="M519.706,-224.444C462.164,-214.548 367.805,-198.32 308.788,-188.171"/>
<polygon fill="midnightblue" stroke="midnightblue" points="309.363,-184.719 298.915,-186.473 308.177,-191.617 309.363,-184.719"/>
</g>
<!-- Node13&#45;&gt;Node5 -->
<g id="edge16" class="edge"><title>Node13&#45;&gt;Node5</title>
<path fill="none" stroke="midnightblue" d="M624.824,-168.189C637.783,-154.869 663.893,-129.326 689.461,-112 708.252,-99.2662 731.153,-87.8658 749.152,-79.7258"/>
<polygon fill="midnightblue" stroke="midnightblue" points="750.86,-82.7974 758.59,-75.5512 748.028,-76.3957 750.86,-82.7974"/>
</g>
<!-- Node13&#45;&gt;Node14 -->
<g id="edge17" class="edge"><title>Node13&#45;&gt;Node14</title>
<path fill="none" stroke="midnightblue" d="M609.855,-168.083C604.205,-160.455 595.916,-149.264 589.009,-139.941"/>
<polygon fill="midnightblue" stroke="midnightblue" points="591.708,-137.703 582.943,-131.751 586.083,-141.87 591.708,-137.703"/>
</g>
<!-- Node14&#45;&gt;Node5 -->
<g id="edge18" class="edge"><title>Node14&#45;&gt;Node5</title>
<path fill="none" stroke="midnightblue" d="M598.961,-115.015C632.314,-106.142 695.451,-89.3472 737.5,-78.1618"/>
<polygon fill="midnightblue" stroke="midnightblue" points="738.416,-81.5399 747.181,-75.5868 736.617,-74.7752 738.416,-81.5399"/>
</g>
<!-- Node14&#45;&gt;Node6 -->
<g id="edge20" class="edge"><title>Node14&#45;&gt;Node6</title>
<path fill="none" stroke="midnightblue" d="M574.185,-112.368C569.484,-94.5366 558.611,-53.2953 552.278,-29.2717"/>
<polygon fill="midnightblue" stroke="midnightblue" points="555.659,-28.3688 549.726,-19.5914 548.89,-30.1533 555.659,-28.3688"/>
</g>
<!-- Node15 -->
<g id="node15" class="node"><title>Node15</title>
<polygon fill="white" stroke="#bfbfbf" points="575.961,-56.5 575.961,-75.5 634.961,-75.5 634.961,-56.5 575.961,-56.5"/>
<text text-anchor="middle" x="605.461" y="-63.5" font-family="Helvetica,sans-Serif" font-size="10.00">inttypes.h</text>
</g>
<!-- Node14&#45;&gt;Node15 -->
<g id="edge19" class="edge"><title>Node14&#45;&gt;Node15</title>
<path fill="none" stroke="midnightblue" d="M581.249,-112.083C585.219,-104.691 590.986,-93.9533 595.895,-84.8111"/>
<polygon fill="midnightblue" stroke="midnightblue" points="599.113,-86.217 600.761,-75.7511 592.946,-82.9051 599.113,-86.217"/>
</g>
<!-- Node16&#45;&gt;Node8 -->
<g id="edge22" class="edge"><title>Node16&#45;&gt;Node8</title>
<path fill="none" stroke="midnightblue" d="M225.988,-168.444C194.289,-159.241 143.728,-144.562 108.686,-134.388"/>
<polygon fill="midnightblue" stroke="midnightblue" points="109.374,-130.943 98.7949,-131.516 107.422,-137.666 109.374,-130.943"/>
</g>
<!-- Node17 -->
<g id="node17" class="node"><title>Node17</title>
<g id="a_node17"><a xlink:href="$AP__Progmem__Identity_8h.html" xlink:title="AP_Progmem_Identity.h">
<polygon fill="white" stroke="black" points="136.961,-112.5 136.961,-131.5 259.961,-131.5 259.961,-112.5 136.961,-112.5"/>
<text text-anchor="middle" x="198.461" y="-119.5" font-family="Helvetica,sans-Serif" font-size="10.00">AP_Progmem_Identity.h</text>
</a>
</g>
</g>
<!-- Node16&#45;&gt;Node17 -->
<g id="edge23" class="edge"><title>Node16&#45;&gt;Node17</title>
<path fill="none" stroke="midnightblue" d="M246.302,-168.324C237.959,-160.42 225.428,-148.548 215.284,-138.938"/>
<polygon fill="midnightblue" stroke="midnightblue" points="217.452,-136.171 207.785,-131.834 212.638,-141.252 217.452,-136.171"/>
</g>
<!-- Node17&#45;&gt;Node3 -->
<g id="edge25" class="edge"><title>Node17&#45;&gt;Node3</title>
<path fill="none" stroke="midnightblue" d="M224.764,-112.444C253.306,-103.159 298.984,-88.2996 330.286,-78.117"/>
<polygon fill="midnightblue" stroke="midnightblue" points="331.477,-81.4102 339.904,-74.9883 329.312,-74.7535 331.477,-81.4102"/>
</g>
<!-- Node17&#45;&gt;Node6 -->
<g id="edge24" class="edge"><title>Node17&#45;&gt;Node6</title>
<path fill="none" stroke="midnightblue" d="M212.976,-112.318C236.736,-98.4646 285.769,-71.359 330.461,-56 392.984,-34.5128 469.34,-21.5967 512.79,-15.4264"/>
<polygon fill="midnightblue" stroke="midnightblue" points="513.414,-18.8735 522.84,-14.0366 512.455,-11.9394 513.414,-18.8735"/>
</g>
<!-- Node18&#45;&gt;Node3 -->
<g id="edge27" class="edge"><title>Node18&#45;&gt;Node3</title>
<path fill="none" stroke="midnightblue" d="M480.594,-112.444C457.681,-103.478 421.485,-89.314 395.594,-79.1827"/>
<polygon fill="midnightblue" stroke="midnightblue" points="396.813,-75.9011 386.225,-75.5164 394.262,-82.4198 396.813,-75.9011"/>
</g>
<!-- Node18&#45;&gt;Node5 -->
<g id="edge28" class="edge"><title>Node18&#45;&gt;Node5</title>
<path fill="none" stroke="midnightblue" d="M536.373,-113.666C539.108,-113.095 541.83,-112.534 544.461,-112 605.334,-99.651 675.27,-86.3754 722.914,-77.4688"/>
<polygon fill="midnightblue" stroke="midnightblue" points="723.841,-80.8563 733.029,-75.5809 722.557,-73.9751 723.841,-80.8563"/>
</g>
<!-- Node19&#45;&gt;Node5 -->
<g id="edge30" class="edge"><title>Node19&#45;&gt;Node5</title>
<path fill="none" stroke="midnightblue" d="M1257.17,-280.249C1259.01,-251.058 1260.58,-156.373 1208.46,-112 1181.79,-89.2932 964.943,-75.7401 850.157,-70.0897"/>
<polygon fill="midnightblue" stroke="midnightblue" points="850.209,-66.5882 840.051,-69.5997 849.87,-73.58 850.209,-66.5882"/>
</g>
<!-- Node20&#45;&gt;Node5 -->
<g id="edge32" class="edge"><title>Node20&#45;&gt;Node5</title>
<path fill="none" stroke="midnightblue" d="M894.161,-280.414C899.065,-267.81 906.436,-243.664 900.461,-224 881.973,-163.166 827.144,-108.363 798.06,-82.574"/>
<polygon fill="midnightblue" stroke="midnightblue" points="800.107,-79.7162 790.26,-75.807 795.52,-85.0038 800.107,-79.7162"/>
</g>
<!-- Node21&#45;&gt;Node3 -->
<g id="edge34" class="edge"><title>Node21&#45;&gt;Node3</title>
<path fill="none" stroke="midnightblue" d="M857.472,-224.418C848.529,-209.933 828.267,-180.946 802.461,-168 665.452,-99.2684 603.327,-184.893 459.461,-132 451.281,-128.993 410.142,-99.9055 384.756,-81.6752"/>
<polygon fill="midnightblue" stroke="midnightblue" points="386.674,-78.7435 376.514,-75.7403 382.584,-84.424 386.674,-78.7435"/>
</g>
<!-- Node21&#45;&gt;Node5 -->
<g id="edge35" class="edge"><title>Node21&#45;&gt;Node5</title>
<path fill="none" stroke="midnightblue" d="M859.264,-224.452C854.489,-211.895 845.027,-187.806 835.461,-168 820.988,-138.038 801.745,-104.476 789.999,-84.5741"/>
<polygon fill="midnightblue" stroke="midnightblue" points="792.865,-82.5468 784.747,-75.7398 786.848,-86.1241 792.865,-82.5468"/>
</g>
<!-- Node22&#45;&gt;Node3 -->
<g id="edge37" class="edge"><title>Node22&#45;&gt;Node3</title>
<path fill="none" stroke="midnightblue" d="M743.348,-174.668C669.203,-167.65 454.66,-146.322 426.461,-132 404.813,-121.006 386.565,-99.3436 375.587,-84.0552"/>
<polygon fill="midnightblue" stroke="midnightblue" points="378.27,-81.7783 369.727,-75.512 372.498,-85.7381 378.27,-81.7783"/>
</g>
<!-- Node22&#45;&gt;Node5 -->
<g id="edge38" class="edge"><title>Node22&#45;&gt;Node5</title>
<path fill="none" stroke="midnightblue" d="M769.324,-168.368C771.099,-150.617 775.194,-109.666 777.601,-85.5974"/>
<polygon fill="midnightblue" stroke="midnightblue" points="781.089,-85.8901 778.601,-75.5914 774.124,-85.1935 781.089,-85.8901"/>
</g>
<!-- Node23&#45;&gt;Node5 -->
<g id="edge40" class="edge"><title>Node23&#45;&gt;Node5</title>
<path fill="none" stroke="midnightblue" d="M1048.17,-280.45C1050.02,-251.895 1051.85,-158.987 1002.46,-112 980.831,-91.423 906.984,-79.4561 850.132,-73.106"/>
<polygon fill="midnightblue" stroke="midnightblue" points="850.409,-69.6155 840.091,-72.0222 849.657,-76.5751 850.409,-69.6155"/>
</g>
<!-- Node24&#45;&gt;Node5 -->
<g id="edge42" class="edge"><title>Node24&#45;&gt;Node5</title>
<path fill="none" stroke="midnightblue" d="M1128.99,-280.21C1120.28,-250.896 1087.99,-155.868 1024.46,-112 996.777,-92.883 912.245,-80.3812 850.192,-73.5151"/>
<polygon fill="midnightblue" stroke="midnightblue" points="850.369,-70.014 840.051,-72.4206 849.618,-76.9735 850.369,-70.014"/>
</g>
<!-- Node25&#45;&gt;Node3 -->
<g id="edge46" class="edge"><title>Node25&#45;&gt;Node3</title>
<path fill="none" stroke="midnightblue" d="M146.381,-224.389C85.0994,-206.932 -35.8145,-164.53 10.4605,-112 31.3731,-88.2607 244.288,-73.7555 329.492,-68.8622"/>
<polygon fill="midnightblue" stroke="midnightblue" points="329.911,-72.3442 339.699,-68.2871 329.518,-65.3553 329.911,-72.3442"/>
</g>
<!-- Node25&#45;&gt;Node5 -->
<g id="edge44" class="edge"><title>Node25&#45;&gt;Node5</title>
<path fill="none" stroke="midnightblue" d="M180.077,-224.373C181.561,-210.347 186.584,-182.69 203.461,-168 241.25,-135.107 563.203,-92.8925 708.648,-75.2862"/>
<polygon fill="midnightblue" stroke="midnightblue" points="709.299,-78.7331 718.808,-74.0616 708.461,-71.7834 709.299,-78.7331"/>
</g>
<!-- Node25&#45;&gt;Node8 -->
<g id="edge45" class="edge"><title>Node25&#45;&gt;Node8</title>
<path fill="none" stroke="midnightblue" d="M170.354,-224.472C160.814,-215.494 145.441,-200.901 132.461,-188 115.845,-171.486 97.2197,-152.166 84.558,-138.906"/>
<polygon fill="midnightblue" stroke="midnightblue" points="86.9474,-136.34 77.5163,-131.512 81.8785,-141.167 86.9474,-136.34"/>
</g>
<!-- Node25&#45;&gt;Node16 -->
<g id="edge47" class="edge"><title>Node25&#45;&gt;Node16</title>
<path fill="none" stroke="midnightblue" d="M191.671,-224.324C203.236,-216.107 220.836,-203.602 234.621,-193.807"/>
<polygon fill="midnightblue" stroke="midnightblue" points="236.903,-196.479 243.028,-187.834 232.849,-190.773 236.903,-196.479"/>
</g>
<!-- Node26&#45;&gt;Node5 -->
<g id="edge49" class="edge"><title>Node26&#45;&gt;Node5</title>
<path fill="none" stroke="midnightblue" d="M1090.27,-336.454C1119.95,-327.401 1162.72,-312.689 1174.46,-300 1194.99,-277.816 1194.46,-265.225 1194.46,-235 1194.46,-235 1194.46,-235 1194.46,-177 1194.46,-106.657 968.862,-80.2443 850.332,-71.2218"/>
<polygon fill="midnightblue" stroke="midnightblue" points="850.48,-67.7233 840.25,-70.4766 849.964,-74.7042 850.48,-67.7233"/>
</g>
<!-- Node27&#45;&gt;Node5 -->
<g id="edge52" class="edge"><title>Node27&#45;&gt;Node5</title>
<path fill="none" stroke="midnightblue" d="M362.556,-224.299C363.218,-210.165 366.716,-182.358 383.461,-168 460.005,-102.363 510.025,-157.955 607.461,-132 607.907,-131.881 697.683,-97.9318 747.337,-79.151"/>
<polygon fill="midnightblue" stroke="midnightblue" points="748.58,-82.4231 756.695,-75.6116 746.103,-75.8758 748.58,-82.4231"/>
</g>
<!-- Node27&#45;&gt;Node12 -->
<g id="edge51" class="edge"><title>Node27&#45;&gt;Node12</title>
<path fill="none" stroke="midnightblue" d="M371.458,-224.324C379.655,-216.42 391.966,-204.548 401.933,-194.938"/>
<polygon fill="midnightblue" stroke="midnightblue" points="404.53,-197.295 409.299,-187.834 399.671,-192.256 404.53,-197.295"/>
</g>
<!-- Node27&#45;&gt;Node16 -->
<g id="edge53" class="edge"><title>Node27&#45;&gt;Node16</title>
<path fill="none" stroke="midnightblue" d="M345.269,-224.324C328.11,-215.664 301.515,-202.242 281.713,-192.249"/>
<polygon fill="midnightblue" stroke="midnightblue" points="283.114,-189.035 272.609,-187.655 279.96,-195.285 283.114,-189.035"/>
</g>
<!-- Node28&#45;&gt;Node5 -->
<g id="edge58" class="edge"><title>Node28&#45;&gt;Node5</title>
<path fill="none" stroke="midnightblue" d="M917.586,-336.463C941.211,-319.943 988.461,-281.135 988.461,-235 988.461,-235 988.461,-235 988.461,-177 988.461,-113.009 910.789,-86.1585 850.146,-74.9466"/>
<polygon fill="midnightblue" stroke="midnightblue" points="850.645,-71.4808 840.193,-73.2157 849.445,-78.3773 850.645,-71.4808"/>
</g>
<!-- Node28&#45;&gt;Node10 -->
<g id="edge59" class="edge"><title>Node28&#45;&gt;Node10</title>
<path fill="none" stroke="midnightblue" d="M882.19,-340.302C841.421,-331.703 753.88,-313.237 698.266,-301.506"/>
<polygon fill="midnightblue" stroke="midnightblue" points="698.779,-298.037 688.272,-299.398 697.334,-304.886 698.779,-298.037"/>
</g>
<!-- Node28&#45;&gt;Node19 -->
<g id="edge60" class="edge"><title>Node28&#45;&gt;Node19</title>
<path fill="none" stroke="midnightblue" d="M926.48,-341.622C983.333,-332.9 1135.9,-309.495 1212.01,-297.819"/>
<polygon fill="midnightblue" stroke="midnightblue" points="1212.87,-301.228 1222.23,-296.252 1211.81,-294.309 1212.87,-301.228"/>
</g>
<!-- Node28&#45;&gt;Node20 -->
<g id="edge61" class="edge"><title>Node28&#45;&gt;Node20</title>
<path fill="none" stroke="midnightblue" d="M902.149,-336.083C900.293,-328.927 897.625,-318.635 895.306,-309.691"/>
<polygon fill="midnightblue" stroke="midnightblue" points="898.627,-308.553 892.729,-299.751 891.851,-310.309 898.627,-308.553"/>
</g>
<!-- Node28&#45;&gt;Node21 -->
<g id="edge62" class="edge"><title>Node28&#45;&gt;Node21</title>
<path fill="none" stroke="midnightblue" d="M912.713,-336.311C923.755,-323.577 940.816,-299.271 930.461,-280 922.838,-265.815 908.564,-255.352 895.054,-248.103"/>
<polygon fill="midnightblue" stroke="midnightblue" points="896.431,-244.879 885.915,-243.592 893.333,-251.156 896.431,-244.879"/>
</g>
<!-- Node28&#45;&gt;Node22 -->
<g id="edge63" class="edge"><title>Node28&#45;&gt;Node22</title>
<path fill="none" stroke="midnightblue" d="M891.764,-336.286C879.995,-327.839 862.402,-314.245 849.461,-300 819.132,-266.617 791.734,-220.992 777.913,-196.405"/>
<polygon fill="midnightblue" stroke="midnightblue" points="780.905,-194.583 773.001,-187.527 774.78,-197.972 780.905,-194.583"/>
</g>
<!-- Node28&#45;&gt;Node23 -->
<g id="edge64" class="edge"><title>Node28&#45;&gt;Node23</title>
<path fill="none" stroke="midnightblue" d="M926.491,-336.681C950.215,-327.722 988.191,-313.382 1015.26,-303.159"/>
<polygon fill="midnightblue" stroke="midnightblue" points="1016.58,-306.404 1024.7,-299.597 1014.1,-299.855 1016.58,-306.404"/>
</g>
<!-- Node28&#45;&gt;Node24 -->
<g id="edge65" class="edge"><title>Node28&#45;&gt;Node24</title>
<path fill="none" stroke="midnightblue" d="M926.64,-339.724C963.614,-330.928 1038.54,-313.104 1086.8,-301.625"/>
<polygon fill="midnightblue" stroke="midnightblue" points="1087.75,-304.996 1096.67,-299.277 1086.13,-298.186 1087.75,-304.996"/>
</g>
</g>
</svg>
