<?xml version="1.0" encoding="UTF-8" standalone="no"?>
<!DOCTYPE svg PUBLIC "-//W3C//DTD SVG 1.1//EN"
 "http://www.w3.org/Graphics/SVG/1.1/DTD/svg11.dtd">
<!-- Generated by graphviz version 2.36.0 (20140111.2315)
 -->
<!-- Title: setup Pages: 1 -->
<svg width="692pt" height="290pt"
 viewBox="0.00 0.00 692.00 290.00" xmlns="http://www.w3.org/2000/svg" xmlns:xlink="http://www.w3.org/1999/xlink">
<g id="graph0" class="graph" transform="scale(1 1) rotate(0) translate(4 286)">
<title>setup</title>
<polygon fill="white" stroke="none" points="-4,4 -4,-286 688,-286 688,4 -4,4"/>
<!-- Node1 -->
<g id="node1" class="node"><title>Node1</title>
<polygon fill="#bfbfbf" stroke="black" points="0.5,-120.5 0.5,-139.5 41.5,-139.5 41.5,-120.5 0.5,-120.5"/>
<text text-anchor="middle" x="21" y="-127.5" font-family="Helvetica,sans-Serif" font-size="10.00">setup</text>
</g>
<!-- Node2 -->
<g id="node2" class="node"><title>Node2</title>
<g id="a_node2"><a xlink:href="$classAP__HAL_1_1Print.html#ad337ce3f7977411b7d34d47a51e5737e" xlink:title="AP_HAL::Print::println">
<polygon fill="white" stroke="black" points="85.5,-243.5 85.5,-262.5 198.5,-262.5 198.5,-243.5 85.5,-243.5"/>
<text text-anchor="middle" x="142" y="-250.5" font-family="Helvetica,sans-Serif" font-size="10.00">AP_HAL::Print::println</text>
</a>
</g>
</g>
<!-- Node1&#45;&gt;Node2 -->
<g id="edge1" class="edge"><title>Node1&#45;&gt;Node2</title>
<path fill="none" stroke="midnightblue" d="M24.7396,-139.565C30.9163,-159.458 47.7969,-205.547 78,-231 81.7346,-234.147 85.9476,-236.855 90.3802,-239.181"/>
<polygon fill="midnightblue" stroke="midnightblue" points="89.1541,-242.469 99.7041,-243.442 92.0637,-236.103 89.1541,-242.469"/>
</g>
<!-- Node6 -->
<g id="node6" class="node"><title>Node6</title>
<g id="a_node6"><a xlink:href="$RC__Channel_8pde.html#a53067bc7a0921d9570fc1c68ce074877" xlink:title="print_radio_values">
<polygon fill="white" stroke="black" points="94.5,-202.5 94.5,-221.5 189.5,-221.5 189.5,-202.5 94.5,-202.5"/>
<text text-anchor="middle" x="142" y="-209.5" font-family="Helvetica,sans-Serif" font-size="10.00">print_radio_values</text>
</a>
</g>
</g>
<!-- Node1&#45;&gt;Node6 -->
<g id="edge6" class="edge"><title>Node1&#45;&gt;Node6</title>
<path fill="none" stroke="midnightblue" d="M28.0071,-139.611C37.1348,-153.433 55.8027,-178.818 78,-193 81.3168,-195.119 84.8819,-197.012 88.5684,-198.701"/>
<polygon fill="midnightblue" stroke="midnightblue" points="87.3278,-201.975 97.9099,-202.493 89.9606,-195.489 87.3278,-201.975"/>
</g>
<!-- Node8 -->
<g id="node8" class="node"><title>Node8</title>
<g id="a_node8"><a xlink:href="$classRC__Channel.html#a68fd99b7a3bf4283c8b500b49f511821" xlink:title="RC_Channel::set_angle">
<polygon fill="white" stroke="black" points="81.5,-164.5 81.5,-183.5 202.5,-183.5 202.5,-164.5 81.5,-164.5"/>
<text text-anchor="middle" x="142" y="-171.5" font-family="Helvetica,sans-Serif" font-size="10.00">RC_Channel::set_angle</text>
</a>
</g>
</g>
<!-- Node1&#45;&gt;Node8 -->
<g id="edge8" class="edge"><title>Node1&#45;&gt;Node8</title>
<path fill="none" stroke="midnightblue" d="M41.5071,-138.915C52.1842,-143.653 65.707,-149.427 78,-154 84.8027,-156.531 92.0897,-159.032 99.2064,-161.363"/>
<polygon fill="midnightblue" stroke="midnightblue" points="98.1527,-164.701 108.744,-164.425 100.292,-158.036 98.1527,-164.701"/>
</g>
<!-- Node9 -->
<g id="node9" class="node"><title>Node9</title>
<g id="a_node9"><a xlink:href="$classRC__Channel.html#ad4e6c8ba69625f57f3e189a8bfbd9e78" xlink:title="RC_Channel::set_default\l_dead_zone">
<polygon fill="white" stroke="black" points="78.5,-115 78.5,-145 205.5,-145 205.5,-115 78.5,-115"/>
<text text-anchor="start" x="86.5" y="-133" font-family="Helvetica,sans-Serif" font-size="10.00">RC_Channel::set_default</text>
<text text-anchor="middle" x="142" y="-122" font-family="Helvetica,sans-Serif" font-size="10.00">_dead_zone</text>
</a>
</g>
</g>
<!-- Node1&#45;&gt;Node9 -->
<g id="edge9" class="edge"><title>Node1&#45;&gt;Node9</title>
<path fill="none" stroke="midnightblue" d="M41.6504,-130C49.2447,-130 58.4418,-130 68.1381,-130"/>
<polygon fill="midnightblue" stroke="midnightblue" points="68.3772,-133.5 78.3772,-130 68.3772,-126.5 68.3772,-133.5"/>
</g>
<!-- Node10 -->
<g id="node10" class="node"><title>Node10</title>
<g id="a_node10"><a xlink:href="$classRC__Channel.html#a2cbeb0e5e4b289ad9eee7c04c2a200e6" xlink:title="RC_Channel::set_type">
<polygon fill="white" stroke="black" points="84,-76.5 84,-95.5 200,-95.5 200,-76.5 84,-76.5"/>
<text text-anchor="middle" x="142" y="-83.5" font-family="Helvetica,sans-Serif" font-size="10.00">RC_Channel::set_type</text>
</a>
</g>
</g>
<!-- Node1&#45;&gt;Node10 -->
<g id="edge10" class="edge"><title>Node1&#45;&gt;Node10</title>
<path fill="none" stroke="midnightblue" d="M41.7019,-120.468C52.32,-115.519 65.7271,-109.569 78,-105 83.9721,-102.777 90.3327,-100.62 96.629,-98.6068"/>
<polygon fill="midnightblue" stroke="midnightblue" points="97.8924,-101.879 106.405,-95.5721 95.8171,-95.1942 97.8924,-101.879"/>
</g>
<!-- Node11 -->
<g id="node11" class="node"><title>Node11</title>
<g id="a_node11"><a xlink:href="$classRC__Channel.html#ad51e68c85b76d1209e7cb6db224e63ba" xlink:title="RC_Channel::set_range">
<polygon fill="white" stroke="black" points="81,-38.5 81,-57.5 203,-57.5 203,-38.5 81,-38.5"/>
<text text-anchor="middle" x="142" y="-45.5" font-family="Helvetica,sans-Serif" font-size="10.00">RC_Channel::set_range</text>
</a>
</g>
</g>
<!-- Node1&#45;&gt;Node11 -->
<g id="edge11" class="edge"><title>Node1&#45;&gt;Node11</title>
<path fill="none" stroke="midnightblue" d="M28.0071,-120.389C37.1348,-106.567 55.8027,-81.1819 78,-67 81.3168,-64.8809 84.8819,-62.988 88.5684,-61.2989"/>
<polygon fill="midnightblue" stroke="midnightblue" points="89.9606,-64.5113 97.9099,-57.5071 87.3278,-58.0252 89.9606,-64.5113"/>
</g>
<!-- Node12 -->
<g id="node12" class="node"><title>Node12</title>
<g id="a_node12"><a xlink:href="$classRC__Channel.html#a627c19bdbbf6eaaf6c8e4abfcf54ac14" xlink:title="RC_Channel::enable_out">
<polygon fill="white" stroke="black" points="79,-0.5 79,-19.5 205,-19.5 205,-0.5 79,-0.5"/>
<text text-anchor="middle" x="142" y="-7.5" font-family="Helvetica,sans-Serif" font-size="10.00">RC_Channel::enable_out</text>
</a>
</g>
</g>
<!-- Node1&#45;&gt;Node12 -->
<g id="edge12" class="edge"><title>Node1&#45;&gt;Node12</title>
<path fill="none" stroke="midnightblue" d="M24.6534,-120.33C30.6669,-100.24 47.256,-53.7968 78,-29 80.2508,-27.1846 82.6725,-25.5424 85.2092,-24.057"/>
<polygon fill="midnightblue" stroke="midnightblue" points="86.8015,-27.1741 94.196,-19.5864 83.6837,-20.9067 86.8015,-27.1741"/>
</g>
<!-- Node3 -->
<g id="node3" class="node"><title>Node3</title>
<g id="a_node3"><a xlink:href="$classAP__HAL_1_1Print.html#acfe80773011eb17dfb52c2fba517a093" xlink:title="AP_HAL::Print::print">
<polygon fill="white" stroke="black" points="434,-262.5 434,-281.5 540,-281.5 540,-262.5 434,-262.5"/>
<text text-anchor="middle" x="487" y="-269.5" font-family="Helvetica,sans-Serif" font-size="10.00">AP_HAL::Print::print</text>
</a>
</g>
</g>
<!-- Node2&#45;&gt;Node3 -->
<g id="edge2" class="edge"><title>Node2&#45;&gt;Node3</title>
<path fill="none" stroke="midnightblue" d="M183.211,-262.511C201.098,-266.276 222.487,-270.144 242,-272 303.615,-277.859 374.378,-277.03 423.777,-275.239"/>
<polygon fill="midnightblue" stroke="midnightblue" points="424.125,-278.728 433.983,-274.844 423.855,-271.733 424.125,-278.728"/>
</g>
<!-- Node5 -->
<g id="node5" class="node"><title>Node5</title>
<g id="a_node5"><a xlink:href="$classAP__HAL_1_1Print.html#a169b128f9e22f0c15883768f580541a2" xlink:title="AP_HAL::Print::println">
<polygon fill="white" stroke="black" points="263.5,-243.5 263.5,-262.5 376.5,-262.5 376.5,-243.5 263.5,-243.5"/>
<text text-anchor="middle" x="320" y="-250.5" font-family="Helvetica,sans-Serif" font-size="10.00">AP_HAL::Print::println</text>
</a>
</g>
</g>
<!-- Node2&#45;&gt;Node5 -->
<g id="edge4" class="edge"><title>Node2&#45;&gt;Node5</title>
<path fill="none" stroke="midnightblue" d="M198.688,-253C216.026,-253 235.308,-253 253.266,-253"/>
<polygon fill="midnightblue" stroke="midnightblue" points="253.373,-256.5 263.373,-253 253.373,-249.5 253.373,-256.5"/>
</g>
<!-- Node4 -->
<g id="node4" class="node"><title>Node4</title>
<g id="a_node4"><a xlink:href="$classAP__HAL_1_1Print.html#acc65391952a43334f8f5c9bef341f501" xlink:title="AP_HAL::Print::write">
<polygon fill="white" stroke="black" points="576,-262.5 576,-281.5 684,-281.5 684,-262.5 576,-262.5"/>
<text text-anchor="middle" x="630" y="-269.5" font-family="Helvetica,sans-Serif" font-size="10.00">AP_HAL::Print::write</text>
</a>
</g>
</g>
<!-- Node3&#45;&gt;Node4 -->
<g id="edge3" class="edge"><title>Node3&#45;&gt;Node4</title>
<path fill="none" stroke="midnightblue" d="M540.103,-272C548.357,-272 556.973,-272 565.453,-272"/>
<polygon fill="midnightblue" stroke="midnightblue" points="565.697,-275.5 575.697,-272 565.697,-268.5 565.697,-275.5"/>
</g>
<!-- Node5&#45;&gt;Node3 -->
<g id="edge5" class="edge"><title>Node5&#45;&gt;Node3</title>
<path fill="none" stroke="midnightblue" d="M376.861,-259.433C391.97,-261.172 408.414,-263.066 423.844,-264.843"/>
<polygon fill="midnightblue" stroke="midnightblue" points="423.479,-268.324 433.814,-265.991 424.28,-261.37 423.479,-268.324"/>
</g>
<!-- Node7 -->
<g id="node7" class="node"><title>Node7</title>
<g id="a_node7"><a xlink:href="$classAP__HAL_1_1UARTDriver.html#a4b1ae6fcec3dfe651d08faf589f4ad6d" xlink:title="AP_HAL::UARTDriver\l::printf">
<polygon fill="white" stroke="black" points="262.5,-194 262.5,-224 377.5,-224 377.5,-194 262.5,-194"/>
<text text-anchor="start" x="270.5" y="-212" font-family="Helvetica,sans-Serif" font-size="10.00">AP_HAL::UARTDriver</text>
<text text-anchor="middle" x="320" y="-201" font-family="Helvetica,sans-Serif" font-size="10.00">::printf</text>
</a>
</g>
</g>
<!-- Node6&#45;&gt;Node7 -->
<g id="edge7" class="edge"><title>Node6&#45;&gt;Node7</title>
<path fill="none" stroke="midnightblue" d="M189.703,-211.204C208.869,-210.877 231.415,-210.493 252.267,-210.137"/>
<polygon fill="midnightblue" stroke="midnightblue" points="252.406,-213.636 262.345,-209.966 252.286,-206.637 252.406,-213.636"/>
</g>
<!-- Node13 -->
<g id="node13" class="node"><title>Node13</title>
<g id="a_node13"><a xlink:href="$classAP__HAL_1_1RCOutput.html#a25196bb820266d4afcae14d0acdb7e1c" xlink:title="AP_HAL::RCOutput::enable_ch">
<polygon fill="white" stroke="black" points="242.5,-0.5 242.5,-19.5 397.5,-19.5 397.5,-0.5 242.5,-0.5"/>
<text text-anchor="middle" x="320" y="-7.5" font-family="Helvetica,sans-Serif" font-size="10.00">AP_HAL::RCOutput::enable_ch</text>
</a>
</g>
</g>
<!-- Node12&#45;&gt;Node13 -->
<g id="edge13" class="edge"><title>Node12&#45;&gt;Node13</title>
<path fill="none" stroke="midnightblue" d="M205.051,-10C213.824,-10 222.974,-10 232.108,-10"/>
<polygon fill="midnightblue" stroke="midnightblue" points="232.394,-13.5001 242.394,-10 232.394,-6.5001 232.394,-13.5001"/>
</g>
</g>
</svg>
