<?xml version="1.0" encoding="UTF-8" standalone="no"?>
<!DOCTYPE svg PUBLIC "-//W3C//DTD SVG 1.1//EN"
 "http://www.w3.org/Graphics/SVG/1.1/DTD/svg11.dtd">
<!-- Generated by graphviz version 2.36.0 (20140111.2315)
 -->
<!-- Title: setup Pages: 1 -->
<svg width="242pt" height="77pt"
 viewBox="0.00 0.00 242.00 77.00" xmlns="http://www.w3.org/2000/svg" xmlns:xlink="http://www.w3.org/1999/xlink">
<g id="graph0" class="graph" transform="scale(1 1) rotate(0) translate(4 73)">
<title>setup</title>
<polygon fill="white" stroke="none" points="-4,4 -4,-73 238,-73 238,4 -4,4"/>
<!-- Node1 -->
<g id="node1" class="node"><title>Node1</title>
<polygon fill="#bfbfbf" stroke="black" points="0.5,-22.5 0.5,-41.5 41.5,-41.5 41.5,-22.5 0.5,-22.5"/>
<text text-anchor="middle" x="21" y="-29.5" font-family="Helvetica,sans-Serif" font-size="10.00">setup</text>
</g>
<!-- Node2 -->
<g id="node2" class="node"><title>Node2</title>
<g id="a_node2"><a xlink:href="$classAP__HAL_1_1UARTDriver.html#a4b1ae6fcec3dfe651d08faf589f4ad6d" xlink:title="AP_HAL::UARTDriver\l::printf">
<polygon fill="white" stroke="black" points="98.5,-39 98.5,-69 213.5,-69 213.5,-39 98.5,-39"/>
<text text-anchor="start" x="106.5" y="-57" font-family="Helvetica,sans-Serif" font-size="10.00">AP_HAL::UARTDriver</text>
<text text-anchor="middle" x="156" y="-46" font-family="Helvetica,sans-Serif" font-size="10.00">::printf</text>
</a>
</g>
</g>
<!-- Node1&#45;&gt;Node2 -->
<g id="edge1" class="edge"><title>Node1&#45;&gt;Node2</title>
<path fill="none" stroke="midnightblue" d="M41.6246,-35.2462C54.1885,-37.3244 71.2943,-40.154 88.4083,-42.9848"/>
<polygon fill="midnightblue" stroke="midnightblue" points="88.0142,-46.4671 98.4514,-44.6461 89.1567,-39.561 88.0142,-46.4671"/>
</g>
<!-- Node3 -->
<g id="node3" class="node"><title>Node3</title>
<g id="a_node3"><a xlink:href="$classAP__HAL_1_1RCOutput.html#a25196bb820266d4afcae14d0acdb7e1c" xlink:title="AP_HAL::RCOutput::enable_ch">
<polygon fill="white" stroke="black" points="78.5,-0.5 78.5,-19.5 233.5,-19.5 233.5,-0.5 78.5,-0.5"/>
<text text-anchor="middle" x="156" y="-7.5" font-family="Helvetica,sans-Serif" font-size="10.00">AP_HAL::RCOutput::enable_ch</text>
</a>
</g>
</g>
<!-- Node1&#45;&gt;Node3 -->
<g id="edge2" class="edge"><title>Node1&#45;&gt;Node3</title>
<path fill="none" stroke="midnightblue" d="M41.6246,-28.7538C53.8317,-26.7346 70.3265,-24.0061 86.9505,-21.2563"/>
<polygon fill="midnightblue" stroke="midnightblue" points="87.986,-24.6327 97.2808,-19.5475 86.8436,-17.7265 87.986,-24.6327"/>
</g>
</g>
</svg>
