<?xml version="1.0" encoding="UTF-8" standalone="no"?>
<!DOCTYPE svg PUBLIC "-//W3C//DTD SVG 1.1//EN"
 "http://www.w3.org/Graphics/SVG/1.1/DTD/svg11.dtd">
<!-- Generated by graphviz version 2.36.0 (20140111.2315)
 -->
<!-- Title: loop Pages: 1 -->
<svg width="202pt" height="126pt"
 viewBox="0.00 0.00 202.00 126.00" xmlns="http://www.w3.org/2000/svg" xmlns:xlink="http://www.w3.org/1999/xlink">
<g id="graph0" class="graph" transform="scale(1 1) rotate(0) translate(4 122)">
<title>loop</title>
<polygon fill="white" stroke="none" points="-4,4 -4,-122 198,-122 198,4 -4,4"/>
<!-- Node1 -->
<g id="node1" class="node"><title>Node1</title>
<polygon fill="#bfbfbf" stroke="black" points="0.5,-54.5 0.5,-73.5 35.5,-73.5 35.5,-54.5 0.5,-54.5"/>
<text text-anchor="middle" x="18" y="-61.5" font-family="Helvetica,sans-Serif" font-size="10.00">loop</text>
</g>
<!-- Node2 -->
<g id="node2" class="node"><title>Node2</title>
<g id="a_node2"><a xlink:href="$classAP__HAL_1_1RCInput.html#a078fd7e6d2e6a899009ec674a8e03498" xlink:title="AP_HAL::RCInput::read">
<polygon fill="white" stroke="black" points="72,-98.5 72,-117.5 194,-117.5 194,-98.5 72,-98.5"/>
<text text-anchor="middle" x="133" y="-105.5" font-family="Helvetica,sans-Serif" font-size="10.00">AP_HAL::RCInput::read</text>
</a>
</g>
</g>
<!-- Node1&#45;&gt;Node2 -->
<g id="edge1" class="edge"><title>Node1&#45;&gt;Node2</title>
<path fill="none" stroke="midnightblue" d="M35.5206,-72.0137C45.8829,-76.9065 59.586,-83.1353 72,-88 78.3192,-90.4763 85.0849,-92.9228 91.7129,-95.2095"/>
<polygon fill="midnightblue" stroke="midnightblue" points="90.6632,-98.5491 101.257,-98.4303 92.9014,-91.9166 90.6632,-98.5491"/>
</g>
<!-- Node3 -->
<g id="node3" class="node"><title>Node3</title>
<g id="a_node3"><a xlink:href="$classAP__HAL_1_1Scheduler.html#a26b68339fc68a562d8d3a1238d0ec8c1" xlink:title="AP_HAL::Scheduler::\lmillis">
<polygon fill="white" stroke="black" points="78,-49 78,-79 188,-79 188,-49 78,-49"/>
<text text-anchor="start" x="86" y="-67" font-family="Helvetica,sans-Serif" font-size="10.00">AP_HAL::Scheduler::</text>
<text text-anchor="middle" x="133" y="-56" font-family="Helvetica,sans-Serif" font-size="10.00">millis</text>
</a>
</g>
</g>
<!-- Node1&#45;&gt;Node3 -->
<g id="edge2" class="edge"><title>Node1&#45;&gt;Node3</title>
<path fill="none" stroke="midnightblue" d="M35.6735,-64C44.4987,-64 55.9614,-64 67.8851,-64"/>
<polygon fill="midnightblue" stroke="midnightblue" points="67.9616,-67.5001 77.9615,-64 67.9615,-60.5001 67.9616,-67.5001"/>
</g>
<!-- Node4 -->
<g id="node4" class="node"><title>Node4</title>
<g id="a_node4"><a xlink:href="$classAP__HAL_1_1Scheduler.html#ab3175e2e6223ccfe82f957e41cc12b26" xlink:title="AP_HAL::Scheduler::\ldelay">
<polygon fill="white" stroke="black" points="78,-0 78,-30 188,-30 188,-0 78,-0"/>
<text text-anchor="start" x="86" y="-18" font-family="Helvetica,sans-Serif" font-size="10.00">AP_HAL::Scheduler::</text>
<text text-anchor="middle" x="133" y="-7" font-family="Helvetica,sans-Serif" font-size="10.00">delay</text>
</a>
</g>
</g>
<!-- Node1&#45;&gt;Node4 -->
<g id="edge3" class="edge"><title>Node1&#45;&gt;Node4</title>
<path fill="none" stroke="midnightblue" d="M35.6514,-56.3031C46.063,-51.5294 59.7719,-45.3147 72,-40 76.4858,-38.0503 81.1727,-36.0442 85.8638,-34.0566"/>
<polygon fill="midnightblue" stroke="midnightblue" points="87.5775,-37.1328 95.4361,-30.0269 84.8615,-30.6811 87.5775,-37.1328"/>
</g>
</g>
</svg>
