<?xml version="1.0" encoding="UTF-8" standalone="no"?>
<!DOCTYPE svg PUBLIC "-//W3C//DTD SVG 1.1//EN"
 "http://www.w3.org/Graphics/SVG/1.1/DTD/svg11.dtd">
<!-- Generated by graphviz version 2.36.0 (20140111.2315)
 -->
<!-- Title: loop Pages: 1 -->
<svg width="212pt" height="126pt"
 viewBox="0.00 0.00 212.00 126.00" xmlns="http://www.w3.org/2000/svg" xmlns:xlink="http://www.w3.org/1999/xlink">
<g id="graph0" class="graph" transform="scale(1 1) rotate(0) translate(4 122)">
<title>loop</title>
<polygon fill="white" stroke="none" points="-4,4 -4,-122 208,-122 208,4 -4,4"/>
<!-- Node1 -->
<g id="node1" class="node"><title>Node1</title>
<polygon fill="#bfbfbf" stroke="black" points="0.5,-54.5 0.5,-73.5 35.5,-73.5 35.5,-54.5 0.5,-54.5"/>
<text text-anchor="middle" x="18" y="-61.5" font-family="Helvetica,sans-Serif" font-size="10.00">loop</text>
</g>
<!-- Node2 -->
<g id="node2" class="node"><title>Node2</title>
<g id="a_node2"><a xlink:href="$classAP__HAL_1_1RCOutput.html#ade509cf82dfb1f6fab3eba0c026c5d60" xlink:title="AP_HAL::RCOutput::write">
<polygon fill="white" stroke="black" points="72,-98.5 72,-117.5 204,-117.5 204,-98.5 72,-98.5"/>
<text text-anchor="middle" x="138" y="-105.5" font-family="Helvetica,sans-Serif" font-size="10.00">AP_HAL::RCOutput::write</text>
</a>
</g>
</g>
<!-- Node1&#45;&gt;Node2 -->
<g id="edge1" class="edge"><title>Node1&#45;&gt;Node2</title>
<path fill="none" stroke="midnightblue" d="M35.954,-72.3405C46.2438,-77.2352 59.7193,-83.3515 72,-88 78.8324,-90.5862 86.1592,-93.0906 93.3423,-95.4017"/>
<polygon fill="midnightblue" stroke="midnightblue" points="92.3995,-98.7739 102.988,-98.4228 94.4917,-92.0939 92.3995,-98.7739"/>
</g>
<!-- Node3 -->
<g id="node3" class="node"><title>Node3</title>
<g id="a_node3"><a xlink:href="$classAP__HAL_1_1UARTDriver.html#a4b1ae6fcec3dfe651d08faf589f4ad6d" xlink:title="AP_HAL::UARTDriver\l::printf">
<polygon fill="white" stroke="black" points="80.5,-49 80.5,-79 195.5,-79 195.5,-49 80.5,-49"/>
<text text-anchor="start" x="88.5" y="-67" font-family="Helvetica,sans-Serif" font-size="10.00">AP_HAL::UARTDriver</text>
<text text-anchor="middle" x="138" y="-56" font-family="Helvetica,sans-Serif" font-size="10.00">::printf</text>
</a>
</g>
</g>
<!-- Node1&#45;&gt;Node3 -->
<g id="edge2" class="edge"><title>Node1&#45;&gt;Node3</title>
<path fill="none" stroke="midnightblue" d="M35.6562,-64C44.9801,-64 57.2859,-64 70.0979,-64"/>
<polygon fill="midnightblue" stroke="midnightblue" points="70.4342,-67.5001 80.4342,-64 70.4341,-60.5001 70.4342,-67.5001"/>
</g>
<!-- Node4 -->
<g id="node4" class="node"><title>Node4</title>
<g id="a_node4"><a xlink:href="$classAP__HAL_1_1Scheduler.html#ab3175e2e6223ccfe82f957e41cc12b26" xlink:title="AP_HAL::Scheduler::\ldelay">
<polygon fill="white" stroke="black" points="83,-0 83,-30 193,-30 193,-0 83,-0"/>
<text text-anchor="start" x="91" y="-18" font-family="Helvetica,sans-Serif" font-size="10.00">AP_HAL::Scheduler::</text>
<text text-anchor="middle" x="138" y="-7" font-family="Helvetica,sans-Serif" font-size="10.00">delay</text>
</a>
</g>
</g>
<!-- Node1&#45;&gt;Node4 -->
<g id="edge3" class="edge"><title>Node1&#45;&gt;Node4</title>
<path fill="none" stroke="midnightblue" d="M35.6006,-56.1839C45.993,-51.3654 59.6997,-45.1453 72,-40 76.8259,-37.9813 81.8771,-35.9309 86.9398,-33.9171"/>
<polygon fill="midnightblue" stroke="midnightblue" points="88.6063,-37.0228 96.6333,-30.1076 86.046,-30.5078 88.6063,-37.0228"/>
</g>
</g>
</svg>
