<?xml version="1.0" encoding="UTF-8" standalone="no"?>
<!DOCTYPE svg PUBLIC "-//W3C//DTD SVG 1.1//EN"
 "http://www.w3.org/Graphics/SVG/1.1/DTD/svg11.dtd">
<!-- Generated by graphviz version 2.36.0 (20140111.2315)
 -->
<!-- Title: missing_rotations Pages: 1 -->
<svg width="690pt" height="153pt"
 viewBox="0.00 0.00 690.00 153.00" xmlns="http://www.w3.org/2000/svg" xmlns:xlink="http://www.w3.org/1999/xlink">
<g id="graph0" class="graph" transform="scale(1 1) rotate(0) translate(4 149)">
<title>missing_rotations</title>
<polygon fill="white" stroke="none" points="-4,4 -4,-149 686,-149 686,4 -4,4"/>
<!-- Node1 -->
<g id="node1" class="node"><title>Node1</title>
<polygon fill="#bfbfbf" stroke="black" points="0.5,-68.5 0.5,-87.5 93.5,-87.5 93.5,-68.5 0.5,-68.5"/>
<text text-anchor="middle" x="47" y="-75.5" font-family="Helvetica,sans-Serif" font-size="10.00">missing_rotations</text>
</g>
<!-- Node2 -->
<g id="node2" class="node"><title>Node2</title>
<g id="a_node2"><a xlink:href="$classAP__HAL_1_1Print.html#ad337ce3f7977411b7d34d47a51e5737e" xlink:title="AP_HAL::Print::println">
<polygon fill="white" stroke="black" points="131.5,-125.5 131.5,-144.5 244.5,-144.5 244.5,-125.5 131.5,-125.5"/>
<text text-anchor="middle" x="188" y="-132.5" font-family="Helvetica,sans-Serif" font-size="10.00">AP_HAL::Print::println</text>
</a>
</g>
</g>
<!-- Node1&#45;&gt;Node2 -->
<g id="edge1" class="edge"><title>Node1&#45;&gt;Node2</title>
<path fill="none" stroke="midnightblue" d="M66.9544,-87.5227C83.4066,-95.609 107.979,-107.259 130,-116 135.272,-118.093 140.876,-120.153 146.433,-122.101"/>
<polygon fill="midnightblue" stroke="midnightblue" points="145.708,-125.552 156.303,-125.469 147.969,-118.927 145.708,-125.552"/>
</g>
<!-- Node6 -->
<g id="node6" class="node"><title>Node6</title>
<g id="a_node6"><a xlink:href="$classMatrix3.html#a62587bd216436f09f06b9e1330f84bc0" xlink:title="&#45;*&#45; tab&#45;width: 4; Mode: C++; c&#45;basic&#45;offset: 4; indent&#45;tabs&#45;mode: nil &#45;*&#45; ">
<polygon fill="white" stroke="black" points="137.5,-87.5 137.5,-106.5 238.5,-106.5 238.5,-87.5 137.5,-87.5"/>
<text text-anchor="middle" x="188" y="-94.5" font-family="Helvetica,sans-Serif" font-size="10.00">Matrix3::from_euler</text>
</a>
</g>
</g>
<!-- Node1&#45;&gt;Node6 -->
<g id="edge6" class="edge"><title>Node1&#45;&gt;Node6</title>
<path fill="none" stroke="midnightblue" d="M93.5138,-84.2213C104.183,-85.6797 115.711,-87.2555 126.908,-88.786"/>
<polygon fill="midnightblue" stroke="midnightblue" points="126.681,-92.2875 137.063,-90.1741 127.629,-85.352 126.681,-92.2875"/>
</g>
<!-- Node7 -->
<g id="node7" class="node"><title>Node7</title>
<g id="a_node7"><a xlink:href="$rotations_8pde.html#ad6798e5b3eec8e581f4c054837985245" xlink:title="have_rotation">
<polygon fill="white" stroke="black" points="150.5,-49.5 150.5,-68.5 225.5,-68.5 225.5,-49.5 150.5,-49.5"/>
<text text-anchor="middle" x="188" y="-56.5" font-family="Helvetica,sans-Serif" font-size="10.00">have_rotation</text>
</a>
</g>
</g>
<!-- Node1&#45;&gt;Node7 -->
<g id="edge7" class="edge"><title>Node1&#45;&gt;Node7</title>
<path fill="none" stroke="midnightblue" d="M93.5138,-71.7787C108.439,-69.7386 125.045,-67.4686 140.073,-65.4145"/>
<polygon fill="midnightblue" stroke="midnightblue" points="140.75,-68.8546 150.184,-64.0324 139.802,-61.9191 140.75,-68.8546"/>
</g>
<!-- Node10 -->
<g id="node10" class="node"><title>Node10</title>
<g id="a_node10"><a xlink:href="$classAP__HAL_1_1UARTDriver.html#a4b1ae6fcec3dfe651d08faf589f4ad6d" xlink:title="AP_HAL::UARTDriver\l::printf">
<polygon fill="white" stroke="black" points="130.5,-0 130.5,-30 245.5,-30 245.5,-0 130.5,-0"/>
<text text-anchor="start" x="138.5" y="-18" font-family="Helvetica,sans-Serif" font-size="10.00">AP_HAL::UARTDriver</text>
<text text-anchor="middle" x="188" y="-7" font-family="Helvetica,sans-Serif" font-size="10.00">::printf</text>
</a>
</g>
</g>
<!-- Node1&#45;&gt;Node10 -->
<g id="edge10" class="edge"><title>Node1&#45;&gt;Node10</title>
<path fill="none" stroke="midnightblue" d="M68.5028,-68.3562C85.0574,-60.6038 108.974,-49.4816 130,-40 134.157,-38.1253 138.493,-36.1893 142.835,-34.2631"/>
<polygon fill="midnightblue" stroke="midnightblue" points="144.551,-37.3313 152.285,-30.0897 141.723,-30.928 144.551,-37.3313"/>
</g>
<!-- Node3 -->
<g id="node3" class="node"><title>Node3</title>
<g id="a_node3"><a xlink:href="$classAP__HAL_1_1Print.html#acfe80773011eb17dfb52c2fba517a093" xlink:title="AP_HAL::Print::print">
<polygon fill="white" stroke="black" points="432,-125.5 432,-144.5 538,-144.5 538,-125.5 432,-125.5"/>
<text text-anchor="middle" x="485" y="-132.5" font-family="Helvetica,sans-Serif" font-size="10.00">AP_HAL::Print::print</text>
</a>
</g>
</g>
<!-- Node2&#45;&gt;Node3 -->
<g id="edge2" class="edge"><title>Node2&#45;&gt;Node3</title>
<path fill="none" stroke="midnightblue" d="M244.834,-135C295.259,-135 369.363,-135 421.696,-135"/>
<polygon fill="midnightblue" stroke="midnightblue" points="421.858,-138.5 431.858,-135 421.858,-131.5 421.858,-138.5"/>
</g>
<!-- Node5 -->
<g id="node5" class="node"><title>Node5</title>
<g id="a_node5"><a xlink:href="$classAP__HAL_1_1Print.html#a169b128f9e22f0c15883768f580541a2" xlink:title="AP_HAL::Print::println">
<polygon fill="white" stroke="black" points="282.5,-106.5 282.5,-125.5 395.5,-125.5 395.5,-106.5 282.5,-106.5"/>
<text text-anchor="middle" x="339" y="-113.5" font-family="Helvetica,sans-Serif" font-size="10.00">AP_HAL::Print::println</text>
</a>
</g>
</g>
<!-- Node2&#45;&gt;Node5 -->
<g id="edge4" class="edge"><title>Node2&#45;&gt;Node5</title>
<path fill="none" stroke="midnightblue" d="M244.906,-127.871C253.786,-126.739 263.042,-125.558 272.124,-124.4"/>
<polygon fill="midnightblue" stroke="midnightblue" points="272.799,-127.843 282.276,-123.106 271.914,-120.899 272.799,-127.843"/>
</g>
<!-- Node4 -->
<g id="node4" class="node"><title>Node4</title>
<g id="a_node4"><a xlink:href="$classAP__HAL_1_1Print.html#acc65391952a43334f8f5c9bef341f501" xlink:title="AP_HAL::Print::write">
<polygon fill="white" stroke="black" points="574,-125.5 574,-144.5 682,-144.5 682,-125.5 574,-125.5"/>
<text text-anchor="middle" x="628" y="-132.5" font-family="Helvetica,sans-Serif" font-size="10.00">AP_HAL::Print::write</text>
</a>
</g>
</g>
<!-- Node3&#45;&gt;Node4 -->
<g id="edge3" class="edge"><title>Node3&#45;&gt;Node4</title>
<path fill="none" stroke="midnightblue" d="M538.103,-135C546.357,-135 554.973,-135 563.453,-135"/>
<polygon fill="midnightblue" stroke="midnightblue" points="563.697,-138.5 573.697,-135 563.697,-131.5 563.697,-138.5"/>
</g>
<!-- Node5&#45;&gt;Node3 -->
<g id="edge5" class="edge"><title>Node5&#45;&gt;Node3</title>
<path fill="none" stroke="midnightblue" d="M395.674,-123.346C404.207,-124.472 413.062,-125.64 421.727,-126.783"/>
<polygon fill="midnightblue" stroke="midnightblue" points="421.407,-130.271 431.779,-128.11 422.323,-123.332 421.407,-130.271"/>
</g>
<!-- Node8 -->
<g id="node8" class="node"><title>Node8</title>
<g id="a_node8"><a xlink:href="$classMatrix3.html#a18e2df03dec4abdf11fc9fb60ed7c226" xlink:title="Matrix3::transposed">
<polygon fill="white" stroke="black" points="287.5,-68.5 287.5,-87.5 390.5,-87.5 390.5,-68.5 287.5,-68.5"/>
<text text-anchor="middle" x="339" y="-75.5" font-family="Helvetica,sans-Serif" font-size="10.00">Matrix3::transposed</text>
</a>
</g>
</g>
<!-- Node7&#45;&gt;Node8 -->
<g id="edge8" class="edge"><title>Node7&#45;&gt;Node8</title>
<path fill="none" stroke="midnightblue" d="M225.831,-63.6966C241.32,-65.6717 259.756,-68.0226 277.162,-70.2421"/>
<polygon fill="midnightblue" stroke="midnightblue" points="276.899,-73.7368 287.261,-71.53 277.784,-66.7931 276.899,-73.7368"/>
</g>
<!-- Node9 -->
<g id="node9" class="node"><title>Node9</title>
<g id="a_node9"><a xlink:href="$classVector3.html#a53d5701ae2db9492944550927279b7b8" xlink:title="Vector3::rotate">
<polygon fill="white" stroke="black" points="298.5,-30.5 298.5,-49.5 379.5,-49.5 379.5,-30.5 298.5,-30.5"/>
<text text-anchor="middle" x="339" y="-37.5" font-family="Helvetica,sans-Serif" font-size="10.00">Vector3::rotate</text>
</a>
</g>
</g>
<!-- Node7&#45;&gt;Node9 -->
<g id="edge9" class="edge"><title>Node7&#45;&gt;Node9</title>
<path fill="none" stroke="midnightblue" d="M225.831,-54.3034C244.704,-51.8967 267.954,-48.932 288.384,-46.3269"/>
<polygon fill="midnightblue" stroke="midnightblue" points="288.985,-49.7787 298.462,-45.0418 288.099,-42.8349 288.985,-49.7787"/>
</g>
</g>
</svg>
