<?xml version="1.0" encoding="UTF-8" standalone="no"?>
<!DOCTYPE svg PUBLIC "-//W3C//DTD SVG 1.1//EN"
 "http://www.w3.org/Graphics/SVG/1.1/DTD/svg11.dtd">
<!-- Generated by graphviz version 2.36.0 (20140111.2315)
 -->
<!-- Title: test_eulers Pages: 1 -->
<svg width="670pt" height="275pt"
 viewBox="0.00 0.00 670.00 275.00" xmlns="http://www.w3.org/2000/svg" xmlns:xlink="http://www.w3.org/1999/xlink">
<g id="graph0" class="graph" transform="scale(1 1) rotate(0) translate(4 271)">
<title>test_eulers</title>
<polygon fill="white" stroke="none" points="-4,4 -4,-271 666,-271 666,4 -4,4"/>
<!-- Node1 -->
<g id="node1" class="node"><title>Node1</title>
<polygon fill="#bfbfbf" stroke="black" points="0.5,-171.5 0.5,-190.5 65.5,-190.5 65.5,-171.5 0.5,-171.5"/>
<text text-anchor="middle" x="33" y="-178.5" font-family="Helvetica,sans-Serif" font-size="10.00">test_eulers</text>
</g>
<!-- Node2 -->
<g id="node2" class="node"><title>Node2</title>
<g id="a_node2"><a xlink:href="$classAP__HAL_1_1Print.html#ad337ce3f7977411b7d34d47a51e5737e" xlink:title="AP_HAL::Print::println">
<polygon fill="white" stroke="black" points="102.5,-228.5 102.5,-247.5 215.5,-247.5 215.5,-228.5 102.5,-228.5"/>
<text text-anchor="middle" x="159" y="-235.5" font-family="Helvetica,sans-Serif" font-size="10.00">AP_HAL::Print::println</text>
</a>
</g>
</g>
<!-- Node1&#45;&gt;Node2 -->
<g id="edge1" class="edge"><title>Node1&#45;&gt;Node2</title>
<path fill="none" stroke="midnightblue" d="M54.7548,-190.541C74.7833,-199.747 105.321,-213.785 127.995,-224.207"/>
<polygon fill="midnightblue" stroke="midnightblue" points="126.63,-227.432 137.177,-228.428 129.553,-221.072 126.63,-227.432"/>
</g>
<!-- Node6 -->
<g id="node6" class="node"><title>Node6</title>
<g id="a_node6"><a xlink:href="$rotations_8pde.html#af879672d9ab28cd8ad8e4e604beda066" xlink:title="test_euler">
<polygon fill="white" stroke="black" points="129.5,-114.5 129.5,-133.5 188.5,-133.5 188.5,-114.5 129.5,-114.5"/>
<text text-anchor="middle" x="159" y="-121.5" font-family="Helvetica,sans-Serif" font-size="10.00">test_euler</text>
</a>
</g>
</g>
<!-- Node1&#45;&gt;Node6 -->
<g id="edge6" class="edge"><title>Node1&#45;&gt;Node6</title>
<path fill="none" stroke="midnightblue" d="M54.7548,-171.459C74.7833,-162.253 105.321,-148.215 127.995,-137.793"/>
<polygon fill="midnightblue" stroke="midnightblue" points="129.553,-140.928 137.177,-133.572 126.63,-134.568 129.553,-140.928"/>
</g>
<!-- Node3 -->
<g id="node3" class="node"><title>Node3</title>
<g id="a_node3"><a xlink:href="$classAP__HAL_1_1Print.html#acfe80773011eb17dfb52c2fba517a093" xlink:title="AP_HAL::Print::print">
<polygon fill="white" stroke="black" points="407,-247.5 407,-266.5 513,-266.5 513,-247.5 407,-247.5"/>
<text text-anchor="middle" x="460" y="-254.5" font-family="Helvetica,sans-Serif" font-size="10.00">AP_HAL::Print::print</text>
</a>
</g>
</g>
<!-- Node2&#45;&gt;Node3 -->
<g id="edge2" class="edge"><title>Node2&#45;&gt;Node3</title>
<path fill="none" stroke="midnightblue" d="M197.331,-247.509C213.947,-251.274 233.828,-255.143 252,-257 300.449,-261.951 355.609,-261.66 396.8,-260.29"/>
<polygon fill="midnightblue" stroke="midnightblue" points="397.092,-263.782 406.958,-259.921 396.838,-256.786 397.092,-263.782"/>
</g>
<!-- Node5 -->
<g id="node5" class="node"><title>Node5</title>
<g id="a_node5"><a xlink:href="$classAP__HAL_1_1Print.html#a169b128f9e22f0c15883768f580541a2" xlink:title="AP_HAL::Print::println">
<polygon fill="white" stroke="black" points="252.5,-228.5 252.5,-247.5 365.5,-247.5 365.5,-228.5 252.5,-228.5"/>
<text text-anchor="middle" x="309" y="-235.5" font-family="Helvetica,sans-Serif" font-size="10.00">AP_HAL::Print::println</text>
</a>
</g>
</g>
<!-- Node2&#45;&gt;Node5 -->
<g id="edge4" class="edge"><title>Node2&#45;&gt;Node5</title>
<path fill="none" stroke="midnightblue" d="M215.531,-238C224.138,-238 233.101,-238 241.913,-238"/>
<polygon fill="midnightblue" stroke="midnightblue" points="242.158,-241.5 252.158,-238 242.158,-234.5 242.158,-241.5"/>
</g>
<!-- Node4 -->
<g id="node4" class="node"><title>Node4</title>
<g id="a_node4"><a xlink:href="$classAP__HAL_1_1Print.html#acc65391952a43334f8f5c9bef341f501" xlink:title="AP_HAL::Print::write">
<polygon fill="white" stroke="black" points="554,-247.5 554,-266.5 662,-266.5 662,-247.5 554,-247.5"/>
<text text-anchor="middle" x="608" y="-254.5" font-family="Helvetica,sans-Serif" font-size="10.00">AP_HAL::Print::write</text>
</a>
</g>
</g>
<!-- Node3&#45;&gt;Node4 -->
<g id="edge3" class="edge"><title>Node3&#45;&gt;Node4</title>
<path fill="none" stroke="midnightblue" d="M513.297,-257C523.116,-257 533.479,-257 543.593,-257"/>
<polygon fill="midnightblue" stroke="midnightblue" points="543.593,-260.5 553.593,-257 543.593,-253.5 543.593,-260.5"/>
</g>
<!-- Node5&#45;&gt;Node3 -->
<g id="edge5" class="edge"><title>Node5&#45;&gt;Node3</title>
<path fill="none" stroke="midnightblue" d="M365.906,-245.129C375.939,-246.408 386.453,-247.749 396.654,-249.05"/>
<polygon fill="midnightblue" stroke="midnightblue" points="396.359,-252.541 406.722,-250.334 397.245,-245.597 396.359,-252.541"/>
</g>
<!-- Node7 -->
<g id="node7" class="node"><title>Node7</title>
<g id="a_node7"><a xlink:href="$classVector3.html#a53d5701ae2db9492944550927279b7b8" xlink:title="Vector3::rotate">
<polygon fill="white" stroke="black" points="268.5,-190.5 268.5,-209.5 349.5,-209.5 349.5,-190.5 268.5,-190.5"/>
<text text-anchor="middle" x="309" y="-197.5" font-family="Helvetica,sans-Serif" font-size="10.00">Vector3::rotate</text>
</a>
</g>
</g>
<!-- Node6&#45;&gt;Node7 -->
<g id="edge7" class="edge"><title>Node6&#45;&gt;Node7</title>
<path fill="none" stroke="midnightblue" d="M173.17,-133.504C190.557,-145.73 222.433,-167.048 252,-181 256.583,-183.163 261.48,-185.197 266.401,-187.074"/>
<polygon fill="midnightblue" stroke="midnightblue" points="265.22,-190.369 275.814,-190.478 267.601,-183.786 265.22,-190.369"/>
</g>
<!-- Node8 -->
<g id="node8" class="node"><title>Node8</title>
<g id="a_node8"><a xlink:href="$classMatrix3.html#a62587bd216436f09f06b9e1330f84bc0" xlink:title="&#45;*&#45; tab&#45;width: 4; Mode: C++; c&#45;basic&#45;offset: 4; indent&#45;tabs&#45;mode: nil &#45;*&#45; ">
<polygon fill="white" stroke="black" points="258.5,-152.5 258.5,-171.5 359.5,-171.5 359.5,-152.5 258.5,-152.5"/>
<text text-anchor="middle" x="309" y="-159.5" font-family="Helvetica,sans-Serif" font-size="10.00">Matrix3::from_euler</text>
</a>
</g>
</g>
<!-- Node6&#45;&gt;Node8 -->
<g id="edge8" class="edge"><title>Node6&#45;&gt;Node8</title>
<path fill="none" stroke="midnightblue" d="M188.536,-131.327C209.042,-136.592 237.153,-143.809 260.954,-149.921"/>
<polygon fill="midnightblue" stroke="midnightblue" points="260.3,-153.366 270.856,-152.463 262.041,-146.586 260.3,-153.366"/>
</g>
<!-- Node9 -->
<g id="node9" class="node"><title>Node9</title>
<g id="a_node9"><a xlink:href="$AP__Math_8cpp.html#aa3adb05231060d239e5b91940e001f85" xlink:title="radians">
<polygon fill="white" stroke="black" points="285,-114.5 285,-133.5 333,-133.5 333,-114.5 285,-114.5"/>
<text text-anchor="middle" x="309" y="-121.5" font-family="Helvetica,sans-Serif" font-size="10.00">radians</text>
</a>
</g>
</g>
<!-- Node6&#45;&gt;Node9 -->
<g id="edge9" class="edge"><title>Node6&#45;&gt;Node9</title>
<path fill="none" stroke="midnightblue" d="M188.536,-124C213.194,-124 248.848,-124 274.783,-124"/>
<polygon fill="midnightblue" stroke="midnightblue" points="274.895,-127.5 284.895,-124 274.895,-120.5 274.895,-127.5"/>
</g>
<!-- Node10 -->
<g id="node10" class="node"><title>Node10</title>
<g id="a_node10"><a xlink:href="$classVector3.html#ac1fd5514e368a1e1c2d13f71eda18345" xlink:title="Vector3::length">
<polygon fill="white" stroke="black" points="267.5,-76.5 267.5,-95.5 350.5,-95.5 350.5,-76.5 267.5,-76.5"/>
<text text-anchor="middle" x="309" y="-83.5" font-family="Helvetica,sans-Serif" font-size="10.00">Vector3::length</text>
</a>
</g>
</g>
<!-- Node6&#45;&gt;Node10 -->
<g id="edge10" class="edge"><title>Node6&#45;&gt;Node10</title>
<path fill="none" stroke="midnightblue" d="M188.536,-116.673C209.042,-111.408 237.153,-104.191 260.954,-98.0793"/>
<polygon fill="midnightblue" stroke="midnightblue" points="262.041,-101.414 270.856,-95.5369 260.3,-94.6338 262.041,-101.414"/>
</g>
<!-- Node13 -->
<g id="node13" class="node"><title>Node13</title>
<g id="a_node13"><a xlink:href="$classAP__HAL_1_1UARTDriver.html#a4b1ae6fcec3dfe651d08faf589f4ad6d" xlink:title="AP_HAL::UARTDriver\l::printf">
<polygon fill="white" stroke="black" points="402.5,-11 402.5,-41 517.5,-41 517.5,-11 402.5,-11"/>
<text text-anchor="start" x="410.5" y="-29" font-family="Helvetica,sans-Serif" font-size="10.00">AP_HAL::UARTDriver</text>
<text text-anchor="middle" x="460" y="-18" font-family="Helvetica,sans-Serif" font-size="10.00">::printf</text>
</a>
</g>
</g>
<!-- Node6&#45;&gt;Node13 -->
<g id="edge13" class="edge"><title>Node6&#45;&gt;Node13</title>
<path fill="none" stroke="midnightblue" d="M172.323,-114.329C189.284,-101.514 221.23,-79.1157 252,-67 297.033,-49.2681 350.713,-38.9187 392.122,-33.0545"/>
<polygon fill="midnightblue" stroke="midnightblue" points="392.668,-36.5126 402.103,-31.6938 391.722,-29.5767 392.668,-36.5126"/>
</g>
<!-- Node14 -->
<g id="node14" class="node"><title>Node14</title>
<g id="a_node14"><a xlink:href="$rotations_8pde.html#abeed49eaf8341cd6b00a5291b074afa3" xlink:title="print_vector">
<polygon fill="white" stroke="black" points="275,-0.5 275,-19.5 343,-19.5 343,-0.5 275,-0.5"/>
<text text-anchor="middle" x="309" y="-7.5" font-family="Helvetica,sans-Serif" font-size="10.00">print_vector</text>
</a>
</g>
</g>
<!-- Node6&#45;&gt;Node14 -->
<g id="edge14" class="edge"><title>Node6&#45;&gt;Node14</title>
<path fill="none" stroke="midnightblue" d="M167.689,-114.41C182.422,-96.5528 216.344,-57.8557 252,-34 257.789,-30.1272 264.304,-26.6589 270.789,-23.6432"/>
<polygon fill="midnightblue" stroke="midnightblue" points="272.41,-26.7551 280.182,-19.5544 269.616,-20.3369 272.41,-26.7551"/>
</g>
<!-- Node11 -->
<g id="node11" class="node"><title>Node11</title>
<g id="a_node11"><a xlink:href="$AP__Math_8cpp.html#ac09c78b18c2ad21b9a04081f119f11c0" xlink:title="pythagorous3">
<polygon fill="white" stroke="black" points="422.5,-76.5 422.5,-95.5 497.5,-95.5 497.5,-76.5 422.5,-76.5"/>
<text text-anchor="middle" x="460" y="-83.5" font-family="Helvetica,sans-Serif" font-size="10.00">pythagorous3</text>
</a>
</g>
</g>
<!-- Node10&#45;&gt;Node11 -->
<g id="edge11" class="edge"><title>Node10&#45;&gt;Node11</title>
<path fill="none" stroke="midnightblue" d="M350.715,-86C369.792,-86 392.619,-86 412.386,-86"/>
<polygon fill="midnightblue" stroke="midnightblue" points="412.407,-89.5001 422.407,-86 412.407,-82.5001 412.407,-89.5001"/>
</g>
<!-- Node12 -->
<g id="node12" class="node"><title>Node12</title>
<g id="a_node12"><a xlink:href="$AP__Math_8cpp.html#a996fdbe87607543eef5dcb234f6bc017" xlink:title="sq">
<polygon fill="white" stroke="black" points="593.5,-76.5 593.5,-95.5 622.5,-95.5 622.5,-76.5 593.5,-76.5"/>
<text text-anchor="middle" x="608" y="-83.5" font-family="Helvetica,sans-Serif" font-size="10.00">sq</text>
</a>
</g>
</g>
<!-- Node11&#45;&gt;Node12 -->
<g id="edge12" class="edge"><title>Node11&#45;&gt;Node12</title>
<path fill="none" stroke="midnightblue" d="M497.842,-86C524.557,-86 559.916,-86 583.048,-86"/>
<polygon fill="midnightblue" stroke="midnightblue" points="583.33,-89.5001 593.33,-86 583.33,-82.5001 583.33,-89.5001"/>
</g>
<!-- Node14&#45;&gt;Node13 -->
<g id="edge15" class="edge"><title>Node14&#45;&gt;Node13</title>
<path fill="none" stroke="midnightblue" d="M343.068,-13.5509C357.617,-15.1132 375.257,-17.0074 392.341,-18.842"/>
<polygon fill="midnightblue" stroke="midnightblue" points="391.991,-22.3244 402.308,-19.9122 392.738,-15.3645 391.991,-22.3244"/>
</g>
</g>
</svg>
