<?xml version="1.0" encoding="UTF-8" standalone="no"?>
<!DOCTYPE svg PUBLIC "-//W3C//DTD SVG 1.1//EN"
 "http://www.w3.org/Graphics/SVG/1.1/DTD/svg11.dtd">
<!-- Generated by graphviz version 2.36.0 (20140111.2315)
 -->
<!-- Title: setup Pages: 1 -->
<svg width="642pt" height="96pt"
 viewBox="0.00 0.00 642.00 96.00" xmlns="http://www.w3.org/2000/svg" xmlns:xlink="http://www.w3.org/1999/xlink">
<g id="graph0" class="graph" transform="scale(1 1) rotate(0) translate(4 92)">
<title>setup</title>
<polygon fill="white" stroke="none" points="-4,4 -4,-92 638,-92 638,4 -4,4"/>
<!-- Node1 -->
<g id="node1" class="node"><title>Node1</title>
<polygon fill="#bfbfbf" stroke="black" points="0.5,-28.5 0.5,-47.5 41.5,-47.5 41.5,-28.5 0.5,-28.5"/>
<text text-anchor="middle" x="21" y="-35.5" font-family="Helvetica,sans-Serif" font-size="10.00">setup</text>
</g>
<!-- Node2 -->
<g id="node2" class="node"><title>Node2</title>
<g id="a_node2"><a xlink:href="$classAP__HAL_1_1Print.html#ad337ce3f7977411b7d34d47a51e5737e" xlink:title="AP_HAL::Print::println">
<polygon fill="white" stroke="black" points="78.5,-49.5 78.5,-68.5 191.5,-68.5 191.5,-49.5 78.5,-49.5"/>
<text text-anchor="middle" x="135" y="-56.5" font-family="Helvetica,sans-Serif" font-size="10.00">AP_HAL::Print::println</text>
</a>
</g>
</g>
<!-- Node1&#45;&gt;Node2 -->
<g id="edge1" class="edge"><title>Node1&#45;&gt;Node2</title>
<path fill="none" stroke="midnightblue" d="M41.5089,-41.6579C50.4281,-43.3303 61.5348,-45.4128 72.9238,-47.5482"/>
<polygon fill="midnightblue" stroke="midnightblue" points="72.4834,-51.0265 82.9571,-49.4295 73.7734,-44.1464 72.4834,-51.0265"/>
</g>
<!-- Node6 -->
<g id="node6" class="node"><title>Node6</title>
<g id="a_node6"><a xlink:href="$classGCS__MAVLINK.html#afaf4b53bc2f64b4fb6bd1fe729b2cef3" xlink:title="GCS_MAVLINK::init">
<polygon fill="white" stroke="black" points="81.5,-8.5 81.5,-27.5 188.5,-27.5 188.5,-8.5 81.5,-8.5"/>
<text text-anchor="middle" x="135" y="-15.5" font-family="Helvetica,sans-Serif" font-size="10.00">GCS_MAVLINK::init</text>
</a>
</g>
</g>
<!-- Node1&#45;&gt;Node6 -->
<g id="edge6" class="edge"><title>Node1&#45;&gt;Node6</title>
<path fill="none" stroke="midnightblue" d="M41.5089,-34.5163C49.9541,-33.0082 60.3605,-31.1499 71.1108,-29.2302"/>
<polygon fill="midnightblue" stroke="midnightblue" points="71.8049,-32.6617 81.0338,-27.4582 70.5743,-25.7707 71.8049,-32.6617"/>
</g>
<!-- Node3 -->
<g id="node3" class="node"><title>Node3</title>
<g id="a_node3"><a xlink:href="$classAP__HAL_1_1Print.html#acfe80773011eb17dfb52c2fba517a093" xlink:title="AP_HAL::Print::print">
<polygon fill="white" stroke="black" points="382,-68.5 382,-87.5 488,-87.5 488,-68.5 382,-68.5"/>
<text text-anchor="middle" x="435" y="-75.5" font-family="Helvetica,sans-Serif" font-size="10.00">AP_HAL::Print::print</text>
</a>
</g>
</g>
<!-- Node2&#45;&gt;Node3 -->
<g id="edge2" class="edge"><title>Node2&#45;&gt;Node3</title>
<path fill="none" stroke="midnightblue" d="M173.331,-68.5094C189.947,-72.2743 209.828,-76.1432 228,-78 276.051,-82.9099 330.736,-82.6393 371.682,-81.2877"/>
<polygon fill="midnightblue" stroke="midnightblue" points="371.916,-84.7816 381.783,-80.9233 371.663,-77.7862 371.916,-84.7816"/>
</g>
<!-- Node5 -->
<g id="node5" class="node"><title>Node5</title>
<g id="a_node5"><a xlink:href="$classAP__HAL_1_1Print.html#a169b128f9e22f0c15883768f580541a2" xlink:title="AP_HAL::Print::println">
<polygon fill="white" stroke="black" points="229.5,-49.5 229.5,-68.5 342.5,-68.5 342.5,-49.5 229.5,-49.5"/>
<text text-anchor="middle" x="286" y="-56.5" font-family="Helvetica,sans-Serif" font-size="10.00">AP_HAL::Print::println</text>
</a>
</g>
</g>
<!-- Node2&#45;&gt;Node5 -->
<g id="edge4" class="edge"><title>Node2&#45;&gt;Node5</title>
<path fill="none" stroke="midnightblue" d="M191.906,-59C200.786,-59 210.042,-59 219.124,-59"/>
<polygon fill="midnightblue" stroke="midnightblue" points="219.276,-62.5001 229.276,-59 219.276,-55.5001 219.276,-62.5001"/>
</g>
<!-- Node4 -->
<g id="node4" class="node"><title>Node4</title>
<g id="a_node4"><a xlink:href="$classAP__HAL_1_1Print.html#acc65391952a43334f8f5c9bef341f501" xlink:title="AP_HAL::Print::write">
<polygon fill="white" stroke="black" points="526,-68.5 526,-87.5 634,-87.5 634,-68.5 526,-68.5"/>
<text text-anchor="middle" x="580" y="-75.5" font-family="Helvetica,sans-Serif" font-size="10.00">AP_HAL::Print::write</text>
</a>
</g>
</g>
<!-- Node3&#45;&gt;Node4 -->
<g id="edge3" class="edge"><title>Node3&#45;&gt;Node4</title>
<path fill="none" stroke="midnightblue" d="M488.031,-78C496.966,-78 506.341,-78 515.536,-78"/>
<polygon fill="midnightblue" stroke="midnightblue" points="515.808,-81.5001 525.808,-78 515.808,-74.5001 515.808,-81.5001"/>
</g>
<!-- Node5&#45;&gt;Node3 -->
<g id="edge5" class="edge"><title>Node5&#45;&gt;Node3</title>
<path fill="none" stroke="midnightblue" d="M342.574,-66.1831C352.109,-67.4154 362.071,-68.7031 371.766,-69.9562"/>
<polygon fill="midnightblue" stroke="midnightblue" points="371.377,-73.4349 381.743,-71.2457 372.274,-66.4927 371.377,-73.4349"/>
</g>
<!-- Node7 -->
<g id="node7" class="node"><title>Node7</title>
<g id="a_node7"><a xlink:href="$classGCS__MAVLINK.html#af5e92e687223f8a102363b90f325e612" xlink:title="GCS_MAVLINK::reset\l_cli_timeout">
<polygon fill="white" stroke="black" points="228,-0 228,-30 344,-30 344,-0 228,-0"/>
<text text-anchor="start" x="236" y="-18" font-family="Helvetica,sans-Serif" font-size="10.00">GCS_MAVLINK::reset</text>
<text text-anchor="middle" x="286" y="-7" font-family="Helvetica,sans-Serif" font-size="10.00">_cli_timeout</text>
</a>
</g>
</g>
<!-- Node6&#45;&gt;Node7 -->
<g id="edge7" class="edge"><title>Node6&#45;&gt;Node7</title>
<path fill="none" stroke="midnightblue" d="M188.532,-16.9423C197.984,-16.752 207.954,-16.5513 217.755,-16.3539"/>
<polygon fill="midnightblue" stroke="midnightblue" points="217.951,-19.8508 227.879,-16.1501 217.81,-12.8522 217.951,-19.8508"/>
</g>
<!-- Node8 -->
<g id="node8" class="node"><title>Node8</title>
<g id="a_node8"><a xlink:href="$classAP__HAL_1_1Scheduler.html#a26b68339fc68a562d8d3a1238d0ec8c1" xlink:title="AP_HAL::Scheduler::\lmillis">
<polygon fill="white" stroke="black" points="380,-0 380,-30 490,-30 490,-0 380,-0"/>
<text text-anchor="start" x="388" y="-18" font-family="Helvetica,sans-Serif" font-size="10.00">AP_HAL::Scheduler::</text>
<text text-anchor="middle" x="435" y="-7" font-family="Helvetica,sans-Serif" font-size="10.00">millis</text>
</a>
</g>
</g>
<!-- Node7&#45;&gt;Node8 -->
<g id="edge8" class="edge"><title>Node7&#45;&gt;Node8</title>
<path fill="none" stroke="midnightblue" d="M344.255,-15C352.508,-15 361.049,-15 369.432,-15"/>
<polygon fill="midnightblue" stroke="midnightblue" points="369.55,-18.5001 379.55,-15 369.55,-11.5001 369.55,-18.5001"/>
</g>
</g>
</svg>
