<?xml version="1.0" encoding="UTF-8" standalone="no"?>
<!DOCTYPE svg PUBLIC "-//W3C//DTD SVG 1.1//EN"
 "http://www.w3.org/Graphics/SVG/1.1/DTD/svg11.dtd">
<!-- Generated by graphviz version 2.36.0 (20140111.2315)
 -->
<!-- Title: libraries/AP_HAL_Linux/sbus.cpp Pages: 1 -->
<svg width="195pt" height="96pt"
 viewBox="0.00 0.00 195.00 96.00" xmlns="http://www.w3.org/2000/svg" xmlns:xlink="http://www.w3.org/1999/xlink">
<g id="graph0" class="graph" transform="scale(1 1) rotate(0) translate(4 92)">
<title>libraries/AP_HAL_Linux/sbus.cpp</title>
<polygon fill="white" stroke="none" points="-4,4 -4,-92 191,-92 191,4 -4,4"/>
<!-- Node1 -->
<g id="node1" class="node"><title>Node1</title>
<polygon fill="#bfbfbf" stroke="black" points="35,-57 35,-87 155,-87 155,-57 35,-57"/>
<text text-anchor="start" x="43" y="-75" font-family="Helvetica,sans-Serif" font-size="10.00">libraries/AP_HAL_Linux</text>
<text text-anchor="middle" x="95" y="-64" font-family="Helvetica,sans-Serif" font-size="10.00">/sbus.cpp</text>
</g>
<!-- Node2 -->
<g id="node2" class="node"><title>Node2</title>
<polygon fill="white" stroke="#bfbfbf" points="-0.5,-0.5 -0.5,-19.5 48.5,-19.5 48.5,-0.5 -0.5,-0.5"/>
<text text-anchor="middle" x="24" y="-7.5" font-family="Helvetica,sans-Serif" font-size="10.00">stdint.h</text>
</g>
<!-- Node1&#45;&gt;Node2 -->
<g id="edge1" class="edge"><title>Node1&#45;&gt;Node2</title>
<path fill="none" stroke="midnightblue" d="M78.174,-56.7808C67.325,-47.6127 53.2233,-35.6957 42.127,-26.3186"/>
<polygon fill="midnightblue" stroke="midnightblue" points="44.2282,-23.5119 34.3311,-19.7305 39.71,-28.8585 44.2282,-23.5119"/>
</g>
<!-- Node3 -->
<g id="node3" class="node"><title>Node3</title>
<polygon fill="white" stroke="#bfbfbf" points="67,-0.5 67,-19.5 123,-19.5 123,-0.5 67,-0.5"/>
<text text-anchor="middle" x="95" y="-7.5" font-family="Helvetica,sans-Serif" font-size="10.00">stdbool.h</text>
</g>
<!-- Node1&#45;&gt;Node3 -->
<g id="edge2" class="edge"><title>Node1&#45;&gt;Node3</title>
<path fill="none" stroke="midnightblue" d="M95,-56.7808C95,-48.7812 95,-38.6887 95,-30.0168"/>
<polygon fill="midnightblue" stroke="midnightblue" points="98.5001,-29.7305 95,-19.7305 91.5001,-29.7306 98.5001,-29.7305"/>
</g>
<!-- Node4 -->
<g id="node4" class="node"><title>Node4</title>
<g id="a_node4"><a xlink:href="$sbus_8h.html" xlink:title="sbus.h">
<polygon fill="white" stroke="black" points="141,-0.5 141,-19.5 187,-19.5 187,-0.5 141,-0.5"/>
<text text-anchor="middle" x="164" y="-7.5" font-family="Helvetica,sans-Serif" font-size="10.00">sbus.h</text>
</a>
</g>
</g>
<!-- Node1&#45;&gt;Node4 -->
<g id="edge3" class="edge"><title>Node1&#45;&gt;Node4</title>
<path fill="none" stroke="midnightblue" d="M111.352,-56.7808C121.895,-47.6127 135.6,-35.6957 146.384,-26.3186"/>
<polygon fill="midnightblue" stroke="midnightblue" points="148.71,-28.9335 153.96,-19.7305 144.117,-23.6512 148.71,-28.9335"/>
</g>
</g>
</svg>
