<?xml version="1.0" encoding="UTF-8" standalone="no"?>
<!DOCTYPE svg PUBLIC "-//W3C//DTD SVG 1.1//EN"
 "http://www.w3.org/Graphics/SVG/1.1/DTD/svg11.dtd">
<!-- Generated by graphviz version 2.36.0 (20140111.2315)
 -->
<!-- Title: try_send_statustext Pages: 1 -->
<svg width="420pt" height="28pt"
 viewBox="0.00 0.00 420.00 28.00" xmlns="http://www.w3.org/2000/svg" xmlns:xlink="http://www.w3.org/1999/xlink">
<g id="graph0" class="graph" transform="scale(1 1) rotate(0) translate(4 24)">
<title>try_send_statustext</title>
<polygon fill="white" stroke="none" points="-4,4 -4,-24 416,-24 416,4 -4,4"/>
<!-- Node1 -->
<g id="node1" class="node"><title>Node1</title>
<polygon fill="#bfbfbf" stroke="black" points="0.5,-0.5 0.5,-19.5 103.5,-19.5 103.5,-0.5 0.5,-0.5"/>
<text text-anchor="middle" x="52" y="-7.5" font-family="Helvetica,sans-Serif" font-size="10.00">try_send_statustext</text>
</g>
<!-- Node2 -->
<g id="node2" class="node"><title>Node2</title>
<g id="a_node2"><a xlink:href="$GCS__MAVLink_8cpp.html#a2a0fd455fd37f642e9eb67373a14b7d9" xlink:title="comm_get_txspace">
<polygon fill="white" stroke="black" points="140,-0.5 140,-19.5 242,-19.5 242,-0.5 140,-0.5"/>
<text text-anchor="middle" x="191" y="-7.5" font-family="Helvetica,sans-Serif" font-size="10.00">comm_get_txspace</text>
</a>
</g>
</g>
<!-- Node1&#45;&gt;Node2 -->
<g id="edge1" class="edge"><title>Node1&#45;&gt;Node2</title>
<path fill="none" stroke="midnightblue" d="M103.625,-10C112.061,-10 120.887,-10 129.54,-10"/>
<polygon fill="midnightblue" stroke="midnightblue" points="129.584,-13.5001 139.584,-10 129.584,-6.5001 129.584,-13.5001"/>
</g>
<!-- Node3 -->
<g id="node3" class="node"><title>Node3</title>
<g id="a_node3"><a xlink:href="$classAP__HAL_1_1Stream.html#a7028834212873394e906bcaf7f4a06b3" xlink:title="AP_HAL::Stream::txspace">
<polygon fill="white" stroke="black" points="278.5,-0.5 278.5,-19.5 411.5,-19.5 411.5,-0.5 278.5,-0.5"/>
<text text-anchor="middle" x="345" y="-7.5" font-family="Helvetica,sans-Serif" font-size="10.00">AP_HAL::Stream::txspace</text>
</a>
</g>
</g>
<!-- Node2&#45;&gt;Node3 -->
<g id="edge2" class="edge"><title>Node2&#45;&gt;Node3</title>
<path fill="none" stroke="midnightblue" d="M242.192,-10C250.611,-10 259.509,-10 268.4,-10"/>
<polygon fill="midnightblue" stroke="midnightblue" points="268.41,-13.5001 278.41,-10 268.41,-6.5001 268.41,-13.5001"/>
</g>
</g>
</svg>
