<?xml version="1.0" encoding="UTF-8" standalone="no"?>
<!DOCTYPE svg PUBLIC "-//W3C//DTD SVG 1.1//EN"
 "http://www.w3.org/Graphics/SVG/1.1/DTD/svg11.dtd">
<!-- Generated by graphviz version 2.36.0 (20140111.2315)
 -->
<!-- Title: libraries/AP_HAL_SITL/Storage.h Pages: 1 -->
<svg width="408pt" height="108pt"
 viewBox="0.00 0.00 408.00 108.00" xmlns="http://www.w3.org/2000/svg" xmlns:xlink="http://www.w3.org/1999/xlink">
<g id="graph0" class="graph" transform="scale(1 1) rotate(0) translate(4 104)">
<title>libraries/AP_HAL_SITL/Storage.h</title>
<polygon fill="white" stroke="none" points="-4,4 -4,-104 404,-104 404,4 -4,4"/>
<!-- Node1 -->
<g id="node1" class="node"><title>Node1</title>
<polygon fill="#bfbfbf" stroke="black" points="146,-69 146,-99 264,-99 264,-69 146,-69"/>
<text text-anchor="start" x="154" y="-87" font-family="Helvetica,sans-Serif" font-size="10.00">libraries/AP_HAL_SITL</text>
<text text-anchor="middle" x="205" y="-76" font-family="Helvetica,sans-Serif" font-size="10.00">/Storage.h</text>
</g>
<!-- Node2 -->
<g id="node2" class="node"><title>Node2</title>
<g id="a_node2"><a xlink:href="$AP__HAL__SITL__Private_8h.html" xlink:title="libraries/AP_HAL_SITL\l/AP_HAL_SITL_Private.h">
<polygon fill="white" stroke="black" points="0,-1 0,-31 128,-31 128,-1 0,-1"/>
<text text-anchor="start" x="8" y="-19" font-family="Helvetica,sans-Serif" font-size="10.00">libraries/AP_HAL_SITL</text>
<text text-anchor="middle" x="64" y="-8" font-family="Helvetica,sans-Serif" font-size="10.00">/AP_HAL_SITL_Private.h</text>
</a>
</g>
</g>
<!-- Node1&#45;&gt;Node2 -->
<g id="edge1" class="edge"><title>Node1&#45;&gt;Node2</title>
<path fill="none" stroke="midnightblue" d="M165.436,-64.4805C142.859,-53.9128 115.003,-40.8738 94.198,-31.1352"/>
<polygon fill="midnightblue" stroke="midnightblue" points="164.211,-67.7718 174.752,-68.8413 167.179,-61.432 164.211,-67.7718"/>
</g>
<!-- Node3 -->
<g id="node3" class="node"><title>Node3</title>
<g id="a_node3"><a xlink:href="$HAL__SITL__Class_8cpp.html" xlink:title="libraries/AP_HAL_SITL\l/HAL_SITL_Class.cpp">
<polygon fill="white" stroke="black" points="146,-1 146,-31 264,-31 264,-1 146,-1"/>
<text text-anchor="start" x="154" y="-19" font-family="Helvetica,sans-Serif" font-size="10.00">libraries/AP_HAL_SITL</text>
<text text-anchor="middle" x="205" y="-8" font-family="Helvetica,sans-Serif" font-size="10.00">/HAL_SITL_Class.cpp</text>
</a>
</g>
</g>
<!-- Node1&#45;&gt;Node3 -->
<g id="edge2" class="edge"><title>Node1&#45;&gt;Node3</title>
<path fill="none" stroke="midnightblue" d="M205,-58.5322C205,-49.3606 205,-39.2449 205,-31.2931"/>
<polygon fill="midnightblue" stroke="midnightblue" points="201.5,-58.6789 205,-68.679 208.5,-58.679 201.5,-58.6789"/>
</g>
<!-- Node4 -->
<g id="node4" class="node"><title>Node4</title>
<g id="a_node4"><a xlink:href="$AP__HAL__SITL_2Storage_8cpp.html" xlink:title="libraries/AP_HAL_SITL\l/Storage.cpp">
<polygon fill="white" stroke="black" points="282,-1 282,-31 400,-31 400,-1 282,-1"/>
<text text-anchor="start" x="290" y="-19" font-family="Helvetica,sans-Serif" font-size="10.00">libraries/AP_HAL_SITL</text>
<text text-anchor="middle" x="341" y="-8" font-family="Helvetica,sans-Serif" font-size="10.00">/Storage.cpp</text>
</a>
</g>
</g>
<!-- Node1&#45;&gt;Node4 -->
<g id="edge3" class="edge"><title>Node1&#45;&gt;Node4</title>
<path fill="none" stroke="midnightblue" d="M243.453,-64.3388C265.177,-53.7964 291.895,-40.8303 311.873,-31.1352"/>
<polygon fill="midnightblue" stroke="midnightblue" points="241.644,-61.3265 234.175,-68.8413 244.7,-67.6241 241.644,-61.3265"/>
</g>
</g>
</svg>
