<?xml version="1.0" encoding="UTF-8" standalone="no"?>
<!DOCTYPE svg PUBLIC "-//W3C//DTD SVG 1.1//EN"
 "http://www.w3.org/Graphics/SVG/1.1/DTD/svg11.dtd">
<!-- Generated by graphviz version 2.36.0 (20140111.2315)
 -->
<!-- Title: gps_time Pages: 1 -->
<svg width="998pt" height="136pt"
 viewBox="0.00 0.00 998.00 136.00" xmlns="http://www.w3.org/2000/svg" xmlns:xlink="http://www.w3.org/1999/xlink">
<g id="graph0" class="graph" transform="scale(1 1) rotate(0) translate(4 132)">
<title>gps_time</title>
<polygon fill="white" stroke="none" points="-4,4 -4,-132 994,-132 994,4 -4,4"/>
<!-- Node1 -->
<g id="node1" class="node"><title>Node1</title>
<polygon fill="#bfbfbf" stroke="black" points="0,-54.5 0,-73.5 56,-73.5 56,-54.5 0,-54.5"/>
<text text-anchor="middle" x="28" y="-61.5" font-family="Helvetica,sans-Serif" font-size="10.00">gps_time</text>
</g>
<!-- Node2 -->
<g id="node2" class="node"><title>Node2</title>
<g id="a_node2"><a xlink:href="$classHALSITL_1_1SITL__State.html#aadf357ffa283bbacb6d43df78ad032ba" xlink:title="HALSITL::SITL_State\l::_update_gps_sbp">
<polygon fill="white" stroke="black" points="92.5,-98 92.5,-128 205.5,-128 205.5,-98 92.5,-98"/>
<text text-anchor="start" x="100.5" y="-116" font-family="Helvetica,sans-Serif" font-size="10.00">HALSITL::SITL_State</text>
<text text-anchor="middle" x="149" y="-105" font-family="Helvetica,sans-Serif" font-size="10.00">::_update_gps_sbp</text>
</a>
</g>
</g>
<!-- Node1&#45;&gt;Node2 -->
<g id="edge1" class="edge"><title>Node1&#45;&gt;Node2</title>
<path fill="none" stroke="midnightblue" d="M61.8141,-77.5117C77.1442,-83.8241 95.4553,-91.364 111.249,-97.8672"/>
<polygon fill="midnightblue" stroke="midnightblue" points="62.8063,-74.1352 52.2269,-73.564 60.141,-80.6079 62.8063,-74.1352"/>
</g>
<!-- Node12 -->
<g id="node12" class="node"><title>Node12</title>
<g id="a_node12"><a xlink:href="$classHALSITL_1_1SITL__State.html#ae951381abd36ab24c6a4311ebf78a8e9" xlink:title="HALSITL::SITL_State\l::_update_gps_ubx">
<polygon fill="white" stroke="black" points="92.5,-49 92.5,-79 205.5,-79 205.5,-49 92.5,-49"/>
<text text-anchor="start" x="100.5" y="-67" font-family="Helvetica,sans-Serif" font-size="10.00">HALSITL::SITL_State</text>
<text text-anchor="middle" x="149" y="-56" font-family="Helvetica,sans-Serif" font-size="10.00">::_update_gps_ubx</text>
</a>
</g>
</g>
<!-- Node1&#45;&gt;Node12 -->
<g id="edge11" class="edge"><title>Node1&#45;&gt;Node12</title>
<path fill="none" stroke="midnightblue" d="M66.1405,-64C74.4812,-64 83.5078,-64 92.4169,-64"/>
<polygon fill="midnightblue" stroke="midnightblue" points="66.003,-60.5001 56.0029,-64 66.0029,-67.5001 66.003,-60.5001"/>
</g>
<!-- Node13 -->
<g id="node13" class="node"><title>Node13</title>
<g id="a_node13"><a xlink:href="$classDataFlash__Class.html#aedee68bf7de37e2ce874dce5651ae5a4" xlink:title="DataFlash_Class::Log\l_Write_Camera">
<polygon fill="white" stroke="black" points="92,-0 92,-30 206,-30 206,-0 92,-0"/>
<text text-anchor="start" x="100" y="-18" font-family="Helvetica,sans-Serif" font-size="10.00">DataFlash_Class::Log</text>
<text text-anchor="middle" x="149" y="-7" font-family="Helvetica,sans-Serif" font-size="10.00">_Write_Camera</text>
</a>
</g>
</g>
<!-- Node1&#45;&gt;Node13 -->
<g id="edge13" class="edge"><title>Node1&#45;&gt;Node13</title>
<path fill="none" stroke="midnightblue" d="M61.8141,-50.4883C77.1442,-44.1759 95.4553,-36.636 111.249,-30.1328"/>
<polygon fill="midnightblue" stroke="midnightblue" points="60.141,-47.3921 52.2269,-54.436 62.8063,-53.8648 60.141,-47.3921"/>
</g>
<!-- Node3 -->
<g id="node3" class="node"><title>Node3</title>
<g id="a_node3"><a xlink:href="$classHALSITL_1_1SITL__State.html#a09b6857a6f87a51390d4e045cb671207" xlink:title="HALSITL::SITL_State\l::_update_gps">
<polygon fill="white" stroke="black" points="242.5,-73 242.5,-103 355.5,-103 355.5,-73 242.5,-73"/>
<text text-anchor="start" x="250.5" y="-91" font-family="Helvetica,sans-Serif" font-size="10.00">HALSITL::SITL_State</text>
<text text-anchor="middle" x="299" y="-80" font-family="Helvetica,sans-Serif" font-size="10.00">::_update_gps</text>
</a>
</g>
</g>
<!-- Node2&#45;&gt;Node3 -->
<g id="edge2" class="edge"><title>Node2&#45;&gt;Node3</title>
<path fill="none" stroke="midnightblue" d="M215.481,-101.939C224.381,-100.436 233.449,-98.904 242.158,-97.4328"/>
<polygon fill="midnightblue" stroke="midnightblue" points="214.808,-98.503 205.531,-103.62 215.974,-105.405 214.808,-98.503"/>
</g>
<!-- Node4 -->
<g id="node4" class="node"><title>Node4</title>
<g id="a_node4"><a xlink:href="$classHALSITL_1_1SITL__State.html#a431cc90b2798830af85bcd65d0dade9f" xlink:title="HALSITL::SITL_State\l::_sitl_setup">
<polygon fill="white" stroke="black" points="392.5,-98 392.5,-128 505.5,-128 505.5,-98 392.5,-98"/>
<text text-anchor="start" x="400.5" y="-116" font-family="Helvetica,sans-Serif" font-size="10.00">HALSITL::SITL_State</text>
<text text-anchor="middle" x="449" y="-105" font-family="Helvetica,sans-Serif" font-size="10.00">::_sitl_setup</text>
</a>
</g>
</g>
<!-- Node3&#45;&gt;Node4 -->
<g id="edge3" class="edge"><title>Node3&#45;&gt;Node4</title>
<path fill="none" stroke="midnightblue" d="M365.481,-99.061C374.381,-100.564 383.449,-102.096 392.158,-103.567"/>
<polygon fill="midnightblue" stroke="midnightblue" points="365.974,-95.5948 355.531,-97.3802 364.808,-102.497 365.974,-95.5948"/>
</g>
<!-- Node8 -->
<g id="node8" class="node"><title>Node8</title>
<g id="a_node8"><a xlink:href="$classHALSITL_1_1SITL__State.html#ae31c93a26ca780bb508dded2498e2e93" xlink:title="HALSITL::SITL_State\l::_fdm_input_step">
<polygon fill="white" stroke="black" points="392.5,-49 392.5,-79 505.5,-79 505.5,-49 392.5,-49"/>
<text text-anchor="start" x="400.5" y="-67" font-family="Helvetica,sans-Serif" font-size="10.00">HALSITL::SITL_State</text>
<text text-anchor="middle" x="449" y="-56" font-family="Helvetica,sans-Serif" font-size="10.00">::_fdm_input_step</text>
</a>
</g>
</g>
<!-- Node3&#45;&gt;Node8 -->
<g id="edge7" class="edge"><title>Node3&#45;&gt;Node8</title>
<path fill="none" stroke="midnightblue" d="M365.481,-77.3815C374.381,-75.9381 383.449,-74.4678 392.158,-73.0555"/>
<polygon fill="midnightblue" stroke="midnightblue" points="364.842,-73.9393 355.531,-78.995 365.962,-80.8491 364.842,-73.9393"/>
</g>
<!-- Node5 -->
<g id="node5" class="node"><title>Node5</title>
<g id="a_node5"><a xlink:href="$classHALSITL_1_1SITL__State.html#a5211ba971055052489d9817c3388c4c2" xlink:title="HALSITL::SITL_State\l::_parse_command_line">
<polygon fill="white" stroke="black" points="542,-98 542,-128 662,-128 662,-98 542,-98"/>
<text text-anchor="start" x="550" y="-116" font-family="Helvetica,sans-Serif" font-size="10.00">HALSITL::SITL_State</text>
<text text-anchor="middle" x="602" y="-105" font-family="Helvetica,sans-Serif" font-size="10.00">::_parse_command_line</text>
</a>
</g>
</g>
<!-- Node4&#45;&gt;Node5 -->
<g id="edge4" class="edge"><title>Node4&#45;&gt;Node5</title>
<path fill="none" stroke="midnightblue" d="M515.857,-113C524.516,-113 533.348,-113 541.886,-113"/>
<polygon fill="midnightblue" stroke="midnightblue" points="515.798,-109.5 505.798,-113 515.798,-116.5 515.798,-109.5"/>
</g>
<!-- Node6 -->
<g id="node6" class="node"><title>Node6</title>
<g id="a_node6"><a xlink:href="$classHALSITL_1_1SITL__State.html#a7059cb4e279007aae9b06757a68c15af" xlink:title="HALSITL::SITL_State\l::init">
<polygon fill="white" stroke="black" points="705.5,-98 705.5,-128 818.5,-128 818.5,-98 705.5,-98"/>
<text text-anchor="start" x="713.5" y="-116" font-family="Helvetica,sans-Serif" font-size="10.00">HALSITL::SITL_State</text>
<text text-anchor="middle" x="762" y="-105" font-family="Helvetica,sans-Serif" font-size="10.00">::init</text>
</a>
</g>
</g>
<!-- Node5&#45;&gt;Node6 -->
<g id="edge5" class="edge"><title>Node5&#45;&gt;Node6</title>
<path fill="none" stroke="midnightblue" d="M672.318,-113C683.35,-113 694.639,-113 705.305,-113"/>
<polygon fill="midnightblue" stroke="midnightblue" points="672.283,-109.5 662.283,-113 672.283,-116.5 672.283,-109.5"/>
</g>
<!-- Node7 -->
<g id="node7" class="node"><title>Node7</title>
<g id="a_node7"><a xlink:href="$classHAL__SITL.html#aaee5180f1c92899c19422d24a3ec42d3" xlink:title="HAL_SITL::init">
<polygon fill="white" stroke="black" points="885.5,-103.5 885.5,-122.5 966.5,-122.5 966.5,-103.5 885.5,-103.5"/>
<text text-anchor="middle" x="926" y="-110.5" font-family="Helvetica,sans-Serif" font-size="10.00">HAL_SITL::init</text>
</a>
</g>
</g>
<!-- Node6&#45;&gt;Node7 -->
<g id="edge6" class="edge"><title>Node6&#45;&gt;Node7</title>
<path fill="none" stroke="midnightblue" d="M828.956,-113C848.141,-113 868.492,-113 885.5,-113"/>
<polygon fill="midnightblue" stroke="midnightblue" points="828.751,-109.5 818.751,-113 828.751,-116.5 828.751,-109.5"/>
</g>
<!-- Node9 -->
<g id="node9" class="node"><title>Node9</title>
<g id="a_node9"><a xlink:href="$classHALSITL_1_1SITL__State.html#a3eeaf330efded46259bbf64fc53e6b9f" xlink:title="HALSITL::SITL_State\l::wait_clock">
<polygon fill="white" stroke="black" points="545.5,-49 545.5,-79 658.5,-79 658.5,-49 545.5,-49"/>
<text text-anchor="start" x="553.5" y="-67" font-family="Helvetica,sans-Serif" font-size="10.00">HALSITL::SITL_State</text>
<text text-anchor="middle" x="602" y="-56" font-family="Helvetica,sans-Serif" font-size="10.00">::wait_clock</text>
</a>
</g>
</g>
<!-- Node8&#45;&gt;Node9 -->
<g id="edge8" class="edge"><title>Node8&#45;&gt;Node9</title>
<path fill="none" stroke="midnightblue" d="M515.941,-64C525.779,-64 535.837,-64 545.432,-64"/>
<polygon fill="midnightblue" stroke="midnightblue" points="515.798,-60.5001 505.798,-64 515.798,-67.5001 515.798,-60.5001"/>
</g>
<!-- Node10 -->
<g id="node10" class="node"><title>Node10</title>
<g id="a_node10"><a xlink:href="$classHALSITL_1_1SITLScheduler.html#a4128e7f01b3e88fcb890ed98d91e9b10" xlink:title="HALSITL::SITLScheduler\l::delay_microseconds">
<polygon fill="white" stroke="black" points="698,-49 698,-79 826,-79 826,-49 698,-49"/>
<text text-anchor="start" x="706" y="-67" font-family="Helvetica,sans-Serif" font-size="10.00">HALSITL::SITLScheduler</text>
<text text-anchor="middle" x="762" y="-56" font-family="Helvetica,sans-Serif" font-size="10.00">::delay_microseconds</text>
</a>
</g>
</g>
<!-- Node9&#45;&gt;Node10 -->
<g id="edge9" class="edge"><title>Node9&#45;&gt;Node10</title>
<path fill="none" stroke="midnightblue" d="M668.988,-64C678.586,-64 688.447,-64 697.984,-64"/>
<polygon fill="midnightblue" stroke="midnightblue" points="668.705,-60.5001 658.705,-64 668.705,-67.5001 668.705,-60.5001"/>
</g>
<!-- Node11 -->
<g id="node11" class="node"><title>Node11</title>
<g id="a_node11"><a xlink:href="$classHALSITL_1_1SITLScheduler.html#af7f89d00311bc23d39e38d1a0861cc42" xlink:title="HALSITL::SITLScheduler\l::delay">
<polygon fill="white" stroke="black" points="862,-49 862,-79 990,-79 990,-49 862,-49"/>
<text text-anchor="start" x="870" y="-67" font-family="Helvetica,sans-Serif" font-size="10.00">HALSITL::SITLScheduler</text>
<text text-anchor="middle" x="926" y="-56" font-family="Helvetica,sans-Serif" font-size="10.00">::delay</text>
</a>
</g>
</g>
<!-- Node10&#45;&gt;Node11 -->
<g id="edge10" class="edge"><title>Node10&#45;&gt;Node11</title>
<path fill="none" stroke="midnightblue" d="M836.374,-64C844.865,-64 853.469,-64 861.808,-64"/>
<polygon fill="midnightblue" stroke="midnightblue" points="836.097,-60.5001 826.097,-64 836.097,-67.5001 836.097,-60.5001"/>
</g>
<!-- Node12&#45;&gt;Node3 -->
<g id="edge12" class="edge"><title>Node12&#45;&gt;Node3</title>
<path fill="none" stroke="midnightblue" d="M215.481,-74.6185C224.381,-76.0619 233.449,-77.5322 242.158,-78.9445"/>
<polygon fill="midnightblue" stroke="midnightblue" points="215.962,-71.1509 205.531,-73.005 214.842,-78.0607 215.962,-71.1509"/>
</g>
</g>
</svg>
