<?xml version="1.0" encoding="UTF-8" standalone="no"?>
<!DOCTYPE svg PUBLIC "-//W3C//DTD SVG 1.1//EN"
 "http://www.w3.org/Graphics/SVG/1.1/DTD/svg11.dtd">
<!-- Generated by graphviz version 2.36.0 (20140111.2315)
 -->
<!-- Title: libraries/AP_HAL_SITL/UARTDriver.h Pages: 1 -->
<svg width="1320pt" height="488pt"
 viewBox="0.00 0.00 1320.00 488.00" xmlns="http://www.w3.org/2000/svg" xmlns:xlink="http://www.w3.org/1999/xlink">
<g id="graph0" class="graph" transform="scale(1 1) rotate(0) translate(4 484)">
<title>libraries/AP_HAL_SITL/UARTDriver.h</title>
<polygon fill="white" stroke="none" points="-4,4 -4,-484 1316,-484 1316,4 -4,4"/>
<!-- Node1 -->
<g id="node1" class="node"><title>Node1</title>
<polygon fill="#bfbfbf" stroke="black" points="817,-449 817,-479 935,-479 935,-449 817,-449"/>
<text text-anchor="start" x="825" y="-467" font-family="Helvetica,sans-Serif" font-size="10.00">libraries/AP_HAL_SITL</text>
<text text-anchor="middle" x="876" y="-456" font-family="Helvetica,sans-Serif" font-size="10.00">/UARTDriver.h</text>
</g>
<!-- Node2 -->
<g id="node2" class="node"><title>Node2</title>
<g id="a_node2"><a xlink:href="$AP__HAL_8h.html" xlink:title="AP_HAL.h">
<polygon fill="white" stroke="black" points="583.5,-392.5 583.5,-411.5 646.5,-411.5 646.5,-392.5 583.5,-392.5"/>
<text text-anchor="middle" x="615" y="-399.5" font-family="Helvetica,sans-Serif" font-size="10.00">AP_HAL.h</text>
</a>
</g>
</g>
<!-- Node1&#45;&gt;Node2 -->
<g id="edge1" class="edge"><title>Node1&#45;&gt;Node2</title>
<path fill="none" stroke="midnightblue" d="M816.775,-449.385C767.902,-438.15 699.79,-422.492 656.546,-412.551"/>
<polygon fill="midnightblue" stroke="midnightblue" points="657.177,-409.105 646.647,-410.275 655.609,-415.927 657.177,-409.105"/>
</g>
<!-- Node3 -->
<g id="node3" class="node"><title>Node3</title>
<polygon fill="white" stroke="#bfbfbf" points="120.5,-56.5 120.5,-75.5 169.5,-75.5 169.5,-56.5 120.5,-56.5"/>
<text text-anchor="middle" x="145" y="-63.5" font-family="Helvetica,sans-Serif" font-size="10.00">stdint.h</text>
</g>
<!-- Node1&#45;&gt;Node3 -->
<g id="edge66" class="edge"><title>Node1&#45;&gt;Node3</title>
<path fill="none" stroke="midnightblue" d="M816.821,-461.404C620.033,-455.321 0,-429.602 0,-347 0,-347 0,-347 0,-177 0,-121.713 67.7374,-90.6147 110.617,-76.4676"/>
<polygon fill="midnightblue" stroke="midnightblue" points="111.914,-79.7285 120.403,-73.3882 109.813,-73.0513 111.914,-79.7285"/>
</g>
<!-- Node12 -->
<g id="node12" class="node"><title>Node12</title>
<polygon fill="white" stroke="#bfbfbf" points="1056,-168.5 1056,-187.5 1108,-187.5 1108,-168.5 1056,-168.5"/>
<text text-anchor="middle" x="1082" y="-175.5" font-family="Helvetica,sans-Serif" font-size="10.00">stdarg.h</text>
</g>
<!-- Node1&#45;&gt;Node12 -->
<g id="edge67" class="edge"><title>Node1&#45;&gt;Node12</title>
<path fill="none" stroke="midnightblue" d="M913.892,-448.863C954.512,-432.074 1018.71,-400.616 1060,-356 1096.67,-316.379 1097.79,-297.191 1107,-244 1108.52,-235.242 1109.23,-232.605 1107,-224 1104.45,-214.175 1099.25,-204.212 1094.24,-196.166"/>
<polygon fill="midnightblue" stroke="midnightblue" points="1097.08,-194.114 1088.63,-187.725 1091.25,-197.99 1097.08,-194.114"/>
</g>
<!-- Node29 -->
<g id="node29" class="node"><title>Node29</title>
<g id="a_node29"><a xlink:href="$AP__HAL__SITL__Namespace_8h.html" xlink:title="AP_HAL_SITL_Namespace.h">
<polygon fill="white" stroke="black" points="1165.5,-392.5 1165.5,-411.5 1312.5,-411.5 1312.5,-392.5 1165.5,-392.5"/>
<text text-anchor="middle" x="1239" y="-399.5" font-family="Helvetica,sans-Serif" font-size="10.00">AP_HAL_SITL_Namespace.h</text>
</a>
</g>
</g>
<!-- Node1&#45;&gt;Node29 -->
<g id="edge68" class="edge"><title>Node1&#45;&gt;Node29</title>
<path fill="none" stroke="midnightblue" d="M935.13,-453.226C1001.82,-442.203 1109.77,-424.36 1177.44,-413.175"/>
<polygon fill="midnightblue" stroke="midnightblue" points="1178.24,-416.591 1187.53,-411.507 1177.1,-409.684 1178.24,-416.591"/>
</g>
<!-- Node2&#45;&gt;Node3 -->
<g id="edge2" class="edge"><title>Node2&#45;&gt;Node3</title>
<path fill="none" stroke="midnightblue" d="M583.462,-401.017C485.679,-400.64 189.019,-396.132 103,-356 65.9762,-338.727 38,-331.855 38,-291 38,-291 38,-291 38,-177 38,-131.413 85.8026,-97.6237 117.506,-80.2269"/>
<polygon fill="midnightblue" stroke="midnightblue" points="119.148,-83.3179 126.362,-75.5587 115.884,-77.1255 119.148,-83.3179"/>
</g>
<!-- Node4 -->
<g id="node4" class="node"><title>Node4</title>
<polygon fill="white" stroke="#bfbfbf" points="643,-336.5 643,-355.5 699,-355.5 699,-336.5 643,-336.5"/>
<text text-anchor="middle" x="671" y="-343.5" font-family="Helvetica,sans-Serif" font-size="10.00">stdbool.h</text>
</g>
<!-- Node2&#45;&gt;Node4 -->
<g id="edge3" class="edge"><title>Node2&#45;&gt;Node4</title>
<path fill="none" stroke="midnightblue" d="M623.997,-392.324C632.194,-384.42 644.506,-372.548 654.472,-362.938"/>
<polygon fill="midnightblue" stroke="midnightblue" points="657.07,-365.295 661.839,-355.834 652.211,-360.256 657.07,-365.295"/>
</g>
<!-- Node5 -->
<g id="node5" class="node"><title>Node5</title>
<g id="a_node5"><a xlink:href="$AP__HAL__Namespace_8h.html" xlink:title="AP_HAL_Namespace.h">
<polygon fill="white" stroke="black" points="519.5,-56.5 519.5,-75.5 640.5,-75.5 640.5,-56.5 519.5,-56.5"/>
<text text-anchor="middle" x="580" y="-63.5" font-family="Helvetica,sans-Serif" font-size="10.00">AP_HAL_Namespace.h</text>
</a>
</g>
</g>
<!-- Node2&#45;&gt;Node5 -->
<g id="edge4" class="edge"><title>Node2&#45;&gt;Node5</title>
<path fill="none" stroke="midnightblue" d="M646.757,-399.623C716.357,-396.099 879.811,-384.903 926,-356 1003.28,-307.644 1024.26,-257.695 1008,-168 1003.26,-141.845 1007.98,-128.32 987,-112 936.14,-72.4397 753.234,-66.3415 650.789,-66.1521"/>
<polygon fill="midnightblue" stroke="midnightblue" points="650.527,-62.652 640.527,-66.1524 650.527,-69.652 650.527,-62.652"/>
</g>
<!-- Node8 -->
<g id="node8" class="node"><title>Node8</title>
<g id="a_node8"><a xlink:href="$AP__HAL__Boards_8h.html" xlink:title="AP_HAL_Boards.h">
<polygon fill="white" stroke="black" points="646.5,-112.5 646.5,-131.5 745.5,-131.5 745.5,-112.5 646.5,-112.5"/>
<text text-anchor="middle" x="696" y="-119.5" font-family="Helvetica,sans-Serif" font-size="10.00">AP_HAL_Boards.h</text>
</a>
</g>
</g>
<!-- Node2&#45;&gt;Node8 -->
<g id="edge7" class="edge"><title>Node2&#45;&gt;Node8</title>
<path fill="none" stroke="midnightblue" d="M646.789,-399.012C700.287,-394.93 804.679,-383.556 827,-356 832.595,-349.093 830.489,-344.176 827,-336 803.805,-281.646 761.592,-294.562 731,-244 711.161,-211.212 702.083,-166.612 698.329,-141.737"/>
<polygon fill="midnightblue" stroke="midnightblue" points="701.755,-140.957 696.924,-131.528 694.82,-141.911 701.755,-140.957"/>
</g>
<!-- Node9 -->
<g id="node9" class="node"><title>Node9</title>
<g id="a_node9"><a xlink:href="$AP__HAL__Macros_8h.html" xlink:title="AP_HAL_Macros.h">
<polygon fill="white" stroke="black" points="717.5,-336.5 717.5,-355.5 818.5,-355.5 818.5,-336.5 717.5,-336.5"/>
<text text-anchor="middle" x="768" y="-343.5" font-family="Helvetica,sans-Serif" font-size="10.00">AP_HAL_Macros.h</text>
</a>
</g>
</g>
<!-- Node2&#45;&gt;Node9 -->
<g id="edge8" class="edge"><title>Node2&#45;&gt;Node9</title>
<path fill="none" stroke="midnightblue" d="M639.243,-392.444C664.871,-383.399 705.485,-369.064 734.238,-358.916"/>
<polygon fill="midnightblue" stroke="midnightblue" points="735.605,-362.145 743.87,-355.516 733.275,-355.544 735.605,-362.145"/>
</g>
<!-- Node10 -->
<g id="node10" class="node"><title>Node10</title>
<g id="a_node10"><a xlink:href="$UARTDriver_8h.html" xlink:title="UARTDriver.h">
<polygon fill="white" stroke="black" points="590.5,-280.5 590.5,-299.5 669.5,-299.5 669.5,-280.5 590.5,-280.5"/>
<text text-anchor="middle" x="630" y="-287.5" font-family="Helvetica,sans-Serif" font-size="10.00">UARTDriver.h</text>
</a>
</g>
</g>
<!-- Node2&#45;&gt;Node10 -->
<g id="edge9" class="edge"><title>Node2&#45;&gt;Node10</title>
<path fill="none" stroke="midnightblue" d="M610.48,-392.486C604.438,-379.97 595.134,-355.933 601,-336 604.012,-325.765 610.155,-315.66 616.014,-307.627"/>
<polygon fill="midnightblue" stroke="midnightblue" points="618.932,-309.577 622.327,-299.541 613.414,-305.269 618.932,-309.577"/>
</g>
<!-- Node11 -->
<g id="node11" class="node"><title>Node11</title>
<g id="a_node11"><a xlink:href="$BetterStream_8h.html" xlink:title="utility/BetterStream.h">
<polygon fill="white" stroke="black" points="840.5,-224.5 840.5,-243.5 949.5,-243.5 949.5,-224.5 840.5,-224.5"/>
<text text-anchor="middle" x="895" y="-231.5" font-family="Helvetica,sans-Serif" font-size="10.00">utility/BetterStream.h</text>
</a>
</g>
</g>
<!-- Node2&#45;&gt;Node11 -->
<g id="edge56" class="edge"><title>Node2&#45;&gt;Node11</title>
<path fill="none" stroke="midnightblue" d="M646.639,-400.19C709.847,-397.873 848.396,-389.055 880,-356 906.24,-328.556 903.072,-280.165 898.825,-253.656"/>
<polygon fill="midnightblue" stroke="midnightblue" points="902.258,-252.969 897.022,-243.759 895.371,-254.224 902.258,-252.969"/>
</g>
<!-- Node13 -->
<g id="node13" class="node"><title>Node13</title>
<g id="a_node13"><a xlink:href="$Stream_8h.html" xlink:title="Stream.h">
<polygon fill="white" stroke="black" points="944,-168.5 944,-187.5 1000,-187.5 1000,-168.5 944,-168.5"/>
<text text-anchor="middle" x="972" y="-175.5" font-family="Helvetica,sans-Serif" font-size="10.00">Stream.h</text>
</a>
</g>
</g>
<!-- Node2&#45;&gt;Node13 -->
<g id="edge55" class="edge"><title>Node2&#45;&gt;Node13</title>
<path fill="none" stroke="midnightblue" d="M646.687,-399.593C712.42,-396.112 860.836,-385.164 901,-356 953.218,-318.083 967.079,-235.303 970.721,-197.952"/>
<polygon fill="midnightblue" stroke="midnightblue" points="974.246,-197.79 971.58,-187.536 967.27,-197.214 974.246,-197.79"/>
</g>
<!-- Node14 -->
<g id="node14" class="node"><title>Node14</title>
<g id="a_node14"><a xlink:href="$Print_8h.html" xlink:title="Print.h">
<polygon fill="white" stroke="black" points="1151.5,-112.5 1151.5,-131.5 1196.5,-131.5 1196.5,-112.5 1151.5,-112.5"/>
<text text-anchor="middle" x="1174" y="-119.5" font-family="Helvetica,sans-Serif" font-size="10.00">Print.h</text>
</a>
</g>
</g>
<!-- Node2&#45;&gt;Node14 -->
<g id="edge54" class="edge"><title>Node2&#45;&gt;Node14</title>
<path fill="none" stroke="midnightblue" d="M646.585,-399.569C742.546,-394.981 1026.19,-379.546 1060,-356 1135.29,-303.57 1162.95,-187.019 1171.1,-141.614"/>
<polygon fill="midnightblue" stroke="midnightblue" points="1174.56,-142.128 1172.77,-131.686 1167.66,-140.967 1174.56,-142.128"/>
</g>
<!-- Node18 -->
<g id="node18" class="node"><title>Node18</title>
<g id="a_node18"><a xlink:href="$I2CDriver_8h.html" xlink:title="I2CDriver.h">
<polygon fill="white" stroke="black" points="142.5,-112.5 142.5,-131.5 209.5,-131.5 209.5,-112.5 142.5,-112.5"/>
<text text-anchor="middle" x="176" y="-119.5" font-family="Helvetica,sans-Serif" font-size="10.00">I2CDriver.h</text>
</a>
</g>
</g>
<!-- Node2&#45;&gt;Node18 -->
<g id="edge26" class="edge"><title>Node2&#45;&gt;Node18</title>
<path fill="none" stroke="midnightblue" d="M583.286,-400.186C480.286,-397.259 159.78,-385.816 125,-356 79.4687,-316.967 77.4593,-280.699 97,-224 109.059,-189.01 138.773,-156.87 158.125,-138.636"/>
<polygon fill="midnightblue" stroke="midnightblue" points="160.686,-141.036 165.703,-131.704 155.962,-135.871 160.686,-141.036"/>
</g>
<!-- Node19 -->
<g id="node19" class="node"><title>Node19</title>
<g id="a_node19"><a xlink:href="$SPIDriver_8h.html" xlink:title="SPIDriver.h">
<polygon fill="white" stroke="black" points="182,-280.5 182,-299.5 250,-299.5 250,-280.5 182,-280.5"/>
<text text-anchor="middle" x="216" y="-287.5" font-family="Helvetica,sans-Serif" font-size="10.00">SPIDriver.h</text>
</a>
</g>
</g>
<!-- Node2&#45;&gt;Node19 -->
<g id="edge29" class="edge"><title>Node2&#45;&gt;Node19</title>
<path fill="none" stroke="midnightblue" d="M583.371,-398.887C532.024,-394.766 427.83,-383.521 344,-356 304.945,-343.178 263.084,-319.898 238.244,-304.957"/>
<polygon fill="midnightblue" stroke="midnightblue" points="239.957,-301.902 229.598,-299.679 236.309,-307.877 239.957,-301.902"/>
</g>
<!-- Node20 -->
<g id="node20" class="node"><title>Node20</title>
<g id="a_node20"><a xlink:href="$AnalogIn_8h.html" xlink:title="AnalogIn.h">
<polygon fill="white" stroke="black" points="470.5,-280.5 470.5,-299.5 533.5,-299.5 533.5,-280.5 470.5,-280.5"/>
<text text-anchor="middle" x="502" y="-287.5" font-family="Helvetica,sans-Serif" font-size="10.00">AnalogIn.h</text>
</a>
</g>
</g>
<!-- Node2&#45;&gt;Node20 -->
<g id="edge31" class="edge"><title>Node2&#45;&gt;Node20</title>
<path fill="none" stroke="midnightblue" d="M583.388,-396.34C542.516,-389.593 474.807,-375.718 460,-356 447.633,-339.532 465.133,-319.482 481.168,-306.043"/>
<polygon fill="midnightblue" stroke="midnightblue" points="483.565,-308.61 489.253,-299.672 479.232,-303.112 483.565,-308.61"/>
</g>
<!-- Node21 -->
<g id="node21" class="node"><title>Node21</title>
<g id="a_node21"><a xlink:href="$Storage_8h.html" xlink:title="Storage.h">
<polygon fill="white" stroke="black" points="106.5,-224.5 106.5,-243.5 165.5,-243.5 165.5,-224.5 106.5,-224.5"/>
<text text-anchor="middle" x="136" y="-231.5" font-family="Helvetica,sans-Serif" font-size="10.00">Storage.h</text>
</a>
</g>
</g>
<!-- Node2&#45;&gt;Node21 -->
<g id="edge33" class="edge"><title>Node2&#45;&gt;Node21</title>
<path fill="none" stroke="midnightblue" d="M583.291,-400.371C481.888,-398.039 170.36,-388.284 140,-356 114.172,-328.535 122.575,-280.153 129.919,-253.65"/>
<polygon fill="midnightblue" stroke="midnightblue" points="133.366,-254.341 132.898,-243.756 126.663,-252.322 133.366,-254.341"/>
</g>
<!-- Node22 -->
<g id="node22" class="node"><title>Node22</title>
<g id="a_node22"><a xlink:href="$GPIO_8h.html" xlink:title="GPIO.h">
<polygon fill="white" stroke="black" points="236,-168.5 236,-187.5 286,-187.5 286,-168.5 236,-168.5"/>
<text text-anchor="middle" x="261" y="-175.5" font-family="Helvetica,sans-Serif" font-size="10.00">GPIO.h</text>
</a>
</g>
</g>
<!-- Node2&#45;&gt;Node22 -->
<g id="edge36" class="edge"><title>Node2&#45;&gt;Node22</title>
<path fill="none" stroke="midnightblue" d="M583.298,-399.249C489.593,-393.293 217.662,-370.128 173,-300 147.383,-259.776 203.769,-215.013 237.715,-192.91"/>
<polygon fill="midnightblue" stroke="midnightblue" points="239.619,-195.847 246.203,-187.547 235.88,-189.929 239.619,-195.847"/>
</g>
<!-- Node23 -->
<g id="node23" class="node"><title>Node23</title>
<g id="a_node23"><a xlink:href="$RCInput_8h.html" xlink:title="RCInput.h">
<polygon fill="white" stroke="black" points="687,-280.5 687,-299.5 749,-299.5 749,-280.5 687,-280.5"/>
<text text-anchor="middle" x="718" y="-287.5" font-family="Helvetica,sans-Serif" font-size="10.00">RCInput.h</text>
</a>
</g>
</g>
<!-- Node2&#45;&gt;Node23 -->
<g id="edge39" class="edge"><title>Node2&#45;&gt;Node23</title>
<path fill="none" stroke="midnightblue" d="M615.429,-392.454C616.517,-379.028 620.369,-352.798 634,-336 646.026,-321.18 664.27,-310.579 680.687,-303.404"/>
<polygon fill="midnightblue" stroke="midnightblue" points="682.146,-306.589 690.081,-299.569 679.5,-300.108 682.146,-306.589"/>
</g>
<!-- Node24 -->
<g id="node24" class="node"><title>Node24</title>
<g id="a_node24"><a xlink:href="$RCOutput_8h.html" xlink:title="RCOutput.h">
<polygon fill="white" stroke="black" points="306.5,-280.5 306.5,-299.5 375.5,-299.5 375.5,-280.5 306.5,-280.5"/>
<text text-anchor="middle" x="341" y="-287.5" font-family="Helvetica,sans-Serif" font-size="10.00">RCOutput.h</text>
</a>
</g>
</g>
<!-- Node2&#45;&gt;Node24 -->
<g id="edge41" class="edge"><title>Node2&#45;&gt;Node24</title>
<path fill="none" stroke="midnightblue" d="M583.089,-399.48C522.173,-395.937 392.478,-385.097 360,-356 347.021,-344.372 342.702,-324.42 341.366,-309.68"/>
<polygon fill="midnightblue" stroke="midnightblue" points="344.859,-309.449 340.832,-299.649 337.868,-309.821 344.859,-309.449"/>
</g>
<!-- Node25 -->
<g id="node25" class="node"><title>Node25</title>
<g id="a_node25"><a xlink:href="$Scheduler_8h.html" xlink:title="Scheduler.h">
<polygon fill="white" stroke="black" points="740,-224.5 740,-243.5 808,-243.5 808,-224.5 740,-224.5"/>
<text text-anchor="middle" x="774" y="-231.5" font-family="Helvetica,sans-Serif" font-size="10.00">Scheduler.h</text>
</a>
</g>
</g>
<!-- Node2&#45;&gt;Node25 -->
<g id="edge43" class="edge"><title>Node2&#45;&gt;Node25</title>
<path fill="none" stroke="midnightblue" d="M646.553,-400.052C706.665,-397.511 834.033,-388.348 861,-356 891.721,-319.149 832.292,-272.199 797.192,-249.114"/>
<polygon fill="midnightblue" stroke="midnightblue" points="798.758,-245.961 788.447,-243.522 794.986,-251.858 798.758,-245.961"/>
</g>
<!-- Node26 -->
<g id="node26" class="node"><title>Node26</title>
<g id="a_node26"><a xlink:href="$Semaphores_8h.html" xlink:title="Semaphores.h">
<polygon fill="white" stroke="black" points="469,-336.5 469,-355.5 549,-355.5 549,-336.5 469,-336.5"/>
<text text-anchor="middle" x="509" y="-343.5" font-family="Helvetica,sans-Serif" font-size="10.00">Semaphores.h</text>
</a>
</g>
</g>
<!-- Node2&#45;&gt;Node26 -->
<g id="edge48" class="edge"><title>Node2&#45;&gt;Node26</title>
<path fill="none" stroke="midnightblue" d="M597.969,-392.324C580.97,-383.664 554.624,-370.242 535.007,-360.249"/>
<polygon fill="midnightblue" stroke="midnightblue" points="536.488,-357.075 525.988,-355.655 533.31,-363.312 536.488,-357.075"/>
</g>
<!-- Node27 -->
<g id="node27" class="node"><title>Node27</title>
<g id="a_node27"><a xlink:href="$Util_8h.html" xlink:title="Util.h">
<polygon fill="white" stroke="black" points="1058,-224.5 1058,-243.5 1098,-243.5 1098,-224.5 1058,-224.5"/>
<text text-anchor="middle" x="1078" y="-231.5" font-family="Helvetica,sans-Serif" font-size="10.00">Util.h</text>
</a>
</g>
</g>
<!-- Node2&#45;&gt;Node27 -->
<g id="edge50" class="edge"><title>Node2&#45;&gt;Node27</title>
<path fill="none" stroke="midnightblue" d="M646.722,-399.569C739.654,-395.11 1006.66,-380.292 1037,-356 1068.21,-331.012 1075.8,-281.225 1077.55,-253.95"/>
<polygon fill="midnightblue" stroke="midnightblue" points="1081.06,-253.92 1078,-243.776 1074.06,-253.612 1081.06,-253.92"/>
</g>
<!-- Node28 -->
<g id="node28" class="node"><title>Node28</title>
<g id="a_node28"><a xlink:href="$HAL_8h.html" xlink:title="HAL.h">
<polygon fill="white" stroke="black" points="369,-336.5 369,-355.5 413,-355.5 413,-336.5 369,-336.5"/>
<text text-anchor="middle" x="391" y="-343.5" font-family="Helvetica,sans-Serif" font-size="10.00">HAL.h</text>
</a>
</g>
</g>
<!-- Node2&#45;&gt;Node28 -->
<g id="edge57" class="edge"><title>Node2&#45;&gt;Node28</title>
<path fill="none" stroke="midnightblue" d="M583.376,-393.533C545.997,-384.683 481.93,-369.44 427,-356 425.733,-355.69 424.441,-355.373 423.136,-355.051"/>
<polygon fill="midnightblue" stroke="midnightblue" points="423.625,-351.566 413.076,-352.556 421.939,-358.361 423.625,-351.566"/>
</g>
<!-- Node6 -->
<g id="node6" class="node"><title>Node6</title>
<polygon fill="white" stroke="#bfbfbf" points="839.5,-0.5 839.5,-19.5 888.5,-19.5 888.5,-0.5 839.5,-0.5"/>
<text text-anchor="middle" x="864" y="-7.5" font-family="Helvetica,sans-Serif" font-size="10.00">string.h</text>
</g>
<!-- Node5&#45;&gt;Node6 -->
<g id="edge5" class="edge"><title>Node5&#45;&gt;Node6</title>
<path fill="none" stroke="midnightblue" d="M625.001,-56.4435C681.775,-45.6484 778.177,-27.3185 829.48,-17.5637"/>
<polygon fill="midnightblue" stroke="midnightblue" points="830.243,-20.9813 839.413,-15.6749 828.936,-14.1045 830.243,-20.9813"/>
</g>
<!-- Node7 -->
<g id="node7" class="node"><title>Node7</title>
<g id="a_node7"><a xlink:href="$FastDelegate_8h.html" xlink:title="utility/FastDelegate.h">
<polygon fill="white" stroke="black" points="525,-0.5 525,-19.5 635,-19.5 635,-0.5 525,-0.5"/>
<text text-anchor="middle" x="580" y="-7.5" font-family="Helvetica,sans-Serif" font-size="10.00">utility/FastDelegate.h</text>
</a>
</g>
</g>
<!-- Node5&#45;&gt;Node7 -->
<g id="edge6" class="edge"><title>Node5&#45;&gt;Node7</title>
<path fill="none" stroke="midnightblue" d="M580,-56.083C580,-49.0059 580,-38.8611 580,-29.9865"/>
<polygon fill="midnightblue" stroke="midnightblue" points="583.5,-29.751 580,-19.7511 576.5,-29.7511 583.5,-29.751"/>
</g>
<!-- Node10&#45;&gt;Node3 -->
<g id="edge10" class="edge"><title>Node10&#45;&gt;Node3</title>
<path fill="none" stroke="midnightblue" d="M611.285,-280.433C536.867,-246.37 261.677,-120.407 172.844,-79.745"/>
<polygon fill="midnightblue" stroke="midnightblue" points="174.209,-76.5207 163.66,-75.5411 171.296,-82.8856 174.209,-76.5207"/>
</g>
<!-- Node10&#45;&gt;Node5 -->
<g id="edge11" class="edge"><title>Node10&#45;&gt;Node5</title>
<path fill="none" stroke="midnightblue" d="M623.514,-280.196C617.434,-271.47 608.611,-257.49 604,-244 585.07,-188.615 581.007,-118.683 580.179,-85.7619"/>
<polygon fill="midnightblue" stroke="midnightblue" points="583.679,-85.6818 580.002,-75.7453 576.68,-85.8056 583.679,-85.6818"/>
</g>
<!-- Node10&#45;&gt;Node11 -->
<g id="edge12" class="edge"><title>Node10&#45;&gt;Node11</title>
<path fill="none" stroke="midnightblue" d="M669.673,-280.916C715.832,-271.51 792.195,-255.949 843.048,-245.586"/>
<polygon fill="midnightblue" stroke="midnightblue" points="843.763,-249.013 852.862,-243.587 842.365,-242.154 843.763,-249.013"/>
</g>
<!-- Node11&#45;&gt;Node5 -->
<g id="edge14" class="edge"><title>Node11&#45;&gt;Node5</title>
<path fill="none" stroke="midnightblue" d="M899.809,-224.368C913.262,-199.672 949.319,-129.39 934,-112 915.608,-91.1222 748.711,-77.3864 650.785,-71.0499"/>
<polygon fill="midnightblue" stroke="midnightblue" points="650.86,-67.5477 640.658,-70.405 650.415,-74.5335 650.86,-67.5477"/>
</g>
<!-- Node11&#45;&gt;Node12 -->
<g id="edge13" class="edge"><title>Node11&#45;&gt;Node12</title>
<path fill="none" stroke="midnightblue" d="M924.631,-224.444C957.531,-214.943 1010.64,-199.606 1045.93,-189.415"/>
<polygon fill="midnightblue" stroke="midnightblue" points="1047.19,-192.695 1055.83,-186.558 1045.25,-185.97 1047.19,-192.695"/>
</g>
<!-- Node11&#45;&gt;Node13 -->
<g id="edge15" class="edge"><title>Node11&#45;&gt;Node13</title>
<path fill="none" stroke="midnightblue" d="M907.371,-224.324C919.158,-216.058 937.132,-203.453 951.136,-193.632"/>
<polygon fill="midnightblue" stroke="midnightblue" points="953.482,-196.262 959.659,-187.655 949.462,-190.531 953.482,-196.262"/>
</g>
<!-- Node16 -->
<g id="node16" class="node"><title>Node16</title>
<g id="a_node16"><a xlink:href="$AP__Progmem_8h.html" xlink:title="AP_Progmem.h">
<polygon fill="white" stroke="black" points="802,-168.5 802,-187.5 888,-187.5 888,-168.5 802,-168.5"/>
<text text-anchor="middle" x="845" y="-175.5" font-family="Helvetica,sans-Serif" font-size="10.00">AP_Progmem.h</text>
</a>
</g>
</g>
<!-- Node11&#45;&gt;Node16 -->
<g id="edge21" class="edge"><title>Node11&#45;&gt;Node16</title>
<path fill="none" stroke="midnightblue" d="M886.744,-224.083C879.535,-216.298 868.89,-204.801 860.154,-195.367"/>
<polygon fill="midnightblue" stroke="midnightblue" points="862.465,-192.711 853.103,-187.751 857.329,-197.467 862.465,-192.711"/>
</g>
<!-- Node13&#45;&gt;Node5 -->
<g id="edge16" class="edge"><title>Node13&#45;&gt;Node5</title>
<path fill="none" stroke="midnightblue" d="M974.624,-168.051C978.114,-154.074 982.308,-127.102 968,-112 946.624,-89.4369 756.868,-76.1116 650.868,-70.3649"/>
<polygon fill="midnightblue" stroke="midnightblue" points="651.052,-66.8698 640.88,-69.8323 650.679,-73.8599 651.052,-66.8698"/>
</g>
<!-- Node13&#45;&gt;Node14 -->
<g id="edge17" class="edge"><title>Node13&#45;&gt;Node14</title>
<path fill="none" stroke="midnightblue" d="M1000.09,-169.492C1037.21,-159.569 1102.46,-142.125 1141.61,-131.658"/>
<polygon fill="midnightblue" stroke="midnightblue" points="1142.69,-134.993 1151.45,-129.029 1140.88,-128.231 1142.69,-134.993"/>
</g>
<!-- Node14&#45;&gt;Node5 -->
<g id="edge18" class="edge"><title>Node14&#45;&gt;Node5</title>
<path fill="none" stroke="midnightblue" d="M1151.42,-114.908C1146.68,-113.799 1141.7,-112.757 1137,-112 963.658,-84.0951 757.037,-73.1551 650.816,-69.1394"/>
<polygon fill="midnightblue" stroke="midnightblue" points="650.666,-65.6316 640.544,-68.7609 650.408,-72.6269 650.666,-65.6316"/>
</g>
<!-- Node14&#45;&gt;Node6 -->
<g id="edge20" class="edge"><title>Node14&#45;&gt;Node6</title>
<path fill="none" stroke="midnightblue" d="M1151.46,-113C1097.63,-93.9005 961.369,-45.5502 897.723,-22.9662"/>
<polygon fill="midnightblue" stroke="midnightblue" points="898.75,-19.6169 888.155,-19.5712 896.409,-26.2139 898.75,-19.6169"/>
</g>
<!-- Node15 -->
<g id="node15" class="node"><title>Node15</title>
<polygon fill="white" stroke="#bfbfbf" points="1144.5,-56.5 1144.5,-75.5 1203.5,-75.5 1203.5,-56.5 1144.5,-56.5"/>
<text text-anchor="middle" x="1174" y="-63.5" font-family="Helvetica,sans-Serif" font-size="10.00">inttypes.h</text>
</g>
<!-- Node14&#45;&gt;Node15 -->
<g id="edge19" class="edge"><title>Node14&#45;&gt;Node15</title>
<path fill="none" stroke="midnightblue" d="M1174,-112.083C1174,-105.006 1174,-94.8611 1174,-85.9865"/>
<polygon fill="midnightblue" stroke="midnightblue" points="1177.5,-85.751 1174,-75.7511 1170.5,-85.7511 1177.5,-85.751"/>
</g>
<!-- Node16&#45;&gt;Node8 -->
<g id="edge22" class="edge"><title>Node16&#45;&gt;Node8</title>
<path fill="none" stroke="midnightblue" d="M821.391,-168.444C796.542,-159.438 757.226,-145.189 729.246,-135.049"/>
<polygon fill="midnightblue" stroke="midnightblue" points="730.093,-131.633 719.499,-131.516 727.708,-138.214 730.093,-131.633"/>
</g>
<!-- Node17 -->
<g id="node17" class="node"><title>Node17</title>
<g id="a_node17"><a xlink:href="$AP__Progmem__Identity_8h.html" xlink:title="AP_Progmem_Identity.h">
<polygon fill="white" stroke="black" points="802.5,-112.5 802.5,-131.5 925.5,-131.5 925.5,-112.5 802.5,-112.5"/>
<text text-anchor="middle" x="864" y="-119.5" font-family="Helvetica,sans-Serif" font-size="10.00">AP_Progmem_Identity.h</text>
</a>
</g>
</g>
<!-- Node16&#45;&gt;Node17 -->
<g id="edge23" class="edge"><title>Node16&#45;&gt;Node17</title>
<path fill="none" stroke="midnightblue" d="M848.137,-168.083C850.683,-160.849 854.356,-150.409 857.527,-141.397"/>
<polygon fill="midnightblue" stroke="midnightblue" points="860.903,-142.346 860.921,-131.751 854.3,-140.023 860.903,-142.346"/>
</g>
<!-- Node17&#45;&gt;Node3 -->
<g id="edge25" class="edge"><title>Node17&#45;&gt;Node3</title>
<path fill="none" stroke="midnightblue" d="M802.338,-115.869C786.58,-114.581 769.665,-113.22 754,-112 535.438,-94.9841 272.622,-76.0972 179.641,-69.4637"/>
<polygon fill="midnightblue" stroke="midnightblue" points="179.884,-65.9722 169.66,-68.7521 179.386,-72.9544 179.884,-65.9722"/>
</g>
<!-- Node17&#45;&gt;Node6 -->
<g id="edge24" class="edge"><title>Node17&#45;&gt;Node6</title>
<path fill="none" stroke="midnightblue" d="M864,-112.368C864,-94.617 864,-53.6664 864,-29.5974"/>
<polygon fill="midnightblue" stroke="midnightblue" points="867.5,-29.5914 864,-19.5914 860.5,-29.5915 867.5,-29.5914"/>
</g>
<!-- Node18&#45;&gt;Node3 -->
<g id="edge27" class="edge"><title>Node18&#45;&gt;Node3</title>
<path fill="none" stroke="midnightblue" d="M170.881,-112.083C166.592,-104.613 160.342,-93.7244 155.058,-84.5199"/>
<polygon fill="midnightblue" stroke="midnightblue" points="158.038,-82.6811 150.024,-75.7511 151.967,-86.1662 158.038,-82.6811"/>
</g>
<!-- Node18&#45;&gt;Node5 -->
<g id="edge28" class="edge"><title>Node18&#45;&gt;Node5</title>
<path fill="none" stroke="midnightblue" d="M209.525,-114.45C214.374,-113.58 219.309,-112.736 224,-112 322.549,-96.5465 437.096,-82.8194 509.071,-74.7049"/>
<polygon fill="midnightblue" stroke="midnightblue" points="509.827,-78.1421 519.375,-73.5489 509.047,-71.1858 509.827,-78.1421"/>
</g>
<!-- Node19&#45;&gt;Node5 -->
<g id="edge30" class="edge"><title>Node19&#45;&gt;Node5</title>
<path fill="none" stroke="midnightblue" d="M223.943,-280.183C250.178,-251.583 337.551,-160.448 428,-112 457.97,-95.9472 494.41,-84.9083 524.098,-77.7826"/>
<polygon fill="midnightblue" stroke="midnightblue" points="524.936,-81.1812 533.888,-75.5144 523.356,-74.3618 524.936,-81.1812"/>
</g>
<!-- Node20&#45;&gt;Node5 -->
<g id="edge32" class="edge"><title>Node20&#45;&gt;Node5</title>
<path fill="none" stroke="midnightblue" d="M501.234,-280.228C499.285,-253.231 496.337,-169.732 528,-112 534.728,-99.7329 546.193,-89.2671 556.648,-81.5239"/>
<polygon fill="midnightblue" stroke="midnightblue" points="558.847,-84.2577 565.066,-75.6802 554.856,-78.5072 558.847,-84.2577"/>
</g>
<!-- Node21&#45;&gt;Node3 -->
<g id="edge34" class="edge"><title>Node21&#45;&gt;Node3</title>
<path fill="none" stroke="midnightblue" d="M133.304,-224.381C127.449,-204.392 114.81,-153.424 124,-112 126.124,-102.426 130.507,-92.4756 134.721,-84.3735"/>
<polygon fill="midnightblue" stroke="midnightblue" points="137.822,-85.9989 139.616,-75.557 131.702,-82.6012 137.822,-85.9989"/>
</g>
<!-- Node21&#45;&gt;Node5 -->
<g id="edge35" class="edge"><title>Node21&#45;&gt;Node5</title>
<path fill="none" stroke="midnightblue" d="M144.895,-224.2C168.496,-201.424 235.597,-140.35 304,-112 370.32,-84.5135 452.111,-73.7665 509.373,-69.5916"/>
<polygon fill="midnightblue" stroke="midnightblue" points="509.674,-73.0793 519.413,-68.9085 509.199,-66.0954 509.674,-73.0793"/>
</g>
<!-- Node22&#45;&gt;Node3 -->
<g id="edge37" class="edge"><title>Node22&#45;&gt;Node3</title>
<path fill="none" stroke="midnightblue" d="M235.738,-176.282C205.574,-173.904 156.285,-164.868 133,-132 123.285,-118.286 128.613,-98.9904 134.952,-84.9872"/>
<polygon fill="midnightblue" stroke="midnightblue" points="138.166,-86.3864 139.545,-75.8818 131.916,-83.2335 138.166,-86.3864"/>
</g>
<!-- Node22&#45;&gt;Node5 -->
<g id="edge38" class="edge"><title>Node22&#45;&gt;Node5</title>
<path fill="none" stroke="midnightblue" d="M268.527,-168.203C281.271,-153.932 308.594,-125.933 338,-112 392.104,-86.3654 459.467,-75.3112 509.374,-70.5562"/>
<polygon fill="midnightblue" stroke="midnightblue" points="509.78,-74.034 519.43,-69.6604 509.159,-67.0616 509.78,-74.034"/>
</g>
<!-- Node23&#45;&gt;Node5 -->
<g id="edge40" class="edge"><title>Node23&#45;&gt;Node5</title>
<path fill="none" stroke="midnightblue" d="M712.59,-280.297C692.07,-247.286 618.792,-129.404 590.892,-84.522"/>
<polygon fill="midnightblue" stroke="midnightblue" points="593.774,-82.5288 585.522,-75.8837 587.829,-86.2244 593.774,-82.5288"/>
</g>
<!-- Node24&#45;&gt;Node5 -->
<g id="edge42" class="edge"><title>Node24&#45;&gt;Node5</title>
<path fill="none" stroke="midnightblue" d="M344.087,-280.184C354.54,-251.589 391.37,-160.467 452,-112 472.537,-95.5825 499.5,-84.9267 523.38,-78.1292"/>
<polygon fill="midnightblue" stroke="midnightblue" points="524.299,-81.5065 533.05,-75.5344 522.485,-74.7457 524.299,-81.5065"/>
</g>
<!-- Node25&#45;&gt;Node3 -->
<g id="edge46" class="edge"><title>Node25&#45;&gt;Node3</title>
<path fill="none" stroke="midnightblue" d="M741.507,-224.425C634.033,-196.061 290.601,-105.426 179.81,-76.1869"/>
<polygon fill="midnightblue" stroke="midnightblue" points="180.393,-72.7208 169.831,-73.5531 178.607,-79.4891 180.393,-72.7208"/>
</g>
<!-- Node25&#45;&gt;Node5 -->
<g id="edge44" class="edge"><title>Node25&#45;&gt;Node5</title>
<path fill="none" stroke="midnightblue" d="M775.442,-224.342C778.562,-202.425 783.456,-144.211 754,-112 739.818,-96.492 692.387,-84.8451 650.622,-77.2897"/>
<polygon fill="midnightblue" stroke="midnightblue" points="651.161,-73.8308 640.707,-75.5515 649.952,-80.7257 651.161,-73.8308"/>
</g>
<!-- Node25&#45;&gt;Node8 -->
<g id="edge45" class="edge"><title>Node25&#45;&gt;Node8</title>
<path fill="none" stroke="midnightblue" d="M767.879,-224.368C755.007,-206.215 724.932,-163.802 708.048,-139.99"/>
<polygon fill="midnightblue" stroke="midnightblue" points="710.731,-137.724 702.092,-131.591 705.021,-141.773 710.731,-137.724"/>
</g>
<!-- Node25&#45;&gt;Node16 -->
<g id="edge47" class="edge"><title>Node25&#45;&gt;Node16</title>
<path fill="none" stroke="midnightblue" d="M785.407,-224.324C796.109,-216.185 812.341,-203.839 825.163,-194.087"/>
<polygon fill="midnightblue" stroke="midnightblue" points="827.544,-196.673 833.385,-187.834 823.307,-191.102 827.544,-196.673"/>
</g>
<!-- Node26&#45;&gt;Node5 -->
<g id="edge49" class="edge"><title>Node26&#45;&gt;Node5</title>
<path fill="none" stroke="midnightblue" d="M517.202,-336.471C524.896,-327.949 536.079,-314.115 542,-300 558.332,-261.069 572.987,-133.904 578.087,-85.7281"/>
<polygon fill="midnightblue" stroke="midnightblue" points="581.596,-85.8247 579.15,-75.5162 574.634,-85.1004 581.596,-85.8247"/>
</g>
<!-- Node27&#45;&gt;Node5 -->
<g id="edge52" class="edge"><title>Node27&#45;&gt;Node5</title>
<path fill="none" stroke="midnightblue" d="M1089.54,-224.425C1104.46,-212.227 1127.36,-189.009 1117,-168 1098.91,-131.327 1082.04,-126.997 1044,-112 974.271,-84.5106 762.555,-73.243 650.809,-69.1136"/>
<polygon fill="midnightblue" stroke="midnightblue" points="650.762,-65.6098 640.643,-68.7475 650.51,-72.6052 650.762,-65.6098"/>
</g>
<!-- Node27&#45;&gt;Node12 -->
<g id="edge51" class="edge"><title>Node27&#45;&gt;Node12</title>
<path fill="none" stroke="midnightblue" d="M1078.66,-224.083C1079.18,-217.006 1079.94,-206.861 1080.59,-197.986"/>
<polygon fill="midnightblue" stroke="midnightblue" points="1084.1,-197.982 1081.35,-187.751 1077.12,-197.465 1084.1,-197.982"/>
</g>
<!-- Node27&#45;&gt;Node16 -->
<g id="edge53" class="edge"><title>Node27&#45;&gt;Node16</title>
<path fill="none" stroke="midnightblue" d="M1057.73,-228.302C1020.99,-219.786 942.497,-201.596 891.819,-189.851"/>
<polygon fill="midnightblue" stroke="midnightblue" points="892.606,-186.441 882.074,-187.592 891.026,-193.26 892.606,-186.441"/>
</g>
<!-- Node28&#45;&gt;Node5 -->
<g id="edge58" class="edge"><title>Node28&#45;&gt;Node5</title>
<path fill="none" stroke="midnightblue" d="M393.996,-336.056C405.366,-303.117 448.595,-186.628 515,-112 526.16,-99.4586 541.493,-88.6288 554.465,-80.7381"/>
<polygon fill="midnightblue" stroke="midnightblue" points="556.524,-83.5896 563.4,-75.5294 552.998,-77.5422 556.524,-83.5896"/>
</g>
<!-- Node28&#45;&gt;Node10 -->
<g id="edge59" class="edge"><title>Node28&#45;&gt;Node10</title>
<path fill="none" stroke="midnightblue" d="M413.056,-340.017C451.299,-331.376 530.74,-313.427 582.144,-301.813"/>
<polygon fill="midnightblue" stroke="midnightblue" points="583.048,-305.197 592.031,-299.579 581.505,-298.369 583.048,-305.197"/>
</g>
<!-- Node28&#45;&gt;Node19 -->
<g id="edge60" class="edge"><title>Node28&#45;&gt;Node19</title>
<path fill="none" stroke="midnightblue" d="M368.836,-338.161C339.873,-329.224 288.719,-313.439 253.629,-302.611"/>
<polygon fill="midnightblue" stroke="midnightblue" points="254.332,-299.165 243.744,-299.561 252.268,-305.854 254.332,-299.165"/>
</g>
<!-- Node28&#45;&gt;Node20 -->
<g id="edge61" class="edge"><title>Node28&#45;&gt;Node20</title>
<path fill="none" stroke="midnightblue" d="M408.834,-336.324C426.716,-327.625 454.475,-314.12 475.046,-304.113"/>
<polygon fill="midnightblue" stroke="midnightblue" points="476.749,-307.177 484.21,-299.655 473.687,-300.882 476.749,-307.177"/>
</g>
<!-- Node28&#45;&gt;Node21 -->
<g id="edge62" class="edge"><title>Node28&#45;&gt;Node21</title>
<path fill="none" stroke="midnightblue" d="M372.527,-336.41C353.499,-327.503 323.031,-313.075 297,-300 279.945,-291.434 276.445,-287.74 259,-280 230.503,-267.356 197.248,-255.347 172.507,-246.921"/>
<polygon fill="midnightblue" stroke="midnightblue" points="173.394,-243.526 162.8,-243.649 171.158,-250.16 173.394,-243.526"/>
</g>
<!-- Node28&#45;&gt;Node22 -->
<g id="edge63" class="edge"><title>Node28&#45;&gt;Node22</title>
<path fill="none" stroke="midnightblue" d="M392.045,-336.402C393.214,-323.36 393.818,-298.175 384,-280 362.077,-239.418 316.444,-208.815 287.345,-192.433"/>
<polygon fill="midnightblue" stroke="midnightblue" points="288.983,-189.34 278.529,-187.619 285.628,-195.483 288.983,-189.34"/>
</g>
<!-- Node28&#45;&gt;Node23 -->
<g id="edge64" class="edge"><title>Node28&#45;&gt;Node23</title>
<path fill="none" stroke="midnightblue" d="M413.049,-342.047C459.763,-335.684 572.327,-319.788 676.541,-300.179"/>
<polygon fill="midnightblue" stroke="midnightblue" points="677.426,-303.574 686.598,-298.27 676.121,-296.697 677.426,-303.574"/>
</g>
<!-- Node28&#45;&gt;Node24 -->
<g id="edge65" class="edge"><title>Node28&#45;&gt;Node24</title>
<path fill="none" stroke="midnightblue" d="M382.744,-336.083C375.535,-328.298 364.89,-316.801 356.154,-307.367"/>
<polygon fill="midnightblue" stroke="midnightblue" points="358.465,-304.711 349.103,-299.751 353.329,-309.467 358.465,-304.711"/>
</g>
</g>
</svg>
