<?xml version="1.0" encoding="UTF-8" standalone="no"?>
<!DOCTYPE svg PUBLIC "-//W3C//DTD SVG 1.1//EN"
 "http://www.w3.org/Graphics/SVG/1.1/DTD/svg11.dtd">
<!-- Generated by graphviz version 2.36.0 (20140111.2315)
 -->
<!-- Title: setup Pages: 1 -->
<svg width="548pt" height="150pt"
 viewBox="0.00 0.00 548.00 150.00" xmlns="http://www.w3.org/2000/svg" xmlns:xlink="http://www.w3.org/1999/xlink">
<g id="graph0" class="graph" transform="scale(1 1) rotate(0) translate(4 146)">
<title>setup</title>
<polygon fill="white" stroke="none" points="-4,4 -4,-146 544,-146 544,4 -4,4"/>
<!-- Node1 -->
<g id="node1" class="node"><title>Node1</title>
<polygon fill="#bfbfbf" stroke="black" points="0.5,-71.5 0.5,-90.5 41.5,-90.5 41.5,-71.5 0.5,-71.5"/>
<text text-anchor="middle" x="21" y="-78.5" font-family="Helvetica,sans-Serif" font-size="10.00">setup</text>
</g>
<!-- Node2 -->
<g id="node2" class="node"><title>Node2</title>
<g id="a_node2"><a xlink:href="$classAP__HAL_1_1SPIDeviceManager.html#ab26a3e8f8b43e59376ce98aafd288452" xlink:title="AP_HAL::SPIDeviceManager\l::device">
<polygon fill="white" stroke="black" points="78,-88 78,-118 224,-118 224,-88 78,-88"/>
<text text-anchor="start" x="86" y="-106" font-family="Helvetica,sans-Serif" font-size="10.00">AP_HAL::SPIDeviceManager</text>
<text text-anchor="middle" x="151" y="-95" font-family="Helvetica,sans-Serif" font-size="10.00">::device</text>
</a>
</g>
</g>
<!-- Node1&#45;&gt;Node2 -->
<g id="edge1" class="edge"><title>Node1&#45;&gt;Node2</title>
<path fill="none" stroke="midnightblue" d="M41.7195,-84.3893C49.2406,-85.682 58.362,-87.2497 68.0832,-88.9206"/>
<polygon fill="midnightblue" stroke="midnightblue" points="67.519,-92.3748 77.9674,-90.6194 68.7048,-85.476 67.519,-92.3748"/>
</g>
<!-- Node3 -->
<g id="node3" class="node"><title>Node3</title>
<g id="a_node3"><a xlink:href="$SPIDriver__MPU6000_8pde.html#afbd9f58dd0eba9ced3dab0d9708d8681" xlink:title="mpu6k_init">
<polygon fill="white" stroke="black" points="119,-49.5 119,-68.5 183,-68.5 183,-49.5 119,-49.5"/>
<text text-anchor="middle" x="151" y="-56.5" font-family="Helvetica,sans-Serif" font-size="10.00">mpu6k_init</text>
</a>
</g>
</g>
<!-- Node1&#45;&gt;Node3 -->
<g id="edge2" class="edge"><title>Node1&#45;&gt;Node3</title>
<path fill="none" stroke="midnightblue" d="M41.7195,-77.6107C59.477,-74.5586 86.155,-69.9734 108.587,-66.1179"/>
<polygon fill="midnightblue" stroke="midnightblue" points="109.284,-69.5494 118.547,-64.406 108.098,-62.6506 109.284,-69.5494"/>
</g>
<!-- Node4 -->
<g id="node4" class="node"><title>Node4</title>
<g id="a_node4"><a xlink:href="$SPIDriver__MPU6000_8pde.html#a3d08001962b94559ada02a36468467ab" xlink:title="register_write">
<polygon fill="white" stroke="black" points="277.5,-49.5 277.5,-68.5 352.5,-68.5 352.5,-49.5 277.5,-49.5"/>
<text text-anchor="middle" x="315" y="-56.5" font-family="Helvetica,sans-Serif" font-size="10.00">register_write</text>
</a>
</g>
</g>
<!-- Node3&#45;&gt;Node4 -->
<g id="edge3" class="edge"><title>Node3&#45;&gt;Node4</title>
<path fill="none" stroke="midnightblue" d="M183.235,-59C207.123,-59 240.439,-59 267.463,-59"/>
<polygon fill="midnightblue" stroke="midnightblue" points="267.48,-62.5001 277.48,-59 267.48,-55.5001 267.48,-62.5001"/>
</g>
<!-- Node8 -->
<g id="node8" class="node"><title>Node8</title>
<g id="a_node8"><a xlink:href="$classAP__HAL_1_1Scheduler.html#ab3175e2e6223ccfe82f957e41cc12b26" xlink:title="AP_HAL::Scheduler::\ldelay">
<polygon fill="white" stroke="black" points="260,-0 260,-30 370,-30 370,-0 260,-0"/>
<text text-anchor="start" x="268" y="-18" font-family="Helvetica,sans-Serif" font-size="10.00">AP_HAL::Scheduler::</text>
<text text-anchor="middle" x="315" y="-7" font-family="Helvetica,sans-Serif" font-size="10.00">delay</text>
</a>
</g>
</g>
<!-- Node3&#45;&gt;Node8 -->
<g id="edge7" class="edge"><title>Node3&#45;&gt;Node8</title>
<path fill="none" stroke="midnightblue" d="M183.235,-50.5164C202.222,-45.3595 227.164,-38.5851 250.17,-32.3367"/>
<polygon fill="midnightblue" stroke="midnightblue" points="251.154,-35.696 259.887,-29.6972 249.32,-28.9408 251.154,-35.696"/>
</g>
<!-- Node9 -->
<g id="node9" class="node"><title>Node9</title>
<g id="a_node9"><a xlink:href="$SPIDriver__MPU6000_8pde.html#ad4ea06234237630d02dbd750babdb5a6" xlink:title="register_read">
<polygon fill="white" stroke="black" points="278.5,-87.5 278.5,-106.5 351.5,-106.5 351.5,-87.5 278.5,-87.5"/>
<text text-anchor="middle" x="315" y="-94.5" font-family="Helvetica,sans-Serif" font-size="10.00">register_read</text>
</a>
</g>
</g>
<!-- Node3&#45;&gt;Node9 -->
<g id="edge8" class="edge"><title>Node3&#45;&gt;Node9</title>
<path fill="none" stroke="midnightblue" d="M183.235,-66.3268C207.368,-71.9875 241.122,-79.9052 268.291,-86.2782"/>
<polygon fill="midnightblue" stroke="midnightblue" points="267.813,-89.761 278.348,-88.6372 269.412,-82.9459 267.813,-89.761"/>
</g>
<!-- Node5 -->
<g id="node5" class="node"><title>Node5</title>
<g id="a_node5"><a xlink:href="$classAP__HAL_1_1SPIDeviceDriver.html#adcf5550715404a610251a05f19c5d7f7" xlink:title="AP_HAL::SPIDeviceDriver\l::cs_assert">
<polygon fill="white" stroke="black" points="406,-112 406,-142 540,-142 540,-112 406,-112"/>
<text text-anchor="start" x="414" y="-130" font-family="Helvetica,sans-Serif" font-size="10.00">AP_HAL::SPIDeviceDriver</text>
<text text-anchor="middle" x="473" y="-119" font-family="Helvetica,sans-Serif" font-size="10.00">::cs_assert</text>
</a>
</g>
</g>
<!-- Node4&#45;&gt;Node5 -->
<g id="edge4" class="edge"><title>Node4&#45;&gt;Node5</title>
<path fill="none" stroke="midnightblue" d="M347.39,-68.5563C354.946,-71.2602 362.887,-74.4478 370,-78 387.204,-86.5914 388.9,-93.2048 406,-102 410.032,-104.074 414.276,-106.07 418.589,-107.968"/>
<polygon fill="midnightblue" stroke="midnightblue" points="417.505,-111.309 428.08,-111.959 420.218,-104.857 417.505,-111.309"/>
</g>
<!-- Node6 -->
<g id="node6" class="node"><title>Node6</title>
<g id="a_node6"><a xlink:href="$classAP__HAL_1_1SPIDeviceDriver.html#ab5464ab7f3f7936ba955e7ac111a8991" xlink:title="AP_HAL::SPIDeviceDriver\l::transfer">
<polygon fill="white" stroke="black" points="406,-63 406,-93 540,-93 540,-63 406,-63"/>
<text text-anchor="start" x="414" y="-81" font-family="Helvetica,sans-Serif" font-size="10.00">AP_HAL::SPIDeviceDriver</text>
<text text-anchor="middle" x="473" y="-70" font-family="Helvetica,sans-Serif" font-size="10.00">::transfer</text>
</a>
</g>
</g>
<!-- Node4&#45;&gt;Node6 -->
<g id="edge5" class="edge"><title>Node4&#45;&gt;Node6</title>
<path fill="none" stroke="midnightblue" d="M352.575,-63.4547C365.526,-65.0321 380.624,-66.8709 395.641,-68.6998"/>
<polygon fill="midnightblue" stroke="midnightblue" points="395.647,-72.2263 405.997,-69.9611 396.493,-65.2777 395.647,-72.2263"/>
</g>
<!-- Node7 -->
<g id="node7" class="node"><title>Node7</title>
<g id="a_node7"><a xlink:href="$classAP__HAL_1_1SPIDeviceDriver.html#ac4f961b121a7f66fb189e63e617d4715" xlink:title="AP_HAL::SPIDeviceDriver\l::cs_release">
<polygon fill="white" stroke="black" points="406,-14 406,-44 540,-44 540,-14 406,-14"/>
<text text-anchor="start" x="414" y="-32" font-family="Helvetica,sans-Serif" font-size="10.00">AP_HAL::SPIDeviceDriver</text>
<text text-anchor="middle" x="473" y="-21" font-family="Helvetica,sans-Serif" font-size="10.00">::cs_release</text>
</a>
</g>
</g>
<!-- Node4&#45;&gt;Node7 -->
<g id="edge6" class="edge"><title>Node4&#45;&gt;Node7</title>
<path fill="none" stroke="midnightblue" d="M352.575,-51.9663C365.651,-49.4518 380.915,-46.5164 396.074,-43.6012"/>
<polygon fill="midnightblue" stroke="midnightblue" points="396.837,-47.0186 405.997,-41.693 395.515,-40.1445 396.837,-47.0186"/>
</g>
<!-- Node9&#45;&gt;Node5 -->
<g id="edge9" class="edge"><title>Node9&#45;&gt;Node5</title>
<path fill="none" stroke="midnightblue" d="M351.79,-103.883C364.924,-106.409 380.344,-109.374 395.678,-112.323"/>
<polygon fill="midnightblue" stroke="midnightblue" points="395.235,-115.802 405.716,-114.253 396.557,-108.928 395.235,-115.802"/>
</g>
<!-- Node9&#45;&gt;Node6 -->
<g id="edge10" class="edge"><title>Node9&#45;&gt;Node6</title>
<path fill="none" stroke="midnightblue" d="M351.79,-92.641C364.924,-91.0413 380.344,-89.1632 395.678,-87.2957"/>
<polygon fill="midnightblue" stroke="midnightblue" points="396.213,-90.7564 405.716,-86.073 395.367,-83.8078 396.213,-90.7564"/>
</g>
<!-- Node9&#45;&gt;Node7 -->
<g id="edge11" class="edge"><title>Node9&#45;&gt;Node7</title>
<path fill="none" stroke="midnightblue" d="M347.39,-87.4437C354.946,-84.7398 362.887,-81.5522 370,-78 387.204,-69.4086 388.9,-62.7952 406,-54 410.032,-51.9265 414.276,-49.9301 418.589,-48.0318"/>
<polygon fill="midnightblue" stroke="midnightblue" points="420.218,-51.1435 428.08,-44.0412 417.505,-44.6906 420.218,-51.1435"/>
</g>
</g>
</svg>
