<?xml version="1.0" encoding="UTF-8" standalone="no"?>
<!DOCTYPE svg PUBLIC "-//W3C//DTD SVG 1.1//EN"
 "http://www.w3.org/Graphics/SVG/1.1/DTD/svg11.dtd">
<!-- Generated by graphviz version 2.36.0 (20140111.2315)
 -->
<!-- Title: spi_read_16 Pages: 1 -->
<svg width="256pt" height="28pt"
 viewBox="0.00 0.00 256.00 28.00" xmlns="http://www.w3.org/2000/svg" xmlns:xlink="http://www.w3.org/1999/xlink">
<g id="graph0" class="graph" transform="scale(1 1) rotate(0) translate(4 24)">
<title>spi_read_16</title>
<polygon fill="white" stroke="none" points="-4,4 -4,-24 252,-24 252,4 -4,4"/>
<!-- Node1 -->
<g id="node1" class="node"><title>Node1</title>
<polygon fill="#bfbfbf" stroke="black" points="0.5,-0.5 0.5,-19.5 69.5,-19.5 69.5,-0.5 0.5,-0.5"/>
<text text-anchor="middle" x="35" y="-7.5" font-family="Helvetica,sans-Serif" font-size="10.00">spi_read_16</text>
</g>
<!-- Node2 -->
<g id="node2" class="node"><title>Node2</title>
<g id="a_node2"><a xlink:href="$SPIDriver__MPU6000_8pde.html#a8e01fee625c87894acf0c058fbb292b3" xlink:title="mpu6k_read">
<polygon fill="white" stroke="black" points="106,-0.5 106,-19.5 176,-19.5 176,-0.5 106,-0.5"/>
<text text-anchor="middle" x="141" y="-7.5" font-family="Helvetica,sans-Serif" font-size="10.00">mpu6k_read</text>
</a>
</g>
</g>
<!-- Node1&#45;&gt;Node2 -->
<g id="edge1" class="edge"><title>Node1&#45;&gt;Node2</title>
<path fill="none" stroke="midnightblue" d="M80.021,-10C88.6023,-10 97.4807,-10 105.691,-10"/>
<polygon fill="midnightblue" stroke="midnightblue" points="79.7659,-6.5001 69.7658,-10 79.7658,-13.5001 79.7659,-6.5001"/>
</g>
<!-- Node3 -->
<g id="node3" class="node"><title>Node3</title>
<g id="a_node3"><a xlink:href="$SPIDriver__MPU6000_8pde.html#a39a24a80bc3128a314bb15c85fc22cef" xlink:title="loop">
<polygon fill="white" stroke="black" points="212.5,-0.5 212.5,-19.5 247.5,-19.5 247.5,-0.5 212.5,-0.5"/>
<text text-anchor="middle" x="230" y="-7.5" font-family="Helvetica,sans-Serif" font-size="10.00">loop</text>
</a>
</g>
</g>
<!-- Node2&#45;&gt;Node3 -->
<g id="edge2" class="edge"><title>Node2&#45;&gt;Node3</title>
<path fill="none" stroke="midnightblue" d="M186.658,-10C195.809,-10 204.891,-10 212.283,-10"/>
<polygon fill="midnightblue" stroke="midnightblue" points="186.385,-6.5001 176.385,-10 186.385,-13.5001 186.385,-6.5001"/>
</g>
</g>
</svg>
