<?xml version="1.0" encoding="UTF-8" standalone="no"?>
<!DOCTYPE svg PUBLIC "-//W3C//DTD SVG 1.1//EN"
 "http://www.w3.org/Graphics/SVG/1.1/DTD/svg11.dtd">
<!-- Generated by graphviz version 2.36.0 (20140111.2315)
 -->
<!-- Title: loop Pages: 1 -->
<svg width="354pt" height="251pt"
 viewBox="0.00 0.00 354.00 251.00" xmlns="http://www.w3.org/2000/svg" xmlns:xlink="http://www.w3.org/1999/xlink">
<g id="graph0" class="graph" transform="scale(1 1) rotate(0) translate(4 247)">
<title>loop</title>
<polygon fill="white" stroke="none" points="-4,4 -4,-247 350,-247 350,4 -4,4"/>
<!-- Node1 -->
<g id="node1" class="node"><title>Node1</title>
<polygon fill="#bfbfbf" stroke="black" points="0.5,-125.5 0.5,-144.5 35.5,-144.5 35.5,-125.5 0.5,-125.5"/>
<text text-anchor="middle" x="18" y="-132.5" font-family="Helvetica,sans-Serif" font-size="10.00">loop</text>
</g>
<!-- Node2 -->
<g id="node2" class="node"><title>Node2</title>
<g id="a_node2"><a xlink:href="$StorageTest_8pde.html#ae90ca0cc108035a18d1a2b972743b781" xlink:title="get_random">
<polygon fill="white" stroke="black" points="96,-223.5 96,-242.5 164,-242.5 164,-223.5 96,-223.5"/>
<text text-anchor="middle" x="130" y="-230.5" font-family="Helvetica,sans-Serif" font-size="10.00">get_random</text>
</a>
</g>
</g>
<!-- Node1&#45;&gt;Node2 -->
<g id="edge1" class="edge"><title>Node1&#45;&gt;Node2</title>
<path fill="none" stroke="midnightblue" d="M22.8875,-144.515C30.1126,-161.042 47.1656,-195.089 72,-214 76.3569,-217.318 81.3241,-220.074 86.4679,-222.359"/>
<polygon fill="midnightblue" stroke="midnightblue" points="85.235,-225.635 95.8241,-225.983 87.7636,-219.107 85.235,-225.635"/>
</g>
<!-- Node3 -->
<g id="node3" class="node"><title>Node3</title>
<g id="a_node3"><a xlink:href="$classStorageAccess.html#a82088aa568b13d18acc9e41a01fd1f19" xlink:title="StorageAccess::size">
<polygon fill="white" stroke="black" points="76.5,-185.5 76.5,-204.5 183.5,-204.5 183.5,-185.5 76.5,-185.5"/>
<text text-anchor="middle" x="130" y="-192.5" font-family="Helvetica,sans-Serif" font-size="10.00">StorageAccess::size</text>
</a>
</g>
</g>
<!-- Node1&#45;&gt;Node3 -->
<g id="edge2" class="edge"><title>Node1&#45;&gt;Node3</title>
<path fill="none" stroke="midnightblue" d="M29.2246,-144.621C39.3951,-153.758 55.783,-167.348 72,-176 75.9905,-178.129 80.2644,-180.082 84.6112,-181.857"/>
<polygon fill="midnightblue" stroke="midnightblue" points="83.5701,-185.205 94.1619,-185.459 86.0405,-178.655 83.5701,-185.205"/>
</g>
<!-- Node4 -->
<g id="node4" class="node"><title>Node4</title>
<g id="a_node4"><a xlink:href="$StorageTest_8pde.html#a43d728f563c02d14ac92477dc41a99ae" xlink:title="pvalue">
<polygon fill="white" stroke="black" points="107.5,-147.5 107.5,-166.5 152.5,-166.5 152.5,-147.5 107.5,-147.5"/>
<text text-anchor="middle" x="130" y="-154.5" font-family="Helvetica,sans-Serif" font-size="10.00">pvalue</text>
</a>
</g>
</g>
<!-- Node1&#45;&gt;Node4 -->
<g id="edge3" class="edge"><title>Node1&#45;&gt;Node4</title>
<path fill="none" stroke="midnightblue" d="M35.7066,-138.341C51.982,-141.596 77.1388,-146.628 97.2293,-150.646"/>
<polygon fill="midnightblue" stroke="midnightblue" points="96.7075,-154.111 107.2,-152.64 98.0804,-147.247 96.7075,-154.111"/>
</g>
<!-- Node5 -->
<g id="node5" class="node"><title>Node5</title>
<g id="a_node5"><a xlink:href="$classStorageAccess.html#aa527b50188a7138b173defe07b9b7bf6" xlink:title="StorageAccess::write\l_block">
<polygon fill="white" stroke="black" points="75,-49 75,-79 185,-79 185,-49 75,-49"/>
<text text-anchor="start" x="83" y="-67" font-family="Helvetica,sans-Serif" font-size="10.00">StorageAccess::write</text>
<text text-anchor="middle" x="130" y="-56" font-family="Helvetica,sans-Serif" font-size="10.00">_block</text>
</a>
</g>
</g>
<!-- Node1&#45;&gt;Node5 -->
<g id="edge4" class="edge"><title>Node1&#45;&gt;Node5</title>
<path fill="none" stroke="midnightblue" d="M28.443,-125.217C38.5267,-115.17 55.32,-99.5523 72,-89 74.9193,-87.1531 77.9984,-85.3777 81.1519,-83.6846"/>
<polygon fill="midnightblue" stroke="midnightblue" points="82.8113,-86.7677 90.1648,-79.1403 79.6598,-80.5172 82.8113,-86.7677"/>
</g>
<!-- Node9 -->
<g id="node9" class="node"><title>Node9</title>
<g id="a_node9"><a xlink:href="$classAP__HAL_1_1UARTDriver.html#a4b1ae6fcec3dfe651d08faf589f4ad6d" xlink:title="AP_HAL::UARTDriver\l::printf">
<polygon fill="white" stroke="black" points="72.5,-0 72.5,-30 187.5,-30 187.5,-0 72.5,-0"/>
<text text-anchor="start" x="80.5" y="-18" font-family="Helvetica,sans-Serif" font-size="10.00">AP_HAL::UARTDriver</text>
<text text-anchor="middle" x="130" y="-7" font-family="Helvetica,sans-Serif" font-size="10.00">::printf</text>
</a>
</g>
</g>
<!-- Node1&#45;&gt;Node9 -->
<g id="edge8" class="edge"><title>Node1&#45;&gt;Node9</title>
<path fill="none" stroke="midnightblue" d="M22.049,-125.318C28.4291,-106.492 44.8845,-64.6409 72,-40 73.6894,-38.4648 75.4881,-37.0127 77.3666,-35.6405"/>
<polygon fill="midnightblue" stroke="midnightblue" points="79.4692,-38.4509 86.022,-30.1255 75.7077,-32.5474 79.4692,-38.4509"/>
</g>
<!-- Node10 -->
<g id="node10" class="node"><title>Node10</title>
<g id="a_node10"><a xlink:href="$classStorageAccess.html#ab2a8575d541549a15645edc360fdaa91" xlink:title="StorageAccess::read\l_block">
<polygon fill="white" stroke="black" points="76,-98 76,-128 184,-128 184,-98 76,-98"/>
<text text-anchor="start" x="84" y="-116" font-family="Helvetica,sans-Serif" font-size="10.00">StorageAccess::read</text>
<text text-anchor="middle" x="130" y="-105" font-family="Helvetica,sans-Serif" font-size="10.00">_block</text>
</a>
</g>
</g>
<!-- Node1&#45;&gt;Node10 -->
<g id="edge9" class="edge"><title>Node1&#45;&gt;Node10</title>
<path fill="none" stroke="midnightblue" d="M35.7066,-131.659C44.0739,-129.985 54.7886,-127.842 65.9555,-125.609"/>
<polygon fill="midnightblue" stroke="midnightblue" points="66.7182,-129.026 75.8376,-123.632 65.3454,-122.162 66.7182,-129.026"/>
</g>
<!-- Node6 -->
<g id="node6" class="node"><title>Node6</title>
<g id="a_node6"><a xlink:href="$AP__Progmem__Identity_8h.html#a9fc333349fa71fdc21a2d5152c5e23a2" xlink:title="pgm_read_word">
<polygon fill="white" stroke="black" points="242,-97.5 242,-116.5 328,-116.5 328,-97.5 242,-97.5"/>
<text text-anchor="middle" x="285" y="-104.5" font-family="Helvetica,sans-Serif" font-size="10.00">pgm_read_word</text>
</a>
</g>
</g>
<!-- Node5&#45;&gt;Node6 -->
<g id="edge5" class="edge"><title>Node5&#45;&gt;Node6</title>
<path fill="none" stroke="midnightblue" d="M184.512,-79.0393C202.665,-84.1411 222.722,-89.778 240.043,-94.646"/>
<polygon fill="midnightblue" stroke="midnightblue" points="239.316,-98.0773 249.89,-97.4135 241.21,-91.3383 239.316,-98.0773"/>
</g>
<!-- Node7 -->
<g id="node7" class="node"><title>Node7</title>
<g id="a_node7"><a xlink:href="$AP__Progmem__Identity_8h.html#a1514e0408e036062b4af844baaf567da" xlink:title="pgm_read_byte">
<polygon fill="white" stroke="black" points="243.5,-59.5 243.5,-78.5 326.5,-78.5 326.5,-59.5 243.5,-59.5"/>
<text text-anchor="middle" x="285" y="-66.5" font-family="Helvetica,sans-Serif" font-size="10.00">pgm_read_byte</text>
</a>
</g>
</g>
<!-- Node5&#45;&gt;Node7 -->
<g id="edge6" class="edge"><title>Node5&#45;&gt;Node7</title>
<path fill="none" stroke="midnightblue" d="M185.373,-65.7769C200.866,-66.2832 217.683,-66.8328 232.969,-67.3323"/>
<polygon fill="midnightblue" stroke="midnightblue" points="233.163,-70.8404 243.272,-67.669 233.392,-63.8442 233.163,-70.8404"/>
</g>
<!-- Node8 -->
<g id="node8" class="node"><title>Node8</title>
<g id="a_node8"><a xlink:href="$classAP__HAL_1_1Storage.html#a9de79ab93ea4374bd3d1583e28620d2e" xlink:title="AP_HAL::Storage::write\l_block">
<polygon fill="white" stroke="black" points="224,-10 224,-40 346,-40 346,-10 224,-10"/>
<text text-anchor="start" x="232" y="-28" font-family="Helvetica,sans-Serif" font-size="10.00">AP_HAL::Storage::write</text>
<text text-anchor="middle" x="285" y="-17" font-family="Helvetica,sans-Serif" font-size="10.00">_block</text>
</a>
</g>
</g>
<!-- Node5&#45;&gt;Node8 -->
<g id="edge7" class="edge"><title>Node5&#45;&gt;Node8</title>
<path fill="none" stroke="midnightblue" d="M185.373,-50.1402C195.036,-47.6772 205.214,-45.0827 215.214,-42.5336"/>
<polygon fill="midnightblue" stroke="midnightblue" points="216.304,-45.8677 225.13,-40.0061 214.575,-39.0846 216.304,-45.8677"/>
</g>
<!-- Node10&#45;&gt;Node6 -->
<g id="edge10" class="edge"><title>Node10&#45;&gt;Node6</title>
<path fill="none" stroke="midnightblue" d="M184.083,-110.918C199.37,-110.319 216.038,-109.665 231.302,-109.067"/>
<polygon fill="midnightblue" stroke="midnightblue" points="231.756,-112.552 241.611,-108.662 231.482,-105.557 231.756,-112.552"/>
</g>
<!-- Node10&#45;&gt;Node7 -->
<g id="edge11" class="edge"><title>Node10&#45;&gt;Node7</title>
<path fill="none" stroke="midnightblue" d="M183.226,-97.9808C202.071,-92.5613 223.108,-86.5114 241.067,-81.3468"/>
<polygon fill="midnightblue" stroke="midnightblue" points="242.051,-84.7058 250.694,-78.5783 240.116,-77.9785 242.051,-84.7058"/>
</g>
<!-- Node11 -->
<g id="node11" class="node"><title>Node11</title>
<g id="a_node11"><a xlink:href="$classAP__HAL_1_1Storage.html#a1c3b1e80b0bec7d4bacd3ecbefb3b3f3" xlink:title="AP_HAL::Storage::read\l_block">
<polygon fill="white" stroke="black" points="225.5,-136 225.5,-166 344.5,-166 344.5,-136 225.5,-136"/>
<text text-anchor="start" x="233.5" y="-154" font-family="Helvetica,sans-Serif" font-size="10.00">AP_HAL::Storage::read</text>
<text text-anchor="middle" x="285" y="-143" font-family="Helvetica,sans-Serif" font-size="10.00">_block</text>
</a>
</g>
</g>
<!-- Node10&#45;&gt;Node11 -->
<g id="edge12" class="edge"><title>Node10&#45;&gt;Node11</title>
<path fill="none" stroke="midnightblue" d="M184.083,-126.184C194.155,-128.686 204.827,-131.336 215.302,-133.938"/>
<polygon fill="midnightblue" stroke="midnightblue" points="214.709,-137.397 225.258,-136.411 216.397,-130.603 214.709,-137.397"/>
</g>
</g>
</svg>
