<?xml version="1.0" encoding="UTF-8" standalone="no"?>
<!DOCTYPE svg PUBLIC "-//W3C//DTD SVG 1.1//EN"
 "http://www.w3.org/Graphics/SVG/1.1/DTD/svg11.dtd">
<!-- Generated by graphviz version 2.36.0 (20140111.2315)
 -->
<!-- Title: Vector2::length Pages: 1 -->
<svg width="828pt" height="551pt"
 viewBox="0.00 0.00 828.00 551.00" xmlns="http://www.w3.org/2000/svg" xmlns:xlink="http://www.w3.org/1999/xlink">
<g id="graph0" class="graph" transform="scale(1 1) rotate(0) translate(4 547)">
<title>Vector2::length</title>
<polygon fill="white" stroke="none" points="-4,4 -4,-547 824,-547 824,4 -4,4"/>
<!-- Node1 -->
<g id="node1" class="node"><title>Node1</title>
<polygon fill="#bfbfbf" stroke="black" points="0.5,-264.5 0.5,-283.5 83.5,-283.5 83.5,-264.5 0.5,-264.5"/>
<text text-anchor="middle" x="42" y="-271.5" font-family="Helvetica,sans-Serif" font-size="10.00">Vector2::length</text>
</g>
<!-- Node2 -->
<g id="node2" class="node"><title>Node2</title>
<g id="a_node2"><a xlink:href="$classAC__PosControl.html#a46019950532852f60edd1a68bef9d1b2" xlink:title="AC_PosControl::accel\l_to_lean_angles">
<polygon fill="white" stroke="black" points="299,-410 299,-440 413,-440 413,-410 299,-410"/>
<text text-anchor="start" x="307" y="-428" font-family="Helvetica,sans-Serif" font-size="10.00">AC_PosControl::accel</text>
<text text-anchor="middle" x="356" y="-417" font-family="Helvetica,sans-Serif" font-size="10.00">_to_lean_angles</text>
</a>
</g>
</g>
<!-- Node1&#45;&gt;Node2 -->
<g id="edge1" class="edge"><title>Node1&#45;&gt;Node2</title>
<path fill="none" stroke="midnightblue" d="M49.3084,-293.268C59.4403,-320.867 82.1387,-370.971 120,-395 173.652,-429.051 248.139,-432.928 298.77,-430.65"/>
<polygon fill="midnightblue" stroke="midnightblue" points="52.5281,-291.871 45.9318,-283.58 45.9181,-294.175 52.5281,-291.871"/>
</g>
<!-- Node10 -->
<g id="node10" class="node"><title>Node10</title>
<g id="a_node10"><a xlink:href="$structVector2.html#a62830d89ee7cd308a7d12caf352f1be9" xlink:title="Vector2::angle">
<polygon fill="white" stroke="black" points="151,-333.5 151,-352.5 231,-352.5 231,-333.5 151,-333.5"/>
<text text-anchor="middle" x="191" y="-340.5" font-family="Helvetica,sans-Serif" font-size="10.00">Vector2::angle</text>
</a>
</g>
</g>
<!-- Node1&#45;&gt;Node10 -->
<g id="edge9" class="edge"><title>Node1&#45;&gt;Node10</title>
<path fill="none" stroke="midnightblue" d="M63.9211,-289.662C78.8997,-300.274 99.8938,-313.96 120,-323 129.683,-327.353 140.548,-331.003 150.777,-333.943"/>
<polygon fill="midnightblue" stroke="midnightblue" points="65.5871,-286.547 55.4338,-283.52 61.4834,-292.218 65.5871,-286.547"/>
</g>
<!-- Node11 -->
<g id="node11" class="node"><title>Node11</title>
<g id="a_node11"><a xlink:href="$classAC__WPNav.html#a3dbf7bda89b127cdc81bca29e2af25de" xlink:title="AC_WPNav::calc_loiter\l_desired_velocity">
<polygon fill="white" stroke="black" points="450.5,-366 450.5,-396 571.5,-396 571.5,-366 450.5,-366"/>
<text text-anchor="start" x="458.5" y="-384" font-family="Helvetica,sans-Serif" font-size="10.00">AC_WPNav::calc_loiter</text>
<text text-anchor="middle" x="511" y="-373" font-family="Helvetica,sans-Serif" font-size="10.00">_desired_velocity</text>
</a>
</g>
</g>
<!-- Node1&#45;&gt;Node11 -->
<g id="edge10" class="edge"><title>Node1&#45;&gt;Node11</title>
<path fill="none" stroke="midnightblue" d="M52.91,-292.37C65.4204,-313.459 89.0937,-347.058 120,-362 176.606,-389.366 355.95,-387.049 450.437,-383.697"/>
<polygon fill="midnightblue" stroke="midnightblue" points="55.949,-290.634 47.9616,-283.673 49.8649,-294.096 55.949,-290.634"/>
</g>
<!-- Node12 -->
<g id="node12" class="node"><title>Node12</title>
<g id="a_node12"><a xlink:href="$classAC__PI__2D.html#af464bd8936fccc9a0b11ab183e9ca384" xlink:title="AC_PI_2D::get_i">
<polygon fill="white" stroke="black" points="145.5,-459.5 145.5,-478.5 236.5,-478.5 236.5,-459.5 145.5,-459.5"/>
<text text-anchor="middle" x="191" y="-466.5" font-family="Helvetica,sans-Serif" font-size="10.00">AC_PI_2D::get_i</text>
</a>
</g>
</g>
<!-- Node1&#45;&gt;Node12 -->
<g id="edge12" class="edge"><title>Node1&#45;&gt;Node12</title>
<path fill="none" stroke="midnightblue" d="M47.668,-293.59C56.4998,-326.839 78.5877,-394.719 120,-436 130.562,-446.529 145.125,-454.131 158.234,-459.366"/>
<polygon fill="midnightblue" stroke="midnightblue" points="51.0191,-292.566 45.1722,-283.73 44.2332,-294.283 51.0191,-292.566"/>
</g>
<!-- Node15 -->
<g id="node15" class="node"><title>Node15</title>
<g id="a_node15"><a xlink:href="$classAC__PI__2D.html#ae8bc307e280fa7d11b67742491223fb1" xlink:title="AC_PI_2D::get_i_shrink">
<polygon fill="white" stroke="black" points="130,-500.5 130,-519.5 252,-519.5 252,-500.5 130,-500.5"/>
<text text-anchor="middle" x="191" y="-507.5" font-family="Helvetica,sans-Serif" font-size="10.00">AC_PI_2D::get_i_shrink</text>
</a>
</g>
</g>
<!-- Node1&#45;&gt;Node15 -->
<g id="edge17" class="edge"><title>Node1&#45;&gt;Node15</title>
<path fill="none" stroke="midnightblue" d="M44.3899,-293.729C48.4038,-335.592 63.6405,-433.899 120,-488 125.514,-493.293 132.288,-497.313 139.43,-500.367"/>
<polygon fill="midnightblue" stroke="midnightblue" points="47.8735,-293.386 43.5458,-283.715 40.8982,-293.974 47.8735,-293.386"/>
</g>
<!-- Node16 -->
<g id="node16" class="node"><title>Node16</title>
<g id="a_node16"><a xlink:href="$structVector2.html#ace2a626eaa79412e2946216e9c3e63c6" xlink:title="Vector2\&lt; int32_t \&gt;\l::normalize">
<polygon fill="white" stroke="black" points="142,-284 142,-314 240,-314 240,-284 142,-284"/>
<text text-anchor="start" x="150" y="-302" font-family="Helvetica,sans-Serif" font-size="10.00">Vector2&lt; int32_t &gt;</text>
<text text-anchor="middle" x="191" y="-291" font-family="Helvetica,sans-Serif" font-size="10.00">::normalize</text>
</a>
</g>
</g>
<!-- Node1&#45;&gt;Node16 -->
<g id="edge19" class="edge"><title>Node1&#45;&gt;Node16</title>
<path fill="none" stroke="midnightblue" d="M93.558,-282.598C109.164,-285.252 126.303,-288.167 141.749,-290.794"/>
<polygon fill="midnightblue" stroke="midnightblue" points="94.0028,-279.124 83.5575,-280.898 92.8291,-286.025 94.0028,-279.124"/>
</g>
<!-- Node17 -->
<g id="node17" class="node"><title>Node17</title>
<g id="a_node17"><a xlink:href="$structVector2.html#a94313613241845651f3aba43ed9d5434" xlink:title="Vector2\&lt; int32_t \&gt;\l::normalized">
<polygon fill="white" stroke="black" points="142,-235 142,-265 240,-265 240,-235 142,-235"/>
<text text-anchor="start" x="150" y="-253" font-family="Helvetica,sans-Serif" font-size="10.00">Vector2&lt; int32_t &gt;</text>
<text text-anchor="middle" x="191" y="-242" font-family="Helvetica,sans-Serif" font-size="10.00">::normalized</text>
</a>
</g>
</g>
<!-- Node1&#45;&gt;Node17 -->
<g id="edge20" class="edge"><title>Node1&#45;&gt;Node17</title>
<path fill="none" stroke="midnightblue" d="M93.558,-265.746C109.164,-263.198 126.303,-260.399 141.749,-257.878"/>
<polygon fill="midnightblue" stroke="midnightblue" points="92.8629,-262.313 83.5575,-267.378 93.9908,-269.221 92.8629,-262.313"/>
</g>
<!-- Node18 -->
<g id="node18" class="node"><title>Node18</title>
<g id="a_node18"><a xlink:href="$classAP__L1__Control.html#aac848632dc59271619005127e22e374d" xlink:title="AP_L1_Control::update\l_heading_hold">
<polygon fill="white" stroke="black" points="132,-186 132,-216 250,-216 250,-186 132,-186"/>
<text text-anchor="start" x="140" y="-204" font-family="Helvetica,sans-Serif" font-size="10.00">AP_L1_Control::update</text>
<text text-anchor="middle" x="191" y="-193" font-family="Helvetica,sans-Serif" font-size="10.00">_heading_hold</text>
</a>
</g>
</g>
<!-- Node1&#45;&gt;Node18 -->
<g id="edge21" class="edge"><title>Node1&#45;&gt;Node18</title>
<path fill="none" stroke="midnightblue" d="M64.9688,-258.535C79.9919,-248.409 100.62,-235.367 120,-226 127.436,-222.406 135.529,-219.046 143.486,-216.029"/>
<polygon fill="midnightblue" stroke="midnightblue" points="62.6729,-255.865 56.4005,-264.404 66.6286,-261.641 62.6729,-255.865"/>
</g>
<!-- Node19 -->
<g id="node19" class="node"><title>Node19</title>
<g id="a_node19"><a xlink:href="$classAP__L1__Control.html#acc0860ec530ec9c9bec50a5701bb709e" xlink:title="AP_L1_Control::update\l_loiter">
<polygon fill="white" stroke="black" points="132,-137 132,-167 250,-167 250,-137 132,-137"/>
<text text-anchor="start" x="140" y="-155" font-family="Helvetica,sans-Serif" font-size="10.00">AP_L1_Control::update</text>
<text text-anchor="middle" x="191" y="-144" font-family="Helvetica,sans-Serif" font-size="10.00">_loiter</text>
</a>
</g>
</g>
<!-- Node1&#45;&gt;Node19 -->
<g id="edge22" class="edge"><title>Node1&#45;&gt;Node19</title>
<path fill="none" stroke="midnightblue" d="M53.3749,-255.375C66.3335,-233.695 90.4386,-198.168 120,-177 125.351,-173.168 131.348,-169.871 137.521,-167.048"/>
<polygon fill="midnightblue" stroke="midnightblue" points="50.2116,-253.853 48.2257,-264.26 56.2681,-257.363 50.2116,-253.853"/>
</g>
<!-- Node20 -->
<g id="node20" class="node"><title>Node20</title>
<g id="a_node20"><a xlink:href="$classAP__L1__Control.html#a9052f01ea019fb51432d3104cce0b6e8" xlink:title="AP_L1_Control::update\l_waypoint">
<polygon fill="white" stroke="black" points="132,-88 132,-118 250,-118 250,-88 132,-88"/>
<text text-anchor="start" x="140" y="-106" font-family="Helvetica,sans-Serif" font-size="10.00">AP_L1_Control::update</text>
<text text-anchor="middle" x="191" y="-95" font-family="Helvetica,sans-Serif" font-size="10.00">_waypoint</text>
</a>
</g>
</g>
<!-- Node1&#45;&gt;Node20 -->
<g id="edge23" class="edge"><title>Node1&#45;&gt;Node20</title>
<path fill="none" stroke="midnightblue" d="M48.1252,-254.446C57.3139,-223.134 79.519,-161.745 120,-127 123.997,-123.569 128.509,-120.622 133.269,-118.091"/>
<polygon fill="midnightblue" stroke="midnightblue" points="44.7273,-253.601 45.4093,-264.174 51.4695,-255.484 44.7273,-253.601"/>
</g>
<!-- Node21 -->
<g id="node21" class="node"><title>Node21</title>
<g id="a_node21"><a xlink:href="$classNavEKF.html#ad193e5aab03041673d4cfad9f7a2a6ba" xlink:title="NavEKF::writeOptFlowMeas">
<polygon fill="white" stroke="black" points="120,-49.5 120,-68.5 262,-68.5 262,-49.5 120,-49.5"/>
<text text-anchor="middle" x="191" y="-56.5" font-family="Helvetica,sans-Serif" font-size="10.00">NavEKF::writeOptFlowMeas</text>
</a>
</g>
</g>
<!-- Node1&#45;&gt;Node21 -->
<g id="edge24" class="edge"><title>Node1&#45;&gt;Node21</title>
<path fill="none" stroke="midnightblue" d="M44.9747,-254.139C49.9904,-214.572 66.8595,-125.628 120,-78 124.314,-74.1339 129.337,-71.0437 134.676,-68.5754"/>
<polygon fill="midnightblue" stroke="midnightblue" points="41.4922,-253.788 43.8331,-264.121 48.4468,-254.583 41.4922,-253.788"/>
</g>
<!-- Node22 -->
<g id="node22" class="node"><title>Node22</title>
<g id="a_node22"><a xlink:href="$classAP__AHRS__DCM.html#a5a98cf4f7346879e60a0f977757a6634" xlink:title="AP_AHRS_DCM::yaw_error\l_compass">
<polygon fill="white" stroke="black" points="120.5,-0 120.5,-30 261.5,-30 261.5,-0 120.5,-0"/>
<text text-anchor="start" x="128.5" y="-18" font-family="Helvetica,sans-Serif" font-size="10.00">AP_AHRS_DCM::yaw_error</text>
<text text-anchor="middle" x="191" y="-7" font-family="Helvetica,sans-Serif" font-size="10.00">_compass</text>
</a>
</g>
</g>
<!-- Node1&#45;&gt;Node22 -->
<g id="edge25" class="edge"><title>Node1&#45;&gt;Node22</title>
<path fill="none" stroke="midnightblue" d="M43.8446,-254.459C46.8037,-210.203 60.1194,-101.404 120,-40 123.784,-36.1197 128.211,-32.8397 132.967,-30.0675"/>
<polygon fill="midnightblue" stroke="midnightblue" points="40.3484,-254.295 43.2834,-264.475 47.3374,-254.687 40.3484,-254.295"/>
</g>
<!-- Node3 -->
<g id="node3" class="node"><title>Node3</title>
<g id="a_node3"><a xlink:href="$classAC__PosControl.html#ad89eec74ef77005f3f5c449da98ad12c" xlink:title="AC_PosControl::update\l_vel_controller_xyz">
<polygon fill="white" stroke="black" points="451,-494 451,-524 571,-524 571,-494 451,-494"/>
<text text-anchor="start" x="459" y="-512" font-family="Helvetica,sans-Serif" font-size="10.00">AC_PosControl::update</text>
<text text-anchor="middle" x="511" y="-501" font-family="Helvetica,sans-Serif" font-size="10.00">_vel_controller_xyz</text>
</a>
</g>
</g>
<!-- Node2&#45;&gt;Node3 -->
<g id="edge2" class="edge"><title>Node2&#45;&gt;Node3</title>
<path fill="none" stroke="midnightblue" d="M404.687,-444.616C407.896,-446.331 411.03,-448.129 414,-450 431.866,-461.254 432.267,-469.539 450,-481 457.337,-485.742 465.606,-490.136 473.607,-493.971"/>
<polygon fill="midnightblue" stroke="midnightblue" points="406.029,-441.373 395.521,-440.016 402.889,-447.63 406.029,-441.373"/>
</g>
<!-- Node4 -->
<g id="node4" class="node"><title>Node4</title>
<g id="a_node4"><a xlink:href="$classAC__PosControl.html#ae8b8e5c5812ab2419c570ae7f44a70f3" xlink:title="update_xy_controller &#45; run the horizontal position controller &#45; should be called at 100hz or higher ...">
<polygon fill="white" stroke="black" points="451,-442 451,-472 571,-472 571,-442 451,-442"/>
<text text-anchor="start" x="459" y="-460" font-family="Helvetica,sans-Serif" font-size="10.00">AC_PosControl::update</text>
<text text-anchor="middle" x="511" y="-449" font-family="Helvetica,sans-Serif" font-size="10.00">_xy_controller</text>
</a>
</g>
</g>
<!-- Node2&#45;&gt;Node4 -->
<g id="edge3" class="edge"><title>Node2&#45;&gt;Node4</title>
<path fill="none" stroke="midnightblue" d="M423.023,-438.809C432.265,-440.742 441.715,-442.718 450.819,-444.622"/>
<polygon fill="midnightblue" stroke="midnightblue" points="423.608,-435.355 413.103,-436.734 422.174,-442.207 423.608,-435.355"/>
</g>
<!-- Node5 -->
<g id="node5" class="node"><title>Node5</title>
<g id="a_node5"><a xlink:href="$classAC__Circle.html#ad28205982ae7bc5f1e72f5285696c99b" xlink:title="update &#45; update circle controller ">
<polygon fill="white" stroke="black" points="629.5,-447.5 629.5,-466.5 726.5,-466.5 726.5,-447.5 629.5,-447.5"/>
<text text-anchor="middle" x="678" y="-454.5" font-family="Helvetica,sans-Serif" font-size="10.00">AC_Circle::update</text>
</a>
</g>
</g>
<!-- Node4&#45;&gt;Node5 -->
<g id="edge4" class="edge"><title>Node4&#45;&gt;Node5</title>
<path fill="none" stroke="midnightblue" d="M581.111,-457C597.372,-457 614.345,-457 629.413,-457"/>
<polygon fill="midnightblue" stroke="midnightblue" points="581.103,-453.5 571.103,-457 581.103,-460.5 581.103,-453.5"/>
</g>
<!-- Node6 -->
<g id="node6" class="node"><title>Node6</title>
<g id="a_node6"><a xlink:href="$classAC__WPNav.html#af9d3f98ad44166d4c5d072bf3ba4a3db" xlink:title="update_brake &#45; run the brake controller &#45; should be called at 400hz ">
<polygon fill="white" stroke="black" points="610.5,-409.5 610.5,-428.5 745.5,-428.5 745.5,-409.5 610.5,-409.5"/>
<text text-anchor="middle" x="678" y="-416.5" font-family="Helvetica,sans-Serif" font-size="10.00">AC_WPNav::update_brake</text>
</a>
</g>
</g>
<!-- Node4&#45;&gt;Node6 -->
<g id="edge5" class="edge"><title>Node4&#45;&gt;Node6</title>
<path fill="none" stroke="midnightblue" d="M581.001,-441.109C599.571,-436.832 619.079,-432.339 635.622,-428.529"/>
<polygon fill="midnightblue" stroke="midnightblue" points="580.062,-437.733 571.103,-443.388 581.633,-444.555 580.062,-437.733"/>
</g>
<!-- Node7 -->
<g id="node7" class="node"><title>Node7</title>
<g id="a_node7"><a xlink:href="$classAC__WPNav.html#a0a434270245fd8641352af387700dc82" xlink:title="update_loiter &#45; run the loiter controller &#45; should be called at 10hz ">
<polygon fill="white" stroke="black" points="612,-371.5 612,-390.5 744,-390.5 744,-371.5 612,-371.5"/>
<text text-anchor="middle" x="678" y="-378.5" font-family="Helvetica,sans-Serif" font-size="10.00">AC_WPNav::update_loiter</text>
</a>
</g>
</g>
<!-- Node4&#45;&gt;Node7 -->
<g id="edge6" class="edge"><title>Node4&#45;&gt;Node7</title>
<path fill="none" stroke="midnightblue" d="M542.124,-436.273C560.508,-424.357 584.855,-409.847 608,-400 616.575,-396.352 626.048,-393.21 635.157,-390.592"/>
<polygon fill="midnightblue" stroke="midnightblue" points="540.035,-433.458 533.609,-441.882 543.886,-439.303 540.035,-433.458"/>
</g>
<!-- Node8 -->
<g id="node8" class="node"><title>Node8</title>
<g id="a_node8"><a xlink:href="$classAC__WPNav.html#a1d067335195835e46ba7218f8d784936" xlink:title="update_spline &#45; update spline controller ">
<polygon fill="white" stroke="black" points="609.5,-523.5 609.5,-542.5 746.5,-542.5 746.5,-523.5 609.5,-523.5"/>
<text text-anchor="middle" x="678" y="-530.5" font-family="Helvetica,sans-Serif" font-size="10.00">AC_WPNav::update_spline</text>
</a>
</g>
</g>
<!-- Node4&#45;&gt;Node8 -->
<g id="edge7" class="edge"><title>Node4&#45;&gt;Node8</title>
<path fill="none" stroke="midnightblue" d="M557.149,-476.615C562.255,-479.258 567.305,-482.074 572,-485 589.436,-495.868 589.714,-504.633 608,-514 615.409,-517.795 623.666,-520.906 631.82,-523.429"/>
<polygon fill="midnightblue" stroke="midnightblue" points="558.477,-473.367 547.964,-472.057 555.366,-479.637 558.477,-473.367"/>
</g>
<!-- Node9 -->
<g id="node9" class="node"><title>Node9</title>
<g id="a_node9"><a xlink:href="$classAC__WPNav.html#ab37772c12f3376c2eda24d8506a994fc" xlink:title="update_wpnav &#45; run the wp controller &#45; should be called at 100hz or higher ">
<polygon fill="white" stroke="black" points="608,-485.5 608,-504.5 748,-504.5 748,-485.5 608,-485.5"/>
<text text-anchor="middle" x="678" y="-492.5" font-family="Helvetica,sans-Serif" font-size="10.00">AC_WPNav::update_wpnav</text>
</a>
</g>
</g>
<!-- Node4&#45;&gt;Node9 -->
<g id="edge8" class="edge"><title>Node4&#45;&gt;Node9</title>
<path fill="none" stroke="midnightblue" d="M581.001,-472.891C599.571,-477.168 619.079,-481.661 635.622,-485.471"/>
<polygon fill="midnightblue" stroke="midnightblue" points="581.633,-469.445 571.103,-470.612 580.062,-476.267 581.633,-469.445"/>
</g>
<!-- Node11&#45;&gt;Node7 -->
<g id="edge11" class="edge"><title>Node11&#45;&gt;Node7</title>
<path fill="none" stroke="midnightblue" d="M581.849,-381C591.826,-381 602.056,-381 611.936,-381"/>
<polygon fill="midnightblue" stroke="midnightblue" points="581.569,-377.5 571.569,-381 581.569,-384.5 581.569,-377.5"/>
</g>
<!-- Node13 -->
<g id="node13" class="node"><title>Node13</title>
<g id="a_node13"><a xlink:href="$classAC__PI__2D.html#aca9b20442f46d13eff1ad8e1824c0067" xlink:title="AC_PI_2D::get_pi">
<polygon fill="white" stroke="black" points="308,-459.5 308,-478.5 404,-478.5 404,-459.5 308,-459.5"/>
<text text-anchor="middle" x="356" y="-466.5" font-family="Helvetica,sans-Serif" font-size="10.00">AC_PI_2D::get_pi</text>
</a>
</g>
</g>
<!-- Node12&#45;&gt;Node13 -->
<g id="edge13" class="edge"><title>Node12&#45;&gt;Node13</title>
<path fill="none" stroke="midnightblue" d="M246.681,-469C266.545,-469 288.802,-469 307.949,-469"/>
<polygon fill="midnightblue" stroke="midnightblue" points="246.541,-465.5 236.54,-469 246.54,-472.5 246.541,-465.5"/>
</g>
<!-- Node14 -->
<g id="node14" class="node"><title>Node14</title>
<g id="a_node14"><a xlink:href="$classAC__PosControl.html#a5b3282ea40c7d2ef6d44e51670094ccf" xlink:title="AC_PosControl::rate\l_to_accel_xy">
<polygon fill="white" stroke="black" points="302.5,-498 302.5,-528 409.5,-528 409.5,-498 302.5,-498"/>
<text text-anchor="start" x="310.5" y="-516" font-family="Helvetica,sans-Serif" font-size="10.00">AC_PosControl::rate</text>
<text text-anchor="middle" x="356" y="-505" font-family="Helvetica,sans-Serif" font-size="10.00">_to_accel_xy</text>
</a>
</g>
</g>
<!-- Node12&#45;&gt;Node14 -->
<g id="edge14" class="edge"><title>Node12&#45;&gt;Node14</title>
<path fill="none" stroke="midnightblue" d="M237.252,-481.215C257.445,-486.666 281.367,-493.124 302.356,-498.789"/>
<polygon fill="midnightblue" stroke="midnightblue" points="237.935,-477.774 227.369,-478.547 236.111,-484.533 237.935,-477.774"/>
</g>
<!-- Node14&#45;&gt;Node3 -->
<g id="edge15" class="edge"><title>Node14&#45;&gt;Node3</title>
<path fill="none" stroke="midnightblue" d="M419.81,-511.358C430.108,-511.089 440.749,-510.81 450.952,-510.544"/>
<polygon fill="midnightblue" stroke="midnightblue" points="419.559,-507.863 409.654,-511.623 419.742,-514.861 419.559,-507.863"/>
</g>
<!-- Node14&#45;&gt;Node4 -->
<g id="edge16" class="edge"><title>Node14&#45;&gt;Node4</title>
<path fill="none" stroke="midnightblue" d="M407.532,-494.505C427.438,-487.219 450.006,-478.959 468.886,-472.048"/>
<polygon fill="midnightblue" stroke="midnightblue" points="406.189,-491.269 398.001,-497.993 408.595,-497.843 406.189,-491.269"/>
</g>
<!-- Node15&#45;&gt;Node14 -->
<g id="edge18" class="edge"><title>Node15&#45;&gt;Node14</title>
<path fill="none" stroke="midnightblue" d="M262.363,-511.295C275.748,-511.541 289.542,-511.795 302.262,-512.029"/>
<polygon fill="midnightblue" stroke="midnightblue" points="262.295,-507.793 252.232,-511.109 262.166,-514.792 262.295,-507.793"/>
</g>
<!-- Node23 -->
<g id="node23" class="node"><title>Node23</title>
<g id="a_node23"><a xlink:href="$classAP__AHRS__DCM.html#a101f2aaddcc7e97e690924d4e9d7a191" xlink:title="AP_AHRS_DCM::drift\l_correction_yaw">
<polygon fill="white" stroke="black" points="298.5,-0 298.5,-30 413.5,-30 413.5,-0 298.5,-0"/>
<text text-anchor="start" x="306.5" y="-18" font-family="Helvetica,sans-Serif" font-size="10.00">AP_AHRS_DCM::drift</text>
<text text-anchor="middle" x="356" y="-7" font-family="Helvetica,sans-Serif" font-size="10.00">_correction_yaw</text>
</a>
</g>
</g>
<!-- Node22&#45;&gt;Node23 -->
<g id="edge26" class="edge"><title>Node22&#45;&gt;Node23</title>
<path fill="none" stroke="midnightblue" d="M271.738,-15C280.749,-15 289.79,-15 298.418,-15"/>
<polygon fill="midnightblue" stroke="midnightblue" points="271.6,-11.5001 261.599,-15 271.599,-18.5001 271.6,-11.5001"/>
</g>
<!-- Node24 -->
<g id="node24" class="node"><title>Node24</title>
<g id="a_node24"><a xlink:href="$classAP__AHRS__DCM.html#a8c3304b59bc6a27f24c686985c100549" xlink:title="AP_AHRS_DCM::drift\l_correction">
<polygon fill="white" stroke="black" points="453.5,-0 453.5,-30 568.5,-30 568.5,-0 453.5,-0"/>
<text text-anchor="start" x="461.5" y="-18" font-family="Helvetica,sans-Serif" font-size="10.00">AP_AHRS_DCM::drift</text>
<text text-anchor="middle" x="511" y="-7" font-family="Helvetica,sans-Serif" font-size="10.00">_correction</text>
</a>
</g>
</g>
<!-- Node23&#45;&gt;Node24 -->
<g id="edge27" class="edge"><title>Node23&#45;&gt;Node24</title>
<path fill="none" stroke="midnightblue" d="M423.747,-15C433.649,-15 443.773,-15 453.44,-15"/>
<polygon fill="midnightblue" stroke="midnightblue" points="423.537,-11.5001 413.537,-15 423.537,-18.5001 423.537,-11.5001"/>
</g>
<!-- Node25 -->
<g id="node25" class="node"><title>Node25</title>
<g id="a_node25"><a xlink:href="$classAP__AHRS__DCM.html#a6bf59b99999767fdbf4dfd363bc51bfd" xlink:title="AP_AHRS_DCM::update">
<polygon fill="white" stroke="black" points="614,-5.5 614,-24.5 742,-24.5 742,-5.5 614,-5.5"/>
<text text-anchor="middle" x="678" y="-12.5" font-family="Helvetica,sans-Serif" font-size="10.00">AP_AHRS_DCM::update</text>
</a>
</g>
</g>
<!-- Node24&#45;&gt;Node25 -->
<g id="edge28" class="edge"><title>Node24&#45;&gt;Node25</title>
<path fill="none" stroke="midnightblue" d="M578.826,-15C590.407,-15 602.415,-15 613.892,-15"/>
<polygon fill="midnightblue" stroke="midnightblue" points="578.784,-11.5001 568.784,-15 578.784,-18.5001 578.784,-11.5001"/>
</g>
<!-- Node26 -->
<g id="node26" class="node"><title>Node26</title>
<g id="a_node26"><a xlink:href="$AHRS__Test_8pde.html#a0b33edabd7f1c4e4a0bf32c67269be2f" xlink:title="loop">
<polygon fill="white" stroke="black" points="784.5,-5.5 784.5,-24.5 819.5,-24.5 819.5,-5.5 784.5,-5.5"/>
<text text-anchor="middle" x="802" y="-12.5" font-family="Helvetica,sans-Serif" font-size="10.00">loop</text>
</a>
</g>
</g>
<!-- Node25&#45;&gt;Node26 -->
<g id="edge29" class="edge"><title>Node25&#45;&gt;Node26</title>
<path fill="none" stroke="midnightblue" d="M752.3,-15C764.258,-15 775.557,-15 784.256,-15"/>
<polygon fill="midnightblue" stroke="midnightblue" points="752.144,-11.5001 742.144,-15 752.144,-18.5001 752.144,-11.5001"/>
</g>
</g>
</svg>
