<?xml version="1.0" encoding="UTF-8" standalone="no"?>
<!DOCTYPE svg PUBLIC "-//W3C//DTD SVG 1.1//EN"
 "http://www.w3.org/Graphics/SVG/1.1/DTD/svg11.dtd">
<!-- Generated by graphviz version 2.36.0 (20140111.2315)
 -->
<!-- Title: Vector2::zero Pages: 1 -->
<svg width="782pt" height="343pt"
 viewBox="0.00 0.00 782.00 343.00" xmlns="http://www.w3.org/2000/svg" xmlns:xlink="http://www.w3.org/1999/xlink">
<g id="graph0" class="graph" transform="scale(1 1) rotate(0) translate(4 339)">
<title>Vector2::zero</title>
<polygon fill="white" stroke="none" points="-4,4 -4,-339 778,-339 778,4 -4,4"/>
<!-- Node1 -->
<g id="node1" class="node"><title>Node1</title>
<polygon fill="#bfbfbf" stroke="black" points="0.5,-144.5 0.5,-163.5 75.5,-163.5 75.5,-144.5 0.5,-144.5"/>
<text text-anchor="middle" x="38" y="-151.5" font-family="Helvetica,sans-Serif" font-size="10.00">Vector2::zero</text>
</g>
<!-- Node2 -->
<g id="node2" class="node"><title>Node2</title>
<g id="a_node2"><a xlink:href="$classNavEKF.html#a55a6ae919135e4deef0cffe2eca3ac80" xlink:title="NavEKF::decayGpsOffset">
<polygon fill="white" stroke="black" points="112.5,-277.5 112.5,-296.5 243.5,-296.5 243.5,-277.5 112.5,-277.5"/>
<text text-anchor="middle" x="178" y="-284.5" font-family="Helvetica,sans-Serif" font-size="10.00">NavEKF::decayGpsOffset</text>
</a>
</g>
</g>
<!-- Node1&#45;&gt;Node2 -->
<g id="edge1" class="edge"><title>Node1&#45;&gt;Node2</title>
<path fill="none" stroke="midnightblue" d="M47.0648,-172.786C58.2999,-196.876 80.8463,-238.46 112,-263 119.843,-269.178 129.433,-273.873 138.813,-277.397"/>
<polygon fill="midnightblue" stroke="midnightblue" points="50.2429,-171.319 42.9502,-163.634 43.8584,-174.19 50.2429,-171.319"/>
</g>
<!-- Node6 -->
<g id="node6" class="node"><title>Node6</title>
<g id="a_node6"><a xlink:href="$classNavEKF.html#a4c44a7b25f5b5584b755142c6198fd1e" xlink:title="NavEKF::readGpsData">
<polygon fill="white" stroke="black" points="300,-239.5 300,-258.5 418,-258.5 418,-239.5 300,-239.5"/>
<text text-anchor="middle" x="359" y="-246.5" font-family="Helvetica,sans-Serif" font-size="10.00">NavEKF::readGpsData</text>
</a>
</g>
</g>
<!-- Node1&#45;&gt;Node6 -->
<g id="edge17" class="edge"><title>Node1&#45;&gt;Node6</title>
<path fill="none" stroke="midnightblue" d="M51.817,-172.15C64.853,-189.021 86.6958,-213.261 112,-225 171.654,-252.676 248.043,-255.817 299.753,-253.88"/>
<polygon fill="midnightblue" stroke="midnightblue" points="54.286,-169.604 45.5149,-163.661 48.6656,-173.777 54.286,-169.604"/>
</g>
<!-- Node7 -->
<g id="node7" class="node"><title>Node7</title>
<g id="a_node7"><a xlink:href="$classNavEKF.html#a290932b02347c5247f036fbc3c7af9d8" xlink:title="NavEKF::InitialiseFilter\lBootstrap">
<polygon fill="white" stroke="black" points="490,-201 490,-231 608,-231 608,-201 490,-201"/>
<text text-anchor="start" x="498" y="-219" font-family="Helvetica,sans-Serif" font-size="10.00">NavEKF::InitialiseFilter</text>
<text text-anchor="middle" x="549" y="-208" font-family="Helvetica,sans-Serif" font-size="10.00">Bootstrap</text>
</a>
</g>
</g>
<!-- Node1&#45;&gt;Node7 -->
<g id="edge10" class="edge"><title>Node1&#45;&gt;Node7</title>
<path fill="none" stroke="midnightblue" d="M75.7654,-166.626C87.2507,-170.15 100.045,-173.653 112,-176 245.701,-202.245 405.927,-211.348 489.983,-214.447"/>
<polygon fill="midnightblue" stroke="midnightblue" points="76.6534,-163.236 66.0633,-163.551 74.5389,-169.909 76.6534,-163.236"/>
</g>
<!-- Node8 -->
<g id="node8" class="node"><title>Node8</title>
<g id="a_node8"><a xlink:href="$classNavEKF.html#a12500a621febd8f914f6e16db4c28759" xlink:title="NavEKF::InitialiseFilter\lDynamic">
<polygon fill="white" stroke="black" points="490,-152 490,-182 608,-182 608,-152 490,-152"/>
<text text-anchor="start" x="498" y="-170" font-family="Helvetica,sans-Serif" font-size="10.00">NavEKF::InitialiseFilter</text>
<text text-anchor="middle" x="549" y="-159" font-family="Helvetica,sans-Serif" font-size="10.00">Dynamic</text>
</a>
</g>
</g>
<!-- Node1&#45;&gt;Node8 -->
<g id="edge11" class="edge"><title>Node1&#45;&gt;Node8</title>
<path fill="none" stroke="midnightblue" d="M85.6261,-152.226C160.155,-149.789 310.699,-146.504 438,-154 454.893,-154.995 473.17,-156.842 489.884,-158.838"/>
<polygon fill="midnightblue" stroke="midnightblue" points="85.501,-148.728 75.6245,-152.563 85.7368,-155.724 85.501,-148.728"/>
</g>
<!-- Node9 -->
<g id="node9" class="node"><title>Node9</title>
<g id="a_node9"><a xlink:href="$classNavEKF.html#a619b70e1205a58b444e22a8d5b51f16d" xlink:title="NavEKF::InitialiseVariables">
<polygon fill="white" stroke="black" points="290.5,-163.5 290.5,-182.5 427.5,-182.5 427.5,-163.5 290.5,-163.5"/>
<text text-anchor="middle" x="359" y="-170.5" font-family="Helvetica,sans-Serif" font-size="10.00">NavEKF::InitialiseVariables</text>
</a>
</g>
</g>
<!-- Node1&#45;&gt;Node9 -->
<g id="edge12" class="edge"><title>Node1&#45;&gt;Node9</title>
<path fill="none" stroke="midnightblue" d="M85.9027,-156.794C139.883,-160.009 228.979,-165.315 290.431,-168.975"/>
<polygon fill="midnightblue" stroke="midnightblue" points="85.7838,-153.28 75.5934,-156.18 85.3675,-160.268 85.7838,-153.28"/>
</g>
<!-- Node10 -->
<g id="node10" class="node"><title>Node10</title>
<g id="a_node10"><a xlink:href="$classNavEKF.html#a9eb8c77b7f824e2ebbf378f1d269290b" xlink:title="NavEKF::performArmingChecks">
<polygon fill="white" stroke="black" points="280,-87.5 280,-106.5 438,-106.5 438,-87.5 280,-87.5"/>
<text text-anchor="middle" x="359" y="-94.5" font-family="Helvetica,sans-Serif" font-size="10.00">NavEKF::performArmingChecks</text>
</a>
</g>
</g>
<!-- Node1&#45;&gt;Node10 -->
<g id="edge15" class="edge"><title>Node1&#45;&gt;Node10</title>
<path fill="none" stroke="midnightblue" d="M65.0265,-139.719C78.6271,-132.914 95.7803,-125.331 112,-121 166.933,-106.333 230.902,-100.42 279.837,-98.1272"/>
<polygon fill="midnightblue" stroke="midnightblue" points="63.0918,-136.779 55.8151,-144.48 66.3058,-142.998 63.0918,-136.779"/>
</g>
<!-- Node11 -->
<g id="node11" class="node"><title>Node11</title>
<g id="a_node11"><a xlink:href="$classAC__PI__2D.html#a79b0a3e6c7983d886d523906cd26a511" xlink:title="AC_PI_2D::reset_I">
<polygon fill="white" stroke="black" points="128,-49.5 128,-68.5 228,-68.5 228,-49.5 128,-49.5"/>
<text text-anchor="middle" x="178" y="-56.5" font-family="Helvetica,sans-Serif" font-size="10.00">AC_PI_2D::reset_I</text>
</a>
</g>
</g>
<!-- Node1&#45;&gt;Node11 -->
<g id="edge18" class="edge"><title>Node1&#45;&gt;Node11</title>
<path fill="none" stroke="midnightblue" d="M53.2325,-136.468C66.8783,-120.635 88.7833,-97.6402 112,-83 121.463,-77.0328 132.629,-72.2337 143.011,-68.5417"/>
<polygon fill="midnightblue" stroke="midnightblue" points="50.2978,-134.52 46.5454,-144.428 55.6576,-139.022 50.2978,-134.52"/>
</g>
<!-- Node12 -->
<g id="node12" class="node"><title>Node12</title>
<g id="a_node12"><a xlink:href="$classAP__OpticalFlow__PX4.html#a7dd61e7b2db436c10012fc17c378d4ac" xlink:title="AP_OpticalFlow_PX4\l::update">
<polygon fill="white" stroke="black" points="122.5,-0 122.5,-30 233.5,-30 233.5,-0 122.5,-0"/>
<text text-anchor="start" x="130.5" y="-18" font-family="Helvetica,sans-Serif" font-size="10.00">AP_OpticalFlow_PX4</text>
<text text-anchor="middle" x="178" y="-7" font-family="Helvetica,sans-Serif" font-size="10.00">::update</text>
</a>
</g>
</g>
<!-- Node1&#45;&gt;Node12 -->
<g id="edge19" class="edge"><title>Node1&#45;&gt;Node12</title>
<path fill="none" stroke="midnightblue" d="M46.7279,-134.791C57.7187,-109.722 80.129,-65.9952 112,-40 116.685,-36.179 122.019,-32.8969 127.57,-30.089"/>
<polygon fill="midnightblue" stroke="midnightblue" points="43.3844,-133.712 42.7224,-144.286 49.834,-136.433 43.3844,-133.712"/>
</g>
<!-- Node3 -->
<g id="node3" class="node"><title>Node3</title>
<g id="a_node3"><a xlink:href="$classNavEKF.html#a74882eb98d3c69065b640829154a500c" xlink:title="NavEKF::FuseVelPosNED">
<polygon fill="white" stroke="black" points="291.5,-315.5 291.5,-334.5 426.5,-334.5 426.5,-315.5 291.5,-315.5"/>
<text text-anchor="middle" x="359" y="-322.5" font-family="Helvetica,sans-Serif" font-size="10.00">NavEKF::FuseVelPosNED</text>
</a>
</g>
</g>
<!-- Node2&#45;&gt;Node3 -->
<g id="edge2" class="edge"><title>Node2&#45;&gt;Node3</title>
<path fill="none" stroke="midnightblue" d="M234.024,-298.681C259.408,-304.07 289.161,-310.386 313.156,-315.48"/>
<polygon fill="midnightblue" stroke="midnightblue" points="234.678,-295.242 224.169,-296.589 233.224,-302.089 234.678,-295.242"/>
</g>
<!-- Node4 -->
<g id="node4" class="node"><title>Node4</title>
<g id="a_node4"><a xlink:href="$classNavEKF.html#a58fc44f797a61b7f760baa4961f43342" xlink:title="NavEKF::SelectVelPosFusion">
<polygon fill="white" stroke="black" points="474.5,-266.5 474.5,-285.5 623.5,-285.5 623.5,-266.5 474.5,-266.5"/>
<text text-anchor="middle" x="549" y="-273.5" font-family="Helvetica,sans-Serif" font-size="10.00">NavEKF::SelectVelPosFusion</text>
</a>
</g>
</g>
<!-- Node2&#45;&gt;Node4 -->
<g id="edge9" class="edge"><title>Node2&#45;&gt;Node4</title>
<path fill="none" stroke="midnightblue" d="M253.779,-284.771C318.148,-282.852 410.502,-280.099 474.498,-278.191"/>
<polygon fill="midnightblue" stroke="midnightblue" points="253.588,-281.275 243.697,-285.071 253.797,-288.272 253.588,-281.275"/>
</g>
<!-- Node2&#45;&gt;Node6 -->
<g id="edge5" class="edge"><title>Node2&#45;&gt;Node6</title>
<path fill="none" stroke="midnightblue" d="M234.024,-275.319C259.408,-269.93 289.161,-263.614 313.156,-258.52"/>
<polygon fill="midnightblue" stroke="midnightblue" points="233.224,-271.911 224.169,-277.411 234.678,-278.758 233.224,-271.911"/>
</g>
<!-- Node3&#45;&gt;Node4 -->
<g id="edge3" class="edge"><title>Node3&#45;&gt;Node4</title>
<path fill="none" stroke="midnightblue" d="M406.391,-312.909C438.775,-304.468 481.403,-293.358 511.398,-285.54"/>
<polygon fill="midnightblue" stroke="midnightblue" points="405.489,-309.527 396.695,-315.436 407.254,-316.301 405.489,-309.527"/>
</g>
<!-- Node5 -->
<g id="node5" class="node"><title>Node5</title>
<g id="a_node5"><a xlink:href="$classNavEKF.html#a58d3c9694abab421e8eadd78e72ac67c" xlink:title="NavEKF::UpdateFilter">
<polygon fill="white" stroke="black" points="660.5,-184.5 660.5,-203.5 773.5,-203.5 773.5,-184.5 660.5,-184.5"/>
<text text-anchor="middle" x="717" y="-191.5" font-family="Helvetica,sans-Serif" font-size="10.00">NavEKF::UpdateFilter</text>
</a>
</g>
</g>
<!-- Node4&#45;&gt;Node5 -->
<g id="edge4" class="edge"><title>Node4&#45;&gt;Node5</title>
<path fill="none" stroke="midnightblue" d="M579.182,-261.894C592.815,-255.28 609.256,-247.272 624,-240 649.304,-227.519 678.418,-212.922 697,-203.575"/>
<polygon fill="midnightblue" stroke="midnightblue" points="577.289,-258.922 569.816,-266.432 580.341,-265.221 577.289,-258.922"/>
</g>
<!-- Node6&#45;&gt;Node4 -->
<g id="edge8" class="edge"><title>Node6&#45;&gt;Node4</title>
<path fill="none" stroke="midnightblue" d="M428.256,-258.803C445.623,-261.297 464.261,-263.974 481.537,-266.455"/>
<polygon fill="midnightblue" stroke="midnightblue" points="428.593,-255.315 418.197,-257.358 427.598,-262.244 428.593,-255.315"/>
</g>
<!-- Node6&#45;&gt;Node7 -->
<g id="edge6" class="edge"><title>Node6&#45;&gt;Node7</title>
<path fill="none" stroke="midnightblue" d="M424.082,-237.751C445.447,-234.001 469.114,-229.847 489.991,-226.182"/>
<polygon fill="midnightblue" stroke="midnightblue" points="423.369,-234.323 414.125,-239.499 424.58,-241.218 423.369,-234.323"/>
</g>
<!-- Node6&#45;&gt;Node8 -->
<g id="edge7" class="edge"><title>Node6&#45;&gt;Node8</title>
<path fill="none" stroke="midnightblue" d="M386.463,-234.462C409.262,-222.255 443.259,-204.806 474,-192 482.387,-188.506 491.453,-185.129 500.267,-182.046"/>
<polygon fill="midnightblue" stroke="midnightblue" points="384.556,-231.514 377.419,-239.344 387.881,-237.674 384.556,-231.514"/>
</g>
<!-- Node9&#45;&gt;Node7 -->
<g id="edge13" class="edge"><title>Node9&#45;&gt;Node7</title>
<path fill="none" stroke="midnightblue" d="M411.475,-184.774C435.786,-190.334 464.906,-196.994 489.996,-202.733"/>
<polygon fill="midnightblue" stroke="midnightblue" points="412.252,-181.361 401.723,-182.543 410.691,-188.185 412.252,-181.361"/>
</g>
<!-- Node9&#45;&gt;Node8 -->
<g id="edge14" class="edge"><title>Node9&#45;&gt;Node8</title>
<path fill="none" stroke="midnightblue" d="M437.785,-170.517C455.256,-169.96 473.498,-169.378 489.997,-168.851"/>
<polygon fill="midnightblue" stroke="midnightblue" points="437.49,-167.025 427.607,-170.842 437.713,-174.021 437.49,-167.025"/>
</g>
<!-- Node10&#45;&gt;Node5 -->
<g id="edge16" class="edge"><title>Node10&#45;&gt;Node5</title>
<path fill="none" stroke="midnightblue" d="M448.498,-104.959C500.668,-111.473 567.345,-123.001 624,-143 653.448,-153.395 684.604,-172.658 702.047,-184.304"/>
<polygon fill="midnightblue" stroke="midnightblue" points="448.613,-101.448 438.265,-103.722 447.773,-108.397 448.613,-101.448"/>
</g>
</g>
</svg>
