<?xml version="1.0" encoding="UTF-8" standalone="no"?>
<!DOCTYPE svg PUBLIC "-//W3C//DTD SVG 1.1//EN"
 "http://www.w3.org/Graphics/SVG/1.1/DTD/svg11.dtd">
<!-- Generated by graphviz version 2.36.0 (20140111.2315)
 -->
<!-- Title: libraries/AP_HAL_Linux/ToneAlarmDriver.h Pages: 1 -->
<svg width="547pt" height="244pt"
 viewBox="0.00 0.00 547.00 244.00" xmlns="http://www.w3.org/2000/svg" xmlns:xlink="http://www.w3.org/1999/xlink">
<g id="graph0" class="graph" transform="scale(1 1) rotate(0) translate(4 240)">
<title>libraries/AP_HAL_Linux/ToneAlarmDriver.h</title>
<polygon fill="white" stroke="none" points="-4,4 -4,-240 543,-240 543,4 -4,4"/>
<!-- Node1 -->
<g id="node1" class="node"><title>Node1</title>
<polygon fill="#bfbfbf" stroke="black" points="149,-205 149,-235 269,-235 269,-205 149,-205"/>
<text text-anchor="start" x="157" y="-223" font-family="Helvetica,sans-Serif" font-size="10.00">libraries/AP_HAL_Linux</text>
<text text-anchor="middle" x="209" y="-212" font-family="Helvetica,sans-Serif" font-size="10.00">/ToneAlarmDriver.h</text>
</g>
<!-- Node2 -->
<g id="node2" class="node"><title>Node2</title>
<g id="a_node2"><a xlink:href="$AP__HAL__Linux__Private_8h.html" xlink:title="libraries/AP_HAL_Linux\l/AP_HAL_Linux_Private.h">
<polygon fill="white" stroke="black" points="-0.5,-69 -0.5,-99 130.5,-99 130.5,-69 -0.5,-69"/>
<text text-anchor="start" x="7.5" y="-87" font-family="Helvetica,sans-Serif" font-size="10.00">libraries/AP_HAL_Linux</text>
<text text-anchor="middle" x="65" y="-76" font-family="Helvetica,sans-Serif" font-size="10.00">/AP_HAL_Linux_Private.h</text>
</a>
</g>
</g>
<!-- Node1&#45;&gt;Node2 -->
<g id="edge1" class="edge"><title>Node1&#45;&gt;Node2</title>
<path fill="none" stroke="midnightblue" d="M179.289,-199.015C166.72,-190.066 152.197,-179.053 140,-168 115.535,-145.829 90.4894,-116.503 76.4226,-99.3011"/>
<polygon fill="midnightblue" stroke="midnightblue" points="177.427,-201.984 187.626,-204.855 181.444,-196.251 177.427,-201.984"/>
</g>
<!-- Node4 -->
<g id="node4" class="node"><title>Node4</title>
<g id="a_node4"><a xlink:href="$Linux_2Util_8h.html" xlink:title="libraries/AP_HAL_Linux\l/Util.h">
<polygon fill="white" stroke="black" points="149,-137 149,-167 269,-167 269,-137 149,-137"/>
<text text-anchor="start" x="157" y="-155" font-family="Helvetica,sans-Serif" font-size="10.00">libraries/AP_HAL_Linux</text>
<text text-anchor="middle" x="209" y="-144" font-family="Helvetica,sans-Serif" font-size="10.00">/Util.h</text>
</a>
</g>
</g>
<!-- Node1&#45;&gt;Node4 -->
<g id="edge3" class="edge"><title>Node1&#45;&gt;Node4</title>
<path fill="none" stroke="midnightblue" d="M209,-194.532C209,-185.361 209,-175.245 209,-167.293"/>
<polygon fill="midnightblue" stroke="midnightblue" points="205.5,-194.679 209,-204.679 212.5,-194.679 205.5,-194.679"/>
</g>
<!-- Node8 -->
<g id="node8" class="node"><title>Node8</title>
<g id="a_node8"><a xlink:href="$ToneAlarmDriver_8cpp.html" xlink:title="libraries/AP_HAL_Linux\l/ToneAlarmDriver.cpp">
<polygon fill="white" stroke="black" points="287,-137 287,-167 407,-167 407,-137 287,-137"/>
<text text-anchor="start" x="295" y="-155" font-family="Helvetica,sans-Serif" font-size="10.00">libraries/AP_HAL_Linux</text>
<text text-anchor="middle" x="347" y="-144" font-family="Helvetica,sans-Serif" font-size="10.00">/ToneAlarmDriver.cpp</text>
</a>
</g>
</g>
<!-- Node1&#45;&gt;Node8 -->
<g id="edge8" class="edge"><title>Node1&#45;&gt;Node8</title>
<path fill="none" stroke="midnightblue" d="M247.723,-200.48C269.819,-189.913 297.082,-176.874 317.444,-167.135"/>
<polygon fill="midnightblue" stroke="midnightblue" points="246.116,-197.369 238.604,-204.841 249.136,-203.684 246.116,-197.369"/>
</g>
<!-- Node3 -->
<g id="node3" class="node"><title>Node3</title>
<g id="a_node3"><a xlink:href="$HAL__Linux__Class_8cpp.html" xlink:title="libraries/AP_HAL_Linux\l/HAL_Linux_Class.cpp">
<polygon fill="white" stroke="black" points="5,-1 5,-31 125,-31 125,-1 5,-1"/>
<text text-anchor="start" x="13" y="-19" font-family="Helvetica,sans-Serif" font-size="10.00">libraries/AP_HAL_Linux</text>
<text text-anchor="middle" x="65" y="-8" font-family="Helvetica,sans-Serif" font-size="10.00">/HAL_Linux_Class.cpp</text>
</a>
</g>
</g>
<!-- Node2&#45;&gt;Node3 -->
<g id="edge2" class="edge"><title>Node2&#45;&gt;Node3</title>
<path fill="none" stroke="midnightblue" d="M65,-58.5322C65,-49.3606 65,-39.2449 65,-31.2931"/>
<polygon fill="midnightblue" stroke="midnightblue" points="61.5001,-58.6789 65,-68.679 68.5001,-58.679 61.5001,-58.6789"/>
</g>
<!-- Node4&#45;&gt;Node2 -->
<g id="edge4" class="edge"><title>Node4&#45;&gt;Node2</title>
<path fill="none" stroke="midnightblue" d="M168.902,-132.622C145.791,-122.029 117.183,-108.917 95.8405,-99.1352"/>
<polygon fill="midnightblue" stroke="midnightblue" points="167.559,-135.856 178.108,-136.841 170.476,-129.493 167.559,-135.856"/>
</g>
<!-- Node5 -->
<g id="node5" class="node"><title>Node5</title>
<g id="a_node5"><a xlink:href="$AP__HAL__Linux_2Scheduler_8cpp.html" xlink:title="libraries/AP_HAL_Linux\l/Scheduler.cpp">
<polygon fill="white" stroke="black" points="149,-69 149,-99 269,-99 269,-69 149,-69"/>
<text text-anchor="start" x="157" y="-87" font-family="Helvetica,sans-Serif" font-size="10.00">libraries/AP_HAL_Linux</text>
<text text-anchor="middle" x="209" y="-76" font-family="Helvetica,sans-Serif" font-size="10.00">/Scheduler.cpp</text>
</a>
</g>
</g>
<!-- Node4&#45;&gt;Node5 -->
<g id="edge5" class="edge"><title>Node4&#45;&gt;Node5</title>
<path fill="none" stroke="midnightblue" d="M209,-126.532C209,-117.361 209,-107.245 209,-99.2931"/>
<polygon fill="midnightblue" stroke="midnightblue" points="205.5,-126.679 209,-136.679 212.5,-126.679 205.5,-126.679"/>
</g>
<!-- Node6 -->
<g id="node6" class="node"><title>Node6</title>
<g id="a_node6"><a xlink:href="$Linux_2Util_8cpp.html" xlink:title="libraries/AP_HAL_Linux\l/Util.cpp">
<polygon fill="white" stroke="black" points="287,-69 287,-99 407,-99 407,-69 287,-69"/>
<text text-anchor="start" x="295" y="-87" font-family="Helvetica,sans-Serif" font-size="10.00">libraries/AP_HAL_Linux</text>
<text text-anchor="middle" x="347" y="-76" font-family="Helvetica,sans-Serif" font-size="10.00">/Util.cpp</text>
</a>
</g>
</g>
<!-- Node4&#45;&gt;Node6 -->
<g id="edge6" class="edge"><title>Node4&#45;&gt;Node6</title>
<path fill="none" stroke="midnightblue" d="M247.723,-132.48C269.819,-121.913 297.082,-108.874 317.444,-99.1352"/>
<polygon fill="midnightblue" stroke="midnightblue" points="246.116,-129.369 238.604,-136.841 249.136,-135.684 246.116,-129.369"/>
</g>
<!-- Node7 -->
<g id="node7" class="node"><title>Node7</title>
<g id="a_node7"><a xlink:href="$ToneAlarm__Linux_8cpp.html" xlink:title="libraries/AP_Notify\l/ToneAlarm_Linux.cpp">
<polygon fill="white" stroke="black" points="425,-69 425,-99 539,-99 539,-69 425,-69"/>
<text text-anchor="start" x="433" y="-87" font-family="Helvetica,sans-Serif" font-size="10.00">libraries/AP_Notify</text>
<text text-anchor="middle" x="482" y="-76" font-family="Helvetica,sans-Serif" font-size="10.00">/ToneAlarm_Linux.cpp</text>
</a>
</g>
</g>
<!-- Node4&#45;&gt;Node7 -->
<g id="edge7" class="edge"><title>Node4&#45;&gt;Node7</title>
<path fill="none" stroke="midnightblue" d="M277.013,-134.557C322.515,-123.557 381.719,-109.244 424.796,-98.8296"/>
<polygon fill="midnightblue" stroke="midnightblue" points="276.128,-131.17 267.23,-136.922 277.773,-137.974 276.128,-131.17"/>
</g>
</g>
</svg>
