<?xml version="1.0" encoding="UTF-8" standalone="no"?>
<!DOCTYPE svg PUBLIC "-//W3C//DTD SVG 1.1//EN"
 "http://www.w3.org/Graphics/SVG/1.1/DTD/svg11.dtd">
<!-- Generated by graphviz version 2.36.0 (20140111.2315)
 -->
<!-- Title: mavlink_test_scaled_pressure Pages: 1 -->
<svg width="632pt" height="322pt"
 viewBox="0.00 0.00 632.00 322.00" xmlns="http://www.w3.org/2000/svg" xmlns:xlink="http://www.w3.org/1999/xlink">
<g id="graph0" class="graph" transform="scale(1 1) rotate(0) translate(4 318)">
<title>mavlink_test_scaled_pressure</title>
<polygon fill="white" stroke="none" points="-4,4 -4,-318 628,-318 628,4 -4,4"/>
<!-- Node1 -->
<g id="node1" class="node"><title>Node1</title>
<polygon fill="#bfbfbf" stroke="black" points="0,-137 0,-167 106,-167 106,-137 0,-137"/>
<text text-anchor="start" x="8" y="-155" font-family="Helvetica,sans-Serif" font-size="10.00">mavlink_test_scaled</text>
<text text-anchor="middle" x="53" y="-144" font-family="Helvetica,sans-Serif" font-size="10.00">_pressure</text>
</g>
<!-- Node2 -->
<g id="node2" class="node"><title>Node2</title>
<g id="a_node2"><a xlink:href="$v0_89_2common_2mavlink__msg__scaled__pressure_8h.html#a419fc84dedc403fb53ad1c544b0f76c5" xlink:title="Encode a scaled_pressure struct into a message. ">
<polygon fill="white" stroke="black" points="148,-282 148,-312 256,-312 256,-282 148,-282"/>
<text text-anchor="start" x="156" y="-300" font-family="Helvetica,sans-Serif" font-size="10.00">mavlink_msg_scaled</text>
<text text-anchor="middle" x="202" y="-289" font-family="Helvetica,sans-Serif" font-size="10.00">_pressure_encode</text>
</a>
</g>
</g>
<!-- Node1&#45;&gt;Node2 -->
<g id="edge1" class="edge"><title>Node1&#45;&gt;Node2</title>
<path fill="none" stroke="midnightblue" d="M63.6325,-167.313C78.437,-189.992 108.596,-232.954 142,-262 148.066,-267.275 155.036,-272.202 162.01,-276.597"/>
<polygon fill="midnightblue" stroke="midnightblue" points="160.404,-279.715 170.779,-281.866 164.01,-273.715 160.404,-279.715"/>
</g>
<!-- Node3 -->
<g id="node3" class="node"><title>Node3</title>
<g id="a_node3"><a xlink:href="$v0_89_2common_2mavlink__msg__scaled__pressure_8h.html#a848a22ca0894a1d02d78187c25104c27" xlink:title="Pack a scaled_pressure message. ">
<polygon fill="white" stroke="black" points="323,-284 323,-314 431,-314 431,-284 323,-284"/>
<text text-anchor="start" x="331" y="-302" font-family="Helvetica,sans-Serif" font-size="10.00">mavlink_msg_scaled</text>
<text text-anchor="middle" x="377" y="-291" font-family="Helvetica,sans-Serif" font-size="10.00">_pressure_pack</text>
</a>
</g>
</g>
<!-- Node1&#45;&gt;Node3 -->
<g id="edge9" class="edge"><title>Node1&#45;&gt;Node3</title>
<path fill="none" stroke="midnightblue" d="M68.5538,-167.169C85.0015,-183.523 113.247,-209.315 142,-225 196.24,-254.589 264.113,-274.4 312.771,-286.017"/>
<polygon fill="midnightblue" stroke="midnightblue" points="312.009,-289.434 322.544,-288.302 313.603,-282.617 312.009,-289.434"/>
</g>
<!-- Node5 -->
<g id="node5" class="node"><title>Node5</title>
<g id="a_node5"><a xlink:href="$v0_89_2common_2mavlink__msg__scaled__pressure_8h.html#ac429343d80a03ce6d721f8525c6d1aad" xlink:title="Decode a scaled_pressure message into a struct. ">
<polygon fill="white" stroke="black" points="148,-186 148,-216 256,-216 256,-186 148,-186"/>
<text text-anchor="start" x="156" y="-204" font-family="Helvetica,sans-Serif" font-size="10.00">mavlink_msg_scaled</text>
<text text-anchor="middle" x="202" y="-193" font-family="Helvetica,sans-Serif" font-size="10.00">_pressure_decode</text>
</a>
</g>
</g>
<!-- Node1&#45;&gt;Node5 -->
<g id="edge4" class="edge"><title>Node1&#45;&gt;Node5</title>
<path fill="none" stroke="midnightblue" d="M99.3043,-167.101C114.044,-172.015 130.567,-177.522 145.94,-182.647"/>
<polygon fill="midnightblue" stroke="midnightblue" points="145.252,-186.106 155.845,-185.948 147.465,-179.466 145.252,-186.106"/>
</g>
<!-- Node10 -->
<g id="node10" class="node"><title>Node10</title>
<g id="a_node10"><a xlink:href="$v0_89_2common_2mavlink__msg__scaled__pressure_8h.html#acf06e4deffe905725d83f5a6f35ed85c" xlink:title="Pack a scaled_pressure message on a channel. ">
<polygon fill="white" stroke="black" points="146,-137 146,-167 258,-167 258,-137 146,-137"/>
<text text-anchor="start" x="154" y="-155" font-family="Helvetica,sans-Serif" font-size="10.00">mavlink_msg_scaled</text>
<text text-anchor="middle" x="202" y="-144" font-family="Helvetica,sans-Serif" font-size="10.00">_pressure_pack_chan</text>
</a>
</g>
</g>
<!-- Node1&#45;&gt;Node10 -->
<g id="edge10" class="edge"><title>Node1&#45;&gt;Node10</title>
<path fill="none" stroke="midnightblue" d="M106.241,-152C115.795,-152 125.874,-152 135.752,-152"/>
<polygon fill="midnightblue" stroke="midnightblue" points="135.943,-155.5 145.942,-152 135.942,-148.5 135.943,-155.5"/>
</g>
<!-- Node12 -->
<g id="node12" class="node"><title>Node12</title>
<g id="a_node12"><a xlink:href="$v0_89_2mavlink__helpers_8h.html#afea0a9befa84822fd62c2899ea0d849e" xlink:title="Pack a message to send it over a serial byte stream. ">
<polygon fill="white" stroke="black" points="145,-88 145,-118 259,-118 259,-88 145,-88"/>
<text text-anchor="start" x="153" y="-106" font-family="Helvetica,sans-Serif" font-size="10.00">mavlink_msg_to_send</text>
<text text-anchor="middle" x="202" y="-95" font-family="Helvetica,sans-Serif" font-size="10.00">_buffer</text>
</a>
</g>
</g>
<!-- Node1&#45;&gt;Node12 -->
<g id="edge12" class="edge"><title>Node1&#45;&gt;Node12</title>
<path fill="none" stroke="midnightblue" d="M99.3043,-136.899C114.044,-131.985 130.567,-126.478 145.94,-121.353"/>
<polygon fill="midnightblue" stroke="midnightblue" points="147.465,-124.534 155.845,-118.052 145.252,-117.894 147.465,-124.534"/>
</g>
<!-- Node13 -->
<g id="node13" class="node"><title>Node13</title>
<g id="a_node13"><a xlink:href="$v0_89_2protocol_8h.html#aa86c08f27aabb7a2e12a67f189f590c8" xlink:title="Get the required buffer size for this message. ">
<polygon fill="white" stroke="black" points="142.5,-39 142.5,-69 261.5,-69 261.5,-39 142.5,-39"/>
<text text-anchor="start" x="150.5" y="-57" font-family="Helvetica,sans-Serif" font-size="10.00">mavlink_msg_get_send</text>
<text text-anchor="middle" x="202" y="-46" font-family="Helvetica,sans-Serif" font-size="10.00">_buffer_length</text>
</a>
</g>
</g>
<!-- Node1&#45;&gt;Node13 -->
<g id="edge13" class="edge"><title>Node1&#45;&gt;Node13</title>
<path fill="none" stroke="midnightblue" d="M69.0659,-136.749C85.7367,-120.523 113.968,-94.9088 142,-78 144.614,-76.4231 147.351,-74.9071 150.153,-73.4574"/>
<polygon fill="midnightblue" stroke="midnightblue" points="151.775,-76.5608 159.256,-69.0587 148.73,-70.258 151.775,-76.5608"/>
</g>
<!-- Node14 -->
<g id="node14" class="node"><title>Node14</title>
<g id="a_node14"><a xlink:href="$GCS__MAVLink_8h.html#ab753873a1ee10adedd0ce246311468f8" xlink:title="comm_send_ch">
<polygon fill="white" stroke="black" points="159,-0.5 159,-19.5 245,-19.5 245,-0.5 159,-0.5"/>
<text text-anchor="middle" x="202" y="-7.5" font-family="Helvetica,sans-Serif" font-size="10.00">comm_send_ch</text>
</a>
</g>
</g>
<!-- Node1&#45;&gt;Node14 -->
<g id="edge14" class="edge"><title>Node1&#45;&gt;Node14</title>
<path fill="none" stroke="midnightblue" d="M60.8898,-136.736C73.3617,-110.798 102.133,-58.1081 142,-29 144.651,-27.0646 147.507,-25.3207 150.483,-23.7501"/>
<polygon fill="midnightblue" stroke="midnightblue" points="152.045,-26.8844 159.681,-19.54 149.132,-20.5194 152.045,-26.8844"/>
</g>
<!-- Node2&#45;&gt;Node3 -->
<g id="edge2" class="edge"><title>Node2&#45;&gt;Node3</title>
<path fill="none" stroke="midnightblue" d="M256.317,-297.616C274.16,-297.823 294.223,-298.055 312.749,-298.269"/>
<polygon fill="midnightblue" stroke="midnightblue" points="312.819,-301.77 322.859,-298.386 312.9,-294.77 312.819,-301.77"/>
</g>
<!-- Node4 -->
<g id="node4" class="node"><title>Node4</title>
<g id="a_node4"><a xlink:href="$v0_89_2mavlink__helpers_8h.html#af3bea083c5ec83f5b6570b2bd4a817d0" xlink:title="Finalize a MAVLink message with MAVLINK_COMM_0 as default channel. ">
<polygon fill="white" stroke="black" points="492.5,-289.5 492.5,-308.5 623.5,-308.5 623.5,-289.5 492.5,-289.5"/>
<text text-anchor="middle" x="558" y="-296.5" font-family="Helvetica,sans-Serif" font-size="10.00">mavlink_finalize_message</text>
</a>
</g>
</g>
<!-- Node3&#45;&gt;Node4 -->
<g id="edge3" class="edge"><title>Node3&#45;&gt;Node4</title>
<path fill="none" stroke="midnightblue" d="M431.221,-299C447.095,-299 464.801,-299 481.801,-299"/>
<polygon fill="midnightblue" stroke="midnightblue" points="482.272,-302.5 492.272,-299 482.272,-295.5 482.272,-302.5"/>
</g>
<!-- Node6 -->
<g id="node6" class="node"><title>Node6</title>
<g id="a_node6"><a xlink:href="$v0_89_2common_2mavlink__msg__scaled__pressure_8h.html#a9b48ec818996c90f0f62db17e4376d80" xlink:title="Send a scaled_pressure message. ">
<polygon fill="white" stroke="black" points="323,-235 323,-265 431,-265 431,-235 323,-235"/>
<text text-anchor="start" x="331" y="-253" font-family="Helvetica,sans-Serif" font-size="10.00">mavlink_msg_scaled</text>
<text text-anchor="middle" x="377" y="-242" font-family="Helvetica,sans-Serif" font-size="10.00">_pressure_get_usec</text>
</a>
</g>
</g>
<!-- Node5&#45;&gt;Node6 -->
<g id="edge5" class="edge"><title>Node5&#45;&gt;Node6</title>
<path fill="none" stroke="midnightblue" d="M256.317,-216.101C274.242,-221.179 294.408,-226.89 313.006,-232.158"/>
<polygon fill="midnightblue" stroke="midnightblue" points="312.283,-235.591 322.859,-234.948 314.191,-228.856 312.283,-235.591"/>
</g>
<!-- Node7 -->
<g id="node7" class="node"><title>Node7</title>
<g id="a_node7"><a xlink:href="$v0_89_2common_2mavlink__msg__scaled__pressure_8h.html#a12be813d0f5438c64d51ff5696449be1" xlink:title="Get field press_abs from scaled_pressure message. ">
<polygon fill="white" stroke="black" points="313,-186 313,-216 441,-216 441,-186 313,-186"/>
<text text-anchor="start" x="321" y="-204" font-family="Helvetica,sans-Serif" font-size="10.00">mavlink_msg_scaled</text>
<text text-anchor="middle" x="377" y="-193" font-family="Helvetica,sans-Serif" font-size="10.00">_pressure_get_press_abs</text>
</a>
</g>
</g>
<!-- Node5&#45;&gt;Node7 -->
<g id="edge6" class="edge"><title>Node5&#45;&gt;Node7</title>
<path fill="none" stroke="midnightblue" d="M256.317,-201C270.977,-201 287.135,-201 302.708,-201"/>
<polygon fill="midnightblue" stroke="midnightblue" points="302.836,-204.5 312.835,-201 302.835,-197.5 302.836,-204.5"/>
</g>
<!-- Node8 -->
<g id="node8" class="node"><title>Node8</title>
<g id="a_node8"><a xlink:href="$v0_89_2common_2mavlink__msg__scaled__pressure_8h.html#ae7d33d6a795f2a5182f33323f426a291" xlink:title="Get field press_diff from scaled_pressure message. ">
<polygon fill="white" stroke="black" points="314,-137 314,-167 440,-167 440,-137 314,-137"/>
<text text-anchor="start" x="322" y="-155" font-family="Helvetica,sans-Serif" font-size="10.00">mavlink_msg_scaled</text>
<text text-anchor="middle" x="377" y="-144" font-family="Helvetica,sans-Serif" font-size="10.00">_pressure_get_press_diff</text>
</a>
</g>
</g>
<!-- Node5&#45;&gt;Node8 -->
<g id="edge7" class="edge"><title>Node5&#45;&gt;Node8</title>
<path fill="none" stroke="midnightblue" d="M256.317,-185.899C274.242,-180.821 294.408,-175.11 313.006,-169.842"/>
<polygon fill="midnightblue" stroke="midnightblue" points="314.191,-173.144 322.859,-167.052 312.283,-166.409 314.191,-173.144"/>
</g>
<!-- Node9 -->
<g id="node9" class="node"><title>Node9</title>
<g id="a_node9"><a xlink:href="$v0_89_2common_2mavlink__msg__scaled__pressure_8h.html#adadd9d5ebc80ec33d9b865d3bd1e785c" xlink:title="Get field temperature from scaled_pressure message. ">
<polygon fill="white" stroke="black" points="309.5,-88 309.5,-118 444.5,-118 444.5,-88 309.5,-88"/>
<text text-anchor="start" x="317.5" y="-106" font-family="Helvetica,sans-Serif" font-size="10.00">mavlink_msg_scaled</text>
<text text-anchor="middle" x="377" y="-95" font-family="Helvetica,sans-Serif" font-size="10.00">_pressure_get_temperature</text>
</a>
</g>
</g>
<!-- Node5&#45;&gt;Node9 -->
<g id="edge8" class="edge"><title>Node5&#45;&gt;Node9</title>
<path fill="none" stroke="midnightblue" d="M246.124,-185.984C251.74,-183.113 257.2,-179.795 262,-176 283.199,-159.24 275.972,-142.654 298,-127 300.122,-125.492 302.341,-124.077 304.633,-122.749"/>
<polygon fill="midnightblue" stroke="midnightblue" points="306.485,-125.732 313.778,-118.048 303.284,-119.507 306.485,-125.732"/>
</g>
<!-- Node11 -->
<g id="node11" class="node"><title>Node11</title>
<g id="a_node11"><a xlink:href="$v0_89_2mavlink__helpers_8h.html#aa66131138fc02101dcc73b4b556ab422" xlink:title="Finalize a MAVLink message with channel assignment. ">
<polygon fill="white" stroke="black" points="298,-49.5 298,-68.5 456,-68.5 456,-49.5 298,-49.5"/>
<text text-anchor="middle" x="377" y="-56.5" font-family="Helvetica,sans-Serif" font-size="10.00">mavlink_finalize_message_chan</text>
</a>
</g>
</g>
<!-- Node10&#45;&gt;Node11 -->
<g id="edge11" class="edge"><title>Node10&#45;&gt;Node11</title>
<path fill="none" stroke="midnightblue" d="M246.124,-136.984C251.74,-134.113 257.2,-130.795 262,-127 283.199,-110.24 275.516,-92.991 298,-78 301.08,-75.9463 304.361,-74.1141 307.768,-72.4798"/>
<polygon fill="midnightblue" stroke="midnightblue" points="309.158,-75.6923 317.028,-68.599 306.452,-69.2364 309.158,-75.6923"/>
</g>
<!-- Node15 -->
<g id="node15" class="node"><title>Node15</title>
<g id="a_node15"><a xlink:href="$classAP__HAL_1_1Print.html#acc65391952a43334f8f5c9bef341f501" xlink:title="AP_HAL::Print::write">
<polygon fill="white" stroke="black" points="323,-0.5 323,-19.5 431,-19.5 431,-0.5 323,-0.5"/>
<text text-anchor="middle" x="377" y="-7.5" font-family="Helvetica,sans-Serif" font-size="10.00">AP_HAL::Print::write</text>
</a>
</g>
</g>
<!-- Node14&#45;&gt;Node15 -->
<g id="edge15" class="edge"><title>Node14&#45;&gt;Node15</title>
<path fill="none" stroke="midnightblue" d="M245.321,-10C265.619,-10 290.355,-10 312.822,-10"/>
<polygon fill="midnightblue" stroke="midnightblue" points="312.961,-13.5001 322.961,-10 312.961,-6.5001 312.961,-13.5001"/>
</g>
</g>
</svg>
