<?xml version="1.0" encoding="UTF-8" standalone="no"?>
<!DOCTYPE svg PUBLIC "-//W3C//DTD SVG 1.1//EN"
 "http://www.w3.org/Graphics/SVG/1.1/DTD/svg11.dtd">
<!-- Generated by graphviz version 2.36.0 (20140111.2315)
 -->
<!-- Title: mavlink_msg_param_set_decode Pages: 1 -->
<svg width="454pt" height="185pt"
 viewBox="0.00 0.00 454.00 185.00" xmlns="http://www.w3.org/2000/svg" xmlns:xlink="http://www.w3.org/1999/xlink">
<g id="graph0" class="graph" transform="scale(1 1) rotate(0) translate(4 181)">
<title>mavlink_msg_param_set_decode</title>
<polygon fill="white" stroke="none" points="-4,4 -4,-181 450,-181 450,4 -4,4"/>
<!-- Node1 -->
<g id="node1" class="node"><title>Node1</title>
<polygon fill="#bfbfbf" stroke="black" points="0.5,-73 0.5,-103 125.5,-103 125.5,-73 0.5,-73"/>
<text text-anchor="start" x="8.5" y="-91" font-family="Helvetica,sans-Serif" font-size="10.00">mavlink_msg_param_set</text>
<text text-anchor="middle" x="63" y="-80" font-family="Helvetica,sans-Serif" font-size="10.00">_decode</text>
</g>
<!-- Node2 -->
<g id="node2" class="node"><title>Node2</title>
<g id="a_node2"><a xlink:href="$v0_89_2common_2mavlink__msg__param__set_8h.html#a80cd2200ce339fcabaa39c6a458bf97e" xlink:title="Send a param_set message. ">
<polygon fill="white" stroke="black" points="162.5,-147 162.5,-177 287.5,-177 287.5,-147 162.5,-147"/>
<text text-anchor="start" x="170.5" y="-165" font-family="Helvetica,sans-Serif" font-size="10.00">mavlink_msg_param_set</text>
<text text-anchor="middle" x="225" y="-154" font-family="Helvetica,sans-Serif" font-size="10.00">_get_target_system</text>
</a>
</g>
</g>
<!-- Node1&#45;&gt;Node2 -->
<g id="edge1" class="edge"><title>Node1&#45;&gt;Node2</title>
<path fill="none" stroke="midnightblue" d="M92.8655,-103.199C112.231,-113.205 138.415,-126.369 162,-137 166.398,-138.982 171.002,-140.98 175.629,-142.935"/>
<polygon fill="midnightblue" stroke="midnightblue" points="174.524,-146.266 185.101,-146.872 177.211,-139.802 174.524,-146.266"/>
</g>
<!-- Node3 -->
<g id="node3" class="node"><title>Node3</title>
<g id="a_node3"><a xlink:href="$v0_89_2common_2mavlink__msg__param__set_8h.html#a9913acc808d1826498a373ee28ef829b" xlink:title="Get field target_component from param_set message. ">
<polygon fill="white" stroke="black" points="162.5,-98 162.5,-128 287.5,-128 287.5,-98 162.5,-98"/>
<text text-anchor="start" x="170.5" y="-116" font-family="Helvetica,sans-Serif" font-size="10.00">mavlink_msg_param_set</text>
<text text-anchor="middle" x="225" y="-105" font-family="Helvetica,sans-Serif" font-size="10.00">_get_target_component</text>
</a>
</g>
</g>
<!-- Node1&#45;&gt;Node3 -->
<g id="edge2" class="edge"><title>Node1&#45;&gt;Node3</title>
<path fill="none" stroke="midnightblue" d="M125.86,-97.6657C134.549,-99.0234 143.54,-100.428 152.392,-101.811"/>
<polygon fill="midnightblue" stroke="midnightblue" points="151.884,-105.274 162.304,-103.36 152.965,-98.3582 151.884,-105.274"/>
</g>
<!-- Node4 -->
<g id="node4" class="node"><title>Node4</title>
<g id="a_node4"><a xlink:href="$v0_89_2common_2mavlink__msg__param__set_8h.html#a8eb46f43dcf973c9b11d71ccff99e0ee" xlink:title="Get field param_id from param_set message. ">
<polygon fill="white" stroke="black" points="162.5,-49 162.5,-79 287.5,-79 287.5,-49 162.5,-49"/>
<text text-anchor="start" x="170.5" y="-67" font-family="Helvetica,sans-Serif" font-size="10.00">mavlink_msg_param_set</text>
<text text-anchor="middle" x="225" y="-56" font-family="Helvetica,sans-Serif" font-size="10.00">_get_param_id</text>
</a>
</g>
</g>
<!-- Node1&#45;&gt;Node4 -->
<g id="edge3" class="edge"><title>Node1&#45;&gt;Node4</title>
<path fill="none" stroke="midnightblue" d="M125.86,-78.721C134.549,-77.4176 143.54,-76.069 152.392,-74.7411"/>
<polygon fill="midnightblue" stroke="midnightblue" points="152.934,-78.1991 162.304,-73.2543 151.896,-71.2766 152.934,-78.1991"/>
</g>
<!-- Node6 -->
<g id="node6" class="node"><title>Node6</title>
<g id="a_node6"><a xlink:href="$v0_89_2common_2mavlink__msg__param__set_8h.html#a74d316b2c89ea8bb08f8ff4f7324fa2a" xlink:title="Get field param_value from param_set message. ">
<polygon fill="white" stroke="black" points="162.5,-0 162.5,-30 287.5,-30 287.5,-0 162.5,-0"/>
<text text-anchor="start" x="170.5" y="-18" font-family="Helvetica,sans-Serif" font-size="10.00">mavlink_msg_param_set</text>
<text text-anchor="middle" x="225" y="-7" font-family="Helvetica,sans-Serif" font-size="10.00">_get_param_value</text>
</a>
</g>
</g>
<!-- Node1&#45;&gt;Node6 -->
<g id="edge5" class="edge"><title>Node1&#45;&gt;Node6</title>
<path fill="none" stroke="midnightblue" d="M93.3286,-72.9464C112.665,-63.1929 138.64,-50.4141 162,-40 166.469,-38.0078 171.147,-35.9938 175.844,-34.0192"/>
<polygon fill="midnightblue" stroke="midnightblue" points="177.553,-37.1002 185.453,-30.041 174.875,-30.6326 177.553,-37.1002"/>
</g>
<!-- Node5 -->
<g id="node5" class="node"><title>Node5</title>
<g id="a_node5"><a xlink:href="$v0_89_2protocol_8h.html#a376f7eb3a7e5c20aac470d3571efdf00" xlink:title="_MAV_RETURN_int8_t\l_array">
<polygon fill="white" stroke="black" points="324.5,-49 324.5,-79 445.5,-79 445.5,-49 324.5,-49"/>
<text text-anchor="start" x="332.5" y="-67" font-family="Helvetica,sans-Serif" font-size="10.00">_MAV_RETURN_int8_t</text>
<text text-anchor="middle" x="385" y="-56" font-family="Helvetica,sans-Serif" font-size="10.00">_array</text>
</a>
</g>
</g>
<!-- Node4&#45;&gt;Node5 -->
<g id="edge4" class="edge"><title>Node4&#45;&gt;Node5</title>
<path fill="none" stroke="midnightblue" d="M287.539,-64C296.353,-64 305.472,-64 314.427,-64"/>
<polygon fill="midnightblue" stroke="midnightblue" points="314.443,-67.5001 324.443,-64 314.443,-60.5001 314.443,-67.5001"/>
</g>
</g>
</svg>
