<?xml version="1.0" encoding="UTF-8" standalone="no"?>
<!DOCTYPE svg PUBLIC "-//W3C//DTD SVG 1.1//EN"
 "http://www.w3.org/Graphics/SVG/1.1/DTD/svg11.dtd">
<!-- Generated by graphviz version 2.36.0 (20140111.2315)
 -->
<!-- Title: mavlink_test_meminfo Pages: 1 -->
<svg width="642pt" height="312pt"
 viewBox="0.00 0.00 642.00 312.00" xmlns="http://www.w3.org/2000/svg" xmlns:xlink="http://www.w3.org/1999/xlink">
<g id="graph0" class="graph" transform="scale(1 1) rotate(0) translate(4 308)">
<title>mavlink_test_meminfo</title>
<polygon fill="white" stroke="none" points="-4,4 -4,-308 638,-308 638,4 -4,4"/>
<!-- Node1 -->
<g id="node1" class="node"><title>Node1</title>
<polygon fill="#bfbfbf" stroke="black" points="0.5,-142.5 0.5,-161.5 115.5,-161.5 115.5,-142.5 0.5,-142.5"/>
<text text-anchor="middle" x="58" y="-149.5" font-family="Helvetica,sans-Serif" font-size="10.00">mavlink_test_meminfo</text>
</g>
<!-- Node2 -->
<g id="node2" class="node"><title>Node2</title>
<g id="a_node2"><a xlink:href="$v0_89_2ardupilotmega_2mavlink__msg__meminfo_8h.html#ac0683c338d47c233d56a0f75c9f57cfc" xlink:title="Encode a meminfo struct into a message. ">
<polygon fill="white" stroke="black" points="153.5,-274 153.5,-304 270.5,-304 270.5,-274 153.5,-274"/>
<text text-anchor="start" x="161.5" y="-292" font-family="Helvetica,sans-Serif" font-size="10.00">mavlink_msg_meminfo</text>
<text text-anchor="middle" x="212" y="-281" font-family="Helvetica,sans-Serif" font-size="10.00">_encode</text>
</a>
</g>
</g>
<!-- Node1&#45;&gt;Node2 -->
<g id="edge1" class="edge"><title>Node1&#45;&gt;Node2</title>
<path fill="none" stroke="midnightblue" d="M65.4523,-161.676C79.3108,-181.884 113.781,-229.163 152,-259 156.642,-262.624 161.79,-265.999 167.056,-269.08"/>
<polygon fill="midnightblue" stroke="midnightblue" points="165.511,-272.225 175.959,-273.979 168.885,-266.092 165.511,-272.225"/>
</g>
<!-- Node3 -->
<g id="node3" class="node"><title>Node3</title>
<g id="a_node3"><a xlink:href="$v0_89_2ardupilotmega_2mavlink__msg__meminfo_8h.html#a23bc5eba8d49495dab550233aa1e699f" xlink:title="Pack a meminfo message. ">
<polygon fill="white" stroke="black" points="315.5,-279.5 315.5,-298.5 458.5,-298.5 458.5,-279.5 315.5,-279.5"/>
<text text-anchor="middle" x="387" y="-286.5" font-family="Helvetica,sans-Serif" font-size="10.00">mavlink_msg_meminfo_pack</text>
</a>
</g>
</g>
<!-- Node1&#45;&gt;Node3 -->
<g id="edge7" class="edge"><title>Node1&#45;&gt;Node3</title>
<path fill="none" stroke="midnightblue" d="M68.4235,-161.509C84.2932,-177.004 117.965,-207.703 152,-225 183.5,-241.009 274.234,-263.527 333.021,-277.143"/>
<polygon fill="midnightblue" stroke="midnightblue" points="332.355,-280.582 342.886,-279.414 333.926,-273.76 332.355,-280.582"/>
</g>
<!-- Node5 -->
<g id="node5" class="node"><title>Node5</title>
<g id="a_node5"><a xlink:href="$v0_89_2ardupilotmega_2mavlink__msg__meminfo_8h.html#a40cd5e5fad1b007cbcbcd04d1834a5b0" xlink:title="Decode a meminfo message into a struct. ">
<polygon fill="white" stroke="black" points="153.5,-186 153.5,-216 270.5,-216 270.5,-186 153.5,-186"/>
<text text-anchor="start" x="161.5" y="-204" font-family="Helvetica,sans-Serif" font-size="10.00">mavlink_msg_meminfo</text>
<text text-anchor="middle" x="212" y="-193" font-family="Helvetica,sans-Serif" font-size="10.00">_decode</text>
</a>
</g>
</g>
<!-- Node1&#45;&gt;Node5 -->
<g id="edge4" class="edge"><title>Node1&#45;&gt;Node5</title>
<path fill="none" stroke="midnightblue" d="M88.668,-161.564C107.407,-167.605 132.224,-175.605 154.606,-182.82"/>
<polygon fill="midnightblue" stroke="midnightblue" points="153.763,-186.226 164.355,-185.963 155.911,-179.564 153.763,-186.226"/>
</g>
<!-- Node8 -->
<g id="node8" class="node"><title>Node8</title>
<g id="a_node8"><a xlink:href="$v0_89_2ardupilotmega_2mavlink__msg__meminfo_8h.html#a8cc88b6fd99f229334b924eb1dd674e7" xlink:title="Pack a meminfo message on a channel. ">
<polygon fill="white" stroke="black" points="153.5,-137 153.5,-167 270.5,-167 270.5,-137 153.5,-137"/>
<text text-anchor="start" x="161.5" y="-155" font-family="Helvetica,sans-Serif" font-size="10.00">mavlink_msg_meminfo</text>
<text text-anchor="middle" x="212" y="-144" font-family="Helvetica,sans-Serif" font-size="10.00">_pack_chan</text>
</a>
</g>
</g>
<!-- Node1&#45;&gt;Node8 -->
<g id="edge8" class="edge"><title>Node1&#45;&gt;Node8</title>
<path fill="none" stroke="midnightblue" d="M115.599,-152C124.553,-152 133.891,-152 143.071,-152"/>
<polygon fill="midnightblue" stroke="midnightblue" points="143.339,-155.5 153.339,-152 143.339,-148.5 143.339,-155.5"/>
</g>
<!-- Node10 -->
<g id="node10" class="node"><title>Node10</title>
<g id="a_node10"><a xlink:href="$v0_89_2mavlink__helpers_8h.html#afea0a9befa84822fd62c2899ea0d849e" xlink:title="Pack a message to send it over a serial byte stream. ">
<polygon fill="white" stroke="black" points="155,-88 155,-118 269,-118 269,-88 155,-88"/>
<text text-anchor="start" x="163" y="-106" font-family="Helvetica,sans-Serif" font-size="10.00">mavlink_msg_to_send</text>
<text text-anchor="middle" x="212" y="-95" font-family="Helvetica,sans-Serif" font-size="10.00">_buffer</text>
</a>
</g>
</g>
<!-- Node1&#45;&gt;Node10 -->
<g id="edge10" class="edge"><title>Node1&#45;&gt;Node10</title>
<path fill="none" stroke="midnightblue" d="M88.668,-142.436C107.407,-136.395 132.224,-128.395 154.606,-121.18"/>
<polygon fill="midnightblue" stroke="midnightblue" points="155.911,-124.436 164.355,-118.037 153.763,-117.774 155.911,-124.436"/>
</g>
<!-- Node11 -->
<g id="node11" class="node"><title>Node11</title>
<g id="a_node11"><a xlink:href="$v0_89_2protocol_8h.html#aa86c08f27aabb7a2e12a67f189f590c8" xlink:title="Get the required buffer size for this message. ">
<polygon fill="white" stroke="black" points="152.5,-39 152.5,-69 271.5,-69 271.5,-39 152.5,-39"/>
<text text-anchor="start" x="160.5" y="-57" font-family="Helvetica,sans-Serif" font-size="10.00">mavlink_msg_get_send</text>
<text text-anchor="middle" x="212" y="-46" font-family="Helvetica,sans-Serif" font-size="10.00">_buffer_length</text>
</a>
</g>
</g>
<!-- Node1&#45;&gt;Node11 -->
<g id="edge11" class="edge"><title>Node1&#45;&gt;Node11</title>
<path fill="none" stroke="midnightblue" d="M69.1544,-142.281C85.5219,-127.01 119.228,-97.1675 152,-78 154.682,-76.4316 157.485,-74.9184 160.352,-73.4671"/>
<polygon fill="midnightblue" stroke="midnightblue" points="162.117,-76.5033 169.649,-69.0514 159.114,-70.1802 162.117,-76.5033"/>
</g>
<!-- Node12 -->
<g id="node12" class="node"><title>Node12</title>
<g id="a_node12"><a xlink:href="$GCS__MAVLink_8h.html#ab753873a1ee10adedd0ce246311468f8" xlink:title="comm_send_ch">
<polygon fill="white" stroke="black" points="169,-0.5 169,-19.5 255,-19.5 255,-0.5 169,-0.5"/>
<text text-anchor="middle" x="212" y="-7.5" font-family="Helvetica,sans-Serif" font-size="10.00">comm_send_ch</text>
</a>
</g>
</g>
<!-- Node1&#45;&gt;Node12 -->
<g id="edge12" class="edge"><title>Node1&#45;&gt;Node12</title>
<path fill="none" stroke="midnightblue" d="M63.6103,-142.413C75.1746,-119.371 107.69,-60.4647 152,-29 154.72,-27.0686 157.646,-25.3263 160.689,-23.7557"/>
<polygon fill="midnightblue" stroke="midnightblue" points="162.388,-26.8296 170.078,-19.5414 159.521,-20.4435 162.388,-26.8296"/>
</g>
<!-- Node2&#45;&gt;Node3 -->
<g id="edge2" class="edge"><title>Node2&#45;&gt;Node3</title>
<path fill="none" stroke="midnightblue" d="M270.606,-289C281.706,-289 293.522,-289 305.2,-289"/>
<polygon fill="midnightblue" stroke="midnightblue" points="305.404,-292.5 315.404,-289 305.404,-285.5 305.404,-292.5"/>
</g>
<!-- Node4 -->
<g id="node4" class="node"><title>Node4</title>
<g id="a_node4"><a xlink:href="$v0_89_2mavlink__helpers_8h.html#af3bea083c5ec83f5b6570b2bd4a817d0" xlink:title="Finalize a MAVLink message with MAVLINK_COMM_0 as default channel. ">
<polygon fill="white" stroke="black" points="502.5,-279.5 502.5,-298.5 633.5,-298.5 633.5,-279.5 502.5,-279.5"/>
<text text-anchor="middle" x="568" y="-286.5" font-family="Helvetica,sans-Serif" font-size="10.00">mavlink_finalize_message</text>
</a>
</g>
</g>
<!-- Node3&#45;&gt;Node4 -->
<g id="edge3" class="edge"><title>Node3&#45;&gt;Node4</title>
<path fill="none" stroke="midnightblue" d="M458.746,-289C469.744,-289 481.138,-289 492.222,-289"/>
<polygon fill="midnightblue" stroke="midnightblue" points="492.294,-292.5 502.294,-289 492.294,-285.5 492.294,-292.5"/>
</g>
<!-- Node6 -->
<g id="node6" class="node"><title>Node6</title>
<g id="a_node6"><a xlink:href="$v0_89_2ardupilotmega_2mavlink__msg__meminfo_8h.html#ab4fc5de85ee97eab53a0fee6a6fecc9f" xlink:title="Send a meminfo message. ">
<polygon fill="white" stroke="black" points="328.5,-230 328.5,-260 445.5,-260 445.5,-230 328.5,-230"/>
<text text-anchor="start" x="336.5" y="-248" font-family="Helvetica,sans-Serif" font-size="10.00">mavlink_msg_meminfo</text>
<text text-anchor="middle" x="387" y="-237" font-family="Helvetica,sans-Serif" font-size="10.00">_get_brkval</text>
</a>
</g>
</g>
<!-- Node5&#45;&gt;Node6 -->
<g id="edge5" class="edge"><title>Node5&#45;&gt;Node6</title>
<path fill="none" stroke="midnightblue" d="M270.606,-215.651C285.991,-219.564 302.753,-223.827 318.612,-227.861"/>
<polygon fill="midnightblue" stroke="midnightblue" points="317.796,-231.265 328.35,-230.338 319.522,-224.481 317.796,-231.265"/>
</g>
<!-- Node7 -->
<g id="node7" class="node"><title>Node7</title>
<g id="a_node7"><a xlink:href="$v0_89_2ardupilotmega_2mavlink__msg__meminfo_8h.html#a6b1210e07be6ac39af126f542b06e063" xlink:title="Get field freemem from meminfo message. ">
<polygon fill="white" stroke="black" points="328.5,-181 328.5,-211 445.5,-211 445.5,-181 328.5,-181"/>
<text text-anchor="start" x="336.5" y="-199" font-family="Helvetica,sans-Serif" font-size="10.00">mavlink_msg_meminfo</text>
<text text-anchor="middle" x="387" y="-188" font-family="Helvetica,sans-Serif" font-size="10.00">_get_freemem</text>
</a>
</g>
</g>
<!-- Node5&#45;&gt;Node7 -->
<g id="edge6" class="edge"><title>Node5&#45;&gt;Node7</title>
<path fill="none" stroke="midnightblue" d="M270.606,-199.335C285.846,-198.895 302.437,-198.415 318.163,-197.961"/>
<polygon fill="midnightblue" stroke="midnightblue" points="318.456,-201.454 328.35,-197.666 318.253,-194.457 318.456,-201.454"/>
</g>
<!-- Node9 -->
<g id="node9" class="node"><title>Node9</title>
<g id="a_node9"><a xlink:href="$v0_89_2mavlink__helpers_8h.html#aa66131138fc02101dcc73b4b556ab422" xlink:title="Finalize a MAVLink message with channel assignment. ">
<polygon fill="white" stroke="black" points="308,-142.5 308,-161.5 466,-161.5 466,-142.5 308,-142.5"/>
<text text-anchor="middle" x="387" y="-149.5" font-family="Helvetica,sans-Serif" font-size="10.00">mavlink_finalize_message_chan</text>
</a>
</g>
</g>
<!-- Node8&#45;&gt;Node9 -->
<g id="edge9" class="edge"><title>Node8&#45;&gt;Node9</title>
<path fill="none" stroke="midnightblue" d="M270.606,-152C279.248,-152 288.324,-152 297.43,-152"/>
<polygon fill="midnightblue" stroke="midnightblue" points="297.703,-155.5 307.703,-152 297.703,-148.5 297.703,-155.5"/>
</g>
<!-- Node13 -->
<g id="node13" class="node"><title>Node13</title>
<g id="a_node13"><a xlink:href="$classAP__HAL_1_1Print.html#acc65391952a43334f8f5c9bef341f501" xlink:title="AP_HAL::Print::write">
<polygon fill="white" stroke="black" points="333,-0.5 333,-19.5 441,-19.5 441,-0.5 333,-0.5"/>
<text text-anchor="middle" x="387" y="-7.5" font-family="Helvetica,sans-Serif" font-size="10.00">AP_HAL::Print::write</text>
</a>
</g>
</g>
<!-- Node12&#45;&gt;Node13 -->
<g id="edge13" class="edge"><title>Node12&#45;&gt;Node13</title>
<path fill="none" stroke="midnightblue" d="M255.321,-10C275.619,-10 300.355,-10 322.822,-10"/>
<polygon fill="midnightblue" stroke="midnightblue" points="322.961,-13.5001 332.961,-10 322.961,-6.5001 322.961,-13.5001"/>
</g>
</g>
</svg>
