<?xml version="1.0" encoding="UTF-8" standalone="no"?>
<!DOCTYPE svg PUBLIC "-//W3C//DTD SVG 1.1//EN"
 "http://www.w3.org/Graphics/SVG/1.1/DTD/svg11.dtd">
<!-- Generated by graphviz version 2.36.0 (20140111.2315)
 -->
<!-- Title: mavlink_msg_hil_controls_pack Pages: 1 -->
<svg width="770pt" height="55pt"
 viewBox="0.00 0.00 770.00 55.00" xmlns="http://www.w3.org/2000/svg" xmlns:xlink="http://www.w3.org/1999/xlink">
<g id="graph0" class="graph" transform="scale(1 1) rotate(0) translate(4 51)">
<title>mavlink_msg_hil_controls_pack</title>
<polygon fill="white" stroke="none" points="-4,4 -4,-51 766,-51 766,4 -4,4"/>
<!-- Node1 -->
<g id="node1" class="node"><title>Node1</title>
<polygon fill="#bfbfbf" stroke="black" points="0.5,-0.5 0.5,-19.5 155.5,-19.5 155.5,-0.5 0.5,-0.5"/>
<text text-anchor="middle" x="78" y="-7.5" font-family="Helvetica,sans-Serif" font-size="10.00">mavlink_msg_hil_controls_pack</text>
</g>
<!-- Node2 -->
<g id="node2" class="node"><title>Node2</title>
<g id="a_node2"><a xlink:href="$v0_89_2common_2mavlink__msg__hil__controls_8h.html#aaeed0852bd26eb9d24d489145d11c9c1" xlink:title="Encode a hil_controls struct into a message. ">
<polygon fill="white" stroke="black" points="192.5,-17 192.5,-47 321.5,-47 321.5,-17 192.5,-17"/>
<text text-anchor="start" x="200.5" y="-35" font-family="Helvetica,sans-Serif" font-size="10.00">mavlink_msg_hil_controls</text>
<text text-anchor="middle" x="257" y="-24" font-family="Helvetica,sans-Serif" font-size="10.00">_encode</text>
</a>
</g>
</g>
<!-- Node1&#45;&gt;Node2 -->
<g id="edge1" class="edge"><title>Node1&#45;&gt;Node2</title>
<path fill="none" stroke="midnightblue" d="M165.695,-20.7757C174.659,-21.8898 183.647,-23.0069 192.291,-24.0814"/>
<polygon fill="midnightblue" stroke="midnightblue" points="165.961,-17.2818 155.605,-19.5216 165.097,-24.2284 165.961,-17.2818"/>
</g>
<!-- Node3 -->
<g id="node3" class="node"><title>Node3</title>
<g id="a_node3"><a xlink:href="$v0_89_2common_2testsuite_8h.html#a11097f94573271fae75f258aeb060842" xlink:title="mavlink_test_hil_controls">
<polygon fill="white" stroke="black" points="358.5,-0.5 358.5,-19.5 485.5,-19.5 485.5,-0.5 358.5,-0.5"/>
<text text-anchor="middle" x="422" y="-7.5" font-family="Helvetica,sans-Serif" font-size="10.00">mavlink_test_hil_controls</text>
</a>
</g>
</g>
<!-- Node1&#45;&gt;Node3 -->
<g id="edge5" class="edge"><title>Node1&#45;&gt;Node3</title>
<path fill="none" stroke="midnightblue" d="M165.621,-8.31055C174.53,-8.18359 183.447,-8.07569 192,-8 249.776,-7.48875 264.225,-7.41648 322,-8 333.775,-8.11893 346.337,-8.31741 358.422,-8.54435"/>
<polygon fill="midnightblue" stroke="midnightblue" points="165.532,-4.81139 155.586,-8.46128 165.637,-11.8106 165.532,-4.81139"/>
</g>
<!-- Node2&#45;&gt;Node3 -->
<g id="edge2" class="edge"><title>Node2&#45;&gt;Node3</title>
<path fill="none" stroke="midnightblue" d="M332.139,-21.9935C340.881,-20.8136 349.736,-19.6184 358.299,-18.4628"/>
<polygon fill="midnightblue" stroke="midnightblue" points="331.396,-18.562 321.954,-23.3682 332.332,-25.4991 331.396,-18.562"/>
</g>
<!-- Node4 -->
<g id="node4" class="node"><title>Node4</title>
<g id="a_node4"><a xlink:href="$v0_89_2common_2testsuite_8h.html#af349432601ac003d2c80a69c100c70a4" xlink:title="mavlink_test_common">
<polygon fill="white" stroke="black" points="522.5,-0.5 522.5,-19.5 637.5,-19.5 637.5,-0.5 522.5,-0.5"/>
<text text-anchor="middle" x="580" y="-7.5" font-family="Helvetica,sans-Serif" font-size="10.00">mavlink_test_common</text>
</a>
</g>
</g>
<!-- Node3&#45;&gt;Node4 -->
<g id="edge3" class="edge"><title>Node3&#45;&gt;Node4</title>
<path fill="none" stroke="midnightblue" d="M495.657,-10C504.667,-10 513.771,-10 522.487,-10"/>
<polygon fill="midnightblue" stroke="midnightblue" points="495.552,-6.5001 485.552,-10 495.552,-13.5001 495.552,-6.5001"/>
</g>
<!-- Node5 -->
<g id="node5" class="node"><title>Node5</title>
<g id="a_node5"><a xlink:href="$v0_89_2common_2testsuite_8h.html#a4cc77b6c343679298da5d3c2b4e48759" xlink:title="mavlink_test_all">
<polygon fill="white" stroke="black" points="674.5,-0.5 674.5,-19.5 761.5,-19.5 761.5,-0.5 674.5,-0.5"/>
<text text-anchor="middle" x="718" y="-7.5" font-family="Helvetica,sans-Serif" font-size="10.00">mavlink_test_all</text>
</a>
</g>
</g>
<!-- Node4&#45;&gt;Node5 -->
<g id="edge4" class="edge"><title>Node4&#45;&gt;Node5</title>
<path fill="none" stroke="midnightblue" d="M647.996,-10C656.988,-10 666.003,-10 674.412,-10"/>
<polygon fill="midnightblue" stroke="midnightblue" points="647.888,-6.5001 637.888,-10 647.888,-13.5001 647.888,-6.5001"/>
</g>
</g>
</svg>
