<?xml version="1.0" encoding="UTF-8" standalone="no"?>
<!DOCTYPE svg PUBLIC "-//W3C//DTD SVG 1.1//EN"
 "http://www.w3.org/Graphics/SVG/1.1/DTD/svg11.dtd">
<!-- Generated by graphviz version 2.36.0 (20140111.2315)
 -->
<!-- Title: mavlink_start_checksum Pages: 1 -->
<svg width="574pt" height="112pt"
 viewBox="0.00 0.00 574.00 112.00" xmlns="http://www.w3.org/2000/svg" xmlns:xlink="http://www.w3.org/1999/xlink">
<g id="graph0" class="graph" transform="scale(1 1) rotate(0) translate(4 108)">
<title>mavlink_start_checksum</title>
<polygon fill="white" stroke="none" points="-4,4 -4,-108 570,-108 570,4 -4,4"/>
<!-- Node1 -->
<g id="node1" class="node"><title>Node1</title>
<polygon fill="#bfbfbf" stroke="black" points="0.5,-57.5 0.5,-76.5 125.5,-76.5 125.5,-57.5 0.5,-57.5"/>
<text text-anchor="middle" x="63" y="-64.5" font-family="Helvetica,sans-Serif" font-size="10.00">mavlink_start_checksum</text>
</g>
<!-- Node2 -->
<g id="node2" class="node"><title>Node2</title>
<g id="a_node2"><a xlink:href="$v1_80_2mavlink__helpers_8h.html#a0e22b58900ea14d70bff3aadb38dbb3d" xlink:title="mavlink_frame_char\l_buffer">
<polygon fill="white" stroke="black" points="162,-74 162,-104 266,-104 266,-74 162,-74"/>
<text text-anchor="start" x="170" y="-92" font-family="Helvetica,sans-Serif" font-size="10.00">mavlink_frame_char</text>
<text text-anchor="middle" x="214" y="-81" font-family="Helvetica,sans-Serif" font-size="10.00">_buffer</text>
</a>
</g>
</g>
<!-- Node1&#45;&gt;Node2 -->
<g id="edge1" class="edge"><title>Node1&#45;&gt;Node2</title>
<path fill="none" stroke="midnightblue" d="M135.808,-77.6025C144.63,-78.9051 153.502,-80.2151 161.929,-81.4594"/>
<polygon fill="midnightblue" stroke="midnightblue" points="136.299,-74.1372 125.895,-76.1389 135.276,-81.0621 136.299,-74.1372"/>
</g>
<!-- Node5 -->
<g id="node5" class="node"><title>Node5</title>
<g id="a_node5"><a xlink:href="$v0_89_2protocol_8h.html#ad91e8323cefc65965574c09e72365d7d" xlink:title="mavlink_parse_char">
<polygon fill="white" stroke="black" points="162,-35.5 162,-54.5 266,-54.5 266,-35.5 162,-35.5"/>
<text text-anchor="middle" x="214" y="-42.5" font-family="Helvetica,sans-Serif" font-size="10.00">mavlink_parse_char</text>
</a>
</g>
</g>
<!-- Node1&#45;&gt;Node5 -->
<g id="edge4" class="edge"><title>Node1&#45;&gt;Node5</title>
<path fill="none" stroke="midnightblue" d="M135.808,-56.3975C144.63,-55.0949 153.502,-53.7849 161.929,-52.5406"/>
<polygon fill="midnightblue" stroke="midnightblue" points="135.276,-52.9379 125.895,-57.8611 136.299,-59.8628 135.276,-52.9379"/>
</g>
<!-- Node3 -->
<g id="node3" class="node"><title>Node3</title>
<g id="a_node3"><a xlink:href="$v1_80_2mavlink__helpers_8h.html#ab9ea03db8cd45ce94b64b508b087ebe6" xlink:title="mavlink_frame_char">
<polygon fill="white" stroke="black" points="312,-79.5 312,-98.5 416,-98.5 416,-79.5 312,-79.5"/>
<text text-anchor="middle" x="364" y="-86.5" font-family="Helvetica,sans-Serif" font-size="10.00">mavlink_frame_char</text>
</a>
</g>
</g>
<!-- Node2&#45;&gt;Node3 -->
<g id="edge2" class="edge"><title>Node2&#45;&gt;Node3</title>
<path fill="none" stroke="midnightblue" d="M276.507,-89C288.23,-89 300.382,-89 311.743,-89"/>
<polygon fill="midnightblue" stroke="midnightblue" points="276.348,-85.5001 266.348,-89 276.348,-92.5001 276.348,-85.5001"/>
</g>
<!-- Node4 -->
<g id="node4" class="node"><title>Node4</title>
<g id="a_node4"><a xlink:href="$v1_80_2mavlink__helpers_8h.html#ad91e8323cefc65965574c09e72365d7d" xlink:title="mavlink_parse_char">
<polygon fill="white" stroke="black" points="462,-79.5 462,-98.5 566,-98.5 566,-79.5 462,-79.5"/>
<text text-anchor="middle" x="514" y="-86.5" font-family="Helvetica,sans-Serif" font-size="10.00">mavlink_parse_char</text>
</a>
</g>
</g>
<!-- Node3&#45;&gt;Node4 -->
<g id="edge3" class="edge"><title>Node3&#45;&gt;Node4</title>
<path fill="none" stroke="midnightblue" d="M426.507,-89C438.23,-89 450.382,-89 461.743,-89"/>
<polygon fill="midnightblue" stroke="midnightblue" points="426.348,-85.5001 416.348,-89 426.348,-92.5001 426.348,-85.5001"/>
</g>
<!-- Node6 -->
<g id="node6" class="node"><title>Node6</title>
<g id="a_node6"><a xlink:href="$simplegcs_8h.html#a0e026fc9b23210373846b25cc141486d" xlink:title="simplegcs_update">
<polygon fill="white" stroke="black" points="316.5,-38.5 316.5,-57.5 411.5,-57.5 411.5,-38.5 316.5,-38.5"/>
<text text-anchor="middle" x="364" y="-45.5" font-family="Helvetica,sans-Serif" font-size="10.00">simplegcs_update</text>
</a>
</g>
</g>
<!-- Node5&#45;&gt;Node6 -->
<g id="edge5" class="edge"><title>Node5&#45;&gt;Node6</title>
<path fill="none" stroke="midnightblue" d="M276.386,-46.2443C289.695,-46.5141 303.565,-46.7952 316.205,-47.0515"/>
<polygon fill="midnightblue" stroke="midnightblue" points="276.417,-42.7443 266.348,-46.0408 276.275,-49.7429 276.417,-42.7443"/>
</g>
<!-- Node8 -->
<g id="node8" class="node"><title>Node8</title>
<g id="a_node8"><a xlink:href="$classGCS__MAVLINK.html#a7d8788ed53976a200971612229fe2533" xlink:title="GCS_MAVLINK::update">
<polygon fill="white" stroke="black" points="302.5,-0.5 302.5,-19.5 425.5,-19.5 425.5,-0.5 302.5,-0.5"/>
<text text-anchor="middle" x="364" y="-7.5" font-family="Helvetica,sans-Serif" font-size="10.00">GCS_MAVLINK::update</text>
</a>
</g>
</g>
<!-- Node5&#45;&gt;Node8 -->
<g id="edge7" class="edge"><title>Node5&#45;&gt;Node8</title>
<path fill="none" stroke="midnightblue" d="M265.269,-33.1121C283.961,-28.6918 304.912,-23.7371 322.607,-19.5523"/>
<polygon fill="midnightblue" stroke="midnightblue" points="264.368,-29.7286 255.442,-35.4361 265.979,-36.5407 264.368,-29.7286"/>
</g>
<!-- Node7 -->
<g id="node7" class="node"><title>Node7</title>
<g id="a_node7"><a xlink:href="$GCS__Console_2examples_2Console_2Console_8pde.html#a0b33edabd7f1c4e4a0bf32c67269be2f" xlink:title="loop">
<polygon fill="white" stroke="black" points="496.5,-38.5 496.5,-57.5 531.5,-57.5 531.5,-38.5 496.5,-38.5"/>
<text text-anchor="middle" x="514" y="-45.5" font-family="Helvetica,sans-Serif" font-size="10.00">loop</text>
</a>
</g>
</g>
<!-- Node6&#45;&gt;Node7 -->
<g id="edge6" class="edge"><title>Node6&#45;&gt;Node7</title>
<path fill="none" stroke="midnightblue" d="M422.179,-48C448.661,-48 478.176,-48 496.167,-48"/>
<polygon fill="midnightblue" stroke="midnightblue" points="421.828,-44.5001 411.828,-48 421.828,-51.5001 421.828,-44.5001"/>
</g>
</g>
</svg>
