<?xml version="1.0" encoding="UTF-8" standalone="no"?>
<!DOCTYPE svg PUBLIC "-//W3C//DTD SVG 1.1//EN"
 "http://www.w3.org/Graphics/SVG/1.1/DTD/svg11.dtd">
<!-- Generated by graphviz version 2.36.0 (20140111.2315)
 -->
<!-- Title: mavlink_msg_rc_channels_override_pack Pages: 1 -->
<svg width="750pt" height="61pt"
 viewBox="0.00 0.00 750.00 61.00" xmlns="http://www.w3.org/2000/svg" xmlns:xlink="http://www.w3.org/1999/xlink">
<g id="graph0" class="graph" transform="scale(1 1) rotate(0) translate(4 57)">
<title>mavlink_msg_rc_channels_override_pack</title>
<polygon fill="white" stroke="none" points="-4,4 -4,-57 746,-57 746,4 -4,4"/>
<!-- Node1 -->
<g id="node1" class="node"><title>Node1</title>
<polygon fill="#bfbfbf" stroke="black" points="0,-1 0,-31 132,-31 132,-1 0,-1"/>
<text text-anchor="start" x="8" y="-19" font-family="Helvetica,sans-Serif" font-size="10.00">mavlink_msg_rc_channels</text>
<text text-anchor="middle" x="66" y="-8" font-family="Helvetica,sans-Serif" font-size="10.00">_override_pack</text>
</g>
<!-- Node2 -->
<g id="node2" class="node"><title>Node2</title>
<g id="a_node2"><a xlink:href="$v0_89_2common_2mavlink__msg__rc__channels__override_8h.html#a3aba2e761e4ed9f8e2b3a10eb63b7d0c" xlink:title="Encode a rc_channels_override struct into a message. ">
<polygon fill="white" stroke="black" points="168,-23 168,-53 300,-53 300,-23 168,-23"/>
<text text-anchor="start" x="176" y="-41" font-family="Helvetica,sans-Serif" font-size="10.00">mavlink_msg_rc_channels</text>
<text text-anchor="middle" x="234" y="-30" font-family="Helvetica,sans-Serif" font-size="10.00">_override_encode</text>
</a>
</g>
</g>
<!-- Node1&#45;&gt;Node2 -->
<g id="edge1" class="edge"><title>Node1&#45;&gt;Node2</title>
<path fill="none" stroke="midnightblue" d="M142.114,-25.9548C150.681,-27.0902 159.361,-28.2406 167.784,-29.3569"/>
<polygon fill="midnightblue" stroke="midnightblue" points="142.504,-22.4761 132.131,-24.6318 141.585,-29.4154 142.504,-22.4761"/>
</g>
<!-- Node3 -->
<g id="node3" class="node"><title>Node3</title>
<g id="a_node3"><a xlink:href="$v0_89_2common_2testsuite_8h.html#a813dc448fbcbf4285c369dda250c2efb" xlink:title="mavlink_test_rc_channels\l_override">
<polygon fill="white" stroke="black" points="336,-1 336,-31 466,-31 466,-1 336,-1"/>
<text text-anchor="start" x="344" y="-19" font-family="Helvetica,sans-Serif" font-size="10.00">mavlink_test_rc_channels</text>
<text text-anchor="middle" x="401" y="-8" font-family="Helvetica,sans-Serif" font-size="10.00">_override</text>
</a>
</g>
</g>
<!-- Node1&#45;&gt;Node3 -->
<g id="edge5" class="edge"><title>Node1&#45;&gt;Node3</title>
<path fill="none" stroke="midnightblue" d="M142.316,-14.3446C150.977,-14.2029 159.681,-14.0824 168,-14 226.664,-13.4192 241.336,-13.4134 300,-14 311.634,-14.1163 324.028,-14.3088 335.987,-14.5295"/>
<polygon fill="midnightblue" stroke="midnightblue" points="142.132,-10.8471 132.195,-14.5196 142.254,-17.8461 142.132,-10.8471"/>
</g>
<!-- Node2&#45;&gt;Node3 -->
<g id="edge2" class="edge"><title>Node2&#45;&gt;Node3</title>
<path fill="none" stroke="midnightblue" d="M310.186,-27.9752C318.743,-26.8343 327.405,-25.6794 335.801,-24.5599"/>
<polygon fill="midnightblue" stroke="midnightblue" points="309.662,-24.514 300.212,-29.305 310.587,-31.4526 309.662,-24.514"/>
</g>
<!-- Node4 -->
<g id="node4" class="node"><title>Node4</title>
<g id="a_node4"><a xlink:href="$v0_89_2common_2testsuite_8h.html#af349432601ac003d2c80a69c100c70a4" xlink:title="mavlink_test_common">
<polygon fill="white" stroke="black" points="502.5,-6.5 502.5,-25.5 617.5,-25.5 617.5,-6.5 502.5,-6.5"/>
<text text-anchor="middle" x="560" y="-13.5" font-family="Helvetica,sans-Serif" font-size="10.00">mavlink_test_common</text>
</a>
</g>
</g>
<!-- Node3&#45;&gt;Node4 -->
<g id="edge3" class="edge"><title>Node3&#45;&gt;Node4</title>
<path fill="none" stroke="midnightblue" d="M476.395,-16C485.032,-16 493.736,-16 502.087,-16"/>
<polygon fill="midnightblue" stroke="midnightblue" points="476.311,-12.5001 466.311,-16 476.311,-19.5001 476.311,-12.5001"/>
</g>
<!-- Node5 -->
<g id="node5" class="node"><title>Node5</title>
<g id="a_node5"><a xlink:href="$v0_89_2common_2testsuite_8h.html#a4cc77b6c343679298da5d3c2b4e48759" xlink:title="mavlink_test_all">
<polygon fill="white" stroke="black" points="654.5,-6.5 654.5,-25.5 741.5,-25.5 741.5,-6.5 654.5,-6.5"/>
<text text-anchor="middle" x="698" y="-13.5" font-family="Helvetica,sans-Serif" font-size="10.00">mavlink_test_all</text>
</a>
</g>
</g>
<!-- Node4&#45;&gt;Node5 -->
<g id="edge4" class="edge"><title>Node4&#45;&gt;Node5</title>
<path fill="none" stroke="midnightblue" d="M627.996,-16C636.988,-16 646.003,-16 654.412,-16"/>
<polygon fill="midnightblue" stroke="midnightblue" points="627.888,-12.5001 617.888,-16 627.888,-19.5001 627.888,-12.5001"/>
</g>
</g>
</svg>
