<?xml version="1.0" encoding="UTF-8" standalone="no"?>
<!DOCTYPE svg PUBLIC "-//W3C//DTD SVG 1.1//EN"
 "http://www.w3.org/Graphics/SVG/1.1/DTD/svg11.dtd">
<!-- Generated by graphviz version 2.36.0 (20140111.2315)
 -->
<!-- Title: mavlink_msg_optical_flow_get_ground_distance Pages: 1 -->
<svg width="730pt" height="38pt"
 viewBox="0.00 0.00 730.00 38.00" xmlns="http://www.w3.org/2000/svg" xmlns:xlink="http://www.w3.org/1999/xlink">
<g id="graph0" class="graph" transform="scale(1 1) rotate(0) translate(4 34)">
<title>mavlink_msg_optical_flow_get_ground_distance</title>
<polygon fill="white" stroke="none" points="-4,4 -4,-34 726,-34 726,4 -4,4"/>
<!-- Node1 -->
<g id="node1" class="node"><title>Node1</title>
<polygon fill="#bfbfbf" stroke="black" points="0.5,-0 0.5,-30 135.5,-30 135.5,-0 0.5,-0"/>
<text text-anchor="start" x="8.5" y="-18" font-family="Helvetica,sans-Serif" font-size="10.00">mavlink_msg_optical</text>
<text text-anchor="middle" x="68" y="-7" font-family="Helvetica,sans-Serif" font-size="10.00">_flow_get_ground_distance</text>
</g>
<!-- Node2 -->
<g id="node2" class="node"><title>Node2</title>
<g id="a_node2"><a xlink:href="$v0_89_2common_2mavlink__msg__optical__flow_8h.html#a1cf8c546163f9a6f35e32bfc0179fe51" xlink:title="Decode a optical_flow message into a struct. ">
<polygon fill="white" stroke="black" points="172,-0 172,-30 280,-30 280,-0 172,-0"/>
<text text-anchor="start" x="180" y="-18" font-family="Helvetica,sans-Serif" font-size="10.00">mavlink_msg_optical</text>
<text text-anchor="middle" x="226" y="-7" font-family="Helvetica,sans-Serif" font-size="10.00">_flow_decode</text>
</a>
</g>
</g>
<!-- Node1&#45;&gt;Node2 -->
<g id="edge1" class="edge"><title>Node1&#45;&gt;Node2</title>
<path fill="none" stroke="midnightblue" d="M145.874,-15C154.647,-15 163.439,-15 171.806,-15"/>
<polygon fill="midnightblue" stroke="midnightblue" points="145.611,-11.5001 135.611,-15 145.611,-18.5001 145.611,-11.5001"/>
</g>
<!-- Node3 -->
<g id="node3" class="node"><title>Node3</title>
<g id="a_node3"><a xlink:href="$v0_89_2common_2testsuite_8h.html#a2898f6baf4f0740e7afa781deef35812" xlink:title="mavlink_test_optical_flow">
<polygon fill="white" stroke="black" points="316.5,-5.5 316.5,-24.5 445.5,-24.5 445.5,-5.5 316.5,-5.5"/>
<text text-anchor="middle" x="381" y="-12.5" font-family="Helvetica,sans-Serif" font-size="10.00">mavlink_test_optical_flow</text>
</a>
</g>
</g>
<!-- Node2&#45;&gt;Node3 -->
<g id="edge2" class="edge"><title>Node2&#45;&gt;Node3</title>
<path fill="none" stroke="midnightblue" d="M290.152,-15C298.846,-15 307.777,-15 316.478,-15"/>
<polygon fill="midnightblue" stroke="midnightblue" points="290.083,-11.5001 280.083,-15 290.083,-18.5001 290.083,-11.5001"/>
</g>
<!-- Node4 -->
<g id="node4" class="node"><title>Node4</title>
<g id="a_node4"><a xlink:href="$v0_89_2common_2testsuite_8h.html#af349432601ac003d2c80a69c100c70a4" xlink:title="mavlink_test_common">
<polygon fill="white" stroke="black" points="482.5,-5.5 482.5,-24.5 597.5,-24.5 597.5,-5.5 482.5,-5.5"/>
<text text-anchor="middle" x="540" y="-12.5" font-family="Helvetica,sans-Serif" font-size="10.00">mavlink_test_common</text>
</a>
</g>
</g>
<!-- Node3&#45;&gt;Node4 -->
<g id="edge3" class="edge"><title>Node3&#45;&gt;Node4</title>
<path fill="none" stroke="midnightblue" d="M456.116,-15C464.906,-15 473.77,-15 482.264,-15"/>
<polygon fill="midnightblue" stroke="midnightblue" points="455.858,-11.5001 445.858,-15 455.858,-18.5001 455.858,-11.5001"/>
</g>
<!-- Node5 -->
<g id="node5" class="node"><title>Node5</title>
<g id="a_node5"><a xlink:href="$v0_89_2common_2testsuite_8h.html#a4cc77b6c343679298da5d3c2b4e48759" xlink:title="mavlink_test_all">
<polygon fill="white" stroke="black" points="634.5,-5.5 634.5,-24.5 721.5,-24.5 721.5,-5.5 634.5,-5.5"/>
<text text-anchor="middle" x="678" y="-12.5" font-family="Helvetica,sans-Serif" font-size="10.00">mavlink_test_all</text>
</a>
</g>
</g>
<!-- Node4&#45;&gt;Node5 -->
<g id="edge4" class="edge"><title>Node4&#45;&gt;Node5</title>
<path fill="none" stroke="midnightblue" d="M607.996,-15C616.988,-15 626.003,-15 634.412,-15"/>
<polygon fill="midnightblue" stroke="midnightblue" points="607.888,-11.5001 597.888,-15 607.888,-18.5001 607.888,-11.5001"/>
</g>
</g>
</svg>
