<?xml version="1.0" encoding="UTF-8" standalone="no"?>
<!DOCTYPE svg PUBLIC "-//W3C//DTD SVG 1.1//EN"
 "http://www.w3.org/Graphics/SVG/1.1/DTD/svg11.dtd">
<!-- Generated by graphviz version 2.36.0 (20140111.2315)
 -->
<!-- Title: mavlink_msg_set_mag_offsets_decode Pages: 1 -->
<svg width="286pt" height="256pt"
 viewBox="0.00 0.00 286.00 256.00" xmlns="http://www.w3.org/2000/svg" xmlns:xlink="http://www.w3.org/1999/xlink">
<g id="graph0" class="graph" transform="scale(1 1) rotate(0) translate(4 252)">
<title>mavlink_msg_set_mag_offsets_decode</title>
<polygon fill="white" stroke="none" points="-4,4 -4,-252 282,-252 282,4 -4,4"/>
<!-- Node1 -->
<g id="node1" class="node"><title>Node1</title>
<polygon fill="#bfbfbf" stroke="black" points="0.5,-98 0.5,-128 117.5,-128 117.5,-98 0.5,-98"/>
<text text-anchor="start" x="8.5" y="-116" font-family="Helvetica,sans-Serif" font-size="10.00">mavlink_msg_set_mag</text>
<text text-anchor="middle" x="59" y="-105" font-family="Helvetica,sans-Serif" font-size="10.00">_offsets_decode</text>
</g>
<!-- Node2 -->
<g id="node2" class="node"><title>Node2</title>
<g id="a_node2"><a xlink:href="$v0_89_2ardupilotmega_2mavlink__msg__set__mag__offsets_8h.html#a91a71a3c880b57c0d8718744954749c2" xlink:title="Send a set_mag_offsets message. ">
<polygon fill="white" stroke="black" points="157.5,-206.5 157.5,-247.5 274.5,-247.5 274.5,-206.5 157.5,-206.5"/>
<text text-anchor="start" x="165.5" y="-235.5" font-family="Helvetica,sans-Serif" font-size="10.00">mavlink_msg_set_mag</text>
<text text-anchor="start" x="165.5" y="-224.5" font-family="Helvetica,sans-Serif" font-size="10.00">_offsets_get_target</text>
<text text-anchor="middle" x="216" y="-213.5" font-family="Helvetica,sans-Serif" font-size="10.00">_system</text>
</a>
</g>
</g>
<!-- Node1&#45;&gt;Node2 -->
<g id="edge1" class="edge"><title>Node1&#45;&gt;Node2</title>
<path fill="none" stroke="midnightblue" d="M74.6457,-128.079C92.349,-145.775 123.567,-175.324 154,-196 156.702,-197.836 159.528,-199.635 162.419,-201.384"/>
<polygon fill="midnightblue" stroke="midnightblue" points="160.821,-204.503 171.232,-206.468 164.319,-198.44 160.821,-204.503"/>
</g>
<!-- Node3 -->
<g id="node3" class="node"><title>Node3</title>
<g id="a_node3"><a xlink:href="$v0_89_2ardupilotmega_2mavlink__msg__set__mag__offsets_8h.html#a18167f142e670b000f7b991b4e9cf9cb" xlink:title="Get field target_component from set_mag_offsets message. ">
<polygon fill="white" stroke="black" points="157.5,-146.5 157.5,-187.5 274.5,-187.5 274.5,-146.5 157.5,-146.5"/>
<text text-anchor="start" x="165.5" y="-175.5" font-family="Helvetica,sans-Serif" font-size="10.00">mavlink_msg_set_mag</text>
<text text-anchor="start" x="165.5" y="-164.5" font-family="Helvetica,sans-Serif" font-size="10.00">_offsets_get_target</text>
<text text-anchor="middle" x="216" y="-153.5" font-family="Helvetica,sans-Serif" font-size="10.00">_component</text>
</a>
</g>
</g>
<!-- Node1&#45;&gt;Node3 -->
<g id="edge2" class="edge"><title>Node1&#45;&gt;Node3</title>
<path fill="none" stroke="midnightblue" d="M103.176,-128.042C116.917,-132.829 132.462,-138.245 147.497,-143.483"/>
<polygon fill="midnightblue" stroke="midnightblue" points="146.684,-146.906 157.279,-146.891 148.987,-140.295 146.684,-146.906"/>
</g>
<!-- Node4 -->
<g id="node4" class="node"><title>Node4</title>
<g id="a_node4"><a xlink:href="$v0_89_2ardupilotmega_2mavlink__msg__set__mag__offsets_8h.html#a42eec2bcd1fd15442f00b652af42ed27" xlink:title="Get field mag_ofs_x from set_mag_offsets message. ">
<polygon fill="white" stroke="black" points="154,-98 154,-128 278,-128 278,-98 154,-98"/>
<text text-anchor="start" x="162" y="-116" font-family="Helvetica,sans-Serif" font-size="10.00">mavlink_msg_set_mag</text>
<text text-anchor="middle" x="216" y="-105" font-family="Helvetica,sans-Serif" font-size="10.00">_offsets_get_mag_ofs_x</text>
</a>
</g>
</g>
<!-- Node1&#45;&gt;Node4 -->
<g id="edge3" class="edge"><title>Node1&#45;&gt;Node4</title>
<path fill="none" stroke="midnightblue" d="M117.716,-113C126.192,-113 135.005,-113 143.714,-113"/>
<polygon fill="midnightblue" stroke="midnightblue" points="143.862,-116.5 153.862,-113 143.862,-109.5 143.862,-116.5"/>
</g>
<!-- Node5 -->
<g id="node5" class="node"><title>Node5</title>
<g id="a_node5"><a xlink:href="$v0_89_2ardupilotmega_2mavlink__msg__set__mag__offsets_8h.html#a767d8a0f6be8350368d536c9f86b5eb4" xlink:title="Get field mag_ofs_y from set_mag_offsets message. ">
<polygon fill="white" stroke="black" points="154,-49 154,-79 278,-79 278,-49 154,-49"/>
<text text-anchor="start" x="162" y="-67" font-family="Helvetica,sans-Serif" font-size="10.00">mavlink_msg_set_mag</text>
<text text-anchor="middle" x="216" y="-56" font-family="Helvetica,sans-Serif" font-size="10.00">_offsets_get_mag_ofs_y</text>
</a>
</g>
</g>
<!-- Node1&#45;&gt;Node5 -->
<g id="edge4" class="edge"><title>Node1&#45;&gt;Node5</title>
<path fill="none" stroke="midnightblue" d="M107.77,-97.8986C123.46,-92.9385 141.066,-87.3726 157.406,-82.2071"/>
<polygon fill="midnightblue" stroke="midnightblue" points="158.908,-85.4031 167.388,-79.0516 156.798,-78.7287 158.908,-85.4031"/>
</g>
<!-- Node6 -->
<g id="node6" class="node"><title>Node6</title>
<g id="a_node6"><a xlink:href="$v0_89_2ardupilotmega_2mavlink__msg__set__mag__offsets_8h.html#a8c805a90c59c980b2144496c7290bbf2" xlink:title="Get field mag_ofs_z from set_mag_offsets message. ">
<polygon fill="white" stroke="black" points="154,-0 154,-30 278,-30 278,-0 154,-0"/>
<text text-anchor="start" x="162" y="-18" font-family="Helvetica,sans-Serif" font-size="10.00">mavlink_msg_set_mag</text>
<text text-anchor="middle" x="216" y="-7" font-family="Helvetica,sans-Serif" font-size="10.00">_offsets_get_mag_ofs_z</text>
</a>
</g>
</g>
<!-- Node1&#45;&gt;Node6 -->
<g id="edge5" class="edge"><title>Node1&#45;&gt;Node6</title>
<path fill="none" stroke="midnightblue" d="M76.6619,-97.7768C94.7118,-81.8522 124.85,-56.8702 154,-40 157.413,-38.0249 161.012,-36.1286 164.685,-34.3256"/>
<polygon fill="midnightblue" stroke="midnightblue" points="166.31,-37.4304 173.906,-30.0447 163.362,-31.0814 166.31,-37.4304"/>
</g>
</g>
</svg>
