<?xml version="1.0" encoding="UTF-8" standalone="no"?>
<!DOCTYPE svg PUBLIC "-//W3C//DTD SVG 1.1//EN"
 "http://www.w3.org/Graphics/SVG/1.1/DTD/svg11.dtd">
<!-- Generated by graphviz version 2.36.0 (20140111.2315)
 -->
<!-- Title: mavlink_msg_auth_key_pack Pages: 1 -->
<svg width="464pt" height="104pt"
 viewBox="0.00 0.00 464.00 104.00" xmlns="http://www.w3.org/2000/svg" xmlns:xlink="http://www.w3.org/1999/xlink">
<g id="graph0" class="graph" transform="scale(1 1) rotate(0) translate(4 100)">
<title>mavlink_msg_auth_key_pack</title>
<polygon fill="white" stroke="none" points="-4,4 -4,-100 460,-100 460,4 -4,4"/>
<!-- Node1 -->
<g id="node1" class="node"><title>Node1</title>
<polygon fill="#bfbfbf" stroke="black" points="0,-38.5 0,-57.5 146,-57.5 146,-38.5 0,-38.5"/>
<text text-anchor="middle" x="73" y="-45.5" font-family="Helvetica,sans-Serif" font-size="10.00">mavlink_msg_auth_key_pack</text>
</g>
<!-- Node2 -->
<g id="node2" class="node"><title>Node2</title>
<g id="a_node2"><a xlink:href="$v0_89_2protocol_8h.html#a1e87b7f293e127478ca611644a7810b6" xlink:title="_mav_put_char_array">
<polygon fill="white" stroke="black" points="193,-76.5 193,-95.5 303,-95.5 303,-76.5 193,-76.5"/>
<text text-anchor="middle" x="248" y="-83.5" font-family="Helvetica,sans-Serif" font-size="10.00">_mav_put_char_array</text>
</a>
</g>
</g>
<!-- Node1&#45;&gt;Node2 -->
<g id="edge1" class="edge"><title>Node1&#45;&gt;Node2</title>
<path fill="none" stroke="midnightblue" d="M117.655,-57.589C140.793,-62.6713 169.402,-68.9554 193.827,-74.3203"/>
<polygon fill="midnightblue" stroke="midnightblue" points="193.141,-77.753 203.659,-76.4799 194.642,-70.916 193.141,-77.753"/>
</g>
<!-- Node3 -->
<g id="node3" class="node"><title>Node3</title>
<g id="a_node3"><a xlink:href="$v0_89_2protocol_8h.html#a4486c3d5854cac1cb6a0fb1cc5ba570c" xlink:title="mav_array_memcpy">
<polygon fill="white" stroke="black" points="350.5,-57.5 350.5,-76.5 455.5,-76.5 455.5,-57.5 350.5,-57.5"/>
<text text-anchor="middle" x="403" y="-64.5" font-family="Helvetica,sans-Serif" font-size="10.00">mav_array_memcpy</text>
</a>
</g>
</g>
<!-- Node1&#45;&gt;Node3 -->
<g id="edge3" class="edge"><title>Node1&#45;&gt;Node3</title>
<path fill="none" stroke="midnightblue" d="M146.387,-52.1932C204.431,-55.5555 285.019,-60.2236 340.096,-63.4141"/>
<polygon fill="midnightblue" stroke="midnightblue" points="340.229,-66.9276 350.414,-64.0118 340.633,-59.9393 340.229,-66.9276"/>
</g>
<!-- Node4 -->
<g id="node4" class="node"><title>Node4</title>
<g id="a_node4"><a xlink:href="$v0_89_2mavlink__helpers_8h.html#af3bea083c5ec83f5b6570b2bd4a817d0" xlink:title="Finalize a MAVLink message with MAVLINK_COMM_0 as default channel. ">
<polygon fill="white" stroke="black" points="182.5,-0.5 182.5,-19.5 313.5,-19.5 313.5,-0.5 182.5,-0.5"/>
<text text-anchor="middle" x="248" y="-7.5" font-family="Helvetica,sans-Serif" font-size="10.00">mavlink_finalize_message</text>
</a>
</g>
</g>
<!-- Node1&#45;&gt;Node4 -->
<g id="edge4" class="edge"><title>Node1&#45;&gt;Node4</title>
<path fill="none" stroke="midnightblue" d="M117.655,-38.411C140.793,-33.3287 169.402,-27.0446 193.827,-21.6797"/>
<polygon fill="midnightblue" stroke="midnightblue" points="194.642,-25.084 203.659,-19.5201 193.141,-18.247 194.642,-25.084"/>
</g>
<!-- Node2&#45;&gt;Node3 -->
<g id="edge2" class="edge"><title>Node2&#45;&gt;Node3</title>
<path fill="none" stroke="midnightblue" d="M303.373,-79.2478C315.317,-77.7645 328.049,-76.1835 340.259,-74.6672"/>
<polygon fill="midnightblue" stroke="midnightblue" points="340.872,-78.118 350.365,-73.4123 340.009,-71.1714 340.872,-78.118"/>
</g>
</g>
</svg>
