<?xml version="1.0" encoding="UTF-8" standalone="no"?>
<!DOCTYPE svg PUBLIC "-//W3C//DTD SVG 1.1//EN"
 "http://www.w3.org/Graphics/SVG/1.1/DTD/svg11.dtd">
<!-- Generated by graphviz version 2.36.0 (20140111.2315)
 -->
<!-- Title: mavlink_msg_safety_allowed_area_get_frame Pages: 1 -->
<svg width="704pt" height="38pt"
 viewBox="0.00 0.00 704.00 38.00" xmlns="http://www.w3.org/2000/svg" xmlns:xlink="http://www.w3.org/1999/xlink">
<g id="graph0" class="graph" transform="scale(1 1) rotate(0) translate(4 34)">
<title>mavlink_msg_safety_allowed_area_get_frame</title>
<polygon fill="white" stroke="none" points="-4,4 -4,-34 700,-34 700,4 -4,4"/>
<!-- Node1 -->
<g id="node1" class="node"><title>Node1</title>
<polygon fill="#bfbfbf" stroke="black" points="0,-0 0,-30 128,-30 128,-0 0,-0"/>
<text text-anchor="start" x="8" y="-18" font-family="Helvetica,sans-Serif" font-size="10.00">mavlink_msg_safety</text>
<text text-anchor="middle" x="64" y="-7" font-family="Helvetica,sans-Serif" font-size="10.00">_allowed_area_get_frame</text>
</g>
<!-- Node2 -->
<g id="node2" class="node"><title>Node2</title>
<g id="a_node2"><a xlink:href="$v0_89_2common_2mavlink__msg__safety__allowed__area_8h.html#a7298e6a3baeb029e3a99b499a3702a5d" xlink:title="Decode a safety_allowed_area message into a struct. ">
<polygon fill="white" stroke="black" points="164,-0 164,-30 280,-30 280,-0 164,-0"/>
<text text-anchor="start" x="172" y="-18" font-family="Helvetica,sans-Serif" font-size="10.00">mavlink_msg_safety</text>
<text text-anchor="middle" x="222" y="-7" font-family="Helvetica,sans-Serif" font-size="10.00">_allowed_area_decode</text>
</a>
</g>
</g>
<!-- Node1&#45;&gt;Node2 -->
<g id="edge1" class="edge"><title>Node1&#45;&gt;Node2</title>
<path fill="none" stroke="midnightblue" d="M138.079,-15C146.716,-15 155.434,-15 163.808,-15"/>
<polygon fill="midnightblue" stroke="midnightblue" points="138.002,-11.5001 128.002,-15 138.001,-18.5001 138.002,-11.5001"/>
</g>
<!-- Node3 -->
<g id="node3" class="node"><title>Node3</title>
<g id="a_node3"><a xlink:href="$v0_89_2common_2testsuite_8h.html#a74353fc06130900f879bdd2b734e9727" xlink:title="mavlink_test_safety\l_allowed_area">
<polygon fill="white" stroke="black" points="316,-0 316,-30 420,-30 420,-0 316,-0"/>
<text text-anchor="start" x="324" y="-18" font-family="Helvetica,sans-Serif" font-size="10.00">mavlink_test_safety</text>
<text text-anchor="middle" x="368" y="-7" font-family="Helvetica,sans-Serif" font-size="10.00">_allowed_area</text>
</a>
</g>
</g>
<!-- Node2&#45;&gt;Node3 -->
<g id="edge2" class="edge"><title>Node2&#45;&gt;Node3</title>
<path fill="none" stroke="midnightblue" d="M290.353,-15C298.954,-15 307.644,-15 315.929,-15"/>
<polygon fill="midnightblue" stroke="midnightblue" points="290.326,-11.5001 280.326,-15 290.326,-18.5001 290.326,-11.5001"/>
</g>
<!-- Node4 -->
<g id="node4" class="node"><title>Node4</title>
<g id="a_node4"><a xlink:href="$v0_89_2common_2testsuite_8h.html#af349432601ac003d2c80a69c100c70a4" xlink:title="mavlink_test_common">
<polygon fill="white" stroke="black" points="456.5,-5.5 456.5,-24.5 571.5,-24.5 571.5,-5.5 456.5,-5.5"/>
<text text-anchor="middle" x="514" y="-12.5" font-family="Helvetica,sans-Serif" font-size="10.00">mavlink_test_common</text>
</a>
</g>
</g>
<!-- Node3&#45;&gt;Node4 -->
<g id="edge3" class="edge"><title>Node3&#45;&gt;Node4</title>
<path fill="none" stroke="midnightblue" d="M430.435,-15C438.957,-15 447.68,-15 456.113,-15"/>
<polygon fill="midnightblue" stroke="midnightblue" points="430.175,-11.5001 420.174,-15 430.174,-18.5001 430.175,-11.5001"/>
</g>
<!-- Node5 -->
<g id="node5" class="node"><title>Node5</title>
<g id="a_node5"><a xlink:href="$v0_89_2common_2testsuite_8h.html#a4cc77b6c343679298da5d3c2b4e48759" xlink:title="mavlink_test_all">
<polygon fill="white" stroke="black" points="608.5,-5.5 608.5,-24.5 695.5,-24.5 695.5,-5.5 608.5,-5.5"/>
<text text-anchor="middle" x="652" y="-12.5" font-family="Helvetica,sans-Serif" font-size="10.00">mavlink_test_all</text>
</a>
</g>
</g>
<!-- Node4&#45;&gt;Node5 -->
<g id="edge4" class="edge"><title>Node4&#45;&gt;Node5</title>
<path fill="none" stroke="midnightblue" d="M581.996,-15C590.988,-15 600.003,-15 608.412,-15"/>
<polygon fill="midnightblue" stroke="midnightblue" points="581.888,-11.5001 571.888,-15 581.888,-18.5001 581.888,-11.5001"/>
</g>
</g>
</svg>
