<?xml version="1.0" encoding="UTF-8" standalone="no"?>
<!DOCTYPE svg PUBLIC "-//W3C//DTD SVG 1.1//EN"
 "http://www.w3.org/Graphics/SVG/1.1/DTD/svg11.dtd">
<!-- Generated by graphviz version 2.36.0 (20140111.2315)
 -->
<!-- Title: mavlink_update_checksum Pages: 1 -->
<svg width="584pt" height="112pt"
 viewBox="0.00 0.00 584.00 112.00" xmlns="http://www.w3.org/2000/svg" xmlns:xlink="http://www.w3.org/1999/xlink">
<g id="graph0" class="graph" transform="scale(1 1) rotate(0) translate(4 108)">
<title>mavlink_update_checksum</title>
<polygon fill="white" stroke="none" points="-4,4 -4,-108 580,-108 580,4 -4,4"/>
<!-- Node1 -->
<g id="node1" class="node"><title>Node1</title>
<polygon fill="#bfbfbf" stroke="black" points="0.5,-57.5 0.5,-76.5 135.5,-76.5 135.5,-57.5 0.5,-57.5"/>
<text text-anchor="middle" x="68" y="-64.5" font-family="Helvetica,sans-Serif" font-size="10.00">mavlink_update_checksum</text>
</g>
<!-- Node2 -->
<g id="node2" class="node"><title>Node2</title>
<g id="a_node2"><a xlink:href="$v1_80_2mavlink__helpers_8h.html#a0e22b58900ea14d70bff3aadb38dbb3d" xlink:title="mavlink_frame_char\l_buffer">
<polygon fill="white" stroke="black" points="172,-74 172,-104 276,-104 276,-74 172,-74"/>
<text text-anchor="start" x="180" y="-92" font-family="Helvetica,sans-Serif" font-size="10.00">mavlink_frame_char</text>
<text text-anchor="middle" x="224" y="-81" font-family="Helvetica,sans-Serif" font-size="10.00">_buffer</text>
</a>
</g>
</g>
<!-- Node1&#45;&gt;Node2 -->
<g id="edge1" class="edge"><title>Node1&#45;&gt;Node2</title>
<path fill="none" stroke="midnightblue" d="M145.572,-77.9389C154.385,-79.1978 163.204,-80.4578 171.57,-81.6528"/>
<polygon fill="midnightblue" stroke="midnightblue" points="146.045,-74.471 135.651,-76.5216 145.055,-81.4007 146.045,-74.471"/>
</g>
<!-- Node5 -->
<g id="node5" class="node"><title>Node5</title>
<g id="a_node5"><a xlink:href="$v0_89_2protocol_8h.html#ad91e8323cefc65965574c09e72365d7d" xlink:title="mavlink_parse_char">
<polygon fill="white" stroke="black" points="172,-35.5 172,-54.5 276,-54.5 276,-35.5 172,-35.5"/>
<text text-anchor="middle" x="224" y="-42.5" font-family="Helvetica,sans-Serif" font-size="10.00">mavlink_parse_char</text>
</a>
</g>
</g>
<!-- Node1&#45;&gt;Node5 -->
<g id="edge4" class="edge"><title>Node1&#45;&gt;Node5</title>
<path fill="none" stroke="midnightblue" d="M145.572,-56.0611C154.385,-54.8022 163.204,-53.5422 171.57,-52.3472"/>
<polygon fill="midnightblue" stroke="midnightblue" points="145.055,-52.5993 135.651,-57.4784 146.045,-59.529 145.055,-52.5993"/>
</g>
<!-- Node3 -->
<g id="node3" class="node"><title>Node3</title>
<g id="a_node3"><a xlink:href="$v1_80_2mavlink__helpers_8h.html#ab9ea03db8cd45ce94b64b508b087ebe6" xlink:title="mavlink_frame_char">
<polygon fill="white" stroke="black" points="322,-79.5 322,-98.5 426,-98.5 426,-79.5 322,-79.5"/>
<text text-anchor="middle" x="374" y="-86.5" font-family="Helvetica,sans-Serif" font-size="10.00">mavlink_frame_char</text>
</a>
</g>
</g>
<!-- Node2&#45;&gt;Node3 -->
<g id="edge2" class="edge"><title>Node2&#45;&gt;Node3</title>
<path fill="none" stroke="midnightblue" d="M286.507,-89C298.23,-89 310.382,-89 321.743,-89"/>
<polygon fill="midnightblue" stroke="midnightblue" points="286.348,-85.5001 276.348,-89 286.348,-92.5001 286.348,-85.5001"/>
</g>
<!-- Node4 -->
<g id="node4" class="node"><title>Node4</title>
<g id="a_node4"><a xlink:href="$v1_80_2mavlink__helpers_8h.html#ad91e8323cefc65965574c09e72365d7d" xlink:title="mavlink_parse_char">
<polygon fill="white" stroke="black" points="472,-79.5 472,-98.5 576,-98.5 576,-79.5 472,-79.5"/>
<text text-anchor="middle" x="524" y="-86.5" font-family="Helvetica,sans-Serif" font-size="10.00">mavlink_parse_char</text>
</a>
</g>
</g>
<!-- Node3&#45;&gt;Node4 -->
<g id="edge3" class="edge"><title>Node3&#45;&gt;Node4</title>
<path fill="none" stroke="midnightblue" d="M436.507,-89C448.23,-89 460.382,-89 471.743,-89"/>
<polygon fill="midnightblue" stroke="midnightblue" points="436.348,-85.5001 426.348,-89 436.348,-92.5001 436.348,-85.5001"/>
</g>
<!-- Node6 -->
<g id="node6" class="node"><title>Node6</title>
<g id="a_node6"><a xlink:href="$simplegcs_8h.html#a0e026fc9b23210373846b25cc141486d" xlink:title="simplegcs_update">
<polygon fill="white" stroke="black" points="326.5,-38.5 326.5,-57.5 421.5,-57.5 421.5,-38.5 326.5,-38.5"/>
<text text-anchor="middle" x="374" y="-45.5" font-family="Helvetica,sans-Serif" font-size="10.00">simplegcs_update</text>
</a>
</g>
</g>
<!-- Node5&#45;&gt;Node6 -->
<g id="edge5" class="edge"><title>Node5&#45;&gt;Node6</title>
<path fill="none" stroke="midnightblue" d="M286.386,-46.2443C299.695,-46.5141 313.565,-46.7952 326.205,-47.0515"/>
<polygon fill="midnightblue" stroke="midnightblue" points="286.417,-42.7443 276.348,-46.0408 286.275,-49.7429 286.417,-42.7443"/>
</g>
<!-- Node8 -->
<g id="node8" class="node"><title>Node8</title>
<g id="a_node8"><a xlink:href="$classGCS__MAVLINK.html#a7d8788ed53976a200971612229fe2533" xlink:title="GCS_MAVLINK::update">
<polygon fill="white" stroke="black" points="312.5,-0.5 312.5,-19.5 435.5,-19.5 435.5,-0.5 312.5,-0.5"/>
<text text-anchor="middle" x="374" y="-7.5" font-family="Helvetica,sans-Serif" font-size="10.00">GCS_MAVLINK::update</text>
</a>
</g>
</g>
<!-- Node5&#45;&gt;Node8 -->
<g id="edge7" class="edge"><title>Node5&#45;&gt;Node8</title>
<path fill="none" stroke="midnightblue" d="M275.269,-33.1121C293.961,-28.6918 314.912,-23.7371 332.607,-19.5523"/>
<polygon fill="midnightblue" stroke="midnightblue" points="274.368,-29.7286 265.442,-35.4361 275.979,-36.5407 274.368,-29.7286"/>
</g>
<!-- Node7 -->
<g id="node7" class="node"><title>Node7</title>
<g id="a_node7"><a xlink:href="$GCS__Console_2examples_2Console_2Console_8pde.html#a0b33edabd7f1c4e4a0bf32c67269be2f" xlink:title="loop">
<polygon fill="white" stroke="black" points="506.5,-38.5 506.5,-57.5 541.5,-57.5 541.5,-38.5 506.5,-38.5"/>
<text text-anchor="middle" x="524" y="-45.5" font-family="Helvetica,sans-Serif" font-size="10.00">loop</text>
</a>
</g>
</g>
<!-- Node6&#45;&gt;Node7 -->
<g id="edge6" class="edge"><title>Node6&#45;&gt;Node7</title>
<path fill="none" stroke="midnightblue" d="M432.179,-48C458.661,-48 488.176,-48 506.167,-48"/>
<polygon fill="midnightblue" stroke="midnightblue" points="431.828,-44.5001 421.828,-48 431.828,-51.5001 431.828,-44.5001"/>
</g>
</g>
</svg>
