<?xml version="1.0" encoding="UTF-8" standalone="no"?>
<!DOCTYPE svg PUBLIC "-//W3C//DTD SVG 1.1//EN"
 "http://www.w3.org/Graphics/SVG/1.1/DTD/svg11.dtd">
<!-- Generated by graphviz version 2.36.0 (20140111.2315)
 -->
<!-- Title: mavlink_msg_mount_configure_get_stab_roll Pages: 1 -->
<svg width="858pt" height="77pt"
 viewBox="0.00 0.00 858.00 77.00" xmlns="http://www.w3.org/2000/svg" xmlns:xlink="http://www.w3.org/1999/xlink">
<g id="graph0" class="graph" transform="scale(1 1) rotate(0) translate(4 73)">
<title>mavlink_msg_mount_configure_get_stab_roll</title>
<polygon fill="white" stroke="none" points="-4,4 -4,-73 854,-73 854,4 -4,4"/>
<!-- Node1 -->
<g id="node1" class="node"><title>Node1</title>
<polygon fill="#bfbfbf" stroke="black" points="0,-22 0,-52 152,-52 152,-22 0,-22"/>
<text text-anchor="start" x="8" y="-40" font-family="Helvetica,sans-Serif" font-size="10.00">mavlink_msg_mount_configure</text>
<text text-anchor="middle" x="76" y="-29" font-family="Helvetica,sans-Serif" font-size="10.00">_get_stab_roll</text>
</g>
<!-- Node2 -->
<g id="node2" class="node"><title>Node2</title>
<g id="a_node2"><a xlink:href="$v0_89_2ardupilotmega_2mavlink__msg__mount__configure_8h.html#a992893f3a51c09cc18ae364db137ddde" xlink:title="Decode a mount_configure message into a struct. ">
<polygon fill="white" stroke="black" points="188,-22 188,-52 340,-52 340,-22 188,-22"/>
<text text-anchor="start" x="196" y="-40" font-family="Helvetica,sans-Serif" font-size="10.00">mavlink_msg_mount_configure</text>
<text text-anchor="middle" x="264" y="-29" font-family="Helvetica,sans-Serif" font-size="10.00">_decode</text>
</a>
</g>
</g>
<!-- Node1&#45;&gt;Node2 -->
<g id="edge1" class="edge"><title>Node1&#45;&gt;Node2</title>
<path fill="none" stroke="midnightblue" d="M162.147,-37C170.742,-37 179.426,-37 187.905,-37"/>
<polygon fill="midnightblue" stroke="midnightblue" points="162.117,-33.5001 152.117,-37 162.117,-40.5001 162.117,-33.5001"/>
</g>
<!-- Node3 -->
<g id="node3" class="node"><title>Node3</title>
<g id="a_node3"><a xlink:href="$classAP__Mount__Backend.html#ace2c005e9272fd4fc12444d24e301024" xlink:title="AP_Mount_Backend::configure_msg">
<polygon fill="white" stroke="black" points="376,-49.5 376,-68.5 552,-68.5 552,-49.5 376,-49.5"/>
<text text-anchor="middle" x="464" y="-56.5" font-family="Helvetica,sans-Serif" font-size="10.00">AP_Mount_Backend::configure_msg</text>
</a>
</g>
</g>
<!-- Node2&#45;&gt;Node3 -->
<g id="edge2" class="edge"><title>Node2&#45;&gt;Node3</title>
<path fill="none" stroke="midnightblue" d="M350.197,-46.4663C359.179,-47.4644 368.316,-48.4796 377.304,-49.4782"/>
<polygon fill="midnightblue" stroke="midnightblue" points="350.463,-42.9744 340.138,-45.3486 349.69,-49.9316 350.463,-42.9744"/>
</g>
<!-- Node5 -->
<g id="node5" class="node"><title>Node5</title>
<g id="a_node5"><a xlink:href="$v0_89_2ardupilotmega_2testsuite_8h.html#a04f2da52f0d43b784ea011c2c30e4ca0" xlink:title="mavlink_test_mount\l_configure">
<polygon fill="white" stroke="black" points="412,-0 412,-30 516,-30 516,-0 412,-0"/>
<text text-anchor="start" x="420" y="-18" font-family="Helvetica,sans-Serif" font-size="10.00">mavlink_test_mount</text>
<text text-anchor="middle" x="464" y="-7" font-family="Helvetica,sans-Serif" font-size="10.00">_configure</text>
</a>
</g>
</g>
<!-- Node2&#45;&gt;Node5 -->
<g id="edge4" class="edge"><title>Node2&#45;&gt;Node5</title>
<path fill="none" stroke="midnightblue" d="M350.346,-27.5171C371.311,-25.1876 393.109,-22.7656 411.882,-20.6798"/>
<polygon fill="midnightblue" stroke="midnightblue" points="349.69,-24.0684 340.138,-28.6514 350.463,-31.0256 349.69,-24.0684"/>
</g>
<!-- Node4 -->
<g id="node4" class="node"><title>Node4</title>
<g id="a_node4"><a xlink:href="$classAP__Mount.html#a0c7c98d0174036d323749f8ddbefa621" xlink:title="AP_Mount::configure_msg">
<polygon fill="white" stroke="black" points="591,-49.5 591,-68.5 723,-68.5 723,-49.5 591,-49.5"/>
<text text-anchor="middle" x="657" y="-56.5" font-family="Helvetica,sans-Serif" font-size="10.00">AP_Mount::configure_msg</text>
</a>
</g>
</g>
<!-- Node3&#45;&gt;Node4 -->
<g id="edge3" class="edge"><title>Node3&#45;&gt;Node4</title>
<path fill="none" stroke="midnightblue" d="M562.186,-59C571.856,-59 581.504,-59 590.732,-59"/>
<polygon fill="midnightblue" stroke="midnightblue" points="562.116,-55.5001 552.116,-59 562.116,-62.5001 562.116,-55.5001"/>
</g>
<!-- Node6 -->
<g id="node6" class="node"><title>Node6</title>
<g id="a_node6"><a xlink:href="$v0_89_2ardupilotmega_2testsuite_8h.html#ab264d471ac2f46584f2bb580704b5e9d" xlink:title="mavlink_test_ardupilotmega">
<polygon fill="white" stroke="black" points="588,-5.5 588,-24.5 726,-24.5 726,-5.5 588,-5.5"/>
<text text-anchor="middle" x="657" y="-12.5" font-family="Helvetica,sans-Serif" font-size="10.00">mavlink_test_ardupilotmega</text>
</a>
</g>
</g>
<!-- Node5&#45;&gt;Node6 -->
<g id="edge5" class="edge"><title>Node5&#45;&gt;Node6</title>
<path fill="none" stroke="midnightblue" d="M526.222,-15C545.845,-15 567.694,-15 587.784,-15"/>
<polygon fill="midnightblue" stroke="midnightblue" points="526.185,-11.5001 516.184,-15 526.184,-18.5001 526.185,-11.5001"/>
</g>
<!-- Node7 -->
<g id="node7" class="node"><title>Node7</title>
<g id="a_node7"><a xlink:href="$v0_89_2ardupilotmega_2testsuite_8h.html#a4cc77b6c343679298da5d3c2b4e48759" xlink:title="mavlink_test_all">
<polygon fill="white" stroke="black" points="762.5,-5.5 762.5,-24.5 849.5,-24.5 849.5,-5.5 762.5,-5.5"/>
<text text-anchor="middle" x="806" y="-12.5" font-family="Helvetica,sans-Serif" font-size="10.00">mavlink_test_all</text>
</a>
</g>
</g>
<!-- Node6&#45;&gt;Node7 -->
<g id="edge6" class="edge"><title>Node6&#45;&gt;Node7</title>
<path fill="none" stroke="midnightblue" d="M736.438,-15C745.373,-15 754.211,-15 762.42,-15"/>
<polygon fill="midnightblue" stroke="midnightblue" points="736.336,-11.5001 726.336,-15 736.336,-18.5001 736.336,-11.5001"/>
</g>
</g>
</svg>
