<?xml version="1.0" encoding="UTF-8" standalone="no"?>
<!DOCTYPE svg PUBLIC "-//W3C//DTD SVG 1.1//EN"
 "http://www.w3.org/Graphics/SVG/1.1/DTD/svg11.dtd">
<!-- Generated by graphviz version 2.36.0 (20140111.2315)
 -->
<!-- Title: mavlink_msg_named_value_int_decode Pages: 1 -->
<svg width="500pt" height="87pt"
 viewBox="0.00 0.00 500.00 87.00" xmlns="http://www.w3.org/2000/svg" xmlns:xlink="http://www.w3.org/1999/xlink">
<g id="graph0" class="graph" transform="scale(1 1) rotate(0) translate(4 83)">
<title>mavlink_msg_named_value_int_decode</title>
<polygon fill="white" stroke="none" points="-4,4 -4,-83 496,-83 496,4 -4,4"/>
<!-- Node1 -->
<g id="node1" class="node"><title>Node1</title>
<polygon fill="#bfbfbf" stroke="black" points="0.5,-24 0.5,-54 137.5,-54 137.5,-24 0.5,-24"/>
<text text-anchor="start" x="8.5" y="-42" font-family="Helvetica,sans-Serif" font-size="10.00">mavlink_msg_named_value</text>
<text text-anchor="middle" x="69" y="-31" font-family="Helvetica,sans-Serif" font-size="10.00">_int_decode</text>
</g>
<!-- Node2 -->
<g id="node2" class="node"><title>Node2</title>
<g id="a_node2"><a xlink:href="$v0_89_2common_2mavlink__msg__named__value__int_8h.html#a3465adb4fd4b09c0c32536f912cce823" xlink:title="Send a named_value_int message. ">
<polygon fill="white" stroke="black" points="174.5,-49 174.5,-79 311.5,-79 311.5,-49 174.5,-49"/>
<text text-anchor="start" x="182.5" y="-67" font-family="Helvetica,sans-Serif" font-size="10.00">mavlink_msg_named_value</text>
<text text-anchor="middle" x="243" y="-56" font-family="Helvetica,sans-Serif" font-size="10.00">_int_get_name</text>
</a>
</g>
</g>
<!-- Node1&#45;&gt;Node2 -->
<g id="edge1" class="edge"><title>Node1&#45;&gt;Node2</title>
<path fill="none" stroke="midnightblue" d="M137.979,-48.8807C146.55,-50.1265 155.372,-51.4087 164.082,-52.6746"/>
<polygon fill="midnightblue" stroke="midnightblue" points="163.834,-56.1753 174.233,-54.1502 164.841,-49.2481 163.834,-56.1753"/>
</g>
<!-- Node4 -->
<g id="node4" class="node"><title>Node4</title>
<g id="a_node4"><a xlink:href="$v0_89_2common_2mavlink__msg__named__value__int_8h.html#ac837d85b2554f73553f60209eb64d44e" xlink:title="Get field value from named_value_int message. ">
<polygon fill="white" stroke="black" points="174.5,-0 174.5,-30 311.5,-30 311.5,-0 174.5,-0"/>
<text text-anchor="start" x="182.5" y="-18" font-family="Helvetica,sans-Serif" font-size="10.00">mavlink_msg_named_value</text>
<text text-anchor="middle" x="243" y="-7" font-family="Helvetica,sans-Serif" font-size="10.00">_int_get_value</text>
</a>
</g>
</g>
<!-- Node1&#45;&gt;Node4 -->
<g id="edge3" class="edge"><title>Node1&#45;&gt;Node4</title>
<path fill="none" stroke="midnightblue" d="M137.979,-29.5146C146.55,-28.3186 155.372,-27.0877 164.082,-25.8723"/>
<polygon fill="midnightblue" stroke="midnightblue" points="164.813,-29.3043 174.233,-24.4558 163.845,-22.3715 164.813,-29.3043"/>
</g>
<!-- Node3 -->
<g id="node3" class="node"><title>Node3</title>
<g id="a_node3"><a xlink:href="$v0_89_2protocol_8h.html#a12ebb16564718cc14d12b46458bbb290" xlink:title="_MAV_RETURN_char_array">
<polygon fill="white" stroke="black" points="348.5,-54.5 348.5,-73.5 491.5,-73.5 491.5,-54.5 348.5,-54.5"/>
<text text-anchor="middle" x="420" y="-61.5" font-family="Helvetica,sans-Serif" font-size="10.00">_MAV_RETURN_char_array</text>
</a>
</g>
</g>
<!-- Node2&#45;&gt;Node3 -->
<g id="edge2" class="edge"><title>Node2&#45;&gt;Node3</title>
<path fill="none" stroke="midnightblue" d="M311.66,-64C320.395,-64 329.409,-64 338.327,-64"/>
<polygon fill="midnightblue" stroke="midnightblue" points="338.336,-67.5001 348.336,-64 338.336,-60.5001 338.336,-67.5001"/>
</g>
</g>
</svg>
