<?xml version="1.0" encoding="UTF-8" standalone="no"?>
<!DOCTYPE svg PUBLIC "-//W3C//DTD SVG 1.1//EN"
 "http://www.w3.org/Graphics/SVG/1.1/DTD/svg11.dtd">
<!-- Generated by graphviz version 2.36.0 (20140111.2315)
 -->
<!-- Title: _mav_put_int8_t_array Pages: 1 -->
<svg width="952pt" height="827pt"
 viewBox="0.00 0.00 952.00 827.00" xmlns="http://www.w3.org/2000/svg" xmlns:xlink="http://www.w3.org/1999/xlink">
<g id="graph0" class="graph" transform="scale(1 1) rotate(0) translate(4 823)">
<title>_mav_put_int8_t_array</title>
<polygon fill="white" stroke="none" points="-4,4 -4,-823 948,-823 948,4 -4,4"/>
<!-- Node1 -->
<g id="node1" class="node"><title>Node1</title>
<polygon fill="#bfbfbf" stroke="black" points="0,-386.5 0,-405.5 116,-405.5 116,-386.5 0,-386.5"/>
<text text-anchor="middle" x="58" y="-393.5" font-family="Helvetica,sans-Serif" font-size="10.00">_mav_put_int8_t_array</text>
</g>
<!-- Node2 -->
<g id="node2" class="node"><title>Node2</title>
<g id="a_node2"><a xlink:href="$v0_89_2common_2mavlink__msg__gps__status_8h.html#af06eb8afabaac8745416e6ac393b8dc0" xlink:title="Pack a gps_status message. ">
<polygon fill="white" stroke="black" points="156,-408.5 156,-427.5 310,-427.5 310,-408.5 156,-408.5"/>
<text text-anchor="middle" x="233" y="-415.5" font-family="Helvetica,sans-Serif" font-size="10.00">mavlink_msg_gps_status_pack</text>
</a>
</g>
</g>
<!-- Node1&#45;&gt;Node2 -->
<g id="edge1" class="edge"><title>Node1&#45;&gt;Node2</title>
<path fill="none" stroke="midnightblue" d="M126.112,-404.535C136.245,-405.823 146.753,-407.159 157.038,-408.467"/>
<polygon fill="midnightblue" stroke="midnightblue" points="126.488,-401.054 116.126,-403.265 125.605,-407.998 126.488,-401.054"/>
</g>
<!-- Node7 -->
<g id="node7" class="node"><title>Node7</title>
<g id="a_node7"><a xlink:href="$v0_89_2common_2mavlink__msg__gps__status_8h.html#a71e50e42e9217c6ad5cbe64a235c9c34" xlink:title="Pack a gps_status message on a channel. ">
<polygon fill="white" stroke="black" points="169,-466 169,-496 297,-496 297,-466 169,-466"/>
<text text-anchor="start" x="177" y="-484" font-family="Helvetica,sans-Serif" font-size="10.00">mavlink_msg_gps_status</text>
<text text-anchor="middle" x="233" y="-473" font-family="Helvetica,sans-Serif" font-size="10.00">_pack_chan</text>
</a>
</g>
</g>
<!-- Node1&#45;&gt;Node7 -->
<g id="edge7" class="edge"><title>Node1&#45;&gt;Node7</title>
<path fill="none" stroke="midnightblue" d="M87.5928,-410.048C118.934,-425.447 169.032,-450.062 201.216,-465.875"/>
<polygon fill="midnightblue" stroke="midnightblue" points="89.0276,-406.854 78.509,-405.585 85.9408,-413.136 89.0276,-406.854"/>
</g>
<!-- Node8 -->
<g id="node8" class="node"><title>Node8</title>
<g id="a_node8"><a xlink:href="$mavlink__msg__memory__vect_8h.html#af39d7ab3fe566b8a85528502de5e9c22" xlink:title="Pack a memory_vect message. ">
<polygon fill="white" stroke="black" points="175.5,-745 175.5,-775 290.5,-775 290.5,-745 175.5,-745"/>
<text text-anchor="start" x="183.5" y="-763" font-family="Helvetica,sans-Serif" font-size="10.00">mavlink_msg_memory</text>
<text text-anchor="middle" x="233" y="-752" font-family="Helvetica,sans-Serif" font-size="10.00">_vect_pack</text>
</a>
</g>
</g>
<!-- Node1&#45;&gt;Node8 -->
<g id="edge9" class="edge"><title>Node1&#45;&gt;Node8</title>
<path fill="none" stroke="midnightblue" d="M60.665,-415.856C65.8608,-467.577 85.6331,-608.893 152,-702 164.945,-720.16 185.372,-734.833 202.345,-744.877"/>
<polygon fill="midnightblue" stroke="midnightblue" points="64.1332,-415.351 59.7224,-405.718 57.1633,-415.999 64.1332,-415.351"/>
</g>
<!-- Node13 -->
<g id="node13" class="node"><title>Node13</title>
<g id="a_node13"><a xlink:href="$mavlink__msg__memory__vect_8h.html#a15427e3be46d614fc4a8c17ca775e8dd" xlink:title="Pack a memory_vect message on a channel. ">
<polygon fill="white" stroke="black" points="175.5,-663 175.5,-693 290.5,-693 290.5,-663 175.5,-663"/>
<text text-anchor="start" x="183.5" y="-681" font-family="Helvetica,sans-Serif" font-size="10.00">mavlink_msg_memory</text>
<text text-anchor="middle" x="233" y="-670" font-family="Helvetica,sans-Serif" font-size="10.00">_vect_pack_chan</text>
</a>
</g>
</g>
<!-- Node1&#45;&gt;Node13 -->
<g id="edge15" class="edge"><title>Node1&#45;&gt;Node13</title>
<path fill="none" stroke="midnightblue" d="M63.4878,-415.629C73.619,-456.663 101.413,-553.087 152,-618 166.407,-636.487 187.866,-652.161 204.934,-662.848"/>
<polygon fill="midnightblue" stroke="midnightblue" points="66.8693,-414.72 61.1427,-405.806 60.0606,-416.345 66.8693,-414.72"/>
</g>
<!-- Node15 -->
<g id="node15" class="node"><title>Node15</title>
<g id="a_node15"><a xlink:href="$v0_89_2common_2mavlink__msg__param__request__read_8h.html#a01377350a6b268c9f6d54703c6d06f24" xlink:title="Pack a param_request_read message. ">
<polygon fill="white" stroke="black" points="161,-230 161,-260 305,-260 305,-230 161,-230"/>
<text text-anchor="start" x="169" y="-248" font-family="Helvetica,sans-Serif" font-size="10.00">mavlink_msg_param_request</text>
<text text-anchor="middle" x="233" y="-237" font-family="Helvetica,sans-Serif" font-size="10.00">_read_pack</text>
</a>
</g>
</g>
<!-- Node1&#45;&gt;Node15 -->
<g id="edge18" class="edge"><title>Node1&#45;&gt;Node15</title>
<path fill="none" stroke="midnightblue" d="M76.5791,-379.441C95.1021,-362.11 125.243,-334.239 152,-311 172.527,-293.172 196.672,-273.413 213.025,-260.204"/>
<polygon fill="midnightblue" stroke="midnightblue" points="74.0664,-376.999 69.1677,-386.394 78.8555,-382.105 74.0664,-376.999"/>
</g>
<!-- Node18 -->
<g id="node18" class="node"><title>Node18</title>
<g id="a_node18"><a xlink:href="$v0_89_2common_2mavlink__msg__param__request__read_8h.html#afc54042641a559ab733a1920a2abdda1" xlink:title="Pack a param_request_read message on a channel. ">
<polygon fill="white" stroke="black" points="350,-137 350,-167 494,-167 494,-137 350,-137"/>
<text text-anchor="start" x="358" y="-155" font-family="Helvetica,sans-Serif" font-size="10.00">mavlink_msg_param_request</text>
<text text-anchor="middle" x="422" y="-144" font-family="Helvetica,sans-Serif" font-size="10.00">_read_pack_chan</text>
</a>
</g>
</g>
<!-- Node1&#45;&gt;Node18 -->
<g id="edge23" class="edge"><title>Node1&#45;&gt;Node18</title>
<path fill="none" stroke="midnightblue" d="M63.7305,-376.26C73.5694,-339.604 99.7982,-261.03 152,-220 208.714,-175.424 291.123,-159.73 349.76,-154.382"/>
<polygon fill="midnightblue" stroke="midnightblue" points="60.2748,-375.647 61.1927,-386.202 67.0573,-377.378 60.2748,-375.647"/>
</g>
<!-- Node19 -->
<g id="node19" class="node"><title>Node19</title>
<g id="a_node19"><a xlink:href="$v0_89_2common_2mavlink__msg__param__set_8h.html#ac07002dbcae6dab4a17018b30a69fe19" xlink:title="Pack a param_set message. ">
<polygon fill="white" stroke="black" points="157,-93.5 157,-112.5 309,-112.5 309,-93.5 157,-93.5"/>
<text text-anchor="middle" x="233" y="-100.5" font-family="Helvetica,sans-Serif" font-size="10.00">mavlink_msg_param_set_pack</text>
</a>
</g>
</g>
<!-- Node1&#45;&gt;Node19 -->
<g id="edge25" class="edge"><title>Node1&#45;&gt;Node19</title>
<path fill="none" stroke="midnightblue" d="M62.9794,-376.147C72.3424,-333.332 99.0729,-230.646 152,-162 168.755,-140.27 195.557,-122.773 213.463,-112.633"/>
<polygon fill="midnightblue" stroke="midnightblue" points="59.5143,-375.617 60.8791,-386.124 66.3642,-377.059 59.5143,-375.617"/>
</g>
<!-- Node23 -->
<g id="node23" class="node"><title>Node23</title>
<g id="a_node23"><a xlink:href="$v0_89_2common_2mavlink__msg__param__set_8h.html#a9b885147b54932297f137b51ac607da4" xlink:title="Pack a param_set message on a channel. ">
<polygon fill="white" stroke="black" points="359.5,-0 359.5,-30 484.5,-30 484.5,-0 359.5,-0"/>
<text text-anchor="start" x="367.5" y="-18" font-family="Helvetica,sans-Serif" font-size="10.00">mavlink_msg_param_set</text>
<text text-anchor="middle" x="422" y="-7" font-family="Helvetica,sans-Serif" font-size="10.00">_pack_chan</text>
</a>
</g>
</g>
<!-- Node1&#45;&gt;Node23 -->
<g id="edge31" class="edge"><title>Node1&#45;&gt;Node23</title>
<path fill="none" stroke="midnightblue" d="M58.6457,-376.326C58.7827,-321.517 67.0118,-165.769 152,-84 207.59,-30.5157 298.77,-16.9337 359.339,-14.2684"/>
<polygon fill="midnightblue" stroke="midnightblue" points="55.1463,-376.45 58.7145,-386.426 62.1462,-376.402 55.1463,-376.45"/>
</g>
<!-- Node24 -->
<g id="node24" class="node"><title>Node24</title>
<g id="a_node24"><a xlink:href="$v0_89_2common_2mavlink__msg__param__value_8h.html#acbef1ec07e2eb3bff44623a1c800863e" xlink:title="Pack a param_value message. ">
<polygon fill="white" stroke="black" points="152.5,-531.5 152.5,-550.5 313.5,-550.5 313.5,-531.5 152.5,-531.5"/>
<text text-anchor="middle" x="233" y="-538.5" font-family="Helvetica,sans-Serif" font-size="10.00">mavlink_msg_param_value_pack</text>
</a>
</g>
</g>
<!-- Node1&#45;&gt;Node24 -->
<g id="edge33" class="edge"><title>Node1&#45;&gt;Node24</title>
<path fill="none" stroke="midnightblue" d="M70.6368,-414.067C86.5765,-437.628 117.219,-478.906 152,-505 167.351,-516.516 186.97,-525.417 202.938,-531.487"/>
<polygon fill="midnightblue" stroke="midnightblue" points="73.5325,-412.101 65.0911,-405.698 67.6973,-415.967 73.5325,-412.101"/>
</g>
<!-- Node27 -->
<g id="node27" class="node"><title>Node27</title>
<g id="a_node27"><a xlink:href="$v0_89_2common_2mavlink__msg__param__value_8h.html#a392b1e2f329b22ffb1ebf291242502fc" xlink:title="Pack a param_value message on a channel. ">
<polygon fill="white" stroke="black" points="354.5,-614 354.5,-644 489.5,-644 489.5,-614 354.5,-614"/>
<text text-anchor="start" x="362.5" y="-632" font-family="Helvetica,sans-Serif" font-size="10.00">mavlink_msg_param_value</text>
<text text-anchor="middle" x="422" y="-621" font-family="Helvetica,sans-Serif" font-size="10.00">_pack_chan</text>
</a>
</g>
</g>
<!-- Node1&#45;&gt;Node27 -->
<g id="edge38" class="edge"><title>Node1&#45;&gt;Node27</title>
<path fill="none" stroke="midnightblue" d="M64.4406,-415.331C75.1892,-449.879 102.503,-522.136 152,-560 210.781,-604.966 295.784,-620.815 354.431,-626.299"/>
<polygon fill="midnightblue" stroke="midnightblue" points="67.7314,-414.118 61.5258,-405.531 61.0219,-416.114 67.7314,-414.118"/>
</g>
<!-- Node28 -->
<g id="node28" class="node"><title>Node28</title>
<g id="a_node28"><a xlink:href="$v0_89_2common_2mavlink__msg__statustext_8h.html#af24eace2f47c304dacbde60900e5f78d" xlink:title="Pack a statustext message. ">
<polygon fill="white" stroke="black" points="158.5,-320.5 158.5,-339.5 307.5,-339.5 307.5,-320.5 158.5,-320.5"/>
<text text-anchor="middle" x="233" y="-327.5" font-family="Helvetica,sans-Serif" font-size="10.00">mavlink_msg_statustext_pack</text>
</a>
</g>
</g>
<!-- Node1&#45;&gt;Node28 -->
<g id="edge40" class="edge"><title>Node1&#45;&gt;Node28</title>
<path fill="none" stroke="midnightblue" d="M83.7974,-381.449C102.133,-371.196 127.983,-357.782 152,-349 162.055,-345.323 173.085,-342.17 183.656,-339.549"/>
<polygon fill="midnightblue" stroke="midnightblue" points="81.908,-378.497 74.9436,-386.481 85.367,-384.583 81.908,-378.497"/>
</g>
<!-- Node31 -->
<g id="node31" class="node"><title>Node31</title>
<g id="a_node31"><a xlink:href="$v0_89_2common_2mavlink__msg__statustext_8h.html#a5abf3793ed13f3be65abc47dcf371312" xlink:title="Pack a statustext message on a channel. ">
<polygon fill="white" stroke="black" points="171.5,-359 171.5,-389 294.5,-389 294.5,-359 171.5,-359"/>
<text text-anchor="start" x="179.5" y="-377" font-family="Helvetica,sans-Serif" font-size="10.00">mavlink_msg_statustext</text>
<text text-anchor="middle" x="233" y="-366" font-family="Helvetica,sans-Serif" font-size="10.00">_pack_chan</text>
</a>
</g>
</g>
<!-- Node1&#45;&gt;Node31 -->
<g id="edge45" class="edge"><title>Node1&#45;&gt;Node31</title>
<path fill="none" stroke="midnightblue" d="M126.265,-387.446C141.127,-385.556 156.787,-383.565 171.368,-381.71"/>
<polygon fill="midnightblue" stroke="midnightblue" points="125.605,-384.002 116.126,-388.735 126.488,-390.946 125.605,-384.002"/>
</g>
<!-- Node3 -->
<g id="node3" class="node"><title>Node3</title>
<g id="a_node3"><a xlink:href="$v0_89_2common_2mavlink__msg__gps__status_8h.html#a7f2ac0f3bc21db0d8f79f475721d08d2" xlink:title="Encode a gps_status struct into a message. ">
<polygon fill="white" stroke="black" points="358,-400 358,-430 486,-430 486,-400 358,-400"/>
<text text-anchor="start" x="366" y="-418" font-family="Helvetica,sans-Serif" font-size="10.00">mavlink_msg_gps_status</text>
<text text-anchor="middle" x="422" y="-407" font-family="Helvetica,sans-Serif" font-size="10.00">_encode</text>
</a>
</g>
</g>
<!-- Node2&#45;&gt;Node3 -->
<g id="edge2" class="edge"><title>Node2&#45;&gt;Node3</title>
<path fill="none" stroke="midnightblue" d="M320.181,-416.617C332.872,-416.414 345.744,-416.207 357.853,-416.013"/>
<polygon fill="midnightblue" stroke="midnightblue" points="320.003,-413.12 310.06,-416.78 320.115,-420.119 320.003,-413.12"/>
</g>
<!-- Node4 -->
<g id="node4" class="node"><title>Node4</title>
<g id="a_node4"><a xlink:href="$v0_89_2common_2testsuite_8h.html#ac28882e77f7f950bff367d0655004a25" xlink:title="mavlink_test_gps_status">
<polygon fill="white" stroke="black" points="536.5,-427.5 536.5,-446.5 661.5,-446.5 661.5,-427.5 536.5,-427.5"/>
<text text-anchor="middle" x="599" y="-434.5" font-family="Helvetica,sans-Serif" font-size="10.00">mavlink_test_gps_status</text>
</a>
</g>
</g>
<!-- Node2&#45;&gt;Node4 -->
<g id="edge6" class="edge"><title>Node2&#45;&gt;Node4</title>
<path fill="none" stroke="midnightblue" d="M286.255,-429.513C306.108,-433.344 328.996,-437.114 350,-439 413.744,-444.723 430.003,-439.615 494,-439 507.724,-438.868 522.466,-438.638 536.411,-438.38"/>
<polygon fill="midnightblue" stroke="midnightblue" points="286.666,-426.026 276.176,-427.513 285.303,-432.892 286.666,-426.026"/>
</g>
<!-- Node3&#45;&gt;Node4 -->
<g id="edge3" class="edge"><title>Node3&#45;&gt;Node4</title>
<path fill="none" stroke="midnightblue" d="M496.273,-424.211C509.617,-425.889 523.414,-427.623 536.378,-429.253"/>
<polygon fill="midnightblue" stroke="midnightblue" points="496.538,-420.717 486.179,-422.943 495.664,-427.663 496.538,-420.717"/>
</g>
<!-- Node5 -->
<g id="node5" class="node"><title>Node5</title>
<g id="a_node5"><a xlink:href="$v0_89_2common_2testsuite_8h.html#af349432601ac003d2c80a69c100c70a4" xlink:title="mavlink_test_common">
<polygon fill="white" stroke="black" points="704.5,-323.5 704.5,-342.5 819.5,-342.5 819.5,-323.5 704.5,-323.5"/>
<text text-anchor="middle" x="762" y="-330.5" font-family="Helvetica,sans-Serif" font-size="10.00">mavlink_test_common</text>
</a>
</g>
</g>
<!-- Node4&#45;&gt;Node5 -->
<g id="edge4" class="edge"><title>Node4&#45;&gt;Node5</title>
<path fill="none" stroke="midnightblue" d="M623.587,-421.764C657.271,-400.005 718.171,-360.666 746.178,-342.574"/>
<polygon fill="midnightblue" stroke="midnightblue" points="621.359,-419.036 614.858,-427.402 625.157,-424.916 621.359,-419.036"/>
</g>
<!-- Node6 -->
<g id="node6" class="node"><title>Node6</title>
<g id="a_node6"><a xlink:href="$v0_89_2common_2testsuite_8h.html#a4cc77b6c343679298da5d3c2b4e48759" xlink:title="mavlink_test_all">
<polygon fill="white" stroke="black" points="856.5,-323.5 856.5,-342.5 943.5,-342.5 943.5,-323.5 856.5,-323.5"/>
<text text-anchor="middle" x="900" y="-330.5" font-family="Helvetica,sans-Serif" font-size="10.00">mavlink_test_all</text>
</a>
</g>
</g>
<!-- Node5&#45;&gt;Node6 -->
<g id="edge5" class="edge"><title>Node5&#45;&gt;Node6</title>
<path fill="none" stroke="midnightblue" d="M829.996,-333C838.988,-333 848.003,-333 856.412,-333"/>
<polygon fill="midnightblue" stroke="midnightblue" points="829.888,-329.5 819.888,-333 829.888,-336.5 829.888,-329.5"/>
</g>
<!-- Node7&#45;&gt;Node4 -->
<g id="edge8" class="edge"><title>Node7&#45;&gt;Node4</title>
<path fill="none" stroke="midnightblue" d="M307.361,-475.078C359.534,-470.521 431.213,-463.562 494,-455 511.43,-452.623 530.412,-449.498 547.332,-446.519"/>
<polygon fill="midnightblue" stroke="midnightblue" points="306.856,-471.608 297.195,-475.957 307.459,-478.582 306.856,-471.608"/>
</g>
<!-- Node9 -->
<g id="node9" class="node"><title>Node9</title>
<g id="a_node9"><a xlink:href="$v1_80_2common_2testsuite_8h.html#a01f56dede8b550594d1cd0ba22e5d5fe" xlink:title="mavlink_test_memory_vect">
<polygon fill="white" stroke="black" points="530.5,-750.5 530.5,-769.5 667.5,-769.5 667.5,-750.5 530.5,-750.5"/>
<text text-anchor="middle" x="599" y="-757.5" font-family="Helvetica,sans-Serif" font-size="10.00">mavlink_test_memory_vect</text>
</a>
</g>
</g>
<!-- Node8&#45;&gt;Node9 -->
<g id="edge10" class="edge"><title>Node8&#45;&gt;Node9</title>
<path fill="none" stroke="midnightblue" d="M301.051,-760C366.308,-760 464.941,-760 530.387,-760"/>
<polygon fill="midnightblue" stroke="midnightblue" points="300.875,-756.5 290.875,-760 300.875,-763.5 300.875,-756.5"/>
</g>
<!-- Node12 -->
<g id="node12" class="node"><title>Node12</title>
<g id="a_node12"><a xlink:href="$mavlink__msg__memory__vect_8h.html#a7684bd711ed6a22e6ae7df4b949100a5" xlink:title="Encode a memory_vect struct. ">
<polygon fill="white" stroke="black" points="364.5,-789 364.5,-819 479.5,-819 479.5,-789 364.5,-789"/>
<text text-anchor="start" x="372.5" y="-807" font-family="Helvetica,sans-Serif" font-size="10.00">mavlink_msg_memory</text>
<text text-anchor="middle" x="422" y="-796" font-family="Helvetica,sans-Serif" font-size="10.00">_vect_encode</text>
</a>
</g>
</g>
<!-- Node8&#45;&gt;Node12 -->
<g id="edge13" class="edge"><title>Node8&#45;&gt;Node12</title>
<path fill="none" stroke="midnightblue" d="M300.367,-775.616C321.249,-780.529 344.107,-785.907 364.256,-790.649"/>
<polygon fill="midnightblue" stroke="midnightblue" points="301.149,-772.204 290.614,-773.321 299.546,-779.018 301.149,-772.204"/>
</g>
<!-- Node10 -->
<g id="node10" class="node"><title>Node10</title>
<g id="a_node10"><a xlink:href="$v1_80_2common_2testsuite_8h.html#af349432601ac003d2c80a69c100c70a4" xlink:title="mavlink_test_common">
<polygon fill="white" stroke="black" points="704.5,-750.5 704.5,-769.5 819.5,-769.5 819.5,-750.5 704.5,-750.5"/>
<text text-anchor="middle" x="762" y="-757.5" font-family="Helvetica,sans-Serif" font-size="10.00">mavlink_test_common</text>
</a>
</g>
</g>
<!-- Node9&#45;&gt;Node10 -->
<g id="edge11" class="edge"><title>Node9&#45;&gt;Node10</title>
<path fill="none" stroke="midnightblue" d="M677.888,-760C686.85,-760 695.855,-760 704.459,-760"/>
<polygon fill="midnightblue" stroke="midnightblue" points="677.812,-756.5 667.812,-760 677.812,-763.5 677.812,-756.5"/>
</g>
<!-- Node11 -->
<g id="node11" class="node"><title>Node11</title>
<g id="a_node11"><a xlink:href="$v1_80_2common_2testsuite_8h.html#a4cc77b6c343679298da5d3c2b4e48759" xlink:title="mavlink_test_all">
<polygon fill="white" stroke="black" points="856.5,-750.5 856.5,-769.5 943.5,-769.5 943.5,-750.5 856.5,-750.5"/>
<text text-anchor="middle" x="900" y="-757.5" font-family="Helvetica,sans-Serif" font-size="10.00">mavlink_test_all</text>
</a>
</g>
</g>
<!-- Node10&#45;&gt;Node11 -->
<g id="edge12" class="edge"><title>Node10&#45;&gt;Node11</title>
<path fill="none" stroke="midnightblue" d="M829.996,-760C838.988,-760 848.003,-760 856.412,-760"/>
<polygon fill="midnightblue" stroke="midnightblue" points="829.888,-756.5 819.888,-760 829.888,-763.5 829.888,-756.5"/>
</g>
<!-- Node12&#45;&gt;Node9 -->
<g id="edge14" class="edge"><title>Node12&#45;&gt;Node9</title>
<path fill="none" stroke="midnightblue" d="M489.518,-787.275C513.341,-781.286 539.368,-774.742 559.956,-769.565"/>
<polygon fill="midnightblue" stroke="midnightblue" points="488.662,-783.882 479.817,-789.714 490.369,-790.67 488.662,-783.882"/>
</g>
<!-- Node13&#45;&gt;Node9 -->
<g id="edge16" class="edge"><title>Node13&#45;&gt;Node9</title>
<path fill="none" stroke="midnightblue" d="M301.073,-693.11C375.454,-709.866 493.18,-736.387 555.711,-750.473"/>
<polygon fill="midnightblue" stroke="midnightblue" points="301.4,-689.596 290.875,-690.812 299.861,-696.425 301.4,-689.596"/>
</g>
<!-- Node14 -->
<g id="node14" class="node"><title>Node14</title>
<g id="a_node14"><a xlink:href="$mavlink__msg__memory__vect_8h.html#a0aa6c43efafa231321e7cb3f6a4327ec" xlink:title="Encode a memory_vect struct on a channel. ">
<polygon fill="white" stroke="black" points="364.5,-663 364.5,-693 479.5,-693 479.5,-663 364.5,-663"/>
<text text-anchor="start" x="372.5" y="-681" font-family="Helvetica,sans-Serif" font-size="10.00">mavlink_msg_memory</text>
<text text-anchor="middle" x="422" y="-670" font-family="Helvetica,sans-Serif" font-size="10.00">_vect_encode_chan</text>
</a>
</g>
</g>
<!-- Node13&#45;&gt;Node14 -->
<g id="edge17" class="edge"><title>Node13&#45;&gt;Node14</title>
<path fill="none" stroke="midnightblue" d="M300.651,-678C321.456,-678 344.198,-678 364.256,-678"/>
<polygon fill="midnightblue" stroke="midnightblue" points="300.614,-674.5 290.614,-678 300.614,-681.5 300.614,-674.5"/>
</g>
<!-- Node16 -->
<g id="node16" class="node"><title>Node16</title>
<g id="a_node16"><a xlink:href="$v0_89_2common_2mavlink__msg__param__request__read_8h.html#ac0b2f42a21717f799a8c97848ac8f1d2" xlink:title="Encode a param_request_read struct into a message. ">
<polygon fill="white" stroke="black" points="350,-186 350,-216 494,-216 494,-186 350,-186"/>
<text text-anchor="start" x="358" y="-204" font-family="Helvetica,sans-Serif" font-size="10.00">mavlink_msg_param_request</text>
<text text-anchor="middle" x="422" y="-193" font-family="Helvetica,sans-Serif" font-size="10.00">_read_encode</text>
</a>
</g>
</g>
<!-- Node15&#45;&gt;Node16 -->
<g id="edge19" class="edge"><title>Node15&#45;&gt;Node16</title>
<path fill="none" stroke="midnightblue" d="M307.852,-227.623C324.148,-223.789 341.278,-219.758 357.139,-216.026"/>
<polygon fill="midnightblue" stroke="midnightblue" points="306.764,-224.283 297.832,-229.981 308.368,-231.097 306.764,-224.283"/>
</g>
<!-- Node17 -->
<g id="node17" class="node"><title>Node17</title>
<g id="a_node17"><a xlink:href="$v0_89_2common_2testsuite_8h.html#a80bddf4292281cd11f5e4f2bd7c95857" xlink:title="mavlink_test_param\l_request_read">
<polygon fill="white" stroke="black" points="547,-208 547,-238 651,-238 651,-208 547,-208"/>
<text text-anchor="start" x="555" y="-226" font-family="Helvetica,sans-Serif" font-size="10.00">mavlink_test_param</text>
<text text-anchor="middle" x="599" y="-215" font-family="Helvetica,sans-Serif" font-size="10.00">_request_read</text>
</a>
</g>
</g>
<!-- Node15&#45;&gt;Node17 -->
<g id="edge22" class="edge"><title>Node15&#45;&gt;Node17</title>
<path fill="none" stroke="midnightblue" d="M315.273,-240.088C386.103,-235.807 486.642,-229.73 546.789,-226.095"/>
<polygon fill="midnightblue" stroke="midnightblue" points="314.818,-236.609 305.047,-240.706 315.24,-243.596 314.818,-236.609"/>
</g>
<!-- Node16&#45;&gt;Node17 -->
<g id="edge20" class="edge"><title>Node16&#45;&gt;Node17</title>
<path fill="none" stroke="midnightblue" d="M504.156,-211.203C518.65,-213.025 533.377,-214.876 546.736,-216.555"/>
<polygon fill="midnightblue" stroke="midnightblue" points="504.538,-207.723 494.179,-209.948 503.665,-214.668 504.538,-207.723"/>
</g>
<!-- Node17&#45;&gt;Node5 -->
<g id="edge21" class="edge"><title>Node17&#45;&gt;Node5</title>
<path fill="none" stroke="midnightblue" d="M630.429,-243.79C665.273,-267.596 720.875,-305.585 746.813,-323.307"/>
<polygon fill="midnightblue" stroke="midnightblue" points="632.28,-240.816 622.049,-238.064 628.331,-246.596 632.28,-240.816"/>
</g>
<!-- Node18&#45;&gt;Node17 -->
<g id="edge24" class="edge"><title>Node18&#45;&gt;Node17</title>
<path fill="none" stroke="midnightblue" d="M479.381,-170.49C484.348,-172.29 489.279,-174.14 494,-176 518.888,-185.803 546.448,-198.337 566.941,-207.996"/>
<polygon fill="midnightblue" stroke="midnightblue" points="480.426,-167.147 469.831,-167.1 478.084,-173.744 480.426,-167.147"/>
</g>
<!-- Node20 -->
<g id="node20" class="node"><title>Node20</title>
<g id="a_node20"><a xlink:href="$v0_89_2common_2mavlink__msg__param__set_8h.html#a553fb14e789ebb6e2f31a477655f2201" xlink:title="Encode a param_set struct into a message. ">
<polygon fill="white" stroke="black" points="359.5,-88 359.5,-118 484.5,-118 484.5,-88 359.5,-88"/>
<text text-anchor="start" x="367.5" y="-106" font-family="Helvetica,sans-Serif" font-size="10.00">mavlink_msg_param_set</text>
<text text-anchor="middle" x="422" y="-95" font-family="Helvetica,sans-Serif" font-size="10.00">_encode</text>
</a>
</g>
</g>
<!-- Node19&#45;&gt;Node20 -->
<g id="edge26" class="edge"><title>Node19&#45;&gt;Node20</title>
<path fill="none" stroke="midnightblue" d="M319.475,-103C332.925,-103 346.598,-103 359.37,-103"/>
<polygon fill="midnightblue" stroke="midnightblue" points="319.252,-99.5001 309.252,-103 319.252,-106.5 319.252,-99.5001"/>
</g>
<!-- Node22 -->
<g id="node22" class="node"><title>Node22</title>
<g id="a_node22"><a xlink:href="$v0_89_2common_2testsuite_8h.html#a69acd76734c32b19dca35fefc0d48b30" xlink:title="mavlink_test_param_set">
<polygon fill="white" stroke="black" points="537.5,-52.5 537.5,-71.5 660.5,-71.5 660.5,-52.5 537.5,-52.5"/>
<text text-anchor="middle" x="599" y="-59.5" font-family="Helvetica,sans-Serif" font-size="10.00">mavlink_test_param_set</text>
</a>
</g>
</g>
<!-- Node19&#45;&gt;Node22 -->
<g id="edge30" class="edge"><title>Node19&#45;&gt;Node22</title>
<path fill="none" stroke="midnightblue" d="M281.284,-91.1525C302.213,-86.3389 327.204,-81.174 350,-78 413.565,-69.1493 486.991,-65.1821 537.358,-63.4114"/>
<polygon fill="midnightblue" stroke="midnightblue" points="280.301,-87.7879 271.363,-93.4771 281.898,-94.6033 280.301,-87.7879"/>
</g>
<!-- Node21 -->
<g id="node21" class="node"><title>Node21</title>
<g id="a_node21"><a xlink:href="$routing_8pde.html#a0b33edabd7f1c4e4a0bf32c67269be2f" xlink:title="loop">
<polygon fill="white" stroke="black" points="581.5,-93.5 581.5,-112.5 616.5,-112.5 616.5,-93.5 581.5,-93.5"/>
<text text-anchor="middle" x="599" y="-100.5" font-family="Helvetica,sans-Serif" font-size="10.00">loop</text>
</a>
</g>
</g>
<!-- Node20&#45;&gt;Node21 -->
<g id="edge27" class="edge"><title>Node20&#45;&gt;Node21</title>
<path fill="none" stroke="midnightblue" d="M494.934,-103C526.837,-103 561.593,-103 581.493,-103"/>
<polygon fill="midnightblue" stroke="midnightblue" points="494.698,-99.5001 484.698,-103 494.698,-106.5 494.698,-99.5001"/>
</g>
<!-- Node20&#45;&gt;Node22 -->
<g id="edge28" class="edge"><title>Node20&#45;&gt;Node22</title>
<path fill="none" stroke="midnightblue" d="M494.437,-86.2633C515.879,-81.2398 538.654,-75.904 557.369,-71.5192"/>
<polygon fill="midnightblue" stroke="midnightblue" points="493.636,-82.856 484.698,-88.5449 495.233,-89.6715 493.636,-82.856"/>
</g>
<!-- Node22&#45;&gt;Node5 -->
<g id="edge29" class="edge"><title>Node22&#45;&gt;Node5</title>
<path fill="none" stroke="midnightblue" d="M657.558,-76.1917C661.336,-78.4247 664.873,-81.009 668,-84 741.034,-153.851 757.171,-286.416 760.31,-323.277"/>
<polygon fill="midnightblue" stroke="midnightblue" points="658.896,-72.9473 648.388,-71.5931 655.758,-79.2045 658.896,-72.9473"/>
</g>
<!-- Node23&#45;&gt;Node22 -->
<g id="edge32" class="edge"><title>Node23&#45;&gt;Node22</title>
<path fill="none" stroke="midnightblue" d="M488.664,-32.6355C513.694,-39.3577 541.27,-46.7639 562.466,-52.4566"/>
<polygon fill="midnightblue" stroke="midnightblue" points="489.418,-29.214 478.852,-30.0003 487.602,-35.9744 489.418,-29.214"/>
</g>
<!-- Node25 -->
<g id="node25" class="node"><title>Node25</title>
<g id="a_node25"><a xlink:href="$v0_89_2common_2mavlink__msg__param__value_8h.html#aca4808242d70b70927121997f6b6f736" xlink:title="Encode a param_value struct into a message. ">
<polygon fill="white" stroke="black" points="354.5,-526 354.5,-556 489.5,-556 489.5,-526 354.5,-526"/>
<text text-anchor="start" x="362.5" y="-544" font-family="Helvetica,sans-Serif" font-size="10.00">mavlink_msg_param_value</text>
<text text-anchor="middle" x="422" y="-533" font-family="Helvetica,sans-Serif" font-size="10.00">_encode</text>
</a>
</g>
</g>
<!-- Node24&#45;&gt;Node25 -->
<g id="edge34" class="edge"><title>Node24&#45;&gt;Node25</title>
<path fill="none" stroke="midnightblue" d="M323.847,-541C334.157,-541 344.525,-541 354.451,-541"/>
<polygon fill="midnightblue" stroke="midnightblue" points="323.576,-537.5 313.576,-541 323.576,-544.5 323.576,-537.5"/>
</g>
<!-- Node26 -->
<g id="node26" class="node"><title>Node26</title>
<g id="a_node26"><a xlink:href="$v0_89_2common_2testsuite_8h.html#a21b48d9cd6e6feef3d12b07b20b9575c" xlink:title="mavlink_test_param\l_value">
<polygon fill="white" stroke="black" points="547,-548 547,-578 651,-578 651,-548 547,-548"/>
<text text-anchor="start" x="555" y="-566" font-family="Helvetica,sans-Serif" font-size="10.00">mavlink_test_param</text>
<text text-anchor="middle" x="599" y="-555" font-family="Helvetica,sans-Serif" font-size="10.00">_value</text>
</a>
</g>
</g>
<!-- Node24&#45;&gt;Node26 -->
<g id="edge37" class="edge"><title>Node24&#45;&gt;Node26</title>
<path fill="none" stroke="midnightblue" d="M280.504,-552.884C301.568,-557.679 326.88,-562.633 350,-565 413.667,-571.517 430.003,-565.615 494,-565 511.245,-564.834 530.097,-564.514 546.957,-564.177"/>
<polygon fill="midnightblue" stroke="midnightblue" points="281.067,-549.421 270.533,-550.554 279.474,-556.237 281.067,-549.421"/>
</g>
<!-- Node25&#45;&gt;Node26 -->
<g id="edge35" class="edge"><title>Node25&#45;&gt;Node26</title>
<path fill="none" stroke="midnightblue" d="M499.976,-550.677C515.812,-552.668 532.115,-554.717 546.769,-556.56"/>
<polygon fill="midnightblue" stroke="midnightblue" points="500.018,-547.155 489.659,-549.38 499.145,-554.1 500.018,-547.155"/>
</g>
<!-- Node26&#45;&gt;Node5 -->
<g id="edge36" class="edge"><title>Node26&#45;&gt;Node5</title>
<path fill="none" stroke="midnightblue" d="M616.49,-539.443C651.122,-489.969 730.194,-377.008 754.056,-342.92"/>
<polygon fill="midnightblue" stroke="midnightblue" points="613.431,-537.71 610.564,-547.909 619.166,-541.724 613.431,-537.71"/>
</g>
<!-- Node27&#45;&gt;Node26 -->
<g id="edge39" class="edge"><title>Node27&#45;&gt;Node26</title>
<path fill="none" stroke="midnightblue" d="M472.804,-610.217C499.807,-600.033 532.731,-587.616 558.038,-578.071"/>
<polygon fill="midnightblue" stroke="midnightblue" points="471.27,-607.055 463.149,-613.858 473.74,-613.604 471.27,-607.055"/>
</g>
<!-- Node29 -->
<g id="node29" class="node"><title>Node29</title>
<g id="a_node29"><a xlink:href="$v0_89_2common_2mavlink__msg__statustext_8h.html#a54dd8cc12a7c61017a3754fb9e85d8a2" xlink:title="Encode a statustext struct into a message. ">
<polygon fill="white" stroke="black" points="360.5,-274 360.5,-304 483.5,-304 483.5,-274 360.5,-274"/>
<text text-anchor="start" x="368.5" y="-292" font-family="Helvetica,sans-Serif" font-size="10.00">mavlink_msg_statustext</text>
<text text-anchor="middle" x="422" y="-281" font-family="Helvetica,sans-Serif" font-size="10.00">_encode</text>
</a>
</g>
</g>
<!-- Node28&#45;&gt;Node29 -->
<g id="edge41" class="edge"><title>Node28&#45;&gt;Node29</title>
<path fill="none" stroke="midnightblue" d="M287.189,-318.338C309.939,-313.35 336.626,-307.499 360.157,-302.34"/>
<polygon fill="midnightblue" stroke="midnightblue" points="286.39,-314.93 277.372,-320.491 287.889,-321.768 286.39,-314.93"/>
</g>
<!-- Node30 -->
<g id="node30" class="node"><title>Node30</title>
<g id="a_node30"><a xlink:href="$v0_89_2common_2testsuite_8h.html#a51abb4978c027f4cfda16bbfffb31e36" xlink:title="mavlink_test_statustext">
<polygon fill="white" stroke="black" points="538.5,-323.5 538.5,-342.5 659.5,-342.5 659.5,-323.5 538.5,-323.5"/>
<text text-anchor="middle" x="599" y="-330.5" font-family="Helvetica,sans-Serif" font-size="10.00">mavlink_test_statustext</text>
</a>
</g>
</g>
<!-- Node28&#45;&gt;Node30 -->
<g id="edge44" class="edge"><title>Node28&#45;&gt;Node30</title>
<path fill="none" stroke="midnightblue" d="M317.83,-330.691C385.23,-331.246 478.262,-332.013 538.281,-332.508"/>
<polygon fill="midnightblue" stroke="midnightblue" points="317.689,-327.19 307.661,-330.607 317.632,-334.189 317.689,-327.19"/>
</g>
<!-- Node29&#45;&gt;Node30 -->
<g id="edge42" class="edge"><title>Node29&#45;&gt;Node30</title>
<path fill="none" stroke="midnightblue" d="M492.499,-306.474C515.576,-312.276 540.4,-318.518 560.167,-323.488"/>
<polygon fill="midnightblue" stroke="midnightblue" points="493.287,-303.063 482.736,-304.019 491.58,-309.852 493.287,-303.063"/>
</g>
<!-- Node30&#45;&gt;Node5 -->
<g id="edge43" class="edge"><title>Node30&#45;&gt;Node5</title>
<path fill="none" stroke="midnightblue" d="M669.979,-333C681.505,-333 693.323,-333 704.467,-333"/>
<polygon fill="midnightblue" stroke="midnightblue" points="669.95,-329.5 659.95,-333 669.95,-336.5 669.95,-329.5"/>
</g>
<!-- Node31&#45;&gt;Node30 -->
<g id="edge46" class="edge"><title>Node31&#45;&gt;Node30</title>
<path fill="none" stroke="midnightblue" d="M304.886,-366.696C357.18,-361.228 430.056,-353.439 494,-346 508.369,-344.328 523.843,-342.441 538.35,-340.634"/>
<polygon fill="midnightblue" stroke="midnightblue" points="304.293,-363.239 294.71,-367.758 305.019,-370.201 304.293,-363.239"/>
</g>
</g>
</svg>
