<?xml version="1.0" encoding="UTF-8" standalone="no"?>
<!DOCTYPE svg PUBLIC "-//W3C//DTD SVG 1.1//EN"
 "http://www.w3.org/Graphics/SVG/1.1/DTD/svg11.dtd">
<!-- Generated by graphviz version 2.36.0 (20140111.2315)
 -->
<!-- Title: mavlink_msg_digicam_control_get_zoom_pos Pages: 1 -->
<svg width="742pt" height="77pt"
 viewBox="0.00 0.00 742.00 77.00" xmlns="http://www.w3.org/2000/svg" xmlns:xlink="http://www.w3.org/1999/xlink">
<g id="graph0" class="graph" transform="scale(1 1) rotate(0) translate(4 73)">
<title>mavlink_msg_digicam_control_get_zoom_pos</title>
<polygon fill="white" stroke="none" points="-4,4 -4,-73 738,-73 738,4 -4,4"/>
<!-- Node1 -->
<g id="node1" class="node"><title>Node1</title>
<polygon fill="#bfbfbf" stroke="black" points="0,-22 0,-52 120,-52 120,-22 0,-22"/>
<text text-anchor="start" x="8" y="-40" font-family="Helvetica,sans-Serif" font-size="10.00">mavlink_msg_digicam</text>
<text text-anchor="middle" x="60" y="-29" font-family="Helvetica,sans-Serif" font-size="10.00">_control_get_zoom_pos</text>
</g>
<!-- Node2 -->
<g id="node2" class="node"><title>Node2</title>
<g id="a_node2"><a xlink:href="$v0_89_2ardupilotmega_2mavlink__msg__digicam__control_8h.html#a555bdf370d83bb7e910c6bdf7e37ecbc" xlink:title="Decode a digicam_control message into a struct. ">
<polygon fill="white" stroke="black" points="156.5,-22 156.5,-52 269.5,-52 269.5,-22 156.5,-22"/>
<text text-anchor="start" x="164.5" y="-40" font-family="Helvetica,sans-Serif" font-size="10.00">mavlink_msg_digicam</text>
<text text-anchor="middle" x="213" y="-29" font-family="Helvetica,sans-Serif" font-size="10.00">_control_decode</text>
</a>
</g>
</g>
<!-- Node1&#45;&gt;Node2 -->
<g id="edge1" class="edge"><title>Node1&#45;&gt;Node2</title>
<path fill="none" stroke="midnightblue" d="M130.391,-37C139.099,-37 147.917,-37 156.376,-37"/>
<polygon fill="midnightblue" stroke="midnightblue" points="130.246,-33.5001 120.246,-37 130.246,-40.5001 130.246,-33.5001"/>
</g>
<!-- Node3 -->
<g id="node3" class="node"><title>Node3</title>
<g id="a_node3"><a xlink:href="$classAP__Camera.html#a27664cf70d78d5af17d66a3d715048db" xlink:title="decode MavLink that controls camera ">
<polygon fill="white" stroke="black" points="306.5,-49.5 306.5,-68.5 435.5,-68.5 435.5,-49.5 306.5,-49.5"/>
<text text-anchor="middle" x="371" y="-56.5" font-family="Helvetica,sans-Serif" font-size="10.00">AP_Camera::control_msg</text>
</a>
</g>
</g>
<!-- Node2&#45;&gt;Node3 -->
<g id="edge2" class="edge"><title>Node2&#45;&gt;Node3</title>
<path fill="none" stroke="midnightblue" d="M279.985,-46.3056C288.698,-47.5343 297.615,-48.7918 306.288,-50.0149"/>
<polygon fill="midnightblue" stroke="midnightblue" points="280.27,-42.8112 269.879,-44.8804 279.292,-49.7426 280.27,-42.8112"/>
</g>
<!-- Node4 -->
<g id="node4" class="node"><title>Node4</title>
<g id="a_node4"><a xlink:href="$v0_89_2ardupilotmega_2testsuite_8h.html#a854f8e5b733b51170ed61a683de49fad" xlink:title="mavlink_test_digicam\l_control">
<polygon fill="white" stroke="black" points="315.5,-0 315.5,-30 426.5,-30 426.5,-0 315.5,-0"/>
<text text-anchor="start" x="323.5" y="-18" font-family="Helvetica,sans-Serif" font-size="10.00">mavlink_test_digicam</text>
<text text-anchor="middle" x="371" y="-7" font-family="Helvetica,sans-Serif" font-size="10.00">_control</text>
</a>
</g>
</g>
<!-- Node2&#45;&gt;Node4 -->
<g id="edge3" class="edge"><title>Node2&#45;&gt;Node4</title>
<path fill="none" stroke="midnightblue" d="M280.072,-27.6822C291.81,-26.0268 303.917,-24.3194 315.296,-22.7147"/>
<polygon fill="midnightblue" stroke="midnightblue" points="279.292,-24.2574 269.879,-29.1196 280.27,-31.1888 279.292,-24.2574"/>
</g>
<!-- Node5 -->
<g id="node5" class="node"><title>Node5</title>
<g id="a_node5"><a xlink:href="$v0_89_2ardupilotmega_2testsuite_8h.html#ab264d471ac2f46584f2bb580704b5e9d" xlink:title="mavlink_test_ardupilotmega">
<polygon fill="white" stroke="black" points="472,-5.5 472,-24.5 610,-24.5 610,-5.5 472,-5.5"/>
<text text-anchor="middle" x="541" y="-12.5" font-family="Helvetica,sans-Serif" font-size="10.00">mavlink_test_ardupilotmega</text>
</a>
</g>
</g>
<!-- Node4&#45;&gt;Node5 -->
<g id="edge4" class="edge"><title>Node4&#45;&gt;Node5</title>
<path fill="none" stroke="midnightblue" d="M436.56,-15C448.136,-15 460.233,-15 471.905,-15"/>
<polygon fill="midnightblue" stroke="midnightblue" points="436.545,-11.5001 426.545,-15 436.545,-18.5001 436.545,-11.5001"/>
</g>
<!-- Node6 -->
<g id="node6" class="node"><title>Node6</title>
<g id="a_node6"><a xlink:href="$v0_89_2ardupilotmega_2testsuite_8h.html#a4cc77b6c343679298da5d3c2b4e48759" xlink:title="mavlink_test_all">
<polygon fill="white" stroke="black" points="646.5,-5.5 646.5,-24.5 733.5,-24.5 733.5,-5.5 646.5,-5.5"/>
<text text-anchor="middle" x="690" y="-12.5" font-family="Helvetica,sans-Serif" font-size="10.00">mavlink_test_all</text>
</a>
</g>
</g>
<!-- Node5&#45;&gt;Node6 -->
<g id="edge5" class="edge"><title>Node5&#45;&gt;Node6</title>
<path fill="none" stroke="midnightblue" d="M620.438,-15C629.373,-15 638.211,-15 646.42,-15"/>
<polygon fill="midnightblue" stroke="midnightblue" points="620.336,-11.5001 610.336,-15 620.336,-18.5001 620.336,-11.5001"/>
</g>
</g>
</svg>
