<?xml version="1.0" encoding="UTF-8" standalone="no"?>
<!DOCTYPE svg PUBLIC "-//W3C//DTD SVG 1.1//EN"
 "http://www.w3.org/Graphics/SVG/1.1/DTD/svg11.dtd">
<!-- Generated by graphviz version 2.36.0 (20140111.2315)
 -->
<!-- Title: mavlink_msg_fence_fetch_point_get_idx Pages: 1 -->
<svg width="744pt" height="38pt"
 viewBox="0.00 0.00 744.00 38.00" xmlns="http://www.w3.org/2000/svg" xmlns:xlink="http://www.w3.org/1999/xlink">
<g id="graph0" class="graph" transform="scale(1 1) rotate(0) translate(4 34)">
<title>mavlink_msg_fence_fetch_point_get_idx</title>
<polygon fill="white" stroke="none" points="-4,4 -4,-34 740,-34 740,4 -4,4"/>
<!-- Node1 -->
<g id="node1" class="node"><title>Node1</title>
<polygon fill="#bfbfbf" stroke="black" points="0.5,-0 0.5,-30 131.5,-30 131.5,-0 0.5,-0"/>
<text text-anchor="start" x="8.5" y="-18" font-family="Helvetica,sans-Serif" font-size="10.00">mavlink_msg_fence_fetch</text>
<text text-anchor="middle" x="66" y="-7" font-family="Helvetica,sans-Serif" font-size="10.00">_point_get_idx</text>
</g>
<!-- Node2 -->
<g id="node2" class="node"><title>Node2</title>
<g id="a_node2"><a xlink:href="$v0_89_2ardupilotmega_2mavlink__msg__fence__fetch__point_8h.html#aea0dda1700ed226c518baa683ec6b8f1" xlink:title="Decode a fence_fetch_point message into a struct. ">
<polygon fill="white" stroke="black" points="168.5,-0 168.5,-30 299.5,-30 299.5,-0 168.5,-0"/>
<text text-anchor="start" x="176.5" y="-18" font-family="Helvetica,sans-Serif" font-size="10.00">mavlink_msg_fence_fetch</text>
<text text-anchor="middle" x="234" y="-7" font-family="Helvetica,sans-Serif" font-size="10.00">_point_decode</text>
</a>
</g>
</g>
<!-- Node1&#45;&gt;Node2 -->
<g id="edge1" class="edge"><title>Node1&#45;&gt;Node2</title>
<path fill="none" stroke="midnightblue" d="M141.898,-15C150.693,-15 159.609,-15 168.248,-15"/>
<polygon fill="midnightblue" stroke="midnightblue" points="141.655,-11.5001 131.655,-15 141.655,-18.5001 141.655,-11.5001"/>
</g>
<!-- Node3 -->
<g id="node3" class="node"><title>Node3</title>
<g id="a_node3"><a xlink:href="$v0_89_2ardupilotmega_2testsuite_8h.html#ac608ccf6887d4289374afb2fccc45dca" xlink:title="mavlink_test_fence\l_fetch_point">
<polygon fill="white" stroke="black" points="336.5,-0 336.5,-30 437.5,-30 437.5,-0 336.5,-0"/>
<text text-anchor="start" x="344.5" y="-18" font-family="Helvetica,sans-Serif" font-size="10.00">mavlink_test_fence</text>
<text text-anchor="middle" x="387" y="-7" font-family="Helvetica,sans-Serif" font-size="10.00">_fetch_point</text>
</a>
</g>
</g>
<!-- Node2&#45;&gt;Node3 -->
<g id="edge2" class="edge"><title>Node2&#45;&gt;Node3</title>
<path fill="none" stroke="midnightblue" d="M309.938,-15C318.844,-15 327.76,-15 336.191,-15"/>
<polygon fill="midnightblue" stroke="midnightblue" points="309.914,-11.5001 299.914,-15 309.914,-18.5001 309.914,-11.5001"/>
</g>
<!-- Node4 -->
<g id="node4" class="node"><title>Node4</title>
<g id="a_node4"><a xlink:href="$v0_89_2ardupilotmega_2testsuite_8h.html#ab264d471ac2f46584f2bb580704b5e9d" xlink:title="mavlink_test_ardupilotmega">
<polygon fill="white" stroke="black" points="474,-5.5 474,-24.5 612,-24.5 612,-5.5 474,-5.5"/>
<text text-anchor="middle" x="543" y="-12.5" font-family="Helvetica,sans-Serif" font-size="10.00">mavlink_test_ardupilotmega</text>
</a>
</g>
</g>
<!-- Node3&#45;&gt;Node4 -->
<g id="edge3" class="edge"><title>Node3&#45;&gt;Node4</title>
<path fill="none" stroke="midnightblue" d="M447.848,-15C456.418,-15 465.286,-15 473.998,-15"/>
<polygon fill="midnightblue" stroke="midnightblue" points="447.574,-11.5001 437.574,-15 447.574,-18.5001 447.574,-11.5001"/>
</g>
<!-- Node5 -->
<g id="node5" class="node"><title>Node5</title>
<g id="a_node5"><a xlink:href="$v0_89_2ardupilotmega_2testsuite_8h.html#a4cc77b6c343679298da5d3c2b4e48759" xlink:title="mavlink_test_all">
<polygon fill="white" stroke="black" points="648.5,-5.5 648.5,-24.5 735.5,-24.5 735.5,-5.5 648.5,-5.5"/>
<text text-anchor="middle" x="692" y="-12.5" font-family="Helvetica,sans-Serif" font-size="10.00">mavlink_test_all</text>
</a>
</g>
</g>
<!-- Node4&#45;&gt;Node5 -->
<g id="edge4" class="edge"><title>Node4&#45;&gt;Node5</title>
<path fill="none" stroke="midnightblue" d="M622.438,-15C631.373,-15 640.211,-15 648.42,-15"/>
<polygon fill="midnightblue" stroke="midnightblue" points="622.336,-11.5001 612.336,-15 622.336,-18.5001 622.336,-11.5001"/>
</g>
</g>
</svg>
