<?xml version="1.0" encoding="UTF-8" standalone="no"?>
<!DOCTYPE svg PUBLIC "-//W3C//DTD SVG 1.1//EN"
 "http://www.w3.org/Graphics/SVG/1.1/DTD/svg11.dtd">
<!-- Generated by graphviz version 2.36.0 (20140111.2315)
 -->
<!-- Title: mavlink_msg_ahrs_get_accel_weight Pages: 1 -->
<svg width="728pt" height="38pt"
 viewBox="0.00 0.00 728.00 38.00" xmlns="http://www.w3.org/2000/svg" xmlns:xlink="http://www.w3.org/1999/xlink">
<g id="graph0" class="graph" transform="scale(1 1) rotate(0) translate(4 34)">
<title>mavlink_msg_ahrs_get_accel_weight</title>
<polygon fill="white" stroke="none" points="-4,4 -4,-34 724,-34 724,4 -4,4"/>
<!-- Node1 -->
<g id="node1" class="node"><title>Node1</title>
<polygon fill="#bfbfbf" stroke="black" points="0.5,-0 0.5,-30 117.5,-30 117.5,-0 0.5,-0"/>
<text text-anchor="start" x="8.5" y="-18" font-family="Helvetica,sans-Serif" font-size="10.00">mavlink_msg_ahrs_get</text>
<text text-anchor="middle" x="59" y="-7" font-family="Helvetica,sans-Serif" font-size="10.00">_accel_weight</text>
</g>
<!-- Node2 -->
<g id="node2" class="node"><title>Node2</title>
<g id="a_node2"><a xlink:href="$v0_89_2ardupilotmega_2mavlink__msg__ahrs_8h.html#a48571b5e50fbba4a201fe03dc96b6329" xlink:title="Decode a ahrs message into a struct. ">
<polygon fill="white" stroke="black" points="154.5,-5.5 154.5,-24.5 289.5,-24.5 289.5,-5.5 154.5,-5.5"/>
<text text-anchor="middle" x="222" y="-12.5" font-family="Helvetica,sans-Serif" font-size="10.00">mavlink_msg_ahrs_decode</text>
</a>
</g>
</g>
<!-- Node1&#45;&gt;Node2 -->
<g id="edge1" class="edge"><title>Node1&#45;&gt;Node2</title>
<path fill="none" stroke="midnightblue" d="M127.866,-15C136.654,-15 145.648,-15 154.415,-15"/>
<polygon fill="midnightblue" stroke="midnightblue" points="127.67,-11.5001 117.67,-15 127.67,-18.5001 127.67,-11.5001"/>
</g>
<!-- Node3 -->
<g id="node3" class="node"><title>Node3</title>
<g id="a_node3"><a xlink:href="$v0_89_2ardupilotmega_2testsuite_8h.html#aa6892a55bb6a312967d765e9f7e551a0" xlink:title="mavlink_test_ahrs">
<polygon fill="white" stroke="black" points="326,-5.5 326,-24.5 422,-24.5 422,-5.5 326,-5.5"/>
<text text-anchor="middle" x="374" y="-12.5" font-family="Helvetica,sans-Serif" font-size="10.00">mavlink_test_ahrs</text>
</a>
</g>
</g>
<!-- Node2&#45;&gt;Node3 -->
<g id="edge2" class="edge"><title>Node2&#45;&gt;Node3</title>
<path fill="none" stroke="midnightblue" d="M299.719,-15C308.634,-15 317.517,-15 325.864,-15"/>
<polygon fill="midnightblue" stroke="midnightblue" points="299.666,-11.5001 289.666,-15 299.666,-18.5001 299.666,-11.5001"/>
</g>
<!-- Node4 -->
<g id="node4" class="node"><title>Node4</title>
<g id="a_node4"><a xlink:href="$v0_89_2ardupilotmega_2testsuite_8h.html#ab264d471ac2f46584f2bb580704b5e9d" xlink:title="mavlink_test_ardupilotmega">
<polygon fill="white" stroke="black" points="458,-5.5 458,-24.5 596,-24.5 596,-5.5 458,-5.5"/>
<text text-anchor="middle" x="527" y="-12.5" font-family="Helvetica,sans-Serif" font-size="10.00">mavlink_test_ardupilotmega</text>
</a>
</g>
</g>
<!-- Node3&#45;&gt;Node4 -->
<g id="edge3" class="edge"><title>Node3&#45;&gt;Node4</title>
<path fill="none" stroke="midnightblue" d="M432.602,-15C440.838,-15 449.375,-15 457.791,-15"/>
<polygon fill="midnightblue" stroke="midnightblue" points="432.363,-11.5001 422.363,-15 432.363,-18.5001 432.363,-11.5001"/>
</g>
<!-- Node5 -->
<g id="node5" class="node"><title>Node5</title>
<g id="a_node5"><a xlink:href="$v0_89_2ardupilotmega_2testsuite_8h.html#a4cc77b6c343679298da5d3c2b4e48759" xlink:title="mavlink_test_all">
<polygon fill="white" stroke="black" points="632.5,-5.5 632.5,-24.5 719.5,-24.5 719.5,-5.5 632.5,-5.5"/>
<text text-anchor="middle" x="676" y="-12.5" font-family="Helvetica,sans-Serif" font-size="10.00">mavlink_test_all</text>
</a>
</g>
</g>
<!-- Node4&#45;&gt;Node5 -->
<g id="edge4" class="edge"><title>Node4&#45;&gt;Node5</title>
<path fill="none" stroke="midnightblue" d="M606.438,-15C615.373,-15 624.211,-15 632.42,-15"/>
<polygon fill="midnightblue" stroke="midnightblue" points="606.336,-11.5001 596.336,-15 606.336,-18.5001 606.336,-11.5001"/>
</g>
</g>
</svg>
