<?xml version="1.0" encoding="UTF-8" standalone="no"?>
<!DOCTYPE svg PUBLIC "-//W3C//DTD SVG 1.1//EN"
 "http://www.w3.org/Graphics/SVG/1.1/DTD/svg11.dtd">
<!-- Generated by graphviz version 2.36.0 (20140111.2315)
 -->
<!-- Title: mavlink_finalize_message_chan Pages: 1 -->
<svg width="440pt" height="153pt"
 viewBox="0.00 0.00 440.00 153.00" xmlns="http://www.w3.org/2000/svg" xmlns:xlink="http://www.w3.org/1999/xlink">
<g id="graph0" class="graph" transform="scale(1 1) rotate(0) translate(4 149)">
<title>mavlink_finalize_message_chan</title>
<polygon fill="white" stroke="none" points="-4,4 -4,-149 436,-149 436,4 -4,4"/>
<!-- Node1 -->
<g id="node1" class="node"><title>Node1</title>
<polygon fill="#bfbfbf" stroke="black" points="0,-57.5 0,-76.5 158,-76.5 158,-57.5 0,-57.5"/>
<text text-anchor="middle" x="79" y="-64.5" font-family="Helvetica,sans-Serif" font-size="10.00">mavlink_finalize_message_chan</text>
</g>
<!-- Node2 -->
<g id="node2" class="node"><title>Node2</title>
<g id="a_node2"><a xlink:href="$v0_89_2mavlink__helpers_8h.html#ac006d308067f48514ca5c0cf0b046c28" xlink:title="mavlink_get_channel\l_status">
<polygon fill="white" stroke="black" points="198,-115 198,-145 306,-145 306,-115 198,-115"/>
<text text-anchor="start" x="206" y="-133" font-family="Helvetica,sans-Serif" font-size="10.00">mavlink_get_channel</text>
<text text-anchor="middle" x="252" y="-122" font-family="Helvetica,sans-Serif" font-size="10.00">_status</text>
</a>
</g>
</g>
<!-- Node1&#45;&gt;Node2 -->
<g id="edge1" class="edge"><title>Node1&#45;&gt;Node2</title>
<path fill="none" stroke="midnightblue" d="M105.971,-76.5683C130.926,-85.7622 169.312,-99.9046 200.325,-111.33"/>
<polygon fill="midnightblue" stroke="midnightblue" points="199.516,-114.762 210.109,-114.935 201.936,-108.194 199.516,-114.762"/>
</g>
<!-- Node3 -->
<g id="node3" class="node"><title>Node3</title>
<g id="a_node3"><a xlink:href="$v0_89_2checksum_8h.html#ab4264eb7b9e22aabb5cc3191bce35f4c" xlink:title="Calculates the X.25 checksum on a byte buffer. ">
<polygon fill="white" stroke="black" points="215,-76.5 215,-95.5 289,-95.5 289,-76.5 215,-76.5"/>
<text text-anchor="middle" x="252" y="-83.5" font-family="Helvetica,sans-Serif" font-size="10.00">crc_calculate</text>
</a>
</g>
</g>
<!-- Node1&#45;&gt;Node3 -->
<g id="edge2" class="edge"><title>Node1&#45;&gt;Node3</title>
<path fill="none" stroke="midnightblue" d="M158.493,-75.7215C174.319,-77.4799 190.467,-79.2741 204.749,-80.861"/>
<polygon fill="midnightblue" stroke="midnightblue" points="204.462,-84.3506 214.788,-81.9764 205.235,-77.3934 204.462,-84.3506"/>
</g>
<!-- Node6 -->
<g id="node6" class="node"><title>Node6</title>
<g id="a_node6"><a xlink:href="$GCS__MAVLink_8h.html#ade2bbc31cd3b5b6d839556f56de61957" xlink:title="crc_accumulate">
<polygon fill="white" stroke="black" points="209,-38.5 209,-57.5 295,-57.5 295,-38.5 209,-38.5"/>
<text text-anchor="middle" x="252" y="-45.5" font-family="Helvetica,sans-Serif" font-size="10.00">crc_accumulate</text>
</a>
</g>
</g>
<!-- Node1&#45;&gt;Node6 -->
<g id="edge5" class="edge"><title>Node1&#45;&gt;Node6</title>
<path fill="none" stroke="midnightblue" d="M158.493,-58.2785C172.211,-56.7544 186.17,-55.2033 198.946,-53.7837"/>
<polygon fill="midnightblue" stroke="midnightblue" points="199.36,-57.2594 208.912,-52.6764 198.587,-50.3023 199.36,-57.2594"/>
</g>
<!-- Node7 -->
<g id="node7" class="node"><title>Node7</title>
<g id="a_node7"><a xlink:href="$v0_89_2checksum_8h.html#a6d6671bf1214f8e859599bce0ce033ff" xlink:title="Accumulate the X.25 CRC by adding an array of bytes. ">
<polygon fill="white" stroke="black" points="194,-0.5 194,-19.5 310,-19.5 310,-0.5 194,-0.5"/>
<text text-anchor="middle" x="252" y="-7.5" font-family="Helvetica,sans-Serif" font-size="10.00">crc_accumulate_buffer</text>
</a>
</g>
</g>
<!-- Node1&#45;&gt;Node7 -->
<g id="edge6" class="edge"><title>Node1&#45;&gt;Node7</title>
<path fill="none" stroke="midnightblue" d="M108.622,-57.4595C137.105,-47.9651 181,-33.3332 212.521,-22.8263"/>
<polygon fill="midnightblue" stroke="midnightblue" points="213.905,-26.0544 222.285,-19.5716 211.691,-19.4136 213.905,-26.0544"/>
</g>
<!-- Node4 -->
<g id="node4" class="node"><title>Node4</title>
<g id="a_node4"><a xlink:href="$v0_89_2checksum_8h.html#aee738f6e20d31b027afdd966c79befae" xlink:title="Initiliaze the buffer for the X.25 CRC. ">
<polygon fill="white" stroke="black" points="365,-76.5 365,-95.5 413,-95.5 413,-76.5 365,-76.5"/>
<text text-anchor="middle" x="389" y="-83.5" font-family="Helvetica,sans-Serif" font-size="10.00">crc_init</text>
</a>
</g>
</g>
<!-- Node3&#45;&gt;Node4 -->
<g id="edge3" class="edge"><title>Node3&#45;&gt;Node4</title>
<path fill="none" stroke="midnightblue" d="M289.178,-86C309.568,-86 334.859,-86 354.751,-86"/>
<polygon fill="midnightblue" stroke="midnightblue" points="354.893,-89.5001 364.893,-86 354.893,-82.5001 354.893,-89.5001"/>
</g>
<!-- Node5 -->
<g id="node5" class="node"><title>Node5</title>
<g id="a_node5"><a xlink:href="$v0_89_2checksum_8h.html#ade2bbc31cd3b5b6d839556f56de61957" xlink:title="Accumulate the X.25 CRC by adding one char at a time. ">
<polygon fill="white" stroke="black" points="346,-19.5 346,-38.5 432,-38.5 432,-19.5 346,-19.5"/>
<text text-anchor="middle" x="389" y="-26.5" font-family="Helvetica,sans-Serif" font-size="10.00">crc_accumulate</text>
</a>
</g>
</g>
<!-- Node3&#45;&gt;Node5 -->
<g id="edge4" class="edge"><title>Node3&#45;&gt;Node5</title>
<path fill="none" stroke="midnightblue" d="M284.036,-76.477C292.537,-73.6468 301.695,-70.3902 310,-67 327.275,-59.9487 346.094,-50.8246 360.918,-43.2844"/>
<polygon fill="midnightblue" stroke="midnightblue" points="362.737,-46.2845 370.027,-38.5958 359.533,-40.0606 362.737,-46.2845"/>
</g>
<!-- Node7&#45;&gt;Node5 -->
<g id="edge7" class="edge"><title>Node7&#45;&gt;Node5</title>
<path fill="none" stroke="midnightblue" d="M310.252,-18.0577C318.733,-19.2513 327.435,-20.4761 335.806,-21.6541"/>
<polygon fill="midnightblue" stroke="midnightblue" points="335.424,-25.1349 345.814,-23.0628 336.4,-18.2032 335.424,-25.1349"/>
</g>
</g>
</svg>
