<?xml version="1.0" encoding="UTF-8" standalone="no"?>
<!DOCTYPE svg PUBLIC "-//W3C//DTD SVG 1.1//EN"
 "http://www.w3.org/Graphics/SVG/1.1/DTD/svg11.dtd">
<!-- Generated by graphviz version 2.36.0 (20140111.2315)
 -->
<!-- Title: mavlink_test_command Pages: 1 -->
<svg width="648pt" height="497pt"
 viewBox="0.00 0.00 648.00 497.00" xmlns="http://www.w3.org/2000/svg" xmlns:xlink="http://www.w3.org/1999/xlink">
<g id="graph0" class="graph" transform="scale(1 1) rotate(0) translate(4 493)">
<title>mavlink_test_command</title>
<polygon fill="white" stroke="none" points="-4,4 -4,-493 644,-493 644,4 -4,4"/>
<!-- Node1 -->
<g id="node1" class="node"><title>Node1</title>
<polygon fill="#bfbfbf" stroke="black" points="0,-199.5 0,-218.5 120,-218.5 120,-199.5 0,-199.5"/>
<text text-anchor="middle" x="60" y="-206.5" font-family="Helvetica,sans-Serif" font-size="10.00">mavlink_test_command</text>
</g>
<!-- Node2 -->
<g id="node2" class="node"><title>Node2</title>
<g id="a_node2"><a xlink:href="$mavlink__msg__command_8h.html#acd0e8f94776ed2b7f3ac0b3e07be96c5" xlink:title="Encode a command struct into a message. ">
<polygon fill="white" stroke="black" points="156,-445 156,-475 278,-475 278,-445 156,-445"/>
<text text-anchor="start" x="164" y="-463" font-family="Helvetica,sans-Serif" font-size="10.00">mavlink_msg_command</text>
<text text-anchor="middle" x="217" y="-452" font-family="Helvetica,sans-Serif" font-size="10.00">_encode</text>
</a>
</g>
</g>
<!-- Node1&#45;&gt;Node2 -->
<g id="edge1" class="edge"><title>Node1&#45;&gt;Node2</title>
<path fill="none" stroke="midnightblue" d="M64.9828,-218.597C76.7991,-246.574 113.498,-329.995 156,-392 167.131,-408.239 181.704,-424.838 193.7,-437.571"/>
<polygon fill="midnightblue" stroke="midnightblue" points="191.337,-440.163 200.783,-444.962 196.391,-435.32 191.337,-440.163"/>
</g>
<!-- Node3 -->
<g id="node3" class="node"><title>Node3</title>
<g id="a_node3"><a xlink:href="$mavlink__msg__command_8h.html#a7d191fd67efb0b305aca21db078afd5e" xlink:title="Pack a command message. ">
<polygon fill="white" stroke="black" points="318.5,-469.5 318.5,-488.5 467.5,-488.5 467.5,-469.5 318.5,-469.5"/>
<text text-anchor="middle" x="393" y="-476.5" font-family="Helvetica,sans-Serif" font-size="10.00">mavlink_msg_command_pack</text>
</a>
</g>
</g>
<!-- Node1&#45;&gt;Node3 -->
<g id="edge13" class="edge"><title>Node1&#45;&gt;Node3</title>
<path fill="none" stroke="midnightblue" d="M69.5416,-218.7C106.576,-260.553 254.086,-425.075 314,-459 318.79,-461.712 323.952,-464.063 329.258,-466.1"/>
<polygon fill="midnightblue" stroke="midnightblue" points="328.32,-469.479 338.914,-469.437 330.606,-462.863 328.32,-469.479"/>
</g>
<!-- Node5 -->
<g id="node5" class="node"><title>Node5</title>
<g id="a_node5"><a xlink:href="$mavlink__msg__command_8h.html#adc181083957bc498a8cbb414b445e7f7" xlink:title="Decode a command message into a struct. ">
<polygon fill="white" stroke="black" points="156,-243 156,-273 278,-273 278,-243 156,-243"/>
<text text-anchor="start" x="164" y="-261" font-family="Helvetica,sans-Serif" font-size="10.00">mavlink_msg_command</text>
<text text-anchor="middle" x="217" y="-250" font-family="Helvetica,sans-Serif" font-size="10.00">_decode</text>
</a>
</g>
</g>
<!-- Node1&#45;&gt;Node5 -->
<g id="edge4" class="edge"><title>Node1&#45;&gt;Node5</title>
<path fill="none" stroke="midnightblue" d="M91.2535,-218.564C110.449,-224.632 135.897,-232.677 158.8,-239.917"/>
<polygon fill="midnightblue" stroke="midnightblue" points="157.844,-243.286 168.434,-242.963 159.954,-236.611 157.844,-243.286"/>
</g>
<!-- Node14 -->
<g id="node14" class="node"><title>Node14</title>
<g id="a_node14"><a xlink:href="$mavlink__msg__command_8h.html#a18bf99ae61541032cf048664dc9c32b0" xlink:title="Pack a command message on a channel. ">
<polygon fill="white" stroke="black" points="156,-194 156,-224 278,-224 278,-194 156,-194"/>
<text text-anchor="start" x="164" y="-212" font-family="Helvetica,sans-Serif" font-size="10.00">mavlink_msg_command</text>
<text text-anchor="middle" x="217" y="-201" font-family="Helvetica,sans-Serif" font-size="10.00">_pack_chan</text>
</a>
</g>
</g>
<!-- Node1&#45;&gt;Node14 -->
<g id="edge14" class="edge"><title>Node1&#45;&gt;Node14</title>
<path fill="none" stroke="midnightblue" d="M120.041,-209C128.465,-209 137.198,-209 145.81,-209"/>
<polygon fill="midnightblue" stroke="midnightblue" points="145.838,-212.5 155.838,-209 145.838,-205.5 145.838,-212.5"/>
</g>
<!-- Node16 -->
<g id="node16" class="node"><title>Node16</title>
<g id="a_node16"><a xlink:href="$v0_89_2mavlink__helpers_8h.html#afea0a9befa84822fd62c2899ea0d849e" xlink:title="Pack a message to send it over a serial byte stream. ">
<polygon fill="white" stroke="black" points="160,-145 160,-175 274,-175 274,-145 160,-145"/>
<text text-anchor="start" x="168" y="-163" font-family="Helvetica,sans-Serif" font-size="10.00">mavlink_msg_to_send</text>
<text text-anchor="middle" x="217" y="-152" font-family="Helvetica,sans-Serif" font-size="10.00">_buffer</text>
</a>
</g>
</g>
<!-- Node1&#45;&gt;Node16 -->
<g id="edge16" class="edge"><title>Node1&#45;&gt;Node16</title>
<path fill="none" stroke="midnightblue" d="M91.2535,-199.436C110.449,-193.368 135.897,-185.323 158.8,-178.083"/>
<polygon fill="midnightblue" stroke="midnightblue" points="159.954,-181.389 168.434,-175.037 157.844,-174.714 159.954,-181.389"/>
</g>
<!-- Node17 -->
<g id="node17" class="node"><title>Node17</title>
<g id="a_node17"><a xlink:href="$v0_89_2protocol_8h.html#aa86c08f27aabb7a2e12a67f189f590c8" xlink:title="Get the required buffer size for this message. ">
<polygon fill="white" stroke="black" points="157.5,-96 157.5,-126 276.5,-126 276.5,-96 157.5,-96"/>
<text text-anchor="start" x="165.5" y="-114" font-family="Helvetica,sans-Serif" font-size="10.00">mavlink_msg_get_send</text>
<text text-anchor="middle" x="217" y="-103" font-family="Helvetica,sans-Serif" font-size="10.00">_buffer_length</text>
</a>
</g>
</g>
<!-- Node1&#45;&gt;Node17 -->
<g id="edge17" class="edge"><title>Node1&#45;&gt;Node17</title>
<path fill="none" stroke="midnightblue" d="M71.4002,-199.277C88.1572,-184.001 122.639,-154.152 156,-135 158.822,-133.38 161.774,-131.819 164.791,-130.325"/>
<polygon fill="midnightblue" stroke="midnightblue" points="166.385,-133.444 173.971,-126.048 163.429,-127.098 166.385,-133.444"/>
</g>
<!-- Node18 -->
<g id="node18" class="node"><title>Node18</title>
<g id="a_node18"><a xlink:href="$GCS__MAVLink_8h.html#ab753873a1ee10adedd0ce246311468f8" xlink:title="comm_send_ch">
<polygon fill="white" stroke="black" points="174,-38.5 174,-57.5 260,-57.5 260,-38.5 174,-38.5"/>
<text text-anchor="middle" x="217" y="-45.5" font-family="Helvetica,sans-Serif" font-size="10.00">comm_send_ch</text>
</a>
</g>
</g>
<!-- Node1&#45;&gt;Node18 -->
<g id="edge18" class="edge"><title>Node1&#45;&gt;Node18</title>
<path fill="none" stroke="midnightblue" d="M66.7192,-199.465C80.2084,-177.519 115.908,-122.523 156,-86 165.658,-77.2015 177.6,-69.1763 188.281,-62.7917"/>
<polygon fill="midnightblue" stroke="midnightblue" points="190.334,-65.6484 197.254,-57.6251 186.841,-59.5822 190.334,-65.6484"/>
</g>
<!-- Node2&#45;&gt;Node3 -->
<g id="edge2" class="edge"><title>Node2&#45;&gt;Node3</title>
<path fill="none" stroke="midnightblue" d="M278.368,-466.592C288.012,-467.645 298.139,-468.751 308.209,-469.85"/>
<polygon fill="midnightblue" stroke="midnightblue" points="307.918,-473.339 318.239,-470.946 308.678,-466.381 307.918,-473.339"/>
</g>
<!-- Node4 -->
<g id="node4" class="node"><title>Node4</title>
<g id="a_node4"><a xlink:href="$v0_89_2mavlink__helpers_8h.html#af3bea083c5ec83f5b6570b2bd4a817d0" xlink:title="Finalize a MAVLink message with MAVLINK_COMM_0 as default channel. ">
<polygon fill="white" stroke="black" points="508.5,-469.5 508.5,-488.5 639.5,-488.5 639.5,-469.5 508.5,-469.5"/>
<text text-anchor="middle" x="574" y="-476.5" font-family="Helvetica,sans-Serif" font-size="10.00">mavlink_finalize_message</text>
</a>
</g>
</g>
<!-- Node3&#45;&gt;Node4 -->
<g id="edge3" class="edge"><title>Node3&#45;&gt;Node4</title>
<path fill="none" stroke="midnightblue" d="M467.581,-479C477.706,-479 488.112,-479 498.257,-479"/>
<polygon fill="midnightblue" stroke="midnightblue" points="498.296,-482.5 508.296,-479 498.296,-475.5 498.296,-482.5"/>
</g>
<!-- Node6 -->
<g id="node6" class="node"><title>Node6</title>
<g id="a_node6"><a xlink:href="$mavlink__msg__command_8h.html#a14fe4882ced7238b29278742ce149248" xlink:title="Send a command message. ">
<polygon fill="white" stroke="black" points="332,-420 332,-450 454,-450 454,-420 332,-420"/>
<text text-anchor="start" x="340" y="-438" font-family="Helvetica,sans-Serif" font-size="10.00">mavlink_msg_command</text>
<text text-anchor="middle" x="393" y="-427" font-family="Helvetica,sans-Serif" font-size="10.00">_get_target_system</text>
</a>
</g>
</g>
<!-- Node5&#45;&gt;Node6 -->
<g id="edge5" class="edge"><title>Node5&#45;&gt;Node6</title>
<path fill="none" stroke="midnightblue" d="M226.716,-273.06C247.926,-309.52 301.414,-400.255 314,-410 316.783,-412.155 319.757,-414.126 322.859,-415.93"/>
<polygon fill="midnightblue" stroke="midnightblue" points="321.395,-419.113 331.887,-420.583 324.601,-412.891 321.395,-419.113"/>
</g>
<!-- Node7 -->
<g id="node7" class="node"><title>Node7</title>
<g id="a_node7"><a xlink:href="$mavlink__msg__command_8h.html#af517e06f4fcfda0702fae3dc3974e2ac" xlink:title="Get field target_component from command message. ">
<polygon fill="white" stroke="black" points="332,-371 332,-401 454,-401 454,-371 332,-371"/>
<text text-anchor="start" x="340" y="-389" font-family="Helvetica,sans-Serif" font-size="10.00">mavlink_msg_command</text>
<text text-anchor="middle" x="393" y="-378" font-family="Helvetica,sans-Serif" font-size="10.00">_get_target_component</text>
</a>
</g>
</g>
<!-- Node5&#45;&gt;Node7 -->
<g id="edge6" class="edge"><title>Node5&#45;&gt;Node7</title>
<path fill="none" stroke="midnightblue" d="M228.271,-273.238C244.12,-295.623 276.64,-337.297 314,-361 317.189,-363.024 320.557,-364.896 324.031,-366.628"/>
<polygon fill="midnightblue" stroke="midnightblue" points="322.874,-369.946 333.427,-370.888 325.764,-363.571 322.874,-369.946"/>
</g>
<!-- Node8 -->
<g id="node8" class="node"><title>Node8</title>
<g id="a_node8"><a xlink:href="$mavlink__msg__command_8h.html#a070cee3471eda69f0805cb8d6fa6fd6a" xlink:title="Get field command from command message. ">
<polygon fill="white" stroke="black" points="332,-322 332,-352 454,-352 454,-322 332,-322"/>
<text text-anchor="start" x="340" y="-340" font-family="Helvetica,sans-Serif" font-size="10.00">mavlink_msg_command</text>
<text text-anchor="middle" x="393" y="-329" font-family="Helvetica,sans-Serif" font-size="10.00">_get_command</text>
</a>
</g>
</g>
<!-- Node5&#45;&gt;Node8 -->
<g id="edge7" class="edge"><title>Node5&#45;&gt;Node8</title>
<path fill="none" stroke="midnightblue" d="M241.767,-273.16C260.783,-284.844 288.409,-300.839 314,-312 319.261,-314.294 324.801,-316.487 330.403,-318.552"/>
<polygon fill="midnightblue" stroke="midnightblue" points="329.254,-321.858 339.848,-321.904 331.595,-315.261 329.254,-321.858"/>
</g>
<!-- Node9 -->
<g id="node9" class="node"><title>Node9</title>
<g id="a_node9"><a xlink:href="$mavlink__msg__command_8h.html#a7591453cbf0a0bac7e8edd848d2b3aab" xlink:title="Get field confirmation from command message. ">
<polygon fill="white" stroke="black" points="332,-273 332,-303 454,-303 454,-273 332,-273"/>
<text text-anchor="start" x="340" y="-291" font-family="Helvetica,sans-Serif" font-size="10.00">mavlink_msg_command</text>
<text text-anchor="middle" x="393" y="-280" font-family="Helvetica,sans-Serif" font-size="10.00">_get_confirmation</text>
</a>
</g>
</g>
<!-- Node5&#45;&gt;Node9 -->
<g id="edge8" class="edge"><title>Node5&#45;&gt;Node9</title>
<path fill="none" stroke="midnightblue" d="M278.368,-268.408C292.405,-270.828 307.464,-273.425 321.881,-275.91"/>
<polygon fill="midnightblue" stroke="midnightblue" points="321.289,-279.36 331.738,-277.61 322.478,-272.462 321.289,-279.36"/>
</g>
<!-- Node10 -->
<g id="node10" class="node"><title>Node10</title>
<g id="a_node10"><a xlink:href="$mavlink__msg__command_8h.html#a2616a3b4c82ee992faf10d2de4bea7e7" xlink:title="Get field param1 from command message. ">
<polygon fill="white" stroke="black" points="332,-224 332,-254 454,-254 454,-224 332,-224"/>
<text text-anchor="start" x="340" y="-242" font-family="Helvetica,sans-Serif" font-size="10.00">mavlink_msg_command</text>
<text text-anchor="middle" x="393" y="-231" font-family="Helvetica,sans-Serif" font-size="10.00">_get_param1</text>
</a>
</g>
</g>
<!-- Node5&#45;&gt;Node10 -->
<g id="edge9" class="edge"><title>Node5&#45;&gt;Node10</title>
<path fill="none" stroke="midnightblue" d="M278.368,-251.408C292.27,-249.89 307.175,-248.263 321.465,-246.702"/>
<polygon fill="midnightblue" stroke="midnightblue" points="322.177,-250.145 331.738,-245.58 321.417,-243.187 322.177,-250.145"/>
</g>
<!-- Node11 -->
<g id="node11" class="node"><title>Node11</title>
<g id="a_node11"><a xlink:href="$mavlink__msg__command_8h.html#aaf0826f65c67332e4f89cd7150265ac6" xlink:title="Get field param2 from command message. ">
<polygon fill="white" stroke="black" points="332,-175 332,-205 454,-205 454,-175 332,-175"/>
<text text-anchor="start" x="340" y="-193" font-family="Helvetica,sans-Serif" font-size="10.00">mavlink_msg_command</text>
<text text-anchor="middle" x="393" y="-182" font-family="Helvetica,sans-Serif" font-size="10.00">_get_param2</text>
</a>
</g>
</g>
<!-- Node5&#45;&gt;Node11 -->
<g id="edge10" class="edge"><title>Node5&#45;&gt;Node11</title>
<path fill="none" stroke="midnightblue" d="M255.678,-242.916C263.13,-239.761 270.854,-236.366 278,-233 294.367,-225.291 297.281,-220.913 314,-214 318.707,-212.054 323.631,-210.181 328.617,-208.399"/>
<polygon fill="midnightblue" stroke="midnightblue" points="329.925,-211.65 338.243,-205.089 327.648,-205.031 329.925,-211.65"/>
</g>
<!-- Node12 -->
<g id="node12" class="node"><title>Node12</title>
<g id="a_node12"><a xlink:href="$mavlink__msg__command_8h.html#a8d8814942a6f6a1f68d98c515be157d0" xlink:title="Get field param3 from command message. ">
<polygon fill="white" stroke="black" points="332,-126 332,-156 454,-156 454,-126 332,-126"/>
<text text-anchor="start" x="340" y="-144" font-family="Helvetica,sans-Serif" font-size="10.00">mavlink_msg_command</text>
<text text-anchor="middle" x="393" y="-133" font-family="Helvetica,sans-Serif" font-size="10.00">_get_param3</text>
</a>
</g>
</g>
<!-- Node5&#45;&gt;Node12 -->
<g id="edge11" class="edge"><title>Node5&#45;&gt;Node12</title>
<path fill="none" stroke="midnightblue" d="M263.929,-242.874C269.001,-240.072 273.831,-236.802 278,-233 303.268,-209.958 287.652,-186.799 314,-165 316.758,-162.718 319.732,-160.653 322.851,-158.784"/>
<polygon fill="midnightblue" stroke="midnightblue" points="324.729,-161.751 331.971,-154.018 321.487,-155.547 324.729,-161.751"/>
</g>
<!-- Node13 -->
<g id="node13" class="node"><title>Node13</title>
<g id="a_node13"><a xlink:href="$mavlink__msg__command_8h.html#a6498fe4f16182e2d51c131527108071c" xlink:title="Get field param4 from command message. ">
<polygon fill="white" stroke="black" points="332,-77 332,-107 454,-107 454,-77 332,-77"/>
<text text-anchor="start" x="340" y="-95" font-family="Helvetica,sans-Serif" font-size="10.00">mavlink_msg_command</text>
<text text-anchor="middle" x="393" y="-84" font-family="Helvetica,sans-Serif" font-size="10.00">_get_param4</text>
</a>
</g>
</g>
<!-- Node5&#45;&gt;Node13 -->
<g id="edge12" class="edge"><title>Node5&#45;&gt;Node13</title>
<path fill="none" stroke="midnightblue" d="M265.84,-242.889C270.338,-240.112 274.51,-236.843 278,-233 314.575,-192.722 275.529,-154.471 314,-116 316.714,-113.286 319.728,-110.877 322.947,-108.74"/>
<polygon fill="midnightblue" stroke="midnightblue" points="324.897,-111.658 331.883,-103.693 321.454,-105.563 324.897,-111.658"/>
</g>
<!-- Node15 -->
<g id="node15" class="node"><title>Node15</title>
<g id="a_node15"><a xlink:href="$v0_89_2mavlink__helpers_8h.html#aa66131138fc02101dcc73b4b556ab422" xlink:title="Finalize a MAVLink message with channel assignment. ">
<polygon fill="white" stroke="black" points="314,-38.5 314,-57.5 472,-57.5 472,-38.5 314,-38.5"/>
<text text-anchor="middle" x="393" y="-45.5" font-family="Helvetica,sans-Serif" font-size="10.00">mavlink_finalize_message_chan</text>
</a>
</g>
</g>
<!-- Node14&#45;&gt;Node15 -->
<g id="edge15" class="edge"><title>Node14&#45;&gt;Node15</title>
<path fill="none" stroke="midnightblue" d="M265.84,-193.889C270.338,-191.112 274.51,-187.843 278,-184 314.575,-143.722 274.401,-104.308 314,-67 315.522,-65.5664 317.133,-64.2355 318.818,-63.0003"/>
<polygon fill="midnightblue" stroke="midnightblue" points="321.031,-65.7523 327.784,-57.5884 317.414,-59.7594 321.031,-65.7523"/>
</g>
<!-- Node19 -->
<g id="node19" class="node"><title>Node19</title>
<g id="a_node19"><a xlink:href="$classAP__HAL_1_1Print.html#acc65391952a43334f8f5c9bef341f501" xlink:title="AP_HAL::Print::write">
<polygon fill="white" stroke="black" points="339,-0.5 339,-19.5 447,-19.5 447,-0.5 339,-0.5"/>
<text text-anchor="middle" x="393" y="-7.5" font-family="Helvetica,sans-Serif" font-size="10.00">AP_HAL::Print::write</text>
</a>
</g>
</g>
<!-- Node18&#45;&gt;Node19 -->
<g id="edge19" class="edge"><title>Node18&#45;&gt;Node19</title>
<path fill="none" stroke="midnightblue" d="M260.121,-38.8013C283.739,-33.6432 313.434,-27.158 338.664,-21.6481"/>
<polygon fill="midnightblue" stroke="midnightblue" points="339.427,-25.064 348.45,-19.5109 337.934,-18.2252 339.427,-25.064"/>
</g>
</g>
</svg>
