<?xml version="1.0" encoding="UTF-8" standalone="no"?>
<!DOCTYPE svg PUBLIC "-//W3C//DTD SVG 1.1//EN"
 "http://www.w3.org/Graphics/SVG/1.1/DTD/svg11.dtd">
<!-- Generated by graphviz version 2.36.0 (20140111.2315)
 -->
<!-- Title: mavlink_msg_digicam_control_get_extra_param Pages: 1 -->
<svg width="752pt" height="77pt"
 viewBox="0.00 0.00 752.00 77.00" xmlns="http://www.w3.org/2000/svg" xmlns:xlink="http://www.w3.org/1999/xlink">
<g id="graph0" class="graph" transform="scale(1 1) rotate(0) translate(4 73)">
<title>mavlink_msg_digicam_control_get_extra_param</title>
<polygon fill="white" stroke="none" points="-4,4 -4,-73 748,-73 748,4 -4,4"/>
<!-- Node1 -->
<g id="node1" class="node"><title>Node1</title>
<polygon fill="#bfbfbf" stroke="black" points="0.5,-22 0.5,-52 129.5,-52 129.5,-22 0.5,-22"/>
<text text-anchor="start" x="8.5" y="-40" font-family="Helvetica,sans-Serif" font-size="10.00">mavlink_msg_digicam</text>
<text text-anchor="middle" x="65" y="-29" font-family="Helvetica,sans-Serif" font-size="10.00">_control_get_extra_param</text>
</g>
<!-- Node2 -->
<g id="node2" class="node"><title>Node2</title>
<g id="a_node2"><a xlink:href="$v0_89_2ardupilotmega_2mavlink__msg__digicam__control_8h.html#a555bdf370d83bb7e910c6bdf7e37ecbc" xlink:title="Decode a digicam_control message into a struct. ">
<polygon fill="white" stroke="black" points="166.5,-22 166.5,-52 279.5,-52 279.5,-22 166.5,-22"/>
<text text-anchor="start" x="174.5" y="-40" font-family="Helvetica,sans-Serif" font-size="10.00">mavlink_msg_digicam</text>
<text text-anchor="middle" x="223" y="-29" font-family="Helvetica,sans-Serif" font-size="10.00">_control_decode</text>
</a>
</g>
</g>
<!-- Node1&#45;&gt;Node2 -->
<g id="edge1" class="edge"><title>Node1&#45;&gt;Node2</title>
<path fill="none" stroke="midnightblue" d="M139.921,-37C148.845,-37 157.84,-37 166.437,-37"/>
<polygon fill="midnightblue" stroke="midnightblue" points="139.901,-33.5001 129.901,-37 139.901,-40.5001 139.901,-33.5001"/>
</g>
<!-- Node3 -->
<g id="node3" class="node"><title>Node3</title>
<g id="a_node3"><a xlink:href="$classAP__Camera.html#a27664cf70d78d5af17d66a3d715048db" xlink:title="decode MavLink that controls camera ">
<polygon fill="white" stroke="black" points="316.5,-49.5 316.5,-68.5 445.5,-68.5 445.5,-49.5 316.5,-49.5"/>
<text text-anchor="middle" x="381" y="-56.5" font-family="Helvetica,sans-Serif" font-size="10.00">AP_Camera::control_msg</text>
</a>
</g>
</g>
<!-- Node2&#45;&gt;Node3 -->
<g id="edge2" class="edge"><title>Node2&#45;&gt;Node3</title>
<path fill="none" stroke="midnightblue" d="M289.985,-46.3056C298.698,-47.5343 307.615,-48.7918 316.288,-50.0149"/>
<polygon fill="midnightblue" stroke="midnightblue" points="290.27,-42.8112 279.879,-44.8804 289.292,-49.7426 290.27,-42.8112"/>
</g>
<!-- Node4 -->
<g id="node4" class="node"><title>Node4</title>
<g id="a_node4"><a xlink:href="$v0_89_2ardupilotmega_2testsuite_8h.html#a854f8e5b733b51170ed61a683de49fad" xlink:title="mavlink_test_digicam\l_control">
<polygon fill="white" stroke="black" points="325.5,-0 325.5,-30 436.5,-30 436.5,-0 325.5,-0"/>
<text text-anchor="start" x="333.5" y="-18" font-family="Helvetica,sans-Serif" font-size="10.00">mavlink_test_digicam</text>
<text text-anchor="middle" x="381" y="-7" font-family="Helvetica,sans-Serif" font-size="10.00">_control</text>
</a>
</g>
</g>
<!-- Node2&#45;&gt;Node4 -->
<g id="edge3" class="edge"><title>Node2&#45;&gt;Node4</title>
<path fill="none" stroke="midnightblue" d="M290.072,-27.6822C301.81,-26.0268 313.917,-24.3194 325.296,-22.7147"/>
<polygon fill="midnightblue" stroke="midnightblue" points="289.292,-24.2574 279.879,-29.1196 290.27,-31.1888 289.292,-24.2574"/>
</g>
<!-- Node5 -->
<g id="node5" class="node"><title>Node5</title>
<g id="a_node5"><a xlink:href="$v0_89_2ardupilotmega_2testsuite_8h.html#ab264d471ac2f46584f2bb580704b5e9d" xlink:title="mavlink_test_ardupilotmega">
<polygon fill="white" stroke="black" points="482,-5.5 482,-24.5 620,-24.5 620,-5.5 482,-5.5"/>
<text text-anchor="middle" x="551" y="-12.5" font-family="Helvetica,sans-Serif" font-size="10.00">mavlink_test_ardupilotmega</text>
</a>
</g>
</g>
<!-- Node4&#45;&gt;Node5 -->
<g id="edge4" class="edge"><title>Node4&#45;&gt;Node5</title>
<path fill="none" stroke="midnightblue" d="M446.56,-15C458.136,-15 470.233,-15 481.905,-15"/>
<polygon fill="midnightblue" stroke="midnightblue" points="446.545,-11.5001 436.545,-15 446.545,-18.5001 446.545,-11.5001"/>
</g>
<!-- Node6 -->
<g id="node6" class="node"><title>Node6</title>
<g id="a_node6"><a xlink:href="$v0_89_2ardupilotmega_2testsuite_8h.html#a4cc77b6c343679298da5d3c2b4e48759" xlink:title="mavlink_test_all">
<polygon fill="white" stroke="black" points="656.5,-5.5 656.5,-24.5 743.5,-24.5 743.5,-5.5 656.5,-5.5"/>
<text text-anchor="middle" x="700" y="-12.5" font-family="Helvetica,sans-Serif" font-size="10.00">mavlink_test_all</text>
</a>
</g>
</g>
<!-- Node5&#45;&gt;Node6 -->
<g id="edge5" class="edge"><title>Node5&#45;&gt;Node6</title>
<path fill="none" stroke="midnightblue" d="M630.438,-15C639.373,-15 648.211,-15 656.42,-15"/>
<polygon fill="midnightblue" stroke="midnightblue" points="630.336,-11.5001 620.336,-15 630.336,-18.5001 630.336,-11.5001"/>
</g>
</g>
</svg>
