<?xml version="1.0" encoding="UTF-8" standalone="no"?>
<!DOCTYPE svg PUBLIC "-//W3C//DTD SVG 1.1//EN"
 "http://www.w3.org/Graphics/SVG/1.1/DTD/svg11.dtd">
<!-- Generated by graphviz version 2.36.0 (20140111.2315)
 -->
<!-- Title: mavlink_msg_optical_flow_pack_chan Pages: 1 -->
<svg width="558pt" height="38pt"
 viewBox="0.00 0.00 558.00 38.00" xmlns="http://www.w3.org/2000/svg" xmlns:xlink="http://www.w3.org/1999/xlink">
<g id="graph0" class="graph" transform="scale(1 1) rotate(0) translate(4 34)">
<title>mavlink_msg_optical_flow_pack_chan</title>
<polygon fill="white" stroke="none" points="-4,4 -4,-34 554,-34 554,4 -4,4"/>
<!-- Node1 -->
<g id="node1" class="node"><title>Node1</title>
<polygon fill="#bfbfbf" stroke="black" points="0,-0 0,-30 108,-30 108,-0 0,-0"/>
<text text-anchor="start" x="8" y="-18" font-family="Helvetica,sans-Serif" font-size="10.00">mavlink_msg_optical</text>
<text text-anchor="middle" x="54" y="-7" font-family="Helvetica,sans-Serif" font-size="10.00">_flow_pack_chan</text>
</g>
<!-- Node2 -->
<g id="node2" class="node"><title>Node2</title>
<g id="a_node2"><a xlink:href="$v0_89_2common_2testsuite_8h.html#a2898f6baf4f0740e7afa781deef35812" xlink:title="mavlink_test_optical_flow">
<polygon fill="white" stroke="black" points="144.5,-5.5 144.5,-24.5 273.5,-24.5 273.5,-5.5 144.5,-5.5"/>
<text text-anchor="middle" x="209" y="-12.5" font-family="Helvetica,sans-Serif" font-size="10.00">mavlink_test_optical_flow</text>
</a>
</g>
</g>
<!-- Node1&#45;&gt;Node2 -->
<g id="edge1" class="edge"><title>Node1&#45;&gt;Node2</title>
<path fill="none" stroke="midnightblue" d="M118.152,-15C126.846,-15 135.777,-15 144.478,-15"/>
<polygon fill="midnightblue" stroke="midnightblue" points="118.083,-11.5001 108.083,-15 118.083,-18.5001 118.083,-11.5001"/>
</g>
<!-- Node3 -->
<g id="node3" class="node"><title>Node3</title>
<g id="a_node3"><a xlink:href="$v0_89_2common_2testsuite_8h.html#af349432601ac003d2c80a69c100c70a4" xlink:title="mavlink_test_common">
<polygon fill="white" stroke="black" points="310.5,-5.5 310.5,-24.5 425.5,-24.5 425.5,-5.5 310.5,-5.5"/>
<text text-anchor="middle" x="368" y="-12.5" font-family="Helvetica,sans-Serif" font-size="10.00">mavlink_test_common</text>
</a>
</g>
</g>
<!-- Node2&#45;&gt;Node3 -->
<g id="edge2" class="edge"><title>Node2&#45;&gt;Node3</title>
<path fill="none" stroke="midnightblue" d="M284.116,-15C292.906,-15 301.77,-15 310.264,-15"/>
<polygon fill="midnightblue" stroke="midnightblue" points="283.858,-11.5001 273.858,-15 283.858,-18.5001 283.858,-11.5001"/>
</g>
<!-- Node4 -->
<g id="node4" class="node"><title>Node4</title>
<g id="a_node4"><a xlink:href="$v0_89_2common_2testsuite_8h.html#a4cc77b6c343679298da5d3c2b4e48759" xlink:title="mavlink_test_all">
<polygon fill="white" stroke="black" points="462.5,-5.5 462.5,-24.5 549.5,-24.5 549.5,-5.5 462.5,-5.5"/>
<text text-anchor="middle" x="506" y="-12.5" font-family="Helvetica,sans-Serif" font-size="10.00">mavlink_test_all</text>
</a>
</g>
</g>
<!-- Node3&#45;&gt;Node4 -->
<g id="edge3" class="edge"><title>Node3&#45;&gt;Node4</title>
<path fill="none" stroke="midnightblue" d="M435.996,-15C444.988,-15 454.003,-15 462.412,-15"/>
<polygon fill="midnightblue" stroke="midnightblue" points="435.888,-11.5001 425.888,-15 435.888,-18.5001 435.888,-11.5001"/>
</g>
</g>
</svg>
