<?xml version="1.0" encoding="UTF-8" standalone="no"?>
<!DOCTYPE svg PUBLIC "-//W3C//DTD SVG 1.1//EN"
 "http://www.w3.org/Graphics/SVG/1.1/DTD/svg11.dtd">
<!-- Generated by graphviz version 2.36.0 (20140111.2315)
 -->
<!-- Title: mavlink_msg_digicam_configure_pack Pages: 1 -->
<svg width="718pt" height="61pt"
 viewBox="0.00 0.00 718.00 61.00" xmlns="http://www.w3.org/2000/svg" xmlns:xlink="http://www.w3.org/1999/xlink">
<g id="graph0" class="graph" transform="scale(1 1) rotate(0) translate(4 57)">
<title>mavlink_msg_digicam_configure_pack</title>
<polygon fill="white" stroke="none" points="-4,4 -4,-57 714,-57 714,4 -4,4"/>
<!-- Node1 -->
<g id="node1" class="node"><title>Node1</title>
<polygon fill="#bfbfbf" stroke="black" points="0.5,-1 0.5,-31 113.5,-31 113.5,-1 0.5,-1"/>
<text text-anchor="start" x="8.5" y="-19" font-family="Helvetica,sans-Serif" font-size="10.00">mavlink_msg_digicam</text>
<text text-anchor="middle" x="57" y="-8" font-family="Helvetica,sans-Serif" font-size="10.00">_configure_pack</text>
</g>
<!-- Node2 -->
<g id="node2" class="node"><title>Node2</title>
<g id="a_node2"><a xlink:href="$v0_89_2ardupilotmega_2mavlink__msg__digicam__configure_8h.html#aaa322ce770ad26e0704d29a2c147a6e0" xlink:title="Encode a digicam_configure struct into a message. ">
<polygon fill="white" stroke="black" points="150.5,-23 150.5,-53 263.5,-53 263.5,-23 150.5,-23"/>
<text text-anchor="start" x="158.5" y="-41" font-family="Helvetica,sans-Serif" font-size="10.00">mavlink_msg_digicam</text>
<text text-anchor="middle" x="207" y="-30" font-family="Helvetica,sans-Serif" font-size="10.00">_configure_encode</text>
</a>
</g>
</g>
<!-- Node1&#45;&gt;Node2 -->
<g id="edge1" class="edge"><title>Node1&#45;&gt;Node2</title>
<path fill="none" stroke="midnightblue" d="M123.481,-25.7337C132.381,-27.0567 141.449,-28.4045 150.158,-29.6992"/>
<polygon fill="midnightblue" stroke="midnightblue" points="123.937,-22.263 113.531,-24.2546 122.907,-29.187 123.937,-22.263"/>
</g>
<!-- Node3 -->
<g id="node3" class="node"><title>Node3</title>
<g id="a_node3"><a xlink:href="$v0_89_2ardupilotmega_2testsuite_8h.html#afad94ced08219d5a61552df157a5fcc8" xlink:title="mavlink_test_digicam\l_configure">
<polygon fill="white" stroke="black" points="300.5,-1 300.5,-31 411.5,-31 411.5,-1 300.5,-1"/>
<text text-anchor="start" x="308.5" y="-19" font-family="Helvetica,sans-Serif" font-size="10.00">mavlink_test_digicam</text>
<text text-anchor="middle" x="356" y="-8" font-family="Helvetica,sans-Serif" font-size="10.00">_configure</text>
</a>
</g>
</g>
<!-- Node1&#45;&gt;Node3 -->
<g id="edge5" class="edge"><title>Node1&#45;&gt;Node3</title>
<path fill="none" stroke="midnightblue" d="M124.096,-14.3903C132.807,-14.2289 141.618,-14.0911 150,-14 200.664,-13.4494 213.336,-13.4433 264,-14 275.693,-14.1285 288.23,-14.3498 300.145,-14.5995"/>
<polygon fill="midnightblue" stroke="midnightblue" points="123.876,-10.8939 113.946,-14.5894 124.013,-17.8926 123.876,-10.8939"/>
</g>
<!-- Node2&#45;&gt;Node3 -->
<g id="edge2" class="edge"><title>Node2&#45;&gt;Node3</title>
<path fill="none" stroke="midnightblue" d="M273.57,-28.1868C282.508,-26.8492 291.604,-25.4878 300.321,-24.1832"/>
<polygon fill="midnightblue" stroke="midnightblue" points="272.946,-24.7411 263.574,-29.6827 273.982,-31.664 272.946,-24.7411"/>
</g>
<!-- Node4 -->
<g id="node4" class="node"><title>Node4</title>
<g id="a_node4"><a xlink:href="$v0_89_2ardupilotmega_2testsuite_8h.html#ab264d471ac2f46584f2bb580704b5e9d" xlink:title="mavlink_test_ardupilotmega">
<polygon fill="white" stroke="black" points="448,-6.5 448,-25.5 586,-25.5 586,-6.5 448,-6.5"/>
<text text-anchor="middle" x="517" y="-13.5" font-family="Helvetica,sans-Serif" font-size="10.00">mavlink_test_ardupilotmega</text>
</a>
</g>
</g>
<!-- Node3&#45;&gt;Node4 -->
<g id="edge3" class="edge"><title>Node3&#45;&gt;Node4</title>
<path fill="none" stroke="midnightblue" d="M421.734,-16C430.383,-16 439.273,-16 447.975,-16"/>
<polygon fill="midnightblue" stroke="midnightblue" points="421.719,-12.5001 411.719,-16 421.719,-19.5001 421.719,-12.5001"/>
</g>
<!-- Node5 -->
<g id="node5" class="node"><title>Node5</title>
<g id="a_node5"><a xlink:href="$v0_89_2ardupilotmega_2testsuite_8h.html#a4cc77b6c343679298da5d3c2b4e48759" xlink:title="mavlink_test_all">
<polygon fill="white" stroke="black" points="622.5,-6.5 622.5,-25.5 709.5,-25.5 709.5,-6.5 622.5,-6.5"/>
<text text-anchor="middle" x="666" y="-13.5" font-family="Helvetica,sans-Serif" font-size="10.00">mavlink_test_all</text>
</a>
</g>
</g>
<!-- Node4&#45;&gt;Node5 -->
<g id="edge4" class="edge"><title>Node4&#45;&gt;Node5</title>
<path fill="none" stroke="midnightblue" d="M596.438,-16C605.373,-16 614.211,-16 622.42,-16"/>
<polygon fill="midnightblue" stroke="midnightblue" points="596.336,-12.5001 586.336,-16 596.336,-19.5001 596.336,-12.5001"/>
</g>
</g>
</svg>
