<?xml version="1.0" encoding="UTF-8" standalone="no"?>
<!DOCTYPE svg PUBLIC "-//W3C//DTD SVG 1.1//EN"
 "http://www.w3.org/Graphics/SVG/1.1/DTD/svg11.dtd">
<!-- Generated by graphviz version 2.36.0 (20140111.2315)
 -->
<!-- Title: mavlink_get_channel_buffer Pages: 1 -->
<svg width="488pt" height="104pt"
 viewBox="0.00 0.00 488.00 104.00" xmlns="http://www.w3.org/2000/svg" xmlns:xlink="http://www.w3.org/1999/xlink">
<g id="graph0" class="graph" transform="scale(1 1) rotate(0) translate(4 100)">
<title>mavlink_get_channel_buffer</title>
<polygon fill="white" stroke="none" points="-4,4 -4,-100 484,-100 484,4 -4,4"/>
<!-- Node1 -->
<g id="node1" class="node"><title>Node1</title>
<polygon fill="#bfbfbf" stroke="black" points="0,-52 0,-82 108,-82 108,-52 0,-52"/>
<text text-anchor="start" x="8" y="-70" font-family="Helvetica,sans-Serif" font-size="10.00">mavlink_get_channel</text>
<text text-anchor="middle" x="54" y="-59" font-family="Helvetica,sans-Serif" font-size="10.00">_buffer</text>
</g>
<!-- Node2 -->
<g id="node2" class="node"><title>Node2</title>
<g id="a_node2"><a xlink:href="$v1_80_2mavlink__helpers_8h.html#ab9ea03db8cd45ce94b64b508b087ebe6" xlink:title="mavlink_frame_char">
<polygon fill="white" stroke="black" points="144,-76.5 144,-95.5 248,-95.5 248,-76.5 144,-76.5"/>
<text text-anchor="middle" x="196" y="-83.5" font-family="Helvetica,sans-Serif" font-size="10.00">mavlink_frame_char</text>
</a>
</g>
</g>
<!-- Node1&#45;&gt;Node2 -->
<g id="edge1" class="edge"><title>Node1&#45;&gt;Node2</title>
<path fill="none" stroke="midnightblue" d="M118.508,-75.619C126.933,-76.7623 135.485,-77.9229 143.669,-79.0336"/>
<polygon fill="midnightblue" stroke="midnightblue" points="118.707,-72.114 108.327,-74.2373 117.766,-79.0504 118.707,-72.114"/>
</g>
<!-- Node4 -->
<g id="node4" class="node"><title>Node4</title>
<g id="a_node4"><a xlink:href="$v0_89_2protocol_8h.html#ad91e8323cefc65965574c09e72365d7d" xlink:title="mavlink_parse_char">
<polygon fill="white" stroke="black" points="144,-38.5 144,-57.5 248,-57.5 248,-38.5 144,-38.5"/>
<text text-anchor="middle" x="196" y="-45.5" font-family="Helvetica,sans-Serif" font-size="10.00">mavlink_parse_char</text>
</a>
</g>
</g>
<!-- Node1&#45;&gt;Node4 -->
<g id="edge3" class="edge"><title>Node1&#45;&gt;Node4</title>
<path fill="none" stroke="midnightblue" d="M118.508,-58.381C126.933,-57.2377 135.485,-56.0771 143.669,-54.9664"/>
<polygon fill="midnightblue" stroke="midnightblue" points="117.766,-54.9496 108.327,-59.7627 118.707,-61.886 117.766,-54.9496"/>
</g>
<!-- Node3 -->
<g id="node3" class="node"><title>Node3</title>
<g id="a_node3"><a xlink:href="$v1_80_2mavlink__helpers_8h.html#ad91e8323cefc65965574c09e72365d7d" xlink:title="mavlink_parse_char">
<polygon fill="white" stroke="black" points="294,-76.5 294,-95.5 398,-95.5 398,-76.5 294,-76.5"/>
<text text-anchor="middle" x="346" y="-83.5" font-family="Helvetica,sans-Serif" font-size="10.00">mavlink_parse_char</text>
</a>
</g>
</g>
<!-- Node2&#45;&gt;Node3 -->
<g id="edge2" class="edge"><title>Node2&#45;&gt;Node3</title>
<path fill="none" stroke="midnightblue" d="M258.507,-86C270.23,-86 282.382,-86 293.743,-86"/>
<polygon fill="midnightblue" stroke="midnightblue" points="258.348,-82.5001 248.348,-86 258.348,-89.5001 258.348,-82.5001"/>
</g>
<!-- Node5 -->
<g id="node5" class="node"><title>Node5</title>
<g id="a_node5"><a xlink:href="$simplegcs_8h.html#a0e026fc9b23210373846b25cc141486d" xlink:title="simplegcs_update">
<polygon fill="white" stroke="black" points="298.5,-38.5 298.5,-57.5 393.5,-57.5 393.5,-38.5 298.5,-38.5"/>
<text text-anchor="middle" x="346" y="-45.5" font-family="Helvetica,sans-Serif" font-size="10.00">simplegcs_update</text>
</a>
</g>
</g>
<!-- Node4&#45;&gt;Node5 -->
<g id="edge4" class="edge"><title>Node4&#45;&gt;Node5</title>
<path fill="none" stroke="midnightblue" d="M258.386,-48C271.695,-48 285.565,-48 298.205,-48"/>
<polygon fill="midnightblue" stroke="midnightblue" points="258.348,-44.5001 248.348,-48 258.348,-51.5001 258.348,-44.5001"/>
</g>
<!-- Node7 -->
<g id="node7" class="node"><title>Node7</title>
<g id="a_node7"><a xlink:href="$classGCS__MAVLINK.html#a7d8788ed53976a200971612229fe2533" xlink:title="GCS_MAVLINK::update">
<polygon fill="white" stroke="black" points="284.5,-0.5 284.5,-19.5 407.5,-19.5 407.5,-0.5 284.5,-0.5"/>
<text text-anchor="middle" x="346" y="-7.5" font-family="Helvetica,sans-Serif" font-size="10.00">GCS_MAVLINK::update</text>
</a>
</g>
</g>
<!-- Node4&#45;&gt;Node7 -->
<g id="edge6" class="edge"><title>Node4&#45;&gt;Node7</title>
<path fill="none" stroke="midnightblue" d="M244.173,-35.8879C264.786,-30.5956 288.609,-24.4787 307.922,-19.5201"/>
<polygon fill="midnightblue" stroke="midnightblue" points="243.162,-32.534 234.347,-38.411 244.903,-39.3141 243.162,-32.534"/>
</g>
<!-- Node6 -->
<g id="node6" class="node"><title>Node6</title>
<g id="a_node6"><a xlink:href="$GCS__Console_2examples_2Console_2Console_8pde.html#a0b33edabd7f1c4e4a0bf32c67269be2f" xlink:title="loop">
<polygon fill="white" stroke="black" points="444.5,-38.5 444.5,-57.5 479.5,-57.5 479.5,-38.5 444.5,-38.5"/>
<text text-anchor="middle" x="462" y="-45.5" font-family="Helvetica,sans-Serif" font-size="10.00">loop</text>
</a>
</g>
</g>
<!-- Node5&#45;&gt;Node6 -->
<g id="edge5" class="edge"><title>Node5&#45;&gt;Node6</title>
<path fill="none" stroke="midnightblue" d="M403.896,-48C418.702,-48 433.517,-48 444.345,-48"/>
<polygon fill="midnightblue" stroke="midnightblue" points="403.697,-44.5001 393.697,-48 403.697,-51.5001 403.697,-44.5001"/>
</g>
</g>
</svg>
