<?xml version="1.0" encoding="UTF-8" standalone="no"?>
<!DOCTYPE svg PUBLIC "-//W3C//DTD SVG 1.1//EN"
 "http://www.w3.org/Graphics/SVG/1.1/DTD/svg11.dtd">
<!-- Generated by graphviz version 2.36.0 (20140111.2315)
 -->
<!-- Title: mavlink_test_roll_pitch_yaw_speed_thrust_setpoint Pages: 1 -->
<svg width="700pt" height="414pt"
 viewBox="0.00 0.00 700.00 414.00" xmlns="http://www.w3.org/2000/svg" xmlns:xlink="http://www.w3.org/1999/xlink">
<g id="graph0" class="graph" transform="scale(1 1) rotate(0) translate(4 410)">
<title>mavlink_test_roll_pitch_yaw_speed_thrust_setpoint</title>
<polygon fill="white" stroke="none" points="-4,4 -4,-410 696,-410 696,4 -4,4"/>
<!-- Node1 -->
<g id="node1" class="node"><title>Node1</title>
<polygon fill="#bfbfbf" stroke="black" points="0.5,-142 0.5,-172 141.5,-172 141.5,-142 0.5,-142"/>
<text text-anchor="start" x="8.5" y="-160" font-family="Helvetica,sans-Serif" font-size="10.00">mavlink_test_roll_pitch</text>
<text text-anchor="middle" x="71" y="-149" font-family="Helvetica,sans-Serif" font-size="10.00">_yaw_speed_thrust_setpoint</text>
</g>
<!-- Node2 -->
<g id="node2" class="node"><title>Node2</title>
<g id="a_node2"><a xlink:href="$mavlink__msg__roll__pitch__yaw__speed__thrust__setpoint_8h.html#ae6dadd3cb5099e42aa0962c082808546" xlink:title="Encode a roll_pitch_yaw_speed_thrust_setpoint struct into a message. ">
<polygon fill="white" stroke="black" points="178.5,-351.5 178.5,-392.5 319.5,-392.5 319.5,-351.5 178.5,-351.5"/>
<text text-anchor="start" x="186.5" y="-380.5" font-family="Helvetica,sans-Serif" font-size="10.00">mavlink_msg_roll_pitch</text>
<text text-anchor="start" x="186.5" y="-369.5" font-family="Helvetica,sans-Serif" font-size="10.00">_yaw_speed_thrust_setpoint</text>
<text text-anchor="middle" x="249" y="-358.5" font-family="Helvetica,sans-Serif" font-size="10.00">_encode</text>
</a>
</g>
</g>
<!-- Node1&#45;&gt;Node2 -->
<g id="edge1" class="edge"><title>Node1&#45;&gt;Node2</title>
<path fill="none" stroke="midnightblue" d="M79.8704,-172.381C95.7372,-202.488 133.842,-270.407 178,-318 187.061,-327.766 198.025,-337.117 208.559,-345.212"/>
<polygon fill="midnightblue" stroke="midnightblue" points="206.764,-348.24 216.871,-351.419 210.953,-342.631 206.764,-348.24"/>
</g>
<!-- Node3 -->
<g id="node3" class="node"><title>Node3</title>
<g id="a_node3"><a xlink:href="$mavlink__msg__roll__pitch__yaw__speed__thrust__setpoint_8h.html#af1b51b6be4c31be3485759095e3c3b03" xlink:title="Pack a roll_pitch_yaw_speed_thrust_setpoint message. ">
<polygon fill="white" stroke="black" points="356.5,-376 356.5,-406 523.5,-406 523.5,-376 356.5,-376"/>
<text text-anchor="start" x="364.5" y="-394" font-family="Helvetica,sans-Serif" font-size="10.00">mavlink_msg_roll_pitch</text>
<text text-anchor="middle" x="440" y="-383" font-family="Helvetica,sans-Serif" font-size="10.00">_yaw_speed_thrust_setpoint_pack</text>
</a>
</g>
</g>
<!-- Node1&#45;&gt;Node3 -->
<g id="edge10" class="edge"><title>Node1&#45;&gt;Node3</title>
<path fill="none" stroke="midnightblue" d="M88.8052,-172.06C109.337,-190.235 145.377,-221.415 178,-246 180.381,-247.794 353.306,-364.722 356,-366 360.929,-368.338 366.126,-370.515 371.417,-372.53"/>
<polygon fill="midnightblue" stroke="midnightblue" points="370.41,-375.887 381.004,-375.981 372.781,-369.301 370.41,-375.887"/>
</g>
<!-- Node5 -->
<g id="node5" class="node"><title>Node5</title>
<g id="a_node5"><a xlink:href="$mavlink__msg__roll__pitch__yaw__speed__thrust__setpoint_8h.html#aabfbf36390997810779bba8b934b70cb" xlink:title="Decode a roll_pitch_yaw_speed_thrust_setpoint message into a struct. ">
<polygon fill="white" stroke="black" points="178.5,-196.5 178.5,-237.5 319.5,-237.5 319.5,-196.5 178.5,-196.5"/>
<text text-anchor="start" x="186.5" y="-225.5" font-family="Helvetica,sans-Serif" font-size="10.00">mavlink_msg_roll_pitch</text>
<text text-anchor="start" x="186.5" y="-214.5" font-family="Helvetica,sans-Serif" font-size="10.00">_yaw_speed_thrust_setpoint</text>
<text text-anchor="middle" x="249" y="-203.5" font-family="Helvetica,sans-Serif" font-size="10.00">_decode</text>
</a>
</g>
</g>
<!-- Node1&#45;&gt;Node5 -->
<g id="edge4" class="edge"><title>Node1&#45;&gt;Node5</title>
<path fill="none" stroke="midnightblue" d="M116.412,-172.141C135.049,-178.494 157.176,-186.037 177.916,-193.108"/>
<polygon fill="midnightblue" stroke="midnightblue" points="177.052,-196.511 187.646,-196.425 179.311,-189.885 177.052,-196.511"/>
</g>
<!-- Node11 -->
<g id="node11" class="node"><title>Node11</title>
<g id="a_node11"><a xlink:href="$mavlink__msg__roll__pitch__yaw__speed__thrust__setpoint_8h.html#a216b9ae2435b69b540a0aa1481b2d70b" xlink:title="Pack a roll_pitch_yaw_speed_thrust_setpoint message on a channel. ">
<polygon fill="white" stroke="black" points="178.5,-136.5 178.5,-177.5 319.5,-177.5 319.5,-136.5 178.5,-136.5"/>
<text text-anchor="start" x="186.5" y="-165.5" font-family="Helvetica,sans-Serif" font-size="10.00">mavlink_msg_roll_pitch</text>
<text text-anchor="start" x="186.5" y="-154.5" font-family="Helvetica,sans-Serif" font-size="10.00">_yaw_speed_thrust_setpoint</text>
<text text-anchor="middle" x="249" y="-143.5" font-family="Helvetica,sans-Serif" font-size="10.00">_pack_chan</text>
</a>
</g>
</g>
<!-- Node1&#45;&gt;Node11 -->
<g id="edge11" class="edge"><title>Node1&#45;&gt;Node11</title>
<path fill="none" stroke="midnightblue" d="M141.56,-157C150.356,-157 159.41,-157 168.347,-157"/>
<polygon fill="midnightblue" stroke="midnightblue" points="168.369,-160.5 178.369,-157 168.369,-153.5 168.369,-160.5"/>
</g>
<!-- Node13 -->
<g id="node13" class="node"><title>Node13</title>
<g id="a_node13"><a xlink:href="$v0_89_2mavlink__helpers_8h.html#afea0a9befa84822fd62c2899ea0d849e" xlink:title="Pack a message to send it over a serial byte stream. ">
<polygon fill="white" stroke="black" points="192,-88 192,-118 306,-118 306,-88 192,-88"/>
<text text-anchor="start" x="200" y="-106" font-family="Helvetica,sans-Serif" font-size="10.00">mavlink_msg_to_send</text>
<text text-anchor="middle" x="249" y="-95" font-family="Helvetica,sans-Serif" font-size="10.00">_buffer</text>
</a>
</g>
</g>
<!-- Node1&#45;&gt;Node13 -->
<g id="edge13" class="edge"><title>Node1&#45;&gt;Node13</title>
<path fill="none" stroke="midnightblue" d="M121.026,-141.958C142.202,-135.461 167.15,-127.806 189.303,-121.009"/>
<polygon fill="midnightblue" stroke="midnightblue" points="190.399,-124.334 198.932,-118.055 188.345,-117.642 190.399,-124.334"/>
</g>
<!-- Node14 -->
<g id="node14" class="node"><title>Node14</title>
<g id="a_node14"><a xlink:href="$v0_89_2protocol_8h.html#aa86c08f27aabb7a2e12a67f189f590c8" xlink:title="Get the required buffer size for this message. ">
<polygon fill="white" stroke="black" points="189.5,-39 189.5,-69 308.5,-69 308.5,-39 189.5,-39"/>
<text text-anchor="start" x="197.5" y="-57" font-family="Helvetica,sans-Serif" font-size="10.00">mavlink_msg_get_send</text>
<text text-anchor="middle" x="249" y="-46" font-family="Helvetica,sans-Serif" font-size="10.00">_buffer_length</text>
</a>
</g>
</g>
<!-- Node1&#45;&gt;Node14 -->
<g id="edge14" class="edge"><title>Node1&#45;&gt;Node14</title>
<path fill="none" stroke="midnightblue" d="M88.8751,-141.79C108.903,-124.39 143.895,-95.9895 178,-78 181.32,-76.2487 184.794,-74.5845 188.344,-73.0103"/>
<polygon fill="midnightblue" stroke="midnightblue" points="189.971,-76.1245 197.863,-69.0558 187.286,-69.6601 189.971,-76.1245"/>
</g>
<!-- Node15 -->
<g id="node15" class="node"><title>Node15</title>
<g id="a_node15"><a xlink:href="$GCS__MAVLink_8h.html#ab753873a1ee10adedd0ce246311468f8" xlink:title="comm_send_ch">
<polygon fill="white" stroke="black" points="206,-0.5 206,-19.5 292,-19.5 292,-0.5 206,-0.5"/>
<text text-anchor="middle" x="249" y="-7.5" font-family="Helvetica,sans-Serif" font-size="10.00">comm_send_ch</text>
</a>
</g>
</g>
<!-- Node1&#45;&gt;Node15 -->
<g id="edge15" class="edge"><title>Node1&#45;&gt;Node15</title>
<path fill="none" stroke="midnightblue" d="M80.313,-141.782C95.8448,-114.811 131.909,-58.6794 178,-29 183.62,-25.3814 189.918,-22.4466 196.372,-20.0675"/>
<polygon fill="midnightblue" stroke="midnightblue" points="197.459,-23.3947 205.879,-16.9647 195.287,-16.7402 197.459,-23.3947"/>
</g>
<!-- Node2&#45;&gt;Node3 -->
<g id="edge2" class="edge"><title>Node2&#45;&gt;Node3</title>
<path fill="none" stroke="midnightblue" d="M319.571,-378.994C328.289,-379.87 337.312,-380.777 346.313,-381.682"/>
<polygon fill="midnightblue" stroke="midnightblue" points="346.149,-385.183 356.449,-382.701 346.849,-378.218 346.149,-385.183"/>
</g>
<!-- Node4 -->
<g id="node4" class="node"><title>Node4</title>
<g id="a_node4"><a xlink:href="$v0_89_2mavlink__helpers_8h.html#af3bea083c5ec83f5b6570b2bd4a817d0" xlink:title="Finalize a MAVLink message with MAVLINK_COMM_0 as default channel. ">
<polygon fill="white" stroke="black" points="560.5,-381.5 560.5,-400.5 691.5,-400.5 691.5,-381.5 560.5,-381.5"/>
<text text-anchor="middle" x="626" y="-388.5" font-family="Helvetica,sans-Serif" font-size="10.00">mavlink_finalize_message</text>
</a>
</g>
</g>
<!-- Node3&#45;&gt;Node4 -->
<g id="edge3" class="edge"><title>Node3&#45;&gt;Node4</title>
<path fill="none" stroke="midnightblue" d="M523.581,-391C532.439,-391 541.415,-391 550.175,-391"/>
<polygon fill="midnightblue" stroke="midnightblue" points="550.34,-394.5 560.34,-391 550.34,-387.5 550.34,-394.5"/>
</g>
<!-- Node6 -->
<g id="node6" class="node"><title>Node6</title>
<g id="a_node6"><a xlink:href="$mavlink__msg__roll__pitch__yaw__speed__thrust__setpoint_8h.html#ad820b24b3453fbe76d7ef2505f72afdb" xlink:title="Send a roll_pitch_yaw_speed_thrust_setpoint message. ">
<polygon fill="white" stroke="black" points="369.5,-316.5 369.5,-357.5 510.5,-357.5 510.5,-316.5 369.5,-316.5"/>
<text text-anchor="start" x="377.5" y="-345.5" font-family="Helvetica,sans-Serif" font-size="10.00">mavlink_msg_roll_pitch</text>
<text text-anchor="start" x="377.5" y="-334.5" font-family="Helvetica,sans-Serif" font-size="10.00">_yaw_speed_thrust_setpoint</text>
<text text-anchor="middle" x="440" y="-323.5" font-family="Helvetica,sans-Serif" font-size="10.00">_get_time_us</text>
</a>
</g>
</g>
<!-- Node5&#45;&gt;Node6 -->
<g id="edge5" class="edge"><title>Node5&#45;&gt;Node6</title>
<path fill="none" stroke="midnightblue" d="M270.29,-237.734C290.512,-257.455 323.203,-286.874 356,-306 359.662,-308.136 363.498,-310.171 367.428,-312.103"/>
<polygon fill="midnightblue" stroke="midnightblue" points="366.185,-315.384 376.729,-316.42 369.132,-309.035 366.185,-315.384"/>
</g>
<!-- Node7 -->
<g id="node7" class="node"><title>Node7</title>
<g id="a_node7"><a xlink:href="$mavlink__msg__roll__pitch__yaw__speed__thrust__setpoint_8h.html#ae4de8e78ea372bae9443231388e7c27c" xlink:title="Get field roll_speed from roll_pitch_yaw_speed_thrust_setpoint message. ">
<polygon fill="white" stroke="black" points="369.5,-256.5 369.5,-297.5 510.5,-297.5 510.5,-256.5 369.5,-256.5"/>
<text text-anchor="start" x="377.5" y="-285.5" font-family="Helvetica,sans-Serif" font-size="10.00">mavlink_msg_roll_pitch</text>
<text text-anchor="start" x="377.5" y="-274.5" font-family="Helvetica,sans-Serif" font-size="10.00">_yaw_speed_thrust_setpoint</text>
<text text-anchor="middle" x="440" y="-263.5" font-family="Helvetica,sans-Serif" font-size="10.00">_get_roll_speed</text>
</a>
</g>
</g>
<!-- Node5&#45;&gt;Node7 -->
<g id="edge6" class="edge"><title>Node5&#45;&gt;Node7</title>
<path fill="none" stroke="midnightblue" d="M314.779,-237.565C330.858,-242.669 348.215,-248.179 364.71,-253.416"/>
<polygon fill="midnightblue" stroke="midnightblue" points="363.716,-256.772 374.306,-256.462 365.834,-250.1 363.716,-256.772"/>
</g>
<!-- Node8 -->
<g id="node8" class="node"><title>Node8</title>
<g id="a_node8"><a xlink:href="$mavlink__msg__roll__pitch__yaw__speed__thrust__setpoint_8h.html#aee8d4d0aa23291e0728676f6012e5379" xlink:title="Get field pitch_speed from roll_pitch_yaw_speed_thrust_setpoint message. ">
<polygon fill="white" stroke="black" points="369.5,-196.5 369.5,-237.5 510.5,-237.5 510.5,-196.5 369.5,-196.5"/>
<text text-anchor="start" x="377.5" y="-225.5" font-family="Helvetica,sans-Serif" font-size="10.00">mavlink_msg_roll_pitch</text>
<text text-anchor="start" x="377.5" y="-214.5" font-family="Helvetica,sans-Serif" font-size="10.00">_yaw_speed_thrust_setpoint</text>
<text text-anchor="middle" x="440" y="-203.5" font-family="Helvetica,sans-Serif" font-size="10.00">_get_pitch_speed</text>
</a>
</g>
</g>
<!-- Node5&#45;&gt;Node8 -->
<g id="edge7" class="edge"><title>Node5&#45;&gt;Node8</title>
<path fill="none" stroke="midnightblue" d="M319.571,-217C332.361,-217 345.808,-217 358.878,-217"/>
<polygon fill="midnightblue" stroke="midnightblue" points="359.26,-220.5 369.26,-217 359.26,-213.5 359.26,-220.5"/>
</g>
<!-- Node9 -->
<g id="node9" class="node"><title>Node9</title>
<g id="a_node9"><a xlink:href="$mavlink__msg__roll__pitch__yaw__speed__thrust__setpoint_8h.html#aa78908cfc8156a98fa7e53c981d4b94c" xlink:title="Get field yaw_speed from roll_pitch_yaw_speed_thrust_setpoint message. ">
<polygon fill="white" stroke="black" points="369.5,-136.5 369.5,-177.5 510.5,-177.5 510.5,-136.5 369.5,-136.5"/>
<text text-anchor="start" x="377.5" y="-165.5" font-family="Helvetica,sans-Serif" font-size="10.00">mavlink_msg_roll_pitch</text>
<text text-anchor="start" x="377.5" y="-154.5" font-family="Helvetica,sans-Serif" font-size="10.00">_yaw_speed_thrust_setpoint</text>
<text text-anchor="middle" x="440" y="-143.5" font-family="Helvetica,sans-Serif" font-size="10.00">_get_yaw_speed</text>
</a>
</g>
</g>
<!-- Node5&#45;&gt;Node9 -->
<g id="edge8" class="edge"><title>Node5&#45;&gt;Node9</title>
<path fill="none" stroke="midnightblue" d="M314.779,-196.435C330.858,-191.331 348.215,-185.821 364.71,-180.584"/>
<polygon fill="midnightblue" stroke="midnightblue" points="365.834,-183.9 374.306,-177.538 363.716,-177.228 365.834,-183.9"/>
</g>
<!-- Node10 -->
<g id="node10" class="node"><title>Node10</title>
<g id="a_node10"><a xlink:href="$mavlink__msg__roll__pitch__yaw__speed__thrust__setpoint_8h.html#aea59c5c646dd9ec854cb241ac357cac1" xlink:title="Get field thrust from roll_pitch_yaw_speed_thrust_setpoint message. ">
<polygon fill="white" stroke="black" points="369.5,-76.5 369.5,-117.5 510.5,-117.5 510.5,-76.5 369.5,-76.5"/>
<text text-anchor="start" x="377.5" y="-105.5" font-family="Helvetica,sans-Serif" font-size="10.00">mavlink_msg_roll_pitch</text>
<text text-anchor="start" x="377.5" y="-94.5" font-family="Helvetica,sans-Serif" font-size="10.00">_yaw_speed_thrust_setpoint</text>
<text text-anchor="middle" x="440" y="-83.5" font-family="Helvetica,sans-Serif" font-size="10.00">_get_thrust</text>
</a>
</g>
</g>
<!-- Node5&#45;&gt;Node10 -->
<g id="edge9" class="edge"><title>Node5&#45;&gt;Node10</title>
<path fill="none" stroke="midnightblue" d="M305.461,-196.365C310.65,-193.302 315.603,-189.856 320,-186 343.096,-165.747 332.209,-146.432 356,-127 357.736,-125.582 359.544,-124.229 361.41,-122.937"/>
<polygon fill="midnightblue" stroke="midnightblue" points="363.273,-125.9 369.928,-117.656 359.584,-119.951 363.273,-125.9"/>
</g>
<!-- Node12 -->
<g id="node12" class="node"><title>Node12</title>
<g id="a_node12"><a xlink:href="$v0_89_2mavlink__helpers_8h.html#aa66131138fc02101dcc73b4b556ab422" xlink:title="Finalize a MAVLink message with channel assignment. ">
<polygon fill="white" stroke="black" points="361,-38.5 361,-57.5 519,-57.5 519,-38.5 361,-38.5"/>
<text text-anchor="middle" x="440" y="-45.5" font-family="Helvetica,sans-Serif" font-size="10.00">mavlink_finalize_message_chan</text>
</a>
</g>
</g>
<!-- Node11&#45;&gt;Node12 -->
<g id="edge12" class="edge"><title>Node11&#45;&gt;Node12</title>
<path fill="none" stroke="midnightblue" d="M306.898,-136.396C311.567,-133.601 316.016,-130.478 320,-127 343.428,-106.55 330.83,-85.2638 356,-67 358.55,-65.1497 361.251,-63.4759 364.059,-61.9618"/>
<polygon fill="midnightblue" stroke="midnightblue" points="365.748,-65.0365 373.344,-57.6501 362.8,-58.6877 365.748,-65.0365"/>
</g>
<!-- Node16 -->
<g id="node16" class="node"><title>Node16</title>
<g id="a_node16"><a xlink:href="$classAP__HAL_1_1Print.html#acc65391952a43334f8f5c9bef341f501" xlink:title="AP_HAL::Print::write">
<polygon fill="white" stroke="black" points="386,-0.5 386,-19.5 494,-19.5 494,-0.5 386,-0.5"/>
<text text-anchor="middle" x="440" y="-7.5" font-family="Helvetica,sans-Serif" font-size="10.00">AP_HAL::Print::write</text>
</a>
</g>
</g>
<!-- Node15&#45;&gt;Node16 -->
<g id="edge16" class="edge"><title>Node15&#45;&gt;Node16</title>
<path fill="none" stroke="midnightblue" d="M292.415,-10C316.928,-10 348.24,-10 375.626,-10"/>
<polygon fill="midnightblue" stroke="midnightblue" points="375.907,-13.5001 385.907,-10 375.907,-6.5001 375.907,-13.5001"/>
</g>
</g>
</svg>
