<?xml version="1.0" encoding="UTF-8" standalone="no"?>
<!DOCTYPE svg PUBLIC "-//W3C//DTD SVG 1.1//EN"
 "http://www.w3.org/Graphics/SVG/1.1/DTD/svg11.dtd">
<!-- Generated by graphviz version 2.36.0 (20140111.2315)
 -->
<!-- Title: mavlink_msg_digicam_configure_get_engine_cut_off Pages: 1 -->
<svg width="718pt" height="48pt"
 viewBox="0.00 0.00 718.00 48.00" xmlns="http://www.w3.org/2000/svg" xmlns:xlink="http://www.w3.org/1999/xlink">
<g id="graph0" class="graph" transform="scale(1 1) rotate(0) translate(4 44)">
<title>mavlink_msg_digicam_configure_get_engine_cut_off</title>
<polygon fill="white" stroke="none" points="-4,4 -4,-44 714,-44 714,4 -4,4"/>
<!-- Node1 -->
<g id="node1" class="node"><title>Node1</title>
<polygon fill="#bfbfbf" stroke="black" points="0,0.5 0,-40.5 114,-40.5 114,0.5 0,0.5"/>
<text text-anchor="start" x="8" y="-28.5" font-family="Helvetica,sans-Serif" font-size="10.00">mavlink_msg_digicam</text>
<text text-anchor="start" x="8" y="-17.5" font-family="Helvetica,sans-Serif" font-size="10.00">_configure_get_engine</text>
<text text-anchor="middle" x="57" y="-6.5" font-family="Helvetica,sans-Serif" font-size="10.00">_cut_off</text>
</g>
<!-- Node2 -->
<g id="node2" class="node"><title>Node2</title>
<g id="a_node2"><a xlink:href="$v0_89_2ardupilotmega_2mavlink__msg__digicam__configure_8h.html#a1a89e45ae26d0bd6885f4ab23c0a440e" xlink:title="Decode a digicam_configure message into a struct. ">
<polygon fill="white" stroke="black" points="150.5,-5 150.5,-35 263.5,-35 263.5,-5 150.5,-5"/>
<text text-anchor="start" x="158.5" y="-23" font-family="Helvetica,sans-Serif" font-size="10.00">mavlink_msg_digicam</text>
<text text-anchor="middle" x="207" y="-12" font-family="Helvetica,sans-Serif" font-size="10.00">_configure_decode</text>
</a>
</g>
</g>
<!-- Node1&#45;&gt;Node2 -->
<g id="edge1" class="edge"><title>Node1&#45;&gt;Node2</title>
<path fill="none" stroke="midnightblue" d="M124.421,-20C133.058,-20 141.834,-20 150.272,-20"/>
<polygon fill="midnightblue" stroke="midnightblue" points="124.375,-16.5001 114.375,-20 124.375,-23.5001 124.375,-16.5001"/>
</g>
<!-- Node3 -->
<g id="node3" class="node"><title>Node3</title>
<g id="a_node3"><a xlink:href="$v0_89_2ardupilotmega_2testsuite_8h.html#afad94ced08219d5a61552df157a5fcc8" xlink:title="mavlink_test_digicam\l_configure">
<polygon fill="white" stroke="black" points="300.5,-5 300.5,-35 411.5,-35 411.5,-5 300.5,-5"/>
<text text-anchor="start" x="308.5" y="-23" font-family="Helvetica,sans-Serif" font-size="10.00">mavlink_test_digicam</text>
<text text-anchor="middle" x="356" y="-12" font-family="Helvetica,sans-Serif" font-size="10.00">_configure</text>
</a>
</g>
</g>
<!-- Node2&#45;&gt;Node3 -->
<g id="edge2" class="edge"><title>Node2&#45;&gt;Node3</title>
<path fill="none" stroke="midnightblue" d="M273.858,-20C282.703,-20 291.698,-20 300.321,-20"/>
<polygon fill="midnightblue" stroke="midnightblue" points="273.574,-16.5001 263.574,-20 273.574,-23.5001 273.574,-16.5001"/>
</g>
<!-- Node4 -->
<g id="node4" class="node"><title>Node4</title>
<g id="a_node4"><a xlink:href="$v0_89_2ardupilotmega_2testsuite_8h.html#ab264d471ac2f46584f2bb580704b5e9d" xlink:title="mavlink_test_ardupilotmega">
<polygon fill="white" stroke="black" points="448,-10.5 448,-29.5 586,-29.5 586,-10.5 448,-10.5"/>
<text text-anchor="middle" x="517" y="-17.5" font-family="Helvetica,sans-Serif" font-size="10.00">mavlink_test_ardupilotmega</text>
</a>
</g>
</g>
<!-- Node3&#45;&gt;Node4 -->
<g id="edge3" class="edge"><title>Node3&#45;&gt;Node4</title>
<path fill="none" stroke="midnightblue" d="M421.734,-20C430.383,-20 439.273,-20 447.975,-20"/>
<polygon fill="midnightblue" stroke="midnightblue" points="421.719,-16.5001 411.719,-20 421.719,-23.5001 421.719,-16.5001"/>
</g>
<!-- Node5 -->
<g id="node5" class="node"><title>Node5</title>
<g id="a_node5"><a xlink:href="$v0_89_2ardupilotmega_2testsuite_8h.html#a4cc77b6c343679298da5d3c2b4e48759" xlink:title="mavlink_test_all">
<polygon fill="white" stroke="black" points="622.5,-10.5 622.5,-29.5 709.5,-29.5 709.5,-10.5 622.5,-10.5"/>
<text text-anchor="middle" x="666" y="-17.5" font-family="Helvetica,sans-Serif" font-size="10.00">mavlink_test_all</text>
</a>
</g>
</g>
<!-- Node4&#45;&gt;Node5 -->
<g id="edge4" class="edge"><title>Node4&#45;&gt;Node5</title>
<path fill="none" stroke="midnightblue" d="M596.438,-20C605.373,-20 614.211,-20 622.42,-20"/>
<polygon fill="midnightblue" stroke="midnightblue" points="596.336,-16.5001 586.336,-20 596.336,-23.5001 596.336,-16.5001"/>
</g>
</g>
</svg>
