<?xml version="1.0" encoding="UTF-8" standalone="no"?>
<!DOCTYPE svg PUBLIC "-//W3C//DTD SVG 1.1//EN"
 "http://www.w3.org/Graphics/SVG/1.1/DTD/svg11.dtd">
<!-- Generated by graphviz version 2.36.0 (20140111.2315)
 -->
<!-- Title: mavlink_msg_global_position_int_pack Pages: 1 -->
<svg width="674pt" height="61pt"
 viewBox="0.00 0.00 674.00 61.00" xmlns="http://www.w3.org/2000/svg" xmlns:xlink="http://www.w3.org/1999/xlink">
<g id="graph0" class="graph" transform="scale(1 1) rotate(0) translate(4 57)">
<title>mavlink_msg_global_position_int_pack</title>
<polygon fill="white" stroke="none" points="-4,4 -4,-57 670,-57 670,4 -4,4"/>
<!-- Node1 -->
<g id="node1" class="node"><title>Node1</title>
<polygon fill="#bfbfbf" stroke="black" points="0.5,-1 0.5,-31 105.5,-31 105.5,-1 0.5,-1"/>
<text text-anchor="start" x="8.5" y="-19" font-family="Helvetica,sans-Serif" font-size="10.00">mavlink_msg_global</text>
<text text-anchor="middle" x="53" y="-8" font-family="Helvetica,sans-Serif" font-size="10.00">_position_int_pack</text>
</g>
<!-- Node2 -->
<g id="node2" class="node"><title>Node2</title>
<g id="a_node2"><a xlink:href="$v0_89_2common_2mavlink__msg__global__position__int_8h.html#af2515d048446095e804a70d7f3356414" xlink:title="Encode a global_position_int struct into a message. ">
<polygon fill="white" stroke="black" points="142,-23 142,-53 250,-53 250,-23 142,-23"/>
<text text-anchor="start" x="150" y="-41" font-family="Helvetica,sans-Serif" font-size="10.00">mavlink_msg_global</text>
<text text-anchor="middle" x="196" y="-30" font-family="Helvetica,sans-Serif" font-size="10.00">_position_int_encode</text>
</a>
</g>
</g>
<!-- Node1&#45;&gt;Node2 -->
<g id="edge1" class="edge"><title>Node1&#45;&gt;Node2</title>
<path fill="none" stroke="midnightblue" d="M115.797,-25.6421C124.494,-26.999 133.37,-28.384 141.885,-29.7126"/>
<polygon fill="midnightblue" stroke="midnightblue" points="116.123,-22.1506 105.703,-24.0671 115.043,-29.0669 116.123,-22.1506"/>
</g>
<!-- Node3 -->
<g id="node3" class="node"><title>Node3</title>
<g id="a_node3"><a xlink:href="$v0_89_2common_2testsuite_8h.html#abb519c2fd59639148477af83ab7da2ec" xlink:title="mavlink_test_global\l_position_int">
<polygon fill="white" stroke="black" points="286.5,-1 286.5,-31 389.5,-31 389.5,-1 286.5,-1"/>
<text text-anchor="start" x="294.5" y="-19" font-family="Helvetica,sans-Serif" font-size="10.00">mavlink_test_global</text>
<text text-anchor="middle" x="338" y="-8" font-family="Helvetica,sans-Serif" font-size="10.00">_position_int</text>
</a>
</g>
</g>
<!-- Node1&#45;&gt;Node3 -->
<g id="edge5" class="edge"><title>Node1&#45;&gt;Node3</title>
<path fill="none" stroke="midnightblue" d="M115.853,-14.4171C124.63,-14.2441 133.543,-14.0961 142,-14 189.997,-13.4547 202.003,-13.4484 250,-14 261.784,-14.1354 274.463,-14.374 286.399,-14.6403"/>
<polygon fill="midnightblue" stroke="midnightblue" points="115.572,-10.9221 105.648,-14.6301 115.719,-17.9206 115.572,-10.9221"/>
</g>
<!-- Node2&#45;&gt;Node3 -->
<g id="edge2" class="edge"><title>Node2&#45;&gt;Node3</title>
<path fill="none" stroke="midnightblue" d="M260.364,-28.0429C268.993,-26.6868 277.759,-25.3093 286.129,-23.994"/>
<polygon fill="midnightblue" stroke="midnightblue" points="259.663,-24.61 250.327,-29.62 260.75,-31.5251 259.663,-24.61"/>
</g>
<!-- Node4 -->
<g id="node4" class="node"><title>Node4</title>
<g id="a_node4"><a xlink:href="$v0_89_2common_2testsuite_8h.html#af349432601ac003d2c80a69c100c70a4" xlink:title="mavlink_test_common">
<polygon fill="white" stroke="black" points="426.5,-6.5 426.5,-25.5 541.5,-25.5 541.5,-6.5 426.5,-6.5"/>
<text text-anchor="middle" x="484" y="-13.5" font-family="Helvetica,sans-Serif" font-size="10.00">mavlink_test_common</text>
</a>
</g>
</g>
<!-- Node3&#45;&gt;Node4 -->
<g id="edge3" class="edge"><title>Node3&#45;&gt;Node4</title>
<path fill="none" stroke="midnightblue" d="M399.911,-16C408.665,-16 417.644,-16 426.312,-16"/>
<polygon fill="midnightblue" stroke="midnightblue" points="399.769,-12.5001 389.769,-16 399.769,-19.5001 399.769,-12.5001"/>
</g>
<!-- Node5 -->
<g id="node5" class="node"><title>Node5</title>
<g id="a_node5"><a xlink:href="$v0_89_2common_2testsuite_8h.html#a4cc77b6c343679298da5d3c2b4e48759" xlink:title="mavlink_test_all">
<polygon fill="white" stroke="black" points="578.5,-6.5 578.5,-25.5 665.5,-25.5 665.5,-6.5 578.5,-6.5"/>
<text text-anchor="middle" x="622" y="-13.5" font-family="Helvetica,sans-Serif" font-size="10.00">mavlink_test_all</text>
</a>
</g>
</g>
<!-- Node4&#45;&gt;Node5 -->
<g id="edge4" class="edge"><title>Node4&#45;&gt;Node5</title>
<path fill="none" stroke="midnightblue" d="M551.996,-16C560.988,-16 570.003,-16 578.412,-16"/>
<polygon fill="midnightblue" stroke="midnightblue" points="551.888,-12.5001 541.888,-16 551.888,-19.5001 551.888,-12.5001"/>
</g>
</g>
</svg>
