<?xml version="1.0" encoding="UTF-8" standalone="no"?>
<!DOCTYPE svg PUBLIC "-//W3C//DTD SVG 1.1//EN"
 "http://www.w3.org/Graphics/SVG/1.1/DTD/svg11.dtd">
<!-- Generated by graphviz version 2.36.0 (20140111.2315)
 -->
<!-- Title: mavlink_msg_ahrs_pack Pages: 1 -->
<svg width="736pt" height="47pt"
 viewBox="0.00 0.00 736.00 47.00" xmlns="http://www.w3.org/2000/svg" xmlns:xlink="http://www.w3.org/1999/xlink">
<g id="graph0" class="graph" transform="scale(1 1) rotate(0) translate(4 43)">
<title>mavlink_msg_ahrs_pack</title>
<polygon fill="white" stroke="none" points="-4,4 -4,-43 732,-43 732,4 -4,4"/>
<!-- Node1 -->
<g id="node1" class="node"><title>Node1</title>
<polygon fill="#bfbfbf" stroke="black" points="0.5,-0.5 0.5,-19.5 125.5,-19.5 125.5,-0.5 0.5,-0.5"/>
<text text-anchor="middle" x="63" y="-7.5" font-family="Helvetica,sans-Serif" font-size="10.00">mavlink_msg_ahrs_pack</text>
</g>
<!-- Node2 -->
<g id="node2" class="node"><title>Node2</title>
<g id="a_node2"><a xlink:href="$v0_89_2ardupilotmega_2mavlink__msg__ahrs_8h.html#a359d76335fb8a12d812c6c776eee27ef" xlink:title="Encode a ahrs struct into a message. ">
<polygon fill="white" stroke="black" points="162.5,-19.5 162.5,-38.5 297.5,-38.5 297.5,-19.5 162.5,-19.5"/>
<text text-anchor="middle" x="230" y="-26.5" font-family="Helvetica,sans-Serif" font-size="10.00">mavlink_msg_ahrs_encode</text>
</a>
</g>
</g>
<!-- Node1&#45;&gt;Node2 -->
<g id="edge1" class="edge"><title>Node1&#45;&gt;Node2</title>
<path fill="none" stroke="midnightblue" d="M136.06,-18.2979C144.79,-19.3031 153.678,-20.3265 162.325,-21.3222"/>
<polygon fill="midnightblue" stroke="midnightblue" points="136.244,-14.796 125.909,-17.129 135.443,-21.75 136.244,-14.796"/>
</g>
<!-- Node3 -->
<g id="node3" class="node"><title>Node3</title>
<g id="a_node3"><a xlink:href="$v0_89_2ardupilotmega_2testsuite_8h.html#aa6892a55bb6a312967d765e9f7e551a0" xlink:title="mavlink_test_ahrs">
<polygon fill="white" stroke="black" points="334,-0.5 334,-19.5 430,-19.5 430,-0.5 334,-0.5"/>
<text text-anchor="middle" x="382" y="-7.5" font-family="Helvetica,sans-Serif" font-size="10.00">mavlink_test_ahrs</text>
</a>
</g>
</g>
<!-- Node1&#45;&gt;Node3 -->
<g id="edge5" class="edge"><title>Node1&#45;&gt;Node3</title>
<path fill="none" stroke="midnightblue" d="M136.13,-10C196.693,-10 281.476,-10 333.732,-10"/>
<polygon fill="midnightblue" stroke="midnightblue" points="135.873,-6.5001 125.873,-10 135.873,-13.5001 135.873,-6.5001"/>
</g>
<!-- Node2&#45;&gt;Node3 -->
<g id="edge2" class="edge"><title>Node2&#45;&gt;Node3</title>
<path fill="none" stroke="midnightblue" d="M307.719,-19.2823C316.634,-18.153 325.517,-17.0278 333.864,-15.9706"/>
<polygon fill="midnightblue" stroke="midnightblue" points="307.147,-15.8267 297.666,-20.5557 308.026,-22.7712 307.147,-15.8267"/>
</g>
<!-- Node4 -->
<g id="node4" class="node"><title>Node4</title>
<g id="a_node4"><a xlink:href="$v0_89_2ardupilotmega_2testsuite_8h.html#ab264d471ac2f46584f2bb580704b5e9d" xlink:title="mavlink_test_ardupilotmega">
<polygon fill="white" stroke="black" points="466,-0.5 466,-19.5 604,-19.5 604,-0.5 466,-0.5"/>
<text text-anchor="middle" x="535" y="-7.5" font-family="Helvetica,sans-Serif" font-size="10.00">mavlink_test_ardupilotmega</text>
</a>
</g>
</g>
<!-- Node3&#45;&gt;Node4 -->
<g id="edge3" class="edge"><title>Node3&#45;&gt;Node4</title>
<path fill="none" stroke="midnightblue" d="M440.602,-10C448.838,-10 457.375,-10 465.791,-10"/>
<polygon fill="midnightblue" stroke="midnightblue" points="440.363,-6.5001 430.363,-10 440.363,-13.5001 440.363,-6.5001"/>
</g>
<!-- Node5 -->
<g id="node5" class="node"><title>Node5</title>
<g id="a_node5"><a xlink:href="$v0_89_2ardupilotmega_2testsuite_8h.html#a4cc77b6c343679298da5d3c2b4e48759" xlink:title="mavlink_test_all">
<polygon fill="white" stroke="black" points="640.5,-0.5 640.5,-19.5 727.5,-19.5 727.5,-0.5 640.5,-0.5"/>
<text text-anchor="middle" x="684" y="-7.5" font-family="Helvetica,sans-Serif" font-size="10.00">mavlink_test_all</text>
</a>
</g>
</g>
<!-- Node4&#45;&gt;Node5 -->
<g id="edge4" class="edge"><title>Node4&#45;&gt;Node5</title>
<path fill="none" stroke="midnightblue" d="M614.438,-10C623.373,-10 632.211,-10 640.42,-10"/>
<polygon fill="midnightblue" stroke="midnightblue" points="614.336,-6.5001 604.336,-10 614.336,-13.5001 614.336,-6.5001"/>
</g>
</g>
</svg>
