<?xml version="1.0" encoding="UTF-8" standalone="no"?>
<!DOCTYPE svg PUBLIC "-//W3C//DTD SVG 1.1//EN"
 "http://www.w3.org/Graphics/SVG/1.1/DTD/svg11.dtd">
<!-- Generated by graphviz version 2.36.0 (20140111.2315)
 -->
<!-- Title: mavlink_test_attitude_quaternion_cov Pages: 1 -->
<svg width="658pt" height="506pt"
 viewBox="0.00 0.00 658.00 505.66" xmlns="http://www.w3.org/2000/svg" xmlns:xlink="http://www.w3.org/1999/xlink">
<g id="graph0" class="graph" transform="scale(1 1) rotate(0) translate(4 501.659)">
<title>mavlink_test_attitude_quaternion_cov</title>
<polygon fill="white" stroke="none" points="-4,4 -4,-501.659 654,-501.659 654,4 -4,4"/>
<!-- Node1 -->
<g id="node1" class="node"><title>Node1</title>
<polygon fill="#bfbfbf" stroke="black" points="0,-154 0,-184 110,-184 110,-154 0,-154"/>
<text text-anchor="start" x="8" y="-172" font-family="Helvetica,sans-Serif" font-size="10.00">mavlink_test_attitude</text>
<text text-anchor="middle" x="55" y="-161" font-family="Helvetica,sans-Serif" font-size="10.00">_quaternion_cov</text>
</g>
<!-- Node2 -->
<g id="node2" class="node"><title>Node2</title>
<g id="a_node2"><a xlink:href="$v0_89_2protocol_8h.html#a4486c3d5854cac1cb6a0fb1cc5ba570c" xlink:title="mav_array_memcpy">
<polygon fill="white" stroke="black" points="531.5,-444.5 531.5,-463.5 636.5,-463.5 636.5,-444.5 531.5,-444.5"/>
<text text-anchor="middle" x="584" y="-451.5" font-family="Helvetica,sans-Serif" font-size="10.00">mav_array_memcpy</text>
</a>
</g>
</g>
<!-- Node1&#45;&gt;Node2 -->
<g id="edge1" class="edge"><title>Node1&#45;&gt;Node2</title>
<path fill="none" stroke="midnightblue" d="M55.7465,-184.166C55.8716,-231.108 63.2687,-374.78 146,-440 264.168,-533.156 461.359,-490.437 544.337,-466.414"/>
<polygon fill="midnightblue" stroke="midnightblue" points="545.517,-469.715 554.11,-463.517 543.528,-463.003 545.517,-469.715"/>
</g>
<!-- Node3 -->
<g id="node3" class="node"><title>Node3</title>
<g id="a_node3"><a xlink:href="$mavlink__msg__attitude__quaternion__cov_8h.html#a69339b3f92792b16bf71962ab738db09" xlink:title="Encode a attitude_quaternion_cov struct. ">
<polygon fill="white" stroke="black" points="153.5,-176 153.5,-206 278.5,-206 278.5,-176 153.5,-176"/>
<text text-anchor="start" x="161.5" y="-194" font-family="Helvetica,sans-Serif" font-size="10.00">mavlink_msg_attitude</text>
<text text-anchor="middle" x="216" y="-183" font-family="Helvetica,sans-Serif" font-size="10.00">_quaternion_cov_encode</text>
</a>
</g>
</g>
<!-- Node1&#45;&gt;Node3 -->
<g id="edge2" class="edge"><title>Node1&#45;&gt;Node3</title>
<path fill="none" stroke="midnightblue" d="M110.274,-176.51C120.881,-177.977 132.157,-179.537 143.231,-181.07"/>
<polygon fill="midnightblue" stroke="midnightblue" points="142.933,-184.562 153.318,-182.465 143.893,-177.628 142.933,-184.562"/>
</g>
<!-- Node4 -->
<g id="node4" class="node"><title>Node4</title>
<g id="a_node4"><a xlink:href="$mavlink__msg__attitude__quaternion__cov_8h.html#ad88e6e7cddc17a7d6dba82f3033e037c" xlink:title="Pack a attitude_quaternion_cov message. ">
<polygon fill="white" stroke="black" points="345,-53 345,-83 459,-83 459,-53 345,-53"/>
<text text-anchor="start" x="353" y="-71" font-family="Helvetica,sans-Serif" font-size="10.00">mavlink_msg_attitude</text>
<text text-anchor="middle" x="402" y="-60" font-family="Helvetica,sans-Serif" font-size="10.00">_quaternion_cov_pack</text>
</a>
</g>
</g>
<!-- Node1&#45;&gt;Node4 -->
<g id="edge13" class="edge"><title>Node1&#45;&gt;Node4</title>
<path fill="none" stroke="midnightblue" d="M110.454,-167.923C158.959,-164.962 230.618,-155.549 286,-127 305.835,-116.775 302.782,-103.341 322,-92 326.178,-89.5345 330.632,-87.3014 335.216,-85.2823"/>
<polygon fill="midnightblue" stroke="midnightblue" points="336.796,-88.4191 344.761,-81.4328 334.178,-81.9271 336.796,-88.4191"/>
</g>
<!-- Node6 -->
<g id="node6" class="node"><title>Node6</title>
<g id="a_node6"><a xlink:href="$mavlink__msg__attitude__quaternion__cov_8h.html#a89ebffdde08e856e902c598dae67b3ff" xlink:title="Decode a attitude_quaternion_cov message into a struct. ">
<polygon fill="white" stroke="black" points="153.5,-225 153.5,-255 278.5,-255 278.5,-225 153.5,-225"/>
<text text-anchor="start" x="161.5" y="-243" font-family="Helvetica,sans-Serif" font-size="10.00">mavlink_msg_attitude</text>
<text text-anchor="middle" x="216" y="-232" font-family="Helvetica,sans-Serif" font-size="10.00">_quaternion_cov_decode</text>
</a>
</g>
</g>
<!-- Node1&#45;&gt;Node6 -->
<g id="edge6" class="edge"><title>Node1&#45;&gt;Node6</title>
<path fill="none" stroke="midnightblue" d="M83.5416,-184.21C101.14,-193.643 124.596,-205.696 146,-215 150.966,-217.159 156.185,-219.29 161.436,-221.343"/>
<polygon fill="midnightblue" stroke="midnightblue" points="160.284,-224.649 170.875,-224.943 162.779,-218.109 160.284,-224.649"/>
</g>
<!-- Node13 -->
<g id="node13" class="node"><title>Node13</title>
<g id="a_node13"><a xlink:href="$mavlink__msg__attitude__quaternion__cov_8h.html#a1a39fdbc14db9eb4075b7781536a93b7" xlink:title="Pack a attitude_quaternion_cov message on a channel. ">
<polygon fill="white" stroke="black" points="146,-401 146,-431 286,-431 286,-401 146,-401"/>
<text text-anchor="start" x="154" y="-419" font-family="Helvetica,sans-Serif" font-size="10.00">mavlink_msg_attitude</text>
<text text-anchor="middle" x="216" y="-408" font-family="Helvetica,sans-Serif" font-size="10.00">_quaternion_cov_pack_chan</text>
</a>
</g>
</g>
<!-- Node1&#45;&gt;Node13 -->
<g id="edge14" class="edge"><title>Node1&#45;&gt;Node13</title>
<path fill="none" stroke="midnightblue" d="M65.7068,-184.079C92.4292,-225.591 167.239,-341.805 199.676,-392.194"/>
<polygon fill="midnightblue" stroke="midnightblue" points="196.862,-394.29 205.218,-400.804 202.748,-390.501 196.862,-394.29"/>
</g>
<!-- Node15 -->
<g id="node15" class="node"><title>Node15</title>
<g id="a_node15"><a xlink:href="$v0_89_2mavlink__helpers_8h.html#afea0a9befa84822fd62c2899ea0d849e" xlink:title="Pack a message to send it over a serial byte stream. ">
<polygon fill="white" stroke="black" points="159,-88 159,-118 273,-118 273,-88 159,-88"/>
<text text-anchor="start" x="167" y="-106" font-family="Helvetica,sans-Serif" font-size="10.00">mavlink_msg_to_send</text>
<text text-anchor="middle" x="216" y="-95" font-family="Helvetica,sans-Serif" font-size="10.00">_buffer</text>
</a>
</g>
</g>
<!-- Node1&#45;&gt;Node15 -->
<g id="edge17" class="edge"><title>Node1&#45;&gt;Node15</title>
<path fill="none" stroke="midnightblue" d="M92.4778,-153.858C115.303,-144.384 144.899,-132.099 169.284,-121.976"/>
<polygon fill="midnightblue" stroke="midnightblue" points="170.798,-125.138 178.692,-118.071 168.114,-118.673 170.798,-125.138"/>
</g>
<!-- Node16 -->
<g id="node16" class="node"><title>Node16</title>
<g id="a_node16"><a xlink:href="$v0_89_2protocol_8h.html#aa86c08f27aabb7a2e12a67f189f590c8" xlink:title="Get the required buffer size for this message. ">
<polygon fill="white" stroke="black" points="156.5,-39 156.5,-69 275.5,-69 275.5,-39 156.5,-39"/>
<text text-anchor="start" x="164.5" y="-57" font-family="Helvetica,sans-Serif" font-size="10.00">mavlink_msg_get_send</text>
<text text-anchor="middle" x="216" y="-46" font-family="Helvetica,sans-Serif" font-size="10.00">_buffer_length</text>
</a>
</g>
</g>
<!-- Node1&#45;&gt;Node16 -->
<g id="edge18" class="edge"><title>Node1&#45;&gt;Node16</title>
<path fill="none" stroke="midnightblue" d="M67.4514,-153.666C83.1315,-133.654 113.113,-98.7485 146,-78 148.598,-76.361 151.322,-74.8173 154.125,-73.3656"/>
<polygon fill="midnightblue" stroke="midnightblue" points="155.74,-76.4736 163.287,-69.0379 152.75,-70.1441 155.74,-76.4736"/>
</g>
<!-- Node17 -->
<g id="node17" class="node"><title>Node17</title>
<g id="a_node17"><a xlink:href="$GCS__MAVLink_8h.html#ab753873a1ee10adedd0ce246311468f8" xlink:title="comm_send_ch">
<polygon fill="white" stroke="black" points="173,-0.5 173,-19.5 259,-19.5 259,-0.5 173,-0.5"/>
<text text-anchor="middle" x="216" y="-7.5" font-family="Helvetica,sans-Serif" font-size="10.00">comm_send_ch</text>
</a>
</g>
</g>
<!-- Node1&#45;&gt;Node17 -->
<g id="edge19" class="edge"><title>Node1&#45;&gt;Node17</title>
<path fill="none" stroke="midnightblue" d="M61.5065,-153.74C72.734,-124.833 101.073,-62.0383 146,-29 151.189,-25.1838 157.107,-22.134 163.245,-19.6967"/>
<polygon fill="midnightblue" stroke="midnightblue" points="164.676,-22.9059 172.998,-16.3488 162.403,-16.2851 164.676,-22.9059"/>
</g>
<!-- Node3&#45;&gt;Node4 -->
<g id="edge3" class="edge"><title>Node3&#45;&gt;Node4</title>
<path fill="none" stroke="midnightblue" d="M263.824,-175.844C271.819,-171.864 279.596,-166.966 286,-161 311.308,-137.422 295.376,-114.082 322,-92 326.034,-88.6542 330.527,-85.7745 335.266,-83.2961"/>
<polygon fill="midnightblue" stroke="midnightblue" points="336.993,-86.3549 344.626,-79.0074 334.077,-79.9911 336.993,-86.3549"/>
</g>
<!-- Node4&#45;&gt;Node2 -->
<g id="edge4" class="edge"><title>Node4&#45;&gt;Node2</title>
<path fill="none" stroke="midnightblue" d="M459.239,-77.343C467.698,-80.8089 475.688,-85.5419 482,-92 578.617,-190.85 584.492,-373.995 583.645,-434.231"/>
<polygon fill="midnightblue" stroke="midnightblue" points="580.145,-434.214 583.42,-444.29 587.143,-434.371 580.145,-434.214"/>
</g>
<!-- Node5 -->
<g id="node5" class="node"><title>Node5</title>
<g id="a_node5"><a xlink:href="$v0_89_2mavlink__helpers_8h.html#af3bea083c5ec83f5b6570b2bd4a817d0" xlink:title="Finalize a MAVLink message with MAVLINK_COMM_0 as default channel. ">
<polygon fill="white" stroke="black" points="518.5,-58.5 518.5,-77.5 649.5,-77.5 649.5,-58.5 518.5,-58.5"/>
<text text-anchor="middle" x="584" y="-65.5" font-family="Helvetica,sans-Serif" font-size="10.00">mavlink_finalize_message</text>
</a>
</g>
</g>
<!-- Node4&#45;&gt;Node5 -->
<g id="edge5" class="edge"><title>Node4&#45;&gt;Node5</title>
<path fill="none" stroke="midnightblue" d="M459.459,-68C474.913,-68 491.907,-68 508.214,-68"/>
<polygon fill="midnightblue" stroke="midnightblue" points="508.259,-71.5001 518.259,-68 508.259,-64.5001 508.259,-71.5001"/>
</g>
<!-- Node7 -->
<g id="node7" class="node"><title>Node7</title>
<g id="a_node7"><a xlink:href="$mavlink__msg__attitude__quaternion__cov_8h.html#a09e622d66c4d13e772fdd2e95e68b0de" xlink:title="Send a attitude_quaternion_cov message. ">
<polygon fill="white" stroke="black" points="336.5,-101.5 336.5,-142.5 467.5,-142.5 467.5,-101.5 336.5,-101.5"/>
<text text-anchor="start" x="344.5" y="-130.5" font-family="Helvetica,sans-Serif" font-size="10.00">mavlink_msg_attitude</text>
<text text-anchor="start" x="344.5" y="-119.5" font-family="Helvetica,sans-Serif" font-size="10.00">_quaternion_cov_get_time</text>
<text text-anchor="middle" x="402" y="-108.5" font-family="Helvetica,sans-Serif" font-size="10.00">_boot_ms</text>
</a>
</g>
</g>
<!-- Node6&#45;&gt;Node7 -->
<g id="edge7" class="edge"><title>Node6&#45;&gt;Node7</title>
<path fill="none" stroke="midnightblue" d="M270.742,-224.96C276.215,-222.164 281.431,-218.872 286,-215 310.898,-193.901 297.147,-172.152 322,-151 323.763,-149.5 325.61,-148.074 327.524,-146.72"/>
<polygon fill="midnightblue" stroke="midnightblue" points="329.679,-149.5 336.295,-141.226 325.963,-143.568 329.679,-149.5"/>
</g>
<!-- Node8 -->
<g id="node8" class="node"><title>Node8</title>
<g id="a_node8"><a xlink:href="$mavlink__msg__attitude__quaternion__cov_8h.html#a037e18683ae6fa46ab68cec85bf91f71" xlink:title="Get field q from attitude_quaternion_cov message. ">
<polygon fill="white" stroke="black" points="343.5,-357 343.5,-387 460.5,-387 460.5,-357 343.5,-357"/>
<text text-anchor="start" x="351.5" y="-375" font-family="Helvetica,sans-Serif" font-size="10.00">mavlink_msg_attitude</text>
<text text-anchor="middle" x="402" y="-364" font-family="Helvetica,sans-Serif" font-size="10.00">_quaternion_cov_get_q</text>
</a>
</g>
</g>
<!-- Node6&#45;&gt;Node8 -->
<g id="edge8" class="edge"><title>Node6&#45;&gt;Node8</title>
<path fill="none" stroke="midnightblue" d="M227.843,-255.06C245.197,-278.11 281.412,-322.078 322,-347 325.827,-349.35 329.896,-351.498 334.09,-353.46"/>
<polygon fill="midnightblue" stroke="midnightblue" points="332.857,-356.739 343.427,-357.46 335.614,-350.305 332.857,-356.739"/>
</g>
<!-- Node9 -->
<g id="node9" class="node"><title>Node9</title>
<g id="a_node9"><a xlink:href="$mavlink__msg__attitude__quaternion__cov_8h.html#ae2b31621c12f54524646ffeb706907ac" xlink:title="Get field rollspeed from attitude_quaternion_cov message. ">
<polygon fill="white" stroke="black" points="326.5,-308 326.5,-338 477.5,-338 477.5,-308 326.5,-308"/>
<text text-anchor="start" x="334.5" y="-326" font-family="Helvetica,sans-Serif" font-size="10.00">mavlink_msg_attitude</text>
<text text-anchor="middle" x="402" y="-315" font-family="Helvetica,sans-Serif" font-size="10.00">_quaternion_cov_get_rollspeed</text>
</a>
</g>
</g>
<!-- Node6&#45;&gt;Node9 -->
<g id="edge9" class="edge"><title>Node6&#45;&gt;Node9</title>
<path fill="none" stroke="midnightblue" d="M240.919,-255.006C261.766,-267.643 293.105,-285.593 322,-298 327.335,-300.291 332.951,-302.481 338.628,-304.544"/>
<polygon fill="midnightblue" stroke="midnightblue" points="337.603,-307.894 348.198,-307.894 339.916,-301.287 337.603,-307.894"/>
</g>
<!-- Node10 -->
<g id="node10" class="node"><title>Node10</title>
<g id="a_node10"><a xlink:href="$mavlink__msg__attitude__quaternion__cov_8h.html#a3ed0e6915c1e0cb94bfadf61e33250ae" xlink:title="Get field pitchspeed from attitude_quaternion_cov message. ">
<polygon fill="white" stroke="black" points="322.5,-259 322.5,-289 481.5,-289 481.5,-259 322.5,-259"/>
<text text-anchor="start" x="330.5" y="-277" font-family="Helvetica,sans-Serif" font-size="10.00">mavlink_msg_attitude</text>
<text text-anchor="middle" x="402" y="-266" font-family="Helvetica,sans-Serif" font-size="10.00">_quaternion_cov_get_pitchspeed</text>
</a>
</g>
</g>
<!-- Node6&#45;&gt;Node10 -->
<g id="edge10" class="edge"><title>Node6&#45;&gt;Node10</title>
<path fill="none" stroke="midnightblue" d="M278.525,-251.369C289.353,-253.37 300.815,-255.488 312.212,-257.594"/>
<polygon fill="midnightblue" stroke="midnightblue" points="311.723,-261.062 322.193,-259.438 312.995,-254.179 311.723,-261.062"/>
</g>
<!-- Node11 -->
<g id="node11" class="node"><title>Node11</title>
<g id="a_node11"><a xlink:href="$mavlink__msg__attitude__quaternion__cov_8h.html#a17f7f1702fd19fb24a41810901da4d7e" xlink:title="Get field yawspeed from attitude_quaternion_cov message. ">
<polygon fill="white" stroke="black" points="324,-210 324,-240 480,-240 480,-210 324,-210"/>
<text text-anchor="start" x="332" y="-228" font-family="Helvetica,sans-Serif" font-size="10.00">mavlink_msg_attitude</text>
<text text-anchor="middle" x="402" y="-217" font-family="Helvetica,sans-Serif" font-size="10.00">_quaternion_cov_get_yawspeed</text>
</a>
</g>
</g>
<!-- Node6&#45;&gt;Node11 -->
<g id="edge11" class="edge"><title>Node6&#45;&gt;Node11</title>
<path fill="none" stroke="midnightblue" d="M278.525,-234.984C289.87,-234.059 301.912,-233.078 313.846,-232.105"/>
<polygon fill="midnightblue" stroke="midnightblue" points="314.143,-235.592 323.826,-231.291 313.575,-228.616 314.143,-235.592"/>
</g>
<!-- Node12 -->
<g id="node12" class="node"><title>Node12</title>
<g id="a_node12"><a xlink:href="$mavlink__msg__attitude__quaternion__cov_8h.html#a25a306e1daab8b38471d516db10033c3" xlink:title="Get field covariance from attitude_quaternion_cov message. ">
<polygon fill="white" stroke="black" points="322.5,-161 322.5,-191 481.5,-191 481.5,-161 322.5,-161"/>
<text text-anchor="start" x="330.5" y="-179" font-family="Helvetica,sans-Serif" font-size="10.00">mavlink_msg_attitude</text>
<text text-anchor="middle" x="402" y="-168" font-family="Helvetica,sans-Serif" font-size="10.00">_quaternion_cov_get_covariance</text>
</a>
</g>
</g>
<!-- Node6&#45;&gt;Node12 -->
<g id="edge12" class="edge"><title>Node6&#45;&gt;Node12</title>
<path fill="none" stroke="midnightblue" d="M259.447,-224.977C268.253,-221.761 277.451,-218.328 286,-215 302.153,-208.713 305.687,-205.86 322,-200 327.531,-198.013 333.317,-196.047 339.134,-194.146"/>
<polygon fill="midnightblue" stroke="midnightblue" points="340.456,-197.398 348.913,-191.016 338.322,-190.731 340.456,-197.398"/>
</g>
<!-- Node13&#45;&gt;Node2 -->
<g id="edge15" class="edge"><title>Node13&#45;&gt;Node2</title>
<path fill="none" stroke="midnightblue" d="M286.027,-429.568C297.988,-431.611 310.33,-433.524 322,-435 389.821,-443.58 468.084,-448.638 521.084,-451.35"/>
<polygon fill="midnightblue" stroke="midnightblue" points="521.174,-454.859 531.336,-451.861 521.523,-447.867 521.174,-454.859"/>
</g>
<!-- Node14 -->
<g id="node14" class="node"><title>Node14</title>
<g id="a_node14"><a xlink:href="$v0_89_2mavlink__helpers_8h.html#aa66131138fc02101dcc73b4b556ab422" xlink:title="Finalize a MAVLink message with channel assignment. ">
<polygon fill="white" stroke="black" points="323,-406.5 323,-425.5 481,-425.5 481,-406.5 323,-406.5"/>
<text text-anchor="middle" x="402" y="-413.5" font-family="Helvetica,sans-Serif" font-size="10.00">mavlink_finalize_message_chan</text>
</a>
</g>
</g>
<!-- Node13&#45;&gt;Node14 -->
<g id="edge16" class="edge"><title>Node13&#45;&gt;Node14</title>
<path fill="none" stroke="midnightblue" d="M286.038,-416C294.781,-416 303.819,-416 312.809,-416"/>
<polygon fill="midnightblue" stroke="midnightblue" points="312.92,-419.5 322.92,-416 312.919,-412.5 312.92,-419.5"/>
</g>
<!-- Node18 -->
<g id="node18" class="node"><title>Node18</title>
<g id="a_node18"><a xlink:href="$classAP__HAL_1_1Print.html#acc65391952a43334f8f5c9bef341f501" xlink:title="AP_HAL::Print::write">
<polygon fill="white" stroke="black" points="348,-0.5 348,-19.5 456,-19.5 456,-0.5 348,-0.5"/>
<text text-anchor="middle" x="402" y="-7.5" font-family="Helvetica,sans-Serif" font-size="10.00">AP_HAL::Print::write</text>
</a>
</g>
</g>
<!-- Node17&#45;&gt;Node18 -->
<g id="edge20" class="edge"><title>Node17&#45;&gt;Node18</title>
<path fill="none" stroke="midnightblue" d="M259.213,-10C282.443,-10 311.732,-10 337.65,-10"/>
<polygon fill="midnightblue" stroke="midnightblue" points="337.772,-13.5001 347.772,-10 337.772,-6.5001 337.772,-13.5001"/>
</g>
</g>
</svg>
