<?xml version="1.0" encoding="UTF-8" standalone="no"?>
<!DOCTYPE svg PUBLIC "-//W3C//DTD SVG 1.1//EN"
 "http://www.w3.org/Graphics/SVG/1.1/DTD/svg11.dtd">
<!-- Generated by graphviz version 2.36.0 (20140111.2315)
 -->
<!-- Title: mavlink_msg_sensor_offsets_get_gyro_cal_y Pages: 1 -->
<svg width="278pt" height="38pt"
 viewBox="0.00 0.00 278.00 38.00" xmlns="http://www.w3.org/2000/svg" xmlns:xlink="http://www.w3.org/1999/xlink">
<g id="graph0" class="graph" transform="scale(1 1) rotate(0) translate(4 34)">
<title>mavlink_msg_sensor_offsets_get_gyro_cal_y</title>
<polygon fill="white" stroke="none" points="-4,4 -4,-34 274,-34 274,4 -4,4"/>
<!-- Node1 -->
<g id="node1" class="node"><title>Node1</title>
<polygon fill="#bfbfbf" stroke="black" points="0.5,-0 0.5,-30 123.5,-30 123.5,-0 0.5,-0"/>
<text text-anchor="start" x="8.5" y="-18" font-family="Helvetica,sans-Serif" font-size="10.00">mavlink_msg_sensor</text>
<text text-anchor="middle" x="62" y="-7" font-family="Helvetica,sans-Serif" font-size="10.00">_offsets_get_gyro_cal_y</text>
</g>
<!-- Node2 -->
<g id="node2" class="node"><title>Node2</title>
<g id="a_node2"><a xlink:href="$v1_80_2ardupilotmega_2mavlink__msg__sensor__offsets_8h.html#a836e4fd8377a59017d6c82ccb4a3e4b1" xlink:title="Decode a sensor_offsets message into a struct. ">
<polygon fill="white" stroke="black" points="160.5,-0 160.5,-30 269.5,-30 269.5,-0 160.5,-0"/>
<text text-anchor="start" x="168.5" y="-18" font-family="Helvetica,sans-Serif" font-size="10.00">mavlink_msg_sensor</text>
<text text-anchor="middle" x="215" y="-7" font-family="Helvetica,sans-Serif" font-size="10.00">_offsets_decode</text>
</a>
</g>
</g>
<!-- Node1&#45;&gt;Node2 -->
<g id="edge1" class="edge"><title>Node1&#45;&gt;Node2</title>
<path fill="none" stroke="midnightblue" d="M133.602,-15C142.567,-15 151.624,-15 160.265,-15"/>
<polygon fill="midnightblue" stroke="midnightblue" points="133.547,-11.5001 123.547,-15 133.547,-18.5001 133.547,-11.5001"/>
</g>
</g>
</svg>
