<?xml version="1.0" encoding="UTF-8" standalone="no"?>
<!DOCTYPE svg PUBLIC "-//W3C//DTD SVG 1.1//EN"
 "http://www.w3.org/Graphics/SVG/1.1/DTD/svg11.dtd">
<!-- Generated by graphviz version 2.36.0 (20140111.2315)
 -->
<!-- Title: mavlink_msg_safety_set_allowed_area_decode Pages: 1 -->
<svg width="324pt" height="451pt"
 viewBox="0.00 0.00 324.00 451.00" xmlns="http://www.w3.org/2000/svg" xmlns:xlink="http://www.w3.org/1999/xlink">
<g id="graph0" class="graph" transform="scale(1 1) rotate(0) translate(4 447)">
<title>mavlink_msg_safety_set_allowed_area_decode</title>
<polygon fill="white" stroke="none" points="-4,4 -4,-447 320,-447 320,4 -4,4"/>
<!-- Node1 -->
<g id="node1" class="node"><title>Node1</title>
<polygon fill="#bfbfbf" stroke="black" points="0,-217 0,-247 134,-247 134,-217 0,-217"/>
<text text-anchor="start" x="8" y="-235" font-family="Helvetica,sans-Serif" font-size="10.00">mavlink_msg_safety</text>
<text text-anchor="middle" x="67" y="-224" font-family="Helvetica,sans-Serif" font-size="10.00">_set_allowed_area_decode</text>
</g>
<!-- Node2 -->
<g id="node2" class="node"><title>Node2</title>
<g id="a_node2"><a xlink:href="$v1_80_2common_2mavlink__msg__safety__set__allowed__area_8h.html#a264e1651da225969ae8610b558ec24dd" xlink:title="Get field p1x from safety_set_allowed_area message. ">
<polygon fill="white" stroke="black" points="174.5,-413 174.5,-443 311.5,-443 311.5,-413 174.5,-413"/>
<text text-anchor="start" x="182.5" y="-431" font-family="Helvetica,sans-Serif" font-size="10.00">mavlink_msg_safety</text>
<text text-anchor="middle" x="243" y="-420" font-family="Helvetica,sans-Serif" font-size="10.00">_set_allowed_area_get_p1x</text>
</a>
</g>
</g>
<!-- Node1&#45;&gt;Node2 -->
<g id="edge1" class="edge"><title>Node1&#45;&gt;Node2</title>
<path fill="none" stroke="midnightblue" d="M72.9861,-247.196C84.6148,-280.324 116.666,-359.554 170,-403 172.065,-404.682 174.25,-406.254 176.523,-407.723"/>
<polygon fill="midnightblue" stroke="midnightblue" points="175.238,-411.017 185.665,-412.892 178.683,-404.923 175.238,-411.017"/>
</g>
<!-- Node3 -->
<g id="node3" class="node"><title>Node3</title>
<g id="a_node3"><a xlink:href="$v1_80_2common_2mavlink__msg__safety__set__allowed__area_8h.html#a4ac125fadcc9314386e5e0d5b901ef56" xlink:title="Get field p1y from safety_set_allowed_area message. ">
<polygon fill="white" stroke="black" points="174.5,-364 174.5,-394 311.5,-394 311.5,-364 174.5,-364"/>
<text text-anchor="start" x="182.5" y="-382" font-family="Helvetica,sans-Serif" font-size="10.00">mavlink_msg_safety</text>
<text text-anchor="middle" x="243" y="-371" font-family="Helvetica,sans-Serif" font-size="10.00">_set_allowed_area_get_p1y</text>
</a>
</g>
</g>
<!-- Node1&#45;&gt;Node3 -->
<g id="edge2" class="edge"><title>Node1&#45;&gt;Node3</title>
<path fill="none" stroke="midnightblue" d="M76.7266,-247.008C92.3009,-272.537 127.29,-324.508 170,-354 172.863,-355.977 175.898,-357.812 179.039,-359.513"/>
<polygon fill="midnightblue" stroke="midnightblue" points="177.597,-362.703 188.117,-363.958 180.675,-356.417 177.597,-362.703"/>
</g>
<!-- Node4 -->
<g id="node4" class="node"><title>Node4</title>
<g id="a_node4"><a xlink:href="$v1_80_2common_2mavlink__msg__safety__set__allowed__area_8h.html#abd7e4f0bfa9a530c9b0c90b0f5bedca4" xlink:title="Get field p1z from safety_set_allowed_area message. ">
<polygon fill="white" stroke="black" points="174.5,-315 174.5,-345 311.5,-345 311.5,-315 174.5,-315"/>
<text text-anchor="start" x="182.5" y="-333" font-family="Helvetica,sans-Serif" font-size="10.00">mavlink_msg_safety</text>
<text text-anchor="middle" x="243" y="-322" font-family="Helvetica,sans-Serif" font-size="10.00">_set_allowed_area_get_p1z</text>
</a>
</g>
</g>
<!-- Node1&#45;&gt;Node4 -->
<g id="edge3" class="edge"><title>Node1&#45;&gt;Node4</title>
<path fill="none" stroke="midnightblue" d="M85.7635,-247.146C105.344,-263.24 138.285,-288.582 170,-305 174.186,-307.167 178.602,-309.215 183.102,-311.135"/>
<polygon fill="midnightblue" stroke="midnightblue" points="181.827,-314.395 192.41,-314.895 184.448,-307.905 181.827,-314.395"/>
</g>
<!-- Node5 -->
<g id="node5" class="node"><title>Node5</title>
<g id="a_node5"><a xlink:href="$v1_80_2common_2mavlink__msg__safety__set__allowed__area_8h.html#ad33fc4839a5bfcfcfda945ac80b532f7" xlink:title="Get field p2x from safety_set_allowed_area message. ">
<polygon fill="white" stroke="black" points="174.5,-266 174.5,-296 311.5,-296 311.5,-266 174.5,-266"/>
<text text-anchor="start" x="182.5" y="-284" font-family="Helvetica,sans-Serif" font-size="10.00">mavlink_msg_safety</text>
<text text-anchor="middle" x="243" y="-273" font-family="Helvetica,sans-Serif" font-size="10.00">_set_allowed_area_get_p2x</text>
</a>
</g>
</g>
<!-- Node1&#45;&gt;Node5 -->
<g id="edge4" class="edge"><title>Node1&#45;&gt;Node5</title>
<path fill="none" stroke="midnightblue" d="M121.626,-247.101C139.737,-252.202 160.124,-257.943 178.9,-263.23"/>
<polygon fill="midnightblue" stroke="midnightblue" points="177.977,-266.607 188.552,-265.948 179.875,-259.869 177.977,-266.607"/>
</g>
<!-- Node6 -->
<g id="node6" class="node"><title>Node6</title>
<g id="a_node6"><a xlink:href="$v1_80_2common_2mavlink__msg__safety__set__allowed__area_8h.html#aa154b354233a8b34d22a45df2c39d626" xlink:title="Get field p2y from safety_set_allowed_area message. ">
<polygon fill="white" stroke="black" points="174.5,-217 174.5,-247 311.5,-247 311.5,-217 174.5,-217"/>
<text text-anchor="start" x="182.5" y="-235" font-family="Helvetica,sans-Serif" font-size="10.00">mavlink_msg_safety</text>
<text text-anchor="middle" x="243" y="-224" font-family="Helvetica,sans-Serif" font-size="10.00">_set_allowed_area_get_p2y</text>
</a>
</g>
</g>
<!-- Node1&#45;&gt;Node6 -->
<g id="edge5" class="edge"><title>Node1&#45;&gt;Node6</title>
<path fill="none" stroke="midnightblue" d="M134.278,-232C144.044,-232 154.179,-232 164.152,-232"/>
<polygon fill="midnightblue" stroke="midnightblue" points="164.463,-235.5 174.463,-232 164.463,-228.5 164.463,-235.5"/>
</g>
<!-- Node7 -->
<g id="node7" class="node"><title>Node7</title>
<g id="a_node7"><a xlink:href="$v1_80_2common_2mavlink__msg__safety__set__allowed__area_8h.html#ae67e9a5afc0604b5122412042c5bec8b" xlink:title="Get field p2z from safety_set_allowed_area message. ">
<polygon fill="white" stroke="black" points="174.5,-168 174.5,-198 311.5,-198 311.5,-168 174.5,-168"/>
<text text-anchor="start" x="182.5" y="-186" font-family="Helvetica,sans-Serif" font-size="10.00">mavlink_msg_safety</text>
<text text-anchor="middle" x="243" y="-175" font-family="Helvetica,sans-Serif" font-size="10.00">_set_allowed_area_get_p2z</text>
</a>
</g>
</g>
<!-- Node1&#45;&gt;Node7 -->
<g id="edge6" class="edge"><title>Node1&#45;&gt;Node7</title>
<path fill="none" stroke="midnightblue" d="M121.626,-216.899C139.737,-211.798 160.124,-206.057 178.9,-200.77"/>
<polygon fill="midnightblue" stroke="midnightblue" points="179.875,-204.131 188.552,-198.052 177.977,-197.393 179.875,-204.131"/>
</g>
<!-- Node8 -->
<g id="node8" class="node"><title>Node8</title>
<g id="a_node8"><a xlink:href="$v1_80_2common_2mavlink__msg__safety__set__allowed__area_8h.html#a90beb6b8f42e58e351816526b92206d9" xlink:title="Send a safety_set_allowed_area message. ">
<polygon fill="white" stroke="black" points="185,-108.5 185,-149.5 301,-149.5 301,-108.5 185,-108.5"/>
<text text-anchor="start" x="193" y="-137.5" font-family="Helvetica,sans-Serif" font-size="10.00">mavlink_msg_safety</text>
<text text-anchor="start" x="193" y="-126.5" font-family="Helvetica,sans-Serif" font-size="10.00">_set_allowed_area_get</text>
<text text-anchor="middle" x="243" y="-115.5" font-family="Helvetica,sans-Serif" font-size="10.00">_target_system</text>
</a>
</g>
</g>
<!-- Node1&#45;&gt;Node8 -->
<g id="edge7" class="edge"><title>Node1&#45;&gt;Node8</title>
<path fill="none" stroke="midnightblue" d="M86.3246,-216.933C106.115,-201.139 138.987,-176.266 170,-159 173.05,-157.302 176.217,-155.641 179.444,-154.028"/>
<polygon fill="midnightblue" stroke="midnightblue" points="181.151,-157.092 188.659,-149.616 178.128,-150.778 181.151,-157.092"/>
</g>
<!-- Node9 -->
<g id="node9" class="node"><title>Node9</title>
<g id="a_node9"><a xlink:href="$v1_80_2common_2mavlink__msg__safety__set__allowed__area_8h.html#a8b8cddbccfd44fd7641372ff818b4543" xlink:title="Get field target_component from safety_set_allowed_area message. ">
<polygon fill="white" stroke="black" points="185,-48.5 185,-89.5 301,-89.5 301,-48.5 185,-48.5"/>
<text text-anchor="start" x="193" y="-77.5" font-family="Helvetica,sans-Serif" font-size="10.00">mavlink_msg_safety</text>
<text text-anchor="start" x="193" y="-66.5" font-family="Helvetica,sans-Serif" font-size="10.00">_set_allowed_area_get</text>
<text text-anchor="middle" x="243" y="-55.5" font-family="Helvetica,sans-Serif" font-size="10.00">_target_component</text>
</a>
</g>
</g>
<!-- Node1&#45;&gt;Node9 -->
<g id="edge8" class="edge"><title>Node1&#45;&gt;Node9</title>
<path fill="none" stroke="midnightblue" d="M76.1048,-216.759C91.2177,-189.643 126.177,-132.709 170,-99 172.019,-97.4468 174.131,-95.9599 176.309,-94.5378"/>
<polygon fill="midnightblue" stroke="midnightblue" points="178.191,-97.4913 184.997,-89.372 174.613,-91.4746 178.191,-97.4913"/>
</g>
<!-- Node10 -->
<g id="node10" class="node"><title>Node10</title>
<g id="a_node10"><a xlink:href="$v1_80_2common_2mavlink__msg__safety__set__allowed__area_8h.html#a72db47d2f954ca6444dfd760bc4bae4d" xlink:title="Get field frame from safety_set_allowed_area message. ">
<polygon fill="white" stroke="black" points="170,-0 170,-30 316,-30 316,-0 170,-0"/>
<text text-anchor="start" x="178" y="-18" font-family="Helvetica,sans-Serif" font-size="10.00">mavlink_msg_safety</text>
<text text-anchor="middle" x="243" y="-7" font-family="Helvetica,sans-Serif" font-size="10.00">_set_allowed_area_get_frame</text>
</a>
</g>
</g>
<!-- Node1&#45;&gt;Node10 -->
<g id="edge9" class="edge"><title>Node1&#45;&gt;Node10</title>
<path fill="none" stroke="midnightblue" d="M71.8323,-216.738C81.7102,-180.504 111.46,-88.6267 170,-39 171.508,-37.722 173.086,-36.5113 174.721,-35.3645"/>
<polygon fill="midnightblue" stroke="midnightblue" points="176.581,-38.3297 183.31,-30.1464 172.947,-32.3472 176.581,-38.3297"/>
</g>
</g>
</svg>
