<?xml version="1.0" encoding="UTF-8" standalone="no"?>
<!DOCTYPE svg PUBLIC "-//W3C//DTD SVG 1.1//EN"
 "http://www.w3.org/Graphics/SVG/1.1/DTD/svg11.dtd">
<!-- Generated by graphviz version 2.36.0 (20140111.2315)
 -->
<!-- Title: mavlink_test_command_ack Pages: 1 -->
<svg width="670pt" height="312pt"
 viewBox="0.00 0.00 670.00 312.00" xmlns="http://www.w3.org/2000/svg" xmlns:xlink="http://www.w3.org/1999/xlink">
<g id="graph0" class="graph" transform="scale(1 1) rotate(0) translate(4 308)">
<title>mavlink_test_command_ack</title>
<polygon fill="white" stroke="none" points="-4,4 -4,-308 666,-308 666,4 -4,4"/>
<!-- Node1 -->
<g id="node1" class="node"><title>Node1</title>
<polygon fill="#bfbfbf" stroke="black" points="0.5,-142.5 0.5,-161.5 141.5,-161.5 141.5,-142.5 0.5,-142.5"/>
<text text-anchor="middle" x="71" y="-149.5" font-family="Helvetica,sans-Serif" font-size="10.00">mavlink_test_command_ack</text>
</g>
<!-- Node2 -->
<g id="node2" class="node"><title>Node2</title>
<g id="a_node2"><a xlink:href="$v0_89_2common_2mavlink__msg__command__ack_8h.html#a8d15727bf03d4f7a483ead7f30f58032" xlink:title="Encode a command_ack struct into a message. ">
<polygon fill="white" stroke="black" points="178,-274 178,-304 300,-304 300,-274 178,-274"/>
<text text-anchor="start" x="186" y="-292" font-family="Helvetica,sans-Serif" font-size="10.00">mavlink_msg_command</text>
<text text-anchor="middle" x="239" y="-281" font-family="Helvetica,sans-Serif" font-size="10.00">_ack_encode</text>
</a>
</g>
</g>
<!-- Node1&#45;&gt;Node2 -->
<g id="edge1" class="edge"><title>Node1&#45;&gt;Node2</title>
<path fill="none" stroke="midnightblue" d="M79.6479,-161.615C95.9995,-181.708 136.282,-228.782 178,-259 182.894,-262.545 188.27,-265.886 193.73,-268.959"/>
<polygon fill="midnightblue" stroke="midnightblue" points="192.459,-272.248 202.929,-273.867 195.754,-266.072 192.459,-272.248"/>
</g>
<!-- Node3 -->
<g id="node3" class="node"><title>Node3</title>
<g id="a_node3"><a xlink:href="$v0_89_2common_2mavlink__msg__command__ack_8h.html#ac32115a7d0ad63a15cf7fff6a0750d1c" xlink:title="Pack a command_ack message. ">
<polygon fill="white" stroke="black" points="354,-274 354,-304 476,-304 476,-274 354,-274"/>
<text text-anchor="start" x="362" y="-292" font-family="Helvetica,sans-Serif" font-size="10.00">mavlink_msg_command</text>
<text text-anchor="middle" x="415" y="-281" font-family="Helvetica,sans-Serif" font-size="10.00">_ack_pack</text>
</a>
</g>
</g>
<!-- Node1&#45;&gt;Node3 -->
<g id="edge7" class="edge"><title>Node1&#45;&gt;Node3</title>
<path fill="none" stroke="midnightblue" d="M83.2829,-161.72C101.839,-177.236 140.494,-207.619 178,-225 207.402,-238.625 285.668,-258.761 344.06,-272.796"/>
<polygon fill="midnightblue" stroke="midnightblue" points="343.441,-276.246 353.981,-275.168 345.069,-269.438 343.441,-276.246"/>
</g>
<!-- Node5 -->
<g id="node5" class="node"><title>Node5</title>
<g id="a_node5"><a xlink:href="$v0_89_2common_2mavlink__msg__command__ack_8h.html#af129410d0d650483dd36c1c5072fa1d0" xlink:title="Decode a command_ack message into a struct. ">
<polygon fill="white" stroke="black" points="178,-186 178,-216 300,-216 300,-186 178,-186"/>
<text text-anchor="start" x="186" y="-204" font-family="Helvetica,sans-Serif" font-size="10.00">mavlink_msg_command</text>
<text text-anchor="middle" x="239" y="-193" font-family="Helvetica,sans-Serif" font-size="10.00">_ack_decode</text>
</a>
</g>
</g>
<!-- Node1&#45;&gt;Node5 -->
<g id="edge4" class="edge"><title>Node1&#45;&gt;Node5</title>
<path fill="none" stroke="midnightblue" d="M104.401,-161.564C125.141,-167.686 152.699,-175.821 177.397,-183.111"/>
<polygon fill="midnightblue" stroke="midnightblue" points="176.477,-186.489 187.058,-185.963 178.458,-179.775 176.477,-186.489"/>
</g>
<!-- Node8 -->
<g id="node8" class="node"><title>Node8</title>
<g id="a_node8"><a xlink:href="$v0_89_2common_2mavlink__msg__command__ack_8h.html#a99a119bb7e7c8fd3fdff0d5ca70b46be" xlink:title="Pack a command_ack message on a channel. ">
<polygon fill="white" stroke="black" points="178,-137 178,-167 300,-167 300,-137 178,-137"/>
<text text-anchor="start" x="186" y="-155" font-family="Helvetica,sans-Serif" font-size="10.00">mavlink_msg_command</text>
<text text-anchor="middle" x="239" y="-144" font-family="Helvetica,sans-Serif" font-size="10.00">_ack_pack_chan</text>
</a>
</g>
</g>
<!-- Node1&#45;&gt;Node8 -->
<g id="edge8" class="edge"><title>Node1&#45;&gt;Node8</title>
<path fill="none" stroke="midnightblue" d="M141.918,-152C150.422,-152 159.114,-152 167.625,-152"/>
<polygon fill="midnightblue" stroke="midnightblue" points="167.891,-155.5 177.891,-152 167.891,-148.5 167.891,-155.5"/>
</g>
<!-- Node10 -->
<g id="node10" class="node"><title>Node10</title>
<g id="a_node10"><a xlink:href="$v0_89_2mavlink__helpers_8h.html#afea0a9befa84822fd62c2899ea0d849e" xlink:title="Pack a message to send it over a serial byte stream. ">
<polygon fill="white" stroke="black" points="182,-88 182,-118 296,-118 296,-88 182,-88"/>
<text text-anchor="start" x="190" y="-106" font-family="Helvetica,sans-Serif" font-size="10.00">mavlink_msg_to_send</text>
<text text-anchor="middle" x="239" y="-95" font-family="Helvetica,sans-Serif" font-size="10.00">_buffer</text>
</a>
</g>
</g>
<!-- Node1&#45;&gt;Node10 -->
<g id="edge10" class="edge"><title>Node1&#45;&gt;Node10</title>
<path fill="none" stroke="midnightblue" d="M104.401,-142.436C125.141,-136.314 152.699,-128.179 177.397,-120.889"/>
<polygon fill="midnightblue" stroke="midnightblue" points="178.458,-124.225 187.058,-118.037 176.477,-117.511 178.458,-124.225"/>
</g>
<!-- Node11 -->
<g id="node11" class="node"><title>Node11</title>
<g id="a_node11"><a xlink:href="$v0_89_2protocol_8h.html#aa86c08f27aabb7a2e12a67f189f590c8" xlink:title="Get the required buffer size for this message. ">
<polygon fill="white" stroke="black" points="179.5,-39 179.5,-69 298.5,-69 298.5,-39 179.5,-39"/>
<text text-anchor="start" x="187.5" y="-57" font-family="Helvetica,sans-Serif" font-size="10.00">mavlink_msg_get_send</text>
<text text-anchor="middle" x="239" y="-46" font-family="Helvetica,sans-Serif" font-size="10.00">_buffer_length</text>
</a>
</g>
</g>
<!-- Node1&#45;&gt;Node11 -->
<g id="edge11" class="edge"><title>Node1&#45;&gt;Node11</title>
<path fill="none" stroke="midnightblue" d="M83.8143,-142.387C102.799,-127.263 141.66,-97.6163 178,-78 181.054,-76.3513 184.247,-74.7505 187.499,-73.2102"/>
<polygon fill="midnightblue" stroke="midnightblue" points="189.079,-76.3375 196.76,-69.0399 186.204,-69.9549 189.079,-76.3375"/>
</g>
<!-- Node12 -->
<g id="node12" class="node"><title>Node12</title>
<g id="a_node12"><a xlink:href="$GCS__MAVLink_8h.html#ab753873a1ee10adedd0ce246311468f8" xlink:title="comm_send_ch">
<polygon fill="white" stroke="black" points="196,-0.5 196,-19.5 282,-19.5 282,-0.5 196,-0.5"/>
<text text-anchor="middle" x="239" y="-7.5" font-family="Helvetica,sans-Serif" font-size="10.00">comm_send_ch</text>
</a>
</g>
</g>
<!-- Node1&#45;&gt;Node12 -->
<g id="edge12" class="edge"><title>Node1&#45;&gt;Node12</title>
<path fill="none" stroke="midnightblue" d="M77.6064,-142.418C91.5676,-119.389 130.23,-60.5084 178,-29 181.101,-26.9545 184.437,-25.1172 187.89,-23.4689"/>
<polygon fill="midnightblue" stroke="midnightblue" points="189.37,-26.6433 197.226,-19.5338 186.651,-20.1929 189.37,-26.6433"/>
</g>
<!-- Node2&#45;&gt;Node3 -->
<g id="edge2" class="edge"><title>Node2&#45;&gt;Node3</title>
<path fill="none" stroke="midnightblue" d="M300.368,-289C314.27,-289 329.175,-289 343.465,-289"/>
<polygon fill="midnightblue" stroke="midnightblue" points="343.738,-292.5 353.738,-289 343.738,-285.5 343.738,-292.5"/>
</g>
<!-- Node4 -->
<g id="node4" class="node"><title>Node4</title>
<g id="a_node4"><a xlink:href="$v0_89_2mavlink__helpers_8h.html#af3bea083c5ec83f5b6570b2bd4a817d0" xlink:title="Finalize a MAVLink message with MAVLINK_COMM_0 as default channel. ">
<polygon fill="white" stroke="black" points="530.5,-279.5 530.5,-298.5 661.5,-298.5 661.5,-279.5 530.5,-279.5"/>
<text text-anchor="middle" x="596" y="-286.5" font-family="Helvetica,sans-Serif" font-size="10.00">mavlink_finalize_message</text>
</a>
</g>
</g>
<!-- Node3&#45;&gt;Node4 -->
<g id="edge3" class="edge"><title>Node3&#45;&gt;Node4</title>
<path fill="none" stroke="midnightblue" d="M476.102,-289C490.296,-289 505.6,-289 520.349,-289"/>
<polygon fill="midnightblue" stroke="midnightblue" points="520.452,-292.5 530.452,-289 520.452,-285.5 520.452,-292.5"/>
</g>
<!-- Node6 -->
<g id="node6" class="node"><title>Node6</title>
<g id="a_node6"><a xlink:href="$v0_89_2common_2mavlink__msg__command__ack_8h.html#a68f73117ca7bd8a1595884bea34e5ee9" xlink:title="Send a command_ack message. ">
<polygon fill="white" stroke="black" points="354,-225 354,-255 476,-255 476,-225 354,-225"/>
<text text-anchor="start" x="362" y="-243" font-family="Helvetica,sans-Serif" font-size="10.00">mavlink_msg_command</text>
<text text-anchor="middle" x="415" y="-232" font-family="Helvetica,sans-Serif" font-size="10.00">_ack_get_command</text>
</a>
</g>
</g>
<!-- Node5&#45;&gt;Node6 -->
<g id="edge5" class="edge"><title>Node5&#45;&gt;Node6</title>
<path fill="none" stroke="midnightblue" d="M300.368,-214.531C314.405,-217.677 329.464,-221.052 343.881,-224.284"/>
<polygon fill="midnightblue" stroke="midnightblue" points="343.215,-227.721 353.738,-226.493 344.746,-220.891 343.215,-227.721"/>
</g>
<!-- Node7 -->
<g id="node7" class="node"><title>Node7</title>
<g id="a_node7"><a xlink:href="$v0_89_2common_2mavlink__msg__command__ack_8h.html#a0120a4908c23f7d1790b598ddd08ecfc" xlink:title="Get field result from command_ack message. ">
<polygon fill="white" stroke="black" points="354,-176 354,-206 476,-206 476,-176 354,-176"/>
<text text-anchor="start" x="362" y="-194" font-family="Helvetica,sans-Serif" font-size="10.00">mavlink_msg_command</text>
<text text-anchor="middle" x="415" y="-183" font-family="Helvetica,sans-Serif" font-size="10.00">_ack_get_result</text>
</a>
</g>
</g>
<!-- Node5&#45;&gt;Node7 -->
<g id="edge6" class="edge"><title>Node5&#45;&gt;Node7</title>
<path fill="none" stroke="midnightblue" d="M300.368,-197.531C314.27,-196.732 329.175,-195.875 343.465,-195.054"/>
<polygon fill="midnightblue" stroke="midnightblue" points="343.956,-198.531 353.738,-194.463 343.554,-191.543 343.956,-198.531"/>
</g>
<!-- Node9 -->
<g id="node9" class="node"><title>Node9</title>
<g id="a_node9"><a xlink:href="$v0_89_2mavlink__helpers_8h.html#aa66131138fc02101dcc73b4b556ab422" xlink:title="Finalize a MAVLink message with channel assignment. ">
<polygon fill="white" stroke="black" points="336,-137.5 336,-156.5 494,-156.5 494,-137.5 336,-137.5"/>
<text text-anchor="middle" x="415" y="-144.5" font-family="Helvetica,sans-Serif" font-size="10.00">mavlink_finalize_message_chan</text>
</a>
</g>
</g>
<!-- Node8&#45;&gt;Node9 -->
<g id="edge9" class="edge"><title>Node8&#45;&gt;Node9</title>
<path fill="none" stroke="midnightblue" d="M300.368,-150.265C308.623,-150.028 317.231,-149.781 325.854,-149.533"/>
<polygon fill="midnightblue" stroke="midnightblue" points="326.068,-153.028 335.963,-149.242 325.867,-146.031 326.068,-153.028"/>
</g>
<!-- Node13 -->
<g id="node13" class="node"><title>Node13</title>
<g id="a_node13"><a xlink:href="$classAP__HAL_1_1Print.html#acc65391952a43334f8f5c9bef341f501" xlink:title="AP_HAL::Print::write">
<polygon fill="white" stroke="black" points="361,-0.5 361,-19.5 469,-19.5 469,-0.5 361,-0.5"/>
<text text-anchor="middle" x="415" y="-7.5" font-family="Helvetica,sans-Serif" font-size="10.00">AP_HAL::Print::write</text>
</a>
</g>
</g>
<!-- Node12&#45;&gt;Node13 -->
<g id="edge13" class="edge"><title>Node12&#45;&gt;Node13</title>
<path fill="none" stroke="midnightblue" d="M282.121,-10C302.617,-10 327.69,-10 350.45,-10"/>
<polygon fill="midnightblue" stroke="midnightblue" points="350.719,-13.5001 360.719,-10 350.719,-6.5001 350.719,-13.5001"/>
</g>
</g>
</svg>
