<?xml version="1.0" encoding="UTF-8" standalone="no"?>
<!DOCTYPE svg PUBLIC "-//W3C//DTD SVG 1.1//EN"
 "http://www.w3.org/Graphics/SVG/1.1/DTD/svg11.dtd">
<!-- Generated by graphviz version 2.36.0 (20140111.2315)
 -->
<!-- Title: mavlink_test_simstate Pages: 1 -->
<svg width="642pt" height="546pt"
 viewBox="0.00 0.00 642.00 546.00" xmlns="http://www.w3.org/2000/svg" xmlns:xlink="http://www.w3.org/1999/xlink">
<g id="graph0" class="graph" transform="scale(1 1) rotate(0) translate(4 542)">
<title>mavlink_test_simstate</title>
<polygon fill="white" stroke="none" points="-4,4 -4,-542 638,-542 638,4 -4,4"/>
<!-- Node1 -->
<g id="node1" class="node"><title>Node1</title>
<polygon fill="#bfbfbf" stroke="black" points="0.5,-229.5 0.5,-248.5 115.5,-248.5 115.5,-229.5 0.5,-229.5"/>
<text text-anchor="middle" x="58" y="-236.5" font-family="Helvetica,sans-Serif" font-size="10.00">mavlink_test_simstate</text>
</g>
<!-- Node2 -->
<g id="node2" class="node"><title>Node2</title>
<g id="a_node2"><a xlink:href="$v0_89_2ardupilotmega_2mavlink__msg__simstate_8h.html#a4d210858f371a74dd5bba9cab984c735" xlink:title="Encode a simstate struct into a message. ">
<polygon fill="white" stroke="black" points="153.5,-475 153.5,-505 270.5,-505 270.5,-475 153.5,-475"/>
<text text-anchor="start" x="161.5" y="-493" font-family="Helvetica,sans-Serif" font-size="10.00">mavlink_msg_simstate</text>
<text text-anchor="middle" x="212" y="-482" font-family="Helvetica,sans-Serif" font-size="10.00">_encode</text>
</a>
</g>
</g>
<!-- Node1&#45;&gt;Node2 -->
<g id="edge1" class="edge"><title>Node1&#45;&gt;Node2</title>
<path fill="none" stroke="midnightblue" d="M62.8814,-248.589C74.4015,-276.545 110.212,-359.913 152,-422 162.913,-438.214 177.242,-454.813 189.046,-467.552"/>
<polygon fill="midnightblue" stroke="midnightblue" points="186.61,-470.07 196.016,-474.947 191.704,-465.269 186.61,-470.07"/>
</g>
<!-- Node3 -->
<g id="node3" class="node"><title>Node3</title>
<g id="a_node3"><a xlink:href="$v0_89_2ardupilotmega_2mavlink__msg__simstate_8h.html#ae73091cce30bb287db29718fc286e3f6" xlink:title="Pack a simstate message. ">
<polygon fill="white" stroke="black" points="315.5,-518.5 315.5,-537.5 458.5,-537.5 458.5,-518.5 315.5,-518.5"/>
<text text-anchor="middle" x="387" y="-525.5" font-family="Helvetica,sans-Serif" font-size="10.00">mavlink_msg_simstate_pack</text>
</a>
</g>
</g>
<!-- Node1&#45;&gt;Node3 -->
<g id="edge14" class="edge"><title>Node1&#45;&gt;Node3</title>
<path fill="none" stroke="midnightblue" d="M68.5536,-248.72C98.9212,-279.705 195.724,-379.149 272,-465 288.555,-483.633 286.914,-494.71 308,-508 312.073,-510.567 316.461,-512.805 321.007,-514.757"/>
<polygon fill="midnightblue" stroke="midnightblue" points="319.916,-518.087 330.507,-518.373 322.407,-511.545 319.916,-518.087"/>
</g>
<!-- Node5 -->
<g id="node5" class="node"><title>Node5</title>
<g id="a_node5"><a xlink:href="$v0_89_2ardupilotmega_2mavlink__msg__simstate_8h.html#a212197249d3d2000912a0b26d04654e6" xlink:title="Decode a simstate message into a struct. ">
<polygon fill="white" stroke="black" points="153.5,-273 153.5,-303 270.5,-303 270.5,-273 153.5,-273"/>
<text text-anchor="start" x="161.5" y="-291" font-family="Helvetica,sans-Serif" font-size="10.00">mavlink_msg_simstate</text>
<text text-anchor="middle" x="212" y="-280" font-family="Helvetica,sans-Serif" font-size="10.00">_decode</text>
</a>
</g>
</g>
<!-- Node1&#45;&gt;Node5 -->
<g id="edge4" class="edge"><title>Node1&#45;&gt;Node5</title>
<path fill="none" stroke="midnightblue" d="M88.668,-248.564C107.407,-254.605 132.224,-262.605 154.606,-269.82"/>
<polygon fill="midnightblue" stroke="midnightblue" points="153.763,-273.226 164.355,-272.963 155.911,-266.564 153.763,-273.226"/>
</g>
<!-- Node15 -->
<g id="node15" class="node"><title>Node15</title>
<g id="a_node15"><a xlink:href="$v0_89_2ardupilotmega_2mavlink__msg__simstate_8h.html#a03ad82aa0344d6f97e282759fc7d1db8" xlink:title="Pack a simstate message on a channel. ">
<polygon fill="white" stroke="black" points="153.5,-224 153.5,-254 270.5,-254 270.5,-224 153.5,-224"/>
<text text-anchor="start" x="161.5" y="-242" font-family="Helvetica,sans-Serif" font-size="10.00">mavlink_msg_simstate</text>
<text text-anchor="middle" x="212" y="-231" font-family="Helvetica,sans-Serif" font-size="10.00">_pack_chan</text>
</a>
</g>
</g>
<!-- Node1&#45;&gt;Node15 -->
<g id="edge15" class="edge"><title>Node1&#45;&gt;Node15</title>
<path fill="none" stroke="midnightblue" d="M115.599,-239C124.553,-239 133.891,-239 143.071,-239"/>
<polygon fill="midnightblue" stroke="midnightblue" points="143.339,-242.5 153.339,-239 143.339,-235.5 143.339,-242.5"/>
</g>
<!-- Node17 -->
<g id="node17" class="node"><title>Node17</title>
<g id="a_node17"><a xlink:href="$v0_89_2mavlink__helpers_8h.html#afea0a9befa84822fd62c2899ea0d849e" xlink:title="Pack a message to send it over a serial byte stream. ">
<polygon fill="white" stroke="black" points="155,-175 155,-205 269,-205 269,-175 155,-175"/>
<text text-anchor="start" x="163" y="-193" font-family="Helvetica,sans-Serif" font-size="10.00">mavlink_msg_to_send</text>
<text text-anchor="middle" x="212" y="-182" font-family="Helvetica,sans-Serif" font-size="10.00">_buffer</text>
</a>
</g>
</g>
<!-- Node1&#45;&gt;Node17 -->
<g id="edge17" class="edge"><title>Node1&#45;&gt;Node17</title>
<path fill="none" stroke="midnightblue" d="M88.668,-229.436C107.407,-223.395 132.224,-215.395 154.606,-208.18"/>
<polygon fill="midnightblue" stroke="midnightblue" points="155.911,-211.436 164.355,-205.037 153.763,-204.774 155.911,-211.436"/>
</g>
<!-- Node18 -->
<g id="node18" class="node"><title>Node18</title>
<g id="a_node18"><a xlink:href="$v0_89_2protocol_8h.html#aa86c08f27aabb7a2e12a67f189f590c8" xlink:title="Get the required buffer size for this message. ">
<polygon fill="white" stroke="black" points="152.5,-126 152.5,-156 271.5,-156 271.5,-126 152.5,-126"/>
<text text-anchor="start" x="160.5" y="-144" font-family="Helvetica,sans-Serif" font-size="10.00">mavlink_msg_get_send</text>
<text text-anchor="middle" x="212" y="-133" font-family="Helvetica,sans-Serif" font-size="10.00">_buffer_length</text>
</a>
</g>
</g>
<!-- Node1&#45;&gt;Node18 -->
<g id="edge18" class="edge"><title>Node1&#45;&gt;Node18</title>
<path fill="none" stroke="midnightblue" d="M69.1544,-229.281C85.5219,-214.01 119.228,-184.167 152,-165 154.682,-163.432 157.485,-161.918 160.352,-160.467"/>
<polygon fill="midnightblue" stroke="midnightblue" points="162.117,-163.503 169.649,-156.051 159.114,-157.18 162.117,-163.503"/>
</g>
<!-- Node19 -->
<g id="node19" class="node"><title>Node19</title>
<g id="a_node19"><a xlink:href="$GCS__MAVLink_8h.html#ab753873a1ee10adedd0ce246311468f8" xlink:title="comm_send_ch">
<polygon fill="white" stroke="black" points="169,-44.5 169,-63.5 255,-63.5 255,-44.5 169,-44.5"/>
<text text-anchor="middle" x="212" y="-51.5" font-family="Helvetica,sans-Serif" font-size="10.00">comm_send_ch</text>
</a>
</g>
</g>
<!-- Node1&#45;&gt;Node19 -->
<g id="edge19" class="edge"><title>Node1&#45;&gt;Node19</title>
<path fill="none" stroke="midnightblue" d="M65.6499,-229.462C80.4478,-208.408 117.517,-156.609 152,-116 165.412,-100.205 181.72,-83.2207 193.788,-71.0294"/>
<polygon fill="midnightblue" stroke="midnightblue" points="196.446,-73.321 201.034,-63.7709 191.492,-68.3756 196.446,-73.321"/>
</g>
<!-- Node2&#45;&gt;Node3 -->
<g id="edge2" class="edge"><title>Node2&#45;&gt;Node3</title>
<path fill="none" stroke="midnightblue" d="M270.606,-502.653C290.611,-507.048 312.946,-511.953 332.596,-516.27"/>
<polygon fill="midnightblue" stroke="midnightblue" points="332.083,-519.74 342.601,-518.467 333.585,-512.903 332.083,-519.74"/>
</g>
<!-- Node4 -->
<g id="node4" class="node"><title>Node4</title>
<g id="a_node4"><a xlink:href="$v0_89_2mavlink__helpers_8h.html#af3bea083c5ec83f5b6570b2bd4a817d0" xlink:title="Finalize a MAVLink message with MAVLINK_COMM_0 as default channel. ">
<polygon fill="white" stroke="black" points="502.5,-518.5 502.5,-537.5 633.5,-537.5 633.5,-518.5 502.5,-518.5"/>
<text text-anchor="middle" x="568" y="-525.5" font-family="Helvetica,sans-Serif" font-size="10.00">mavlink_finalize_message</text>
</a>
</g>
</g>
<!-- Node3&#45;&gt;Node4 -->
<g id="edge3" class="edge"><title>Node3&#45;&gt;Node4</title>
<path fill="none" stroke="midnightblue" d="M458.746,-528C469.744,-528 481.138,-528 492.222,-528"/>
<polygon fill="midnightblue" stroke="midnightblue" points="492.294,-531.5 502.294,-528 492.294,-524.5 492.294,-531.5"/>
</g>
<!-- Node6 -->
<g id="node6" class="node"><title>Node6</title>
<g id="a_node6"><a xlink:href="$v0_89_2ardupilotmega_2mavlink__msg__simstate_8h.html#a9a47ae7c1482f2fd8ec50f21276a7c28" xlink:title="Send a simstate message. ">
<polygon fill="white" stroke="black" points="328.5,-469 328.5,-499 445.5,-499 445.5,-469 328.5,-469"/>
<text text-anchor="start" x="336.5" y="-487" font-family="Helvetica,sans-Serif" font-size="10.00">mavlink_msg_simstate</text>
<text text-anchor="middle" x="387" y="-476" font-family="Helvetica,sans-Serif" font-size="10.00">_get_roll</text>
</a>
</g>
</g>
<!-- Node5&#45;&gt;Node6 -->
<g id="edge5" class="edge"><title>Node5&#45;&gt;Node6</title>
<path fill="none" stroke="midnightblue" d="M221.413,-303.09C232.867,-323.644 254.006,-361.592 272,-394 288.03,-422.872 282.48,-438.041 308,-459 311.494,-461.87 315.324,-464.412 319.351,-466.665"/>
<polygon fill="midnightblue" stroke="midnightblue" points="317.915,-469.859 328.432,-471.146 321.014,-463.582 317.915,-469.859"/>
</g>
<!-- Node7 -->
<g id="node7" class="node"><title>Node7</title>
<g id="a_node7"><a xlink:href="$v0_89_2ardupilotmega_2mavlink__msg__simstate_8h.html#a4d5fe681e706a8a2dc724eaf9528fddc" xlink:title="Get field pitch from simstate message. ">
<polygon fill="white" stroke="black" points="328.5,-420 328.5,-450 445.5,-450 445.5,-420 328.5,-420"/>
<text text-anchor="start" x="336.5" y="-438" font-family="Helvetica,sans-Serif" font-size="10.00">mavlink_msg_simstate</text>
<text text-anchor="middle" x="387" y="-427" font-family="Helvetica,sans-Serif" font-size="10.00">_get_pitch</text>
</a>
</g>
</g>
<!-- Node5&#45;&gt;Node7 -->
<g id="edge6" class="edge"><title>Node5&#45;&gt;Node7</title>
<path fill="none" stroke="midnightblue" d="M220.79,-303.134C234.785,-328.852 266.625,-381.102 308,-410 311.476,-412.427 315.2,-414.629 319.067,-416.623"/>
<polygon fill="midnightblue" stroke="midnightblue" points="317.757,-419.874 328.301,-420.912 320.706,-413.525 317.757,-419.874"/>
</g>
<!-- Node8 -->
<g id="node8" class="node"><title>Node8</title>
<g id="a_node8"><a xlink:href="$v0_89_2ardupilotmega_2mavlink__msg__simstate_8h.html#a1266733beff2473533135619dde884fe" xlink:title="Get field yaw from simstate message. ">
<polygon fill="white" stroke="black" points="328.5,-371 328.5,-401 445.5,-401 445.5,-371 328.5,-371"/>
<text text-anchor="start" x="336.5" y="-389" font-family="Helvetica,sans-Serif" font-size="10.00">mavlink_msg_simstate</text>
<text text-anchor="middle" x="387" y="-378" font-family="Helvetica,sans-Serif" font-size="10.00">_get_yaw</text>
</a>
</g>
</g>
<!-- Node5&#45;&gt;Node8 -->
<g id="edge7" class="edge"><title>Node5&#45;&gt;Node8</title>
<path fill="none" stroke="midnightblue" d="M228.954,-303.076C246.923,-319.349 277.601,-345.07 308,-361 312.263,-363.234 316.762,-365.314 321.36,-367.242"/>
<polygon fill="midnightblue" stroke="midnightblue" points="320.306,-370.588 330.894,-370.986 322.865,-364.073 320.306,-370.588"/>
</g>
<!-- Node9 -->
<g id="node9" class="node"><title>Node9</title>
<g id="a_node9"><a xlink:href="$v0_89_2ardupilotmega_2mavlink__msg__simstate_8h.html#ac69e83492b56b00a537cdd93f10606d3" xlink:title="Get field xacc from simstate message. ">
<polygon fill="white" stroke="black" points="328.5,-322 328.5,-352 445.5,-352 445.5,-322 328.5,-322"/>
<text text-anchor="start" x="336.5" y="-340" font-family="Helvetica,sans-Serif" font-size="10.00">mavlink_msg_simstate</text>
<text text-anchor="middle" x="387" y="-329" font-family="Helvetica,sans-Serif" font-size="10.00">_get_xacc</text>
</a>
</g>
</g>
<!-- Node5&#45;&gt;Node9 -->
<g id="edge8" class="edge"><title>Node5&#45;&gt;Node9</title>
<path fill="none" stroke="midnightblue" d="M266.317,-303.101C284.242,-308.179 304.408,-313.89 323.006,-319.158"/>
<polygon fill="midnightblue" stroke="midnightblue" points="322.283,-322.591 332.859,-321.948 324.191,-315.856 322.283,-322.591"/>
</g>
<!-- Node10 -->
<g id="node10" class="node"><title>Node10</title>
<g id="a_node10"><a xlink:href="$v0_89_2ardupilotmega_2mavlink__msg__simstate_8h.html#a7a53039cc030795f95d39dbae312ddd4" xlink:title="Get field yacc from simstate message. ">
<polygon fill="white" stroke="black" points="328.5,-273 328.5,-303 445.5,-303 445.5,-273 328.5,-273"/>
<text text-anchor="start" x="336.5" y="-291" font-family="Helvetica,sans-Serif" font-size="10.00">mavlink_msg_simstate</text>
<text text-anchor="middle" x="387" y="-280" font-family="Helvetica,sans-Serif" font-size="10.00">_get_yacc</text>
</a>
</g>
</g>
<!-- Node5&#45;&gt;Node10 -->
<g id="edge9" class="edge"><title>Node5&#45;&gt;Node10</title>
<path fill="none" stroke="midnightblue" d="M270.606,-288C285.846,-288 302.437,-288 318.163,-288"/>
<polygon fill="midnightblue" stroke="midnightblue" points="318.35,-291.5 328.35,-288 318.35,-284.5 318.35,-291.5"/>
</g>
<!-- Node11 -->
<g id="node11" class="node"><title>Node11</title>
<g id="a_node11"><a xlink:href="$v0_89_2ardupilotmega_2mavlink__msg__simstate_8h.html#a49bad84cd9a28e7a830481cbc5c3d451" xlink:title="Get field zacc from simstate message. ">
<polygon fill="white" stroke="black" points="328.5,-224 328.5,-254 445.5,-254 445.5,-224 328.5,-224"/>
<text text-anchor="start" x="336.5" y="-242" font-family="Helvetica,sans-Serif" font-size="10.00">mavlink_msg_simstate</text>
<text text-anchor="middle" x="387" y="-231" font-family="Helvetica,sans-Serif" font-size="10.00">_get_zacc</text>
</a>
</g>
</g>
<!-- Node5&#45;&gt;Node11 -->
<g id="edge10" class="edge"><title>Node5&#45;&gt;Node11</title>
<path fill="none" stroke="midnightblue" d="M266.317,-272.899C284.242,-267.821 304.408,-262.11 323.006,-256.842"/>
<polygon fill="midnightblue" stroke="midnightblue" points="324.191,-260.144 332.859,-254.052 322.283,-253.409 324.191,-260.144"/>
</g>
<!-- Node12 -->
<g id="node12" class="node"><title>Node12</title>
<g id="a_node12"><a xlink:href="$v0_89_2ardupilotmega_2mavlink__msg__simstate_8h.html#a5e7d5ef84bf09aaa7738308b3f9f6c7d" xlink:title="Get field xgyro from simstate message. ">
<polygon fill="white" stroke="black" points="328.5,-175 328.5,-205 445.5,-205 445.5,-175 328.5,-175"/>
<text text-anchor="start" x="336.5" y="-193" font-family="Helvetica,sans-Serif" font-size="10.00">mavlink_msg_simstate</text>
<text text-anchor="middle" x="387" y="-182" font-family="Helvetica,sans-Serif" font-size="10.00">_get_xgyro</text>
</a>
</g>
</g>
<!-- Node5&#45;&gt;Node12 -->
<g id="edge11" class="edge"><title>Node5&#45;&gt;Node12</title>
<path fill="none" stroke="midnightblue" d="M256.124,-272.984C261.74,-270.113 267.2,-266.795 272,-263 293.199,-246.24 285.972,-229.654 308,-214 311.443,-211.553 315.142,-209.351 318.991,-207.369"/>
<polygon fill="midnightblue" stroke="midnightblue" points="320.571,-210.495 328.192,-203.134 317.645,-204.136 320.571,-210.495"/>
</g>
<!-- Node13 -->
<g id="node13" class="node"><title>Node13</title>
<g id="a_node13"><a xlink:href="$v0_89_2ardupilotmega_2mavlink__msg__simstate_8h.html#a7db0574d1a76e33c608667e4985d801d" xlink:title="Get field ygyro from simstate message. ">
<polygon fill="white" stroke="black" points="328.5,-126 328.5,-156 445.5,-156 445.5,-126 328.5,-126"/>
<text text-anchor="start" x="336.5" y="-144" font-family="Helvetica,sans-Serif" font-size="10.00">mavlink_msg_simstate</text>
<text text-anchor="middle" x="387" y="-133" font-family="Helvetica,sans-Serif" font-size="10.00">_get_ygyro</text>
</a>
</g>
</g>
<!-- Node5&#45;&gt;Node13 -->
<g id="edge12" class="edge"><title>Node5&#45;&gt;Node13</title>
<path fill="none" stroke="midnightblue" d="M259.262,-272.965C263.941,-270.162 268.317,-266.867 272,-263 304.001,-229.399 274.323,-196.921 308,-165 311.329,-161.845 315.064,-159.103 319.048,-156.722"/>
<polygon fill="midnightblue" stroke="midnightblue" points="320.816,-159.749 328.108,-152.063 317.615,-153.523 320.816,-159.749"/>
</g>
<!-- Node14 -->
<g id="node14" class="node"><title>Node14</title>
<g id="a_node14"><a xlink:href="$v0_89_2ardupilotmega_2mavlink__msg__simstate_8h.html#a430488c248a2b98d5bfbc846334441ac" xlink:title="Get field zgyro from simstate message. ">
<polygon fill="white" stroke="black" points="328.5,-77 328.5,-107 445.5,-107 445.5,-77 328.5,-77"/>
<text text-anchor="start" x="336.5" y="-95" font-family="Helvetica,sans-Serif" font-size="10.00">mavlink_msg_simstate</text>
<text text-anchor="middle" x="387" y="-84" font-family="Helvetica,sans-Serif" font-size="10.00">_get_zgyro</text>
</a>
</g>
</g>
<!-- Node5&#45;&gt;Node14 -->
<g id="edge13" class="edge"><title>Node5&#45;&gt;Node14</title>
<path fill="none" stroke="midnightblue" d="M260.274,-272.999C264.654,-270.201 268.683,-266.897 272,-263 315.594,-211.775 261.844,-164.93 308,-116 311.348,-112.451 315.207,-109.422 319.378,-106.838"/>
<polygon fill="midnightblue" stroke="midnightblue" points="321.097,-109.889 328.317,-102.135 317.837,-103.694 321.097,-109.889"/>
</g>
<!-- Node16 -->
<g id="node16" class="node"><title>Node16</title>
<g id="a_node16"><a xlink:href="$v0_89_2mavlink__helpers_8h.html#aa66131138fc02101dcc73b4b556ab422" xlink:title="Finalize a MAVLink message with channel assignment. ">
<polygon fill="white" stroke="black" points="308,-38.5 308,-57.5 466,-57.5 466,-38.5 308,-38.5"/>
<text text-anchor="middle" x="387" y="-45.5" font-family="Helvetica,sans-Serif" font-size="10.00">mavlink_finalize_message_chan</text>
</a>
</g>
</g>
<!-- Node15&#45;&gt;Node16 -->
<g id="edge16" class="edge"><title>Node15&#45;&gt;Node16</title>
<path fill="none" stroke="midnightblue" d="M260.274,-223.999C264.654,-221.201 268.683,-217.897 272,-214 315.594,-162.775 260.408,-114.533 308,-67 309.442,-65.5595 310.974,-64.2217 312.581,-62.9793"/>
<polygon fill="midnightblue" stroke="midnightblue" points="314.6,-65.8436 321.169,-57.5314 310.85,-59.9325 314.6,-65.8436"/>
</g>
<!-- Node20 -->
<g id="node20" class="node"><title>Node20</title>
<g id="a_node20"><a xlink:href="$classAP__HAL_1_1Print.html#acc65391952a43334f8f5c9bef341f501" xlink:title="AP_HAL::Print::write">
<polygon fill="white" stroke="black" points="333,-0.5 333,-19.5 441,-19.5 441,-0.5 333,-0.5"/>
<text text-anchor="middle" x="387" y="-7.5" font-family="Helvetica,sans-Serif" font-size="10.00">AP_HAL::Print::write</text>
</a>
</g>
</g>
<!-- Node19&#45;&gt;Node20 -->
<g id="edge20" class="edge"><title>Node19&#45;&gt;Node20</title>
<path fill="none" stroke="midnightblue" d="M248.599,-44.4662C266.416,-39.7367 288.327,-33.9843 308,-29 317.225,-26.6628 327.078,-24.2206 336.568,-21.8958"/>
<polygon fill="midnightblue" stroke="midnightblue" points="337.399,-25.2958 346.284,-19.5249 335.74,-18.4954 337.399,-25.2958"/>
</g>
</g>
</svg>
