<?xml version="1.0" encoding="UTF-8" standalone="no"?>
<!DOCTYPE svg PUBLIC "-//W3C//DTD SVG 1.1//EN"
 "http://www.w3.org/Graphics/SVG/1.1/DTD/svg11.dtd">
<!-- Generated by graphviz version 2.36.0 (20140111.2315)
 -->
<!-- Title: mavlink_test_attitude_target Pages: 1 -->
<svg width="636pt" height="631pt"
 viewBox="0.00 0.00 636.00 631.00" xmlns="http://www.w3.org/2000/svg" xmlns:xlink="http://www.w3.org/1999/xlink">
<g id="graph0" class="graph" transform="scale(1 1) rotate(0) translate(4 626.996)">
<title>mavlink_test_attitude_target</title>
<polygon fill="white" stroke="none" points="-4,4 -4,-626.996 632,-626.996 632,4 -4,4"/>
<!-- Node1 -->
<g id="node1" class="node"><title>Node1</title>
<polygon fill="#bfbfbf" stroke="black" points="0,-154 0,-184 110,-184 110,-154 0,-154"/>
<text text-anchor="start" x="8" y="-172" font-family="Helvetica,sans-Serif" font-size="10.00">mavlink_test_attitude</text>
<text text-anchor="middle" x="55" y="-161" font-family="Helvetica,sans-Serif" font-size="10.00">_target</text>
</g>
<!-- Node2 -->
<g id="node2" class="node"><title>Node2</title>
<g id="a_node2"><a xlink:href="$v0_89_2protocol_8h.html#a4486c3d5854cac1cb6a0fb1cc5ba570c" xlink:title="mav_array_memcpy">
<polygon fill="white" stroke="black" points="509.5,-224.5 509.5,-243.5 614.5,-243.5 614.5,-224.5 509.5,-224.5"/>
<text text-anchor="middle" x="562" y="-231.5" font-family="Helvetica,sans-Serif" font-size="10.00">mav_array_memcpy</text>
</a>
</g>
</g>
<!-- Node1&#45;&gt;Node2 -->
<g id="edge1" class="edge"><title>Node1&#45;&gt;Node2</title>
<path fill="none" stroke="midnightblue" d="M58.4294,-184.166C70.079,-250.933 127.065,-518.796 302,-596 366.244,-624.353 404.07,-638.461 460,-596 516.365,-553.208 549.727,-323.014 558.599,-253.737"/>
<polygon fill="midnightblue" stroke="midnightblue" points="562.083,-254.081 559.852,-243.723 555.137,-253.211 562.083,-254.081"/>
</g>
<!-- Node3 -->
<g id="node3" class="node"><title>Node3</title>
<g id="a_node3"><a xlink:href="$mavlink__msg__attitude__target_8h.html#aeea03266daaf6a349cfa998687ccb5fd" xlink:title="Encode a attitude_target struct. ">
<polygon fill="white" stroke="black" points="150,-176 150,-206 262,-206 262,-176 150,-176"/>
<text text-anchor="start" x="158" y="-194" font-family="Helvetica,sans-Serif" font-size="10.00">mavlink_msg_attitude</text>
<text text-anchor="middle" x="206" y="-183" font-family="Helvetica,sans-Serif" font-size="10.00">_target_encode</text>
</a>
</g>
</g>
<!-- Node1&#45;&gt;Node3 -->
<g id="edge2" class="edge"><title>Node1&#45;&gt;Node3</title>
<path fill="none" stroke="midnightblue" d="M110.214,-177.005C119.786,-178.418 129.842,-179.903 139.681,-181.356"/>
<polygon fill="midnightblue" stroke="midnightblue" points="139.422,-184.855 149.826,-182.854 140.445,-177.93 139.422,-184.855"/>
</g>
<!-- Node4 -->
<g id="node4" class="node"><title>Node4</title>
<g id="a_node4"><a xlink:href="$mavlink__msg__attitude__target_8h.html#aea23b42252242b2e48b263d5600e9250" xlink:title="Pack a attitude_target message. ">
<polygon fill="white" stroke="black" points="325,-137 325,-167 437,-167 437,-137 325,-137"/>
<text text-anchor="start" x="333" y="-155" font-family="Helvetica,sans-Serif" font-size="10.00">mavlink_msg_attitude</text>
<text text-anchor="middle" x="381" y="-144" font-family="Helvetica,sans-Serif" font-size="10.00">_target_pack</text>
</a>
</g>
</g>
<!-- Node1&#45;&gt;Node4 -->
<g id="edge14" class="edge"><title>Node1&#45;&gt;Node4</title>
<path fill="none" stroke="midnightblue" d="M110.23,-166.155C166.513,-163.201 254.557,-158.582 314.643,-155.429"/>
<polygon fill="midnightblue" stroke="midnightblue" points="314.976,-158.917 324.779,-154.897 314.609,-151.926 314.976,-158.917"/>
</g>
<!-- Node6 -->
<g id="node6" class="node"><title>Node6</title>
<g id="a_node6"><a xlink:href="$mavlink__msg__attitude__target_8h.html#a9fda17469111f24f4e9f5832748270e6" xlink:title="Decode a attitude_target message into a struct. ">
<polygon fill="white" stroke="black" points="150,-386 150,-416 262,-416 262,-386 150,-386"/>
<text text-anchor="start" x="158" y="-404" font-family="Helvetica,sans-Serif" font-size="10.00">mavlink_msg_attitude</text>
<text text-anchor="middle" x="206" y="-393" font-family="Helvetica,sans-Serif" font-size="10.00">_target_decode</text>
</a>
</g>
</g>
<!-- Node1&#45;&gt;Node6 -->
<g id="edge6" class="edge"><title>Node1&#45;&gt;Node6</title>
<path fill="none" stroke="midnightblue" d="M65.7763,-184.222C91.1396,-223.714 159.197,-329.683 189.766,-377.28"/>
<polygon fill="midnightblue" stroke="midnightblue" points="186.839,-379.199 195.188,-385.722 192.729,-375.416 186.839,-379.199"/>
</g>
<!-- Node14 -->
<g id="node14" class="node"><title>Node14</title>
<g id="a_node14"><a xlink:href="$mavlink__msg__attitude__target_8h.html#ade8669b14386e3bceeb977813873b5b2" xlink:title="Pack a attitude_target message on a channel. ">
<polygon fill="white" stroke="black" points="150,-225 150,-255 262,-255 262,-225 150,-225"/>
<text text-anchor="start" x="158" y="-243" font-family="Helvetica,sans-Serif" font-size="10.00">mavlink_msg_attitude</text>
<text text-anchor="middle" x="206" y="-232" font-family="Helvetica,sans-Serif" font-size="10.00">_target_pack_chan</text>
</a>
</g>
</g>
<!-- Node1&#45;&gt;Node14 -->
<g id="edge15" class="edge"><title>Node1&#45;&gt;Node14</title>
<path fill="none" stroke="midnightblue" d="M84.1176,-184.028C101.738,-193.281 125.01,-205.204 146,-215 150.138,-216.931 154.466,-218.886 158.816,-220.807"/>
<polygon fill="midnightblue" stroke="midnightblue" points="157.745,-224.157 168.311,-224.936 160.536,-217.738 157.745,-224.157"/>
</g>
<!-- Node16 -->
<g id="node16" class="node"><title>Node16</title>
<g id="a_node16"><a xlink:href="$v0_89_2mavlink__helpers_8h.html#afea0a9befa84822fd62c2899ea0d849e" xlink:title="Pack a message to send it over a serial byte stream. ">
<polygon fill="white" stroke="black" points="149,-88 149,-118 263,-118 263,-88 149,-88"/>
<text text-anchor="start" x="157" y="-106" font-family="Helvetica,sans-Serif" font-size="10.00">mavlink_msg_to_send</text>
<text text-anchor="middle" x="206" y="-95" font-family="Helvetica,sans-Serif" font-size="10.00">_buffer</text>
</a>
</g>
</g>
<!-- Node1&#45;&gt;Node16 -->
<g id="edge18" class="edge"><title>Node1&#45;&gt;Node16</title>
<path fill="none" stroke="midnightblue" d="M90.1836,-153.858C111.384,-144.468 138.817,-132.316 161.552,-122.246"/>
<polygon fill="midnightblue" stroke="midnightblue" points="163.25,-125.321 170.975,-118.071 160.415,-118.921 163.25,-125.321"/>
</g>
<!-- Node17 -->
<g id="node17" class="node"><title>Node17</title>
<g id="a_node17"><a xlink:href="$v0_89_2protocol_8h.html#aa86c08f27aabb7a2e12a67f189f590c8" xlink:title="Get the required buffer size for this message. ">
<polygon fill="white" stroke="black" points="146.5,-39 146.5,-69 265.5,-69 265.5,-39 146.5,-39"/>
<text text-anchor="start" x="154.5" y="-57" font-family="Helvetica,sans-Serif" font-size="10.00">mavlink_msg_get_send</text>
<text text-anchor="middle" x="206" y="-46" font-family="Helvetica,sans-Serif" font-size="10.00">_buffer_length</text>
</a>
</g>
</g>
<!-- Node1&#45;&gt;Node17 -->
<g id="edge19" class="edge"><title>Node1&#45;&gt;Node17</title>
<path fill="none" stroke="midnightblue" d="M67.6155,-153.919C83.4772,-134.187 113.659,-99.59 146,-78 148.25,-76.4977 150.61,-75.0633 153.036,-73.6976"/>
<polygon fill="midnightblue" stroke="midnightblue" points="154.76,-76.747 162.045,-69.0541 151.552,-70.5249 154.76,-76.747"/>
</g>
<!-- Node18 -->
<g id="node18" class="node"><title>Node18</title>
<g id="a_node18"><a xlink:href="$GCS__MAVLink_8h.html#ab753873a1ee10adedd0ce246311468f8" xlink:title="comm_send_ch">
<polygon fill="white" stroke="black" points="163,-0.5 163,-19.5 249,-19.5 249,-0.5 163,-0.5"/>
<text text-anchor="middle" x="206" y="-7.5" font-family="Helvetica,sans-Serif" font-size="10.00">comm_send_ch</text>
</a>
</g>
</g>
<!-- Node1&#45;&gt;Node18 -->
<g id="edge20" class="edge"><title>Node1&#45;&gt;Node18</title>
<path fill="none" stroke="midnightblue" d="M61.637,-153.913C73.0874,-125.303 101.791,-62.993 146,-29 148.438,-27.1254 151.067,-25.4326 153.814,-23.9043"/>
<polygon fill="midnightblue" stroke="midnightblue" points="155.385,-27.0323 162.899,-19.5622 152.367,-20.7166 155.385,-27.0323"/>
</g>
<!-- Node3&#45;&gt;Node4 -->
<g id="edge3" class="edge"><title>Node3&#45;&gt;Node4</title>
<path fill="none" stroke="midnightblue" d="M262.214,-178.553C278.912,-174.789 297.407,-170.619 314.698,-166.721"/>
<polygon fill="midnightblue" stroke="midnightblue" points="315.732,-170.076 324.717,-164.463 314.192,-163.247 315.732,-170.076"/>
</g>
<!-- Node4&#45;&gt;Node2 -->
<g id="edge4" class="edge"><title>Node4&#45;&gt;Node2</title>
<path fill="none" stroke="midnightblue" d="M434.156,-167.086C442.898,-170.077 451.791,-173.413 460,-177 487.554,-189.041 517.333,-206.432 537.364,-218.833"/>
<polygon fill="midnightblue" stroke="midnightblue" points="535.767,-221.963 546.099,-224.309 539.485,-216.032 535.767,-221.963"/>
</g>
<!-- Node5 -->
<g id="node5" class="node"><title>Node5</title>
<g id="a_node5"><a xlink:href="$v0_89_2mavlink__helpers_8h.html#af3bea083c5ec83f5b6570b2bd4a817d0" xlink:title="Finalize a MAVLink message with MAVLINK_COMM_0 as default channel. ">
<polygon fill="white" stroke="black" points="496.5,-142.5 496.5,-161.5 627.5,-161.5 627.5,-142.5 496.5,-142.5"/>
<text text-anchor="middle" x="562" y="-149.5" font-family="Helvetica,sans-Serif" font-size="10.00">mavlink_finalize_message</text>
</a>
</g>
</g>
<!-- Node4&#45;&gt;Node5 -->
<g id="edge5" class="edge"><title>Node4&#45;&gt;Node5</title>
<path fill="none" stroke="midnightblue" d="M437.166,-152C452.649,-152 469.747,-152 486.168,-152"/>
<polygon fill="midnightblue" stroke="midnightblue" points="486.284,-155.5 496.284,-152 486.284,-148.5 486.284,-155.5"/>
</g>
<!-- Node7 -->
<g id="node7" class="node"><title>Node7</title>
<g id="a_node7"><a xlink:href="$mavlink__msg__attitude__target_8h.html#a2dccac06e077e0091c201245c3c14e51" xlink:title="Send a attitude_target message. ">
<polygon fill="white" stroke="black" points="315,-312 315,-342 447,-342 447,-312 315,-312"/>
<text text-anchor="start" x="323" y="-330" font-family="Helvetica,sans-Serif" font-size="10.00">mavlink_msg_attitude</text>
<text text-anchor="middle" x="381" y="-319" font-family="Helvetica,sans-Serif" font-size="10.00">_target_get_time_boot_ms</text>
</a>
</g>
</g>
<!-- Node6&#45;&gt;Node7 -->
<g id="edge7" class="edge"><title>Node6&#45;&gt;Node7</title>
<path fill="none" stroke="midnightblue" d="M233.461,-385.843C252.213,-375.48 278.173,-361.883 302,-352 307.47,-349.731 313.223,-347.539 319.025,-345.459"/>
<polygon fill="midnightblue" stroke="midnightblue" points="320.491,-348.655 328.79,-342.069 318.195,-342.042 320.491,-348.655"/>
</g>
<!-- Node8 -->
<g id="node8" class="node"><title>Node8</title>
<g id="a_node8"><a xlink:href="$mavlink__msg__attitude__target_8h.html#a0a2573b7b25c1bf79b56d26e6ca6b11d" xlink:title="Get field q from attitude_target message. ">
<polygon fill="white" stroke="black" points="325,-263 325,-293 437,-293 437,-263 325,-263"/>
<text text-anchor="start" x="333" y="-281" font-family="Helvetica,sans-Serif" font-size="10.00">mavlink_msg_attitude</text>
<text text-anchor="middle" x="381" y="-270" font-family="Helvetica,sans-Serif" font-size="10.00">_target_get_q</text>
</a>
</g>
</g>
<!-- Node6&#45;&gt;Node8 -->
<g id="edge8" class="edge"><title>Node6&#45;&gt;Node8</title>
<path fill="none" stroke="midnightblue" d="M217.495,-385.952C233.36,-364.3 265.497,-324.494 302,-302 306.154,-299.44 310.602,-297.135 315.189,-295.062"/>
<polygon fill="midnightblue" stroke="midnightblue" points="316.837,-298.169 324.752,-291.126 314.173,-291.695 316.837,-298.169"/>
</g>
<!-- Node9 -->
<g id="node9" class="node"><title>Node9</title>
<g id="a_node9"><a xlink:href="$mavlink__msg__attitude__target_8h.html#a1a520e52f7e642883ff32eb1d4e74aff" xlink:title="Get field body_roll_rate from attitude_target message. ">
<polygon fill="white" stroke="black" points="315.5,-557 315.5,-587 446.5,-587 446.5,-557 315.5,-557"/>
<text text-anchor="start" x="323.5" y="-575" font-family="Helvetica,sans-Serif" font-size="10.00">mavlink_msg_attitude</text>
<text text-anchor="middle" x="381" y="-564" font-family="Helvetica,sans-Serif" font-size="10.00">_target_get_body_roll_rate</text>
</a>
</g>
</g>
<!-- Node6&#45;&gt;Node9 -->
<g id="edge9" class="edge"><title>Node6&#45;&gt;Node9</title>
<path fill="none" stroke="midnightblue" d="M212.812,-416.278C224.857,-445.911 255.369,-511.4 302,-547 304.464,-548.881 307.073,-550.623 309.786,-552.236"/>
<polygon fill="midnightblue" stroke="midnightblue" points="308.271,-555.393 318.749,-556.96 311.534,-549.201 308.271,-555.393"/>
</g>
<!-- Node10 -->
<g id="node10" class="node"><title>Node10</title>
<g id="a_node10"><a xlink:href="$mavlink__msg__attitude__target_8h.html#a6d1d81605db75e891d77d59f4d5d1388" xlink:title="Get field body_pitch_rate from attitude_target message. ">
<polygon fill="white" stroke="black" points="311,-508 311,-538 451,-538 451,-508 311,-508"/>
<text text-anchor="start" x="319" y="-526" font-family="Helvetica,sans-Serif" font-size="10.00">mavlink_msg_attitude</text>
<text text-anchor="middle" x="381" y="-515" font-family="Helvetica,sans-Serif" font-size="10.00">_target_get_body_pitch_rate</text>
</a>
</g>
</g>
<!-- Node6&#45;&gt;Node10 -->
<g id="edge10" class="edge"><title>Node6&#45;&gt;Node10</title>
<path fill="none" stroke="midnightblue" d="M217.869,-416.033C233.955,-437.245 266.096,-475.839 302,-498 305.375,-500.083 308.94,-502.009 312.615,-503.787"/>
<polygon fill="midnightblue" stroke="midnightblue" points="311.365,-507.062 321.926,-507.909 314.198,-500.661 311.365,-507.062"/>
</g>
<!-- Node11 -->
<g id="node11" class="node"><title>Node11</title>
<g id="a_node11"><a xlink:href="$mavlink__msg__attitude__target_8h.html#a5e4b3f2cb54fc9ebbf7001ed3c74b29e" xlink:title="Get field body_yaw_rate from attitude_target message. ">
<polygon fill="white" stroke="black" points="312.5,-459 312.5,-489 449.5,-489 449.5,-459 312.5,-459"/>
<text text-anchor="start" x="320.5" y="-477" font-family="Helvetica,sans-Serif" font-size="10.00">mavlink_msg_attitude</text>
<text text-anchor="middle" x="381" y="-466" font-family="Helvetica,sans-Serif" font-size="10.00">_target_get_body_yaw_rate</text>
</a>
</g>
</g>
<!-- Node6&#45;&gt;Node11 -->
<g id="edge11" class="edge"><title>Node6&#45;&gt;Node11</title>
<path fill="none" stroke="midnightblue" d="M233.905,-416.029C252.642,-426.136 278.405,-439.328 302,-449 307.479,-451.246 313.239,-453.422 319.044,-455.493"/>
<polygon fill="midnightblue" stroke="midnightblue" points="318.22,-458.911 328.815,-458.871 320.507,-452.295 318.22,-458.911"/>
</g>
<!-- Node12 -->
<g id="node12" class="node"><title>Node12</title>
<g id="a_node12"><a xlink:href="$mavlink__msg__attitude__target_8h.html#ac81d99e6d8cdf7c2967b81a505942acd" xlink:title="Get field thrust from attitude_target message. ">
<polygon fill="white" stroke="black" points="325,-410 325,-440 437,-440 437,-410 325,-410"/>
<text text-anchor="start" x="333" y="-428" font-family="Helvetica,sans-Serif" font-size="10.00">mavlink_msg_attitude</text>
<text text-anchor="middle" x="381" y="-417" font-family="Helvetica,sans-Serif" font-size="10.00">_target_get_thrust</text>
</a>
</g>
</g>
<!-- Node6&#45;&gt;Node12 -->
<g id="edge12" class="edge"><title>Node6&#45;&gt;Node12</title>
<path fill="none" stroke="midnightblue" d="M262.214,-408.66C278.912,-410.976 297.407,-413.542 314.698,-415.941"/>
<polygon fill="midnightblue" stroke="midnightblue" points="314.331,-419.423 324.717,-417.331 315.293,-412.49 314.331,-419.423"/>
</g>
<!-- Node13 -->
<g id="node13" class="node"><title>Node13</title>
<g id="a_node13"><a xlink:href="$mavlink__msg__attitude__target_8h.html#a31452b5b7c5c6dbe913e64fbe290a09b" xlink:title="Get field type_mask from attitude_target message. ">
<polygon fill="white" stroke="black" points="321.5,-361 321.5,-391 440.5,-391 440.5,-361 321.5,-361"/>
<text text-anchor="start" x="329.5" y="-379" font-family="Helvetica,sans-Serif" font-size="10.00">mavlink_msg_attitude</text>
<text text-anchor="middle" x="381" y="-368" font-family="Helvetica,sans-Serif" font-size="10.00">_target_get_type_mask</text>
</a>
</g>
</g>
<!-- Node6&#45;&gt;Node13 -->
<g id="edge13" class="edge"><title>Node6&#45;&gt;Node13</title>
<path fill="none" stroke="midnightblue" d="M262.214,-393.021C277.855,-390.761 295.073,-388.273 311.401,-385.913"/>
<polygon fill="midnightblue" stroke="midnightblue" points="312.034,-389.358 321.431,-384.464 311.033,-382.43 312.034,-389.358"/>
</g>
<!-- Node14&#45;&gt;Node2 -->
<g id="edge16" class="edge"><title>Node14&#45;&gt;Node2</title>
<path fill="none" stroke="midnightblue" d="M262.312,-239.062C326.455,-237.975 431.921,-236.188 498.844,-235.053"/>
<polygon fill="midnightblue" stroke="midnightblue" points="499.302,-238.546 509.241,-234.877 499.183,-231.547 499.302,-238.546"/>
</g>
<!-- Node15 -->
<g id="node15" class="node"><title>Node15</title>
<g id="a_node15"><a xlink:href="$v0_89_2mavlink__helpers_8h.html#aa66131138fc02101dcc73b4b556ab422" xlink:title="Finalize a MAVLink message with channel assignment. ">
<polygon fill="white" stroke="black" points="302,-186.5 302,-205.5 460,-205.5 460,-186.5 302,-186.5"/>
<text text-anchor="middle" x="381" y="-193.5" font-family="Helvetica,sans-Serif" font-size="10.00">mavlink_finalize_message_chan</text>
</a>
</g>
</g>
<!-- Node14&#45;&gt;Node15 -->
<g id="edge17" class="edge"><title>Node14&#45;&gt;Node15</title>
<path fill="none" stroke="midnightblue" d="M262.214,-225.957C284.938,-220.178 310.992,-213.551 332.809,-208.002"/>
<polygon fill="midnightblue" stroke="midnightblue" points="333.679,-211.393 342.507,-205.536 331.953,-204.609 333.679,-211.393"/>
</g>
<!-- Node19 -->
<g id="node19" class="node"><title>Node19</title>
<g id="a_node19"><a xlink:href="$classAP__HAL_1_1Print.html#acc65391952a43334f8f5c9bef341f501" xlink:title="AP_HAL::Print::write">
<polygon fill="white" stroke="black" points="327,-0.5 327,-19.5 435,-19.5 435,-0.5 327,-0.5"/>
<text text-anchor="middle" x="381" y="-7.5" font-family="Helvetica,sans-Serif" font-size="10.00">AP_HAL::Print::write</text>
</a>
</g>
</g>
<!-- Node18&#45;&gt;Node19 -->
<g id="edge21" class="edge"><title>Node18&#45;&gt;Node19</title>
<path fill="none" stroke="midnightblue" d="M249.321,-10C269.619,-10 294.355,-10 316.822,-10"/>
<polygon fill="midnightblue" stroke="midnightblue" points="316.961,-13.5001 326.961,-10 316.961,-6.5001 316.961,-13.5001"/>
</g>
</g>
</svg>
