<?xml version="1.0" encoding="UTF-8" standalone="no"?>
<!DOCTYPE svg PUBLIC "-//W3C//DTD SVG 1.1//EN"
 "http://www.w3.org/Graphics/SVG/1.1/DTD/svg11.dtd">
<!-- Generated by graphviz version 2.36.0 (20140111.2315)
 -->
<!-- Title: mavlink_test_terrain_report Pages: 1 -->
<svg width="630pt" height="479pt"
 viewBox="0.00 0.00 630.00 479.00" xmlns="http://www.w3.org/2000/svg" xmlns:xlink="http://www.w3.org/1999/xlink">
<g id="graph0" class="graph" transform="scale(1 1) rotate(0) translate(4 475)">
<title>mavlink_test_terrain_report</title>
<polygon fill="white" stroke="none" points="-4,4 -4,-475 626,-475 626,4 -4,4"/>
<!-- Node1 -->
<g id="node1" class="node"><title>Node1</title>
<polygon fill="#bfbfbf" stroke="black" points="0,-180 0,-210 104,-210 104,-180 0,-180"/>
<text text-anchor="start" x="8" y="-198" font-family="Helvetica,sans-Serif" font-size="10.00">mavlink_test_terrain</text>
<text text-anchor="middle" x="52" y="-187" font-family="Helvetica,sans-Serif" font-size="10.00">_report</text>
</g>
<!-- Node2 -->
<g id="node2" class="node"><title>Node2</title>
<g id="a_node2"><a xlink:href="$mavlink__msg__terrain__report_8h.html#a3495395429a7c7780056333cf712ccd3" xlink:title="Encode a terrain_report struct. ">
<polygon fill="white" stroke="black" points="146.5,-410 146.5,-440 253.5,-440 253.5,-410 146.5,-410"/>
<text text-anchor="start" x="154.5" y="-428" font-family="Helvetica,sans-Serif" font-size="10.00">mavlink_msg_terrain</text>
<text text-anchor="middle" x="200" y="-417" font-family="Helvetica,sans-Serif" font-size="10.00">_report_encode</text>
</a>
</g>
</g>
<!-- Node1&#45;&gt;Node2 -->
<g id="edge1" class="edge"><title>Node1&#45;&gt;Node2</title>
<path fill="none" stroke="midnightblue" d="M59.0778,-210.306C71.6512,-241.022 102.502,-311.705 140,-364 149.975,-377.912 163.049,-391.761 174.354,-402.738"/>
<polygon fill="midnightblue" stroke="midnightblue" points="172.176,-405.497 181.838,-409.845 176.997,-400.421 172.176,-405.497"/>
</g>
<!-- Node3 -->
<g id="node3" class="node"><title>Node3</title>
<g id="a_node3"><a xlink:href="$mavlink__msg__terrain__report_8h.html#a5561b5515ba0a653c916312d77c7afac" xlink:title="Pack a terrain_report message. ">
<polygon fill="white" stroke="black" points="321.5,-441 321.5,-471 428.5,-471 428.5,-441 321.5,-441"/>
<text text-anchor="start" x="329.5" y="-459" font-family="Helvetica,sans-Serif" font-size="10.00">mavlink_msg_terrain</text>
<text text-anchor="middle" x="375" y="-448" font-family="Helvetica,sans-Serif" font-size="10.00">_report_pack</text>
</a>
</g>
</g>
<!-- Node1&#45;&gt;Node3 -->
<g id="edge12" class="edge"><title>Node1&#45;&gt;Node3</title>
<path fill="none" stroke="midnightblue" d="M68.3013,-210.239C119.507,-261.186 282.416,-422.849 296,-431 300.999,-434 306.398,-436.68 311.94,-439.066"/>
<polygon fill="midnightblue" stroke="midnightblue" points="310.771,-442.368 321.356,-442.809 313.356,-435.863 310.771,-442.368"/>
</g>
<!-- Node5 -->
<g id="node5" class="node"><title>Node5</title>
<g id="a_node5"><a xlink:href="$mavlink__msg__terrain__report_8h.html#adf2f28b8e057ad08ca085a9a5df85c2c" xlink:title="Decode a terrain_report message into a struct. ">
<polygon fill="white" stroke="black" points="146.5,-229 146.5,-259 253.5,-259 253.5,-229 146.5,-229"/>
<text text-anchor="start" x="154.5" y="-247" font-family="Helvetica,sans-Serif" font-size="10.00">mavlink_msg_terrain</text>
<text text-anchor="middle" x="200" y="-236" font-family="Helvetica,sans-Serif" font-size="10.00">_report_decode</text>
</a>
</g>
</g>
<!-- Node1&#45;&gt;Node5 -->
<g id="edge4" class="edge"><title>Node1&#45;&gt;Node5</title>
<path fill="none" stroke="midnightblue" d="M97.9961,-210.101C112.636,-215.015 129.046,-220.522 144.314,-225.647"/>
<polygon fill="midnightblue" stroke="midnightblue" points="143.558,-229.085 154.152,-228.948 145.786,-222.448 143.558,-229.085"/>
</g>
<!-- Node13 -->
<g id="node13" class="node"><title>Node13</title>
<g id="a_node13"><a xlink:href="$mavlink__msg__terrain__report_8h.html#a0a6e051999b4d347c9ee2b726af34f33" xlink:title="Pack a terrain_report message on a channel. ">
<polygon fill="white" stroke="black" points="146.5,-180 146.5,-210 253.5,-210 253.5,-180 146.5,-180"/>
<text text-anchor="start" x="154.5" y="-198" font-family="Helvetica,sans-Serif" font-size="10.00">mavlink_msg_terrain</text>
<text text-anchor="middle" x="200" y="-187" font-family="Helvetica,sans-Serif" font-size="10.00">_report_pack_chan</text>
</a>
</g>
</g>
<!-- Node1&#45;&gt;Node13 -->
<g id="edge13" class="edge"><title>Node1&#45;&gt;Node13</title>
<path fill="none" stroke="midnightblue" d="M104.064,-195C114.408,-195 125.4,-195 136.098,-195"/>
<polygon fill="midnightblue" stroke="midnightblue" points="136.233,-198.5 146.233,-195 136.233,-191.5 136.233,-198.5"/>
</g>
<!-- Node15 -->
<g id="node15" class="node"><title>Node15</title>
<g id="a_node15"><a xlink:href="$v0_89_2mavlink__helpers_8h.html#afea0a9befa84822fd62c2899ea0d849e" xlink:title="Pack a message to send it over a serial byte stream. ">
<polygon fill="white" stroke="black" points="143,-131 143,-161 257,-161 257,-131 143,-131"/>
<text text-anchor="start" x="151" y="-149" font-family="Helvetica,sans-Serif" font-size="10.00">mavlink_msg_to_send</text>
<text text-anchor="middle" x="200" y="-138" font-family="Helvetica,sans-Serif" font-size="10.00">_buffer</text>
</a>
</g>
</g>
<!-- Node1&#45;&gt;Node15 -->
<g id="edge15" class="edge"><title>Node1&#45;&gt;Node15</title>
<path fill="none" stroke="midnightblue" d="M97.9961,-179.899C112.636,-174.985 129.046,-169.478 144.314,-164.353"/>
<polygon fill="midnightblue" stroke="midnightblue" points="145.786,-167.552 154.152,-161.052 143.558,-160.915 145.786,-167.552"/>
</g>
<!-- Node16 -->
<g id="node16" class="node"><title>Node16</title>
<g id="a_node16"><a xlink:href="$v0_89_2protocol_8h.html#aa86c08f27aabb7a2e12a67f189f590c8" xlink:title="Get the required buffer size for this message. ">
<polygon fill="white" stroke="black" points="140.5,-82 140.5,-112 259.5,-112 259.5,-82 140.5,-82"/>
<text text-anchor="start" x="148.5" y="-100" font-family="Helvetica,sans-Serif" font-size="10.00">mavlink_msg_get_send</text>
<text text-anchor="middle" x="200" y="-89" font-family="Helvetica,sans-Serif" font-size="10.00">_buffer_length</text>
</a>
</g>
</g>
<!-- Node1&#45;&gt;Node16 -->
<g id="edge16" class="edge"><title>Node1&#45;&gt;Node16</title>
<path fill="none" stroke="midnightblue" d="M67.8618,-179.736C84.315,-163.498 112.202,-137.875 140,-121 142.61,-119.416 145.343,-117.894 148.143,-116.44"/>
<polygon fill="midnightblue" stroke="midnightblue" points="149.767,-119.542 157.24,-112.031 146.714,-113.243 149.767,-119.542"/>
</g>
<!-- Node17 -->
<g id="node17" class="node"><title>Node17</title>
<g id="a_node17"><a xlink:href="$GCS__MAVLink_8h.html#ab753873a1ee10adedd0ce246311468f8" xlink:title="comm_send_ch">
<polygon fill="white" stroke="black" points="157,-22.5 157,-41.5 243,-41.5 243,-22.5 157,-22.5"/>
<text text-anchor="middle" x="200" y="-29.5" font-family="Helvetica,sans-Serif" font-size="10.00">comm_send_ch</text>
</a>
</g>
</g>
<!-- Node1&#45;&gt;Node17 -->
<g id="edge17" class="edge"><title>Node1&#45;&gt;Node17</title>
<path fill="none" stroke="midnightblue" d="M61.3905,-179.682C75.3994,-155.025 105.446,-105.875 140,-72 149.734,-62.4568 162.016,-53.7201 172.85,-46.863"/>
<polygon fill="midnightblue" stroke="midnightblue" points="174.811,-49.7665 181.522,-41.5685 171.163,-43.7919 174.811,-49.7665"/>
</g>
<!-- Node2&#45;&gt;Node3 -->
<g id="edge2" class="edge"><title>Node2&#45;&gt;Node3</title>
<path fill="none" stroke="midnightblue" d="M253.846,-434.469C272.039,-437.73 292.586,-441.411 311.477,-444.796"/>
<polygon fill="midnightblue" stroke="midnightblue" points="311.017,-448.27 321.478,-446.589 312.252,-441.38 311.017,-448.27"/>
</g>
<!-- Node4 -->
<g id="node4" class="node"><title>Node4</title>
<g id="a_node4"><a xlink:href="$v0_89_2mavlink__helpers_8h.html#af3bea083c5ec83f5b6570b2bd4a817d0" xlink:title="Finalize a MAVLink message with MAVLINK_COMM_0 as default channel. ">
<polygon fill="white" stroke="black" points="490.5,-446.5 490.5,-465.5 621.5,-465.5 621.5,-446.5 490.5,-446.5"/>
<text text-anchor="middle" x="556" y="-453.5" font-family="Helvetica,sans-Serif" font-size="10.00">mavlink_finalize_message</text>
</a>
</g>
</g>
<!-- Node3&#45;&gt;Node4 -->
<g id="edge3" class="edge"><title>Node3&#45;&gt;Node4</title>
<path fill="none" stroke="midnightblue" d="M428.738,-456C444.858,-456 462.905,-456 480.199,-456"/>
<polygon fill="midnightblue" stroke="midnightblue" points="480.274,-459.5 490.274,-456 480.274,-452.5 480.274,-459.5"/>
</g>
<!-- Node6 -->
<g id="node6" class="node"><title>Node6</title>
<g id="a_node6"><a xlink:href="$mavlink__msg__terrain__report_8h.html#ae467703e85e57484f2dc3a40fcd33d77" xlink:title="Send a terrain_report message. ">
<polygon fill="white" stroke="black" points="321.5,-392 321.5,-422 428.5,-422 428.5,-392 321.5,-392"/>
<text text-anchor="start" x="329.5" y="-410" font-family="Helvetica,sans-Serif" font-size="10.00">mavlink_msg_terrain</text>
<text text-anchor="middle" x="375" y="-399" font-family="Helvetica,sans-Serif" font-size="10.00">_report_get_lat</text>
</a>
</g>
</g>
<!-- Node5&#45;&gt;Node6 -->
<g id="edge5" class="edge"><title>Node5&#45;&gt;Node6</title>
<path fill="none" stroke="midnightblue" d="M210.646,-259.165C232.394,-293.181 284.268,-373.283 296,-382 300.826,-385.586 306.186,-388.669 311.771,-391.318"/>
<polygon fill="midnightblue" stroke="midnightblue" points="310.757,-394.69 321.329,-395.378 313.494,-388.247 310.757,-394.69"/>
</g>
<!-- Node7 -->
<g id="node7" class="node"><title>Node7</title>
<g id="a_node7"><a xlink:href="$mavlink__msg__terrain__report_8h.html#a58311601e158135f79ec7686fbb08373" xlink:title="Get field lon from terrain_report message. ">
<polygon fill="white" stroke="black" points="321.5,-343 321.5,-373 428.5,-373 428.5,-343 321.5,-343"/>
<text text-anchor="start" x="329.5" y="-361" font-family="Helvetica,sans-Serif" font-size="10.00">mavlink_msg_terrain</text>
<text text-anchor="middle" x="375" y="-350" font-family="Helvetica,sans-Serif" font-size="10.00">_report_get_lon</text>
</a>
</g>
</g>
<!-- Node5&#45;&gt;Node7 -->
<g id="edge6" class="edge"><title>Node5&#45;&gt;Node7</title>
<path fill="none" stroke="midnightblue" d="M213.274,-259.072C230.031,-278.726 261.905,-312.955 296,-333 301.026,-335.955 306.443,-338.605 311.996,-340.971"/>
<polygon fill="midnightblue" stroke="midnightblue" points="310.84,-344.277 321.427,-344.69 313.408,-337.765 310.84,-344.277"/>
</g>
<!-- Node8 -->
<g id="node8" class="node"><title>Node8</title>
<g id="a_node8"><a xlink:href="$mavlink__msg__terrain__report_8h.html#a0404a29756e57adb40ddfee3e5400ffb" xlink:title="Get field terrain_height from terrain_report message. ">
<polygon fill="white" stroke="black" points="321.5,-283.5 321.5,-324.5 428.5,-324.5 428.5,-283.5 321.5,-283.5"/>
<text text-anchor="start" x="329.5" y="-312.5" font-family="Helvetica,sans-Serif" font-size="10.00">mavlink_msg_terrain</text>
<text text-anchor="start" x="329.5" y="-301.5" font-family="Helvetica,sans-Serif" font-size="10.00">_report_get_terrain</text>
<text text-anchor="middle" x="375" y="-290.5" font-family="Helvetica,sans-Serif" font-size="10.00">_height</text>
</a>
</g>
</g>
<!-- Node5&#45;&gt;Node8 -->
<g id="edge7" class="edge"><title>Node5&#45;&gt;Node8</title>
<path fill="none" stroke="midnightblue" d="M244.655,-259.141C264.971,-266.187 289.506,-274.696 311.722,-282.401"/>
<polygon fill="midnightblue" stroke="midnightblue" points="310.817,-285.791 321.412,-285.761 313.111,-279.178 310.817,-285.791"/>
</g>
<!-- Node9 -->
<g id="node9" class="node"><title>Node9</title>
<g id="a_node9"><a xlink:href="$mavlink__msg__terrain__report_8h.html#a9722da090af46ec65b7954517e17d248" xlink:title="Get field current_height from terrain_report message. ">
<polygon fill="white" stroke="black" points="321.5,-223.5 321.5,-264.5 428.5,-264.5 428.5,-223.5 321.5,-223.5"/>
<text text-anchor="start" x="329.5" y="-252.5" font-family="Helvetica,sans-Serif" font-size="10.00">mavlink_msg_terrain</text>
<text text-anchor="start" x="329.5" y="-241.5" font-family="Helvetica,sans-Serif" font-size="10.00">_report_get_current</text>
<text text-anchor="middle" x="375" y="-230.5" font-family="Helvetica,sans-Serif" font-size="10.00">_height</text>
</a>
</g>
</g>
<!-- Node5&#45;&gt;Node9 -->
<g id="edge8" class="edge"><title>Node5&#45;&gt;Node9</title>
<path fill="none" stroke="midnightblue" d="M253.846,-244C272.039,-244 292.586,-244 311.477,-244"/>
<polygon fill="midnightblue" stroke="midnightblue" points="311.478,-247.5 321.478,-244 311.478,-240.5 311.478,-247.5"/>
</g>
<!-- Node10 -->
<g id="node10" class="node"><title>Node10</title>
<g id="a_node10"><a xlink:href="$mavlink__msg__terrain__report_8h.html#a7567d25787c76a27e5f280595c495913" xlink:title="Get field spacing from terrain_report message. ">
<polygon fill="white" stroke="black" points="321.5,-175 321.5,-205 428.5,-205 428.5,-175 321.5,-175"/>
<text text-anchor="start" x="329.5" y="-193" font-family="Helvetica,sans-Serif" font-size="10.00">mavlink_msg_terrain</text>
<text text-anchor="middle" x="375" y="-182" font-family="Helvetica,sans-Serif" font-size="10.00">_report_get_spacing</text>
</a>
</g>
</g>
<!-- Node5&#45;&gt;Node10 -->
<g id="edge9" class="edge"><title>Node5&#45;&gt;Node10</title>
<path fill="none" stroke="midnightblue" d="M248.334,-228.977C263.547,-224.169 280.479,-218.839 296,-214 302.125,-212.091 308.523,-210.106 314.907,-208.132"/>
<polygon fill="midnightblue" stroke="midnightblue" points="316.362,-211.346 324.885,-205.052 314.297,-204.657 316.362,-211.346"/>
</g>
<!-- Node11 -->
<g id="node11" class="node"><title>Node11</title>
<g id="a_node11"><a xlink:href="$mavlink__msg__terrain__report_8h.html#ab9d7e3673d61f75b2879b971ef2c501e" xlink:title="Get field pending from terrain_report message. ">
<polygon fill="white" stroke="black" points="321.5,-126 321.5,-156 428.5,-156 428.5,-126 321.5,-126"/>
<text text-anchor="start" x="329.5" y="-144" font-family="Helvetica,sans-Serif" font-size="10.00">mavlink_msg_terrain</text>
<text text-anchor="middle" x="375" y="-133" font-family="Helvetica,sans-Serif" font-size="10.00">_report_get_pending</text>
</a>
</g>
</g>
<!-- Node5&#45;&gt;Node11 -->
<g id="edge10" class="edge"><title>Node5&#45;&gt;Node11</title>
<path fill="none" stroke="midnightblue" d="M244.895,-228.866C250.27,-226.037 255.459,-222.761 260,-219 282.213,-200.6 272.875,-182.241 296,-165 300.803,-161.419 306.147,-158.367 311.722,-155.766"/>
<polygon fill="midnightblue" stroke="midnightblue" points="313.376,-158.869 321.269,-151.801 310.691,-152.404 313.376,-158.869"/>
</g>
<!-- Node12 -->
<g id="node12" class="node"><title>Node12</title>
<g id="a_node12"><a xlink:href="$mavlink__msg__terrain__report_8h.html#aa4f955548a3e1fb4d227739b9b8c7b23" xlink:title="Get field loaded from terrain_report message. ">
<polygon fill="white" stroke="black" points="321.5,-77 321.5,-107 428.5,-107 428.5,-77 321.5,-77"/>
<text text-anchor="start" x="329.5" y="-95" font-family="Helvetica,sans-Serif" font-size="10.00">mavlink_msg_terrain</text>
<text text-anchor="middle" x="375" y="-84" font-family="Helvetica,sans-Serif" font-size="10.00">_report_get_loaded</text>
</a>
</g>
</g>
<!-- Node5&#45;&gt;Node12 -->
<g id="edge11" class="edge"><title>Node5&#45;&gt;Node12</title>
<path fill="none" stroke="midnightblue" d="M247.614,-228.846C252.172,-226.071 256.424,-222.815 260,-219 293.166,-183.621 261.069,-149.637 296,-116 300.621,-111.55 306.048,-107.923 311.851,-104.968"/>
<polygon fill="midnightblue" stroke="midnightblue" points="313.469,-108.08 321.217,-100.855 310.654,-101.671 313.469,-108.08"/>
</g>
<!-- Node14 -->
<g id="node14" class="node"><title>Node14</title>
<g id="a_node14"><a xlink:href="$v0_89_2mavlink__helpers_8h.html#aa66131138fc02101dcc73b4b556ab422" xlink:title="Finalize a MAVLink message with channel assignment. ">
<polygon fill="white" stroke="black" points="296,-38.5 296,-57.5 454,-57.5 454,-38.5 296,-38.5"/>
<text text-anchor="middle" x="375" y="-45.5" font-family="Helvetica,sans-Serif" font-size="10.00">mavlink_finalize_message_chan</text>
</a>
</g>
</g>
<!-- Node13&#45;&gt;Node14 -->
<g id="edge14" class="edge"><title>Node13&#45;&gt;Node14</title>
<path fill="none" stroke="midnightblue" d="M247.614,-179.846C252.172,-177.071 256.424,-173.815 260,-170 293.166,-134.621 260.083,-99.5818 296,-67 297.719,-65.4402 299.545,-64.003 301.457,-62.679"/>
<polygon fill="midnightblue" stroke="midnightblue" points="303.402,-65.5971 310.317,-57.5698 299.906,-59.533 303.402,-65.5971"/>
</g>
<!-- Node18 -->
<g id="node18" class="node"><title>Node18</title>
<g id="a_node18"><a xlink:href="$classAP__HAL_1_1Print.html#acc65391952a43334f8f5c9bef341f501" xlink:title="AP_HAL::Print::write">
<polygon fill="white" stroke="black" points="321,-0.5 321,-19.5 429,-19.5 429,-0.5 321,-0.5"/>
<text text-anchor="middle" x="375" y="-7.5" font-family="Helvetica,sans-Serif" font-size="10.00">AP_HAL::Print::write</text>
</a>
</g>
</g>
<!-- Node17&#45;&gt;Node18 -->
<g id="edge18" class="edge"><title>Node17&#45;&gt;Node18</title>
<path fill="none" stroke="midnightblue" d="M243.321,-26.6182C263.619,-24.0369 288.355,-20.8913 310.822,-18.0342"/>
<polygon fill="midnightblue" stroke="midnightblue" points="311.482,-21.4785 320.961,-16.7448 310.599,-14.5344 311.482,-21.4785"/>
</g>
</g>
</svg>
