<?xml version="1.0" encoding="UTF-8" standalone="no"?>
<!DOCTYPE svg PUBLIC "-//W3C//DTD SVG 1.1//EN"
 "http://www.w3.org/Graphics/SVG/1.1/DTD/svg11.dtd">
<!-- Generated by graphviz version 2.36.0 (20140111.2315)
 -->
<!-- Title: mavlink_msg_servo_output_raw_decode Pages: 1 -->
<svg width="316pt" height="479pt"
 viewBox="0.00 0.00 316.00 479.00" xmlns="http://www.w3.org/2000/svg" xmlns:xlink="http://www.w3.org/1999/xlink">
<g id="graph0" class="graph" transform="scale(1 1) rotate(0) translate(4 475)">
<title>mavlink_msg_servo_output_raw_decode</title>
<polygon fill="white" stroke="none" points="-4,4 -4,-475 312,-475 312,4 -4,4"/>
<!-- Node1 -->
<g id="node1" class="node"><title>Node1</title>
<polygon fill="#bfbfbf" stroke="black" points="0,-220 0,-250 136,-250 136,-220 0,-220"/>
<text text-anchor="start" x="8" y="-238" font-family="Helvetica,sans-Serif" font-size="10.00">mavlink_msg_servo_output</text>
<text text-anchor="middle" x="68" y="-227" font-family="Helvetica,sans-Serif" font-size="10.00">_raw_decode</text>
</g>
<!-- Node2 -->
<g id="node2" class="node"><title>Node2</title>
<g id="a_node2"><a xlink:href="$v1_80_2common_2mavlink__msg__servo__output__raw_8h.html#ab9bcfaf30583626d2e02baccb5c77526" xlink:title="Send a servo_output_raw message. ">
<polygon fill="white" stroke="black" points="172,-441 172,-471 308,-471 308,-441 172,-441"/>
<text text-anchor="start" x="180" y="-459" font-family="Helvetica,sans-Serif" font-size="10.00">mavlink_msg_servo_output</text>
<text text-anchor="middle" x="240" y="-448" font-family="Helvetica,sans-Serif" font-size="10.00">_raw_get_time_usec</text>
</a>
</g>
</g>
<!-- Node1&#45;&gt;Node2 -->
<g id="edge1" class="edge"><title>Node1&#45;&gt;Node2</title>
<path fill="none" stroke="midnightblue" d="M72.8862,-250.093C82.9857,-286.4 113.439,-379.426 172,-431 173.916,-432.687 175.956,-434.265 178.089,-435.739"/>
<polygon fill="midnightblue" stroke="midnightblue" points="176.33,-438.766 186.702,-440.93 179.944,-432.771 176.33,-438.766"/>
</g>
<!-- Node3 -->
<g id="node3" class="node"><title>Node3</title>
<g id="a_node3"><a xlink:href="$v1_80_2common_2mavlink__msg__servo__output__raw_8h.html#a4595d31861a88e1e0502d595dd038eca" xlink:title="Get field servo1_raw from servo_output_raw message. ">
<polygon fill="white" stroke="black" points="172,-392 172,-422 308,-422 308,-392 172,-392"/>
<text text-anchor="start" x="180" y="-410" font-family="Helvetica,sans-Serif" font-size="10.00">mavlink_msg_servo_output</text>
<text text-anchor="middle" x="240" y="-399" font-family="Helvetica,sans-Serif" font-size="10.00">_raw_get_servo1_raw</text>
</a>
</g>
</g>
<!-- Node1&#45;&gt;Node3 -->
<g id="edge2" class="edge"><title>Node1&#45;&gt;Node3</title>
<path fill="none" stroke="midnightblue" d="M75.7836,-250.182C89.687,-279.665 124.181,-345.012 172,-382 174.302,-383.78 176.743,-385.444 179.28,-386.998"/>
<polygon fill="midnightblue" stroke="midnightblue" points="177.752,-390.151 188.208,-391.866 181.104,-384.006 177.752,-390.151"/>
</g>
<!-- Node4 -->
<g id="node4" class="node"><title>Node4</title>
<g id="a_node4"><a xlink:href="$v1_80_2common_2mavlink__msg__servo__output__raw_8h.html#a8799ca4dd4f71e97699864343015c926" xlink:title="Get field servo2_raw from servo_output_raw message. ">
<polygon fill="white" stroke="black" points="172,-343 172,-373 308,-373 308,-343 172,-343"/>
<text text-anchor="start" x="180" y="-361" font-family="Helvetica,sans-Serif" font-size="10.00">mavlink_msg_servo_output</text>
<text text-anchor="middle" x="240" y="-350" font-family="Helvetica,sans-Serif" font-size="10.00">_raw_get_servo2_raw</text>
</a>
</g>
</g>
<!-- Node1&#45;&gt;Node4 -->
<g id="edge3" class="edge"><title>Node1&#45;&gt;Node4</title>
<path fill="none" stroke="midnightblue" d="M81.4843,-250.262C99.5035,-271.426 134.748,-309.706 172,-333 175.188,-334.993 178.559,-336.865 182.025,-338.615"/>
<polygon fill="midnightblue" stroke="midnightblue" points="180.82,-341.915 191.363,-342.968 183.778,-335.571 180.82,-341.915"/>
</g>
<!-- Node5 -->
<g id="node5" class="node"><title>Node5</title>
<g id="a_node5"><a xlink:href="$v1_80_2common_2mavlink__msg__servo__output__raw_8h.html#ad5b4382a4f3ddee20eb591aba29db0ef" xlink:title="Get field servo3_raw from servo_output_raw message. ">
<polygon fill="white" stroke="black" points="172,-294 172,-324 308,-324 308,-294 172,-294"/>
<text text-anchor="start" x="180" y="-312" font-family="Helvetica,sans-Serif" font-size="10.00">mavlink_msg_servo_output</text>
<text text-anchor="middle" x="240" y="-301" font-family="Helvetica,sans-Serif" font-size="10.00">_raw_get_servo3_raw</text>
</a>
</g>
</g>
<!-- Node1&#45;&gt;Node5 -->
<g id="edge4" class="edge"><title>Node1&#45;&gt;Node5</title>
<path fill="none" stroke="midnightblue" d="M98.8834,-250.062C119.277,-260.131 147.019,-273.421 172,-284 177.002,-286.118 182.251,-288.242 187.516,-290.309"/>
<polygon fill="midnightblue" stroke="midnightblue" points="186.373,-293.619 196.963,-293.953 188.892,-287.088 186.373,-293.619"/>
</g>
<!-- Node6 -->
<g id="node6" class="node"><title>Node6</title>
<g id="a_node6"><a xlink:href="$v1_80_2common_2mavlink__msg__servo__output__raw_8h.html#ad9f10cdd305e8dbf744e9f2e3d89ca8e" xlink:title="Get field servo4_raw from servo_output_raw message. ">
<polygon fill="white" stroke="black" points="172,-245 172,-275 308,-275 308,-245 172,-245"/>
<text text-anchor="start" x="180" y="-263" font-family="Helvetica,sans-Serif" font-size="10.00">mavlink_msg_servo_output</text>
<text text-anchor="middle" x="240" y="-252" font-family="Helvetica,sans-Serif" font-size="10.00">_raw_get_servo4_raw</text>
</a>
</g>
</g>
<!-- Node1&#45;&gt;Node6 -->
<g id="edge5" class="edge"><title>Node1&#45;&gt;Node6</title>
<path fill="none" stroke="midnightblue" d="M136.189,-244.881C144.593,-246.117 153.242,-247.388 161.784,-248.645"/>
<polygon fill="midnightblue" stroke="midnightblue" points="161.34,-252.117 171.743,-250.109 162.359,-245.191 161.34,-252.117"/>
</g>
<!-- Node7 -->
<g id="node7" class="node"><title>Node7</title>
<g id="a_node7"><a xlink:href="$v1_80_2common_2mavlink__msg__servo__output__raw_8h.html#a76c9b98ea95e35b6735be6825ea14429" xlink:title="Get field servo5_raw from servo_output_raw message. ">
<polygon fill="white" stroke="black" points="172,-196 172,-226 308,-226 308,-196 172,-196"/>
<text text-anchor="start" x="180" y="-214" font-family="Helvetica,sans-Serif" font-size="10.00">mavlink_msg_servo_output</text>
<text text-anchor="middle" x="240" y="-203" font-family="Helvetica,sans-Serif" font-size="10.00">_raw_get_servo5_raw</text>
</a>
</g>
</g>
<!-- Node1&#45;&gt;Node7 -->
<g id="edge6" class="edge"><title>Node1&#45;&gt;Node7</title>
<path fill="none" stroke="midnightblue" d="M136.189,-225.515C144.593,-224.328 153.242,-223.107 161.784,-221.901"/>
<polygon fill="midnightblue" stroke="midnightblue" points="162.33,-225.359 171.743,-220.495 161.352,-218.427 162.33,-225.359"/>
</g>
<!-- Node8 -->
<g id="node8" class="node"><title>Node8</title>
<g id="a_node8"><a xlink:href="$v1_80_2common_2mavlink__msg__servo__output__raw_8h.html#ab970f1a6a5fbae5e513c14d5af49afda" xlink:title="Get field servo6_raw from servo_output_raw message. ">
<polygon fill="white" stroke="black" points="172,-147 172,-177 308,-177 308,-147 172,-147"/>
<text text-anchor="start" x="180" y="-165" font-family="Helvetica,sans-Serif" font-size="10.00">mavlink_msg_servo_output</text>
<text text-anchor="middle" x="240" y="-154" font-family="Helvetica,sans-Serif" font-size="10.00">_raw_get_servo6_raw</text>
</a>
</g>
</g>
<!-- Node1&#45;&gt;Node8 -->
<g id="edge7" class="edge"><title>Node1&#45;&gt;Node8</title>
<path fill="none" stroke="midnightblue" d="M99.8153,-219.862C120.134,-210.074 147.434,-197.288 172,-187 177.01,-184.902 182.265,-182.791 187.534,-180.732"/>
<polygon fill="midnightblue" stroke="midnightblue" points="188.906,-183.954 196.984,-177.098 186.394,-177.42 188.906,-183.954"/>
</g>
<!-- Node9 -->
<g id="node9" class="node"><title>Node9</title>
<g id="a_node9"><a xlink:href="$v1_80_2common_2mavlink__msg__servo__output__raw_8h.html#ab45011478a2cddbce00ad42c3d63adf4" xlink:title="Get field servo7_raw from servo_output_raw message. ">
<polygon fill="white" stroke="black" points="172,-98 172,-128 308,-128 308,-98 172,-98"/>
<text text-anchor="start" x="180" y="-116" font-family="Helvetica,sans-Serif" font-size="10.00">mavlink_msg_servo_output</text>
<text text-anchor="middle" x="240" y="-105" font-family="Helvetica,sans-Serif" font-size="10.00">_raw_get_servo7_raw</text>
</a>
</g>
</g>
<!-- Node1&#45;&gt;Node9 -->
<g id="edge8" class="edge"><title>Node1&#45;&gt;Node9</title>
<path fill="none" stroke="midnightblue" d="M81.518,-219.902C99.5771,-198.964 134.869,-161.087 172,-138 175.193,-136.015 178.568,-134.15 182.037,-132.404"/>
<polygon fill="midnightblue" stroke="midnightblue" points="183.788,-135.449 191.38,-128.06 180.837,-129.102 183.788,-135.449"/>
</g>
<!-- Node10 -->
<g id="node10" class="node"><title>Node10</title>
<g id="a_node10"><a xlink:href="$v1_80_2common_2mavlink__msg__servo__output__raw_8h.html#a28201cf0ff3687990e314b12643ac6dc" xlink:title="Get field servo8_raw from servo_output_raw message. ">
<polygon fill="white" stroke="black" points="172,-49 172,-79 308,-79 308,-49 172,-49"/>
<text text-anchor="start" x="180" y="-67" font-family="Helvetica,sans-Serif" font-size="10.00">mavlink_msg_servo_output</text>
<text text-anchor="middle" x="240" y="-56" font-family="Helvetica,sans-Serif" font-size="10.00">_raw_get_servo8_raw</text>
</a>
</g>
</g>
<!-- Node1&#45;&gt;Node10 -->
<g id="edge9" class="edge"><title>Node1&#45;&gt;Node10</title>
<path fill="none" stroke="midnightblue" d="M75.8116,-219.923C89.7639,-190.642 124.34,-125.743 172,-89 174.305,-87.2234 176.749,-85.5625 179.287,-84.0111"/>
<polygon fill="midnightblue" stroke="midnightblue" points="181.11,-87.0041 188.219,-79.1489 177.763,-80.856 181.11,-87.0041"/>
</g>
<!-- Node11 -->
<g id="node11" class="node"><title>Node11</title>
<g id="a_node11"><a xlink:href="$v1_80_2common_2mavlink__msg__servo__output__raw_8h.html#a1f64a722a5084e82e3d6ca25f5366ab4" xlink:title="Get field port from servo_output_raw message. ">
<polygon fill="white" stroke="black" points="172,-0 172,-30 308,-30 308,-0 172,-0"/>
<text text-anchor="start" x="180" y="-18" font-family="Helvetica,sans-Serif" font-size="10.00">mavlink_msg_servo_output</text>
<text text-anchor="middle" x="240" y="-7" font-family="Helvetica,sans-Serif" font-size="10.00">_raw_get_port</text>
</a>
</g>
</g>
<!-- Node1&#45;&gt;Node11 -->
<g id="edge10" class="edge"><title>Node1&#45;&gt;Node11</title>
<path fill="none" stroke="midnightblue" d="M72.9094,-219.984C83.0602,-183.86 113.619,-91.3063 172,-40 173.918,-38.3148 175.959,-36.739 178.093,-35.2659"/>
<polygon fill="midnightblue" stroke="midnightblue" points="179.947,-38.2349 186.71,-30.0792 176.337,-32.2376 179.947,-38.2349"/>
</g>
</g>
</svg>
