<?xml version="1.0" encoding="UTF-8" standalone="no"?>
<!DOCTYPE svg PUBLIC "-//W3C//DTD SVG 1.1//EN"
 "http://www.w3.org/Graphics/SVG/1.1/DTD/svg11.dtd">
<!-- Generated by graphviz version 2.36.0 (20140111.2315)
 -->
<!-- Title: mavlink_test_hil_rc_inputs_raw Pages: 1 -->
<svg width="630pt" height="801pt"
 viewBox="0.00 0.00 630.00 801.00" xmlns="http://www.w3.org/2000/svg" xmlns:xlink="http://www.w3.org/1999/xlink">
<g id="graph0" class="graph" transform="scale(1 1) rotate(0) translate(4 797)">
<title>mavlink_test_hil_rc_inputs_raw</title>
<polygon fill="white" stroke="none" points="-4,4 -4,-797 626,-797 626,4 -4,4"/>
<!-- Node1 -->
<g id="node1" class="node"><title>Node1</title>
<polygon fill="#bfbfbf" stroke="black" points="0.5,-346 0.5,-376 101.5,-376 101.5,-346 0.5,-346"/>
<text text-anchor="start" x="8.5" y="-364" font-family="Helvetica,sans-Serif" font-size="10.00">mavlink_test_hil_rc</text>
<text text-anchor="middle" x="51" y="-353" font-family="Helvetica,sans-Serif" font-size="10.00">_inputs_raw</text>
</g>
<!-- Node2 -->
<g id="node2" class="node"><title>Node2</title>
<g id="a_node2"><a xlink:href="$mavlink__msg__hil__rc__inputs__raw_8h.html#a0192298105a8c91dbac1b913f119cfe7" xlink:title="Encode a hil_rc_inputs_raw struct. ">
<polygon fill="white" stroke="black" points="146,-711 146,-741 252,-741 252,-711 146,-711"/>
<text text-anchor="start" x="154" y="-729" font-family="Helvetica,sans-Serif" font-size="10.00">mavlink_msg_hil_rc</text>
<text text-anchor="middle" x="199" y="-718" font-family="Helvetica,sans-Serif" font-size="10.00">_inputs_raw_encode</text>
</a>
</g>
</g>
<!-- Node1&#45;&gt;Node2 -->
<g id="edge1" class="edge"><title>Node1&#45;&gt;Node2</title>
<path fill="none" stroke="midnightblue" d="M55.9496,-376.276C66.6894,-416.896 98.2992,-530.579 138,-620 151.006,-649.294 169.644,-681.058 182.686,-702.098"/>
<polygon fill="midnightblue" stroke="midnightblue" points="179.795,-704.077 188.071,-710.691 185.726,-700.359 179.795,-704.077"/>
</g>
<!-- Node3 -->
<g id="node3" class="node"><title>Node3</title>
<g id="a_node3"><a xlink:href="$mavlink__msg__hil__rc__inputs__raw_8h.html#a290a6171a37dfc3e54c100cb4fd574ca" xlink:title="Pack a hil_rc_inputs_raw message. ">
<polygon fill="white" stroke="black" points="323.5,-763 323.5,-793 426.5,-793 426.5,-763 323.5,-763"/>
<text text-anchor="start" x="331.5" y="-781" font-family="Helvetica,sans-Serif" font-size="10.00">mavlink_msg_hil_rc</text>
<text text-anchor="middle" x="375" y="-770" font-family="Helvetica,sans-Serif" font-size="10.00">_inputs_raw_pack</text>
</a>
</g>
</g>
<!-- Node1&#45;&gt;Node3 -->
<g id="edge19" class="edge"><title>Node1&#45;&gt;Node3</title>
<path fill="none" stroke="midnightblue" d="M61.1856,-376.071C104.554,-447.187 287.089,-746.054 296,-753 301.35,-757.17 307.415,-760.655 313.742,-763.563"/>
<polygon fill="midnightblue" stroke="midnightblue" points="312.567,-766.865 323.147,-767.427 315.227,-760.39 312.567,-766.865"/>
</g>
<!-- Node5 -->
<g id="node5" class="node"><title>Node5</title>
<g id="a_node5"><a xlink:href="$mavlink__msg__hil__rc__inputs__raw_8h.html#aaac5bc4ab1b4f27f928f8937fd388f87" xlink:title="Decode a hil_rc_inputs_raw message into a struct. ">
<polygon fill="white" stroke="black" points="146,-395 146,-425 252,-425 252,-395 146,-395"/>
<text text-anchor="start" x="154" y="-413" font-family="Helvetica,sans-Serif" font-size="10.00">mavlink_msg_hil_rc</text>
<text text-anchor="middle" x="199" y="-402" font-family="Helvetica,sans-Serif" font-size="10.00">_inputs_raw_decode</text>
</a>
</g>
</g>
<!-- Node1&#45;&gt;Node5 -->
<g id="edge4" class="edge"><title>Node1&#45;&gt;Node5</title>
<path fill="none" stroke="midnightblue" d="M96.9961,-376.101C111.636,-381.015 128.046,-386.522 143.314,-391.647"/>
<polygon fill="midnightblue" stroke="midnightblue" points="142.558,-395.085 153.152,-394.948 144.786,-388.448 142.558,-395.085"/>
</g>
<!-- Node20 -->
<g id="node20" class="node"><title>Node20</title>
<g id="a_node20"><a xlink:href="$mavlink__msg__hil__rc__inputs__raw_8h.html#afcb12c2086d511d90a1275d6ec74203e" xlink:title="Pack a hil_rc_inputs_raw message on a channel. ">
<polygon fill="white" stroke="black" points="138,-346 138,-376 260,-376 260,-346 138,-346"/>
<text text-anchor="start" x="146" y="-364" font-family="Helvetica,sans-Serif" font-size="10.00">mavlink_msg_hil_rc</text>
<text text-anchor="middle" x="199" y="-353" font-family="Helvetica,sans-Serif" font-size="10.00">_inputs_raw_pack_chan</text>
</a>
</g>
</g>
<!-- Node1&#45;&gt;Node20 -->
<g id="edge20" class="edge"><title>Node1&#45;&gt;Node20</title>
<path fill="none" stroke="midnightblue" d="M101.837,-361C110.149,-361 118.908,-361 127.618,-361"/>
<polygon fill="midnightblue" stroke="midnightblue" points="127.79,-364.5 137.79,-361 127.79,-357.5 127.79,-364.5"/>
</g>
<!-- Node22 -->
<g id="node22" class="node"><title>Node22</title>
<g id="a_node22"><a xlink:href="$v0_89_2mavlink__helpers_8h.html#afea0a9befa84822fd62c2899ea0d849e" xlink:title="Pack a message to send it over a serial byte stream. ">
<polygon fill="white" stroke="black" points="142,-297 142,-327 256,-327 256,-297 142,-297"/>
<text text-anchor="start" x="150" y="-315" font-family="Helvetica,sans-Serif" font-size="10.00">mavlink_msg_to_send</text>
<text text-anchor="middle" x="199" y="-304" font-family="Helvetica,sans-Serif" font-size="10.00">_buffer</text>
</a>
</g>
</g>
<!-- Node1&#45;&gt;Node22 -->
<g id="edge22" class="edge"><title>Node1&#45;&gt;Node22</title>
<path fill="none" stroke="midnightblue" d="M96.9961,-345.899C111.636,-340.985 128.046,-335.478 143.314,-330.353"/>
<polygon fill="midnightblue" stroke="midnightblue" points="144.786,-333.552 153.152,-327.052 142.558,-326.915 144.786,-333.552"/>
</g>
<!-- Node23 -->
<g id="node23" class="node"><title>Node23</title>
<g id="a_node23"><a xlink:href="$v0_89_2protocol_8h.html#aa86c08f27aabb7a2e12a67f189f590c8" xlink:title="Get the required buffer size for this message. ">
<polygon fill="white" stroke="black" points="139.5,-248 139.5,-278 258.5,-278 258.5,-248 139.5,-248"/>
<text text-anchor="start" x="147.5" y="-266" font-family="Helvetica,sans-Serif" font-size="10.00">mavlink_msg_get_send</text>
<text text-anchor="middle" x="199" y="-255" font-family="Helvetica,sans-Serif" font-size="10.00">_buffer_length</text>
</a>
</g>
</g>
<!-- Node1&#45;&gt;Node23 -->
<g id="edge23" class="edge"><title>Node1&#45;&gt;Node23</title>
<path fill="none" stroke="midnightblue" d="M66.343,-345.989C82.5219,-329.73 110.217,-303.863 138,-287 140.601,-285.421 143.325,-283.907 146.116,-282.462"/>
<polygon fill="midnightblue" stroke="midnightblue" points="147.703,-285.583 155.191,-278.088 144.664,-279.277 147.703,-285.583"/>
</g>
<!-- Node24 -->
<g id="node24" class="node"><title>Node24</title>
<g id="a_node24"><a xlink:href="$GCS__MAVLink_8h.html#ab753873a1ee10adedd0ce246311468f8" xlink:title="comm_send_ch">
<polygon fill="white" stroke="black" points="156,-117.5 156,-136.5 242,-136.5 242,-117.5 156,-117.5"/>
<text text-anchor="middle" x="199" y="-124.5" font-family="Helvetica,sans-Serif" font-size="10.00">comm_send_ch</text>
</a>
</g>
</g>
<!-- Node1&#45;&gt;Node24 -->
<g id="edge24" class="edge"><title>Node1&#45;&gt;Node24</title>
<path fill="none" stroke="midnightblue" d="M61.5795,-345.647C87.4665,-304.156 158.743,-189.918 186.616,-145.245"/>
<polygon fill="midnightblue" stroke="midnightblue" points="189.692,-146.928 192.016,-136.591 183.753,-143.222 189.692,-146.928"/>
</g>
<!-- Node2&#45;&gt;Node3 -->
<g id="edge2" class="edge"><title>Node2&#45;&gt;Node3</title>
<path fill="none" stroke="midnightblue" d="M250.328,-741.041C270.257,-746.996 293.328,-753.891 314.107,-760.101"/>
<polygon fill="midnightblue" stroke="midnightblue" points="313.202,-763.483 323.785,-762.993 315.206,-756.776 313.202,-763.483"/>
</g>
<!-- Node4 -->
<g id="node4" class="node"><title>Node4</title>
<g id="a_node4"><a xlink:href="$v0_89_2mavlink__helpers_8h.html#af3bea083c5ec83f5b6570b2bd4a817d0" xlink:title="Finalize a MAVLink message with MAVLINK_COMM_0 as default channel. ">
<polygon fill="white" stroke="black" points="490.5,-768.5 490.5,-787.5 621.5,-787.5 621.5,-768.5 490.5,-768.5"/>
<text text-anchor="middle" x="556" y="-775.5" font-family="Helvetica,sans-Serif" font-size="10.00">mavlink_finalize_message</text>
</a>
</g>
</g>
<!-- Node3&#45;&gt;Node4 -->
<g id="edge3" class="edge"><title>Node3&#45;&gt;Node4</title>
<path fill="none" stroke="midnightblue" d="M426.815,-778C443.395,-778 462.169,-778 480.133,-778"/>
<polygon fill="midnightblue" stroke="midnightblue" points="480.302,-781.5 490.302,-778 480.302,-774.5 480.302,-781.5"/>
</g>
<!-- Node6 -->
<g id="node6" class="node"><title>Node6</title>
<g id="a_node6"><a xlink:href="$mavlink__msg__hil__rc__inputs__raw_8h.html#aa1441ac96d90bf4d0b37c754f41eb726" xlink:title="Send a hil_rc_inputs_raw message. ">
<polygon fill="white" stroke="black" points="306,-714 306,-744 444,-744 444,-714 306,-714"/>
<text text-anchor="start" x="314" y="-732" font-family="Helvetica,sans-Serif" font-size="10.00">mavlink_msg_hil_rc</text>
<text text-anchor="middle" x="375" y="-721" font-family="Helvetica,sans-Serif" font-size="10.00">_inputs_raw_get_time_usec</text>
</a>
</g>
</g>
<!-- Node5&#45;&gt;Node6 -->
<g id="edge5" class="edge"><title>Node5&#45;&gt;Node6</title>
<path fill="none" stroke="midnightblue" d="M205.016,-425.088C215.367,-456.25 239.814,-529.994 260,-592 276.185,-641.718 259.013,-667.044 296,-704 297.433,-705.432 298.949,-706.783 300.533,-708.056"/>
<polygon fill="midnightblue" stroke="midnightblue" points="298.727,-711.06 308.962,-713.798 302.668,-705.275 298.727,-711.06"/>
</g>
<!-- Node7 -->
<g id="node7" class="node"><title>Node7</title>
<g id="a_node7"><a xlink:href="$mavlink__msg__hil__rc__inputs__raw_8h.html#a29b4fd1496ff568c51df24c0f045c74b" xlink:title="Get field chan1_raw from hil_rc_inputs_raw message. ">
<polygon fill="white" stroke="black" points="305,-665 305,-695 445,-695 445,-665 305,-665"/>
<text text-anchor="start" x="313" y="-683" font-family="Helvetica,sans-Serif" font-size="10.00">mavlink_msg_hil_rc</text>
<text text-anchor="middle" x="375" y="-672" font-family="Helvetica,sans-Serif" font-size="10.00">_inputs_raw_get_chan1_raw</text>
</a>
</g>
</g>
<!-- Node5&#45;&gt;Node7 -->
<g id="edge6" class="edge"><title>Node5&#45;&gt;Node7</title>
<path fill="none" stroke="midnightblue" d="M205.1,-425.191C222.294,-476.058 278.055,-638.156 296,-655 297.685,-656.581 299.47,-658.063 301.336,-659.451"/>
<polygon fill="midnightblue" stroke="midnightblue" points="299.661,-662.533 309.975,-664.954 303.422,-656.629 299.661,-662.533"/>
</g>
<!-- Node8 -->
<g id="node8" class="node"><title>Node8</title>
<g id="a_node8"><a xlink:href="$mavlink__msg__hil__rc__inputs__raw_8h.html#a9b2f9eb02caf01999b016d7f2fde5cef" xlink:title="Get field chan2_raw from hil_rc_inputs_raw message. ">
<polygon fill="white" stroke="black" points="305,-616 305,-646 445,-646 445,-616 305,-616"/>
<text text-anchor="start" x="313" y="-634" font-family="Helvetica,sans-Serif" font-size="10.00">mavlink_msg_hil_rc</text>
<text text-anchor="middle" x="375" y="-623" font-family="Helvetica,sans-Serif" font-size="10.00">_inputs_raw_get_chan2_raw</text>
</a>
</g>
</g>
<!-- Node5&#45;&gt;Node8 -->
<g id="edge7" class="edge"><title>Node5&#45;&gt;Node8</title>
<path fill="none" stroke="midnightblue" d="M203.158,-425.257C211.54,-461.929 237.807,-555.702 296,-606 297.977,-607.709 300.072,-609.301 302.258,-610.784"/>
<polygon fill="midnightblue" stroke="midnightblue" points="300.69,-613.923 311.082,-615.985 304.244,-607.893 300.69,-613.923"/>
</g>
<!-- Node9 -->
<g id="node9" class="node"><title>Node9</title>
<g id="a_node9"><a xlink:href="$mavlink__msg__hil__rc__inputs__raw_8h.html#a288c9ec68abc7436d3f24a7542e0b2af" xlink:title="Get field chan3_raw from hil_rc_inputs_raw message. ">
<polygon fill="white" stroke="black" points="305,-567 305,-597 445,-597 445,-567 305,-567"/>
<text text-anchor="start" x="313" y="-585" font-family="Helvetica,sans-Serif" font-size="10.00">mavlink_msg_hil_rc</text>
<text text-anchor="middle" x="375" y="-574" font-family="Helvetica,sans-Serif" font-size="10.00">_inputs_raw_get_chan3_raw</text>
</a>
</g>
</g>
<!-- Node5&#45;&gt;Node9 -->
<g id="edge8" class="edge"><title>Node5&#45;&gt;Node9</title>
<path fill="none" stroke="midnightblue" d="M205.889,-425.383C218.088,-455.219 248.969,-521.156 296,-557 298.465,-558.879 301.076,-560.619 303.79,-562.23"/>
<polygon fill="midnightblue" stroke="midnightblue" points="302.276,-565.389 312.755,-566.951 305.538,-559.195 302.276,-565.389"/>
</g>
<!-- Node10 -->
<g id="node10" class="node"><title>Node10</title>
<g id="a_node10"><a xlink:href="$mavlink__msg__hil__rc__inputs__raw_8h.html#ad335798f0840eb5e22ebb3430e689f0f" xlink:title="Get field chan4_raw from hil_rc_inputs_raw message. ">
<polygon fill="white" stroke="black" points="305,-518 305,-548 445,-548 445,-518 305,-518"/>
<text text-anchor="start" x="313" y="-536" font-family="Helvetica,sans-Serif" font-size="10.00">mavlink_msg_hil_rc</text>
<text text-anchor="middle" x="375" y="-525" font-family="Helvetica,sans-Serif" font-size="10.00">_inputs_raw_get_chan4_raw</text>
</a>
</g>
</g>
<!-- Node5&#45;&gt;Node10 -->
<g id="edge9" class="edge"><title>Node5&#45;&gt;Node10</title>
<path fill="none" stroke="midnightblue" d="M210.984,-425.188C227.24,-446.618 259.72,-485.61 296,-508 299.375,-510.083 302.941,-512.009 306.615,-513.787"/>
<polygon fill="midnightblue" stroke="midnightblue" points="305.365,-517.061 315.926,-517.909 308.199,-510.66 305.365,-517.061"/>
</g>
<!-- Node11 -->
<g id="node11" class="node"><title>Node11</title>
<g id="a_node11"><a xlink:href="$mavlink__msg__hil__rc__inputs__raw_8h.html#adfeed34242bbb212ff75d19a41f23e49" xlink:title="Get field chan5_raw from hil_rc_inputs_raw message. ">
<polygon fill="white" stroke="black" points="305,-469 305,-499 445,-499 445,-469 305,-469"/>
<text text-anchor="start" x="313" y="-487" font-family="Helvetica,sans-Serif" font-size="10.00">mavlink_msg_hil_rc</text>
<text text-anchor="middle" x="375" y="-476" font-family="Helvetica,sans-Serif" font-size="10.00">_inputs_raw_get_chan5_raw</text>
</a>
</g>
</g>
<!-- Node5&#45;&gt;Node11 -->
<g id="edge10" class="edge"><title>Node5&#45;&gt;Node11</title>
<path fill="none" stroke="midnightblue" d="M226.759,-425.137C245.718,-435.492 271.954,-449.086 296,-459 301.474,-461.257 307.232,-463.441 313.035,-465.517"/>
<polygon fill="midnightblue" stroke="midnightblue" points="312.208,-468.934 322.803,-468.9 314.499,-462.32 312.208,-468.934"/>
</g>
<!-- Node12 -->
<g id="node12" class="node"><title>Node12</title>
<g id="a_node12"><a xlink:href="$mavlink__msg__hil__rc__inputs__raw_8h.html#a97f2446aa565f9aaf44eb76ce99e482c" xlink:title="Get field chan6_raw from hil_rc_inputs_raw message. ">
<polygon fill="white" stroke="black" points="305,-420 305,-450 445,-450 445,-420 305,-420"/>
<text text-anchor="start" x="313" y="-438" font-family="Helvetica,sans-Serif" font-size="10.00">mavlink_msg_hil_rc</text>
<text text-anchor="middle" x="375" y="-427" font-family="Helvetica,sans-Serif" font-size="10.00">_inputs_raw_get_chan6_raw</text>
</a>
</g>
</g>
<!-- Node5&#45;&gt;Node12 -->
<g id="edge11" class="edge"><title>Node5&#45;&gt;Node12</title>
<path fill="none" stroke="midnightblue" d="M252.206,-417.501C265.626,-419.429 280.368,-421.547 294.821,-423.624"/>
<polygon fill="midnightblue" stroke="midnightblue" points="294.364,-427.094 304.76,-425.052 295.359,-420.165 294.364,-427.094"/>
</g>
<!-- Node13 -->
<g id="node13" class="node"><title>Node13</title>
<g id="a_node13"><a xlink:href="$mavlink__msg__hil__rc__inputs__raw_8h.html#a574781b743e0ade6d731bdd84cef7aaf" xlink:title="Get field chan7_raw from hil_rc_inputs_raw message. ">
<polygon fill="white" stroke="black" points="305,-371 305,-401 445,-401 445,-371 305,-371"/>
<text text-anchor="start" x="313" y="-389" font-family="Helvetica,sans-Serif" font-size="10.00">mavlink_msg_hil_rc</text>
<text text-anchor="middle" x="375" y="-378" font-family="Helvetica,sans-Serif" font-size="10.00">_inputs_raw_get_chan7_raw</text>
</a>
</g>
</g>
<!-- Node5&#45;&gt;Node13 -->
<g id="edge12" class="edge"><title>Node5&#45;&gt;Node13</title>
<path fill="none" stroke="midnightblue" d="M252.206,-402.799C265.626,-400.948 280.368,-398.915 294.821,-396.921"/>
<polygon fill="midnightblue" stroke="midnightblue" points="295.332,-400.384 304.76,-395.55 294.375,-393.45 295.332,-400.384"/>
</g>
<!-- Node14 -->
<g id="node14" class="node"><title>Node14</title>
<g id="a_node14"><a xlink:href="$mavlink__msg__hil__rc__inputs__raw_8h.html#aa426b9fedd727d51fe1ad6ba0597dee7" xlink:title="Get field chan8_raw from hil_rc_inputs_raw message. ">
<polygon fill="white" stroke="black" points="305,-322 305,-352 445,-352 445,-322 305,-322"/>
<text text-anchor="start" x="313" y="-340" font-family="Helvetica,sans-Serif" font-size="10.00">mavlink_msg_hil_rc</text>
<text text-anchor="middle" x="375" y="-329" font-family="Helvetica,sans-Serif" font-size="10.00">_inputs_raw_get_chan8_raw</text>
</a>
</g>
</g>
<!-- Node5&#45;&gt;Node14 -->
<g id="edge13" class="edge"><title>Node5&#45;&gt;Node14</title>
<path fill="none" stroke="midnightblue" d="M239.241,-394.936C246.265,-391.878 253.433,-388.514 260,-385 276.954,-375.926 278.629,-369.247 296,-361 299.996,-359.103 304.177,-357.312 308.439,-355.629"/>
<polygon fill="midnightblue" stroke="midnightblue" points="309.71,-358.89 317.857,-352.118 307.265,-352.331 309.71,-358.89"/>
</g>
<!-- Node15 -->
<g id="node15" class="node"><title>Node15</title>
<g id="a_node15"><a xlink:href="$mavlink__msg__hil__rc__inputs__raw_8h.html#a675069e865fd3b780cb349d5692e47e7" xlink:title="Get field chan9_raw from hil_rc_inputs_raw message. ">
<polygon fill="white" stroke="black" points="305,-273 305,-303 445,-303 445,-273 305,-273"/>
<text text-anchor="start" x="313" y="-291" font-family="Helvetica,sans-Serif" font-size="10.00">mavlink_msg_hil_rc</text>
<text text-anchor="middle" x="375" y="-280" font-family="Helvetica,sans-Serif" font-size="10.00">_inputs_raw_get_chan9_raw</text>
</a>
</g>
</g>
<!-- Node5&#45;&gt;Node15 -->
<g id="edge14" class="edge"><title>Node5&#45;&gt;Node15</title>
<path fill="none" stroke="midnightblue" d="M246.036,-394.989C251.09,-392.168 255.886,-388.861 260,-385 286.377,-360.243 268.462,-335.458 296,-312 297.372,-310.831 298.8,-309.72 300.275,-308.662"/>
<polygon fill="midnightblue" stroke="midnightblue" points="302.5,-311.402 309.178,-303.178 298.828,-305.443 302.5,-311.402"/>
</g>
<!-- Node16 -->
<g id="node16" class="node"><title>Node16</title>
<g id="a_node16"><a xlink:href="$mavlink__msg__hil__rc__inputs__raw_8h.html#ab8f02bd52aa5f9d2a544aa38879dd5da" xlink:title="Get field chan10_raw from hil_rc_inputs_raw message. ">
<polygon fill="white" stroke="black" points="302,-224 302,-254 448,-254 448,-224 302,-224"/>
<text text-anchor="start" x="310" y="-242" font-family="Helvetica,sans-Serif" font-size="10.00">mavlink_msg_hil_rc</text>
<text text-anchor="middle" x="375" y="-231" font-family="Helvetica,sans-Serif" font-size="10.00">_inputs_raw_get_chan10_raw</text>
</a>
</g>
</g>
<!-- Node5&#45;&gt;Node16 -->
<g id="edge15" class="edge"><title>Node5&#45;&gt;Node16</title>
<path fill="none" stroke="midnightblue" d="M247.885,-394.93C252.374,-392.145 256.533,-388.863 260,-385 297.763,-342.928 256.256,-303.206 296,-263 296.952,-262.036 297.943,-261.111 298.966,-260.223"/>
<polygon fill="midnightblue" stroke="midnightblue" points="301.356,-262.814 307.402,-254.113 297.25,-257.145 301.356,-262.814"/>
</g>
<!-- Node17 -->
<g id="node17" class="node"><title>Node17</title>
<g id="a_node17"><a xlink:href="$mavlink__msg__hil__rc__inputs__raw_8h.html#ac9f7c7a03393d25336973aa6eb7f9010" xlink:title="Get field chan11_raw from hil_rc_inputs_raw message. ">
<polygon fill="white" stroke="black" points="302,-175 302,-205 448,-205 448,-175 302,-175"/>
<text text-anchor="start" x="310" y="-193" font-family="Helvetica,sans-Serif" font-size="10.00">mavlink_msg_hil_rc</text>
<text text-anchor="middle" x="375" y="-182" font-family="Helvetica,sans-Serif" font-size="10.00">_inputs_raw_get_chan11_raw</text>
</a>
</g>
</g>
<!-- Node5&#45;&gt;Node17 -->
<g id="edge16" class="edge"><title>Node5&#45;&gt;Node17</title>
<path fill="none" stroke="midnightblue" d="M248.776,-394.829C252.982,-392.072 256.833,-388.824 260,-385 309.542,-325.187 243.637,-271.359 296,-214 296.887,-213.029 297.811,-212.097 298.771,-211.202"/>
<polygon fill="midnightblue" stroke="midnightblue" points="300.961,-213.932 306.73,-205.046 296.678,-208.395 300.961,-213.932"/>
</g>
<!-- Node18 -->
<g id="node18" class="node"><title>Node18</title>
<g id="a_node18"><a xlink:href="$mavlink__msg__hil__rc__inputs__raw_8h.html#afa8f8cc7e97b6ba4e6ddf28e634350ef" xlink:title="Get field chan12_raw from hil_rc_inputs_raw message. ">
<polygon fill="white" stroke="black" points="302,-126 302,-156 448,-156 448,-126 302,-126"/>
<text text-anchor="start" x="310" y="-144" font-family="Helvetica,sans-Serif" font-size="10.00">mavlink_msg_hil_rc</text>
<text text-anchor="middle" x="375" y="-133" font-family="Helvetica,sans-Serif" font-size="10.00">_inputs_raw_get_chan12_raw</text>
</a>
</g>
</g>
<!-- Node5&#45;&gt;Node18 -->
<g id="edge17" class="edge"><title>Node5&#45;&gt;Node18</title>
<path fill="none" stroke="midnightblue" d="M248.955,-394.974C253.127,-392.189 256.92,-388.895 260,-385 321.456,-307.285 230.875,-239.667 296,-165 296.745,-164.146 297.52,-163.322 298.321,-162.526"/>
<polygon fill="midnightblue" stroke="midnightblue" points="300.647,-165.146 306.197,-156.121 296.23,-159.716 300.647,-165.146"/>
</g>
<!-- Node19 -->
<g id="node19" class="node"><title>Node19</title>
<g id="a_node19"><a xlink:href="$mavlink__msg__hil__rc__inputs__raw_8h.html#a42ee562ae2a19ecd2ab5b5947bab79d0" xlink:title="Get field rssi from hil_rc_inputs_raw message. ">
<polygon fill="white" stroke="black" points="320.5,-77 320.5,-107 429.5,-107 429.5,-77 320.5,-77"/>
<text text-anchor="start" x="328.5" y="-95" font-family="Helvetica,sans-Serif" font-size="10.00">mavlink_msg_hil_rc</text>
<text text-anchor="middle" x="375" y="-84" font-family="Helvetica,sans-Serif" font-size="10.00">_inputs_raw_get_rssi</text>
</a>
</g>
</g>
<!-- Node5&#45;&gt;Node19 -->
<g id="edge18" class="edge"><title>Node5&#45;&gt;Node19</title>
<path fill="none" stroke="midnightblue" d="M249.355,-394.874C253.391,-392.111 257.046,-388.85 260,-385 333.432,-289.306 218.048,-208.049 296,-116 300.206,-111.033 305.414,-107.076 311.13,-103.926"/>
<polygon fill="midnightblue" stroke="midnightblue" points="312.85,-106.987 320.457,-99.6121 309.911,-100.634 312.85,-106.987"/>
</g>
<!-- Node21 -->
<g id="node21" class="node"><title>Node21</title>
<g id="a_node21"><a xlink:href="$v0_89_2mavlink__helpers_8h.html#aa66131138fc02101dcc73b4b556ab422" xlink:title="Finalize a MAVLink message with channel assignment. ">
<polygon fill="white" stroke="black" points="296,-38.5 296,-57.5 454,-57.5 454,-38.5 296,-38.5"/>
<text text-anchor="middle" x="375" y="-45.5" font-family="Helvetica,sans-Serif" font-size="10.00">mavlink_finalize_message_chan</text>
</a>
</g>
</g>
<!-- Node20&#45;&gt;Node21 -->
<g id="edge21" class="edge"><title>Node20&#45;&gt;Node21</title>
<path fill="none" stroke="midnightblue" d="M249.355,-345.874C253.391,-343.111 257.046,-339.85 260,-336 333.432,-240.306 215.341,-156.687 296,-67 297.185,-65.6819 298.446,-64.4479 299.77,-63.2929"/>
<polygon fill="midnightblue" stroke="midnightblue" points="301.827,-66.1251 307.988,-57.5057 297.797,-60.4019 301.827,-66.1251"/>
</g>
<!-- Node25 -->
<g id="node25" class="node"><title>Node25</title>
<g id="a_node25"><a xlink:href="$classAP__HAL_1_1Print.html#acc65391952a43334f8f5c9bef341f501" xlink:title="AP_HAL::Print::write">
<polygon fill="white" stroke="black" points="321,-0.5 321,-19.5 429,-19.5 429,-0.5 321,-0.5"/>
<text text-anchor="middle" x="375" y="-7.5" font-family="Helvetica,sans-Serif" font-size="10.00">AP_HAL::Print::write</text>
</a>
</g>
</g>
<!-- Node24&#45;&gt;Node25 -->
<g id="edge25" class="edge"><title>Node24&#45;&gt;Node25</title>
<path fill="none" stroke="midnightblue" d="M206.449,-117.481C220.354,-97.7292 255.22,-52.2042 296,-29 300.77,-26.2859 305.918,-23.9572 311.214,-21.9596"/>
<polygon fill="midnightblue" stroke="midnightblue" points="312.501,-25.2196 320.86,-18.7097 310.265,-18.5861 312.501,-25.2196"/>
</g>
</g>
</svg>
