<?xml version="1.0" encoding="UTF-8" standalone="no"?>
<!DOCTYPE svg PUBLIC "-//W3C//DTD SVG 1.1//EN"
 "http://www.w3.org/Graphics/SVG/1.1/DTD/svg11.dtd">
<!-- Generated by graphviz version 2.36.0 (20140111.2315)
 -->
<!-- Title: mavlink_msg_global_position_int_encode_chan Pages: 1 -->
<svg width="496pt" height="38pt"
 viewBox="0.00 0.00 496.00 38.00" xmlns="http://www.w3.org/2000/svg" xmlns:xlink="http://www.w3.org/1999/xlink">
<g id="graph0" class="graph" transform="scale(1 1) rotate(0) translate(4 34)">
<title>mavlink_msg_global_position_int_encode_chan</title>
<polygon fill="white" stroke="none" points="-4,4 -4,-34 492,-34 492,4 -4,4"/>
<!-- Node1 -->
<g id="node1" class="node"><title>Node1</title>
<polygon fill="#bfbfbf" stroke="black" points="0,-0 0,-30 134,-30 134,-0 0,-0"/>
<text text-anchor="start" x="8" y="-18" font-family="Helvetica,sans-Serif" font-size="10.00">mavlink_msg_global</text>
<text text-anchor="middle" x="67" y="-7" font-family="Helvetica,sans-Serif" font-size="10.00">_position_int_encode_chan</text>
</g>
<!-- Node2 -->
<g id="node2" class="node"><title>Node2</title>
<g id="a_node2"><a xlink:href="$v1_80_2common_2mavlink__msg__global__position__int_8h.html#a1d92dff77f403fbcabc3a2ec4fd0a97e" xlink:title="Pack a global_position_int message on a channel. ">
<polygon fill="white" stroke="black" points="170,-0 170,-30 294,-30 294,-0 170,-0"/>
<text text-anchor="start" x="178" y="-18" font-family="Helvetica,sans-Serif" font-size="10.00">mavlink_msg_global</text>
<text text-anchor="middle" x="232" y="-7" font-family="Helvetica,sans-Serif" font-size="10.00">_position_int_pack_chan</text>
</a>
</g>
</g>
<!-- Node1&#45;&gt;Node2 -->
<g id="edge1" class="edge"><title>Node1&#45;&gt;Node2</title>
<path fill="none" stroke="midnightblue" d="M134.298,-15C142.632,-15 151.186,-15 159.595,-15"/>
<polygon fill="midnightblue" stroke="midnightblue" points="159.754,-18.5001 169.754,-15 159.754,-11.5001 159.754,-18.5001"/>
</g>
<!-- Node3 -->
<g id="node3" class="node"><title>Node3</title>
<g id="a_node3"><a xlink:href="$v0_89_2mavlink__helpers_8h.html#aa66131138fc02101dcc73b4b556ab422" xlink:title="Finalize a MAVLink message with channel assignment. ">
<polygon fill="white" stroke="black" points="330,-5.5 330,-24.5 488,-24.5 488,-5.5 330,-5.5"/>
<text text-anchor="middle" x="409" y="-12.5" font-family="Helvetica,sans-Serif" font-size="10.00">mavlink_finalize_message_chan</text>
</a>
</g>
</g>
<!-- Node2&#45;&gt;Node3 -->
<g id="edge2" class="edge"><title>Node2&#45;&gt;Node3</title>
<path fill="none" stroke="midnightblue" d="M294.207,-15C302.495,-15 311.131,-15 319.776,-15"/>
<polygon fill="midnightblue" stroke="midnightblue" points="319.909,-18.5001 329.909,-15 319.909,-11.5001 319.909,-18.5001"/>
</g>
</g>
</svg>
