<?xml version="1.0" encoding="UTF-8" standalone="no"?>
<!DOCTYPE svg PUBLIC "-//W3C//DTD SVG 1.1//EN"
 "http://www.w3.org/Graphics/SVG/1.1/DTD/svg11.dtd">
<!-- Generated by graphviz version 2.36.0 (20140111.2315)
 -->
<!-- Title: mavlink_test_log_erase Pages: 1 -->
<svg width="648pt" height="312pt"
 viewBox="0.00 0.00 648.00 312.00" xmlns="http://www.w3.org/2000/svg" xmlns:xlink="http://www.w3.org/1999/xlink">
<g id="graph0" class="graph" transform="scale(1 1) rotate(0) translate(4 308)">
<title>mavlink_test_log_erase</title>
<polygon fill="white" stroke="none" points="-4,4 -4,-308 644,-308 644,4 -4,4"/>
<!-- Node1 -->
<g id="node1" class="node"><title>Node1</title>
<polygon fill="#bfbfbf" stroke="black" points="0.5,-142.5 0.5,-161.5 119.5,-161.5 119.5,-142.5 0.5,-142.5"/>
<text text-anchor="middle" x="60" y="-149.5" font-family="Helvetica,sans-Serif" font-size="10.00">mavlink_test_log_erase</text>
</g>
<!-- Node2 -->
<g id="node2" class="node"><title>Node2</title>
<g id="a_node2"><a xlink:href="$mavlink__msg__log__erase_8h.html#a8e5b55f46d5e1c715c5302dcaf398702" xlink:title="Encode a log_erase struct. ">
<polygon fill="white" stroke="black" points="156,-274 156,-304 278,-304 278,-274 156,-274"/>
<text text-anchor="start" x="164" y="-292" font-family="Helvetica,sans-Serif" font-size="10.00">mavlink_msg_log_erase</text>
<text text-anchor="middle" x="217" y="-281" font-family="Helvetica,sans-Serif" font-size="10.00">_encode</text>
</a>
</g>
</g>
<!-- Node1&#45;&gt;Node2 -->
<g id="edge1" class="edge"><title>Node1&#45;&gt;Node2</title>
<path fill="none" stroke="midnightblue" d="M67.624,-161.685C81.8429,-181.91 117.166,-229.22 156,-259 160.736,-262.632 165.981,-266.012 171.341,-269.096"/>
<polygon fill="midnightblue" stroke="midnightblue" points="169.939,-272.317 180.4,-273.997 173.27,-266.16 169.939,-272.317"/>
</g>
<!-- Node3 -->
<g id="node3" class="node"><title>Node3</title>
<g id="a_node3"><a xlink:href="$mavlink__msg__log__erase_8h.html#aa50e518756b57e61b7c012c68d612125" xlink:title="Pack a log_erase message. ">
<polygon fill="white" stroke="black" points="319,-279.5 319,-298.5 467,-298.5 467,-279.5 319,-279.5"/>
<text text-anchor="middle" x="393" y="-286.5" font-family="Helvetica,sans-Serif" font-size="10.00">mavlink_msg_log_erase_pack</text>
</a>
</g>
</g>
<!-- Node1&#45;&gt;Node3 -->
<g id="edge7" class="edge"><title>Node1&#45;&gt;Node3</title>
<path fill="none" stroke="midnightblue" d="M70.6617,-161.51C86.9239,-177.007 121.392,-207.707 156,-225 187.95,-240.965 279.857,-263.592 339.101,-277.227"/>
<polygon fill="midnightblue" stroke="midnightblue" points="338.508,-280.682 349.037,-279.5 340.069,-273.858 338.508,-280.682"/>
</g>
<!-- Node5 -->
<g id="node5" class="node"><title>Node5</title>
<g id="a_node5"><a xlink:href="$mavlink__msg__log__erase_8h.html#a1c511819bca66a24e5b66df15d265649" xlink:title="Decode a log_erase message into a struct. ">
<polygon fill="white" stroke="black" points="156,-186 156,-216 278,-216 278,-186 156,-186"/>
<text text-anchor="start" x="164" y="-204" font-family="Helvetica,sans-Serif" font-size="10.00">mavlink_msg_log_erase</text>
<text text-anchor="middle" x="217" y="-193" font-family="Helvetica,sans-Serif" font-size="10.00">_decode</text>
</a>
</g>
</g>
<!-- Node1&#45;&gt;Node5 -->
<g id="edge4" class="edge"><title>Node1&#45;&gt;Node5</title>
<path fill="none" stroke="midnightblue" d="M91.2535,-161.564C110.449,-167.632 135.897,-175.677 158.8,-182.917"/>
<polygon fill="midnightblue" stroke="midnightblue" points="157.844,-186.286 168.434,-185.963 159.954,-179.611 157.844,-186.286"/>
</g>
<!-- Node8 -->
<g id="node8" class="node"><title>Node8</title>
<g id="a_node8"><a xlink:href="$mavlink__msg__log__erase_8h.html#a632478678e39013c5bba3e320d52f293" xlink:title="Pack a log_erase message on a channel. ">
<polygon fill="white" stroke="black" points="156,-137 156,-167 278,-167 278,-137 156,-137"/>
<text text-anchor="start" x="164" y="-155" font-family="Helvetica,sans-Serif" font-size="10.00">mavlink_msg_log_erase</text>
<text text-anchor="middle" x="217" y="-144" font-family="Helvetica,sans-Serif" font-size="10.00">_pack_chan</text>
</a>
</g>
</g>
<!-- Node1&#45;&gt;Node8 -->
<g id="edge8" class="edge"><title>Node1&#45;&gt;Node8</title>
<path fill="none" stroke="midnightblue" d="M119.599,-152C128.102,-152 136.929,-152 145.634,-152"/>
<polygon fill="midnightblue" stroke="midnightblue" points="145.771,-155.5 155.771,-152 145.771,-148.5 145.771,-155.5"/>
</g>
<!-- Node10 -->
<g id="node10" class="node"><title>Node10</title>
<g id="a_node10"><a xlink:href="$v0_89_2mavlink__helpers_8h.html#afea0a9befa84822fd62c2899ea0d849e" xlink:title="Pack a message to send it over a serial byte stream. ">
<polygon fill="white" stroke="black" points="160,-88 160,-118 274,-118 274,-88 160,-88"/>
<text text-anchor="start" x="168" y="-106" font-family="Helvetica,sans-Serif" font-size="10.00">mavlink_msg_to_send</text>
<text text-anchor="middle" x="217" y="-95" font-family="Helvetica,sans-Serif" font-size="10.00">_buffer</text>
</a>
</g>
</g>
<!-- Node1&#45;&gt;Node10 -->
<g id="edge10" class="edge"><title>Node1&#45;&gt;Node10</title>
<path fill="none" stroke="midnightblue" d="M91.2535,-142.436C110.449,-136.368 135.897,-128.323 158.8,-121.083"/>
<polygon fill="midnightblue" stroke="midnightblue" points="159.954,-124.389 168.434,-118.037 157.844,-117.714 159.954,-124.389"/>
</g>
<!-- Node11 -->
<g id="node11" class="node"><title>Node11</title>
<g id="a_node11"><a xlink:href="$v0_89_2protocol_8h.html#aa86c08f27aabb7a2e12a67f189f590c8" xlink:title="Get the required buffer size for this message. ">
<polygon fill="white" stroke="black" points="157.5,-39 157.5,-69 276.5,-69 276.5,-39 157.5,-39"/>
<text text-anchor="start" x="165.5" y="-57" font-family="Helvetica,sans-Serif" font-size="10.00">mavlink_msg_get_send</text>
<text text-anchor="middle" x="217" y="-46" font-family="Helvetica,sans-Serif" font-size="10.00">_buffer_length</text>
</a>
</g>
</g>
<!-- Node1&#45;&gt;Node11 -->
<g id="edge11" class="edge"><title>Node1&#45;&gt;Node11</title>
<path fill="none" stroke="midnightblue" d="M71.4002,-142.277C88.1572,-127.001 122.639,-97.1518 156,-78 158.822,-76.3802 161.774,-74.8193 164.791,-73.3249"/>
<polygon fill="midnightblue" stroke="midnightblue" points="166.385,-76.4438 173.971,-69.0485 163.429,-70.0985 166.385,-76.4438"/>
</g>
<!-- Node12 -->
<g id="node12" class="node"><title>Node12</title>
<g id="a_node12"><a xlink:href="$GCS__MAVLink_8h.html#ab753873a1ee10adedd0ce246311468f8" xlink:title="comm_send_ch">
<polygon fill="white" stroke="black" points="174,-0.5 174,-19.5 260,-19.5 260,-0.5 174,-0.5"/>
<text text-anchor="middle" x="217" y="-7.5" font-family="Helvetica,sans-Serif" font-size="10.00">comm_send_ch</text>
</a>
</g>
</g>
<!-- Node1&#45;&gt;Node12 -->
<g id="edge12" class="edge"><title>Node1&#45;&gt;Node12</title>
<path fill="none" stroke="midnightblue" d="M65.7564,-142.401C77.6736,-119.333 111.102,-60.3736 156,-29 158.863,-26.9992 161.947,-25.2018 165.152,-23.5883"/>
<polygon fill="midnightblue" stroke="midnightblue" points="166.676,-26.7416 174.42,-19.5113 163.857,-20.334 166.676,-26.7416"/>
</g>
<!-- Node2&#45;&gt;Node3 -->
<g id="edge2" class="edge"><title>Node2&#45;&gt;Node3</title>
<path fill="none" stroke="midnightblue" d="M278.368,-289C288.159,-289 298.448,-289 308.67,-289"/>
<polygon fill="midnightblue" stroke="midnightblue" points="308.848,-292.5 318.848,-289 308.847,-285.5 308.848,-292.5"/>
</g>
<!-- Node4 -->
<g id="node4" class="node"><title>Node4</title>
<g id="a_node4"><a xlink:href="$v0_89_2mavlink__helpers_8h.html#af3bea083c5ec83f5b6570b2bd4a817d0" xlink:title="Finalize a MAVLink message with MAVLINK_COMM_0 as default channel. ">
<polygon fill="white" stroke="black" points="508.5,-279.5 508.5,-298.5 639.5,-298.5 639.5,-279.5 508.5,-279.5"/>
<text text-anchor="middle" x="574" y="-286.5" font-family="Helvetica,sans-Serif" font-size="10.00">mavlink_finalize_message</text>
</a>
</g>
</g>
<!-- Node3&#45;&gt;Node4 -->
<g id="edge3" class="edge"><title>Node3&#45;&gt;Node4</title>
<path fill="none" stroke="midnightblue" d="M467.064,-289C477.36,-289 487.956,-289 498.282,-289"/>
<polygon fill="midnightblue" stroke="midnightblue" points="498.496,-292.5 508.496,-289 498.496,-285.5 498.496,-292.5"/>
</g>
<!-- Node6 -->
<g id="node6" class="node"><title>Node6</title>
<g id="a_node6"><a xlink:href="$mavlink__msg__log__erase_8h.html#a9ceb78d6683be034e40df6778bf5548f" xlink:title="Send a log_erase message. ">
<polygon fill="white" stroke="black" points="332,-230 332,-260 454,-260 454,-230 332,-230"/>
<text text-anchor="start" x="340" y="-248" font-family="Helvetica,sans-Serif" font-size="10.00">mavlink_msg_log_erase</text>
<text text-anchor="middle" x="393" y="-237" font-family="Helvetica,sans-Serif" font-size="10.00">_get_target_system</text>
</a>
</g>
</g>
<!-- Node5&#45;&gt;Node6 -->
<g id="edge5" class="edge"><title>Node5&#45;&gt;Node6</title>
<path fill="none" stroke="midnightblue" d="M277.394,-216.019C292.012,-219.716 307.789,-223.705 322.825,-227.507"/>
<polygon fill="midnightblue" stroke="midnightblue" points="322.025,-230.915 332.578,-229.974 323.741,-224.129 322.025,-230.915"/>
</g>
<!-- Node7 -->
<g id="node7" class="node"><title>Node7</title>
<g id="a_node7"><a xlink:href="$mavlink__msg__log__erase_8h.html#ad4e2e408568343966f459f19191e488a" xlink:title="Get field target_component from log_erase message. ">
<polygon fill="white" stroke="black" points="332,-181 332,-211 454,-211 454,-181 332,-181"/>
<text text-anchor="start" x="340" y="-199" font-family="Helvetica,sans-Serif" font-size="10.00">mavlink_msg_log_erase</text>
<text text-anchor="middle" x="393" y="-188" font-family="Helvetica,sans-Serif" font-size="10.00">_get_target_component</text>
</a>
</g>
</g>
<!-- Node5&#45;&gt;Node7 -->
<g id="edge6" class="edge"><title>Node5&#45;&gt;Node7</title>
<path fill="none" stroke="midnightblue" d="M278.368,-199.265C292.27,-198.866 307.175,-198.438 321.465,-198.027"/>
<polygon fill="midnightblue" stroke="midnightblue" points="321.843,-201.518 331.738,-197.732 321.642,-194.52 321.843,-201.518"/>
</g>
<!-- Node9 -->
<g id="node9" class="node"><title>Node9</title>
<g id="a_node9"><a xlink:href="$v0_89_2mavlink__helpers_8h.html#aa66131138fc02101dcc73b4b556ab422" xlink:title="Finalize a MAVLink message with channel assignment. ">
<polygon fill="white" stroke="black" points="314,-142.5 314,-161.5 472,-161.5 472,-142.5 314,-142.5"/>
<text text-anchor="middle" x="393" y="-149.5" font-family="Helvetica,sans-Serif" font-size="10.00">mavlink_finalize_message_chan</text>
</a>
</g>
</g>
<!-- Node8&#45;&gt;Node9 -->
<g id="edge9" class="edge"><title>Node8&#45;&gt;Node9</title>
<path fill="none" stroke="midnightblue" d="M278.368,-152C286.623,-152 295.231,-152 303.854,-152"/>
<polygon fill="midnightblue" stroke="midnightblue" points="303.964,-155.5 313.963,-152 303.963,-148.5 303.964,-155.5"/>
</g>
<!-- Node13 -->
<g id="node13" class="node"><title>Node13</title>
<g id="a_node13"><a xlink:href="$classAP__HAL_1_1Print.html#acc65391952a43334f8f5c9bef341f501" xlink:title="AP_HAL::Print::write">
<polygon fill="white" stroke="black" points="339,-0.5 339,-19.5 447,-19.5 447,-0.5 339,-0.5"/>
<text text-anchor="middle" x="393" y="-7.5" font-family="Helvetica,sans-Serif" font-size="10.00">AP_HAL::Print::write</text>
</a>
</g>
</g>
<!-- Node12&#45;&gt;Node13 -->
<g id="edge13" class="edge"><title>Node12&#45;&gt;Node13</title>
<path fill="none" stroke="midnightblue" d="M260.121,-10C280.617,-10 305.69,-10 328.45,-10"/>
<polygon fill="midnightblue" stroke="midnightblue" points="328.719,-13.5001 338.719,-10 328.719,-6.5001 328.719,-13.5001"/>
</g>
</g>
</svg>
