<?xml version="1.0" encoding="UTF-8" standalone="no"?>
<!DOCTYPE svg PUBLIC "-//W3C//DTD SVG 1.1//EN"
 "http://www.w3.org/Graphics/SVG/1.1/DTD/svg11.dtd">
<!-- Generated by graphviz version 2.36.0 (20140111.2315)
 -->
<!-- Title: mavlink_test_hil_controls Pages: 1 -->
<svg width="664pt" height="448pt"
 viewBox="0.00 0.00 664.00 448.00" xmlns="http://www.w3.org/2000/svg" xmlns:xlink="http://www.w3.org/1999/xlink">
<g id="graph0" class="graph" transform="scale(1 1) rotate(0) translate(4 444)">
<title>mavlink_test_hil_controls</title>
<polygon fill="white" stroke="none" points="-4,4 -4,-444 660,-444 660,4 -4,4"/>
<!-- Node1 -->
<g id="node1" class="node"><title>Node1</title>
<polygon fill="#bfbfbf" stroke="black" points="0.5,-180.5 0.5,-199.5 127.5,-199.5 127.5,-180.5 0.5,-180.5"/>
<text text-anchor="middle" x="64" y="-187.5" font-family="Helvetica,sans-Serif" font-size="10.00">mavlink_test_hil_controls</text>
</g>
<!-- Node2 -->
<g id="node2" class="node"><title>Node2</title>
<g id="a_node2"><a xlink:href="$v0_89_2common_2mavlink__msg__hil__controls_8h.html#aaeed0852bd26eb9d24d489145d11c9c1" xlink:title="Encode a hil_controls struct into a message. ">
<polygon fill="white" stroke="black" points="164.5,-389 164.5,-419 293.5,-419 293.5,-389 164.5,-389"/>
<text text-anchor="start" x="172.5" y="-407" font-family="Helvetica,sans-Serif" font-size="10.00">mavlink_msg_hil_controls</text>
<text text-anchor="middle" x="229" y="-396" font-family="Helvetica,sans-Serif" font-size="10.00">_encode</text>
</a>
</g>
</g>
<!-- Node1&#45;&gt;Node2 -->
<g id="edge1" class="edge"><title>Node1&#45;&gt;Node2</title>
<path fill="none" stroke="midnightblue" d="M69.7152,-199.545C82.6321,-225.174 120.534,-297.004 164,-348 174.661,-360.507 188.151,-372.726 199.994,-382.541"/>
<polygon fill="midnightblue" stroke="midnightblue" points="197.902,-385.351 207.875,-388.927 202.309,-379.912 197.902,-385.351"/>
</g>
<!-- Node3 -->
<g id="node3" class="node"><title>Node3</title>
<g id="a_node3"><a xlink:href="$v0_89_2common_2mavlink__msg__hil__controls_8h.html#a111f1b901e6568ff2fe4995a47b40b20" xlink:title="Pack a hil_controls message. ">
<polygon fill="white" stroke="black" points="331.5,-420.5 331.5,-439.5 486.5,-439.5 486.5,-420.5 331.5,-420.5"/>
<text text-anchor="middle" x="409" y="-427.5" font-family="Helvetica,sans-Serif" font-size="10.00">mavlink_msg_hil_controls_pack</text>
</a>
</g>
</g>
<!-- Node1&#45;&gt;Node3 -->
<g id="edge12" class="edge"><title>Node1&#45;&gt;Node3</title>
<path fill="none" stroke="midnightblue" d="M76.9929,-199.75C111.122,-227.529 211.63,-309.557 294,-379 310.143,-392.61 311.281,-400.232 330,-410 335.32,-412.776 341.048,-415.183 346.899,-417.267"/>
<polygon fill="midnightblue" stroke="midnightblue" points="346.218,-420.726 356.81,-420.478 348.375,-414.067 346.218,-420.726"/>
</g>
<!-- Node5 -->
<g id="node5" class="node"><title>Node5</title>
<g id="a_node5"><a xlink:href="$v0_89_2common_2mavlink__msg__hil__controls_8h.html#af680f22b5c1f7dbad8213834d6cf94a7" xlink:title="Decode a hil_controls message into a struct. ">
<polygon fill="white" stroke="black" points="164.5,-224 164.5,-254 293.5,-254 293.5,-224 164.5,-224"/>
<text text-anchor="start" x="172.5" y="-242" font-family="Helvetica,sans-Serif" font-size="10.00">mavlink_msg_hil_controls</text>
<text text-anchor="middle" x="229" y="-231" font-family="Helvetica,sans-Serif" font-size="10.00">_decode</text>
</a>
</g>
</g>
<!-- Node1&#45;&gt;Node5 -->
<g id="edge4" class="edge"><title>Node1&#45;&gt;Node5</title>
<path fill="none" stroke="midnightblue" d="M96.815,-199.564C117.091,-205.659 144.001,-213.749 168.17,-221.014"/>
<polygon fill="midnightblue" stroke="midnightblue" points="167.395,-224.436 177.979,-223.963 169.41,-217.732 167.395,-224.436"/>
</g>
<!-- Node13 -->
<g id="node13" class="node"><title>Node13</title>
<g id="a_node13"><a xlink:href="$v0_89_2common_2mavlink__msg__hil__controls_8h.html#aaaba78a372715bff1145784250ff7b19" xlink:title="Pack a hil_controls message on a channel. ">
<polygon fill="white" stroke="black" points="164.5,-175 164.5,-205 293.5,-205 293.5,-175 164.5,-175"/>
<text text-anchor="start" x="172.5" y="-193" font-family="Helvetica,sans-Serif" font-size="10.00">mavlink_msg_hil_controls</text>
<text text-anchor="middle" x="229" y="-182" font-family="Helvetica,sans-Serif" font-size="10.00">_pack_chan</text>
</a>
</g>
</g>
<!-- Node1&#45;&gt;Node13 -->
<g id="edge13" class="edge"><title>Node1&#45;&gt;Node13</title>
<path fill="none" stroke="midnightblue" d="M127.554,-190C136.201,-190 145.149,-190 153.979,-190"/>
<polygon fill="midnightblue" stroke="midnightblue" points="154.265,-193.5 164.265,-190 154.265,-186.5 154.265,-193.5"/>
</g>
<!-- Node15 -->
<g id="node15" class="node"><title>Node15</title>
<g id="a_node15"><a xlink:href="$v0_89_2mavlink__helpers_8h.html#afea0a9befa84822fd62c2899ea0d849e" xlink:title="Pack a message to send it over a serial byte stream. ">
<polygon fill="white" stroke="black" points="172,-126 172,-156 286,-156 286,-126 172,-126"/>
<text text-anchor="start" x="180" y="-144" font-family="Helvetica,sans-Serif" font-size="10.00">mavlink_msg_to_send</text>
<text text-anchor="middle" x="229" y="-133" font-family="Helvetica,sans-Serif" font-size="10.00">_buffer</text>
</a>
</g>
</g>
<!-- Node1&#45;&gt;Node15 -->
<g id="edge15" class="edge"><title>Node1&#45;&gt;Node15</title>
<path fill="none" stroke="midnightblue" d="M96.815,-180.436C117.091,-174.341 144.001,-166.251 168.17,-158.986"/>
<polygon fill="midnightblue" stroke="midnightblue" points="169.41,-162.268 177.979,-156.037 167.395,-155.564 169.41,-162.268"/>
</g>
<!-- Node16 -->
<g id="node16" class="node"><title>Node16</title>
<g id="a_node16"><a xlink:href="$v0_89_2protocol_8h.html#aa86c08f27aabb7a2e12a67f189f590c8" xlink:title="Get the required buffer size for this message. ">
<polygon fill="white" stroke="black" points="169.5,-77 169.5,-107 288.5,-107 288.5,-77 169.5,-77"/>
<text text-anchor="start" x="177.5" y="-95" font-family="Helvetica,sans-Serif" font-size="10.00">mavlink_msg_get_send</text>
<text text-anchor="middle" x="229" y="-84" font-family="Helvetica,sans-Serif" font-size="10.00">_buffer_length</text>
</a>
</g>
</g>
<!-- Node1&#45;&gt;Node16 -->
<g id="edge16" class="edge"><title>Node1&#45;&gt;Node16</title>
<path fill="none" stroke="midnightblue" d="M75.5834,-180.476C92.9781,-165.208 129.168,-135.044 164,-116 167.06,-114.327 170.261,-112.722 173.531,-111.191"/>
<polygon fill="midnightblue" stroke="midnightblue" points="175.124,-114.313 182.864,-107.078 172.302,-107.907 175.124,-114.313"/>
</g>
<!-- Node17 -->
<g id="node17" class="node"><title>Node17</title>
<g id="a_node17"><a xlink:href="$GCS__MAVLink_8h.html#ab753873a1ee10adedd0ce246311468f8" xlink:title="comm_send_ch">
<polygon fill="white" stroke="black" points="186,-19.5 186,-38.5 272,-38.5 272,-19.5 186,-19.5"/>
<text text-anchor="middle" x="229" y="-26.5" font-family="Helvetica,sans-Serif" font-size="10.00">comm_send_ch</text>
</a>
</g>
</g>
<!-- Node1&#45;&gt;Node17 -->
<g id="edge17" class="edge"><title>Node1&#45;&gt;Node17</title>
<path fill="none" stroke="midnightblue" d="M70.9816,-180.406C85.0842,-158.338 122.376,-103.1 164,-67 174.476,-57.9143 187.415,-49.7685 198.912,-43.3712"/>
<polygon fill="midnightblue" stroke="midnightblue" points="200.59,-46.4426 207.748,-38.6309 197.281,-40.2741 200.59,-46.4426"/>
</g>
<!-- Node2&#45;&gt;Node3 -->
<g id="edge2" class="edge"><title>Node2&#45;&gt;Node3</title>
<path fill="none" stroke="midnightblue" d="M293.508,-413.276C306.238,-415.136 319.728,-417.106 332.81,-419.017"/>
<polygon fill="midnightblue" stroke="midnightblue" points="332.313,-422.482 342.714,-420.464 333.325,-415.555 332.313,-422.482"/>
</g>
<!-- Node4 -->
<g id="node4" class="node"><title>Node4</title>
<g id="a_node4"><a xlink:href="$v0_89_2mavlink__helpers_8h.html#af3bea083c5ec83f5b6570b2bd4a817d0" xlink:title="Finalize a MAVLink message with MAVLINK_COMM_0 as default channel. ">
<polygon fill="white" stroke="black" points="524.5,-420.5 524.5,-439.5 655.5,-439.5 655.5,-420.5 524.5,-420.5"/>
<text text-anchor="middle" x="590" y="-427.5" font-family="Helvetica,sans-Serif" font-size="10.00">mavlink_finalize_message</text>
</a>
</g>
</g>
<!-- Node3&#45;&gt;Node4 -->
<g id="edge3" class="edge"><title>Node3&#45;&gt;Node4</title>
<path fill="none" stroke="midnightblue" d="M486.691,-430C495.792,-430 505.073,-430 514.147,-430"/>
<polygon fill="midnightblue" stroke="midnightblue" points="514.284,-433.5 524.284,-430 514.284,-426.5 514.284,-433.5"/>
</g>
<!-- Node6 -->
<g id="node6" class="node"><title>Node6</title>
<g id="a_node6"><a xlink:href="$v0_89_2common_2mavlink__msg__hil__controls_8h.html#a073805aa7a3d20f5b6897d632b1a3238" xlink:title="Send a hil_controls message. ">
<polygon fill="white" stroke="black" points="344.5,-371 344.5,-401 473.5,-401 473.5,-371 344.5,-371"/>
<text text-anchor="start" x="352.5" y="-389" font-family="Helvetica,sans-Serif" font-size="10.00">mavlink_msg_hil_controls</text>
<text text-anchor="middle" x="409" y="-378" font-family="Helvetica,sans-Serif" font-size="10.00">_get_time_us</text>
</a>
</g>
</g>
<!-- Node5&#45;&gt;Node6 -->
<g id="edge5" class="edge"><title>Node5&#45;&gt;Node6</title>
<path fill="none" stroke="midnightblue" d="M242.21,-254.362C267.64,-286.292 324.395,-357.189 330,-361 332.91,-362.979 335.987,-364.809 339.171,-366.5"/>
<polygon fill="midnightblue" stroke="midnightblue" points="337.846,-369.747 348.377,-370.908 340.869,-363.433 337.846,-369.747"/>
</g>
<!-- Node7 -->
<g id="node7" class="node"><title>Node7</title>
<g id="a_node7"><a xlink:href="$v0_89_2common_2mavlink__msg__hil__controls_8h.html#ab4f30c4a5679eb8c07e184f92e9c74bb" xlink:title="Get field roll_ailerons from hil_controls message. ">
<polygon fill="white" stroke="black" points="344.5,-322 344.5,-352 473.5,-352 473.5,-322 344.5,-322"/>
<text text-anchor="start" x="352.5" y="-340" font-family="Helvetica,sans-Serif" font-size="10.00">mavlink_msg_hil_controls</text>
<text text-anchor="middle" x="409" y="-329" font-family="Helvetica,sans-Serif" font-size="10.00">_get_roll_ailerons</text>
</a>
</g>
</g>
<!-- Node5&#45;&gt;Node7 -->
<g id="edge6" class="edge"><title>Node5&#45;&gt;Node7</title>
<path fill="none" stroke="midnightblue" d="M246.94,-254.021C265.982,-270.247 298.385,-295.926 330,-312 334.48,-314.278 339.21,-316.403 344.035,-318.375"/>
<polygon fill="midnightblue" stroke="midnightblue" points="342.801,-321.65 353.391,-321.977 345.316,-315.118 342.801,-321.65"/>
</g>
<!-- Node8 -->
<g id="node8" class="node"><title>Node8</title>
<g id="a_node8"><a xlink:href="$v0_89_2common_2mavlink__msg__hil__controls_8h.html#a8ac7a4a54675fbe41c1fa087702f578a" xlink:title="Get field pitch_elevator from hil_controls message. ">
<polygon fill="white" stroke="black" points="344.5,-273 344.5,-303 473.5,-303 473.5,-273 344.5,-273"/>
<text text-anchor="start" x="352.5" y="-291" font-family="Helvetica,sans-Serif" font-size="10.00">mavlink_msg_hil_controls</text>
<text text-anchor="middle" x="409" y="-280" font-family="Helvetica,sans-Serif" font-size="10.00">_get_pitch_elevator</text>
</a>
</g>
</g>
<!-- Node5&#45;&gt;Node8 -->
<g id="edge7" class="edge"><title>Node5&#45;&gt;Node8</title>
<path fill="none" stroke="midnightblue" d="M284.858,-254.101C303.386,-259.202 324.242,-264.943 343.45,-270.23"/>
<polygon fill="midnightblue" stroke="midnightblue" points="342.753,-273.669 353.323,-272.948 344.61,-266.92 342.753,-273.669"/>
</g>
<!-- Node9 -->
<g id="node9" class="node"><title>Node9</title>
<g id="a_node9"><a xlink:href="$v0_89_2common_2mavlink__msg__hil__controls_8h.html#a6b7c378b2754f7464475c0a90674c6b3" xlink:title="Get field yaw_rudder from hil_controls message. ">
<polygon fill="white" stroke="black" points="344.5,-224 344.5,-254 473.5,-254 473.5,-224 344.5,-224"/>
<text text-anchor="start" x="352.5" y="-242" font-family="Helvetica,sans-Serif" font-size="10.00">mavlink_msg_hil_controls</text>
<text text-anchor="middle" x="409" y="-231" font-family="Helvetica,sans-Serif" font-size="10.00">_get_yaw_rudder</text>
</a>
</g>
</g>
<!-- Node5&#45;&gt;Node9 -->
<g id="edge8" class="edge"><title>Node5&#45;&gt;Node9</title>
<path fill="none" stroke="midnightblue" d="M293.508,-239C306.636,-239 320.572,-239 334.035,-239"/>
<polygon fill="midnightblue" stroke="midnightblue" points="334.217,-242.5 344.217,-239 334.217,-235.5 334.217,-242.5"/>
</g>
<!-- Node10 -->
<g id="node10" class="node"><title>Node10</title>
<g id="a_node10"><a xlink:href="$v0_89_2common_2mavlink__msg__hil__controls_8h.html#a292f32b7a4eba1f9898bb7ba9ef3d04b" xlink:title="Get field throttle from hil_controls message. ">
<polygon fill="white" stroke="black" points="344.5,-175 344.5,-205 473.5,-205 473.5,-175 344.5,-175"/>
<text text-anchor="start" x="352.5" y="-193" font-family="Helvetica,sans-Serif" font-size="10.00">mavlink_msg_hil_controls</text>
<text text-anchor="middle" x="409" y="-182" font-family="Helvetica,sans-Serif" font-size="10.00">_get_throttle</text>
</a>
</g>
</g>
<!-- Node5&#45;&gt;Node10 -->
<g id="edge9" class="edge"><title>Node5&#45;&gt;Node10</title>
<path fill="none" stroke="midnightblue" d="M284.858,-223.899C303.386,-218.798 324.242,-213.057 343.45,-207.77"/>
<polygon fill="midnightblue" stroke="midnightblue" points="344.61,-211.08 353.323,-205.052 342.753,-204.331 344.61,-211.08"/>
</g>
<!-- Node11 -->
<g id="node11" class="node"><title>Node11</title>
<g id="a_node11"><a xlink:href="$v0_89_2common_2mavlink__msg__hil__controls_8h.html#a525158c4613198d4b3a219a19eb9c1e1" xlink:title="Get field mode from hil_controls message. ">
<polygon fill="white" stroke="black" points="344.5,-126 344.5,-156 473.5,-156 473.5,-126 344.5,-126"/>
<text text-anchor="start" x="352.5" y="-144" font-family="Helvetica,sans-Serif" font-size="10.00">mavlink_msg_hil_controls</text>
<text text-anchor="middle" x="409" y="-133" font-family="Helvetica,sans-Serif" font-size="10.00">_get_mode</text>
</a>
</g>
</g>
<!-- Node5&#45;&gt;Node11 -->
<g id="edge10" class="edge"><title>Node5&#45;&gt;Node11</title>
<path fill="none" stroke="midnightblue" d="M277.778,-223.872C283.518,-221.052 289.08,-217.778 294,-214 315.435,-197.543 307.972,-180.654 330,-165 332.122,-163.492 334.341,-162.077 336.633,-160.749"/>
<polygon fill="midnightblue" stroke="midnightblue" points="338.485,-163.732 345.778,-156.048 335.284,-157.507 338.485,-163.732"/>
</g>
<!-- Node12 -->
<g id="node12" class="node"><title>Node12</title>
<g id="a_node12"><a xlink:href="$v0_89_2common_2mavlink__msg__hil__controls_8h.html#a5c825c88e7703d07b5e4c860a410b8c1" xlink:title="Get field nav_mode from hil_controls message. ">
<polygon fill="white" stroke="black" points="344.5,-77 344.5,-107 473.5,-107 473.5,-77 344.5,-77"/>
<text text-anchor="start" x="352.5" y="-95" font-family="Helvetica,sans-Serif" font-size="10.00">mavlink_msg_hil_controls</text>
<text text-anchor="middle" x="409" y="-84" font-family="Helvetica,sans-Serif" font-size="10.00">_get_nav_mode</text>
</a>
</g>
</g>
<!-- Node5&#45;&gt;Node12 -->
<g id="edge11" class="edge"><title>Node5&#45;&gt;Node12</title>
<path fill="none" stroke="midnightblue" d="M281.106,-223.86C285.829,-221.093 290.243,-217.834 294,-214 326.475,-180.857 296.323,-147.921 330,-116 331.713,-114.377 333.533,-112.863 335.439,-111.451"/>
<polygon fill="midnightblue" stroke="midnightblue" points="337.677,-114.178 344.282,-105.895 333.953,-108.251 337.677,-114.178"/>
</g>
<!-- Node14 -->
<g id="node14" class="node"><title>Node14</title>
<g id="a_node14"><a xlink:href="$v0_89_2mavlink__helpers_8h.html#aa66131138fc02101dcc73b4b556ab422" xlink:title="Finalize a MAVLink message with channel assignment. ">
<polygon fill="white" stroke="black" points="330,-38.5 330,-57.5 488,-57.5 488,-38.5 330,-38.5"/>
<text text-anchor="middle" x="409" y="-45.5" font-family="Helvetica,sans-Serif" font-size="10.00">mavlink_finalize_message_chan</text>
</a>
</g>
</g>
<!-- Node13&#45;&gt;Node14 -->
<g id="edge14" class="edge"><title>Node13&#45;&gt;Node14</title>
<path fill="none" stroke="midnightblue" d="M281.106,-174.86C285.829,-172.093 290.243,-168.834 294,-165 326.475,-131.857 295.387,-97.9037 330,-67 331.732,-65.4539 333.568,-64.0285 335.489,-62.7147"/>
<polygon fill="midnightblue" stroke="midnightblue" points="337.43,-65.6367 344.381,-57.6408 333.961,-59.5568 337.43,-65.6367"/>
</g>
<!-- Node18 -->
<g id="node18" class="node"><title>Node18</title>
<g id="a_node18"><a xlink:href="$classAP__HAL_1_1Print.html#acc65391952a43334f8f5c9bef341f501" xlink:title="AP_HAL::Print::write">
<polygon fill="white" stroke="black" points="355,-0.5 355,-19.5 463,-19.5 463,-0.5 355,-0.5"/>
<text text-anchor="middle" x="409" y="-7.5" font-family="Helvetica,sans-Serif" font-size="10.00">AP_HAL::Print::write</text>
</a>
</g>
</g>
<!-- Node17&#45;&gt;Node18 -->
<g id="edge18" class="edge"><title>Node17&#45;&gt;Node18</title>
<path fill="none" stroke="midnightblue" d="M272.184,-24.4973C293.863,-22.1832 320.723,-19.3161 344.819,-16.744"/>
<polygon fill="midnightblue" stroke="midnightblue" points="345.382,-20.2039 354.954,-15.6622 344.639,-13.2435 345.382,-20.2039"/>
</g>
</g>
</svg>
