<?xml version="1.0" encoding="UTF-8" standalone="no"?>
<!DOCTYPE svg PUBLIC "-//W3C//DTD SVG 1.1//EN"
 "http://www.w3.org/Graphics/SVG/1.1/DTD/svg11.dtd">
<!-- Generated by graphviz version 2.36.0 (20140111.2315)
 -->
<!-- Title: mavlink_test_rc_channels_raw Pages: 1 -->
<svg width="690pt" height="556pt"
 viewBox="0.00 0.00 690.00 556.00" xmlns="http://www.w3.org/2000/svg" xmlns:xlink="http://www.w3.org/1999/xlink">
<g id="graph0" class="graph" transform="scale(1 1) rotate(0) translate(4 552)">
<title>mavlink_test_rc_channels_raw</title>
<polygon fill="white" stroke="none" points="-4,4 -4,-552 686,-552 686,4 -4,4"/>
<!-- Node1 -->
<g id="node1" class="node"><title>Node1</title>
<polygon fill="#bfbfbf" stroke="black" points="0.5,-229.5 0.5,-248.5 151.5,-248.5 151.5,-229.5 0.5,-229.5"/>
<text text-anchor="middle" x="76" y="-236.5" font-family="Helvetica,sans-Serif" font-size="10.00">mavlink_test_rc_channels_raw</text>
</g>
<!-- Node2 -->
<g id="node2" class="node"><title>Node2</title>
<g id="a_node2"><a xlink:href="$v0_89_2common_2mavlink__msg__rc__channels__raw_8h.html#ae84c32a2251a159ea777a0d0f165d7d2" xlink:title="Encode a rc_channels_raw struct into a message. ">
<polygon fill="white" stroke="black" points="188,-478 188,-508 320,-508 320,-478 188,-478"/>
<text text-anchor="start" x="196" y="-496" font-family="Helvetica,sans-Serif" font-size="10.00">mavlink_msg_rc_channels</text>
<text text-anchor="middle" x="254" y="-485" font-family="Helvetica,sans-Serif" font-size="10.00">_raw_encode</text>
</a>
</g>
</g>
<!-- Node1&#45;&gt;Node2 -->
<g id="edge1" class="edge"><title>Node1&#45;&gt;Node2</title>
<path fill="none" stroke="midnightblue" d="M81.8651,-248.698C96.245,-276.974 140.524,-361.287 188,-424 200.622,-440.672 216.727,-457.793 229.748,-470.809"/>
<polygon fill="midnightblue" stroke="midnightblue" points="227.43,-473.438 237.009,-477.964 232.343,-468.452 227.43,-473.438"/>
</g>
<!-- Node3 -->
<g id="node3" class="node"><title>Node3</title>
<g id="a_node3"><a xlink:href="$v0_89_2common_2mavlink__msg__rc__channels__raw_8h.html#a4dc2219744f3f4c69fbd3a8e8a4f5008" xlink:title="Pack a rc_channels_raw message. ">
<polygon fill="white" stroke="black" points="369,-518 369,-548 501,-548 501,-518 369,-518"/>
<text text-anchor="start" x="377" y="-536" font-family="Helvetica,sans-Serif" font-size="10.00">mavlink_msg_rc_channels</text>
<text text-anchor="middle" x="435" y="-525" font-family="Helvetica,sans-Serif" font-size="10.00">_raw_pack</text>
</a>
</g>
</g>
<!-- Node1&#45;&gt;Node3 -->
<g id="edge14" class="edge"><title>Node1&#45;&gt;Node3</title>
<path fill="none" stroke="midnightblue" d="M87.9598,-248.738C122.785,-279.804 233.698,-379.696 320,-468 336.717,-485.105 335.917,-495.011 356,-508 359.172,-510.051 362.525,-511.946 365.988,-513.695"/>
<polygon fill="midnightblue" stroke="midnightblue" points="364.813,-517.006 375.362,-517.989 367.728,-510.642 364.813,-517.006"/>
</g>
<!-- Node5 -->
<g id="node5" class="node"><title>Node5</title>
<g id="a_node5"><a xlink:href="$v0_89_2common_2mavlink__msg__rc__channels__raw_8h.html#a41084e38aeac8979aa9fa0d6668047b2" xlink:title="Decode a rc_channels_raw message into a struct. ">
<polygon fill="white" stroke="black" points="188,-273 188,-303 320,-303 320,-273 188,-273"/>
<text text-anchor="start" x="196" y="-291" font-family="Helvetica,sans-Serif" font-size="10.00">mavlink_msg_rc_channels</text>
<text text-anchor="middle" x="254" y="-280" font-family="Helvetica,sans-Serif" font-size="10.00">_raw_decode</text>
</a>
</g>
</g>
<!-- Node1&#45;&gt;Node5 -->
<g id="edge4" class="edge"><title>Node1&#45;&gt;Node5</title>
<path fill="none" stroke="midnightblue" d="M111.352,-248.564C133.44,-254.713 162.819,-262.893 189.093,-270.208"/>
<polygon fill="midnightblue" stroke="midnightblue" points="188.417,-273.653 198.99,-272.963 190.295,-266.909 188.417,-273.653"/>
</g>
<!-- Node15 -->
<g id="node15" class="node"><title>Node15</title>
<g id="a_node15"><a xlink:href="$v0_89_2common_2mavlink__msg__rc__channels__raw_8h.html#a85db0c88783210658b689d9468db8e07" xlink:title="Pack a rc_channels_raw message on a channel. ">
<polygon fill="white" stroke="black" points="188,-224 188,-254 320,-254 320,-224 188,-224"/>
<text text-anchor="start" x="196" y="-242" font-family="Helvetica,sans-Serif" font-size="10.00">mavlink_msg_rc_channels</text>
<text text-anchor="middle" x="254" y="-231" font-family="Helvetica,sans-Serif" font-size="10.00">_raw_pack_chan</text>
</a>
</g>
</g>
<!-- Node1&#45;&gt;Node15 -->
<g id="edge15" class="edge"><title>Node1&#45;&gt;Node15</title>
<path fill="none" stroke="midnightblue" d="M151.64,-239C160.327,-239 169.191,-239 177.884,-239"/>
<polygon fill="midnightblue" stroke="midnightblue" points="177.99,-242.5 187.99,-239 177.989,-235.5 177.99,-242.5"/>
</g>
<!-- Node17 -->
<g id="node17" class="node"><title>Node17</title>
<g id="a_node17"><a xlink:href="$v0_89_2mavlink__helpers_8h.html#afea0a9befa84822fd62c2899ea0d849e" xlink:title="Pack a message to send it over a serial byte stream. ">
<polygon fill="white" stroke="black" points="197,-175 197,-205 311,-205 311,-175 197,-175"/>
<text text-anchor="start" x="205" y="-193" font-family="Helvetica,sans-Serif" font-size="10.00">mavlink_msg_to_send</text>
<text text-anchor="middle" x="254" y="-182" font-family="Helvetica,sans-Serif" font-size="10.00">_buffer</text>
</a>
</g>
</g>
<!-- Node1&#45;&gt;Node17 -->
<g id="edge17" class="edge"><title>Node1&#45;&gt;Node17</title>
<path fill="none" stroke="midnightblue" d="M111.352,-229.436C133.44,-223.287 162.819,-215.107 189.093,-207.792"/>
<polygon fill="midnightblue" stroke="midnightblue" points="190.295,-211.091 198.99,-205.037 188.417,-204.347 190.295,-211.091"/>
</g>
<!-- Node18 -->
<g id="node18" class="node"><title>Node18</title>
<g id="a_node18"><a xlink:href="$v0_89_2protocol_8h.html#aa86c08f27aabb7a2e12a67f189f590c8" xlink:title="Get the required buffer size for this message. ">
<polygon fill="white" stroke="black" points="194.5,-126 194.5,-156 313.5,-156 313.5,-126 194.5,-126"/>
<text text-anchor="start" x="202.5" y="-144" font-family="Helvetica,sans-Serif" font-size="10.00">mavlink_msg_get_send</text>
<text text-anchor="middle" x="254" y="-133" font-family="Helvetica,sans-Serif" font-size="10.00">_buffer_length</text>
</a>
</g>
</g>
<!-- Node1&#45;&gt;Node18 -->
<g id="edge18" class="edge"><title>Node1&#45;&gt;Node18</title>
<path fill="none" stroke="midnightblue" d="M89.3895,-229.32C109.294,-214.103 150.022,-184.332 188,-165 191.459,-163.239 195.079,-161.541 198.763,-159.918"/>
<polygon fill="midnightblue" stroke="midnightblue" points="200.134,-163.138 208.003,-156.043 197.427,-156.683 200.134,-163.138"/>
</g>
<!-- Node19 -->
<g id="node19" class="node"><title>Node19</title>
<g id="a_node19"><a xlink:href="$GCS__MAVLink_8h.html#ab753873a1ee10adedd0ce246311468f8" xlink:title="comm_send_ch">
<polygon fill="white" stroke="black" points="211,-44.5 211,-63.5 297,-63.5 297,-44.5 211,-44.5"/>
<text text-anchor="middle" x="254" y="-51.5" font-family="Helvetica,sans-Serif" font-size="10.00">comm_send_ch</text>
</a>
</g>
</g>
<!-- Node1&#45;&gt;Node19 -->
<g id="edge19" class="edge"><title>Node1&#45;&gt;Node19</title>
<path fill="none" stroke="midnightblue" d="M85.396,-229.206C103.605,-208.078 148.288,-156.824 188,-116 203.309,-100.263 221.437,-83.084 234.655,-70.8087"/>
<polygon fill="midnightblue" stroke="midnightblue" points="237.21,-73.2126 242.181,-63.8559 232.46,-68.0709 237.21,-73.2126"/>
</g>
<!-- Node2&#45;&gt;Node3 -->
<g id="edge2" class="edge"><title>Node2&#45;&gt;Node3</title>
<path fill="none" stroke="midnightblue" d="M320.129,-507.554C332.795,-510.384 346.165,-513.372 359.116,-516.266"/>
<polygon fill="midnightblue" stroke="midnightblue" points="358.396,-519.692 368.919,-518.457 359.923,-512.86 358.396,-519.692"/>
</g>
<!-- Node4 -->
<g id="node4" class="node"><title>Node4</title>
<g id="a_node4"><a xlink:href="$v0_89_2mavlink__helpers_8h.html#af3bea083c5ec83f5b6570b2bd4a817d0" xlink:title="Finalize a MAVLink message with MAVLINK_COMM_0 as default channel. ">
<polygon fill="white" stroke="black" points="550.5,-523.5 550.5,-542.5 681.5,-542.5 681.5,-523.5 550.5,-523.5"/>
<text text-anchor="middle" x="616" y="-530.5" font-family="Helvetica,sans-Serif" font-size="10.00">mavlink_finalize_message</text>
</a>
</g>
</g>
<!-- Node3&#45;&gt;Node4 -->
<g id="edge3" class="edge"><title>Node3&#45;&gt;Node4</title>
<path fill="none" stroke="midnightblue" d="M501.129,-533C513.75,-533 527.07,-533 539.977,-533"/>
<polygon fill="midnightblue" stroke="midnightblue" points="540.219,-536.5 550.219,-533 540.219,-529.5 540.219,-536.5"/>
</g>
<!-- Node6 -->
<g id="node6" class="node"><title>Node6</title>
<g id="a_node6"><a xlink:href="$v0_89_2common_2mavlink__msg__rc__channels__raw_8h.html#aceaec630477389dfe3f78ebff2a14f20" xlink:title="Send a rc_channels_raw message. ">
<polygon fill="white" stroke="black" points="369,-469 369,-499 501,-499 501,-469 369,-469"/>
<text text-anchor="start" x="377" y="-487" font-family="Helvetica,sans-Serif" font-size="10.00">mavlink_msg_rc_channels</text>
<text text-anchor="middle" x="435" y="-476" font-family="Helvetica,sans-Serif" font-size="10.00">_raw_get_chan1_raw</text>
</a>
</g>
</g>
<!-- Node5&#45;&gt;Node6 -->
<g id="edge5" class="edge"><title>Node5&#45;&gt;Node6</title>
<path fill="none" stroke="midnightblue" d="M264.367,-303.316C277.098,-324.189 300.514,-362.777 320,-396 336.316,-423.817 330.942,-438.699 356,-459 358.079,-460.684 360.273,-462.256 362.555,-463.722"/>
<polygon fill="midnightblue" stroke="midnightblue" points="361.297,-467.03 371.73,-468.873 364.724,-460.926 361.297,-467.03"/>
</g>
<!-- Node7 -->
<g id="node7" class="node"><title>Node7</title>
<g id="a_node7"><a xlink:href="$v0_89_2common_2mavlink__msg__rc__channels__raw_8h.html#a391d3b50ceec89a7b01ecbe9aaa8b98b" xlink:title="Get field chan2_raw from rc_channels_raw message. ">
<polygon fill="white" stroke="black" points="369,-420 369,-450 501,-450 501,-420 369,-420"/>
<text text-anchor="start" x="377" y="-438" font-family="Helvetica,sans-Serif" font-size="10.00">mavlink_msg_rc_channels</text>
<text text-anchor="middle" x="435" y="-427" font-family="Helvetica,sans-Serif" font-size="10.00">_raw_get_chan2_raw</text>
</a>
</g>
</g>
<!-- Node5&#45;&gt;Node7 -->
<g id="edge6" class="edge"><title>Node5&#45;&gt;Node7</title>
<path fill="none" stroke="midnightblue" d="M263.529,-303.12C278.783,-328.818 313.182,-381.036 356,-410 358.915,-411.972 361.996,-413.796 365.183,-415.483"/>
<polygon fill="midnightblue" stroke="midnightblue" points="363.863,-418.731 374.395,-419.881 366.879,-412.414 363.863,-418.731"/>
</g>
<!-- Node8 -->
<g id="node8" class="node"><title>Node8</title>
<g id="a_node8"><a xlink:href="$v0_89_2common_2mavlink__msg__rc__channels__raw_8h.html#afe3fa0fedcdf2706261bbf23b65b5394" xlink:title="Get field chan3_raw from rc_channels_raw message. ">
<polygon fill="white" stroke="black" points="369,-371 369,-401 501,-401 501,-371 369,-371"/>
<text text-anchor="start" x="377" y="-389" font-family="Helvetica,sans-Serif" font-size="10.00">mavlink_msg_rc_channels</text>
<text text-anchor="middle" x="435" y="-378" font-family="Helvetica,sans-Serif" font-size="10.00">_raw_get_chan3_raw</text>
</a>
</g>
</g>
<!-- Node5&#45;&gt;Node8 -->
<g id="edge7" class="edge"><title>Node5&#45;&gt;Node8</title>
<path fill="none" stroke="midnightblue" d="M272.136,-303.01C291.392,-319.226 324.14,-344.896 356,-361 360.486,-363.267 365.219,-365.385 370.047,-367.351"/>
<polygon fill="midnightblue" stroke="midnightblue" points="368.817,-370.628 379.407,-370.945 371.326,-364.093 368.817,-370.628"/>
</g>
<!-- Node9 -->
<g id="node9" class="node"><title>Node9</title>
<g id="a_node9"><a xlink:href="$v0_89_2common_2mavlink__msg__rc__channels__raw_8h.html#ac1b226ec2f03f5c3fa487bcee19c37d0" xlink:title="Get field chan4_raw from rc_channels_raw message. ">
<polygon fill="white" stroke="black" points="369,-322 369,-352 501,-352 501,-322 369,-322"/>
<text text-anchor="start" x="377" y="-340" font-family="Helvetica,sans-Serif" font-size="10.00">mavlink_msg_rc_channels</text>
<text text-anchor="middle" x="435" y="-329" font-family="Helvetica,sans-Serif" font-size="10.00">_raw_get_chan4_raw</text>
</a>
</g>
</g>
<!-- Node5&#45;&gt;Node9 -->
<g id="edge8" class="edge"><title>Node5&#45;&gt;Node9</title>
<path fill="none" stroke="midnightblue" d="M310.166,-303.101C328.884,-308.225 349.963,-313.996 369.353,-319.303"/>
<polygon fill="midnightblue" stroke="midnightblue" points="368.446,-322.684 379.016,-321.948 370.295,-315.932 368.446,-322.684"/>
</g>
<!-- Node10 -->
<g id="node10" class="node"><title>Node10</title>
<g id="a_node10"><a xlink:href="$v0_89_2common_2mavlink__msg__rc__channels__raw_8h.html#a167a324d94485dbb30613f773c31d0a8" xlink:title="Get field chan5_raw from rc_channels_raw message. ">
<polygon fill="white" stroke="black" points="369,-273 369,-303 501,-303 501,-273 369,-273"/>
<text text-anchor="start" x="377" y="-291" font-family="Helvetica,sans-Serif" font-size="10.00">mavlink_msg_rc_channels</text>
<text text-anchor="middle" x="435" y="-280" font-family="Helvetica,sans-Serif" font-size="10.00">_raw_get_chan5_raw</text>
</a>
</g>
</g>
<!-- Node5&#45;&gt;Node10 -->
<g id="edge9" class="edge"><title>Node5&#45;&gt;Node10</title>
<path fill="none" stroke="midnightblue" d="M320.129,-288C332.671,-288 345.903,-288 358.735,-288"/>
<polygon fill="midnightblue" stroke="midnightblue" points="358.919,-291.5 368.919,-288 358.919,-284.5 358.919,-291.5"/>
</g>
<!-- Node11 -->
<g id="node11" class="node"><title>Node11</title>
<g id="a_node11"><a xlink:href="$v0_89_2common_2mavlink__msg__rc__channels__raw_8h.html#a1e4f4dc6ddcb0f5ff45fdf08daf15d62" xlink:title="Get field chan6_raw from rc_channels_raw message. ">
<polygon fill="white" stroke="black" points="369,-224 369,-254 501,-254 501,-224 369,-224"/>
<text text-anchor="start" x="377" y="-242" font-family="Helvetica,sans-Serif" font-size="10.00">mavlink_msg_rc_channels</text>
<text text-anchor="middle" x="435" y="-231" font-family="Helvetica,sans-Serif" font-size="10.00">_raw_get_chan6_raw</text>
</a>
</g>
</g>
<!-- Node5&#45;&gt;Node11 -->
<g id="edge10" class="edge"><title>Node5&#45;&gt;Node11</title>
<path fill="none" stroke="midnightblue" d="M310.166,-272.899C328.884,-267.775 349.963,-262.004 369.353,-256.697"/>
<polygon fill="midnightblue" stroke="midnightblue" points="370.295,-260.068 379.016,-254.052 368.446,-253.316 370.295,-260.068"/>
</g>
<!-- Node12 -->
<g id="node12" class="node"><title>Node12</title>
<g id="a_node12"><a xlink:href="$v0_89_2common_2mavlink__msg__rc__channels__raw_8h.html#a6fb3dcede886bdf7ae4e2d154eb19d08" xlink:title="Get field chan7_raw from rc_channels_raw message. ">
<polygon fill="white" stroke="black" points="369,-175 369,-205 501,-205 501,-175 369,-175"/>
<text text-anchor="start" x="377" y="-193" font-family="Helvetica,sans-Serif" font-size="10.00">mavlink_msg_rc_channels</text>
<text text-anchor="middle" x="435" y="-182" font-family="Helvetica,sans-Serif" font-size="10.00">_raw_get_chan7_raw</text>
</a>
</g>
</g>
<!-- Node5&#45;&gt;Node12 -->
<g id="edge11" class="edge"><title>Node5&#45;&gt;Node12</title>
<path fill="none" stroke="midnightblue" d="M303.525,-272.945C309.354,-270.113 315.003,-266.816 320,-263 341.477,-246.599 333.972,-229.654 356,-214 358.122,-212.492 360.341,-211.077 362.633,-209.749"/>
<polygon fill="midnightblue" stroke="midnightblue" points="364.485,-212.732 371.778,-205.048 361.284,-206.507 364.485,-212.732"/>
</g>
<!-- Node13 -->
<g id="node13" class="node"><title>Node13</title>
<g id="a_node13"><a xlink:href="$v0_89_2common_2mavlink__msg__rc__channels__raw_8h.html#a0c445501ac705b6ae6989229d6973504" xlink:title="Get field chan8_raw from rc_channels_raw message. ">
<polygon fill="white" stroke="black" points="369,-126 369,-156 501,-156 501,-126 369,-126"/>
<text text-anchor="start" x="377" y="-144" font-family="Helvetica,sans-Serif" font-size="10.00">mavlink_msg_rc_channels</text>
<text text-anchor="middle" x="435" y="-133" font-family="Helvetica,sans-Serif" font-size="10.00">_raw_get_chan8_raw</text>
</a>
</g>
</g>
<!-- Node5&#45;&gt;Node13 -->
<g id="edge12" class="edge"><title>Node5&#45;&gt;Node13</title>
<path fill="none" stroke="midnightblue" d="M306.9,-272.946C311.698,-270.162 316.182,-266.876 320,-263 352.562,-229.942 322.323,-196.921 356,-165 357.308,-163.76 358.678,-162.585 360.102,-161.47"/>
<polygon fill="midnightblue" stroke="midnightblue" points="362.369,-164.166 368.77,-155.723 358.501,-158.331 362.369,-164.166"/>
</g>
<!-- Node14 -->
<g id="node14" class="node"><title>Node14</title>
<g id="a_node14"><a xlink:href="$v0_89_2common_2mavlink__msg__rc__channels__raw_8h.html#a0dfa60c3ab4d510c81d2b7af34ed100a" xlink:title="Get field rssi from rc_channels_raw message. ">
<polygon fill="white" stroke="black" points="369,-77 369,-107 501,-107 501,-77 369,-77"/>
<text text-anchor="start" x="377" y="-95" font-family="Helvetica,sans-Serif" font-size="10.00">mavlink_msg_rc_channels</text>
<text text-anchor="middle" x="435" y="-84" font-family="Helvetica,sans-Serif" font-size="10.00">_raw_get_rssi</text>
</a>
</g>
</g>
<!-- Node5&#45;&gt;Node14 -->
<g id="edge13" class="edge"><title>Node5&#45;&gt;Node14</title>
<path fill="none" stroke="midnightblue" d="M307.979,-272.983C312.449,-270.199 316.564,-266.902 320,-263 364.449,-212.515 309.844,-164.93 356,-116 357.385,-114.531 358.858,-113.152 360.404,-111.856"/>
<polygon fill="midnightblue" stroke="midnightblue" points="362.505,-114.658 368.683,-106.051 358.486,-108.927 362.505,-114.658"/>
</g>
<!-- Node16 -->
<g id="node16" class="node"><title>Node16</title>
<g id="a_node16"><a xlink:href="$v0_89_2mavlink__helpers_8h.html#aa66131138fc02101dcc73b4b556ab422" xlink:title="Finalize a MAVLink message with channel assignment. ">
<polygon fill="white" stroke="black" points="356,-38.5 356,-57.5 514,-57.5 514,-38.5 356,-38.5"/>
<text text-anchor="middle" x="435" y="-45.5" font-family="Helvetica,sans-Serif" font-size="10.00">mavlink_finalize_message_chan</text>
</a>
</g>
</g>
<!-- Node15&#45;&gt;Node16 -->
<g id="edge16" class="edge"><title>Node15&#45;&gt;Node16</title>
<path fill="none" stroke="midnightblue" d="M307.979,-223.983C312.449,-221.199 316.564,-217.902 320,-214 364.449,-163.515 308.408,-114.533 356,-67 357.442,-65.5595 358.974,-64.2217 360.581,-62.9793"/>
<polygon fill="midnightblue" stroke="midnightblue" points="362.6,-65.8436 369.169,-57.5314 358.85,-59.9325 362.6,-65.8436"/>
</g>
<!-- Node20 -->
<g id="node20" class="node"><title>Node20</title>
<g id="a_node20"><a xlink:href="$classAP__HAL_1_1Print.html#acc65391952a43334f8f5c9bef341f501" xlink:title="AP_HAL::Print::write">
<polygon fill="white" stroke="black" points="381,-0.5 381,-19.5 489,-19.5 489,-0.5 381,-0.5"/>
<text text-anchor="middle" x="435" y="-7.5" font-family="Helvetica,sans-Serif" font-size="10.00">AP_HAL::Print::write</text>
</a>
</g>
</g>
<!-- Node19&#45;&gt;Node20 -->
<g id="edge20" class="edge"><title>Node19&#45;&gt;Node20</title>
<path fill="none" stroke="midnightblue" d="M293.36,-44.4694C312.224,-39.7918 335.3,-34.0831 356,-29 365.343,-26.7058 375.318,-24.2676 384.905,-21.9297"/>
<polygon fill="midnightblue" stroke="midnightblue" points="385.825,-25.3079 394.713,-19.5399 384.168,-18.5068 385.825,-25.3079"/>
</g>
</g>
</svg>
