<?xml version="1.0" encoding="UTF-8" standalone="no"?>
<!DOCTYPE svg PUBLIC "-//W3C//DTD SVG 1.1//EN"
 "http://www.w3.org/Graphics/SVG/1.1/DTD/svg11.dtd">
<!-- Generated by graphviz version 2.36.0 (20140111.2315)
 -->
<!-- Title: mavlink_parse_char Pages: 1 -->
<svg width="568pt" height="170pt"
 viewBox="0.00 0.00 568.00 169.93" xmlns="http://www.w3.org/2000/svg" xmlns:xlink="http://www.w3.org/1999/xlink">
<g id="graph0" class="graph" transform="scale(1 1) rotate(0) translate(4 165.935)">
<title>mavlink_parse_char</title>
<polygon fill="white" stroke="none" points="-4,4 -4,-165.935 564,-165.935 564,4 -4,4"/>
<!-- Node1 -->
<g id="node1" class="node"><title>Node1</title>
<polygon fill="#bfbfbf" stroke="black" points="0,-69.8777 0,-88.8777 104,-88.8777 104,-69.8777 0,-69.8777"/>
<text text-anchor="middle" x="52" y="-76.8777" font-family="Helvetica,sans-Serif" font-size="10.00">mavlink_parse_char</text>
</g>
<!-- Node2 -->
<g id="node2" class="node"><title>Node2</title>
<g id="a_node2"><a xlink:href="$v0_89_2mavlink__helpers_8h.html#a65cce515993cd158e828aa7d061ca5b8" xlink:title="mavlink_get_channel\l_buffer">
<polygon fill="white" stroke="black" points="280,-113.378 280,-143.378 388,-143.378 388,-113.378 280,-113.378"/>
<text text-anchor="start" x="288" y="-131.378" font-family="Helvetica,sans-Serif" font-size="10.00">mavlink_get_channel</text>
<text text-anchor="middle" x="334" y="-120.378" font-family="Helvetica,sans-Serif" font-size="10.00">_buffer</text>
</a>
</g>
</g>
<!-- Node1&#45;&gt;Node2 -->
<g id="edge1" class="edge"><title>Node1&#45;&gt;Node2</title>
<path fill="none" stroke="midnightblue" d="M94.0538,-88.8809C108.535,-92.0902 124.955,-95.5682 140,-98.3777 182.961,-106.4 231.582,-113.949 269.276,-119.467"/>
<polygon fill="midnightblue" stroke="midnightblue" points="269.204,-122.993 279.604,-120.968 270.211,-116.066 269.204,-122.993"/>
</g>
<!-- Node3 -->
<g id="node3" class="node"><title>Node3</title>
<g id="a_node3"><a xlink:href="$v0_89_2mavlink__helpers_8h.html#ac006d308067f48514ca5c0cf0b046c28" xlink:title="mavlink_get_channel\l_status">
<polygon fill="white" stroke="black" points="280,-15.3777 280,-45.3777 388,-45.3777 388,-15.3777 280,-15.3777"/>
<text text-anchor="start" x="288" y="-33.3777" font-family="Helvetica,sans-Serif" font-size="10.00">mavlink_get_channel</text>
<text text-anchor="middle" x="334" y="-22.3777" font-family="Helvetica,sans-Serif" font-size="10.00">_status</text>
</a>
</g>
</g>
<!-- Node1&#45;&gt;Node3 -->
<g id="edge2" class="edge"><title>Node1&#45;&gt;Node3</title>
<path fill="none" stroke="midnightblue" d="M94.0538,-69.8746C108.535,-66.6653 124.955,-63.1873 140,-60.3777 182.961,-52.3554 231.582,-44.8069 269.276,-39.2885"/>
<polygon fill="midnightblue" stroke="midnightblue" points="270.211,-42.6894 279.604,-37.7872 269.204,-35.7622 270.211,-42.6894"/>
</g>
<!-- Node4 -->
<g id="node4" class="node"><title>Node4</title>
<g id="a_node4"><a xlink:href="$v0_89_2mavlink__helpers_8h.html#ae7cbde569213151151d20c3766edd244" xlink:title="mavlink_start_checksum">
<polygon fill="white" stroke="black" points="429.5,-101.878 429.5,-120.878 554.5,-120.878 554.5,-101.878 429.5,-101.878"/>
<text text-anchor="middle" x="492" y="-108.878" font-family="Helvetica,sans-Serif" font-size="10.00">mavlink_start_checksum</text>
</a>
</g>
</g>
<!-- Node1&#45;&gt;Node4 -->
<g id="edge3" class="edge"><title>Node1&#45;&gt;Node4</title>
<path fill="none" stroke="midnightblue" d="M69.8312,-88.9572C87.0002,-98.3766 114.646,-112.585 140,-121.378 244.948,-157.775 278.907,-173.292 388,-152.378 414.803,-147.239 443.514,-135.214 463.797,-125.508"/>
<polygon fill="midnightblue" stroke="midnightblue" points="465.6,-128.522 473.031,-120.97 462.513,-122.24 465.6,-128.522"/>
</g>
<!-- Node5 -->
<g id="node5" class="node"><title>Node5</title>
<g id="a_node5"><a xlink:href="$v0_89_2mavlink__helpers_8h.html#a3293deb7b51f9a9f0b30bf56c8739593" xlink:title="mavlink_update_checksum">
<polygon fill="white" stroke="black" points="424.5,-36.8777 424.5,-55.8777 559.5,-55.8777 559.5,-36.8777 424.5,-36.8777"/>
<text text-anchor="middle" x="492" y="-43.8777" font-family="Helvetica,sans-Serif" font-size="10.00">mavlink_update_checksum</text>
</a>
</g>
</g>
<!-- Node1&#45;&gt;Node5 -->
<g id="edge4" class="edge"><title>Node1&#45;&gt;Node5</title>
<path fill="none" stroke="midnightblue" d="M71.8126,-69.7309C122.615,-44.874 266.912,17.8365 388,-5.37774 414.803,-10.5162 443.514,-22.5411 463.797,-32.2472"/>
<polygon fill="midnightblue" stroke="midnightblue" points="462.513,-35.516 473.031,-36.7855 465.6,-29.2336 462.513,-35.516"/>
</g>
<!-- Node6 -->
<g id="node6" class="node"><title>Node6</title>
<g id="a_node6"><a xlink:href="$v1_80_2mavlink__helpers_8h.html#ab9ea03db8cd45ce94b64b508b087ebe6" xlink:title="mavlink_frame_char">
<polygon fill="white" stroke="black" points="140,-69.8777 140,-88.8777 244,-88.8777 244,-69.8777 140,-69.8777"/>
<text text-anchor="middle" x="192" y="-76.8777" font-family="Helvetica,sans-Serif" font-size="10.00">mavlink_frame_char</text>
</a>
</g>
</g>
<!-- Node1&#45;&gt;Node6 -->
<g id="edge5" class="edge"><title>Node1&#45;&gt;Node6</title>
<path fill="none" stroke="midnightblue" d="M104.386,-79.3777C112.558,-79.3777 121.083,-79.3777 129.46,-79.3777"/>
<polygon fill="midnightblue" stroke="midnightblue" points="129.571,-82.8778 139.571,-79.3777 129.571,-75.8778 129.571,-82.8778"/>
</g>
<!-- Node6&#45;&gt;Node2 -->
<g id="edge9" class="edge"><title>Node6&#45;&gt;Node2</title>
<path fill="none" stroke="midnightblue" d="M220.326,-88.9418C237.431,-94.9286 260.034,-102.84 280.503,-110.004"/>
<polygon fill="midnightblue" stroke="midnightblue" points="279.442,-113.341 290.037,-113.341 281.755,-106.734 279.442,-113.341"/>
</g>
<!-- Node6&#45;&gt;Node3 -->
<g id="edge10" class="edge"><title>Node6&#45;&gt;Node3</title>
<path fill="none" stroke="midnightblue" d="M220.326,-69.8137C237.431,-63.8269 260.034,-55.9159 280.503,-48.7517"/>
<polygon fill="midnightblue" stroke="midnightblue" points="281.755,-52.0218 290.037,-45.4147 279.442,-45.4148 281.755,-52.0218"/>
</g>
<!-- Node7 -->
<g id="node7" class="node"><title>Node7</title>
<g id="a_node7"><a xlink:href="$v1_80_2mavlink__helpers_8h.html#a0e22b58900ea14d70bff3aadb38dbb3d" xlink:title="mavlink_frame_char\l_buffer">
<polygon fill="white" stroke="black" points="282,-64.3777 282,-94.3777 386,-94.3777 386,-64.3777 282,-64.3777"/>
<text text-anchor="start" x="290" y="-82.3777" font-family="Helvetica,sans-Serif" font-size="10.00">mavlink_frame_char</text>
<text text-anchor="middle" x="334" y="-71.3777" font-family="Helvetica,sans-Serif" font-size="10.00">_buffer</text>
</a>
</g>
</g>
<!-- Node6&#45;&gt;Node7 -->
<g id="edge6" class="edge"><title>Node6&#45;&gt;Node7</title>
<path fill="none" stroke="midnightblue" d="M244.336,-79.3777C253.181,-79.3777 262.455,-79.3777 271.535,-79.3777"/>
<polygon fill="midnightblue" stroke="midnightblue" points="271.67,-82.8778 281.67,-79.3777 271.67,-75.8778 271.67,-82.8778"/>
</g>
<!-- Node7&#45;&gt;Node4 -->
<g id="edge7" class="edge"><title>Node7&#45;&gt;Node4</title>
<path fill="none" stroke="midnightblue" d="M386.08,-89.8557C401.533,-93.0256 418.594,-96.5251 434.386,-99.7646"/>
<polygon fill="midnightblue" stroke="midnightblue" points="434.052,-103.269 444.551,-101.85 435.459,-96.4117 434.052,-103.269"/>
</g>
<!-- Node7&#45;&gt;Node5 -->
<g id="edge8" class="edge"><title>Node7&#45;&gt;Node5</title>
<path fill="none" stroke="midnightblue" d="M386.08,-68.5723C402.049,-65.1944 419.733,-61.4535 435.961,-58.0206"/>
<polygon fill="midnightblue" stroke="midnightblue" points="436.79,-61.4228 445.849,-55.9289 435.341,-54.5744 436.79,-61.4228"/>
</g>
</g>
</svg>
