<?xml version="1.0" encoding="UTF-8" standalone="no"?>
<!DOCTYPE svg PUBLIC "-//W3C//DTD SVG 1.1//EN"
 "http://www.w3.org/Graphics/SVG/1.1/DTD/svg11.dtd">
<!-- Generated by graphviz version 2.36.0 (20140111.2315)
 -->
<!-- Title: mavlink_test_heartbeat Pages: 1 -->
<svg width="644pt" height="315pt"
 viewBox="0.00 0.00 644.00 315.00" xmlns="http://www.w3.org/2000/svg" xmlns:xlink="http://www.w3.org/1999/xlink">
<g id="graph0" class="graph" transform="scale(1 1) rotate(0) translate(4 311)">
<title>mavlink_test_heartbeat</title>
<polygon fill="white" stroke="none" points="-4,4 -4,-311 640,-311 640,4 -4,4"/>
<!-- Node1 -->
<g id="node1" class="node"><title>Node1</title>
<polygon fill="#bfbfbf" stroke="black" points="0,-142.5 0,-161.5 118,-161.5 118,-142.5 0,-142.5"/>
<text text-anchor="middle" x="59" y="-149.5" font-family="Helvetica,sans-Serif" font-size="10.00">mavlink_test_heartbeat</text>
</g>
<!-- Node2 -->
<g id="node2" class="node"><title>Node2</title>
<g id="a_node2"><a xlink:href="$v0_89_2common_2mavlink__msg__heartbeat_8h.html#abddf6bdff88bf39decff87e5b4ee45e0" xlink:title="Encode a heartbeat struct into a message. ">
<polygon fill="white" stroke="black" points="154,-277 154,-307 274,-307 274,-277 154,-277"/>
<text text-anchor="start" x="162" y="-295" font-family="Helvetica,sans-Serif" font-size="10.00">mavlink_msg_heartbeat</text>
<text text-anchor="middle" x="214" y="-284" font-family="Helvetica,sans-Serif" font-size="10.00">_encode</text>
</a>
</g>
</g>
<!-- Node1&#45;&gt;Node2 -->
<g id="edge1" class="edge"><title>Node1&#45;&gt;Node2</title>
<path fill="none" stroke="midnightblue" d="M66.3238,-161.51C80.2163,-181.848 115.264,-230.218 154,-261 158.934,-264.921 164.44,-268.577 170.05,-271.903"/>
<polygon fill="midnightblue" stroke="midnightblue" points="168.45,-275.018 178.886,-276.849 171.869,-268.91 168.45,-275.018"/>
</g>
<!-- Node3 -->
<g id="node3" class="node"><title>Node3</title>
<g id="a_node3"><a xlink:href="$v0_89_2common_2mavlink__msg__heartbeat_8h.html#a14210c500786f61f95e068f63879b01e" xlink:title="Pack a heartbeat message. ">
<polygon fill="white" stroke="black" points="316,-283.5 316,-302.5 462,-302.5 462,-283.5 316,-283.5"/>
<text text-anchor="middle" x="389" y="-290.5" font-family="Helvetica,sans-Serif" font-size="10.00">mavlink_msg_heartbeat_pack</text>
</a>
</g>
</g>
<!-- Node1&#45;&gt;Node3 -->
<g id="edge8" class="edge"><title>Node1&#45;&gt;Node3</title>
<path fill="none" stroke="midnightblue" d="M69.8541,-161.662C86.097,-177.097 120.083,-207.368 154,-225 186.113,-241.694 279.83,-266.449 338.458,-281.032"/>
<polygon fill="midnightblue" stroke="midnightblue" points="337.714,-284.454 348.262,-283.458 339.395,-277.659 337.714,-284.454"/>
</g>
<!-- Node5 -->
<g id="node5" class="node"><title>Node5</title>
<g id="a_node5"><a xlink:href="$v0_89_2common_2mavlink__msg__heartbeat_8h.html#a597b3a2ed8a0df9c414b0f8ad5b196de" xlink:title="Decode a heartbeat message into a struct. ">
<polygon fill="white" stroke="black" points="154,-186 154,-216 274,-216 274,-186 154,-186"/>
<text text-anchor="start" x="162" y="-204" font-family="Helvetica,sans-Serif" font-size="10.00">mavlink_msg_heartbeat</text>
<text text-anchor="middle" x="214" y="-193" font-family="Helvetica,sans-Serif" font-size="10.00">_decode</text>
</a>
</g>
</g>
<!-- Node1&#45;&gt;Node5 -->
<g id="edge4" class="edge"><title>Node1&#45;&gt;Node5</title>
<path fill="none" stroke="midnightblue" d="M89.8631,-161.564C108.726,-167.605 133.706,-175.605 156.235,-182.82"/>
<polygon fill="midnightblue" stroke="midnightblue" points="155.457,-186.246 166.048,-185.963 157.592,-179.58 155.457,-186.246"/>
</g>
<!-- Node9 -->
<g id="node9" class="node"><title>Node9</title>
<g id="a_node9"><a xlink:href="$v0_89_2common_2mavlink__msg__heartbeat_8h.html#a20621f9555594a034859d967af150ec1" xlink:title="Pack a heartbeat message on a channel. ">
<polygon fill="white" stroke="black" points="154,-137 154,-167 274,-167 274,-137 154,-137"/>
<text text-anchor="start" x="162" y="-155" font-family="Helvetica,sans-Serif" font-size="10.00">mavlink_msg_heartbeat</text>
<text text-anchor="middle" x="214" y="-144" font-family="Helvetica,sans-Serif" font-size="10.00">_pack_chan</text>
</a>
</g>
</g>
<!-- Node1&#45;&gt;Node9 -->
<g id="edge9" class="edge"><title>Node1&#45;&gt;Node9</title>
<path fill="none" stroke="midnightblue" d="M118.279,-152C126.564,-152 135.152,-152 143.623,-152"/>
<polygon fill="midnightblue" stroke="midnightblue" points="143.868,-155.5 153.868,-152 143.868,-148.5 143.868,-155.5"/>
</g>
<!-- Node11 -->
<g id="node11" class="node"><title>Node11</title>
<g id="a_node11"><a xlink:href="$v0_89_2mavlink__helpers_8h.html#afea0a9befa84822fd62c2899ea0d849e" xlink:title="Pack a message to send it over a serial byte stream. ">
<polygon fill="white" stroke="black" points="157,-88 157,-118 271,-118 271,-88 157,-88"/>
<text text-anchor="start" x="165" y="-106" font-family="Helvetica,sans-Serif" font-size="10.00">mavlink_msg_to_send</text>
<text text-anchor="middle" x="214" y="-95" font-family="Helvetica,sans-Serif" font-size="10.00">_buffer</text>
</a>
</g>
</g>
<!-- Node1&#45;&gt;Node11 -->
<g id="edge11" class="edge"><title>Node1&#45;&gt;Node11</title>
<path fill="none" stroke="midnightblue" d="M89.8631,-142.436C108.726,-136.395 133.706,-128.395 156.235,-121.18"/>
<polygon fill="midnightblue" stroke="midnightblue" points="157.592,-124.42 166.048,-118.037 155.457,-117.754 157.592,-124.42"/>
</g>
<!-- Node12 -->
<g id="node12" class="node"><title>Node12</title>
<g id="a_node12"><a xlink:href="$v0_89_2protocol_8h.html#aa86c08f27aabb7a2e12a67f189f590c8" xlink:title="Get the required buffer size for this message. ">
<polygon fill="white" stroke="black" points="154.5,-39 154.5,-69 273.5,-69 273.5,-39 154.5,-39"/>
<text text-anchor="start" x="162.5" y="-57" font-family="Helvetica,sans-Serif" font-size="10.00">mavlink_msg_get_send</text>
<text text-anchor="middle" x="214" y="-46" font-family="Helvetica,sans-Serif" font-size="10.00">_buffer_length</text>
</a>
</g>
</g>
<!-- Node1&#45;&gt;Node12 -->
<g id="edge12" class="edge"><title>Node1&#45;&gt;Node12</title>
<path fill="none" stroke="midnightblue" d="M70.284,-142.29C86.8555,-127.033 120.962,-97.208 154,-78 156.686,-76.4386 159.493,-74.9308 162.361,-73.4837"/>
<polygon fill="midnightblue" stroke="midnightblue" points="164.125,-76.5213 171.664,-69.0772 161.128,-70.1952 164.125,-76.5213"/>
</g>
<!-- Node13 -->
<g id="node13" class="node"><title>Node13</title>
<g id="a_node13"><a xlink:href="$GCS__MAVLink_8h.html#ab753873a1ee10adedd0ce246311468f8" xlink:title="comm_send_ch">
<polygon fill="white" stroke="black" points="171,-0.5 171,-19.5 257,-19.5 257,-0.5 171,-0.5"/>
<text text-anchor="middle" x="214" y="-7.5" font-family="Helvetica,sans-Serif" font-size="10.00">comm_send_ch</text>
</a>
</g>
</g>
<!-- Node1&#45;&gt;Node13 -->
<g id="edge13" class="edge"><title>Node1&#45;&gt;Node13</title>
<path fill="none" stroke="midnightblue" d="M64.6884,-142.414C76.4401,-119.374 109.435,-60.4735 154,-29 156.725,-27.0756 159.655,-25.3386 162.701,-23.7719"/>
<polygon fill="midnightblue" stroke="midnightblue" points="164.398,-26.8467 172.095,-19.5655 161.538,-20.4579 164.398,-26.8467"/>
</g>
<!-- Node2&#45;&gt;Node3 -->
<g id="edge2" class="edge"><title>Node2&#45;&gt;Node3</title>
<path fill="none" stroke="midnightblue" d="M274.053,-292.341C284.215,-292.4 294.942,-292.462 305.585,-292.524"/>
<polygon fill="midnightblue" stroke="midnightblue" points="305.723,-296.024 315.743,-292.582 305.764,-289.024 305.723,-296.024"/>
</g>
<!-- Node4 -->
<g id="node4" class="node"><title>Node4</title>
<g id="a_node4"><a xlink:href="$v0_89_2mavlink__helpers_8h.html#af3bea083c5ec83f5b6570b2bd4a817d0" xlink:title="Finalize a MAVLink message with MAVLINK_COMM_0 as default channel. ">
<polygon fill="white" stroke="black" points="504.5,-283.5 504.5,-302.5 635.5,-302.5 635.5,-283.5 504.5,-283.5"/>
<text text-anchor="middle" x="570" y="-290.5" font-family="Helvetica,sans-Serif" font-size="10.00">mavlink_finalize_message</text>
</a>
</g>
</g>
<!-- Node3&#45;&gt;Node4 -->
<g id="edge3" class="edge"><title>Node3&#45;&gt;Node4</title>
<path fill="none" stroke="midnightblue" d="M462.032,-293C472.634,-293 483.575,-293 494.23,-293"/>
<polygon fill="midnightblue" stroke="midnightblue" points="494.337,-296.5 504.337,-293 494.337,-289.5 494.337,-296.5"/>
</g>
<!-- Node6 -->
<g id="node6" class="node"><title>Node6</title>
<g id="a_node6"><a xlink:href="$v0_89_2common_2mavlink__msg__heartbeat_8h.html#a99a0915733556501550db5649f2eaede" xlink:title="Send a heartbeat message. ">
<polygon fill="white" stroke="black" points="329,-234 329,-264 449,-264 449,-234 329,-234"/>
<text text-anchor="start" x="337" y="-252" font-family="Helvetica,sans-Serif" font-size="10.00">mavlink_msg_heartbeat</text>
<text text-anchor="middle" x="389" y="-241" font-family="Helvetica,sans-Serif" font-size="10.00">_get_type</text>
</a>
</g>
</g>
<!-- Node5&#45;&gt;Node6 -->
<g id="edge5" class="edge"><title>Node5&#45;&gt;Node6</title>
<path fill="none" stroke="midnightblue" d="M269.264,-216.056C286.654,-220.881 306.074,-226.269 324.088,-231.267"/>
<polygon fill="midnightblue" stroke="midnightblue" points="323.357,-234.697 333.929,-233.998 325.229,-227.951 323.357,-234.697"/>
</g>
<!-- Node7 -->
<g id="node7" class="node"><title>Node7</title>
<g id="a_node7"><a xlink:href="$v0_89_2common_2mavlink__msg__heartbeat_8h.html#ad111bc6432d967c731dd665276d6931f" xlink:title="Get field autopilot from heartbeat message. ">
<polygon fill="white" stroke="black" points="329,-185 329,-215 449,-215 449,-185 329,-185"/>
<text text-anchor="start" x="337" y="-203" font-family="Helvetica,sans-Serif" font-size="10.00">mavlink_msg_heartbeat</text>
<text text-anchor="middle" x="389" y="-192" font-family="Helvetica,sans-Serif" font-size="10.00">_get_autopilot</text>
</a>
</g>
</g>
<!-- Node5&#45;&gt;Node7 -->
<g id="edge6" class="edge"><title>Node5&#45;&gt;Node7</title>
<path fill="none" stroke="midnightblue" d="M274.053,-200.659C288.448,-200.575 303.975,-200.486 318.795,-200.4"/>
<polygon fill="midnightblue" stroke="midnightblue" points="318.94,-203.899 328.92,-200.342 318.9,-196.899 318.94,-203.899"/>
</g>
<!-- Node8 -->
<g id="node8" class="node"><title>Node8</title>
<g id="a_node8"><a xlink:href="$v0_89_2common_2mavlink__msg__heartbeat_8h.html#a73ce0762ebff8e73ee66f6c3dff6fd79" xlink:title="Get field mavlink_version from heartbeat message. ">
<polygon fill="white" stroke="black" points="329,-136 329,-166 449,-166 449,-136 329,-136"/>
<text text-anchor="start" x="337" y="-154" font-family="Helvetica,sans-Serif" font-size="10.00">mavlink_msg_heartbeat</text>
<text text-anchor="middle" x="389" y="-143" font-family="Helvetica,sans-Serif" font-size="10.00">_get_mavlink_version</text>
</a>
</g>
</g>
<!-- Node5&#45;&gt;Node8 -->
<g id="edge7" class="edge"><title>Node5&#45;&gt;Node8</title>
<path fill="none" stroke="midnightblue" d="M266.906,-185.998C285.552,-180.609 306.766,-174.478 326.172,-168.869"/>
<polygon fill="midnightblue" stroke="midnightblue" points="327.197,-172.216 335.832,-166.077 325.254,-165.492 327.197,-172.216"/>
</g>
<!-- Node10 -->
<g id="node10" class="node"><title>Node10</title>
<g id="a_node10"><a xlink:href="$v0_89_2mavlink__helpers_8h.html#aa66131138fc02101dcc73b4b556ab422" xlink:title="Finalize a MAVLink message with channel assignment. ">
<polygon fill="white" stroke="black" points="310,-97.5 310,-116.5 468,-116.5 468,-97.5 310,-97.5"/>
<text text-anchor="middle" x="389" y="-104.5" font-family="Helvetica,sans-Serif" font-size="10.00">mavlink_finalize_message_chan</text>
</a>
</g>
</g>
<!-- Node9&#45;&gt;Node10 -->
<g id="edge10" class="edge"><title>Node9&#45;&gt;Node10</title>
<path fill="none" stroke="midnightblue" d="M269.187,-136.886C282.512,-133.248 296.756,-129.425 310,-126 319.018,-123.668 328.643,-121.259 337.943,-118.972"/>
<polygon fill="midnightblue" stroke="midnightblue" points="338.981,-122.321 347.864,-116.547 337.319,-115.521 338.981,-122.321"/>
</g>
<!-- Node14 -->
<g id="node14" class="node"><title>Node14</title>
<g id="a_node14"><a xlink:href="$classAP__HAL_1_1Print.html#acc65391952a43334f8f5c9bef341f501" xlink:title="AP_HAL::Print::write">
<polygon fill="white" stroke="black" points="335,-0.5 335,-19.5 443,-19.5 443,-0.5 335,-0.5"/>
<text text-anchor="middle" x="389" y="-7.5" font-family="Helvetica,sans-Serif" font-size="10.00">AP_HAL::Print::write</text>
</a>
</g>
</g>
<!-- Node13&#45;&gt;Node14 -->
<g id="edge14" class="edge"><title>Node13&#45;&gt;Node14</title>
<path fill="none" stroke="midnightblue" d="M257.321,-10C277.619,-10 302.355,-10 324.822,-10"/>
<polygon fill="midnightblue" stroke="midnightblue" points="324.961,-13.5001 334.961,-10 324.961,-6.5001 324.961,-13.5001"/>
</g>
</g>
</svg>
