<?xml version="1.0" encoding="UTF-8" standalone="no"?>
<!DOCTYPE svg PUBLIC "-//W3C//DTD SVG 1.1//EN"
 "http://www.w3.org/Graphics/SVG/1.1/DTD/svg11.dtd">
<!-- Generated by graphviz version 2.36.0 (20140111.2315)
 -->
<!-- Title: mavlink_msg_safety_allowed_area_decode Pages: 1 -->
<svg width="288pt" height="332pt"
 viewBox="0.00 0.00 288.00 332.00" xmlns="http://www.w3.org/2000/svg" xmlns:xlink="http://www.w3.org/1999/xlink">
<g id="graph0" class="graph" transform="scale(1 1) rotate(0) translate(4 328)">
<title>mavlink_msg_safety_allowed_area_decode</title>
<polygon fill="white" stroke="none" points="-4,4 -4,-328 284,-328 284,4 -4,4"/>
<!-- Node1 -->
<g id="node1" class="node"><title>Node1</title>
<polygon fill="#bfbfbf" stroke="black" points="0,-147 0,-177 116,-177 116,-147 0,-147"/>
<text text-anchor="start" x="8" y="-165" font-family="Helvetica,sans-Serif" font-size="10.00">mavlink_msg_safety</text>
<text text-anchor="middle" x="58" y="-154" font-family="Helvetica,sans-Serif" font-size="10.00">_allowed_area_decode</text>
</g>
<!-- Node2 -->
<g id="node2" class="node"><title>Node2</title>
<g id="a_node2"><a xlink:href="$v1_80_2common_2mavlink__msg__safety__allowed__area_8h.html#a7da848f412b93422335110f2af6409a0" xlink:title="Get field p1x from safety_allowed_area message. ">
<polygon fill="white" stroke="black" points="156.5,-294 156.5,-324 275.5,-324 275.5,-294 156.5,-294"/>
<text text-anchor="start" x="164.5" y="-312" font-family="Helvetica,sans-Serif" font-size="10.00">mavlink_msg_safety</text>
<text text-anchor="middle" x="216" y="-301" font-family="Helvetica,sans-Serif" font-size="10.00">_allowed_area_get_p1x</text>
</a>
</g>
</g>
<!-- Node1&#45;&gt;Node2 -->
<g id="edge1" class="edge"><title>Node1&#45;&gt;Node2</title>
<path fill="none" stroke="midnightblue" d="M66.9766,-177.254C80.9817,-202.685 112.311,-253.914 152,-284 154.33,-285.766 156.801,-287.425 159.363,-288.98"/>
<polygon fill="midnightblue" stroke="midnightblue" points="157.902,-292.17 168.358,-293.878 161.249,-286.022 157.902,-292.17"/>
</g>
<!-- Node3 -->
<g id="node3" class="node"><title>Node3</title>
<g id="a_node3"><a xlink:href="$v1_80_2common_2mavlink__msg__safety__allowed__area_8h.html#a5985f6ee8f1bb6988a6a69a0d8f79efa" xlink:title="Get field p1y from safety_allowed_area message. ">
<polygon fill="white" stroke="black" points="156.5,-245 156.5,-275 275.5,-275 275.5,-245 156.5,-245"/>
<text text-anchor="start" x="164.5" y="-263" font-family="Helvetica,sans-Serif" font-size="10.00">mavlink_msg_safety</text>
<text text-anchor="middle" x="216" y="-252" font-family="Helvetica,sans-Serif" font-size="10.00">_allowed_area_get_p1y</text>
</a>
</g>
</g>
<!-- Node1&#45;&gt;Node3 -->
<g id="edge2" class="edge"><title>Node1&#45;&gt;Node3</title>
<path fill="none" stroke="midnightblue" d="M75.0921,-177.009C92.8557,-192.985 122.815,-218.226 152,-235 155.459,-236.988 159.107,-238.888 162.833,-240.689"/>
<polygon fill="midnightblue" stroke="midnightblue" points="161.642,-243.992 172.194,-244.952 164.544,-237.622 161.642,-243.992"/>
</g>
<!-- Node4 -->
<g id="node4" class="node"><title>Node4</title>
<g id="a_node4"><a xlink:href="$v1_80_2common_2mavlink__msg__safety__allowed__area_8h.html#a6bf678d0068ca89ce527365cb4394263" xlink:title="Get field p1z from safety_allowed_area message. ">
<polygon fill="white" stroke="black" points="156.5,-196 156.5,-226 275.5,-226 275.5,-196 156.5,-196"/>
<text text-anchor="start" x="164.5" y="-214" font-family="Helvetica,sans-Serif" font-size="10.00">mavlink_msg_safety</text>
<text text-anchor="middle" x="216" y="-203" font-family="Helvetica,sans-Serif" font-size="10.00">_allowed_area_get_p1z</text>
</a>
</g>
</g>
<!-- Node1&#45;&gt;Node4 -->
<g id="edge3" class="edge"><title>Node1&#45;&gt;Node4</title>
<path fill="none" stroke="midnightblue" d="M107.078,-177.101C123.018,-182.108 140.924,-187.732 157.5,-192.939"/>
<polygon fill="midnightblue" stroke="midnightblue" points="156.491,-196.291 167.081,-195.948 158.589,-189.613 156.491,-196.291"/>
</g>
<!-- Node5 -->
<g id="node5" class="node"><title>Node5</title>
<g id="a_node5"><a xlink:href="$v1_80_2common_2mavlink__msg__safety__allowed__area_8h.html#a023efae9c42172a55f0129768630e6ca" xlink:title="Get field p2x from safety_allowed_area message. ">
<polygon fill="white" stroke="black" points="156.5,-147 156.5,-177 275.5,-177 275.5,-147 156.5,-147"/>
<text text-anchor="start" x="164.5" y="-165" font-family="Helvetica,sans-Serif" font-size="10.00">mavlink_msg_safety</text>
<text text-anchor="middle" x="216" y="-154" font-family="Helvetica,sans-Serif" font-size="10.00">_allowed_area_get_p2x</text>
</a>
</g>
</g>
<!-- Node1&#45;&gt;Node5 -->
<g id="edge4" class="edge"><title>Node1&#45;&gt;Node5</title>
<path fill="none" stroke="midnightblue" d="M116.203,-162C126.051,-162 136.376,-162 146.485,-162"/>
<polygon fill="midnightblue" stroke="midnightblue" points="146.497,-165.5 156.497,-162 146.497,-158.5 146.497,-165.5"/>
</g>
<!-- Node6 -->
<g id="node6" class="node"><title>Node6</title>
<g id="a_node6"><a xlink:href="$v1_80_2common_2mavlink__msg__safety__allowed__area_8h.html#abaa576cf077c6179ae3a1a385a164420" xlink:title="Get field p2y from safety_allowed_area message. ">
<polygon fill="white" stroke="black" points="156.5,-98 156.5,-128 275.5,-128 275.5,-98 156.5,-98"/>
<text text-anchor="start" x="164.5" y="-116" font-family="Helvetica,sans-Serif" font-size="10.00">mavlink_msg_safety</text>
<text text-anchor="middle" x="216" y="-105" font-family="Helvetica,sans-Serif" font-size="10.00">_allowed_area_get_p2y</text>
</a>
</g>
</g>
<!-- Node1&#45;&gt;Node6 -->
<g id="edge5" class="edge"><title>Node1&#45;&gt;Node6</title>
<path fill="none" stroke="midnightblue" d="M107.078,-146.899C123.018,-141.892 140.924,-136.268 157.5,-131.061"/>
<polygon fill="midnightblue" stroke="midnightblue" points="158.589,-134.387 167.081,-128.052 156.491,-127.709 158.589,-134.387"/>
</g>
<!-- Node7 -->
<g id="node7" class="node"><title>Node7</title>
<g id="a_node7"><a xlink:href="$v1_80_2common_2mavlink__msg__safety__allowed__area_8h.html#aeb7c4bf8480455620231e8d7810ccb4a" xlink:title="Get field p2z from safety_allowed_area message. ">
<polygon fill="white" stroke="black" points="156.5,-49 156.5,-79 275.5,-79 275.5,-49 156.5,-49"/>
<text text-anchor="start" x="164.5" y="-67" font-family="Helvetica,sans-Serif" font-size="10.00">mavlink_msg_safety</text>
<text text-anchor="middle" x="216" y="-56" font-family="Helvetica,sans-Serif" font-size="10.00">_allowed_area_get_p2z</text>
</a>
</g>
</g>
<!-- Node1&#45;&gt;Node7 -->
<g id="edge6" class="edge"><title>Node1&#45;&gt;Node7</title>
<path fill="none" stroke="midnightblue" d="M75.0921,-146.991C92.8557,-131.015 122.815,-105.774 152,-89 155.459,-87.0119 159.107,-85.1119 162.833,-83.3115"/>
<polygon fill="midnightblue" stroke="midnightblue" points="164.544,-86.3784 172.194,-79.048 161.642,-80.0081 164.544,-86.3784"/>
</g>
<!-- Node8 -->
<g id="node8" class="node"><title>Node8</title>
<g id="a_node8"><a xlink:href="$v1_80_2common_2mavlink__msg__safety__allowed__area_8h.html#a7e67176ef92bcfde51824b59ca2f54a0" xlink:title="Send a safety_allowed_area message. ">
<polygon fill="white" stroke="black" points="152,-0 152,-30 280,-30 280,-0 152,-0"/>
<text text-anchor="start" x="160" y="-18" font-family="Helvetica,sans-Serif" font-size="10.00">mavlink_msg_safety</text>
<text text-anchor="middle" x="216" y="-7" font-family="Helvetica,sans-Serif" font-size="10.00">_allowed_area_get_frame</text>
</a>
</g>
</g>
<!-- Node1&#45;&gt;Node8 -->
<g id="edge7" class="edge"><title>Node1&#45;&gt;Node8</title>
<path fill="none" stroke="midnightblue" d="M66.9766,-146.746C80.9817,-121.315 112.311,-70.0855 152,-40 154.33,-38.234 156.801,-36.5753 159.363,-35.0198"/>
<polygon fill="midnightblue" stroke="midnightblue" points="161.249,-37.978 168.358,-30.1221 157.902,-31.8302 161.249,-37.978"/>
</g>
</g>
</svg>
