<?xml version="1.0" encoding="UTF-8" standalone="no"?>
<!DOCTYPE svg PUBLIC "-//W3C//DTD SVG 1.1//EN"
 "http://www.w3.org/Graphics/SVG/1.1/DTD/svg11.dtd">
<!-- Generated by graphviz version 2.36.0 (20140111.2315)
 -->
<!-- Title: mavlink_msg_safety_set_allowed_area_get_target_component Pages: 1 -->
<svg width="294pt" height="48pt"
 viewBox="0.00 0.00 294.00 48.00" xmlns="http://www.w3.org/2000/svg" xmlns:xlink="http://www.w3.org/1999/xlink">
<g id="graph0" class="graph" transform="scale(1 1) rotate(0) translate(4 44)">
<title>mavlink_msg_safety_set_allowed_area_get_target_component</title>
<polygon fill="white" stroke="none" points="-4,4 -4,-44 290,-44 290,4 -4,4"/>
<!-- Node1 -->
<g id="node1" class="node"><title>Node1</title>
<polygon fill="#bfbfbf" stroke="black" points="0,0.5 0,-40.5 116,-40.5 116,0.5 0,0.5"/>
<text text-anchor="start" x="8" y="-28.5" font-family="Helvetica,sans-Serif" font-size="10.00">mavlink_msg_safety</text>
<text text-anchor="start" x="8" y="-17.5" font-family="Helvetica,sans-Serif" font-size="10.00">_set_allowed_area_get</text>
<text text-anchor="middle" x="58" y="-6.5" font-family="Helvetica,sans-Serif" font-size="10.00">_target_component</text>
</g>
<!-- Node2 -->
<g id="node2" class="node"><title>Node2</title>
<g id="a_node2"><a xlink:href="$v1_80_2common_2mavlink__msg__safety__set__allowed__area_8h.html#a34ca7293aaf04fa288a6655dabfaf8e4" xlink:title="Decode a safety_set_allowed_area message into a struct. ">
<polygon fill="white" stroke="black" points="152,-5 152,-35 286,-35 286,-5 152,-5"/>
<text text-anchor="start" x="160" y="-23" font-family="Helvetica,sans-Serif" font-size="10.00">mavlink_msg_safety</text>
<text text-anchor="middle" x="219" y="-12" font-family="Helvetica,sans-Serif" font-size="10.00">_set_allowed_area_decode</text>
</a>
</g>
</g>
<!-- Node1&#45;&gt;Node2 -->
<g id="edge1" class="edge"><title>Node1&#45;&gt;Node2</title>
<path fill="none" stroke="midnightblue" d="M126.495,-20C134.864,-20 143.414,-20 151.764,-20"/>
<polygon fill="midnightblue" stroke="midnightblue" points="126.403,-16.5001 116.403,-20 126.403,-23.5001 126.403,-16.5001"/>
</g>
</g>
</svg>
