<?xml version="1.0" encoding="UTF-8" standalone="no"?>
<!DOCTYPE svg PUBLIC "-//W3C//DTD SVG 1.1//EN"
 "http://www.w3.org/Graphics/SVG/1.1/DTD/svg11.dtd">
<!-- Generated by graphviz version 2.36.0 (20140111.2315)
 -->
<!-- Title: mavlink_test_fence_status Pages: 1 -->
<svg width="648pt" height="316pt"
 viewBox="0.00 0.00 648.00 316.00" xmlns="http://www.w3.org/2000/svg" xmlns:xlink="http://www.w3.org/1999/xlink">
<g id="graph0" class="graph" transform="scale(1 1) rotate(0) translate(4 312)">
<title>mavlink_test_fence_status</title>
<polygon fill="white" stroke="none" points="-4,4 -4,-312 644,-312 644,4 -4,4"/>
<!-- Node1 -->
<g id="node1" class="node"><title>Node1</title>
<polygon fill="#bfbfbf" stroke="black" points="0.5,-137 0.5,-167 101.5,-167 101.5,-137 0.5,-137"/>
<text text-anchor="start" x="8.5" y="-155" font-family="Helvetica,sans-Serif" font-size="10.00">mavlink_test_fence</text>
<text text-anchor="middle" x="51" y="-144" font-family="Helvetica,sans-Serif" font-size="10.00">_status</text>
</g>
<!-- Node2 -->
<g id="node2" class="node"><title>Node2</title>
<g id="a_node2"><a xlink:href="$v0_89_2ardupilotmega_2mavlink__msg__fence__status_8h.html#a32927887ff91fcf5312a536ded09d85d" xlink:title="Encode a fence_status struct into a message. ">
<polygon fill="white" stroke="black" points="138,-278 138,-308 274,-308 274,-278 138,-278"/>
<text text-anchor="start" x="146" y="-296" font-family="Helvetica,sans-Serif" font-size="10.00">mavlink_msg_fence_status</text>
<text text-anchor="middle" x="206" y="-285" font-family="Helvetica,sans-Serif" font-size="10.00">_encode</text>
</a>
</g>
</g>
<!-- Node1&#45;&gt;Node2 -->
<g id="edge1" class="edge"><title>Node1&#45;&gt;Node2</title>
<path fill="none" stroke="midnightblue" d="M60.8124,-167.193C74.7194,-190.075 103.728,-233.613 138,-261 143.677,-265.537 150.103,-269.627 156.673,-273.248"/>
<polygon fill="midnightblue" stroke="midnightblue" points="155.172,-276.412 165.663,-277.892 158.385,-270.193 155.172,-276.412"/>
</g>
<!-- Node3 -->
<g id="node3" class="node"><title>Node3</title>
<g id="a_node3"><a xlink:href="$v0_89_2ardupilotmega_2mavlink__msg__fence__status_8h.html#a5968ff804d304e28de4f69de07945776" xlink:title="Pack a fence_status message. ">
<polygon fill="white" stroke="black" points="310,-284.5 310,-303.5 472,-303.5 472,-284.5 310,-284.5"/>
<text text-anchor="middle" x="391" y="-291.5" font-family="Helvetica,sans-Serif" font-size="10.00">mavlink_msg_fence_status_pack</text>
</a>
</g>
</g>
<!-- Node1&#45;&gt;Node3 -->
<g id="edge9" class="edge"><title>Node1&#45;&gt;Node3</title>
<path fill="none" stroke="midnightblue" d="M65.7821,-167.043C81.678,-183.534 109.326,-209.681 138,-225 172.179,-243.26 272.988,-267.882 336.261,-282.24"/>
<polygon fill="midnightblue" stroke="midnightblue" points="335.553,-285.668 346.078,-284.453 337.093,-278.839 335.553,-285.668"/>
</g>
<!-- Node5 -->
<g id="node5" class="node"><title>Node5</title>
<g id="a_node5"><a xlink:href="$v0_89_2ardupilotmega_2mavlink__msg__fence__status_8h.html#a3f00d7d094d63b467e59a3649a7fb8cb" xlink:title="Decode a fence_status message into a struct. ">
<polygon fill="white" stroke="black" points="138,-186 138,-216 274,-216 274,-186 138,-186"/>
<text text-anchor="start" x="146" y="-204" font-family="Helvetica,sans-Serif" font-size="10.00">mavlink_msg_fence_status</text>
<text text-anchor="middle" x="206" y="-193" font-family="Helvetica,sans-Serif" font-size="10.00">_decode</text>
</a>
</g>
</g>
<!-- Node1&#45;&gt;Node5 -->
<g id="edge4" class="edge"><title>Node1&#45;&gt;Node5</title>
<path fill="none" stroke="midnightblue" d="M99.1535,-167.101C114.641,-172.062 132.02,-177.627 148.149,-182.793"/>
<polygon fill="midnightblue" stroke="midnightblue" points="147.411,-186.232 158.002,-185.948 149.546,-179.565 147.411,-186.232"/>
</g>
<!-- Node10 -->
<g id="node10" class="node"><title>Node10</title>
<g id="a_node10"><a xlink:href="$v0_89_2ardupilotmega_2mavlink__msg__fence__status_8h.html#a99447f94efea540db056d30952ba1aaf" xlink:title="Pack a fence_status message on a channel. ">
<polygon fill="white" stroke="black" points="138,-137 138,-167 274,-167 274,-137 138,-137"/>
<text text-anchor="start" x="146" y="-155" font-family="Helvetica,sans-Serif" font-size="10.00">mavlink_msg_fence_status</text>
<text text-anchor="middle" x="206" y="-144" font-family="Helvetica,sans-Serif" font-size="10.00">_pack_chan</text>
</a>
</g>
</g>
<!-- Node1&#45;&gt;Node10 -->
<g id="edge10" class="edge"><title>Node1&#45;&gt;Node10</title>
<path fill="none" stroke="midnightblue" d="M101.675,-152C109.953,-152 118.711,-152 127.487,-152"/>
<polygon fill="midnightblue" stroke="midnightblue" points="127.77,-155.5 137.77,-152 127.77,-148.5 127.77,-155.5"/>
</g>
<!-- Node12 -->
<g id="node12" class="node"><title>Node12</title>
<g id="a_node12"><a xlink:href="$v0_89_2mavlink__helpers_8h.html#afea0a9befa84822fd62c2899ea0d849e" xlink:title="Pack a message to send it over a serial byte stream. ">
<polygon fill="white" stroke="black" points="149,-88 149,-118 263,-118 263,-88 149,-88"/>
<text text-anchor="start" x="157" y="-106" font-family="Helvetica,sans-Serif" font-size="10.00">mavlink_msg_to_send</text>
<text text-anchor="middle" x="206" y="-95" font-family="Helvetica,sans-Serif" font-size="10.00">_buffer</text>
</a>
</g>
</g>
<!-- Node1&#45;&gt;Node12 -->
<g id="edge12" class="edge"><title>Node1&#45;&gt;Node12</title>
<path fill="none" stroke="midnightblue" d="M99.1535,-136.899C114.641,-131.938 132.02,-126.373 148.149,-121.207"/>
<polygon fill="midnightblue" stroke="midnightblue" points="149.546,-124.435 158.002,-118.052 147.411,-117.768 149.546,-124.435"/>
</g>
<!-- Node13 -->
<g id="node13" class="node"><title>Node13</title>
<g id="a_node13"><a xlink:href="$v0_89_2protocol_8h.html#aa86c08f27aabb7a2e12a67f189f590c8" xlink:title="Get the required buffer size for this message. ">
<polygon fill="white" stroke="black" points="146.5,-39 146.5,-69 265.5,-69 265.5,-39 146.5,-39"/>
<text text-anchor="start" x="154.5" y="-57" font-family="Helvetica,sans-Serif" font-size="10.00">mavlink_msg_get_send</text>
<text text-anchor="middle" x="206" y="-46" font-family="Helvetica,sans-Serif" font-size="10.00">_buffer_length</text>
</a>
</g>
</g>
<!-- Node1&#45;&gt;Node13 -->
<g id="edge13" class="edge"><title>Node1&#45;&gt;Node13</title>
<path fill="none" stroke="midnightblue" d="M66.228,-136.795C82.3062,-120.367 109.914,-94.3528 138,-78 140.83,-76.3525 143.791,-74.7889 146.827,-73.3096"/>
<polygon fill="midnightblue" stroke="midnightblue" points="148.427,-76.4279 156.102,-69.1243 145.547,-70.0475 148.427,-76.4279"/>
</g>
<!-- Node14 -->
<g id="node14" class="node"><title>Node14</title>
<g id="a_node14"><a xlink:href="$GCS__MAVLink_8h.html#ab753873a1ee10adedd0ce246311468f8" xlink:title="comm_send_ch">
<polygon fill="white" stroke="black" points="163,-0.5 163,-19.5 249,-19.5 249,-0.5 163,-0.5"/>
<text text-anchor="middle" x="206" y="-7.5" font-family="Helvetica,sans-Serif" font-size="10.00">comm_send_ch</text>
</a>
</g>
</g>
<!-- Node1&#45;&gt;Node14 -->
<g id="edge14" class="edge"><title>Node1&#45;&gt;Node14</title>
<path fill="none" stroke="midnightblue" d="M58.5319,-136.587C70.4165,-110.423 98.0883,-57.4014 138,-29 142.618,-25.7141 147.791,-22.9944 153.161,-20.7439"/>
<polygon fill="midnightblue" stroke="midnightblue" points="154.761,-23.8861 162.962,-17.1786 152.368,-17.3078 154.761,-23.8861"/>
</g>
<!-- Node2&#45;&gt;Node3 -->
<g id="edge2" class="edge"><title>Node2&#45;&gt;Node3</title>
<path fill="none" stroke="midnightblue" d="M274.103,-293.367C282.462,-293.412 291.113,-293.46 299.749,-293.507"/>
<polygon fill="midnightblue" stroke="midnightblue" points="299.843,-297.007 309.862,-293.562 299.882,-290.007 299.843,-297.007"/>
</g>
<!-- Node4 -->
<g id="node4" class="node"><title>Node4</title>
<g id="a_node4"><a xlink:href="$v0_89_2mavlink__helpers_8h.html#af3bea083c5ec83f5b6570b2bd4a817d0" xlink:title="Finalize a MAVLink message with MAVLINK_COMM_0 as default channel. ">
<polygon fill="white" stroke="black" points="508.5,-284.5 508.5,-303.5 639.5,-303.5 639.5,-284.5 508.5,-284.5"/>
<text text-anchor="middle" x="574" y="-291.5" font-family="Helvetica,sans-Serif" font-size="10.00">mavlink_finalize_message</text>
</a>
</g>
</g>
<!-- Node3&#45;&gt;Node4 -->
<g id="edge3" class="edge"><title>Node3&#45;&gt;Node4</title>
<path fill="none" stroke="midnightblue" d="M472.18,-294C480.879,-294 489.707,-294 498.337,-294"/>
<polygon fill="midnightblue" stroke="midnightblue" points="498.358,-297.5 508.358,-294 498.358,-290.5 498.358,-297.5"/>
</g>
<!-- Node6 -->
<g id="node6" class="node"><title>Node6</title>
<g id="a_node6"><a xlink:href="$v0_89_2ardupilotmega_2mavlink__msg__fence__status_8h.html#a74dffd4849223a6a48dc4b22c2c396e7" xlink:title="Send a fence_status message. ">
<polygon fill="white" stroke="black" points="323,-235 323,-265 459,-265 459,-235 323,-235"/>
<text text-anchor="start" x="331" y="-253" font-family="Helvetica,sans-Serif" font-size="10.00">mavlink_msg_fence_status</text>
<text text-anchor="middle" x="391" y="-242" font-family="Helvetica,sans-Serif" font-size="10.00">_get_breach_status</text>
</a>
</g>
</g>
<!-- Node5&#45;&gt;Node6 -->
<g id="edge5" class="edge"><title>Node5&#45;&gt;Node6</title>
<path fill="none" stroke="midnightblue" d="M263.399,-216.101C282.535,-221.225 304.086,-226.996 323.908,-232.303"/>
<polygon fill="midnightblue" stroke="midnightblue" points="323.222,-235.743 333.787,-234.948 325.033,-228.981 323.222,-235.743"/>
</g>
<!-- Node7 -->
<g id="node7" class="node"><title>Node7</title>
<g id="a_node7"><a xlink:href="$v0_89_2ardupilotmega_2mavlink__msg__fence__status_8h.html#aa746d6378c19280196a8adc48bef999e" xlink:title="Get field breach_count from fence_status message. ">
<polygon fill="white" stroke="black" points="323,-186 323,-216 459,-216 459,-186 323,-186"/>
<text text-anchor="start" x="331" y="-204" font-family="Helvetica,sans-Serif" font-size="10.00">mavlink_msg_fence_status</text>
<text text-anchor="middle" x="391" y="-193" font-family="Helvetica,sans-Serif" font-size="10.00">_get_breach_count</text>
</a>
</g>
</g>
<!-- Node5&#45;&gt;Node7 -->
<g id="edge6" class="edge"><title>Node5&#45;&gt;Node7</title>
<path fill="none" stroke="midnightblue" d="M274.103,-201C286.66,-201 299.878,-201 312.713,-201"/>
<polygon fill="midnightblue" stroke="midnightblue" points="312.905,-204.5 322.905,-201 312.905,-197.5 312.905,-204.5"/>
</g>
<!-- Node8 -->
<g id="node8" class="node"><title>Node8</title>
<g id="a_node8"><a xlink:href="$v0_89_2ardupilotmega_2mavlink__msg__fence__status_8h.html#a9997f28aa1d636c00ae1de98cdf0baa1" xlink:title="Get field breach_type from fence_status message. ">
<polygon fill="white" stroke="black" points="323,-137 323,-167 459,-167 459,-137 323,-137"/>
<text text-anchor="start" x="331" y="-155" font-family="Helvetica,sans-Serif" font-size="10.00">mavlink_msg_fence_status</text>
<text text-anchor="middle" x="391" y="-144" font-family="Helvetica,sans-Serif" font-size="10.00">_get_breach_type</text>
</a>
</g>
</g>
<!-- Node5&#45;&gt;Node8 -->
<g id="edge7" class="edge"><title>Node5&#45;&gt;Node8</title>
<path fill="none" stroke="midnightblue" d="M263.399,-185.899C282.535,-180.775 304.086,-175.004 323.908,-169.697"/>
<polygon fill="midnightblue" stroke="midnightblue" points="325.033,-173.019 333.787,-167.052 323.222,-166.257 325.033,-173.019"/>
</g>
<!-- Node9 -->
<g id="node9" class="node"><title>Node9</title>
<g id="a_node9"><a xlink:href="$v0_89_2ardupilotmega_2mavlink__msg__fence__status_8h.html#a8515484d02aa8bb08ca4b1a79b0c5ba5" xlink:title="Get field breach_time from fence_status message. ">
<polygon fill="white" stroke="black" points="323,-88 323,-118 459,-118 459,-88 323,-88"/>
<text text-anchor="start" x="331" y="-106" font-family="Helvetica,sans-Serif" font-size="10.00">mavlink_msg_fence_status</text>
<text text-anchor="middle" x="391" y="-95" font-family="Helvetica,sans-Serif" font-size="10.00">_get_breach_time</text>
</a>
</g>
</g>
<!-- Node5&#45;&gt;Node9 -->
<g id="edge8" class="edge"><title>Node5&#45;&gt;Node9</title>
<path fill="none" stroke="midnightblue" d="M257.364,-185.925C263.251,-183.106 268.948,-179.818 274,-176 295.56,-159.707 287.917,-142.576 310,-127 312.125,-125.501 314.346,-124.094 316.637,-122.774"/>
<polygon fill="midnightblue" stroke="midnightblue" points="318.469,-125.768 325.779,-118.099 315.282,-119.536 318.469,-125.768"/>
</g>
<!-- Node11 -->
<g id="node11" class="node"><title>Node11</title>
<g id="a_node11"><a xlink:href="$v0_89_2mavlink__helpers_8h.html#aa66131138fc02101dcc73b4b556ab422" xlink:title="Finalize a MAVLink message with channel assignment. ">
<polygon fill="white" stroke="black" points="312,-49.5 312,-68.5 470,-68.5 470,-49.5 312,-49.5"/>
<text text-anchor="middle" x="391" y="-56.5" font-family="Helvetica,sans-Serif" font-size="10.00">mavlink_finalize_message_chan</text>
</a>
</g>
</g>
<!-- Node10&#45;&gt;Node11 -->
<g id="edge11" class="edge"><title>Node10&#45;&gt;Node11</title>
<path fill="none" stroke="midnightblue" d="M257.364,-136.925C263.251,-134.106 268.948,-130.818 274,-127 295.56,-110.707 287.473,-92.9262 310,-78 313.098,-75.9475 316.393,-74.1159 319.813,-72.4816"/>
<polygon fill="midnightblue" stroke="midnightblue" points="321.229,-75.6831 329.108,-68.5999 318.532,-69.2237 321.229,-75.6831"/>
</g>
<!-- Node15 -->
<g id="node15" class="node"><title>Node15</title>
<g id="a_node15"><a xlink:href="$classAP__HAL_1_1Print.html#acc65391952a43334f8f5c9bef341f501" xlink:title="AP_HAL::Print::write">
<polygon fill="white" stroke="black" points="337,-0.5 337,-19.5 445,-19.5 445,-0.5 337,-0.5"/>
<text text-anchor="middle" x="391" y="-7.5" font-family="Helvetica,sans-Serif" font-size="10.00">AP_HAL::Print::write</text>
</a>
</g>
</g>
<!-- Node14&#45;&gt;Node15 -->
<g id="edge15" class="edge"><title>Node14&#45;&gt;Node15</title>
<path fill="none" stroke="midnightblue" d="M249.444,-10C272.366,-10 301.118,-10 326.637,-10"/>
<polygon fill="midnightblue" stroke="midnightblue" points="326.977,-13.5001 336.977,-10 326.977,-6.5001 326.977,-13.5001"/>
</g>
</g>
</svg>
