<?xml version="1.0" encoding="UTF-8" standalone="no"?>
<!DOCTYPE svg PUBLIC "-//W3C//DTD SVG 1.1//EN"
 "http://www.w3.org/Graphics/SVG/1.1/DTD/svg11.dtd">
<!-- Generated by graphviz version 2.36.0 (20140111.2315)
 -->
<!-- Title: libraries/GCS_MAVLink/include/mavlink/v1.0/common/testsuite.h Pages: 1 -->
<svg width="136pt" height="128pt"
 viewBox="0.00 0.00 136.00 128.00" xmlns="http://www.w3.org/2000/svg" xmlns:xlink="http://www.w3.org/1999/xlink">
<g id="graph0" class="graph" transform="scale(1 1) rotate(0) translate(4 124)">
<title>libraries/GCS_MAVLink/include/mavlink/v1.0/common/testsuite.h</title>
<polygon fill="white" stroke="none" points="-4,4 -4,-124 132,-124 132,4 -4,4"/>
<!-- Node1 -->
<g id="node1" class="node"><title>Node1</title>
<polygon fill="#bfbfbf" stroke="black" points="4,-78.5 4,-119.5 124,-119.5 124,-78.5 4,-78.5"/>
<text text-anchor="start" x="12" y="-107.5" font-family="Helvetica,sans-Serif" font-size="10.00">libraries/GCS_MAVLink</text>
<text text-anchor="start" x="12" y="-96.5" font-family="Helvetica,sans-Serif" font-size="10.00">/include/mavlink/v1.0</text>
<text text-anchor="middle" x="64" y="-85.5" font-family="Helvetica,sans-Serif" font-size="10.00">/common/testsuite.h</text>
</g>
<!-- Node2 -->
<g id="node2" class="node"><title>Node2</title>
<g id="a_node2"><a xlink:href="$v1_80_2ardupilotmega_2testsuite_8h.html" xlink:title="MAVLink comm protocol testsuite generated from ardupilotmega.xml. ">
<polygon fill="white" stroke="black" points="-0.5,-0.5 -0.5,-41.5 128.5,-41.5 128.5,-0.5 -0.5,-0.5"/>
<text text-anchor="start" x="7.5" y="-29.5" font-family="Helvetica,sans-Serif" font-size="10.00">libraries/GCS_MAVLink</text>
<text text-anchor="start" x="7.5" y="-18.5" font-family="Helvetica,sans-Serif" font-size="10.00">/include/mavlink/v1.0</text>
<text text-anchor="middle" x="64" y="-7.5" font-family="Helvetica,sans-Serif" font-size="10.00">/ardupilotmega/testsuite.h</text>
</a>
</g>
</g>
<!-- Node1&#45;&gt;Node2 -->
<g id="edge1" class="edge"><title>Node1&#45;&gt;Node2</title>
<path fill="none" stroke="midnightblue" d="M64,-68.2965C64,-59.3009 64,-49.6532 64,-41.5056"/>
<polygon fill="midnightblue" stroke="midnightblue" points="60.5001,-68.4281 64,-78.4281 67.5001,-68.4281 60.5001,-68.4281"/>
</g>
</g>
</svg>
