<?xml version="1.0" encoding="UTF-8" standalone="no"?>
<!DOCTYPE svg PUBLIC "-//W3C//DTD SVG 1.1//EN"
 "http://www.w3.org/Graphics/SVG/1.1/DTD/svg11.dtd">
<!-- Generated by graphviz version 2.36.0 (20140111.2315)
 -->
<!-- Title: mavlink_test_log_request_data Pages: 1 -->
<svg width="688pt" height="365pt"
 viewBox="0.00 0.00 688.00 365.00" xmlns="http://www.w3.org/2000/svg" xmlns:xlink="http://www.w3.org/1999/xlink">
<g id="graph0" class="graph" transform="scale(1 1) rotate(0) translate(4 361)">
<title>mavlink_test_log_request_data</title>
<polygon fill="white" stroke="none" points="-4,4 -4,-361 684,-361 684,4 -4,4"/>
<!-- Node1 -->
<g id="node1" class="node"><title>Node1</title>
<polygon fill="#bfbfbf" stroke="black" points="0,-142.5 0,-161.5 152,-161.5 152,-142.5 0,-142.5"/>
<text text-anchor="middle" x="76" y="-149.5" font-family="Helvetica,sans-Serif" font-size="10.00">mavlink_test_log_request_data</text>
</g>
<!-- Node2 -->
<g id="node2" class="node"><title>Node2</title>
<g id="a_node2"><a xlink:href="$mavlink__msg__log__request__data_8h.html#aee8ffdcc6a4441f6a5076fb6abce0ca8" xlink:title="Encode a log_request_data struct. ">
<polygon fill="white" stroke="black" points="188,-310 188,-340 318,-340 318,-310 188,-310"/>
<text text-anchor="start" x="196" y="-328" font-family="Helvetica,sans-Serif" font-size="10.00">mavlink_msg_log_request</text>
<text text-anchor="middle" x="253" y="-317" font-family="Helvetica,sans-Serif" font-size="10.00">_data_encode</text>
</a>
</g>
</g>
<!-- Node1&#45;&gt;Node2 -->
<g id="edge1" class="edge"><title>Node1&#45;&gt;Node2</title>
<path fill="none" stroke="midnightblue" d="M83.7131,-161.701C99.8631,-184.604 142.901,-243.1 188,-283 196.688,-290.686 206.891,-298.013 216.566,-304.333"/>
<polygon fill="midnightblue" stroke="midnightblue" points="214.925,-307.437 225.245,-309.835 218.673,-301.524 214.925,-307.437"/>
</g>
<!-- Node3 -->
<g id="node3" class="node"><title>Node3</title>
<g id="a_node3"><a xlink:href="$mavlink__msg__log__request__data_8h.html#aa757ee5ca087d0305ee51a3b935f96d5" xlink:title="Pack a log_request_data message. ">
<polygon fill="white" stroke="black" points="368,-327 368,-357 498,-357 498,-327 368,-327"/>
<text text-anchor="start" x="376" y="-345" font-family="Helvetica,sans-Serif" font-size="10.00">mavlink_msg_log_request</text>
<text text-anchor="middle" x="433" y="-334" font-family="Helvetica,sans-Serif" font-size="10.00">_data_pack</text>
</a>
</g>
</g>
<!-- Node1&#45;&gt;Node3 -->
<g id="edge10" class="edge"><title>Node1&#45;&gt;Node3</title>
<path fill="none" stroke="midnightblue" d="M90.8009,-161.563C111.58,-175.849 152.277,-203.396 188,-225 224.089,-246.825 315.289,-300.261 354,-317 359.268,-319.278 364.813,-321.459 370.418,-323.517"/>
<polygon fill="midnightblue" stroke="midnightblue" points="369.273,-326.824 379.868,-326.86 371.607,-320.225 369.273,-326.824"/>
</g>
<!-- Node5 -->
<g id="node5" class="node"><title>Node5</title>
<g id="a_node5"><a xlink:href="$mavlink__msg__log__request__data_8h.html#aa77236e323926ff3f421322ec81922f4" xlink:title="Decode a log_request_data message into a struct. ">
<polygon fill="white" stroke="black" points="188,-186 188,-216 318,-216 318,-186 188,-186"/>
<text text-anchor="start" x="196" y="-204" font-family="Helvetica,sans-Serif" font-size="10.00">mavlink_msg_log_request</text>
<text text-anchor="middle" x="253" y="-193" font-family="Helvetica,sans-Serif" font-size="10.00">_data_decode</text>
</a>
</g>
</g>
<!-- Node1&#45;&gt;Node5 -->
<g id="edge4" class="edge"><title>Node1&#45;&gt;Node5</title>
<path fill="none" stroke="midnightblue" d="M111.157,-161.564C133.119,-167.713 162.331,-175.893 188.457,-183.208"/>
<polygon fill="midnightblue" stroke="midnightblue" points="187.723,-186.637 198.297,-185.963 189.611,-179.896 187.723,-186.637"/>
</g>
<!-- Node11 -->
<g id="node11" class="node"><title>Node11</title>
<g id="a_node11"><a xlink:href="$mavlink__msg__log__request__data_8h.html#af3eb80d02b1a525fc6f26e3f60f36f3d" xlink:title="Pack a log_request_data message on a channel. ">
<polygon fill="white" stroke="black" points="188,-137 188,-167 318,-167 318,-137 188,-137"/>
<text text-anchor="start" x="196" y="-155" font-family="Helvetica,sans-Serif" font-size="10.00">mavlink_msg_log_request</text>
<text text-anchor="middle" x="253" y="-144" font-family="Helvetica,sans-Serif" font-size="10.00">_data_pack_chan</text>
</a>
</g>
</g>
<!-- Node1&#45;&gt;Node11 -->
<g id="edge11" class="edge"><title>Node1&#45;&gt;Node11</title>
<path fill="none" stroke="midnightblue" d="M152.231,-152C160.661,-152 169.247,-152 177.665,-152"/>
<polygon fill="midnightblue" stroke="midnightblue" points="177.83,-155.5 187.83,-152 177.83,-148.5 177.83,-155.5"/>
</g>
<!-- Node13 -->
<g id="node13" class="node"><title>Node13</title>
<g id="a_node13"><a xlink:href="$v0_89_2mavlink__helpers_8h.html#afea0a9befa84822fd62c2899ea0d849e" xlink:title="Pack a message to send it over a serial byte stream. ">
<polygon fill="white" stroke="black" points="196,-88 196,-118 310,-118 310,-88 196,-88"/>
<text text-anchor="start" x="204" y="-106" font-family="Helvetica,sans-Serif" font-size="10.00">mavlink_msg_to_send</text>
<text text-anchor="middle" x="253" y="-95" font-family="Helvetica,sans-Serif" font-size="10.00">_buffer</text>
</a>
</g>
</g>
<!-- Node1&#45;&gt;Node13 -->
<g id="edge13" class="edge"><title>Node1&#45;&gt;Node13</title>
<path fill="none" stroke="midnightblue" d="M111.157,-142.436C133.119,-136.287 162.331,-128.107 188.457,-120.792"/>
<polygon fill="midnightblue" stroke="midnightblue" points="189.611,-124.104 198.297,-118.037 187.723,-117.363 189.611,-124.104"/>
</g>
<!-- Node14 -->
<g id="node14" class="node"><title>Node14</title>
<g id="a_node14"><a xlink:href="$v0_89_2protocol_8h.html#aa86c08f27aabb7a2e12a67f189f590c8" xlink:title="Get the required buffer size for this message. ">
<polygon fill="white" stroke="black" points="193.5,-39 193.5,-69 312.5,-69 312.5,-39 193.5,-39"/>
<text text-anchor="start" x="201.5" y="-57" font-family="Helvetica,sans-Serif" font-size="10.00">mavlink_msg_get_send</text>
<text text-anchor="middle" x="253" y="-46" font-family="Helvetica,sans-Serif" font-size="10.00">_buffer_length</text>
</a>
</g>
</g>
<!-- Node1&#45;&gt;Node14 -->
<g id="edge14" class="edge"><title>Node1&#45;&gt;Node14</title>
<path fill="none" stroke="midnightblue" d="M89.4012,-142.343C109.322,-127.157 150.071,-97.4286 188,-78 191.31,-76.3043 194.77,-74.664 198.292,-73.0911"/>
<polygon fill="midnightblue" stroke="midnightblue" points="199.867,-76.2247 207.702,-69.0927 197.129,-69.7821 199.867,-76.2247"/>
</g>
<!-- Node15 -->
<g id="node15" class="node"><title>Node15</title>
<g id="a_node15"><a xlink:href="$GCS__MAVLink_8h.html#ab753873a1ee10adedd0ce246311468f8" xlink:title="comm_send_ch">
<polygon fill="white" stroke="black" points="210,-0.5 210,-19.5 296,-19.5 296,-0.5 210,-0.5"/>
<text text-anchor="middle" x="253" y="-7.5" font-family="Helvetica,sans-Serif" font-size="10.00">comm_send_ch</text>
</a>
</g>
</g>
<!-- Node1&#45;&gt;Node15 -->
<g id="edge15" class="edge"><title>Node1&#45;&gt;Node15</title>
<path fill="none" stroke="midnightblue" d="M82.9521,-142.372C97.7524,-119.239 138.609,-60.1455 188,-29 191.854,-26.5696 196.034,-24.4376 200.348,-22.5696"/>
<polygon fill="midnightblue" stroke="midnightblue" points="201.853,-25.7409 209.934,-18.8888 199.344,-19.2061 201.853,-25.7409"/>
</g>
<!-- Node2&#45;&gt;Node3 -->
<g id="edge2" class="edge"><title>Node2&#45;&gt;Node3</title>
<path fill="none" stroke="midnightblue" d="M318.011,-331.113C330.957,-332.35 344.671,-333.66 357.929,-334.926"/>
<polygon fill="midnightblue" stroke="midnightblue" points="357.672,-338.417 367.959,-335.884 358.338,-331.449 357.672,-338.417"/>
</g>
<!-- Node4 -->
<g id="node4" class="node"><title>Node4</title>
<g id="a_node4"><a xlink:href="$v0_89_2mavlink__helpers_8h.html#af3bea083c5ec83f5b6570b2bd4a817d0" xlink:title="Finalize a MAVLink message with MAVLINK_COMM_0 as default channel. ">
<polygon fill="white" stroke="black" points="548.5,-332.5 548.5,-351.5 679.5,-351.5 679.5,-332.5 548.5,-332.5"/>
<text text-anchor="middle" x="614" y="-339.5" font-family="Helvetica,sans-Serif" font-size="10.00">mavlink_finalize_message</text>
</a>
</g>
</g>
<!-- Node3&#45;&gt;Node4 -->
<g id="edge3" class="edge"><title>Node3&#45;&gt;Node4</title>
<path fill="none" stroke="midnightblue" d="M498.118,-342C511.148,-342 524.96,-342 538.32,-342"/>
<polygon fill="midnightblue" stroke="midnightblue" points="538.427,-345.5 548.427,-342 538.427,-338.5 538.427,-345.5"/>
</g>
<!-- Node6 -->
<g id="node6" class="node"><title>Node6</title>
<g id="a_node6"><a xlink:href="$mavlink__msg__log__request__data_8h.html#aa13c11727a64f191d1dd3c42ecd4c03b" xlink:title="Get field ofs from log_request_data message. ">
<polygon fill="white" stroke="black" points="368,-278 368,-308 498,-308 498,-278 368,-278"/>
<text text-anchor="start" x="376" y="-296" font-family="Helvetica,sans-Serif" font-size="10.00">mavlink_msg_log_request</text>
<text text-anchor="middle" x="433" y="-285" font-family="Helvetica,sans-Serif" font-size="10.00">_data_get_ofs</text>
</a>
</g>
</g>
<!-- Node5&#45;&gt;Node6 -->
<g id="edge5" class="edge"><title>Node5&#45;&gt;Node6</title>
<path fill="none" stroke="midnightblue" d="M272.94,-216.061C292.359,-230.915 323.896,-253.449 354,-268 358.603,-270.225 363.452,-272.318 368.386,-274.272"/>
<polygon fill="midnightblue" stroke="midnightblue" points="367.347,-277.621 377.939,-277.858 369.807,-271.067 367.347,-277.621"/>
</g>
<!-- Node7 -->
<g id="node7" class="node"><title>Node7</title>
<g id="a_node7"><a xlink:href="$mavlink__msg__log__request__data_8h.html#aa2e10ffaa89c8683292de56dfdea88c8" xlink:title="Get field count from log_request_data message. ">
<polygon fill="white" stroke="black" points="368,-229 368,-259 498,-259 498,-229 368,-229"/>
<text text-anchor="start" x="376" y="-247" font-family="Helvetica,sans-Serif" font-size="10.00">mavlink_msg_log_request</text>
<text text-anchor="middle" x="433" y="-236" font-family="Helvetica,sans-Serif" font-size="10.00">_data_get_count</text>
</a>
</g>
</g>
<!-- Node5&#45;&gt;Node7 -->
<g id="edge6" class="edge"><title>Node5&#45;&gt;Node7</title>
<path fill="none" stroke="midnightblue" d="M316.256,-216.039C330.348,-219.444 345.426,-223.086 359.887,-226.579"/>
<polygon fill="midnightblue" stroke="midnightblue" points="359.237,-230.023 369.779,-228.969 360.881,-223.219 359.237,-230.023"/>
</g>
<!-- Node8 -->
<g id="node8" class="node"><title>Node8</title>
<g id="a_node8"><a xlink:href="$mavlink__msg__log__request__data_8h.html#aa0a69472513d6274b428a2e1c881868f" xlink:title="Get field id from log_request_data message. ">
<polygon fill="white" stroke="black" points="368,-180 368,-210 498,-210 498,-180 368,-180"/>
<text text-anchor="start" x="376" y="-198" font-family="Helvetica,sans-Serif" font-size="10.00">mavlink_msg_log_request</text>
<text text-anchor="middle" x="433" y="-187" font-family="Helvetica,sans-Serif" font-size="10.00">_data_get_id</text>
</a>
</g>
</g>
<!-- Node5&#45;&gt;Node8 -->
<g id="edge7" class="edge"><title>Node5&#45;&gt;Node8</title>
<path fill="none" stroke="midnightblue" d="M318.011,-198.842C330.957,-198.406 344.671,-197.944 357.929,-197.497"/>
<polygon fill="midnightblue" stroke="midnightblue" points="358.083,-200.994 367.959,-197.159 357.847,-193.998 358.083,-200.994"/>
</g>
<!-- Node9 -->
<g id="node9" class="node"><title>Node9</title>
<g id="a_node9"><a xlink:href="$mavlink__msg__log__request__data_8h.html#a9a68144cd3d11e5c21faea1a3bced62e" xlink:title="Send a log_request_data message. ">
<polygon fill="white" stroke="black" points="368,-131 368,-161 498,-161 498,-131 368,-131"/>
<text text-anchor="start" x="376" y="-149" font-family="Helvetica,sans-Serif" font-size="10.00">mavlink_msg_log_request</text>
<text text-anchor="middle" x="433" y="-138" font-family="Helvetica,sans-Serif" font-size="10.00">_data_get_target_system</text>
</a>
</g>
</g>
<!-- Node5&#45;&gt;Node9 -->
<g id="edge8" class="edge"><title>Node5&#45;&gt;Node9</title>
<path fill="none" stroke="midnightblue" d="M302.568,-185.922C318.907,-180.855 337.241,-175.176 354,-170 360.13,-168.107 366.532,-166.133 372.917,-164.165"/>
<polygon fill="midnightblue" stroke="midnightblue" points="374.37,-167.38 382.897,-161.091 372.31,-160.69 374.37,-167.38"/>
</g>
<!-- Node10 -->
<g id="node10" class="node"><title>Node10</title>
<g id="a_node10"><a xlink:href="$mavlink__msg__log__request__data_8h.html#a1234a00f78251fe9077ac48b8aa0289c" xlink:title="Get field target_component from log_request_data message. ">
<polygon fill="white" stroke="black" points="361.5,-82 361.5,-112 504.5,-112 504.5,-82 361.5,-82"/>
<text text-anchor="start" x="369.5" y="-100" font-family="Helvetica,sans-Serif" font-size="10.00">mavlink_msg_log_request</text>
<text text-anchor="middle" x="433" y="-89" font-family="Helvetica,sans-Serif" font-size="10.00">_data_get_target_component</text>
</a>
</g>
</g>
<!-- Node5&#45;&gt;Node10 -->
<g id="edge9" class="edge"><title>Node5&#45;&gt;Node10</title>
<path fill="none" stroke="midnightblue" d="M302.305,-185.957C307.895,-183.133 313.276,-179.834 318,-176 340.684,-157.588 330.652,-138.561 354,-121 355.84,-119.616 357.761,-118.311 359.744,-117.081"/>
<polygon fill="midnightblue" stroke="midnightblue" points="361.686,-120.009 368.791,-112.15 358.335,-113.863 361.686,-120.009"/>
</g>
<!-- Node12 -->
<g id="node12" class="node"><title>Node12</title>
<g id="a_node12"><a xlink:href="$v0_89_2mavlink__helpers_8h.html#aa66131138fc02101dcc73b4b556ab422" xlink:title="Finalize a MAVLink message with channel assignment. ">
<polygon fill="white" stroke="black" points="354,-43.5 354,-62.5 512,-62.5 512,-43.5 354,-43.5"/>
<text text-anchor="middle" x="433" y="-50.5" font-family="Helvetica,sans-Serif" font-size="10.00">mavlink_finalize_message_chan</text>
</a>
</g>
</g>
<!-- Node11&#45;&gt;Node12 -->
<g id="edge12" class="edge"><title>Node11&#45;&gt;Node12</title>
<path fill="none" stroke="midnightblue" d="M302.305,-136.957C307.895,-134.133 313.276,-130.834 318,-127 340.684,-108.588 330.139,-88.858 354,-72 356.732,-70.0698 359.637,-68.3346 362.659,-66.7746"/>
<polygon fill="midnightblue" stroke="midnightblue" points="364.311,-69.8702 372.019,-62.6013 361.461,-63.4769 364.311,-69.8702"/>
</g>
<!-- Node16 -->
<g id="node16" class="node"><title>Node16</title>
<g id="a_node16"><a xlink:href="$classAP__HAL_1_1Print.html#acc65391952a43334f8f5c9bef341f501" xlink:title="AP_HAL::Print::write">
<polygon fill="white" stroke="black" points="379,-0.5 379,-19.5 487,-19.5 487,-0.5 379,-0.5"/>
<text text-anchor="middle" x="433" y="-7.5" font-family="Helvetica,sans-Serif" font-size="10.00">AP_HAL::Print::write</text>
</a>
</g>
</g>
<!-- Node15&#45;&gt;Node16 -->
<g id="edge16" class="edge"><title>Node15&#45;&gt;Node16</title>
<path fill="none" stroke="midnightblue" d="M296.184,-10C317.863,-10 344.723,-10 368.819,-10"/>
<polygon fill="midnightblue" stroke="midnightblue" points="368.954,-13.5001 378.954,-10 368.954,-6.5001 368.954,-13.5001"/>
</g>
</g>
</svg>
