<?xml version="1.0" encoding="UTF-8" standalone="no"?>
<!DOCTYPE svg PUBLIC "-//W3C//DTD SVG 1.1//EN"
 "http://www.w3.org/Graphics/SVG/1.1/DTD/svg11.dtd">
<!-- Generated by graphviz version 2.36.0 (20140111.2315)
 -->
<!-- Title: mavlink_msg_sys_status_get_onboard_control_sensors_present Pages: 1 -->
<svg width="322pt" height="48pt"
 viewBox="0.00 0.00 322.00 48.00" xmlns="http://www.w3.org/2000/svg" xmlns:xlink="http://www.w3.org/1999/xlink">
<g id="graph0" class="graph" transform="scale(1 1) rotate(0) translate(4 44)">
<title>mavlink_msg_sys_status_get_onboard_control_sensors_present</title>
<polygon fill="white" stroke="none" points="-4,4 -4,-44 318,-44 318,4 -4,4"/>
<!-- Node1 -->
<g id="node1" class="node"><title>Node1</title>
<polygon fill="#bfbfbf" stroke="black" points="0.5,0.5 0.5,-40.5 149.5,-40.5 149.5,0.5 0.5,0.5"/>
<text text-anchor="start" x="8.5" y="-28.5" font-family="Helvetica,sans-Serif" font-size="10.00">mavlink_msg_sys_status</text>
<text text-anchor="start" x="8.5" y="-17.5" font-family="Helvetica,sans-Serif" font-size="10.00">_get_onboard_control_sensors</text>
<text text-anchor="middle" x="75" y="-6.5" font-family="Helvetica,sans-Serif" font-size="10.00">_present</text>
</g>
<!-- Node2 -->
<g id="node2" class="node"><title>Node2</title>
<g id="a_node2"><a xlink:href="$v1_80_2common_2mavlink__msg__sys__status_8h.html#a4be98a862e69632757cf7f0b9ce29983" xlink:title="Decode a sys_status message into a struct. ">
<polygon fill="white" stroke="black" points="186,-5 186,-35 314,-35 314,-5 186,-5"/>
<text text-anchor="start" x="194" y="-23" font-family="Helvetica,sans-Serif" font-size="10.00">mavlink_msg_sys_status</text>
<text text-anchor="middle" x="250" y="-12" font-family="Helvetica,sans-Serif" font-size="10.00">_decode</text>
</a>
</g>
</g>
<!-- Node1&#45;&gt;Node2 -->
<g id="edge1" class="edge"><title>Node1&#45;&gt;Node2</title>
<path fill="none" stroke="midnightblue" d="M159.843,-20C168.585,-20 177.364,-20 185.821,-20"/>
<polygon fill="midnightblue" stroke="midnightblue" points="159.618,-16.5001 149.618,-20 159.618,-23.5001 159.618,-16.5001"/>
</g>
</g>
</svg>
