<?xml version="1.0" encoding="UTF-8" standalone="no"?>
<!DOCTYPE svg PUBLIC "-//W3C//DTD SVG 1.1//EN"
 "http://www.w3.org/Graphics/SVG/1.1/DTD/svg11.dtd">
<!-- Generated by graphviz version 2.36.0 (20140111.2315)
 -->
<!-- Title: mavlink_msg_safety_allowed_area_get_p2x Pages: 1 -->
<svg width="280pt" height="38pt"
 viewBox="0.00 0.00 280.00 38.00" xmlns="http://www.w3.org/2000/svg" xmlns:xlink="http://www.w3.org/1999/xlink">
<g id="graph0" class="graph" transform="scale(1 1) rotate(0) translate(4 34)">
<title>mavlink_msg_safety_allowed_area_get_p2x</title>
<polygon fill="white" stroke="none" points="-4,4 -4,-34 276,-34 276,4 -4,4"/>
<!-- Node1 -->
<g id="node1" class="node"><title>Node1</title>
<polygon fill="#bfbfbf" stroke="black" points="0.5,-0 0.5,-30 119.5,-30 119.5,-0 0.5,-0"/>
<text text-anchor="start" x="8.5" y="-18" font-family="Helvetica,sans-Serif" font-size="10.00">mavlink_msg_safety</text>
<text text-anchor="middle" x="60" y="-7" font-family="Helvetica,sans-Serif" font-size="10.00">_allowed_area_get_p2x</text>
</g>
<!-- Node2 -->
<g id="node2" class="node"><title>Node2</title>
<g id="a_node2"><a xlink:href="$v1_80_2common_2mavlink__msg__safety__allowed__area_8h.html#a7298e6a3baeb029e3a99b499a3702a5d" xlink:title="Decode a safety_allowed_area message into a struct. ">
<polygon fill="white" stroke="black" points="156,-0 156,-30 272,-30 272,-0 156,-0"/>
<text text-anchor="start" x="164" y="-18" font-family="Helvetica,sans-Serif" font-size="10.00">mavlink_msg_safety</text>
<text text-anchor="middle" x="214" y="-7" font-family="Helvetica,sans-Serif" font-size="10.00">_allowed_area_decode</text>
</a>
</g>
</g>
<!-- Node1&#45;&gt;Node2 -->
<g id="edge1" class="edge"><title>Node1&#45;&gt;Node2</title>
<path fill="none" stroke="midnightblue" d="M129.889,-15C138.584,-15 147.404,-15 155.889,-15"/>
<polygon fill="midnightblue" stroke="midnightblue" points="129.767,-11.5001 119.767,-15 129.767,-18.5001 129.767,-11.5001"/>
</g>
</g>
</svg>
