<?xml version="1.0" encoding="UTF-8" standalone="no"?>
<!DOCTYPE svg PUBLIC "-//W3C//DTD SVG 1.1//EN"
 "http://www.w3.org/Graphics/SVG/1.1/DTD/svg11.dtd">
<!-- Generated by graphviz version 2.36.0 (20140111.2315)
 -->
<!-- Title: mavlink_msg_request_data_stream_decode Pages: 1 -->
<svg width="302pt" height="278pt"
 viewBox="0.00 0.00 302.00 278.00" xmlns="http://www.w3.org/2000/svg" xmlns:xlink="http://www.w3.org/1999/xlink">
<g id="graph0" class="graph" transform="scale(1 1) rotate(0) translate(4 274)">
<title>mavlink_msg_request_data_stream_decode</title>
<polygon fill="white" stroke="none" points="-4,4 -4,-274 298,-274 298,4 -4,4"/>
<!-- Node1 -->
<g id="node1" class="node"><title>Node1</title>
<polygon fill="#bfbfbf" stroke="black" points="0.5,-114 0.5,-144 113.5,-144 113.5,-114 0.5,-114"/>
<text text-anchor="start" x="8.5" y="-132" font-family="Helvetica,sans-Serif" font-size="10.00">mavlink_msg_request</text>
<text text-anchor="middle" x="57" y="-121" font-family="Helvetica,sans-Serif" font-size="10.00">_data_stream_decode</text>
</g>
<!-- Node2 -->
<g id="node2" class="node"><title>Node2</title>
<g id="a_node2"><a xlink:href="$v1_80_2common_2mavlink__msg__request__data__stream_8h.html#a978248fa5cf7bc1c087b7cbb568b697c" xlink:title="Get field req_message_rate from request_data_stream message. ">
<polygon fill="white" stroke="black" points="165.5,-228.5 165.5,-269.5 278.5,-269.5 278.5,-228.5 165.5,-228.5"/>
<text text-anchor="start" x="173.5" y="-257.5" font-family="Helvetica,sans-Serif" font-size="10.00">mavlink_msg_request</text>
<text text-anchor="start" x="173.5" y="-246.5" font-family="Helvetica,sans-Serif" font-size="10.00">_data_stream_get_req</text>
<text text-anchor="middle" x="222" y="-235.5" font-family="Helvetica,sans-Serif" font-size="10.00">_message_rate</text>
</a>
</g>
</g>
<!-- Node1&#45;&gt;Node2 -->
<g id="edge1" class="edge"><title>Node1&#45;&gt;Node2</title>
<path fill="none" stroke="midnightblue" d="M70.669,-144.252C87.2739,-163.48 118.059,-196.602 150,-218 152.881,-219.93 155.902,-221.786 159.005,-223.562"/>
<polygon fill="midnightblue" stroke="midnightblue" points="157.456,-226.703 167.921,-228.357 160.771,-220.538 157.456,-226.703"/>
</g>
<!-- Node3 -->
<g id="node3" class="node"><title>Node3</title>
<g id="a_node3"><a xlink:href="$v1_80_2common_2mavlink__msg__request__data__stream_8h.html#ab8d7d85386505484c7842677d67bf024" xlink:title="Send a request_data_stream message. ">
<polygon fill="white" stroke="black" points="159.5,-168.5 159.5,-209.5 284.5,-209.5 284.5,-168.5 159.5,-168.5"/>
<text text-anchor="start" x="167.5" y="-197.5" font-family="Helvetica,sans-Serif" font-size="10.00">mavlink_msg_request</text>
<text text-anchor="start" x="167.5" y="-186.5" font-family="Helvetica,sans-Serif" font-size="10.00">_data_stream_get_target</text>
<text text-anchor="middle" x="222" y="-175.5" font-family="Helvetica,sans-Serif" font-size="10.00">_system</text>
</a>
</g>
</g>
<!-- Node1&#45;&gt;Node3 -->
<g id="edge2" class="edge"><title>Node1&#45;&gt;Node3</title>
<path fill="none" stroke="midnightblue" d="M99.1318,-144.141C116.236,-150.437 136.514,-157.901 155.571,-164.916"/>
<polygon fill="midnightblue" stroke="midnightblue" points="154.511,-168.255 165.104,-168.425 156.929,-161.686 154.511,-168.255"/>
</g>
<!-- Node4 -->
<g id="node4" class="node"><title>Node4</title>
<g id="a_node4"><a xlink:href="$v1_80_2common_2mavlink__msg__request__data__stream_8h.html#a5bb35db644a769c6a6a872fff2659985" xlink:title="Get field target_component from request_data_stream message. ">
<polygon fill="white" stroke="black" points="159.5,-108.5 159.5,-149.5 284.5,-149.5 284.5,-108.5 159.5,-108.5"/>
<text text-anchor="start" x="167.5" y="-137.5" font-family="Helvetica,sans-Serif" font-size="10.00">mavlink_msg_request</text>
<text text-anchor="start" x="167.5" y="-126.5" font-family="Helvetica,sans-Serif" font-size="10.00">_data_stream_get_target</text>
<text text-anchor="middle" x="222" y="-115.5" font-family="Helvetica,sans-Serif" font-size="10.00">_component</text>
</a>
</g>
</g>
<!-- Node1&#45;&gt;Node4 -->
<g id="edge3" class="edge"><title>Node1&#45;&gt;Node4</title>
<path fill="none" stroke="midnightblue" d="M113.639,-129C125.052,-129 137.22,-129 149.111,-129"/>
<polygon fill="midnightblue" stroke="midnightblue" points="149.464,-132.5 159.464,-129 149.464,-125.5 149.464,-132.5"/>
</g>
<!-- Node5 -->
<g id="node5" class="node"><title>Node5</title>
<g id="a_node5"><a xlink:href="$v1_80_2common_2mavlink__msg__request__data__stream_8h.html#ad8082fdb8fb08553c3202db0c5328ad2" xlink:title="Get field req_stream_id from request_data_stream message. ">
<polygon fill="white" stroke="black" points="165.5,-48.5 165.5,-89.5 278.5,-89.5 278.5,-48.5 165.5,-48.5"/>
<text text-anchor="start" x="173.5" y="-77.5" font-family="Helvetica,sans-Serif" font-size="10.00">mavlink_msg_request</text>
<text text-anchor="start" x="173.5" y="-66.5" font-family="Helvetica,sans-Serif" font-size="10.00">_data_stream_get_req</text>
<text text-anchor="middle" x="222" y="-55.5" font-family="Helvetica,sans-Serif" font-size="10.00">_stream_id</text>
</a>
</g>
</g>
<!-- Node1&#45;&gt;Node5 -->
<g id="edge4" class="edge"><title>Node1&#45;&gt;Node5</title>
<path fill="none" stroke="midnightblue" d="M99.1318,-113.859C116.317,-107.534 136.705,-100.029 155.84,-92.9851"/>
<polygon fill="midnightblue" stroke="midnightblue" points="157.235,-96.2014 165.41,-89.4624 154.817,-89.6323 157.235,-96.2014"/>
</g>
<!-- Node6 -->
<g id="node6" class="node"><title>Node6</title>
<g id="a_node6"><a xlink:href="$v1_80_2common_2mavlink__msg__request__data__stream_8h.html#aad188d44d26186a8f766e29682dca819" xlink:title="Get field start_stop from request_data_stream message. ">
<polygon fill="white" stroke="black" points="150.5,-0 150.5,-30 293.5,-30 293.5,-0 150.5,-0"/>
<text text-anchor="start" x="158.5" y="-18" font-family="Helvetica,sans-Serif" font-size="10.00">mavlink_msg_request</text>
<text text-anchor="middle" x="222" y="-7" font-family="Helvetica,sans-Serif" font-size="10.00">_data_stream_get_start_stop</text>
</a>
</g>
</g>
<!-- Node1&#45;&gt;Node6 -->
<g id="edge5" class="edge"><title>Node1&#45;&gt;Node6</title>
<path fill="none" stroke="midnightblue" d="M69.792,-113.812C85.9158,-93.9945 116.669,-59.4444 150,-39 152.773,-37.2992 155.681,-35.7018 158.672,-34.2036"/>
<polygon fill="midnightblue" stroke="midnightblue" points="160.207,-37.3505 167.84,-30.0033 157.291,-30.9866 160.207,-37.3505"/>
</g>
</g>
</svg>
