<?xml version="1.0" encoding="UTF-8" standalone="no"?>
<!DOCTYPE svg PUBLIC "-//W3C//DTD SVG 1.1//EN"
 "http://www.w3.org/Graphics/SVG/1.1/DTD/svg11.dtd">
<!-- Generated by graphviz version 2.36.0 (20140111.2315)
 -->
<!-- Title: mavlink_msg_scaled_pressure_get_press_diff Pages: 1 -->
<svg width="278pt" height="38pt"
 viewBox="0.00 0.00 278.00 38.00" xmlns="http://www.w3.org/2000/svg" xmlns:xlink="http://www.w3.org/1999/xlink">
<g id="graph0" class="graph" transform="scale(1 1) rotate(0) translate(4 34)">
<title>mavlink_msg_scaled_pressure_get_press_diff</title>
<polygon fill="white" stroke="none" points="-4,4 -4,-34 274,-34 274,4 -4,4"/>
<!-- Node1 -->
<g id="node1" class="node"><title>Node1</title>
<polygon fill="#bfbfbf" stroke="black" points="0,-0 0,-30 126,-30 126,-0 0,-0"/>
<text text-anchor="start" x="8" y="-18" font-family="Helvetica,sans-Serif" font-size="10.00">mavlink_msg_scaled</text>
<text text-anchor="middle" x="63" y="-7" font-family="Helvetica,sans-Serif" font-size="10.00">_pressure_get_press_diff</text>
</g>
<!-- Node2 -->
<g id="node2" class="node"><title>Node2</title>
<g id="a_node2"><a xlink:href="$v1_80_2common_2mavlink__msg__scaled__pressure_8h.html#ac429343d80a03ce6d721f8525c6d1aad" xlink:title="Decode a scaled_pressure message into a struct. ">
<polygon fill="white" stroke="black" points="162,-0 162,-30 270,-30 270,-0 162,-0"/>
<text text-anchor="start" x="170" y="-18" font-family="Helvetica,sans-Serif" font-size="10.00">mavlink_msg_scaled</text>
<text text-anchor="middle" x="216" y="-7" font-family="Helvetica,sans-Serif" font-size="10.00">_pressure_decode</text>
</a>
</g>
</g>
<!-- Node1&#45;&gt;Node2 -->
<g id="edge1" class="edge"><title>Node1&#45;&gt;Node2</title>
<path fill="none" stroke="midnightblue" d="M136.376,-15C145.014,-15 153.705,-15 161.999,-15"/>
<polygon fill="midnightblue" stroke="midnightblue" points="136.289,-11.5001 126.289,-15 136.289,-18.5001 136.289,-11.5001"/>
</g>
</g>
</svg>
