<?xml version="1.0" encoding="UTF-8" standalone="no"?>
<!DOCTYPE svg PUBLIC "-//W3C//DTD SVG 1.1//EN"
 "http://www.w3.org/Graphics/SVG/1.1/DTD/svg11.dtd">
<!-- Generated by graphviz version 2.36.0 (20140111.2315)
 -->
<!-- Title: mavlink_test_gopro_set_response Pages: 1 -->
<svg width="630pt" height="312pt"
 viewBox="0.00 0.00 630.00 312.00" xmlns="http://www.w3.org/2000/svg" xmlns:xlink="http://www.w3.org/1999/xlink">
<g id="graph0" class="graph" transform="scale(1 1) rotate(0) translate(4 308)">
<title>mavlink_test_gopro_set_response</title>
<polygon fill="white" stroke="none" points="-4,4 -4,-308 626,-308 626,4 -4,4"/>
<!-- Node1 -->
<g id="node1" class="node"><title>Node1</title>
<polygon fill="#bfbfbf" stroke="black" points="0.5,-137 0.5,-167 101.5,-167 101.5,-137 0.5,-137"/>
<text text-anchor="start" x="8.5" y="-155" font-family="Helvetica,sans-Serif" font-size="10.00">mavlink_test_gopro</text>
<text text-anchor="middle" x="51" y="-144" font-family="Helvetica,sans-Serif" font-size="10.00">_set_response</text>
</g>
<!-- Node2 -->
<g id="node2" class="node"><title>Node2</title>
<g id="a_node2"><a xlink:href="$mavlink__msg__gopro__set__response_8h.html#a08b91045ad4a46a20ec39bb05815985a" xlink:title="Encode a gopro_set_response struct. ">
<polygon fill="white" stroke="black" points="138,-274 138,-304 260,-304 260,-274 138,-274"/>
<text text-anchor="start" x="146" y="-292" font-family="Helvetica,sans-Serif" font-size="10.00">mavlink_msg_gopro_set</text>
<text text-anchor="middle" x="199" y="-281" font-family="Helvetica,sans-Serif" font-size="10.00">_response_encode</text>
</a>
</g>
</g>
<!-- Node1&#45;&gt;Node2 -->
<g id="edge1" class="edge"><title>Node1&#45;&gt;Node2</title>
<path fill="none" stroke="midnightblue" d="M61.1734,-167.197C75.335,-189.643 104.423,-231.919 138,-259 142.53,-262.653 147.577,-266.024 152.767,-269.082"/>
<polygon fill="midnightblue" stroke="midnightblue" points="151.123,-272.172 161.571,-273.929 154.5,-266.04 151.123,-272.172"/>
</g>
<!-- Node3 -->
<g id="node3" class="node"><title>Node3</title>
<g id="a_node3"><a xlink:href="$mavlink__msg__gopro__set__response_8h.html#a1386ba90c30dec7b13fe403279344b3a" xlink:title="Pack a gopro_set_response message. ">
<polygon fill="white" stroke="black" points="314,-274 314,-304 436,-304 436,-274 314,-274"/>
<text text-anchor="start" x="322" y="-292" font-family="Helvetica,sans-Serif" font-size="10.00">mavlink_msg_gopro_set</text>
<text text-anchor="middle" x="375" y="-281" font-family="Helvetica,sans-Serif" font-size="10.00">_response_pack</text>
</a>
</g>
</g>
<!-- Node1&#45;&gt;Node3 -->
<g id="edge7" class="edge"><title>Node1&#45;&gt;Node3</title>
<path fill="none" stroke="midnightblue" d="M65.7462,-167.111C81.6099,-183.663 109.229,-209.863 138,-225 166.723,-240.111 245.327,-260.003 303.978,-273.574"/>
<polygon fill="midnightblue" stroke="midnightblue" points="303.414,-277.035 313.944,-275.863 304.981,-270.213 303.414,-277.035"/>
</g>
<!-- Node5 -->
<g id="node5" class="node"><title>Node5</title>
<g id="a_node5"><a xlink:href="$mavlink__msg__gopro__set__response_8h.html#adf55d1237b677113f69fe2b82c7d0f25" xlink:title="Decode a gopro_set_response message into a struct. ">
<polygon fill="white" stroke="black" points="138,-186 138,-216 260,-216 260,-186 138,-186"/>
<text text-anchor="start" x="146" y="-204" font-family="Helvetica,sans-Serif" font-size="10.00">mavlink_msg_gopro_set</text>
<text text-anchor="middle" x="199" y="-193" font-family="Helvetica,sans-Serif" font-size="10.00">_response_decode</text>
</a>
</g>
</g>
<!-- Node1&#45;&gt;Node5 -->
<g id="edge4" class="edge"><title>Node1&#45;&gt;Node5</title>
<path fill="none" stroke="midnightblue" d="M96.9961,-167.101C111.636,-172.015 128.046,-177.522 143.314,-182.647"/>
<polygon fill="midnightblue" stroke="midnightblue" points="142.558,-186.085 153.152,-185.948 144.786,-179.448 142.558,-186.085"/>
</g>
<!-- Node8 -->
<g id="node8" class="node"><title>Node8</title>
<g id="a_node8"><a xlink:href="$mavlink__msg__gopro__set__response_8h.html#a0fd0209b1dacf0eedfafb4f8a1bc8890" xlink:title="Pack a gopro_set_response message on a channel. ">
<polygon fill="white" stroke="black" points="138,-137 138,-167 260,-167 260,-137 138,-137"/>
<text text-anchor="start" x="146" y="-155" font-family="Helvetica,sans-Serif" font-size="10.00">mavlink_msg_gopro_set</text>
<text text-anchor="middle" x="199" y="-144" font-family="Helvetica,sans-Serif" font-size="10.00">_response_pack_chan</text>
</a>
</g>
</g>
<!-- Node1&#45;&gt;Node8 -->
<g id="edge8" class="edge"><title>Node1&#45;&gt;Node8</title>
<path fill="none" stroke="midnightblue" d="M101.837,-152C110.149,-152 118.908,-152 127.618,-152"/>
<polygon fill="midnightblue" stroke="midnightblue" points="127.79,-155.5 137.79,-152 127.79,-148.5 127.79,-155.5"/>
</g>
<!-- Node10 -->
<g id="node10" class="node"><title>Node10</title>
<g id="a_node10"><a xlink:href="$v0_89_2mavlink__helpers_8h.html#afea0a9befa84822fd62c2899ea0d849e" xlink:title="Pack a message to send it over a serial byte stream. ">
<polygon fill="white" stroke="black" points="142,-88 142,-118 256,-118 256,-88 142,-88"/>
<text text-anchor="start" x="150" y="-106" font-family="Helvetica,sans-Serif" font-size="10.00">mavlink_msg_to_send</text>
<text text-anchor="middle" x="199" y="-95" font-family="Helvetica,sans-Serif" font-size="10.00">_buffer</text>
</a>
</g>
</g>
<!-- Node1&#45;&gt;Node10 -->
<g id="edge10" class="edge"><title>Node1&#45;&gt;Node10</title>
<path fill="none" stroke="midnightblue" d="M96.9961,-136.899C111.636,-131.985 128.046,-126.478 143.314,-121.353"/>
<polygon fill="midnightblue" stroke="midnightblue" points="144.786,-124.552 153.152,-118.052 142.558,-117.915 144.786,-124.552"/>
</g>
<!-- Node11 -->
<g id="node11" class="node"><title>Node11</title>
<g id="a_node11"><a xlink:href="$v0_89_2protocol_8h.html#aa86c08f27aabb7a2e12a67f189f590c8" xlink:title="Get the required buffer size for this message. ">
<polygon fill="white" stroke="black" points="139.5,-39 139.5,-69 258.5,-69 258.5,-39 139.5,-39"/>
<text text-anchor="start" x="147.5" y="-57" font-family="Helvetica,sans-Serif" font-size="10.00">mavlink_msg_get_send</text>
<text text-anchor="middle" x="199" y="-46" font-family="Helvetica,sans-Serif" font-size="10.00">_buffer_length</text>
</a>
</g>
</g>
<!-- Node1&#45;&gt;Node11 -->
<g id="edge11" class="edge"><title>Node1&#45;&gt;Node11</title>
<path fill="none" stroke="midnightblue" d="M66.343,-136.989C82.5219,-120.73 110.217,-94.8631 138,-78 140.601,-76.421 143.325,-74.9072 146.116,-73.4624"/>
<polygon fill="midnightblue" stroke="midnightblue" points="147.703,-76.5831 155.191,-69.0881 144.664,-70.2773 147.703,-76.5831"/>
</g>
<!-- Node12 -->
<g id="node12" class="node"><title>Node12</title>
<g id="a_node12"><a xlink:href="$GCS__MAVLink_8h.html#ab753873a1ee10adedd0ce246311468f8" xlink:title="comm_send_ch">
<polygon fill="white" stroke="black" points="156,-0.5 156,-19.5 242,-19.5 242,-0.5 156,-0.5"/>
<text text-anchor="middle" x="199" y="-7.5" font-family="Helvetica,sans-Serif" font-size="10.00">comm_send_ch</text>
</a>
</g>
</g>
<!-- Node1&#45;&gt;Node12 -->
<g id="edge12" class="edge"><title>Node1&#45;&gt;Node12</title>
<path fill="none" stroke="midnightblue" d="M58.6241,-136.714C70.6479,-110.743 98.5238,-58.0037 138,-29 140.686,-27.0268 143.583,-25.2541 146.604,-23.6621"/>
<polygon fill="midnightblue" stroke="midnightblue" points="148.295,-26.7377 155.946,-19.4086 145.395,-20.3669 148.295,-26.7377"/>
</g>
<!-- Node2&#45;&gt;Node3 -->
<g id="edge2" class="edge"><title>Node2&#45;&gt;Node3</title>
<path fill="none" stroke="midnightblue" d="M260.368,-289C274.27,-289 289.175,-289 303.465,-289"/>
<polygon fill="midnightblue" stroke="midnightblue" points="303.738,-292.5 313.738,-289 303.738,-285.5 303.738,-292.5"/>
</g>
<!-- Node4 -->
<g id="node4" class="node"><title>Node4</title>
<g id="a_node4"><a xlink:href="$v0_89_2mavlink__helpers_8h.html#af3bea083c5ec83f5b6570b2bd4a817d0" xlink:title="Finalize a MAVLink message with MAVLINK_COMM_0 as default channel. ">
<polygon fill="white" stroke="black" points="490.5,-279.5 490.5,-298.5 621.5,-298.5 621.5,-279.5 490.5,-279.5"/>
<text text-anchor="middle" x="556" y="-286.5" font-family="Helvetica,sans-Serif" font-size="10.00">mavlink_finalize_message</text>
</a>
</g>
</g>
<!-- Node3&#45;&gt;Node4 -->
<g id="edge3" class="edge"><title>Node3&#45;&gt;Node4</title>
<path fill="none" stroke="midnightblue" d="M436.102,-289C450.296,-289 465.6,-289 480.349,-289"/>
<polygon fill="midnightblue" stroke="midnightblue" points="480.452,-292.5 490.452,-289 480.452,-285.5 480.452,-292.5"/>
</g>
<!-- Node6 -->
<g id="node6" class="node"><title>Node6</title>
<g id="a_node6"><a xlink:href="$mavlink__msg__gopro__set__response_8h.html#a3b3dbcf404f3f24261670da91d92a56b" xlink:title="Send a gopro_set_response message. ">
<polygon fill="white" stroke="black" points="314,-225 314,-255 436,-255 436,-225 314,-225"/>
<text text-anchor="start" x="322" y="-243" font-family="Helvetica,sans-Serif" font-size="10.00">mavlink_msg_gopro_set</text>
<text text-anchor="middle" x="375" y="-232" font-family="Helvetica,sans-Serif" font-size="10.00">_response_get_cmd_id</text>
</a>
</g>
</g>
<!-- Node5&#45;&gt;Node6 -->
<g id="edge5" class="edge"><title>Node5&#45;&gt;Node6</title>
<path fill="none" stroke="midnightblue" d="M260.368,-214.531C274.405,-217.677 289.464,-221.052 303.881,-224.284"/>
<polygon fill="midnightblue" stroke="midnightblue" points="303.215,-227.721 313.738,-226.493 304.746,-220.891 303.215,-227.721"/>
</g>
<!-- Node7 -->
<g id="node7" class="node"><title>Node7</title>
<g id="a_node7"><a xlink:href="$mavlink__msg__gopro__set__response_8h.html#a9468090249536c756c68b07c58417bcc" xlink:title="Get field result from gopro_set_response message. ">
<polygon fill="white" stroke="black" points="314,-176 314,-206 436,-206 436,-176 314,-176"/>
<text text-anchor="start" x="322" y="-194" font-family="Helvetica,sans-Serif" font-size="10.00">mavlink_msg_gopro_set</text>
<text text-anchor="middle" x="375" y="-183" font-family="Helvetica,sans-Serif" font-size="10.00">_response_get_result</text>
</a>
</g>
</g>
<!-- Node5&#45;&gt;Node7 -->
<g id="edge6" class="edge"><title>Node5&#45;&gt;Node7</title>
<path fill="none" stroke="midnightblue" d="M260.368,-197.531C274.27,-196.732 289.175,-195.875 303.465,-195.054"/>
<polygon fill="midnightblue" stroke="midnightblue" points="303.956,-198.531 313.738,-194.463 303.554,-191.543 303.956,-198.531"/>
</g>
<!-- Node9 -->
<g id="node9" class="node"><title>Node9</title>
<g id="a_node9"><a xlink:href="$v0_89_2mavlink__helpers_8h.html#aa66131138fc02101dcc73b4b556ab422" xlink:title="Finalize a MAVLink message with channel assignment. ">
<polygon fill="white" stroke="black" points="296,-137.5 296,-156.5 454,-156.5 454,-137.5 296,-137.5"/>
<text text-anchor="middle" x="375" y="-144.5" font-family="Helvetica,sans-Serif" font-size="10.00">mavlink_finalize_message_chan</text>
</a>
</g>
</g>
<!-- Node8&#45;&gt;Node9 -->
<g id="edge9" class="edge"><title>Node8&#45;&gt;Node9</title>
<path fill="none" stroke="midnightblue" d="M260.368,-150.265C268.623,-150.028 277.231,-149.781 285.854,-149.533"/>
<polygon fill="midnightblue" stroke="midnightblue" points="286.068,-153.028 295.963,-149.242 285.867,-146.031 286.068,-153.028"/>
</g>
<!-- Node13 -->
<g id="node13" class="node"><title>Node13</title>
<g id="a_node13"><a xlink:href="$classAP__HAL_1_1Print.html#acc65391952a43334f8f5c9bef341f501" xlink:title="AP_HAL::Print::write">
<polygon fill="white" stroke="black" points="321,-0.5 321,-19.5 429,-19.5 429,-0.5 321,-0.5"/>
<text text-anchor="middle" x="375" y="-7.5" font-family="Helvetica,sans-Serif" font-size="10.00">AP_HAL::Print::write</text>
</a>
</g>
</g>
<!-- Node12&#45;&gt;Node13 -->
<g id="edge13" class="edge"><title>Node12&#45;&gt;Node13</title>
<path fill="none" stroke="midnightblue" d="M242.121,-10C262.617,-10 287.69,-10 310.45,-10"/>
<polygon fill="midnightblue" stroke="midnightblue" points="310.719,-13.5001 320.719,-10 310.719,-6.5001 310.719,-13.5001"/>
</g>
</g>
</svg>
