<?xml version="1.0" encoding="UTF-8" standalone="no"?>
<!DOCTYPE svg PUBLIC "-//W3C//DTD SVG 1.1//EN"
 "http://www.w3.org/Graphics/SVG/1.1/DTD/svg11.dtd">
<!-- Generated by graphviz version 2.36.0 (20140111.2315)
 -->
<!-- Title: libraries/GCS_MAVLink/include/mavlink/v1.0/protocol.h Pages: 1 -->
<svg width="384pt" height="218pt"
 viewBox="0.00 0.00 384.00 218.00" xmlns="http://www.w3.org/2000/svg" xmlns:xlink="http://www.w3.org/1999/xlink">
<g id="graph0" class="graph" transform="scale(1 1) rotate(0) translate(4 214)">
<title>libraries/GCS_MAVLink/include/mavlink/v1.0/protocol.h</title>
<polygon fill="white" stroke="none" points="-4,4 -4,-214 380,-214 380,4 -4,4"/>
<!-- Node1 -->
<g id="node1" class="node"><title>Node1</title>
<polygon fill="#bfbfbf" stroke="black" points="38,-168.5 38,-209.5 158,-209.5 158,-168.5 38,-168.5"/>
<text text-anchor="start" x="46" y="-197.5" font-family="Helvetica,sans-Serif" font-size="10.00">libraries/GCS_MAVLink</text>
<text text-anchor="start" x="46" y="-186.5" font-family="Helvetica,sans-Serif" font-size="10.00">/include/mavlink/v1.0</text>
<text text-anchor="middle" x="98" y="-175.5" font-family="Helvetica,sans-Serif" font-size="10.00">/protocol.h</text>
</g>
<!-- Node2 -->
<g id="node2" class="node"><title>Node2</title>
<polygon fill="white" stroke="#bfbfbf" points="-0.5,-56.5 -0.5,-75.5 48.5,-75.5 48.5,-56.5 -0.5,-56.5"/>
<text text-anchor="middle" x="24" y="-63.5" font-family="Helvetica,sans-Serif" font-size="10.00">string.h</text>
</g>
<!-- Node1&#45;&gt;Node2 -->
<g id="edge1" class="edge"><title>Node1&#45;&gt;Node2</title>
<path fill="none" stroke="midnightblue" d="M85.9459,-168.29C71.6758,-144.956 48.139,-106.471 34.5573,-84.2627"/>
<polygon fill="midnightblue" stroke="midnightblue" points="37.4474,-82.2798 29.2441,-75.5748 31.4756,-85.932 37.4474,-82.2798"/>
</g>
<!-- Node3 -->
<g id="node3" class="node"><title>Node3</title>
<g id="a_node3"><a xlink:href="$v1_80_2mavlink__types_8h.html" xlink:title="mavlink_types.h">
<polygon fill="white" stroke="black" points="66,-56.5 66,-75.5 154,-75.5 154,-56.5 66,-56.5"/>
<text text-anchor="middle" x="110" y="-63.5" font-family="Helvetica,sans-Serif" font-size="10.00">mavlink_types.h</text>
</a>
</g>
</g>
<!-- Node1&#45;&gt;Node3 -->
<g id="edge2" class="edge"><title>Node1&#45;&gt;Node3</title>
<path fill="none" stroke="midnightblue" d="M99.9547,-168.29C102.217,-145.48 105.915,-108.189 108.137,-85.7807"/>
<polygon fill="midnightblue" stroke="midnightblue" points="111.646,-85.8714 109.15,-75.5748 104.68,-85.1805 111.646,-85.8714"/>
</g>
<!-- Node5 -->
<g id="node5" class="node"><title>Node5</title>
<g id="a_node5"><a xlink:href="$v1_80_2mavlink__helpers_8h.html" xlink:title="mavlink_helpers.h">
<polygon fill="white" stroke="black" points="126.5,-112.5 126.5,-131.5 221.5,-131.5 221.5,-112.5 126.5,-112.5"/>
<text text-anchor="middle" x="174" y="-119.5" font-family="Helvetica,sans-Serif" font-size="10.00">mavlink_helpers.h</text>
</a>
</g>
</g>
<!-- Node1&#45;&gt;Node5 -->
<g id="edge4" class="edge"><title>Node1&#45;&gt;Node5</title>
<path fill="none" stroke="midnightblue" d="M120.803,-168.498C132.119,-158.82 145.587,-147.3 156.141,-138.274"/>
<polygon fill="midnightblue" stroke="midnightblue" points="158.558,-140.812 163.883,-131.652 154.009,-135.492 158.558,-140.812"/>
</g>
<!-- Node4 -->
<g id="node4" class="node"><title>Node4</title>
<polygon fill="white" stroke="#bfbfbf" points="133.5,-0.5 133.5,-19.5 182.5,-19.5 182.5,-0.5 133.5,-0.5"/>
<text text-anchor="middle" x="158" y="-7.5" font-family="Helvetica,sans-Serif" font-size="10.00">stdint.h</text>
</g>
<!-- Node3&#45;&gt;Node4 -->
<g id="edge3" class="edge"><title>Node3&#45;&gt;Node4</title>
<path fill="none" stroke="midnightblue" d="M117.926,-56.083C124.846,-48.2982 135.065,-36.8015 143.452,-27.3665"/>
<polygon fill="midnightblue" stroke="midnightblue" points="146.194,-29.5505 150.221,-19.7511 140.962,-24.8999 146.194,-29.5505"/>
</g>
<!-- Node5&#45;&gt;Node2 -->
<g id="edge5" class="edge"><title>Node5&#45;&gt;Node2</title>
<path fill="none" stroke="midnightblue" d="M150.232,-112.444C125.107,-103.399 85.289,-89.064 57.0996,-78.9158"/>
<polygon fill="midnightblue" stroke="midnightblue" points="58.2512,-75.6106 47.6567,-75.5164 55.8801,-82.1968 58.2512,-75.6106"/>
</g>
<!-- Node5&#45;&gt;Node3 -->
<g id="edge8" class="edge"><title>Node5&#45;&gt;Node3</title>
<path fill="none" stroke="midnightblue" d="M163.717,-112.324C154.164,-104.263 139.72,-92.0765 128.216,-82.3695"/>
<polygon fill="midnightblue" stroke="midnightblue" points="130.37,-79.6076 120.47,-75.8339 125.856,-84.9577 130.37,-79.6076"/>
</g>
<!-- Node6 -->
<g id="node6" class="node"><title>Node6</title>
<g id="a_node6"><a xlink:href="$v1_80_2checksum_8h.html" xlink:title="checksum.h">
<polygon fill="white" stroke="black" points="172,-56.5 172,-75.5 242,-75.5 242,-56.5 172,-56.5"/>
<text text-anchor="middle" x="207" y="-63.5" font-family="Helvetica,sans-Serif" font-size="10.00">checksum.h</text>
</a>
</g>
</g>
<!-- Node5&#45;&gt;Node6 -->
<g id="edge6" class="edge"><title>Node5&#45;&gt;Node6</title>
<path fill="none" stroke="midnightblue" d="M179.449,-112.083C184.014,-104.613 190.668,-93.7244 196.293,-84.5199"/>
<polygon fill="midnightblue" stroke="midnightblue" points="199.424,-86.109 201.652,-75.7511 193.451,-82.4588 199.424,-86.109"/>
</g>
<!-- Node7 -->
<g id="node7" class="node"><title>Node7</title>
<g id="a_node7"><a xlink:href="$mavlink__conversions_8h.html" xlink:title="mavlink_conversions.h">
<polygon fill="white" stroke="black" points="260,-56.5 260,-75.5 376,-75.5 376,-56.5 260,-56.5"/>
<text text-anchor="middle" x="318" y="-63.5" font-family="Helvetica,sans-Serif" font-size="10.00">mavlink_conversions.h</text>
</a>
</g>
</g>
<!-- Node5&#45;&gt;Node7 -->
<g id="edge9" class="edge"><title>Node5&#45;&gt;Node7</title>
<path fill="none" stroke="midnightblue" d="M196.817,-112.444C220.832,-103.438 258.829,-89.1891 285.869,-79.049"/>
<polygon fill="midnightblue" stroke="midnightblue" points="287.155,-82.3049 295.29,-75.5164 284.697,-75.7506 287.155,-82.3049"/>
</g>
<!-- Node6&#45;&gt;Node4 -->
<g id="edge7" class="edge"><title>Node6&#45;&gt;Node4</title>
<path fill="none" stroke="midnightblue" d="M198.909,-56.083C191.845,-48.2982 181.412,-36.8015 172.851,-27.3665"/>
<polygon fill="midnightblue" stroke="midnightblue" points="175.253,-24.8047 165.941,-19.7511 170.069,-29.5087 175.253,-24.8047"/>
</g>
<!-- Node8 -->
<g id="node8" class="node"><title>Node8</title>
<polygon fill="white" stroke="#bfbfbf" points="294.5,-0.5 294.5,-19.5 341.5,-19.5 341.5,-0.5 294.5,-0.5"/>
<text text-anchor="middle" x="318" y="-7.5" font-family="Helvetica,sans-Serif" font-size="10.00">math.h</text>
</g>
<!-- Node7&#45;&gt;Node8 -->
<g id="edge10" class="edge"><title>Node7&#45;&gt;Node8</title>
<path fill="none" stroke="midnightblue" d="M318,-56.083C318,-49.0059 318,-38.8611 318,-29.9865"/>
<polygon fill="midnightblue" stroke="midnightblue" points="321.5,-29.751 318,-19.7511 314.5,-29.7511 321.5,-29.751"/>
</g>
</g>
</svg>
