<?xml version="1.0" encoding="UTF-8" standalone="no"?>
<!DOCTYPE svg PUBLIC "-//W3C//DTD SVG 1.1//EN"
 "http://www.w3.org/Graphics/SVG/1.1/DTD/svg11.dtd">
<!-- Generated by graphviz version 2.36.0 (20140111.2315)
 -->
<!-- Title: mavlink_test_led_control Pages: 1 -->
<svg width="824pt" height="522pt"
 viewBox="0.00 0.00 824.00 521.88" xmlns="http://www.w3.org/2000/svg" xmlns:xlink="http://www.w3.org/1999/xlink">
<g id="graph0" class="graph" transform="scale(1 1) rotate(0) translate(4 517.884)">
<title>mavlink_test_led_control</title>
<polygon fill="white" stroke="none" points="-4,4 -4,-517.884 820,-517.884 820,4 -4,4"/>
<!-- Node1 -->
<g id="node1" class="node"><title>Node1</title>
<polygon fill="#bfbfbf" stroke="black" points="0.5,-183.5 0.5,-202.5 125.5,-202.5 125.5,-183.5 0.5,-183.5"/>
<text text-anchor="middle" x="63" y="-190.5" font-family="Helvetica,sans-Serif" font-size="10.00">mavlink_test_led_control</text>
</g>
<!-- Node2 -->
<g id="node2" class="node"><title>Node2</title>
<g id="a_node2"><a xlink:href="$v0_89_2protocol_8h.html#a4486c3d5854cac1cb6a0fb1cc5ba570c" xlink:title="mav_array_memcpy">
<polygon fill="white" stroke="black" points="710.5,-413.5 710.5,-432.5 815.5,-432.5 815.5,-413.5 710.5,-413.5"/>
<text text-anchor="middle" x="763" y="-420.5" font-family="Helvetica,sans-Serif" font-size="10.00">mav_array_memcpy</text>
</a>
</g>
</g>
<!-- Node1&#45;&gt;Node2 -->
<g id="edge1" class="edge"><title>Node1&#45;&gt;Node2</title>
<path fill="none" stroke="midnightblue" d="M96.3151,-183.498C165.086,-163.293 320.168,-117.829 326,-117 393.764,-107.37 413.419,-101.138 480,-117 573.969,-139.387 608.039,-144.428 674,-215 726.505,-271.175 750.208,-363.341 758.425,-403.394"/>
<polygon fill="midnightblue" stroke="midnightblue" points="755.035,-404.296 760.381,-413.443 761.906,-402.958 755.035,-404.296"/>
</g>
<!-- Node3 -->
<g id="node3" class="node"><title>Node3</title>
<g id="a_node3"><a xlink:href="$mavlink__msg__led__control_8h.html#ac291dfb9e782b4c00955900648494eef" xlink:title="Encode a led_control struct. ">
<polygon fill="white" stroke="black" points="162.5,-450 162.5,-480 289.5,-480 289.5,-450 162.5,-450"/>
<text text-anchor="start" x="170.5" y="-468" font-family="Helvetica,sans-Serif" font-size="10.00">mavlink_msg_led_control</text>
<text text-anchor="middle" x="226" y="-457" font-family="Helvetica,sans-Serif" font-size="10.00">_encode</text>
</a>
</g>
</g>
<!-- Node1&#45;&gt;Node3 -->
<g id="edge2" class="edge"><title>Node1&#45;&gt;Node3</title>
<path fill="none" stroke="midnightblue" d="M66.1253,-202.675C73.8656,-236.135 103.226,-348.844 162,-421 169.225,-429.87 178.678,-437.734 188.056,-444.272"/>
<polygon fill="midnightblue" stroke="midnightblue" points="186.307,-447.31 196.582,-449.893 190.16,-441.466 186.307,-447.31"/>
</g>
<!-- Node4 -->
<g id="node4" class="node"><title>Node4</title>
<g id="a_node4"><a xlink:href="$mavlink__msg__led__control_8h.html#add2a31c92e0606aa35a1444241a5bfb8" xlink:title="Pack a led_control message. ">
<polygon fill="white" stroke="black" points="326.5,-470.5 326.5,-489.5 479.5,-489.5 479.5,-470.5 326.5,-470.5"/>
<text text-anchor="middle" x="403" y="-477.5" font-family="Helvetica,sans-Serif" font-size="10.00">mavlink_msg_led_control_pack</text>
</a>
</g>
</g>
<!-- Node1&#45;&gt;Node4 -->
<g id="edge16" class="edge"><title>Node1&#45;&gt;Node4</title>
<path fill="none" stroke="midnightblue" d="M68.0636,-202.641C79.5967,-229.154 114.779,-304.412 162,-353 177.164,-368.603 306.113,-451.174 326,-460 332.368,-462.826 339.219,-465.321 346.107,-467.503"/>
<polygon fill="midnightblue" stroke="midnightblue" points="345.592,-471.001 356.174,-470.48 347.578,-464.288 345.592,-471.001"/>
</g>
<!-- Node7 -->
<g id="node7" class="node"><title>Node7</title>
<g id="a_node7"><a xlink:href="$mavlink__msg__led__control_8h.html#ace6f762506b5dc5f5da219abe4577399" xlink:title="Decode a led_control message into a struct. ">
<polygon fill="white" stroke="black" points="162.5,-225 162.5,-255 289.5,-255 289.5,-225 162.5,-225"/>
<text text-anchor="start" x="170.5" y="-243" font-family="Helvetica,sans-Serif" font-size="10.00">mavlink_msg_led_control</text>
<text text-anchor="middle" x="226" y="-232" font-family="Helvetica,sans-Serif" font-size="10.00">_decode</text>
</a>
</g>
</g>
<!-- Node1&#45;&gt;Node7 -->
<g id="edge8" class="edge"><title>Node1&#45;&gt;Node7</title>
<path fill="none" stroke="midnightblue" d="M96.5808,-202.511C115.876,-208.144 140.947,-215.463 163.81,-222.137"/>
<polygon fill="midnightblue" stroke="midnightblue" points="162.87,-225.509 173.45,-224.951 164.831,-218.789 162.87,-225.509"/>
</g>
<!-- Node15 -->
<g id="node15" class="node"><title>Node15</title>
<g id="a_node15"><a xlink:href="$mavlink__msg__led__control_8h.html#a02615c9c14b720d438887483f88ff349" xlink:title="Pack a led_control message on a channel. ">
<polygon fill="white" stroke="black" points="339.5,-421 339.5,-451 466.5,-451 466.5,-421 339.5,-421"/>
<text text-anchor="start" x="347.5" y="-439" font-family="Helvetica,sans-Serif" font-size="10.00">mavlink_msg_led_control</text>
<text text-anchor="middle" x="403" y="-428" font-family="Helvetica,sans-Serif" font-size="10.00">_pack_chan</text>
</a>
</g>
</g>
<!-- Node1&#45;&gt;Node15 -->
<g id="edge17" class="edge"><title>Node1&#45;&gt;Node15</title>
<path fill="none" stroke="midnightblue" d="M73.0018,-202.767C104.54,-236.448 214.197,-349.063 326,-411 329.934,-413.179 334.088,-415.207 338.344,-417.087"/>
<polygon fill="midnightblue" stroke="midnightblue" points="337.198,-420.4 347.778,-420.967 339.861,-413.926 337.198,-420.4"/>
</g>
<!-- Node17 -->
<g id="node17" class="node"><title>Node17</title>
<g id="a_node17"><a xlink:href="$v0_89_2mavlink__helpers_8h.html#afea0a9befa84822fd62c2899ea0d849e" xlink:title="Pack a message to send it over a serial byte stream. ">
<polygon fill="white" stroke="black" points="169,-88 169,-118 283,-118 283,-88 169,-88"/>
<text text-anchor="start" x="177" y="-106" font-family="Helvetica,sans-Serif" font-size="10.00">mavlink_msg_to_send</text>
<text text-anchor="middle" x="226" y="-95" font-family="Helvetica,sans-Serif" font-size="10.00">_buffer</text>
</a>
</g>
</g>
<!-- Node1&#45;&gt;Node17 -->
<g id="edge21" class="edge"><title>Node1&#45;&gt;Node17</title>
<path fill="none" stroke="midnightblue" d="M78.6573,-183.357C97.5725,-171.069 131.661,-149.452 162,-133 168.516,-129.466 175.516,-125.908 182.397,-122.539"/>
<polygon fill="midnightblue" stroke="midnightblue" points="184.159,-125.575 191.649,-118.082 181.121,-119.269 184.159,-125.575"/>
</g>
<!-- Node18 -->
<g id="node18" class="node"><title>Node18</title>
<g id="a_node18"><a xlink:href="$v0_89_2protocol_8h.html#aa86c08f27aabb7a2e12a67f189f590c8" xlink:title="Get the required buffer size for this message. ">
<polygon fill="white" stroke="black" points="166.5,-39 166.5,-69 285.5,-69 285.5,-39 166.5,-39"/>
<text text-anchor="start" x="174.5" y="-57" font-family="Helvetica,sans-Serif" font-size="10.00">mavlink_msg_get_send</text>
<text text-anchor="middle" x="226" y="-46" font-family="Helvetica,sans-Serif" font-size="10.00">_buffer_length</text>
</a>
</g>
</g>
<!-- Node1&#45;&gt;Node18 -->
<g id="edge22" class="edge"><title>Node1&#45;&gt;Node18</title>
<path fill="none" stroke="midnightblue" d="M69.8633,-183.241C83.4321,-161.424 119.135,-108.248 162,-78 164.092,-76.5238 166.286,-75.1247 168.55,-73.8002"/>
<polygon fill="midnightblue" stroke="midnightblue" points="170.342,-76.8126 177.559,-69.0566 167.08,-70.6188 170.342,-76.8126"/>
</g>
<!-- Node19 -->
<g id="node19" class="node"><title>Node19</title>
<g id="a_node19"><a xlink:href="$GCS__MAVLink_8h.html#ab753873a1ee10adedd0ce246311468f8" xlink:title="comm_send_ch">
<polygon fill="white" stroke="black" points="183,-0.5 183,-19.5 269,-19.5 269,-0.5 183,-0.5"/>
<text text-anchor="middle" x="226" y="-7.5" font-family="Helvetica,sans-Serif" font-size="10.00">comm_send_ch</text>
</a>
</g>
</g>
<!-- Node1&#45;&gt;Node19 -->
<g id="edge23" class="edge"><title>Node1&#45;&gt;Node19</title>
<path fill="none" stroke="midnightblue" d="M67.036,-183.168C76.3188,-154.755 107.083,-71.8455 162,-29 165.541,-26.2374 169.48,-23.8753 173.611,-21.8557"/>
<polygon fill="midnightblue" stroke="midnightblue" points="175.02,-25.0602 182.883,-17.9592 172.308,-18.6069 175.02,-25.0602"/>
</g>
<!-- Node3&#45;&gt;Node4 -->
<g id="edge3" class="edge"><title>Node3&#45;&gt;Node4</title>
<path fill="none" stroke="midnightblue" d="M289.685,-470.373C298.307,-471.112 307.28,-471.881 316.228,-472.648"/>
<polygon fill="midnightblue" stroke="midnightblue" points="316.039,-476.145 326.301,-473.512 316.636,-469.17 316.039,-476.145"/>
</g>
<!-- Node4&#45;&gt;Node2 -->
<g id="edge6" class="edge"><title>Node4&#45;&gt;Node2</title>
<path fill="none" stroke="midnightblue" d="M432.697,-489.587C483.264,-504.854 590.761,-529.969 674,-499 705.196,-487.394 732.713,-459.21 748.348,-440.618"/>
<polygon fill="midnightblue" stroke="midnightblue" points="751.264,-442.58 754.85,-432.61 745.83,-438.167 751.264,-442.58"/>
</g>
<!-- Node5 -->
<g id="node5" class="node"><title>Node5</title>
<g id="a_node5"><a xlink:href="$v0_89_2protocol_8h.html#a78cf8b010c1768f8be4b9caa34aba0dc" xlink:title="_mav_put_uint8_t_array">
<polygon fill="white" stroke="black" points="534.5,-432.5 534.5,-451.5 655.5,-451.5 655.5,-432.5 534.5,-432.5"/>
<text text-anchor="middle" x="595" y="-439.5" font-family="Helvetica,sans-Serif" font-size="10.00">_mav_put_uint8_t_array</text>
</a>
</g>
</g>
<!-- Node4&#45;&gt;Node5 -->
<g id="edge4" class="edge"><title>Node4&#45;&gt;Node5</title>
<path fill="none" stroke="midnightblue" d="M451.945,-470.411C477.582,-465.284 509.336,-458.933 536.316,-453.537"/>
<polygon fill="midnightblue" stroke="midnightblue" points="537.28,-456.913 546.4,-451.52 535.908,-450.049 537.28,-456.913"/>
</g>
<!-- Node6 -->
<g id="node6" class="node"><title>Node6</title>
<g id="a_node6"><a xlink:href="$v0_89_2mavlink__helpers_8h.html#af3bea083c5ec83f5b6570b2bd4a817d0" xlink:title="Finalize a MAVLink message with MAVLINK_COMM_0 as default channel. ">
<polygon fill="white" stroke="black" points="529.5,-470.5 529.5,-489.5 660.5,-489.5 660.5,-470.5 529.5,-470.5"/>
<text text-anchor="middle" x="595" y="-477.5" font-family="Helvetica,sans-Serif" font-size="10.00">mavlink_finalize_message</text>
</a>
</g>
</g>
<!-- Node4&#45;&gt;Node6 -->
<g id="edge7" class="edge"><title>Node4&#45;&gt;Node6</title>
<path fill="none" stroke="midnightblue" d="M479.639,-480C492.622,-480 506.11,-480 519.074,-480"/>
<polygon fill="midnightblue" stroke="midnightblue" points="519.34,-483.5 529.34,-480 519.34,-476.5 519.34,-483.5"/>
</g>
<!-- Node5&#45;&gt;Node2 -->
<g id="edge5" class="edge"><title>Node5&#45;&gt;Node2</title>
<path fill="none" stroke="midnightblue" d="M655.93,-435.141C670.278,-433.498 685.625,-431.742 700.062,-430.089"/>
<polygon fill="midnightblue" stroke="midnightblue" points="700.849,-433.522 710.387,-428.908 700.053,-426.568 700.849,-433.522"/>
</g>
<!-- Node8 -->
<g id="node8" class="node"><title>Node8</title>
<g id="a_node8"><a xlink:href="$mavlink__msg__led__control_8h.html#a1b64f5bf87726ac32b21e038fd2e0662" xlink:title="Send a led_control message. ">
<polygon fill="white" stroke="black" points="339.5,-176 339.5,-206 466.5,-206 466.5,-176 339.5,-176"/>
<text text-anchor="start" x="347.5" y="-194" font-family="Helvetica,sans-Serif" font-size="10.00">mavlink_msg_led_control</text>
<text text-anchor="middle" x="403" y="-183" font-family="Helvetica,sans-Serif" font-size="10.00">_get_target_system</text>
</a>
</g>
</g>
<!-- Node7&#45;&gt;Node8 -->
<g id="edge9" class="edge"><title>Node7&#45;&gt;Node8</title>
<path fill="none" stroke="midnightblue" d="M280.934,-224.899C299.15,-219.798 319.653,-214.057 338.537,-208.77"/>
<polygon fill="midnightblue" stroke="midnightblue" points="339.558,-212.118 348.244,-206.052 337.671,-205.378 339.558,-212.118"/>
</g>
<!-- Node9 -->
<g id="node9" class="node"><title>Node9</title>
<g id="a_node9"><a xlink:href="$mavlink__msg__led__control_8h.html#abd6207b1a7abbf12295283e558b5293d" xlink:title="Get field target_component from led_control message. ">
<polygon fill="white" stroke="black" points="339.5,-127 339.5,-157 466.5,-157 466.5,-127 339.5,-127"/>
<text text-anchor="start" x="347.5" y="-145" font-family="Helvetica,sans-Serif" font-size="10.00">mavlink_msg_led_control</text>
<text text-anchor="middle" x="403" y="-134" font-family="Helvetica,sans-Serif" font-size="10.00">_get_target_component</text>
</a>
</g>
</g>
<!-- Node7&#45;&gt;Node9 -->
<g id="edge10" class="edge"><title>Node7&#45;&gt;Node9</title>
<path fill="none" stroke="midnightblue" d="M243.692,-224.721C262.476,-208.228 294.495,-182.157 326,-166 329.569,-164.17 333.303,-162.446 337.121,-160.829"/>
<polygon fill="midnightblue" stroke="midnightblue" points="338.722,-163.96 346.733,-157.027 336.147,-157.451 338.722,-163.96"/>
</g>
<!-- Node10 -->
<g id="node10" class="node"><title>Node10</title>
<g id="a_node10"><a xlink:href="$mavlink__msg__led__control_8h.html#a91902171f874c86bcf02bf85e770746a" xlink:title="Get field instance from led_control message. ">
<polygon fill="white" stroke="black" points="339.5,-372 339.5,-402 466.5,-402 466.5,-372 339.5,-372"/>
<text text-anchor="start" x="347.5" y="-390" font-family="Helvetica,sans-Serif" font-size="10.00">mavlink_msg_led_control</text>
<text text-anchor="middle" x="403" y="-379" font-family="Helvetica,sans-Serif" font-size="10.00">_get_instance</text>
</a>
</g>
</g>
<!-- Node7&#45;&gt;Node10 -->
<g id="edge11" class="edge"><title>Node7&#45;&gt;Node10</title>
<path fill="none" stroke="midnightblue" d="M237.774,-255.359C258.594,-284.665 304.214,-346.985 326,-362 328.89,-363.992 331.949,-365.833 335.117,-367.536"/>
<polygon fill="midnightblue" stroke="midnightblue" points="333.754,-370.765 344.279,-371.973 336.805,-364.464 333.754,-370.765"/>
</g>
<!-- Node11 -->
<g id="node11" class="node"><title>Node11</title>
<g id="a_node11"><a xlink:href="$mavlink__msg__led__control_8h.html#a1da0adc88358dd9794f53133b9527a0e" xlink:title="Get field pattern from led_control message. ">
<polygon fill="white" stroke="black" points="339.5,-323 339.5,-353 466.5,-353 466.5,-323 339.5,-323"/>
<text text-anchor="start" x="347.5" y="-341" font-family="Helvetica,sans-Serif" font-size="10.00">mavlink_msg_led_control</text>
<text text-anchor="middle" x="403" y="-330" font-family="Helvetica,sans-Serif" font-size="10.00">_get_pattern</text>
</a>
</g>
</g>
<!-- Node7&#45;&gt;Node11 -->
<g id="edge12" class="edge"><title>Node7&#45;&gt;Node11</title>
<path fill="none" stroke="midnightblue" d="M244.111,-255.283C263.003,-271.493 294.881,-296.934 326,-313 330.25,-315.194 334.732,-317.251 339.307,-319.167"/>
<polygon fill="midnightblue" stroke="midnightblue" points="338.195,-322.49 348.782,-322.901 340.762,-315.978 338.195,-322.49"/>
</g>
<!-- Node12 -->
<g id="node12" class="node"><title>Node12</title>
<g id="a_node12"><a xlink:href="$mavlink__msg__led__control_8h.html#a74ab405ada8b727cbe2e6c23428d118c" xlink:title="Get field custom_len from led_control message. ">
<polygon fill="white" stroke="black" points="339.5,-274 339.5,-304 466.5,-304 466.5,-274 339.5,-274"/>
<text text-anchor="start" x="347.5" y="-292" font-family="Helvetica,sans-Serif" font-size="10.00">mavlink_msg_led_control</text>
<text text-anchor="middle" x="403" y="-281" font-family="Helvetica,sans-Serif" font-size="10.00">_get_custom_len</text>
</a>
</g>
</g>
<!-- Node7&#45;&gt;Node12 -->
<g id="edge13" class="edge"><title>Node7&#45;&gt;Node12</title>
<path fill="none" stroke="midnightblue" d="M280.934,-255.101C299.15,-260.202 319.653,-265.943 338.537,-271.23"/>
<polygon fill="midnightblue" stroke="midnightblue" points="337.671,-274.622 348.244,-273.948 339.558,-267.882 337.671,-274.622"/>
</g>
<!-- Node13 -->
<g id="node13" class="node"><title>Node13</title>
<g id="a_node13"><a xlink:href="$mavlink__msg__led__control_8h.html#a3f246e516a8139f713d776899b463764" xlink:title="Get field custom_bytes from led_control message. ">
<polygon fill="white" stroke="black" points="339.5,-225 339.5,-255 466.5,-255 466.5,-225 339.5,-225"/>
<text text-anchor="start" x="347.5" y="-243" font-family="Helvetica,sans-Serif" font-size="10.00">mavlink_msg_led_control</text>
<text text-anchor="middle" x="403" y="-232" font-family="Helvetica,sans-Serif" font-size="10.00">_get_custom_bytes</text>
</a>
</g>
</g>
<!-- Node7&#45;&gt;Node13 -->
<g id="edge14" class="edge"><title>Node7&#45;&gt;Node13</title>
<path fill="none" stroke="midnightblue" d="M289.685,-240C302.454,-240 315.991,-240 329.081,-240"/>
<polygon fill="midnightblue" stroke="midnightblue" points="329.459,-243.5 339.459,-240 329.459,-236.5 329.459,-243.5"/>
</g>
<!-- Node14 -->
<g id="node14" class="node"><title>Node14</title>
<g id="a_node14"><a xlink:href="$v0_89_2protocol_8h.html#a0577ed5da38b4eed5472e27dc94026c3" xlink:title="_MAV_RETURN_uint8_t\l_array">
<polygon fill="white" stroke="black" points="532,-225 532,-255 658,-255 658,-225 532,-225"/>
<text text-anchor="start" x="540" y="-243" font-family="Helvetica,sans-Serif" font-size="10.00">_MAV_RETURN_uint8_t</text>
<text text-anchor="middle" x="595" y="-232" font-family="Helvetica,sans-Serif" font-size="10.00">_array</text>
</a>
</g>
</g>
<!-- Node13&#45;&gt;Node14 -->
<g id="edge15" class="edge"><title>Node13&#45;&gt;Node14</title>
<path fill="none" stroke="midnightblue" d="M466.74,-240C484.351,-240 503.641,-240 521.757,-240"/>
<polygon fill="midnightblue" stroke="midnightblue" points="521.974,-243.5 531.974,-240 521.974,-236.5 521.974,-243.5"/>
</g>
<!-- Node15&#45;&gt;Node2 -->
<g id="edge19" class="edge"><title>Node15&#45;&gt;Node2</title>
<path fill="none" stroke="midnightblue" d="M466.679,-427.432C482.725,-425.594 499.975,-423.927 516,-423 578.495,-419.385 650.07,-419.91 699.84,-421.019"/>
<polygon fill="midnightblue" stroke="midnightblue" points="700.038,-424.524 710.119,-421.263 700.205,-417.526 700.038,-424.524"/>
</g>
<!-- Node15&#45;&gt;Node5 -->
<g id="edge18" class="edge"><title>Node15&#45;&gt;Node5</title>
<path fill="none" stroke="midnightblue" d="M466.74,-437.981C485.071,-438.56 505.221,-439.196 523.974,-439.789"/>
<polygon fill="midnightblue" stroke="midnightblue" points="524.123,-443.295 534.228,-440.112 524.344,-436.298 524.123,-443.295"/>
</g>
<!-- Node16 -->
<g id="node16" class="node"><title>Node16</title>
<g id="a_node16"><a xlink:href="$v0_89_2mavlink__helpers_8h.html#aa66131138fc02101dcc73b4b556ab422" xlink:title="Finalize a MAVLink message with channel assignment. ">
<polygon fill="white" stroke="black" points="516,-356.5 516,-375.5 674,-375.5 674,-356.5 516,-356.5"/>
<text text-anchor="middle" x="595" y="-363.5" font-family="Helvetica,sans-Serif" font-size="10.00">mavlink_finalize_message_chan</text>
</a>
</g>
</g>
<!-- Node15&#45;&gt;Node16 -->
<g id="edge20" class="edge"><title>Node15&#45;&gt;Node16</title>
<path fill="none" stroke="midnightblue" d="M454.851,-420.921C463.365,-417.93 472.02,-414.592 480,-411 496.891,-403.397 499.036,-397.439 516,-390 525.833,-385.688 536.679,-381.826 547.078,-378.525"/>
<polygon fill="midnightblue" stroke="midnightblue" points="548.321,-381.805 556.862,-375.536 546.276,-375.11 548.321,-381.805"/>
</g>
<!-- Node20 -->
<g id="node20" class="node"><title>Node20</title>
<g id="a_node20"><a xlink:href="$classAP__HAL_1_1Print.html#acc65391952a43334f8f5c9bef341f501" xlink:title="AP_HAL::Print::write">
<polygon fill="white" stroke="black" points="349,-0.5 349,-19.5 457,-19.5 457,-0.5 349,-0.5"/>
<text text-anchor="middle" x="403" y="-7.5" font-family="Helvetica,sans-Serif" font-size="10.00">AP_HAL::Print::write</text>
</a>
</g>
</g>
<!-- Node19&#45;&gt;Node20 -->
<g id="edge24" class="edge"><title>Node19&#45;&gt;Node20</title>
<path fill="none" stroke="midnightblue" d="M269.363,-10C290.158,-10 315.637,-10 338.687,-10"/>
<polygon fill="midnightblue" stroke="midnightblue" points="338.737,-13.5001 348.737,-10 338.737,-6.5001 338.737,-13.5001"/>
</g>
</g>
</svg>
