<?xml version="1.0" encoding="UTF-8" standalone="no"?>
<!DOCTYPE svg PUBLIC "-//W3C//DTD SVG 1.1//EN"
 "http://www.w3.org/Graphics/SVG/1.1/DTD/svg11.dtd">
<!-- Generated by graphviz version 2.36.0 (20140111.2315)
 -->
<!-- Title: mavlink_test_set_position_target_local_ned Pages: 1 -->
<svg width="716pt" height="919pt"
 viewBox="0.00 0.00 716.00 919.00" xmlns="http://www.w3.org/2000/svg" xmlns:xlink="http://www.w3.org/1999/xlink">
<g id="graph0" class="graph" transform="scale(1 1) rotate(0) translate(4 915)">
<title>mavlink_test_set_position_target_local_ned</title>
<polygon fill="white" stroke="none" points="-4,4 -4,-915 712,-915 712,4 -4,4"/>
<!-- Node1 -->
<g id="node1" class="node"><title>Node1</title>
<polygon fill="#bfbfbf" stroke="black" points="0,-405 0,-435 130,-435 130,-405 0,-405"/>
<text text-anchor="start" x="8" y="-423" font-family="Helvetica,sans-Serif" font-size="10.00">mavlink_test_set_position</text>
<text text-anchor="middle" x="65" y="-412" font-family="Helvetica,sans-Serif" font-size="10.00">_target_local_ned</text>
</g>
<!-- Node2 -->
<g id="node2" class="node"><title>Node2</title>
<g id="a_node2"><a xlink:href="$mavlink__msg__set__position__target__local__ned_8h.html#ad103c4fa850586c6edab9b67d5df5356" xlink:title="Encode a set_position_target_local_ned struct. ">
<polygon fill="white" stroke="black" points="173,-814 173,-844 305,-844 305,-814 173,-814"/>
<text text-anchor="start" x="181" y="-832" font-family="Helvetica,sans-Serif" font-size="10.00">mavlink_msg_set_position</text>
<text text-anchor="middle" x="239" y="-821" font-family="Helvetica,sans-Serif" font-size="10.00">_target_local_ned_encode</text>
</a>
</g>
</g>
<!-- Node1&#45;&gt;Node2 -->
<g id="edge1" class="edge"><title>Node1&#45;&gt;Node2</title>
<path fill="none" stroke="midnightblue" d="M70.0695,-435.103C82.0358,-478.6 119.224,-607.464 166,-708 182.459,-743.374 206.382,-781.674 222.064,-805.5"/>
<polygon fill="midnightblue" stroke="midnightblue" points="219.188,-807.496 227.638,-813.887 225.018,-803.621 219.188,-807.496"/>
</g>
<!-- Node3 -->
<g id="node3" class="node"><title>Node3</title>
<g id="a_node3"><a xlink:href="$mavlink__msg__set__position__target__local__ned_8h.html#adedb5e496a8827afb3287c5723f3ec24" xlink:title="Pack a set_position_target_local_ned message. ">
<polygon fill="white" stroke="black" points="378,-881 378,-911 510,-911 510,-881 378,-881"/>
<text text-anchor="start" x="386" y="-899" font-family="Helvetica,sans-Serif" font-size="10.00">mavlink_msg_set_position</text>
<text text-anchor="middle" x="444" y="-888" font-family="Helvetica,sans-Serif" font-size="10.00">_target_local_ned_pack</text>
</a>
</g>
</g>
<!-- Node1&#45;&gt;Node3 -->
<g id="edge21" class="edge"><title>Node1&#45;&gt;Node3</title>
<path fill="none" stroke="midnightblue" d="M76.2709,-435.102C110.857,-486.145 225.74,-657.251 312,-804 329.13,-833.142 321.452,-850.074 348,-871 354.121,-875.825 361.085,-879.724 368.395,-882.874"/>
<polygon fill="midnightblue" stroke="midnightblue" points="367.212,-886.169 377.802,-886.477 369.715,-879.632 367.212,-886.169"/>
</g>
<!-- Node5 -->
<g id="node5" class="node"><title>Node5</title>
<g id="a_node5"><a xlink:href="$mavlink__msg__set__position__target__local__ned_8h.html#a878e01479588d9a444149f10fb343857" xlink:title="Decode a set_position_target_local_ned message into a struct. ">
<polygon fill="white" stroke="black" points="173,-454 173,-484 305,-484 305,-454 173,-454"/>
<text text-anchor="start" x="181" y="-472" font-family="Helvetica,sans-Serif" font-size="10.00">mavlink_msg_set_position</text>
<text text-anchor="middle" x="239" y="-461" font-family="Helvetica,sans-Serif" font-size="10.00">_target_local_ned_decode</text>
</a>
</g>
</g>
<!-- Node1&#45;&gt;Node5 -->
<g id="edge4" class="edge"><title>Node1&#45;&gt;Node5</title>
<path fill="none" stroke="midnightblue" d="M119.009,-435.101C136.831,-440.179 156.88,-445.89 175.37,-451.158"/>
<polygon fill="midnightblue" stroke="midnightblue" points="174.59,-454.575 185.166,-453.948 176.508,-447.842 174.59,-454.575"/>
</g>
<!-- Node22 -->
<g id="node22" class="node"><title>Node22</title>
<g id="a_node22"><a xlink:href="$mavlink__msg__set__position__target__local__ned_8h.html#ad2e9012b8df59c8b36db8fccd1765806" xlink:title="Pack a set_position_target_local_ned message on a channel. ">
<polygon fill="white" stroke="black" points="166,-405 166,-435 312,-435 312,-405 166,-405"/>
<text text-anchor="start" x="174" y="-423" font-family="Helvetica,sans-Serif" font-size="10.00">mavlink_msg_set_position</text>
<text text-anchor="middle" x="239" y="-412" font-family="Helvetica,sans-Serif" font-size="10.00">_target_local_ned_pack_chan</text>
</a>
</g>
</g>
<!-- Node1&#45;&gt;Node22 -->
<g id="edge22" class="edge"><title>Node1&#45;&gt;Node22</title>
<path fill="none" stroke="midnightblue" d="M130.046,-420C138.422,-420 147.095,-420 155.717,-420"/>
<polygon fill="midnightblue" stroke="midnightblue" points="155.796,-423.5 165.796,-420 155.796,-416.5 155.796,-423.5"/>
</g>
<!-- Node24 -->
<g id="node24" class="node"><title>Node24</title>
<g id="a_node24"><a xlink:href="$v0_89_2mavlink__helpers_8h.html#afea0a9befa84822fd62c2899ea0d849e" xlink:title="Pack a message to send it over a serial byte stream. ">
<polygon fill="white" stroke="black" points="182,-356 182,-386 296,-386 296,-356 182,-356"/>
<text text-anchor="start" x="190" y="-374" font-family="Helvetica,sans-Serif" font-size="10.00">mavlink_msg_to_send</text>
<text text-anchor="middle" x="239" y="-363" font-family="Helvetica,sans-Serif" font-size="10.00">_buffer</text>
</a>
</g>
</g>
<!-- Node1&#45;&gt;Node24 -->
<g id="edge24" class="edge"><title>Node1&#45;&gt;Node24</title>
<path fill="none" stroke="midnightblue" d="M119.009,-404.899C136.831,-399.821 156.88,-394.11 175.37,-388.842"/>
<polygon fill="midnightblue" stroke="midnightblue" points="176.508,-392.158 185.166,-386.052 174.59,-385.425 176.508,-392.158"/>
</g>
<!-- Node25 -->
<g id="node25" class="node"><title>Node25</title>
<g id="a_node25"><a xlink:href="$v0_89_2protocol_8h.html#aa86c08f27aabb7a2e12a67f189f590c8" xlink:title="Get the required buffer size for this message. ">
<polygon fill="white" stroke="black" points="179.5,-307 179.5,-337 298.5,-337 298.5,-307 179.5,-307"/>
<text text-anchor="start" x="187.5" y="-325" font-family="Helvetica,sans-Serif" font-size="10.00">mavlink_msg_get_send</text>
<text text-anchor="middle" x="239" y="-314" font-family="Helvetica,sans-Serif" font-size="10.00">_buffer_length</text>
</a>
</g>
</g>
<!-- Node1&#45;&gt;Node25 -->
<g id="edge25" class="edge"><title>Node1&#45;&gt;Node25</title>
<path fill="none" stroke="midnightblue" d="M82.9383,-404.827C101.979,-388.427 134.381,-362.437 166,-346 169.452,-344.205 173.066,-342.505 176.759,-340.902"/>
<polygon fill="midnightblue" stroke="midnightblue" points="178.11,-344.131 186.051,-337.117 175.47,-337.648 178.11,-344.131"/>
</g>
<!-- Node26 -->
<g id="node26" class="node"><title>Node26</title>
<g id="a_node26"><a xlink:href="$GCS__MAVLink_8h.html#ab753873a1ee10adedd0ce246311468f8" xlink:title="comm_send_ch">
<polygon fill="white" stroke="black" points="196,-146.5 196,-165.5 282,-165.5 282,-146.5 196,-146.5"/>
<text text-anchor="middle" x="239" y="-153.5" font-family="Helvetica,sans-Serif" font-size="10.00">comm_send_ch</text>
</a>
</g>
</g>
<!-- Node1&#45;&gt;Node26 -->
<g id="edge26" class="edge"><title>Node1&#45;&gt;Node26</title>
<path fill="none" stroke="midnightblue" d="M75.9909,-404.665C105.83,-358.866 194.202,-223.224 226.236,-174.057"/>
<polygon fill="midnightblue" stroke="midnightblue" points="229.17,-175.964 231.697,-165.675 223.305,-172.143 229.17,-175.964"/>
</g>
<!-- Node2&#45;&gt;Node3 -->
<g id="edge2" class="edge"><title>Node2&#45;&gt;Node3</title>
<path fill="none" stroke="midnightblue" d="M275.632,-844.033C296.509,-852.544 323.509,-863.044 348,-871 355.668,-873.491 363.745,-875.915 371.816,-878.211"/>
<polygon fill="midnightblue" stroke="midnightblue" points="371.06,-881.633 381.632,-880.945 372.938,-874.89 371.06,-881.633"/>
</g>
<!-- Node4 -->
<g id="node4" class="node"><title>Node4</title>
<g id="a_node4"><a xlink:href="$v0_89_2mavlink__helpers_8h.html#af3bea083c5ec83f5b6570b2bd4a817d0" xlink:title="Finalize a MAVLink message with MAVLINK_COMM_0 as default channel. ">
<polygon fill="white" stroke="black" points="576.5,-886.5 576.5,-905.5 707.5,-905.5 707.5,-886.5 576.5,-886.5"/>
<text text-anchor="middle" x="642" y="-893.5" font-family="Helvetica,sans-Serif" font-size="10.00">mavlink_finalize_message</text>
</a>
</g>
</g>
<!-- Node3&#45;&gt;Node4 -->
<g id="edge3" class="edge"><title>Node3&#45;&gt;Node4</title>
<path fill="none" stroke="midnightblue" d="M510.265,-896C528.212,-896 547.813,-896 566.249,-896"/>
<polygon fill="midnightblue" stroke="midnightblue" points="566.353,-899.5 576.353,-896 566.353,-892.5 566.353,-899.5"/>
</g>
<!-- Node6 -->
<g id="node6" class="node"><title>Node6</title>
<g id="a_node6"><a xlink:href="$mavlink__msg__set__position__target__local__ned_8h.html#ac15a87758937b85d95f43583e03400d3" xlink:title="Send a set_position_target_local_ned message. ">
<polygon fill="white" stroke="black" points="376,-821.5 376,-862.5 512,-862.5 512,-821.5 376,-821.5"/>
<text text-anchor="start" x="384" y="-850.5" font-family="Helvetica,sans-Serif" font-size="10.00">mavlink_msg_set_position</text>
<text text-anchor="start" x="384" y="-839.5" font-family="Helvetica,sans-Serif" font-size="10.00">_target_local_ned_get_time</text>
<text text-anchor="middle" x="444" y="-828.5" font-family="Helvetica,sans-Serif" font-size="10.00">_boot_ms</text>
</a>
</g>
</g>
<!-- Node5&#45;&gt;Node6 -->
<g id="edge5" class="edge"><title>Node5&#45;&gt;Node6</title>
<path fill="none" stroke="midnightblue" d="M245.571,-484.248C258.125,-518.836 289.305,-605.99 312,-680 329.828,-738.137 305.862,-768.158 348,-812 353.274,-817.487 359.541,-821.974 366.304,-825.642"/>
<polygon fill="midnightblue" stroke="midnightblue" points="365.254,-829.019 375.788,-830.155 368.262,-822.698 365.254,-829.019"/>
</g>
<!-- Node7 -->
<g id="node7" class="node"><title>Node7</title>
<g id="a_node7"><a xlink:href="$mavlink__msg__set__position__target__local__ned_8h.html#abc80a737592372394ae9b701757315a2" xlink:title="Get field x from set_position_target_local_ned message. ">
<polygon fill="white" stroke="black" points="378,-773 378,-803 510,-803 510,-773 378,-773"/>
<text text-anchor="start" x="386" y="-791" font-family="Helvetica,sans-Serif" font-size="10.00">mavlink_msg_set_position</text>
<text text-anchor="middle" x="444" y="-780" font-family="Helvetica,sans-Serif" font-size="10.00">_target_local_ned_get_x</text>
</a>
</g>
</g>
<!-- Node5&#45;&gt;Node7 -->
<g id="edge6" class="edge"><title>Node5&#45;&gt;Node7</title>
<path fill="none" stroke="midnightblue" d="M245.15,-484.21C265.128,-543.044 336.938,-752.939 348,-763 353.944,-768.406 360.917,-772.669 368.339,-776.026"/>
<polygon fill="midnightblue" stroke="midnightblue" points="367.351,-779.399 377.938,-779.813 369.92,-772.887 367.351,-779.399"/>
</g>
<!-- Node8 -->
<g id="node8" class="node"><title>Node8</title>
<g id="a_node8"><a xlink:href="$mavlink__msg__set__position__target__local__ned_8h.html#a1931d709fac57192daad62614dc2dce3" xlink:title="Get field y from set_position_target_local_ned message. ">
<polygon fill="white" stroke="black" points="378,-724 378,-754 510,-754 510,-724 378,-724"/>
<text text-anchor="start" x="386" y="-742" font-family="Helvetica,sans-Serif" font-size="10.00">mavlink_msg_set_position</text>
<text text-anchor="middle" x="444" y="-731" font-family="Helvetica,sans-Serif" font-size="10.00">_target_local_ned_get_y</text>
</a>
</g>
</g>
<!-- Node5&#45;&gt;Node8 -->
<g id="edge7" class="edge"><title>Node5&#45;&gt;Node8</title>
<path fill="none" stroke="midnightblue" d="M242.063,-484.056C248.761,-526.955 273.924,-650.783 348,-714 354.02,-719.138 360.979,-723.234 368.34,-726.498"/>
<polygon fill="midnightblue" stroke="midnightblue" points="367.248,-729.829 377.836,-730.203 369.792,-723.308 367.248,-729.829"/>
</g>
<!-- Node9 -->
<g id="node9" class="node"><title>Node9</title>
<g id="a_node9"><a xlink:href="$mavlink__msg__set__position__target__local__ned_8h.html#a2c14dd4ab05633fab9a69faed3841413" xlink:title="Get field z from set_position_target_local_ned message. ">
<polygon fill="white" stroke="black" points="378,-675 378,-705 510,-705 510,-675 378,-675"/>
<text text-anchor="start" x="386" y="-693" font-family="Helvetica,sans-Serif" font-size="10.00">mavlink_msg_set_position</text>
<text text-anchor="middle" x="444" y="-682" font-family="Helvetica,sans-Serif" font-size="10.00">_target_local_ned_get_z</text>
</a>
</g>
</g>
<!-- Node5&#45;&gt;Node9 -->
<g id="edge8" class="edge"><title>Node5&#45;&gt;Node9</title>
<path fill="none" stroke="midnightblue" d="M243.897,-484.215C254.181,-521.208 285.65,-616.385 348,-665 354.147,-669.793 361.127,-673.671 368.446,-676.809"/>
<polygon fill="midnightblue" stroke="midnightblue" points="367.272,-680.106 377.863,-680.4 369.766,-673.566 367.272,-680.106"/>
</g>
<!-- Node10 -->
<g id="node10" class="node"><title>Node10</title>
<g id="a_node10"><a xlink:href="$mavlink__msg__set__position__target__local__ned_8h.html#a12c60a95318cff49076d6e5e22d0cb9c" xlink:title="Get field vx from set_position_target_local_ned message. ">
<polygon fill="white" stroke="black" points="378,-626 378,-656 510,-656 510,-626 378,-626"/>
<text text-anchor="start" x="386" y="-644" font-family="Helvetica,sans-Serif" font-size="10.00">mavlink_msg_set_position</text>
<text text-anchor="middle" x="444" y="-633" font-family="Helvetica,sans-Serif" font-size="10.00">_target_local_ned_get_vx</text>
</a>
</g>
</g>
<!-- Node5&#45;&gt;Node10 -->
<g id="edge9" class="edge"><title>Node5&#45;&gt;Node10</title>
<path fill="none" stroke="midnightblue" d="M246.776,-484.146C261.002,-514.158 296.937,-581.272 348,-616 354.108,-620.154 360.869,-623.618 367.886,-626.507"/>
<polygon fill="midnightblue" stroke="midnightblue" points="366.984,-629.905 377.577,-630.1 369.418,-623.342 366.984,-629.905"/>
</g>
<!-- Node11 -->
<g id="node11" class="node"><title>Node11</title>
<g id="a_node11"><a xlink:href="$mavlink__msg__set__position__target__local__ned_8h.html#a5bbe7a5ef2dade330248c8facd49dc61" xlink:title="Get field vy from set_position_target_local_ned message. ">
<polygon fill="white" stroke="black" points="378,-577 378,-607 510,-607 510,-577 378,-577"/>
<text text-anchor="start" x="386" y="-595" font-family="Helvetica,sans-Serif" font-size="10.00">mavlink_msg_set_position</text>
<text text-anchor="middle" x="444" y="-584" font-family="Helvetica,sans-Serif" font-size="10.00">_target_local_ned_get_vy</text>
</a>
</g>
</g>
<!-- Node5&#45;&gt;Node11 -->
<g id="edge10" class="edge"><title>Node5&#45;&gt;Node11</title>
<path fill="none" stroke="midnightblue" d="M252.313,-484.037C270.822,-505.646 307.942,-545.267 348,-567 354.338,-570.439 361.174,-573.424 368.17,-576.011"/>
<polygon fill="midnightblue" stroke="midnightblue" points="367.184,-579.372 377.779,-579.297 369.45,-572.749 367.184,-579.372"/>
</g>
<!-- Node12 -->
<g id="node12" class="node"><title>Node12</title>
<g id="a_node12"><a xlink:href="$mavlink__msg__set__position__target__local__ned_8h.html#a37b8c83733b782473de23ef11092e63b" xlink:title="Get field vz from set_position_target_local_ned message. ">
<polygon fill="white" stroke="black" points="378,-528 378,-558 510,-558 510,-528 378,-528"/>
<text text-anchor="start" x="386" y="-546" font-family="Helvetica,sans-Serif" font-size="10.00">mavlink_msg_set_position</text>
<text text-anchor="middle" x="444" y="-535" font-family="Helvetica,sans-Serif" font-size="10.00">_target_local_ned_get_vz</text>
</a>
</g>
</g>
<!-- Node5&#45;&gt;Node12 -->
<g id="edge11" class="edge"><title>Node5&#45;&gt;Node12</title>
<path fill="none" stroke="midnightblue" d="M269.699,-484.116C291.087,-494.594 320.84,-508.343 348,-518 355.039,-520.503 362.451,-522.881 369.901,-525.104"/>
<polygon fill="midnightblue" stroke="midnightblue" points="369.112,-528.519 379.69,-527.935 371.056,-521.795 369.112,-528.519"/>
</g>
<!-- Node13 -->
<g id="node13" class="node"><title>Node13</title>
<g id="a_node13"><a xlink:href="$mavlink__msg__set__position__target__local__ned_8h.html#a805d65fe369de8b2c7f80babe0cb3527" xlink:title="Get field afx from set_position_target_local_ned message. ">
<polygon fill="white" stroke="black" points="378,-479 378,-509 510,-509 510,-479 378,-479"/>
<text text-anchor="start" x="386" y="-497" font-family="Helvetica,sans-Serif" font-size="10.00">mavlink_msg_set_position</text>
<text text-anchor="middle" x="444" y="-486" font-family="Helvetica,sans-Serif" font-size="10.00">_target_local_ned_get_afx</text>
</a>
</g>
</g>
<!-- Node5&#45;&gt;Node13 -->
<g id="edge12" class="edge"><title>Node5&#45;&gt;Node13</title>
<path fill="none" stroke="midnightblue" d="M305.068,-477.013C325.1,-479.48 347.315,-482.216 367.96,-484.759"/>
<polygon fill="midnightblue" stroke="midnightblue" points="367.599,-488.241 377.952,-485.989 368.455,-481.293 367.599,-488.241"/>
</g>
<!-- Node14 -->
<g id="node14" class="node"><title>Node14</title>
<g id="a_node14"><a xlink:href="$mavlink__msg__set__position__target__local__ned_8h.html#adc019c71296a125d52dd8efb504c21f6" xlink:title="Get field afy from set_position_target_local_ned message. ">
<polygon fill="white" stroke="black" points="378,-430 378,-460 510,-460 510,-430 378,-430"/>
<text text-anchor="start" x="386" y="-448" font-family="Helvetica,sans-Serif" font-size="10.00">mavlink_msg_set_position</text>
<text text-anchor="middle" x="444" y="-437" font-family="Helvetica,sans-Serif" font-size="10.00">_target_local_ned_get_afy</text>
</a>
</g>
</g>
<!-- Node5&#45;&gt;Node14 -->
<g id="edge13" class="edge"><title>Node5&#45;&gt;Node14</title>
<path fill="none" stroke="midnightblue" d="M305.068,-461.307C325.1,-458.939 347.315,-456.313 367.96,-453.872"/>
<polygon fill="midnightblue" stroke="midnightblue" points="368.432,-457.34 377.952,-452.69 367.61,-450.389 368.432,-457.34"/>
</g>
<!-- Node15 -->
<g id="node15" class="node"><title>Node15</title>
<g id="a_node15"><a xlink:href="$mavlink__msg__set__position__target__local__ned_8h.html#a6c18f1d206b0305bc55d094ae2e9da74" xlink:title="Get field afz from set_position_target_local_ned message. ">
<polygon fill="white" stroke="black" points="378,-381 378,-411 510,-411 510,-381 378,-381"/>
<text text-anchor="start" x="386" y="-399" font-family="Helvetica,sans-Serif" font-size="10.00">mavlink_msg_set_position</text>
<text text-anchor="middle" x="444" y="-388" font-family="Helvetica,sans-Serif" font-size="10.00">_target_local_ned_get_afz</text>
</a>
</g>
</g>
<!-- Node5&#45;&gt;Node15 -->
<g id="edge14" class="edge"><title>Node5&#45;&gt;Node15</title>
<path fill="none" stroke="midnightblue" d="M288.718,-453.978C296.641,-450.999 304.653,-447.65 312,-444 329.221,-435.444 330.424,-427.801 348,-420 354.32,-417.195 361.028,-414.675 367.842,-412.422"/>
<polygon fill="midnightblue" stroke="midnightblue" points="369.356,-415.616 377.868,-409.307 367.28,-408.931 369.356,-415.616"/>
</g>
<!-- Node16 -->
<g id="node16" class="node"><title>Node16</title>
<g id="a_node16"><a xlink:href="$mavlink__msg__set__position__target__local__ned_8h.html#addc0868299b122f89a1e7c703afe3517" xlink:title="Get field yaw from set_position_target_local_ned message. ">
<polygon fill="white" stroke="black" points="376.5,-332 376.5,-362 511.5,-362 511.5,-332 376.5,-332"/>
<text text-anchor="start" x="384.5" y="-350" font-family="Helvetica,sans-Serif" font-size="10.00">mavlink_msg_set_position</text>
<text text-anchor="middle" x="444" y="-339" font-family="Helvetica,sans-Serif" font-size="10.00">_target_local_ned_get_yaw</text>
</a>
</g>
</g>
<!-- Node5&#45;&gt;Node16 -->
<g id="edge15" class="edge"><title>Node5&#45;&gt;Node16</title>
<path fill="none" stroke="midnightblue" d="M297.372,-453.891C302.645,-451.122 307.636,-447.854 312,-444 339.115,-420.054 319.872,-393.748 348,-371 353.638,-366.44 360.032,-362.734 366.775,-359.722"/>
<polygon fill="midnightblue" stroke="midnightblue" points="368.124,-362.953 376.146,-356.032 365.559,-356.44 368.124,-362.953"/>
</g>
<!-- Node17 -->
<g id="node17" class="node"><title>Node17</title>
<g id="a_node17"><a xlink:href="$mavlink__msg__set__position__target__local__ned_8h.html#a4b632489e0a25acc4adde92d17acbe2e" xlink:title="Get field yaw_rate from set_position_target_local_ned message. ">
<polygon fill="white" stroke="black" points="365.5,-283 365.5,-313 522.5,-313 522.5,-283 365.5,-283"/>
<text text-anchor="start" x="373.5" y="-301" font-family="Helvetica,sans-Serif" font-size="10.00">mavlink_msg_set_position</text>
<text text-anchor="middle" x="444" y="-290" font-family="Helvetica,sans-Serif" font-size="10.00">_target_local_ned_get_yaw_rate</text>
</a>
</g>
</g>
<!-- Node5&#45;&gt;Node17 -->
<g id="edge16" class="edge"><title>Node5&#45;&gt;Node17</title>
<path fill="none" stroke="midnightblue" d="M299.474,-453.82C304.078,-451.073 308.347,-447.83 312,-444 351.02,-403.091 307.243,-361.178 348,-322 350.593,-319.508 353.405,-317.263 356.383,-315.243"/>
<polygon fill="midnightblue" stroke="midnightblue" points="358.292,-318.182 365.169,-310.123 354.767,-312.134 358.292,-318.182"/>
</g>
<!-- Node18 -->
<g id="node18" class="node"><title>Node18</title>
<g id="a_node18"><a xlink:href="$mavlink__msg__set__position__target__local__ned_8h.html#aa1a6686dc544c66097ebaa70567c0254" xlink:title="Get field type_mask from set_position_target_local_ned message. ">
<polygon fill="white" stroke="black" points="361.5,-234 361.5,-264 526.5,-264 526.5,-234 361.5,-234"/>
<text text-anchor="start" x="369.5" y="-252" font-family="Helvetica,sans-Serif" font-size="10.00">mavlink_msg_set_position</text>
<text text-anchor="middle" x="444" y="-241" font-family="Helvetica,sans-Serif" font-size="10.00">_target_local_ned_get_type_mask</text>
</a>
</g>
</g>
<!-- Node5&#45;&gt;Node18 -->
<g id="edge17" class="edge"><title>Node5&#45;&gt;Node18</title>
<path fill="none" stroke="midnightblue" d="M300.144,-453.912C304.547,-451.146 308.589,-447.873 312,-444 363.331,-385.715 294.19,-329.004 348,-273 349.459,-271.482 350.998,-270.055 352.607,-268.713"/>
<polygon fill="midnightblue" stroke="midnightblue" points="355.01,-271.302 361.183,-262.691 350.987,-265.574 355.01,-271.302"/>
</g>
<!-- Node19 -->
<g id="node19" class="node"><title>Node19</title>
<g id="a_node19"><a xlink:href="$mavlink__msg__set__position__target__local__ned_8h.html#a6d103bc762933d397cfd48bd992cba4a" xlink:title="Get field target_system from set_position_target_local_ned message. ">
<polygon fill="white" stroke="black" points="354.5,-185 354.5,-215 533.5,-215 533.5,-185 354.5,-185"/>
<text text-anchor="start" x="362.5" y="-203" font-family="Helvetica,sans-Serif" font-size="10.00">mavlink_msg_set_position</text>
<text text-anchor="middle" x="444" y="-192" font-family="Helvetica,sans-Serif" font-size="10.00">_target_local_ned_get_target_system</text>
</a>
</g>
</g>
<!-- Node5&#45;&gt;Node19 -->
<g id="edge18" class="edge"><title>Node5&#45;&gt;Node19</title>
<path fill="none" stroke="midnightblue" d="M300.67,-453.86C304.901,-451.104 308.763,-447.848 312,-444 375.782,-368.182 280.99,-296.981 348,-224 348.777,-223.154 349.578,-222.336 350.403,-221.545"/>
<polygon fill="midnightblue" stroke="midnightblue" points="352.789,-224.118 358.404,-215.134 348.412,-218.656 352.789,-224.118"/>
</g>
<!-- Node20 -->
<g id="node20" class="node"><title>Node20</title>
<g id="a_node20"><a xlink:href="$mavlink__msg__set__position__target__local__ned_8h.html#aacf6af2866a678a3afd3c026a2d9705c" xlink:title="Get field target_component from set_position_target_local_ned message. ">
<polygon fill="white" stroke="black" points="373,-125.5 373,-166.5 515,-166.5 515,-125.5 373,-125.5"/>
<text text-anchor="start" x="381" y="-154.5" font-family="Helvetica,sans-Serif" font-size="10.00">mavlink_msg_set_position</text>
<text text-anchor="start" x="381" y="-143.5" font-family="Helvetica,sans-Serif" font-size="10.00">_target_local_ned_get_target</text>
<text text-anchor="middle" x="444" y="-132.5" font-family="Helvetica,sans-Serif" font-size="10.00">_component</text>
</a>
</g>
</g>
<!-- Node5&#45;&gt;Node20 -->
<g id="edge19" class="edge"><title>Node5&#45;&gt;Node20</title>
<path fill="none" stroke="midnightblue" d="M300.793,-453.961C304.997,-451.184 308.82,-447.895 312,-444 388.297,-350.575 269.946,-266.962 348,-175 352.498,-169.7 357.936,-165.35 363.905,-161.783"/>
<polygon fill="midnightblue" stroke="midnightblue" points="365.703,-164.793 372.983,-157.096 362.492,-158.573 365.703,-164.793"/>
</g>
<!-- Node21 -->
<g id="node21" class="node"><title>Node21</title>
<g id="a_node21"><a xlink:href="$mavlink__msg__set__position__target__local__ned_8h.html#a8c4ce09ea456c78bdc3459a7b2abbfa3" xlink:title="Get field coordinate_frame from set_position_target_local_ned message. ">
<polygon fill="white" stroke="black" points="348,-77 348,-107 540,-107 540,-77 348,-77"/>
<text text-anchor="start" x="356" y="-95" font-family="Helvetica,sans-Serif" font-size="10.00">mavlink_msg_set_position</text>
<text text-anchor="middle" x="444" y="-84" font-family="Helvetica,sans-Serif" font-size="10.00">_target_local_ned_get_coordinate_frame</text>
</a>
</g>
</g>
<!-- Node5&#45;&gt;Node21 -->
<g id="edge20" class="edge"><title>Node5&#45;&gt;Node21</title>
<path fill="none" stroke="midnightblue" d="M301.223,-453.821C305.275,-451.073 308.948,-447.828 312,-444 403.409,-329.32 251.704,-226.609 348,-116 348.635,-115.27 349.289,-114.561 349.961,-113.872"/>
<polygon fill="midnightblue" stroke="midnightblue" points="352.422,-116.374 357.773,-107.23 347.888,-111.041 352.422,-116.374"/>
</g>
<!-- Node23 -->
<g id="node23" class="node"><title>Node23</title>
<g id="a_node23"><a xlink:href="$v0_89_2mavlink__helpers_8h.html#aa66131138fc02101dcc73b4b556ab422" xlink:title="Finalize a MAVLink message with channel assignment. ">
<polygon fill="white" stroke="black" points="365,-38.5 365,-57.5 523,-57.5 523,-38.5 365,-38.5"/>
<text text-anchor="middle" x="444" y="-45.5" font-family="Helvetica,sans-Serif" font-size="10.00">mavlink_finalize_message_chan</text>
</a>
</g>
</g>
<!-- Node22&#45;&gt;Node23 -->
<g id="edge23" class="edge"><title>Node22&#45;&gt;Node23</title>
<path fill="none" stroke="midnightblue" d="M301.223,-404.821C305.275,-402.073 308.948,-398.828 312,-395 403.409,-280.32 248.966,-175.164 348,-67 350.46,-64.3135 353.183,-61.9455 356.108,-59.8614"/>
<polygon fill="midnightblue" stroke="midnightblue" points="358.001,-62.8086 364.833,-54.7109 354.442,-56.7806 358.001,-62.8086"/>
</g>
<!-- Node27 -->
<g id="node27" class="node"><title>Node27</title>
<g id="a_node27"><a xlink:href="$classAP__HAL_1_1Print.html#acc65391952a43334f8f5c9bef341f501" xlink:title="AP_HAL::Print::write">
<polygon fill="white" stroke="black" points="390,-0.5 390,-19.5 498,-19.5 498,-0.5 390,-0.5"/>
<text text-anchor="middle" x="444" y="-7.5" font-family="Helvetica,sans-Serif" font-size="10.00">AP_HAL::Print::write</text>
</a>
</g>
</g>
<!-- Node26&#45;&gt;Node27 -->
<g id="edge27" class="edge"><title>Node26&#45;&gt;Node27</title>
<path fill="none" stroke="midnightblue" d="M245.062,-146.469C258.368,-122.425 296.859,-59.0838 348,-29 357.755,-23.2615 368.946,-19.2271 380.143,-16.3973"/>
<polygon fill="midnightblue" stroke="midnightblue" points="380.951,-19.803 389.948,-14.2081 379.426,-12.9712 380.951,-19.803"/>
</g>
</g>
</svg>
