<?xml version="1.0" encoding="UTF-8" standalone="no"?>
<!DOCTYPE svg PUBLIC "-//W3C//DTD SVG 1.1//EN"
 "http://www.w3.org/Graphics/SVG/1.1/DTD/svg11.dtd">
<!-- Generated by graphviz version 2.36.0 (20140111.2315)
 -->
<!-- Title: mavlink_msg_scaled_imu_get_time_boot_ms Pages: 1 -->
<svg width="276pt" height="38pt"
 viewBox="0.00 0.00 276.00 38.00" xmlns="http://www.w3.org/2000/svg" xmlns:xlink="http://www.w3.org/1999/xlink">
<g id="graph0" class="graph" transform="scale(1 1) rotate(0) translate(4 34)">
<title>mavlink_msg_scaled_imu_get_time_boot_ms</title>
<polygon fill="white" stroke="none" points="-4,4 -4,-34 272,-34 272,4 -4,4"/>
<!-- Node1 -->
<g id="node1" class="node"><title>Node1</title>
<polygon fill="#bfbfbf" stroke="black" points="0.5,-0 0.5,-30 123.5,-30 123.5,-0 0.5,-0"/>
<text text-anchor="start" x="8.5" y="-18" font-family="Helvetica,sans-Serif" font-size="10.00">mavlink_msg_scaled</text>
<text text-anchor="middle" x="62" y="-7" font-family="Helvetica,sans-Serif" font-size="10.00">_imu_get_time_boot_ms</text>
</g>
<!-- Node2 -->
<g id="node2" class="node"><title>Node2</title>
<g id="a_node2"><a xlink:href="$v1_80_2common_2mavlink__msg__scaled__imu_8h.html#a9e291fc59f636f840a120ea841ea6a88" xlink:title="Decode a scaled_imu message into a struct. ">
<polygon fill="white" stroke="black" points="160,-0 160,-30 268,-30 268,-0 160,-0"/>
<text text-anchor="start" x="168" y="-18" font-family="Helvetica,sans-Serif" font-size="10.00">mavlink_msg_scaled</text>
<text text-anchor="middle" x="214" y="-7" font-family="Helvetica,sans-Serif" font-size="10.00">_imu_decode</text>
</a>
</g>
</g>
<!-- Node1&#45;&gt;Node2 -->
<g id="edge1" class="edge"><title>Node1&#45;&gt;Node2</title>
<path fill="none" stroke="midnightblue" d="M133.825,-15C142.608,-15 151.468,-15 159.921,-15"/>
<polygon fill="midnightblue" stroke="midnightblue" points="133.578,-11.5001 123.578,-15 133.578,-18.5001 133.578,-11.5001"/>
</g>
</g>
</svg>
