<?xml version="1.0" encoding="UTF-8" standalone="no"?>
<!DOCTYPE svg PUBLIC "-//W3C//DTD SVG 1.1//EN"
 "http://www.w3.org/Graphics/SVG/1.1/DTD/svg11.dtd">
<!-- Generated by graphviz version 2.36.0 (20140111.2315)
 -->
<!-- Title: loop Pages: 1 -->
<svg width="218pt" height="175pt"
 viewBox="0.00 0.00 218.00 175.00" xmlns="http://www.w3.org/2000/svg" xmlns:xlink="http://www.w3.org/1999/xlink">
<g id="graph0" class="graph" transform="scale(1 1) rotate(0) translate(4 171)">
<title>loop</title>
<polygon fill="white" stroke="none" points="-4,4 -4,-171 214,-171 214,4 -4,4"/>
<!-- Node1 -->
<g id="node1" class="node"><title>Node1</title>
<polygon fill="#bfbfbf" stroke="black" points="0.5,-78.5 0.5,-97.5 35.5,-97.5 35.5,-78.5 0.5,-78.5"/>
<text text-anchor="middle" x="18" y="-85.5" font-family="Helvetica,sans-Serif" font-size="10.00">loop</text>
</g>
<!-- Node2 -->
<g id="node2" class="node"><title>Node2</title>
<g id="a_node2"><a xlink:href="$classDataFlash__File.html#a53109500cb7d4242d2b3ae0310a653a4" xlink:title="DataFlash_File::WriteBlock">
<polygon fill="white" stroke="black" points="72.5,-147.5 72.5,-166.5 209.5,-166.5 209.5,-147.5 72.5,-147.5"/>
<text text-anchor="middle" x="141" y="-154.5" font-family="Helvetica,sans-Serif" font-size="10.00">DataFlash_File::WriteBlock</text>
</a>
</g>
</g>
<!-- Node1&#45;&gt;Node2 -->
<g id="edge1" class="edge"><title>Node1&#45;&gt;Node2</title>
<path fill="none" stroke="midnightblue" d="M26.9917,-97.7064C36.5865,-108.754 53.6898,-126.61 72,-137 76.5653,-139.591 81.4972,-141.873 86.5468,-143.878"/>
<polygon fill="midnightblue" stroke="midnightblue" points="85.7425,-147.308 96.3369,-147.401 88.1124,-140.722 85.7425,-147.308"/>
</g>
<!-- Node3 -->
<g id="node3" class="node"><title>Node3</title>
<g id="a_node3"><a xlink:href="$classAP__HAL_1_1UARTDriver.html#a4b1ae6fcec3dfe651d08faf589f4ad6d" xlink:title="AP_HAL::UARTDriver\l::printf">
<polygon fill="white" stroke="black" points="83.5,-98 83.5,-128 198.5,-128 198.5,-98 83.5,-98"/>
<text text-anchor="start" x="91.5" y="-116" font-family="Helvetica,sans-Serif" font-size="10.00">AP_HAL::UARTDriver</text>
<text text-anchor="middle" x="141" y="-105" font-family="Helvetica,sans-Serif" font-size="10.00">::printf</text>
</a>
</g>
</g>
<!-- Node1&#45;&gt;Node3 -->
<g id="edge2" class="edge"><title>Node1&#45;&gt;Node3</title>
<path fill="none" stroke="midnightblue" d="M35.8245,-91.4761C45.8572,-93.549 59.321,-96.3308 73.2316,-99.2049"/>
<polygon fill="midnightblue" stroke="midnightblue" points="72.8956,-102.709 83.397,-101.305 74.3121,-95.8541 72.8956,-102.709"/>
</g>
<!-- Node4 -->
<g id="node4" class="node"><title>Node4</title>
<g id="a_node4"><a xlink:href="$classAP__HAL_1_1Scheduler.html#a26b68339fc68a562d8d3a1238d0ec8c1" xlink:title="AP_HAL::Scheduler::\lmillis">
<polygon fill="white" stroke="black" points="86,-49 86,-79 196,-79 196,-49 86,-49"/>
<text text-anchor="start" x="94" y="-67" font-family="Helvetica,sans-Serif" font-size="10.00">AP_HAL::Scheduler::</text>
<text text-anchor="middle" x="141" y="-56" font-family="Helvetica,sans-Serif" font-size="10.00">millis</text>
</a>
</g>
</g>
<!-- Node1&#45;&gt;Node4 -->
<g id="edge3" class="edge"><title>Node1&#45;&gt;Node4</title>
<path fill="none" stroke="midnightblue" d="M35.8245,-84.6629C46.4295,-82.5594 60.8681,-79.6956 75.6158,-76.7704"/>
<polygon fill="midnightblue" stroke="midnightblue" points="76.7038,-80.1229 85.8318,-74.7441 75.3419,-73.2566 76.7038,-80.1229"/>
</g>
<!-- Node5 -->
<g id="node5" class="node"><title>Node5</title>
<g id="a_node5"><a xlink:href="$classAP__HAL_1_1Scheduler.html#a78c4f1b1f192ac1c99544b6cc8f099b0" xlink:title="AP_HAL::Scheduler::\ldelay_microseconds">
<polygon fill="white" stroke="black" points="86,-0 86,-30 196,-30 196,-0 86,-0"/>
<text text-anchor="start" x="94" y="-18" font-family="Helvetica,sans-Serif" font-size="10.00">AP_HAL::Scheduler::</text>
<text text-anchor="middle" x="141" y="-7" font-family="Helvetica,sans-Serif" font-size="10.00">delay_microseconds</text>
</a>
</g>
</g>
<!-- Node1&#45;&gt;Node5 -->
<g id="edge4" class="edge"><title>Node1&#45;&gt;Node5</title>
<path fill="none" stroke="midnightblue" d="M27.5084,-78.329C37.318,-67.6834 54.3687,-50.6678 72,-40 75.3546,-37.9703 78.9005,-36.0643 82.5413,-34.2818"/>
<polygon fill="midnightblue" stroke="midnightblue" points="84.0758,-37.429 91.7321,-30.1057 81.18,-31.056 84.0758,-37.429"/>
</g>
</g>
</svg>
